<?xml version="1.0" encoding="UTF-8" standalone="no"?>
<!DOCTYPE svg PUBLIC "-//W3C//DTD SVG 1.1//EN"
 "http://www.w3.org/Graphics/SVG/1.1/DTD/svg11.dtd">
<!-- Generated by graphviz version 2.40.1 (20161225.0304)
 -->
<!-- Title: /home/atmerhannah/argodsm/src/allocators/allocators.h Pages: 1 -->
<svg width="2395pt" height="318pt"
 viewBox="0.00 0.00 2395.00 318.00" xmlns="http://www.w3.org/2000/svg" xmlns:xlink="http://www.w3.org/1999/xlink">
<g id="graph0" class="graph" transform="scale(1 1) rotate(0) translate(4 314)">
<title>/home/atmerhannah/argodsm/src/allocators/allocators.h</title>
<polygon fill="#ffffff" stroke="transparent" points="-4,4 -4,-314 2391,-314 2391,4 -4,4"/>
<!-- Node3 -->
<g id="node1" class="node">
<title>Node3</title>
<polygon fill="#bfbfbf" stroke="#000000" points="1452,-279.5 1452,-309.5 1613,-309.5 1613,-279.5 1452,-279.5"/>
<text text-anchor="start" x="1460" y="-297.5" font-family="Helvetica,sans-Serif" font-size="10.00" fill="#000000">/home/atmerhannah/argodsm</text>
<text text-anchor="middle" x="1532.5" y="-286.5" font-family="Helvetica,sans-Serif" font-size="10.00" fill="#000000">/src/allocators/allocators.h</text>
</g>
<!-- Node4 -->
<g id="node2" class="node">
<title>Node4</title>
<g id="a_node2"><a xlink:href="argo_8h.html" target="_top" xlink:title="This file provides the full C interface to ArgoDSM. ">
<polygon fill="#ffffff" stroke="#000000" points="1452,-212.5 1452,-242.5 1613,-242.5 1613,-212.5 1452,-212.5"/>
<text text-anchor="start" x="1460" y="-230.5" font-family="Helvetica,sans-Serif" font-size="10.00" fill="#000000">/home/atmerhannah/argodsm</text>
<text text-anchor="middle" x="1532.5" y="-219.5" font-family="Helvetica,sans-Serif" font-size="10.00" fill="#000000">/src/argo.h</text>
</a>
</g>
</g>
<!-- Node3&#45;&gt;Node4 -->
<g id="edge1" class="edge">
<title>Node3&#45;&gt;Node4</title>
<path fill="none" stroke="#191970" d="M1532.5,-269.0249C1532.5,-260.128 1532.5,-250.4287 1532.5,-242.6432"/>
<polygon fill="#191970" stroke="#191970" points="1529.0001,-269.2966 1532.5,-279.2967 1536.0001,-269.2967 1529.0001,-269.2966"/>
</g>
<!-- Node5 -->
<g id="node3" class="node">
<title>Node5</title>
<g id="a_node3"><a xlink:href="argo_8hpp.html" target="_top" xlink:title="This file provides the full C++ interface to ArgoDSM. ">
<polygon fill="#ffffff" stroke="#000000" points="985,-145.5 985,-175.5 1146,-175.5 1146,-145.5 985,-145.5"/>
<text text-anchor="start" x="993" y="-163.5" font-family="Helvetica,sans-Serif" font-size="10.00" fill="#000000">/home/atmerhannah/argodsm</text>
<text text-anchor="middle" x="1065.5" y="-152.5" font-family="Helvetica,sans-Serif" font-size="10.00" fill="#000000">/src/argo.hpp</text>
</a>
</g>
</g>
<!-- Node4&#45;&gt;Node5 -->
<g id="edge2" class="edge">
<title>Node4&#45;&gt;Node5</title>
<path fill="none" stroke="#191970" d="M1441.968,-214.5115C1356.1951,-202.2057 1228.5791,-183.8968 1146.1997,-172.0779"/>
<polygon fill="#191970" stroke="#191970" points="1441.5583,-217.9885 1451.9541,-215.9442 1442.5525,-211.0594 1441.5583,-217.9885"/>
</g>
<!-- Node17 -->
<g id="node15" class="node">
<title>Node17</title>
<g id="a_node15"><a xlink:href="swdsm_8h.html" target="_top" xlink:title="this is a legacy file from the ArgoDSM prototype ">
<polygon fill="#ffffff" stroke="#000000" points="2008,-145.5 2008,-175.5 2169,-175.5 2169,-145.5 2008,-145.5"/>
<text text-anchor="start" x="2016" y="-163.5" font-family="Helvetica,sans-Serif" font-size="10.00" fill="#000000">/home/atmerhannah/argodsm</text>
<text text-anchor="middle" x="2088.5" y="-152.5" font-family="Helvetica,sans-Serif" font-size="10.00" fill="#000000">/src/backend/mpi/swdsm.h</text>
</a>
</g>
</g>
<!-- Node4&#45;&gt;Node17 -->
<g id="edge14" class="edge">
<title>Node4&#45;&gt;Node17</title>
<path fill="none" stroke="#191970" d="M1623.1642,-216.5746C1729.9509,-203.7065 1905.7066,-182.5273 2007.9131,-170.211"/>
<polygon fill="#191970" stroke="#191970" points="1622.5595,-213.1221 1613.0501,-217.7934 1623.397,-220.0718 1622.5595,-213.1221"/>
</g>
<!-- Node6 -->
<g id="node4" class="node">
<title>Node6</title>
<g id="a_node4"><a xlink:href="argo_8cpp.html" target="_top" xlink:title="This file implements some of the basic ArgoDSM calls. ">
<polygon fill="#ffffff" stroke="#000000" points="0,-73 0,-103 161,-103 161,-73 0,-73"/>
<text text-anchor="start" x="8" y="-91" font-family="Helvetica,sans-Serif" font-size="10.00" fill="#000000">/home/atmerhannah/argodsm</text>
<text text-anchor="middle" x="80.5" y="-80" font-family="Helvetica,sans-Serif" font-size="10.00" fill="#000000">/src/argo.cpp</text>
</a>
</g>
</g>
<!-- Node5&#45;&gt;Node6 -->
<g id="edge3" class="edge">
<title>Node5&#45;&gt;Node6</title>
<path fill="none" stroke="#191970" d="M974.6624,-157.2927C778.9648,-150.0542 322.8701,-131.3278 169.5,-109 159.1313,-107.4905 148.1934,-105.3635 137.669,-103.0378"/>
<polygon fill="#191970" stroke="#191970" points="974.7917,-160.7998 984.9137,-157.6702 975.0493,-153.8045 974.7917,-160.7998"/>
</g>
<!-- Node7 -->
<g id="node5" class="node">
<title>Node7</title>
<g id="a_node5"><a xlink:href="tests_2allocators_8cpp.html" target="_top" xlink:title="This file provides unit tests for the ArgoDSM allocators and memory pools. ">
<polygon fill="#ffffff" stroke="#000000" points="179,-73 179,-103 340,-103 340,-73 179,-73"/>
<text text-anchor="start" x="187" y="-91" font-family="Helvetica,sans-Serif" font-size="10.00" fill="#000000">/home/atmerhannah/argodsm</text>
<text text-anchor="middle" x="259.5" y="-80" font-family="Helvetica,sans-Serif" font-size="10.00" fill="#000000">/tests/allocators.cpp</text>
</a>
</g>
</g>
<!-- Node5&#45;&gt;Node7 -->
<g id="edge4" class="edge">
<title>Node5&#45;&gt;Node7</title>
<path fill="none" stroke="#191970" d="M974.9201,-158.6333C838.3914,-154.7749 572.0585,-143.1788 348.5,-109 338.2993,-107.4405 327.541,-105.3191 317.1658,-103.0216"/>
<polygon fill="#191970" stroke="#191970" points="974.8308,-162.132 984.9234,-158.9086 975.0235,-155.1347 974.8308,-162.132"/>
</g>
<!-- Node8 -->
<g id="node6" class="node">
<title>Node8</title>
<g id="a_node6"><a xlink:href="api_8cpp.html" target="_top" xlink:title="This file provides unit tests for the ArgoDSM API functions. ">
<polygon fill="#ffffff" stroke="#000000" points="358,-73 358,-103 519,-103 519,-73 358,-73"/>
<text text-anchor="start" x="366" y="-91" font-family="Helvetica,sans-Serif" font-size="10.00" fill="#000000">/home/atmerhannah/argodsm</text>
<text text-anchor="middle" x="438.5" y="-80" font-family="Helvetica,sans-Serif" font-size="10.00" fill="#000000">/tests/api.cpp</text>
</a>
</g>
</g>
<!-- Node5&#45;&gt;Node8 -->
<g id="edge5" class="edge">
<title>Node5&#45;&gt;Node8</title>
<path fill="none" stroke="#191970" d="M974.7005,-155.5943C867.3504,-148.9221 683.5505,-134.7562 527.5,-109 517.6318,-107.3713 507.2306,-105.2724 497.1564,-103.0333"/>
<polygon fill="#191970" stroke="#191970" points="974.6515,-159.0978 984.847,-156.2168 975.0801,-152.111 974.6515,-159.0978"/>
</g>
<!-- Node9 -->
<g id="node7" class="node">
<title>Node9</title>
<g id="a_node7"><a xlink:href="backend_8cpp.html" target="_top" xlink:title="This file provides tests for the backends. ">
<polygon fill="#ffffff" stroke="#000000" points="537,-73 537,-103 698,-103 698,-73 537,-73"/>
<text text-anchor="start" x="545" y="-91" font-family="Helvetica,sans-Serif" font-size="10.00" fill="#000000">/home/atmerhannah/argodsm</text>
<text text-anchor="middle" x="617.5" y="-80" font-family="Helvetica,sans-Serif" font-size="10.00" fill="#000000">/tests/backend.cpp</text>
</a>
</g>
</g>
<!-- Node5&#45;&gt;Node9 -->
<g id="edge6" class="edge">
<title>Node5&#45;&gt;Node9</title>
<path fill="none" stroke="#191970" d="M974.901,-149.7756C902.0916,-140.6112 797.3454,-126.1983 706.5,-109 697.2968,-107.2577 687.6084,-105.2031 678.1473,-103.0726"/>
<polygon fill="#191970" stroke="#191970" points="974.6008,-153.2652 984.958,-151.0336 975.4698,-146.3193 974.6008,-153.2652"/>
</g>
<!-- Node10 -->
<g id="node8" class="node">
<title>Node10</title>
<g id="a_node8"><a xlink:href="barrier_8cpp.html" target="_top" xlink:title="This file provides tests for the barrier synchronization. ">
<polygon fill="#ffffff" stroke="#000000" points="716,-73 716,-103 877,-103 877,-73 716,-73"/>
<text text-anchor="start" x="724" y="-91" font-family="Helvetica,sans-Serif" font-size="10.00" fill="#000000">/home/atmerhannah/argodsm</text>
<text text-anchor="middle" x="796.5" y="-80" font-family="Helvetica,sans-Serif" font-size="10.00" fill="#000000">/tests/barrier.cpp</text>
</a>
</g>
</g>
<!-- Node5&#45;&gt;Node10 -->
<g id="edge7" class="edge">
<title>Node5&#45;&gt;Node10</title>
<path fill="none" stroke="#191970" d="M1000.0394,-142.8573C954.76,-130.6537 895.1583,-114.5901 852.1656,-103.0028"/>
<polygon fill="#191970" stroke="#191970" points="999.1967,-146.255 1009.763,-145.478 1001.0184,-139.4962 999.1967,-146.255"/>
</g>
<!-- Node11 -->
<g id="node9" class="node">
<title>Node11</title>
<g id="a_node9"><a xlink:href="lock_8cpp.html" target="_top" xlink:title="This file provides unit tests for the ArgoDSM locks. ">
<polygon fill="#ffffff" stroke="#000000" points="895,-73 895,-103 1056,-103 1056,-73 895,-73"/>
<text text-anchor="start" x="903" y="-91" font-family="Helvetica,sans-Serif" font-size="10.00" fill="#000000">/home/atmerhannah/argodsm</text>
<text text-anchor="middle" x="975.5" y="-80" font-family="Helvetica,sans-Serif" font-size="10.00" fill="#000000">/tests/lock.cpp</text>
</a>
</g>
</g>
<!-- Node5&#45;&gt;Node11 -->
<g id="edge8" class="edge">
<title>Node5&#45;&gt;Node11</title>
<path fill="none" stroke="#191970" d="M1038.7896,-138.9833C1024.4112,-127.4007 1007.0307,-113.3998 994.1242,-103.0028"/>
<polygon fill="#191970" stroke="#191970" points="1036.8687,-141.9303 1046.8519,-145.478 1041.26,-136.479 1036.8687,-141.9303"/>
</g>
<!-- Node12 -->
<g id="node10" class="node">
<title>Node12</title>
<g id="a_node10"><a xlink:href="omp_8cpp.html" target="_top" xlink:title="This file provides tests using OpenMP in ArgoDSM. ">
<polygon fill="#ffffff" stroke="#000000" points="1074,-73 1074,-103 1235,-103 1235,-73 1074,-73"/>
<text text-anchor="start" x="1082" y="-91" font-family="Helvetica,sans-Serif" font-size="10.00" fill="#000000">/home/atmerhannah/argodsm</text>
<text text-anchor="middle" x="1154.5" y="-80" font-family="Helvetica,sans-Serif" font-size="10.00" fill="#000000">/tests/omp.cpp</text>
</a>
</g>
</g>
<!-- Node5&#45;&gt;Node12 -->
<g id="edge9" class="edge">
<title>Node5&#45;&gt;Node12</title>
<path fill="none" stroke="#191970" d="M1091.9136,-138.9833C1106.1323,-127.4007 1123.3196,-113.3998 1136.0828,-103.0028"/>
<polygon fill="#191970" stroke="#191970" points="1089.4835,-136.4486 1083.9409,-145.478 1093.9045,-141.8758 1089.4835,-136.4486"/>
</g>
<!-- Node13 -->
<g id="node11" class="node">
<title>Node13</title>
<g id="a_node11"><a xlink:href="prefetch_8cpp.html" target="_top" xlink:title="This file provides unit tests for the ArgoDSM prefetch mechanism. ">
<polygon fill="#ffffff" stroke="#000000" points="1253,-73 1253,-103 1414,-103 1414,-73 1253,-73"/>
<text text-anchor="start" x="1261" y="-91" font-family="Helvetica,sans-Serif" font-size="10.00" fill="#000000">/home/atmerhannah/argodsm</text>
<text text-anchor="middle" x="1333.5" y="-80" font-family="Helvetica,sans-Serif" font-size="10.00" fill="#000000">/tests/prefetch.cpp</text>
</a>
</g>
</g>
<!-- Node5&#45;&gt;Node13 -->
<g id="edge10" class="edge">
<title>Node5&#45;&gt;Node13</title>
<path fill="none" stroke="#191970" d="M1130.7172,-142.8573C1175.8283,-130.6537 1235.2085,-114.5901 1278.0414,-103.0028"/>
<polygon fill="#191970" stroke="#191970" points="1129.7688,-139.488 1121.0298,-145.478 1131.5968,-146.2451 1129.7688,-139.488"/>
</g>
<!-- Node14 -->
<g id="node12" class="node">
<title>Node14</title>
<g id="a_node12"><a xlink:href="stlallocation_8cpp.html" target="_top" xlink:title="This file provides tests using C++ interfaces in ArgoDSM. ">
<polygon fill="#ffffff" stroke="#000000" points="1432,-73 1432,-103 1593,-103 1593,-73 1432,-73"/>
<text text-anchor="start" x="1440" y="-91" font-family="Helvetica,sans-Serif" font-size="10.00" fill="#000000">/home/atmerhannah/argodsm</text>
<text text-anchor="middle" x="1512.5" y="-80" font-family="Helvetica,sans-Serif" font-size="10.00" fill="#000000">/tests/stlallocation.cpp</text>
</a>
</g>
</g>
<!-- Node5&#45;&gt;Node14 -->
<g id="edge11" class="edge">
<title>Node5&#45;&gt;Node14</title>
<path fill="none" stroke="#191970" d="M1156.2881,-149.5924C1228.6543,-140.3718 1332.4298,-125.9723 1422.5,-109 1431.8027,-107.2471 1441.5978,-105.1867 1451.1643,-103.0537"/>
<polygon fill="#191970" stroke="#191970" points="1155.771,-146.1299 1146.2901,-150.8589 1156.6507,-153.0744 1155.771,-146.1299"/>
</g>
<!-- Node15 -->
<g id="node13" class="node">
<title>Node15</title>
<g id="a_node13"><a xlink:href="trivial_8cpp.html" target="_top" xlink:title="This file provides unit tests for trivial sanity checks when using ArgoDSM. ">
<polygon fill="#ffffff" stroke="#000000" points="1611,-73 1611,-103 1772,-103 1772,-73 1611,-73"/>
<text text-anchor="start" x="1619" y="-91" font-family="Helvetica,sans-Serif" font-size="10.00" fill="#000000">/home/atmerhannah/argodsm</text>
<text text-anchor="middle" x="1691.5" y="-80" font-family="Helvetica,sans-Serif" font-size="10.00" fill="#000000">/tests/trivial.cpp</text>
</a>
</g>
</g>
<!-- Node5&#45;&gt;Node15 -->
<g id="edge12" class="edge">
<title>Node5&#45;&gt;Node15</title>
<path fill="none" stroke="#191970" d="M1156.412,-155.474C1263.4169,-148.7032 1446.2205,-134.459 1601.5,-109 1611.475,-107.3645 1621.991,-105.2622 1632.1776,-103.0219"/>
<polygon fill="#191970" stroke="#191970" points="1156.059,-151.9891 1146.2968,-156.106 1156.4956,-158.9755 1156.059,-151.9891"/>
</g>
<!-- Node16 -->
<g id="node14" class="node">
<title>Node16</title>
<g id="a_node14"><a xlink:href="uninitialized_8cpp.html" target="_top" xlink:title="This file provides unit tests for accessing ArgoDSM memory in various ways. ">
<polygon fill="#ffffff" stroke="#000000" points="1790,-73 1790,-103 1951,-103 1951,-73 1790,-73"/>
<text text-anchor="start" x="1798" y="-91" font-family="Helvetica,sans-Serif" font-size="10.00" fill="#000000">/home/atmerhannah/argodsm</text>
<text text-anchor="middle" x="1870.5" y="-80" font-family="Helvetica,sans-Serif" font-size="10.00" fill="#000000">/tests/uninitialized.cpp</text>
</a>
</g>
</g>
<!-- Node5&#45;&gt;Node16 -->
<g id="edge13" class="edge">
<title>Node5&#45;&gt;Node16</title>
<path fill="none" stroke="#191970" d="M1156.501,-158.5237C1292.8391,-154.5313 1557.8961,-142.7726 1780.5,-109 1790.8111,-107.4356 1801.6882,-105.3119 1812.1792,-103.0136"/>
<polygon fill="#191970" stroke="#191970" points="1156.0065,-155.0363 1146.1104,-158.8202 1156.2062,-162.0335 1156.0065,-155.0363"/>
</g>
<!-- Node18 -->
<g id="node16" class="node">
<title>Node18</title>
<g id="a_node16"><a xlink:href="coherence_8cpp.html" target="_top" xlink:title="This file implements selective coherence mechanisms for ArgoDSM. ">
<polygon fill="#ffffff" stroke="#000000" points="1909,-.5 1909,-30.5 2082,-30.5 2082,-.5 1909,-.5"/>
<text text-anchor="start" x="1917" y="-18.5" font-family="Helvetica,sans-Serif" font-size="10.00" fill="#000000">/home/atmerhannah/argodsm</text>
<text text-anchor="middle" x="1995.5" y="-7.5" font-family="Helvetica,sans-Serif" font-size="10.00" fill="#000000">/src/backend/mpi/coherence.cpp</text>
</a>
</g>
</g>
<!-- Node17&#45;&gt;Node18 -->
<g id="edge15" class="edge">
<title>Node17&#45;&gt;Node18</title>
<path fill="none" stroke="#191970" d="M2033.9228,-140.7672C2020.031,-133.0419 2006.7213,-122.6667 1998.5,-109 1983.933,-84.7845 1987.7821,-50.2923 1991.7425,-30.6802"/>
<polygon fill="#191970" stroke="#191970" points="2032.5929,-144.0186 2043.088,-145.469 2035.7881,-137.7903 2032.5929,-144.0186"/>
</g>
<!-- Node19 -->
<g id="node17" class="node">
<title>Node19</title>
<g id="a_node17"><a xlink:href="write__buffer_8hpp.html" target="_top" xlink:title="This file provides an interface for the ArgoDSM write buffer. ">
<polygon fill="#ffffff" stroke="#000000" points="2008,-67.5 2008,-108.5 2169,-108.5 2169,-67.5 2008,-67.5"/>
<text text-anchor="start" x="2016" y="-96.5" font-family="Helvetica,sans-Serif" font-size="10.00" fill="#000000">/home/atmerhannah/argodsm</text>
<text text-anchor="start" x="2016" y="-85.5" font-family="Helvetica,sans-Serif" font-size="10.00" fill="#000000">/src/backend/mpi/write</text>
<text text-anchor="middle" x="2088.5" y="-74.5" font-family="Helvetica,sans-Serif" font-size="10.00" fill="#000000">_buffer.hpp</text>
</a>
</g>
</g>
<!-- Node17&#45;&gt;Node19 -->
<g id="edge16" class="edge">
<title>Node17&#45;&gt;Node19</title>
<path fill="none" stroke="#191970" d="M2088.5,-135.4016C2088.5,-126.6173 2088.5,-116.8652 2088.5,-108.5015"/>
<polygon fill="#191970" stroke="#191970" points="2085.0001,-135.4779 2088.5,-145.478 2092.0001,-135.478 2085.0001,-135.4779"/>
</g>
<!-- Node20 -->
<g id="node18" class="node">
<title>Node20</title>
<g id="a_node18"><a xlink:href="swdsm_8cpp.html" target="_top" xlink:title="This file implements the MPI&#45;backend of ArgoDSM. ">
<polygon fill="#ffffff" stroke="#000000" points="2108,-.5 2108,-30.5 2269,-30.5 2269,-.5 2108,-.5"/>
<text text-anchor="start" x="2116" y="-18.5" font-family="Helvetica,sans-Serif" font-size="10.00" fill="#000000">/home/atmerhannah/argodsm</text>
<text text-anchor="middle" x="2188.5" y="-7.5" font-family="Helvetica,sans-Serif" font-size="10.00" fill="#000000">/src/backend/mpi/swdsm.cpp</text>
</a>
</g>
</g>
<!-- Node17&#45;&gt;Node20 -->
<g id="edge20" class="edge">
<title>Node17&#45;&gt;Node20</title>
<path fill="none" stroke="#191970" d="M2142.0462,-140.5765C2156.0613,-132.8193 2169.6949,-122.4747 2178.5,-109 2194.0386,-85.2209 2193.0741,-50.5718 2190.8621,-30.8145"/>
<polygon fill="#191970" stroke="#191970" points="2140.1269,-137.6275 2132.8282,-145.3074 2143.3231,-143.8552 2140.1269,-137.6275"/>
</g>
<!-- Node21 -->
<g id="node19" class="node">
<title>Node21</title>
<g id="a_node19"><a xlink:href="mpi_8cpp.html" target="_top" xlink:title="MPI backend implementation. ">
<polygon fill="#ffffff" stroke="#000000" points="2226,-73 2226,-103 2387,-103 2387,-73 2226,-73"/>
<text text-anchor="start" x="2234" y="-91" font-family="Helvetica,sans-Serif" font-size="10.00" fill="#000000">/home/atmerhannah/argodsm</text>
<text text-anchor="middle" x="2306.5" y="-80" font-family="Helvetica,sans-Serif" font-size="10.00" fill="#000000">/src/backend/mpi/mpi.cpp</text>
</a>
</g>
</g>
<!-- Node17&#45;&gt;Node21 -->
<g id="edge19" class="edge">
<title>Node17&#45;&gt;Node21</title>
<path fill="none" stroke="#191970" d="M2143.1728,-142.3175C2179.6595,-130.1832 2227.0577,-114.42 2261.3881,-103.0028"/>
<polygon fill="#191970" stroke="#191970" points="2142.0542,-139.001 2133.6697,-145.478 2144.2633,-145.6433 2142.0542,-139.001"/>
</g>
<!-- Node19&#45;&gt;Node18 -->
<g id="edge17" class="edge">
<title>Node19&#45;&gt;Node18</title>
<path fill="none" stroke="#191970" d="M2054.08,-61.1672C2040.8427,-50.8478 2026.202,-39.4344 2014.8685,-30.5991"/>
<polygon fill="#191970" stroke="#191970" points="2052.0601,-64.0304 2062.0987,-67.4183 2056.3639,-58.5097 2052.0601,-64.0304"/>
</g>
<!-- Node19&#45;&gt;Node20 -->
<g id="edge18" class="edge">
<title>Node19&#45;&gt;Node20</title>
<path fill="none" stroke="#191970" d="M2125.1083,-61.459C2139.447,-51.0634 2155.3721,-39.5177 2167.6736,-30.5991"/>
<polygon fill="#191970" stroke="#191970" points="2122.9302,-58.715 2116.8885,-67.4183 2127.039,-64.3823 2122.9302,-58.715"/>
</g>
</g>
</svg>
