<?xml version="1.0" encoding="UTF-8" standalone="no"?>
<!DOCTYPE svg PUBLIC "-//W3C//DTD SVG 1.1//EN"
 "http://www.w3.org/Graphics/SVG/1.1/DTD/svg11.dtd">
<!-- Generated by graphviz version 2.40.1 (20161225.0304)
 -->
<!-- Title: argo::virtual_memory::size Pages: 1 -->
<svg width="288pt" height="57pt"
 viewBox="0.00 0.00 288.00 57.00" xmlns="http://www.w3.org/2000/svg" xmlns:xlink="http://www.w3.org/1999/xlink">
<g id="graph0" class="graph" transform="scale(1 1) rotate(0) translate(4 53)">
<title>argo::virtual_memory::size</title>
<polygon fill="#ffffff" stroke="transparent" points="-4,4 -4,-53 284,-53 284,4 -4,4"/>
<!-- Node1 -->
<g id="node1" class="node">
<title>Node1</title>
<polygon fill="#bfbfbf" stroke="#000000" points="0,-.5 0,-30.5 122,-30.5 122,-.5 0,-.5"/>
<text text-anchor="start" x="8" y="-18.5" font-family="Helvetica,sans-Serif" font-size="10.00" fill="#000000">argo::virtual_memory</text>
<text text-anchor="middle" x="61" y="-7.5" font-family="Helvetica,sans-Serif" font-size="10.00" fill="#000000">::size</text>
</g>
<!-- Node2 -->
<g id="node2" class="node">
<title>Node2</title>
<g id="a_node2"><a xlink:href="anonymous_8cpp_a55c033efc406b22edc65747a850ad86c.html#a55c033efc406b22edc65747a850ad86c" target="_top" xlink:title="allocate memory that can be mapped into ArgoDSM virtual address space later ">
<polygon fill="#ffffff" stroke="#000000" points="158,-.5 158,-30.5 280,-30.5 280,-.5 158,-.5"/>
<text text-anchor="start" x="166" y="-18.5" font-family="Helvetica,sans-Serif" font-size="10.00" fill="#000000">argo::virtual_memory</text>
<text text-anchor="middle" x="219" y="-7.5" font-family="Helvetica,sans-Serif" font-size="10.00" fill="#000000">::allocate_mappable</text>
</a>
</g>
</g>
<!-- Node1&#45;&gt;Node2 -->
<g id="edge1" class="edge">
<title>Node1&#45;&gt;Node2</title>
<path fill="none" stroke="#191970" d="M132.3656,-15.5C140.8625,-15.5 149.4784,-15.5 157.815,-15.5"/>
<polygon fill="#191970" stroke="#191970" points="132.087,-12.0001 122.0869,-15.5 132.0869,-19.0001 132.087,-12.0001"/>
</g>
<!-- Node2&#45;&gt;Node2 -->
<g id="edge2" class="edge">
<title>Node2&#45;&gt;Node2</title>
<path fill="none" stroke="#191970" d="M190.9253,-40.9579C194.4098,-45.679 203.768,-49 219,-49 243.9961,-49 253.1743,-40.0566 246.5348,-30.659"/>
<polygon fill="#191970" stroke="#191970" points="194.4368,-40.8286 191.4652,-30.659 187.4464,-40.462 194.4368,-40.8286"/>
</g>
</g>
</svg>
