<?xml version="1.0" encoding="UTF-8" standalone="no"?>
<!DOCTYPE svg PUBLIC "-//W3C//DTD SVG 1.1//EN"
 "http://www.w3.org/Graphics/SVG/1.1/DTD/svg11.dtd">
<!-- Generated by graphviz version 2.40.1 (20161225.0304)
 -->
<!-- Title: argo::backend::global_base Pages: 1 -->
<svg width="301pt" height="46pt"
 viewBox="0.00 0.00 301.00 46.00" xmlns="http://www.w3.org/2000/svg" xmlns:xlink="http://www.w3.org/1999/xlink">
<g id="graph0" class="graph" transform="scale(1 1) rotate(0) translate(4 42)">
<title>argo::backend::global_base</title>
<polygon fill="#ffffff" stroke="transparent" points="-4,4 -4,-42 297,-42 297,4 -4,4"/>
<!-- Node2 -->
<g id="node1" class="node">
<title>Node2</title>
<polygon fill="#bfbfbf" stroke="#000000" points="0,-.5 0,-19.5 150,-19.5 150,-.5 0,-.5"/>
<text text-anchor="middle" x="75" y="-7.5" font-family="Helvetica,sans-Serif" font-size="10.00" fill="#000000">argo::backend::global_base</text>
</g>
<!-- Node2&#45;&gt;Node2 -->
<g id="edge1" class="edge">
<title>Node2&#45;&gt;Node2</title>
<path fill="none" stroke="#191970" d="M44.3114,-28.2746C45.1864,-33.741 55.4159,-38 75,-38 104.1484,-38 112.5742,-28.5653 100.2772,-19.7571"/>
<polygon fill="#191970" stroke="#191970" points="47.3144,-30.0745 49.7228,-19.7571 41.406,-26.3207 47.3144,-30.0745"/>
</g>
<!-- Node3 -->
<g id="node2" class="node">
<title>Node3</title>
<g id="a_node2"><a xlink:href="singlenode_8cpp_aab3cabb3e1c0b9696b339416b684f78c.html#aab3cabb3e1c0b9696b339416b684f78c" target="_top" target="_top" xlink:title="argo::backend::init">
<polygon fill="#ffffff" stroke="#000000" points="186,-.5 186,-19.5 293,-19.5 293,-.5 186,-.5"/>
<text text-anchor="middle" x="239.5" y="-7.5" font-family="Helvetica,sans-Serif" font-size="10.00" fill="#000000">argo::backend::init</text>
</a>
</g>
</g>
<!-- Node2&#45;&gt;Node3 -->
<g id="edge2" class="edge">
<title>Node2&#45;&gt;Node3</title>
<path fill="none" stroke="#191970" d="M160.2079,-10C168.8812,-10 177.5105,-10 185.7095,-10"/>
<polygon fill="#191970" stroke="#191970" points="160.0293,-6.5001 150.0293,-10 160.0292,-13.5001 160.0293,-6.5001"/>
</g>
</g>
</svg>
