<?xml version="1.0" encoding="UTF-8" standalone="no"?>
<!DOCTYPE svg PUBLIC "-//W3C//DTD SVG 1.1//EN"
 "http://www.w3.org/Graphics/SVG/1.1/DTD/svg11.dtd">
<!-- Generated by graphviz version 2.40.1 (20161225.0304)
 -->
<!-- Title: argo::backend::global_base Pages: 1 -->
<svg width="317pt" height="46pt"
 viewBox="0.00 0.00 317.00 46.00" xmlns="http://www.w3.org/2000/svg" xmlns:xlink="http://www.w3.org/1999/xlink">
<g id="graph0" class="graph" transform="scale(1 1) rotate(0) translate(4 42)">
<title>argo::backend::global_base</title>
<polygon fill="#ffffff" stroke="transparent" points="-4,4 -4,-42 313,-42 313,4 -4,4"/>
<!-- Node0 -->
<g id="node1" class="node">
<title>Node0</title>
<polygon fill="#bfbfbf" stroke="#000000" points="0,-.5 0,-19.5 150,-19.5 150,-.5 0,-.5"/>
<text text-anchor="middle" x="75" y="-7.5" font-family="Helvetica,sans-Serif" font-size="10.00" fill="#000000">argo::backend::global_base</text>
</g>
<!-- Node0&#45;&gt;Node0 -->
<g id="edge1" class="edge">
<title>Node0&#45;&gt;Node0</title>
<path fill="none" stroke="#191970" d="M48.4898,-19.7571C35.593,-28.5653 44.4297,-38 75,-38 95.5394,-38 106.268,-33.741 107.1856,-28.2746"/>
<polygon fill="#191970" stroke="#191970" points="109.9679,-26.1381 101.5102,-19.7571 104.1426,-30.0197 109.9679,-26.1381"/>
</g>
<!-- Node1 -->
<g id="node2" class="node">
<title>Node1</title>
<g id="a_node2"><a xlink:href="swdsm_8cpp_aa203cb563df353e597edb60b98e6695b.html#aa203cb563df353e597edb60b98e6695b" target="_top" xlink:title="Gives a pointer to the global address space. ">
<polygon fill="#ffffff" stroke="#000000" points="186,-.5 186,-19.5 309,-19.5 309,-.5 186,-.5"/>
<text text-anchor="middle" x="247.5" y="-7.5" font-family="Helvetica,sans-Serif" font-size="10.00" fill="#000000">argo_get_global_base</text>
</a>
</g>
</g>
<!-- Node0&#45;&gt;Node1 -->
<g id="edge2" class="edge">
<title>Node0&#45;&gt;Node1</title>
<path fill="none" stroke="#191970" d="M150.1592,-10C158.6149,-10 167.2151,-10 175.6276,-10"/>
<polygon fill="#191970" stroke="#191970" points="175.7736,-13.5001 185.7735,-10 175.7735,-6.5001 175.7736,-13.5001"/>
</g>
</g>
</svg>
