<?xml version="1.0" encoding="UTF-8" standalone="no"?>
<!DOCTYPE svg PUBLIC "-//W3C//DTD SVG 1.1//EN"
 "http://www.w3.org/Graphics/SVG/1.1/DTD/svg11.dtd">
<!-- Generated by graphviz version 2.40.1 (20161225.0304)
 -->
<!-- Title: argo::backend::global_size Pages: 1 -->
<svg width="309pt" height="46pt"
 viewBox="0.00 0.00 309.00 46.00" xmlns="http://www.w3.org/2000/svg" xmlns:xlink="http://www.w3.org/1999/xlink">
<g id="graph0" class="graph" transform="scale(1 1) rotate(0) translate(4 42)">
<title>argo::backend::global_size</title>
<polygon fill="#ffffff" stroke="transparent" points="-4,4 -4,-42 305,-42 305,4 -4,4"/>
<!-- Node0 -->
<g id="node1" class="node">
<title>Node0</title>
<polygon fill="#bfbfbf" stroke="#000000" points="0,-.5 0,-19.5 146,-19.5 146,-.5 0,-.5"/>
<text text-anchor="middle" x="73" y="-7.5" font-family="Helvetica,sans-Serif" font-size="10.00" fill="#000000">argo::backend::global_size</text>
</g>
<!-- Node0&#45;&gt;Node0 -->
<g id="edge1" class="edge">
<title>Node0&#45;&gt;Node0</title>
<path fill="none" stroke="#191970" d="M47.1063,-19.7571C34.5094,-28.5653 43.1406,-38 73,-38 93.0618,-38 103.5408,-33.741 104.4371,-28.2746"/>
<polygon fill="#191970" stroke="#191970" points="107.2819,-26.2291 98.8937,-19.7571 101.415,-30.0475 107.2819,-26.2291"/>
</g>
<!-- Node1 -->
<g id="node2" class="node">
<title>Node1</title>
<g id="a_node2"><a xlink:href="swdsm_8cpp_a7fa0b4b75ca70b2147eefcececefec89.html#a7fa0b4b75ca70b2147eefcececefec89" target="_top" xlink:title="Size of global address space. ">
<polygon fill="#ffffff" stroke="#000000" points="182,-.5 182,-19.5 301,-19.5 301,-.5 182,-.5"/>
<text text-anchor="middle" x="241.5" y="-7.5" font-family="Helvetica,sans-Serif" font-size="10.00" fill="#000000">argo_get_global_size</text>
</a>
</g>
</g>
<!-- Node0&#45;&gt;Node1 -->
<g id="edge2" class="edge">
<title>Node0&#45;&gt;Node1</title>
<path fill="none" stroke="#191970" d="M146.4164,-10C154.8651,-10 163.4617,-10 171.8585,-10"/>
<polygon fill="#191970" stroke="#191970" points="171.9784,-13.5001 181.9784,-10 171.9783,-6.5001 171.9784,-13.5001"/>
</g>
</g>
</svg>
