<?xml version="1.0" encoding="UTF-8" standalone="no"?>
<!DOCTYPE svg PUBLIC "-//W3C//DTD SVG 1.1//EN"
 "http://www.w3.org/Graphics/SVG/1.1/DTD/svg11.dtd">
<!-- Generated by graphviz version 2.40.1 (20161225.0304)
 -->
<!-- Title: /home/atmerhannah/argodsm/src/backend/backend.hpp Pages: 1 -->
<svg width="2846pt" height="574pt"
 viewBox="0.00 0.00 2846.00 574.00" xmlns="http://www.w3.org/2000/svg" xmlns:xlink="http://www.w3.org/1999/xlink">
<g id="graph0" class="graph" transform="scale(1 1) rotate(0) translate(4 570)">
<title>/home/atmerhannah/argodsm/src/backend/backend.hpp</title>
<polygon fill="#ffffff" stroke="transparent" points="-4,4 -4,-570 2842,-570 2842,4 -4,4"/>
<!-- Node20 -->
<g id="node1" class="node">
<title>Node20</title>
<polygon fill="#bfbfbf" stroke="#000000" points="1614,-535.5 1614,-565.5 1775,-565.5 1775,-535.5 1614,-535.5"/>
<text text-anchor="start" x="1622" y="-553.5" font-family="Helvetica,sans-Serif" font-size="10.00" fill="#000000">/home/atmerhannah/argodsm</text>
<text text-anchor="middle" x="1694.5" y="-542.5" font-family="Helvetica,sans-Serif" font-size="10.00" fill="#000000">/src/backend/backend.hpp</text>
</g>
<!-- Node21 -->
<g id="node2" class="node">
<title>Node21</title>
<g id="a_node2"><a xlink:href="dynamic__mempool_8hpp.html" target="_top" xlink:title="This file provides a dynamically growing memory pool for ArgoDSM. ">
<polygon fill="#ffffff" stroke="#000000" points="1398.5,-385 1398.5,-415 1604.5,-415 1604.5,-385 1398.5,-385"/>
<text text-anchor="start" x="1406.5" y="-403" font-family="Helvetica,sans-Serif" font-size="10.00" fill="#000000">/home/atmerhannah/argodsm</text>
<text text-anchor="middle" x="1501.5" y="-392" font-family="Helvetica,sans-Serif" font-size="10.00" fill="#000000">/src/mempools/dynamic_mempool.hpp</text>
</a>
</g>
</g>
<!-- Node20&#45;&gt;Node21 -->
<g id="edge1" class="edge">
<title>Node20&#45;&gt;Node21</title>
<path fill="none" stroke="#191970" d="M1675.4918,-527.4873C1658.1085,-507.3427 1630.9874,-478.0818 1603.5,-457 1581.9305,-440.457 1554.995,-425.6152 1534.2207,-415.2262"/>
<polygon fill="#191970" stroke="#191970" points="1672.9511,-529.9023 1682.0977,-535.2493 1678.2819,-525.3655 1672.9511,-529.9023"/>
</g>
<!-- Node22 -->
<g id="node3" class="node">
<title>Node22</title>
<g id="a_node3"><a xlink:href="collective__allocator_8hpp.html" target="_top" xlink:title="This file provides the collective allocator for ArgoDSM. ">
<polygon fill="#ffffff" stroke="#000000" points="1426,-223.5 1426,-264.5 1587,-264.5 1587,-223.5 1426,-223.5"/>
<text text-anchor="start" x="1434" y="-252.5" font-family="Helvetica,sans-Serif" font-size="10.00" fill="#000000">/home/atmerhannah/argodsm</text>
<text text-anchor="start" x="1434" y="-241.5" font-family="Helvetica,sans-Serif" font-size="10.00" fill="#000000">/src/allocators/collective</text>
<text text-anchor="middle" x="1506.5" y="-230.5" font-family="Helvetica,sans-Serif" font-size="10.00" fill="#000000">_allocator.hpp</text>
</a>
</g>
</g>
<!-- Node20&#45;&gt;Node22 -->
<g id="edge43" class="edge">
<title>Node20&#45;&gt;Node22</title>
<path fill="none" stroke="#191970" d="M1603.5508,-546.2019C1527.4603,-540.5936 1427.0441,-527.8217 1399.5,-499 1362.5242,-460.3091 1370.795,-429.143 1389.5,-379 1407.44,-330.9078 1451.0834,-288.5751 1479.6986,-264.6548"/>
<polygon fill="#191970" stroke="#191970" points="1603.422,-549.7014 1613.6438,-546.9148 1603.9153,-542.7188 1603.422,-549.7014"/>
</g>
<!-- Node25 -->
<g id="node6" class="node">
<title>Node25</title>
<g id="a_node6"><a xlink:href="argo_8hpp.html" target="_top" xlink:title="This file provides the full C++ interface to ArgoDSM. ">
<polygon fill="#ffffff" stroke="#000000" points="877,-73 877,-103 1038,-103 1038,-73 877,-73"/>
<text text-anchor="start" x="885" y="-91" font-family="Helvetica,sans-Serif" font-size="10.00" fill="#000000">/home/atmerhannah/argodsm</text>
<text text-anchor="middle" x="957.5" y="-80" font-family="Helvetica,sans-Serif" font-size="10.00" fill="#000000">/src/argo.hpp</text>
</a>
</g>
</g>
<!-- Node20&#45;&gt;Node25 -->
<g id="edge51" class="edge">
<title>Node20&#45;&gt;Node25</title>
<path fill="none" stroke="#191970" d="M1603.6879,-549.8977C1400.5449,-547.8393 922.4224,-538.7773 861.5,-499 820.0564,-471.9407 810.5,-449.4952 810.5,-400 810.5,-400 810.5,-400 810.5,-244 810.5,-176.8302 883.5789,-126.8272 926.684,-103.1757"/>
<polygon fill="#191970" stroke="#191970" points="1603.7039,-553.3979 1613.7377,-549.9961 1603.7725,-546.3982 1603.7039,-553.3979"/>
</g>
<!-- Node27 -->
<g id="node8" class="node">
<title>Node27</title>
<g id="a_node8"><a xlink:href="tests_2allocators_8cpp.html" target="_top" xlink:title="This file provides unit tests for the ArgoDSM allocators and memory pools. ">
<polygon fill="#ffffff" stroke="#000000" points="1074,-.5 1074,-30.5 1235,-30.5 1235,-.5 1074,-.5"/>
<text text-anchor="start" x="1082" y="-18.5" font-family="Helvetica,sans-Serif" font-size="10.00" fill="#000000">/home/atmerhannah/argodsm</text>
<text text-anchor="middle" x="1154.5" y="-7.5" font-family="Helvetica,sans-Serif" font-size="10.00" fill="#000000">/tests/allocators.cpp</text>
</a>
</g>
</g>
<!-- Node20&#45;&gt;Node27 -->
<g id="edge60" class="edge">
<title>Node20&#45;&gt;Node27</title>
<path fill="none" stroke="#191970" d="M1603.6506,-547.9807C1500.4632,-543.5981 1327.5851,-531.627 1182.5,-499 1081.6949,-476.3307 1044.967,-484.5506 963.5,-421 892.0213,-365.241 875.1957,-304.6911 914.5,-223 948.1084,-153.1475 987.8638,-159.702 1046.5,-109 1078.3916,-81.4237 1115.5529,-49.2406 1136.9216,-30.7297"/>
<polygon fill="#191970" stroke="#191970" points="1603.5884,-551.481 1613.7235,-548.3938 1603.8753,-544.4869 1603.5884,-551.481"/>
</g>
<!-- Node28 -->
<g id="node9" class="node">
<title>Node28</title>
<g id="a_node9"><a xlink:href="api_8cpp.html" target="_top" xlink:title="This file provides unit tests for the ArgoDSM API functions. ">
<polygon fill="#ffffff" stroke="#000000" points="358,-.5 358,-30.5 519,-30.5 519,-.5 358,-.5"/>
<text text-anchor="start" x="366" y="-18.5" font-family="Helvetica,sans-Serif" font-size="10.00" fill="#000000">/home/atmerhannah/argodsm</text>
<text text-anchor="middle" x="438.5" y="-7.5" font-family="Helvetica,sans-Serif" font-size="10.00" fill="#000000">/tests/api.cpp</text>
</a>
</g>
</g>
<!-- Node20&#45;&gt;Node28 -->
<g id="edge61" class="edge">
<title>Node20&#45;&gt;Node28</title>
<path fill="none" stroke="#191970" d="M1603.5754,-548.3404C1393.7926,-542.9043 888.3545,-527.0484 816.5,-499 751.7724,-473.7336 695.5,-469.4842 695.5,-400 695.5,-400 695.5,-400 695.5,-166 695.5,-116.8797 553.9335,-57.7706 480.9383,-30.5573"/>
<polygon fill="#191970" stroke="#191970" points="1603.5546,-551.8409 1613.6412,-548.5991 1603.7345,-544.8432 1603.5546,-551.8409"/>
</g>
<!-- Node31 -->
<g id="node12" class="node">
<title>Node31</title>
<g id="a_node12"><a xlink:href="lock_8cpp.html" target="_top" xlink:title="This file provides unit tests for the ArgoDSM locks. ">
<polygon fill="#ffffff" stroke="#000000" points="1821,-.5 1821,-30.5 1982,-30.5 1982,-.5 1821,-.5"/>
<text text-anchor="start" x="1829" y="-18.5" font-family="Helvetica,sans-Serif" font-size="10.00" fill="#000000">/home/atmerhannah/argodsm</text>
<text text-anchor="middle" x="1901.5" y="-7.5" font-family="Helvetica,sans-Serif" font-size="10.00" fill="#000000">/tests/lock.cpp</text>
</a>
</g>
</g>
<!-- Node20&#45;&gt;Node31 -->
<g id="edge62" class="edge">
<title>Node20&#45;&gt;Node31</title>
<path fill="none" stroke="#191970" d="M1785.3042,-545.6884C1889.6273,-539.0401 2053.6145,-524.8316 2109.5,-499 2192.5267,-460.6231 2214.5,-413.4671 2214.5,-322 2214.5,-322 2214.5,-322 2214.5,-166 2214.5,-112.1121 2189.5133,-96.6261 2144.5,-67 2118.0685,-49.6037 2042.0889,-35.2288 1982.0529,-26.1278"/>
<polygon fill="#191970" stroke="#191970" points="1784.849,-542.21 1775.0871,-546.3276 1785.2861,-549.1963 1784.849,-542.21"/>
</g>
<!-- Node32 -->
<g id="node13" class="node">
<title>Node32</title>
<g id="a_node13"><a xlink:href="omp_8cpp.html" target="_top" xlink:title="This file provides tests using OpenMP in ArgoDSM. ">
<polygon fill="#ffffff" stroke="#000000" points="1253,-.5 1253,-30.5 1414,-30.5 1414,-.5 1253,-.5"/>
<text text-anchor="start" x="1261" y="-18.5" font-family="Helvetica,sans-Serif" font-size="10.00" fill="#000000">/home/atmerhannah/argodsm</text>
<text text-anchor="middle" x="1333.5" y="-7.5" font-family="Helvetica,sans-Serif" font-size="10.00" fill="#000000">/tests/omp.cpp</text>
</a>
</g>
</g>
<!-- Node20&#45;&gt;Node32 -->
<g id="edge63" class="edge">
<title>Node20&#45;&gt;Node32</title>
<path fill="none" stroke="#191970" d="M1603.6088,-545.1934C1522.9312,-538.937 1402.3914,-525.7809 1300.5,-499 1211.021,-475.4816 1192.6542,-457.1713 1107.5,-421 1029.124,-387.7079 978.8636,-414.4253 932.5,-343 831.9282,-188.0642 1151.2186,-70.8377 1281.1023,-30.6174"/>
<polygon fill="#191970" stroke="#191970" points="1603.5019,-548.6952 1613.7372,-545.9588 1604.0294,-541.7151 1603.5019,-548.6952"/>
</g>
<!-- Node33 -->
<g id="node14" class="node">
<title>Node33</title>
<g id="a_node14"><a xlink:href="prefetch_8cpp.html" target="_top" xlink:title="This file provides unit tests for the ArgoDSM prefetch mechanism. ">
<polygon fill="#ffffff" stroke="#000000" points="1432,-.5 1432,-30.5 1593,-30.5 1593,-.5 1432,-.5"/>
<text text-anchor="start" x="1440" y="-18.5" font-family="Helvetica,sans-Serif" font-size="10.00" fill="#000000">/home/atmerhannah/argodsm</text>
<text text-anchor="middle" x="1512.5" y="-7.5" font-family="Helvetica,sans-Serif" font-size="10.00" fill="#000000">/tests/prefetch.cpp</text>
</a>
</g>
</g>
<!-- Node20&#45;&gt;Node33 -->
<g id="edge64" class="edge">
<title>Node20&#45;&gt;Node33</title>
<path fill="none" stroke="#191970" d="M1736.6607,-530.7108C1781.028,-506.6247 1844.5,-461.4318 1844.5,-400 1844.5,-400 1844.5,-400 1844.5,-322 1844.5,-239.2175 1841.2702,-207.0739 1786.5,-145 1731.586,-82.7631 1640.307,-48.0551 1578.3318,-30.5811"/>
<polygon fill="#191970" stroke="#191970" points="1735.004,-527.6275 1727.7899,-535.3868 1738.2682,-533.8199 1735.004,-527.6275"/>
</g>
<!-- Node35 -->
<g id="node16" class="node">
<title>Node35</title>
<g id="a_node16"><a xlink:href="trivial_8cpp.html" target="_top" xlink:title="This file provides unit tests for trivial sanity checks when using ArgoDSM. ">
<polygon fill="#ffffff" stroke="#000000" points="0,-.5 0,-30.5 161,-30.5 161,-.5 0,-.5"/>
<text text-anchor="start" x="8" y="-18.5" font-family="Helvetica,sans-Serif" font-size="10.00" fill="#000000">/home/atmerhannah/argodsm</text>
<text text-anchor="middle" x="80.5" y="-7.5" font-family="Helvetica,sans-Serif" font-size="10.00" fill="#000000">/tests/trivial.cpp</text>
</a>
</g>
</g>
<!-- Node20&#45;&gt;Node35 -->
<g id="edge65" class="edge">
<title>Node20&#45;&gt;Node35</title>
<path fill="none" stroke="#191970" d="M1603.6794,-549.1259C1365.8348,-545.1096 728.7771,-531.5537 520.5,-499 355.2802,-473.1762 157.5,-567.2257 157.5,-400 157.5,-400 157.5,-400 157.5,-166 157.5,-111.4097 116.8522,-56.698 94.623,-30.8592"/>
<polygon fill="#191970" stroke="#191970" points="1603.6216,-552.6253 1613.6787,-549.2931 1603.7387,-545.6263 1603.6216,-552.6253"/>
</g>
<!-- Node36 -->
<g id="node17" class="node">
<title>Node36</title>
<g id="a_node17"><a xlink:href="uninitialized_8cpp.html" target="_top" xlink:title="This file provides unit tests for accessing ArgoDSM memory in various ways. ">
<polygon fill="#ffffff" stroke="#000000" points="179,-.5 179,-30.5 340,-30.5 340,-.5 179,-.5"/>
<text text-anchor="start" x="187" y="-18.5" font-family="Helvetica,sans-Serif" font-size="10.00" fill="#000000">/home/atmerhannah/argodsm</text>
<text text-anchor="middle" x="259.5" y="-7.5" font-family="Helvetica,sans-Serif" font-size="10.00" fill="#000000">/tests/uninitialized.cpp</text>
</a>
</g>
</g>
<!-- Node20&#45;&gt;Node36 -->
<g id="edge66" class="edge">
<title>Node20&#45;&gt;Node36</title>
<path fill="none" stroke="#191970" d="M1603.8173,-547.7092C1377.554,-540.4644 800.1691,-520.1441 715.5,-499 614.6088,-473.8048 503.5,-503.9896 503.5,-400 503.5,-400 503.5,-400 503.5,-166 503.5,-87.6105 411.1427,-48.7106 340.071,-30.381"/>
<polygon fill="#191970" stroke="#191970" points="1603.8914,-551.2133 1613.998,-548.034 1604.1147,-544.2169 1603.8914,-551.2133"/>
</g>
<!-- Node37 -->
<g id="node18" class="node">
<title>Node37</title>
<g id="a_node18"><a xlink:href="cohort__lock_8hpp.html" target="_top" xlink:title="This file provides a cohort lock for the ArgoDSM system. ">
<polygon fill="#ffffff" stroke="#000000" points="1911,-145.5 1911,-186.5 2072,-186.5 2072,-145.5 1911,-145.5"/>
<text text-anchor="start" x="1919" y="-174.5" font-family="Helvetica,sans-Serif" font-size="10.00" fill="#000000">/home/atmerhannah/argodsm</text>
<text text-anchor="start" x="1919" y="-163.5" font-family="Helvetica,sans-Serif" font-size="10.00" fill="#000000">/src/synchronization/cohort</text>
<text text-anchor="middle" x="1991.5" y="-152.5" font-family="Helvetica,sans-Serif" font-size="10.00" fill="#000000">_lock.hpp</text>
</a>
</g>
</g>
<!-- Node20&#45;&gt;Node37 -->
<g id="edge58" class="edge">
<title>Node20&#45;&gt;Node37</title>
<path fill="none" stroke="#191970" d="M1772.073,-532.9066C1807.8268,-523.4739 1845.2467,-511.286 1858.5,-499 1907.2358,-453.8213 1967.1873,-252.3878 1985.7498,-186.7508"/>
<polygon fill="#191970" stroke="#191970" points="1770.8625,-529.6042 1762.0542,-535.4918 1772.6116,-536.3822 1770.8625,-529.6042"/>
</g>
<!-- Node40 -->
<g id="node21" class="node">
<title>Node40</title>
<g id="a_node21"><a xlink:href="broadcast_8hpp.html" target="_top" xlink:title="This file provides a broadcasting facility for a single value. ">
<polygon fill="#ffffff" stroke="#000000" points="1408.5,-463 1408.5,-493 1594.5,-493 1594.5,-463 1408.5,-463"/>
<text text-anchor="start" x="1416.5" y="-481" font-family="Helvetica,sans-Serif" font-size="10.00" fill="#000000">/home/atmerhannah/argodsm</text>
<text text-anchor="middle" x="1501.5" y="-470" font-family="Helvetica,sans-Serif" font-size="10.00" fill="#000000">/src/synchronization/broadcast.hpp</text>
</a>
</g>
</g>
<!-- Node20&#45;&gt;Node40 -->
<g id="edge31" class="edge">
<title>Node20&#45;&gt;Node40</title>
<path fill="none" stroke="#191970" d="M1644.8553,-531.8511C1612.7251,-519.7814 1571.4439,-504.2743 1541.4385,-493.0028"/>
<polygon fill="#191970" stroke="#191970" points="1643.9182,-535.2378 1654.5103,-535.478 1646.3798,-528.6849 1643.9182,-535.2378"/>
</g>
<!-- Node42 -->
<g id="node23" class="node">
<title>Node42</title>
<g id="a_node23"><a xlink:href="global__mempool_8hpp.html" target="_top" xlink:title="This file provides a dynamically growing memory pool for ArgoDSM. ">
<polygon fill="#ffffff" stroke="#000000" points="1622.5,-385 1622.5,-415 1816.5,-415 1816.5,-385 1622.5,-385"/>
<text text-anchor="start" x="1630.5" y="-403" font-family="Helvetica,sans-Serif" font-size="10.00" fill="#000000">/home/atmerhannah/argodsm</text>
<text text-anchor="middle" x="1719.5" y="-392" font-family="Helvetica,sans-Serif" font-size="10.00" fill="#000000">/src/mempools/global_mempool.hpp</text>
</a>
</g>
</g>
<!-- Node20&#45;&gt;Node42 -->
<g id="edge35" class="edge">
<title>Node20&#45;&gt;Node42</title>
<path fill="none" stroke="#191970" d="M1698.7228,-525.0787C1703.9449,-493.642 1712.6677,-441.1304 1716.9586,-415.2994"/>
<polygon fill="#191970" stroke="#191970" points="1695.2208,-524.8026 1697.0347,-535.241 1702.1262,-525.9498 1695.2208,-524.8026"/>
</g>
<!-- Node43 -->
<g id="node24" class="node">
<title>Node43</title>
<g id="a_node24"><a xlink:href="global__tas__lock_8hpp.html" target="_top" xlink:title="This file provides a tas lock for the ArgoDSM system based on the TAS lock made by David Klaftenegger...">
<polygon fill="#ffffff" stroke="#000000" points="1916,-457.5 1916,-498.5 2077,-498.5 2077,-457.5 1916,-457.5"/>
<text text-anchor="start" x="1924" y="-486.5" font-family="Helvetica,sans-Serif" font-size="10.00" fill="#000000">/home/atmerhannah/argodsm</text>
<text text-anchor="start" x="1924" y="-475.5" font-family="Helvetica,sans-Serif" font-size="10.00" fill="#000000">/src/synchronization/global</text>
<text text-anchor="middle" x="1996.5" y="-464.5" font-family="Helvetica,sans-Serif" font-size="10.00" fill="#000000">_tas_lock.hpp</text>
</a>
</g>
</g>
<!-- Node20&#45;&gt;Node43 -->
<g id="edge38" class="edge">
<title>Node20&#45;&gt;Node43</title>
<path fill="none" stroke="#191970" d="M1767.0275,-533.0886C1811.9088,-522.3141 1869.5984,-508.4648 1915.9059,-497.3479"/>
<polygon fill="#191970" stroke="#191970" points="1765.9813,-529.7402 1757.0746,-535.478 1767.6154,-536.5468 1765.9813,-529.7402"/>
</g>
<!-- Node44 -->
<g id="node25" class="node">
<title>Node44</title>
<g id="a_node25"><a xlink:href="singlenode_8cpp.html" target="_top" xlink:title="pseudo&#45;backend implemenation for a single node ArgoDSM system ">
<polygon fill="#ffffff" stroke="#000000" points="2025,-379.5 2025,-420.5 2186,-420.5 2186,-379.5 2025,-379.5"/>
<text text-anchor="start" x="2033" y="-408.5" font-family="Helvetica,sans-Serif" font-size="10.00" fill="#000000">/home/atmerhannah/argodsm</text>
<text text-anchor="start" x="2033" y="-397.5" font-family="Helvetica,sans-Serif" font-size="10.00" fill="#000000">/src/backend/singlenode</text>
<text text-anchor="middle" x="2105.5" y="-386.5" font-family="Helvetica,sans-Serif" font-size="10.00" fill="#000000">/singlenode.cpp</text>
</a>
</g>
</g>
<!-- Node20&#45;&gt;Node44 -->
<g id="edge57" class="edge">
<title>Node20&#45;&gt;Node44</title>
<path fill="none" stroke="#191970" d="M1785.0594,-544.0858C1893.6714,-535.551 2063.9059,-519.1658 2085.5,-499 2106.7737,-479.1334 2108.8675,-443.4046 2107.7104,-420.7383"/>
<polygon fill="#191970" stroke="#191970" points="1784.7724,-540.5975 1775.0738,-544.8621 1785.315,-547.5764 1784.7724,-540.5975"/>
</g>
<!-- Node45 -->
<g id="node26" class="node">
<title>Node45</title>
<g id="a_node26"><a xlink:href="generic__allocator_8hpp.html" target="_top" xlink:title="This file provides a generic allocator template for ArgoDSM. ">
<polygon fill="#ffffff" stroke="#000000" points="1181,-379.5 1181,-420.5 1342,-420.5 1342,-379.5 1181,-379.5"/>
<text text-anchor="start" x="1189" y="-408.5" font-family="Helvetica,sans-Serif" font-size="10.00" fill="#000000">/home/atmerhannah/argodsm</text>
<text text-anchor="start" x="1189" y="-397.5" font-family="Helvetica,sans-Serif" font-size="10.00" fill="#000000">/src/allocators/generic</text>
<text text-anchor="middle" x="1261.5" y="-386.5" font-family="Helvetica,sans-Serif" font-size="10.00" fill="#000000">_allocator.hpp</text>
</a>
</g>
</g>
<!-- Node20&#45;&gt;Node45 -->
<g id="edge44" class="edge">
<title>Node20&#45;&gt;Node45</title>
<path fill="none" stroke="#191970" d="M1603.7918,-543.2874C1518.6817,-535.3424 1398.3963,-520.7377 1356.5,-499 1320.9777,-480.5695 1291.1653,-443.6933 1274.8668,-420.5187"/>
<polygon fill="#191970" stroke="#191970" points="1603.711,-546.7946 1613.9891,-544.2233 1604.3508,-539.8239 1603.711,-546.7946"/>
</g>
<!-- Node46 -->
<g id="node27" class="node">
<title>Node46</title>
<g id="a_node27"><a xlink:href="coherence_8cpp.html" target="_top" xlink:title="This file implements selective coherence mechanisms for ArgoDSM. ">
<polygon fill="#ffffff" stroke="#000000" points="2243,-385 2243,-415 2416,-415 2416,-385 2243,-385"/>
<text text-anchor="start" x="2251" y="-403" font-family="Helvetica,sans-Serif" font-size="10.00" fill="#000000">/home/atmerhannah/argodsm</text>
<text text-anchor="middle" x="2329.5" y="-392" font-family="Helvetica,sans-Serif" font-size="10.00" fill="#000000">/src/backend/mpi/coherence.cpp</text>
</a>
</g>
</g>
<!-- Node20&#45;&gt;Node46 -->
<g id="edge52" class="edge">
<title>Node20&#45;&gt;Node46</title>
<path fill="none" stroke="#191970" d="M1785.3821,-548.6521C1913.2509,-544.8409 2138.8847,-533.3303 2212.5,-499 2236.7114,-487.7091 2235.3277,-474.5145 2255.5,-457 2272.7657,-442.0092 2293.4608,-426.2402 2308.5698,-415.0978"/>
<polygon fill="#191970" stroke="#191970" points="1785.1086,-545.1584 1775.2136,-548.9451 1785.3103,-552.1555 1785.1086,-545.1584"/>
</g>
<!-- Node47 -->
<g id="node28" class="node">
<title>Node47</title>
<g id="a_node28"><a xlink:href="write__buffer_8hpp.html" target="_top" xlink:title="This file provides an interface for the ArgoDSM write buffer. ">
<polygon fill="#ffffff" stroke="#000000" points="2265,-457.5 2265,-498.5 2426,-498.5 2426,-457.5 2265,-457.5"/>
<text text-anchor="start" x="2273" y="-486.5" font-family="Helvetica,sans-Serif" font-size="10.00" fill="#000000">/home/atmerhannah/argodsm</text>
<text text-anchor="start" x="2273" y="-475.5" font-family="Helvetica,sans-Serif" font-size="10.00" fill="#000000">/src/backend/mpi/write</text>
<text text-anchor="middle" x="2345.5" y="-464.5" font-family="Helvetica,sans-Serif" font-size="10.00" fill="#000000">_buffer.hpp</text>
</a>
</g>
</g>
<!-- Node20&#45;&gt;Node47 -->
<g id="edge53" class="edge">
<title>Node20&#45;&gt;Node47</title>
<path fill="none" stroke="#191970" d="M1785.5641,-545.5737C1896.0426,-538.7902 2087.7281,-524.4267 2250.5,-499 2255.1729,-498.27 2259.96,-497.4486 2264.7806,-496.5643"/>
<polygon fill="#191970" stroke="#191970" points="1785.2276,-542.0876 1775.458,-546.1869 1785.6517,-549.0747 1785.2276,-542.0876"/>
</g>
<!-- Node49 -->
<g id="node30" class="node">
<title>Node49</title>
<g id="a_node30"><a xlink:href="mpi_8cpp.html" target="_top" xlink:title="MPI backend implementation. ">
<polygon fill="#ffffff" stroke="#000000" points="2444,-463 2444,-493 2605,-493 2605,-463 2444,-463"/>
<text text-anchor="start" x="2452" y="-481" font-family="Helvetica,sans-Serif" font-size="10.00" fill="#000000">/home/atmerhannah/argodsm</text>
<text text-anchor="middle" x="2524.5" y="-470" font-family="Helvetica,sans-Serif" font-size="10.00" fill="#000000">/src/backend/mpi/mpi.cpp</text>
</a>
</g>
</g>
<!-- Node20&#45;&gt;Node49 -->
<g id="edge56" class="edge">
<title>Node20&#45;&gt;Node49</title>
<path fill="none" stroke="#191970" d="M1785.2809,-548.9273C1925.5023,-545.4339 2202.9006,-534.2855 2435.5,-499 2445.7025,-497.4523 2456.4617,-495.3367 2466.8372,-493.0413"/>
<polygon fill="#191970" stroke="#191970" points="1784.9268,-545.4347 1775.0143,-549.1755 1785.096,-552.4327 1784.9268,-545.4347"/>
</g>
<!-- Node50 -->
<g id="node31" class="node">
<title>Node50</title>
<g id="a_node31"><a xlink:href="synchronization_8cpp.html" target="_top" xlink:title="This file implements synchronization primitives for ArgoDSM. ">
<polygon fill="#ffffff" stroke="#000000" points="2623,-463 2623,-493 2838,-493 2838,-463 2623,-463"/>
<text text-anchor="start" x="2631" y="-481" font-family="Helvetica,sans-Serif" font-size="10.00" fill="#000000">/home/atmerhannah/argodsm</text>
<text text-anchor="middle" x="2730.5" y="-470" font-family="Helvetica,sans-Serif" font-size="10.00" fill="#000000">/src/synchronization/synchronization.cpp</text>
</a>
</g>
</g>
<!-- Node20&#45;&gt;Node50 -->
<g id="edge59" class="edge">
<title>Node20&#45;&gt;Node50</title>
<path fill="none" stroke="#191970" d="M1785.2139,-549.1218C1950.6071,-545.7875 2312.031,-534.7068 2614.5,-499 2627.7113,-497.4404 2641.6921,-495.3189 2655.1999,-493.0215"/>
<polygon fill="#191970" stroke="#191970" points="1785.0145,-545.625 1775.0854,-549.3212 1785.1524,-552.6236 1785.0145,-545.625"/>
</g>
<!-- Node21&#45;&gt;Node22 -->
<g id="edge2" class="edge">
<title>Node21&#45;&gt;Node22</title>
<path fill="none" stroke="#191970" d="M1502.3187,-374.4566C1503.301,-343.8085 1504.9288,-293.0222 1505.8364,-264.7036"/>
<polygon fill="#191970" stroke="#191970" points="1498.8108,-374.651 1501.9885,-384.758 1505.8072,-374.8753 1498.8108,-374.651"/>
</g>
<!-- Node39 -->
<g id="node20" class="node">
<title>Node39</title>
<g id="a_node20"><a xlink:href="dynamic__allocator_8hpp.html" target="_top" xlink:title="This file provides the dynamic allocator for ArgoDSM. ">
<polygon fill="#ffffff" stroke="#000000" points="1530,-301.5 1530,-342.5 1691,-342.5 1691,-301.5 1530,-301.5"/>
<text text-anchor="start" x="1538" y="-330.5" font-family="Helvetica,sans-Serif" font-size="10.00" fill="#000000">/home/atmerhannah/argodsm</text>
<text text-anchor="start" x="1538" y="-319.5" font-family="Helvetica,sans-Serif" font-size="10.00" fill="#000000">/src/allocators/dynamic</text>
<text text-anchor="middle" x="1610.5" y="-308.5" font-family="Helvetica,sans-Serif" font-size="10.00" fill="#000000">_allocator.hpp</text>
</a>
</g>
</g>
<!-- Node21&#45;&gt;Node39 -->
<g id="edge26" class="edge">
<title>Node21&#45;&gt;Node39</title>
<path fill="none" stroke="#191970" d="M1530.8668,-378.9852C1546.6478,-367.6924 1566.0285,-353.8237 1581.719,-342.5956"/>
<polygon fill="#191970" stroke="#191970" points="1528.6118,-376.295 1522.5163,-384.9608 1532.6854,-381.9876 1528.6118,-376.295"/>
</g>
<!-- Node23 -->
<g id="node4" class="node">
<title>Node23</title>
<g id="a_node4"><a xlink:href="src_2allocators_2allocators_8cpp.html" target="_top" xlink:title="This file provides the default allocators. ">
<polygon fill="#ffffff" stroke="#000000" points="1617,-151 1617,-181 1778,-181 1778,-151 1617,-151"/>
<text text-anchor="start" x="1625" y="-169" font-family="Helvetica,sans-Serif" font-size="10.00" fill="#000000">/home/atmerhannah/argodsm</text>
<text text-anchor="middle" x="1697.5" y="-158" font-family="Helvetica,sans-Serif" font-size="10.00" fill="#000000">/src/allocators/allocators.cpp</text>
</a>
</g>
</g>
<!-- Node22&#45;&gt;Node23 -->
<g id="edge3" class="edge">
<title>Node22&#45;&gt;Node23</title>
<path fill="none" stroke="#191970" d="M1566.325,-219.5688C1597.2481,-206.9406 1633.9992,-191.9323 1660.7232,-181.0188"/>
<polygon fill="#191970" stroke="#191970" points="1564.8674,-216.3834 1556.9328,-223.4044 1567.5139,-222.8639 1564.8674,-216.3834"/>
</g>
<!-- Node24 -->
<g id="node5" class="node">
<title>Node24</title>
<g id="a_node5"><a xlink:href="allocators_8hpp.html" target="_top" xlink:title="This file provides all C++ allocators for ArgoDSM. ">
<polygon fill="#ffffff" stroke="#000000" points="1247,-151 1247,-181 1408,-181 1408,-151 1247,-151"/>
<text text-anchor="start" x="1255" y="-169" font-family="Helvetica,sans-Serif" font-size="10.00" fill="#000000">/home/atmerhannah/argodsm</text>
<text text-anchor="middle" x="1327.5" y="-158" font-family="Helvetica,sans-Serif" font-size="10.00" fill="#000000">/src/allocators/allocators.hpp</text>
</a>
</g>
</g>
<!-- Node22&#45;&gt;Node24 -->
<g id="edge4" class="edge">
<title>Node22&#45;&gt;Node24</title>
<path fill="none" stroke="#191970" d="M1449.4843,-219.1552C1420.7778,-206.6462 1386.9127,-191.8893 1362.1572,-181.102"/>
<polygon fill="#191970" stroke="#191970" points="1448.4356,-222.516 1459.0012,-223.3022 1451.232,-216.0988 1448.4356,-222.516"/>
</g>
<!-- Node26 -->
<g id="node7" class="node">
<title>Node26</title>
<g id="a_node7"><a xlink:href="argo_8cpp.html" target="_top" xlink:title="This file implements some of the basic ArgoDSM calls. ">
<polygon fill="#ffffff" stroke="#000000" points="1611,-.5 1611,-30.5 1772,-30.5 1772,-.5 1611,-.5"/>
<text text-anchor="start" x="1619" y="-18.5" font-family="Helvetica,sans-Serif" font-size="10.00" fill="#000000">/home/atmerhannah/argodsm</text>
<text text-anchor="middle" x="1691.5" y="-7.5" font-family="Helvetica,sans-Serif" font-size="10.00" fill="#000000">/src/argo.cpp</text>
</a>
</g>
</g>
<!-- Node22&#45;&gt;Node26 -->
<g id="edge17" class="edge">
<title>Node22&#45;&gt;Node26</title>
<path fill="none" stroke="#191970" d="M1525.0151,-214.9042C1538.1685,-194.7859 1556.6045,-167.6673 1574.5,-145 1608.6707,-101.7176 1653.3905,-54.5239 1676.3889,-30.8566"/>
<polygon fill="#191970" stroke="#191970" points="1522.0493,-213.0448 1519.5416,-223.3386 1527.9213,-216.8554 1522.0493,-213.0448"/>
</g>
<!-- Node22&#45;&gt;Node27 -->
<g id="edge21" class="edge">
<title>Node22&#45;&gt;Node27</title>
<path fill="none" stroke="#191970" d="M1477.9644,-216.0281C1468.9859,-206.945 1459.1588,-196.7041 1450.5,-187 1434.5104,-169.0801 1435.2548,-160.0016 1416.5,-145 1348.3485,-90.4872 1253.5046,-50.7676 1198.6009,-30.5708"/>
<polygon fill="#191970" stroke="#191970" points="1475.7234,-218.7377 1485.2624,-223.3484 1480.6807,-213.7955 1475.7234,-218.7377"/>
</g>
<!-- Node22&#45;&gt;Node28 -->
<g id="edge22" class="edge">
<title>Node22&#45;&gt;Node28</title>
<path fill="none" stroke="#191970" d="M1415.9045,-226.3915C1291.7627,-201.9142 1062.0059,-155.3658 867.5,-109 796.8195,-92.1514 780.3487,-83.1265 709.5,-67 674.0692,-58.9353 585.4192,-42.3356 519.0936,-30.1533"/>
<polygon fill="#191970" stroke="#191970" points="1415.2673,-229.8331 1425.7551,-228.3311 1416.6197,-222.965 1415.2673,-229.8331"/>
</g>
<!-- Node22&#45;&gt;Node31 -->
<g id="edge23" class="edge">
<title>Node22&#45;&gt;Node31</title>
<path fill="none" stroke="#191970" d="M1540.6607,-217.0297C1551.5397,-207.8994 1563.3721,-197.3782 1573.5,-187 1590.2737,-169.8118 1588.4186,-159.5839 1607.5,-145 1682.1675,-87.9316 1785.9123,-49.885 1848.1085,-30.5435"/>
<polygon fill="#191970" stroke="#191970" points="1538.4211,-214.34 1532.9456,-223.4103 1542.8823,-219.7343 1538.4211,-214.34"/>
</g>
<!-- Node22&#45;&gt;Node32 -->
<g id="edge24" class="edge">
<title>Node22&#45;&gt;Node32</title>
<path fill="none" stroke="#191970" d="M1491.9622,-214.4321C1481.4938,-194.1934 1466.4532,-167.123 1450.5,-145 1418.4227,-100.5171 1373.2172,-54.1997 1349.4828,-30.8785"/>
<polygon fill="#191970" stroke="#191970" points="1488.918,-216.1669 1496.5774,-223.487 1495.1546,-212.9881 1488.918,-216.1669"/>
</g>
<!-- Node22&#45;&gt;Node33 -->
<g id="edge25" class="edge">
<title>Node22&#45;&gt;Node33</title>
<path fill="none" stroke="#191970" d="M1507.3091,-213.1863C1508.6117,-163.5804 1511.1259,-67.8285 1512.1005,-30.7159"/>
<polygon fill="#191970" stroke="#191970" points="1503.8068,-213.2307 1507.043,-223.3191 1510.8044,-213.4145 1503.8068,-213.2307"/>
</g>
<!-- Node22&#45;&gt;Node37 -->
<g id="edge18" class="edge">
<title>Node22&#45;&gt;Node37</title>
<path fill="none" stroke="#191970" d="M1597.0631,-229.4352C1687.1694,-214.9439 1824.1444,-192.9149 1910.6749,-178.9987"/>
<polygon fill="#191970" stroke="#191970" points="1596.4497,-225.9888 1587.1323,-231.0323 1597.5612,-232.9 1596.4497,-225.9888"/>
</g>
<!-- Node24&#45;&gt;Node25 -->
<g id="edge5" class="edge">
<title>Node24&#45;&gt;Node25</title>
<path fill="none" stroke="#191970" d="M1246.364,-148.8957C1181.4095,-135.2026 1091.1839,-116.182 1028.9356,-103.0594"/>
<polygon fill="#191970" stroke="#191970" points="1245.6533,-152.3227 1256.1603,-150.9608 1247.0973,-145.4732 1245.6533,-152.3227"/>
</g>
<!-- Node25&#45;&gt;Node26 -->
<g id="edge6" class="edge">
<title>Node25&#45;&gt;Node26</title>
<path fill="none" stroke="#191970" d="M1048.3308,-82.3252C1173.2651,-73.9812 1405.0071,-56.5719 1601.5,-31 1604.4873,-30.6112 1607.5269,-30.1948 1610.5946,-29.7569"/>
<polygon fill="#191970" stroke="#191970" points="1047.7968,-78.8528 1038.0506,-83.0074 1048.2604,-85.8374 1047.7968,-78.8528"/>
</g>
<!-- Node25&#45;&gt;Node27 -->
<g id="edge7" class="edge">
<title>Node25&#45;&gt;Node27</title>
<path fill="none" stroke="#191970" d="M1007.7501,-69.5069C1040.6063,-57.4152 1082.9745,-41.8228 1113.7338,-30.5028"/>
<polygon fill="#191970" stroke="#191970" points="1006.4944,-66.2395 998.3185,-72.978 1008.912,-72.8088 1006.4944,-66.2395"/>
</g>
<!-- Node25&#45;&gt;Node28 -->
<g id="edge8" class="edge">
<title>Node25&#45;&gt;Node28</title>
<path fill="none" stroke="#191970" d="M884.1546,-70.9423C876.8592,-69.4997 869.548,-68.1541 862.5,-67 714.7219,-42.8023 675.7864,-51.8575 527.5,-31 524.8597,-30.6286 522.1776,-30.2382 519.4709,-29.833"/>
<polygon fill="#191970" stroke="#191970" points="883.5695,-74.3949 894.0668,-72.9605 884.9662,-67.5356 883.5695,-74.3949"/>
</g>
<!-- Node29 -->
<g id="node10" class="node">
<title>Node29</title>
<g id="a_node10"><a xlink:href="backend_8cpp.html" target="_top" xlink:title="This file provides tests for the backends. ">
<polygon fill="#ffffff" stroke="#000000" points="537,-.5 537,-30.5 698,-30.5 698,-.5 537,-.5"/>
<text text-anchor="start" x="545" y="-18.5" font-family="Helvetica,sans-Serif" font-size="10.00" fill="#000000">/home/atmerhannah/argodsm</text>
<text text-anchor="middle" x="617.5" y="-7.5" font-family="Helvetica,sans-Serif" font-size="10.00" fill="#000000">/tests/backend.cpp</text>
</a>
</g>
</g>
<!-- Node25&#45;&gt;Node29 -->
<g id="edge9" class="edge">
<title>Node25&#45;&gt;Node29</title>
<path fill="none" stroke="#191970" d="M879.8882,-70.7746C874.0058,-69.4901 868.1591,-68.2202 862.5,-67 804.5041,-54.4948 738.7006,-40.6835 689.904,-30.5142"/>
<polygon fill="#191970" stroke="#191970" points="879.2779,-74.2238 889.7951,-72.9436 880.7751,-67.3857 879.2779,-74.2238"/>
</g>
<!-- Node30 -->
<g id="node11" class="node">
<title>Node30</title>
<g id="a_node11"><a xlink:href="barrier_8cpp.html" target="_top" xlink:title="This file provides tests for the barrier synchronization. ">
<polygon fill="#ffffff" stroke="#000000" points="716,-.5 716,-30.5 877,-30.5 877,-.5 716,-.5"/>
<text text-anchor="start" x="724" y="-18.5" font-family="Helvetica,sans-Serif" font-size="10.00" fill="#000000">/home/atmerhannah/argodsm</text>
<text text-anchor="middle" x="796.5" y="-7.5" font-family="Helvetica,sans-Serif" font-size="10.00" fill="#000000">/tests/barrier.cpp</text>
</a>
</g>
</g>
<!-- Node25&#45;&gt;Node30 -->
<g id="edge10" class="edge">
<title>Node25&#45;&gt;Node30</title>
<path fill="none" stroke="#191970" d="M914.6934,-68.7237C888.099,-56.748 854.4154,-41.5799 829.8166,-30.5028"/>
<polygon fill="#191970" stroke="#191970" points="913.5854,-72.0633 924.1407,-72.978 916.4597,-65.6805 913.5854,-72.0633"/>
</g>
<!-- Node25&#45;&gt;Node31 -->
<g id="edge11" class="edge">
<title>Node25&#45;&gt;Node31</title>
<path fill="none" stroke="#191970" d="M1048.4434,-83.4369C1200.3134,-75.4278 1515.0731,-57.1696 1780.5,-31 1793.5674,-29.7116 1807.4025,-28.1382 1820.8669,-26.4933"/>
<polygon fill="#191970" stroke="#191970" points="1048.0381,-79.9532 1038.2354,-83.9727 1048.4051,-86.9436 1048.0381,-79.9532"/>
</g>
<!-- Node25&#45;&gt;Node32 -->
<g id="edge12" class="edge">
<title>Node25&#45;&gt;Node32</title>
<path fill="none" stroke="#191970" d="M1045.438,-71.0439C1109.137,-58.7615 1194.4646,-42.3087 1255.6924,-30.5028"/>
<polygon fill="#191970" stroke="#191970" points="1044.5639,-67.6479 1035.4074,-72.978 1045.8893,-74.5213 1044.5639,-67.6479"/>
</g>
<!-- Node25&#45;&gt;Node33 -->
<g id="edge13" class="edge">
<title>Node25&#45;&gt;Node33</title>
<path fill="none" stroke="#191970" d="M1048.3339,-78.1867C1142.1913,-67.7371 1292.8476,-50.0994 1422.5,-31 1425.4803,-30.561 1428.514,-30.1017 1431.5766,-29.6277"/>
<polygon fill="#191970" stroke="#191970" points="1047.857,-74.718 1038.3042,-79.3 1048.6293,-81.6753 1047.857,-74.718"/>
</g>
<!-- Node34 -->
<g id="node15" class="node">
<title>Node34</title>
<g id="a_node15"><a xlink:href="stlallocation_8cpp.html" target="_top" xlink:title="This file provides tests using C++ interfaces in ArgoDSM. ">
<polygon fill="#ffffff" stroke="#000000" points="895,-.5 895,-30.5 1056,-30.5 1056,-.5 895,-.5"/>
<text text-anchor="start" x="903" y="-18.5" font-family="Helvetica,sans-Serif" font-size="10.00" fill="#000000">/home/atmerhannah/argodsm</text>
<text text-anchor="middle" x="975.5" y="-7.5" font-family="Helvetica,sans-Serif" font-size="10.00" fill="#000000">/tests/stlallocation.cpp</text>
</a>
</g>
</g>
<!-- Node25&#45;&gt;Node34 -->
<g id="edge14" class="edge">
<title>Node25&#45;&gt;Node34</title>
<path fill="none" stroke="#191970" d="M963.6629,-63.1774C966.3597,-52.3151 969.4351,-39.9281 971.7752,-30.5028"/>
<polygon fill="#191970" stroke="#191970" points="960.2424,-62.4292 961.2296,-72.978 967.0362,-64.116 960.2424,-62.4292"/>
</g>
<!-- Node25&#45;&gt;Node35 -->
<g id="edge15" class="edge">
<title>Node25&#45;&gt;Node35</title>
<path fill="none" stroke="#191970" d="M866.6681,-84.3909C719.7246,-77.8878 420.9368,-61.9097 169.5,-31 166.8536,-30.6747 164.1663,-30.3242 161.455,-29.9534"/>
<polygon fill="#191970" stroke="#191970" points="866.8393,-87.9016 876.9829,-84.8428 867.1457,-80.9084 866.8393,-87.9016"/>
</g>
<!-- Node25&#45;&gt;Node36 -->
<g id="edge16" class="edge">
<title>Node25&#45;&gt;Node36</title>
<path fill="none" stroke="#191970" d="M866.8066,-81.7628C747.5995,-73.0499 531.8267,-55.5041 348.5,-31 345.8572,-30.6468 343.173,-30.2721 340.4644,-29.8804"/>
<polygon fill="#191970" stroke="#191970" points="866.753,-85.2681 876.9804,-82.5021 867.2604,-78.2865 866.753,-85.2681"/>
</g>
<!-- Node37&#45;&gt;Node31 -->
<g id="edge20" class="edge">
<title>Node37&#45;&gt;Node31</title>
<path fill="none" stroke="#191970" d="M1962.2997,-137.9608C1954.2167,-129.2053 1945.9122,-119.1644 1939.5,-109 1923.3264,-83.3621 1911.6586,-49.6758 1905.7929,-30.5274"/>
<polygon fill="#191970" stroke="#191970" points="1959.8589,-140.4729 1969.2928,-145.295 1964.9251,-135.6423 1959.8589,-140.4729"/>
</g>
<!-- Node38 -->
<g id="node19" class="node">
<title>Node38</title>
<g id="a_node19"><a xlink:href="cohort__lock_8cpp_source.html" target="_top" xlink:title="/home/atmerhannah/argodsm\l/src/synchronization/cohort\l_lock.cpp">
<polygon fill="#ffffff" stroke="#000000" points="1949,-67.5 1949,-108.5 2110,-108.5 2110,-67.5 1949,-67.5"/>
<text text-anchor="start" x="1957" y="-96.5" font-family="Helvetica,sans-Serif" font-size="10.00" fill="#000000">/home/atmerhannah/argodsm</text>
<text text-anchor="start" x="1957" y="-85.5" font-family="Helvetica,sans-Serif" font-size="10.00" fill="#000000">/src/synchronization/cohort</text>
<text text-anchor="middle" x="2029.5" y="-74.5" font-family="Helvetica,sans-Serif" font-size="10.00" fill="#000000">_lock.cpp</text>
</a>
</g>
</g>
<!-- Node37&#45;&gt;Node38 -->
<g id="edge19" class="edge">
<title>Node37&#45;&gt;Node38</title>
<path fill="none" stroke="#191970" d="M2006.1428,-135.9438C2010.5804,-126.8351 2015.3531,-117.0384 2019.4204,-108.6898"/>
<polygon fill="#191970" stroke="#191970" points="2002.9166,-134.5746 2001.6833,-145.0974 2009.2095,-137.6404 2002.9166,-134.5746"/>
</g>
<!-- Node39&#45;&gt;Node22 -->
<g id="edge27" class="edge">
<title>Node39&#45;&gt;Node22</title>
<path fill="none" stroke="#191970" d="M1574.8029,-295.2272C1561.4015,-285.1761 1546.3929,-273.9196 1533.8651,-264.5239"/>
<polygon fill="#191970" stroke="#191970" points="1572.8029,-298.1022 1582.903,-301.3022 1577.0029,-292.5022 1572.8029,-298.1022"/>
</g>
<!-- Node39&#45;&gt;Node23 -->
<g id="edge28" class="edge">
<title>Node39&#45;&gt;Node23</title>
<path fill="none" stroke="#191970" d="M1626.9579,-292.4893C1645.4389,-259.3509 1674.7134,-206.8587 1689.0394,-181.1708"/>
<polygon fill="#191970" stroke="#191970" points="1623.8669,-290.846 1622.0529,-301.2844 1629.9804,-294.2555 1623.8669,-290.846"/>
</g>
<!-- Node39&#45;&gt;Node24 -->
<g id="edge29" class="edge">
<title>Node39&#45;&gt;Node24</title>
<path fill="none" stroke="#191970" d="M1519.8631,-306.3249C1485.6855,-297.6827 1447.5885,-284.5844 1416.5,-265 1381.3009,-242.8261 1351.6003,-202.8901 1337.0678,-181.1325"/>
<polygon fill="#191970" stroke="#191970" points="1519.3154,-309.7937 1529.8593,-308.7559 1520.9696,-302.9919 1519.3154,-309.7937"/>
</g>
<!-- Node39&#45;&gt;Node26 -->
<g id="edge30" class="edge">
<title>Node39&#45;&gt;Node26</title>
<path fill="none" stroke="#191970" d="M1666.0551,-296.6961C1707.6839,-274.3768 1761.583,-237.5155 1786.5,-187 1815.6352,-127.9328 1746.4505,-60.1766 1710.9322,-30.6132"/>
<polygon fill="#191970" stroke="#191970" points="1664.347,-293.6396 1657.106,-301.3739 1667.5897,-299.8432 1664.347,-293.6396"/>
</g>
<!-- Node40&#45;&gt;Node21 -->
<g id="edge32" class="edge">
<title>Node40&#45;&gt;Node21</title>
<path fill="none" stroke="#191970" d="M1501.5,-452.7875C1501.5,-440.4187 1501.5,-425.9264 1501.5,-415.2592"/>
<polygon fill="#191970" stroke="#191970" points="1498.0001,-452.9608 1501.5,-462.9608 1505.0001,-452.9608 1498.0001,-452.9608"/>
</g>
<!-- Node41 -->
<g id="node22" class="node">
<title>Node41</title>
<g id="a_node22"><a xlink:href="synchronization_8hpp.html" target="_top" xlink:title="This file provides synchronization primitives for ArgoDSM. ">
<polygon fill="#ffffff" stroke="#000000" points="942,-307 942,-337 1157,-337 1157,-307 942,-307"/>
<text text-anchor="start" x="950" y="-325" font-family="Helvetica,sans-Serif" font-size="10.00" fill="#000000">/home/atmerhannah/argodsm</text>
<text text-anchor="middle" x="1049.5" y="-314" font-family="Helvetica,sans-Serif" font-size="10.00" fill="#000000">/src/synchronization/synchronization.hpp</text>
</a>
</g>
</g>
<!-- Node40&#45;&gt;Node41 -->
<g id="edge33" class="edge">
<title>Node40&#45;&gt;Node41</title>
<path fill="none" stroke="#191970" d="M1398.0003,-465.9158C1316.7693,-455.3633 1211.0323,-438.9569 1171.5,-421 1126.5489,-400.5817 1084.1745,-359.5467 1063.2039,-337.2553"/>
<polygon fill="#191970" stroke="#191970" points="1397.9168,-469.4338 1408.2815,-467.2374 1398.8093,-462.4909 1397.9168,-469.4338"/>
</g>
<!-- Node41&#45;&gt;Node25 -->
<g id="edge34" class="edge">
<title>Node41&#45;&gt;Node25</title>
<path fill="none" stroke="#191970" d="M1039.7553,-297.2145C1020.6814,-248.7005 978.9297,-142.5061 963.439,-103.1057"/>
<polygon fill="#191970" stroke="#191970" points="1036.5473,-298.6207 1043.4636,-306.6466 1043.0619,-296.0594 1036.5473,-298.6207"/>
</g>
<!-- Node42&#45;&gt;Node22 -->
<g id="edge36" class="edge">
<title>Node42&#45;&gt;Node22</title>
<path fill="none" stroke="#191970" d="M1721.191,-374.7847C1721.2627,-352.6241 1717.7173,-320.892 1699.5,-301 1683.897,-283.9626 1632.9078,-269.3163 1587.2576,-259.1375"/>
<polygon fill="#191970" stroke="#191970" points="1717.6919,-374.7077 1720.9137,-384.8008 1724.6892,-374.9015 1717.6919,-374.7077"/>
</g>
<!-- Node42&#45;&gt;Node39 -->
<g id="edge37" class="edge">
<title>Node42&#45;&gt;Node39</title>
<path fill="none" stroke="#191970" d="M1690.1332,-378.9852C1674.3522,-367.6924 1654.9715,-353.8237 1639.281,-342.5956"/>
<polygon fill="#191970" stroke="#191970" points="1688.3146,-381.9876 1698.4837,-384.9608 1692.3882,-376.295 1688.3146,-381.9876"/>
</g>
<!-- Node43&#45;&gt;Node31 -->
<g id="edge42" class="edge">
<title>Node43&#45;&gt;Node31</title>
<path fill="none" stroke="#191970" d="M2000.9675,-447.316C2004.1861,-427.5974 2009.0894,-401.5456 2015.5,-379 2055.4382,-238.5401 2209.054,-181.5601 2118.5,-67 2101.4523,-45.4328 2036.5507,-31.9463 1982.1283,-24.2117"/>
<polygon fill="#191970" stroke="#191970" points="1997.4973,-446.8537 1999.3965,-457.2769 2004.4118,-447.9444 1997.4973,-446.8537"/>
</g>
<!-- Node43&#45;&gt;Node37 -->
<g id="edge41" class="edge">
<title>Node43&#45;&gt;Node37</title>
<path fill="none" stroke="#191970" d="M1987.5728,-447.4924C1985.4792,-438.9923 1983.5531,-429.7023 1982.5,-421 1972.0163,-334.3642 1982.9973,-230.0608 1988.6157,-186.5852"/>
<polygon fill="#191970" stroke="#191970" points="1984.2421,-448.5898 1990.1621,-457.3764 1991.0136,-446.8159 1984.2421,-448.5898"/>
</g>
<!-- Node43&#45;&gt;Node42 -->
<g id="edge39" class="edge">
<title>Node43&#45;&gt;Node42</title>
<path fill="none" stroke="#191970" d="M1913.4871,-454.6245C1867.8895,-441.7848 1812.6786,-426.238 1772.836,-415.0188"/>
<polygon fill="#191970" stroke="#191970" points="1912.7848,-458.0628 1923.3592,-457.4044 1914.6822,-451.3249 1912.7848,-458.0628"/>
</g>
<!-- Node43&#45;&gt;Node44 -->
<g id="edge40" class="edge">
<title>Node43&#45;&gt;Node44</title>
<path fill="none" stroke="#191970" d="M2033.9133,-451.2272C2047.959,-441.1761 2063.6892,-429.9196 2076.8192,-420.5239"/>
<polygon fill="#191970" stroke="#191970" points="2031.5193,-448.6364 2025.4238,-457.3022 2035.593,-454.329 2031.5193,-448.6364"/>
</g>
<!-- Node45&#45;&gt;Node22 -->
<g id="edge46" class="edge">
<title>Node45&#45;&gt;Node22</title>
<path fill="none" stroke="#191970" d="M1283.1924,-371.2437C1300.8885,-349.4604 1327.6116,-320.1164 1356.5,-301 1379.7324,-285.6263 1407.7027,-273.5658 1433.1644,-264.5759"/>
<polygon fill="#191970" stroke="#191970" points="1280.3595,-369.1826 1276.8666,-379.1851 1285.8348,-373.544 1280.3595,-369.1826"/>
</g>
<!-- Node45&#45;&gt;Node27 -->
<g id="edge47" class="edge">
<title>Node45&#45;&gt;Node27</title>
<path fill="none" stroke="#191970" d="M1234.3737,-371.5482C1227.3476,-362.9209 1220.3914,-353.0515 1215.5,-343 1161.5951,-232.2302 1155.1625,-79.0679 1154.5224,-30.7401"/>
<polygon fill="#191970" stroke="#191970" points="1231.9172,-374.0618 1241.0663,-379.4044 1237.2458,-369.5224 1231.9172,-374.0618"/>
</g>
<!-- Node45&#45;&gt;Node31 -->
<g id="edge48" class="edge">
<title>Node45&#45;&gt;Node31</title>
<path fill="none" stroke="#191970" d="M1352.287,-384.5641C1364.7756,-382.599 1377.4457,-380.6878 1389.5,-379 1501.9915,-363.2493 1882.5,-357.5888 1882.5,-244 1882.5,-244 1882.5,-244 1882.5,-166 1882.5,-116.2252 1892.8561,-57.9146 1898.2769,-30.802"/>
<polygon fill="#191970" stroke="#191970" points="1351.6517,-381.1211 1342.3256,-386.1484 1352.7513,-388.0342 1351.6517,-381.1211"/>
</g>
<!-- Node45&#45;&gt;Node32 -->
<g id="edge49" class="edge">
<title>Node45&#45;&gt;Node32</title>
<path fill="none" stroke="#191970" d="M1246.1702,-370.3691C1223.5189,-322.7999 1185.711,-226.4673 1204.5,-145 1213.1661,-107.4246 1216.0861,-95.0948 1242.5,-67 1257.1727,-51.3936 1277.6531,-39.2325 1295.4699,-30.6563"/>
<polygon fill="#191970" stroke="#191970" points="1243.0856,-372.0292 1250.6125,-379.4855 1249.3783,-368.9628 1243.0856,-372.0292"/>
</g>
<!-- Node45&#45;&gt;Node33 -->
<g id="edge50" class="edge">
<title>Node45&#45;&gt;Node33</title>
<path fill="none" stroke="#191970" d="M1256.4812,-369.1104C1246.4238,-305.3469 1225.7342,-163.5458 1237.5,-145 1279.9054,-78.1589 1367.0308,-45.1869 1431.9111,-29.3417"/>
<polygon fill="#191970" stroke="#191970" points="1253.0832,-370.0287 1258.1116,-379.3543 1259.9962,-368.9284 1253.0832,-370.0287"/>
</g>
<!-- Node45&#45;&gt;Node39 -->
<g id="edge45" class="edge">
<title>Node45&#45;&gt;Node39</title>
<path fill="none" stroke="#191970" d="M1352.0984,-379.7516C1407.0982,-367.4594 1476.6914,-351.9057 1529.7953,-340.0371"/>
<polygon fill="#191970" stroke="#191970" points="1351.0017,-376.4103 1342.0059,-382.0073 1352.5285,-383.2418 1351.0017,-376.4103"/>
</g>
<!-- Node47&#45;&gt;Node46 -->
<g id="edge54" class="edge">
<title>Node47&#45;&gt;Node46</title>
<path fill="none" stroke="#191970" d="M2339.1449,-447.0187C2336.9058,-436.1033 2334.4871,-424.3119 2332.6319,-415.2679"/>
<polygon fill="#191970" stroke="#191970" points="2335.7742,-448.0047 2341.2123,-457.0974 2342.6314,-446.5981 2335.7742,-448.0047"/>
</g>
<!-- Node48 -->
<g id="node29" class="node">
<title>Node48</title>
<g id="a_node29"><a xlink:href="swdsm_8cpp.html" target="_top" xlink:title="This file implements the MPI&#45;backend of ArgoDSM. ">
<polygon fill="#ffffff" stroke="#000000" points="2434,-385 2434,-415 2595,-415 2595,-385 2434,-385"/>
<text text-anchor="start" x="2442" y="-403" font-family="Helvetica,sans-Serif" font-size="10.00" fill="#000000">/home/atmerhannah/argodsm</text>
<text text-anchor="middle" x="2514.5" y="-392" font-family="Helvetica,sans-Serif" font-size="10.00" fill="#000000">/src/backend/mpi/swdsm.cpp</text>
</a>
</g>
</g>
<!-- Node47&#45;&gt;Node48 -->
<g id="edge55" class="edge">
<title>Node47&#45;&gt;Node48</title>
<path fill="none" stroke="#191970" d="M2399.6842,-452.9919C2426.7112,-440.5179 2458.5081,-425.8424 2481.7789,-415.102"/>
<polygon fill="#191970" stroke="#191970" points="2397.9581,-449.9337 2390.3452,-457.3022 2400.8915,-456.2894 2397.9581,-449.9337"/>
</g>
</g>
</svg>
