<?xml version="1.0" encoding="UTF-8" standalone="no"?>
<!DOCTYPE svg PUBLIC "-//W3C//DTD SVG 1.1//EN"
 "http://www.w3.org/Graphics/SVG/1.1/DTD/svg11.dtd">
<!-- Generated by graphviz version 2.40.1 (20161225.0304)
 -->
<!-- Title: argo::backend::barrier Pages: 1 -->
<svg width="1523pt" height="219pt"
 viewBox="0.00 0.00 1523.00 219.00" xmlns="http://www.w3.org/2000/svg" xmlns:xlink="http://www.w3.org/1999/xlink">
<g id="graph0" class="graph" transform="scale(1 1) rotate(0) translate(4 215)">
<title>argo::backend::barrier</title>
<polygon fill="#ffffff" stroke="transparent" points="-4,4 -4,-215 1519,-215 1519,4 -4,4"/>
<!-- Node0 -->
<g id="node1" class="node">
<title>Node0</title>
<polygon fill="#bfbfbf" stroke="#000000" points="0,-93 0,-112 124,-112 124,-93 0,-93"/>
<text text-anchor="middle" x="62" y="-100" font-family="Helvetica,sans-Serif" font-size="10.00" fill="#000000">argo::backend::barrier</text>
</g>
<!-- Node1 -->
<g id="node2" class="node">
<title>Node1</title>
<g id="a_node2"><a xlink:href="swdsm_8cpp_ad3f5bdae81c60ac704dda7372792427d.html#ad3f5bdae81c60ac704dda7372792427d" target="_top" xlink:title="Global barrier for ArgoDSM &#45; needs to be called by every thread in the system that need coherent view...">
<polygon fill="#ffffff" stroke="#000000" points="160,-93 160,-112 276,-112 276,-93 160,-93"/>
<text text-anchor="middle" x="218" y="-100" font-family="Helvetica,sans-Serif" font-size="10.00" fill="#000000">swdsm_argo_barrier</text>
</a>
</g>
</g>
<!-- Node0&#45;&gt;Node1 -->
<g id="edge1" class="edge">
<title>Node0&#45;&gt;Node1</title>
<path fill="none" stroke="#191970" d="M124.1036,-102.5C132.5001,-102.5 141.1533,-102.5 149.6512,-102.5"/>
<polygon fill="#191970" stroke="#191970" points="149.9123,-106.0001 159.9122,-102.5 149.9122,-99.0001 149.9123,-106.0001"/>
</g>
<!-- Node2 -->
<g id="node3" class="node">
<title>Node2</title>
<g id="a_node3"><a xlink:href="swdsm_8cpp_ac99d42ffcf7c78281cb3a6b286ce3a5e.html#ac99d42ffcf7c78281cb3a6b286ce3a5e" target="_top" xlink:title="Gives number of ArgoDSM nodes. ">
<polygon fill="#ffffff" stroke="#000000" points="314,-131 314,-150 408,-150 408,-131 314,-131"/>
<text text-anchor="middle" x="361" y="-138" font-family="Helvetica,sans-Serif" font-size="10.00" fill="#000000">argo_get_nodes</text>
</a>
</g>
</g>
<!-- Node1&#45;&gt;Node2 -->
<g id="edge2" class="edge">
<title>Node1&#45;&gt;Node2</title>
<path fill="none" stroke="#191970" d="M254.0849,-112.089C272.6296,-117.0169 295.4265,-123.0749 315.199,-128.3291"/>
<polygon fill="#191970" stroke="#191970" points="314.3631,-131.7284 324.9266,-130.9141 316.1609,-124.9632 314.3631,-131.7284"/>
</g>
<!-- Node3 -->
<g id="node4" class="node">
<title>Node3</title>
<g id="a_node4"><a xlink:href="classwrite__buffer_aca2e330e17a38c1cc8d8c60701ce9dd7.html#aca2e330e17a38c1cc8d8c60701ce9dd7" target="_top" xlink:title="Flushes the ArgoDSM write buffer to memory. ">
<polygon fill="#ffffff" stroke="#000000" points="446,-93 446,-112 550,-112 550,-93 446,-93"/>
<text text-anchor="middle" x="498" y="-100" font-family="Helvetica,sans-Serif" font-size="10.00" fill="#000000">write_buffer::flush</text>
</a>
</g>
</g>
<!-- Node1&#45;&gt;Node3 -->
<g id="edge3" class="edge">
<title>Node1&#45;&gt;Node3</title>
<path fill="none" stroke="#191970" d="M276.0162,-102.5C322.5769,-102.5 387.8172,-102.5 435.5209,-102.5"/>
<polygon fill="#191970" stroke="#191970" points="435.7241,-106.0001 445.7241,-102.5 435.7241,-99.0001 435.7241,-106.0001"/>
</g>
<!-- Node22 -->
<g id="node23" class="node">
<title>Node22</title>
<g id="a_node23"><a xlink:href="swdsm_8cpp_aa7c3a2de6bbafdaf68fe6ceb6110ab97.html#aa7c3a2de6bbafdaf68fe6ceb6110ab97" target="_top" xlink:title="Self&#45;Invalidates all memory that has potential writers. ">
<polygon fill="#ffffff" stroke="#000000" points="312,-55 312,-74 410,-74 410,-55 312,-55"/>
<text text-anchor="middle" x="361" y="-62" font-family="Helvetica,sans-Serif" font-size="10.00" fill="#000000">self_invalidation</text>
</a>
</g>
</g>
<!-- Node1&#45;&gt;Node22 -->
<g id="edge23" class="edge">
<title>Node1&#45;&gt;Node22</title>
<path fill="none" stroke="#191970" d="M254.0849,-92.911C272.6296,-87.9831 295.4265,-81.9251 315.199,-76.6709"/>
<polygon fill="#191970" stroke="#191970" points="316.1609,-80.0368 324.9266,-74.0859 314.3631,-73.2716 316.1609,-80.0368"/>
</g>
<!-- Node4 -->
<g id="node5" class="node">
<title>Node4</title>
<g id="a_node5"><a xlink:href="classwrite__buffer_ab70cc0d6ca3591094aae489dbc3feaa5.html#ab70cc0d6ca3591094aae489dbc3feaa5" target="_top" xlink:title="Check if the write buffer is empty. ">
<polygon fill="#ffffff" stroke="#000000" points="595,-169 595,-188 708,-188 708,-169 595,-169"/>
<text text-anchor="middle" x="651.5" y="-176" font-family="Helvetica,sans-Serif" font-size="10.00" fill="#000000">write_buffer::empty</text>
</a>
</g>
</g>
<!-- Node3&#45;&gt;Node4 -->
<g id="edge4" class="edge">
<title>Node3&#45;&gt;Node4</title>
<path fill="none" stroke="#191970" d="M510.1527,-112.0325C526.5424,-124.4871 557.026,-146.2626 586,-159.5 591.0482,-161.8064 596.4438,-163.9052 601.8903,-165.795"/>
<polygon fill="#191970" stroke="#191970" points="601.0928,-169.2158 611.6848,-168.9709 603.2519,-162.5571 601.0928,-169.2158"/>
</g>
<!-- Node5 -->
<g id="node6" class="node">
<title>Node5</title>
<g id="a_node6"><a xlink:href="classwrite__buffer_aa2325346aceb3e7ffdbdbdc8e8682147.html#aa2325346aceb3e7ffdbdbdc8e8682147" target="_top" xlink:title="Sorts all elements by home node id in ascending order. ">
<polygon fill="#ffffff" stroke="#000000" points="601.5,-131 601.5,-150 701.5,-150 701.5,-131 601.5,-131"/>
<text text-anchor="middle" x="651.5" y="-138" font-family="Helvetica,sans-Serif" font-size="10.00" fill="#000000">write_buffer::sort</text>
</a>
</g>
</g>
<!-- Node3&#45;&gt;Node5 -->
<g id="edge5" class="edge">
<title>Node3&#45;&gt;Node5</title>
<path fill="none" stroke="#191970" d="M536.7345,-112.089C556.8993,-117.0809 581.7479,-123.2324 603.1611,-128.5334"/>
<polygon fill="#191970" stroke="#191970" points="602.4959,-131.9743 613.044,-130.9799 604.1781,-125.1794 602.4959,-131.9743"/>
</g>
<!-- Node15 -->
<g id="node16" class="node">
<title>Node15</title>
<g id="a_node16"><a xlink:href="classwrite__buffer_ae065d3ee59035ad508eb8ce6670d2c89.html#ae065d3ee59035ad508eb8ce6670d2c89" target="_top" xlink:title="Removes the front element from the buffer and returns it. ">
<polygon fill="#ffffff" stroke="#000000" points="602,-93 602,-112 701,-112 701,-93 602,-93"/>
<text text-anchor="middle" x="651.5" y="-100" font-family="Helvetica,sans-Serif" font-size="10.00" fill="#000000">write_buffer::pop</text>
</a>
</g>
</g>
<!-- Node3&#45;&gt;Node15 -->
<g id="edge16" class="edge">
<title>Node3&#45;&gt;Node15</title>
<path fill="none" stroke="#191970" d="M550.3967,-102.5C563.6849,-102.5 578.0597,-102.5 591.685,-102.5"/>
<polygon fill="#191970" stroke="#191970" points="591.9279,-106.0001 601.9279,-102.5 591.9279,-99.0001 591.9279,-106.0001"/>
</g>
<!-- Node16 -->
<g id="node17" class="node">
<title>Node16</title>
<g id="a_node17"><a xlink:href="swdsm_8cpp_ae0f2d0961e80b2903b3f54c9e6c68658.html#ae0f2d0961e80b2903b3f54c9e6c68658" target="_top" xlink:title="stores a page remotely &#45; only writing back what has been written locally since last synchronization p...">
<polygon fill="#ffffff" stroke="#000000" points="608.5,-55 608.5,-74 694.5,-74 694.5,-55 608.5,-55"/>
<text text-anchor="middle" x="651.5" y="-62" font-family="Helvetica,sans-Serif" font-size="10.00" fill="#000000">storepageDIFF</text>
</a>
</g>
</g>
<!-- Node3&#45;&gt;Node16 -->
<g id="edge17" class="edge">
<title>Node3&#45;&gt;Node16</title>
<path fill="none" stroke="#191970" d="M536.7345,-92.911C556.8993,-87.9191 581.7479,-81.7676 603.1611,-76.4666"/>
<polygon fill="#191970" stroke="#191970" points="604.1781,-79.8206 613.044,-74.0201 602.4959,-73.0257 604.1781,-79.8206"/>
</g>
<!-- Node21 -->
<g id="node22" class="node">
<title>Node21</title>
<g id="a_node22"><a xlink:href="namespaceargo_a79c9492f3fd441bfa6261dffbc0f02f4.html#a79c9492f3fd441bfa6261dffbc0f02f4" target="_top" xlink:title="Number of ArgoDSM nodes being run. ">
<polygon fill="#ffffff" stroke="#000000" points="586,-17 586,-36 717,-36 717,-17 586,-17"/>
<text text-anchor="middle" x="651.5" y="-24" font-family="Helvetica,sans-Serif" font-size="10.00" fill="#000000">argo::number_of_nodes</text>
</a>
</g>
</g>
<!-- Node3&#45;&gt;Node21 -->
<g id="edge22" class="edge">
<title>Node3&#45;&gt;Node21</title>
<path fill="none" stroke="#191970" d="M531.2842,-92.9451C537.7575,-90.3779 544.2969,-87.2476 550,-83.5 569.4424,-70.7239 566.1346,-57.6079 586,-45.5 589.428,-43.4106 593.097,-41.5414 596.883,-39.8707"/>
<polygon fill="#191970" stroke="#191970" points="598.4318,-43.0229 606.4642,-36.1142 595.8766,-36.5059 598.4318,-43.0229"/>
</g>
<!-- Node6 -->
<g id="node7" class="node">
<title>Node6</title>
<g id="a_node7"><a xlink:href="namespaceargo_a48dc17c94275df10a8e7f3959cbf0191.html#a48dc17c94275df10a8e7f3959cbf0191" target="_top" xlink:title="Get the ArgoDSM node id where addr is physically backed. ">
<polygon fill="#ffffff" stroke="#000000" points="753,-134 753,-153 870,-153 870,-134 753,-134"/>
<text text-anchor="middle" x="811.5" y="-141" font-family="Helvetica,sans-Serif" font-size="10.00" fill="#000000">argo::get_homenode</text>
</a>
</g>
</g>
<!-- Node5&#45;&gt;Node6 -->
<g id="edge6" class="edge">
<title>Node5&#45;&gt;Node6</title>
<path fill="none" stroke="#191970" d="M701.686,-141.441C714.6124,-141.6834 728.7506,-141.9484 742.452,-142.2054"/>
<polygon fill="#191970" stroke="#191970" points="742.7533,-145.7115 752.8171,-142.3997 742.8845,-138.7127 742.7533,-145.7115"/>
</g>
<!-- Node7 -->
<g id="node8" class="node">
<title>Node7</title>
<g id="a_node8"><a xlink:href="classargo_1_1data__distribution_1_1global__ptr_a3e2cdd4d323ef91174615e27ab94e342.html#a3e2cdd4d323ef91174615e27ab94e342" target="_top" xlink:title="return the home node of the value pointed to, or a default value if the page has not yet been first&#45;t...">
<polygon fill="#ffffff" stroke="#000000" points="906,-175.5 906,-205.5 1037,-205.5 1037,-175.5 906,-175.5"/>
<text text-anchor="start" x="914" y="-193.5" font-family="Helvetica,sans-Serif" font-size="10.00" fill="#000000">argo::data_distribution</text>
<text text-anchor="middle" x="971.5" y="-182.5" font-family="Helvetica,sans-Serif" font-size="10.00" fill="#000000">::global_ptr::peek_node</text>
</a>
</g>
</g>
<!-- Node6&#45;&gt;Node7 -->
<g id="edge7" class="edge">
<title>Node6&#45;&gt;Node7</title>
<path fill="none" stroke="#191970" d="M843.8784,-153.0112C862.9686,-158.6189 887.7471,-165.8976 910.3856,-172.5476"/>
<polygon fill="#191970" stroke="#191970" points="909.6888,-175.9908 920.2699,-175.4512 911.6617,-169.2746 909.6888,-175.9908"/>
</g>
<!-- Node8 -->
<g id="node9" class="node">
<title>Node8</title>
<g id="a_node9"><a xlink:href="namespaceargo_a2f35b6b6e0af76fb8fb47f2031d6f58e.html#a2f35b6b6e0af76fb8fb47f2031d6f58e" target="_top" xlink:title="Get the block size of the current allocation policy. ">
<polygon fill="#ffffff" stroke="#000000" points="913.5,-137 913.5,-156 1029.5,-156 1029.5,-137 913.5,-137"/>
<text text-anchor="middle" x="971.5" y="-144" font-family="Helvetica,sans-Serif" font-size="10.00" fill="#000000">argo::get_block_size</text>
</a>
</g>
</g>
<!-- Node6&#45;&gt;Node8 -->
<g id="edge8" class="edge">
<title>Node6&#45;&gt;Node8</title>
<path fill="none" stroke="#191970" d="M870.1696,-144.6001C880.9585,-144.8023 892.3057,-145.0151 903.3452,-145.2221"/>
<polygon fill="#191970" stroke="#191970" points="903.3083,-148.7219 913.3722,-145.4101 903.4396,-141.7232 903.3083,-148.7219"/>
</g>
<!-- Node14 -->
<g id="node15" class="node">
<title>Node14</title>
<g id="a_node15"><a xlink:href="namespaceargo_a2b6b342c320b2a608d317a328fc46d83.html#a2b6b342c320b2a608d317a328fc46d83" target="_top" xlink:title="Size of memory which is the portion of memory owned by this node. ">
<polygon fill="#ffffff" stroke="#000000" points="922.5,-99 922.5,-118 1020.5,-118 1020.5,-99 922.5,-99"/>
<text text-anchor="middle" x="971.5" y="-106" font-family="Helvetica,sans-Serif" font-size="10.00" fill="#000000">argo::chunk_size</text>
</a>
</g>
</g>
<!-- Node6&#45;&gt;Node14 -->
<g id="edge15" class="edge">
<title>Node6&#45;&gt;Node14</title>
<path fill="none" stroke="#191970" d="M855.2207,-133.9361C874.6221,-129.692 897.6353,-124.6579 918.0477,-120.1927"/>
<polygon fill="#191970" stroke="#191970" points="918.8111,-123.6085 927.8322,-118.0523 917.3152,-116.7702 918.8111,-123.6085"/>
</g>
<!-- Node9 -->
<g id="node10" class="node">
<title>Node9</title>
<g id="a_node10"><a xlink:href="namespaceargo_1_1data__distribution_a2a70ed49553953957c3a28aa755d7ac8.html#a2a70ed49553953957c3a28aa755d7ac8" target="_top" xlink:title="based on the chosen policy, gets the policy block size ">
<polygon fill="#ffffff" stroke="#000000" points="1073,-131.5 1073,-161.5 1200,-161.5 1200,-131.5 1073,-131.5"/>
<text text-anchor="start" x="1081" y="-149.5" font-family="Helvetica,sans-Serif" font-size="10.00" fill="#000000">argo::data_distribution</text>
<text text-anchor="middle" x="1136.5" y="-138.5" font-family="Helvetica,sans-Serif" font-size="10.00" fill="#000000">::policy_block_size</text>
</a>
</g>
</g>
<!-- Node8&#45;&gt;Node9 -->
<g id="edge9" class="edge">
<title>Node8&#45;&gt;Node9</title>
<path fill="none" stroke="#191970" d="M1029.6728,-146.5C1040.3993,-146.5 1051.7284,-146.5 1062.841,-146.5"/>
<polygon fill="#191970" stroke="#191970" points="1062.9621,-150.0001 1072.9621,-146.5 1062.962,-143.0001 1062.9621,-150.0001"/>
</g>
<!-- Node10 -->
<g id="node11" class="node">
<title>Node10</title>
<g id="a_node11"><a xlink:href="namespaceargo_1_1env_a30775a9aa41b956df7474a2c0cc317aa.html#a30775a9aa41b956df7474a2c0cc317aa" target="_top" xlink:title="get the allocation block size requested by environment variable ">
<polygon fill="#ffffff" stroke="#000000" points="1241.5,-180.5 1241.5,-210.5 1357.5,-210.5 1357.5,-180.5 1241.5,-180.5"/>
<text text-anchor="start" x="1249.5" y="-198.5" font-family="Helvetica,sans-Serif" font-size="10.00" fill="#000000">argo::env::allocation</text>
<text text-anchor="middle" x="1299.5" y="-187.5" font-family="Helvetica,sans-Serif" font-size="10.00" fill="#000000">_block_size</text>
</a>
</g>
</g>
<!-- Node9&#45;&gt;Node10 -->
<g id="edge10" class="edge">
<title>Node9&#45;&gt;Node10</title>
<path fill="none" stroke="#191970" d="M1186.7354,-161.6014C1203.3909,-166.6083 1222.0997,-172.2324 1239.4194,-177.439"/>
<polygon fill="#191970" stroke="#191970" points="1238.8462,-180.9213 1249.4305,-180.4484 1240.8615,-174.2177 1238.8462,-180.9213"/>
</g>
<!-- Node11 -->
<g id="node12" class="node">
<title>Node11</title>
<g id="a_node12"><a xlink:href="namespaceargo_1_1data__distribution_a1bb3f2dcecd237990e6dc67764f06860.html#a1bb3f2dcecd237990e6dc67764f06860" target="_top" xlink:title="identifies if we distribute data using a cyclic memory policy ">
<polygon fill="#ffffff" stroke="#000000" points="1236,-131.5 1236,-161.5 1363,-161.5 1363,-131.5 1236,-131.5"/>
<text text-anchor="start" x="1244" y="-149.5" font-family="Helvetica,sans-Serif" font-size="10.00" fill="#000000">argo::data_distribution</text>
<text text-anchor="middle" x="1299.5" y="-138.5" font-family="Helvetica,sans-Serif" font-size="10.00" fill="#000000">::is_cyclic_policy</text>
</a>
</g>
</g>
<!-- Node9&#45;&gt;Node11 -->
<g id="edge11" class="edge">
<title>Node9&#45;&gt;Node11</title>
<path fill="none" stroke="#191970" d="M1200.4541,-146.5C1208.7606,-146.5 1217.3224,-146.5 1225.7718,-146.5"/>
<polygon fill="#191970" stroke="#191970" points="1225.9977,-150.0001 1235.9977,-146.5 1225.9977,-143.0001 1225.9977,-150.0001"/>
</g>
<!-- Node13 -->
<g id="node14" class="node">
<title>Node13</title>
<g id="a_node14"><a xlink:href="namespaceargo_1_1data__distribution_a58576657391f45caf61bf0748a23b098.html#a58576657391f45caf61bf0748a23b098" target="_top" xlink:title="identifies if we distribute data using the first&#45;touch memory policy ">
<polygon fill="#ffffff" stroke="#000000" points="1236,-82.5 1236,-112.5 1363,-112.5 1363,-82.5 1236,-82.5"/>
<text text-anchor="start" x="1244" y="-100.5" font-family="Helvetica,sans-Serif" font-size="10.00" fill="#000000">argo::data_distribution</text>
<text text-anchor="middle" x="1299.5" y="-89.5" font-family="Helvetica,sans-Serif" font-size="10.00" fill="#000000">::is_first_touch_policy</text>
</a>
</g>
</g>
<!-- Node9&#45;&gt;Node13 -->
<g id="edge13" class="edge">
<title>Node9&#45;&gt;Node13</title>
<path fill="none" stroke="#191970" d="M1186.7354,-131.3986C1203.3909,-126.3917 1222.0997,-120.7676 1239.4194,-115.561"/>
<polygon fill="#191970" stroke="#191970" points="1240.8615,-118.7823 1249.4305,-112.5516 1238.8462,-112.0787 1240.8615,-118.7823"/>
</g>
<!-- Node12 -->
<g id="node13" class="node">
<title>Node12</title>
<g id="a_node13"><a xlink:href="namespaceargo_1_1env_a25a08cb2d0d11432d640ec7173063339.html#a25a08cb2d0d11432d640ec7173063339" target="_top" xlink:title="get the allocation policy requested by environment variable ">
<polygon fill="#ffffff" stroke="#000000" points="1399,-106.5 1399,-136.5 1515,-136.5 1515,-106.5 1399,-106.5"/>
<text text-anchor="start" x="1407" y="-124.5" font-family="Helvetica,sans-Serif" font-size="10.00" fill="#000000">argo::env::allocation</text>
<text text-anchor="middle" x="1457" y="-113.5" font-family="Helvetica,sans-Serif" font-size="10.00" fill="#000000">_policy</text>
</a>
</g>
</g>
<!-- Node11&#45;&gt;Node12 -->
<g id="edge12" class="edge">
<title>Node11&#45;&gt;Node12</title>
<path fill="none" stroke="#191970" d="M1363.1073,-136.4036C1371.5754,-135.0595 1380.2863,-133.6768 1388.8281,-132.3209"/>
<polygon fill="#191970" stroke="#191970" points="1389.4255,-135.77 1398.7531,-130.7455 1388.3281,-128.8566 1389.4255,-135.77"/>
</g>
<!-- Node13&#45;&gt;Node12 -->
<g id="edge14" class="edge">
<title>Node13&#45;&gt;Node12</title>
<path fill="none" stroke="#191970" d="M1363.1073,-107.1925C1371.5754,-108.4829 1380.2863,-109.8103 1388.8281,-111.1119"/>
<polygon fill="#191970" stroke="#191970" points="1388.34,-114.5778 1398.7531,-112.6243 1389.3945,-107.6577 1388.34,-114.5778"/>
</g>
<!-- Node17 -->
<g id="node18" class="node">
<title>Node17</title>
<g id="a_node18"><a xlink:href="swdsm_8cpp_a0edf823a78daed8888e8e18468460617.html#a0edf823a78daed8888e8e18468460617" target="_top" xlink:title="Gives homenode for a given address. ">
<polygon fill="#ffffff" stroke="#000000" points="767,-55 767,-74 856,-74 856,-55 767,-55"/>
<text text-anchor="middle" x="811.5" y="-62" font-family="Helvetica,sans-Serif" font-size="10.00" fill="#000000">get_homenode</text>
</a>
</g>
</g>
<!-- Node16&#45;&gt;Node17 -->
<g id="edge18" class="edge">
<title>Node16&#45;&gt;Node17</title>
<path fill="none" stroke="#191970" d="M694.7983,-64.5C713.8788,-64.5 736.5155,-64.5 756.7506,-64.5"/>
<polygon fill="#191970" stroke="#191970" points="756.7724,-68.0001 766.7724,-64.5 756.7723,-61.0001 756.7724,-68.0001"/>
</g>
<!-- Node19 -->
<g id="node20" class="node">
<title>Node19</title>
<g id="a_node20"><a xlink:href="swdsm_8cpp_ab58b1f9fa1b59d3060f241994979e18f.html#ab58b1f9fa1b59d3060f241994979e18f" target="_top" xlink:title="Gets the offset of an address on the local nodes part of the global memory. ">
<polygon fill="#ffffff" stroke="#000000" points="779,-12 779,-31 844,-31 844,-12 779,-12"/>
<text text-anchor="middle" x="811.5" y="-19" font-family="Helvetica,sans-Serif" font-size="10.00" fill="#000000">get_offset</text>
</a>
</g>
</g>
<!-- Node16&#45;&gt;Node19 -->
<g id="edge20" class="edge">
<title>Node16&#45;&gt;Node19</title>
<path fill="none" stroke="#191970" d="M687.0092,-54.9569C711.2295,-48.4477 743.4273,-39.7945 769.0101,-32.9192"/>
<polygon fill="#191970" stroke="#191970" points="770.0652,-36.2599 778.8141,-30.2843 768.2483,-29.4998 770.0652,-36.2599"/>
</g>
<!-- Node18 -->
<g id="node19" class="node">
<title>Node18</title>
<g id="a_node19"><a xlink:href="classargo_1_1data__distribution_1_1global__ptr_ac7d651586337d08cda18ef26ffcd34a0.html#ac7d651586337d08cda18ef26ffcd34a0" target="_top" xlink:title="return the home node of the value pointed to ">
<polygon fill="#ffffff" stroke="#000000" points="908,-49.5 908,-79.5 1035,-79.5 1035,-49.5 908,-49.5"/>
<text text-anchor="start" x="916" y="-67.5" font-family="Helvetica,sans-Serif" font-size="10.00" fill="#000000">argo::data_distribution</text>
<text text-anchor="middle" x="971.5" y="-56.5" font-family="Helvetica,sans-Serif" font-size="10.00" fill="#000000">::global_ptr::node</text>
</a>
</g>
</g>
<!-- Node17&#45;&gt;Node18 -->
<g id="edge19" class="edge">
<title>Node17&#45;&gt;Node18</title>
<path fill="none" stroke="#191970" d="M856.0689,-64.5C868.9412,-64.5 883.3472,-64.5 897.5013,-64.5"/>
<polygon fill="#191970" stroke="#191970" points="897.7376,-68.0001 907.7375,-64.5 897.7375,-61.0001 897.7376,-68.0001"/>
</g>
<!-- Node20 -->
<g id="node21" class="node">
<title>Node20</title>
<g id="a_node21"><a xlink:href="classargo_1_1data__distribution_1_1global__ptr_ad8c21c408fa2b926cfd9acfd87e8e4e6.html#ad8c21c408fa2b926cfd9acfd87e8e4e6" target="_top" xlink:title="return the offset on the home node&#39;s local memory share ">
<polygon fill="#ffffff" stroke="#000000" points="908,-.5 908,-30.5 1035,-30.5 1035,-.5 908,-.5"/>
<text text-anchor="start" x="916" y="-18.5" font-family="Helvetica,sans-Serif" font-size="10.00" fill="#000000">argo::data_distribution</text>
<text text-anchor="middle" x="971.5" y="-7.5" font-family="Helvetica,sans-Serif" font-size="10.00" fill="#000000">::global_ptr::offset</text>
</a>
</g>
</g>
<!-- Node19&#45;&gt;Node20 -->
<g id="edge21" class="edge">
<title>Node19&#45;&gt;Node20</title>
<path fill="none" stroke="#191970" d="M844.2645,-20.2713C859.764,-19.6901 878.9491,-18.9707 897.6797,-18.2683"/>
<polygon fill="#191970" stroke="#191970" points="897.8488,-21.7645 907.7106,-17.8921 897.5864,-14.7694 897.8488,-21.7645"/>
</g>
<!-- Node22&#45;&gt;Node3 -->
<g id="edge26" class="edge">
<title>Node22&#45;&gt;Node3</title>
<path fill="none" stroke="#191970" d="M395.5709,-74.089C413.1752,-78.9719 434.7793,-84.9643 453.601,-90.185"/>
<polygon fill="#191970" stroke="#191970" points="452.8685,-93.6138 463.4402,-92.9141 454.7395,-86.8685 452.8685,-93.6138"/>
</g>
<!-- Node23 -->
<g id="node24" class="node">
<title>Node23</title>
<g id="a_node24"><a xlink:href="swdsm_8cpp_af770e3f703653ddb0967b85d88881ab7.html#af770e3f703653ddb0967b85d88881ab7" target="_top" xlink:title="Gives the ArgoDSM node id for the local process. ">
<polygon fill="#ffffff" stroke="#000000" points="476.5,-55 476.5,-74 519.5,-74 519.5,-55 476.5,-55"/>
<text text-anchor="middle" x="498" y="-62" font-family="Helvetica,sans-Serif" font-size="10.00" fill="#000000">getID</text>
</a>
</g>
</g>
<!-- Node22&#45;&gt;Node23 -->
<g id="edge24" class="edge">
<title>Node22&#45;&gt;Node23</title>
<path fill="none" stroke="#191970" d="M410.0732,-64.5C428.716,-64.5 449.4517,-64.5 466.1023,-64.5"/>
<polygon fill="#191970" stroke="#191970" points="466.3912,-68.0001 476.3911,-64.5 466.3911,-61.0001 466.3912,-68.0001"/>
</g>
<!-- Node24 -->
<g id="node25" class="node">
<title>Node24</title>
<g id="a_node25"><a xlink:href="swdsm_8cpp_adfcbbdedcad0833d49e3111447061689.html#adfcbbdedcad0833d49e3111447061689" target="_top" xlink:title="Gives an index to the sharer/writer vector depending on the address. ">
<polygon fill="#ffffff" stroke="#000000" points="447.5,-5.5 447.5,-35.5 548.5,-35.5 548.5,-5.5 447.5,-5.5"/>
<text text-anchor="start" x="455.5" y="-23.5" font-family="Helvetica,sans-Serif" font-size="10.00" fill="#000000">get_classification</text>
<text text-anchor="middle" x="498" y="-12.5" font-family="Helvetica,sans-Serif" font-size="10.00" fill="#000000">_index</text>
</a>
</g>
</g>
<!-- Node22&#45;&gt;Node24 -->
<g id="edge25" class="edge">
<title>Node22&#45;&gt;Node24</title>
<path fill="none" stroke="#191970" d="M390.727,-54.9527C405.6007,-50.1757 424.1109,-44.2308 441.5462,-38.6311"/>
<polygon fill="#191970" stroke="#191970" points="442.6412,-41.9556 451.0919,-35.5654 440.5007,-35.2909 442.6412,-41.9556"/>
</g>
</g>
</svg>
