<?xml version="1.0" encoding="UTF-8" standalone="no"?>
<!DOCTYPE svg PUBLIC "-//W3C//DTD SVG 1.1//EN"
 "http://www.w3.org/Graphics/SVG/1.1/DTD/svg11.dtd">
<!-- Generated by graphviz version 2.40.1 (20161225.0304)
 -->
<!-- Title: argo::backend::init Pages: 1 -->
<svg width="1840pt" height="753pt"
 viewBox="0.00 0.00 1840.00 753.00" xmlns="http://www.w3.org/2000/svg" xmlns:xlink="http://www.w3.org/1999/xlink">
<g id="graph0" class="graph" transform="scale(1 1) rotate(0) translate(4 749)">
<title>argo::backend::init</title>
<polygon fill="#ffffff" stroke="transparent" points="-4,4 -4,-749 1836,-749 1836,4 -4,4"/>
<!-- Node0 -->
<g id="node1" class="node">
<title>Node0</title>
<polygon fill="#bfbfbf" stroke="#000000" points="0,-497.5 0,-516.5 107,-516.5 107,-497.5 0,-497.5"/>
<text text-anchor="middle" x="53.5" y="-504.5" font-family="Helvetica,sans-Serif" font-size="10.00" fill="#000000">argo::backend::init</text>
</g>
<!-- Node1 -->
<g id="node2" class="node">
<title>Node1</title>
<g id="a_node2"><a xlink:href="swdsm_8cpp_a31ba60e8ddccfa922da8d7e6a10f7b1d.html#a31ba60e8ddccfa922da8d7e6a10f7b1d" target="_top" xlink:title="Initializes ArgoDSM runtime. ">
<polygon fill="#ffffff" stroke="#000000" points="143,-497.5 143,-516.5 229,-516.5 229,-497.5 143,-497.5"/>
<text text-anchor="middle" x="186" y="-504.5" font-family="Helvetica,sans-Serif" font-size="10.00" fill="#000000">argo_initialize</text>
</a>
</g>
</g>
<!-- Node0&#45;&gt;Node1 -->
<g id="edge1" class="edge">
<title>Node0&#45;&gt;Node1</title>
<path fill="none" stroke="#191970" d="M107.0109,-507C115.4872,-507 124.2526,-507 132.7235,-507"/>
<polygon fill="#191970" stroke="#191970" points="132.8709,-510.5001 142.8709,-507 132.8709,-503.5001 132.8709,-510.5001"/>
</g>
<!-- Node2 -->
<g id="node3" class="node">
<title>Node2</title>
<g id="a_node3"><a xlink:href="swdsm_8cpp_a986edbd6f804f61cd8c58dcaa51025e8.html#a986edbd6f804f61cd8c58dcaa51025e8" target="_top" xlink:title="Initializes the MPI environment. ">
<polygon fill="#ffffff" stroke="#000000" points="301.5,-706.5 301.5,-725.5 352.5,-725.5 352.5,-706.5 301.5,-706.5"/>
<text text-anchor="middle" x="327" y="-713.5" font-family="Helvetica,sans-Serif" font-size="10.00" fill="#000000">initmpi</text>
</a>
</g>
</g>
<!-- Node1&#45;&gt;Node2 -->
<g id="edge2" class="edge">
<title>Node1&#45;&gt;Node2</title>
<path fill="none" stroke="#191970" d="M187.1105,-516.5152C191.2214,-547.3698 208.3935,-645.6176 265,-697 272.3623,-703.6829 282.0243,-708.016 291.5227,-710.8254"/>
<polygon fill="#191970" stroke="#191970" points="290.7106,-714.2299 301.2587,-713.236 292.393,-707.4351 290.7106,-714.2299"/>
</g>
<!-- Node5 -->
<g id="node6" class="node">
<title>Node5</title>
<g id="a_node6"><a xlink:href="swdsm_8cpp_a1329899b77819c1772f1972ff0eed20f.html#a1329899b77819c1772f1972ff0eed20f" target="_top" xlink:title="aligns an offset (into a memory region) to the beginning of its subsequent size block if it is not al...">
<polygon fill="#ffffff" stroke="#000000" points="282.5,-668.5 282.5,-687.5 371.5,-687.5 371.5,-668.5 282.5,-668.5"/>
<text text-anchor="middle" x="327" y="-675.5" font-family="Helvetica,sans-Serif" font-size="10.00" fill="#000000">align_forwards</text>
</a>
</g>
</g>
<!-- Node1&#45;&gt;Node5 -->
<g id="edge5" class="edge">
<title>Node1&#45;&gt;Node5</title>
<path fill="none" stroke="#191970" d="M188.6345,-516.7312C196.1406,-542.689 220.0502,-614.2967 265,-654 269.5444,-658.014 274.8344,-661.3911 280.3727,-664.2239"/>
<polygon fill="#191970" stroke="#191970" points="279.285,-667.5728 289.8397,-668.4935 282.1629,-661.1917 279.285,-667.5728"/>
</g>
<!-- Node6 -->
<g id="node7" class="node">
<title>Node6</title>
<g id="a_node7"><a xlink:href="namespaceargo_1_1data__distribution_acc3c36c6299a0636d31774e216102de1.html#acc3c36c6299a0636d31774e216102de1" target="_top" xlink:title="based on the chosen policy, gets the required size we need to add to the standardisation of the ArgoD...">
<polygon fill="#ffffff" stroke="#000000" points="727.5,-57 727.5,-87 854.5,-87 854.5,-57 727.5,-57"/>
<text text-anchor="start" x="735.5" y="-75" font-family="Helvetica,sans-Serif" font-size="10.00" fill="#000000">argo::data_distribution</text>
<text text-anchor="middle" x="791" y="-64" font-family="Helvetica,sans-Serif" font-size="10.00" fill="#000000">::policy_padding</text>
</a>
</g>
</g>
<!-- Node1&#45;&gt;Node6 -->
<g id="edge6" class="edge">
<title>Node1&#45;&gt;Node6</title>
<path fill="none" stroke="#191970" d="M189.7063,-497.428C199.448,-473.05 227.621,-407.3487 265,-362 379.4467,-223.1518 412.6797,-177.3194 577,-104 620.9871,-84.373 674.5959,-76.3793 717.1534,-73.2891"/>
<polygon fill="#191970" stroke="#191970" points="717.4137,-76.7797 727.165,-72.637 716.9586,-69.7945 717.4137,-76.7797"/>
</g>
<!-- Node12 -->
<g id="node13" class="node">
<title>Node12</title>
<g id="a_node13"><a xlink:href="classargo_1_1signal_1_1signal__handler_a07112cd878d25cae303dc9a65c73d059.html#a07112cd878d25cae303dc9a65c73d059" target="_top" xlink:title="install a signal handler for ArgoDSM ">
<polygon fill="#ffffff" stroke="#000000" points="266,-.5 266,-41.5 388,-41.5 388,-.5 266,-.5"/>
<text text-anchor="start" x="274" y="-29.5" font-family="Helvetica,sans-Serif" font-size="10.00" fill="#000000">argo::signal::signal</text>
<text text-anchor="start" x="274" y="-18.5" font-family="Helvetica,sans-Serif" font-size="10.00" fill="#000000">_handler::install_argo</text>
<text text-anchor="middle" x="327" y="-7.5" font-family="Helvetica,sans-Serif" font-size="10.00" fill="#000000">_handler</text>
</a>
</g>
</g>
<!-- Node1&#45;&gt;Node12 -->
<g id="edge13" class="edge">
<title>Node1&#45;&gt;Node12</title>
<path fill="none" stroke="#191970" d="M186.5732,-497.4632C190.2344,-439.1896 211.9031,-131.1443 265,-56 266.9616,-53.2239 269.2171,-50.6404 271.6809,-48.2401"/>
<polygon fill="#191970" stroke="#191970" points="274.2048,-50.6911 279.6112,-41.5794 269.7027,-45.3309 274.2048,-50.6911"/>
</g>
<!-- Node13 -->
<g id="node14" class="node">
<title>Node13</title>
<g id="a_node14"><a xlink:href="swdsm_8cpp_adb24c11067d42b9bc8515a78a524e2c7.html#adb24c11067d42b9bc8515a78a524e2c7" target="_top" xlink:title="Catches memory accesses to memory not yet cached in ArgoDSM. Launches remote requests for memory not ...">
<polygon fill="#ffffff" stroke="#000000" points="456.5,-288.5 456.5,-307.5 509.5,-307.5 509.5,-288.5 456.5,-288.5"/>
<text text-anchor="middle" x="483" y="-295.5" font-family="Helvetica,sans-Serif" font-size="10.00" fill="#000000">handler</text>
</a>
</g>
</g>
<!-- Node1&#45;&gt;Node13 -->
<g id="edge14" class="edge">
<title>Node1&#45;&gt;Node13</title>
<path fill="none" stroke="#191970" d="M199.5332,-497.4766C246.4981,-464.4273 402.7492,-354.4728 460.9244,-313.5347"/>
<polygon fill="#191970" stroke="#191970" points="463.2234,-316.1966 469.3873,-307.5793 459.195,-310.472 463.2234,-316.1966"/>
</g>
<!-- Node17 -->
<g id="node18" class="node">
<title>Node17</title>
<g id="a_node18"><a xlink:href="namespaceargo_1_1data__distribution_a58576657391f45caf61bf0748a23b098.html#a58576657391f45caf61bf0748a23b098" target="_top" xlink:title="identifies if we distribute data using the first&#45;touch memory policy ">
<polygon fill="#ffffff" stroke="#000000" points="1553,-511 1553,-541 1680,-541 1680,-511 1553,-511"/>
<text text-anchor="start" x="1561" y="-529" font-family="Helvetica,sans-Serif" font-size="10.00" fill="#000000">argo::data_distribution</text>
<text text-anchor="middle" x="1616.5" y="-518" font-family="Helvetica,sans-Serif" font-size="10.00" fill="#000000">::is_first_touch_policy</text>
</a>
</g>
</g>
<!-- Node1&#45;&gt;Node17 -->
<g id="edge45" class="edge">
<title>Node1&#45;&gt;Node17</title>
<path fill="none" stroke="#191970" d="M197.5967,-516.565C235.7878,-547.0607 362.0975,-640 483,-640 483,-640 483,-640 1288.5,-640 1392.4584,-640 1420.9871,-629.8608 1517,-590 1543.1555,-579.1413 1570.0005,-561.4136 1589.2047,-547.3663"/>
<polygon fill="#191970" stroke="#191970" points="1591.537,-549.9931 1597.4607,-541.209 1587.352,-544.3818 1591.537,-549.9931"/>
</g>
<!-- Node37 -->
<g id="node38" class="node">
<title>Node37</title>
<g id="a_node38"><a xlink:href="swdsm_8cpp_a0c6b51af2b87ddf7eb04aa7d4e0e836e.html#a0c6b51af2b87ddf7eb04aa7d4e0e836e" target="_top" xlink:title="Resets current coherence. Collective function called by all threads on all nodes. ...">
<polygon fill="#ffffff" stroke="#000000" points="265,-497.5 265,-516.5 389,-516.5 389,-497.5 265,-497.5"/>
<text text-anchor="middle" x="327" y="-504.5" font-family="Helvetica,sans-Serif" font-size="10.00" fill="#000000">argo_reset_coherence</text>
</a>
</g>
</g>
<!-- Node1&#45;&gt;Node37 -->
<g id="edge46" class="edge">
<title>Node1&#45;&gt;Node37</title>
<path fill="none" stroke="#191970" d="M229.0708,-507C237.2201,-507 245.9488,-507 254.7143,-507"/>
<polygon fill="#191970" stroke="#191970" points="254.9887,-510.5001 264.9886,-507 254.9886,-503.5001 254.9887,-510.5001"/>
</g>
<!-- Node3 -->
<g id="node4" class="node">
<title>Node3</title>
<g id="a_node4"><a xlink:href="swdsm_8cpp_ab959fc516b83d1ea190682ae0bc7b90c.html#ab959fc516b83d1ea190682ae0bc7b90c" target="_top" xlink:title="Initializes a mpi data structure for writing cacheb control data over the network *...">
<polygon fill="#ffffff" stroke="#000000" points="438.5,-725.5 438.5,-744.5 527.5,-744.5 527.5,-725.5 438.5,-725.5"/>
<text text-anchor="middle" x="483" y="-732.5" font-family="Helvetica,sans-Serif" font-size="10.00" fill="#000000">init_mpi_struct</text>
</a>
</g>
</g>
<!-- Node2&#45;&gt;Node3 -->
<g id="edge3" class="edge">
<title>Node2&#45;&gt;Node3</title>
<path fill="none" stroke="#191970" d="M352.7602,-719.1375C373.235,-721.6312 402.5977,-725.2074 428.2621,-728.3332"/>
<polygon fill="#191970" stroke="#191970" points="427.9077,-731.8158 438.2575,-729.5506 428.754,-724.8672 427.9077,-731.8158"/>
</g>
<!-- Node4 -->
<g id="node5" class="node">
<title>Node4</title>
<g id="a_node5"><a xlink:href="swdsm_8cpp_a4e99ecaa01cd081228c39c9a9ae3f7c1.html#a4e99ecaa01cd081228c39c9a9ae3f7c1" target="_top" xlink:title="Initializes a mpi data structure for writing cacheblocks over the network. ">
<polygon fill="#ffffff" stroke="#000000" points="425,-687.5 425,-706.5 541,-706.5 541,-687.5 425,-687.5"/>
<text text-anchor="middle" x="483" y="-694.5" font-family="Helvetica,sans-Serif" font-size="10.00" fill="#000000">init_mpi_cacheblock</text>
</a>
</g>
</g>
<!-- Node2&#45;&gt;Node4 -->
<g id="edge4" class="edge">
<title>Node2&#45;&gt;Node4</title>
<path fill="none" stroke="#191970" d="M352.7602,-712.8625C369.7207,-710.7968 392.7798,-707.9884 414.7836,-705.3084"/>
<polygon fill="#191970" stroke="#191970" points="415.2901,-708.7727 424.7935,-704.0893 414.4437,-701.824 415.2901,-708.7727"/>
</g>
<!-- Node7 -->
<g id="node8" class="node">
<title>Node7</title>
<g id="a_node8"><a xlink:href="namespaceargo_1_1data__distribution_a1bb3f2dcecd237990e6dc67764f06860.html#a1bb3f2dcecd237990e6dc67764f06860" target="_top" xlink:title="identifies if we distribute data using a cyclic memory policy ">
<polygon fill="#ffffff" stroke="#000000" points="1553,-155 1553,-185 1680,-185 1680,-155 1553,-155"/>
<text text-anchor="start" x="1561" y="-173" font-family="Helvetica,sans-Serif" font-size="10.00" fill="#000000">argo::data_distribution</text>
<text text-anchor="middle" x="1616.5" y="-162" font-family="Helvetica,sans-Serif" font-size="10.00" fill="#000000">::is_cyclic_policy</text>
</a>
</g>
</g>
<!-- Node6&#45;&gt;Node7 -->
<g id="edge7" class="edge">
<title>Node6&#45;&gt;Node7</title>
<path fill="none" stroke="#191970" d="M854.7601,-72C922.621,-72 1033.1387,-72 1128.5,-72 1128.5,-72 1128.5,-72 1288.5,-72 1390.6142,-72 1421.8724,-58.878 1517,-96 1546.6564,-107.5729 1575.2511,-130.4671 1594.1154,-147.7419"/>
<polygon fill="#191970" stroke="#191970" points="1591.8938,-150.4571 1601.5791,-154.752 1596.6861,-145.3547 1591.8938,-150.4571"/>
</g>
<!-- Node9 -->
<g id="node10" class="node">
<title>Node9</title>
<g id="a_node10"><a xlink:href="namespaceargo_1_1env_a30775a9aa41b956df7474a2c0cc317aa.html#a30775a9aa41b956df7474a2c0cc317aa" target="_top" xlink:title="get the allocation block size requested by environment variable ">
<polygon fill="#ffffff" stroke="#000000" points="1558.5,-215 1558.5,-245 1674.5,-245 1674.5,-215 1558.5,-215"/>
<text text-anchor="start" x="1566.5" y="-233" font-family="Helvetica,sans-Serif" font-size="10.00" fill="#000000">argo::env::allocation</text>
<text text-anchor="middle" x="1616.5" y="-222" font-family="Helvetica,sans-Serif" font-size="10.00" fill="#000000">_block_size</text>
</a>
</g>
</g>
<!-- Node6&#45;&gt;Node9 -->
<g id="edge9" class="edge">
<title>Node6&#45;&gt;Node9</title>
<path fill="none" stroke="#191970" d="M854.5203,-83.4528C922.1821,-94.6416 1032.5361,-110 1128.5,-110 1128.5,-110 1128.5,-110 1288.5,-110 1346.4307,-110 1500.6144,-176.853 1575.0915,-210.7613"/>
<polygon fill="#191970" stroke="#191970" points="1573.6465,-213.949 1584.1964,-214.9234 1576.5568,-207.5827 1573.6465,-213.949"/>
</g>
<!-- Node10 -->
<g id="node11" class="node">
<title>Node10</title>
<g id="a_node11"><a xlink:href="namespaceargo_1_1data__distribution_abb2c51a38640b8b83cab348e7d796fe5.html#abb2c51a38640b8b83cab348e7d796fe5" target="_top" xlink:title="identifies if we distribute data using the prime&#45;mapp memory policy ">
<polygon fill="#ffffff" stroke="#000000" points="1390,-13 1390,-43 1517,-43 1517,-13 1390,-13"/>
<text text-anchor="start" x="1398" y="-31" font-family="Helvetica,sans-Serif" font-size="10.00" fill="#000000">argo::data_distribution</text>
<text text-anchor="middle" x="1453.5" y="-20" font-family="Helvetica,sans-Serif" font-size="10.00" fill="#000000">::is_prime_policy</text>
</a>
</g>
</g>
<!-- Node6&#45;&gt;Node10 -->
<g id="edge10" class="edge">
<title>Node6&#45;&gt;Node10</title>
<path fill="none" stroke="#191970" d="M854.5888,-63.268C870.3833,-61.3153 887.2884,-59.4083 903,-58 1073.2202,-42.7419 1273.7952,-34.1739 1379.5737,-30.3863"/>
<polygon fill="#191970" stroke="#191970" points="1379.9509,-33.8753 1389.8209,-30.0238 1379.7033,-26.8796 1379.9509,-33.8753"/>
</g>
<!-- Node11 -->
<g id="node12" class="node">
<title>Node11</title>
<g id="a_node12"><a xlink:href="namespaceargo_a79c9492f3fd441bfa6261dffbc0f02f4.html#a79c9492f3fd441bfa6261dffbc0f02f4" target="_top" xlink:title="Number of ArgoDSM nodes being run. ">
<polygon fill="#ffffff" stroke="#000000" points="903,-231.5 903,-250.5 1034,-250.5 1034,-231.5 903,-231.5"/>
<text text-anchor="middle" x="968.5" y="-238.5" font-family="Helvetica,sans-Serif" font-size="10.00" fill="#000000">argo::number_of_nodes</text>
</a>
</g>
</g>
<!-- Node6&#45;&gt;Node11 -->
<g id="edge12" class="edge">
<title>Node6&#45;&gt;Node11</title>
<path fill="none" stroke="#191970" d="M807.065,-87.2957C840.2469,-118.8886 916.1352,-191.1428 950.7277,-224.0788"/>
<polygon fill="#191970" stroke="#191970" points="948.5521,-226.84 958.2079,-231.2008 953.379,-221.7704 948.5521,-226.84"/>
</g>
<!-- Node8 -->
<g id="node9" class="node">
<title>Node8</title>
<g id="a_node9"><a xlink:href="namespaceargo_1_1env_a25a08cb2d0d11432d640ec7173063339.html#a25a08cb2d0d11432d640ec7173063339" target="_top" xlink:title="get the allocation policy requested by environment variable ">
<polygon fill="#ffffff" stroke="#000000" points="1716,-155 1716,-185 1832,-185 1832,-155 1716,-155"/>
<text text-anchor="start" x="1724" y="-173" font-family="Helvetica,sans-Serif" font-size="10.00" fill="#000000">argo::env::allocation</text>
<text text-anchor="middle" x="1774" y="-162" font-family="Helvetica,sans-Serif" font-size="10.00" fill="#000000">_policy</text>
</a>
</g>
</g>
<!-- Node7&#45;&gt;Node8 -->
<g id="edge8" class="edge">
<title>Node7&#45;&gt;Node8</title>
<path fill="none" stroke="#191970" d="M1680.1073,-170C1688.4834,-170 1697.097,-170 1705.5496,-170"/>
<polygon fill="#191970" stroke="#191970" points="1705.7532,-173.5001 1715.7531,-170 1705.7531,-166.5001 1705.7532,-173.5001"/>
</g>
<!-- Node10&#45;&gt;Node8 -->
<g id="edge11" class="edge">
<title>Node10&#45;&gt;Node8</title>
<path fill="none" stroke="#191970" d="M1487.4957,-43.0621C1546.032,-68.997 1665.776,-122.0505 1730.3739,-150.6711"/>
<polygon fill="#191970" stroke="#191970" points="1729.3099,-154.0278 1739.8705,-154.8787 1732.1455,-147.6278 1729.3099,-154.0278"/>
</g>
<!-- Node14 -->
<g id="node15" class="node">
<title>Node14</title>
<g id="a_node15"><a xlink:href="swdsm_8cpp_ad56e0108259917bf97090212b3927f55.html#ad56e0108259917bf97090212b3927f55" target="_top" xlink:title="align an offset into a memory region to the beginning of its size block ">
<polygon fill="#ffffff" stroke="#000000" points="579,-136.5 579,-155.5 677,-155.5 677,-136.5 579,-136.5"/>
<text text-anchor="middle" x="628" y="-143.5" font-family="Helvetica,sans-Serif" font-size="10.00" fill="#000000">align_backwards</text>
</a>
</g>
</g>
<!-- Node13&#45;&gt;Node14 -->
<g id="edge15" class="edge">
<title>Node13&#45;&gt;Node14</title>
<path fill="none" stroke="#191970" d="M487.237,-288.4776C498.4222,-264.3747 531.0699,-200.3591 577,-165 579.3163,-163.2168 581.8176,-161.5871 584.4253,-160.0999"/>
<polygon fill="#191970" stroke="#191970" points="586.1704,-163.1417 593.5874,-155.5761 583.0713,-156.8651 586.1704,-163.1417"/>
</g>
<!-- Node15 -->
<g id="node16" class="node">
<title>Node15</title>
<g id="a_node16"><a xlink:href="swdsm_8cpp_aff9ea7ba7f37206d933c8dc8004dbc7b.html#aff9ea7ba7f37206d933c8dc8004dbc7b" target="_top" xlink:title="Gives an index to the sharer/writer vector depending on the address. ">
<polygon fill="#ffffff" stroke="#000000" points="740.5,-319 740.5,-349 841.5,-349 841.5,-319 740.5,-319"/>
<text text-anchor="start" x="748.5" y="-337" font-family="Helvetica,sans-Serif" font-size="10.00" fill="#000000">get_classification</text>
<text text-anchor="middle" x="791" y="-326" font-family="Helvetica,sans-Serif" font-size="10.00" fill="#000000">_index</text>
</a>
</g>
</g>
<!-- Node13&#45;&gt;Node15 -->
<g id="edge16" class="edge">
<title>Node13&#45;&gt;Node15</title>
<path fill="none" stroke="#191970" d="M509.5949,-304.264C528.3385,-308.4601 554.0816,-313.7853 577,-317 628.4247,-324.2131 687.2632,-328.6103 730.2126,-331.1201"/>
<polygon fill="#191970" stroke="#191970" points="730.0416,-334.616 740.2238,-331.6879 730.438,-327.6272 730.0416,-334.616"/>
</g>
<!-- Node16 -->
<g id="node17" class="node">
<title>Node16</title>
<g id="a_node17"><a xlink:href="swdsm_8cpp_a59e4c59c2940cc3727debeeff4af1889.html#a59e4c59c2940cc3727debeeff4af1889" target="_top" xlink:title="Gets cacheindex for a given address. ">
<polygon fill="#ffffff" stroke="#000000" points="583.5,-288.5 583.5,-307.5 672.5,-307.5 672.5,-288.5 583.5,-288.5"/>
<text text-anchor="middle" x="628" y="-295.5" font-family="Helvetica,sans-Serif" font-size="10.00" fill="#000000">getCacheIndex</text>
</a>
</g>
</g>
<!-- Node13&#45;&gt;Node16 -->
<g id="edge17" class="edge">
<title>Node13&#45;&gt;Node16</title>
<path fill="none" stroke="#191970" d="M509.5952,-298C527.3815,-298 551.4296,-298 573.2071,-298"/>
<polygon fill="#191970" stroke="#191970" points="573.3492,-301.5001 583.3492,-298 573.3491,-294.5001 573.3492,-301.5001"/>
</g>
<!-- Node13&#45;&gt;Node17 -->
<g id="edge18" class="edge">
<title>Node13&#45;&gt;Node17</title>
<path fill="none" stroke="#191970" d="M485.5615,-307.8009C493.683,-336.932 521.649,-423.7693 577,-469 653.2165,-531.2812 692.5729,-526 791,-526 791,-526 791,-526 1288.5,-526 1375.66,-526 1475.8482,-526 1542.3276,-526"/>
<polygon fill="#191970" stroke="#191970" points="1542.7006,-529.5001 1552.7006,-526 1542.7005,-522.5001 1542.7006,-529.5001"/>
</g>
<!-- Node18 -->
<g id="node19" class="node">
<title>Node18</title>
<g id="a_node19"><a xlink:href="swdsm_8cpp_ab2e5fbbe4d1f44d25619f290dc37dd3e.html#ab2e5fbbe4d1f44d25619f290dc37dd3e" target="_top" xlink:title="Gives homenode for a given address. ">
<polygon fill="#ffffff" stroke="#000000" points="1084,-395.5 1084,-414.5 1173,-414.5 1173,-395.5 1084,-395.5"/>
<text text-anchor="middle" x="1128.5" y="-402.5" font-family="Helvetica,sans-Serif" font-size="10.00" fill="#000000">get_homenode</text>
</a>
</g>
</g>
<!-- Node13&#45;&gt;Node18 -->
<g id="edge20" class="edge">
<title>Node13&#45;&gt;Node18</title>
<path fill="none" stroke="#191970" d="M486.4471,-307.5274C496.1542,-332.8079 526.3581,-401.6553 577,-431 753.1429,-533.0667 837.8724,-516.5704 1034,-462 1062.553,-454.0554 1091.1032,-434.9003 1109.2289,-420.9831"/>
<polygon fill="#191970" stroke="#191970" points="1111.5718,-423.5926 1117.2439,-414.6439 1107.2293,-418.1022 1111.5718,-423.5926"/>
</g>
<!-- Node20 -->
<g id="node21" class="node">
<title>Node20</title>
<g id="a_node21"><a xlink:href="swdsm_8cpp_a974f1a03f5461bb989248cceb41cd95b.html#a974f1a03f5461bb989248cceb41cd95b" target="_top" xlink:title="Gets the offset of an address on the local nodes part of the global memory. ">
<polygon fill="#ffffff" stroke="#000000" points="1096,-163.5 1096,-182.5 1161,-182.5 1161,-163.5 1096,-163.5"/>
<text text-anchor="middle" x="1128.5" y="-170.5" font-family="Helvetica,sans-Serif" font-size="10.00" fill="#000000">get_offset</text>
</a>
</g>
</g>
<!-- Node13&#45;&gt;Node20 -->
<g id="edge22" class="edge">
<title>Node13&#45;&gt;Node20</title>
<path fill="none" stroke="#191970" d="M484.8083,-288.2563C491.0612,-257.7191 514.8907,-163.7329 577,-127 662.8084,-76.2509 971.9019,-138.007 1085.8903,-163.2163"/>
<polygon fill="#191970" stroke="#191970" points="1085.4608,-166.7064 1095.9828,-165.4659 1086.9838,-159.8741 1085.4608,-166.7064"/>
</g>
<!-- Node22 -->
<g id="node23" class="node">
<title>Node22</title>
<g id="a_node23"><a xlink:href="swdsm_8cpp_af770e3f703653ddb0967b85d88881ab7.html#af770e3f703653ddb0967b85d88881ab7" target="_top" xlink:title="Gives the ArgoDSM node id for the local process. ">
<polygon fill="#ffffff" stroke="#000000" points="769.5,-368.5 769.5,-387.5 812.5,-387.5 812.5,-368.5 769.5,-368.5"/>
<text text-anchor="middle" x="791" y="-375.5" font-family="Helvetica,sans-Serif" font-size="10.00" fill="#000000">getID</text>
</a>
</g>
</g>
<!-- Node13&#45;&gt;Node22 -->
<g id="edge24" class="edge">
<title>Node13&#45;&gt;Node22</title>
<path fill="none" stroke="#191970" d="M502.7385,-307.5802C521.4681,-316.3338 550.5985,-329.0844 577,-337 640.4678,-356.0286 717.2667,-368.2119 759.4428,-374.009"/>
<polygon fill="#191970" stroke="#191970" points="759.0133,-377.4827 769.3904,-375.3456 759.9455,-370.545 759.0133,-377.4827"/>
</g>
<!-- Node23 -->
<g id="node24" class="node">
<title>Node23</title>
<g id="a_node24"><a xlink:href="swdsm_8cpp_a28342dcd3ef83ea847f4f3a4c091ad7c.html#a28342dcd3ef83ea847f4f3a4c091ad7c" target="_top" xlink:title="Checks if something is power of 2. ">
<polygon fill="#ffffff" stroke="#000000" points="592,-250.5 592,-269.5 664,-269.5 664,-250.5 592,-250.5"/>
<text text-anchor="middle" x="628" y="-257.5" font-family="Helvetica,sans-Serif" font-size="10.00" fill="#000000">isPowerOf2</text>
</a>
</g>
</g>
<!-- Node13&#45;&gt;Node23 -->
<g id="edge25" class="edge">
<title>Node13&#45;&gt;Node23</title>
<path fill="none" stroke="#191970" d="M509.5952,-291.0302C529.7691,-285.7433 557.9987,-278.3452 581.8339,-272.0987"/>
<polygon fill="#191970" stroke="#191970" points="582.9575,-275.4225 591.7436,-269.5017 581.1829,-268.6512 582.9575,-275.4225"/>
</g>
<!-- Node24 -->
<g id="node25" class="node">
<title>Node24</title>
<g id="a_node25"><a xlink:href="swdsm_8cpp_a97adb774a1a5a7a3505416a171c570e9.html#a97adb774a1a5a7a3505416a171c570e9" target="_top" xlink:title="load into cache helper function ">
<polygon fill="#ffffff" stroke="#000000" points="577,-174.5 577,-193.5 679,-193.5 679,-174.5 577,-174.5"/>
<text text-anchor="middle" x="628" y="-181.5" font-family="Helvetica,sans-Serif" font-size="10.00" fill="#000000">load_cache_entry</text>
</a>
</g>
</g>
<!-- Node13&#45;&gt;Node24 -->
<g id="edge26" class="edge">
<title>Node13&#45;&gt;Node24</title>
<path fill="none" stroke="#191970" d="M490.2173,-288.281C504.705,-269.3891 539.193,-227.4285 577,-203 579.9872,-201.0699 583.1986,-199.2965 586.5035,-197.6757"/>
<polygon fill="#191970" stroke="#191970" points="588.219,-200.7445 595.9572,-193.5077 585.3951,-194.3393 588.219,-200.7445"/>
</g>
<!-- Node25 -->
<g id="node26" class="node">
<title>Node25</title>
<g id="a_node26"><a xlink:href="classwrite__buffer_a23b0dbc463111cacbbf83b267e76ac9f.html#a23b0dbc463111cacbbf83b267e76ac9f" target="_top" xlink:title="Adds a new element to the write buffer. ">
<polygon fill="#ffffff" stroke="#000000" points="578.5,-212.5 578.5,-231.5 677.5,-231.5 677.5,-212.5 578.5,-212.5"/>
<text text-anchor="middle" x="628" y="-219.5" font-family="Helvetica,sans-Serif" font-size="10.00" fill="#000000">write_buffer::add</text>
</a>
</g>
</g>
<!-- Node13&#45;&gt;Node25 -->
<g id="edge27" class="edge">
<title>Node13&#45;&gt;Node25</title>
<path fill="none" stroke="#191970" d="M496.8642,-288.4471C514.8016,-276.3599 547.2817,-255.3871 577,-241 581.13,-239.0006 585.5283,-237.0761 589.9446,-235.2699"/>
<polygon fill="#191970" stroke="#191970" points="591.5017,-238.4193 599.5439,-231.522 588.9557,-231.8987 591.5017,-238.4193"/>
</g>
<!-- Node17&#45;&gt;Node8 -->
<g id="edge19" class="edge">
<title>Node17&#45;&gt;Node8</title>
<path fill="none" stroke="#191970" d="M1623.2676,-510.7031C1647.9042,-455.0165 1732.9422,-262.8037 1763.2039,-194.4025"/>
<polygon fill="#191970" stroke="#191970" points="1766.4124,-195.801 1767.2576,-185.2399 1760.0109,-192.9688 1766.4124,-195.801"/>
</g>
<!-- Node19 -->
<g id="node20" class="node">
<title>Node19</title>
<g id="a_node20"><a xlink:href="classargo_1_1data__distribution_1_1global__ptr_ac7d651586337d08cda18ef26ffcd34a0.html#ac7d651586337d08cda18ef26ffcd34a0" target="_top" xlink:title="return the home node of the value pointed to ">
<polygon fill="#ffffff" stroke="#000000" points="1225,-390 1225,-420 1352,-420 1352,-390 1225,-390"/>
<text text-anchor="start" x="1233" y="-408" font-family="Helvetica,sans-Serif" font-size="10.00" fill="#000000">argo::data_distribution</text>
<text text-anchor="middle" x="1288.5" y="-397" font-family="Helvetica,sans-Serif" font-size="10.00" fill="#000000">::global_ptr::node</text>
</a>
</g>
</g>
<!-- Node18&#45;&gt;Node19 -->
<g id="edge21" class="edge">
<title>Node18&#45;&gt;Node19</title>
<path fill="none" stroke="#191970" d="M1173.0689,-405C1185.9412,-405 1200.3472,-405 1214.5013,-405"/>
<polygon fill="#191970" stroke="#191970" points="1214.7376,-408.5001 1224.7375,-405 1214.7375,-401.5001 1214.7376,-408.5001"/>
</g>
<!-- Node21 -->
<g id="node22" class="node">
<title>Node21</title>
<g id="a_node22"><a xlink:href="classargo_1_1data__distribution_1_1global__ptr_ad8c21c408fa2b926cfd9acfd87e8e4e6.html#ad8c21c408fa2b926cfd9acfd87e8e4e6" target="_top" xlink:title="return the offset on the home node&#39;s local memory share ">
<polygon fill="#ffffff" stroke="#000000" points="1225,-158 1225,-188 1352,-188 1352,-158 1225,-158"/>
<text text-anchor="start" x="1233" y="-176" font-family="Helvetica,sans-Serif" font-size="10.00" fill="#000000">argo::data_distribution</text>
<text text-anchor="middle" x="1288.5" y="-165" font-family="Helvetica,sans-Serif" font-size="10.00" fill="#000000">::global_ptr::offset</text>
</a>
</g>
</g>
<!-- Node20&#45;&gt;Node21 -->
<g id="edge23" class="edge">
<title>Node20&#45;&gt;Node21</title>
<path fill="none" stroke="#191970" d="M1161.2645,-173C1176.764,-173 1195.9491,-173 1214.6797,-173"/>
<polygon fill="#191970" stroke="#191970" points="1214.7106,-176.5001 1224.7106,-173 1214.7105,-169.5001 1214.7106,-176.5001"/>
</g>
<!-- Node26 -->
<g id="node27" class="node">
<title>Node26</title>
<g id="a_node27"><a xlink:href="classwrite__buffer_a6103a2e16740ac4064c5936dbe5ea06d.html#a6103a2e16740ac4064c5936dbe5ea06d" target="_top" xlink:title="Check if val exists in the buffer. ">
<polygon fill="#ffffff" stroke="#000000" points="742,-193.5 742,-212.5 840,-212.5 840,-193.5 742,-193.5"/>
<text text-anchor="middle" x="791" y="-200.5" font-family="Helvetica,sans-Serif" font-size="10.00" fill="#000000">write_buffer::has</text>
</a>
</g>
</g>
<!-- Node25&#45;&gt;Node26 -->
<g id="edge28" class="edge">
<title>Node25&#45;&gt;Node26</title>
<path fill="none" stroke="#191970" d="M677.7911,-216.1961C694.7743,-214.2165 713.9338,-211.9832 731.5958,-209.9244"/>
<polygon fill="#191970" stroke="#191970" points="732.2666,-213.37 741.7941,-208.7357 731.4561,-206.4171 732.2666,-213.37"/>
</g>
<!-- Node27 -->
<g id="node28" class="node">
<title>Node27</title>
<g id="a_node28"><a xlink:href="classwrite__buffer_aec0c6161708f29935031583759393cfe.html#aec0c6161708f29935031583759393cfe" target="_top" xlink:title="Get the size of the buffer. ">
<polygon fill="#ffffff" stroke="#000000" points="740.5,-231.5 740.5,-250.5 841.5,-250.5 841.5,-231.5 740.5,-231.5"/>
<text text-anchor="middle" x="791" y="-238.5" font-family="Helvetica,sans-Serif" font-size="10.00" fill="#000000">write_buffer::size</text>
</a>
</g>
</g>
<!-- Node25&#45;&gt;Node27 -->
<g id="edge29" class="edge">
<title>Node25&#45;&gt;Node27</title>
<path fill="none" stroke="#191970" d="M677.7911,-227.8039C694.3829,-229.7379 713.052,-231.914 730.3726,-233.933"/>
<polygon fill="#191970" stroke="#191970" points="730.0509,-237.4191 740.3889,-235.1005 730.8614,-230.4662 730.0509,-237.4191"/>
</g>
<!-- Node28 -->
<g id="node29" class="node">
<title>Node28</title>
<g id="a_node29"><a xlink:href="classwrite__buffer_aa6a1c2c3aa3a7cde744bbca3b14f599a.html#aa6a1c2c3aa3a7cde744bbca3b14f599a" target="_top" xlink:title="Flushes first _write_back_size elements of the ArgoDSM write buffer to memory. ">
<polygon fill="#ffffff" stroke="#000000" points="739,-270 739,-300 843,-300 843,-270 739,-270"/>
<text text-anchor="start" x="747" y="-288" font-family="Helvetica,sans-Serif" font-size="10.00" fill="#000000">write_buffer::flush</text>
<text text-anchor="middle" x="791" y="-277" font-family="Helvetica,sans-Serif" font-size="10.00" fill="#000000">_partial</text>
</a>
</g>
</g>
<!-- Node25&#45;&gt;Node28 -->
<g id="edge30" class="edge">
<title>Node25&#45;&gt;Node28</title>
<path fill="none" stroke="#191970" d="M655.5245,-231.515C663.2047,-234.3689 671.4979,-237.6397 679,-241 695.511,-248.3956 698.3485,-252.9263 715,-260 720.3234,-262.2615 725.9259,-264.4487 731.5757,-266.5259"/>
<polygon fill="#191970" stroke="#191970" points="730.4931,-269.8556 741.0877,-269.9118 732.8405,-263.261 730.4931,-269.8556"/>
</g>
<!-- Node36 -->
<g id="node37" class="node">
<title>Node36</title>
<g id="a_node37"><a xlink:href="classwrite__buffer_ae51b3a3d02d35cc4f280690b6860d20f.html#ae51b3a3d02d35cc4f280690b6860d20f" target="_top" xlink:title="Constructs a new element and emplaces it at the back of the buffer. ">
<polygon fill="#ffffff" stroke="#000000" points="715,-155.5 715,-174.5 867,-174.5 867,-155.5 715,-155.5"/>
<text text-anchor="middle" x="791" y="-162.5" font-family="Helvetica,sans-Serif" font-size="10.00" fill="#000000">write_buffer::emplace_back</text>
</a>
</g>
</g>
<!-- Node25&#45;&gt;Node36 -->
<g id="edge44" class="edge">
<title>Node25&#45;&gt;Node36</title>
<path fill="none" stroke="#191970" d="M655.5245,-212.485C663.2047,-209.6311 671.4979,-206.3603 679,-203 695.511,-195.6044 698.1021,-190.4629 715,-184 721.4012,-181.5518 728.227,-179.3312 735.0623,-177.3435"/>
<polygon fill="#191970" stroke="#191970" points="736.3226,-180.6268 745.0352,-174.5985 734.4649,-173.8778 736.3226,-180.6268"/>
</g>
<!-- Node28&#45;&gt;Node11 -->
<g id="edge43" class="edge">
<title>Node28&#45;&gt;Node11</title>
<path fill="none" stroke="#191970" d="M843.2958,-272.0365C867.6342,-266.0034 896.3995,-258.8728 920.2172,-252.9687"/>
<polygon fill="#191970" stroke="#191970" points="921.2304,-256.3236 930.0945,-250.5202 919.5461,-249.5292 921.2304,-256.3236"/>
</g>
<!-- Node29 -->
<g id="node30" class="node">
<title>Node29</title>
<g id="a_node30"><a xlink:href="classwrite__buffer_a9e8cf81e623c4bb67f687379f8709a53.html#a9e8cf81e623c4bb67f687379f8709a53" target="_top" xlink:title="Sorts the first _write_back_size elements by home node id in ascending order. ">
<polygon fill="#ffffff" stroke="#000000" points="918.5,-270 918.5,-300 1018.5,-300 1018.5,-270 918.5,-270"/>
<text text-anchor="start" x="926.5" y="-288" font-family="Helvetica,sans-Serif" font-size="10.00" fill="#000000">write_buffer::sort</text>
<text text-anchor="middle" x="968.5" y="-277" font-family="Helvetica,sans-Serif" font-size="10.00" fill="#000000">_first</text>
</a>
</g>
</g>
<!-- Node28&#45;&gt;Node29 -->
<g id="edge31" class="edge">
<title>Node28&#45;&gt;Node29</title>
<path fill="none" stroke="#191970" d="M843.2958,-285C863.6843,-285 887.1795,-285 908.2702,-285"/>
<polygon fill="#191970" stroke="#191970" points="908.4066,-288.5001 918.4065,-285 908.4065,-281.5001 908.4066,-288.5001"/>
</g>
<!-- Node34 -->
<g id="node35" class="node">
<title>Node34</title>
<g id="a_node35"><a xlink:href="classwrite__buffer_ae065d3ee59035ad508eb8ce6670d2c89.html#ae065d3ee59035ad508eb8ce6670d2c89" target="_top" xlink:title="Removes the front element from the buffer and returns it. ">
<polygon fill="#ffffff" stroke="#000000" points="919,-357.5 919,-376.5 1018,-376.5 1018,-357.5 919,-357.5"/>
<text text-anchor="middle" x="968.5" y="-364.5" font-family="Helvetica,sans-Serif" font-size="10.00" fill="#000000">write_buffer::pop</text>
</a>
</g>
</g>
<!-- Node28&#45;&gt;Node34 -->
<g id="edge39" class="edge">
<title>Node28&#45;&gt;Node34</title>
<path fill="none" stroke="#191970" d="M843.308,-297.5375C851.5651,-300.6238 859.7574,-304.4022 867,-309 886.9151,-321.6425 882.9374,-335.5929 903,-348 906.4144,-350.1115 910.0734,-351.9971 913.8523,-353.6794"/>
<polygon fill="#191970" stroke="#191970" points="912.8347,-357.0404 923.4214,-357.4556 915.4043,-350.5291 912.8347,-357.0404"/>
</g>
<!-- Node35 -->
<g id="node36" class="node">
<title>Node35</title>
<g id="a_node36"><a xlink:href="swdsm_8cpp_a3b6a6b2b244edb9faa79814ce8e5e9f5.html#a3b6a6b2b244edb9faa79814ce8e5e9f5" target="_top" xlink:title="stores a page remotely &#45; only writing back what has been written locally since last synchronization p...">
<polygon fill="#ffffff" stroke="#000000" points="925.5,-319.5 925.5,-338.5 1011.5,-338.5 1011.5,-319.5 925.5,-319.5"/>
<text text-anchor="middle" x="968.5" y="-326.5" font-family="Helvetica,sans-Serif" font-size="10.00" fill="#000000">storepageDIFF</text>
</a>
</g>
</g>
<!-- Node28&#45;&gt;Node35 -->
<g id="edge40" class="edge">
<title>Node28&#45;&gt;Node35</title>
<path fill="none" stroke="#191970" d="M843.2958,-297.9635C867.6342,-303.9966 896.3995,-311.1272 920.2172,-317.0313"/>
<polygon fill="#191970" stroke="#191970" points="919.5461,-320.4708 930.0945,-319.4798 921.2304,-313.6764 919.5461,-320.4708"/>
</g>
<!-- Node30 -->
<g id="node31" class="node">
<title>Node30</title>
<g id="a_node31"><a xlink:href="namespaceargo_a48dc17c94275df10a8e7f3959cbf0191.html#a48dc17c94275df10a8e7f3959cbf0191" target="_top" xlink:title="Get the ArgoDSM node id where addr is physically backed. ">
<polygon fill="#ffffff" stroke="#000000" points="1070,-275.5 1070,-294.5 1187,-294.5 1187,-275.5 1070,-275.5"/>
<text text-anchor="middle" x="1128.5" y="-282.5" font-family="Helvetica,sans-Serif" font-size="10.00" fill="#000000">argo::get_homenode</text>
</a>
</g>
</g>
<!-- Node29&#45;&gt;Node30 -->
<g id="edge32" class="edge">
<title>Node29&#45;&gt;Node30</title>
<path fill="none" stroke="#191970" d="M1018.686,-285C1031.6124,-285 1045.7506,-285 1059.452,-285"/>
<polygon fill="#191970" stroke="#191970" points="1059.8172,-288.5001 1069.8171,-285 1059.8171,-281.5001 1059.8172,-288.5001"/>
</g>
<!-- Node31 -->
<g id="node32" class="node">
<title>Node31</title>
<g id="a_node32"><a xlink:href="classargo_1_1data__distribution_1_1global__ptr_a3e2cdd4d323ef91174615e27ab94e342.html#a3e2cdd4d323ef91174615e27ab94e342" target="_top" xlink:title="return the home node of the value pointed to, or a default value if the page has not yet been first&#45;t...">
<polygon fill="#ffffff" stroke="#000000" points="1223,-226 1223,-256 1354,-256 1354,-226 1223,-226"/>
<text text-anchor="start" x="1231" y="-244" font-family="Helvetica,sans-Serif" font-size="10.00" fill="#000000">argo::data_distribution</text>
<text text-anchor="middle" x="1288.5" y="-233" font-family="Helvetica,sans-Serif" font-size="10.00" fill="#000000">::global_ptr::peek_node</text>
</a>
</g>
</g>
<!-- Node30&#45;&gt;Node31 -->
<g id="edge33" class="edge">
<title>Node30&#45;&gt;Node31</title>
<path fill="none" stroke="#191970" d="M1163.2176,-275.4527C1180.9905,-270.5651 1203.2093,-264.4549 1223.9805,-258.7429"/>
<polygon fill="#191970" stroke="#191970" points="1225.0029,-262.0917 1233.7169,-256.0654 1223.1467,-255.3423 1225.0029,-262.0917"/>
</g>
<!-- Node32 -->
<g id="node33" class="node">
<title>Node32</title>
<g id="a_node33"><a xlink:href="namespaceargo_a2f35b6b6e0af76fb8fb47f2031d6f58e.html#a2f35b6b6e0af76fb8fb47f2031d6f58e" target="_top" xlink:title="Get the block size of the current allocation policy. ">
<polygon fill="#ffffff" stroke="#000000" points="1230.5,-275.5 1230.5,-294.5 1346.5,-294.5 1346.5,-275.5 1230.5,-275.5"/>
<text text-anchor="middle" x="1288.5" y="-282.5" font-family="Helvetica,sans-Serif" font-size="10.00" fill="#000000">argo::get_block_size</text>
</a>
</g>
</g>
<!-- Node30&#45;&gt;Node32 -->
<g id="edge34" class="edge">
<title>Node30&#45;&gt;Node32</title>
<path fill="none" stroke="#191970" d="M1187.1696,-285C1197.9585,-285 1209.3057,-285 1220.3452,-285"/>
<polygon fill="#191970" stroke="#191970" points="1220.3722,-288.5001 1230.3722,-285 1220.3721,-281.5001 1220.3722,-288.5001"/>
</g>
<!-- Node33 -->
<g id="node34" class="node">
<title>Node33</title>
<g id="a_node34"><a xlink:href="namespaceargo_1_1data__distribution_a2a70ed49553953957c3a28aa755d7ac8.html#a2a70ed49553953957c3a28aa755d7ac8" target="_top" xlink:title="based on the chosen policy, gets the policy block size ">
<polygon fill="#ffffff" stroke="#000000" points="1390,-259 1390,-289 1517,-289 1517,-259 1390,-259"/>
<text text-anchor="start" x="1398" y="-277" font-family="Helvetica,sans-Serif" font-size="10.00" fill="#000000">argo::data_distribution</text>
<text text-anchor="middle" x="1453.5" y="-266" font-family="Helvetica,sans-Serif" font-size="10.00" fill="#000000">::policy_block_size</text>
</a>
</g>
</g>
<!-- Node32&#45;&gt;Node33 -->
<g id="edge35" class="edge">
<title>Node32&#45;&gt;Node33</title>
<path fill="none" stroke="#191970" d="M1346.6728,-281.1218C1357.3993,-280.4067 1368.7284,-279.6514 1379.841,-278.9106"/>
<polygon fill="#191970" stroke="#191970" points="1380.2171,-282.3934 1389.9621,-278.2359 1379.7514,-275.4089 1380.2171,-282.3934"/>
</g>
<!-- Node33&#45;&gt;Node7 -->
<g id="edge37" class="edge">
<title>Node33&#45;&gt;Node7</title>
<path fill="none" stroke="#191970" d="M1474.0477,-258.8271C1493.8824,-244.4036 1524.9508,-222.3922 1553,-205 1561.2577,-199.8797 1570.3087,-194.6652 1578.9237,-189.8788"/>
<polygon fill="#191970" stroke="#191970" points="1580.6088,-192.9466 1587.6922,-185.0678 1577.2416,-186.8096 1580.6088,-192.9466"/>
</g>
<!-- Node33&#45;&gt;Node9 -->
<g id="edge36" class="edge">
<title>Node33&#45;&gt;Node9</title>
<path fill="none" stroke="#191970" d="M1509.1395,-258.9808C1522.5721,-255.3548 1537.0503,-251.4466 1550.8922,-247.7101"/>
<polygon fill="#191970" stroke="#191970" points="1552.0925,-251.0114 1560.8347,-245.0262 1550.2681,-244.2533 1552.0925,-251.0114"/>
</g>
<!-- Node33&#45;&gt;Node17 -->
<g id="edge38" class="edge">
<title>Node33&#45;&gt;Node17</title>
<path fill="none" stroke="#191970" d="M1463.2083,-289.0091C1490.4926,-331.191 1568.022,-451.0523 1601.1668,-502.2947"/>
<polygon fill="#191970" stroke="#191970" points="1598.2665,-504.2553 1606.6365,-510.751 1604.1442,-500.4534 1598.2665,-504.2553"/>
</g>
<!-- Node35&#45;&gt;Node18 -->
<g id="edge41" class="edge">
<title>Node35&#45;&gt;Node18</title>
<path fill="none" stroke="#191970" d="M1007.5372,-338.5159C1016.3943,-341.1693 1025.6478,-344.3447 1034,-348 1060.2461,-359.4867 1088.0727,-377.0018 1106.6788,-389.5838"/>
<polygon fill="#191970" stroke="#191970" points="1104.8002,-392.5394 1115.0247,-395.3161 1108.7633,-386.7694 1104.8002,-392.5394"/>
</g>
<!-- Node35&#45;&gt;Node20 -->
<g id="edge42" class="edge">
<title>Node35&#45;&gt;Node20</title>
<path fill="none" stroke="#191970" d="M1011.678,-320.312C1019.5566,-317.5136 1027.3707,-313.833 1034,-309 1045.3034,-300.7595 1094.0322,-226.4543 1116.7532,-191.2903"/>
<polygon fill="#191970" stroke="#191970" points="1119.7006,-193.1778 1122.176,-182.8761 1113.8167,-189.3856 1119.7006,-193.1778"/>
</g>
<!-- Node37&#45;&gt;Node17 -->
<g id="edge47" class="edge">
<title>Node37&#45;&gt;Node17</title>
<path fill="none" stroke="#191970" d="M344.3718,-516.6319C389.6128,-540.7837 515.3903,-602 628,-602 628,-602 628,-602 1288.5,-602 1390.0371,-602 1504.7976,-567.008 1568.0864,-544.5112"/>
<polygon fill="#191970" stroke="#191970" points="1569.5699,-547.697 1577.792,-541.0152 1567.1976,-541.1113 1569.5699,-547.697"/>
</g>
<!-- Node38 -->
<g id="node39" class="node">
<title>Node38</title>
<g id="a_node39"><a xlink:href="swdsm_8cpp_ad3f5bdae81c60ac704dda7372792427d.html#ad3f5bdae81c60ac704dda7372792427d" target="_top" xlink:title="Global barrier for ArgoDSM &#45; needs to be called by every thread in the system that need coherent view...">
<polygon fill="#ffffff" stroke="#000000" points="425,-497.5 425,-516.5 541,-516.5 541,-497.5 425,-497.5"/>
<text text-anchor="middle" x="483" y="-504.5" font-family="Helvetica,sans-Serif" font-size="10.00" fill="#000000">swdsm_argo_barrier</text>
</a>
</g>
</g>
<!-- Node37&#45;&gt;Node38 -->
<g id="edge48" class="edge">
<title>Node37&#45;&gt;Node38</title>
<path fill="none" stroke="#191970" d="M389.1036,-507C397.5001,-507 406.1533,-507 414.6512,-507"/>
<polygon fill="#191970" stroke="#191970" points="414.9123,-510.5001 424.9122,-507 414.9122,-503.5001 414.9123,-510.5001"/>
</g>
<!-- Node44 -->
<g id="node45" class="node">
<title>Node44</title>
<g id="a_node45"><a xlink:href="swdsm_8cpp_a3ec1931e5ea88671ed6be9885968b327.html#a3ec1931e5ea88671ed6be9885968b327" target="_top" xlink:title="Clears out all statistics. ">
<polygon fill="#ffffff" stroke="#000000" points="440,-459.5 440,-478.5 526,-478.5 526,-459.5 440,-459.5"/>
<text text-anchor="middle" x="483" y="-466.5" font-family="Helvetica,sans-Serif" font-size="10.00" fill="#000000">clearStatistics</text>
</a>
</g>
</g>
<!-- Node37&#45;&gt;Node44 -->
<g id="edge61" class="edge">
<title>Node37&#45;&gt;Node44</title>
<path fill="none" stroke="#191970" d="M366.3654,-497.411C386.9513,-492.3965 412.3405,-486.2119 434.169,-480.8947"/>
<polygon fill="#191970" stroke="#191970" points="435.0302,-484.2874 443.9177,-478.5201 433.3734,-477.4863 435.0302,-484.2874"/>
</g>
<!-- Node39 -->
<g id="node40" class="node">
<title>Node39</title>
<g id="a_node40"><a xlink:href="swdsm_8cpp_ac99d42ffcf7c78281cb3a6b286ce3a5e.html#ac99d42ffcf7c78281cb3a6b286ce3a5e" target="_top" xlink:title="Gives number of ArgoDSM nodes. ">
<polygon fill="#ffffff" stroke="#000000" points="581,-554.5 581,-573.5 675,-573.5 675,-554.5 581,-554.5"/>
<text text-anchor="middle" x="628" y="-561.5" font-family="Helvetica,sans-Serif" font-size="10.00" fill="#000000">argo_get_nodes</text>
</a>
</g>
</g>
<!-- Node38&#45;&gt;Node39 -->
<g id="edge49" class="edge">
<title>Node38&#45;&gt;Node39</title>
<path fill="none" stroke="#191970" d="M507.2697,-516.5405C531.1084,-525.9116 567.679,-540.2876 594.3251,-550.7623"/>
<polygon fill="#191970" stroke="#191970" points="593.0638,-554.0271 603.6511,-554.4284 595.6248,-547.5124 593.0638,-554.0271"/>
</g>
<!-- Node40 -->
<g id="node41" class="node">
<title>Node40</title>
<g id="a_node41"><a xlink:href="classwrite__buffer_aca2e330e17a38c1cc8d8c60701ce9dd7.html#aca2e330e17a38c1cc8d8c60701ce9dd7" target="_top" xlink:title="Flushes the ArgoDSM write buffer to memory. ">
<polygon fill="#ffffff" stroke="#000000" points="739,-406.5 739,-425.5 843,-425.5 843,-406.5 739,-406.5"/>
<text text-anchor="middle" x="791" y="-413.5" font-family="Helvetica,sans-Serif" font-size="10.00" fill="#000000">write_buffer::flush</text>
</a>
</g>
</g>
<!-- Node38&#45;&gt;Node40 -->
<g id="edge50" class="edge">
<title>Node38&#45;&gt;Node40</title>
<path fill="none" stroke="#191970" d="M515.3793,-497.4334C571.4137,-480.8778 686.4289,-446.896 748.7018,-428.4972"/>
<polygon fill="#191970" stroke="#191970" points="749.994,-431.7651 758.5924,-425.575 748.0105,-425.0519 749.994,-431.7651"/>
</g>
<!-- Node43 -->
<g id="node44" class="node">
<title>Node43</title>
<g id="a_node44"><a xlink:href="swdsm_8cpp_aa7c3a2de6bbafdaf68fe6ceb6110ab97.html#aa7c3a2de6bbafdaf68fe6ceb6110ab97" target="_top" xlink:title="Self&#45;Invalidates all memory that has potential writers. ">
<polygon fill="#ffffff" stroke="#000000" points="579,-402.5 579,-421.5 677,-421.5 677,-402.5 579,-402.5"/>
<text text-anchor="middle" x="628" y="-409.5" font-family="Helvetica,sans-Serif" font-size="10.00" fill="#000000">self_invalidation</text>
</a>
</g>
</g>
<!-- Node38&#45;&gt;Node43 -->
<g id="edge57" class="edge">
<title>Node38&#45;&gt;Node43</title>
<path fill="none" stroke="#191970" d="M523.672,-497.4493C529.8142,-494.9664 535.8191,-491.8647 541,-488 563.5309,-471.1928 555.5471,-454.1631 577,-436 581.4973,-432.1923 586.7008,-428.848 592.0294,-425.9598"/>
<polygon fill="#191970" stroke="#191970" points="593.5929,-429.0913 601.0126,-421.5283 590.496,-422.8136 593.5929,-429.0913"/>
</g>
<!-- Node40&#45;&gt;Node11 -->
<g id="edge56" class="edge">
<title>Node40&#45;&gt;Node11</title>
<path fill="none" stroke="#191970" d="M843.1181,-410.8265C851.9753,-407.8878 860.4214,-403.5003 867,-397 911.7826,-352.751 859.0515,-305.0776 903,-260 904.4258,-258.5376 905.9568,-257.186 907.5725,-255.9369"/>
<polygon fill="#191970" stroke="#191970" points="909.6349,-258.7753 916.26,-250.5074 905.925,-252.8392 909.6349,-258.7753"/>
</g>
<!-- Node40&#45;&gt;Node34 -->
<g id="edge54" class="edge">
<title>Node40&#45;&gt;Node34</title>
<path fill="none" stroke="#191970" d="M830.9395,-406.4258C842.5971,-403.5204 855.3365,-400.2375 867,-397 883.1207,-392.5252 886.9656,-390.775 903,-386 910.259,-383.8383 917.9801,-381.5705 925.479,-379.3847"/>
<polygon fill="#191970" stroke="#191970" points="926.5253,-382.7256 935.1516,-376.5743 924.5721,-376.0035 926.5253,-382.7256"/>
</g>
<!-- Node40&#45;&gt;Node35 -->
<g id="edge55" class="edge">
<title>Node40&#45;&gt;Node35</title>
<path fill="none" stroke="#191970" d="M843.3259,-408.0272C851.6697,-405.35 859.8853,-401.7747 867,-397 889.4388,-381.9411 880.8463,-363.4753 903,-348 906.9767,-345.2221 911.3581,-342.8468 915.9128,-340.8162"/>
<polygon fill="#191970" stroke="#191970" points="917.3801,-344.001 925.4312,-337.114 914.8426,-337.4771 917.3801,-344.001"/>
</g>
<!-- Node41 -->
<g id="node42" class="node">
<title>Node41</title>
<g id="a_node42"><a xlink:href="classwrite__buffer_ab70cc0d6ca3591094aae489dbc3feaa5.html#ab70cc0d6ca3591094aae489dbc3feaa5" target="_top" xlink:title="Check if the write buffer is empty. ">
<polygon fill="#ffffff" stroke="#000000" points="912,-433.5 912,-452.5 1025,-452.5 1025,-433.5 912,-433.5"/>
<text text-anchor="middle" x="968.5" y="-440.5" font-family="Helvetica,sans-Serif" font-size="10.00" fill="#000000">write_buffer::empty</text>
</a>
</g>
</g>
<!-- Node40&#45;&gt;Node41 -->
<g id="edge51" class="edge">
<title>Node40&#45;&gt;Node41</title>
<path fill="none" stroke="#191970" d="M843.2958,-423.9549C861.6702,-426.7498 882.5678,-429.9286 901.9548,-432.8776"/>
<polygon fill="#191970" stroke="#191970" points="901.5212,-436.3519 911.9338,-434.3956 902.5739,-429.4315 901.5212,-436.3519"/>
</g>
<!-- Node42 -->
<g id="node43" class="node">
<title>Node42</title>
<g id="a_node43"><a xlink:href="classwrite__buffer_aa2325346aceb3e7ffdbdbdc8e8682147.html#aa2325346aceb3e7ffdbdbdc8e8682147" target="_top" xlink:title="Sorts all elements by home node id in ascending order. ">
<polygon fill="#ffffff" stroke="#000000" points="918.5,-395.5 918.5,-414.5 1018.5,-414.5 1018.5,-395.5 918.5,-395.5"/>
<text text-anchor="middle" x="968.5" y="-402.5" font-family="Helvetica,sans-Serif" font-size="10.00" fill="#000000">write_buffer::sort</text>
</a>
</g>
</g>
<!-- Node40&#45;&gt;Node42 -->
<g id="edge52" class="edge">
<title>Node40&#45;&gt;Node42</title>
<path fill="none" stroke="#191970" d="M843.2958,-412.7591C863.6843,-411.4956 887.1795,-410.0396 908.2702,-408.7326"/>
<polygon fill="#191970" stroke="#191970" points="908.6422,-412.2163 918.4065,-408.1044 908.2092,-405.2297 908.6422,-412.2163"/>
</g>
<!-- Node42&#45;&gt;Node30 -->
<g id="edge53" class="edge">
<title>Node42&#45;&gt;Node30</title>
<path fill="none" stroke="#191970" d="M1013.5563,-395.4193C1020.6756,-392.9345 1027.7435,-389.84 1034,-386 1069.4353,-364.2509 1100.166,-325.7198 1116.3463,-303.0566"/>
<polygon fill="#191970" stroke="#191970" points="1119.3382,-304.8848 1122.1798,-294.6782 1113.5934,-300.885 1119.3382,-304.8848"/>
</g>
<!-- Node43&#45;&gt;Node15 -->
<g id="edge59" class="edge">
<title>Node43&#45;&gt;Node15</title>
<path fill="none" stroke="#191970" d="M641.616,-402.3413C658.2938,-390.8385 687.7017,-371.6015 715,-359 720.0445,-356.6714 725.368,-354.4601 730.7602,-352.3863"/>
<polygon fill="#191970" stroke="#191970" points="732.3175,-355.5429 740.495,-348.8065 729.9015,-348.973 732.3175,-355.5429"/>
</g>
<!-- Node43&#45;&gt;Node22 -->
<g id="edge58" class="edge">
<title>Node43&#45;&gt;Node22</title>
<path fill="none" stroke="#191970" d="M673.8384,-402.4386C701.0705,-396.7583 734.9196,-389.6978 759.2218,-384.6286"/>
<polygon fill="#191970" stroke="#191970" points="760.2566,-387.9882 769.3312,-382.5199 758.8272,-381.1356 760.2566,-387.9882"/>
</g>
<!-- Node43&#45;&gt;Node40 -->
<g id="edge60" class="edge">
<title>Node43&#45;&gt;Node40</title>
<path fill="none" stroke="#191970" d="M677.3477,-413.211C693.4878,-413.6071 711.6314,-414.0523 728.6037,-414.4688"/>
<polygon fill="#191970" stroke="#191970" points="728.9088,-417.9772 738.9916,-414.7237 729.0805,-410.9794 728.9088,-417.9772"/>
</g>
</g>
</svg>
