<?xml version="1.0" encoding="UTF-8" standalone="no"?>
<!DOCTYPE svg PUBLIC "-//W3C//DTD SVG 1.1//EN"
 "http://www.w3.org/Graphics/SVG/1.1/DTD/svg11.dtd">
<!-- Generated by graphviz version 2.40.1 (20161225.0304)
 -->
<!-- Title: argo::backend::atomic::_load_public_owners_dir Pages: 1 -->
<svg width="273pt" height="57pt"
 viewBox="0.00 0.00 273.00 57.00" xmlns="http://www.w3.org/2000/svg" xmlns:xlink="http://www.w3.org/1999/xlink">
<g id="graph0" class="graph" transform="scale(1 1) rotate(0) translate(4 53)">
<title>argo::backend::atomic::_load_public_owners_dir</title>
<polygon fill="#ffffff" stroke="transparent" points="-4,4 -4,-53 269,-53 269,4 -4,4"/>
<!-- Node0 -->
<g id="node1" class="node">
<title>Node0</title>
<polygon fill="#bfbfbf" stroke="#000000" points="0,-.5 0,-30.5 142,-30.5 142,-.5 0,-.5"/>
<text text-anchor="start" x="8" y="-18.5" font-family="Helvetica,sans-Serif" font-size="10.00" fill="#000000">argo::backend::atomic</text>
<text text-anchor="middle" x="71" y="-7.5" font-family="Helvetica,sans-Serif" font-size="10.00" fill="#000000">::_load_public_owners_dir</text>
</g>
<!-- Node0&#45;&gt;Node0 -->
<g id="edge1" class="edge">
<title>Node0&#45;&gt;Node0</title>
<path fill="none" stroke="#191970" d="M44.8594,-30.659C38.556,-40.0566 47.2695,-49 71,-49 85.4608,-49 94.3452,-45.679 97.6532,-40.9579"/>
<polygon fill="#191970" stroke="#191970" points="101.1335,-40.4726 97.1406,-30.659 94.1421,-40.8207 101.1335,-40.4726"/>
</g>
<!-- Node1 -->
<g id="node2" class="node">
<title>Node1</title>
<g id="a_node2"><a xlink:href="mpi_8cpp_a42bc863264a399b805b95e0fc53a9fed.html#a42bc863264a399b805b95e0fc53a9fed" target="_top" xlink:title="Returns an MPI integer type that exactly matches in size the argument given. ">
<polygon fill="#ffffff" stroke="#000000" points="178,-6 178,-25 265,-25 265,-6 178,-6"/>
<text text-anchor="middle" x="221.5" y="-13" font-family="Helvetica,sans-Serif" font-size="10.00" fill="#000000">fitting_mpi_int</text>
</a>
</g>
</g>
<!-- Node0&#45;&gt;Node1 -->
<g id="edge2" class="edge">
<title>Node0&#45;&gt;Node1</title>
<path fill="none" stroke="#191970" d="M142.2834,-15.5C150.8307,-15.5 159.4464,-15.5 167.6878,-15.5"/>
<polygon fill="#191970" stroke="#191970" points="167.8934,-19.0001 177.8934,-15.5 167.8933,-12.0001 167.8934,-19.0001"/>
</g>
</g>
</svg>
