<?xml version="1.0" encoding="UTF-8" standalone="no"?>
<!DOCTYPE svg PUBLIC "-//W3C//DTD SVG 1.1//EN"
 "http://www.w3.org/Graphics/SVG/1.1/DTD/svg11.dtd">
<!-- Generated by graphviz version 2.40.1 (20161225.0304)
 -->
<!-- Title: TEST_F Pages: 1 -->
<svg width="226pt" height="66pt"
 viewBox="0.00 0.00 226.00 66.00" xmlns="http://www.w3.org/2000/svg" xmlns:xlink="http://www.w3.org/1999/xlink">
<g id="graph0" class="graph" transform="scale(1 1) rotate(0) translate(4 62)">
<title>TEST_F</title>
<polygon fill="#ffffff" stroke="transparent" points="-4,4 -4,-62 222,-62 222,4 -4,4"/>
<!-- Node0 -->
<g id="node1" class="node">
<title>Node0</title>
<polygon fill="#bfbfbf" stroke="#000000" points="0,-19.5 0,-38.5 51,-38.5 51,-19.5 0,-19.5"/>
<text text-anchor="middle" x="25.5" y="-26.5" font-family="Helvetica,sans-Serif" font-size="10.00" fill="#000000">TEST_F</text>
</g>
<!-- Node1 -->
<g id="node2" class="node">
<title>Node1</title>
<g id="a_node2"><a xlink:href="namespaceargo_a79c9492f3fd441bfa6261dffbc0f02f4.html#a79c9492f3fd441bfa6261dffbc0f02f4" target="_top" xlink:title="Number of ArgoDSM nodes being run. ">
<polygon fill="#ffffff" stroke="#000000" points="87,-38.5 87,-57.5 218,-57.5 218,-38.5 87,-38.5"/>
<text text-anchor="middle" x="152.5" y="-45.5" font-family="Helvetica,sans-Serif" font-size="10.00" fill="#000000">argo::number_of_nodes</text>
</a>
</g>
</g>
<!-- Node0&#45;&gt;Node1 -->
<g id="edge1" class="edge">
<title>Node0&#45;&gt;Node1</title>
<path fill="none" stroke="#191970" d="M51.2003,-32.8449C59.4087,-34.073 68.942,-35.4992 78.8125,-36.9759"/>
<polygon fill="#191970" stroke="#191970" points="78.3509,-40.4457 88.7587,-38.4639 79.3867,-33.5227 78.3509,-40.4457"/>
</g>
<!-- Node2 -->
<g id="node3" class="node">
<title>Node2</title>
<g id="a_node3"><a xlink:href="namespaceargo_a10bae1e1e60ff583384b937201a87c29.html#a10bae1e1e60ff583384b937201a87c29" target="_top" xlink:title="a barrier for threads ">
<polygon fill="#ffffff" stroke="#000000" points="114,-.5 114,-19.5 191,-19.5 191,-.5 114,-.5"/>
<text text-anchor="middle" x="152.5" y="-7.5" font-family="Helvetica,sans-Serif" font-size="10.00" fill="#000000">argo::barrier</text>
</a>
</g>
</g>
<!-- Node0&#45;&gt;Node2 -->
<g id="edge2" class="edge">
<title>Node0&#45;&gt;Node2</title>
<path fill="none" stroke="#191970" d="M51.2003,-25.1551C66.2966,-22.8966 85.8742,-19.9676 103.7889,-17.2875"/>
<polygon fill="#191970" stroke="#191970" points="104.4417,-20.7289 113.8138,-15.7877 103.4059,-13.8059 104.4417,-20.7289"/>
</g>
</g>
</svg>
