<?xml version="1.0" encoding="UTF-8" standalone="no"?>
<!DOCTYPE svg PUBLIC "-//W3C//DTD SVG 1.1//EN"
 "http://www.w3.org/Graphics/SVG/1.1/DTD/svg11.dtd">
<!-- Generated by graphviz version 2.40.1 (20161225.0304)
 -->
<!-- Title: argo::backend::_selective_release Pages: 1 -->
<!--zoomable 142 -->
<svg id="main" version="1.1" xmlns="http://www.w3.org/2000/svg" xmlns:xlink="http://www.w3.org/1999/xlink" xml:space="preserve" onload="init(evt)">
<style type="text/css"><![CDATA[
.edge:hover path { stroke: red; }
.edge:hover polygon { stroke: red; fill: red; }
]]></style>
<script type="text/javascript"><![CDATA[
var edges = document.getElementsByTagName('g');
if (edges && edges.length) {
  for (var i=0;i<edges.length;i++) {
    if (edges[i].id.substr(0,4)=='edge') {
      edges[i].setAttribute('class','edge');
    }
  }
}
]]></script>
        <defs>
                <circle id="rim" cx="0" cy="0" r="7"/>
                <circle id="rim2" cx="0" cy="0" r="3.5"/>
                <g id="zoomPlus">
                        <use xlink:href="#rim" fill="#404040">
                                <set attributeName="fill" to="#808080" begin="zoomplus.mouseover" end="zoomplus.mouseout"/>
                        </use>
                        <path d="M-4,0h8M0,-4v8" fill="none" stroke="white" stroke-width="1.5" pointer-events="none"/>
                </g>
                <g id="zoomMin">
                        <use xlink:href="#rim" fill="#404040">
                                <set attributeName="fill" to="#808080" begin="zoomminus.mouseover" end="zoomminus.mouseout"/>
                        </use>
                        <path d="M-4,0h8" fill="none" stroke="white" stroke-width="1.5" pointer-events="none"/>
                </g>
                <g id="dirArrow">
                        <path fill="none" stroke="white" stroke-width="1.5" d="M0,-3.0v7 M-2.5,-0.5L0,-3.0L2.5,-0.5"/>
                </g>
               <g id="resetDef">
                       <use xlink:href="#rim2" fill="#404040">
                               <set attributeName="fill" to="#808080" begin="reset.mouseover" end="reset.mouseout"/>
                       </use>
               </g>
        </defs>

<script type="text/javascript">
var viewWidth = 604;
var viewHeight = 142;
var sectionId = 'dynsection-0';
</script>
<script xlink:href="svgpan.js"/>
<svg id="graph" class="graph">
<g id="viewport">
<title>argo::backend::_selective_release</title>
<polygon fill="#ffffff" stroke="transparent" points="-4,4 -4,-138 600,-138 600,4 -4,4"/>
<!-- Node0 -->
<g id="node1" class="node">
<title>Node0</title>
<polygon fill="#bfbfbf" stroke="#000000" points="0,-52 0,-82 141,-82 141,-52 0,-52"/>
<text text-anchor="start" x="8" y="-70" font-family="Helvetica,sans-Serif" font-size="10.00" fill="#000000">argo::backend::_selective</text>
<text text-anchor="middle" x="70.5" y="-59" font-family="Helvetica,sans-Serif" font-size="10.00" fill="#000000">_release</text>
</g>
<!-- Node0&#45;&gt;Node0 -->
<g id="edge1" class="edge">
<title>Node0&#45;&gt;Node0</title>
<path fill="none" stroke="#191970" d="M40.5255,-82.159C33.2975,-91.5566 43.2891,-100.5 70.5,-100.5 87.0817,-100.5 97.2691,-97.179 101.0623,-92.4579"/>
<polygon fill="#191970" stroke="#191970" points="104.5387,-91.9433 100.4745,-82.159 97.5501,-92.3422 104.5387,-91.9433"/>
</g>
<!-- Node1 -->
<g id="node2" class="node">
<title>Node1</title>
<g id="a_node2"><a xlink:href="swdsm_8cpp_acf216cf340937a920846c9a5c1bf3b0b.html#acf216cf340937a920846c9a5c1bf3b0b" target="_top" xlink:title="Gets cacheindex for a given address. ">
<polygon fill="#ffffff" stroke="#000000" points="198,-114.5 198,-133.5 287,-133.5 287,-114.5 198,-114.5"/>
<text text-anchor="middle" x="242.5" y="-121.5" font-family="Helvetica,sans-Serif" font-size="10.00" fill="#000000">getCacheIndex</text>
</a>
</g>
</g>
<!-- Node0&#45;&gt;Node1 -->
<g id="edge2" class="edge">
<title>Node0&#45;&gt;Node1</title>
<path fill="none" stroke="#191970" d="M110.7614,-82.013C130.6077,-89.2476 154.9572,-97.8776 177,-105 183.8938,-107.2275 191.2341,-109.4756 198.4135,-111.6073"/>
<polygon fill="#191970" stroke="#191970" points="197.4663,-114.9768 208.047,-114.4289 199.434,-108.259 197.4663,-114.9768"/>
</g>
<!-- Node2 -->
<g id="node3" class="node">
<title>Node2</title>
<g id="a_node3"><a xlink:href="swdsm_8cpp_ae0f2d0961e80b2903b3f54c9e6c68658.html#ae0f2d0961e80b2903b3f54c9e6c68658" target="_top" xlink:title="stores a page remotely &#45; only writing back what has been written locally since last synchronization p...">
<polygon fill="#ffffff" stroke="#000000" points="199.5,-76.5 199.5,-95.5 285.5,-95.5 285.5,-76.5 199.5,-76.5"/>
<text text-anchor="middle" x="242.5" y="-83.5" font-family="Helvetica,sans-Serif" font-size="10.00" fill="#000000">storepageDIFF</text>
</a>
</g>
</g>
<!-- Node0&#45;&gt;Node2 -->
<g id="edge3" class="edge">
<title>Node0&#45;&gt;Node2</title>
<path fill="none" stroke="#191970" d="M141.452,-74.8377C157.3916,-76.5985 174.0431,-78.4379 189.1234,-80.1037"/>
<polygon fill="#191970" stroke="#191970" points="188.9606,-83.607 199.2845,-81.2262 189.7293,-76.6493 188.9606,-83.607"/>
</g>
<!-- Node7 -->
<g id="node8" class="node">
<title>Node7</title>
<g id="a_node8"><a xlink:href="classwrite__buffer_a1fe5684a5d07bd1418b0d66663f9bfdf.html#a1fe5684a5d07bd1418b0d66663f9bfdf" target="_top" xlink:title="If val exists in buffer, delete it. Else, do nothing. ">
<polygon fill="#ffffff" stroke="#000000" points="188.5,-38.5 188.5,-57.5 296.5,-57.5 296.5,-38.5 188.5,-38.5"/>
<text text-anchor="middle" x="242.5" y="-45.5" font-family="Helvetica,sans-Serif" font-size="10.00" fill="#000000">write_buffer::erase</text>
</a>
</g>
</g>
<!-- Node0&#45;&gt;Node7 -->
<g id="edge8" class="edge">
<title>Node0&#45;&gt;Node7</title>
<path fill="none" stroke="#191970" d="M141.452,-59.1623C153.5477,-57.8261 166.0533,-56.4447 177.9712,-55.1282"/>
<polygon fill="#191970" stroke="#191970" points="178.7129,-58.5676 188.2681,-53.9907 177.9443,-51.61 178.7129,-58.5676"/>
</g>
<!-- Node8 -->
<g id="node9" class="node">
<title>Node8</title>
<g id="a_node9"><a xlink:href="namespaceargo_a79c9492f3fd441bfa6261dffbc0f02f4.html#a79c9492f3fd441bfa6261dffbc0f02f4" target="_top" xlink:title="Number of ArgoDSM nodes being run. ">
<polygon fill="#ffffff" stroke="#000000" points="177,-.5 177,-19.5 308,-19.5 308,-.5 177,-.5"/>
<text text-anchor="middle" x="242.5" y="-7.5" font-family="Helvetica,sans-Serif" font-size="10.00" fill="#000000">argo::number_of_nodes</text>
</a>
</g>
</g>
<!-- Node0&#45;&gt;Node8 -->
<g id="edge9" class="edge">
<title>Node0&#45;&gt;Node8</title>
<path fill="none" stroke="#191970" d="M110.7614,-51.987C130.6077,-44.7524 154.9572,-36.1224 177,-29 183.8938,-26.7725 191.2341,-24.5244 198.4135,-22.3927"/>
<polygon fill="#191970" stroke="#191970" points="199.434,-25.741 208.047,-19.5711 197.4663,-19.0232 199.434,-25.741"/>
</g>
<!-- Node3 -->
<g id="node4" class="node">
<title>Node3</title>
<g id="a_node4"><a xlink:href="swdsm_8cpp_a0edf823a78daed8888e8e18468460617.html#a0edf823a78daed8888e8e18468460617" target="_top" xlink:title="Gives homenode for a given address. ">
<polygon fill="#ffffff" stroke="#000000" points="344,-96.5 344,-115.5 433,-115.5 433,-96.5 344,-96.5"/>
<text text-anchor="middle" x="388.5" y="-103.5" font-family="Helvetica,sans-Serif" font-size="10.00" fill="#000000">get_homenode</text>
</a>
</g>
</g>
<!-- Node2&#45;&gt;Node3 -->
<g id="edge4" class="edge">
<title>Node2&#45;&gt;Node3</title>
<path fill="none" stroke="#191970" d="M285.5152,-91.8925C300.5571,-93.953 317.6549,-96.2952 333.5374,-98.4709"/>
<polygon fill="#191970" stroke="#191970" points="333.3826,-101.9823 343.7652,-99.8719 334.3327,-95.0471 333.3826,-101.9823"/>
</g>
<!-- Node5 -->
<g id="node6" class="node">
<title>Node5</title>
<g id="a_node6"><a xlink:href="swdsm_8cpp_ab58b1f9fa1b59d3060f241994979e18f.html#ab58b1f9fa1b59d3060f241994979e18f" target="_top" xlink:title="Gets the offset of an address on the local nodes part of the global memory. ">
<polygon fill="#ffffff" stroke="#000000" points="356,-55.5 356,-74.5 421,-74.5 421,-55.5 356,-55.5"/>
<text text-anchor="middle" x="388.5" y="-62.5" font-family="Helvetica,sans-Serif" font-size="10.00" fill="#000000">get_offset</text>
</a>
</g>
</g>
<!-- Node2&#45;&gt;Node5 -->
<g id="edge6" class="edge">
<title>Node2&#45;&gt;Node5</title>
<path fill="none" stroke="#191970" d="M285.5152,-79.8129C304.5354,-77.0771 326.8428,-73.8685 345.8238,-71.1384"/>
<polygon fill="#191970" stroke="#191970" points="346.5847,-74.565 355.9845,-69.6769 345.5881,-67.6363 346.5847,-74.565"/>
</g>
<!-- Node4 -->
<g id="node5" class="node">
<title>Node4</title>
<g id="a_node5"><a xlink:href="classargo_1_1data__distribution_1_1global__ptr_ac7d651586337d08cda18ef26ffcd34a0.html#ac7d651586337d08cda18ef26ffcd34a0" target="_top" xlink:title="return the home node of the value pointed to ">
<polygon fill="#ffffff" stroke="#000000" points="469,-94 469,-124 596,-124 596,-94 469,-94"/>
<text text-anchor="start" x="477" y="-112" font-family="Helvetica,sans-Serif" font-size="10.00" fill="#000000">argo::data_distribution</text>
<text text-anchor="middle" x="532.5" y="-101" font-family="Helvetica,sans-Serif" font-size="10.00" fill="#000000">::global_ptr::node</text>
</a>
</g>
</g>
<!-- Node3&#45;&gt;Node4 -->
<g id="edge5" class="edge">
<title>Node3&#45;&gt;Node4</title>
<path fill="none" stroke="#191970" d="M433.2731,-106.9328C441.4029,-107.1021 450.0757,-107.2828 458.7821,-107.4642"/>
<polygon fill="#191970" stroke="#191970" points="458.9167,-110.9677 468.9875,-107.6768 459.0626,-103.9692 458.9167,-110.9677"/>
</g>
<!-- Node6 -->
<g id="node7" class="node">
<title>Node6</title>
<g id="a_node7"><a xlink:href="classargo_1_1data__distribution_1_1global__ptr_ad8c21c408fa2b926cfd9acfd87e8e4e6.html#ad8c21c408fa2b926cfd9acfd87e8e4e6" target="_top" xlink:title="return the offset on the home node&#39;s local memory share ">
<polygon fill="#ffffff" stroke="#000000" points="469,-45 469,-75 596,-75 596,-45 469,-45"/>
<text text-anchor="start" x="477" y="-63" font-family="Helvetica,sans-Serif" font-size="10.00" fill="#000000">argo::data_distribution</text>
<text text-anchor="middle" x="532.5" y="-52" font-family="Helvetica,sans-Serif" font-size="10.00" fill="#000000">::global_ptr::offset</text>
</a>
</g>
</g>
<!-- Node5&#45;&gt;Node6 -->
<g id="edge7" class="edge">
<title>Node5&#45;&gt;Node6</title>
<path fill="none" stroke="#191970" d="M421.1758,-63.8654C432.4171,-63.4751 445.5032,-63.0207 458.6709,-62.5635"/>
<polygon fill="#191970" stroke="#191970" points="458.8545,-66.0593 468.727,-62.2143 458.6116,-59.0636 458.8545,-66.0593"/>
</g>
</g>
</svg>
        <g id="navigator" transform="translate(0 0)" fill="#404254">
                <rect fill="#f2f5e9" fill-opacity="0.5" stroke="#606060" stroke-width=".5" x="0" y="0" width="60" height="60"/>
                <use id="zoomplus" xlink:href="#zoomPlus" x="17" y="9" onmousedown="handleZoom(evt,'in')"/>
                <use id="zoomminus" xlink:href="#zoomMin" x="42" y="9" onmousedown="handleZoom(evt,'out')"/>
                <use id="reset" xlink:href="#resetDef" x="30" y="36" onmousedown="handleReset()"/>
                <g id="arrowUp" xlink:href="#dirArrow" transform="translate(30 24)" onmousedown="handlePan(0,-1)">
                  <use xlink:href="#rim" fill="#404040">
                        <set attributeName="fill" to="#808080" begin="arrowUp.mouseover" end="arrowUp.mouseout"/>
                  </use>
                  <path fill="none" stroke="white" stroke-width="1.5" d="M0,-3.0v7 M-2.5,-0.5L0,-3.0L2.5,-0.5"/>
                </g>
                <g id="arrowRight" xlink:href="#dirArrow" transform="rotate(90) translate(36 -43)" onmousedown="handlePan(1,0)">
                  <use xlink:href="#rim" fill="#404040">
                        <set attributeName="fill" to="#808080" begin="arrowRight.mouseover" end="arrowRight.mouseout"/>
                  </use>
                  <path fill="none" stroke="white" stroke-width="1.5" d="M0,-3.0v7 M-2.5,-0.5L0,-3.0L2.5,-0.5"/>
                </g>
                <g id="arrowDown" xlink:href="#dirArrow" transform="rotate(180) translate(-30 -48)" onmousedown="handlePan(0,1)">
                  <use xlink:href="#rim" fill="#404040">
                        <set attributeName="fill" to="#808080" begin="arrowDown.mouseover" end="arrowDown.mouseout"/>
                  </use>
                  <path fill="none" stroke="white" stroke-width="1.5" d="M0,-3.0v7 M-2.5,-0.5L0,-3.0L2.5,-0.5"/>
                </g>
                <g id="arrowLeft" xlink:href="#dirArrow" transform="rotate(270) translate(-36 17)" onmousedown="handlePan(-1,0)">
                  <use xlink:href="#rim" fill="#404040">
                        <set attributeName="fill" to="#808080" begin="arrowLeft.mouseover" end="arrowLeft.mouseout"/>
                  </use>
                  <path fill="none" stroke="white" stroke-width="1.5" d="M0,-3.0v7 M-2.5,-0.5L0,-3.0L2.5,-0.5"/>
                </g>
        </g>
        <svg viewBox="0 0 15 15" width="100%" height="30px" preserveAspectRatio="xMaxYMin meet">
         <g id="arrow_out" transform="scale(0.3 0.3)">
          <a xlink:href="backend_8hpp_ac3350bde3c8baf64753e515336fad3be_ac3350bde3c8baf64753e515336fad3be_cgraph_org.svg" target="_base">
           <rect id="button" ry="5" rx="5" y="6" x="6" height="38" width="38"
                fill="#f2f5e9" fill-opacity="0.5" stroke="#606060" stroke-width="1.0"/>
           <path id="arrow"
             d="M 11.500037,31.436501 C 11.940474,20.09759 22.043105,11.32322 32.158766,21.979434 L 37.068811,17.246167 C 37.068811,17.246167 37.088388,32 37.088388,32 L 22.160133,31.978069 C 22.160133,31.978069 26.997745,27.140456 26.997745,27.140456 C 18.528582,18.264221 13.291696,25.230495 11.500037,31.436501 z"
             style="fill:#404040;"/>
          </a>
         </g>
        </svg>
</svg>
