<?xml version="1.0" encoding="UTF-8" standalone="no"?>
<!DOCTYPE svg PUBLIC "-//W3C//DTD SVG 1.1//EN"
 "http://www.w3.org/Graphics/SVG/1.1/DTD/svg11.dtd">
<!-- Generated by graphviz version 2.40.1 (20161225.0304)
 -->
<!-- Title: argo::synchronization::broadcast Pages: 1 -->
<svg width="249pt" height="66pt"
 viewBox="0.00 0.00 249.00 66.00" xmlns="http://www.w3.org/2000/svg" xmlns:xlink="http://www.w3.org/1999/xlink">
<g id="graph0" class="graph" transform="scale(1 1) rotate(0) translate(4 62)">
<title>argo::synchronization::broadcast</title>
<polygon fill="#ffffff" stroke="transparent" points="-4,4 -4,-62 245,-62 245,4 -4,4"/>
<!-- Node0 -->
<g id="node1" class="node">
<title>Node0</title>
<polygon fill="#bfbfbf" stroke="#000000" points="0,-14 0,-44 122,-44 122,-14 0,-14"/>
<text text-anchor="start" x="8" y="-32" font-family="Helvetica,sans-Serif" font-size="10.00" fill="#000000">argo::synchronization</text>
<text text-anchor="middle" x="61" y="-21" font-family="Helvetica,sans-Serif" font-size="10.00" fill="#000000">::broadcast</text>
</g>
<!-- Node1 -->
<g id="node2" class="node">
<title>Node1</title>
<g id="a_node2"><a xlink:href="explicit__instantiations_8inc_8cpp_a073931f253ee8178898e6a8446031f9a.html#a073931f253ee8178898e6a8446031f9a" target="_top" xlink:title="explicit instantiation for pointers to raw memory ">
<polygon fill="#ffffff" stroke="#000000" points="167,-38.5 167,-57.5 232,-57.5 232,-38.5 167,-38.5"/>
<text text-anchor="middle" x="199.5" y="-45.5" font-family="Helvetica,sans-Serif" font-size="10.00" fill="#000000">broadcast</text>
</a>
</g>
</g>
<!-- Node0&#45;&gt;Node1 -->
<g id="edge1" class="edge">
<title>Node0&#45;&gt;Node1</title>
<path fill="none" stroke="#191970" d="M122.1513,-37.389C133.7933,-38.9861 145.7449,-40.6256 156.6655,-42.1238"/>
<polygon fill="#191970" stroke="#191970" points="156.3932,-45.6191 166.7761,-43.5108 157.3446,-38.6841 156.3932,-45.6191"/>
</g>
<!-- Node2 -->
<g id="node3" class="node">
<title>Node2</title>
<g id="a_node3"><a xlink:href="namespaceargo_a2deaaacde085d381cbb01f24318965b4.html#a2deaaacde085d381cbb01f24318965b4" target="_top" xlink:title="A unique ArgoDSM node identifier. Counting starts from 0. ">
<polygon fill="#ffffff" stroke="#000000" points="158,-.5 158,-19.5 241,-19.5 241,-.5 158,-.5"/>
<text text-anchor="middle" x="199.5" y="-7.5" font-family="Helvetica,sans-Serif" font-size="10.00" fill="#000000">argo::node_id</text>
</a>
</g>
</g>
<!-- Node0&#45;&gt;Node2 -->
<g id="edge2" class="edge">
<title>Node0&#45;&gt;Node2</title>
<path fill="none" stroke="#191970" d="M122.1513,-20.611C130.7033,-19.4378 139.4224,-18.2417 147.7772,-17.0956"/>
<polygon fill="#191970" stroke="#191970" points="148.3202,-20.5539 157.7517,-15.7272 147.3688,-13.6189 148.3202,-20.5539"/>
</g>
</g>
</svg>
