<?xml version="1.0" encoding="UTF-8" standalone="no"?>
<!DOCTYPE svg PUBLIC "-//W3C//DTD SVG 1.1//EN"
 "http://www.w3.org/Graphics/SVG/1.1/DTD/svg11.dtd">
<!-- Generated by graphviz version 2.40.1 (20161225.0304)
 -->
<!-- Title: /home/atmerhannah/argodsm/src/synchronization/broadcast.hpp Pages: 1 -->
<!--zoomable 386 -->
<svg id="main" version="1.1" xmlns="http://www.w3.org/2000/svg" xmlns:xlink="http://www.w3.org/1999/xlink" xml:space="preserve" onload="init(evt)">
<style type="text/css"><![CDATA[
.edge:hover path { stroke: red; }
.edge:hover polygon { stroke: red; fill: red; }
]]></style>
<script type="text/javascript"><![CDATA[
var edges = document.getElementsByTagName('g');
if (edges && edges.length) {
  for (var i=0;i<edges.length;i++) {
    if (edges[i].id.substr(0,4)=='edge') {
      edges[i].setAttribute('class','edge');
    }
  }
}
]]></script>
        <defs>
                <circle id="rim" cx="0" cy="0" r="7"/>
                <circle id="rim2" cx="0" cy="0" r="3.5"/>
                <g id="zoomPlus">
                        <use xlink:href="#rim" fill="#404040">
                                <set attributeName="fill" to="#808080" begin="zoomplus.mouseover" end="zoomplus.mouseout"/>
                        </use>
                        <path d="M-4,0h8M0,-4v8" fill="none" stroke="white" stroke-width="1.5" pointer-events="none"/>
                </g>
                <g id="zoomMin">
                        <use xlink:href="#rim" fill="#404040">
                                <set attributeName="fill" to="#808080" begin="zoomminus.mouseover" end="zoomminus.mouseout"/>
                        </use>
                        <path d="M-4,0h8" fill="none" stroke="white" stroke-width="1.5" pointer-events="none"/>
                </g>
                <g id="dirArrow">
                        <path fill="none" stroke="white" stroke-width="1.5" d="M0,-3.0v7 M-2.5,-0.5L0,-3.0L2.5,-0.5"/>
                </g>
               <g id="resetDef">
                       <use xlink:href="#rim2" fill="#404040">
                               <set attributeName="fill" to="#808080" begin="reset.mouseover" end="reset.mouseout"/>
                       </use>
               </g>
        </defs>

<script type="text/javascript">
var viewWidth = 989;
var viewHeight = 386;
var sectionId = 'dynsection-0';
</script>
<script xlink:href="svgpan.js"/>
<svg id="graph" class="graph">
<g id="viewport">
<title>/home/atmerhannah/argodsm/src/synchronization/broadcast.hpp</title>
<polygon fill="#ffffff" stroke="transparent" points="-4,4 -4,-382 984.5,-382 984.5,4 -4,4"/>
<!-- Node0 -->
<g id="node1" class="node">
<title>Node0</title>
<polygon fill="#bfbfbf" stroke="#000000" points="576.5,-347.5 576.5,-377.5 762.5,-377.5 762.5,-347.5 576.5,-347.5"/>
<text text-anchor="start" x="584.5" y="-365.5" font-family="Helvetica,sans-Serif" font-size="10.00" fill="#000000">/home/atmerhannah/argodsm</text>
<text text-anchor="middle" x="669.5" y="-354.5" font-family="Helvetica,sans-Serif" font-size="10.00" fill="#000000">/src/synchronization/broadcast.hpp</text>
</g>
<!-- Node1 -->
<g id="node2" class="node">
<title>Node1</title>
<g id="a_node2"><a xlink:href="backend_8hpp.html" target="_top" xlink:title="This file provides the backend interface. ">
<polygon fill="#ffffff" stroke="#000000" points="358.5,-291.5 358.5,-310.5 490.5,-310.5 490.5,-291.5 358.5,-291.5"/>
<text text-anchor="middle" x="424.5" y="-298.5" font-family="Helvetica,sans-Serif" font-size="10.00" fill="#000000">../backend/backend.hpp</text>
</a>
</g>
</g>
<!-- Node0&#45;&gt;Node1 -->
<g id="edge1" class="edge">
<title>Node0&#45;&gt;Node1</title>
<path fill="none" stroke="#191970" d="M609.5663,-347.4554C567.3427,-336.8564 511.5629,-322.8546 472.319,-313.0035"/>
<polygon fill="#191970" stroke="#191970" points="473.0176,-309.5704 462.4663,-310.5303 471.3132,-316.3597 473.0176,-309.5704"/>
</g>
<!-- Node14 -->
<g id="node15" class="node">
<title>Node14</title>
<g id="a_node15"><a xlink:href="types_8hpp.html" target="_top" xlink:title="This file defines common types used in ArgoDSM. ">
<polygon fill="#ffffff" stroke="#000000" points="876.5,-.5 876.5,-19.5 980.5,-19.5 980.5,-.5 876.5,-.5"/>
<text text-anchor="middle" x="928.5" y="-7.5" font-family="Helvetica,sans-Serif" font-size="10.00" fill="#000000">../types/types.hpp</text>
</a>
</g>
</g>
<!-- Node0&#45;&gt;Node14 -->
<g id="edge27" class="edge">
<title>Node0&#45;&gt;Node14</title>
<path fill="none" stroke="#191970" d="M742.1544,-347.4952C830.0808,-327.2016 966.5,-287.9147 966.5,-239.5 966.5,-239.5 966.5,-239.5 966.5,-122 966.5,-87.6118 950.2366,-50.2832 938.989,-28.5791"/>
<polygon fill="#191970" stroke="#191970" points="941.931,-26.6605 934.107,-19.5166 935.7683,-29.9804 941.931,-26.6605"/>
</g>
<!-- Node2 -->
<g id="node3" class="node">
<title>Node2</title>
<polygon fill="#ffffff" stroke="#bfbfbf" points="200.5,-230 200.5,-249 252.5,-249 252.5,-230 200.5,-230"/>
<text text-anchor="middle" x="226.5" y="-237" font-family="Helvetica,sans-Serif" font-size="10.00" fill="#000000">cassert</text>
</g>
<!-- Node1&#45;&gt;Node2 -->
<g id="edge2" class="edge">
<title>Node1&#45;&gt;Node2</title>
<path fill="none" stroke="#191970" d="M384.8124,-291.4803C351.497,-283.0909 302.854,-269.9071 261.5,-255 259.6713,-254.3408 257.8037,-253.6299 255.9297,-252.8877"/>
<polygon fill="#191970" stroke="#191970" points="257.2358,-249.6403 246.6597,-249.0105 254.5348,-256.0982 257.2358,-249.6403"/>
</g>
<!-- Node3 -->
<g id="node4" class="node">
<title>Node3</title>
<polygon fill="#ffffff" stroke="#bfbfbf" points="270.5,-230 270.5,-249 320.5,-249 320.5,-230 270.5,-230"/>
<text text-anchor="middle" x="295.5" y="-237" font-family="Helvetica,sans-Serif" font-size="10.00" fill="#000000">cstdint</text>
</g>
<!-- Node1&#45;&gt;Node3 -->
<g id="edge3" class="edge">
<title>Node1&#45;&gt;Node3</title>
<path fill="none" stroke="#191970" d="M404.3438,-291.3906C382.949,-281.1908 348.938,-264.9763 324.6298,-253.3875"/>
<polygon fill="#191970" stroke="#191970" points="326.0476,-250.186 315.5147,-249.0419 323.0352,-256.5047 326.0476,-250.186"/>
</g>
<!-- Node4 -->
<g id="node5" class="node">
<title>Node4</title>
<polygon fill="#ffffff" stroke="#bfbfbf" points="339,-230 339,-249 404,-249 404,-230 339,-230"/>
<text text-anchor="middle" x="371.5" y="-237" font-family="Helvetica,sans-Serif" font-size="10.00" fill="#000000">stdexcept</text>
</g>
<!-- Node1&#45;&gt;Node4 -->
<g id="edge4" class="edge">
<title>Node1&#45;&gt;Node4</title>
<path fill="none" stroke="#191970" d="M416.2188,-291.3906C408.3307,-282.2376 396.2686,-268.2409 386.6588,-257.09"/>
<polygon fill="#191970" stroke="#191970" points="389.0775,-254.5352 379.898,-249.2449 383.7749,-259.1049 389.0775,-254.5352"/>
</g>
<!-- Node5 -->
<g id="node6" class="node">
<title>Node5</title>
<g id="a_node6"><a xlink:href="global__ptr_8hpp.html" target="_top" xlink:title="This file provides the global pointer for ArgoDSM. ">
<polygon fill="#ffffff" stroke="#000000" points="422.5,-224.5 422.5,-254.5 530.5,-254.5 530.5,-224.5 422.5,-224.5"/>
<text text-anchor="start" x="430.5" y="-242.5" font-family="Helvetica,sans-Serif" font-size="10.00" fill="#000000">../data_distribution</text>
<text text-anchor="middle" x="476.5" y="-231.5" font-family="Helvetica,sans-Serif" font-size="10.00" fill="#000000">/global_ptr.hpp</text>
</a>
</g>
</g>
<!-- Node1&#45;&gt;Node5 -->
<g id="edge5" class="edge">
<title>Node1&#45;&gt;Node5</title>
<path fill="none" stroke="#191970" d="M432.625,-291.3906C439.2064,-283.6068 448.7496,-272.3202 457.256,-262.2597"/>
<polygon fill="#191970" stroke="#191970" points="459.9954,-264.4407 463.7794,-254.5446 454.65,-259.921 459.9954,-264.4407"/>
</g>
<!-- Node1&#45;&gt;Node14 -->
<g id="edge26" class="edge">
<title>Node1&#45;&gt;Node14</title>
<path fill="none" stroke="#191970" d="M490.6481,-298.6383C627.385,-291.9519 928.5,-267.1111 928.5,-178 928.5,-178 928.5,-178 928.5,-122 928.5,-89.7116 928.5,-52.1872 928.5,-29.8048"/>
<polygon fill="#191970" stroke="#191970" points="932.0001,-29.5883 928.5,-19.5884 925.0001,-29.5884 932.0001,-29.5883"/>
</g>
<!-- Node6 -->
<g id="node7" class="node">
<title>Node6</title>
<polygon fill="#ffffff" stroke="#bfbfbf" points="250.5,-168.5 250.5,-187.5 294.5,-187.5 294.5,-168.5 250.5,-168.5"/>
<text text-anchor="middle" x="272.5" y="-175.5" font-family="Helvetica,sans-Serif" font-size="10.00" fill="#000000">string</text>
</g>
<!-- Node5&#45;&gt;Node6 -->
<g id="edge6" class="edge">
<title>Node5&#45;&gt;Node6</title>
<path fill="none" stroke="#191970" d="M424.9317,-224.4816C392.7749,-215.04 350.301,-202.4323 304.6247,-188.3072"/>
<polygon fill="#191970" stroke="#191970" points="305.4198,-184.8894 294.8318,-185.2706 303.3466,-191.5754 305.4198,-184.8894"/>
</g>
<!-- Node7 -->
<g id="node8" class="node">
<title>Node7</title>
<g id="a_node8"><a xlink:href="env_8hpp.html" target="_top" xlink:title="This file provides facilities for handling environment variables. ">
<polygon fill="#ffffff" stroke="#000000" points="313,-168.5 313,-187.5 398,-187.5 398,-168.5 313,-168.5"/>
<text text-anchor="middle" x="355.5" y="-175.5" font-family="Helvetica,sans-Serif" font-size="10.00" fill="#000000">../env/env.hpp</text>
</a>
</g>
</g>
<!-- Node5&#45;&gt;Node7 -->
<g id="edge7" class="edge">
<title>Node5&#45;&gt;Node7</title>
<path fill="none" stroke="#191970" d="M446.9001,-224.4554C427.5078,-214.599 402.3258,-201.7999 383.3057,-192.1327"/>
<polygon fill="#191970" stroke="#191970" points="384.7512,-188.9412 374.2507,-187.5303 381.5795,-195.1815 384.7512,-188.9412"/>
</g>
<!-- Node9 -->
<g id="node10" class="node">
<title>Node9</title>
<g id="a_node10"><a xlink:href="data__distribution_8hpp.html" target="_top" xlink:title="This file provides an abstraction layer for distributing the shared memory space. ...">
<polygon fill="#ffffff" stroke="#000000" points="416.5,-168.5 416.5,-187.5 536.5,-187.5 536.5,-168.5 416.5,-168.5"/>
<text text-anchor="middle" x="476.5" y="-175.5" font-family="Helvetica,sans-Serif" font-size="10.00" fill="#000000">data_distribution.hpp</text>
</a>
</g>
</g>
<!-- Node5&#45;&gt;Node9 -->
<g id="edge9" class="edge">
<title>Node5&#45;&gt;Node9</title>
<path fill="none" stroke="#191970" d="M476.5,-224.2977C476.5,-216.3834 476.5,-206.6043 476.5,-198.0759"/>
<polygon fill="#191970" stroke="#191970" points="480.0001,-197.8469 476.5,-187.8469 473.0001,-197.847 480.0001,-197.8469"/>
</g>
<!-- Node8 -->
<g id="node9" class="node">
<title>Node8</title>
<polygon fill="#ffffff" stroke="#bfbfbf" points="0,-112.5 0,-131.5 53,-131.5 53,-112.5 0,-112.5"/>
<text text-anchor="middle" x="26.5" y="-119.5" font-family="Helvetica,sans-Serif" font-size="10.00" fill="#000000">cstddef</text>
</g>
<!-- Node7&#45;&gt;Node8 -->
<g id="edge8" class="edge">
<title>Node7&#45;&gt;Node8</title>
<path fill="none" stroke="#191970" d="M312.9573,-169.6801C309.7596,-169.0972 306.5803,-168.5309 303.5,-168 198.9395,-149.9781 171.5851,-152.5907 67.5,-132 66.0625,-131.7156 64.5994,-131.4147 63.1234,-131.1014"/>
<polygon fill="#191970" stroke="#191970" points="63.8553,-127.6787 53.3313,-128.9019 62.3211,-134.5085 63.8553,-127.6787"/>
</g>
<!-- Node10 -->
<g id="node11" class="node">
<title>Node10</title>
<g id="a_node11"><a xlink:href="base__distribution_8hpp.html" target="_top" xlink:title="This file implements the base distribution class for all the policies to derive from. ">
<polygon fill="#ffffff" stroke="#000000" points="415.5,-56.5 415.5,-75.5 537.5,-75.5 537.5,-56.5 415.5,-56.5"/>
<text text-anchor="middle" x="476.5" y="-63.5" font-family="Helvetica,sans-Serif" font-size="10.00" fill="#000000">base_distribution.hpp</text>
</a>
</g>
</g>
<!-- Node9&#45;&gt;Node10 -->
<g id="edge10" class="edge">
<title>Node9&#45;&gt;Node10</title>
<path fill="none" stroke="#191970" d="M416.1839,-169.2867C412.9093,-168.8438 409.6651,-168.4122 406.5,-168 338.6044,-159.1578 145.9986,-183.1652 100.5,-132 58.7759,-85.0794 284.7949,-71.4591 405.0759,-67.5488"/>
<polygon fill="#191970" stroke="#191970" points="405.4276,-71.0397 415.3142,-67.2311 405.2104,-64.0431 405.4276,-71.0397"/>
</g>
<!-- Node15 -->
<g id="node16" class="node">
<title>Node15</title>
<g id="a_node16"><a xlink:href="naive__distribution_8hpp.html" target="_top" xlink:title="This file implements the naive data distribution. ">
<polygon fill="#ffffff" stroke="#000000" points="110,-112.5 110,-131.5 235,-131.5 235,-112.5 110,-112.5"/>
<text text-anchor="middle" x="172.5" y="-119.5" font-family="Helvetica,sans-Serif" font-size="10.00" fill="#000000">naive_distribution.hpp</text>
</a>
</g>
</g>
<!-- Node9&#45;&gt;Node15 -->
<g id="edge15" class="edge">
<title>Node9&#45;&gt;Node15</title>
<path fill="none" stroke="#191970" d="M424.586,-168.4369C371.9029,-158.7321 290.3432,-143.708 234.3457,-133.3926"/>
<polygon fill="#191970" stroke="#191970" points="234.6686,-129.8933 224.1999,-131.5237 233.4004,-136.7775 234.6686,-129.8933"/>
</g>
<!-- Node16 -->
<g id="node17" class="node">
<title>Node16</title>
<g id="a_node17"><a xlink:href="cyclic__distribution_8hpp.html" target="_top" xlink:title="This file implements the cyclic data distribution. ">
<polygon fill="#ffffff" stroke="#000000" points="253.5,-112.5 253.5,-131.5 379.5,-131.5 379.5,-112.5 253.5,-112.5"/>
<text text-anchor="middle" x="316.5" y="-119.5" font-family="Helvetica,sans-Serif" font-size="10.00" fill="#000000">cyclic_distribution.hpp</text>
</a>
</g>
</g>
<!-- Node9&#45;&gt;Node16 -->
<g id="edge17" class="edge">
<title>Node9&#45;&gt;Node16</title>
<path fill="none" stroke="#191970" d="M448.995,-168.3733C422.6198,-159.1419 382.6149,-145.1402 353.4642,-134.9375"/>
<polygon fill="#191970" stroke="#191970" points="354.2409,-131.5012 343.6461,-131.5011 351.9284,-138.1082 354.2409,-131.5012"/>
</g>
<!-- Node17 -->
<g id="node18" class="node">
<title>Node17</title>
<g id="a_node18"><a xlink:href="skew__mapp__distribution_8hpp.html" target="_top" xlink:title="This file implements the skew&#45;mapp data distribution. ">
<polygon fill="#ffffff" stroke="#000000" points="398,-112.5 398,-131.5 555,-131.5 555,-112.5 398,-112.5"/>
<text text-anchor="middle" x="476.5" y="-119.5" font-family="Helvetica,sans-Serif" font-size="10.00" fill="#000000">skew_mapp_distribution.hpp</text>
</a>
</g>
</g>
<!-- Node9&#45;&gt;Node17 -->
<g id="edge19" class="edge">
<title>Node9&#45;&gt;Node17</title>
<path fill="none" stroke="#191970" d="M476.5,-168.2455C476.5,-160.9382 476.5,-150.6944 476.5,-141.7046"/>
<polygon fill="#191970" stroke="#191970" points="480.0001,-141.6426 476.5,-131.6427 473.0001,-141.6427 480.0001,-141.6426"/>
</g>
<!-- Node18 -->
<g id="node19" class="node">
<title>Node18</title>
<g id="a_node19"><a xlink:href="prime__mapp__distribution_8hpp.html" target="_top" xlink:title="This file implements the prime&#45;mapp data distribution. ">
<polygon fill="#ffffff" stroke="#000000" points="573.5,-112.5 573.5,-131.5 733.5,-131.5 733.5,-112.5 573.5,-112.5"/>
<text text-anchor="middle" x="653.5" y="-119.5" font-family="Helvetica,sans-Serif" font-size="10.00" fill="#000000">prime_mapp_distribution.hpp</text>
</a>
</g>
</g>
<!-- Node9&#45;&gt;Node18 -->
<g id="edge21" class="edge">
<title>Node9&#45;&gt;Node18</title>
<path fill="none" stroke="#191970" d="M506.9274,-168.3733C536.4872,-159.021 581.5226,-144.7725 613.8695,-134.5385"/>
<polygon fill="#191970" stroke="#191970" points="614.9913,-137.8546 623.4697,-131.5011 612.8797,-131.1807 614.9913,-137.8546"/>
</g>
<!-- Node19 -->
<g id="node20" class="node">
<title>Node19</title>
<g id="a_node20"><a xlink:href="first__touch__distribution_8hpp.html" target="_top" xlink:title="This file implements the first&#45;touch data distribution. ">
<polygon fill="#ffffff" stroke="#000000" points="752,-112.5 752,-131.5 901,-131.5 901,-112.5 752,-112.5"/>
<text text-anchor="middle" x="826.5" y="-119.5" font-family="Helvetica,sans-Serif" font-size="10.00" fill="#000000">first_touch_distribution.hpp</text>
</a>
</g>
</g>
<!-- Node9&#45;&gt;Node19 -->
<g id="edge23" class="edge">
<title>Node9&#45;&gt;Node19</title>
<path fill="none" stroke="#191970" d="M536.2695,-168.4369C597.4277,-158.6516 692.386,-143.4582 756.895,-133.1368"/>
<polygon fill="#191970" stroke="#191970" points="757.6556,-136.5597 766.9771,-131.5237 756.5497,-129.6476 757.6556,-136.5597"/>
</g>
<!-- Node11 -->
<g id="node12" class="node">
<title>Node11</title>
<polygon fill="#ffffff" stroke="#bfbfbf" points="379,-.5 379,-19.5 428,-19.5 428,-.5 379,-.5"/>
<text text-anchor="middle" x="403.5" y="-7.5" font-family="Helvetica,sans-Serif" font-size="10.00" fill="#000000">cstdlib</text>
</g>
<!-- Node10&#45;&gt;Node11 -->
<g id="edge11" class="edge">
<title>Node10&#45;&gt;Node11</title>
<path fill="none" stroke="#191970" d="M463.7844,-56.2455C452.898,-47.8943 437.0117,-35.7076 424.28,-25.9408"/>
<polygon fill="#191970" stroke="#191970" points="426.1346,-22.9523 416.0699,-19.6427 421.8739,-28.5063 426.1346,-22.9523"/>
</g>
<!-- Node12 -->
<g id="node13" class="node">
<title>Node12</title>
<polygon fill="#ffffff" stroke="#bfbfbf" points="446.5,-.5 446.5,-19.5 506.5,-19.5 506.5,-.5 446.5,-.5"/>
<text text-anchor="middle" x="476.5" y="-7.5" font-family="Helvetica,sans-Serif" font-size="10.00" fill="#000000">iostream</text>
</g>
<!-- Node10&#45;&gt;Node12 -->
<g id="edge12" class="edge">
<title>Node10&#45;&gt;Node12</title>
<path fill="none" stroke="#191970" d="M476.5,-56.2455C476.5,-48.9382 476.5,-38.6944 476.5,-29.7046"/>
<polygon fill="#191970" stroke="#191970" points="480.0001,-29.6426 476.5,-19.6427 473.0001,-29.6427 480.0001,-29.6426"/>
</g>
<!-- Node13 -->
<g id="node14" class="node">
<title>Node13</title>
<polygon fill="#ffffff" stroke="#bfbfbf" points="525,-.5 525,-19.5 606,-19.5 606,-.5 525,-.5"/>
<text text-anchor="middle" x="565.5" y="-7.5" font-family="Helvetica,sans-Serif" font-size="10.00" fill="#000000">system_error</text>
</g>
<!-- Node10&#45;&gt;Node13 -->
<g id="edge13" class="edge">
<title>Node10&#45;&gt;Node13</title>
<path fill="none" stroke="#191970" d="M492.0026,-56.2455C505.658,-47.6534 525.7657,-35.0014 541.4989,-25.1018"/>
<polygon fill="#191970" stroke="#191970" points="543.5751,-27.9307 550.175,-19.6427 539.8471,-22.006 543.5751,-27.9307"/>
</g>
<!-- Node10&#45;&gt;Node14 -->
<g id="edge14" class="edge">
<title>Node10&#45;&gt;Node14</title>
<path fill="none" stroke="#191970" d="M537.9291,-58.3893C624.0695,-47.7171 779.8775,-28.4134 866.3856,-17.6956"/>
<polygon fill="#191970" stroke="#191970" points="866.8328,-21.167 876.3266,-16.464 865.9721,-14.2201 866.8328,-21.167"/>
</g>
<!-- Node15&#45;&gt;Node10 -->
<g id="edge16" class="edge">
<title>Node15&#45;&gt;Node10</title>
<path fill="none" stroke="#191970" d="M224.414,-112.4369C277.0971,-102.7321 358.6568,-87.708 414.6543,-77.3926"/>
<polygon fill="#191970" stroke="#191970" points="415.5996,-80.7775 424.8001,-75.5237 414.3314,-73.8933 415.5996,-80.7775"/>
</g>
<!-- Node16&#45;&gt;Node10 -->
<g id="edge18" class="edge">
<title>Node16&#45;&gt;Node10</title>
<path fill="none" stroke="#191970" d="M344.005,-112.3733C370.3802,-103.1419 410.3851,-89.1402 439.5358,-78.9375"/>
<polygon fill="#191970" stroke="#191970" points="441.0716,-82.1082 449.3539,-75.5011 438.7591,-75.5012 441.0716,-82.1082"/>
</g>
<!-- Node17&#45;&gt;Node10 -->
<g id="edge20" class="edge">
<title>Node17&#45;&gt;Node10</title>
<path fill="none" stroke="#191970" d="M476.5,-112.2455C476.5,-104.9382 476.5,-94.6944 476.5,-85.7046"/>
<polygon fill="#191970" stroke="#191970" points="480.0001,-85.6426 476.5,-75.6427 473.0001,-85.6427 480.0001,-85.6426"/>
</g>
<!-- Node18&#45;&gt;Node10 -->
<g id="edge22" class="edge">
<title>Node18&#45;&gt;Node10</title>
<path fill="none" stroke="#191970" d="M623.0726,-112.3733C593.5128,-103.021 548.4774,-88.7725 516.1305,-78.5385"/>
<polygon fill="#191970" stroke="#191970" points="517.1203,-75.1807 506.5303,-75.5011 515.0087,-81.8546 517.1203,-75.1807"/>
</g>
<!-- Node19&#45;&gt;Node10 -->
<g id="edge25" class="edge">
<title>Node19&#45;&gt;Node10</title>
<path fill="none" stroke="#191970" d="M766.7305,-112.4369C705.5723,-102.6516 610.614,-87.4582 546.105,-77.1368"/>
<polygon fill="#191970" stroke="#191970" points="546.4503,-73.6476 536.0229,-75.5237 545.3444,-80.5597 546.4503,-73.6476"/>
</g>
<!-- Node20 -->
<g id="node21" class="node">
<title>Node20</title>
<polygon fill="#ffffff" stroke="#bfbfbf" points="802.5,-56.5 802.5,-75.5 850.5,-75.5 850.5,-56.5 802.5,-56.5"/>
<text text-anchor="middle" x="826.5" y="-63.5" font-family="Helvetica,sans-Serif" font-size="10.00" fill="#000000">mutex</text>
</g>
<!-- Node19&#45;&gt;Node20 -->
<g id="edge24" class="edge">
<title>Node19&#45;&gt;Node20</title>
<path fill="none" stroke="#191970" d="M826.5,-112.2455C826.5,-104.9382 826.5,-94.6944 826.5,-85.7046"/>
<polygon fill="#191970" stroke="#191970" points="830.0001,-85.6426 826.5,-75.6427 823.0001,-85.6427 830.0001,-85.6426"/>
</g>
</g>
</svg>
        <g id="navigator" transform="translate(0 0)" fill="#404254">
                <rect fill="#f2f5e9" fill-opacity="0.5" stroke="#606060" stroke-width=".5" x="0" y="0" width="60" height="60"/>
                <use id="zoomplus" xlink:href="#zoomPlus" x="17" y="9" onmousedown="handleZoom(evt,'in')"/>
                <use id="zoomminus" xlink:href="#zoomMin" x="42" y="9" onmousedown="handleZoom(evt,'out')"/>
                <use id="reset" xlink:href="#resetDef" x="30" y="36" onmousedown="handleReset()"/>
                <g id="arrowUp" xlink:href="#dirArrow" transform="translate(30 24)" onmousedown="handlePan(0,-1)">
                  <use xlink:href="#rim" fill="#404040">
                        <set attributeName="fill" to="#808080" begin="arrowUp.mouseover" end="arrowUp.mouseout"/>
                  </use>
                  <path fill="none" stroke="white" stroke-width="1.5" d="M0,-3.0v7 M-2.5,-0.5L0,-3.0L2.5,-0.5"/>
                </g>
                <g id="arrowRight" xlink:href="#dirArrow" transform="rotate(90) translate(36 -43)" onmousedown="handlePan(1,0)">
                  <use xlink:href="#rim" fill="#404040">
                        <set attributeName="fill" to="#808080" begin="arrowRight.mouseover" end="arrowRight.mouseout"/>
                  </use>
                  <path fill="none" stroke="white" stroke-width="1.5" d="M0,-3.0v7 M-2.5,-0.5L0,-3.0L2.5,-0.5"/>
                </g>
                <g id="arrowDown" xlink:href="#dirArrow" transform="rotate(180) translate(-30 -48)" onmousedown="handlePan(0,1)">
                  <use xlink:href="#rim" fill="#404040">
                        <set attributeName="fill" to="#808080" begin="arrowDown.mouseover" end="arrowDown.mouseout"/>
                  </use>
                  <path fill="none" stroke="white" stroke-width="1.5" d="M0,-3.0v7 M-2.5,-0.5L0,-3.0L2.5,-0.5"/>
                </g>
                <g id="arrowLeft" xlink:href="#dirArrow" transform="rotate(270) translate(-36 17)" onmousedown="handlePan(-1,0)">
                  <use xlink:href="#rim" fill="#404040">
                        <set attributeName="fill" to="#808080" begin="arrowLeft.mouseover" end="arrowLeft.mouseout"/>
                  </use>
                  <path fill="none" stroke="white" stroke-width="1.5" d="M0,-3.0v7 M-2.5,-0.5L0,-3.0L2.5,-0.5"/>
                </g>
        </g>
        <svg viewBox="0 0 15 15" width="100%" height="30px" preserveAspectRatio="xMaxYMin meet">
         <g id="arrow_out" transform="scale(0.3 0.3)">
          <a xlink:href="broadcast_8hpp__incl_org.svg" target="_base">
           <rect id="button" ry="5" rx="5" y="6" x="6" height="38" width="38"
                fill="#f2f5e9" fill-opacity="0.5" stroke="#606060" stroke-width="1.0"/>
           <path id="arrow"
             d="M 11.500037,31.436501 C 11.940474,20.09759 22.043105,11.32322 32.158766,21.979434 L 37.068811,17.246167 C 37.068811,17.246167 37.088388,32 37.088388,32 L 22.160133,31.978069 C 22.160133,31.978069 26.997745,27.140456 26.997745,27.140456 C 18.528582,18.264221 13.291696,25.230495 11.500037,31.436501 z"
             style="fill:#404040;"/>
          </a>
         </g>
        </svg>
</svg>
