<?xml version="1.0" encoding="UTF-8" standalone="no"?>
<!DOCTYPE svg PUBLIC "-//W3C//DTD SVG 1.1//EN"
 "http://www.w3.org/Graphics/SVG/1.1/DTD/svg11.dtd">
<!-- Generated by graphviz version 2.40.1 (20161225.0304)
 -->
<!-- Title: write_buffer::pop Pages: 1 -->
<!--zoomable 311 -->
<svg id="main" version="1.1" xmlns="http://www.w3.org/2000/svg" xmlns:xlink="http://www.w3.org/1999/xlink" xml:space="preserve" onload="init(evt)">
<style type="text/css"><![CDATA[
.edge:hover path { stroke: red; }
.edge:hover polygon { stroke: red; fill: red; }
]]></style>
<script type="text/javascript"><![CDATA[
var edges = document.getElementsByTagName('g');
if (edges && edges.length) {
  for (var i=0;i<edges.length;i++) {
    if (edges[i].id.substr(0,4)=='edge') {
      edges[i].setAttribute('class','edge');
    }
  }
}
]]></script>
        <defs>
                <circle id="rim" cx="0" cy="0" r="7"/>
                <circle id="rim2" cx="0" cy="0" r="3.5"/>
                <g id="zoomPlus">
                        <use xlink:href="#rim" fill="#404040">
                                <set attributeName="fill" to="#808080" begin="zoomplus.mouseover" end="zoomplus.mouseout"/>
                        </use>
                        <path d="M-4,0h8M0,-4v8" fill="none" stroke="white" stroke-width="1.5" pointer-events="none"/>
                </g>
                <g id="zoomMin">
                        <use xlink:href="#rim" fill="#404040">
                                <set attributeName="fill" to="#808080" begin="zoomminus.mouseover" end="zoomminus.mouseout"/>
                        </use>
                        <path d="M-4,0h8" fill="none" stroke="white" stroke-width="1.5" pointer-events="none"/>
                </g>
                <g id="dirArrow">
                        <path fill="none" stroke="white" stroke-width="1.5" d="M0,-3.0v7 M-2.5,-0.5L0,-3.0L2.5,-0.5"/>
                </g>
               <g id="resetDef">
                       <use xlink:href="#rim2" fill="#404040">
                               <set attributeName="fill" to="#808080" begin="reset.mouseover" end="reset.mouseout"/>
                       </use>
               </g>
        </defs>

<script type="text/javascript">
var viewWidth = 984;
var viewHeight = 311;
var sectionId = 'dynsection-0';
</script>
<script xlink:href="svgpan.js"/>
<svg id="graph" class="graph">
<g id="viewport">
<title>write_buffer::pop</title>
<polygon fill="#ffffff" stroke="transparent" points="-4,4 -4,-307 980,-307 980,4 -4,4"/>
<!-- Node1 -->
<g id="node1" class="node">
<title>Node1</title>
<polygon fill="#bfbfbf" stroke="#000000" points="0,-188.5 0,-207.5 99,-207.5 99,-188.5 0,-188.5"/>
<text text-anchor="middle" x="49.5" y="-195.5" font-family="Helvetica,sans-Serif" font-size="10.00" fill="#000000">write_buffer::pop</text>
</g>
<!-- Node2 -->
<g id="node2" class="node">
<title>Node2</title>
<g id="a_node2"><a xlink:href="classwrite__buffer_aa6a1c2c3aa3a7cde744bbca3b14f599a.html#aa6a1c2c3aa3a7cde744bbca3b14f599a" target="_top" xlink:title="Flushes first _write_back_size elements of the ArgoDSM write buffer to memory. ">
<polygon fill="#ffffff" stroke="#000000" points="135,-213 135,-243 239,-243 239,-213 135,-213"/>
<text text-anchor="start" x="143" y="-231" font-family="Helvetica,sans-Serif" font-size="10.00" fill="#000000">write_buffer::flush</text>
<text text-anchor="middle" x="187" y="-220" font-family="Helvetica,sans-Serif" font-size="10.00" fill="#000000">_partial</text>
</a>
</g>
</g>
<!-- Node1&#45;&gt;Node2 -->
<g id="edge1" class="edge">
<title>Node1&#45;&gt;Node2</title>
<path fill="none" stroke="#191970" d="M103.1928,-209.7148C113.6135,-211.9884 124.5196,-214.3679 134.8885,-216.6302"/>
<polygon fill="#191970" stroke="#191970" points="103.9002,-206.2869 93.3839,-207.5747 102.408,-213.126 103.9002,-206.2869"/>
</g>
<!-- Node7 -->
<g id="node7" class="node">
<title>Node7</title>
<g id="a_node7"><a xlink:href="classwrite__buffer_aca2e330e17a38c1cc8d8c60701ce9dd7.html#aca2e330e17a38c1cc8d8c60701ce9dd7" target="_top" xlink:title="Flushes the ArgoDSM write buffer to memory. ">
<polygon fill="#ffffff" stroke="#000000" points="135,-166.5 135,-185.5 239,-185.5 239,-166.5 135,-166.5"/>
<text text-anchor="middle" x="187" y="-173.5" font-family="Helvetica,sans-Serif" font-size="10.00" fill="#000000">write_buffer::flush</text>
</a>
</g>
</g>
<!-- Node1&#45;&gt;Node7 -->
<g id="edge6" class="edge">
<title>Node1&#45;&gt;Node7</title>
<path fill="none" stroke="#191970" d="M109.0293,-188.4753C117.5558,-187.1111 126.275,-185.716 134.6494,-184.3761"/>
<polygon fill="#191970" stroke="#191970" points="108.4621,-185.0215 99.1407,-190.0575 109.5681,-191.9335 108.4621,-185.0215"/>
</g>
<!-- Node3 -->
<g id="node3" class="node">
<title>Node3</title>
<g id="a_node3"><a xlink:href="classwrite__buffer_a23b0dbc463111cacbbf83b267e76ac9f.html#a23b0dbc463111cacbbf83b267e76ac9f" target="_top" xlink:title="Adds a new element to the write buffer. ">
<polygon fill="#ffffff" stroke="#000000" points="275,-245.5 275,-264.5 374,-264.5 374,-245.5 275,-245.5"/>
<text text-anchor="middle" x="324.5" y="-252.5" font-family="Helvetica,sans-Serif" font-size="10.00" fill="#000000">write_buffer::add</text>
</a>
</g>
</g>
<!-- Node2&#45;&gt;Node3 -->
<g id="edge2" class="edge">
<title>Node2&#45;&gt;Node3</title>
<path fill="none" stroke="#191970" d="M249.3376,-240.2408C258.2447,-241.9899 267.2965,-243.7673 275.8881,-245.4544"/>
<polygon fill="#191970" stroke="#191970" points="249.8621,-236.7771 239.3751,-238.2846 248.5133,-243.6459 249.8621,-236.7771"/>
</g>
<!-- Node4 -->
<g id="node4" class="node">
<title>Node4</title>
<g id="a_node4"><a xlink:href="swdsm_8h_a8b00f264b792522b179fbc9c818187bd.html#a8b00f264b792522b179fbc9c818187bd" target="_top" xlink:title="Catches memory accesses to memory not yet cached in ArgoDSM. Launches remote requests for memory not ...">
<polygon fill="#ffffff" stroke="#000000" points="441.5,-283.5 441.5,-302.5 494.5,-302.5 494.5,-283.5 441.5,-283.5"/>
<text text-anchor="middle" x="468" y="-290.5" font-family="Helvetica,sans-Serif" font-size="10.00" fill="#000000">handler</text>
</a>
</g>
</g>
<!-- Node3&#45;&gt;Node4 -->
<g id="edge3" class="edge">
<title>Node3&#45;&gt;Node4</title>
<path fill="none" stroke="#191970" d="M370.4424,-267.1659C393.8332,-273.36 421.4459,-280.6721 441.3136,-285.9332"/>
<polygon fill="#191970" stroke="#191970" points="371.2739,-263.7655 360.7111,-264.589 369.4819,-270.5323 371.2739,-263.7655"/>
</g>
<!-- Node5 -->
<g id="node5" class="node">
<title>Node5</title>
<g id="a_node5"><a xlink:href="swdsm_8h_a10dca85d339ce630cf42dca685b3f6d9.html#a10dca85d339ce630cf42dca685b3f6d9" target="_top" xlink:title="Initializes ArgoDSM runtime. ">
<polygon fill="#ffffff" stroke="#000000" points="736.5,-245.5 736.5,-264.5 822.5,-264.5 822.5,-245.5 736.5,-245.5"/>
<text text-anchor="middle" x="779.5" y="-252.5" font-family="Helvetica,sans-Serif" font-size="10.00" fill="#000000">argo_initialize</text>
</a>
</g>
</g>
<!-- Node4&#45;&gt;Node5 -->
<g id="edge4" class="edge">
<title>Node4&#45;&gt;Node5</title>
<path fill="none" stroke="#191970" d="M504.6839,-297.4327C549.0727,-301.7845 625.8401,-306.0565 690,-293 716.6321,-287.5804 745.1653,-273.9478 762.6748,-264.5761"/>
<polygon fill="#191970" stroke="#191970" points="504.9631,-293.943 494.6556,-296.3934 504.2415,-300.9057 504.9631,-293.943"/>
</g>
<!-- Node6 -->
<g id="node6" class="node">
<title>Node6</title>
<g id="a_node6"><a xlink:href="backend_8hpp_af0d80a03a17a374c10d9635ddf81e261.html#af0d80a03a17a374c10d9635ddf81e261" target="_top" xlink:title="initialize backend ">
<polygon fill="#ffffff" stroke="#000000" points="869,-245.5 869,-264.5 976,-264.5 976,-245.5 869,-245.5"/>
<text text-anchor="middle" x="922.5" y="-252.5" font-family="Helvetica,sans-Serif" font-size="10.00" fill="#000000">argo::backend::init</text>
</a>
</g>
</g>
<!-- Node5&#45;&gt;Node6 -->
<g id="edge5" class="edge">
<title>Node5&#45;&gt;Node6</title>
<path fill="none" stroke="#191970" d="M832.933,-255C844.7171,-255 857.2019,-255 868.9891,-255"/>
<polygon fill="#191970" stroke="#191970" points="832.7928,-251.5001 822.7928,-255 832.7927,-258.5001 832.7928,-251.5001"/>
</g>
<!-- Node8 -->
<g id="node8" class="node">
<title>Node8</title>
<g id="a_node8"><a xlink:href="swdsm_8h_aa7c3a2de6bbafdaf68fe6ceb6110ab97.html#aa7c3a2de6bbafdaf68fe6ceb6110ab97" target="_top" xlink:title="Self&#45;Invalidates all memory that has potential writers. ">
<polygon fill="#ffffff" stroke="#000000" points="275.5,-150.5 275.5,-169.5 373.5,-169.5 373.5,-150.5 275.5,-150.5"/>
<text text-anchor="middle" x="324.5" y="-157.5" font-family="Helvetica,sans-Serif" font-size="10.00" fill="#000000">self_invalidation</text>
</a>
</g>
</g>
<!-- Node7&#45;&gt;Node8 -->
<g id="edge7" class="edge">
<title>Node7&#45;&gt;Node8</title>
<path fill="none" stroke="#191970" d="M249.494,-168.728C258.1954,-167.7154 267.0315,-166.6872 275.4386,-165.709"/>
<polygon fill="#191970" stroke="#191970" points="248.9035,-165.273 239.3751,-169.9054 249.7127,-172.2261 248.9035,-165.273"/>
</g>
<!-- Node9 -->
<g id="node9" class="node">
<title>Node9</title>
<g id="a_node9"><a xlink:href="swdsm_8h_ad3f5bdae81c60ac704dda7372792427d.html#ad3f5bdae81c60ac704dda7372792427d" target="_top" xlink:title="Global barrier for ArgoDSM &#45; needs to be called by every thread in the system that need coherent view...">
<polygon fill="#ffffff" stroke="#000000" points="410,-188.5 410,-207.5 526,-207.5 526,-188.5 410,-188.5"/>
<text text-anchor="middle" x="468" y="-195.5" font-family="Helvetica,sans-Serif" font-size="10.00" fill="#000000">swdsm_argo_barrier</text>
</a>
</g>
</g>
<!-- Node7&#45;&gt;Node9 -->
<g id="edge20" class="edge">
<title>Node7&#45;&gt;Node9</title>
<path fill="none" stroke="#191970" d="M249.4382,-180.8884C297.3367,-184.6385 362.9674,-189.7768 409.7806,-193.4419"/>
<polygon fill="#191970" stroke="#191970" points="249.4381,-177.3778 239.1954,-180.0865 248.8917,-184.3564 249.4381,-177.3778"/>
</g>
<!-- Node19 -->
<g id="node19" class="node">
<title>Node19</title>
<g id="a_node19"><a xlink:href="swdsm_8h_ad390eb58e1be03ed6a0939fae7ebd20a.html#ad390eb58e1be03ed6a0939fae7ebd20a" target="_top" xlink:title="Release function for ArgoDSM (Release according to Release Consistency) ">
<polygon fill="#ffffff" stroke="#000000" points="428,-56.5 428,-75.5 508,-75.5 508,-56.5 428,-56.5"/>
<text text-anchor="middle" x="468" y="-63.5" font-family="Helvetica,sans-Serif" font-size="10.00" fill="#000000">argo_release</text>
</a>
</g>
</g>
<!-- Node7&#45;&gt;Node19 -->
<g id="edge21" class="edge">
<title>Node7&#45;&gt;Node19</title>
<path fill="none" stroke="#191970" d="M218.2855,-162.4125C261.1783,-143.973 340.8129,-110.4128 410,-85 418.8522,-81.7486 428.5595,-78.4615 437.4574,-75.5565"/>
<polygon fill="#191970" stroke="#191970" points="216.7509,-159.2626 208.9532,-166.4353 219.5219,-165.6908 216.7509,-159.2626"/>
</g>
<!-- Node8&#45;&gt;Node9 -->
<g id="edge8" class="edge">
<title>Node8&#45;&gt;Node9</title>
<path fill="none" stroke="#191970" d="M370.4735,-172.1742C390.3164,-177.4287 413.1928,-183.4866 431.8005,-188.4141"/>
<polygon fill="#191970" stroke="#191970" points="371.2739,-168.7655 360.7111,-169.589 369.4819,-175.5323 371.2739,-168.7655"/>
</g>
<!-- Node15 -->
<g id="node15" class="node">
<title>Node15</title>
<g id="a_node15"><a xlink:href="swdsm_8h_a44b8bb7a3c8b47b4f9552c8e10b25e4b.html#a44b8bb7a3c8b47b4f9552c8e10b25e4b" target="_top" xlink:title="acquire function for ArgoDSM (Acquire according to Release Consistency) ">
<polygon fill="#ffffff" stroke="#000000" points="428,-94.5 428,-113.5 508,-113.5 508,-94.5 428,-94.5"/>
<text text-anchor="middle" x="468" y="-101.5" font-family="Helvetica,sans-Serif" font-size="10.00" fill="#000000">argo_acquire</text>
</a>
</g>
</g>
<!-- Node8&#45;&gt;Node15 -->
<g id="edge15" class="edge">
<title>Node8&#45;&gt;Node15</title>
<path fill="none" stroke="#191970" d="M358.699,-146.6541C384.8676,-136.4419 420.3153,-122.6086 443.6534,-113.5011"/>
<polygon fill="#191970" stroke="#191970" points="357.2119,-143.4772 349.1685,-150.3733 359.7567,-149.9983 357.2119,-143.4772"/>
</g>
<!-- Node10 -->
<g id="node10" class="node">
<title>Node10</title>
<g id="a_node10"><a xlink:href="backend_8hpp_af1a647431651556204709451bebb5a42.html#af1a647431651556204709451bebb5a42" target="_top" xlink:title="a simple collective barrier ">
<polygon fill="#ffffff" stroke="#000000" points="564,-264.5 564,-283.5 688,-283.5 688,-264.5 564,-264.5"/>
<text text-anchor="middle" x="626" y="-271.5" font-family="Helvetica,sans-Serif" font-size="10.00" fill="#000000">argo::backend::barrier</text>
</a>
</g>
</g>
<!-- Node9&#45;&gt;Node10 -->
<g id="edge9" class="edge">
<title>Node9&#45;&gt;Node10</title>
<path fill="none" stroke="#191970" d="M489.7121,-213.381C508.2237,-225.9417 535.9051,-243.4454 562,-255 570.1604,-258.6134 579.2019,-261.772 587.8561,-264.4225"/>
<polygon fill="#191970" stroke="#191970" points="491.6289,-210.4513 481.4084,-207.6596 487.6572,-216.2155 491.6289,-210.4513"/>
</g>
<!-- Node11 -->
<g id="node11" class="node">
<title>Node11</title>
<g id="a_node11"><a xlink:href="swdsm_8h_acd175d6d8efa5cce6963bae64891a490.html#acd175d6d8efa5cce6963bae64891a490" target="_top" xlink:title="Allocates memory in global address space. ">
<polygon fill="#ffffff" stroke="#000000" points="584.5,-226.5 584.5,-245.5 667.5,-245.5 667.5,-226.5 584.5,-226.5"/>
<text text-anchor="middle" x="626" y="-233.5" font-family="Helvetica,sans-Serif" font-size="10.00" fill="#000000">argo_gmalloc</text>
</a>
</g>
</g>
<!-- Node9&#45;&gt;Node11 -->
<g id="edge10" class="edge">
<title>Node9&#45;&gt;Node11</title>
<path fill="none" stroke="#191970" d="M517.7616,-209.968C539.9029,-215.2931 565.6116,-221.4762 586.4166,-226.4799"/>
<polygon fill="#191970" stroke="#191970" points="518.4113,-206.5245 507.8701,-207.589 516.7744,-213.3304 518.4113,-206.5245"/>
</g>
<!-- Node12 -->
<g id="node12" class="node">
<title>Node12</title>
<g id="a_node12"><a xlink:href="swdsm_8cpp_aa954d5e0bcaee69ff6e03e697bcaf68b.html#aa954d5e0bcaee69ff6e03e697bcaf68b" target="_top" xlink:title="shut down ArgoDSM system ">
<polygon fill="#ffffff" stroke="#000000" points="586.5,-150.5 586.5,-169.5 665.5,-169.5 665.5,-150.5 586.5,-150.5"/>
<text text-anchor="middle" x="626" y="-157.5" font-family="Helvetica,sans-Serif" font-size="10.00" fill="#000000">argo_finalize</text>
</a>
</g>
</g>
<!-- Node9&#45;&gt;Node12 -->
<g id="edge11" class="edge">
<title>Node9&#45;&gt;Node12</title>
<path fill="none" stroke="#191970" d="M517.7616,-186.032C539.9029,-180.7069 565.6116,-174.5238 586.4166,-169.5201"/>
<polygon fill="#191970" stroke="#191970" points="516.7744,-182.6696 507.8701,-188.411 518.4113,-189.4755 516.7744,-182.6696"/>
</g>
<!-- Node14 -->
<g id="node14" class="node">
<title>Node14</title>
<g id="a_node14"><a xlink:href="swdsm_8h_a0c6b51af2b87ddf7eb04aa7d4e0e836e.html#a0c6b51af2b87ddf7eb04aa7d4e0e836e" target="_top" xlink:title="Resets current coherence. Collective function called by all threads on all nodes. ...">
<polygon fill="#ffffff" stroke="#000000" points="564,-188.5 564,-207.5 688,-207.5 688,-188.5 564,-188.5"/>
<text text-anchor="middle" x="626" y="-195.5" font-family="Helvetica,sans-Serif" font-size="10.00" fill="#000000">argo_reset_coherence</text>
</a>
</g>
</g>
<!-- Node9&#45;&gt;Node14 -->
<g id="edge13" class="edge">
<title>Node9&#45;&gt;Node14</title>
<path fill="none" stroke="#191970" d="M536.5403,-198C545.6296,-198 554.9068,-198 563.8793,-198"/>
<polygon fill="#191970" stroke="#191970" points="536.3845,-194.5001 526.3845,-198 536.3844,-201.5001 536.3845,-194.5001"/>
</g>
<!-- Node13 -->
<g id="node13" class="node">
<title>Node13</title>
<g id="a_node13"><a xlink:href="swdsm_8h_a18cc89a7368e30281ea4b1d214a1b1ff.html#a18cc89a7368e30281ea4b1d214a1b1ff" target="_top" xlink:title="Pins and registers the local thread. ">
<polygon fill="#ffffff" stroke="#000000" points="729,-150.5 729,-169.5 830,-169.5 830,-150.5 729,-150.5"/>
<text text-anchor="middle" x="779.5" y="-157.5" font-family="Helvetica,sans-Serif" font-size="10.00" fill="#000000">argo_pin_threads</text>
</a>
</g>
</g>
<!-- Node12&#45;&gt;Node13 -->
<g id="edge12" class="edge">
<title>Node12&#45;&gt;Node13</title>
<path fill="none" stroke="#191970" d="M675.8002,-160C692.7693,-160 711.7517,-160 728.7913,-160"/>
<polygon fill="#191970" stroke="#191970" points="675.5301,-156.5001 665.5301,-160 675.53,-163.5001 675.5301,-156.5001"/>
</g>
<!-- Node14&#45;&gt;Node5 -->
<g id="edge14" class="edge">
<title>Node14&#45;&gt;Node5</title>
<path fill="none" stroke="#191970" d="M670.3552,-210.4589C676.9799,-212.5241 683.6977,-214.7347 690,-217 713.9875,-225.6218 740.8157,-237.2934 758.7878,-245.4173"/>
<polygon fill="#191970" stroke="#191970" points="671.3609,-207.1065 660.7753,-207.5476 669.3256,-213.8041 671.3609,-207.1065"/>
</g>
<!-- Node16 -->
<g id="node16" class="node">
<title>Node16</title>
<g id="a_node16"><a xlink:href="backend_8hpp_a1032f833666c3f810ac1c6210197d426.html#a1032f833666c3f810ac1c6210197d426" target="_top" xlink:title="causes a node to self&#45;invalidate its cache, and thus getting any updated values on subsequent accesse...">
<polygon fill="#ffffff" stroke="#000000" points="562,-94.5 562,-113.5 690,-113.5 690,-94.5 562,-94.5"/>
<text text-anchor="middle" x="626" y="-101.5" font-family="Helvetica,sans-Serif" font-size="10.00" fill="#000000">argo::backend::acquire</text>
</a>
</g>
</g>
<!-- Node15&#45;&gt;Node16 -->
<g id="edge16" class="edge">
<title>Node15&#45;&gt;Node16</title>
<path fill="none" stroke="#191970" d="M518.5231,-104C532.3033,-104 547.4182,-104 561.8475,-104"/>
<polygon fill="#191970" stroke="#191970" points="518.2789,-100.5001 508.2789,-104 518.2789,-107.5001 518.2789,-100.5001"/>
</g>
<!-- Node18 -->
<g id="node18" class="node">
<title>Node18</title>
<g id="a_node18"><a xlink:href="swdsm_8h_ac0b665f72bc2a28dc663ed204c526e1b.html#ac0b665f72bc2a28dc663ed204c526e1b" target="_top" xlink:title="acquire&#45;release function for ArgoDSM (Both acquire and release according to Release Consistency) ...">
<polygon fill="#ffffff" stroke="#000000" points="586.5,-56.5 586.5,-75.5 665.5,-75.5 665.5,-56.5 586.5,-56.5"/>
<text text-anchor="middle" x="626" y="-63.5" font-family="Helvetica,sans-Serif" font-size="10.00" fill="#000000">argo_acq_rel</text>
</a>
</g>
</g>
<!-- Node15&#45;&gt;Node18 -->
<g id="edge19" class="edge">
<title>Node15&#45;&gt;Node18</title>
<path fill="none" stroke="#191970" d="M517.7616,-92.032C539.9029,-86.7069 565.6116,-80.5238 586.4166,-75.5201"/>
<polygon fill="#191970" stroke="#191970" points="516.7744,-88.6696 507.8701,-94.411 518.4113,-95.4755 516.7744,-88.6696"/>
</g>
<!-- Node16&#45;&gt;Node16 -->
<g id="edge17" class="edge">
<title>Node16&#45;&gt;Node16</title>
<path fill="none" stroke="#191970" d="M597.6275,-122.6539C598.8135,-127.9368 608.271,-132 626,-132 653.0156,-132 660.8248,-122.5653 649.4276,-113.7571"/>
<polygon fill="#191970" stroke="#191970" points="600.7735,-124.1981 602.5724,-113.7571 594.6551,-120.7974 600.7735,-124.1981"/>
</g>
<!-- Node17 -->
<g id="node17" class="node">
<title>Node17</title>
<g id="a_node17"><a xlink:href="singlenode_8cpp_aab3cabb3e1c0b9696b339416b684f78c.html#aab3cabb3e1c0b9696b339416b684f78c" target="_top" xlink:title="argo::backend::init">
<polygon fill="#ffffff" stroke="#000000" points="726,-47.5 726,-66.5 833,-66.5 833,-47.5 726,-47.5"/>
<text text-anchor="middle" x="779.5" y="-54.5" font-family="Helvetica,sans-Serif" font-size="10.00" fill="#000000">argo::backend::init</text>
</a>
</g>
</g>
<!-- Node16&#45;&gt;Node17 -->
<g id="edge18" class="edge">
<title>Node16&#45;&gt;Node17</title>
<path fill="none" stroke="#191970" d="M668.2842,-91.5419C675.5336,-89.3789 682.9877,-87.1377 690,-85 709.7781,-78.9708 731.9594,-72.0326 749.2918,-66.5712"/>
<polygon fill="#191970" stroke="#191970" points="667.1735,-88.2207 658.5861,-94.4261 669.1689,-94.9302 667.1735,-88.2207"/>
</g>
<!-- Node19&#45;&gt;Node18 -->
<g id="edge25" class="edge">
<title>Node19&#45;&gt;Node18</title>
<path fill="none" stroke="#191970" d="M518.4252,-66C540.3886,-66 565.7577,-66 586.3418,-66"/>
<polygon fill="#191970" stroke="#191970" points="518.2789,-62.5001 508.2789,-66 518.2788,-69.5001 518.2789,-62.5001"/>
</g>
<!-- Node20 -->
<g id="node20" class="node">
<title>Node20</title>
<g id="a_node20"><a xlink:href="backend_8hpp_a8953c9cd9d3c56306740b6c9b97513a2.html#a8953c9cd9d3c56306740b6c9b97513a2" target="_top" xlink:title="causes a node to self&#45;downgrade its cache, making all previous writes to be propagated to the homenod...">
<polygon fill="#ffffff" stroke="#000000" points="562,-.5 562,-19.5 690,-19.5 690,-.5 562,-.5"/>
<text text-anchor="middle" x="626" y="-7.5" font-family="Helvetica,sans-Serif" font-size="10.00" fill="#000000">argo::backend::release</text>
</a>
</g>
</g>
<!-- Node19&#45;&gt;Node20 -->
<g id="edge22" class="edge">
<title>Node19&#45;&gt;Node20</title>
<path fill="none" stroke="#191970" d="M504.8955,-52.9231C533.7787,-42.686 573.2706,-28.6889 599.1933,-19.5011"/>
<polygon fill="#191970" stroke="#191970" points="503.4174,-49.7336 495.1612,-56.3733 505.7559,-56.3314 503.4174,-49.7336"/>
</g>
<!-- Node20&#45;&gt;Node17 -->
<g id="edge24" class="edge">
<title>Node20&#45;&gt;Node17</title>
<path fill="none" stroke="#191970" d="M666.8303,-22.5018C692.3583,-30.3182 724.7319,-40.2306 748.2201,-47.4224"/>
<polygon fill="#191970" stroke="#191970" points="667.6496,-19.0923 657.063,-19.5112 665.6001,-25.7856 667.6496,-19.0923"/>
</g>
<!-- Node20&#45;&gt;Node20 -->
<g id="edge23" class="edge">
<title>Node20&#45;&gt;Node20</title>
<path fill="none" stroke="#191970" d="M597.6275,-28.6539C598.8135,-33.9368 608.271,-38 626,-38 653.0156,-38 660.8248,-28.5653 649.4276,-19.7571"/>
<polygon fill="#191970" stroke="#191970" points="600.7735,-30.1981 602.5724,-19.7571 594.6551,-26.7974 600.7735,-30.1981"/>
</g>
</g>
</svg>
        <g id="navigator" transform="translate(0 0)" fill="#404254">
                <rect fill="#f2f5e9" fill-opacity="0.5" stroke="#606060" stroke-width=".5" x="0" y="0" width="60" height="60"/>
                <use id="zoomplus" xlink:href="#zoomPlus" x="17" y="9" onmousedown="handleZoom(evt,'in')"/>
                <use id="zoomminus" xlink:href="#zoomMin" x="42" y="9" onmousedown="handleZoom(evt,'out')"/>
                <use id="reset" xlink:href="#resetDef" x="30" y="36" onmousedown="handleReset()"/>
                <g id="arrowUp" xlink:href="#dirArrow" transform="translate(30 24)" onmousedown="handlePan(0,-1)">
                  <use xlink:href="#rim" fill="#404040">
                        <set attributeName="fill" to="#808080" begin="arrowUp.mouseover" end="arrowUp.mouseout"/>
                  </use>
                  <path fill="none" stroke="white" stroke-width="1.5" d="M0,-3.0v7 M-2.5,-0.5L0,-3.0L2.5,-0.5"/>
                </g>
                <g id="arrowRight" xlink:href="#dirArrow" transform="rotate(90) translate(36 -43)" onmousedown="handlePan(1,0)">
                  <use xlink:href="#rim" fill="#404040">
                        <set attributeName="fill" to="#808080" begin="arrowRight.mouseover" end="arrowRight.mouseout"/>
                  </use>
                  <path fill="none" stroke="white" stroke-width="1.5" d="M0,-3.0v7 M-2.5,-0.5L0,-3.0L2.5,-0.5"/>
                </g>
                <g id="arrowDown" xlink:href="#dirArrow" transform="rotate(180) translate(-30 -48)" onmousedown="handlePan(0,1)">
                  <use xlink:href="#rim" fill="#404040">
                        <set attributeName="fill" to="#808080" begin="arrowDown.mouseover" end="arrowDown.mouseout"/>
                  </use>
                  <path fill="none" stroke="white" stroke-width="1.5" d="M0,-3.0v7 M-2.5,-0.5L0,-3.0L2.5,-0.5"/>
                </g>
                <g id="arrowLeft" xlink:href="#dirArrow" transform="rotate(270) translate(-36 17)" onmousedown="handlePan(-1,0)">
                  <use xlink:href="#rim" fill="#404040">
                        <set attributeName="fill" to="#808080" begin="arrowLeft.mouseover" end="arrowLeft.mouseout"/>
                  </use>
                  <path fill="none" stroke="white" stroke-width="1.5" d="M0,-3.0v7 M-2.5,-0.5L0,-3.0L2.5,-0.5"/>
                </g>
        </g>
        <svg viewBox="0 0 15 15" width="100%" height="30px" preserveAspectRatio="xMaxYMin meet">
         <g id="arrow_out" transform="scale(0.3 0.3)">
          <a xlink:href="classwrite__buffer_ae065d3ee59035ad508eb8ce6670d2c89_ae065d3ee59035ad508eb8ce6670d2c89_icgraph_org.svg" target="_base">
           <rect id="button" ry="5" rx="5" y="6" x="6" height="38" width="38"
                fill="#f2f5e9" fill-opacity="0.5" stroke="#606060" stroke-width="1.0"/>
           <path id="arrow"
             d="M 11.500037,31.436501 C 11.940474,20.09759 22.043105,11.32322 32.158766,21.979434 L 37.068811,17.246167 C 37.068811,17.246167 37.088388,32 37.088388,32 L 22.160133,31.978069 C 22.160133,31.978069 26.997745,27.140456 26.997745,27.140456 C 18.528582,18.264221 13.291696,25.230495 11.500037,31.436501 z"
             style="fill:#404040;"/>
          </a>
         </g>
        </svg>
</svg>
