<?xml version="1.0" encoding="UTF-8" standalone="no"?>
<!DOCTYPE svg PUBLIC "-//W3C//DTD SVG 1.1//EN"
 "http://www.w3.org/Graphics/SVG/1.1/DTD/svg11.dtd">
<!-- Generated by graphviz version 2.40.1 (20161225.0304)
 -->
<!-- Title: argo::signal::signal_handler::install_argo_handler Pages: 1 -->
<svg width="287pt" height="50pt"
 viewBox="0.00 0.00 287.00 50.00" xmlns="http://www.w3.org/2000/svg" xmlns:xlink="http://www.w3.org/1999/xlink">
<g id="graph0" class="graph" transform="scale(1 1) rotate(0) translate(4 46)">
<title>argo::signal::signal_handler::install_argo_handler</title>
<polygon fill="#ffffff" stroke="transparent" points="-4,4 -4,-46 283,-46 283,4 -4,4"/>
<!-- Node0 -->
<g id="node1" class="node">
<title>Node0</title>
<polygon fill="#bfbfbf" stroke="#000000" points="0,-.5 0,-41.5 122,-41.5 122,-.5 0,-.5"/>
<text text-anchor="start" x="8" y="-29.5" font-family="Helvetica,sans-Serif" font-size="10.00" fill="#000000">argo::signal::signal</text>
<text text-anchor="start" x="8" y="-18.5" font-family="Helvetica,sans-Serif" font-size="10.00" fill="#000000">_handler::install_argo</text>
<text text-anchor="middle" x="61" y="-7.5" font-family="Helvetica,sans-Serif" font-size="10.00" fill="#000000">_handler</text>
</g>
<!-- Node1 -->
<g id="node2" class="node">
<title>Node1</title>
<g id="a_node2"><a xlink:href="classargo_1_1signal_1_1signal__handler_a5072dc2ef8e7f83b4aa84e61682b4d96.html#a5072dc2ef8e7f83b4aa84e61682b4d96" target="_top" xlink:title="a generic signal handler function ">
<polygon fill="#ffffff" stroke="#000000" points="158,-.5 158,-41.5 279,-41.5 279,-.5 158,-.5"/>
<text text-anchor="start" x="166" y="-29.5" font-family="Helvetica,sans-Serif" font-size="10.00" fill="#000000">argo::signal::signal</text>
<text text-anchor="start" x="166" y="-18.5" font-family="Helvetica,sans-Serif" font-size="10.00" fill="#000000">_handler::argo_signal</text>
<text text-anchor="middle" x="218.5" y="-7.5" font-family="Helvetica,sans-Serif" font-size="10.00" fill="#000000">_handler</text>
</a>
</g>
</g>
<!-- Node0&#45;&gt;Node1 -->
<g id="edge1" class="edge">
<title>Node0&#45;&gt;Node1</title>
<path fill="none" stroke="#191970" d="M122.3446,-21C130.6345,-21 139.1952,-21 147.6339,-21"/>
<polygon fill="#191970" stroke="#191970" points="147.8405,-24.5001 157.8405,-21 147.8404,-17.5001 147.8405,-24.5001"/>
</g>
</g>
</svg>
