<?xml version="1.0" encoding="UTF-8" standalone="no"?>
<!DOCTYPE svg PUBLIC "-//W3C//DTD SVG 1.1//EN"
 "http://www.w3.org/Graphics/SVG/1.1/DTD/svg11.dtd">
<!-- Generated by graphviz version 2.40.1 (20161225.0304)
 -->
<!-- Title: argo::data_distribution::global_ptr::node Pages: 1 -->
<!--zoomable 759 -->
<svg id="main" version="1.1" xmlns="http://www.w3.org/2000/svg" xmlns:xlink="http://www.w3.org/1999/xlink" xml:space="preserve" onload="init(evt)">
<style type="text/css"><![CDATA[
.edge:hover path { stroke: red; }
.edge:hover polygon { stroke: red; fill: red; }
]]></style>
<script type="text/javascript"><![CDATA[
var edges = document.getElementsByTagName('g');
if (edges && edges.length) {
  for (var i=0;i<edges.length;i++) {
    if (edges[i].id.substr(0,4)=='edge') {
      edges[i].setAttribute('class','edge');
    }
  }
}
]]></script>
        <defs>
                <circle id="rim" cx="0" cy="0" r="7"/>
                <circle id="rim2" cx="0" cy="0" r="3.5"/>
                <g id="zoomPlus">
                        <use xlink:href="#rim" fill="#404040">
                                <set attributeName="fill" to="#808080" begin="zoomplus.mouseover" end="zoomplus.mouseout"/>
                        </use>
                        <path d="M-4,0h8M0,-4v8" fill="none" stroke="white" stroke-width="1.5" pointer-events="none"/>
                </g>
                <g id="zoomMin">
                        <use xlink:href="#rim" fill="#404040">
                                <set attributeName="fill" to="#808080" begin="zoomminus.mouseover" end="zoomminus.mouseout"/>
                        </use>
                        <path d="M-4,0h8" fill="none" stroke="white" stroke-width="1.5" pointer-events="none"/>
                </g>
                <g id="dirArrow">
                        <path fill="none" stroke="white" stroke-width="1.5" d="M0,-3.0v7 M-2.5,-0.5L0,-3.0L2.5,-0.5"/>
                </g>
               <g id="resetDef">
                       <use xlink:href="#rim2" fill="#404040">
                               <set attributeName="fill" to="#808080" begin="reset.mouseover" end="reset.mouseout"/>
                       </use>
               </g>
        </defs>

<script type="text/javascript">
var viewWidth = 1377;
var viewHeight = 759;
var sectionId = 'dynsection-0';
</script>
<script xlink:href="svgpan.js"/>
<svg id="graph" class="graph">
<g id="viewport">
<title>argo::data_distribution::global_ptr::node</title>
<polygon fill="#ffffff" stroke="transparent" points="-4,4 -4,-754.5 1373,-754.5 1373,4 -4,4"/>
<!-- Node1 -->
<g id="node1" class="node">
<title>Node1</title>
<polygon fill="#bfbfbf" stroke="#000000" points="0,-534 0,-564 127,-564 127,-534 0,-534"/>
<text text-anchor="start" x="8" y="-552" font-family="Helvetica,sans-Serif" font-size="10.00" fill="#000000">argo::data_distribution</text>
<text text-anchor="middle" x="63.5" y="-541" font-family="Helvetica,sans-Serif" font-size="10.00" fill="#000000">::global_ptr::node</text>
</g>
<!-- Node2 -->
<g id="node2" class="node">
<title>Node2</title>
<g id="a_node2"><a xlink:href="backend_8hpp_a59102c6814043d49f3b2623f367f6ba2.html#a59102c6814043d49f3b2623f367f6ba2" target="_top" xlink:title="Backend internal type erased atomic exchange function. ">
<polygon fill="#ffffff" stroke="#000000" points="163,-702 163,-732 288,-732 288,-702 163,-702"/>
<text text-anchor="start" x="171" y="-720" font-family="Helvetica,sans-Serif" font-size="10.00" fill="#000000">argo::backend::atomic</text>
<text text-anchor="middle" x="225.5" y="-709" font-family="Helvetica,sans-Serif" font-size="10.00" fill="#000000">::_exchange</text>
</a>
</g>
</g>
<!-- Node1&#45;&gt;Node2 -->
<g id="edge1" class="edge">
<title>Node1&#45;&gt;Node2</title>
<path fill="none" stroke="#191970" d="M74.7524,-573.7147C90.3534,-605.4411 121.4015,-660.2868 163,-693 167.2941,-696.3769 172.1182,-699.3229 177.1328,-701.8822"/>
<polygon fill="#191970" stroke="#191970" points="77.7119,-571.7912 70.2361,-564.2837 71.3985,-574.8146 77.7119,-571.7912"/>
</g>
<!-- Node3 -->
<g id="node3" class="node">
<title>Node3</title>
<g id="a_node3"><a xlink:href="backend_8hpp_ae76ec4647c992bfecf6309787f3dec4a.html#ae76ec4647c992bfecf6309787f3dec4a" target="_top" xlink:title="Backend internal type erased atomic store function. ">
<polygon fill="#ffffff" stroke="#000000" points="163,-635 163,-665 288,-665 288,-635 163,-635"/>
<text text-anchor="start" x="171" y="-653" font-family="Helvetica,sans-Serif" font-size="10.00" fill="#000000">argo::backend::atomic</text>
<text text-anchor="middle" x="225.5" y="-642" font-family="Helvetica,sans-Serif" font-size="10.00" fill="#000000">::_store</text>
</a>
</g>
</g>
<!-- Node1&#45;&gt;Node3 -->
<g id="edge3" class="edge">
<title>Node1&#45;&gt;Node3</title>
<path fill="none" stroke="#191970" d="M87.7301,-571.0275C107.0462,-587.7482 135.3514,-610.4393 163,-626 168.7736,-629.2494 175.0747,-632.2417 181.382,-634.9301"/>
<polygon fill="#191970" stroke="#191970" points="89.8536,-568.2342 80.0303,-564.2652 85.2344,-573.4938 89.8536,-568.2342"/>
</g>
<!-- Node4 -->
<g id="node4" class="node">
<title>Node4</title>
<g id="a_node4"><a xlink:href="backend_8hpp_ad05287a5a2d303811b5c9e7a488bda59.html#ad05287a5a2d303811b5c9e7a488bda59" target="_top" xlink:title="Backend internal type erased atomic store function. ">
<polygon fill="#ffffff" stroke="#000000" points="163,-568 163,-598 288,-598 288,-568 163,-568"/>
<text text-anchor="start" x="171" y="-586" font-family="Helvetica,sans-Serif" font-size="10.00" fill="#000000">argo::backend::atomic</text>
<text text-anchor="middle" x="225.5" y="-575" font-family="Helvetica,sans-Serif" font-size="10.00" fill="#000000">::_load</text>
</a>
</g>
</g>
<!-- Node1&#45;&gt;Node4 -->
<g id="edge5" class="edge">
<title>Node1&#45;&gt;Node4</title>
<path fill="none" stroke="#191970" d="M137.1082,-564.4486C145.7306,-566.2583 154.4657,-568.0916 162.9182,-569.8655"/>
<polygon fill="#191970" stroke="#191970" points="137.5674,-560.9688 127.0617,-562.3401 136.1296,-567.8196 137.5674,-560.9688"/>
</g>
<!-- Node5 -->
<g id="node5" class="node">
<title>Node5</title>
<g id="a_node5"><a xlink:href="backend_8hpp_ab1a7511272b2801f891b966a67b2a4dc.html#ab1a7511272b2801f891b966a67b2a4dc" target="_top" xlink:title="Backend internal type erased atomic CAS function. ">
<polygon fill="#ffffff" stroke="#000000" points="163,-501 163,-531 288,-531 288,-501 163,-501"/>
<text text-anchor="start" x="171" y="-519" font-family="Helvetica,sans-Serif" font-size="10.00" fill="#000000">argo::backend::atomic</text>
<text text-anchor="middle" x="225.5" y="-508" font-family="Helvetica,sans-Serif" font-size="10.00" fill="#000000">::_compare_exchange</text>
</a>
</g>
</g>
<!-- Node1&#45;&gt;Node5 -->
<g id="edge7" class="edge">
<title>Node1&#45;&gt;Node5</title>
<path fill="none" stroke="#191970" d="M137.1082,-534.0057C145.7306,-532.2493 154.4657,-530.47 162.9182,-528.7481"/>
<polygon fill="#191970" stroke="#191970" points="136.1619,-530.6265 127.0617,-536.0522 137.5591,-537.4857 136.1619,-530.6265"/>
</g>
<!-- Node6 -->
<g id="node6" class="node">
<title>Node6</title>
<g id="a_node6"><a xlink:href="mpi_8cpp_a9b1ef8bbaaf93b03603c2ab0ff3b6133.html#a9b1ef8bbaaf93b03603c2ab0ff3b6133" target="_top" xlink:title="Atomic fetch&amp;add for the MPI backend (for internal usage) ">
<polygon fill="#ffffff" stroke="#000000" points="163,-434 163,-464 288,-464 288,-434 163,-434"/>
<text text-anchor="start" x="171" y="-452" font-family="Helvetica,sans-Serif" font-size="10.00" fill="#000000">argo::backend::atomic</text>
<text text-anchor="middle" x="225.5" y="-441" font-family="Helvetica,sans-Serif" font-size="10.00" fill="#000000">::_fetch_add</text>
</a>
</g>
</g>
<!-- Node1&#45;&gt;Node6 -->
<g id="edge9" class="edge">
<title>Node1&#45;&gt;Node6</title>
<path fill="none" stroke="#191970" d="M96.8449,-528.4167C127.8965,-509.2491 173.4481,-481.1308 201.1949,-464.0031"/>
<polygon fill="#191970" stroke="#191970" points="94.7752,-525.5811 88.1043,-533.8122 98.4521,-531.5377 94.7752,-525.5811"/>
</g>
<!-- Node10 -->
<g id="node10" class="node">
<title>Node10</title>
<g id="a_node10"><a xlink:href="swdsm_8h_ab2e5fbbe4d1f44d25619f290dc37dd3e.html#ab2e5fbbe4d1f44d25619f290dc37dd3e" target="_top" xlink:title="Gives homenode for a given address. ">
<polygon fill="#ffffff" stroke="#000000" points="181,-367.5 181,-386.5 270,-386.5 270,-367.5 181,-367.5"/>
<text text-anchor="middle" x="225.5" y="-374.5" font-family="Helvetica,sans-Serif" font-size="10.00" fill="#000000">get_homenode</text>
</a>
</g>
</g>
<!-- Node1&#45;&gt;Node10 -->
<g id="edge17" class="edge">
<title>Node1&#45;&gt;Node10</title>
<path fill="none" stroke="#191970" d="M79.7781,-525.4417C98.3396,-499.4122 130.3592,-456.9531 163,-425 178.1539,-410.1654 197.8694,-395.6981 211.0674,-386.5916"/>
<polygon fill="#191970" stroke="#191970" points="76.7016,-523.731 73.795,-533.9194 82.4207,-527.7673 76.7016,-523.731"/>
</g>
<!-- Node2&#45;&gt;Node2 -->
<g id="edge2" class="edge">
<title>Node2&#45;&gt;Node2</title>
<path fill="none" stroke="#191970" d="M197.0699,-742.4579C200.5985,-747.179 210.0752,-750.5 225.5,-750.5 250.8125,-750.5 260.1069,-741.5566 253.3833,-732.159"/>
<polygon fill="#191970" stroke="#191970" points="200.5815,-742.3305 197.6167,-732.159 193.5914,-741.9594 200.5815,-742.3305"/>
</g>
<!-- Node3&#45;&gt;Node3 -->
<g id="edge4" class="edge">
<title>Node3&#45;&gt;Node3</title>
<path fill="none" stroke="#191970" d="M197.0699,-675.4579C200.5985,-680.179 210.0752,-683.5 225.5,-683.5 250.8125,-683.5 260.1069,-674.5566 253.3833,-665.159"/>
<polygon fill="#191970" stroke="#191970" points="200.5815,-675.3305 197.6167,-665.159 193.5914,-674.9594 200.5815,-675.3305"/>
</g>
<!-- Node4&#45;&gt;Node4 -->
<g id="edge6" class="edge">
<title>Node4&#45;&gt;Node4</title>
<path fill="none" stroke="#191970" d="M197.0699,-608.4579C200.5985,-613.179 210.0752,-616.5 225.5,-616.5 250.8125,-616.5 260.1069,-607.5566 253.3833,-598.159"/>
<polygon fill="#191970" stroke="#191970" points="200.5815,-608.3305 197.6167,-598.159 193.5914,-607.9594 200.5815,-608.3305"/>
</g>
<!-- Node5&#45;&gt;Node5 -->
<g id="edge8" class="edge">
<title>Node5&#45;&gt;Node5</title>
<path fill="none" stroke="#191970" d="M197.0699,-541.4579C200.5985,-546.179 210.0752,-549.5 225.5,-549.5 250.8125,-549.5 260.1069,-540.5566 253.3833,-531.159"/>
<polygon fill="#191970" stroke="#191970" points="200.5815,-541.3305 197.6167,-531.159 193.5914,-540.9594 200.5815,-541.3305"/>
</g>
<!-- Node6&#45;&gt;Node6 -->
<g id="edge10" class="edge">
<title>Node6&#45;&gt;Node6</title>
<path fill="none" stroke="#191970" d="M197.0699,-474.4579C200.5985,-479.179 210.0752,-482.5 225.5,-482.5 250.8125,-482.5 260.1069,-473.5566 253.3833,-464.159"/>
<polygon fill="#191970" stroke="#191970" points="200.5815,-474.3305 197.6167,-464.159 193.5914,-473.9594 200.5815,-474.3305"/>
</g>
<!-- Node7 -->
<g id="node7" class="node">
<title>Node7</title>
<g id="a_node7"><a xlink:href="backend_8hpp_a42d4f07adf3b439564928f89022b74b5.html#a42d4f07adf3b439564928f89022b74b5" target="_top" xlink:title="Backend internal type erased atomic (post)increment function for signed integers. ...">
<polygon fill="#ffffff" stroke="#000000" points="324,-554 324,-584 449,-584 449,-554 324,-554"/>
<text text-anchor="start" x="332" y="-572" font-family="Helvetica,sans-Serif" font-size="10.00" fill="#000000">argo::backend::atomic</text>
<text text-anchor="middle" x="386.5" y="-561" font-family="Helvetica,sans-Serif" font-size="10.00" fill="#000000">::_fetch_add_int</text>
</a>
</g>
</g>
<!-- Node6&#45;&gt;Node7 -->
<g id="edge11" class="edge">
<title>Node6&#45;&gt;Node7</title>
<path fill="none" stroke="#191970" d="M260.5982,-469.7895C270.0525,-476.2553 279.8957,-483.8472 288,-492 308.0752,-512.1953 301.687,-527.3084 324,-545 328.2806,-548.394 333.0961,-551.3508 338.1058,-553.9164"/>
<polygon fill="#191970" stroke="#191970" points="262.3628,-466.7608 252.086,-464.1843 258.513,-472.6071 262.3628,-466.7608"/>
</g>
<!-- Node8 -->
<g id="node8" class="node">
<title>Node8</title>
<g id="a_node8"><a xlink:href="backend_8hpp_ab1a86cdd5235a54afdf0ac3d9f9f6f9c.html#ab1a86cdd5235a54afdf0ac3d9f9f6f9c" target="_top" xlink:title="Backend internal type erased atomic (post)increment function for unsigned integers. ">
<polygon fill="#ffffff" stroke="#000000" points="324,-487 324,-517 449,-517 449,-487 324,-487"/>
<text text-anchor="start" x="332" y="-505" font-family="Helvetica,sans-Serif" font-size="10.00" fill="#000000">argo::backend::atomic</text>
<text text-anchor="middle" x="386.5" y="-494" font-family="Helvetica,sans-Serif" font-size="10.00" fill="#000000">::_fetch_add_uint</text>
</a>
</g>
</g>
<!-- Node6&#45;&gt;Node8 -->
<g id="edge13" class="edge">
<title>Node6&#45;&gt;Node8</title>
<path fill="none" stroke="#191970" d="M280.8757,-467.2293C300.3739,-473.6479 322.0577,-480.7861 340.6802,-486.9165"/>
<polygon fill="#191970" stroke="#191970" points="281.7985,-463.8483 271.2055,-464.0459 279.6096,-470.4973 281.7985,-463.8483"/>
</g>
<!-- Node9 -->
<g id="node9" class="node">
<title>Node9</title>
<g id="a_node9"><a xlink:href="backend_8hpp_a62d5f2da9f560d2d8a956be88861af7b.html#a62d5f2da9f560d2d8a956be88861af7b" target="_top" xlink:title="Backend internal type erased atomic (post)increment function for floating point numbers. ">
<polygon fill="#ffffff" stroke="#000000" points="324,-420 324,-450 449,-450 449,-420 324,-420"/>
<text text-anchor="start" x="332" y="-438" font-family="Helvetica,sans-Serif" font-size="10.00" fill="#000000">argo::backend::atomic</text>
<text text-anchor="middle" x="386.5" y="-427" font-family="Helvetica,sans-Serif" font-size="10.00" fill="#000000">::_fetch_add_float</text>
</a>
</g>
</g>
<!-- Node6&#45;&gt;Node9 -->
<g id="edge15" class="edge">
<title>Node6&#45;&gt;Node9</title>
<path fill="none" stroke="#191970" d="M298.2184,-442.6767C306.8129,-441.9293 315.5268,-441.1716 323.9633,-440.438"/>
<polygon fill="#191970" stroke="#191970" points="297.867,-439.1939 288.2078,-443.5471 298.4735,-446.1676 297.867,-439.1939"/>
</g>
<!-- Node7&#45;&gt;Node7 -->
<g id="edge12" class="edge">
<title>Node7&#45;&gt;Node7</title>
<path fill="none" stroke="#191970" d="M358.0699,-594.4579C361.5985,-599.179 371.0752,-602.5 386.5,-602.5 411.8125,-602.5 421.1069,-593.5566 414.3833,-584.159"/>
<polygon fill="#191970" stroke="#191970" points="361.5815,-594.3305 358.6167,-584.159 354.5914,-593.9594 361.5815,-594.3305"/>
</g>
<!-- Node8&#45;&gt;Node8 -->
<g id="edge14" class="edge">
<title>Node8&#45;&gt;Node8</title>
<path fill="none" stroke="#191970" d="M358.0699,-527.4579C361.5985,-532.179 371.0752,-535.5 386.5,-535.5 411.8125,-535.5 421.1069,-526.5566 414.3833,-517.159"/>
<polygon fill="#191970" stroke="#191970" points="361.5815,-527.3305 358.6167,-517.159 354.5914,-526.9594 361.5815,-527.3305"/>
</g>
<!-- Node9&#45;&gt;Node9 -->
<g id="edge16" class="edge">
<title>Node9&#45;&gt;Node9</title>
<path fill="none" stroke="#191970" d="M358.0699,-460.4579C361.5985,-465.179 371.0752,-468.5 386.5,-468.5 411.8125,-468.5 421.1069,-459.5566 414.3833,-450.159"/>
<polygon fill="#191970" stroke="#191970" points="361.5815,-460.3305 358.6167,-450.159 354.5914,-459.9594 361.5815,-460.3305"/>
</g>
<!-- Node11 -->
<g id="node11" class="node">
<title>Node11</title>
<g id="a_node11"><a xlink:href="swdsm_8h_adb24c11067d42b9bc8515a78a524e2c7.html#adb24c11067d42b9bc8515a78a524e2c7" target="_top" xlink:title="Catches memory accesses to memory not yet cached in ArgoDSM. Launches remote requests for memory not ...">
<polygon fill="#ffffff" stroke="#000000" points="834.5,-264.5 834.5,-283.5 887.5,-283.5 887.5,-264.5 834.5,-264.5"/>
<text text-anchor="middle" x="861" y="-271.5" font-family="Helvetica,sans-Serif" font-size="10.00" fill="#000000">handler</text>
</a>
</g>
</g>
<!-- Node10&#45;&gt;Node11 -->
<g id="edge18" class="edge">
<title>Node10&#45;&gt;Node11</title>
<path fill="none" stroke="#191970" d="M280.3015,-382.8384C358.1036,-389.6615 504.6178,-397.0845 626,-372 712.3622,-354.1526 806.8372,-304.6063 844.3323,-283.6056"/>
<polygon fill="#191970" stroke="#191970" points="280.5215,-379.3441 270.2461,-381.926 279.8888,-386.3154 280.5215,-379.3441"/>
</g>
<!-- Node14 -->
<g id="node14" class="node">
<title>Node14</title>
<g id="a_node14"><a xlink:href="swdsm_8h_aa5da42b70088b546b0f16d0a8031cfd1.html#aa5da42b70088b546b0f16d0a8031cfd1" target="_top" xlink:title="Gets the offset of an address on the local nodes part of the global memory. ">
<polygon fill="#ffffff" stroke="#000000" points="518.5,-325.5 518.5,-344.5 592.5,-344.5 592.5,-325.5 518.5,-325.5"/>
<text text-anchor="middle" x="555.5" y="-332.5" font-family="Helvetica,sans-Serif" font-size="10.00" fill="#000000">peek_offset</text>
</a>
</g>
</g>
<!-- Node10&#45;&gt;Node14 -->
<g id="edge21" class="edge">
<title>Node10&#45;&gt;Node14</title>
<path fill="none" stroke="#191970" d="M280.0042,-370.0631C347.3512,-361.4917 460.1437,-347.1363 518.3088,-339.7334"/>
<polygon fill="#191970" stroke="#191970" points="279.4833,-366.6011 270.0053,-371.3357 280.3672,-373.5451 279.4833,-366.6011"/>
</g>
<!-- Node15 -->
<g id="node15" class="node">
<title>Node15</title>
<g id="a_node15"><a xlink:href="swdsm_8h_a3b6a6b2b244edb9faa79814ce8e5e9f5.html#a3b6a6b2b244edb9faa79814ce8e5e9f5" target="_top" xlink:title="stores a page remotely &#45; only writing back what has been written locally since last synchronization p...">
<polygon fill="#ffffff" stroke="#000000" points="343.5,-230.5 343.5,-249.5 429.5,-249.5 429.5,-230.5 343.5,-230.5"/>
<text text-anchor="middle" x="386.5" y="-237.5" font-family="Helvetica,sans-Serif" font-size="10.00" fill="#000000">storepageDIFF</text>
</a>
</g>
</g>
<!-- Node10&#45;&gt;Node15 -->
<g id="edge23" class="edge">
<title>Node10&#45;&gt;Node15</title>
<path fill="none" stroke="#191970" d="M244.5914,-360.7545C278.3461,-332.0316 347.5823,-273.1163 374.9758,-249.8063"/>
<polygon fill="#191970" stroke="#191970" points="242.1689,-358.2202 236.8212,-367.3664 246.7053,-363.5514 242.1689,-358.2202"/>
</g>
<!-- Node12 -->
<g id="node12" class="node">
<title>Node12</title>
<g id="a_node12"><a xlink:href="swdsm_8h_a31ba60e8ddccfa922da8d7e6a10f7b1d.html#a31ba60e8ddccfa922da8d7e6a10f7b1d" target="_top" xlink:title="Initializes ArgoDSM runtime. ">
<polygon fill="#ffffff" stroke="#000000" points="1132.5,-226.5 1132.5,-245.5 1218.5,-245.5 1218.5,-226.5 1132.5,-226.5"/>
<text text-anchor="middle" x="1175.5" y="-233.5" font-family="Helvetica,sans-Serif" font-size="10.00" fill="#000000">argo_initialize</text>
</a>
</g>
</g>
<!-- Node11&#45;&gt;Node12 -->
<g id="edge19" class="edge">
<title>Node11&#45;&gt;Node12</title>
<path fill="none" stroke="#191970" d="M898.0242,-272.4309C943.2777,-270.1645 1022.0951,-265.0898 1089,-255 1104.9636,-252.5926 1122.3838,-248.9636 1137.3802,-245.5202"/>
<polygon fill="#191970" stroke="#191970" points="897.631,-268.9457 887.811,-272.9229 897.9679,-275.9375 897.631,-268.9457"/>
</g>
<!-- Node13 -->
<g id="node13" class="node">
<title>Node13</title>
<g id="a_node13"><a xlink:href="backend_8hpp_aab3cabb3e1c0b9696b339416b684f78c.html#aab3cabb3e1c0b9696b339416b684f78c" target="_top" xlink:title="initialize backend ">
<polygon fill="#ffffff" stroke="#000000" points="1262,-226.5 1262,-245.5 1369,-245.5 1369,-226.5 1262,-226.5"/>
<text text-anchor="middle" x="1315.5" y="-233.5" font-family="Helvetica,sans-Serif" font-size="10.00" fill="#000000">argo::backend::init</text>
</a>
</g>
</g>
<!-- Node12&#45;&gt;Node13 -->
<g id="edge20" class="edge">
<title>Node12&#45;&gt;Node13</title>
<path fill="none" stroke="#191970" d="M1228.8168,-236C1239.6429,-236 1251.0344,-236 1261.8712,-236"/>
<polygon fill="#191970" stroke="#191970" points="1228.647,-232.5001 1218.647,-236 1228.6469,-239.5001 1228.647,-232.5001"/>
</g>
<!-- Node14&#45;&gt;Node14 -->
<g id="edge22" class="edge">
<title>Node14&#45;&gt;Node14</title>
<path fill="none" stroke="#191970" d="M526.3809,-353.6539C527.5981,-358.9368 537.3044,-363 555.5,-363 583.2266,-363 591.2413,-353.5653 579.5441,-344.7571"/>
<polygon fill="#191970" stroke="#191970" points="529.5412,-355.1775 531.4559,-344.7571 523.4609,-351.7091 529.5412,-355.1775"/>
</g>
<!-- Node15&#45;&gt;Node14 -->
<g id="edge28" class="edge">
<title>Node15&#45;&gt;Node14</title>
<path fill="none" stroke="#191970" d="M403.6005,-256.6451C422.189,-273.8622 453.4765,-300.3736 485,-316 495.3353,-321.1233 507.2311,-325.005 518.272,-327.8805"/>
<polygon fill="#191970" stroke="#191970" points="405.8963,-253.9992 396.2229,-249.6777 401.09,-259.0884 405.8963,-253.9992"/>
</g>
<!-- Node16 -->
<g id="node16" class="node">
<title>Node16</title>
<g id="a_node16"><a xlink:href="backend_8hpp_a0fb29a8253f0d9aefc999d93414b1758.html#a0fb29a8253f0d9aefc999d93414b1758" target="_top" xlink:title="backend internal type erased function for selective acquire ">
<polygon fill="#ffffff" stroke="#000000" points="485,-258 485,-288 626,-288 626,-258 485,-258"/>
<text text-anchor="start" x="493" y="-276" font-family="Helvetica,sans-Serif" font-size="10.00" fill="#000000">argo::backend::_selective</text>
<text text-anchor="middle" x="555.5" y="-265" font-family="Helvetica,sans-Serif" font-size="10.00" fill="#000000">_acquire</text>
</a>
</g>
</g>
<!-- Node15&#45;&gt;Node16 -->
<g id="edge24" class="edge">
<title>Node15&#45;&gt;Node16</title>
<path fill="none" stroke="#191970" d="M439.7431,-250.3966C454.0745,-253.195 469.8022,-256.2661 484.9188,-259.2179"/>
<polygon fill="#191970" stroke="#191970" points="440.0685,-246.8941 429.5831,-248.4127 438.727,-253.7643 440.0685,-246.8941"/>
</g>
<!-- Node17 -->
<g id="node17" class="node">
<title>Node17</title>
<g id="a_node17"><a xlink:href="backend_8hpp_ac3350bde3c8baf64753e515336fad3be.html#ac3350bde3c8baf64753e515336fad3be" target="_top" xlink:title="backend internal type erased function for selective release ">
<polygon fill="#ffffff" stroke="#000000" points="485,-191 485,-221 626,-221 626,-191 485,-191"/>
<text text-anchor="start" x="493" y="-209" font-family="Helvetica,sans-Serif" font-size="10.00" fill="#000000">argo::backend::_selective</text>
<text text-anchor="middle" x="555.5" y="-198" font-family="Helvetica,sans-Serif" font-size="10.00" fill="#000000">_release</text>
</a>
</g>
</g>
<!-- Node15&#45;&gt;Node17 -->
<g id="edge26" class="edge">
<title>Node15&#45;&gt;Node17</title>
<path fill="none" stroke="#191970" d="M439.7431,-229.2884C454.0745,-226.4051 469.8022,-223.241 484.9188,-220.1998"/>
<polygon fill="#191970" stroke="#191970" points="438.6963,-225.9287 429.5831,-231.3324 440.077,-232.7912 438.6963,-225.9287"/>
</g>
<!-- Node18 -->
<g id="node18" class="node">
<title>Node18</title>
<g id="a_node18"><a xlink:href="classwrite__buffer_aa6a1c2c3aa3a7cde744bbca3b14f599a.html#aa6a1c2c3aa3a7cde744bbca3b14f599a" target="_top" xlink:title="Flushes first _write_back_size elements of the ArgoDSM write buffer to memory. ">
<polygon fill="#ffffff" stroke="#000000" points="503.5,-142 503.5,-172 607.5,-172 607.5,-142 503.5,-142"/>
<text text-anchor="start" x="511.5" y="-160" font-family="Helvetica,sans-Serif" font-size="10.00" fill="#000000">write_buffer::flush</text>
<text text-anchor="middle" x="555.5" y="-149" font-family="Helvetica,sans-Serif" font-size="10.00" fill="#000000">_partial</text>
</a>
</g>
</g>
<!-- Node15&#45;&gt;Node18 -->
<g id="edge29" class="edge">
<title>Node15&#45;&gt;Node18</title>
<path fill="none" stroke="#191970" d="M409.22,-224.9284C428.7604,-212.3839 457.9852,-194.6018 485,-182 492.6498,-178.4316 500.9599,-175.0635 509.1019,-172.0241"/>
<polygon fill="#191970" stroke="#191970" points="407.1929,-222.0715 400.7121,-230.453 411.0051,-227.9423 407.1929,-222.0715"/>
</g>
<!-- Node20 -->
<g id="node20" class="node">
<title>Node20</title>
<g id="a_node20"><a xlink:href="classwrite__buffer_aca2e330e17a38c1cc8d8c60701ce9dd7.html#aca2e330e17a38c1cc8d8c60701ce9dd7" target="_top" xlink:title="Flushes the ArgoDSM write buffer to memory. ">
<polygon fill="#ffffff" stroke="#000000" points="503.5,-103.5 503.5,-122.5 607.5,-122.5 607.5,-103.5 503.5,-103.5"/>
<text text-anchor="middle" x="555.5" y="-110.5" font-family="Helvetica,sans-Serif" font-size="10.00" fill="#000000">write_buffer::flush</text>
</a>
</g>
</g>
<!-- Node15&#45;&gt;Node20 -->
<g id="edge32" class="edge">
<title>Node15&#45;&gt;Node20</title>
<path fill="none" stroke="#191970" d="M398.2617,-221.6283C414.7236,-197.4195 446.9299,-155.2003 485,-132 491.3865,-128.108 498.5739,-125.0007 505.8538,-122.5233"/>
<polygon fill="#191970" stroke="#191970" points="395.1678,-219.961 392.5614,-230.2303 401.0029,-223.8278 395.1678,-219.961"/>
</g>
<!-- Node16&#45;&gt;Node16 -->
<g id="edge25" class="edge">
<title>Node16&#45;&gt;Node16</title>
<path fill="none" stroke="#191970" d="M527.7807,-298.4579C531.221,-303.179 540.4608,-306.5 555.5,-306.5 580.1797,-306.5 589.2418,-297.5566 582.6862,-288.159"/>
<polygon fill="#191970" stroke="#191970" points="531.2921,-298.3266 528.3138,-288.159 524.3014,-297.9647 531.2921,-298.3266"/>
</g>
<!-- Node17&#45;&gt;Node17 -->
<g id="edge27" class="edge">
<title>Node17&#45;&gt;Node17</title>
<path fill="none" stroke="#191970" d="M527.7807,-231.4579C531.221,-236.179 540.4608,-239.5 555.5,-239.5 580.1797,-239.5 589.2418,-230.5566 582.6862,-221.159"/>
<polygon fill="#191970" stroke="#191970" points="531.2921,-231.3266 528.3138,-221.159 524.3014,-230.9647 531.2921,-231.3266"/>
</g>
<!-- Node19 -->
<g id="node19" class="node">
<title>Node19</title>
<g id="a_node19"><a xlink:href="classwrite__buffer_a23b0dbc463111cacbbf83b267e76ac9f.html#a23b0dbc463111cacbbf83b267e76ac9f" target="_top" xlink:title="Adds a new element to the write buffer. ">
<polygon fill="#ffffff" stroke="#000000" points="662,-226.5 662,-245.5 761,-245.5 761,-226.5 662,-226.5"/>
<text text-anchor="middle" x="711.5" y="-233.5" font-family="Helvetica,sans-Serif" font-size="10.00" fill="#000000">write_buffer::add</text>
</a>
</g>
</g>
<!-- Node18&#45;&gt;Node19 -->
<g id="edge30" class="edge">
<title>Node18&#45;&gt;Node19</title>
<path fill="none" stroke="#191970" d="M612.366,-175.9134C617.0322,-177.8426 621.6302,-179.8781 626,-182 653.006,-195.1136 682.0822,-214.8021 698.4134,-226.4308"/>
<polygon fill="#191970" stroke="#191970" points="613.3299,-172.531 602.7435,-172.1094 610.7565,-179.0408 613.3299,-172.531"/>
</g>
<!-- Node19&#45;&gt;Node11 -->
<g id="edge31" class="edge">
<title>Node19&#45;&gt;Node11</title>
<path fill="none" stroke="#191970" d="M759.171,-248.1171C783.9492,-254.4152 813.3175,-261.88 834.1321,-267.1707"/>
<polygon fill="#191970" stroke="#191970" points="759.7792,-244.6604 749.2252,-245.589 758.0547,-251.4447 759.7792,-244.6604"/>
</g>
<!-- Node21 -->
<g id="node21" class="node">
<title>Node21</title>
<g id="a_node21"><a xlink:href="swdsm_8h_aa7c3a2de6bbafdaf68fe6ceb6110ab97.html#aa7c3a2de6bbafdaf68fe6ceb6110ab97" target="_top" xlink:title="Self&#45;Invalidates all memory that has potential writers. ">
<polygon fill="#ffffff" stroke="#000000" points="662.5,-103.5 662.5,-122.5 760.5,-122.5 760.5,-103.5 662.5,-103.5"/>
<text text-anchor="middle" x="711.5" y="-110.5" font-family="Helvetica,sans-Serif" font-size="10.00" fill="#000000">self_invalidation</text>
</a>
</g>
</g>
<!-- Node20&#45;&gt;Node21 -->
<g id="edge33" class="edge">
<title>Node20&#45;&gt;Node21</title>
<path fill="none" stroke="#191970" d="M617.9671,-113C632.7568,-113 648.323,-113 662.4208,-113"/>
<polygon fill="#191970" stroke="#191970" points="617.8797,-109.5001 607.8797,-113 617.8797,-116.5001 617.8797,-109.5001"/>
</g>
<!-- Node22 -->
<g id="node22" class="node">
<title>Node22</title>
<g id="a_node22"><a xlink:href="swdsm_8h_ad3f5bdae81c60ac704dda7372792427d.html#ad3f5bdae81c60ac704dda7372792427d" target="_top" xlink:title="Global barrier for ArgoDSM &#45; needs to be called by every thread in the system that need coherent view...">
<polygon fill="#ffffff" stroke="#000000" points="803,-150.5 803,-169.5 919,-169.5 919,-150.5 803,-150.5"/>
<text text-anchor="middle" x="861" y="-157.5" font-family="Helvetica,sans-Serif" font-size="10.00" fill="#000000">swdsm_argo_barrier</text>
</a>
</g>
</g>
<!-- Node20&#45;&gt;Node22 -->
<g id="edge44" class="edge">
<title>Node20&#45;&gt;Node22</title>
<path fill="none" stroke="#191970" d="M616.6977,-124.3153C631.5095,-126.944 647.3072,-129.6565 662,-132 709.2012,-139.5285 762.8744,-147.0181 802.5745,-152.3544"/>
<polygon fill="#191970" stroke="#191970" points="617.0865,-120.8294 606.6265,-122.5143 615.8542,-127.72 617.0865,-120.8294"/>
</g>
<!-- Node30 -->
<g id="node30" class="node">
<title>Node30</title>
<g id="a_node30"><a xlink:href="swdsm_8h_ad390eb58e1be03ed6a0939fae7ebd20a.html#ad390eb58e1be03ed6a0939fae7ebd20a" target="_top" xlink:title="Release function for ArgoDSM (Release according to Release Consistency) ">
<polygon fill="#ffffff" stroke="#000000" points="671.5,-56.5 671.5,-75.5 751.5,-75.5 751.5,-56.5 671.5,-56.5"/>
<text text-anchor="middle" x="711.5" y="-63.5" font-family="Helvetica,sans-Serif" font-size="10.00" fill="#000000">argo_release</text>
</a>
</g>
</g>
<!-- Node20&#45;&gt;Node30 -->
<g id="edge45" class="edge">
<title>Node20&#45;&gt;Node30</title>
<path fill="none" stroke="#191970" d="M596.6514,-100.6018C622.6477,-92.7696 655.7343,-82.8012 679.7107,-75.5776"/>
<polygon fill="#191970" stroke="#191970" points="595.6341,-97.2528 587.0689,-103.4888 597.6535,-103.9552 595.6341,-97.2528"/>
</g>
<!-- Node21&#45;&gt;Node22 -->
<g id="edge34" class="edge">
<title>Node21&#45;&gt;Node22</title>
<path fill="none" stroke="#191970" d="M751.5968,-125.6057C776.4079,-133.4058 807.7603,-143.2624 830.5352,-150.4224"/>
<polygon fill="#191970" stroke="#191970" points="752.3429,-122.1714 741.7536,-122.5112 750.2435,-128.8492 752.3429,-122.1714"/>
</g>
<!-- Node27 -->
<g id="node27" class="node">
<title>Node27</title>
<g id="a_node27"><a xlink:href="swdsm_8h_a44b8bb7a3c8b47b4f9552c8e10b25e4b.html#a44b8bb7a3c8b47b4f9552c8e10b25e4b" target="_top" xlink:title="acquire function for ArgoDSM (Acquire according to Release Consistency) ">
<polygon fill="#ffffff" stroke="#000000" points="821,-94.5 821,-113.5 901,-113.5 901,-94.5 821,-94.5"/>
<text text-anchor="middle" x="861" y="-101.5" font-family="Helvetica,sans-Serif" font-size="10.00" fill="#000000">argo_acquire</text>
</a>
</g>
</g>
<!-- Node21&#45;&gt;Node27 -->
<g id="edge40" class="edge">
<title>Node21&#45;&gt;Node27</title>
<path fill="none" stroke="#191970" d="M771.063,-109.4143C787.7074,-108.4123 805.4007,-107.3471 820.6509,-106.429"/>
<polygon fill="#191970" stroke="#191970" points="770.6378,-105.9334 760.8662,-110.0281 771.0585,-112.9208 770.6378,-105.9334"/>
</g>
<!-- Node23 -->
<g id="node23" class="node">
<title>Node23</title>
<g id="a_node23"><a xlink:href="backend_8hpp_af1a647431651556204709451bebb5a42.html#af1a647431651556204709451bebb5a42" target="_top" xlink:title="a simple collective barrier ">
<polygon fill="#ffffff" stroke="#000000" points="963,-226.5 963,-245.5 1087,-245.5 1087,-226.5 963,-226.5"/>
<text text-anchor="middle" x="1025" y="-233.5" font-family="Helvetica,sans-Serif" font-size="10.00" fill="#000000">argo::backend::barrier</text>
</a>
</g>
</g>
<!-- Node22&#45;&gt;Node23 -->
<g id="edge35" class="edge">
<title>Node22&#45;&gt;Node23</title>
<path fill="none" stroke="#191970" d="M883.9725,-175.1209C903.7532,-187.6386 933.3914,-205.2188 961,-217 969.4217,-220.5937 978.7404,-223.7788 987.6004,-226.4653"/>
<polygon fill="#191970" stroke="#191970" points="885.6701,-172.0516 875.3634,-169.5976 881.8902,-177.9433 885.6701,-172.0516"/>
</g>
<!-- Node24 -->
<g id="node24" class="node">
<title>Node24</title>
<g id="a_node24"><a xlink:href="swdsm_8cpp_aa954d5e0bcaee69ff6e03e697bcaf68b.html#aa954d5e0bcaee69ff6e03e697bcaf68b" target="_top" xlink:title="shut down ArgoDSM system ">
<polygon fill="#ffffff" stroke="#000000" points="985.5,-150.5 985.5,-169.5 1064.5,-169.5 1064.5,-150.5 985.5,-150.5"/>
<text text-anchor="middle" x="1025" y="-157.5" font-family="Helvetica,sans-Serif" font-size="10.00" fill="#000000">argo_finalize</text>
</a>
</g>
</g>
<!-- Node22&#45;&gt;Node24 -->
<g id="edge36" class="edge">
<title>Node22&#45;&gt;Node24</title>
<path fill="none" stroke="#191970" d="M929.4437,-160C948.5177,-160 968.5981,-160 985.4015,-160"/>
<polygon fill="#191970" stroke="#191970" points="929.2821,-156.5001 919.282,-160 929.282,-163.5001 929.2821,-156.5001"/>
</g>
<!-- Node26 -->
<g id="node26" class="node">
<title>Node26</title>
<g id="a_node26"><a xlink:href="swdsm_8h_a0c6b51af2b87ddf7eb04aa7d4e0e836e.html#a0c6b51af2b87ddf7eb04aa7d4e0e836e" target="_top" xlink:title="Resets current coherence. Collective function called by all threads on all nodes. ...">
<polygon fill="#ffffff" stroke="#000000" points="963,-188.5 963,-207.5 1087,-207.5 1087,-188.5 963,-188.5"/>
<text text-anchor="middle" x="1025" y="-195.5" font-family="Helvetica,sans-Serif" font-size="10.00" fill="#000000">argo_reset_coherence</text>
</a>
</g>
</g>
<!-- Node22&#45;&gt;Node26 -->
<g id="edge38" class="edge">
<title>Node22&#45;&gt;Node26</title>
<path fill="none" stroke="#191970" d="M912.341,-171.8961C935.3929,-177.2374 962.2211,-183.4537 983.9135,-188.4799"/>
<polygon fill="#191970" stroke="#191970" points="912.9161,-168.4367 902.3841,-169.589 911.336,-175.256 912.9161,-168.4367"/>
</g>
<!-- Node25 -->
<g id="node25" class="node">
<title>Node25</title>
<g id="a_node25"><a xlink:href="swdsm_8h_a18cc89a7368e30281ea4b1d214a1b1ff.html#a18cc89a7368e30281ea4b1d214a1b1ff" target="_top" xlink:title="Pins and registers the local thread. ">
<polygon fill="#ffffff" stroke="#000000" points="1125,-150.5 1125,-169.5 1226,-169.5 1226,-150.5 1125,-150.5"/>
<text text-anchor="middle" x="1175.5" y="-157.5" font-family="Helvetica,sans-Serif" font-size="10.00" fill="#000000">argo_pin_threads</text>
</a>
</g>
</g>
<!-- Node24&#45;&gt;Node25 -->
<g id="edge37" class="edge">
<title>Node24&#45;&gt;Node25</title>
<path fill="none" stroke="#191970" d="M1074.8203,-160C1090.9009,-160 1108.7372,-160 1124.8753,-160"/>
<polygon fill="#191970" stroke="#191970" points="1074.5421,-156.5001 1064.5421,-160 1074.5421,-163.5001 1074.5421,-156.5001"/>
</g>
<!-- Node26&#45;&gt;Node12 -->
<g id="edge39" class="edge">
<title>Node26&#45;&gt;Node12</title>
<path fill="none" stroke="#191970" d="M1072.6847,-210.04C1093.7103,-215.3488 1118.0674,-221.4988 1137.7956,-226.4799"/>
<polygon fill="#191970" stroke="#191970" points="1073.5301,-206.6437 1062.9775,-207.589 1071.8164,-213.4307 1073.5301,-206.6437"/>
</g>
<!-- Node28 -->
<g id="node28" class="node">
<title>Node28</title>
<g id="a_node28"><a xlink:href="backend_8hpp_a1032f833666c3f810ac1c6210197d426.html#a1032f833666c3f810ac1c6210197d426" target="_top" xlink:title="causes a node to self&#45;invalidate its cache, and thus getting any updated values on subsequent accesse...">
<polygon fill="#ffffff" stroke="#000000" points="961,-94.5 961,-113.5 1089,-113.5 1089,-94.5 961,-94.5"/>
<text text-anchor="middle" x="1025" y="-101.5" font-family="Helvetica,sans-Serif" font-size="10.00" fill="#000000">argo::backend::acquire</text>
</a>
</g>
</g>
<!-- Node27&#45;&gt;Node28 -->
<g id="edge41" class="edge">
<title>Node27&#45;&gt;Node28</title>
<path fill="none" stroke="#191970" d="M911.5513,-104C927.0784,-104 944.3785,-104 960.6967,-104"/>
<polygon fill="#191970" stroke="#191970" points="911.1189,-100.5001 901.1189,-104 911.1189,-107.5001 911.1189,-100.5001"/>
</g>
<!-- Node29 -->
<g id="node29" class="node">
<title>Node29</title>
<g id="a_node29"><a xlink:href="swdsm_8h_ac0b665f72bc2a28dc663ed204c526e1b.html#ac0b665f72bc2a28dc663ed204c526e1b" target="_top" xlink:title="acquire&#45;release function for ArgoDSM (Both acquire and release according to Release Consistency) ...">
<polygon fill="#ffffff" stroke="#000000" points="985.5,-56.5 985.5,-75.5 1064.5,-75.5 1064.5,-56.5 985.5,-56.5"/>
<text text-anchor="middle" x="1025" y="-63.5" font-family="Helvetica,sans-Serif" font-size="10.00" fill="#000000">argo_acq_rel</text>
</a>
</g>
</g>
<!-- Node27&#45;&gt;Node29 -->
<g id="edge43" class="edge">
<title>Node27&#45;&gt;Node29</title>
<path fill="none" stroke="#191970" d="M911.0401,-92.4054C934.8674,-86.8844 962.9629,-80.3744 985.2953,-75.1999"/>
<polygon fill="#191970" stroke="#191970" points="910.0708,-89.0371 901.1189,-94.7042 911.6509,-95.8565 910.0708,-89.0371"/>
</g>
<!-- Node28&#45;&gt;Node28 -->
<g id="edge42" class="edge">
<title>Node28&#45;&gt;Node28</title>
<path fill="none" stroke="#191970" d="M997.0009,-122.6539C998.1712,-127.9368 1007.5043,-132 1025,-132 1051.6602,-132 1059.3666,-122.5653 1048.1194,-113.7571"/>
<polygon fill="#191970" stroke="#191970" points="1000.1403,-124.208 1001.8806,-113.7571 994.0029,-120.8417 1000.1403,-124.208"/>
</g>
<!-- Node30&#45;&gt;Node29 -->
<g id="edge48" class="edge">
<title>Node30&#45;&gt;Node29</title>
<path fill="none" stroke="#191970" d="M761.8671,-66C824.0103,-66 928.392,-66 985.2149,-66"/>
<polygon fill="#191970" stroke="#191970" points="761.5235,-62.5001 751.5234,-66 761.5234,-69.5001 761.5235,-62.5001"/>
</g>
<!-- Node31 -->
<g id="node31" class="node">
<title>Node31</title>
<g id="a_node31"><a xlink:href="backend_8hpp_a8953c9cd9d3c56306740b6c9b97513a2.html#a8953c9cd9d3c56306740b6c9b97513a2" target="_top" xlink:title="causes a node to self&#45;downgrade its cache, making all previous writes to be propagated to the homenod...">
<polygon fill="#ffffff" stroke="#000000" points="797,-.5 797,-19.5 925,-19.5 925,-.5 797,-.5"/>
<text text-anchor="middle" x="861" y="-7.5" font-family="Helvetica,sans-Serif" font-size="10.00" fill="#000000">argo::backend::release</text>
</a>
</g>
</g>
<!-- Node30&#45;&gt;Node31 -->
<g id="edge46" class="edge">
<title>Node30&#45;&gt;Node31</title>
<path fill="none" stroke="#191970" d="M746.7692,-52.7888C774.0661,-42.5639 811.2144,-28.6488 835.6354,-19.5011"/>
<polygon fill="#191970" stroke="#191970" points="745.3368,-49.5878 737.2,-56.3733 747.7923,-56.143 745.3368,-49.5878"/>
</g>
<!-- Node31&#45;&gt;Node31 -->
<g id="edge47" class="edge">
<title>Node31&#45;&gt;Node31</title>
<path fill="none" stroke="#191970" d="M833.3742,-28.6539C834.5289,-33.9368 843.7375,-38 861,-38 887.3047,-38 894.9084,-28.5653 883.8111,-19.7571"/>
<polygon fill="#191970" stroke="#191970" points="836.5076,-30.2176 838.1889,-19.7571 830.3512,-26.886 836.5076,-30.2176"/>
</g>
</g>
</svg>
        <g id="navigator" transform="translate(0 0)" fill="#404254">
                <rect fill="#f2f5e9" fill-opacity="0.5" stroke="#606060" stroke-width=".5" x="0" y="0" width="60" height="60"/>
                <use id="zoomplus" xlink:href="#zoomPlus" x="17" y="9" onmousedown="handleZoom(evt,'in')"/>
                <use id="zoomminus" xlink:href="#zoomMin" x="42" y="9" onmousedown="handleZoom(evt,'out')"/>
                <use id="reset" xlink:href="#resetDef" x="30" y="36" onmousedown="handleReset()"/>
                <g id="arrowUp" xlink:href="#dirArrow" transform="translate(30 24)" onmousedown="handlePan(0,-1)">
                  <use xlink:href="#rim" fill="#404040">
                        <set attributeName="fill" to="#808080" begin="arrowUp.mouseover" end="arrowUp.mouseout"/>
                  </use>
                  <path fill="none" stroke="white" stroke-width="1.5" d="M0,-3.0v7 M-2.5,-0.5L0,-3.0L2.5,-0.5"/>
                </g>
                <g id="arrowRight" xlink:href="#dirArrow" transform="rotate(90) translate(36 -43)" onmousedown="handlePan(1,0)">
                  <use xlink:href="#rim" fill="#404040">
                        <set attributeName="fill" to="#808080" begin="arrowRight.mouseover" end="arrowRight.mouseout"/>
                  </use>
                  <path fill="none" stroke="white" stroke-width="1.5" d="M0,-3.0v7 M-2.5,-0.5L0,-3.0L2.5,-0.5"/>
                </g>
                <g id="arrowDown" xlink:href="#dirArrow" transform="rotate(180) translate(-30 -48)" onmousedown="handlePan(0,1)">
                  <use xlink:href="#rim" fill="#404040">
                        <set attributeName="fill" to="#808080" begin="arrowDown.mouseover" end="arrowDown.mouseout"/>
                  </use>
                  <path fill="none" stroke="white" stroke-width="1.5" d="M0,-3.0v7 M-2.5,-0.5L0,-3.0L2.5,-0.5"/>
                </g>
                <g id="arrowLeft" xlink:href="#dirArrow" transform="rotate(270) translate(-36 17)" onmousedown="handlePan(-1,0)">
                  <use xlink:href="#rim" fill="#404040">
                        <set attributeName="fill" to="#808080" begin="arrowLeft.mouseover" end="arrowLeft.mouseout"/>
                  </use>
                  <path fill="none" stroke="white" stroke-width="1.5" d="M0,-3.0v7 M-2.5,-0.5L0,-3.0L2.5,-0.5"/>
                </g>
        </g>
        <svg viewBox="0 0 15 15" width="100%" height="30px" preserveAspectRatio="xMaxYMin meet">
         <g id="arrow_out" transform="scale(0.3 0.3)">
          <a xlink:href="classargo_1_1data__distribution_1_1global__ptr_ac7d651586337d08cda18ef26ffcd34a0_ac7d651586337d08cda18ef26ffcd34a0_icgraph_org.svg" target="_base">
           <rect id="button" ry="5" rx="5" y="6" x="6" height="38" width="38"
                fill="#f2f5e9" fill-opacity="0.5" stroke="#606060" stroke-width="1.0"/>
           <path id="arrow"
             d="M 11.500037,31.436501 C 11.940474,20.09759 22.043105,11.32322 32.158766,21.979434 L 37.068811,17.246167 C 37.068811,17.246167 37.088388,32 37.088388,32 L 22.160133,31.978069 C 22.160133,31.978069 26.997745,27.140456 26.997745,27.140456 C 18.528582,18.264221 13.291696,25.230495 11.500037,31.436501 z"
             style="fill:#404040;"/>
          </a>
         </g>
        </svg>
</svg>
