<?xml version="1.0" encoding="UTF-8" standalone="no"?>
<!DOCTYPE svg PUBLIC "-//W3C//DTD SVG 1.1//EN"
 "http://www.w3.org/Graphics/SVG/1.1/DTD/svg11.dtd">
<!-- Generated by graphviz version 2.40.1 (20161225.0304)
 -->
<!-- Title: argo::mempools::global_memory_pool::~global_memory_pool Pages: 1 -->
<svg width="258pt" height="50pt"
 viewBox="0.00 0.00 258.00 50.00" xmlns="http://www.w3.org/2000/svg" xmlns:xlink="http://www.w3.org/1999/xlink">
<g id="graph0" class="graph" transform="scale(1 1) rotate(0) translate(4 46)">
<title>argo::mempools::global_memory_pool::~global_memory_pool</title>
<polygon fill="#ffffff" stroke="transparent" points="-4,4 -4,-46 254,-46 254,4 -4,4"/>
<!-- Node0 -->
<g id="node1" class="node">
<title>Node0</title>
<polygon fill="#bfbfbf" stroke="#000000" points="0,-.5 0,-41.5 134,-41.5 134,-.5 0,-.5"/>
<text text-anchor="start" x="8" y="-29.5" font-family="Helvetica,sans-Serif" font-size="10.00" fill="#000000">argo::mempools::global</text>
<text text-anchor="start" x="8" y="-18.5" font-family="Helvetica,sans-Serif" font-size="10.00" fill="#000000">_memory_pool::~global</text>
<text text-anchor="middle" x="67" y="-7.5" font-family="Helvetica,sans-Serif" font-size="10.00" fill="#000000">_memory_pool</text>
</g>
<!-- Node1 -->
<g id="node2" class="node">
<title>Node1</title>
<g id="a_node2"><a xlink:href="namespaceargo_aa6f830b22d3f1b054609c5ffa40af4b6.html#aa6f830b22d3f1b054609c5ffa40af4b6" target="_top" xlink:title="shut down ArgoDSM system ">
<polygon fill="#ffffff" stroke="#000000" points="170,-11.5 170,-30.5 250,-30.5 250,-11.5 170,-11.5"/>
<text text-anchor="middle" x="210" y="-18.5" font-family="Helvetica,sans-Serif" font-size="10.00" fill="#000000">argo::finalize</text>
</a>
</g>
</g>
<!-- Node0&#45;&gt;Node1 -->
<g id="edge1" class="edge">
<title>Node0&#45;&gt;Node1</title>
<path fill="none" stroke="#191970" d="M134.3127,-21C142.8698,-21 151.5071,-21 159.7322,-21"/>
<polygon fill="#191970" stroke="#191970" points="159.8931,-24.5001 169.8931,-21 159.8931,-17.5001 159.8931,-24.5001"/>
</g>
</g>
</svg>
