<?xml version="1.0" encoding="UTF-8" standalone="no"?>
<!DOCTYPE svg PUBLIC "-//W3C//DTD SVG 1.1//EN"
 "http://www.w3.org/Graphics/SVG/1.1/DTD/svg11.dtd">
<!-- Generated by graphviz version 2.40.1 (20161225.0304)
 -->
<!-- Title: argo::data_distribution::global_ptr::policy Pages: 1 -->
<svg width="298pt" height="290pt"
 viewBox="0.00 0.00 298.00 290.00" xmlns="http://www.w3.org/2000/svg" xmlns:xlink="http://www.w3.org/1999/xlink">
<g id="graph0" class="graph" transform="scale(1 1) rotate(0) translate(4 286)">
<title>argo::data_distribution::global_ptr::policy</title>
<polygon fill="#ffffff" stroke="transparent" points="-4,4 -4,-286 294,-286 294,4 -4,4"/>
<!-- Node1 -->
<g id="node1" class="node">
<title>Node1</title>
<polygon fill="#bfbfbf" stroke="#000000" points="0,-126 0,-156 127,-156 127,-126 0,-126"/>
<text text-anchor="start" x="8" y="-144" font-family="Helvetica,sans-Serif" font-size="10.00" fill="#000000">argo::data_distribution</text>
<text text-anchor="middle" x="63.5" y="-133" font-family="Helvetica,sans-Serif" font-size="10.00" fill="#000000">::global_ptr::policy</text>
</g>
<!-- Node2 -->
<g id="node2" class="node">
<title>Node2</title>
<g id="a_node2"><a xlink:href="classargo_1_1data__distribution_1_1global__ptr_aef47838997e77aa5b462b37cc9485547.html#aef47838997e77aa5b462b37cc9485547" target="_top" xlink:title="construct from virtual address pointer ">
<polygon fill="#ffffff" stroke="#000000" points="163,-240.5 163,-281.5 290,-281.5 290,-240.5 163,-240.5"/>
<text text-anchor="start" x="171" y="-269.5" font-family="Helvetica,sans-Serif" font-size="10.00" fill="#000000">argo::data_distribution</text>
<text text-anchor="start" x="171" y="-258.5" font-family="Helvetica,sans-Serif" font-size="10.00" fill="#000000">::global_ptr&lt; std::size</text>
<text text-anchor="middle" x="226.5" y="-247.5" font-family="Helvetica,sans-Serif" font-size="10.00" fill="#000000">_t &gt;::global_ptr</text>
</a>
</g>
</g>
<!-- Node1&#45;&gt;Node2 -->
<g id="edge1" class="edge">
<title>Node1&#45;&gt;Node2</title>
<path fill="none" stroke="#191970" d="M84.5657,-163.484C103.7101,-183.0386 133.4073,-211.2574 163,-231 167.9699,-234.3157 173.3637,-237.4611 178.837,-240.3801"/>
<polygon fill="#191970" stroke="#191970" points="86.9896,-160.9556 77.5246,-156.1948 81.9549,-165.8189 86.9896,-160.9556"/>
</g>
<!-- Node3 -->
<g id="node3" class="node">
<title>Node3</title>
<g id="a_node3"><a xlink:href="classargo_1_1data__distribution_1_1global__ptr_ac7d651586337d08cda18ef26ffcd34a0.html#ac7d651586337d08cda18ef26ffcd34a0" target="_top" xlink:title="return the home node of the value pointed to ">
<polygon fill="#ffffff" stroke="#000000" points="163,-180.5 163,-221.5 290,-221.5 290,-180.5 163,-180.5"/>
<text text-anchor="start" x="171" y="-209.5" font-family="Helvetica,sans-Serif" font-size="10.00" fill="#000000">argo::data_distribution</text>
<text text-anchor="start" x="171" y="-198.5" font-family="Helvetica,sans-Serif" font-size="10.00" fill="#000000">::global_ptr&lt; std::size</text>
<text text-anchor="middle" x="226.5" y="-187.5" font-family="Helvetica,sans-Serif" font-size="10.00" fill="#000000">_t &gt;::node</text>
</a>
</g>
</g>
<!-- Node1&#45;&gt;Node3 -->
<g id="edge2" class="edge">
<title>Node1&#45;&gt;Node3</title>
<path fill="none" stroke="#191970" d="M114.2948,-159.6975C132.1636,-166.2749 152.3388,-173.7014 170.6042,-180.4249"/>
<polygon fill="#191970" stroke="#191970" points="115.2253,-156.3104 104.6318,-156.1405 112.8071,-162.8795 115.2253,-156.3104"/>
</g>
<!-- Node4 -->
<g id="node4" class="node">
<title>Node4</title>
<g id="a_node4"><a xlink:href="classargo_1_1data__distribution_1_1global__ptr_a3e2cdd4d323ef91174615e27ab94e342.html#a3e2cdd4d323ef91174615e27ab94e342" target="_top" xlink:title="return the home node of the value pointed to, or a default value if the page has not yet been first&#45;t...">
<polygon fill="#ffffff" stroke="#000000" points="163,-120.5 163,-161.5 290,-161.5 290,-120.5 163,-120.5"/>
<text text-anchor="start" x="171" y="-149.5" font-family="Helvetica,sans-Serif" font-size="10.00" fill="#000000">argo::data_distribution</text>
<text text-anchor="start" x="171" y="-138.5" font-family="Helvetica,sans-Serif" font-size="10.00" fill="#000000">::global_ptr&lt; std::size</text>
<text text-anchor="middle" x="226.5" y="-127.5" font-family="Helvetica,sans-Serif" font-size="10.00" fill="#000000">_t &gt;::peek_node</text>
</a>
</g>
</g>
<!-- Node1&#45;&gt;Node4 -->
<g id="edge3" class="edge">
<title>Node1&#45;&gt;Node4</title>
<path fill="none" stroke="#191970" d="M137.6881,-141C146.1415,-141 154.7005,-141 162.9977,-141"/>
<polygon fill="#191970" stroke="#191970" points="137.4541,-137.5001 127.4541,-141 137.4541,-144.5001 137.4541,-137.5001"/>
</g>
<!-- Node5 -->
<g id="node5" class="node">
<title>Node5</title>
<g id="a_node5"><a xlink:href="classargo_1_1data__distribution_1_1global__ptr_ad8c21c408fa2b926cfd9acfd87e8e4e6.html#ad8c21c408fa2b926cfd9acfd87e8e4e6" target="_top" xlink:title="return the offset on the home node&#39;s local memory share ">
<polygon fill="#ffffff" stroke="#000000" points="163,-60.5 163,-101.5 290,-101.5 290,-60.5 163,-60.5"/>
<text text-anchor="start" x="171" y="-89.5" font-family="Helvetica,sans-Serif" font-size="10.00" fill="#000000">argo::data_distribution</text>
<text text-anchor="start" x="171" y="-78.5" font-family="Helvetica,sans-Serif" font-size="10.00" fill="#000000">::global_ptr&lt; std::size</text>
<text text-anchor="middle" x="226.5" y="-67.5" font-family="Helvetica,sans-Serif" font-size="10.00" fill="#000000">_t &gt;::offset</text>
</a>
</g>
</g>
<!-- Node1&#45;&gt;Node5 -->
<g id="edge4" class="edge">
<title>Node1&#45;&gt;Node5</title>
<path fill="none" stroke="#191970" d="M114.2948,-122.3025C132.1636,-115.7251 152.3388,-108.2986 170.6042,-101.5751"/>
<polygon fill="#191970" stroke="#191970" points="112.8071,-119.1205 104.6318,-125.8595 115.2253,-125.6896 112.8071,-119.1205"/>
</g>
<!-- Node6 -->
<g id="node6" class="node">
<title>Node6</title>
<g id="a_node6"><a xlink:href="classargo_1_1data__distribution_1_1global__ptr_aac6a3f5ce7b21b72cb7179c82aa1ffbc.html#aac6a3f5ce7b21b72cb7179c82aa1ffbc" target="_top" xlink:title="return the offset on the home node&#39;s local memory share or a default value if the page has not yet be...">
<polygon fill="#ffffff" stroke="#000000" points="163,-.5 163,-41.5 290,-41.5 290,-.5 163,-.5"/>
<text text-anchor="start" x="171" y="-29.5" font-family="Helvetica,sans-Serif" font-size="10.00" fill="#000000">argo::data_distribution</text>
<text text-anchor="start" x="171" y="-18.5" font-family="Helvetica,sans-Serif" font-size="10.00" fill="#000000">::global_ptr&lt; std::size</text>
<text text-anchor="middle" x="226.5" y="-7.5" font-family="Helvetica,sans-Serif" font-size="10.00" fill="#000000">_t &gt;::peek_offset</text>
</a>
</g>
</g>
<!-- Node1&#45;&gt;Node6 -->
<g id="edge5" class="edge">
<title>Node1&#45;&gt;Node6</title>
<path fill="none" stroke="#191970" d="M84.5657,-118.516C103.7101,-98.9614 133.4073,-70.7426 163,-51 167.9699,-47.6843 173.3637,-44.5389 178.837,-41.6199"/>
<polygon fill="#191970" stroke="#191970" points="81.9549,-116.1811 77.5246,-125.8052 86.9896,-121.0444 81.9549,-116.1811"/>
</g>
</g>
</svg>
