<?xml version="1.0" encoding="UTF-8" standalone="no"?>
<!DOCTYPE svg PUBLIC "-//W3C//DTD SVG 1.1//EN"
 "http://www.w3.org/Graphics/SVG/1.1/DTD/svg11.dtd">
<!-- Generated by graphviz version 2.40.1 (20161225.0304)
 -->
<!-- Title: argo::allocators::generic_allocator&lt; T, MemoryPool, LockType &gt; Pages: 1 -->
<svg width="353pt" height="251pt"
 viewBox="0.00 0.00 352.50 251.00" xmlns="http://www.w3.org/2000/svg" xmlns:xlink="http://www.w3.org/1999/xlink">
<g id="graph0" class="graph" transform="scale(1 1) rotate(0) translate(4 247)">
<title>argo::allocators::generic_allocator&lt; T, MemoryPool, LockType &gt;</title>
<polygon fill="#ffffff" stroke="transparent" points="-4,4 -4,-247 348.5,-247 348.5,4 -4,4"/>
<!-- Node1 -->
<g id="node1" class="node">
<title>Node1</title>
<polygon fill="#bfbfbf" stroke="#000000" points="77.5,-.5 77.5,-41.5 229.5,-41.5 229.5,-.5 77.5,-.5"/>
<text text-anchor="start" x="85.5" y="-29.5" font-family="Helvetica,sans-Serif" font-size="10.00" fill="#000000">argo::allocators::generic</text>
<text text-anchor="start" x="85.5" y="-18.5" font-family="Helvetica,sans-Serif" font-size="10.00" fill="#000000">_allocator&lt; T, MemoryPool,</text>
<text text-anchor="middle" x="153.5" y="-7.5" font-family="Helvetica,sans-Serif" font-size="10.00" fill="#000000"> LockType &gt;</text>
</g>
<!-- Node2 -->
<g id="node2" class="node">
<title>Node2</title>
<polygon fill="#ffffff" stroke="#bfbfbf" points="7,-89.5 7,-108.5 138,-108.5 138,-89.5 7,-89.5"/>
<text text-anchor="middle" x="72.5" y="-96.5" font-family="Helvetica,sans-Serif" font-size="10.00" fill="#000000">std::map&lt; T *, size_t &gt;</text>
</g>
<!-- Node2&#45;&gt;Node1 -->
<g id="edge1" class="edge">
<title>Node2&#45;&gt;Node1</title>
<path fill="none" stroke="#9a32cd" stroke-dasharray="5,2" d="M89.819,-82.3225C102.1269,-70.4704 118.7411,-54.4715 131.9132,-41.7873"/>
<polygon fill="#9a32cd" stroke="#9a32cd" points="87.2077,-79.9781 82.4322,-89.4357 92.0632,-85.0204 87.2077,-79.9781"/>
<text text-anchor="middle" x="151.5" y="-63" font-family="Helvetica,sans-Serif" font-size="10.00" fill="#000000"> allocation_size</text>
</g>
<!-- Node3 -->
<g id="node3" class="node">
<title>Node3</title>
<polygon fill="#ffffff" stroke="#bfbfbf" points="138,-223.5 138,-242.5 167,-242.5 167,-223.5 138,-223.5"/>
<text text-anchor="middle" x="152.5" y="-230.5" font-family="Helvetica,sans-Serif" font-size="10.00" fill="#000000">T</text>
</g>
<!-- Node3&#45;&gt;Node2 -->
<g id="edge2" class="edge">
<title>Node3&#45;&gt;Node2</title>
<path fill="none" stroke="#9a32cd" stroke-dasharray="5,2" d="M128.2976,-224.687C107.4533,-216.0876 78.7047,-200.4377 65.5,-176 53.7587,-154.2706 62.5117,-123.9989 68.3641,-108.6899"/>
<polygon fill="#9a32cd" stroke="#9a32cd" points="127.203,-228.0161 137.7926,-228.3498 129.7224,-221.4852 127.203,-228.0161"/>
<text text-anchor="middle" x="79" y="-163.5" font-family="Helvetica,sans-Serif" font-size="10.00" fill="#000000"> keys</text>
</g>
<!-- Node4 -->
<g id="node4" class="node">
<title>Node4</title>
<g id="a_node4"><a xlink:title="STL class. ">
<polygon fill="#ffffff" stroke="#bfbfbf" points="102,-156.5 102,-175.5 203,-175.5 203,-156.5 102,-156.5"/>
<text text-anchor="middle" x="152.5" y="-163.5" font-family="Helvetica,sans-Serif" font-size="10.00" fill="#000000">std::map&lt; K, T &gt;</text>
</a>
</g>
</g>
<!-- Node3&#45;&gt;Node4 -->
<g id="edge5" class="edge">
<title>Node3&#45;&gt;Node4</title>
<path fill="none" stroke="#9a32cd" stroke-dasharray="5,2" d="M152.5,-213.1079C152.5,-200.714 152.5,-185.3263 152.5,-175.5817"/>
<polygon fill="#9a32cd" stroke="#9a32cd" points="149.0001,-213.4005 152.5,-223.4005 156.0001,-213.4006 149.0001,-213.4005"/>
<text text-anchor="middle" x="177" y="-197" font-family="Helvetica,sans-Serif" font-size="10.00" fill="#000000"> elements</text>
</g>
<!-- Node7 -->
<g id="node7" class="node">
<title>Node7</title>
<g id="a_node7"><a xlink:title="STL class. ">
<polygon fill="#ffffff" stroke="#bfbfbf" points="244.5,-156.5 244.5,-175.5 336.5,-175.5 336.5,-156.5 244.5,-156.5"/>
<text text-anchor="middle" x="290.5" y="-163.5" font-family="Helvetica,sans-Serif" font-size="10.00" fill="#000000">std::stack&lt; T &gt;</text>
</a>
</g>
</g>
<!-- Node3&#45;&gt;Node7 -->
<g id="edge8" class="edge">
<title>Node3&#45;&gt;Node7</title>
<path fill="none" stroke="#9a32cd" stroke-dasharray="5,2" d="M176.0518,-221.5654C202.7876,-208.585 245.9195,-187.6441 270.8974,-175.5172"/>
<polygon fill="#9a32cd" stroke="#9a32cd" points="174.4748,-218.4403 167.0076,-225.9565 177.5321,-224.7374 174.4748,-218.4403"/>
<text text-anchor="middle" x="254" y="-197" font-family="Helvetica,sans-Serif" font-size="10.00" fill="#000000"> elements</text>
</g>
<!-- Node4&#45;&gt;Node2 -->
<g id="edge3" class="edge">
<title>Node4&#45;&gt;Node2</title>
<path fill="none" stroke="#ffa500" stroke-dasharray="5,2" d="M110.8163,-152.1768C103.4377,-148.4054 96.2782,-143.731 90.5,-138 82.3462,-129.9129 77.4887,-117.4424 74.9122,-108.7888"/>
<polygon fill="#ffa500" stroke="#ffa500" points="109.644,-155.4898 120.1922,-156.4825 112.5654,-149.1285 109.644,-155.4898"/>
<text text-anchor="middle" x="128" y="-130" font-family="Helvetica,sans-Serif" font-size="10.00" fill="#000000"> &lt; T *, size_t &gt;</text>
</g>
<!-- Node6 -->
<g id="node6" class="node">
<title>Node6</title>
<polygon fill="#ffffff" stroke="#bfbfbf" points="156.5,-89.5 156.5,-108.5 316.5,-108.5 316.5,-89.5 156.5,-89.5"/>
<text text-anchor="middle" x="236.5" y="-96.5" font-family="Helvetica,sans-Serif" font-size="10.00" fill="#000000">std::map&lt; size_t, freelist_t &gt;</text>
</g>
<!-- Node4&#45;&gt;Node6 -->
<g id="edge9" class="edge">
<title>Node4&#45;&gt;Node6</title>
<path fill="none" stroke="#ffa500" stroke-dasharray="5,2" d="M164.8548,-148.0508C170.3257,-140.9339 177.1786,-133.028 184.5,-127 193.4447,-119.6356 204.6245,-113.317 214.3235,-108.556"/>
<polygon fill="#ffa500" stroke="#ffa500" points="161.7989,-146.3011 158.7329,-156.4427 167.454,-150.4266 161.7989,-146.3011"/>
<text text-anchor="middle" x="236.5" y="-130" font-family="Helvetica,sans-Serif" font-size="10.00" fill="#000000"> &lt; size_t, freelist_t &gt;</text>
</g>
<!-- Node5 -->
<g id="node5" class="node">
<title>Node5</title>
<polygon fill="#ffffff" stroke="#bfbfbf" points="0,-223.5 0,-242.5 29,-242.5 29,-223.5 0,-223.5"/>
<text text-anchor="middle" x="14.5" y="-230.5" font-family="Helvetica,sans-Serif" font-size="10.00" fill="#000000">K</text>
</g>
<!-- Node5&#45;&gt;Node4 -->
<g id="edge4" class="edge">
<title>Node5&#45;&gt;Node4</title>
<path fill="none" stroke="#9a32cd" stroke-dasharray="5,2" d="M38.0518,-221.5654C64.7876,-208.585 107.9195,-187.6441 132.8974,-175.5172"/>
<polygon fill="#9a32cd" stroke="#9a32cd" points="36.4748,-218.4403 29.0076,-225.9565 39.5321,-224.7374 36.4748,-218.4403"/>
<text text-anchor="middle" x="106" y="-197" font-family="Helvetica,sans-Serif" font-size="10.00" fill="#000000"> keys</text>
</g>
<!-- Node6&#45;&gt;Node1 -->
<g id="edge6" class="edge">
<title>Node6&#45;&gt;Node1</title>
<path fill="none" stroke="#9a32cd" stroke-dasharray="5,2" d="M218.7534,-82.3225C206.1415,-70.4704 189.1171,-54.4715 175.6198,-41.7873"/>
<polygon fill="#9a32cd" stroke="#9a32cd" points="216.6385,-85.138 226.3226,-89.4357 221.4323,-80.037 216.6385,-85.138"/>
<text text-anchor="middle" x="223.5" y="-63" font-family="Helvetica,sans-Serif" font-size="10.00" fill="#000000"> freelist</text>
</g>
<!-- Node7&#45;&gt;Node6 -->
<g id="edge7" class="edge">
<title>Node7&#45;&gt;Node6</title>
<path fill="none" stroke="#9a32cd" stroke-dasharray="5,2" d="M295.8497,-146.1036C296.5118,-139.602 295.9708,-132.6158 292.5,-127 287.3569,-118.6783 278.9086,-112.747 270.1148,-108.5541"/>
<polygon fill="#9a32cd" stroke="#9a32cd" points="292.3481,-145.7805 293.9045,-156.2604 299.2231,-147.0973 292.3481,-145.7805"/>
<text text-anchor="middle" x="320" y="-130" font-family="Helvetica,sans-Serif" font-size="10.00" fill="#000000"> elements</text>
</g>
</g>
</svg>
