<?xml version="1.0" encoding="UTF-8" standalone="no"?>
<!DOCTYPE svg PUBLIC "-//W3C//DTD SVG 1.1//EN"
 "http://www.w3.org/Graphics/SVG/1.1/DTD/svg11.dtd">
<!-- Generated by graphviz version 2.40.1 (20161225.0304)
 -->
<!-- Title: argo::locallock::mcs_lock::mcs_lock Pages: 1 -->
<svg width="272pt" height="186pt"
 viewBox="0.00 0.00 272.00 186.00" xmlns="http://www.w3.org/2000/svg" xmlns:xlink="http://www.w3.org/1999/xlink">
<g id="graph0" class="graph" transform="scale(1 1) rotate(0) translate(4 182)">
<title>argo::locallock::mcs_lock::mcs_lock</title>
<polygon fill="#ffffff" stroke="transparent" points="-4,4 -4,-182 268,-182 268,4 -4,4"/>
<!-- Node0 -->
<g id="node1" class="node">
<title>Node0</title>
<polygon fill="#bfbfbf" stroke="#000000" points="0,-73.5 0,-103.5 114,-103.5 114,-73.5 0,-73.5"/>
<text text-anchor="start" x="8" y="-91.5" font-family="Helvetica,sans-Serif" font-size="10.00" fill="#000000">argo::locallock::mcs</text>
<text text-anchor="middle" x="57" y="-80.5" font-family="Helvetica,sans-Serif" font-size="10.00" fill="#000000">_lock::mcs_lock</text>
</g>
<!-- Node1 -->
<g id="node2" class="node">
<title>Node1</title>
<g id="a_node2"><a xlink:href="classargo_1_1locallock_1_1mcs__lock_ab9dea14c529f5aa40bd13f4a250f82b8.html#ab9dea14c529f5aa40bd13f4a250f82b8" target="_top" xlink:title="Acquire the MCS lock. ">
<polygon fill="#ffffff" stroke="#000000" points="150,-147.5 150,-177.5 264,-177.5 264,-147.5 150,-147.5"/>
<text text-anchor="start" x="158" y="-165.5" font-family="Helvetica,sans-Serif" font-size="10.00" fill="#000000">argo::locallock::mcs</text>
<text text-anchor="middle" x="207" y="-154.5" font-family="Helvetica,sans-Serif" font-size="10.00" fill="#000000">_lock::lock</text>
</a>
</g>
</g>
<!-- Node0&#45;&gt;Node1 -->
<g id="edge1" class="edge">
<title>Node0&#45;&gt;Node1</title>
<path fill="none" stroke="#191970" d="M83.5143,-103.6222C101.9347,-113.9127 127.1763,-127.5898 150,-138.5 153.3452,-140.0991 156.825,-141.7034 160.3423,-143.2825"/>
<polygon fill="#191970" stroke="#191970" points="159.1103,-146.5641 169.6734,-147.3826 161.9262,-140.1555 159.1103,-146.5641"/>
</g>
<!-- Node2 -->
<g id="node3" class="node">
<title>Node2</title>
<g id="a_node3"><a xlink:href="classargo_1_1locallock_1_1mcs__lock_a84906675136894a2c157beee7f0299de.html#a84906675136894a2c157beee7f0299de" target="_top" xlink:title="Try to acquire the lock, but do not block. ">
<polygon fill="#ffffff" stroke="#000000" points="150,-98.5 150,-128.5 264,-128.5 264,-98.5 150,-98.5"/>
<text text-anchor="start" x="158" y="-116.5" font-family="Helvetica,sans-Serif" font-size="10.00" fill="#000000">argo::locallock::mcs</text>
<text text-anchor="middle" x="207" y="-105.5" font-family="Helvetica,sans-Serif" font-size="10.00" fill="#000000">_lock::try_lock</text>
</a>
</g>
</g>
<!-- Node0&#45;&gt;Node2 -->
<g id="edge2" class="edge">
<title>Node0&#45;&gt;Node2</title>
<path fill="none" stroke="#191970" d="M114.1365,-98.0227C122.4675,-99.4113 131.1108,-100.8518 139.6217,-102.2703"/>
<polygon fill="#191970" stroke="#191970" points="139.0861,-105.7292 149.5255,-103.9209 140.237,-98.8245 139.0861,-105.7292"/>
</g>
<!-- Node3 -->
<g id="node4" class="node">
<title>Node3</title>
<g id="a_node4"><a xlink:href="classargo_1_1locallock_1_1mcs__lock_adf8ad5e4d2ebfbc0bf88b6dd31afe40d.html#adf8ad5e4d2ebfbc0bf88b6dd31afe40d" target="_top" xlink:title="Release the MCS lock. ">
<polygon fill="#ffffff" stroke="#000000" points="150,-49.5 150,-79.5 264,-79.5 264,-49.5 150,-49.5"/>
<text text-anchor="start" x="158" y="-67.5" font-family="Helvetica,sans-Serif" font-size="10.00" fill="#000000">argo::locallock::mcs</text>
<text text-anchor="middle" x="207" y="-56.5" font-family="Helvetica,sans-Serif" font-size="10.00" fill="#000000">_lock::unlock</text>
</a>
</g>
</g>
<!-- Node0&#45;&gt;Node3 -->
<g id="edge3" class="edge">
<title>Node0&#45;&gt;Node3</title>
<path fill="none" stroke="#191970" d="M114.1365,-79.3582C122.4675,-78.0252 131.1108,-76.6423 139.6217,-75.2805"/>
<polygon fill="#191970" stroke="#191970" points="140.2041,-78.732 149.5255,-73.6959 139.0981,-71.8199 140.2041,-78.732"/>
</g>
<!-- Node4 -->
<g id="node5" class="node">
<title>Node4</title>
<g id="a_node5"><a xlink:href="classargo_1_1locallock_1_1mcs__lock_a93a76eb58e6bf70f8852a895301cc308.html#a93a76eb58e6bf70f8852a895301cc308" target="_top" xlink:title="Check if the lock is contented. ">
<polygon fill="#ffffff" stroke="#000000" points="150,-.5 150,-30.5 264,-30.5 264,-.5 150,-.5"/>
<text text-anchor="start" x="158" y="-18.5" font-family="Helvetica,sans-Serif" font-size="10.00" fill="#000000">argo::locallock::mcs</text>
<text text-anchor="middle" x="207" y="-7.5" font-family="Helvetica,sans-Serif" font-size="10.00" fill="#000000">_lock::is_contended</text>
</a>
</g>
</g>
<!-- Node0&#45;&gt;Node4 -->
<g id="edge4" class="edge">
<title>Node0&#45;&gt;Node4</title>
<path fill="none" stroke="#191970" d="M85.2591,-73.3254C103.5723,-63.6384 128.0229,-50.9782 150,-40.5 154.0037,-38.5911 158.1889,-36.6517 162.3944,-34.7405"/>
<polygon fill="#191970" stroke="#191970" points="163.8791,-37.9106 171.5711,-30.6247 161.0144,-31.5236 163.8791,-37.9106"/>
</g>
</g>
</svg>
