<?xml version="1.0" encoding="UTF-8" standalone="no"?>
<!DOCTYPE svg PUBLIC "-//W3C//DTD SVG 1.1//EN"
 "http://www.w3.org/Graphics/SVG/1.1/DTD/svg11.dtd">
<!-- Generated by graphviz version 2.40.1 (20161225.0304)
 -->
<!-- Title: write_buffer::flush Pages: 1 -->
<!--zoomable 219 -->
<svg id="main" version="1.1" xmlns="http://www.w3.org/2000/svg" xmlns:xlink="http://www.w3.org/1999/xlink" xml:space="preserve" onload="init(evt)">
<style type="text/css"><![CDATA[
.edge:hover path { stroke: red; }
.edge:hover polygon { stroke: red; fill: red; }
]]></style>
<script type="text/javascript"><![CDATA[
var edges = document.getElementsByTagName('g');
if (edges && edges.length) {
  for (var i=0;i<edges.length;i++) {
    if (edges[i].id.substr(0,4)=='edge') {
      edges[i].setAttribute('class','edge');
    }
  }
}
]]></script>
        <defs>
                <circle id="rim" cx="0" cy="0" r="7"/>
                <circle id="rim2" cx="0" cy="0" r="3.5"/>
                <g id="zoomPlus">
                        <use xlink:href="#rim" fill="#404040">
                                <set attributeName="fill" to="#808080" begin="zoomplus.mouseover" end="zoomplus.mouseout"/>
                        </use>
                        <path d="M-4,0h8M0,-4v8" fill="none" stroke="white" stroke-width="1.5" pointer-events="none"/>
                </g>
                <g id="zoomMin">
                        <use xlink:href="#rim" fill="#404040">
                                <set attributeName="fill" to="#808080" begin="zoomminus.mouseover" end="zoomminus.mouseout"/>
                        </use>
                        <path d="M-4,0h8" fill="none" stroke="white" stroke-width="1.5" pointer-events="none"/>
                </g>
                <g id="dirArrow">
                        <path fill="none" stroke="white" stroke-width="1.5" d="M0,-3.0v7 M-2.5,-0.5L0,-3.0L2.5,-0.5"/>
                </g>
               <g id="resetDef">
                       <use xlink:href="#rim2" fill="#404040">
                               <set attributeName="fill" to="#808080" begin="reset.mouseover" end="reset.mouseout"/>
                       </use>
               </g>
        </defs>

<script type="text/javascript">
var viewWidth = 1077;
var viewHeight = 219;
var sectionId = 'dynsection-0';
</script>
<script xlink:href="svgpan.js"/>
<svg id="graph" class="graph">
<g id="viewport">
<title>write_buffer::flush</title>
<polygon fill="#ffffff" stroke="transparent" points="-4,4 -4,-215 1073,-215 1073,4 -4,4"/>
<!-- Node0 -->
<g id="node1" class="node">
<title>Node0</title>
<polygon fill="#bfbfbf" stroke="#000000" points="0,-93 0,-112 104,-112 104,-93 0,-93"/>
<text text-anchor="middle" x="52" y="-100" font-family="Helvetica,sans-Serif" font-size="10.00" fill="#000000">write_buffer::flush</text>
</g>
<!-- Node1 -->
<g id="node2" class="node">
<title>Node1</title>
<g id="a_node2"><a xlink:href="classwrite__buffer_ab70cc0d6ca3591094aae489dbc3feaa5.html#ab70cc0d6ca3591094aae489dbc3feaa5" target="_top" xlink:title="Check if the write buffer is empty. ">
<polygon fill="#ffffff" stroke="#000000" points="149,-169 149,-188 262,-188 262,-169 149,-169"/>
<text text-anchor="middle" x="205.5" y="-176" font-family="Helvetica,sans-Serif" font-size="10.00" fill="#000000">write_buffer::empty</text>
</a>
</g>
</g>
<!-- Node0&#45;&gt;Node1 -->
<g id="edge1" class="edge">
<title>Node0&#45;&gt;Node1</title>
<path fill="none" stroke="#191970" d="M64.1527,-112.0325C80.5424,-124.4871 111.026,-146.2626 140,-159.5 145.0482,-161.8064 150.4438,-163.9052 155.8903,-165.795"/>
<polygon fill="#191970" stroke="#191970" points="155.0928,-169.2158 165.6848,-168.9709 157.2519,-162.5571 155.0928,-169.2158"/>
</g>
<!-- Node2 -->
<g id="node3" class="node">
<title>Node2</title>
<g id="a_node3"><a xlink:href="classwrite__buffer_aa2325346aceb3e7ffdbdbdc8e8682147.html#aa2325346aceb3e7ffdbdbdc8e8682147" target="_top" xlink:title="Sorts all elements by home node id in ascending order. ">
<polygon fill="#ffffff" stroke="#000000" points="155.5,-131 155.5,-150 255.5,-150 255.5,-131 155.5,-131"/>
<text text-anchor="middle" x="205.5" y="-138" font-family="Helvetica,sans-Serif" font-size="10.00" fill="#000000">write_buffer::sort</text>
</a>
</g>
</g>
<!-- Node0&#45;&gt;Node2 -->
<g id="edge2" class="edge">
<title>Node0&#45;&gt;Node2</title>
<path fill="none" stroke="#191970" d="M90.7345,-112.089C110.8993,-117.0809 135.7479,-123.2324 157.1611,-128.5334"/>
<polygon fill="#191970" stroke="#191970" points="156.4959,-131.9743 167.044,-130.9799 158.1781,-125.1794 156.4959,-131.9743"/>
</g>
<!-- Node12 -->
<g id="node13" class="node">
<title>Node12</title>
<g id="a_node13"><a xlink:href="classwrite__buffer_ae065d3ee59035ad508eb8ce6670d2c89.html#ae065d3ee59035ad508eb8ce6670d2c89" target="_top" xlink:title="Removes the front element from the buffer and returns it. ">
<polygon fill="#ffffff" stroke="#000000" points="156,-93 156,-112 255,-112 255,-93 156,-93"/>
<text text-anchor="middle" x="205.5" y="-100" font-family="Helvetica,sans-Serif" font-size="10.00" fill="#000000">write_buffer::pop</text>
</a>
</g>
</g>
<!-- Node0&#45;&gt;Node12 -->
<g id="edge13" class="edge">
<title>Node0&#45;&gt;Node12</title>
<path fill="none" stroke="#191970" d="M104.3967,-102.5C117.6849,-102.5 132.0597,-102.5 145.685,-102.5"/>
<polygon fill="#191970" stroke="#191970" points="145.9279,-106.0001 155.9279,-102.5 145.9279,-99.0001 145.9279,-106.0001"/>
</g>
<!-- Node13 -->
<g id="node14" class="node">
<title>Node13</title>
<g id="a_node14"><a xlink:href="swdsm_8cpp_ae0f2d0961e80b2903b3f54c9e6c68658.html#ae0f2d0961e80b2903b3f54c9e6c68658" target="_top" xlink:title="stores a page remotely &#45; only writing back what has been written locally since last synchronization p...">
<polygon fill="#ffffff" stroke="#000000" points="162.5,-55 162.5,-74 248.5,-74 248.5,-55 162.5,-55"/>
<text text-anchor="middle" x="205.5" y="-62" font-family="Helvetica,sans-Serif" font-size="10.00" fill="#000000">storepageDIFF</text>
</a>
</g>
</g>
<!-- Node0&#45;&gt;Node13 -->
<g id="edge14" class="edge">
<title>Node0&#45;&gt;Node13</title>
<path fill="none" stroke="#191970" d="M90.7345,-92.911C110.8993,-87.9191 135.7479,-81.7676 157.1611,-76.4666"/>
<polygon fill="#191970" stroke="#191970" points="158.1781,-79.8206 167.044,-74.0201 156.4959,-73.0257 158.1781,-79.8206"/>
</g>
<!-- Node18 -->
<g id="node19" class="node">
<title>Node18</title>
<g id="a_node19"><a xlink:href="namespaceargo_a79c9492f3fd441bfa6261dffbc0f02f4.html#a79c9492f3fd441bfa6261dffbc0f02f4" target="_top" xlink:title="Number of ArgoDSM nodes being run. ">
<polygon fill="#ffffff" stroke="#000000" points="140,-17 140,-36 271,-36 271,-17 140,-17"/>
<text text-anchor="middle" x="205.5" y="-24" font-family="Helvetica,sans-Serif" font-size="10.00" fill="#000000">argo::number_of_nodes</text>
</a>
</g>
</g>
<!-- Node0&#45;&gt;Node18 -->
<g id="edge19" class="edge">
<title>Node0&#45;&gt;Node18</title>
<path fill="none" stroke="#191970" d="M64.1527,-92.9675C80.5424,-80.5129 111.026,-58.7374 140,-45.5 145.0482,-43.1936 150.4438,-41.0948 155.8903,-39.205"/>
<polygon fill="#191970" stroke="#191970" points="157.2519,-42.4429 165.6848,-36.0291 155.0928,-35.7842 157.2519,-42.4429"/>
</g>
<!-- Node3 -->
<g id="node4" class="node">
<title>Node3</title>
<g id="a_node4"><a xlink:href="namespaceargo_a48dc17c94275df10a8e7f3959cbf0191.html#a48dc17c94275df10a8e7f3959cbf0191" target="_top" xlink:title="Get the ArgoDSM node id where addr is physically backed. ">
<polygon fill="#ffffff" stroke="#000000" points="307,-134 307,-153 424,-153 424,-134 307,-134"/>
<text text-anchor="middle" x="365.5" y="-141" font-family="Helvetica,sans-Serif" font-size="10.00" fill="#000000">argo::get_homenode</text>
</a>
</g>
</g>
<!-- Node2&#45;&gt;Node3 -->
<g id="edge3" class="edge">
<title>Node2&#45;&gt;Node3</title>
<path fill="none" stroke="#191970" d="M255.686,-141.441C268.6124,-141.6834 282.7506,-141.9484 296.452,-142.2054"/>
<polygon fill="#191970" stroke="#191970" points="296.7533,-145.7115 306.8171,-142.3997 296.8845,-138.7127 296.7533,-145.7115"/>
</g>
<!-- Node4 -->
<g id="node5" class="node">
<title>Node4</title>
<g id="a_node5"><a xlink:href="classargo_1_1data__distribution_1_1global__ptr_a3e2cdd4d323ef91174615e27ab94e342.html#a3e2cdd4d323ef91174615e27ab94e342" target="_top" xlink:title="return the home node of the value pointed to, or a default value if the page has not yet been first&#45;t...">
<polygon fill="#ffffff" stroke="#000000" points="460,-175.5 460,-205.5 591,-205.5 591,-175.5 460,-175.5"/>
<text text-anchor="start" x="468" y="-193.5" font-family="Helvetica,sans-Serif" font-size="10.00" fill="#000000">argo::data_distribution</text>
<text text-anchor="middle" x="525.5" y="-182.5" font-family="Helvetica,sans-Serif" font-size="10.00" fill="#000000">::global_ptr::peek_node</text>
</a>
</g>
</g>
<!-- Node3&#45;&gt;Node4 -->
<g id="edge4" class="edge">
<title>Node3&#45;&gt;Node4</title>
<path fill="none" stroke="#191970" d="M397.8784,-153.0112C416.9686,-158.6189 441.7471,-165.8976 464.3856,-172.5476"/>
<polygon fill="#191970" stroke="#191970" points="463.6888,-175.9908 474.2699,-175.4512 465.6617,-169.2746 463.6888,-175.9908"/>
</g>
<!-- Node5 -->
<g id="node6" class="node">
<title>Node5</title>
<g id="a_node6"><a xlink:href="namespaceargo_a2f35b6b6e0af76fb8fb47f2031d6f58e.html#a2f35b6b6e0af76fb8fb47f2031d6f58e" target="_top" xlink:title="Get the block size of the current allocation policy. ">
<polygon fill="#ffffff" stroke="#000000" points="467.5,-137 467.5,-156 583.5,-156 583.5,-137 467.5,-137"/>
<text text-anchor="middle" x="525.5" y="-144" font-family="Helvetica,sans-Serif" font-size="10.00" fill="#000000">argo::get_block_size</text>
</a>
</g>
</g>
<!-- Node3&#45;&gt;Node5 -->
<g id="edge5" class="edge">
<title>Node3&#45;&gt;Node5</title>
<path fill="none" stroke="#191970" d="M424.1696,-144.6001C434.9585,-144.8023 446.3057,-145.0151 457.3452,-145.2221"/>
<polygon fill="#191970" stroke="#191970" points="457.3083,-148.7219 467.3722,-145.4101 457.4396,-141.7232 457.3083,-148.7219"/>
</g>
<!-- Node11 -->
<g id="node12" class="node">
<title>Node11</title>
<g id="a_node12"><a xlink:href="namespaceargo_a2b6b342c320b2a608d317a328fc46d83.html#a2b6b342c320b2a608d317a328fc46d83" target="_top" xlink:title="Size of memory which is the portion of memory owned by this node. ">
<polygon fill="#ffffff" stroke="#000000" points="476.5,-99 476.5,-118 574.5,-118 574.5,-99 476.5,-99"/>
<text text-anchor="middle" x="525.5" y="-106" font-family="Helvetica,sans-Serif" font-size="10.00" fill="#000000">argo::chunk_size</text>
</a>
</g>
</g>
<!-- Node3&#45;&gt;Node11 -->
<g id="edge12" class="edge">
<title>Node3&#45;&gt;Node11</title>
<path fill="none" stroke="#191970" d="M409.2207,-133.9361C428.6221,-129.692 451.6353,-124.6579 472.0477,-120.1927"/>
<polygon fill="#191970" stroke="#191970" points="472.8111,-123.6085 481.8322,-118.0523 471.3152,-116.7702 472.8111,-123.6085"/>
</g>
<!-- Node6 -->
<g id="node7" class="node">
<title>Node6</title>
<g id="a_node7"><a xlink:href="namespaceargo_1_1data__distribution_a2a70ed49553953957c3a28aa755d7ac8.html#a2a70ed49553953957c3a28aa755d7ac8" target="_top" xlink:title="based on the chosen policy, gets the policy block size ">
<polygon fill="#ffffff" stroke="#000000" points="627,-131.5 627,-161.5 754,-161.5 754,-131.5 627,-131.5"/>
<text text-anchor="start" x="635" y="-149.5" font-family="Helvetica,sans-Serif" font-size="10.00" fill="#000000">argo::data_distribution</text>
<text text-anchor="middle" x="690.5" y="-138.5" font-family="Helvetica,sans-Serif" font-size="10.00" fill="#000000">::policy_block_size</text>
</a>
</g>
</g>
<!-- Node5&#45;&gt;Node6 -->
<g id="edge6" class="edge">
<title>Node5&#45;&gt;Node6</title>
<path fill="none" stroke="#191970" d="M583.6728,-146.5C594.3993,-146.5 605.7284,-146.5 616.841,-146.5"/>
<polygon fill="#191970" stroke="#191970" points="616.9621,-150.0001 626.9621,-146.5 616.962,-143.0001 616.9621,-150.0001"/>
</g>
<!-- Node7 -->
<g id="node8" class="node">
<title>Node7</title>
<g id="a_node8"><a xlink:href="namespaceargo_1_1env_a30775a9aa41b956df7474a2c0cc317aa.html#a30775a9aa41b956df7474a2c0cc317aa" target="_top" xlink:title="get the allocation block size requested by environment variable ">
<polygon fill="#ffffff" stroke="#000000" points="795.5,-180.5 795.5,-210.5 911.5,-210.5 911.5,-180.5 795.5,-180.5"/>
<text text-anchor="start" x="803.5" y="-198.5" font-family="Helvetica,sans-Serif" font-size="10.00" fill="#000000">argo::env::allocation</text>
<text text-anchor="middle" x="853.5" y="-187.5" font-family="Helvetica,sans-Serif" font-size="10.00" fill="#000000">_block_size</text>
</a>
</g>
</g>
<!-- Node6&#45;&gt;Node7 -->
<g id="edge7" class="edge">
<title>Node6&#45;&gt;Node7</title>
<path fill="none" stroke="#191970" d="M740.7354,-161.6014C757.3909,-166.6083 776.0997,-172.2324 793.4194,-177.439"/>
<polygon fill="#191970" stroke="#191970" points="792.8462,-180.9213 803.4305,-180.4484 794.8615,-174.2177 792.8462,-180.9213"/>
</g>
<!-- Node8 -->
<g id="node9" class="node">
<title>Node8</title>
<g id="a_node9"><a xlink:href="namespaceargo_1_1data__distribution_a1bb3f2dcecd237990e6dc67764f06860.html#a1bb3f2dcecd237990e6dc67764f06860" target="_top" xlink:title="identifies if we distribute data using a cyclic memory policy ">
<polygon fill="#ffffff" stroke="#000000" points="790,-131.5 790,-161.5 917,-161.5 917,-131.5 790,-131.5"/>
<text text-anchor="start" x="798" y="-149.5" font-family="Helvetica,sans-Serif" font-size="10.00" fill="#000000">argo::data_distribution</text>
<text text-anchor="middle" x="853.5" y="-138.5" font-family="Helvetica,sans-Serif" font-size="10.00" fill="#000000">::is_cyclic_policy</text>
</a>
</g>
</g>
<!-- Node6&#45;&gt;Node8 -->
<g id="edge8" class="edge">
<title>Node6&#45;&gt;Node8</title>
<path fill="none" stroke="#191970" d="M754.4541,-146.5C762.7606,-146.5 771.3224,-146.5 779.7718,-146.5"/>
<polygon fill="#191970" stroke="#191970" points="779.9977,-150.0001 789.9977,-146.5 779.9977,-143.0001 779.9977,-150.0001"/>
</g>
<!-- Node10 -->
<g id="node11" class="node">
<title>Node10</title>
<g id="a_node11"><a xlink:href="namespaceargo_1_1data__distribution_a58576657391f45caf61bf0748a23b098.html#a58576657391f45caf61bf0748a23b098" target="_top" xlink:title="identifies if we distribute data using the first&#45;touch memory policy ">
<polygon fill="#ffffff" stroke="#000000" points="790,-82.5 790,-112.5 917,-112.5 917,-82.5 790,-82.5"/>
<text text-anchor="start" x="798" y="-100.5" font-family="Helvetica,sans-Serif" font-size="10.00" fill="#000000">argo::data_distribution</text>
<text text-anchor="middle" x="853.5" y="-89.5" font-family="Helvetica,sans-Serif" font-size="10.00" fill="#000000">::is_first_touch_policy</text>
</a>
</g>
</g>
<!-- Node6&#45;&gt;Node10 -->
<g id="edge10" class="edge">
<title>Node6&#45;&gt;Node10</title>
<path fill="none" stroke="#191970" d="M740.7354,-131.3986C757.3909,-126.3917 776.0997,-120.7676 793.4194,-115.561"/>
<polygon fill="#191970" stroke="#191970" points="794.8615,-118.7823 803.4305,-112.5516 792.8462,-112.0787 794.8615,-118.7823"/>
</g>
<!-- Node9 -->
<g id="node10" class="node">
<title>Node9</title>
<g id="a_node10"><a xlink:href="namespaceargo_1_1env_a25a08cb2d0d11432d640ec7173063339.html#a25a08cb2d0d11432d640ec7173063339" target="_top" xlink:title="get the allocation policy requested by environment variable ">
<polygon fill="#ffffff" stroke="#000000" points="953,-106.5 953,-136.5 1069,-136.5 1069,-106.5 953,-106.5"/>
<text text-anchor="start" x="961" y="-124.5" font-family="Helvetica,sans-Serif" font-size="10.00" fill="#000000">argo::env::allocation</text>
<text text-anchor="middle" x="1011" y="-113.5" font-family="Helvetica,sans-Serif" font-size="10.00" fill="#000000">_policy</text>
</a>
</g>
</g>
<!-- Node8&#45;&gt;Node9 -->
<g id="edge9" class="edge">
<title>Node8&#45;&gt;Node9</title>
<path fill="none" stroke="#191970" d="M917.1073,-136.4036C925.5754,-135.0595 934.2863,-133.6768 942.8281,-132.3209"/>
<polygon fill="#191970" stroke="#191970" points="943.4255,-135.77 952.7531,-130.7455 942.3281,-128.8566 943.4255,-135.77"/>
</g>
<!-- Node10&#45;&gt;Node9 -->
<g id="edge11" class="edge">
<title>Node10&#45;&gt;Node9</title>
<path fill="none" stroke="#191970" d="M917.1073,-107.1925C925.5754,-108.4829 934.2863,-109.8103 942.8281,-111.1119"/>
<polygon fill="#191970" stroke="#191970" points="942.34,-114.5778 952.7531,-112.6243 943.3945,-107.6577 942.34,-114.5778"/>
</g>
<!-- Node14 -->
<g id="node15" class="node">
<title>Node14</title>
<g id="a_node15"><a xlink:href="swdsm_8cpp_a0edf823a78daed8888e8e18468460617.html#a0edf823a78daed8888e8e18468460617" target="_top" xlink:title="Gives homenode for a given address. ">
<polygon fill="#ffffff" stroke="#000000" points="321,-55 321,-74 410,-74 410,-55 321,-55"/>
<text text-anchor="middle" x="365.5" y="-62" font-family="Helvetica,sans-Serif" font-size="10.00" fill="#000000">get_homenode</text>
</a>
</g>
</g>
<!-- Node13&#45;&gt;Node14 -->
<g id="edge15" class="edge">
<title>Node13&#45;&gt;Node14</title>
<path fill="none" stroke="#191970" d="M248.7983,-64.5C267.8788,-64.5 290.5155,-64.5 310.7506,-64.5"/>
<polygon fill="#191970" stroke="#191970" points="310.7724,-68.0001 320.7724,-64.5 310.7723,-61.0001 310.7724,-68.0001"/>
</g>
<!-- Node16 -->
<g id="node17" class="node">
<title>Node16</title>
<g id="a_node17"><a xlink:href="swdsm_8cpp_ab58b1f9fa1b59d3060f241994979e18f.html#ab58b1f9fa1b59d3060f241994979e18f" target="_top" xlink:title="Gets the offset of an address on the local nodes part of the global memory. ">
<polygon fill="#ffffff" stroke="#000000" points="333,-12 333,-31 398,-31 398,-12 333,-12"/>
<text text-anchor="middle" x="365.5" y="-19" font-family="Helvetica,sans-Serif" font-size="10.00" fill="#000000">get_offset</text>
</a>
</g>
</g>
<!-- Node13&#45;&gt;Node16 -->
<g id="edge17" class="edge">
<title>Node13&#45;&gt;Node16</title>
<path fill="none" stroke="#191970" d="M241.0092,-54.9569C265.2295,-48.4477 297.4273,-39.7945 323.0101,-32.9192"/>
<polygon fill="#191970" stroke="#191970" points="324.0652,-36.2599 332.8141,-30.2843 322.2483,-29.4998 324.0652,-36.2599"/>
</g>
<!-- Node15 -->
<g id="node16" class="node">
<title>Node15</title>
<g id="a_node16"><a xlink:href="classargo_1_1data__distribution_1_1global__ptr_ac7d651586337d08cda18ef26ffcd34a0.html#ac7d651586337d08cda18ef26ffcd34a0" target="_top" xlink:title="return the home node of the value pointed to ">
<polygon fill="#ffffff" stroke="#000000" points="462,-49.5 462,-79.5 589,-79.5 589,-49.5 462,-49.5"/>
<text text-anchor="start" x="470" y="-67.5" font-family="Helvetica,sans-Serif" font-size="10.00" fill="#000000">argo::data_distribution</text>
<text text-anchor="middle" x="525.5" y="-56.5" font-family="Helvetica,sans-Serif" font-size="10.00" fill="#000000">::global_ptr::node</text>
</a>
</g>
</g>
<!-- Node14&#45;&gt;Node15 -->
<g id="edge16" class="edge">
<title>Node14&#45;&gt;Node15</title>
<path fill="none" stroke="#191970" d="M410.0689,-64.5C422.9412,-64.5 437.3472,-64.5 451.5013,-64.5"/>
<polygon fill="#191970" stroke="#191970" points="451.7376,-68.0001 461.7375,-64.5 451.7375,-61.0001 451.7376,-68.0001"/>
</g>
<!-- Node17 -->
<g id="node18" class="node">
<title>Node17</title>
<g id="a_node18"><a xlink:href="classargo_1_1data__distribution_1_1global__ptr_ad8c21c408fa2b926cfd9acfd87e8e4e6.html#ad8c21c408fa2b926cfd9acfd87e8e4e6" target="_top" xlink:title="return the offset on the home node&#39;s local memory share ">
<polygon fill="#ffffff" stroke="#000000" points="462,-.5 462,-30.5 589,-30.5 589,-.5 462,-.5"/>
<text text-anchor="start" x="470" y="-18.5" font-family="Helvetica,sans-Serif" font-size="10.00" fill="#000000">argo::data_distribution</text>
<text text-anchor="middle" x="525.5" y="-7.5" font-family="Helvetica,sans-Serif" font-size="10.00" fill="#000000">::global_ptr::offset</text>
</a>
</g>
</g>
<!-- Node16&#45;&gt;Node17 -->
<g id="edge18" class="edge">
<title>Node16&#45;&gt;Node17</title>
<path fill="none" stroke="#191970" d="M398.2645,-20.2713C413.764,-19.6901 432.9491,-18.9707 451.6797,-18.2683"/>
<polygon fill="#191970" stroke="#191970" points="451.8488,-21.7645 461.7106,-17.8921 451.5864,-14.7694 451.8488,-21.7645"/>
</g>
</g>
</svg>
        <g id="navigator" transform="translate(0 0)" fill="#404254">
                <rect fill="#f2f5e9" fill-opacity="0.5" stroke="#606060" stroke-width=".5" x="0" y="0" width="60" height="60"/>
                <use id="zoomplus" xlink:href="#zoomPlus" x="17" y="9" onmousedown="handleZoom(evt,'in')"/>
                <use id="zoomminus" xlink:href="#zoomMin" x="42" y="9" onmousedown="handleZoom(evt,'out')"/>
                <use id="reset" xlink:href="#resetDef" x="30" y="36" onmousedown="handleReset()"/>
                <g id="arrowUp" xlink:href="#dirArrow" transform="translate(30 24)" onmousedown="handlePan(0,-1)">
                  <use xlink:href="#rim" fill="#404040">
                        <set attributeName="fill" to="#808080" begin="arrowUp.mouseover" end="arrowUp.mouseout"/>
                  </use>
                  <path fill="none" stroke="white" stroke-width="1.5" d="M0,-3.0v7 M-2.5,-0.5L0,-3.0L2.5,-0.5"/>
                </g>
                <g id="arrowRight" xlink:href="#dirArrow" transform="rotate(90) translate(36 -43)" onmousedown="handlePan(1,0)">
                  <use xlink:href="#rim" fill="#404040">
                        <set attributeName="fill" to="#808080" begin="arrowRight.mouseover" end="arrowRight.mouseout"/>
                  </use>
                  <path fill="none" stroke="white" stroke-width="1.5" d="M0,-3.0v7 M-2.5,-0.5L0,-3.0L2.5,-0.5"/>
                </g>
                <g id="arrowDown" xlink:href="#dirArrow" transform="rotate(180) translate(-30 -48)" onmousedown="handlePan(0,1)">
                  <use xlink:href="#rim" fill="#404040">
                        <set attributeName="fill" to="#808080" begin="arrowDown.mouseover" end="arrowDown.mouseout"/>
                  </use>
                  <path fill="none" stroke="white" stroke-width="1.5" d="M0,-3.0v7 M-2.5,-0.5L0,-3.0L2.5,-0.5"/>
                </g>
                <g id="arrowLeft" xlink:href="#dirArrow" transform="rotate(270) translate(-36 17)" onmousedown="handlePan(-1,0)">
                  <use xlink:href="#rim" fill="#404040">
                        <set attributeName="fill" to="#808080" begin="arrowLeft.mouseover" end="arrowLeft.mouseout"/>
                  </use>
                  <path fill="none" stroke="white" stroke-width="1.5" d="M0,-3.0v7 M-2.5,-0.5L0,-3.0L2.5,-0.5"/>
                </g>
        </g>
        <svg viewBox="0 0 15 15" width="100%" height="30px" preserveAspectRatio="xMaxYMin meet">
         <g id="arrow_out" transform="scale(0.3 0.3)">
          <a xlink:href="classwrite__buffer_aca2e330e17a38c1cc8d8c60701ce9dd7_aca2e330e17a38c1cc8d8c60701ce9dd7_cgraph_org.svg" target="_base">
           <rect id="button" ry="5" rx="5" y="6" x="6" height="38" width="38"
                fill="#f2f5e9" fill-opacity="0.5" stroke="#606060" stroke-width="1.0"/>
           <path id="arrow"
             d="M 11.500037,31.436501 C 11.940474,20.09759 22.043105,11.32322 32.158766,21.979434 L 37.068811,17.246167 C 37.068811,17.246167 37.088388,32 37.088388,32 L 22.160133,31.978069 C 22.160133,31.978069 26.997745,27.140456 26.997745,27.140456 C 18.528582,18.264221 13.291696,25.230495 11.500037,31.436501 z"
             style="fill:#404040;"/>
          </a>
         </g>
        </svg>
</svg>
