<?xml version="1.0" encoding="UTF-8" standalone="no"?>
<!DOCTYPE svg PUBLIC "-//W3C//DTD SVG 1.1//EN"
 "http://www.w3.org/Graphics/SVG/1.1/DTD/svg11.dtd">
<!-- Generated by graphviz version 2.40.1 (20161225.0304)
 -->
<!-- Title: write_buffer::empty Pages: 1 -->
<!--zoomable 292 -->
<svg id="main" version="1.1" xmlns="http://www.w3.org/2000/svg" xmlns:xlink="http://www.w3.org/1999/xlink" xml:space="preserve" onload="init(evt)">
<style type="text/css"><![CDATA[
.edge:hover path { stroke: red; }
.edge:hover polygon { stroke: red; fill: red; }
]]></style>
<script type="text/javascript"><![CDATA[
var edges = document.getElementsByTagName('g');
if (edges && edges.length) {
  for (var i=0;i<edges.length;i++) {
    if (edges[i].id.substr(0,4)=='edge') {
      edges[i].setAttribute('class','edge');
    }
  }
}
]]></script>
        <defs>
                <circle id="rim" cx="0" cy="0" r="7"/>
                <circle id="rim2" cx="0" cy="0" r="3.5"/>
                <g id="zoomPlus">
                        <use xlink:href="#rim" fill="#404040">
                                <set attributeName="fill" to="#808080" begin="zoomplus.mouseover" end="zoomplus.mouseout"/>
                        </use>
                        <path d="M-4,0h8M0,-4v8" fill="none" stroke="white" stroke-width="1.5" pointer-events="none"/>
                </g>
                <g id="zoomMin">
                        <use xlink:href="#rim" fill="#404040">
                                <set attributeName="fill" to="#808080" begin="zoomminus.mouseover" end="zoomminus.mouseout"/>
                        </use>
                        <path d="M-4,0h8" fill="none" stroke="white" stroke-width="1.5" pointer-events="none"/>
                </g>
                <g id="dirArrow">
                        <path fill="none" stroke="white" stroke-width="1.5" d="M0,-3.0v7 M-2.5,-0.5L0,-3.0L2.5,-0.5"/>
                </g>
               <g id="resetDef">
                       <use xlink:href="#rim2" fill="#404040">
                               <set attributeName="fill" to="#808080" begin="reset.mouseover" end="reset.mouseout"/>
                       </use>
               </g>
        </defs>

<script type="text/javascript">
var viewWidth = 997;
var viewHeight = 292;
var sectionId = 'dynsection-0';
</script>
<script xlink:href="svgpan.js"/>
<svg id="graph" class="graph">
<g id="viewport">
<title>write_buffer::empty</title>
<polygon fill="#ffffff" stroke="transparent" points="-4,4 -4,-288 993,-288 993,4 -4,4"/>
<!-- Node1 -->
<g id="node1" class="node">
<title>Node1</title>
<polygon fill="#bfbfbf" stroke="#000000" points="0,-103.5 0,-122.5 113,-122.5 113,-103.5 0,-103.5"/>
<text text-anchor="middle" x="56.5" y="-110.5" font-family="Helvetica,sans-Serif" font-size="10.00" fill="#000000">write_buffer::empty</text>
</g>
<!-- Node2 -->
<g id="node2" class="node">
<title>Node2</title>
<g id="a_node2"><a xlink:href="classwrite__buffer_aca2e330e17a38c1cc8d8c60701ce9dd7.html#aca2e330e17a38c1cc8d8c60701ce9dd7" target="_top" xlink:title="Flushes the ArgoDSM write buffer to memory. ">
<polygon fill="#ffffff" stroke="#000000" points="149,-103.5 149,-122.5 253,-122.5 253,-103.5 149,-103.5"/>
<text text-anchor="middle" x="201" y="-110.5" font-family="Helvetica,sans-Serif" font-size="10.00" fill="#000000">write_buffer::flush</text>
</a>
</g>
</g>
<!-- Node1&#45;&gt;Node2 -->
<g id="edge1" class="edge">
<title>Node1&#45;&gt;Node2</title>
<path fill="none" stroke="#191970" d="M123.455,-113C131.9315,-113 140.5058,-113 148.7077,-113"/>
<polygon fill="#191970" stroke="#191970" points="123.1955,-109.5001 113.1955,-113 123.1955,-116.5001 123.1955,-109.5001"/>
</g>
<!-- Node3 -->
<g id="node3" class="node">
<title>Node3</title>
<g id="a_node3"><a xlink:href="swdsm_8h_aa7c3a2de6bbafdaf68fe6ceb6110ab97.html#aa7c3a2de6bbafdaf68fe6ceb6110ab97" target="_top" xlink:title="Self&#45;Invalidates all memory that has potential writers. ">
<polygon fill="#ffffff" stroke="#000000" points="289,-103.5 289,-122.5 387,-122.5 387,-103.5 289,-103.5"/>
<text text-anchor="middle" x="338" y="-110.5" font-family="Helvetica,sans-Serif" font-size="10.00" fill="#000000">self_invalidation</text>
</a>
</g>
</g>
<!-- Node2&#45;&gt;Node3 -->
<g id="edge2" class="edge">
<title>Node2&#45;&gt;Node3</title>
<path fill="none" stroke="#191970" d="M263.4154,-113C271.8824,-113 280.4744,-113 288.6684,-113"/>
<polygon fill="#191970" stroke="#191970" points="263.1847,-109.5001 253.1846,-113 263.1846,-116.5001 263.1847,-109.5001"/>
</g>
<!-- Node4 -->
<g id="node4" class="node">
<title>Node4</title>
<g id="a_node4"><a xlink:href="swdsm_8h_ad3f5bdae81c60ac704dda7372792427d.html#ad3f5bdae81c60ac704dda7372792427d" target="_top" xlink:title="Global barrier for ArgoDSM &#45; needs to be called by every thread in the system that need coherent view...">
<polygon fill="#ffffff" stroke="#000000" points="423,-169.5 423,-188.5 539,-188.5 539,-169.5 423,-169.5"/>
<text text-anchor="middle" x="481" y="-176.5" font-family="Helvetica,sans-Serif" font-size="10.00" fill="#000000">swdsm_argo_barrier</text>
</a>
</g>
</g>
<!-- Node2&#45;&gt;Node4 -->
<g id="edge16" class="edge">
<title>Node2&#45;&gt;Node4</title>
<path fill="none" stroke="#191970" d="M251.1526,-124.8217C305.3202,-137.5898 390.5596,-157.6819 440.5969,-169.4764"/>
<polygon fill="#191970" stroke="#191970" points="251.9517,-121.4142 241.4154,-122.5265 250.3456,-128.2275 251.9517,-121.4142"/>
</g>
<!-- Node16 -->
<g id="node16" class="node">
<title>Node16</title>
<g id="a_node16"><a xlink:href="swdsm_8h_ad390eb58e1be03ed6a0939fae7ebd20a.html#ad390eb58e1be03ed6a0939fae7ebd20a" target="_top" xlink:title="Release function for ArgoDSM (Release according to Release Consistency) ">
<polygon fill="#ffffff" stroke="#000000" points="441,-56.5 441,-75.5 521,-75.5 521,-56.5 441,-56.5"/>
<text text-anchor="middle" x="481" y="-63.5" font-family="Helvetica,sans-Serif" font-size="10.00" fill="#000000">argo_release</text>
</a>
</g>
</g>
<!-- Node2&#45;&gt;Node16 -->
<g id="edge17" class="edge">
<title>Node2&#45;&gt;Node16</title>
<path fill="none" stroke="#191970" d="M252.3747,-101.295C264.3634,-98.7339 277.1039,-96.1491 289,-94 341.2102,-84.5679 401.8519,-76.1433 440.7882,-71.0567"/>
<polygon fill="#191970" stroke="#191970" points="251.5483,-97.8928 242.516,-103.4306 253.0303,-104.7341 251.5483,-97.8928"/>
</g>
<!-- Node3&#45;&gt;Node4 -->
<g id="edge3" class="edge">
<title>Node3&#45;&gt;Node4</title>
<path fill="none" stroke="#191970" d="M367.9935,-126.8432C395.6286,-139.5978 435.9181,-158.1929 460.1815,-169.3915"/>
<polygon fill="#191970" stroke="#191970" points="369.3398,-123.6097 358.7934,-122.597 366.4063,-129.9655 369.3398,-123.6097"/>
</g>
<!-- Node12 -->
<g id="node12" class="node">
<title>Node12</title>
<g id="a_node12"><a xlink:href="swdsm_8h_a44b8bb7a3c8b47b4f9552c8e10b25e4b.html#a44b8bb7a3c8b47b4f9552c8e10b25e4b" target="_top" xlink:title="acquire function for ArgoDSM (Acquire according to Release Consistency) ">
<polygon fill="#ffffff" stroke="#000000" points="441,-94.5 441,-113.5 521,-113.5 521,-94.5 441,-94.5"/>
<text text-anchor="middle" x="481" y="-101.5" font-family="Helvetica,sans-Serif" font-size="10.00" fill="#000000">argo_acquire</text>
</a>
</g>
</g>
<!-- Node3&#45;&gt;Node12 -->
<g id="edge11" class="edge">
<title>Node3&#45;&gt;Node12</title>
<path fill="none" stroke="#191970" d="M397.2047,-109.2738C411.8469,-108.3523 427.1985,-107.3861 440.7026,-106.5362"/>
<polygon fill="#191970" stroke="#191970" points="396.9729,-105.7814 387.2125,-109.9027 397.4126,-112.7676 396.9729,-105.7814"/>
</g>
<!-- Node5 -->
<g id="node5" class="node">
<title>Node5</title>
<g id="a_node5"><a xlink:href="backend_8hpp_af1a647431651556204709451bebb5a42.html#af1a647431651556204709451bebb5a42" target="_top" xlink:title="a simple collective barrier ">
<polygon fill="#ffffff" stroke="#000000" points="577,-264.5 577,-283.5 701,-283.5 701,-264.5 577,-264.5"/>
<text text-anchor="middle" x="639" y="-271.5" font-family="Helvetica,sans-Serif" font-size="10.00" fill="#000000">argo::backend::barrier</text>
</a>
</g>
</g>
<!-- Node4&#45;&gt;Node5 -->
<g id="edge4" class="edge">
<title>Node4&#45;&gt;Node5</title>
<path fill="none" stroke="#191970" d="M497.4898,-195.7616C515.2011,-212.8894 544.8809,-239.1567 575,-255 582.1805,-258.7771 590.2193,-261.9092 598.1101,-264.4666"/>
<polygon fill="#191970" stroke="#191970" points="499.8128,-193.1368 490.2358,-188.6055 494.8968,-198.1201 499.8128,-193.1368"/>
</g>
<!-- Node6 -->
<g id="node6" class="node">
<title>Node6</title>
<g id="a_node6"><a xlink:href="swdsm_8h_acd175d6d8efa5cce6963bae64891a490.html#acd175d6d8efa5cce6963bae64891a490" target="_top" xlink:title="Allocates memory in global address space. ">
<polygon fill="#ffffff" stroke="#000000" points="597.5,-226.5 597.5,-245.5 680.5,-245.5 680.5,-226.5 597.5,-226.5"/>
<text text-anchor="middle" x="639" y="-233.5" font-family="Helvetica,sans-Serif" font-size="10.00" fill="#000000">argo_gmalloc</text>
</a>
</g>
</g>
<!-- Node4&#45;&gt;Node6 -->
<g id="edge5" class="edge">
<title>Node4&#45;&gt;Node6</title>
<path fill="none" stroke="#191970" d="M512.0503,-192.423C530.233,-200.0637 553.7322,-209.5633 575,-217 584.5185,-220.3283 594.959,-223.5888 604.5955,-226.4432"/>
<polygon fill="#191970" stroke="#191970" points="513.3789,-189.1848 502.8058,-188.5063 510.6481,-195.6302 513.3789,-189.1848"/>
</g>
<!-- Node7 -->
<g id="node7" class="node">
<title>Node7</title>
<g id="a_node7"><a xlink:href="swdsm_8cpp_aa954d5e0bcaee69ff6e03e697bcaf68b.html#aa954d5e0bcaee69ff6e03e697bcaf68b" target="_top" xlink:title="shut down ArgoDSM system ">
<polygon fill="#ffffff" stroke="#000000" points="599.5,-188.5 599.5,-207.5 678.5,-207.5 678.5,-188.5 599.5,-188.5"/>
<text text-anchor="middle" x="639" y="-195.5" font-family="Helvetica,sans-Serif" font-size="10.00" fill="#000000">argo_finalize</text>
</a>
</g>
</g>
<!-- Node4&#45;&gt;Node7 -->
<g id="edge6" class="edge">
<title>Node4&#45;&gt;Node7</title>
<path fill="none" stroke="#191970" d="M549.7661,-187.2693C566.6157,-189.2956 584.0971,-191.3977 599.0741,-193.1988"/>
<polygon fill="#191970" stroke="#191970" points="549.7308,-183.74 539.3845,-186.0209 548.895,-190.6899 549.7308,-183.74"/>
</g>
<!-- Node9 -->
<g id="node9" class="node">
<title>Node9</title>
<g id="a_node9"><a xlink:href="swdsm_8h_a0c6b51af2b87ddf7eb04aa7d4e0e836e.html#a0c6b51af2b87ddf7eb04aa7d4e0e836e" target="_top" xlink:title="Resets current coherence. Collective function called by all threads on all nodes. ...">
<polygon fill="#ffffff" stroke="#000000" points="577,-150.5 577,-169.5 701,-169.5 701,-150.5 577,-150.5"/>
<text text-anchor="middle" x="639" y="-157.5" font-family="Helvetica,sans-Serif" font-size="10.00" fill="#000000">argo_reset_coherence</text>
</a>
</g>
</g>
<!-- Node4&#45;&gt;Node9 -->
<g id="edge8" class="edge">
<title>Node4&#45;&gt;Node9</title>
<path fill="none" stroke="#191970" d="M549.5403,-170.7578C558.6296,-169.6648 567.9068,-168.5492 576.8793,-167.4702"/>
<polygon fill="#191970" stroke="#191970" points="548.895,-167.3101 539.3845,-171.9791 549.7308,-174.26 548.895,-167.3101"/>
</g>
<!-- Node8 -->
<g id="node8" class="node">
<title>Node8</title>
<g id="a_node8"><a xlink:href="swdsm_8h_a18cc89a7368e30281ea4b1d214a1b1ff.html#a18cc89a7368e30281ea4b1d214a1b1ff" target="_top" xlink:title="Pins and registers the local thread. ">
<polygon fill="#ffffff" stroke="#000000" points="742,-188.5 742,-207.5 843,-207.5 843,-188.5 742,-188.5"/>
<text text-anchor="middle" x="792.5" y="-195.5" font-family="Helvetica,sans-Serif" font-size="10.00" fill="#000000">argo_pin_threads</text>
</a>
</g>
</g>
<!-- Node7&#45;&gt;Node8 -->
<g id="edge7" class="edge">
<title>Node7&#45;&gt;Node8</title>
<path fill="none" stroke="#191970" d="M688.8002,-198C705.7693,-198 724.7517,-198 741.7913,-198"/>
<polygon fill="#191970" stroke="#191970" points="688.5301,-194.5001 678.5301,-198 688.53,-201.5001 688.5301,-194.5001"/>
</g>
<!-- Node10 -->
<g id="node10" class="node">
<title>Node10</title>
<g id="a_node10"><a xlink:href="swdsm_8h_a10dca85d339ce630cf42dca685b3f6d9.html#a10dca85d339ce630cf42dca685b3f6d9" target="_top" xlink:title="Initializes ArgoDSM runtime. ">
<polygon fill="#ffffff" stroke="#000000" points="749.5,-150.5 749.5,-169.5 835.5,-169.5 835.5,-150.5 749.5,-150.5"/>
<text text-anchor="middle" x="792.5" y="-157.5" font-family="Helvetica,sans-Serif" font-size="10.00" fill="#000000">argo_initialize</text>
</a>
</g>
</g>
<!-- Node9&#45;&gt;Node10 -->
<g id="edge9" class="edge">
<title>Node9&#45;&gt;Node10</title>
<path fill="none" stroke="#191970" d="M711.7126,-160C724.6043,-160 737.6483,-160 749.3843,-160"/>
<polygon fill="#191970" stroke="#191970" points="711.4344,-156.5001 701.4343,-160 711.4343,-163.5001 711.4344,-156.5001"/>
</g>
<!-- Node11 -->
<g id="node11" class="node">
<title>Node11</title>
<g id="a_node11"><a xlink:href="backend_8hpp_af0d80a03a17a374c10d9635ddf81e261.html#af0d80a03a17a374c10d9635ddf81e261" target="_top" xlink:title="initialize backend ">
<polygon fill="#ffffff" stroke="#000000" points="882,-150.5 882,-169.5 989,-169.5 989,-150.5 882,-150.5"/>
<text text-anchor="middle" x="935.5" y="-157.5" font-family="Helvetica,sans-Serif" font-size="10.00" fill="#000000">argo::backend::init</text>
</a>
</g>
</g>
<!-- Node10&#45;&gt;Node11 -->
<g id="edge10" class="edge">
<title>Node10&#45;&gt;Node11</title>
<path fill="none" stroke="#191970" d="M845.933,-160C857.7171,-160 870.2019,-160 881.9891,-160"/>
<polygon fill="#191970" stroke="#191970" points="845.7928,-156.5001 835.7928,-160 845.7927,-163.5001 845.7928,-156.5001"/>
</g>
<!-- Node13 -->
<g id="node13" class="node">
<title>Node13</title>
<g id="a_node13"><a xlink:href="backend_8hpp_a1032f833666c3f810ac1c6210197d426.html#a1032f833666c3f810ac1c6210197d426" target="_top" xlink:title="causes a node to self&#45;invalidate its cache, and thus getting any updated values on subsequent accesse...">
<polygon fill="#ffffff" stroke="#000000" points="575,-94.5 575,-113.5 703,-113.5 703,-94.5 575,-94.5"/>
<text text-anchor="middle" x="639" y="-101.5" font-family="Helvetica,sans-Serif" font-size="10.00" fill="#000000">argo::backend::acquire</text>
</a>
</g>
</g>
<!-- Node12&#45;&gt;Node13 -->
<g id="edge12" class="edge">
<title>Node12&#45;&gt;Node13</title>
<path fill="none" stroke="#191970" d="M531.5231,-104C545.3033,-104 560.4182,-104 574.8475,-104"/>
<polygon fill="#191970" stroke="#191970" points="531.2789,-100.5001 521.2789,-104 531.2789,-107.5001 531.2789,-100.5001"/>
</g>
<!-- Node15 -->
<g id="node15" class="node">
<title>Node15</title>
<g id="a_node15"><a xlink:href="swdsm_8h_ac0b665f72bc2a28dc663ed204c526e1b.html#ac0b665f72bc2a28dc663ed204c526e1b" target="_top" xlink:title="acquire&#45;release function for ArgoDSM (Both acquire and release according to Release Consistency) ...">
<polygon fill="#ffffff" stroke="#000000" points="599.5,-56.5 599.5,-75.5 678.5,-75.5 678.5,-56.5 599.5,-56.5"/>
<text text-anchor="middle" x="639" y="-63.5" font-family="Helvetica,sans-Serif" font-size="10.00" fill="#000000">argo_acq_rel</text>
</a>
</g>
</g>
<!-- Node12&#45;&gt;Node15 -->
<g id="edge15" class="edge">
<title>Node12&#45;&gt;Node15</title>
<path fill="none" stroke="#191970" d="M530.7616,-92.032C552.9029,-86.7069 578.6116,-80.5238 599.4166,-75.5201"/>
<polygon fill="#191970" stroke="#191970" points="529.7744,-88.6696 520.8701,-94.411 531.4113,-95.4755 529.7744,-88.6696"/>
</g>
<!-- Node13&#45;&gt;Node13 -->
<g id="edge13" class="edge">
<title>Node13&#45;&gt;Node13</title>
<path fill="none" stroke="#191970" d="M610.6275,-122.6539C611.8135,-127.9368 621.271,-132 639,-132 666.0156,-132 673.8248,-122.5653 662.4276,-113.7571"/>
<polygon fill="#191970" stroke="#191970" points="613.7735,-124.1981 615.5724,-113.7571 607.6551,-120.7974 613.7735,-124.1981"/>
</g>
<!-- Node14 -->
<g id="node14" class="node">
<title>Node14</title>
<g id="a_node14"><a xlink:href="singlenode_8cpp_aab3cabb3e1c0b9696b339416b684f78c.html#aab3cabb3e1c0b9696b339416b684f78c" target="_top" xlink:title="argo::backend::init">
<polygon fill="#ffffff" stroke="#000000" points="739,-47.5 739,-66.5 846,-66.5 846,-47.5 739,-47.5"/>
<text text-anchor="middle" x="792.5" y="-54.5" font-family="Helvetica,sans-Serif" font-size="10.00" fill="#000000">argo::backend::init</text>
</a>
</g>
</g>
<!-- Node13&#45;&gt;Node14 -->
<g id="edge14" class="edge">
<title>Node13&#45;&gt;Node14</title>
<path fill="none" stroke="#191970" d="M681.2842,-91.5419C688.5336,-89.3789 695.9877,-87.1377 703,-85 722.7781,-78.9708 744.9594,-72.0326 762.2918,-66.5712"/>
<polygon fill="#191970" stroke="#191970" points="680.1735,-88.2207 671.5861,-94.4261 682.1689,-94.9302 680.1735,-88.2207"/>
</g>
<!-- Node16&#45;&gt;Node15 -->
<g id="edge21" class="edge">
<title>Node16&#45;&gt;Node15</title>
<path fill="none" stroke="#191970" d="M531.4252,-66C553.3886,-66 578.7577,-66 599.3418,-66"/>
<polygon fill="#191970" stroke="#191970" points="531.2789,-62.5001 521.2789,-66 531.2788,-69.5001 531.2789,-62.5001"/>
</g>
<!-- Node17 -->
<g id="node17" class="node">
<title>Node17</title>
<g id="a_node17"><a xlink:href="backend_8hpp_a8953c9cd9d3c56306740b6c9b97513a2.html#a8953c9cd9d3c56306740b6c9b97513a2" target="_top" xlink:title="causes a node to self&#45;downgrade its cache, making all previous writes to be propagated to the homenod...">
<polygon fill="#ffffff" stroke="#000000" points="575,-.5 575,-19.5 703,-19.5 703,-.5 575,-.5"/>
<text text-anchor="middle" x="639" y="-7.5" font-family="Helvetica,sans-Serif" font-size="10.00" fill="#000000">argo::backend::release</text>
</a>
</g>
</g>
<!-- Node16&#45;&gt;Node17 -->
<g id="edge18" class="edge">
<title>Node16&#45;&gt;Node17</title>
<path fill="none" stroke="#191970" d="M517.8955,-52.9231C546.7787,-42.686 586.2706,-28.6889 612.1933,-19.5011"/>
<polygon fill="#191970" stroke="#191970" points="516.4174,-49.7336 508.1612,-56.3733 518.7559,-56.3314 516.4174,-49.7336"/>
</g>
<!-- Node17&#45;&gt;Node14 -->
<g id="edge20" class="edge">
<title>Node17&#45;&gt;Node14</title>
<path fill="none" stroke="#191970" d="M679.8303,-22.5018C705.3583,-30.3182 737.7319,-40.2306 761.2201,-47.4224"/>
<polygon fill="#191970" stroke="#191970" points="680.6496,-19.0923 670.063,-19.5112 678.6001,-25.7856 680.6496,-19.0923"/>
</g>
<!-- Node17&#45;&gt;Node17 -->
<g id="edge19" class="edge">
<title>Node17&#45;&gt;Node17</title>
<path fill="none" stroke="#191970" d="M610.6275,-28.6539C611.8135,-33.9368 621.271,-38 639,-38 666.0156,-38 673.8248,-28.5653 662.4276,-19.7571"/>
<polygon fill="#191970" stroke="#191970" points="613.7735,-30.1981 615.5724,-19.7571 607.6551,-26.7974 613.7735,-30.1981"/>
</g>
</g>
</svg>
        <g id="navigator" transform="translate(0 0)" fill="#404254">
                <rect fill="#f2f5e9" fill-opacity="0.5" stroke="#606060" stroke-width=".5" x="0" y="0" width="60" height="60"/>
                <use id="zoomplus" xlink:href="#zoomPlus" x="17" y="9" onmousedown="handleZoom(evt,'in')"/>
                <use id="zoomminus" xlink:href="#zoomMin" x="42" y="9" onmousedown="handleZoom(evt,'out')"/>
                <use id="reset" xlink:href="#resetDef" x="30" y="36" onmousedown="handleReset()"/>
                <g id="arrowUp" xlink:href="#dirArrow" transform="translate(30 24)" onmousedown="handlePan(0,-1)">
                  <use xlink:href="#rim" fill="#404040">
                        <set attributeName="fill" to="#808080" begin="arrowUp.mouseover" end="arrowUp.mouseout"/>
                  </use>
                  <path fill="none" stroke="white" stroke-width="1.5" d="M0,-3.0v7 M-2.5,-0.5L0,-3.0L2.5,-0.5"/>
                </g>
                <g id="arrowRight" xlink:href="#dirArrow" transform="rotate(90) translate(36 -43)" onmousedown="handlePan(1,0)">
                  <use xlink:href="#rim" fill="#404040">
                        <set attributeName="fill" to="#808080" begin="arrowRight.mouseover" end="arrowRight.mouseout"/>
                  </use>
                  <path fill="none" stroke="white" stroke-width="1.5" d="M0,-3.0v7 M-2.5,-0.5L0,-3.0L2.5,-0.5"/>
                </g>
                <g id="arrowDown" xlink:href="#dirArrow" transform="rotate(180) translate(-30 -48)" onmousedown="handlePan(0,1)">
                  <use xlink:href="#rim" fill="#404040">
                        <set attributeName="fill" to="#808080" begin="arrowDown.mouseover" end="arrowDown.mouseout"/>
                  </use>
                  <path fill="none" stroke="white" stroke-width="1.5" d="M0,-3.0v7 M-2.5,-0.5L0,-3.0L2.5,-0.5"/>
                </g>
                <g id="arrowLeft" xlink:href="#dirArrow" transform="rotate(270) translate(-36 17)" onmousedown="handlePan(-1,0)">
                  <use xlink:href="#rim" fill="#404040">
                        <set attributeName="fill" to="#808080" begin="arrowLeft.mouseover" end="arrowLeft.mouseout"/>
                  </use>
                  <path fill="none" stroke="white" stroke-width="1.5" d="M0,-3.0v7 M-2.5,-0.5L0,-3.0L2.5,-0.5"/>
                </g>
        </g>
        <svg viewBox="0 0 15 15" width="100%" height="30px" preserveAspectRatio="xMaxYMin meet">
         <g id="arrow_out" transform="scale(0.3 0.3)">
          <a xlink:href="classwrite__buffer_ab70cc0d6ca3591094aae489dbc3feaa5_ab70cc0d6ca3591094aae489dbc3feaa5_icgraph_org.svg" target="_base">
           <rect id="button" ry="5" rx="5" y="6" x="6" height="38" width="38"
                fill="#f2f5e9" fill-opacity="0.5" stroke="#606060" stroke-width="1.0"/>
           <path id="arrow"
             d="M 11.500037,31.436501 C 11.940474,20.09759 22.043105,11.32322 32.158766,21.979434 L 37.068811,17.246167 C 37.068811,17.246167 37.088388,32 37.088388,32 L 22.160133,31.978069 C 22.160133,31.978069 26.997745,27.140456 26.997745,27.140456 C 18.528582,18.264221 13.291696,25.230495 11.500037,31.436501 z"
             style="fill:#404040;"/>
          </a>
         </g>
        </svg>
</svg>
