<?xml version="1.0" encoding="UTF-8" standalone="no"?>
<!DOCTYPE svg PUBLIC "-//W3C//DTD SVG 1.1//EN"
 "http://www.w3.org/Graphics/SVG/1.1/DTD/svg11.dtd">
<!-- Generated by graphviz version 2.40.1 (20161225.0304)
 -->
<!-- Title: argo::data_distribution::naive_distribution::homenode Pages: 1 -->
<svg width="461pt" height="110pt"
 viewBox="0.00 0.00 461.00 110.00" xmlns="http://www.w3.org/2000/svg" xmlns:xlink="http://www.w3.org/1999/xlink">
<g id="graph0" class="graph" transform="scale(1 1) rotate(0) translate(4 106)">
<title>argo::data_distribution::naive_distribution::homenode</title>
<polygon fill="#ffffff" stroke="transparent" points="-4,4 -4,-106 457,-106 457,4 -4,4"/>
<!-- Node1 -->
<g id="node1" class="node">
<title>Node1</title>
<polygon fill="#bfbfbf" stroke="#000000" points="0,-30.5 0,-71.5 127,-71.5 127,-30.5 0,-30.5"/>
<text text-anchor="start" x="8" y="-59.5" font-family="Helvetica,sans-Serif" font-size="10.00" fill="#000000">argo::data_distribution</text>
<text text-anchor="start" x="8" y="-48.5" font-family="Helvetica,sans-Serif" font-size="10.00" fill="#000000">::naive_distribution::</text>
<text text-anchor="middle" x="63.5" y="-37.5" font-family="Helvetica,sans-Serif" font-size="10.00" fill="#000000">homenode</text>
</g>
<!-- Node2 -->
<g id="node2" class="node">
<title>Node2</title>
<g id="a_node2"><a xlink:href="classargo_1_1data__distribution_1_1naive__distribution_adb1f76a7f7ae28409c807b91c2b10d11.html#adb1f76a7f7ae28409c807b91c2b10d11" target="_top" xlink:title="compute home node of an address ">
<polygon fill="#ffffff" stroke="#000000" points="163,-60.5 163,-101.5 290,-101.5 290,-60.5 163,-60.5"/>
<text text-anchor="start" x="171" y="-89.5" font-family="Helvetica,sans-Serif" font-size="10.00" fill="#000000">argo::data_distribution</text>
<text text-anchor="start" x="171" y="-78.5" font-family="Helvetica,sans-Serif" font-size="10.00" fill="#000000">::naive_distribution::</text>
<text text-anchor="middle" x="226.5" y="-67.5" font-family="Helvetica,sans-Serif" font-size="10.00" fill="#000000">peek_homenode</text>
</a>
</g>
</g>
<!-- Node1&#45;&gt;Node2 -->
<g id="edge1" class="edge">
<title>Node1&#45;&gt;Node2</title>
<path fill="none" stroke="#191970" d="M137.4095,-64.603C145.9533,-66.1755 154.6094,-67.7686 162.9977,-69.3125"/>
<polygon fill="#191970" stroke="#191970" points="137.9225,-61.1387 127.4541,-62.7707 136.6553,-68.023 137.9225,-61.1387"/>
</g>
<!-- Node3 -->
<g id="node3" class="node">
<title>Node3</title>
<g id="a_node3"><a xlink:href="classargo_1_1data__distribution_1_1naive__distribution_a619080ce7c979d6dfcf18872dd8f6f25.html#a619080ce7c979d6dfcf18872dd8f6f25" target="_top" xlink:title="compute the offset of ptr in the backing store on ptr&#39;s homenode ">
<polygon fill="#ffffff" stroke="#000000" points="163,-.5 163,-41.5 290,-41.5 290,-.5 163,-.5"/>
<text text-anchor="start" x="171" y="-29.5" font-family="Helvetica,sans-Serif" font-size="10.00" fill="#000000">argo::data_distribution</text>
<text text-anchor="start" x="171" y="-18.5" font-family="Helvetica,sans-Serif" font-size="10.00" fill="#000000">::naive_distribution::</text>
<text text-anchor="middle" x="226.5" y="-7.5" font-family="Helvetica,sans-Serif" font-size="10.00" fill="#000000">local_offset</text>
</a>
</g>
</g>
<!-- Node1&#45;&gt;Node3 -->
<g id="edge2" class="edge">
<title>Node1&#45;&gt;Node3</title>
<path fill="none" stroke="#191970" d="M137.4095,-37.397C145.9533,-35.8245 154.6094,-34.2314 162.9977,-32.6875"/>
<polygon fill="#191970" stroke="#191970" points="136.6553,-33.977 127.4541,-39.2293 137.9225,-40.8613 136.6553,-33.977"/>
</g>
<!-- Node4 -->
<g id="node4" class="node">
<title>Node4</title>
<g id="a_node4"><a xlink:href="classargo_1_1data__distribution_1_1naive__distribution_a660d96f00c9eb100b08e590fa02efce7.html#a660d96f00c9eb100b08e590fa02efce7" target="_top" xlink:title="compute the offset of ptr in the backing store on ptr&#39;s homenode ">
<polygon fill="#ffffff" stroke="#000000" points="326,-.5 326,-41.5 453,-41.5 453,-.5 326,-.5"/>
<text text-anchor="start" x="334" y="-29.5" font-family="Helvetica,sans-Serif" font-size="10.00" fill="#000000">argo::data_distribution</text>
<text text-anchor="start" x="334" y="-18.5" font-family="Helvetica,sans-Serif" font-size="10.00" fill="#000000">::naive_distribution::</text>
<text text-anchor="middle" x="389.5" y="-7.5" font-family="Helvetica,sans-Serif" font-size="10.00" fill="#000000">peek_local_offset</text>
</a>
</g>
</g>
<!-- Node3&#45;&gt;Node4 -->
<g id="edge3" class="edge">
<title>Node3&#45;&gt;Node4</title>
<path fill="none" stroke="#191970" d="M300.6881,-21C309.1415,-21 317.7005,-21 325.9977,-21"/>
<polygon fill="#191970" stroke="#191970" points="300.4541,-17.5001 290.4541,-21 300.4541,-24.5001 300.4541,-17.5001"/>
</g>
</g>
</svg>
