<?xml version="1.0" encoding="UTF-8" standalone="no"?>
<!DOCTYPE svg PUBLIC "-//W3C//DTD SVG 1.1//EN"
 "http://www.w3.org/Graphics/SVG/1.1/DTD/svg11.dtd">
<!-- Generated by graphviz version 2.40.1 (20161225.0304)
 -->
<!-- Title: argo::data_distribution::prime_mapp_distribution::homenode Pages: 1 -->
<svg width="515pt" height="110pt"
 viewBox="0.00 0.00 515.00 110.00" xmlns="http://www.w3.org/2000/svg" xmlns:xlink="http://www.w3.org/1999/xlink">
<g id="graph0" class="graph" transform="scale(1 1) rotate(0) translate(4 106)">
<title>argo::data_distribution::prime_mapp_distribution::homenode</title>
<polygon fill="#ffffff" stroke="transparent" points="-4,4 -4,-106 511,-106 511,4 -4,4"/>
<!-- Node2 -->
<g id="node1" class="node">
<title>Node2</title>
<polygon fill="#bfbfbf" stroke="#000000" points="0,-30.5 0,-71.5 145,-71.5 145,-30.5 0,-30.5"/>
<text text-anchor="start" x="8" y="-59.5" font-family="Helvetica,sans-Serif" font-size="10.00" fill="#000000">argo::data_distribution</text>
<text text-anchor="start" x="8" y="-48.5" font-family="Helvetica,sans-Serif" font-size="10.00" fill="#000000">::prime_mapp_distribution</text>
<text text-anchor="middle" x="72.5" y="-37.5" font-family="Helvetica,sans-Serif" font-size="10.00" fill="#000000">::homenode</text>
</g>
<!-- Node3 -->
<g id="node2" class="node">
<title>Node3</title>
<g id="a_node2"><a xlink:href="classargo_1_1data__distribution_1_1prime__mapp__distribution_ac3a060772fce13bb7925d01c40ff30eb.html#ac3a060772fce13bb7925d01c40ff30eb" target="_top" xlink:title="compute home node of an address ">
<polygon fill="#ffffff" stroke="#000000" points="181,-60.5 181,-101.5 326,-101.5 326,-60.5 181,-60.5"/>
<text text-anchor="start" x="189" y="-89.5" font-family="Helvetica,sans-Serif" font-size="10.00" fill="#000000">argo::data_distribution</text>
<text text-anchor="start" x="189" y="-78.5" font-family="Helvetica,sans-Serif" font-size="10.00" fill="#000000">::prime_mapp_distribution</text>
<text text-anchor="middle" x="253.5" y="-67.5" font-family="Helvetica,sans-Serif" font-size="10.00" fill="#000000">::peek_homenode</text>
</a>
</g>
</g>
<!-- Node2&#45;&gt;Node3 -->
<g id="edge1" class="edge">
<title>Node2&#45;&gt;Node3</title>
<path fill="none" stroke="#191970" d="M155.1164,-64.6933C163.7223,-66.1197 172.424,-67.562 180.907,-68.968"/>
<polygon fill="#191970" stroke="#191970" points="155.5145,-61.2116 145.0767,-63.0293 154.3698,-68.1174 155.5145,-61.2116"/>
</g>
<!-- Node4 -->
<g id="node3" class="node">
<title>Node4</title>
<g id="a_node3"><a xlink:href="classargo_1_1data__distribution_1_1prime__mapp__distribution_a253fb788715eda52fd5f52c26c02b444.html#a253fb788715eda52fd5f52c26c02b444" target="_top" xlink:title="compute the offset of ptr in the backing store on ptr&#39;s homenode ">
<polygon fill="#ffffff" stroke="#000000" points="181,-.5 181,-41.5 326,-41.5 326,-.5 181,-.5"/>
<text text-anchor="start" x="189" y="-29.5" font-family="Helvetica,sans-Serif" font-size="10.00" fill="#000000">argo::data_distribution</text>
<text text-anchor="start" x="189" y="-18.5" font-family="Helvetica,sans-Serif" font-size="10.00" fill="#000000">::prime_mapp_distribution</text>
<text text-anchor="middle" x="253.5" y="-7.5" font-family="Helvetica,sans-Serif" font-size="10.00" fill="#000000">::local_offset</text>
</a>
</g>
</g>
<!-- Node2&#45;&gt;Node4 -->
<g id="edge2" class="edge">
<title>Node2&#45;&gt;Node4</title>
<path fill="none" stroke="#191970" d="M155.1164,-37.3067C163.7223,-35.8803 172.424,-34.438 180.907,-33.032"/>
<polygon fill="#191970" stroke="#191970" points="154.3698,-33.8826 145.0767,-38.9707 155.5145,-40.7884 154.3698,-33.8826"/>
</g>
<!-- Node5 -->
<g id="node4" class="node">
<title>Node5</title>
<g id="a_node4"><a xlink:href="classargo_1_1data__distribution_1_1prime__mapp__distribution_a6bb902ae385e53f0f93da022338d19d6.html#a6bb902ae385e53f0f93da022338d19d6" target="_top" xlink:title="compute the offset of ptr in the backing store on ptr&#39;s homenode ">
<polygon fill="#ffffff" stroke="#000000" points="362,-.5 362,-41.5 507,-41.5 507,-.5 362,-.5"/>
<text text-anchor="start" x="370" y="-29.5" font-family="Helvetica,sans-Serif" font-size="10.00" fill="#000000">argo::data_distribution</text>
<text text-anchor="start" x="370" y="-18.5" font-family="Helvetica,sans-Serif" font-size="10.00" fill="#000000">::prime_mapp_distribution</text>
<text text-anchor="middle" x="434.5" y="-7.5" font-family="Helvetica,sans-Serif" font-size="10.00" fill="#000000">::peek_local_offset</text>
</a>
</g>
</g>
<!-- Node4&#45;&gt;Node5 -->
<g id="edge3" class="edge">
<title>Node4&#45;&gt;Node5</title>
<path fill="none" stroke="#191970" d="M336.1164,-21C344.7223,-21 353.424,-21 361.907,-21"/>
<polygon fill="#191970" stroke="#191970" points="336.0767,-17.5001 326.0767,-21 336.0767,-24.5001 336.0767,-17.5001"/>
</g>
</g>
</svg>
