<?xml version="1.0" encoding="UTF-8" standalone="no"?>
<!DOCTYPE svg PUBLIC "-//W3C//DTD SVG 1.1//EN"
 "http://www.w3.org/Graphics/SVG/1.1/DTD/svg11.dtd">
<!-- Generated by graphviz version 2.40.1 (20161225.0304)
 -->
<!-- Title: LockTest Pages: 1 -->
<!--zoomable 308 -->
<svg id="main" version="1.1" xmlns="http://www.w3.org/2000/svg" xmlns:xlink="http://www.w3.org/1999/xlink" xml:space="preserve" onload="init(evt)">
<style type="text/css"><![CDATA[
.edge:hover path { stroke: red; }
.edge:hover polygon { stroke: red; fill: red; }
]]></style>
<script type="text/javascript"><![CDATA[
var edges = document.getElementsByTagName('g');
if (edges && edges.length) {
  for (var i=0;i<edges.length;i++) {
    if (edges[i].id.substr(0,4)=='edge') {
      edges[i].setAttribute('class','edge');
    }
  }
}
]]></script>
        <defs>
                <circle id="rim" cx="0" cy="0" r="7"/>
                <circle id="rim2" cx="0" cy="0" r="3.5"/>
                <g id="zoomPlus">
                        <use xlink:href="#rim" fill="#404040">
                                <set attributeName="fill" to="#808080" begin="zoomplus.mouseover" end="zoomplus.mouseout"/>
                        </use>
                        <path d="M-4,0h8M0,-4v8" fill="none" stroke="white" stroke-width="1.5" pointer-events="none"/>
                </g>
                <g id="zoomMin">
                        <use xlink:href="#rim" fill="#404040">
                                <set attributeName="fill" to="#808080" begin="zoomminus.mouseover" end="zoomminus.mouseout"/>
                        </use>
                        <path d="M-4,0h8" fill="none" stroke="white" stroke-width="1.5" pointer-events="none"/>
                </g>
                <g id="dirArrow">
                        <path fill="none" stroke="white" stroke-width="1.5" d="M0,-3.0v7 M-2.5,-0.5L0,-3.0L2.5,-0.5"/>
                </g>
               <g id="resetDef">
                       <use xlink:href="#rim2" fill="#404040">
                               <set attributeName="fill" to="#808080" begin="reset.mouseover" end="reset.mouseout"/>
                       </use>
               </g>
        </defs>

<script type="text/javascript">
var viewWidth = 1414;
var viewHeight = 308;
var sectionId = 'dynsection-1';
</script>
<script xlink:href="svgpan.js"/>
<svg id="graph" class="graph">
<g id="viewport">
<title>LockTest</title>
<polygon fill="#ffffff" stroke="transparent" points="-4,4 -4,-303.5 1410,-303.5 1410,4 -4,4"/>
<!-- Node2 -->
<g id="node1" class="node">
<title>Node2</title>
<polygon fill="#bfbfbf" stroke="#000000" points="1347,-172 1347,-191 1406,-191 1406,-172 1347,-172"/>
<text text-anchor="middle" x="1376.5" y="-179" font-family="Helvetica,sans-Serif" font-size="10.00" fill="#000000">LockTest</text>
</g>
<!-- Node3 -->
<g id="node2" class="node">
<title>Node3</title>
<polygon fill="#ffffff" stroke="#bfbfbf" points="1134.5,-280 1134.5,-299 1210.5,-299 1210.5,-280 1134.5,-280"/>
<text text-anchor="middle" x="1172.5" y="-287" font-family="Helvetica,sans-Serif" font-size="10.00" fill="#000000">testing::Test</text>
</g>
<!-- Node3&#45;&gt;Node2 -->
<g id="edge1" class="edge">
<title>Node3&#45;&gt;Node2</title>
<path fill="none" stroke="#191970" d="M1220.9999,-292.2319C1254.1264,-291.7419 1297.5455,-286.2371 1329,-264.5 1355.2242,-246.3774 1368.8309,-208.7512 1373.9952,-191.0708"/>
<polygon fill="#191970" stroke="#191970" points="1220.6354,-288.7319 1210.6344,-292.229 1220.6334,-295.7319 1220.6354,-288.7319"/>
</g>
<!-- Node4 -->
<g id="node3" class="node">
<title>Node4</title>
<g id="a_node3"><a xlink:href="classargo_1_1locallock_1_1ticket__lock.html" target="_top" xlink:title="a global test&#45;and&#45;set lock ">
<polygon fill="#ffffff" stroke="#000000" points="852,-231 852,-250 999,-250 999,-231 852,-231"/>
<text text-anchor="middle" x="925.5" y="-238" font-family="Helvetica,sans-Serif" font-size="10.00" fill="#000000">argo::locallock::ticket_lock</text>
</a>
</g>
</g>
<!-- Node4&#45;&gt;Node2 -->
<g id="edge2" class="edge">
<title>Node4&#45;&gt;Node2</title>
<path fill="none" stroke="#9a32cd" stroke-dasharray="5,2" d="M1009.2832,-237.3604C1031.0367,-236.1854 1054.4179,-234.605 1076,-232.5 1189.0407,-221.4749 1218.2506,-221.686 1329,-196.5 1335.5775,-195.0042 1342.5564,-193.0274 1349.0816,-191.0015"/>
<polygon fill="#9a32cd" stroke="#9a32cd" points="1008.8894,-233.876 999.0838,-237.8887 1009.2515,-240.8667 1008.8894,-233.876"/>
<text text-anchor="middle" x="1172.5" y="-233.5" font-family="Helvetica,sans-Serif" font-size="10.00" fill="#000000"> ticket_lock</text>
</g>
<!-- Node5 -->
<g id="node4" class="node">
<title>Node5</title>
<g id="a_node4"><a xlink:href="classargo_1_1globallock_1_1cohort__lock.html" target="_top" xlink:title="a global &#39;cohort&#39; lock &#45; needs to be called collectively ">
<polygon fill="#ffffff" stroke="#000000" points="1094,-172 1094,-191 1251,-191 1251,-172 1094,-172"/>
<text text-anchor="middle" x="1172.5" y="-179" font-family="Helvetica,sans-Serif" font-size="10.00" fill="#000000">argo::globallock::cohort_lock</text>
</a>
</g>
</g>
<!-- Node4&#45;&gt;Node5 -->
<g id="edge4" class="edge">
<title>Node4&#45;&gt;Node5</title>
<path fill="none" stroke="#9a32cd" stroke-dasharray="5,2" d="M975.2852,-228.608C1021.6085,-217.5429 1089.7535,-201.2654 1132.5981,-191.0312"/>
<polygon fill="#9a32cd" stroke="#9a32cd" points="974.3725,-225.2274 965.4593,-230.9551 975.9989,-232.0359 974.3725,-225.2274"/>
<text text-anchor="middle" x="1046.5" y="-220.5" font-family="Helvetica,sans-Serif" font-size="10.00" fill="#000000"> node_lock</text>
</g>
<!-- Node5&#45;&gt;Node2 -->
<g id="edge3" class="edge">
<title>Node5&#45;&gt;Node2</title>
<path fill="none" stroke="#9a32cd" stroke-dasharray="5,2" d="M1261.3996,-181.5C1292.0591,-181.5 1324.3242,-181.5 1346.866,-181.5"/>
<polygon fill="#9a32cd" stroke="#9a32cd" points="1261.08,-178.0001 1251.0799,-181.5 1261.0799,-185.0001 1261.08,-178.0001"/>
<text text-anchor="middle" x="1299" y="-184.5" font-family="Helvetica,sans-Serif" font-size="10.00" fill="#000000"> cohort_lock</text>
</g>
<!-- Node6 -->
<g id="node5" class="node">
<title>Node6</title>
<polygon fill="#ffffff" stroke="#bfbfbf" points="730,-184 730,-203 834,-203 834,-184 730,-184"/>
<text text-anchor="middle" x="782" y="-191" font-family="Helvetica,sans-Serif" font-size="10.00" fill="#000000">std::vector&lt; int &gt;</text>
</g>
<!-- Node6&#45;&gt;Node5 -->
<g id="edge5" class="edge">
<title>Node6&#45;&gt;Node5</title>
<path fill="none" stroke="#9a32cd" stroke-dasharray="5,2" d="M844.3578,-191.5838C912.0807,-189.5026 1020.3974,-186.1741 1093.8972,-183.9155"/>
<polygon fill="#9a32cd" stroke="#9a32cd" points="844.1471,-188.0885 834.2594,-191.8941 844.3622,-195.0852 844.1471,-188.0885"/>
<text text-anchor="middle" x="925.5" y="-193.5" font-family="Helvetica,sans-Serif" font-size="10.00" fill="#000000"> numa_mapping</text>
</g>
<!-- Node7 -->
<g id="node6" class="node">
<title>Node7</title>
<g id="a_node6"><a xlink:title="STL class. ">
<polygon fill="#ffffff" stroke="#bfbfbf" points="425.5,-186 425.5,-205 522.5,-205 522.5,-186 425.5,-186"/>
<text text-anchor="middle" x="474" y="-193" font-family="Helvetica,sans-Serif" font-size="10.00" fill="#000000">std::vector&lt; T &gt;</text>
</a>
</g>
</g>
<!-- Node7&#45;&gt;Node6 -->
<g id="edge6" class="edge">
<title>Node7&#45;&gt;Node6</title>
<path fill="none" stroke="#ffa500" stroke-dasharray="5,2" d="M533.0907,-195.1163C590.0268,-194.7466 675.3324,-194.1926 729.8215,-193.8388"/>
<polygon fill="#ffa500" stroke="#ffa500" points="532.7805,-191.6181 522.8035,-195.1831 532.8261,-198.618 532.7805,-191.6181"/>
<text text-anchor="middle" x="635" y="-197.5" font-family="Helvetica,sans-Serif" font-size="10.00" fill="#000000"> &lt; int &gt;</text>
</g>
<!-- Node8 -->
<g id="node7" class="node">
<title>Node8</title>
<polygon fill="#ffffff" stroke="#bfbfbf" points="70.5,-171 70.5,-190 99.5,-190 99.5,-171 70.5,-171"/>
<text text-anchor="middle" x="85" y="-178" font-family="Helvetica,sans-Serif" font-size="10.00" fill="#000000">T</text>
</g>
<!-- Node8&#45;&gt;Node7 -->
<g id="edge7" class="edge">
<title>Node8&#45;&gt;Node7</title>
<path fill="none" stroke="#9a32cd" stroke-dasharray="5,2" d="M110.0303,-181.4652C173.4737,-183.9116 341.4692,-190.3896 425.1728,-193.6172"/>
<polygon fill="#9a32cd" stroke="#9a32cd" points="109.9017,-177.9577 99.7743,-181.0697 109.6319,-184.9525 109.9017,-177.9577"/>
<text text-anchor="middle" x="212.5" y="-188.5" font-family="Helvetica,sans-Serif" font-size="10.00" fill="#000000"> elements</text>
</g>
<!-- Node17 -->
<g id="node16" class="node">
<title>Node17</title>
<g id="a_node16"><a xlink:title="STL class. ">
<polygon fill="#ffffff" stroke="#bfbfbf" points="272,-148 272,-167 373,-167 373,-148 272,-148"/>
<text text-anchor="middle" x="322.5" y="-155" font-family="Helvetica,sans-Serif" font-size="10.00" fill="#000000">std::map&lt; K, T &gt;</text>
</a>
</g>
</g>
<!-- Node8&#45;&gt;Node17 -->
<g id="edge19" class="edge">
<title>Node8&#45;&gt;Node17</title>
<path fill="none" stroke="#9a32cd" stroke-dasharray="5,2" d="M109.4774,-175.2559C130.264,-171.0355 160.9433,-165.3537 188,-162.5 215.6531,-159.5834 246.6602,-158.2979 271.9278,-157.7573"/>
<polygon fill="#9a32cd" stroke="#9a32cd" points="108.6623,-171.8504 99.5807,-177.307 110.0829,-178.7047 108.6623,-171.8504"/>
<text text-anchor="middle" x="212.5" y="-165.5" font-family="Helvetica,sans-Serif" font-size="10.00" fill="#000000"> elements</text>
</g>
<!-- Node9 -->
<g id="node8" class="node">
<title>Node9</title>
<g id="a_node8"><a xlink:href="classargo_1_1globallock_1_1global__tas__lock.html" target="_top" xlink:title="a global test&#45;and&#45;set lock ">
<polygon fill="#ffffff" stroke="#000000" points="860,-58.5 860,-88.5 991,-88.5 991,-58.5 860,-58.5"/>
<text text-anchor="start" x="868" y="-76.5" font-family="Helvetica,sans-Serif" font-size="10.00" fill="#000000">argo::globallock::global</text>
<text text-anchor="middle" x="925.5" y="-65.5" font-family="Helvetica,sans-Serif" font-size="10.00" fill="#000000">_tas_lock</text>
</a>
</g>
</g>
<!-- Node9&#45;&gt;Node2 -->
<g id="edge20" class="edge">
<title>Node9&#45;&gt;Node2</title>
<path fill="none" stroke="#9a32cd" stroke-dasharray="5,2" d="M1001.0022,-81.1767C1067.4671,-88.8612 1166.5423,-102.5782 1251,-123.5 1286.6085,-132.3209 1296.0593,-134.3542 1329,-150.5 1341.3793,-156.5676 1354.4246,-165.27 1363.7053,-171.9108"/>
<polygon fill="#9a32cd" stroke="#9a32cd" points="1001.3625,-77.6952 991.0305,-80.0408 1000.5701,-84.6502 1001.3625,-77.6952"/>
<text text-anchor="middle" x="1172.5" y="-126.5" font-family="Helvetica,sans-Serif" font-size="10.00" fill="#000000"> global_tas_lock</text>
</g>
<!-- Node9&#45;&gt;Node5 -->
<g id="edge8" class="edge">
<title>Node9&#45;&gt;Node5</title>
<path fill="none" stroke="#9a32cd" stroke-dasharray="5,2" d="M969.2489,-92.6176C999.295,-105.7639 1040.0844,-123.6437 1076,-139.5 1084.0088,-143.0358 1085.9832,-143.9825 1094,-147.5 1112.9044,-155.7947 1134.4228,-165.1056 1150.1432,-171.8837"/>
<polygon fill="#9a32cd" stroke="#9a32cd" points="970.4555,-89.3252 959.8909,-88.5242 967.6501,-95.7385 970.4555,-89.3252"/>
<text text-anchor="middle" x="1046.5" y="-142.5" font-family="Helvetica,sans-Serif" font-size="10.00" fill="#000000"> global_lock</text>
</g>
<!-- Node10 -->
<g id="node9" class="node">
<title>Node10</title>
<g id="a_node9"><a xlink:href="classargo_1_1data__distribution_1_1global__ptr.html" target="_top" xlink:title="argo::data_distribution\l::global_ptr\&lt; std::size_t \&gt;">
<polygon fill="#ffffff" stroke="#000000" points="563.5,-49.5 563.5,-79.5 706.5,-79.5 706.5,-49.5 563.5,-49.5"/>
<text text-anchor="start" x="571.5" y="-67.5" font-family="Helvetica,sans-Serif" font-size="10.00" fill="#000000">argo::data_distribution</text>
<text text-anchor="middle" x="635" y="-56.5" font-family="Helvetica,sans-Serif" font-size="10.00" fill="#000000">::global_ptr&lt; std::size_t &gt;</text>
</a>
</g>
</g>
<!-- Node10&#45;&gt;Node9 -->
<g id="edge9" class="edge">
<title>Node10&#45;&gt;Node9</title>
<path fill="none" stroke="#9a32cd" stroke-dasharray="5,2" d="M716.8925,-67.0371C762.1508,-68.4393 817.6162,-70.1576 859.9751,-71.47"/>
<polygon fill="#9a32cd" stroke="#9a32cd" points="716.9126,-63.5362 706.809,-66.7247 716.6958,-70.5328 716.9126,-63.5362"/>
<text text-anchor="middle" x="782" y="-73.5" font-family="Helvetica,sans-Serif" font-size="10.00" fill="#000000"> lastuser</text>
</g>
<!-- Node11 -->
<g id="node10" class="node">
<title>Node11</title>
<g id="a_node10"><a xlink:href="classargo_1_1data__distribution_1_1base__distribution.html" target="_top" xlink:title="argo::data_distribution\l::base_distribution\&lt; 0 \&gt;">
<polygon fill="#ffffff" stroke="#000000" points="255,-49.5 255,-79.5 390,-79.5 390,-49.5 255,-49.5"/>
<text text-anchor="start" x="263" y="-67.5" font-family="Helvetica,sans-Serif" font-size="10.00" fill="#000000">argo::data_distribution</text>
<text text-anchor="middle" x="322.5" y="-56.5" font-family="Helvetica,sans-Serif" font-size="10.00" fill="#000000">::base_distribution&lt; 0 &gt;</text>
</a>
</g>
</g>
<!-- Node11&#45;&gt;Node10 -->
<g id="edge10" class="edge">
<title>Node11&#45;&gt;Node10</title>
<path fill="none" stroke="#9a32cd" stroke-dasharray="5,2" d="M400.4072,-64.5C450.3102,-64.5 514.5963,-64.5 563.2495,-64.5"/>
<polygon fill="#9a32cd" stroke="#9a32cd" points="400.3079,-61.0001 390.3078,-64.5 400.3078,-68.0001 400.3079,-61.0001"/>
<text text-anchor="middle" x="474" y="-67.5" font-family="Helvetica,sans-Serif" font-size="10.00" fill="#000000"> policies</text>
</g>
<!-- Node12 -->
<g id="node11" class="node">
<title>Node12</title>
<g id="a_node11"><a xlink:href="classargo_1_1data__distribution_1_1base__distribution.html" target="_top" xlink:title="the base data distribution class ">
<polygon fill="#ffffff" stroke="#000000" points="0,-49.5 0,-79.5 170,-79.5 170,-49.5 0,-49.5"/>
<text text-anchor="start" x="8" y="-67.5" font-family="Helvetica,sans-Serif" font-size="10.00" fill="#000000">argo::data_distribution</text>
<text text-anchor="middle" x="85" y="-56.5" font-family="Helvetica,sans-Serif" font-size="10.00" fill="#000000">::base_distribution&lt; instance &gt;</text>
</a>
</g>
</g>
<!-- Node12&#45;&gt;Node11 -->
<g id="edge11" class="edge">
<title>Node12&#45;&gt;Node11</title>
<path fill="none" stroke="#ffa500" stroke-dasharray="5,2" d="M180.2841,-64.5C205.2179,-64.5 231.5892,-64.5 254.7611,-64.5"/>
<polygon fill="#ffa500" stroke="#ffa500" points="180.0722,-61.0001 170.0721,-64.5 180.0721,-68.0001 180.0722,-61.0001"/>
<text text-anchor="middle" x="212.5" y="-67.5" font-family="Helvetica,sans-Serif" font-size="10.00" fill="#000000"> &lt; 0 &gt;</text>
</g>
<!-- Node13 -->
<g id="node12" class="node">
<title>Node13</title>
<g id="a_node12"><a xlink:href="classargo_1_1data__distribution_1_1global__ptr.html" target="_top" xlink:title="smart pointers for global memory addresses ">
<polygon fill="#ffffff" stroke="#000000" points="259,-.5 259,-30.5 386,-30.5 386,-.5 259,-.5"/>
<text text-anchor="start" x="267" y="-18.5" font-family="Helvetica,sans-Serif" font-size="10.00" fill="#000000">argo::data_distribution</text>
<text text-anchor="middle" x="322.5" y="-7.5" font-family="Helvetica,sans-Serif" font-size="10.00" fill="#000000">::global_ptr&lt; T, Dist &gt;</text>
</a>
</g>
</g>
<!-- Node13&#45;&gt;Node10 -->
<g id="edge12" class="edge">
<title>Node13&#45;&gt;Node10</title>
<path fill="none" stroke="#ffa500" stroke-dasharray="5,2" d="M396.1651,-26.9867C438.2893,-33.5624 492.1135,-41.9766 540,-49.5 547.5877,-50.6921 555.5159,-51.9401 563.4173,-53.1854"/>
<polygon fill="#ffa500" stroke="#ffa500" points="396.6888,-23.5261 386.2686,-25.4421 395.6093,-30.4424 396.6888,-23.5261"/>
<text text-anchor="middle" x="474" y="-52.5" font-family="Helvetica,sans-Serif" font-size="10.00" fill="#000000"> &lt; std::size_t &gt;</text>
</g>
<!-- Node14 -->
<g id="node13" class="node">
<title>Node14</title>
<g id="a_node13"><a xlink:href="classargo_1_1locallock_1_1mcs__lock.html" target="_top" xlink:title="MCS mutual exclusion lock (intranode) ">
<polygon fill="#ffffff" stroke="#000000" points="855.5,-129 855.5,-148 995.5,-148 995.5,-129 855.5,-129"/>
<text text-anchor="middle" x="925.5" y="-136" font-family="Helvetica,sans-Serif" font-size="10.00" fill="#000000">argo::locallock::mcs_lock</text>
</a>
</g>
</g>
<!-- Node14&#45;&gt;Node2 -->
<g id="edge21" class="edge">
<title>Node14&#45;&gt;Node2</title>
<path fill="none" stroke="#9a32cd" stroke-dasharray="5,2" d="M1006.0402,-137.3728C1072.1482,-137.4876 1168.0416,-140.0395 1251,-151.5 1284.2869,-156.0985 1321.6528,-165.6078 1346.8893,-172.6943"/>
<polygon fill="#9a32cd" stroke="#9a32cd" points="1005.692,-133.8728 995.6925,-137.3743 1005.6931,-140.8728 1005.692,-133.8728"/>
<text text-anchor="middle" x="1172.5" y="-154.5" font-family="Helvetica,sans-Serif" font-size="10.00" fill="#000000"> mcs_lock</text>
</g>
<!-- Node14&#45;&gt;Node5 -->
<g id="edge13" class="edge">
<title>Node14&#45;&gt;Node5</title>
<path fill="none" stroke="#9a32cd" stroke-dasharray="5,2" d="M990.4194,-149.8018C1030.0738,-156.7052 1080.2155,-165.4343 1117.8359,-171.9836"/>
<polygon fill="#9a32cd" stroke="#9a32cd" points="990.7694,-146.3101 980.3173,-148.0431 989.5688,-153.2064 990.7694,-146.3101"/>
<text text-anchor="middle" x="1046.5" y="-166.5" font-family="Helvetica,sans-Serif" font-size="10.00" fill="#000000"> local_lock</text>
</g>
<!-- Node15 -->
<g id="node14" class="node">
<title>Node15</title>
<polygon fill="#ffffff" stroke="#bfbfbf" points="558,-105 558,-146 712,-146 712,-105 558,-105"/>
<text text-anchor="start" x="566" y="-134" font-family="Helvetica,sans-Serif" font-size="10.00" fill="#000000">std::map&lt; argo::locallock</text>
<text text-anchor="start" x="566" y="-123" font-family="Helvetica,sans-Serif" font-size="10.00" fill="#000000">::mcs_lock *, argo::locallock</text>
<text text-anchor="middle" x="635" y="-112" font-family="Helvetica,sans-Serif" font-size="10.00" fill="#000000">::mcs_lock::mcs_node &gt;</text>
</g>
<!-- Node14&#45;&gt;Node15 -->
<g id="edge16" class="edge">
<title>Node14&#45;&gt;Node15</title>
<path fill="none" stroke="#9a32cd" stroke-dasharray="5,2" d="M886.9696,-126.0469C870.7953,-121.4361 851.6698,-116.7788 834,-114.5 794.0205,-109.344 749.2165,-111.1588 712.2586,-114.6677"/>
<polygon fill="#9a32cd" stroke="#9a32cd" points="886.0381,-129.4211 896.6196,-128.89 888.0164,-122.7065 886.0381,-129.4211"/>
<text text-anchor="middle" x="782" y="-117.5" font-family="Helvetica,sans-Serif" font-size="10.00" fill="#000000"> keys</text>
</g>
<!-- Node15&#45;&gt;Node14 -->
<g id="edge14" class="edge">
<title>Node15&#45;&gt;Node14</title>
<path fill="none" stroke="#9a32cd" stroke-dasharray="5,2" d="M722.1385,-129.3995C764.6114,-131.3002 815.0224,-133.5561 855.0275,-135.3463"/>
<polygon fill="#9a32cd" stroke="#9a32cd" points="722.2325,-125.9003 712.086,-128.9496 721.9195,-132.8933 722.2325,-125.9003"/>
<text text-anchor="middle" x="782" y="-136.5" font-family="Helvetica,sans-Serif" font-size="10.00" fill="#000000"> selfs</text>
</g>
<!-- Node16 -->
<g id="node15" class="node">
<title>Node16</title>
<g id="a_node15"><a xlink:href="structargo_1_1locallock_1_1mcs__lock_1_1mcs__node.html" target="_top" xlink:title="Thread nodes for the lock. ">
<polygon fill="#ffffff" stroke="#000000" points="265.5,-98.5 265.5,-128.5 379.5,-128.5 379.5,-98.5 265.5,-98.5"/>
<text text-anchor="start" x="273.5" y="-116.5" font-family="Helvetica,sans-Serif" font-size="10.00" fill="#000000">argo::locallock::mcs</text>
<text text-anchor="middle" x="322.5" y="-105.5" font-family="Helvetica,sans-Serif" font-size="10.00" fill="#000000">_lock::mcs_node</text>
</a>
</g>
</g>
<!-- Node16&#45;&gt;Node15 -->
<g id="edge15" class="edge">
<title>Node16&#45;&gt;Node15</title>
<path fill="none" stroke="#9a32cd" stroke-dasharray="5,2" d="M389.8598,-111.8912C432.8538,-111.3386 489.7505,-111.4846 540,-114.5 545.8007,-114.8481 551.791,-115.3066 557.8107,-115.8389"/>
<polygon fill="#9a32cd" stroke="#9a32cd" points="389.7466,-108.3923 379.7982,-112.0364 389.8477,-115.3916 389.7466,-108.3923"/>
<text text-anchor="middle" x="474" y="-117.5" font-family="Helvetica,sans-Serif" font-size="10.00" fill="#000000"> elements</text>
</g>
<!-- Node17&#45;&gt;Node15 -->
<g id="edge17" class="edge">
<title>Node17&#45;&gt;Node15</title>
<path fill="none" stroke="#ffa500" stroke-dasharray="5,2" d="M383.1166,-146.9352C391.4611,-145.6679 399.9321,-144.4787 408,-143.5 457.744,-137.4658 513.8768,-132.9943 557.8777,-130.0173"/>
<polygon fill="#ffa500" stroke="#ffa500" points="382.3759,-143.5084 373.0364,-148.5108 383.457,-150.4244 382.3759,-143.5084"/>
<text text-anchor="start" x="408" y="-168.5" font-family="Helvetica,sans-Serif" font-size="10.00" fill="#000000"> &lt; argo::locallock::</text>
<text text-anchor="start" x="408" y="-157.5" font-family="Helvetica,sans-Serif" font-size="10.00" fill="#000000">mcs_lock *, argo::locallock</text>
<text text-anchor="middle" x="474" y="-146.5" font-family="Helvetica,sans-Serif" font-size="10.00" fill="#000000">::mcs_lock::mcs_node &gt;</text>
</g>
<!-- Node18 -->
<g id="node17" class="node">
<title>Node18</title>
<polygon fill="#ffffff" stroke="#bfbfbf" points="70.5,-118 70.5,-137 99.5,-137 99.5,-118 70.5,-118"/>
<text text-anchor="middle" x="85" y="-125" font-family="Helvetica,sans-Serif" font-size="10.00" fill="#000000">K</text>
</g>
<!-- Node18&#45;&gt;Node17 -->
<g id="edge18" class="edge">
<title>Node18&#45;&gt;Node17</title>
<path fill="none" stroke="#9a32cd" stroke-dasharray="5,2" d="M109.742,-129.6644C139.8663,-132.401 192.2642,-137.488 237,-143.5 248.3296,-145.0226 260.4678,-146.875 271.9359,-148.7273"/>
<polygon fill="#9a32cd" stroke="#9a32cd" points="109.9793,-126.1717 99.7067,-128.7651 109.3544,-133.1438 109.9793,-126.1717"/>
<text text-anchor="middle" x="212.5" y="-146.5" font-family="Helvetica,sans-Serif" font-size="10.00" fill="#000000"> keys</text>
</g>
</g>
</svg>
        <g id="navigator" transform="translate(0 0)" fill="#404254">
                <rect fill="#f2f5e9" fill-opacity="0.5" stroke="#606060" stroke-width=".5" x="0" y="0" width="60" height="60"/>
                <use id="zoomplus" xlink:href="#zoomPlus" x="17" y="9" onmousedown="handleZoom(evt,'in')"/>
                <use id="zoomminus" xlink:href="#zoomMin" x="42" y="9" onmousedown="handleZoom(evt,'out')"/>
                <use id="reset" xlink:href="#resetDef" x="30" y="36" onmousedown="handleReset()"/>
                <g id="arrowUp" xlink:href="#dirArrow" transform="translate(30 24)" onmousedown="handlePan(0,-1)">
                  <use xlink:href="#rim" fill="#404040">
                        <set attributeName="fill" to="#808080" begin="arrowUp.mouseover" end="arrowUp.mouseout"/>
                  </use>
                  <path fill="none" stroke="white" stroke-width="1.5" d="M0,-3.0v7 M-2.5,-0.5L0,-3.0L2.5,-0.5"/>
                </g>
                <g id="arrowRight" xlink:href="#dirArrow" transform="rotate(90) translate(36 -43)" onmousedown="handlePan(1,0)">
                  <use xlink:href="#rim" fill="#404040">
                        <set attributeName="fill" to="#808080" begin="arrowRight.mouseover" end="arrowRight.mouseout"/>
                  </use>
                  <path fill="none" stroke="white" stroke-width="1.5" d="M0,-3.0v7 M-2.5,-0.5L0,-3.0L2.5,-0.5"/>
                </g>
                <g id="arrowDown" xlink:href="#dirArrow" transform="rotate(180) translate(-30 -48)" onmousedown="handlePan(0,1)">
                  <use xlink:href="#rim" fill="#404040">
                        <set attributeName="fill" to="#808080" begin="arrowDown.mouseover" end="arrowDown.mouseout"/>
                  </use>
                  <path fill="none" stroke="white" stroke-width="1.5" d="M0,-3.0v7 M-2.5,-0.5L0,-3.0L2.5,-0.5"/>
                </g>
                <g id="arrowLeft" xlink:href="#dirArrow" transform="rotate(270) translate(-36 17)" onmousedown="handlePan(-1,0)">
                  <use xlink:href="#rim" fill="#404040">
                        <set attributeName="fill" to="#808080" begin="arrowLeft.mouseover" end="arrowLeft.mouseout"/>
                  </use>
                  <path fill="none" stroke="white" stroke-width="1.5" d="M0,-3.0v7 M-2.5,-0.5L0,-3.0L2.5,-0.5"/>
                </g>
        </g>
        <svg viewBox="0 0 15 15" width="100%" height="30px" preserveAspectRatio="xMaxYMin meet">
         <g id="arrow_out" transform="scale(0.3 0.3)">
          <a xlink:href="classLockTest__coll__graph_org.svg" target="_base">
           <rect id="button" ry="5" rx="5" y="6" x="6" height="38" width="38"
                fill="#f2f5e9" fill-opacity="0.5" stroke="#606060" stroke-width="1.0"/>
           <path id="arrow"
             d="M 11.500037,31.436501 C 11.940474,20.09759 22.043105,11.32322 32.158766,21.979434 L 37.068811,17.246167 C 37.068811,17.246167 37.088388,32 37.088388,32 L 22.160133,31.978069 C 22.160133,31.978069 26.997745,27.140456 26.997745,27.140456 C 18.528582,18.264221 13.291696,25.230495 11.500037,31.436501 z"
             style="fill:#404040;"/>
          </a>
         </g>
        </svg>
</svg>
