<?xml version="1.0" encoding="UTF-8" standalone="no"?>
<!DOCTYPE svg PUBLIC "-//W3C//DTD SVG 1.1//EN"
 "http://www.w3.org/Graphics/SVG/1.1/DTD/svg11.dtd">
<!-- Generated by graphviz version 2.40.1 (20161225.0304)
 -->
<!-- Title: argo::data_distribution::cyclic_distribution::homenode Pages: 1 -->
<svg width="298pt" height="50pt"
 viewBox="0.00 0.00 298.00 50.00" xmlns="http://www.w3.org/2000/svg" xmlns:xlink="http://www.w3.org/1999/xlink">
<g id="graph0" class="graph" transform="scale(1 1) rotate(0) translate(4 46)">
<title>argo::data_distribution::cyclic_distribution::homenode</title>
<polygon fill="#ffffff" stroke="transparent" points="-4,4 -4,-46 294,-46 294,4 -4,4"/>
<!-- Node2 -->
<g id="node1" class="node">
<title>Node2</title>
<polygon fill="#bfbfbf" stroke="#000000" points="0,-.5 0,-41.5 127,-41.5 127,-.5 0,-.5"/>
<text text-anchor="start" x="8" y="-29.5" font-family="Helvetica,sans-Serif" font-size="10.00" fill="#000000">argo::data_distribution</text>
<text text-anchor="start" x="8" y="-18.5" font-family="Helvetica,sans-Serif" font-size="10.00" fill="#000000">::cyclic_distribution</text>
<text text-anchor="middle" x="63.5" y="-7.5" font-family="Helvetica,sans-Serif" font-size="10.00" fill="#000000">::homenode</text>
</g>
<!-- Node3 -->
<g id="node2" class="node">
<title>Node3</title>
<g id="a_node2"><a xlink:href="classargo_1_1data__distribution_1_1cyclic__distribution_a4fe675567906294a1a5223587a19c07c.html#a4fe675567906294a1a5223587a19c07c" target="_top" xlink:title="compute home node of an address ">
<polygon fill="#ffffff" stroke="#000000" points="163,-.5 163,-41.5 290,-41.5 290,-.5 163,-.5"/>
<text text-anchor="start" x="171" y="-29.5" font-family="Helvetica,sans-Serif" font-size="10.00" fill="#000000">argo::data_distribution</text>
<text text-anchor="start" x="171" y="-18.5" font-family="Helvetica,sans-Serif" font-size="10.00" fill="#000000">::cyclic_distribution</text>
<text text-anchor="middle" x="226.5" y="-7.5" font-family="Helvetica,sans-Serif" font-size="10.00" fill="#000000">::peek_homenode</text>
</a>
</g>
</g>
<!-- Node2&#45;&gt;Node3 -->
<g id="edge1" class="edge">
<title>Node2&#45;&gt;Node3</title>
<path fill="none" stroke="#191970" d="M137.6881,-21C146.1415,-21 154.7005,-21 162.9977,-21"/>
<polygon fill="#191970" stroke="#191970" points="137.4541,-17.5001 127.4541,-21 137.4541,-24.5001 137.4541,-17.5001"/>
</g>
</g>
</svg>
