<?xml version="1.0" encoding="UTF-8" standalone="no"?>
<!DOCTYPE svg PUBLIC "-//W3C//DTD SVG 1.1//EN"
 "http://www.w3.org/Graphics/SVG/1.1/DTD/svg11.dtd">
<!-- Generated by graphviz version 2.40.1 (20161225.0304)
 -->
<!-- Title: argo::globallock::global_tas_lock::unlock Pages: 1 -->
<svg width="483pt" height="176pt"
 viewBox="0.00 0.00 483.00 175.50" xmlns="http://www.w3.org/2000/svg" xmlns:xlink="http://www.w3.org/1999/xlink">
<g id="graph0" class="graph" transform="scale(1 1) rotate(0) translate(4 171.5)">
<title>argo::globallock::global_tas_lock::unlock</title>
<polygon fill="#ffffff" stroke="transparent" points="-4,4 -4,-171.5 479,-171.5 479,4 -4,4"/>
<!-- Node2 -->
<g id="node1" class="node">
<title>Node2</title>
<polygon fill="#bfbfbf" stroke="#000000" points="0,-63 0,-93 131,-93 131,-63 0,-63"/>
<text text-anchor="start" x="8" y="-81" font-family="Helvetica,sans-Serif" font-size="10.00" fill="#000000">argo::globallock::global</text>
<text text-anchor="middle" x="65.5" y="-70" font-family="Helvetica,sans-Serif" font-size="10.00" fill="#000000">_tas_lock::unlock</text>
</g>
<!-- Node3 -->
<g id="node2" class="node">
<title>Node3</title>
<g id="a_node2"><a xlink:href="classargo_1_1mempools_1_1global__memory__pool_af2ce384d7ee177371521c875045c565c.html#af2ce384d7ee177371521c875045c565c" target="_top" xlink:title="Reserve more memory. ">
<polygon fill="#ffffff" stroke="#000000" points="171,-137 171,-167 303,-167 303,-137 171,-137"/>
<text text-anchor="start" x="179" y="-155" font-family="Helvetica,sans-Serif" font-size="10.00" fill="#000000">argo::mempools::global</text>
<text text-anchor="middle" x="237" y="-144" font-family="Helvetica,sans-Serif" font-size="10.00" fill="#000000">_memory_pool::reserve</text>
</a>
</g>
</g>
<!-- Node2&#45;&gt;Node3 -->
<g id="edge1" class="edge">
<title>Node2&#45;&gt;Node3</title>
<path fill="none" stroke="#191970" d="M102.8327,-97.8119C121.7869,-107.5041 145.3331,-118.992 167,-128 174.4736,-131.1071 182.5081,-134.1385 190.3749,-136.9431"/>
<polygon fill="#191970" stroke="#191970" points="104.417,-94.6909 93.9252,-93.2169 101.2078,-100.912 104.417,-94.6909"/>
</g>
<!-- Node4 -->
<g id="node3" class="node">
<title>Node4</title>
<g id="a_node3"><a xlink:href="classargo_1_1mempools_1_1global__memory__pool_ac37f5714010e1f4b482e6c6a8a246c05.html#ac37f5714010e1f4b482e6c6a8a246c05" target="_top" xlink:title="check remaining available memory in pool ">
<polygon fill="#ffffff" stroke="#000000" points="167,-88 167,-118 307,-118 307,-88 167,-88"/>
<text text-anchor="start" x="175" y="-106" font-family="Helvetica,sans-Serif" font-size="10.00" fill="#000000">argo::mempools::global</text>
<text text-anchor="middle" x="237" y="-95" font-family="Helvetica,sans-Serif" font-size="10.00" fill="#000000">_memory_pool::available</text>
</a>
</g>
</g>
<!-- Node2&#45;&gt;Node4 -->
<g id="edge2" class="edge">
<title>Node2&#45;&gt;Node4</title>
<path fill="none" stroke="#191970" d="M141.2214,-89.0381C149.729,-90.2783 158.3702,-91.5379 166.8037,-92.7673"/>
<polygon fill="#191970" stroke="#191970" points="141.7162,-85.5733 131.3159,-87.5942 140.7064,-92.5001 141.7162,-85.5733"/>
</g>
<!-- Node6 -->
<g id="node5" class="node">
<title>Node6</title>
<g id="a_node5"><a xlink:href="classargo_1_1globallock_1_1cohort__lock_ac937f13d00780ca9ff8f4dd826c6c12b.html#ac937f13d00780ca9ff8f4dd826c6c12b" target="_top" xlink:title="Release the lock. ">
<polygon fill="#ffffff" stroke="#000000" points="171.5,-39 171.5,-69 302.5,-69 302.5,-39 171.5,-39"/>
<text text-anchor="start" x="179.5" y="-57" font-family="Helvetica,sans-Serif" font-size="10.00" fill="#000000">argo::globallock::cohort</text>
<text text-anchor="middle" x="237" y="-46" font-family="Helvetica,sans-Serif" font-size="10.00" fill="#000000">_lock::unlock</text>
</a>
</g>
</g>
<!-- Node2&#45;&gt;Node6 -->
<g id="edge4" class="edge">
<title>Node2&#45;&gt;Node6</title>
<path fill="none" stroke="#191970" d="M141.2665,-67.3971C151.2994,-65.9931 161.5171,-64.5632 171.3602,-63.1857"/>
<polygon fill="#191970" stroke="#191970" points="140.7343,-63.9374 131.3159,-68.7896 141.7045,-70.8698 140.7343,-63.9374"/>
</g>
<!-- Node8 -->
<g id="node7" class="node">
<title>Node8</title>
<g id="a_node7"><a xlink:href="lock_8cpp_a7f9fec9adf3c86b1db45340c27c6c89f.html#a7f9fec9adf3c86b1db45340c27c6c89f" target="_top" xlink:title="Tests trylock functionality. ">
<polygon fill="#ffffff" stroke="#000000" points="211.5,-.5 211.5,-19.5 262.5,-19.5 262.5,-.5 211.5,-.5"/>
<text text-anchor="middle" x="237" y="-7.5" font-family="Helvetica,sans-Serif" font-size="10.00" fill="#000000">TEST_F</text>
</a>
</g>
</g>
<!-- Node2&#45;&gt;Node8 -->
<g id="edge6" class="edge">
<title>Node2&#45;&gt;Node8</title>
<path fill="none" stroke="#191970" d="M102.2291,-58.2367C121.2024,-48.5534 144.9455,-37.236 167,-29 181.392,-23.6255 197.9645,-19.0584 211.3706,-15.7498"/>
<polygon fill="#191970" stroke="#191970" points="100.6027,-55.1374 93.3264,-62.8385 103.817,-61.3559 100.6027,-55.1374"/>
</g>
<!-- Node5 -->
<g id="node4" class="node">
<title>Node5</title>
<g id="a_node4"><a xlink:href="tests_2allocators_8cpp_ab6f86a07c7fdc11016618b4a93bd5045.html#ab6f86a07c7fdc11016618b4a93bd5045" target="_top" xlink:title="Unittest that checks that the global address space is at least as large as requested. ">
<polygon fill="#ffffff" stroke="#000000" points="383.5,-93.5 383.5,-112.5 434.5,-112.5 434.5,-93.5 383.5,-93.5"/>
<text text-anchor="middle" x="409" y="-100.5" font-family="Helvetica,sans-Serif" font-size="10.00" fill="#000000">TEST_F</text>
</a>
</g>
</g>
<!-- Node4&#45;&gt;Node5 -->
<g id="edge3" class="edge">
<title>Node4&#45;&gt;Node5</title>
<path fill="none" stroke="#191970" d="M317.6213,-103C341.4714,-103 365.8753,-103 383.4573,-103"/>
<polygon fill="#191970" stroke="#191970" points="317.4553,-99.5001 307.4553,-103 317.4552,-106.5001 317.4553,-99.5001"/>
</g>
<!-- Node7 -->
<g id="node6" class="node">
<title>Node7</title>
<g id="a_node6"><a xlink:href="cohort__lock_8h_aecc3694b56dfe7472a345995d7559e89.html#aecc3694b56dfe7472a345995d7559e89" target="_top" xlink:title="unlock a cohort lock ">
<polygon fill="#ffffff" stroke="#000000" points="343,-44.5 343,-63.5 475,-63.5 475,-44.5 343,-44.5"/>
<text text-anchor="middle" x="409" y="-51.5" font-family="Helvetica,sans-Serif" font-size="10.00" fill="#000000">argo_cohortlock_unlock</text>
</a>
</g>
</g>
<!-- Node6&#45;&gt;Node7 -->
<g id="edge5" class="edge">
<title>Node6&#45;&gt;Node7</title>
<path fill="none" stroke="#191970" d="M312.5206,-54C322.6109,-54 332.8965,-54 342.8107,-54"/>
<polygon fill="#191970" stroke="#191970" points="312.5165,-50.5001 302.5165,-54 312.5165,-57.5001 312.5165,-50.5001"/>
</g>
</g>
</svg>
