<?xml version="1.0" encoding="UTF-8" standalone="no"?>
<!DOCTYPE svg PUBLIC "-//W3C//DTD SVG 1.1//EN"
 "http://www.w3.org/Graphics/SVG/1.1/DTD/svg11.dtd">
<!-- Generated by graphviz version 2.40.1 (20161225.0304)
 -->
<!-- Title: argo::mempools::global_memory_pool&lt; chunk_size &gt; Pages: 1 -->
<svg width="1127pt" height="88pt"
 viewBox="0.00 0.00 1127.00 88.00" xmlns="http://www.w3.org/2000/svg" xmlns:xlink="http://www.w3.org/1999/xlink">
<g id="graph0" class="graph" transform="scale(1 1) rotate(0) translate(4 84)">
<title>argo::mempools::global_memory_pool&lt; chunk_size &gt;</title>
<polygon fill="#ffffff" stroke="transparent" points="-4,4 -4,-84 1123,-84 1123,4 -4,4"/>
<!-- Node1 -->
<g id="node1" class="node">
<title>Node1</title>
<polygon fill="#bfbfbf" stroke="#000000" points="953,-17.5 953,-47.5 1119,-47.5 1119,-17.5 953,-17.5"/>
<text text-anchor="start" x="961" y="-35.5" font-family="Helvetica,sans-Serif" font-size="10.00" fill="#000000">argo::mempools::global</text>
<text text-anchor="middle" x="1036" y="-24.5" font-family="Helvetica,sans-Serif" font-size="10.00" fill="#000000">_memory_pool&lt; chunk_size &gt;</text>
</g>
<!-- Node2 -->
<g id="node2" class="node">
<title>Node2</title>
<g id="a_node2"><a xlink:href="classargo_1_1globallock_1_1global__tas__lock.html" target="_top" xlink:title="a global test&#45;and&#45;set lock ">
<polygon fill="#ffffff" stroke="#000000" points="707,-17.5 707,-47.5 838,-47.5 838,-17.5 707,-17.5"/>
<text text-anchor="start" x="715" y="-35.5" font-family="Helvetica,sans-Serif" font-size="10.00" fill="#000000">argo::globallock::global</text>
<text text-anchor="middle" x="772.5" y="-24.5" font-family="Helvetica,sans-Serif" font-size="10.00" fill="#000000">_tas_lock</text>
</a>
</g>
</g>
<!-- Node2&#45;&gt;Node1 -->
<g id="edge1" class="edge">
<title>Node2&#45;&gt;Node1</title>
<path fill="none" stroke="#9a32cd" stroke-dasharray="5,2" d="M848.6708,-32.5C881.2145,-32.5 919.2979,-32.5 952.5973,-32.5"/>
<polygon fill="#9a32cd" stroke="#9a32cd" points="848.3125,-29.0001 838.3125,-32.5 848.3124,-36.0001 848.3125,-29.0001"/>
<text text-anchor="middle" x="895.5" y="-35.5" font-family="Helvetica,sans-Serif" font-size="10.00" fill="#000000"> global_tas_lock</text>
</g>
<!-- Node3 -->
<g id="node3" class="node">
<title>Node3</title>
<g id="a_node3"><a xlink:href="classargo_1_1data__distribution_1_1global__ptr.html" target="_top" xlink:title="argo::data_distribution\l::global_ptr\&lt; std::size_t \&gt;">
<polygon fill="#ffffff" stroke="#000000" points="485,-17.5 485,-47.5 628,-47.5 628,-17.5 485,-17.5"/>
<text text-anchor="start" x="493" y="-35.5" font-family="Helvetica,sans-Serif" font-size="10.00" fill="#000000">argo::data_distribution</text>
<text text-anchor="middle" x="556.5" y="-24.5" font-family="Helvetica,sans-Serif" font-size="10.00" fill="#000000">::global_ptr&lt; std::size_t &gt;</text>
</a>
</g>
</g>
<!-- Node3&#45;&gt;Node2 -->
<g id="edge2" class="edge">
<title>Node3&#45;&gt;Node2</title>
<path fill="none" stroke="#9a32cd" stroke-dasharray="5,2" d="M638.3989,-32.5C661.0432,-32.5 685.3159,-32.5 706.902,-32.5"/>
<polygon fill="#9a32cd" stroke="#9a32cd" points="638.1249,-29.0001 628.1248,-32.5 638.1248,-36.0001 638.1249,-29.0001"/>
<text text-anchor="middle" x="667.5" y="-35.5" font-family="Helvetica,sans-Serif" font-size="10.00" fill="#000000"> lastuser</text>
</g>
<!-- Node4 -->
<g id="node4" class="node">
<title>Node4</title>
<g id="a_node4"><a xlink:href="classargo_1_1data__distribution_1_1base__distribution.html" target="_top" xlink:title="argo::data_distribution\l::base_distribution\&lt; 0 \&gt;">
<polygon fill="#ffffff" stroke="#000000" points="238,-49.5 238,-79.5 373,-79.5 373,-49.5 238,-49.5"/>
<text text-anchor="start" x="246" y="-67.5" font-family="Helvetica,sans-Serif" font-size="10.00" fill="#000000">argo::data_distribution</text>
<text text-anchor="middle" x="305.5" y="-56.5" font-family="Helvetica,sans-Serif" font-size="10.00" fill="#000000">::base_distribution&lt; 0 &gt;</text>
</a>
</g>
</g>
<!-- Node4&#45;&gt;Node3 -->
<g id="edge3" class="edge">
<title>Node4&#45;&gt;Node3</title>
<path fill="none" stroke="#9a32cd" stroke-dasharray="5,2" d="M383.4191,-54.5661C415.7999,-50.4379 453.1412,-45.6772 484.832,-41.637"/>
<polygon fill="#9a32cd" stroke="#9a32cd" points="382.5706,-51.1458 373.0936,-55.8825 383.4559,-58.0896 382.5706,-51.1458"/>
<text text-anchor="middle" x="429" y="-56.5" font-family="Helvetica,sans-Serif" font-size="10.00" fill="#000000"> policies</text>
</g>
<!-- Node5 -->
<g id="node5" class="node">
<title>Node5</title>
<g id="a_node5"><a xlink:href="classargo_1_1data__distribution_1_1base__distribution.html" target="_top" xlink:title="the base data distribution class ">
<polygon fill="#ffffff" stroke="#000000" points="0,-49.5 0,-79.5 170,-79.5 170,-49.5 0,-49.5"/>
<text text-anchor="start" x="8" y="-67.5" font-family="Helvetica,sans-Serif" font-size="10.00" fill="#000000">argo::data_distribution</text>
<text text-anchor="middle" x="85" y="-56.5" font-family="Helvetica,sans-Serif" font-size="10.00" fill="#000000">::base_distribution&lt; instance &gt;</text>
</a>
</g>
</g>
<!-- Node5&#45;&gt;Node4 -->
<g id="edge4" class="edge">
<title>Node5&#45;&gt;Node4</title>
<path fill="none" stroke="#ffa500" stroke-dasharray="5,2" d="M180.3182,-64.5C199.7035,-64.5 219.7164,-64.5 237.8994,-64.5"/>
<polygon fill="#ffa500" stroke="#ffa500" points="180.2511,-61.0001 170.2511,-64.5 180.251,-68.0001 180.2511,-61.0001"/>
<text text-anchor="middle" x="204" y="-67.5" font-family="Helvetica,sans-Serif" font-size="10.00" fill="#000000"> &lt; 0 &gt;</text>
</g>
<!-- Node6 -->
<g id="node6" class="node">
<title>Node6</title>
<g id="a_node6"><a xlink:href="classargo_1_1data__distribution_1_1global__ptr.html" target="_top" xlink:title="smart pointers for global memory addresses ">
<polygon fill="#ffffff" stroke="#000000" points="242,-.5 242,-30.5 369,-30.5 369,-.5 242,-.5"/>
<text text-anchor="start" x="250" y="-18.5" font-family="Helvetica,sans-Serif" font-size="10.00" fill="#000000">argo::data_distribution</text>
<text text-anchor="middle" x="305.5" y="-7.5" font-family="Helvetica,sans-Serif" font-size="10.00" fill="#000000">::global_ptr&lt; T, Dist &gt;</text>
</a>
</g>
</g>
<!-- Node6&#45;&gt;Node3 -->
<g id="edge5" class="edge">
<title>Node6&#45;&gt;Node3</title>
<path fill="none" stroke="#ffa500" stroke-dasharray="5,2" d="M379.5383,-18.3781C407.0245,-19.6544 438.4538,-21.3591 467,-23.5 472.7619,-23.9321 478.7279,-24.4274 484.7186,-24.9584"/>
<polygon fill="#ffa500" stroke="#ffa500" points="379.3595,-14.8665 369.2112,-17.91 379.0424,-21.8593 379.3595,-14.8665"/>
<text text-anchor="middle" x="429" y="-26.5" font-family="Helvetica,sans-Serif" font-size="10.00" fill="#000000"> &lt; std::size_t &gt;</text>
</g>
</g>
</svg>
