<?xml version="1.0" encoding="UTF-8" standalone="no"?>
<!DOCTYPE svg PUBLIC "-//W3C//DTD SVG 1.1//EN"
 "http://www.w3.org/Graphics/SVG/1.1/DTD/svg11.dtd">
<!-- Generated by graphviz version 2.40.1 (20161225.0304)
 -->
<!-- Title: argo::mempools::global_memory_pool::reset Pages: 1 -->
<svg width="488pt" height="104pt"
 viewBox="0.00 0.00 488.00 104.00" xmlns="http://www.w3.org/2000/svg" xmlns:xlink="http://www.w3.org/1999/xlink">
<g id="graph0" class="graph" transform="scale(1 1) rotate(0) translate(4 100)">
<title>argo::mempools::global_memory_pool::reset</title>
<polygon fill="#ffffff" stroke="transparent" points="-4,4 -4,-100 484,-100 484,4 -4,4"/>
<!-- Node2 -->
<g id="node1" class="node">
<title>Node2</title>
<polygon fill="#bfbfbf" stroke="#000000" points="0,-33 0,-63 132,-63 132,-33 0,-33"/>
<text text-anchor="start" x="8" y="-51" font-family="Helvetica,sans-Serif" font-size="10.00" fill="#000000">argo::mempools::global</text>
<text text-anchor="middle" x="66" y="-40" font-family="Helvetica,sans-Serif" font-size="10.00" fill="#000000">_memory_pool::reset</text>
</g>
<!-- Node3 -->
<g id="node2" class="node">
<title>Node3</title>
<g id="a_node2"><a xlink:href="argo_8h_a5a8515fc3191ad0f3398d8ac1441b57a.html#a5a8515fc3191ad0f3398d8ac1441b57a" target="_top" xlink:title="reset ArgoDSM system ">
<polygon fill="#ffffff" stroke="#000000" points="168,-38.5 168,-57.5 236,-57.5 236,-38.5 168,-38.5"/>
<text text-anchor="middle" x="202" y="-45.5" font-family="Helvetica,sans-Serif" font-size="10.00" fill="#000000">argo_reset</text>
</a>
</g>
</g>
<!-- Node2&#45;&gt;Node3 -->
<g id="edge1" class="edge">
<title>Node2&#45;&gt;Node3</title>
<path fill="none" stroke="#191970" d="M142.2089,-48C151.2011,-48 159.999,-48 167.9611,-48"/>
<polygon fill="#191970" stroke="#191970" points="142.0081,-44.5001 132.0081,-48 142.008,-51.5001 142.0081,-44.5001"/>
</g>
<!-- Node4 -->
<g id="node3" class="node">
<title>Node4</title>
<g id="a_node3"><a xlink:href="namespaceargo_a31330d8b35bd7f9ef9880eec82339c54.html#a31330d8b35bd7f9ef9880eec82339c54" target="_top" xlink:title="initialize ArgoDSM system ">
<polygon fill="#ffffff" stroke="#000000" points="272,-38.5 272,-57.5 332,-57.5 332,-38.5 272,-38.5"/>
<text text-anchor="middle" x="302" y="-45.5" font-family="Helvetica,sans-Serif" font-size="10.00" fill="#000000">argo::init</text>
</a>
</g>
</g>
<!-- Node3&#45;&gt;Node4 -->
<g id="edge2" class="edge">
<title>Node3&#45;&gt;Node4</title>
<path fill="none" stroke="#191970" d="M246.3911,-48C254.9458,-48 263.7224,-48 271.702,-48"/>
<polygon fill="#191970" stroke="#191970" points="246.1347,-44.5001 236.1346,-48 246.1346,-51.5001 246.1347,-44.5001"/>
</g>
<!-- Node5 -->
<g id="node4" class="node">
<title>Node5</title>
<g id="a_node4"><a xlink:href="tests_2allocators_8cpp_a3c04138a5bfe5d72780bb7e82a18e627.html#a3c04138a5bfe5d72780bb7e82a18e627" target="_top" xlink:title="The main function that runs the tests. ">
<polygon fill="#ffffff" stroke="#000000" points="403.5,-76.5 403.5,-95.5 444.5,-95.5 444.5,-76.5 403.5,-76.5"/>
<text text-anchor="middle" x="424" y="-83.5" font-family="Helvetica,sans-Serif" font-size="10.00" fill="#000000">main</text>
</a>
</g>
</g>
<!-- Node4&#45;&gt;Node5 -->
<g id="edge3" class="edge">
<title>Node4&#45;&gt;Node5</title>
<path fill="none" stroke="#191970" d="M341.8933,-60.4258C362.4194,-66.8192 386.5824,-74.3453 403.3583,-79.5706"/>
<polygon fill="#191970" stroke="#191970" points="342.7458,-57.0255 332.1573,-57.3933 340.664,-63.7088 342.7458,-57.0255"/>
</g>
<!-- Node6 -->
<g id="node5" class="node">
<title>Node6</title>
<g id="a_node5"><a xlink:href="argo_8h_aa84680ad78c3598c30a482ff71ec6bbc.html#aa84680ad78c3598c30a482ff71ec6bbc" target="_top" xlink:title="initialize ArgoDSM system ">
<polygon fill="#ffffff" stroke="#000000" points="394.5,-38.5 394.5,-57.5 453.5,-57.5 453.5,-38.5 394.5,-38.5"/>
<text text-anchor="middle" x="424" y="-45.5" font-family="Helvetica,sans-Serif" font-size="10.00" fill="#000000">argo_init</text>
</a>
</g>
</g>
<!-- Node4&#45;&gt;Node6 -->
<g id="edge4" class="edge">
<title>Node4&#45;&gt;Node6</title>
<path fill="none" stroke="#191970" d="M342.3289,-48C359.2527,-48 378.584,-48 394.1896,-48"/>
<polygon fill="#191970" stroke="#191970" points="342.1573,-44.5001 332.1573,-48 342.1573,-51.5001 342.1573,-44.5001"/>
</g>
<!-- Node7 -->
<g id="node6" class="node">
<title>Node7</title>
<g id="a_node6"><a xlink:href="singlenode_8cpp_aa85919231c2adb5cad84c6707cb19f1c.html#aa85919231c2adb5cad84c6707cb19f1c" target="_top" xlink:title="a dummy signal handler function ">
<polygon fill="#ffffff" stroke="#000000" points="368,-.5 368,-19.5 480,-19.5 480,-.5 368,-.5"/>
<text text-anchor="middle" x="424" y="-7.5" font-family="Helvetica,sans-Serif" font-size="10.00" fill="#000000">singlenode_handler</text>
</a>
</g>
</g>
<!-- Node4&#45;&gt;Node7 -->
<g id="edge5" class="edge">
<title>Node4&#45;&gt;Node7</title>
<path fill="none" stroke="#191970" d="M342.1717,-35.4875C358.8282,-30.2994 377.8392,-24.3779 393.3422,-19.5491"/>
<polygon fill="#191970" stroke="#191970" points="340.664,-32.2912 332.1573,-38.6067 342.7458,-38.9745 340.664,-32.2912"/>
</g>
</g>
</svg>
