<?xml version="1.0" encoding="UTF-8" standalone="no"?>
<!DOCTYPE svg PUBLIC "-//W3C//DTD SVG 1.1//EN"
 "http://www.w3.org/Graphics/SVG/1.1/DTD/svg11.dtd">
<!-- Generated by graphviz version 2.40.1 (20161225.0304)
 -->
<!-- Title: argo::data_distribution::base_distribution&lt; instance &gt; Pages: 1 -->
<svg width="391pt" height="340pt"
 viewBox="0.00 0.00 391.00 339.50" xmlns="http://www.w3.org/2000/svg" xmlns:xlink="http://www.w3.org/1999/xlink">
<g id="graph0" class="graph" transform="scale(1 1) rotate(0) translate(4 335.5)">
<title>argo::data_distribution::base_distribution&lt; instance &gt;</title>
<polygon fill="#ffffff" stroke="transparent" points="-4,4 -4,-335.5 387,-335.5 387,4 -4,4"/>
<!-- Node0 -->
<g id="node1" class="node">
<title>Node0</title>
<polygon fill="#bfbfbf" stroke="#000000" points="0,-145.5 0,-175.5 170,-175.5 170,-145.5 0,-145.5"/>
<text text-anchor="start" x="8" y="-163.5" font-family="Helvetica,sans-Serif" font-size="10.00" fill="#000000">argo::data_distribution</text>
<text text-anchor="middle" x="85" y="-152.5" font-family="Helvetica,sans-Serif" font-size="10.00" fill="#000000">::base_distribution&lt; instance &gt;</text>
</g>
<!-- Node1 -->
<g id="node2" class="node">
<title>Node1</title>
<g id="a_node2"><a xlink:href="classargo_1_1data__distribution_1_1cyclic__distribution.html" target="_top" xlink:title="the cyclic data distribution ">
<polygon fill="#ffffff" stroke="#000000" points="247,-290 247,-331 374,-331 374,-290 247,-290"/>
<text text-anchor="start" x="255" y="-319" font-family="Helvetica,sans-Serif" font-size="10.00" fill="#000000">argo::data_distribution</text>
<text text-anchor="start" x="255" y="-308" font-family="Helvetica,sans-Serif" font-size="10.00" fill="#000000">::cyclic_distribution</text>
<text text-anchor="middle" x="310.5" y="-297" font-family="Helvetica,sans-Serif" font-size="10.00" fill="#000000">&lt; instance &gt;</text>
</a>
</g>
</g>
<!-- Node0&#45;&gt;Node1 -->
<g id="edge1" class="edge">
<title>Node0&#45;&gt;Node1</title>
<path fill="none" stroke="#191970" d="M108.8812,-182.6399C137.7786,-208.5913 188.7097,-251.7046 238,-280.5 243.7633,-283.8669 249.9765,-287.044 256.2561,-289.9806"/>
<polygon fill="#191970" stroke="#191970" points="111.095,-179.9228 101.3346,-175.8016 106.3947,-185.11 111.095,-179.9228"/>
</g>
<!-- Node2 -->
<g id="node3" class="node">
<title>Node2</title>
<g id="a_node3"><a xlink:href="classargo_1_1data__distribution_1_1first__touch__distribution.html" target="_top" xlink:title="the first&#45;touch data distribution ">
<polygon fill="#ffffff" stroke="#000000" points="243.5,-230 243.5,-271 377.5,-271 377.5,-230 243.5,-230"/>
<text text-anchor="start" x="251.5" y="-259" font-family="Helvetica,sans-Serif" font-size="10.00" fill="#000000">argo::data_distribution</text>
<text text-anchor="start" x="251.5" y="-248" font-family="Helvetica,sans-Serif" font-size="10.00" fill="#000000">::first_touch_distribution</text>
<text text-anchor="middle" x="310.5" y="-237" font-family="Helvetica,sans-Serif" font-size="10.00" fill="#000000">&lt; instance &gt;</text>
</a>
</g>
</g>
<!-- Node0&#45;&gt;Node2 -->
<g id="edge2" class="edge">
<title>Node0&#45;&gt;Node2</title>
<path fill="none" stroke="#191970" d="M132.3245,-179.3878C169.4288,-194.1966 220.987,-214.7742 259.0991,-229.9852"/>
<polygon fill="#191970" stroke="#191970" points="133.3286,-176.0202 122.7436,-175.564 130.7338,-182.5215 133.3286,-176.0202"/>
</g>
<!-- Node3 -->
<g id="node4" class="node">
<title>Node3</title>
<g id="a_node4"><a xlink:href="classargo_1_1data__distribution_1_1naive__distribution.html" target="_top" xlink:title="the naive data distribution ">
<polygon fill="#ffffff" stroke="#000000" points="247,-170 247,-211 374,-211 374,-170 247,-170"/>
<text text-anchor="start" x="255" y="-199" font-family="Helvetica,sans-Serif" font-size="10.00" fill="#000000">argo::data_distribution</text>
<text text-anchor="start" x="255" y="-188" font-family="Helvetica,sans-Serif" font-size="10.00" fill="#000000">::naive_distribution&lt;</text>
<text text-anchor="middle" x="310.5" y="-177" font-family="Helvetica,sans-Serif" font-size="10.00" fill="#000000"> instance &gt;</text>
</a>
</g>
</g>
<!-- Node0&#45;&gt;Node3 -->
<g id="edge3" class="edge">
<title>Node0&#45;&gt;Node3</title>
<path fill="none" stroke="#191970" d="M180.1784,-173.1623C202.7073,-176.1595 226.1958,-179.2844 246.9259,-182.0423"/>
<polygon fill="#191970" stroke="#191970" points="180.6261,-169.6911 170.2519,-171.8417 179.7029,-176.63 180.6261,-169.6911"/>
</g>
<!-- Node4 -->
<g id="node5" class="node">
<title>Node4</title>
<g id="a_node5"><a xlink:href="classargo_1_1data__distribution_1_1prime__mapp__distribution.html" target="_top" xlink:title="the prime&#45;mapp data distribution ">
<polygon fill="#ffffff" stroke="#000000" points="238,-110 238,-151 383,-151 383,-110 238,-110"/>
<text text-anchor="start" x="246" y="-139" font-family="Helvetica,sans-Serif" font-size="10.00" fill="#000000">argo::data_distribution</text>
<text text-anchor="start" x="246" y="-128" font-family="Helvetica,sans-Serif" font-size="10.00" fill="#000000">::prime_mapp_distribution</text>
<text text-anchor="middle" x="310.5" y="-117" font-family="Helvetica,sans-Serif" font-size="10.00" fill="#000000">&lt; instance &gt;</text>
</a>
</g>
</g>
<!-- Node0&#45;&gt;Node4 -->
<g id="edge4" class="edge">
<title>Node0&#45;&gt;Node4</title>
<path fill="none" stroke="#191970" d="M180.226,-147.8314C199.4439,-145.2746 219.3581,-142.6253 237.6612,-140.1903"/>
<polygon fill="#191970" stroke="#191970" points="179.7029,-144.37 170.2519,-149.1583 180.6261,-151.3089 179.7029,-144.37"/>
</g>
<!-- Node5 -->
<g id="node6" class="node">
<title>Node5</title>
<g id="a_node6"><a xlink:href="classargo_1_1data__distribution_1_1skew__mapp__distribution.html" target="_top" xlink:title="the skew&#45;mapp data distribution ">
<polygon fill="#ffffff" stroke="#000000" points="239.5,-50 239.5,-91 381.5,-91 381.5,-50 239.5,-50"/>
<text text-anchor="start" x="247.5" y="-79" font-family="Helvetica,sans-Serif" font-size="10.00" fill="#000000">argo::data_distribution</text>
<text text-anchor="start" x="247.5" y="-68" font-family="Helvetica,sans-Serif" font-size="10.00" fill="#000000">::skew_mapp_distribution</text>
<text text-anchor="middle" x="310.5" y="-57" font-family="Helvetica,sans-Serif" font-size="10.00" fill="#000000">&lt; instance &gt;</text>
</a>
</g>
</g>
<!-- Node0&#45;&gt;Node5 -->
<g id="edge5" class="edge">
<title>Node0&#45;&gt;Node5</title>
<path fill="none" stroke="#191970" d="M132.3245,-141.6122C169.4288,-126.8034 220.987,-106.2258 259.0991,-91.0148"/>
<polygon fill="#191970" stroke="#191970" points="130.7338,-138.4785 122.7436,-145.436 133.3286,-144.9798 130.7338,-138.4785"/>
</g>
<!-- Node6 -->
<g id="node7" class="node">
<title>Node6</title>
<g id="a_node7"><a xlink:href="classargo_1_1data__distribution_1_1base__distribution.html" target="_top" xlink:title="argo::data_distribution\l::base_distribution\&lt; 0 \&gt;">
<polygon fill="#ffffff" stroke="#000000" points="243,-.5 243,-30.5 378,-30.5 378,-.5 243,-.5"/>
<text text-anchor="start" x="251" y="-18.5" font-family="Helvetica,sans-Serif" font-size="10.00" fill="#000000">argo::data_distribution</text>
<text text-anchor="middle" x="310.5" y="-7.5" font-family="Helvetica,sans-Serif" font-size="10.00" fill="#000000">::base_distribution&lt; 0 &gt;</text>
</a>
</g>
</g>
<!-- Node0&#45;&gt;Node6 -->
<g id="edge6" class="edge">
<title>Node0&#45;&gt;Node6</title>
<path fill="none" stroke="#ffa500" stroke-dasharray="5,2" d="M108.1269,-138.2695C136.657,-111.8631 187.5933,-67.9445 238,-40.5 244.7821,-36.8074 252.2125,-33.5048 259.6494,-30.6049"/>
<polygon fill="#ffa500" stroke="#ffa500" points="105.604,-135.8368 100.6931,-145.2248 110.3866,-140.9484 105.604,-135.8368"/>
<text text-anchor="middle" x="204" y="-74.5" font-family="Helvetica,sans-Serif" font-size="10.00" fill="#000000"> &lt; 0 &gt;</text>
</g>
</g>
</svg>
