<?xml version="1.0" encoding="UTF-8" standalone="no"?>
<!DOCTYPE svg PUBLIC "-//W3C//DTD SVG 1.1//EN"
 "http://www.w3.org/Graphics/SVG/1.1/DTD/svg11.dtd">
<!-- Generated by graphviz version 2.40.1 (20161225.0304)
 -->
<!-- Title: argo::allocators::generic_allocator::allocate Pages: 1 -->
<svg width="461pt" height="218pt"
 viewBox="0.00 0.00 461.00 218.00" xmlns="http://www.w3.org/2000/svg" xmlns:xlink="http://www.w3.org/1999/xlink">
<g id="graph0" class="graph" transform="scale(1 1) rotate(0) translate(4 214)">
<title>argo::allocators::generic_allocator::allocate</title>
<polygon fill="#ffffff" stroke="transparent" points="-4,4 -4,-214 457,-214 457,4 -4,4"/>
<!-- Node1 -->
<g id="node1" class="node">
<title>Node1</title>
<polygon fill="#bfbfbf" stroke="#000000" points="0,-52 0,-82 134,-82 134,-52 0,-52"/>
<text text-anchor="start" x="8" y="-70" font-family="Helvetica,sans-Serif" font-size="10.00" fill="#000000">argo::allocators::generic</text>
<text text-anchor="middle" x="67" y="-59" font-family="Helvetica,sans-Serif" font-size="10.00" fill="#000000">_allocator::allocate</text>
</g>
<!-- Node2 -->
<g id="node2" class="node">
<title>Node2</title>
<g id="a_node2"><a xlink:href="collective__allocator_8h_a4e8d23563c42daa5dfce669293d7e389.html#a4e8d23563c42daa5dfce669293d7e389" target="_top" xlink:title="basic collective allocation function, for C interface ">
<polygon fill="#ffffff" stroke="#000000" points="194,-133.5 194,-152.5 286,-152.5 286,-133.5 194,-133.5"/>
<text text-anchor="middle" x="240" y="-140.5" font-family="Helvetica,sans-Serif" font-size="10.00" fill="#000000">collective_alloc</text>
</a>
</g>
</g>
<!-- Node1&#45;&gt;Node2 -->
<g id="edge1" class="edge">
<title>Node1&#45;&gt;Node2</title>
<path fill="none" stroke="#191970" d="M110.4873,-86.1042C144.714,-101.1402 190.9927,-121.4708 217.9577,-133.3167"/>
<polygon fill="#191970" stroke="#191970" points="111.7425,-82.8329 101.1792,-82.0152 108.927,-89.2417 111.7425,-82.8329"/>
</g>
<!-- Node6 -->
<g id="node6" class="node">
<title>Node6</title>
<g id="a_node6"><a xlink:href="dynamic__allocator_8h_a0b0fd53a1ebb7a9c44163c77ec91c853.html#a0b0fd53a1ebb7a9c44163c77ec91c853" target="_top" xlink:title="dynamic allocation function, for C interface ">
<polygon fill="#ffffff" stroke="#000000" points="196.5,-57.5 196.5,-76.5 283.5,-76.5 283.5,-57.5 196.5,-57.5"/>
<text text-anchor="middle" x="240" y="-64.5" font-family="Helvetica,sans-Serif" font-size="10.00" fill="#000000">dynamic_alloc</text>
</a>
</g>
</g>
<!-- Node1&#45;&gt;Node6 -->
<g id="edge5" class="edge">
<title>Node1&#45;&gt;Node6</title>
<path fill="none" stroke="#191970" d="M144.7581,-67C162.5179,-67 180.7743,-67 196.4914,-67"/>
<polygon fill="#191970" stroke="#191970" points="144.3817,-63.5001 134.3817,-67 144.3817,-70.5001 144.3817,-63.5001"/>
</g>
<!-- Node10 -->
<g id="node10" class="node">
<title>Node10</title>
<g id="a_node10"><a xlink:href="classargo_1_1allocators_1_1dynamic__allocator_ae2d3947b274b46e05898cba8a6cab8b3.html#ae2d3947b274b46e05898cba8a6cab8b3" target="_top" xlink:title="allocate Ts using the default dynamic allocator ">
<polygon fill="#ffffff" stroke="#000000" points="170,-8 170,-38 310,-38 310,-8 170,-8"/>
<text text-anchor="start" x="178" y="-26" font-family="Helvetica,sans-Serif" font-size="10.00" fill="#000000">argo::allocators::dynamic</text>
<text text-anchor="middle" x="240" y="-15" font-family="Helvetica,sans-Serif" font-size="10.00" fill="#000000">_allocator::allocate</text>
</a>
</g>
</g>
<!-- Node1&#45;&gt;Node10 -->
<g id="edge9" class="edge">
<title>Node1&#45;&gt;Node10</title>
<path fill="none" stroke="#191970" d="M135.7497,-49.5145C150.6977,-45.7127 166.3847,-41.723 180.9197,-38.0262"/>
<polygon fill="#191970" stroke="#191970" points="134.8816,-46.1238 126.0529,-51.9808 136.6071,-52.9078 134.8816,-46.1238"/>
</g>
<!-- Node3 -->
<g id="node3" class="node">
<title>Node3</title>
<g id="a_node3"><a xlink:href="tests_2allocators_8cpp_a1837b5eb3f1a85c0c59ad6405738e398.html#a1837b5eb3f1a85c0c59ad6405738e398" target="_top" xlink:title="Unittest that checks that allocating 0 bytes collectively is allowed. ">
<polygon fill="#ffffff" stroke="#000000" points="374,-190.5 374,-209.5 425,-209.5 425,-190.5 374,-190.5"/>
<text text-anchor="middle" x="399.5" y="-197.5" font-family="Helvetica,sans-Serif" font-size="10.00" fill="#000000">TEST_F</text>
</a>
</g>
</g>
<!-- Node2&#45;&gt;Node3 -->
<g id="edge2" class="edge">
<title>Node2&#45;&gt;Node3</title>
<path fill="none" stroke="#191970" d="M276.1345,-155.9839C296.6237,-163.3386 322.7398,-172.7004 346,-181 355.0976,-184.2462 365.0701,-187.7913 373.9143,-190.9309"/>
<polygon fill="#191970" stroke="#191970" points="277.1598,-152.6333 266.5653,-152.5481 274.7942,-159.2215 277.1598,-152.6333"/>
</g>
<!-- Node4 -->
<g id="node4" class="node">
<title>Node4</title>
<g id="a_node4"><a xlink:href="namespaceargo_a43db7086bc5f4070897fc687ea7e950c.html#a43db7086bc5f4070897fc687ea7e950c" target="_top" xlink:title="template function to construct new objects using collective allocation ">
<polygon fill="#ffffff" stroke="#000000" points="359,-152.5 359,-171.5 440,-171.5 440,-152.5 359,-152.5"/>
<text text-anchor="middle" x="399.5" y="-159.5" font-family="Helvetica,sans-Serif" font-size="10.00" fill="#000000">argo::conew_</text>
</a>
</g>
</g>
<!-- Node2&#45;&gt;Node4 -->
<g id="edge3" class="edge">
<title>Node2&#45;&gt;Node4</title>
<path fill="none" stroke="#191970" d="M296.0809,-149.6805C316.7823,-152.1465 339.8234,-154.8912 358.8936,-157.1629"/>
<polygon fill="#191970" stroke="#191970" points="296.4778,-146.2031 286.134,-148.4956 295.6498,-153.154 296.4778,-146.2031"/>
</g>
<!-- Node5 -->
<g id="node5" class="node">
<title>Node5</title>
<g id="a_node5"><a xlink:href="namespaceargo_a532a530aefb04b559d017b8ac402feb5.html#a532a530aefb04b559d017b8ac402feb5" target="_top" xlink:title="Collectively construct a new array of objects in the global memory. ">
<polygon fill="#ffffff" stroke="#000000" points="346,-114.5 346,-133.5 453,-133.5 453,-114.5 346,-114.5"/>
<text text-anchor="middle" x="399.5" y="-121.5" font-family="Helvetica,sans-Serif" font-size="10.00" fill="#000000">argo::conew_array</text>
</a>
</g>
</g>
<!-- Node2&#45;&gt;Node5 -->
<g id="edge4" class="edge">
<title>Node2&#45;&gt;Node5</title>
<path fill="none" stroke="#191970" d="M296.4628,-136.274C312.5304,-134.36 329.9803,-132.2813 345.874,-130.3881"/>
<polygon fill="#191970" stroke="#191970" points="295.6498,-132.846 286.134,-137.5044 296.4778,-139.7969 295.6498,-132.846"/>
</g>
<!-- Node7 -->
<g id="node7" class="node">
<title>Node7</title>
<g id="a_node7"><a xlink:href="tests_2allocators_8cpp_a100f23c9297b2b8356f61ededc2431a5.html#a100f23c9297b2b8356f61ededc2431a5" target="_top" xlink:title="Unittest that checks that allocating 0 bytes dynamically by all nodes is allowed. ...">
<polygon fill="#ffffff" stroke="#000000" points="374,-76.5 374,-95.5 425,-95.5 425,-76.5 374,-76.5"/>
<text text-anchor="middle" x="399.5" y="-83.5" font-family="Helvetica,sans-Serif" font-size="10.00" fill="#000000">TEST_F</text>
</a>
</g>
</g>
<!-- Node6&#45;&gt;Node7 -->
<g id="edge6" class="edge">
<title>Node6&#45;&gt;Node7</title>
<path fill="none" stroke="#191970" d="M293.7073,-73.3977C320.774,-76.622 352.3364,-80.3818 373.8957,-82.95"/>
<polygon fill="#191970" stroke="#191970" points="293.9279,-69.8994 283.5841,-72.1918 293.0998,-76.8502 293.9279,-69.8994"/>
</g>
<!-- Node8 -->
<g id="node8" class="node">
<title>Node8</title>
<g id="a_node8"><a xlink:href="namespaceargo_abf8f4f896d56dcc711d50e395ff02bf6.html#abf8f4f896d56dcc711d50e395ff02bf6" target="_top" xlink:title="template function to construct new objects ">
<polygon fill="#ffffff" stroke="#000000" points="364.5,-38.5 364.5,-57.5 434.5,-57.5 434.5,-38.5 364.5,-38.5"/>
<text text-anchor="middle" x="399.5" y="-45.5" font-family="Helvetica,sans-Serif" font-size="10.00" fill="#000000">argo::new_</text>
</a>
</g>
</g>
<!-- Node6&#45;&gt;Node8 -->
<g id="edge7" class="edge">
<title>Node6&#45;&gt;Node8</title>
<path fill="none" stroke="#191970" d="M293.672,-60.6065C316.9558,-57.8329 343.5722,-54.6623 364.2872,-52.1946"/>
<polygon fill="#191970" stroke="#191970" points="293.0998,-57.1498 283.5841,-61.8082 293.9279,-64.1006 293.0998,-57.1498"/>
</g>
<!-- Node9 -->
<g id="node9" class="node">
<title>Node9</title>
<g id="a_node9"><a xlink:href="namespaceargo_a9fef671adb114cd54a04a846d5a860dd.html#a9fef671adb114cd54a04a846d5a860dd" target="_top" xlink:title="Construct a new array of objects in the global memory. ">
<polygon fill="#ffffff" stroke="#000000" points="352,-.5 352,-19.5 447,-19.5 447,-.5 352,-.5"/>
<text text-anchor="middle" x="399.5" y="-7.5" font-family="Helvetica,sans-Serif" font-size="10.00" fill="#000000">argo::new_array</text>
</a>
</g>
</g>
<!-- Node6&#45;&gt;Node9 -->
<g id="edge8" class="edge">
<title>Node6&#45;&gt;Node9</title>
<path fill="none" stroke="#191970" d="M287.9143,-54.592C295.384,-52.291 302.9563,-49.7399 310,-47 326.6717,-40.515 329.5407,-36.0064 346,-29 353.8901,-25.6413 362.5963,-22.3711 370.6527,-19.5172"/>
<polygon fill="#191970" stroke="#191970" points="286.8007,-51.2715 278.2067,-57.4678 288.789,-57.9832 286.8007,-51.2715"/>
</g>
</g>
</svg>
