<?xml version="1.0" encoding="UTF-8" standalone="no"?>
<!DOCTYPE svg PUBLIC "-//W3C//DTD SVG 1.1//EN"
 "http://www.w3.org/Graphics/SVG/1.1/DTD/svg11.dtd">
<!-- Generated by graphviz version 2.40.1 (20161225.0304)
 -->
<!-- Title: argo::mempools::global_memory_pool::global_memory_pool Pages: 1 -->
<svg width="373pt" height="126pt"
 viewBox="0.00 0.00 373.00 126.00" xmlns="http://www.w3.org/2000/svg" xmlns:xlink="http://www.w3.org/1999/xlink">
<g id="graph0" class="graph" transform="scale(1 1) rotate(0) translate(4 122)">
<title>argo::mempools::global_memory_pool::global_memory_pool</title>
<polygon fill="#ffffff" stroke="transparent" points="-4,4 -4,-122 369,-122 369,4 -4,4"/>
<!-- Node0 -->
<g id="node1" class="node">
<title>Node0</title>
<polygon fill="#bfbfbf" stroke="#000000" points="0,-44 0,-74 198,-74 198,-44 0,-44"/>
<text text-anchor="start" x="8" y="-62" font-family="Helvetica,sans-Serif" font-size="10.00" fill="#000000">argo::mempools::global</text>
<text text-anchor="middle" x="99" y="-51" font-family="Helvetica,sans-Serif" font-size="10.00" fill="#000000">_memory_pool::global_memory_pool</text>
</g>
<!-- Node1 -->
<g id="node2" class="node">
<title>Node1</title>
<g id="a_node2"><a xlink:href="namespaceargo_a79c9492f3fd441bfa6261dffbc0f02f4.html#a79c9492f3fd441bfa6261dffbc0f02f4" target="_top" xlink:title="Number of ArgoDSM nodes being run. ">
<polygon fill="#ffffff" stroke="#000000" points="234,-98.5 234,-117.5 365,-117.5 365,-98.5 234,-98.5"/>
<text text-anchor="middle" x="299.5" y="-105.5" font-family="Helvetica,sans-Serif" font-size="10.00" fill="#000000">argo::number_of_nodes</text>
</a>
</g>
</g>
<!-- Node0&#45;&gt;Node1 -->
<g id="edge1" class="edge">
<title>Node0&#45;&gt;Node1</title>
<path fill="none" stroke="#191970" d="M160.5192,-74.0346C189.4058,-81.0942 223.3622,-89.3928 250.4798,-96.02"/>
<polygon fill="#191970" stroke="#191970" points="249.9681,-99.4979 260.5132,-98.472 251.63,-92.698 249.9681,-99.4979"/>
</g>
<!-- Node2 -->
<g id="node3" class="node">
<title>Node2</title>
<g id="a_node3"><a xlink:href="classargo_1_1data__distribution_1_1base__distribution_a4b275eeffdafd81ecbd739ea03942666.html#a4b275eeffdafd81ecbd739ea03942666" target="_top" xlink:title="set runtime parameters for global memory space ">
<polygon fill="#ffffff" stroke="#000000" points="235,-38.5 235,-79.5 364,-79.5 364,-38.5 235,-38.5"/>
<text text-anchor="start" x="243" y="-67.5" font-family="Helvetica,sans-Serif" font-size="10.00" fill="#000000">argo::data_distribution</text>
<text text-anchor="start" x="243" y="-56.5" font-family="Helvetica,sans-Serif" font-size="10.00" fill="#000000">::base_distribution&lt; 0</text>
<text text-anchor="middle" x="299.5" y="-45.5" font-family="Helvetica,sans-Serif" font-size="10.00" fill="#000000"> &gt;::set_memory_space</text>
</a>
</g>
</g>
<!-- Node0&#45;&gt;Node2 -->
<g id="edge2" class="edge">
<title>Node0&#45;&gt;Node2</title>
<path fill="none" stroke="#191970" d="M198.0752,-59C207.081,-59 216.0993,-59 224.8396,-59"/>
<polygon fill="#191970" stroke="#191970" points="224.9548,-62.5001 234.9547,-59 224.9547,-55.5001 224.9548,-62.5001"/>
</g>
<!-- Node3 -->
<g id="node4" class="node">
<title>Node3</title>
<g id="a_node4"><a xlink:href="namespaceargo_a2deaaacde085d381cbb01f24318965b4.html#a2deaaacde085d381cbb01f24318965b4" target="_top" xlink:title="A unique ArgoDSM node identifier. Counting starts from 0. ">
<polygon fill="#ffffff" stroke="#000000" points="258,-.5 258,-19.5 341,-19.5 341,-.5 258,-.5"/>
<text text-anchor="middle" x="299.5" y="-7.5" font-family="Helvetica,sans-Serif" font-size="10.00" fill="#000000">argo::node_id</text>
</a>
</g>
</g>
<!-- Node0&#45;&gt;Node3 -->
<g id="edge3" class="edge">
<title>Node0&#45;&gt;Node3</title>
<path fill="none" stroke="#191970" d="M160.5192,-43.9654C189.4058,-36.9058 223.3622,-28.6072 250.4798,-21.98"/>
<polygon fill="#191970" stroke="#191970" points="251.63,-25.302 260.5132,-19.528 249.9681,-18.5021 251.63,-25.302"/>
</g>
</g>
</svg>
