<?xml version="1.0" encoding="UTF-8" standalone="no"?>
<!DOCTYPE svg PUBLIC "-//W3C//DTD SVG 1.1//EN"
 "http://www.w3.org/Graphics/SVG/1.1/DTD/svg11.dtd">
<!-- Generated by graphviz version 2.40.1 (20161225.0304)
 -->
<!-- Title: write_buffer::has Pages: 1 -->
<svg width="595pt" height="28pt"
 viewBox="0.00 0.00 595.00 28.00" xmlns="http://www.w3.org/2000/svg" xmlns:xlink="http://www.w3.org/1999/xlink">
<g id="graph0" class="graph" transform="scale(1 1) rotate(0) translate(4 24)">
<title>write_buffer::has</title>
<polygon fill="#ffffff" stroke="transparent" points="-4,4 -4,-24 591,-24 591,4 -4,4"/>
<!-- Node1 -->
<g id="node1" class="node">
<title>Node1</title>
<polygon fill="#bfbfbf" stroke="#000000" points="0,-.5 0,-19.5 98,-19.5 98,-.5 0,-.5"/>
<text text-anchor="middle" x="49" y="-7.5" font-family="Helvetica,sans-Serif" font-size="10.00" fill="#000000">write_buffer::has</text>
</g>
<!-- Node2 -->
<g id="node2" class="node">
<title>Node2</title>
<g id="a_node2"><a xlink:href="classwrite__buffer_a23b0dbc463111cacbbf83b267e76ac9f.html#a23b0dbc463111cacbbf83b267e76ac9f" target="_top" xlink:title="Adds a new element to the write buffer. ">
<polygon fill="#ffffff" stroke="#000000" points="134,-.5 134,-19.5 233,-19.5 233,-.5 134,-.5"/>
<text text-anchor="middle" x="183.5" y="-7.5" font-family="Helvetica,sans-Serif" font-size="10.00" fill="#000000">write_buffer::add</text>
</a>
</g>
</g>
<!-- Node1&#45;&gt;Node2 -->
<g id="edge1" class="edge">
<title>Node1&#45;&gt;Node2</title>
<path fill="none" stroke="#191970" d="M108.4859,-10C116.9177,-10 125.5146,-10 133.7366,-10"/>
<polygon fill="#191970" stroke="#191970" points="108.3191,-6.5001 98.3191,-10 108.3191,-13.5001 108.3191,-6.5001"/>
</g>
<!-- Node3 -->
<g id="node3" class="node">
<title>Node3</title>
<g id="a_node3"><a xlink:href="swdsm_8h_a8b00f264b792522b179fbc9c818187bd.html#a8b00f264b792522b179fbc9c818187bd" target="_top" xlink:title="Catches memory accesses to memory not yet cached in ArgoDSM. Launches remote requests for memory not ...">
<polygon fill="#ffffff" stroke="#000000" points="269,-.5 269,-19.5 322,-19.5 322,-.5 269,-.5"/>
<text text-anchor="middle" x="295.5" y="-7.5" font-family="Helvetica,sans-Serif" font-size="10.00" fill="#000000">handler</text>
</a>
</g>
</g>
<!-- Node2&#45;&gt;Node3 -->
<g id="edge2" class="edge">
<title>Node2&#45;&gt;Node3</title>
<path fill="none" stroke="#191970" d="M243.3828,-10C252.3271,-10 261.1386,-10 268.8988,-10"/>
<polygon fill="#191970" stroke="#191970" points="243.2771,-6.5001 233.2771,-10 243.277,-13.5001 243.2771,-6.5001"/>
</g>
<!-- Node4 -->
<g id="node4" class="node">
<title>Node4</title>
<g id="a_node4"><a xlink:href="swdsm_8h_a10dca85d339ce630cf42dca685b3f6d9.html#a10dca85d339ce630cf42dca685b3f6d9" target="_top" xlink:title="Initializes ArgoDSM runtime. ">
<polygon fill="#ffffff" stroke="#000000" points="358,-.5 358,-19.5 444,-19.5 444,-.5 358,-.5"/>
<text text-anchor="middle" x="401" y="-7.5" font-family="Helvetica,sans-Serif" font-size="10.00" fill="#000000">argo_initialize</text>
</a>
</g>
</g>
<!-- Node3&#45;&gt;Node4 -->
<g id="edge3" class="edge">
<title>Node3&#45;&gt;Node4</title>
<path fill="none" stroke="#191970" d="M332.252,-10C340.5512,-10 349.4339,-10 357.9655,-10"/>
<polygon fill="#191970" stroke="#191970" points="332.1221,-6.5001 322.1221,-10 332.1221,-13.5001 332.1221,-6.5001"/>
</g>
<!-- Node5 -->
<g id="node5" class="node">
<title>Node5</title>
<g id="a_node5"><a xlink:href="backend_8hpp_af0d80a03a17a374c10d9635ddf81e261.html#af0d80a03a17a374c10d9635ddf81e261" target="_top" xlink:title="initialize backend ">
<polygon fill="#ffffff" stroke="#000000" points="480,-.5 480,-19.5 587,-19.5 587,-.5 480,-.5"/>
<text text-anchor="middle" x="533.5" y="-7.5" font-family="Helvetica,sans-Serif" font-size="10.00" fill="#000000">argo::backend::init</text>
</a>
</g>
</g>
<!-- Node4&#45;&gt;Node5 -->
<g id="edge4" class="edge">
<title>Node4&#45;&gt;Node5</title>
<path fill="none" stroke="#191970" d="M454.0705,-10C462.4617,-10 471.147,-10 479.5579,-10"/>
<polygon fill="#191970" stroke="#191970" points="454.019,-6.5001 444.019,-10 454.0189,-13.5001 454.019,-6.5001"/>
</g>
</g>
</svg>
