<?xml version="1.0" encoding="UTF-8" standalone="no"?>
<!DOCTYPE svg PUBLIC "-//W3C//DTD SVG 1.1//EN"
 "http://www.w3.org/Graphics/SVG/1.1/DTD/svg11.dtd">
<!-- Generated by graphviz version 2.40.1 (20161225.0304)
 -->
<!-- Title: argo::data_distribution::global_ptr::node Pages: 1 -->
<!--zoomable 699 -->
<svg id="main" version="1.1" xmlns="http://www.w3.org/2000/svg" xmlns:xlink="http://www.w3.org/1999/xlink" xml:space="preserve" onload="init(evt)">
<style type="text/css"><![CDATA[
.edge:hover path { stroke: red; }
.edge:hover polygon { stroke: red; fill: red; }
]]></style>
<script type="text/javascript"><![CDATA[
var edges = document.getElementsByTagName('g');
if (edges && edges.length) {
  for (var i=0;i<edges.length;i++) {
    if (edges[i].id.substr(0,4)=='edge') {
      edges[i].setAttribute('class','edge');
    }
  }
}
]]></script>
        <defs>
                <circle id="rim" cx="0" cy="0" r="7"/>
                <circle id="rim2" cx="0" cy="0" r="3.5"/>
                <g id="zoomPlus">
                        <use xlink:href="#rim" fill="#404040">
                                <set attributeName="fill" to="#808080" begin="zoomplus.mouseover" end="zoomplus.mouseout"/>
                        </use>
                        <path d="M-4,0h8M0,-4v8" fill="none" stroke="white" stroke-width="1.5" pointer-events="none"/>
                </g>
                <g id="zoomMin">
                        <use xlink:href="#rim" fill="#404040">
                                <set attributeName="fill" to="#808080" begin="zoomminus.mouseover" end="zoomminus.mouseout"/>
                        </use>
                        <path d="M-4,0h8" fill="none" stroke="white" stroke-width="1.5" pointer-events="none"/>
                </g>
                <g id="dirArrow">
                        <path fill="none" stroke="white" stroke-width="1.5" d="M0,-3.0v7 M-2.5,-0.5L0,-3.0L2.5,-0.5"/>
                </g>
               <g id="resetDef">
                       <use xlink:href="#rim2" fill="#404040">
                               <set attributeName="fill" to="#808080" begin="reset.mouseover" end="reset.mouseout"/>
                       </use>
               </g>
        </defs>

<script type="text/javascript">
var viewWidth = 1376;
var viewHeight = 699;
var sectionId = 'dynsection-0';
</script>
<script xlink:href="svgpan.js"/>
<svg id="graph" class="graph">
<g id="viewport">
<title>argo::data_distribution::global_ptr::node</title>
<polygon fill="#ffffff" stroke="transparent" points="-4,4 -4,-695 1372,-695 1372,4 -4,4"/>
<!-- Node1 -->
<g id="node1" class="node">
<title>Node1</title>
<polygon fill="#bfbfbf" stroke="#000000" points="0,-474.5 0,-504.5 127,-504.5 127,-474.5 0,-474.5"/>
<text text-anchor="start" x="8" y="-492.5" font-family="Helvetica,sans-Serif" font-size="10.00" fill="#000000">argo::data_distribution</text>
<text text-anchor="middle" x="63.5" y="-481.5" font-family="Helvetica,sans-Serif" font-size="10.00" fill="#000000">::global_ptr::node</text>
</g>
<!-- Node2 -->
<g id="node2" class="node">
<title>Node2</title>
<g id="a_node2"><a xlink:href="backend_8hpp_a59102c6814043d49f3b2623f367f6ba2.html#a59102c6814043d49f3b2623f367f6ba2" target="_top" xlink:title="Backend internal type erased atomic exchange function. ">
<polygon fill="#ffffff" stroke="#000000" points="163,-642.5 163,-672.5 288,-672.5 288,-642.5 163,-642.5"/>
<text text-anchor="start" x="171" y="-660.5" font-family="Helvetica,sans-Serif" font-size="10.00" fill="#000000">argo::backend::atomic</text>
<text text-anchor="middle" x="225.5" y="-649.5" font-family="Helvetica,sans-Serif" font-size="10.00" fill="#000000">::_exchange</text>
</a>
</g>
</g>
<!-- Node1&#45;&gt;Node2 -->
<g id="edge1" class="edge">
<title>Node1&#45;&gt;Node2</title>
<path fill="none" stroke="#191970" d="M74.7524,-514.2147C90.3534,-545.9411 121.4015,-600.7868 163,-633.5 167.2941,-636.8769 172.1182,-639.8229 177.1328,-642.3822"/>
<polygon fill="#191970" stroke="#191970" points="77.7119,-512.2912 70.2361,-504.7837 71.3985,-515.3146 77.7119,-512.2912"/>
</g>
<!-- Node3 -->
<g id="node3" class="node">
<title>Node3</title>
<g id="a_node3"><a xlink:href="backend_8hpp_ae76ec4647c992bfecf6309787f3dec4a.html#ae76ec4647c992bfecf6309787f3dec4a" target="_top" xlink:title="Backend internal type erased atomic store function. ">
<polygon fill="#ffffff" stroke="#000000" points="163,-575.5 163,-605.5 288,-605.5 288,-575.5 163,-575.5"/>
<text text-anchor="start" x="171" y="-593.5" font-family="Helvetica,sans-Serif" font-size="10.00" fill="#000000">argo::backend::atomic</text>
<text text-anchor="middle" x="225.5" y="-582.5" font-family="Helvetica,sans-Serif" font-size="10.00" fill="#000000">::_store</text>
</a>
</g>
</g>
<!-- Node1&#45;&gt;Node3 -->
<g id="edge3" class="edge">
<title>Node1&#45;&gt;Node3</title>
<path fill="none" stroke="#191970" d="M87.7301,-511.5275C107.0462,-528.2482 135.3514,-550.9393 163,-566.5 168.7736,-569.7494 175.0747,-572.7417 181.382,-575.4301"/>
<polygon fill="#191970" stroke="#191970" points="89.8536,-508.7342 80.0303,-504.7652 85.2344,-513.9938 89.8536,-508.7342"/>
</g>
<!-- Node4 -->
<g id="node4" class="node">
<title>Node4</title>
<g id="a_node4"><a xlink:href="backend_8hpp_ad05287a5a2d303811b5c9e7a488bda59.html#ad05287a5a2d303811b5c9e7a488bda59" target="_top" xlink:title="Backend internal type erased atomic store function. ">
<polygon fill="#ffffff" stroke="#000000" points="163,-508.5 163,-538.5 288,-538.5 288,-508.5 163,-508.5"/>
<text text-anchor="start" x="171" y="-526.5" font-family="Helvetica,sans-Serif" font-size="10.00" fill="#000000">argo::backend::atomic</text>
<text text-anchor="middle" x="225.5" y="-515.5" font-family="Helvetica,sans-Serif" font-size="10.00" fill="#000000">::_load</text>
</a>
</g>
</g>
<!-- Node1&#45;&gt;Node4 -->
<g id="edge5" class="edge">
<title>Node1&#45;&gt;Node4</title>
<path fill="none" stroke="#191970" d="M137.1082,-504.9486C145.7306,-506.7583 154.4657,-508.5916 162.9182,-510.3655"/>
<polygon fill="#191970" stroke="#191970" points="137.5674,-501.4688 127.0617,-502.8401 136.1296,-508.3196 137.5674,-501.4688"/>
</g>
<!-- Node5 -->
<g id="node5" class="node">
<title>Node5</title>
<g id="a_node5"><a xlink:href="backend_8hpp_ab1a7511272b2801f891b966a67b2a4dc.html#ab1a7511272b2801f891b966a67b2a4dc" target="_top" xlink:title="Backend internal type erased atomic CAS function. ">
<polygon fill="#ffffff" stroke="#000000" points="163,-441.5 163,-471.5 288,-471.5 288,-441.5 163,-441.5"/>
<text text-anchor="start" x="171" y="-459.5" font-family="Helvetica,sans-Serif" font-size="10.00" fill="#000000">argo::backend::atomic</text>
<text text-anchor="middle" x="225.5" y="-448.5" font-family="Helvetica,sans-Serif" font-size="10.00" fill="#000000">::_compare_exchange</text>
</a>
</g>
</g>
<!-- Node1&#45;&gt;Node5 -->
<g id="edge7" class="edge">
<title>Node1&#45;&gt;Node5</title>
<path fill="none" stroke="#191970" d="M137.1082,-474.5057C145.7306,-472.7493 154.4657,-470.97 162.9182,-469.2481"/>
<polygon fill="#191970" stroke="#191970" points="136.1619,-471.1265 127.0617,-476.5522 137.5591,-477.9857 136.1619,-471.1265"/>
</g>
<!-- Node6 -->
<g id="node6" class="node">
<title>Node6</title>
<g id="a_node6"><a xlink:href="mpi_8cpp_a9b1ef8bbaaf93b03603c2ab0ff3b6133.html#a9b1ef8bbaaf93b03603c2ab0ff3b6133" target="_top" xlink:title="Atomic fetch&amp;add for the MPI backend (for internal usage) ">
<polygon fill="#ffffff" stroke="#000000" points="163,-374.5 163,-404.5 288,-404.5 288,-374.5 163,-374.5"/>
<text text-anchor="start" x="171" y="-392.5" font-family="Helvetica,sans-Serif" font-size="10.00" fill="#000000">argo::backend::atomic</text>
<text text-anchor="middle" x="225.5" y="-381.5" font-family="Helvetica,sans-Serif" font-size="10.00" fill="#000000">::_fetch_add</text>
</a>
</g>
</g>
<!-- Node1&#45;&gt;Node6 -->
<g id="edge9" class="edge">
<title>Node1&#45;&gt;Node6</title>
<path fill="none" stroke="#191970" d="M96.8449,-468.9167C127.8965,-449.7491 173.4481,-421.6308 201.1949,-404.5031"/>
<polygon fill="#191970" stroke="#191970" points="94.7752,-466.0811 88.1043,-474.3122 98.4521,-472.0377 94.7752,-466.0811"/>
</g>
<!-- Node10 -->
<g id="node10" class="node">
<title>Node10</title>
<g id="a_node10"><a xlink:href="swdsm_8h_a0edf823a78daed8888e8e18468460617.html#a0edf823a78daed8888e8e18468460617" target="_top" xlink:title="Gives homenode for a given address. ">
<polygon fill="#ffffff" stroke="#000000" points="181,-317 181,-336 270,-336 270,-317 181,-317"/>
<text text-anchor="middle" x="225.5" y="-324" font-family="Helvetica,sans-Serif" font-size="10.00" fill="#000000">get_homenode</text>
</a>
</g>
</g>
<!-- Node1&#45;&gt;Node10 -->
<g id="edge17" class="edge">
<title>Node1&#45;&gt;Node10</title>
<path fill="none" stroke="#191970" d="M78.9196,-465.7633C96.9296,-439.2307 128.6632,-395.9963 163,-365.5 176.2923,-353.6944 193.5759,-343.2112 206.5978,-336.0948"/>
<polygon fill="#191970" stroke="#191970" points="75.7909,-464.1456 73.1399,-474.4035 81.6091,-468.0377 75.7909,-464.1456"/>
</g>
<!-- Node2&#45;&gt;Node2 -->
<g id="edge2" class="edge">
<title>Node2&#45;&gt;Node2</title>
<path fill="none" stroke="#191970" d="M197.0699,-682.9579C200.5985,-687.679 210.0752,-691 225.5,-691 250.8125,-691 260.1069,-682.0566 253.3833,-672.659"/>
<polygon fill="#191970" stroke="#191970" points="200.5815,-682.8305 197.6167,-672.659 193.5914,-682.4594 200.5815,-682.8305"/>
</g>
<!-- Node3&#45;&gt;Node3 -->
<g id="edge4" class="edge">
<title>Node3&#45;&gt;Node3</title>
<path fill="none" stroke="#191970" d="M197.0699,-615.9579C200.5985,-620.679 210.0752,-624 225.5,-624 250.8125,-624 260.1069,-615.0566 253.3833,-605.659"/>
<polygon fill="#191970" stroke="#191970" points="200.5815,-615.8305 197.6167,-605.659 193.5914,-615.4594 200.5815,-615.8305"/>
</g>
<!-- Node4&#45;&gt;Node4 -->
<g id="edge6" class="edge">
<title>Node4&#45;&gt;Node4</title>
<path fill="none" stroke="#191970" d="M197.0699,-548.9579C200.5985,-553.679 210.0752,-557 225.5,-557 250.8125,-557 260.1069,-548.0566 253.3833,-538.659"/>
<polygon fill="#191970" stroke="#191970" points="200.5815,-548.8305 197.6167,-538.659 193.5914,-548.4594 200.5815,-548.8305"/>
</g>
<!-- Node5&#45;&gt;Node5 -->
<g id="edge8" class="edge">
<title>Node5&#45;&gt;Node5</title>
<path fill="none" stroke="#191970" d="M197.0699,-481.9579C200.5985,-486.679 210.0752,-490 225.5,-490 250.8125,-490 260.1069,-481.0566 253.3833,-471.659"/>
<polygon fill="#191970" stroke="#191970" points="200.5815,-481.8305 197.6167,-471.659 193.5914,-481.4594 200.5815,-481.8305"/>
</g>
<!-- Node6&#45;&gt;Node6 -->
<g id="edge10" class="edge">
<title>Node6&#45;&gt;Node6</title>
<path fill="none" stroke="#191970" d="M197.0699,-414.9579C200.5985,-419.679 210.0752,-423 225.5,-423 250.8125,-423 260.1069,-414.0566 253.3833,-404.659"/>
<polygon fill="#191970" stroke="#191970" points="200.5815,-414.8305 197.6167,-404.659 193.5914,-414.4594 200.5815,-414.8305"/>
</g>
<!-- Node7 -->
<g id="node7" class="node">
<title>Node7</title>
<g id="a_node7"><a xlink:href="backend_8hpp_a42d4f07adf3b439564928f89022b74b5.html#a42d4f07adf3b439564928f89022b74b5" target="_top" xlink:title="Backend internal type erased atomic (post)increment function for signed integers. ...">
<polygon fill="#ffffff" stroke="#000000" points="324,-499.5 324,-529.5 449,-529.5 449,-499.5 324,-499.5"/>
<text text-anchor="start" x="332" y="-517.5" font-family="Helvetica,sans-Serif" font-size="10.00" fill="#000000">argo::backend::atomic</text>
<text text-anchor="middle" x="386.5" y="-506.5" font-family="Helvetica,sans-Serif" font-size="10.00" fill="#000000">::_fetch_add_int</text>
</a>
</g>
</g>
<!-- Node6&#45;&gt;Node7 -->
<g id="edge11" class="edge">
<title>Node6&#45;&gt;Node7</title>
<path fill="none" stroke="#191970" d="M261.068,-410.2447C270.4475,-416.6718 280.1348,-424.2551 288,-432.5 308.9419,-454.4529 300.6194,-471.165 324,-490.5 328.1203,-493.9074 332.7778,-496.8651 337.6465,-499.4248"/>
<polygon fill="#191970" stroke="#191970" points="262.881,-407.2481 252.6018,-404.6815 259.0369,-413.0981 262.881,-407.2481"/>
</g>
<!-- Node8 -->
<g id="node8" class="node">
<title>Node8</title>
<g id="a_node8"><a xlink:href="backend_8hpp_ab1a86cdd5235a54afdf0ac3d9f9f6f9c.html#ab1a86cdd5235a54afdf0ac3d9f9f6f9c" target="_top" xlink:title="Backend internal type erased atomic (post)increment function for unsigned integers. ">
<polygon fill="#ffffff" stroke="#000000" points="324,-432.5 324,-462.5 449,-462.5 449,-432.5 324,-432.5"/>
<text text-anchor="start" x="332" y="-450.5" font-family="Helvetica,sans-Serif" font-size="10.00" fill="#000000">argo::backend::atomic</text>
<text text-anchor="middle" x="386.5" y="-439.5" font-family="Helvetica,sans-Serif" font-size="10.00" fill="#000000">::_fetch_add_uint</text>
</a>
</g>
</g>
<!-- Node6&#45;&gt;Node8 -->
<g id="edge13" class="edge">
<title>Node6&#45;&gt;Node8</title>
<path fill="none" stroke="#191970" d="M276.8745,-408.0076C298.8109,-415.9101 324.0824,-425.0141 344.8291,-432.4881"/>
<polygon fill="#191970" stroke="#191970" points="277.975,-404.6839 267.3806,-404.5874 275.6024,-411.2696 277.975,-404.6839"/>
</g>
<!-- Node9 -->
<g id="node9" class="node">
<title>Node9</title>
<g id="a_node9"><a xlink:href="backend_8hpp_a62d5f2da9f560d2d8a956be88861af7b.html#a62d5f2da9f560d2d8a956be88861af7b" target="_top" xlink:title="Backend internal type erased atomic (post)increment function for floating point numbers. ">
<polygon fill="#ffffff" stroke="#000000" points="324,-365.5 324,-395.5 449,-395.5 449,-365.5 324,-365.5"/>
<text text-anchor="start" x="332" y="-383.5" font-family="Helvetica,sans-Serif" font-size="10.00" fill="#000000">argo::backend::atomic</text>
<text text-anchor="middle" x="386.5" y="-372.5" font-family="Helvetica,sans-Serif" font-size="10.00" fill="#000000">::_fetch_add_float</text>
</a>
</g>
</g>
<!-- Node6&#45;&gt;Node9 -->
<g id="edge15" class="edge">
<title>Node6&#45;&gt;Node9</title>
<path fill="none" stroke="#191970" d="M298.2184,-385.435C306.8129,-384.9546 315.5268,-384.4674 323.9633,-383.9958"/>
<polygon fill="#191970" stroke="#191970" points="297.9968,-381.9418 288.2078,-385.9946 298.3876,-388.9309 297.9968,-381.9418"/>
</g>
<!-- Node7&#45;&gt;Node7 -->
<g id="edge12" class="edge">
<title>Node7&#45;&gt;Node7</title>
<path fill="none" stroke="#191970" d="M359.8468,-539.9579C363.1548,-544.679 372.0392,-548 386.5,-548 410.2305,-548 418.944,-539.0566 412.6406,-529.659"/>
<polygon fill="#191970" stroke="#191970" points="363.3579,-539.8207 360.3594,-529.659 356.3665,-539.4726 363.3579,-539.8207"/>
</g>
<!-- Node8&#45;&gt;Node8 -->
<g id="edge14" class="edge">
<title>Node8&#45;&gt;Node8</title>
<path fill="none" stroke="#191970" d="M359.8468,-472.9579C363.1548,-477.679 372.0392,-481 386.5,-481 410.2305,-481 418.944,-472.0566 412.6406,-462.659"/>
<polygon fill="#191970" stroke="#191970" points="363.3579,-472.8207 360.3594,-462.659 356.3665,-472.4726 363.3579,-472.8207"/>
</g>
<!-- Node9&#45;&gt;Node9 -->
<g id="edge16" class="edge">
<title>Node9&#45;&gt;Node9</title>
<path fill="none" stroke="#191970" d="M359.8468,-405.9579C363.1548,-410.679 372.0392,-414 386.5,-414 410.2305,-414 418.944,-405.0566 412.6406,-395.659"/>
<polygon fill="#191970" stroke="#191970" points="363.3579,-405.8207 360.3594,-395.659 356.3665,-405.4726 363.3579,-405.8207"/>
</g>
<!-- Node11 -->
<g id="node11" class="node">
<title>Node11</title>
<g id="a_node11"><a xlink:href="swdsm_8h_a8b00f264b792522b179fbc9c818187bd.html#a8b00f264b792522b179fbc9c818187bd" target="_top" xlink:title="Catches memory accesses to memory not yet cached in ArgoDSM. Launches remote requests for memory not ...">
<polygon fill="#ffffff" stroke="#000000" points="833.5,-308 833.5,-327 886.5,-327 886.5,-308 833.5,-308"/>
<text text-anchor="middle" x="860" y="-315" font-family="Helvetica,sans-Serif" font-size="10.00" fill="#000000">handler</text>
</a>
</g>
</g>
<!-- Node10&#45;&gt;Node11 -->
<g id="edge18" class="edge">
<title>Node10&#45;&gt;Node11</title>
<path fill="none" stroke="#191970" d="M280.13,-324.0548C332.6347,-321.8351 414.2222,-318.727 485,-317.5 615.5142,-315.2374 771.6178,-316.519 833.1691,-317.181"/>
<polygon fill="#191970" stroke="#191970" points="279.8702,-320.5626 270.0286,-324.4861 280.1689,-327.5563 279.8702,-320.5626"/>
</g>
<!-- Node14 -->
<g id="node14" class="node">
<title>Node14</title>
<g id="a_node14"><a xlink:href="swdsm_8cpp_a97adb774a1a5a7a3505416a171c570e9.html#a97adb774a1a5a7a3505416a171c570e9" target="_top" xlink:title="load into cache helper function ">
<polygon fill="#ffffff" stroke="#000000" points="486,-327 486,-346 588,-346 588,-327 486,-327"/>
<text text-anchor="middle" x="537" y="-334" font-family="Helvetica,sans-Serif" font-size="10.00" fill="#000000">load_cache_entry</text>
</a>
</g>
</g>
<!-- Node10&#45;&gt;Node14 -->
<g id="edge21" class="edge">
<title>Node10&#45;&gt;Node14</title>
<path fill="none" stroke="#191970" d="M280.2209,-328.2567C338.3014,-330.1212 429.3531,-333.0442 485.983,-334.8622"/>
<polygon fill="#191970" stroke="#191970" points="280.2375,-324.7555 270.1304,-327.9328 280.0129,-331.7519 280.2375,-324.7555"/>
</g>
<!-- Node15 -->
<g id="node15" class="node">
<title>Node15</title>
<g id="a_node15"><a xlink:href="swdsm_8h_ae0f2d0961e80b2903b3f54c9e6c68658.html#ae0f2d0961e80b2903b3f54c9e6c68658" target="_top" xlink:title="stores a page remotely &#45; only writing back what has been written locally since last synchronization p...">
<polygon fill="#ffffff" stroke="#000000" points="343.5,-197 343.5,-216 429.5,-216 429.5,-197 343.5,-197"/>
<text text-anchor="middle" x="386.5" y="-204" font-family="Helvetica,sans-Serif" font-size="10.00" fill="#000000">storepageDIFF</text>
</a>
</g>
</g>
<!-- Node10&#45;&gt;Node15 -->
<g id="edge23" class="edge">
<title>Node10&#45;&gt;Node15</title>
<path fill="none" stroke="#191970" d="M246.6737,-310.7184C280.5177,-285.493 345.8068,-236.8303 373.5354,-216.1631"/>
<polygon fill="#191970" stroke="#191970" points="244.3294,-308.1004 238.4032,-316.8827 248.5127,-313.7129 244.3294,-308.1004"/>
</g>
<!-- Node12 -->
<g id="node12" class="node">
<title>Node12</title>
<g id="a_node12"><a xlink:href="swdsm_8h_a10dca85d339ce630cf42dca685b3f6d9.html#a10dca85d339ce630cf42dca685b3f6d9" target="_top" xlink:title="Initializes ArgoDSM runtime. ">
<polygon fill="#ffffff" stroke="#000000" points="1128.5,-364 1128.5,-383 1214.5,-383 1214.5,-364 1128.5,-364"/>
<text text-anchor="middle" x="1171.5" y="-371" font-family="Helvetica,sans-Serif" font-size="10.00" fill="#000000">argo_initialize</text>
</a>
</g>
</g>
<!-- Node11&#45;&gt;Node12 -->
<g id="edge19" class="edge">
<title>Node11&#45;&gt;Node12</title>
<path fill="none" stroke="#191970" d="M879.5046,-333.4339C897.5712,-347.0891 925.827,-365.7441 954,-373.5 1012.6137,-389.6362 1083.5286,-385.4761 1128.0891,-380.1664"/>
<polygon fill="#191970" stroke="#191970" points="881.5399,-330.5828 871.499,-327.2017 877.2398,-336.1064 881.5399,-330.5828"/>
</g>
<!-- Node13 -->
<g id="node13" class="node">
<title>Node13</title>
<g id="a_node13"><a xlink:href="backend_8hpp_af0d80a03a17a374c10d9635ddf81e261.html#af0d80a03a17a374c10d9635ddf81e261" target="_top" xlink:title="initialize backend ">
<polygon fill="#ffffff" stroke="#000000" points="1261,-364 1261,-383 1368,-383 1368,-364 1261,-364"/>
<text text-anchor="middle" x="1314.5" y="-371" font-family="Helvetica,sans-Serif" font-size="10.00" fill="#000000">argo::backend::init</text>
</a>
</g>
</g>
<!-- Node12&#45;&gt;Node13 -->
<g id="edge20" class="edge">
<title>Node12&#45;&gt;Node13</title>
<path fill="none" stroke="#191970" d="M1224.933,-373.5C1236.7171,-373.5 1249.2019,-373.5 1260.9891,-373.5"/>
<polygon fill="#191970" stroke="#191970" points="1224.7928,-370.0001 1214.7928,-373.5 1224.7927,-377.0001 1224.7928,-370.0001"/>
</g>
<!-- Node14&#45;&gt;Node11 -->
<g id="edge22" class="edge">
<title>Node14&#45;&gt;Node11</title>
<path fill="none" stroke="#191970" d="M598.2935,-332.8945C669.0067,-328.7349 782.0963,-322.0826 833.2852,-319.0715"/>
<polygon fill="#191970" stroke="#191970" points="597.9575,-329.4081 588.1803,-333.4894 598.3686,-336.396 597.9575,-329.4081"/>
</g>
<!-- Node15&#45;&gt;Node14 -->
<g id="edge30" class="edge">
<title>Node15&#45;&gt;Node14</title>
<path fill="none" stroke="#191970" d="M405.5559,-222.9603C437.4163,-250.4809 500.5086,-304.9792 525.9658,-326.9688"/>
<polygon fill="#191970" stroke="#191970" points="407.6676,-220.1593 397.812,-216.2711 403.0917,-225.4567 407.6676,-220.1593"/>
</g>
<!-- Node16 -->
<g id="node16" class="node">
<title>Node16</title>
<g id="a_node16"><a xlink:href="backend_8hpp_a0fb29a8253f0d9aefc999d93414b1758.html#a0fb29a8253f0d9aefc999d93414b1758" target="_top" xlink:title="backend internal type erased function for selective acquire ">
<polygon fill="#ffffff" stroke="#000000" points="625,-68.5 625,-98.5 766,-98.5 766,-68.5 625,-68.5"/>
<text text-anchor="start" x="633" y="-86.5" font-family="Helvetica,sans-Serif" font-size="10.00" fill="#000000">argo::backend::_selective</text>
<text text-anchor="middle" x="695.5" y="-75.5" font-family="Helvetica,sans-Serif" font-size="10.00" fill="#000000">_acquire</text>
</a>
</g>
</g>
<!-- Node15&#45;&gt;Node16 -->
<g id="edge24" class="edge">
<title>Node15&#45;&gt;Node16</title>
<path fill="none" stroke="#191970" d="M419.9172,-193.198C477.8916,-170.1208 596.7315,-122.8156 657.6546,-98.5647"/>
<polygon fill="#191970" stroke="#191970" points="418.4861,-190.0005 410.4896,-196.9507 421.075,-196.5042 418.4861,-190.0005"/>
</g>
<!-- Node18 -->
<g id="node18" class="node">
<title>Node18</title>
<g id="a_node18"><a xlink:href="backend_8hpp_ac3350bde3c8baf64753e515336fad3be.html#ac3350bde3c8baf64753e515336fad3be" target="_top" xlink:title="backend internal type erased function for selective release ">
<polygon fill="#ffffff" stroke="#000000" points="625,-.5 625,-30.5 766,-30.5 766,-.5 625,-.5"/>
<text text-anchor="start" x="633" y="-18.5" font-family="Helvetica,sans-Serif" font-size="10.00" fill="#000000">argo::backend::_selective</text>
<text text-anchor="middle" x="695.5" y="-7.5" font-family="Helvetica,sans-Serif" font-size="10.00" fill="#000000">_release</text>
</a>
</g>
</g>
<!-- Node15&#45;&gt;Node18 -->
<g id="edge27" class="edge">
<title>Node15&#45;&gt;Node18</title>
<path fill="none" stroke="#191970" d="M403.5177,-190.0799C422.4361,-172.3386 454.3743,-143.8783 485,-123.5 543.3042,-84.7044 617.3183,-49.6795 660.2538,-30.6114"/>
<polygon fill="#191970" stroke="#191970" points="401.0971,-187.5518 396.2488,-196.9722 405.9136,-192.6314 401.0971,-187.5518"/>
</g>
<!-- Node19 -->
<g id="node19" class="node">
<title>Node19</title>
<g id="a_node19"><a xlink:href="classwrite__buffer_aa6a1c2c3aa3a7cde744bbca3b14f599a.html#aa6a1c2c3aa3a7cde744bbca3b14f599a" target="_top" xlink:title="Flushes first _write_back_size elements of the ArgoDSM write buffer to memory. ">
<polygon fill="#ffffff" stroke="#000000" points="485,-226.5 485,-256.5 589,-256.5 589,-226.5 485,-226.5"/>
<text text-anchor="start" x="493" y="-244.5" font-family="Helvetica,sans-Serif" font-size="10.00" fill="#000000">write_buffer::flush</text>
<text text-anchor="middle" x="537" y="-233.5" font-family="Helvetica,sans-Serif" font-size="10.00" fill="#000000">_partial</text>
</a>
</g>
</g>
<!-- Node15&#45;&gt;Node19 -->
<g id="edge31" class="edge">
<title>Node15&#45;&gt;Node19</title>
<path fill="none" stroke="#191970" d="M437.4263,-218.3433C452.7174,-221.8994 469.5099,-225.8046 484.8771,-229.3784"/>
<polygon fill="#191970" stroke="#191970" points="438.1577,-214.9201 427.6248,-216.0639 436.572,-221.7381 438.1577,-214.9201"/>
</g>
<!-- Node21 -->
<g id="node21" class="node">
<title>Node21</title>
<g id="a_node21"><a xlink:href="classwrite__buffer_aca2e330e17a38c1cc8d8c60701ce9dd7.html#aca2e330e17a38c1cc8d8c60701ce9dd7" target="_top" xlink:title="Flushes the ArgoDSM write buffer to memory. ">
<polygon fill="#ffffff" stroke="#000000" points="485,-181 485,-200 589,-200 589,-181 485,-181"/>
<text text-anchor="middle" x="537" y="-188" font-family="Helvetica,sans-Serif" font-size="10.00" fill="#000000">write_buffer::flush</text>
</a>
</g>
</g>
<!-- Node15&#45;&gt;Node21 -->
<g id="edge34" class="edge">
<title>Node15&#45;&gt;Node21</title>
<path fill="none" stroke="#191970" d="M439.9848,-200.8139C454.5459,-199.2659 470.2967,-197.5914 484.7864,-196.0509"/>
<polygon fill="#191970" stroke="#191970" points="439.2012,-197.3774 429.6273,-201.915 439.9413,-204.3382 439.2012,-197.3774"/>
</g>
<!-- Node16&#45;&gt;Node16 -->
<g id="edge25" class="edge">
<title>Node16&#45;&gt;Node16</title>
<path fill="none" stroke="#191970" d="M667.4253,-108.9579C670.9098,-113.679 680.268,-117 695.5,-117 720.4961,-117 729.6743,-108.0566 723.0348,-98.659"/>
<polygon fill="#191970" stroke="#191970" points="670.9368,-108.8286 667.9652,-98.659 663.9464,-108.462 670.9368,-108.8286"/>
</g>
<!-- Node17 -->
<g id="node17" class="node">
<title>Node17</title>
<g id="a_node17"><a xlink:href="singlenode_8cpp_aab3cabb3e1c0b9696b339416b684f78c.html#aab3cabb3e1c0b9696b339416b684f78c" target="_top" xlink:title="argo::backend::init">
<polygon fill="#ffffff" stroke="#000000" points="1118,-62 1118,-81 1225,-81 1225,-62 1118,-62"/>
<text text-anchor="middle" x="1171.5" y="-69" font-family="Helvetica,sans-Serif" font-size="10.00" fill="#000000">argo::backend::init</text>
</a>
</g>
</g>
<!-- Node16&#45;&gt;Node17 -->
<g id="edge26" class="edge">
<title>Node16&#45;&gt;Node17</title>
<path fill="none" stroke="#191970" d="M776.5246,-78.7728C827.4532,-76.041 894.5419,-72.8793 954,-71.5 1009.8704,-70.2039 1073.8353,-70.4064 1117.862,-70.808"/>
<polygon fill="#191970" stroke="#191970" points="776.0324,-75.2942 766.2366,-79.3305 776.4114,-82.2839 776.0324,-75.2942"/>
</g>
<!-- Node18&#45;&gt;Node17 -->
<g id="edge29" class="edge">
<title>Node18&#45;&gt;Node17</title>
<path fill="none" stroke="#191970" d="M776.3377,-25.0103C873.6766,-36.4619 1034.4402,-55.3753 1117.7369,-65.1749"/>
<polygon fill="#191970" stroke="#191970" points="776.5885,-21.5158 766.248,-23.8233 775.7706,-28.4678 776.5885,-21.5158"/>
</g>
<!-- Node18&#45;&gt;Node18 -->
<g id="edge28" class="edge">
<title>Node18&#45;&gt;Node18</title>
<path fill="none" stroke="#191970" d="M667.4253,-40.9579C670.9098,-45.679 680.268,-49 695.5,-49 720.4961,-49 729.6743,-40.0566 723.0348,-30.659"/>
<polygon fill="#191970" stroke="#191970" points="670.9368,-40.8286 667.9652,-30.659 663.9464,-40.462 670.9368,-40.8286"/>
</g>
<!-- Node20 -->
<g id="node20" class="node">
<title>Node20</title>
<g id="a_node20"><a xlink:href="classwrite__buffer_a23b0dbc463111cacbbf83b267e76ac9f.html#a23b0dbc463111cacbbf83b267e76ac9f" target="_top" xlink:title="Adds a new element to the write buffer. ">
<polygon fill="#ffffff" stroke="#000000" points="646,-251 646,-270 745,-270 745,-251 646,-251"/>
<text text-anchor="middle" x="695.5" y="-258" font-family="Helvetica,sans-Serif" font-size="10.00" fill="#000000">write_buffer::add</text>
</a>
</g>
</g>
<!-- Node19&#45;&gt;Node20 -->
<g id="edge32" class="edge">
<title>Node19&#45;&gt;Node20</title>
<path fill="none" stroke="#191970" d="M599.339,-248.9728C614.7951,-250.8256 631.1512,-252.7863 645.9049,-254.5549"/>
<polygon fill="#191970" stroke="#191970" points="599.6836,-245.4892 589.3381,-247.774 598.8504,-252.4394 599.6836,-245.4892"/>
</g>
<!-- Node20&#45;&gt;Node11 -->
<g id="edge33" class="edge">
<title>Node20&#45;&gt;Node11</title>
<path fill="none" stroke="#191970" d="M733.4312,-273.3389C743.983,-276.9306 755.4434,-280.8502 766,-284.5 788.7216,-292.3557 814.4816,-301.4095 833.2818,-308.0443"/>
<polygon fill="#191970" stroke="#191970" points="734.2463,-269.9194 723.6519,-270.0153 731.9938,-276.5471 734.2463,-269.9194"/>
</g>
<!-- Node22 -->
<g id="node22" class="node">
<title>Node22</title>
<g id="a_node22"><a xlink:href="swdsm_8h_aa7c3a2de6bbafdaf68fe6ceb6110ab97.html#aa7c3a2de6bbafdaf68fe6ceb6110ab97" target="_top" xlink:title="Self&#45;Invalidates all memory that has potential writers. ">
<polygon fill="#ffffff" stroke="#000000" points="646.5,-175 646.5,-194 744.5,-194 744.5,-175 646.5,-175"/>
<text text-anchor="middle" x="695.5" y="-182" font-family="Helvetica,sans-Serif" font-size="10.00" fill="#000000">self_invalidation</text>
</a>
</g>
</g>
<!-- Node21&#45;&gt;Node22 -->
<g id="edge35" class="edge">
<title>Node21&#45;&gt;Node22</title>
<path fill="none" stroke="#191970" d="M599.4396,-188.1364C615.0526,-187.5453 631.578,-186.9198 646.4385,-186.3572"/>
<polygon fill="#191970" stroke="#191970" points="599.1985,-184.6429 589.3381,-188.5187 599.4634,-191.6379 599.1985,-184.6429"/>
</g>
<!-- Node23 -->
<g id="node23" class="node">
<title>Node23</title>
<g id="a_node23"><a xlink:href="swdsm_8h_ad3f5bdae81c60ac704dda7372792427d.html#ad3f5bdae81c60ac704dda7372792427d" target="_top" xlink:title="Global barrier for ArgoDSM &#45; needs to be called by every thread in the system that need coherent view...">
<polygon fill="#ffffff" stroke="#000000" points="802,-250 802,-269 918,-269 918,-250 802,-250"/>
<text text-anchor="middle" x="860" y="-257" font-family="Helvetica,sans-Serif" font-size="10.00" fill="#000000">swdsm_argo_barrier</text>
</a>
</g>
</g>
<!-- Node21&#45;&gt;Node23 -->
<g id="edge48" class="edge">
<title>Node21&#45;&gt;Node23</title>
<path fill="none" stroke="#191970" d="M591.7134,-202.188C654.7052,-215.6445 756.9751,-237.4916 815.3665,-249.9653"/>
<polygon fill="#191970" stroke="#191970" points="592.0832,-198.6881 581.5726,-200.0217 590.6208,-205.5336 592.0832,-198.6881"/>
</g>
<!-- Node32 -->
<g id="node32" class="node">
<title>Node32</title>
<g id="a_node32"><a xlink:href="swdsm_8h_ad390eb58e1be03ed6a0939fae7ebd20a.html#ad390eb58e1be03ed6a0939fae7ebd20a" target="_top" xlink:title="Release function for ArgoDSM (Release according to Release Consistency) ">
<polygon fill="#ffffff" stroke="#000000" points="820,-137 820,-156 900,-156 900,-137 820,-137"/>
<text text-anchor="middle" x="860" y="-144" font-family="Helvetica,sans-Serif" font-size="10.00" fill="#000000">argo_release</text>
</a>
</g>
</g>
<!-- Node21&#45;&gt;Node32 -->
<g id="edge49" class="edge">
<title>Node21&#45;&gt;Node32</title>
<path fill="none" stroke="#191970" d="M574.8908,-177.9752C590.2812,-173.3518 608.3328,-168.5112 625,-165.5 692.6698,-153.2744 772.7291,-148.9123 819.7736,-147.358"/>
<polygon fill="#191970" stroke="#191970" points="573.7285,-174.6709 565.2027,-180.9607 575.79,-181.3605 573.7285,-174.6709"/>
</g>
<!-- Node22&#45;&gt;Node23 -->
<g id="edge36" class="edge">
<title>Node22&#45;&gt;Node23</title>
<path fill="none" stroke="#191970" d="M736.6761,-197.2119C746.4125,-200.5749 756.6726,-204.417 766,-208.5 794.5742,-221.0081 826.1272,-239.0632 844.4434,-249.9981"/>
<polygon fill="#191970" stroke="#191970" points="737.7622,-193.8846 727.1682,-194.0174 735.5327,-200.5201 737.7622,-193.8846"/>
</g>
<!-- Node29 -->
<g id="node29" class="node">
<title>Node29</title>
<g id="a_node29"><a xlink:href="swdsm_8h_a44b8bb7a3c8b47b4f9552c8e10b25e4b.html#a44b8bb7a3c8b47b4f9552c8e10b25e4b" target="_top" xlink:title="acquire function for ArgoDSM (Acquire according to Release Consistency) ">
<polygon fill="#ffffff" stroke="#000000" points="820,-175 820,-194 900,-194 900,-175 820,-175"/>
<text text-anchor="middle" x="860" y="-182" font-family="Helvetica,sans-Serif" font-size="10.00" fill="#000000">argo_acquire</text>
</a>
</g>
</g>
<!-- Node22&#45;&gt;Node29 -->
<g id="edge43" class="edge">
<title>Node22&#45;&gt;Node29</title>
<path fill="none" stroke="#191970" d="M754.8994,-184.5C776.455,-184.5 800.2849,-184.5 819.7966,-184.5"/>
<polygon fill="#191970" stroke="#191970" points="754.8555,-181.0001 744.8554,-184.5 754.8554,-188.0001 754.8555,-181.0001"/>
</g>
<!-- Node24 -->
<g id="node24" class="node">
<title>Node24</title>
<g id="a_node24"><a xlink:href="backend_8hpp_af1a647431651556204709451bebb5a42.html#af1a647431651556204709451bebb5a42" target="_top" xlink:title="a simple collective barrier ">
<polygon fill="#ffffff" stroke="#000000" points="956,-231 956,-250 1080,-250 1080,-231 956,-231"/>
<text text-anchor="middle" x="1018" y="-238" font-family="Helvetica,sans-Serif" font-size="10.00" fill="#000000">argo::backend::barrier</text>
</a>
</g>
</g>
<!-- Node23&#45;&gt;Node24 -->
<g id="edge37" class="edge">
<title>Node23&#45;&gt;Node24</title>
<path fill="none" stroke="#191970" d="M928.5403,-251.2578C937.6296,-250.1648 946.9068,-249.0492 955.8793,-247.9702"/>
<polygon fill="#191970" stroke="#191970" points="927.895,-247.8101 918.3845,-252.4791 928.7308,-254.76 927.895,-247.8101"/>
</g>
<!-- Node25 -->
<g id="node25" class="node">
<title>Node25</title>
<g id="a_node25"><a xlink:href="swdsm_8h_acd175d6d8efa5cce6963bae64891a490.html#acd175d6d8efa5cce6963bae64891a490" target="_top" xlink:title="Allocates memory in global address space. ">
<polygon fill="#ffffff" stroke="#000000" points="976.5,-269 976.5,-288 1059.5,-288 1059.5,-269 976.5,-269"/>
<text text-anchor="middle" x="1018" y="-276" font-family="Helvetica,sans-Serif" font-size="10.00" fill="#000000">argo_gmalloc</text>
</a>
</g>
</g>
<!-- Node23&#45;&gt;Node25 -->
<g id="edge38" class="edge">
<title>Node23&#45;&gt;Node25</title>
<path fill="none" stroke="#191970" d="M928.3948,-267.7247C944.6389,-269.6781 961.4922,-271.7048 976.14,-273.4662"/>
<polygon fill="#191970" stroke="#191970" points="928.7308,-264.24 918.3845,-266.5209 927.895,-271.1899 928.7308,-264.24"/>
</g>
<!-- Node26 -->
<g id="node26" class="node">
<title>Node26</title>
<g id="a_node26"><a xlink:href="swdsm_8cpp_aa954d5e0bcaee69ff6e03e697bcaf68b.html#aa954d5e0bcaee69ff6e03e697bcaf68b" target="_top" xlink:title="shut down ArgoDSM system ">
<polygon fill="#ffffff" stroke="#000000" points="978.5,-307 978.5,-326 1057.5,-326 1057.5,-307 978.5,-307"/>
<text text-anchor="middle" x="1018" y="-314" font-family="Helvetica,sans-Serif" font-size="10.00" fill="#000000">argo_finalize</text>
</a>
</g>
</g>
<!-- Node23&#45;&gt;Node26 -->
<g id="edge39" class="edge">
<title>Node23&#45;&gt;Node26</title>
<path fill="none" stroke="#191970" d="M891.0503,-272.923C909.233,-280.5637 932.7322,-290.0633 954,-297.5 963.5185,-300.8283 973.959,-304.0888 983.5955,-306.9432"/>
<polygon fill="#191970" stroke="#191970" points="892.3789,-269.6848 881.8058,-269.0063 889.6481,-276.1302 892.3789,-269.6848"/>
</g>
<!-- Node28 -->
<g id="node28" class="node">
<title>Node28</title>
<g id="a_node28"><a xlink:href="swdsm_8h_a0c6b51af2b87ddf7eb04aa7d4e0e836e.html#a0c6b51af2b87ddf7eb04aa7d4e0e836e" target="_top" xlink:title="Resets current coherence. Collective function called by all threads on all nodes. ...">
<polygon fill="#ffffff" stroke="#000000" points="956,-345 956,-364 1080,-364 1080,-345 956,-345"/>
<text text-anchor="middle" x="1018" y="-352" font-family="Helvetica,sans-Serif" font-size="10.00" fill="#000000">argo_reset_coherence</text>
</a>
</g>
</g>
<!-- Node23&#45;&gt;Node28 -->
<g id="edge41" class="edge">
<title>Node23&#45;&gt;Node28</title>
<path fill="none" stroke="#191970" d="M884.9055,-274.6289C895.4703,-281.4516 907.6969,-289.9002 918,-298.5 935.6143,-313.2023 934.3663,-323.6282 954,-335.5 960.3477,-339.3382 967.5215,-342.4448 974.7117,-344.9457"/>
<polygon fill="#191970" stroke="#191970" points="886.4624,-271.4724 876.1392,-269.0887 882.7227,-277.3898 886.4624,-271.4724"/>
</g>
<!-- Node27 -->
<g id="node27" class="node">
<title>Node27</title>
<g id="a_node27"><a xlink:href="swdsm_8h_a18cc89a7368e30281ea4b1d214a1b1ff.html#a18cc89a7368e30281ea4b1d214a1b1ff" target="_top" xlink:title="Pins and registers the local thread. ">
<polygon fill="#ffffff" stroke="#000000" points="1121,-307 1121,-326 1222,-326 1222,-307 1121,-307"/>
<text text-anchor="middle" x="1171.5" y="-314" font-family="Helvetica,sans-Serif" font-size="10.00" fill="#000000">argo_pin_threads</text>
</a>
</g>
</g>
<!-- Node26&#45;&gt;Node27 -->
<g id="edge40" class="edge">
<title>Node26&#45;&gt;Node27</title>
<path fill="none" stroke="#191970" d="M1067.8002,-316.5C1084.7693,-316.5 1103.7517,-316.5 1120.7913,-316.5"/>
<polygon fill="#191970" stroke="#191970" points="1067.5301,-313.0001 1057.5301,-316.5 1067.53,-320.0001 1067.5301,-313.0001"/>
</g>
<!-- Node28&#45;&gt;Node12 -->
<g id="edge42" class="edge">
<title>Node28&#45;&gt;Node12</title>
<path fill="none" stroke="#191970" d="M1090.7126,-363.5003C1103.6043,-365.096 1116.6483,-366.7105 1128.3843,-368.1632"/>
<polygon fill="#191970" stroke="#191970" points="1090.7886,-359.983 1080.4343,-362.228 1089.9286,-366.93 1090.7886,-359.983"/>
</g>
<!-- Node30 -->
<g id="node30" class="node">
<title>Node30</title>
<g id="a_node30"><a xlink:href="backend_8hpp_a1032f833666c3f810ac1c6210197d426.html#a1032f833666c3f810ac1c6210197d426" target="_top" xlink:title="causes a node to self&#45;invalidate its cache, and thus getting any updated values on subsequent accesse...">
<polygon fill="#ffffff" stroke="#000000" points="954,-175 954,-194 1082,-194 1082,-175 954,-175"/>
<text text-anchor="middle" x="1018" y="-182" font-family="Helvetica,sans-Serif" font-size="10.00" fill="#000000">argo::backend::acquire</text>
</a>
</g>
</g>
<!-- Node29&#45;&gt;Node30 -->
<g id="edge44" class="edge">
<title>Node29&#45;&gt;Node30</title>
<path fill="none" stroke="#191970" d="M910.5231,-184.5C924.3033,-184.5 939.4182,-184.5 953.8475,-184.5"/>
<polygon fill="#191970" stroke="#191970" points="910.2789,-181.0001 900.2789,-184.5 910.2789,-188.0001 910.2789,-181.0001"/>
</g>
<!-- Node31 -->
<g id="node31" class="node">
<title>Node31</title>
<g id="a_node31"><a xlink:href="swdsm_8h_ac0b665f72bc2a28dc663ed204c526e1b.html#ac0b665f72bc2a28dc663ed204c526e1b" target="_top" xlink:title="acquire&#45;release function for ArgoDSM (Both acquire and release according to Release Consistency) ...">
<polygon fill="#ffffff" stroke="#000000" points="978.5,-137 978.5,-156 1057.5,-156 1057.5,-137 978.5,-137"/>
<text text-anchor="middle" x="1018" y="-144" font-family="Helvetica,sans-Serif" font-size="10.00" fill="#000000">argo_acq_rel</text>
</a>
</g>
</g>
<!-- Node29&#45;&gt;Node31 -->
<g id="edge47" class="edge">
<title>Node29&#45;&gt;Node31</title>
<path fill="none" stroke="#191970" d="M909.7616,-172.532C931.9029,-167.2069 957.6116,-161.0238 978.4166,-156.0201"/>
<polygon fill="#191970" stroke="#191970" points="908.7744,-169.1696 899.8701,-174.911 910.4113,-175.9755 908.7744,-169.1696"/>
</g>
<!-- Node30&#45;&gt;Node17 -->
<g id="edge46" class="edge">
<title>Node30&#45;&gt;Node17</title>
<path fill="none" stroke="#191970" d="M1071.1819,-171.1237C1074.9457,-169.4524 1078.5941,-167.5847 1082,-165.5 1119.4774,-142.561 1151.7896,-100.0279 1165.0605,-81.0606"/>
<polygon fill="#191970" stroke="#191970" points="1069.6747,-167.9559 1061.6603,-174.8856 1072.2469,-174.4662 1069.6747,-167.9559"/>
</g>
<!-- Node30&#45;&gt;Node30 -->
<g id="edge45" class="edge">
<title>Node30&#45;&gt;Node30</title>
<path fill="none" stroke="#191970" d="M989.6275,-203.1539C990.8135,-208.4368 1000.271,-212.5 1018,-212.5 1045.0156,-212.5 1052.8248,-203.0653 1041.4276,-194.2571"/>
<polygon fill="#191970" stroke="#191970" points="992.7735,-204.6981 994.5724,-194.2571 986.6551,-201.2974 992.7735,-204.6981"/>
</g>
<!-- Node32&#45;&gt;Node31 -->
<g id="edge53" class="edge">
<title>Node32&#45;&gt;Node31</title>
<path fill="none" stroke="#191970" d="M910.4252,-146.5C932.3886,-146.5 957.7577,-146.5 978.3418,-146.5"/>
<polygon fill="#191970" stroke="#191970" points="910.2789,-143.0001 900.2789,-146.5 910.2788,-150.0001 910.2789,-143.0001"/>
</g>
<!-- Node33 -->
<g id="node33" class="node">
<title>Node33</title>
<g id="a_node33"><a xlink:href="backend_8hpp_a8953c9cd9d3c56306740b6c9b97513a2.html#a8953c9cd9d3c56306740b6c9b97513a2" target="_top" xlink:title="causes a node to self&#45;downgrade its cache, making all previous writes to be propagated to the homenod...">
<polygon fill="#ffffff" stroke="#000000" points="954,-81 954,-100 1082,-100 1082,-81 954,-81"/>
<text text-anchor="middle" x="1018" y="-88" font-family="Helvetica,sans-Serif" font-size="10.00" fill="#000000">argo::backend::release</text>
</a>
</g>
</g>
<!-- Node32&#45;&gt;Node33 -->
<g id="edge50" class="edge">
<title>Node32&#45;&gt;Node33</title>
<path fill="none" stroke="#191970" d="M896.8955,-133.4231C925.7787,-123.186 965.2706,-109.1889 991.1933,-100.0011"/>
<polygon fill="#191970" stroke="#191970" points="895.4174,-130.2336 887.1612,-136.8733 897.7559,-136.8314 895.4174,-130.2336"/>
</g>
<!-- Node33&#45;&gt;Node17 -->
<g id="edge52" class="edge">
<title>Node33&#45;&gt;Node17</title>
<path fill="none" stroke="#191970" d="M1092.2612,-81.3081C1100.8631,-80.2433 1109.5067,-79.1734 1117.7592,-78.1519"/>
<polygon fill="#191970" stroke="#191970" points="1091.7027,-77.8504 1082.2084,-82.5524 1092.5627,-84.7974 1091.7027,-77.8504"/>
</g>
<!-- Node33&#45;&gt;Node33 -->
<g id="edge51" class="edge">
<title>Node33&#45;&gt;Node33</title>
<path fill="none" stroke="#191970" d="M989.6275,-109.1539C990.8135,-114.4368 1000.271,-118.5 1018,-118.5 1045.0156,-118.5 1052.8248,-109.0653 1041.4276,-100.2571"/>
<polygon fill="#191970" stroke="#191970" points="992.7735,-110.6981 994.5724,-100.2571 986.6551,-107.2974 992.7735,-110.6981"/>
</g>
</g>
</svg>
        <g id="navigator" transform="translate(0 0)" fill="#404254">
                <rect fill="#f2f5e9" fill-opacity="0.5" stroke="#606060" stroke-width=".5" x="0" y="0" width="60" height="60"/>
                <use id="zoomplus" xlink:href="#zoomPlus" x="17" y="9" onmousedown="handleZoom(evt,'in')"/>
                <use id="zoomminus" xlink:href="#zoomMin" x="42" y="9" onmousedown="handleZoom(evt,'out')"/>
                <use id="reset" xlink:href="#resetDef" x="30" y="36" onmousedown="handleReset()"/>
                <g id="arrowUp" xlink:href="#dirArrow" transform="translate(30 24)" onmousedown="handlePan(0,-1)">
                  <use xlink:href="#rim" fill="#404040">
                        <set attributeName="fill" to="#808080" begin="arrowUp.mouseover" end="arrowUp.mouseout"/>
                  </use>
                  <path fill="none" stroke="white" stroke-width="1.5" d="M0,-3.0v7 M-2.5,-0.5L0,-3.0L2.5,-0.5"/>
                </g>
                <g id="arrowRight" xlink:href="#dirArrow" transform="rotate(90) translate(36 -43)" onmousedown="handlePan(1,0)">
                  <use xlink:href="#rim" fill="#404040">
                        <set attributeName="fill" to="#808080" begin="arrowRight.mouseover" end="arrowRight.mouseout"/>
                  </use>
                  <path fill="none" stroke="white" stroke-width="1.5" d="M0,-3.0v7 M-2.5,-0.5L0,-3.0L2.5,-0.5"/>
                </g>
                <g id="arrowDown" xlink:href="#dirArrow" transform="rotate(180) translate(-30 -48)" onmousedown="handlePan(0,1)">
                  <use xlink:href="#rim" fill="#404040">
                        <set attributeName="fill" to="#808080" begin="arrowDown.mouseover" end="arrowDown.mouseout"/>
                  </use>
                  <path fill="none" stroke="white" stroke-width="1.5" d="M0,-3.0v7 M-2.5,-0.5L0,-3.0L2.5,-0.5"/>
                </g>
                <g id="arrowLeft" xlink:href="#dirArrow" transform="rotate(270) translate(-36 17)" onmousedown="handlePan(-1,0)">
                  <use xlink:href="#rim" fill="#404040">
                        <set attributeName="fill" to="#808080" begin="arrowLeft.mouseover" end="arrowLeft.mouseout"/>
                  </use>
                  <path fill="none" stroke="white" stroke-width="1.5" d="M0,-3.0v7 M-2.5,-0.5L0,-3.0L2.5,-0.5"/>
                </g>
        </g>
        <svg viewBox="0 0 15 15" width="100%" height="30px" preserveAspectRatio="xMaxYMin meet">
         <g id="arrow_out" transform="scale(0.3 0.3)">
          <a xlink:href="classargo_1_1data__distribution_1_1global__ptr_ac7d651586337d08cda18ef26ffcd34a0_ac7d651586337d08cda18ef26ffcd34a0_icgraph_org.svg" target="_base">
           <rect id="button" ry="5" rx="5" y="6" x="6" height="38" width="38"
                fill="#f2f5e9" fill-opacity="0.5" stroke="#606060" stroke-width="1.0"/>
           <path id="arrow"
             d="M 11.500037,31.436501 C 11.940474,20.09759 22.043105,11.32322 32.158766,21.979434 L 37.068811,17.246167 C 37.068811,17.246167 37.088388,32 37.088388,32 L 22.160133,31.978069 C 22.160133,31.978069 26.997745,27.140456 26.997745,27.140456 C 18.528582,18.264221 13.291696,25.230495 11.500037,31.436501 z"
             style="fill:#404040;"/>
          </a>
         </g>
        </svg>
</svg>
