<?xml version="1.0" encoding="UTF-8" standalone="no"?>
<!DOCTYPE svg PUBLIC "-//W3C//DTD SVG 1.1//EN"
 "http://www.w3.org/Graphics/SVG/1.1/DTD/svg11.dtd">
<!-- Generated by graphviz version 2.40.1 (20161225.0304)
 -->
<!-- Title: argo_cohortlock_unlock Pages: 1 -->
<!--zoomable 186 -->
<svg id="main" version="1.1" xmlns="http://www.w3.org/2000/svg" xmlns:xlink="http://www.w3.org/1999/xlink" xml:space="preserve" onload="init(evt)">
<style type="text/css"><![CDATA[
.edge:hover path { stroke: red; }
.edge:hover polygon { stroke: red; fill: red; }
]]></style>
<script type="text/javascript"><![CDATA[
var edges = document.getElementsByTagName('g');
if (edges && edges.length) {
  for (var i=0;i<edges.length;i++) {
    if (edges[i].id.substr(0,4)=='edge') {
      edges[i].setAttribute('class','edge');
    }
  }
}
]]></script>
        <defs>
                <circle id="rim" cx="0" cy="0" r="7"/>
                <circle id="rim2" cx="0" cy="0" r="3.5"/>
                <g id="zoomPlus">
                        <use xlink:href="#rim" fill="#404040">
                                <set attributeName="fill" to="#808080" begin="zoomplus.mouseover" end="zoomplus.mouseout"/>
                        </use>
                        <path d="M-4,0h8M0,-4v8" fill="none" stroke="white" stroke-width="1.5" pointer-events="none"/>
                </g>
                <g id="zoomMin">
                        <use xlink:href="#rim" fill="#404040">
                                <set attributeName="fill" to="#808080" begin="zoomminus.mouseover" end="zoomminus.mouseout"/>
                        </use>
                        <path d="M-4,0h8" fill="none" stroke="white" stroke-width="1.5" pointer-events="none"/>
                </g>
                <g id="dirArrow">
                        <path fill="none" stroke="white" stroke-width="1.5" d="M0,-3.0v7 M-2.5,-0.5L0,-3.0L2.5,-0.5"/>
                </g>
               <g id="resetDef">
                       <use xlink:href="#rim2" fill="#404040">
                               <set attributeName="fill" to="#808080" begin="reset.mouseover" end="reset.mouseout"/>
                       </use>
               </g>
        </defs>

<script type="text/javascript">
var viewWidth = 593;
var viewHeight = 186;
var sectionId = 'dynsection-0';
</script>
<script xlink:href="svgpan.js"/>
<svg id="graph" class="graph">
<g id="viewport">
<title>argo_cohortlock_unlock</title>
<polygon fill="#ffffff" stroke="transparent" points="-4,4 -4,-182 589,-182 589,4 -4,4"/>
<!-- Node0 -->
<g id="node1" class="node">
<title>Node0</title>
<polygon fill="#bfbfbf" stroke="#000000" points="0,-79 0,-98 132,-98 132,-79 0,-79"/>
<text text-anchor="middle" x="66" y="-86" font-family="Helvetica,sans-Serif" font-size="10.00" fill="#000000">argo_cohortlock_unlock</text>
</g>
<!-- Node1 -->
<g id="node2" class="node">
<title>Node1</title>
<g id="a_node2"><a xlink:href="classargo_1_1globallock_1_1cohort__lock_ac937f13d00780ca9ff8f4dd826c6c12b.html#ac937f13d00780ca9ff8f4dd826c6c12b" target="_top" xlink:title="Release the lock. ">
<polygon fill="#ffffff" stroke="#000000" points="168,-73.5 168,-103.5 299,-103.5 299,-73.5 168,-73.5"/>
<text text-anchor="start" x="176" y="-91.5" font-family="Helvetica,sans-Serif" font-size="10.00" fill="#000000">argo::globallock::cohort</text>
<text text-anchor="middle" x="233.5" y="-80.5" font-family="Helvetica,sans-Serif" font-size="10.00" fill="#000000">_lock::unlock</text>
</a>
</g>
</g>
<!-- Node0&#45;&gt;Node1 -->
<g id="edge1" class="edge">
<title>Node0&#45;&gt;Node1</title>
<path fill="none" stroke="#191970" d="M132.2004,-88.5C140.5218,-88.5 149.0852,-88.5 157.5417,-88.5"/>
<polygon fill="#191970" stroke="#191970" points="157.7803,-92.0001 167.7803,-88.5 157.7803,-85.0001 157.7803,-92.0001"/>
</g>
<!-- Node2 -->
<g id="node3" class="node">
<title>Node2</title>
<g id="a_node3"><a xlink:href="classargo_1_1locallock_1_1ticket__lock_a3ba3f8383bdfe989c4f2e4f00636b431.html#a3ba3f8383bdfe989c4f2e4f00636b431" target="_top" xlink:title="Checks if the lock is contended by comparing in vs out counters. ">
<polygon fill="#ffffff" stroke="#000000" points="339.5,-147.5 339.5,-177.5 461.5,-177.5 461.5,-147.5 339.5,-147.5"/>
<text text-anchor="start" x="347.5" y="-165.5" font-family="Helvetica,sans-Serif" font-size="10.00" fill="#000000">argo::locallock::ticket</text>
<text text-anchor="middle" x="400.5" y="-154.5" font-family="Helvetica,sans-Serif" font-size="10.00" fill="#000000">_lock::is_contended</text>
</a>
</g>
</g>
<!-- Node1&#45;&gt;Node2 -->
<g id="edge2" class="edge">
<title>Node1&#45;&gt;Node2</title>
<path fill="none" stroke="#191970" d="M261.9948,-103.552C282.132,-113.9375 309.8986,-127.7548 335,-138.5 339.1194,-140.2634 343.4164,-142.0184 347.7534,-143.7307"/>
<polygon fill="#191970" stroke="#191970" points="346.6691,-147.0637 357.2587,-147.3973 349.1884,-140.5328 346.6691,-147.0637"/>
</g>
<!-- Node3 -->
<g id="node4" class="node">
<title>Node3</title>
<g id="a_node4"><a xlink:href="classargo_1_1globallock_1_1global__tas__lock_a55bd610c8555b8d986541c3f669789a2.html#a55bd610c8555b8d986541c3f669789a2" target="_top" xlink:title="release the lock ">
<polygon fill="#ffffff" stroke="#000000" points="335,-98.5 335,-128.5 466,-128.5 466,-98.5 335,-98.5"/>
<text text-anchor="start" x="343" y="-116.5" font-family="Helvetica,sans-Serif" font-size="10.00" fill="#000000">argo::globallock::global</text>
<text text-anchor="middle" x="400.5" y="-105.5" font-family="Helvetica,sans-Serif" font-size="10.00" fill="#000000">_tas_lock::unlock</text>
</a>
</g>
</g>
<!-- Node1&#45;&gt;Node3 -->
<g id="edge3" class="edge">
<title>Node1&#45;&gt;Node3</title>
<path fill="none" stroke="#191970" d="M299.0235,-98.3089C307.496,-99.5773 316.2278,-100.8844 324.8471,-102.1747"/>
<polygon fill="#191970" stroke="#191970" points="324.4833,-105.6592 334.8913,-103.6783 325.5197,-98.7363 324.4833,-105.6592"/>
</g>
<!-- Node5 -->
<g id="node6" class="node">
<title>Node5</title>
<g id="a_node6"><a xlink:href="classargo_1_1locallock_1_1ticket__lock_acd35e341f8d1c0919ff9782d685ecd4a.html#acd35e341f8d1c0919ff9782d685ecd4a" target="_top" xlink:title="release the lock ">
<polygon fill="#ffffff" stroke="#000000" points="339.5,-49.5 339.5,-79.5 461.5,-79.5 461.5,-49.5 339.5,-49.5"/>
<text text-anchor="start" x="347.5" y="-67.5" font-family="Helvetica,sans-Serif" font-size="10.00" fill="#000000">argo::locallock::ticket</text>
<text text-anchor="middle" x="400.5" y="-56.5" font-family="Helvetica,sans-Serif" font-size="10.00" fill="#000000">_lock::unlock</text>
</a>
</g>
</g>
<!-- Node1&#45;&gt;Node5 -->
<g id="edge5" class="edge">
<title>Node1&#45;&gt;Node5</title>
<path fill="none" stroke="#191970" d="M299.0235,-79.0834C308.961,-77.6553 319.255,-76.1759 329.3059,-74.7315"/>
<polygon fill="#191970" stroke="#191970" points="329.8531,-78.1889 339.2535,-73.3019 328.8573,-71.2601 329.8531,-78.1889"/>
</g>
<!-- Node6 -->
<g id="node7" class="node">
<title>Node6</title>
<g id="a_node7"><a xlink:href="classargo_1_1locallock_1_1mcs__lock_adf8ad5e4d2ebfbc0bf88b6dd31afe40d.html#adf8ad5e4d2ebfbc0bf88b6dd31afe40d" target="_top" xlink:title="Release the MCS lock. ">
<polygon fill="#ffffff" stroke="#000000" points="343.5,-.5 343.5,-30.5 457.5,-30.5 457.5,-.5 343.5,-.5"/>
<text text-anchor="start" x="351.5" y="-18.5" font-family="Helvetica,sans-Serif" font-size="10.00" fill="#000000">argo::locallock::mcs</text>
<text text-anchor="middle" x="400.5" y="-7.5" font-family="Helvetica,sans-Serif" font-size="10.00" fill="#000000">_lock::unlock</text>
</a>
</g>
</g>
<!-- Node1&#45;&gt;Node6 -->
<g id="edge6" class="edge">
<title>Node1&#45;&gt;Node6</title>
<path fill="none" stroke="#191970" d="M263.8685,-73.3864C283.8923,-63.6083 310.7949,-50.8245 335,-40.5 339.7757,-38.463 344.7784,-36.4107 349.7999,-34.4048"/>
<polygon fill="#191970" stroke="#191970" points="351.3991,-37.5369 359.425,-30.6207 348.8378,-31.0223 351.3991,-37.5369"/>
</g>
<!-- Node4 -->
<g id="node5" class="node">
<title>Node4</title>
<g id="a_node5"><a xlink:href="namespaceargo_a2deaaacde085d381cbb01f24318965b4.html#a2deaaacde085d381cbb01f24318965b4" target="_top" xlink:title="A unique ArgoDSM node identifier. Counting starts from 0. ">
<polygon fill="#ffffff" stroke="#000000" points="502,-104 502,-123 585,-123 585,-104 502,-104"/>
<text text-anchor="middle" x="543.5" y="-111" font-family="Helvetica,sans-Serif" font-size="10.00" fill="#000000">argo::node_id</text>
</a>
</g>
</g>
<!-- Node3&#45;&gt;Node4 -->
<g id="edge4" class="edge">
<title>Node3&#45;&gt;Node4</title>
<path fill="none" stroke="#191970" d="M466.1406,-113.5C474.7104,-113.5 483.3932,-113.5 491.6921,-113.5"/>
<polygon fill="#191970" stroke="#191970" points="491.9614,-117.0001 501.9614,-113.5 491.9614,-110.0001 491.9614,-117.0001"/>
</g>
</g>
</svg>
        <g id="navigator" transform="translate(0 0)" fill="#404254">
                <rect fill="#f2f5e9" fill-opacity="0.5" stroke="#606060" stroke-width=".5" x="0" y="0" width="60" height="60"/>
                <use id="zoomplus" xlink:href="#zoomPlus" x="17" y="9" onmousedown="handleZoom(evt,'in')"/>
                <use id="zoomminus" xlink:href="#zoomMin" x="42" y="9" onmousedown="handleZoom(evt,'out')"/>
                <use id="reset" xlink:href="#resetDef" x="30" y="36" onmousedown="handleReset()"/>
                <g id="arrowUp" xlink:href="#dirArrow" transform="translate(30 24)" onmousedown="handlePan(0,-1)">
                  <use xlink:href="#rim" fill="#404040">
                        <set attributeName="fill" to="#808080" begin="arrowUp.mouseover" end="arrowUp.mouseout"/>
                  </use>
                  <path fill="none" stroke="white" stroke-width="1.5" d="M0,-3.0v7 M-2.5,-0.5L0,-3.0L2.5,-0.5"/>
                </g>
                <g id="arrowRight" xlink:href="#dirArrow" transform="rotate(90) translate(36 -43)" onmousedown="handlePan(1,0)">
                  <use xlink:href="#rim" fill="#404040">
                        <set attributeName="fill" to="#808080" begin="arrowRight.mouseover" end="arrowRight.mouseout"/>
                  </use>
                  <path fill="none" stroke="white" stroke-width="1.5" d="M0,-3.0v7 M-2.5,-0.5L0,-3.0L2.5,-0.5"/>
                </g>
                <g id="arrowDown" xlink:href="#dirArrow" transform="rotate(180) translate(-30 -48)" onmousedown="handlePan(0,1)">
                  <use xlink:href="#rim" fill="#404040">
                        <set attributeName="fill" to="#808080" begin="arrowDown.mouseover" end="arrowDown.mouseout"/>
                  </use>
                  <path fill="none" stroke="white" stroke-width="1.5" d="M0,-3.0v7 M-2.5,-0.5L0,-3.0L2.5,-0.5"/>
                </g>
                <g id="arrowLeft" xlink:href="#dirArrow" transform="rotate(270) translate(-36 17)" onmousedown="handlePan(-1,0)">
                  <use xlink:href="#rim" fill="#404040">
                        <set attributeName="fill" to="#808080" begin="arrowLeft.mouseover" end="arrowLeft.mouseout"/>
                  </use>
                  <path fill="none" stroke="white" stroke-width="1.5" d="M0,-3.0v7 M-2.5,-0.5L0,-3.0L2.5,-0.5"/>
                </g>
        </g>
        <svg viewBox="0 0 15 15" width="100%" height="30px" preserveAspectRatio="xMaxYMin meet">
         <g id="arrow_out" transform="scale(0.3 0.3)">
          <a xlink:href="cohort__lock_8h_aecc3694b56dfe7472a345995d7559e89_aecc3694b56dfe7472a345995d7559e89_cgraph_org.svg" target="_base">
           <rect id="button" ry="5" rx="5" y="6" x="6" height="38" width="38"
                fill="#f2f5e9" fill-opacity="0.5" stroke="#606060" stroke-width="1.0"/>
           <path id="arrow"
             d="M 11.500037,31.436501 C 11.940474,20.09759 22.043105,11.32322 32.158766,21.979434 L 37.068811,17.246167 C 37.068811,17.246167 37.088388,32 37.088388,32 L 22.160133,31.978069 C 22.160133,31.978069 26.997745,27.140456 26.997745,27.140456 C 18.528582,18.264221 13.291696,25.230495 11.500037,31.436501 z"
             style="fill:#404040;"/>
          </a>
         </g>
        </svg>
</svg>
