<?xml version="1.0" encoding="UTF-8" standalone="no"?>
<!DOCTYPE svg PUBLIC "-//W3C//DTD SVG 1.1//EN"
 "http://www.w3.org/Graphics/SVG/1.1/DTD/svg11.dtd">
<!-- Generated by graphviz version 2.40.1 (20161225.0304)
 -->
<!-- Title: argo_cohortlock_lock Pages: 1 -->
<svg width="748pt" height="186pt"
 viewBox="0.00 0.00 748.00 186.00" xmlns="http://www.w3.org/2000/svg" xmlns:xlink="http://www.w3.org/1999/xlink">
<g id="graph0" class="graph" transform="scale(1 1) rotate(0) translate(4 182)">
<title>argo_cohortlock_lock</title>
<polygon fill="#ffffff" stroke="transparent" points="-4,4 -4,-182 744,-182 744,4 -4,4"/>
<!-- Node0 -->
<g id="node1" class="node">
<title>Node0</title>
<polygon fill="#bfbfbf" stroke="#000000" points="0,-79 0,-98 120,-98 120,-79 0,-79"/>
<text text-anchor="middle" x="60" y="-86" font-family="Helvetica,sans-Serif" font-size="10.00" fill="#000000">argo_cohortlock_lock</text>
</g>
<!-- Node1 -->
<g id="node2" class="node">
<title>Node1</title>
<g id="a_node2"><a xlink:href="classargo_1_1globallock_1_1cohort__lock_ae6e70438d85a8ae5698d198ce11d9a89.html#ae6e70438d85a8ae5698d198ce11d9a89" target="_top" xlink:title="Acquire the lock. ">
<polygon fill="#ffffff" stroke="#000000" points="156,-73.5 156,-103.5 287,-103.5 287,-73.5 156,-73.5"/>
<text text-anchor="start" x="164" y="-91.5" font-family="Helvetica,sans-Serif" font-size="10.00" fill="#000000">argo::globallock::cohort</text>
<text text-anchor="middle" x="221.5" y="-80.5" font-family="Helvetica,sans-Serif" font-size="10.00" fill="#000000">_lock::lock</text>
</a>
</g>
</g>
<!-- Node0&#45;&gt;Node1 -->
<g id="edge1" class="edge">
<title>Node0&#45;&gt;Node1</title>
<path fill="none" stroke="#191970" d="M120.1366,-88.5C128.5162,-88.5 137.2132,-88.5 145.8326,-88.5"/>
<polygon fill="#191970" stroke="#191970" points="145.8918,-92.0001 155.8918,-88.5 145.8918,-85.0001 145.8918,-92.0001"/>
</g>
<!-- Node2 -->
<g id="node3" class="node">
<title>Node2</title>
<g id="a_node3"><a xlink:href="classargo_1_1globallock_1_1cohort__lock_a72d2407df0f6b78fceaf17b1a3f6bfce.html#a72d2407df0f6b78fceaf17b1a3f6bfce" target="_top" xlink:title="Return the NUMA node in which the calling thread is being run. ">
<polygon fill="#ffffff" stroke="#000000" points="323,-147.5 323,-177.5 454,-177.5 454,-147.5 323,-147.5"/>
<text text-anchor="start" x="331" y="-165.5" font-family="Helvetica,sans-Serif" font-size="10.00" fill="#000000">argo::globallock::cohort</text>
<text text-anchor="middle" x="388.5" y="-154.5" font-family="Helvetica,sans-Serif" font-size="10.00" fill="#000000">_lock::numa_node</text>
</a>
</g>
</g>
<!-- Node1&#45;&gt;Node2 -->
<g id="edge2" class="edge">
<title>Node1&#45;&gt;Node2</title>
<path fill="none" stroke="#191970" d="M249.9948,-103.552C270.132,-113.9375 297.8986,-127.7548 323,-138.5 327.1194,-140.2634 331.4164,-142.0184 335.7534,-143.7307"/>
<polygon fill="#191970" stroke="#191970" points="334.6691,-147.0637 345.2587,-147.3973 337.1884,-140.5328 334.6691,-147.0637"/>
</g>
<!-- Node3 -->
<g id="node4" class="node">
<title>Node3</title>
<g id="a_node4"><a xlink:href="classargo_1_1locallock_1_1mcs__lock_ab9dea14c529f5aa40bd13f4a250f82b8.html#ab9dea14c529f5aa40bd13f4a250f82b8" target="_top" xlink:title="Acquire the MCS lock. ">
<polygon fill="#ffffff" stroke="#000000" points="331.5,-98.5 331.5,-128.5 445.5,-128.5 445.5,-98.5 331.5,-98.5"/>
<text text-anchor="start" x="339.5" y="-116.5" font-family="Helvetica,sans-Serif" font-size="10.00" fill="#000000">argo::locallock::mcs</text>
<text text-anchor="middle" x="388.5" y="-105.5" font-family="Helvetica,sans-Serif" font-size="10.00" fill="#000000">_lock::lock</text>
</a>
</g>
</g>
<!-- Node1&#45;&gt;Node3 -->
<g id="edge3" class="edge">
<title>Node1&#45;&gt;Node3</title>
<path fill="none" stroke="#191970" d="M287.0235,-98.3089C298.2174,-99.9846 309.8638,-101.7281 321.1054,-103.411"/>
<polygon fill="#191970" stroke="#191970" points="320.8829,-106.9166 331.2909,-104.9358 321.9193,-99.9937 320.8829,-106.9166"/>
</g>
<!-- Node4 -->
<g id="node5" class="node">
<title>Node4</title>
<g id="a_node5"><a xlink:href="classargo_1_1locallock_1_1ticket__lock_a7baa6d6cc449a11a569233d2de7a33bd.html#a7baa6d6cc449a11a569233d2de7a33bd" target="_top" xlink:title="take the lock by fetching your ticket and wait untill out_counter matches your ticket ...">
<polygon fill="#ffffff" stroke="#000000" points="327.5,-49.5 327.5,-79.5 449.5,-79.5 449.5,-49.5 327.5,-49.5"/>
<text text-anchor="start" x="335.5" y="-67.5" font-family="Helvetica,sans-Serif" font-size="10.00" fill="#000000">argo::locallock::ticket</text>
<text text-anchor="middle" x="388.5" y="-56.5" font-family="Helvetica,sans-Serif" font-size="10.00" fill="#000000">_lock::lock</text>
</a>
</g>
</g>
<!-- Node1&#45;&gt;Node4 -->
<g id="edge4" class="edge">
<title>Node1&#45;&gt;Node4</title>
<path fill="none" stroke="#191970" d="M287.0235,-79.0834C296.961,-77.6553 307.255,-76.1759 317.3059,-74.7315"/>
<polygon fill="#191970" stroke="#191970" points="317.8531,-78.1889 327.2535,-73.3019 316.8573,-71.2601 317.8531,-78.1889"/>
</g>
<!-- Node5 -->
<g id="node6" class="node">
<title>Node5</title>
<g id="a_node6"><a xlink:href="classargo_1_1globallock_1_1global__tas__lock_ae1a2cc75c9371ed191ac68f4e72f227e.html#ae1a2cc75c9371ed191ac68f4e72f227e" target="_top" xlink:title="take the lock ">
<polygon fill="#ffffff" stroke="#000000" points="323,-.5 323,-30.5 454,-30.5 454,-.5 323,-.5"/>
<text text-anchor="start" x="331" y="-18.5" font-family="Helvetica,sans-Serif" font-size="10.00" fill="#000000">argo::globallock::global</text>
<text text-anchor="middle" x="388.5" y="-7.5" font-family="Helvetica,sans-Serif" font-size="10.00" fill="#000000">_tas_lock::lock</text>
</a>
</g>
</g>
<!-- Node1&#45;&gt;Node5 -->
<g id="edge5" class="edge">
<title>Node1&#45;&gt;Node5</title>
<path fill="none" stroke="#191970" d="M251.8685,-73.3864C271.8923,-63.6083 298.7949,-50.8245 323,-40.5 327.7757,-38.463 332.7784,-36.4107 337.7999,-34.4048"/>
<polygon fill="#191970" stroke="#191970" points="339.3991,-37.5369 347.425,-30.6207 336.8378,-31.0223 339.3991,-37.5369"/>
</g>
<!-- Node6 -->
<g id="node7" class="node">
<title>Node6</title>
<g id="a_node7"><a xlink:href="classargo_1_1globallock_1_1global__tas__lock_a89bbe556d8a271dd64d65b421993da00.html#a89bbe556d8a271dd64d65b421993da00" target="_top" xlink:title="try to lock ">
<polygon fill="#ffffff" stroke="#000000" points="490,-.5 490,-30.5 621,-30.5 621,-.5 490,-.5"/>
<text text-anchor="start" x="498" y="-18.5" font-family="Helvetica,sans-Serif" font-size="10.00" fill="#000000">argo::globallock::global</text>
<text text-anchor="middle" x="555.5" y="-7.5" font-family="Helvetica,sans-Serif" font-size="10.00" fill="#000000">_tas_lock::try_lock</text>
</a>
</g>
</g>
<!-- Node5&#45;&gt;Node6 -->
<g id="edge6" class="edge">
<title>Node5&#45;&gt;Node6</title>
<path fill="none" stroke="#191970" d="M454.0235,-15.5C462.496,-15.5 471.2278,-15.5 479.8471,-15.5"/>
<polygon fill="#191970" stroke="#191970" points="479.8914,-19.0001 489.8913,-15.5 479.8913,-12.0001 479.8914,-19.0001"/>
</g>
<!-- Node7 -->
<g id="node8" class="node">
<title>Node7</title>
<g id="a_node8"><a xlink:href="namespaceargo_a2deaaacde085d381cbb01f24318965b4.html#a2deaaacde085d381cbb01f24318965b4" target="_top" xlink:title="A unique ArgoDSM node identifier. Counting starts from 0. ">
<polygon fill="#ffffff" stroke="#000000" points="657,-6 657,-25 740,-25 740,-6 657,-6"/>
<text text-anchor="middle" x="698.5" y="-13" font-family="Helvetica,sans-Serif" font-size="10.00" fill="#000000">argo::node_id</text>
</a>
</g>
</g>
<!-- Node6&#45;&gt;Node7 -->
<g id="edge7" class="edge">
<title>Node6&#45;&gt;Node7</title>
<path fill="none" stroke="#191970" d="M621.1406,-15.5C629.7104,-15.5 638.3932,-15.5 646.6921,-15.5"/>
<polygon fill="#191970" stroke="#191970" points="646.9614,-19.0001 656.9614,-15.5 646.9614,-12.0001 646.9614,-19.0001"/>
</g>
</g>
</svg>
