<?xml version="1.0" encoding="UTF-8" standalone="no"?>
<!DOCTYPE svg PUBLIC "-//W3C//DTD SVG 1.1//EN"
 "http://www.w3.org/Graphics/SVG/1.1/DTD/svg11.dtd">
<!-- Generated by graphviz version 2.40.1 (20161225.0304)
 -->
<!-- Title: /home/atmerhannah/argodsm/src/synchronization/cohort_lock.hpp Pages: 1 -->
<svg width="1414pt" height="654pt"
 viewBox="0.00 0.00 1413.81 654.00" xmlns="http://www.w3.org/2000/svg" xmlns:xlink="http://www.w3.org/1999/xlink">
<g id="graph0" class="graph" transform="scale(1 1) rotate(0) translate(4 650)">
<title>/home/atmerhannah/argodsm/src/synchronization/cohort_lock.hpp</title>
<polygon fill="#ffffff" stroke="transparent" points="-4,4 -4,-650 1409.8052,-650 1409.8052,4 -4,4"/>
<!-- Node0 -->
<g id="node1" class="node">
<title>Node0</title>
<polygon fill="#bfbfbf" stroke="#000000" points="984.3052,-604.5 984.3052,-645.5 1145.3052,-645.5 1145.3052,-604.5 984.3052,-604.5"/>
<text text-anchor="start" x="992.3052" y="-633.5" font-family="Helvetica,sans-Serif" font-size="10.00" fill="#000000">/home/atmerhannah/argodsm</text>
<text text-anchor="start" x="992.3052" y="-622.5" font-family="Helvetica,sans-Serif" font-size="10.00" fill="#000000">/src/synchronization/cohort</text>
<text text-anchor="middle" x="1064.8052" y="-611.5" font-family="Helvetica,sans-Serif" font-size="10.00" fill="#000000">_lock.hpp</text>
</g>
<!-- Node1 -->
<g id="node2" class="node">
<title>Node1</title>
<g id="a_node2"><a xlink:href="collective__allocator_8hpp.html" target="_top" xlink:title="This file provides the collective allocator for ArgoDSM. ">
<polygon fill="#ffffff" stroke="#000000" points="455.8052,-537.5 455.8052,-567.5 579.8052,-567.5 579.8052,-537.5 455.8052,-537.5"/>
<text text-anchor="start" x="463.8052" y="-555.5" font-family="Helvetica,sans-Serif" font-size="10.00" fill="#000000">../allocators/collective</text>
<text text-anchor="middle" x="517.8052" y="-544.5" font-family="Helvetica,sans-Serif" font-size="10.00" fill="#000000">_allocator.hpp</text>
</a>
</g>
</g>
<!-- Node0&#45;&gt;Node1 -->
<g id="edge1" class="edge">
<title>Node0&#45;&gt;Node1</title>
<path fill="none" stroke="#191970" d="M984.0935,-614.3024C877.787,-600.2124 692.4166,-575.6432 590.3513,-562.1153"/>
<polygon fill="#191970" stroke="#191970" points="590.5101,-558.6059 580.1369,-560.7615 589.5903,-565.5452 590.5101,-558.6059"/>
</g>
<!-- Node6 -->
<g id="node7" class="node">
<title>Node6</title>
<g id="a_node7"><a xlink:href="backend_8hpp.html" target="_top" xlink:title="This file provides the backend interface. ">
<polygon fill="#ffffff" stroke="#000000" points="201.8052,-291.5 201.8052,-310.5 333.8052,-310.5 333.8052,-291.5 201.8052,-291.5"/>
<text text-anchor="middle" x="267.8052" y="-298.5" font-family="Helvetica,sans-Serif" font-size="10.00" fill="#000000">../backend/backend.hpp</text>
</a>
</g>
</g>
<!-- Node0&#45;&gt;Node6 -->
<g id="edge63" class="edge">
<title>Node0&#45;&gt;Node6</title>
<path fill="none" stroke="#191970" d="M1058.6394,-604.3758C1040.5945,-545.4894 986.2955,-378.7765 940.8052,-347 892.8743,-313.5187 510.2104,-304.2815 344.1987,-301.8379"/>
<polygon fill="#191970" stroke="#191970" points="344.1102,-298.3364 334.0612,-301.6932 344.0102,-305.3357 344.1102,-298.3364"/>
</g>
<!-- Node14 -->
<g id="node15" class="node">
<title>Node14</title>
<g id="a_node15"><a xlink:href="data__distribution_8hpp.html" target="_top" xlink:title="This file provides an abstraction layer for distributing the shared memory space. ...">
<polygon fill="#ffffff" stroke="#000000" points="875.8052,-168.5 875.8052,-187.5 995.8052,-187.5 995.8052,-168.5 875.8052,-168.5"/>
<text text-anchor="middle" x="935.8052" y="-175.5" font-family="Helvetica,sans-Serif" font-size="10.00" fill="#000000">data_distribution.hpp</text>
</a>
</g>
</g>
<!-- Node0&#45;&gt;Node14 -->
<g id="edge64" class="edge">
<title>Node0&#45;&gt;Node14</title>
<path fill="none" stroke="#191970" d="M1072.8839,-604.4769C1089.9876,-558.4933 1127.1524,-443.6521 1112.8052,-347 1108.986,-321.2715 1111.0304,-312.0888 1095.8052,-291 1062.0915,-244.3022 1002.9559,-209.9342 966.792,-192.0208"/>
<polygon fill="#191970" stroke="#191970" points="968.2083,-188.8179 957.6819,-187.6156 965.161,-195.1199 968.2083,-188.8179"/>
</g>
<!-- Node28 -->
<g id="node29" class="node">
<title>Node28</title>
<g id="a_node29"><a xlink:href="global__tas__lock_8hpp.html" target="_top" xlink:title="This file provides a tas lock for the ArgoDSM system based on the TAS lock made by David Klaftenegger...">
<polygon fill="#ffffff" stroke="#000000" points="987.8052,-347.5 987.8052,-377.5 1103.8052,-377.5 1103.8052,-347.5 987.8052,-347.5"/>
<text text-anchor="start" x="995.8052" y="-365.5" font-family="Helvetica,sans-Serif" font-size="10.00" fill="#000000">../synchronization</text>
<text text-anchor="middle" x="1045.8052" y="-354.5" font-family="Helvetica,sans-Serif" font-size="10.00" fill="#000000">/global_tas_lock.hpp</text>
</a>
</g>
</g>
<!-- Node0&#45;&gt;Node28 -->
<g id="edge65" class="edge">
<title>Node0&#45;&gt;Node28</title>
<path fill="none" stroke="#191970" d="M1063.3143,-604.4021C1059.8677,-556.7848 1051.3581,-439.217 1047.618,-387.5451"/>
<polygon fill="#191970" stroke="#191970" points="1051.1087,-387.2891 1046.8958,-377.5679 1044.127,-387.7945 1051.1087,-387.2891"/>
</g>
<!-- Node38 -->
<g id="node39" class="node">
<title>Node38</title>
<g id="a_node39"><a xlink:href="mcs__lock_8hpp.html" target="_top" xlink:title="MCS lock for local use. ">
<polygon fill="#ffffff" stroke="#000000" points="688.3052,-543 688.3052,-562 821.3052,-562 821.3052,-543 688.3052,-543"/>
<text text-anchor="middle" x="754.8052" y="-550" font-family="Helvetica,sans-Serif" font-size="10.00" fill="#000000">intranode/mcs_lock.hpp</text>
</a>
</g>
</g>
<!-- Node0&#45;&gt;Node38 -->
<g id="edge66" class="edge">
<title>Node0&#45;&gt;Node38</title>
<path fill="none" stroke="#191970" d="M984.1656,-606.1407C927.7233,-592.9405 854.0407,-575.7083 805.6188,-564.3838"/>
<polygon fill="#191970" stroke="#191970" points="806.2191,-560.9298 795.6848,-562.0605 804.6249,-567.7459 806.2191,-560.9298"/>
</g>
<!-- Node40 -->
<g id="node41" class="node">
<title>Node40</title>
<g id="a_node41"><a xlink:href="ticket__lock_8hpp.html" target="_top" xlink:title="This file provides a (local) ticket lock for intranode locking in the ArgoDSM system. ">
<polygon fill="#ffffff" stroke="#000000" points="839.8052,-543 839.8052,-562 979.8052,-562 979.8052,-543 839.8052,-543"/>
<text text-anchor="middle" x="909.8052" y="-550" font-family="Helvetica,sans-Serif" font-size="10.00" fill="#000000">intranode/ticket_lock.hpp</text>
</a>
</g>
</g>
<!-- Node0&#45;&gt;Node40 -->
<g id="edge69" class="edge">
<title>Node0&#45;&gt;Node40</title>
<path fill="none" stroke="#191970" d="M1020.803,-604.4183C994.8028,-592.257 962.574,-577.1822 939.5546,-566.415"/>
<polygon fill="#191970" stroke="#191970" points="940.8391,-563.1519 930.298,-562.0853 937.8732,-569.4926 940.8391,-563.1519"/>
</g>
<!-- Node41 -->
<g id="node42" class="node">
<title>Node41</title>
<polygon fill="#ffffff" stroke="#bfbfbf" points="1112.3052,-543 1112.3052,-562 1159.3052,-562 1159.3052,-543 1112.3052,-543"/>
<text text-anchor="middle" x="1135.8052" y="-550" font-family="Helvetica,sans-Serif" font-size="10.00" fill="#000000">vector</text>
</g>
<!-- Node0&#45;&gt;Node41 -->
<g id="edge71" class="edge">
<title>Node0&#45;&gt;Node41</title>
<path fill="none" stroke="#191970" d="M1084.9611,-604.4183C1095.8074,-593.3428 1109.0202,-579.8509 1119.2578,-569.397"/>
<polygon fill="#191970" stroke="#191970" points="1121.922,-571.6788 1126.4182,-562.0853 1116.9208,-566.7811 1121.922,-571.6788"/>
</g>
<!-- Node42 -->
<g id="node43" class="node">
<title>Node42</title>
<polygon fill="#ffffff" stroke="#bfbfbf" points="1177.8052,-543 1177.8052,-562 1231.8052,-562 1231.8052,-543 1177.8052,-543"/>
<text text-anchor="middle" x="1204.8052" y="-550" font-family="Helvetica,sans-Serif" font-size="10.00" fill="#000000">sched.h</text>
</g>
<!-- Node0&#45;&gt;Node42 -->
<g id="edge72" class="edge">
<title>Node0&#45;&gt;Node42</title>
<path fill="none" stroke="#191970" d="M1104.5491,-604.4183C1127.8235,-592.3655 1156.6237,-577.4511 1177.3759,-566.7045"/>
<polygon fill="#191970" stroke="#191970" points="1179.0251,-569.7919 1186.2956,-562.0853 1175.8061,-563.576 1179.0251,-569.7919"/>
</g>
<!-- Node43 -->
<g id="node44" class="node">
<title>Node43</title>
<polygon fill="#ffffff" stroke="#bfbfbf" points="1249.8052,-543 1249.8052,-562 1305.8052,-562 1305.8052,-543 1249.8052,-543"/>
<text text-anchor="middle" x="1277.8052" y="-550" font-family="Helvetica,sans-Serif" font-size="10.00" fill="#000000">unistd.h</text>
</g>
<!-- Node0&#45;&gt;Node43 -->
<g id="edge73" class="edge">
<title>Node0&#45;&gt;Node43</title>
<path fill="none" stroke="#191970" d="M1132.9571,-604.3863C1165.7791,-594.0886 1205.5696,-581.0603 1240.8052,-568 1242.6174,-567.3283 1244.4714,-566.6201 1246.337,-565.8912"/>
<polygon fill="#191970" stroke="#191970" points="1247.655,-569.1336 1255.6201,-562.1474 1245.0368,-562.6417 1247.655,-569.1336"/>
</g>
<!-- Node44 -->
<g id="node45" class="node">
<title>Node44</title>
<g id="a_node45"><a xlink:href="cohort__lock_8h.html" target="_top" xlink:title="This file provides a C interface for ArgoDSM&#45;based cohort locks. ">
<polygon fill="#ffffff" stroke="#000000" points="1323.8052,-543 1323.8052,-562 1405.8052,-562 1405.8052,-543 1323.8052,-543"/>
<text text-anchor="middle" x="1364.8052" y="-550" font-family="Helvetica,sans-Serif" font-size="10.00" fill="#000000">cohort_lock.h</text>
</a>
</g>
</g>
<!-- Node0&#45;&gt;Node44 -->
<g id="edge74" class="edge">
<title>Node0&#45;&gt;Node44</title>
<path fill="none" stroke="#191970" d="M1145.4096,-608.2603C1194.5852,-597.6422 1258.5919,-583.0977 1314.8052,-568 1318.3489,-567.0482 1322.0186,-566.0111 1325.6862,-564.9393"/>
<polygon fill="#191970" stroke="#191970" points="1326.7291,-568.2806 1335.3024,-562.0557 1324.7184,-561.5756 1326.7291,-568.2806"/>
</g>
<!-- Node2 -->
<g id="node3" class="node">
<title>Node2</title>
<polygon fill="#ffffff" stroke="#bfbfbf" points="536.8052,-353 536.8052,-372 574.8052,-372 574.8052,-353 536.8052,-353"/>
<text text-anchor="middle" x="555.8052" y="-360" font-family="Helvetica,sans-Serif" font-size="10.00" fill="#000000">map</text>
</g>
<!-- Node1&#45;&gt;Node2 -->
<g id="edge2" class="edge">
<title>Node1&#45;&gt;Node2</title>
<path fill="none" stroke="#191970" d="M561.368,-537.3773C599.7966,-521.2964 652.8531,-491.6571 673.8052,-445 679.4494,-432.4314 681.6134,-425.3516 673.8052,-414 648.4518,-377.141 619.6994,-398.2445 579.8052,-378 579.2661,-377.7264 578.724,-377.4438 578.1803,-377.1536"/>
<polygon fill="#191970" stroke="#191970" points="579.8668,-374.0849 569.4749,-372.0208 576.3114,-380.1148 579.8668,-374.0849"/>
</g>
<!-- Node3 -->
<g id="node4" class="node">
<title>Node3</title>
<polygon fill="#ffffff" stroke="#bfbfbf" points="873.8052,-353 873.8052,-372 931.8052,-372 931.8052,-353 873.8052,-353"/>
<text text-anchor="middle" x="902.8052" y="-360" font-family="Helvetica,sans-Serif" font-size="10.00" fill="#000000">memory</text>
</g>
<!-- Node1&#45;&gt;Node3 -->
<g id="edge3" class="edge">
<title>Node1&#45;&gt;Node3</title>
<path fill="none" stroke="#191970" d="M580.0908,-541.9465C672.3515,-525.0409 838.7702,-489.248 878.8052,-445 894.4692,-427.6876 899.9507,-400.7062 901.8455,-382.3502"/>
<polygon fill="#191970" stroke="#191970" points="905.349,-382.4366 902.6208,-372.1991 898.3694,-381.9035 905.349,-382.4366"/>
</g>
<!-- Node4 -->
<g id="node5" class="node">
<title>Node4</title>
<polygon fill="#ffffff" stroke="#bfbfbf" points="290.3052,-353 290.3052,-372 333.3052,-372 333.3052,-353 290.3052,-353"/>
<text text-anchor="middle" x="311.8052" y="-360" font-family="Helvetica,sans-Serif" font-size="10.00" fill="#000000">stack</text>
</g>
<!-- Node1&#45;&gt;Node4 -->
<g id="edge4" class="edge">
<title>Node1&#45;&gt;Node4</title>
<path fill="none" stroke="#191970" d="M455.62,-546.6273C403.9543,-540.126 329.3752,-526.9253 268.8052,-501 228.57,-483.7785 208.1297,-483.7604 187.8052,-445 181.4069,-432.798 180.1561,-425.4594 187.8052,-414 208.2063,-383.4363 250.5016,-370.9856 279.991,-365.9299"/>
<polygon fill="#191970" stroke="#191970" points="280.8487,-369.34 290.2119,-364.3821 279.8005,-362.419 280.8487,-369.34"/>
</g>
<!-- Node5 -->
<g id="node6" class="node">
<title>Node5</title>
<g id="a_node6"><a xlink:href="dynamic__mempool_8hpp.html" target="_top" xlink:title="This file provides a dynamically growing memory pool for ArgoDSM. ">
<polygon fill="#ffffff" stroke="#000000" points="18.8052,-414.5 18.8052,-444.5 140.8052,-444.5 140.8052,-414.5 18.8052,-414.5"/>
<text text-anchor="start" x="26.8052" y="-432.5" font-family="Helvetica,sans-Serif" font-size="10.00" fill="#000000">../mempools/dynamic</text>
<text text-anchor="middle" x="79.8052" y="-421.5" font-family="Helvetica,sans-Serif" font-size="10.00" fill="#000000">_mempool.hpp</text>
</a>
</g>
</g>
<!-- Node1&#45;&gt;Node5 -->
<g id="edge5" class="edge">
<title>Node1&#45;&gt;Node5</title>
<path fill="none" stroke="#191970" d="M455.5692,-548.2689C366.1994,-541.4206 206.5732,-526.0849 154.8052,-501 131.7824,-489.844 111.194,-469.0182 97.44,-452.7086"/>
<polygon fill="#191970" stroke="#191970" points="99.9212,-450.2125 90.8938,-444.6665 94.4923,-454.6315 99.9212,-450.2125"/>
</g>
<!-- Node1&#45;&gt;Node6 -->
<g id="edge47" class="edge">
<title>Node1&#45;&gt;Node6</title>
<path fill="none" stroke="#191970" d="M455.8029,-549.9745C330.8137,-543.3203 56.5027,-520.2594 9.8052,-445 -37.4258,-368.8807 99.8463,-329.6026 191.8743,-312.3244"/>
<polygon fill="#191970" stroke="#191970" points="192.534,-315.7619 201.7427,-310.5226 191.2767,-308.8757 192.534,-315.7619"/>
</g>
<!-- Node27 -->
<g id="node28" class="node">
<title>Node27</title>
<g id="a_node28"><a xlink:href="global__mempool_8hpp.html" target="_top" xlink:title="This file provides a dynamically growing memory pool for ArgoDSM. ">
<polygon fill="#ffffff" stroke="#000000" points="759.8052,-414.5 759.8052,-444.5 869.8052,-444.5 869.8052,-414.5 759.8052,-414.5"/>
<text text-anchor="start" x="767.8052" y="-432.5" font-family="Helvetica,sans-Serif" font-size="10.00" fill="#000000">../mempools/global</text>
<text text-anchor="middle" x="814.8052" y="-421.5" font-family="Helvetica,sans-Serif" font-size="10.00" fill="#000000">_mempool.hpp</text>
</a>
</g>
</g>
<!-- Node1&#45;&gt;Node27 -->
<g id="edge35" class="edge">
<title>Node1&#45;&gt;Node27</title>
<path fill="none" stroke="#191970" d="M579.8831,-541.0089C617.8818,-532.6876 666.8964,-519.6077 707.8052,-501 737.1193,-487.6663 767.3444,-466.6804 788.1614,-450.8865"/>
<polygon fill="#191970" stroke="#191970" points="790.4198,-453.5649 796.203,-444.6877 786.1461,-448.0209 790.4198,-453.5649"/>
</g>
<!-- Node33 -->
<g id="node34" class="node">
<title>Node33</title>
<g id="a_node34"><a xlink:href="dynamic__allocator_8hpp.html" target="_top" xlink:title="This file provides the dynamic allocator for ArgoDSM. ">
<polygon fill="#ffffff" stroke="#000000" points="454.3052,-481.5 454.3052,-500.5 581.3052,-500.5 581.3052,-481.5 454.3052,-481.5"/>
<text text-anchor="middle" x="517.8052" y="-488.5" font-family="Helvetica,sans-Serif" font-size="10.00" fill="#000000">dynamic_allocator.hpp</text>
</a>
</g>
</g>
<!-- Node1&#45;&gt;Node33 -->
<g id="edge48" class="edge">
<title>Node1&#45;&gt;Node33</title>
<path fill="none" stroke="#191970" d="M517.8052,-537.2977C517.8052,-529.3834 517.8052,-519.6043 517.8052,-511.0759"/>
<polygon fill="#191970" stroke="#191970" points="521.3053,-510.8469 517.8052,-500.8469 514.3053,-510.847 521.3053,-510.8469"/>
</g>
<!-- Node34 -->
<g id="node35" class="node">
<title>Node34</title>
<g id="a_node35"><a xlink:href="generic__allocator_8hpp.html" target="_top" xlink:title="This file provides a generic allocator template for ArgoDSM. ">
<polygon fill="#ffffff" stroke="#000000" points="197.3052,-420 197.3052,-439 318.3052,-439 318.3052,-420 197.3052,-420"/>
<text text-anchor="middle" x="257.8052" y="-427" font-family="Helvetica,sans-Serif" font-size="10.00" fill="#000000">generic_allocator.hpp</text>
</a>
</g>
</g>
<!-- Node1&#45;&gt;Node34 -->
<g id="edge60" class="edge">
<title>Node1&#45;&gt;Node34</title>
<path fill="none" stroke="#191970" d="M497.4069,-537.2264C475.7814,-521.5559 440.2025,-497.2364 406.8052,-481 373.1905,-464.6578 333.0388,-451.0959 302.89,-441.9984"/>
<polygon fill="#191970" stroke="#191970" points="303.6555,-438.5748 293.073,-439.0867 301.665,-445.2858 303.6555,-438.5748"/>
</g>
<!-- Node35 -->
<g id="node36" class="node">
<title>Node35</title>
<g id="a_node36"><a xlink:href="null__lock_8hpp.html" target="_top" xlink:title="dummy lock, not intended for public use ">
<polygon fill="#ffffff" stroke="#000000" points="584.3052,-420 584.3052,-439 665.3052,-439 665.3052,-420 584.3052,-420"/>
<text text-anchor="middle" x="624.8052" y="-427" font-family="Helvetica,sans-Serif" font-size="10.00" fill="#000000">null_lock.hpp</text>
</a>
</g>
</g>
<!-- Node1&#45;&gt;Node35 -->
<g id="edge61" class="edge">
<title>Node1&#45;&gt;Node35</title>
<path fill="none" stroke="#191970" d="M545.3191,-537.3624C559.9348,-528.2836 577.3919,-515.6614 589.8052,-501 603.0112,-485.4024 612.6389,-463.9673 618.4158,-448.643"/>
<polygon fill="#191970" stroke="#191970" points="621.7363,-449.7516 621.7967,-439.1569 615.1426,-447.4015 621.7363,-449.7516"/>
</g>
<!-- Node37 -->
<g id="node38" class="node">
<title>Node37</title>
<g id="a_node38"><a xlink:href="collective__allocator_8h.html" target="_top" xlink:title="This file provides the collective allocator for ArgoDSM. ">
<polygon fill="#ffffff" stroke="#000000" points="277.8052,-481.5 277.8052,-500.5 397.8052,-500.5 397.8052,-481.5 277.8052,-481.5"/>
<text text-anchor="middle" x="337.8052" y="-488.5" font-family="Helvetica,sans-Serif" font-size="10.00" fill="#000000">collective_allocator.h</text>
</a>
</g>
</g>
<!-- Node1&#45;&gt;Node37 -->
<g id="edge62" class="edge">
<title>Node1&#45;&gt;Node37</title>
<path fill="none" stroke="#191970" d="M473.7723,-537.4554C443.6071,-527.149 404.0244,-513.6249 375.3522,-503.8286"/>
<polygon fill="#191970" stroke="#191970" points="376.2934,-500.4515 365.6988,-500.5303 374.0301,-507.0756 376.2934,-500.4515"/>
</g>
<!-- Node5&#45;&gt;Node6 -->
<g id="edge6" class="edge">
<title>Node5&#45;&gt;Node6</title>
<path fill="none" stroke="#191970" d="M131.2786,-414.4313C154.7805,-406.025 182.1375,-393.9812 203.8052,-378 225.8778,-361.7202 245.0537,-336.2582 256.5189,-319.1168"/>
<polygon fill="#191970" stroke="#191970" points="259.5625,-320.8561 262.0647,-310.561 253.6885,-317.0487 259.5625,-320.8561"/>
</g>
<!-- Node26 -->
<g id="node27" class="node">
<title>Node26</title>
<g id="a_node27"><a xlink:href="broadcast_8hpp.html" target="_top" xlink:title="This file provides a broadcasting facility for a single value. ">
<polygon fill="#ffffff" stroke="#000000" points="92.3052,-347.5 92.3052,-377.5 195.3052,-377.5 195.3052,-347.5 92.3052,-347.5"/>
<text text-anchor="start" x="100.3052" y="-365.5" font-family="Helvetica,sans-Serif" font-size="10.00" fill="#000000">../synchronization</text>
<text text-anchor="middle" x="143.8052" y="-354.5" font-family="Helvetica,sans-Serif" font-size="10.00" fill="#000000">/broadcast.hpp</text>
</a>
</g>
</g>
<!-- Node5&#45;&gt;Node26 -->
<g id="edge32" class="edge">
<title>Node5&#45;&gt;Node26</title>
<path fill="none" stroke="#191970" d="M94.3278,-414.2967C102.5924,-405.6446 113.1007,-394.6438 122.3054,-385.0076"/>
<polygon fill="#191970" stroke="#191970" points="124.9636,-387.2919 129.3401,-377.6432 119.9018,-382.4567 124.9636,-387.2919"/>
</g>
<!-- Node7 -->
<g id="node8" class="node">
<title>Node7</title>
<polygon fill="#ffffff" stroke="#bfbfbf" points="310.8052,-230 310.8052,-249 362.8052,-249 362.8052,-230 310.8052,-230"/>
<text text-anchor="middle" x="336.8052" y="-237" font-family="Helvetica,sans-Serif" font-size="10.00" fill="#000000">cassert</text>
</g>
<!-- Node6&#45;&gt;Node7 -->
<g id="edge7" class="edge">
<title>Node6&#45;&gt;Node7</title>
<path fill="none" stroke="#191970" d="M278.5865,-291.3906C289.1578,-281.9683 305.4878,-267.4134 318.1655,-256.1137"/>
<polygon fill="#191970" stroke="#191970" points="320.7356,-258.5114 325.872,-249.2449 316.078,-253.2858 320.7356,-258.5114"/>
</g>
<!-- Node8 -->
<g id="node9" class="node">
<title>Node8</title>
<polygon fill="#ffffff" stroke="#bfbfbf" points="380.8052,-230 380.8052,-249 430.8052,-249 430.8052,-230 380.8052,-230"/>
<text text-anchor="middle" x="405.8052" y="-237" font-family="Helvetica,sans-Serif" font-size="10.00" fill="#000000">cstdint</text>
</g>
<!-- Node6&#45;&gt;Node8 -->
<g id="edge8" class="edge">
<title>Node6&#45;&gt;Node8</title>
<path fill="none" stroke="#191970" d="M289.7496,-291.3797C310.8197,-282.1224 343.5293,-267.6981 371.8052,-255 373.0036,-254.4618 374.2251,-253.9118 375.4586,-253.3552"/>
<polygon fill="#191970" stroke="#191970" points="377.3016,-256.3626 384.9643,-249.0459 374.4113,-249.9872 377.3016,-256.3626"/>
</g>
<!-- Node9 -->
<g id="node10" class="node">
<title>Node9</title>
<polygon fill="#ffffff" stroke="#bfbfbf" points="227.3052,-230 227.3052,-249 292.3052,-249 292.3052,-230 227.3052,-230"/>
<text text-anchor="middle" x="259.8052" y="-237" font-family="Helvetica,sans-Serif" font-size="10.00" fill="#000000">stdexcept</text>
</g>
<!-- Node6&#45;&gt;Node9 -->
<g id="edge9" class="edge">
<title>Node6&#45;&gt;Node9</title>
<path fill="none" stroke="#191970" d="M266.5552,-291.3906C265.4463,-282.8657 263.7908,-270.1392 262.3969,-259.4235"/>
<polygon fill="#191970" stroke="#191970" points="265.8336,-258.7098 261.0728,-249.2449 258.8921,-259.6128 265.8336,-258.7098"/>
</g>
<!-- Node10 -->
<g id="node11" class="node">
<title>Node10</title>
<g id="a_node11"><a xlink:href="global__ptr_8hpp.html" target="_top" xlink:title="This file provides the global pointer for ArgoDSM. ">
<polygon fill="#ffffff" stroke="#000000" points="753.8052,-224.5 753.8052,-254.5 861.8052,-254.5 861.8052,-224.5 753.8052,-224.5"/>
<text text-anchor="start" x="761.8052" y="-242.5" font-family="Helvetica,sans-Serif" font-size="10.00" fill="#000000">../data_distribution</text>
<text text-anchor="middle" x="807.8052" y="-231.5" font-family="Helvetica,sans-Serif" font-size="10.00" fill="#000000">/global_ptr.hpp</text>
</a>
</g>
</g>
<!-- Node6&#45;&gt;Node10 -->
<g id="edge10" class="edge">
<title>Node6&#45;&gt;Node10</title>
<path fill="none" stroke="#191970" d="M334.0198,-293.4589C438.545,-281.5546 640.4872,-258.5557 743.6905,-246.802"/>
<polygon fill="#191970" stroke="#191970" points="744.125,-250.2752 753.6647,-245.666 743.3328,-243.3201 744.125,-250.2752"/>
</g>
<!-- Node19 -->
<g id="node20" class="node">
<title>Node19</title>
<g id="a_node20"><a xlink:href="types_8hpp.html" target="_top" xlink:title="This file defines common types used in ArgoDSM. ">
<polygon fill="#ffffff" stroke="#000000" points="146.8052,-.5 146.8052,-19.5 250.8052,-19.5 250.8052,-.5 146.8052,-.5"/>
<text text-anchor="middle" x="198.8052" y="-7.5" font-family="Helvetica,sans-Serif" font-size="10.00" fill="#000000">../types/types.hpp</text>
</a>
</g>
</g>
<!-- Node6&#45;&gt;Node19 -->
<g id="edge31" class="edge">
<title>Node6&#45;&gt;Node19</title>
<path fill="none" stroke="#191970" d="M253.365,-291.3678C242.0197,-283.0497 226.6978,-270.0224 217.8052,-255 199.8497,-224.6673 198.8052,-213.2487 198.8052,-178 198.8052,-178 198.8052,-178 198.8052,-122 198.8052,-89.7116 198.8052,-52.1872 198.8052,-29.8048"/>
<polygon fill="#191970" stroke="#191970" points="202.3053,-29.5883 198.8052,-19.5884 195.3053,-29.5884 202.3053,-29.5883"/>
</g>
<!-- Node11 -->
<g id="node12" class="node">
<title>Node11</title>
<polygon fill="#ffffff" stroke="#bfbfbf" points="702.8052,-168.5 702.8052,-187.5 746.8052,-187.5 746.8052,-168.5 702.8052,-168.5"/>
<text text-anchor="middle" x="724.8052" y="-175.5" font-family="Helvetica,sans-Serif" font-size="10.00" fill="#000000">string</text>
</g>
<!-- Node10&#45;&gt;Node11 -->
<g id="edge11" class="edge">
<title>Node10&#45;&gt;Node11</title>
<path fill="none" stroke="#191970" d="M787.2884,-224.2977C774.807,-215.0495 758.8893,-203.2551 746.2438,-193.8853"/>
<polygon fill="#191970" stroke="#191970" points="748.213,-190.9882 738.0946,-187.8469 744.0456,-196.6126 748.213,-190.9882"/>
</g>
<!-- Node12 -->
<g id="node13" class="node">
<title>Node12</title>
<g id="a_node13"><a xlink:href="env_8hpp.html" target="_top" xlink:title="This file provides facilities for handling environment variables. ">
<polygon fill="#ffffff" stroke="#000000" points="765.3052,-168.5 765.3052,-187.5 850.3052,-187.5 850.3052,-168.5 765.3052,-168.5"/>
<text text-anchor="middle" x="807.8052" y="-175.5" font-family="Helvetica,sans-Serif" font-size="10.00" fill="#000000">../env/env.hpp</text>
</a>
</g>
</g>
<!-- Node10&#45;&gt;Node12 -->
<g id="edge12" class="edge">
<title>Node10&#45;&gt;Node12</title>
<path fill="none" stroke="#191970" d="M807.8052,-224.2977C807.8052,-216.3834 807.8052,-206.6043 807.8052,-198.0759"/>
<polygon fill="#191970" stroke="#191970" points="811.3053,-197.8469 807.8052,-187.8469 804.3053,-197.847 811.3053,-197.8469"/>
</g>
<!-- Node10&#45;&gt;Node14 -->
<g id="edge14" class="edge">
<title>Node10&#45;&gt;Node14</title>
<path fill="none" stroke="#191970" d="M839.1175,-224.4554C859.819,-214.509 886.7575,-201.5659 906.9405,-191.8686"/>
<polygon fill="#191970" stroke="#191970" points="908.4719,-195.0159 915.9698,-187.5303 905.4404,-188.7064 908.4719,-195.0159"/>
</g>
<!-- Node13 -->
<g id="node14" class="node">
<title>Node13</title>
<polygon fill="#ffffff" stroke="#bfbfbf" points="411.3052,-112.5 411.3052,-131.5 464.3052,-131.5 464.3052,-112.5 411.3052,-112.5"/>
<text text-anchor="middle" x="437.8052" y="-119.5" font-family="Helvetica,sans-Serif" font-size="10.00" fill="#000000">cstddef</text>
</g>
<!-- Node12&#45;&gt;Node13 -->
<g id="edge13" class="edge">
<title>Node12&#45;&gt;Node13</title>
<path fill="none" stroke="#191970" d="M765.2768,-169.5937C762.0758,-169.0308 758.8918,-168.4926 755.8052,-168 633.7774,-148.5252 598.7728,-157.0275 474.3634,-132.0839"/>
<polygon fill="#191970" stroke="#191970" points="474.9523,-128.6321 464.4549,-130.0653 473.5549,-135.4912 474.9523,-128.6321"/>
</g>
<!-- Node15 -->
<g id="node16" class="node">
<title>Node15</title>
<g id="a_node16"><a xlink:href="base__distribution_8hpp.html" target="_top" xlink:title="This file implements the base distribution class for all the policies to derive from. ">
<polygon fill="#ffffff" stroke="#000000" points="874.8052,-56.5 874.8052,-75.5 996.8052,-75.5 996.8052,-56.5 874.8052,-56.5"/>
<text text-anchor="middle" x="935.8052" y="-63.5" font-family="Helvetica,sans-Serif" font-size="10.00" fill="#000000">base_distribution.hpp</text>
</a>
</g>
</g>
<!-- Node14&#45;&gt;Node15 -->
<g id="edge15" class="edge">
<title>Node14&#45;&gt;Node15</title>
<path fill="none" stroke="#191970" d="M995.8616,-174.2654C1089.9368,-167.7963 1263.2895,-153.1402 1281.8052,-132 1287.6618,-125.3132 1287.6618,-118.6868 1281.8052,-112 1264.0127,-91.6854 1103.242,-77.3584 1007.2334,-70.53"/>
<polygon fill="#191970" stroke="#191970" points="1007.2267,-67.021 997.0065,-69.8135 1006.7374,-74.0039 1007.2267,-67.021"/>
</g>
<!-- Node20 -->
<g id="node21" class="node">
<title>Node20</title>
<g id="a_node21"><a xlink:href="naive__distribution_8hpp.html" target="_top" xlink:title="This file implements the naive data distribution. ">
<polygon fill="#ffffff" stroke="#000000" points="649.3052,-112.5 649.3052,-131.5 774.3052,-131.5 774.3052,-112.5 649.3052,-112.5"/>
<text text-anchor="middle" x="711.8052" y="-119.5" font-family="Helvetica,sans-Serif" font-size="10.00" fill="#000000">naive_distribution.hpp</text>
</a>
</g>
</g>
<!-- Node14&#45;&gt;Node20 -->
<g id="edge20" class="edge">
<title>Node14&#45;&gt;Node20</title>
<path fill="none" stroke="#191970" d="M897.5528,-168.4369C859.4585,-158.9133 800.8739,-144.2672 759.7065,-133.9753"/>
<polygon fill="#191970" stroke="#191970" points="760.4502,-130.5536 749.8999,-131.5237 758.7524,-137.3446 760.4502,-130.5536"/>
</g>
<!-- Node21 -->
<g id="node22" class="node">
<title>Node21</title>
<g id="a_node22"><a xlink:href="cyclic__distribution_8hpp.html" target="_top" xlink:title="This file implements the cyclic data distribution. ">
<polygon fill="#ffffff" stroke="#000000" points="792.8052,-112.5 792.8052,-131.5 918.8052,-131.5 918.8052,-112.5 792.8052,-112.5"/>
<text text-anchor="middle" x="855.8052" y="-119.5" font-family="Helvetica,sans-Serif" font-size="10.00" fill="#000000">cyclic_distribution.hpp</text>
</a>
</g>
</g>
<!-- Node14&#45;&gt;Node21 -->
<g id="edge22" class="edge">
<title>Node14&#45;&gt;Node21</title>
<path fill="none" stroke="#191970" d="M921.8703,-168.2455C909.7105,-159.7337 891.8588,-147.2375 877.7768,-137.3801"/>
<polygon fill="#191970" stroke="#191970" points="879.7799,-134.51 869.5805,-131.6427 875.7657,-140.2447 879.7799,-134.51"/>
</g>
<!-- Node22 -->
<g id="node23" class="node">
<title>Node22</title>
<g id="a_node23"><a xlink:href="skew__mapp__distribution_8hpp.html" target="_top" xlink:title="This file implements the skew&#45;mapp data distribution. ">
<polygon fill="#ffffff" stroke="#000000" points="937.3052,-112.5 937.3052,-131.5 1094.3052,-131.5 1094.3052,-112.5 937.3052,-112.5"/>
<text text-anchor="middle" x="1015.8052" y="-119.5" font-family="Helvetica,sans-Serif" font-size="10.00" fill="#000000">skew_mapp_distribution.hpp</text>
</a>
</g>
</g>
<!-- Node14&#45;&gt;Node22 -->
<g id="edge24" class="edge">
<title>Node14&#45;&gt;Node22</title>
<path fill="none" stroke="#191970" d="M949.7402,-168.2455C961.8999,-159.7337 979.7517,-147.2375 993.8337,-137.3801"/>
<polygon fill="#191970" stroke="#191970" points="995.8448,-140.2447 1002.03,-131.6427 991.8305,-134.51 995.8448,-140.2447"/>
</g>
<!-- Node23 -->
<g id="node24" class="node">
<title>Node23</title>
<g id="a_node24"><a xlink:href="prime__mapp__distribution_8hpp.html" target="_top" xlink:title="This file implements the prime&#45;mapp data distribution. ">
<polygon fill="#ffffff" stroke="#000000" points="1112.8052,-112.5 1112.8052,-131.5 1272.8052,-131.5 1272.8052,-112.5 1112.8052,-112.5"/>
<text text-anchor="middle" x="1192.8052" y="-119.5" font-family="Helvetica,sans-Serif" font-size="10.00" fill="#000000">prime_mapp_distribution.hpp</text>
</a>
</g>
</g>
<!-- Node14&#45;&gt;Node23 -->
<g id="edge26" class="edge">
<title>Node14&#45;&gt;Node23</title>
<path fill="none" stroke="#191970" d="M979.6931,-168.4369C1023.769,-158.8328 1091.7533,-144.0191 1139.041,-133.7152"/>
<polygon fill="#191970" stroke="#191970" points="1140.0728,-137.0725 1149.0984,-131.5237 1138.5824,-130.233 1140.0728,-137.0725"/>
</g>
<!-- Node24 -->
<g id="node25" class="node">
<title>Node24</title>
<g id="a_node25"><a xlink:href="first__touch__distribution_8hpp.html" target="_top" xlink:title="This file implements the first&#45;touch data distribution. ">
<polygon fill="#ffffff" stroke="#000000" points="482.3052,-112.5 482.3052,-131.5 631.3052,-131.5 631.3052,-112.5 482.3052,-112.5"/>
<text text-anchor="middle" x="556.8052" y="-119.5" font-family="Helvetica,sans-Serif" font-size="10.00" fill="#000000">first_touch_distribution.hpp</text>
</a>
</g>
</g>
<!-- Node14&#45;&gt;Node24 -->
<g id="edge28" class="edge">
<title>Node14&#45;&gt;Node24</title>
<path fill="none" stroke="#191970" d="M875.7515,-169.1266C809.6033,-159.3528 703.146,-143.6229 631.6232,-133.0549"/>
<polygon fill="#191970" stroke="#191970" points="631.7373,-129.5338 621.3331,-131.5345 630.714,-136.4586 631.7373,-129.5338"/>
</g>
<!-- Node16 -->
<g id="node17" class="node">
<title>Node16</title>
<polygon fill="#ffffff" stroke="#bfbfbf" points="952.3052,-.5 952.3052,-19.5 1001.3052,-19.5 1001.3052,-.5 952.3052,-.5"/>
<text text-anchor="middle" x="976.8052" y="-7.5" font-family="Helvetica,sans-Serif" font-size="10.00" fill="#000000">cstdlib</text>
</g>
<!-- Node15&#45;&gt;Node16 -->
<g id="edge16" class="edge">
<title>Node15&#45;&gt;Node16</title>
<path fill="none" stroke="#191970" d="M942.9469,-56.2455C948.6496,-48.4564 956.7952,-37.3308 963.6677,-27.9439"/>
<polygon fill="#191970" stroke="#191970" points="966.662,-29.7789 969.7454,-19.6427 961.0139,-25.6437 966.662,-29.7789"/>
</g>
<!-- Node17 -->
<g id="node18" class="node">
<title>Node17</title>
<polygon fill="#ffffff" stroke="#bfbfbf" points="1224.8052,-.5 1224.8052,-19.5 1284.8052,-19.5 1284.8052,-.5 1224.8052,-.5"/>
<text text-anchor="middle" x="1254.8052" y="-7.5" font-family="Helvetica,sans-Serif" font-size="10.00" fill="#000000">iostream</text>
</g>
<!-- Node15&#45;&gt;Node17 -->
<g id="edge17" class="edge">
<title>Node15&#45;&gt;Node17</title>
<path fill="none" stroke="#191970" d="M990.2808,-56.4369C1053.9395,-45.2617 1157.7775,-27.0331 1214.5712,-17.063"/>
<polygon fill="#191970" stroke="#191970" points="1215.3639,-20.4775 1224.6081,-15.3011 1214.1535,-13.5829 1215.3639,-20.4775"/>
</g>
<!-- Node18 -->
<g id="node19" class="node">
<title>Node18</title>
<polygon fill="#ffffff" stroke="#bfbfbf" points="853.3052,-.5 853.3052,-19.5 934.3052,-19.5 934.3052,-.5 853.3052,-.5"/>
<text text-anchor="middle" x="893.8052" y="-7.5" font-family="Helvetica,sans-Serif" font-size="10.00" fill="#000000">system_error</text>
</g>
<!-- Node15&#45;&gt;Node18 -->
<g id="edge18" class="edge">
<title>Node15&#45;&gt;Node18</title>
<path fill="none" stroke="#191970" d="M928.4894,-56.2455C922.5873,-48.3761 914.131,-37.101 907.0459,-27.6542"/>
<polygon fill="#191970" stroke="#191970" points="909.8373,-25.5427 901.0372,-19.6427 904.2373,-29.7427 909.8373,-25.5427"/>
</g>
<!-- Node15&#45;&gt;Node19 -->
<g id="edge19" class="edge">
<title>Node15&#45;&gt;Node19</title>
<path fill="none" stroke="#191970" d="M874.5519,-61.3457C736.2198,-50.8348 400.8605,-25.3529 261.33,-14.7509"/>
<polygon fill="#191970" stroke="#191970" points="261.4653,-11.2511 251.2288,-13.9833 260.9349,-18.231 261.4653,-11.2511"/>
</g>
<!-- Node20&#45;&gt;Node15 -->
<g id="edge21" class="edge">
<title>Node20&#45;&gt;Node15</title>
<path fill="none" stroke="#191970" d="M750.0577,-112.4369C788.1519,-102.9133 846.7365,-88.2672 887.9039,-77.9753"/>
<polygon fill="#191970" stroke="#191970" points="888.858,-81.3446 897.7105,-75.5237 887.1602,-74.5536 888.858,-81.3446"/>
</g>
<!-- Node21&#45;&gt;Node15 -->
<g id="edge23" class="edge">
<title>Node21&#45;&gt;Node15</title>
<path fill="none" stroke="#191970" d="M869.7402,-112.2455C881.8999,-103.7337 899.7517,-91.2375 913.8337,-81.3801"/>
<polygon fill="#191970" stroke="#191970" points="915.8448,-84.2447 922.03,-75.6427 911.8305,-78.51 915.8448,-84.2447"/>
</g>
<!-- Node22&#45;&gt;Node15 -->
<g id="edge25" class="edge">
<title>Node22&#45;&gt;Node15</title>
<path fill="none" stroke="#191970" d="M1001.8703,-112.2455C989.7105,-103.7337 971.8588,-91.2375 957.7768,-81.3801"/>
<polygon fill="#191970" stroke="#191970" points="959.7799,-78.51 949.5805,-75.6427 955.7657,-84.2447 959.7799,-78.51"/>
</g>
<!-- Node23&#45;&gt;Node15 -->
<g id="edge27" class="edge">
<title>Node23&#45;&gt;Node15</title>
<path fill="none" stroke="#191970" d="M1148.9174,-112.4369C1104.8414,-102.8328 1036.8572,-88.0191 989.5694,-77.7152"/>
<polygon fill="#191970" stroke="#191970" points="990.028,-74.233 979.5121,-75.5237 988.5376,-81.0725 990.028,-74.233"/>
</g>
<!-- Node24&#45;&gt;Node15 -->
<g id="edge30" class="edge">
<title>Node24&#45;&gt;Node15</title>
<path fill="none" stroke="#191970" d="M621.527,-112.4369C689.1334,-102.4475 794.8828,-86.8223 864.7588,-76.4976"/>
<polygon fill="#191970" stroke="#191970" points="865.4183,-79.9383 874.7993,-75.0141 864.3951,-73.0134 865.4183,-79.9383"/>
</g>
<!-- Node25 -->
<g id="node26" class="node">
<title>Node25</title>
<polygon fill="#ffffff" stroke="#bfbfbf" points="445.8052,-56.5 445.8052,-75.5 493.8052,-75.5 493.8052,-56.5 445.8052,-56.5"/>
<text text-anchor="middle" x="469.8052" y="-63.5" font-family="Helvetica,sans-Serif" font-size="10.00" fill="#000000">mutex</text>
</g>
<!-- Node24&#45;&gt;Node25 -->
<g id="edge29" class="edge">
<title>Node24&#45;&gt;Node25</title>
<path fill="none" stroke="#191970" d="M541.651,-112.2455C528.3025,-103.6534 508.6466,-91.0014 493.267,-81.1018"/>
<polygon fill="#191970" stroke="#191970" points="495.0888,-78.1121 484.7858,-75.6427 491.3001,-83.9982 495.0888,-78.1121"/>
</g>
<!-- Node26&#45;&gt;Node6 -->
<g id="edge33" class="edge">
<title>Node26&#45;&gt;Node6</title>
<path fill="none" stroke="#191970" d="M174.139,-347.4554C194.1028,-337.554 220.0542,-324.683 239.5767,-315.0004"/>
<polygon fill="#191970" stroke="#191970" points="241.1861,-318.1091 248.5896,-310.5303 238.0758,-311.838 241.1861,-318.1091"/>
</g>
<!-- Node26&#45;&gt;Node19 -->
<g id="edge34" class="edge">
<title>Node26&#45;&gt;Node19</title>
<path fill="none" stroke="#191970" d="M145.4241,-347.3719C147.7618,-324.1842 151.8052,-278.4467 151.8052,-239.5 151.8052,-239.5 151.8052,-239.5 151.8052,-122 151.8052,-86.5481 172.0756,-49.3564 185.9923,-27.9999"/>
<polygon fill="#191970" stroke="#191970" points="188.9601,-29.8593 191.6669,-19.6161 183.1632,-25.9356 188.9601,-29.8593"/>
</g>
<!-- Node27&#45;&gt;Node3 -->
<g id="edge44" class="edge">
<title>Node27&#45;&gt;Node3</title>
<path fill="none" stroke="#191970" d="M834.7738,-414.2967C848.8839,-403.5537 867.7503,-389.1895 882.036,-378.3129"/>
<polygon fill="#191970" stroke="#191970" points="884.4192,-380.8975 890.2554,-372.055 880.1788,-375.328 884.4192,-380.8975"/>
</g>
<!-- Node27&#45;&gt;Node6 -->
<g id="edge36" class="edge">
<title>Node27&#45;&gt;Node6</title>
<path fill="none" stroke="#191970" d="M759.4412,-415.9905C706.9121,-402.9684 634.1955,-384.3333 621.8052,-378 602.3977,-368.0798 603.7561,-355.7764 583.8052,-347 542.0751,-328.6428 423.5392,-314.8868 344.108,-307.3966"/>
<polygon fill="#191970" stroke="#191970" points="344.421,-303.9107 334.1399,-306.47 343.773,-310.8806 344.421,-303.9107"/>
</g>
<!-- Node27&#45;&gt;Node10 -->
<g id="edge42" class="edge">
<title>Node27&#45;&gt;Node10</title>
<path fill="none" stroke="#191970" d="M814.2442,-414.2727C813.0406,-381.6039 810.2006,-304.5184 808.7276,-264.5352"/>
<polygon fill="#191970" stroke="#191970" points="812.2251,-264.4004 808.3592,-254.5361 805.2298,-264.6582 812.2251,-264.4004"/>
</g>
<!-- Node27&#45;&gt;Node17 -->
<g id="edge45" class="edge">
<title>Node27&#45;&gt;Node17</title>
<path fill="none" stroke="#191970" d="M821.1964,-414.2518C829.2675,-396.4118 844.5792,-366.8 864.8052,-347 1018.3442,-196.6953 1182.873,-313.5387 1297.8052,-132 1319.297,-98.0532 1289.7486,-51.9698 1270.0027,-27.2927"/>
<polygon fill="#191970" stroke="#191970" points="1272.6141,-24.9591 1263.5269,-19.5118 1267.2338,-29.437 1272.6141,-24.9591"/>
</g>
<!-- Node27&#45;&gt;Node28 -->
<g id="edge37" class="edge">
<title>Node27&#45;&gt;Node28</title>
<path fill="none" stroke="#191970" d="M866.6461,-414.4639C901.299,-404.4131 947.0698,-391.1375 983.6739,-380.5208"/>
<polygon fill="#191970" stroke="#191970" points="985.109,-383.7488 993.7382,-377.6017 983.159,-377.0259 985.109,-383.7488"/>
</g>
<!-- Node31 -->
<g id="node32" class="node">
<title>Node31</title>
<polygon fill="#ffffff" stroke="#bfbfbf" points="631.3052,-353 631.3052,-372 708.3052,-372 708.3052,-353 631.3052,-353"/>
<text text-anchor="middle" x="669.8052" y="-360" font-family="Helvetica,sans-Serif" font-size="10.00" fill="#000000">sys/mman.h</text>
</g>
<!-- Node27&#45;&gt;Node31 -->
<g id="edge43" class="edge">
<title>Node27&#45;&gt;Node31</title>
<path fill="none" stroke="#191970" d="M782.2644,-414.4639C757.6065,-403.0702 723.9804,-387.5327 699.9346,-376.4219"/>
<polygon fill="#191970" stroke="#191970" points="701.1357,-373.1213 690.5898,-372.1039 698.1995,-379.4757 701.1357,-373.1213"/>
</g>
<!-- Node32 -->
<g id="node33" class="node">
<title>Node32</title>
<polygon fill="#ffffff" stroke="#bfbfbf" points="726.3052,-353 726.3052,-372 779.3052,-372 779.3052,-353 726.3052,-353"/>
<text text-anchor="middle" x="752.8052" y="-360" font-family="Helvetica,sans-Serif" font-size="10.00" fill="#000000">stdlib.h</text>
</g>
<!-- Node27&#45;&gt;Node32 -->
<g id="edge46" class="edge">
<title>Node27&#45;&gt;Node32</title>
<path fill="none" stroke="#191970" d="M800.7365,-414.2967C791.1704,-403.9591 778.5014,-390.2684 768.5909,-379.5588"/>
<polygon fill="#191970" stroke="#191970" points="771.0079,-377.0175 761.6471,-372.055 765.8702,-381.7718 771.0079,-377.0175"/>
</g>
<!-- Node28&#45;&gt;Node6 -->
<g id="edge38" class="edge">
<title>Node28&#45;&gt;Node6</title>
<path fill="none" stroke="#191970" d="M987.777,-349.2419C983.0648,-348.3992 978.3642,-347.6357 973.8052,-347 746.0954,-315.2467 473.9373,-305.3355 344.0675,-302.3014"/>
<polygon fill="#191970" stroke="#191970" points="343.9099,-298.797 333.8332,-302.0697 343.7514,-305.7952 343.9099,-298.797"/>
</g>
<!-- Node28&#45;&gt;Node10 -->
<g id="edge39" class="edge">
<title>Node28&#45;&gt;Node10</title>
<path fill="none" stroke="#191970" d="M1016.6217,-347.4178C973.6817,-325.2261 893.4394,-283.7563 845.9048,-259.1901"/>
<polygon fill="#191970" stroke="#191970" points="847.3454,-255.9949 836.8548,-254.513 844.1316,-262.2135 847.3454,-255.9949"/>
</g>
<!-- Node29 -->
<g id="node30" class="node">
<title>Node29</title>
<polygon fill="#ffffff" stroke="#bfbfbf" points="970.8052,-291.5 970.8052,-310.5 1020.8052,-310.5 1020.8052,-291.5 970.8052,-291.5"/>
<text text-anchor="middle" x="995.8052" y="-298.5" font-family="Helvetica,sans-Serif" font-size="10.00" fill="#000000">chrono</text>
</g>
<!-- Node28&#45;&gt;Node29 -->
<g id="edge40" class="edge">
<title>Node28&#45;&gt;Node29</title>
<path fill="none" stroke="#191970" d="M1033.4457,-347.2977C1026.4329,-338.672 1017.6192,-327.8312 1010.2838,-318.8087"/>
<polygon fill="#191970" stroke="#191970" points="1012.8349,-316.3982 1003.8108,-310.8469 1007.4035,-320.8141 1012.8349,-316.3982"/>
</g>
<!-- Node30 -->
<g id="node31" class="node">
<title>Node30</title>
<polygon fill="#ffffff" stroke="#bfbfbf" points="1038.8052,-291.5 1038.8052,-310.5 1086.8052,-310.5 1086.8052,-291.5 1038.8052,-291.5"/>
<text text-anchor="middle" x="1062.8052" y="-298.5" font-family="Helvetica,sans-Serif" font-size="10.00" fill="#000000">thread</text>
</g>
<!-- Node28&#45;&gt;Node30 -->
<g id="edge41" class="edge">
<title>Node28&#45;&gt;Node30</title>
<path fill="none" stroke="#191970" d="M1050.0075,-347.2977C1052.2443,-339.2055 1055.0201,-329.1639 1057.4142,-320.5029"/>
<polygon fill="#191970" stroke="#191970" points="1060.7924,-321.418 1060.0833,-310.8469 1054.0454,-319.5529 1060.7924,-321.418"/>
</g>
<!-- Node33&#45;&gt;Node2 -->
<g id="edge49" class="edge">
<title>Node33&#45;&gt;Node2</title>
<path fill="none" stroke="#191970" d="M520.7353,-481.4955C523.5918,-472.201 528.0429,-457.6415 531.8052,-445 538.2276,-423.4206 545.4198,-398.6083 550.2414,-381.877"/>
<polygon fill="#191970" stroke="#191970" points="553.6344,-382.7421 553.0357,-372.1642 546.9073,-380.8067 553.6344,-382.7421"/>
</g>
<!-- Node33&#45;&gt;Node4 -->
<g id="edge51" class="edge">
<title>Node33&#45;&gt;Node4</title>
<path fill="none" stroke="#191970" d="M512.9472,-481.2526C504.3848,-465.026 485.0929,-432.4393 459.8052,-414 424.5522,-388.2941 375.3866,-374.5845 343.5743,-367.929"/>
<polygon fill="#191970" stroke="#191970" points="343.9853,-364.4426 333.4961,-365.9352 342.6267,-371.3095 343.9853,-364.4426"/>
</g>
<!-- Node33&#45;&gt;Node5 -->
<g id="edge52" class="edge">
<title>Node33&#45;&gt;Node5</title>
<path fill="none" stroke="#191970" d="M454.2235,-482.2148C387.7623,-473.0135 280.4482,-458.1049 187.8052,-445 175.9366,-443.3211 163.3364,-441.5251 151.0915,-439.7725"/>
<polygon fill="#191970" stroke="#191970" points="151.3086,-436.268 140.9132,-438.3141 150.3156,-443.1972 151.3086,-436.268"/>
</g>
<!-- Node33&#45;&gt;Node25 -->
<g id="edge50" class="edge">
<title>Node33&#45;&gt;Node25</title>
<path fill="none" stroke="#191970" d="M515.3452,-481.1815C506.4365,-445.9681 474.551,-322.865 439.8052,-224 425.1369,-182.263 410.4142,-175.3938 401.8052,-132 400.0754,-123.281 397.6374,-119.8512 401.8052,-112 409.2984,-97.8844 423.2725,-87.3093 436.6128,-79.8813"/>
<polygon fill="#191970" stroke="#191970" points="438.3621,-82.9176 445.6598,-75.2367 435.1651,-76.6903 438.3621,-82.9176"/>
</g>
<!-- Node33&#45;&gt;Node27 -->
<g id="edge53" class="edge">
<title>Node33&#45;&gt;Node27</title>
<path fill="none" stroke="#191970" d="M563.8856,-481.4581C613.7627,-471.13 693.6948,-454.5784 749.9129,-442.9373"/>
<polygon fill="#191970" stroke="#191970" points="750.6885,-446.351 759.7711,-440.896 749.2691,-439.4964 750.6885,-446.351"/>
</g>
<!-- Node33&#45;&gt;Node34 -->
<g id="edge54" class="edge">
<title>Node33&#45;&gt;Node34</title>
<path fill="none" stroke="#191970" d="M477.4655,-481.4581C431.8284,-470.6632 357.4483,-453.0694 308.0713,-441.3899"/>
<polygon fill="#191970" stroke="#191970" points="308.7767,-437.9602 298.2396,-439.0643 307.1654,-444.7722 308.7767,-437.9602"/>
</g>
<!-- Node33&#45;&gt;Node35 -->
<g id="edge58" class="edge">
<title>Node33&#45;&gt;Node35</title>
<path fill="none" stroke="#191970" d="M534.524,-481.3906C551.8774,-471.4165 579.2375,-455.6908 599.2934,-444.1633"/>
<polygon fill="#191970" stroke="#191970" points="601.278,-447.0596 608.2039,-439.0419 597.7898,-440.9907 601.278,-447.0596"/>
</g>
<!-- Node36 -->
<g id="node37" class="node">
<title>Node36</title>
<g id="a_node37"><a xlink:href="dynamic__allocator_8h.html" target="_top" xlink:title="This file provides the dynamic allocator for ArgoDSM. ">
<polygon fill="#ffffff" stroke="#000000" points="336.3052,-420 336.3052,-439 451.3052,-439 451.3052,-420 336.3052,-420"/>
<text text-anchor="middle" x="393.8052" y="-427" font-family="Helvetica,sans-Serif" font-size="10.00" fill="#000000">dynamic_allocator.h</text>
</a>
</g>
</g>
<!-- Node33&#45;&gt;Node36 -->
<g id="edge59" class="edge">
<title>Node33&#45;&gt;Node36</title>
<path fill="none" stroke="#191970" d="M498.4302,-481.3906C477.9557,-471.2359 445.4611,-455.1196 422.1167,-443.5416"/>
<polygon fill="#191970" stroke="#191970" points="423.558,-440.3496 413.0442,-439.0419 420.4477,-446.6207 423.558,-440.3496"/>
</g>
<!-- Node34&#45;&gt;Node2 -->
<g id="edge55" class="edge">
<title>Node34&#45;&gt;Node2</title>
<path fill="none" stroke="#191970" d="M300.1849,-419.9717C361.5202,-406.1815 473.4743,-381.0106 526.4836,-369.0924"/>
<polygon fill="#191970" stroke="#191970" points="527.5758,-372.4343 536.5644,-366.8259 526.0402,-365.6048 527.5758,-372.4343"/>
</g>
<!-- Node34&#45;&gt;Node4 -->
<g id="edge56" class="edge">
<title>Node34&#45;&gt;Node4</title>
<path fill="none" stroke="#191970" d="M265.5421,-419.9005C273.8827,-409.552 287.3407,-392.8542 297.5964,-380.1295"/>
<polygon fill="#191970" stroke="#191970" points="300.5325,-382.064 304.0827,-372.0817 295.0823,-377.6713 300.5325,-382.064"/>
</g>
<!-- Node34&#45;&gt;Node6 -->
<g id="edge57" class="edge">
<title>Node34&#45;&gt;Node6</title>
<path fill="none" stroke="#191970" d="M258.5568,-419.8416C260.1857,-398.9114 264.0695,-349.004 266.2506,-320.9762"/>
<polygon fill="#191970" stroke="#191970" points="269.7584,-321.0119 267.0449,-310.7705 262.7795,-320.4687 269.7584,-321.0119"/>
</g>
<!-- Node38&#45;&gt;Node2 -->
<g id="edge68" class="edge">
<title>Node38&#45;&gt;Node2</title>
<path fill="none" stroke="#191970" d="M753.1055,-542.8584C748.1897,-517.8287 731.6195,-450.2161 690.8052,-414 652.0124,-379.5777 626.6501,-400.2561 579.8052,-378 579.2592,-377.7406 578.7108,-377.4707 578.1614,-377.192"/>
<polygon fill="#191970" stroke="#191970" points="579.8228,-374.11 569.4105,-372.1521 576.3292,-380.1759 579.8228,-374.11"/>
</g>
<!-- Node39 -->
<g id="node40" class="node">
<title>Node39</title>
<polygon fill="#ffffff" stroke="#bfbfbf" points="859.8052,-481.5 859.8052,-500.5 909.8052,-500.5 909.8052,-481.5 859.8052,-481.5"/>
<text text-anchor="middle" x="884.8052" y="-488.5" font-family="Helvetica,sans-Serif" font-size="10.00" fill="#000000">atomic</text>
</g>
<!-- Node38&#45;&gt;Node39 -->
<g id="edge67" class="edge">
<title>Node38&#45;&gt;Node39</title>
<path fill="none" stroke="#191970" d="M775.1177,-542.8906C796.6783,-532.6908 830.953,-516.4763 855.4496,-504.8875"/>
<polygon fill="#191970" stroke="#191970" points="857.0926,-507.9822 864.6354,-500.5419 854.0991,-501.6545 857.0926,-507.9822"/>
</g>
<!-- Node40&#45;&gt;Node39 -->
<g id="edge70" class="edge">
<title>Node40&#45;&gt;Node39</title>
<path fill="none" stroke="#191970" d="M905.899,-542.8906C902.3606,-534.1862 897.0416,-521.1015 892.6302,-510.2494"/>
<polygon fill="#191970" stroke="#191970" points="895.7747,-508.6907 888.7665,-500.7449 889.29,-511.3268 895.7747,-508.6907"/>
</g>
</g>
</svg>
