<?xml version="1.0" encoding="UTF-8" standalone="no"?>
<!DOCTYPE svg PUBLIC "-//W3C//DTD SVG 1.1//EN"
 "http://www.w3.org/Graphics/SVG/1.1/DTD/svg11.dtd">
<!-- Generated by graphviz version 2.40.1 (20161225.0304)
 -->
<!-- Title: collective_free Pages: 1 -->
<svg width="417pt" height="116pt"
 viewBox="0.00 0.00 417.00 116.00" xmlns="http://www.w3.org/2000/svg" xmlns:xlink="http://www.w3.org/1999/xlink">
<g id="graph0" class="graph" transform="scale(1 1) rotate(0) translate(4 112)">
<title>collective_free</title>
<polygon fill="#ffffff" stroke="transparent" points="-4,4 -4,-112 413,-112 413,4 -4,4"/>
<!-- Node2 -->
<g id="node1" class="node">
<title>Node2</title>
<polygon fill="#bfbfbf" stroke="#000000" points="0,-45.5 0,-64.5 89,-64.5 89,-45.5 0,-45.5"/>
<text text-anchor="middle" x="44.5" y="-52.5" font-family="Helvetica,sans-Serif" font-size="10.00" fill="#000000">collective_free</text>
</g>
<!-- Node3 -->
<g id="node2" class="node">
<title>Node3</title>
<g id="a_node2"><a xlink:href="tests_2allocators_8cpp_a13fc720238a04e385587d7b2cef0f3bc.html#a13fc720238a04e385587d7b2cef0f3bc" target="_top" xlink:title="Test if it is possible to delete a null pointer with no errors. ">
<polygon fill="#ffffff" stroke="#000000" points="318,-88.5 318,-107.5 369,-107.5 369,-88.5 318,-88.5"/>
<text text-anchor="middle" x="343.5" y="-95.5" font-family="Helvetica,sans-Serif" font-size="10.00" fill="#000000">TEST_F</text>
</a>
</g>
</g>
<!-- Node2&#45;&gt;Node3 -->
<g id="edge1" class="edge">
<title>Node2&#45;&gt;Node3</title>
<path fill="none" stroke="#191970" d="M90.7602,-66.9406C101.9174,-69.5366 113.8404,-72.0776 125,-74 194.1991,-85.9207 276.802,-93.1038 317.7923,-96.2014"/>
<polygon fill="#191970" stroke="#191970" points="91.3123,-63.4741 80.7729,-64.5572 89.6873,-70.2829 91.3123,-63.4741"/>
</g>
<!-- Node4 -->
<g id="node3" class="node">
<title>Node4</title>
<g id="a_node3"><a xlink:href="namespaceargo_a09ca0ec2df9dbed721fb14b26cfa39a3.html#a09ca0ec2df9dbed721fb14b26cfa39a3" target="_top" xlink:title="template function to delete objects that were allocated using collective_new ">
<polygon fill="#ffffff" stroke="#000000" points="137.5,-45.5 137.5,-64.5 229.5,-64.5 229.5,-45.5 137.5,-45.5"/>
<text text-anchor="middle" x="183.5" y="-52.5" font-family="Helvetica,sans-Serif" font-size="10.00" fill="#000000">argo::codelete_</text>
</a>
</g>
</g>
<!-- Node2&#45;&gt;Node4 -->
<g id="edge2" class="edge">
<title>Node2&#45;&gt;Node4</title>
<path fill="none" stroke="#191970" d="M99.5793,-55C112.1096,-55 125.2941,-55 137.4051,-55"/>
<polygon fill="#191970" stroke="#191970" points="99.2456,-51.5001 89.2456,-55 99.2456,-58.5001 99.2456,-51.5001"/>
</g>
<!-- Node6 -->
<g id="node5" class="node">
<title>Node6</title>
<g id="a_node5"><a xlink:href="namespaceargo_aa7e8ddf5784dd37c965cfd43cd65a330.html#aa7e8ddf5784dd37c965cfd43cd65a330" target="_top" xlink:title="Delete a globally collectively allocated array of objects. ">
<polygon fill="#ffffff" stroke="#000000" points="125,-4.5 125,-23.5 242,-23.5 242,-4.5 125,-4.5"/>
<text text-anchor="middle" x="183.5" y="-11.5" font-family="Helvetica,sans-Serif" font-size="10.00" fill="#000000">argo::codelete_array</text>
</a>
</g>
</g>
<!-- Node2&#45;&gt;Node6 -->
<g id="edge5" class="edge">
<title>Node2&#45;&gt;Node6</title>
<path fill="none" stroke="#191970" d="M86.5353,-42.6011C107.2052,-36.5042 131.7376,-29.2681 150.9546,-23.5997"/>
<polygon fill="#191970" stroke="#191970" points="85.34,-39.3045 76.7388,-45.4907 87.3204,-46.0185 85.34,-39.3045"/>
</g>
<!-- Node4&#45;&gt;Node3 -->
<g id="edge3" class="edge">
<title>Node4&#45;&gt;Node3</title>
<path fill="none" stroke="#191970" d="M228.8191,-67.1795C257.5141,-74.8913 293.5909,-84.5869 317.5375,-91.0226"/>
<polygon fill="#191970" stroke="#191970" points="229.5749,-63.7585 219.0092,-64.5431 227.7581,-70.5186 229.5749,-63.7585"/>
</g>
<!-- Node5 -->
<g id="node4" class="node">
<title>Node5</title>
<g id="a_node4"><a xlink:href="classargo_1_1globallock_1_1cohort__lock_a48e63a5ba24a93d3799a3993c663a30b.html#a48e63a5ba24a93d3799a3993c663a30b" target="_top" xlink:title="argo::globallock::cohort\l_lock::~cohort_lock">
<polygon fill="#ffffff" stroke="#000000" points="278,-39 278,-69 409,-69 409,-39 278,-39"/>
<text text-anchor="start" x="286" y="-57" font-family="Helvetica,sans-Serif" font-size="10.00" fill="#000000">argo::globallock::cohort</text>
<text text-anchor="middle" x="343.5" y="-46" font-family="Helvetica,sans-Serif" font-size="10.00" fill="#000000">_lock::~cohort_lock</text>
</a>
</g>
</g>
<!-- Node4&#45;&gt;Node5 -->
<g id="edge4" class="edge">
<title>Node4&#45;&gt;Node5</title>
<path fill="none" stroke="#191970" d="M239.9017,-54.6475C252.2169,-54.5705 265.3515,-54.4884 277.9873,-54.4095"/>
<polygon fill="#191970" stroke="#191970" points="239.7565,-51.1482 229.7786,-54.7108 239.8003,-58.1481 239.7565,-51.1482"/>
</g>
<!-- Node7 -->
<g id="node6" class="node">
<title>Node7</title>
<g id="a_node6"><a xlink:href="tests_2allocators_8cpp_a0571f7229f019db2f46d8f56bebd01d0.html#a0571f7229f019db2f46d8f56bebd01d0" target="_top" xlink:title="mixes dynamic and collective allocation and stores dynamic arrays in a collective arrays to communica...">
<polygon fill="#ffffff" stroke="#000000" points="318,-.5 318,-19.5 369,-19.5 369,-.5 318,-.5"/>
<text text-anchor="middle" x="343.5" y="-7.5" font-family="Helvetica,sans-Serif" font-size="10.00" fill="#000000">TEST_F</text>
</a>
</g>
</g>
<!-- Node6&#45;&gt;Node7 -->
<g id="edge6" class="edge">
<title>Node6&#45;&gt;Node7</title>
<path fill="none" stroke="#191970" d="M252.3769,-12.2781C275.6168,-11.6971 300.134,-11.0842 317.8764,-10.6406"/>
<polygon fill="#191970" stroke="#191970" points="252.0789,-8.7843 242.1696,-12.5333 252.2539,-15.7822 252.0789,-8.7843"/>
</g>
</g>
</svg>
