<?xml version="1.0" encoding="UTF-8" standalone="no"?>
<!DOCTYPE svg PUBLIC "-//W3C//DTD SVG 1.1//EN"
 "http://www.w3.org/Graphics/SVG/1.1/DTD/svg11.dtd">
<!-- Generated by graphviz version 2.40.1 (20161225.0304)
 -->
<!-- Title: /home/atmerhannah/argodsm/src/allocators/collective_allocator.hpp Pages: 1 -->
<svg width="1599pt" height="587pt"
 viewBox="0.00 0.00 1598.50 587.00" xmlns="http://www.w3.org/2000/svg" xmlns:xlink="http://www.w3.org/1999/xlink">
<g id="graph0" class="graph" transform="scale(1 1) rotate(0) translate(4 583)">
<title>/home/atmerhannah/argodsm/src/allocators/collective_allocator.hpp</title>
<polygon fill="#ffffff" stroke="transparent" points="-4,4 -4,-583 1594.5,-583 1594.5,4 -4,4"/>
<!-- Node0 -->
<g id="node1" class="node">
<title>Node0</title>
<polygon fill="#bfbfbf" stroke="#000000" points="445,-537.5 445,-578.5 606,-578.5 606,-537.5 445,-537.5"/>
<text text-anchor="start" x="453" y="-566.5" font-family="Helvetica,sans-Serif" font-size="10.00" fill="#000000">/home/atmerhannah/argodsm</text>
<text text-anchor="start" x="453" y="-555.5" font-family="Helvetica,sans-Serif" font-size="10.00" fill="#000000">/src/allocators/collective</text>
<text text-anchor="middle" x="525.5" y="-544.5" font-family="Helvetica,sans-Serif" font-size="10.00" fill="#000000">_allocator.hpp</text>
</g>
<!-- Node1 -->
<g id="node2" class="node">
<title>Node1</title>
<polygon fill="#ffffff" stroke="#bfbfbf" points="180.5,-353 180.5,-372 218.5,-372 218.5,-353 180.5,-353"/>
<text text-anchor="middle" x="199.5" y="-360" font-family="Helvetica,sans-Serif" font-size="10.00" fill="#000000">map</text>
</g>
<!-- Node0&#45;&gt;Node1 -->
<g id="edge1" class="edge">
<title>Node0&#45;&gt;Node1</title>
<path fill="none" stroke="#191970" d="M444.7733,-548.6169C376.1173,-536.3783 279.8024,-508.4267 222.5,-445 206.8987,-427.7313 201.777,-400.7402 200.1524,-382.37"/>
<polygon fill="#191970" stroke="#191970" points="203.635,-381.9774 199.5303,-372.21 196.6481,-382.4052 203.635,-381.9774"/>
</g>
<!-- Node2 -->
<g id="node3" class="node">
<title>Node2</title>
<polygon fill="#ffffff" stroke="#bfbfbf" points="1532.5,-353 1532.5,-372 1590.5,-372 1590.5,-353 1532.5,-353"/>
<text text-anchor="middle" x="1561.5" y="-360" font-family="Helvetica,sans-Serif" font-size="10.00" fill="#000000">memory</text>
</g>
<!-- Node0&#45;&gt;Node2 -->
<g id="edge2" class="edge">
<title>Node0&#45;&gt;Node2</title>
<path fill="none" stroke="#191970" d="M606.0844,-538.7442C676.4375,-522.2751 781.4077,-498.5255 873.5,-481 1158.6808,-426.7292 1237.3817,-450.4285 1518.5,-378 1521.4778,-377.2328 1524.5393,-376.3427 1527.5909,-375.3845"/>
<polygon fill="#191970" stroke="#191970" points="1528.8259,-378.662 1537.1903,-372.1591 1526.5963,-372.0265 1528.8259,-378.662"/>
</g>
<!-- Node3 -->
<g id="node4" class="node">
<title>Node3</title>
<polygon fill="#ffffff" stroke="#bfbfbf" points="0,-353 0,-372 43,-372 43,-353 0,-353"/>
<text text-anchor="middle" x="21.5" y="-360" font-family="Helvetica,sans-Serif" font-size="10.00" fill="#000000">stack</text>
</g>
<!-- Node0&#45;&gt;Node3 -->
<g id="edge3" class="edge">
<title>Node0&#45;&gt;Node3</title>
<path fill="none" stroke="#191970" d="M444.825,-551.4213C368.6431,-543.8595 251.7454,-528.7498 153.5,-501 91.7777,-483.5663 55.9773,-498.4317 20.5,-445 8.1645,-426.4217 11.2026,-399.9276 15.4776,-382.0169"/>
<polygon fill="#191970" stroke="#191970" points="18.9217,-382.6901 18.1728,-372.1218 12.1677,-380.8504 18.9217,-382.6901"/>
</g>
<!-- Node4 -->
<g id="node5" class="node">
<title>Node4</title>
<g id="a_node5"><a xlink:href="dynamic__mempool_8hpp.html" target="_top" xlink:title="This file provides a dynamically growing memory pool for ArgoDSM. ">
<polygon fill="#ffffff" stroke="#000000" points="265.5,-414.5 265.5,-444.5 387.5,-444.5 387.5,-414.5 265.5,-414.5"/>
<text text-anchor="start" x="273.5" y="-432.5" font-family="Helvetica,sans-Serif" font-size="10.00" fill="#000000">../mempools/dynamic</text>
<text text-anchor="middle" x="326.5" y="-421.5" font-family="Helvetica,sans-Serif" font-size="10.00" fill="#000000">_mempool.hpp</text>
</a>
</g>
</g>
<!-- Node0&#45;&gt;Node4 -->
<g id="edge4" class="edge">
<title>Node0&#45;&gt;Node4</title>
<path fill="none" stroke="#191970" d="M460.9858,-537.4409C437.592,-528.3106 411.7219,-516.1539 390.5,-501 371.8536,-487.6852 354.7705,-468.0405 342.9527,-452.7101"/>
<polygon fill="#191970" stroke="#191970" points="345.7507,-450.6073 336.9525,-444.7046 340.1494,-454.8056 345.7507,-450.6073"/>
</g>
<!-- Node5 -->
<g id="node6" class="node">
<title>Node5</title>
<g id="a_node6"><a xlink:href="backend_8hpp.html" target="_top" xlink:title="This file provides the backend interface. ">
<polygon fill="#ffffff" stroke="#000000" points="388.5,-291.5 388.5,-310.5 520.5,-310.5 520.5,-291.5 388.5,-291.5"/>
<text text-anchor="middle" x="454.5" y="-298.5" font-family="Helvetica,sans-Serif" font-size="10.00" fill="#000000">../backend/backend.hpp</text>
</a>
</g>
</g>
<!-- Node0&#45;&gt;Node5 -->
<g id="edge46" class="edge">
<title>Node0&#45;&gt;Node5</title>
<path fill="none" stroke="#191970" d="M530.8613,-537.2465C537.2409,-508.5945 545.2947,-455.7318 530.5,-414 517.1689,-376.3967 488.3896,-339.2675 470.321,-318.3267"/>
<polygon fill="#191970" stroke="#191970" points="472.7727,-315.8153 463.531,-310.6342 467.5246,-320.4476 472.7727,-315.8153"/>
</g>
<!-- Node26 -->
<g id="node27" class="node">
<title>Node26</title>
<g id="a_node27"><a xlink:href="global__mempool_8hpp.html" target="_top" xlink:title="This file provides a dynamically growing memory pool for ArgoDSM. ">
<polygon fill="#ffffff" stroke="#000000" points="616.5,-414.5 616.5,-444.5 726.5,-444.5 726.5,-414.5 616.5,-414.5"/>
<text text-anchor="start" x="624.5" y="-432.5" font-family="Helvetica,sans-Serif" font-size="10.00" fill="#000000">../mempools/global</text>
<text text-anchor="middle" x="671.5" y="-421.5" font-family="Helvetica,sans-Serif" font-size="10.00" fill="#000000">_mempool.hpp</text>
</a>
</g>
</g>
<!-- Node0&#45;&gt;Node26 -->
<g id="edge34" class="edge">
<title>Node0&#45;&gt;Node26</title>
<path fill="none" stroke="#191970" d="M555.186,-537.351C569.5747,-526.9418 586.8653,-513.8292 601.5,-501 619.0249,-485.6372 637.4058,-466.7404 650.9328,-452.2325"/>
<polygon fill="#191970" stroke="#191970" points="653.6993,-454.3956 657.9122,-444.6744 648.5566,-449.6467 653.6993,-454.3956"/>
</g>
<!-- Node32 -->
<g id="node33" class="node">
<title>Node32</title>
<g id="a_node33"><a xlink:href="dynamic__allocator_8hpp.html" target="_top" xlink:title="This file provides the dynamic allocator for ArgoDSM. ">
<polygon fill="#ffffff" stroke="#000000" points="400,-481.5 400,-500.5 527,-500.5 527,-481.5 400,-481.5"/>
<text text-anchor="middle" x="463.5" y="-488.5" font-family="Helvetica,sans-Serif" font-size="10.00" fill="#000000">dynamic_allocator.hpp</text>
</a>
</g>
</g>
<!-- Node0&#45;&gt;Node32 -->
<g id="edge47" class="edge">
<title>Node0&#45;&gt;Node32</title>
<path fill="none" stroke="#191970" d="M506.2227,-537.168C497.6224,-527.8742 487.6105,-517.0549 479.4414,-508.227"/>
<polygon fill="#191970" stroke="#191970" points="481.9114,-505.743 472.5506,-500.7805 476.7736,-510.4973 481.9114,-505.743"/>
</g>
<!-- Node33 -->
<g id="node34" class="node">
<title>Node33</title>
<g id="a_node34"><a xlink:href="generic__allocator_8hpp.html" target="_top" xlink:title="This file provides a generic allocator template for ArgoDSM. ">
<polygon fill="#ffffff" stroke="#000000" points="50,-420 50,-439 171,-439 171,-420 50,-420"/>
<text text-anchor="middle" x="110.5" y="-427" font-family="Helvetica,sans-Serif" font-size="10.00" fill="#000000">generic_allocator.hpp</text>
</a>
</g>
</g>
<!-- Node0&#45;&gt;Node33 -->
<g id="edge59" class="edge">
<title>Node0&#45;&gt;Node33</title>
<path fill="none" stroke="#191970" d="M444.6767,-549.9729C358.9182,-540.4879 229.7949,-523.1563 185.5,-501 159.8792,-488.1845 137.1127,-463.6468 123.5631,-446.9289"/>
<polygon fill="#191970" stroke="#191970" points="126.2746,-444.7148 117.3513,-439.0029 120.7651,-449.0327 126.2746,-444.7148"/>
</g>
<!-- Node34 -->
<g id="node35" class="node">
<title>Node34</title>
<g id="a_node35"><a xlink:href="null__lock_8hpp.html" target="_top" xlink:title="dummy lock, not intended for public use ">
<polygon fill="#ffffff" stroke="#000000" points="745,-420 745,-439 826,-439 826,-420 745,-420"/>
<text text-anchor="middle" x="785.5" y="-427" font-family="Helvetica,sans-Serif" font-size="10.00" fill="#000000">null_lock.hpp</text>
</a>
</g>
</g>
<!-- Node0&#45;&gt;Node34 -->
<g id="edge60" class="edge">
<title>Node0&#45;&gt;Node34</title>
<path fill="none" stroke="#191970" d="M566.9853,-537.4967C620.1232,-511.2343 710.8365,-466.401 756.8777,-443.646"/>
<polygon fill="#191970" stroke="#191970" points="758.5806,-446.7086 765.9947,-439.1401 755.4791,-440.4332 758.5806,-446.7086"/>
</g>
<!-- Node36 -->
<g id="node37" class="node">
<title>Node36</title>
<g id="a_node37"><a xlink:href="collective__allocator_8h.html" target="_top" xlink:title="This file provides the collective allocator for ArgoDSM. ">
<polygon fill="#ffffff" stroke="#000000" points="882.5,-481.5 882.5,-500.5 1002.5,-500.5 1002.5,-481.5 882.5,-481.5"/>
<text text-anchor="middle" x="942.5" y="-488.5" font-family="Helvetica,sans-Serif" font-size="10.00" fill="#000000">collective_allocator.h</text>
</a>
</g>
</g>
<!-- Node0&#45;&gt;Node36 -->
<g id="edge61" class="edge">
<title>Node0&#45;&gt;Node36</title>
<path fill="none" stroke="#191970" d="M606.3962,-545.0023C683.9855,-532.5359 799.8813,-513.9148 873.3009,-502.1183"/>
<polygon fill="#191970" stroke="#191970" points="874.0523,-505.5426 883.3704,-500.5004 872.9418,-498.6312 874.0523,-505.5426"/>
</g>
<!-- Node4&#45;&gt;Node5 -->
<g id="edge5" class="edge">
<title>Node4&#45;&gt;Node5</title>
<path fill="none" stroke="#191970" d="M345.4676,-414.3588C357.5762,-404.4202 373.4014,-390.9152 386.5,-378 406.109,-358.6655 426.8013,-334.6424 440.1367,-318.6203"/>
<polygon fill="#191970" stroke="#191970" points="443.0705,-320.5639 446.7347,-310.6228 437.671,-316.1091 443.0705,-320.5639"/>
</g>
<!-- Node25 -->
<g id="node26" class="node">
<title>Node25</title>
<g id="a_node26"><a xlink:href="broadcast_8hpp.html" target="_top" xlink:title="This file provides a broadcasting facility for a single value. ">
<polygon fill="#ffffff" stroke="#000000" points="275,-347.5 275,-377.5 378,-377.5 378,-347.5 275,-347.5"/>
<text text-anchor="start" x="283" y="-365.5" font-family="Helvetica,sans-Serif" font-size="10.00" fill="#000000">../synchronization</text>
<text text-anchor="middle" x="326.5" y="-354.5" font-family="Helvetica,sans-Serif" font-size="10.00" fill="#000000">/broadcast.hpp</text>
</a>
</g>
</g>
<!-- Node4&#45;&gt;Node25 -->
<g id="edge31" class="edge">
<title>Node4&#45;&gt;Node25</title>
<path fill="none" stroke="#191970" d="M326.5,-414.2967C326.5,-406.5013 326.5,-396.7991 326.5,-387.9064"/>
<polygon fill="#191970" stroke="#191970" points="330.0001,-387.6431 326.5,-377.6432 323.0001,-387.6432 330.0001,-387.6431"/>
</g>
<!-- Node6 -->
<g id="node7" class="node">
<title>Node6</title>
<polygon fill="#ffffff" stroke="#bfbfbf" points="430.5,-230 430.5,-249 482.5,-249 482.5,-230 430.5,-230"/>
<text text-anchor="middle" x="456.5" y="-237" font-family="Helvetica,sans-Serif" font-size="10.00" fill="#000000">cassert</text>
</g>
<!-- Node5&#45;&gt;Node6 -->
<g id="edge6" class="edge">
<title>Node5&#45;&gt;Node6</title>
<path fill="none" stroke="#191970" d="M454.8125,-291.3906C455.0897,-282.8657 455.5036,-270.1392 455.8521,-259.4235"/>
<polygon fill="#191970" stroke="#191970" points="459.3561,-259.3534 456.1831,-249.2449 452.3598,-259.1258 459.3561,-259.3534"/>
</g>
<!-- Node7 -->
<g id="node8" class="node">
<title>Node7</title>
<polygon fill="#ffffff" stroke="#bfbfbf" points="278.5,-230 278.5,-249 328.5,-249 328.5,-230 278.5,-230"/>
<text text-anchor="middle" x="303.5" y="-237" font-family="Helvetica,sans-Serif" font-size="10.00" fill="#000000">cstdint</text>
</g>
<!-- Node5&#45;&gt;Node7 -->
<g id="edge7" class="edge">
<title>Node5&#45;&gt;Node7</title>
<path fill="none" stroke="#191970" d="M428.7786,-291.3382C404.9662,-282.2872 368.6444,-268.2105 337.5,-255 336.1189,-254.4142 334.7099,-253.8077 333.2893,-253.1892"/>
<polygon fill="#191970" stroke="#191970" points="334.4778,-249.8872 323.9185,-249.0209 331.6329,-256.283 334.4778,-249.8872"/>
</g>
<!-- Node8 -->
<g id="node9" class="node">
<title>Node8</title>
<polygon fill="#ffffff" stroke="#bfbfbf" points="347,-230 347,-249 412,-249 412,-230 347,-230"/>
<text text-anchor="middle" x="379.5" y="-237" font-family="Helvetica,sans-Serif" font-size="10.00" fill="#000000">stdexcept</text>
</g>
<!-- Node5&#45;&gt;Node8 -->
<g id="edge8" class="edge">
<title>Node5&#45;&gt;Node8</title>
<path fill="none" stroke="#191970" d="M442.7813,-291.3906C431.1812,-281.8786 413.2021,-267.1357 399.3679,-255.7917"/>
<polygon fill="#191970" stroke="#191970" points="401.336,-252.8792 391.384,-249.2449 396.8974,-258.2921 401.336,-252.8792"/>
</g>
<!-- Node9 -->
<g id="node10" class="node">
<title>Node9</title>
<g id="a_node10"><a xlink:href="global__ptr_8hpp.html" target="_top" xlink:title="This file provides the global pointer for ArgoDSM. ">
<polygon fill="#ffffff" stroke="#000000" points="811.5,-224.5 811.5,-254.5 919.5,-254.5 919.5,-224.5 811.5,-224.5"/>
<text text-anchor="start" x="819.5" y="-242.5" font-family="Helvetica,sans-Serif" font-size="10.00" fill="#000000">../data_distribution</text>
<text text-anchor="middle" x="865.5" y="-231.5" font-family="Helvetica,sans-Serif" font-size="10.00" fill="#000000">/global_ptr.hpp</text>
</a>
</g>
</g>
<!-- Node5&#45;&gt;Node9 -->
<g id="edge9" class="edge">
<title>Node5&#45;&gt;Node9</title>
<path fill="none" stroke="#191970" d="M518.2678,-291.4581C595.303,-279.9309 724.1473,-260.6513 801.3524,-249.0987"/>
<polygon fill="#191970" stroke="#191970" points="802.0579,-252.5322 811.4298,-247.5908 801.0219,-245.6093 802.0579,-252.5322"/>
</g>
<!-- Node18 -->
<g id="node19" class="node">
<title>Node18</title>
<g id="a_node19"><a xlink:href="types_8hpp.html" target="_top" xlink:title="This file defines common types used in ArgoDSM. ">
<polygon fill="#ffffff" stroke="#000000" points="458.5,-.5 458.5,-19.5 562.5,-19.5 562.5,-.5 458.5,-.5"/>
<text text-anchor="middle" x="510.5" y="-7.5" font-family="Helvetica,sans-Serif" font-size="10.00" fill="#000000">../types/types.hpp</text>
</a>
</g>
</g>
<!-- Node5&#45;&gt;Node18 -->
<g id="edge30" class="edge">
<title>Node5&#45;&gt;Node18</title>
<path fill="none" stroke="#191970" d="M464.436,-291.3055C472.8407,-282.5605 484.5888,-268.9614 491.5,-255 507.1376,-223.4099 510.5,-213.2487 510.5,-178 510.5,-178 510.5,-178 510.5,-122 510.5,-89.7116 510.5,-52.1872 510.5,-29.8048"/>
<polygon fill="#191970" stroke="#191970" points="514.0001,-29.5883 510.5,-19.5884 507.0001,-29.5884 514.0001,-29.5883"/>
</g>
<!-- Node10 -->
<g id="node11" class="node">
<title>Node10</title>
<polygon fill="#ffffff" stroke="#bfbfbf" points="1051.5,-168.5 1051.5,-187.5 1095.5,-187.5 1095.5,-168.5 1051.5,-168.5"/>
<text text-anchor="middle" x="1073.5" y="-175.5" font-family="Helvetica,sans-Serif" font-size="10.00" fill="#000000">string</text>
</g>
<!-- Node9&#45;&gt;Node10 -->
<g id="edge10" class="edge">
<title>Node9&#45;&gt;Node10</title>
<path fill="none" stroke="#191970" d="M918.6737,-224.4623C951.6138,-215.047 995.012,-202.4642 1041.5193,-188.2481"/>
<polygon fill="#191970" stroke="#191970" points="1042.6391,-191.5657 1051.1733,-185.2872 1040.5865,-184.8734 1042.6391,-191.5657"/>
</g>
<!-- Node11 -->
<g id="node12" class="node">
<title>Node11</title>
<g id="a_node12"><a xlink:href="env_8hpp.html" target="_top" xlink:title="This file provides facilities for handling environment variables. ">
<polygon fill="#ffffff" stroke="#000000" points="670,-168.5 670,-187.5 755,-187.5 755,-168.5 670,-168.5"/>
<text text-anchor="middle" x="712.5" y="-175.5" font-family="Helvetica,sans-Serif" font-size="10.00" fill="#000000">../env/env.hpp</text>
</a>
</g>
</g>
<!-- Node9&#45;&gt;Node11 -->
<g id="edge11" class="edge">
<title>Node9&#45;&gt;Node11</title>
<path fill="none" stroke="#191970" d="M828.072,-224.4554C802.8794,-214.329 769.9593,-201.0964 745.7004,-191.3453"/>
<polygon fill="#191970" stroke="#191970" points="746.7934,-188.0125 736.2096,-187.5303 744.1827,-194.5074 746.7934,-188.0125"/>
</g>
<!-- Node13 -->
<g id="node14" class="node">
<title>Node13</title>
<g id="a_node14"><a xlink:href="data__distribution_8hpp.html" target="_top" xlink:title="This file provides an abstraction layer for distributing the shared memory space. ...">
<polygon fill="#ffffff" stroke="#000000" points="913.5,-168.5 913.5,-187.5 1033.5,-187.5 1033.5,-168.5 913.5,-168.5"/>
<text text-anchor="middle" x="973.5" y="-175.5" font-family="Helvetica,sans-Serif" font-size="10.00" fill="#000000">data_distribution.hpp</text>
</a>
</g>
</g>
<!-- Node9&#45;&gt;Node13 -->
<g id="edge13" class="edge">
<title>Node9&#45;&gt;Node13</title>
<path fill="none" stroke="#191970" d="M891.9198,-224.4554C908.9914,-214.734 931.0902,-202.15 947.9809,-192.5317"/>
<polygon fill="#191970" stroke="#191970" points="949.8059,-195.5202 956.7638,-187.5303 946.342,-189.4373 949.8059,-195.5202"/>
</g>
<!-- Node12 -->
<g id="node13" class="node">
<title>Node12</title>
<polygon fill="#ffffff" stroke="#bfbfbf" points="577,-112.5 577,-131.5 630,-131.5 630,-112.5 577,-112.5"/>
<text text-anchor="middle" x="603.5" y="-119.5" font-family="Helvetica,sans-Serif" font-size="10.00" fill="#000000">cstddef</text>
</g>
<!-- Node11&#45;&gt;Node12 -->
<g id="edge12" class="edge">
<title>Node11&#45;&gt;Node12</title>
<path fill="none" stroke="#191970" d="M693.5136,-168.2455C676.3208,-159.4125 650.7762,-146.2887 631.2868,-136.2758"/>
<polygon fill="#191970" stroke="#191970" points="632.763,-133.0993 622.2688,-131.6427 629.5641,-139.3257 632.763,-133.0993"/>
</g>
<!-- Node14 -->
<g id="node15" class="node">
<title>Node14</title>
<g id="a_node15"><a xlink:href="base__distribution_8hpp.html" target="_top" xlink:title="This file implements the base distribution class for all the policies to derive from. ">
<polygon fill="#ffffff" stroke="#000000" points="1040.5,-56.5 1040.5,-75.5 1162.5,-75.5 1162.5,-56.5 1040.5,-56.5"/>
<text text-anchor="middle" x="1101.5" y="-63.5" font-family="Helvetica,sans-Serif" font-size="10.00" fill="#000000">base_distribution.hpp</text>
</a>
</g>
</g>
<!-- Node13&#45;&gt;Node14 -->
<g id="edge14" class="edge">
<title>Node13&#45;&gt;Node14</title>
<path fill="none" stroke="#191970" d="M1033.6851,-169.0777C1036.6637,-168.6988 1039.6146,-168.3371 1042.5,-168 1087.3723,-162.7581 1417.0017,-165.3295 1447.5,-132 1453.5007,-125.4423 1453.3566,-118.6868 1447.5,-112 1429.7075,-91.6854 1268.9367,-77.3584 1172.9282,-70.53"/>
<polygon fill="#191970" stroke="#191970" points="1172.9215,-67.021 1162.7013,-69.8135 1172.4322,-74.0039 1172.9215,-67.021"/>
</g>
<!-- Node19 -->
<g id="node20" class="node">
<title>Node19</title>
<g id="a_node20"><a xlink:href="naive__distribution_8hpp.html" target="_top" xlink:title="This file implements the naive data distribution. ">
<polygon fill="#ffffff" stroke="#000000" points="815,-112.5 815,-131.5 940,-131.5 940,-112.5 815,-112.5"/>
<text text-anchor="middle" x="877.5" y="-119.5" font-family="Helvetica,sans-Serif" font-size="10.00" fill="#000000">naive_distribution.hpp</text>
</a>
</g>
</g>
<!-- Node13&#45;&gt;Node19 -->
<g id="edge19" class="edge">
<title>Node13&#45;&gt;Node19</title>
<path fill="none" stroke="#191970" d="M956.7781,-168.2455C941.9111,-159.5731 919.9534,-146.7645 902.9142,-136.825"/>
<polygon fill="#191970" stroke="#191970" points="904.4317,-133.6582 894.0303,-131.6427 900.9045,-139.7047 904.4317,-133.6582"/>
</g>
<!-- Node20 -->
<g id="node21" class="node">
<title>Node20</title>
<g id="a_node21"><a xlink:href="cyclic__distribution_8hpp.html" target="_top" xlink:title="This file implements the cyclic data distribution. ">
<polygon fill="#ffffff" stroke="#000000" points="958.5,-112.5 958.5,-131.5 1084.5,-131.5 1084.5,-112.5 958.5,-112.5"/>
<text text-anchor="middle" x="1021.5" y="-119.5" font-family="Helvetica,sans-Serif" font-size="10.00" fill="#000000">cyclic_distribution.hpp</text>
</a>
</g>
</g>
<!-- Node13&#45;&gt;Node20 -->
<g id="edge21" class="edge">
<title>Node13&#45;&gt;Node20</title>
<path fill="none" stroke="#191970" d="M981.861,-168.2455C988.675,-160.2958 998.4681,-148.8706 1006.6152,-139.3656"/>
<polygon fill="#191970" stroke="#191970" points="1009.3843,-141.513 1013.2349,-131.6427 1004.0695,-136.9575 1009.3843,-141.513"/>
</g>
<!-- Node21 -->
<g id="node22" class="node">
<title>Node21</title>
<g id="a_node22"><a xlink:href="skew__mapp__distribution_8hpp.html" target="_top" xlink:title="This file implements the skew&#45;mapp data distribution. ">
<polygon fill="#ffffff" stroke="#000000" points="1103,-112.5 1103,-131.5 1260,-131.5 1260,-112.5 1103,-112.5"/>
<text text-anchor="middle" x="1181.5" y="-119.5" font-family="Helvetica,sans-Serif" font-size="10.00" fill="#000000">skew_mapp_distribution.hpp</text>
</a>
</g>
</g>
<!-- Node13&#45;&gt;Node21 -->
<g id="edge23" class="edge">
<title>Node13&#45;&gt;Node21</title>
<path fill="none" stroke="#191970" d="M1009.2565,-168.3733C1044.4426,-158.9001 1098.2881,-144.4032 1136.3956,-134.1435"/>
<polygon fill="#191970" stroke="#191970" points="1137.4639,-137.4806 1146.2101,-131.5011 1135.644,-130.7213 1137.4639,-137.4806"/>
</g>
<!-- Node22 -->
<g id="node23" class="node">
<title>Node22</title>
<g id="a_node23"><a xlink:href="prime__mapp__distribution_8hpp.html" target="_top" xlink:title="This file implements the prime&#45;mapp data distribution. ">
<polygon fill="#ffffff" stroke="#000000" points="1278.5,-112.5 1278.5,-131.5 1438.5,-131.5 1438.5,-112.5 1278.5,-112.5"/>
<text text-anchor="middle" x="1358.5" y="-119.5" font-family="Helvetica,sans-Serif" font-size="10.00" fill="#000000">prime_mapp_distribution.hpp</text>
</a>
</g>
</g>
<!-- Node13&#45;&gt;Node22 -->
<g id="edge25" class="edge">
<title>Node13&#45;&gt;Node22</title>
<path fill="none" stroke="#191970" d="M1033.6563,-169.25C1100.9177,-159.4665 1209.9603,-143.6058 1282.924,-132.9929"/>
<polygon fill="#191970" stroke="#191970" points="1283.5799,-136.4344 1292.9719,-131.5314 1282.5722,-129.5073 1283.5799,-136.4344"/>
</g>
<!-- Node23 -->
<g id="node24" class="node">
<title>Node23</title>
<g id="a_node24"><a xlink:href="first__touch__distribution_8hpp.html" target="_top" xlink:title="This file implements the first&#45;touch data distribution. ">
<polygon fill="#ffffff" stroke="#000000" points="648,-112.5 648,-131.5 797,-131.5 797,-112.5 648,-112.5"/>
<text text-anchor="middle" x="722.5" y="-119.5" font-family="Helvetica,sans-Serif" font-size="10.00" fill="#000000">first_touch_distribution.hpp</text>
</a>
</g>
</g>
<!-- Node13&#45;&gt;Node23 -->
<g id="edge27" class="edge">
<title>Node13&#45;&gt;Node23</title>
<path fill="none" stroke="#191970" d="M930.6368,-168.4369C887.5898,-158.8328 821.1927,-144.0191 775.009,-133.7152"/>
<polygon fill="#191970" stroke="#191970" points="775.7087,-130.2853 765.1865,-131.5237 774.1843,-137.1173 775.7087,-130.2853"/>
</g>
<!-- Node15 -->
<g id="node16" class="node">
<title>Node15</title>
<polygon fill="#ffffff" stroke="#bfbfbf" points="1035,-.5 1035,-19.5 1084,-19.5 1084,-.5 1035,-.5"/>
<text text-anchor="middle" x="1059.5" y="-7.5" font-family="Helvetica,sans-Serif" font-size="10.00" fill="#000000">cstdlib</text>
</g>
<!-- Node14&#45;&gt;Node15 -->
<g id="edge15" class="edge">
<title>Node14&#45;&gt;Node15</title>
<path fill="none" stroke="#191970" d="M1094.1842,-56.2455C1088.2821,-48.3761 1079.8258,-37.101 1072.7406,-27.6542"/>
<polygon fill="#191970" stroke="#191970" points="1075.5321,-25.5427 1066.732,-19.6427 1069.932,-29.7427 1075.5321,-25.5427"/>
</g>
<!-- Node16 -->
<g id="node17" class="node">
<title>Node16</title>
<polygon fill="#ffffff" stroke="#bfbfbf" points="1318.5,-.5 1318.5,-19.5 1378.5,-19.5 1378.5,-.5 1318.5,-.5"/>
<text text-anchor="middle" x="1348.5" y="-7.5" font-family="Helvetica,sans-Serif" font-size="10.00" fill="#000000">iostream</text>
</g>
<!-- Node14&#45;&gt;Node16 -->
<g id="edge16" class="edge">
<title>Node14&#45;&gt;Node16</title>
<path fill="none" stroke="#191970" d="M1143.6802,-56.4369C1189.7952,-45.9816 1263.1415,-29.3525 1308.4123,-19.0887"/>
<polygon fill="#191970" stroke="#191970" points="1309.1996,-22.4991 1318.1782,-16.8746 1307.6518,-15.6724 1309.1996,-22.4991"/>
</g>
<!-- Node17 -->
<g id="node18" class="node">
<title>Node17</title>
<polygon fill="#ffffff" stroke="#bfbfbf" points="1102,-.5 1102,-19.5 1183,-19.5 1183,-.5 1102,-.5"/>
<text text-anchor="middle" x="1142.5" y="-7.5" font-family="Helvetica,sans-Serif" font-size="10.00" fill="#000000">system_error</text>
</g>
<!-- Node14&#45;&gt;Node17 -->
<g id="edge17" class="edge">
<title>Node14&#45;&gt;Node17</title>
<path fill="none" stroke="#191970" d="M1108.6417,-56.2455C1114.3444,-48.4564 1122.49,-37.3308 1129.3625,-27.9439"/>
<polygon fill="#191970" stroke="#191970" points="1132.3568,-29.7789 1135.4402,-19.6427 1126.7087,-25.6437 1132.3568,-29.7789"/>
</g>
<!-- Node14&#45;&gt;Node18 -->
<g id="edge18" class="edge">
<title>Node14&#45;&gt;Node18</title>
<path fill="none" stroke="#191970" d="M1040.4786,-60.2179C927.3978,-49.503 686.4603,-26.6731 572.5839,-15.8827"/>
<polygon fill="#191970" stroke="#191970" points="572.913,-12.3983 562.6274,-14.9393 572.2526,-19.3671 572.913,-12.3983"/>
</g>
<!-- Node19&#45;&gt;Node14 -->
<g id="edge20" class="edge">
<title>Node19&#45;&gt;Node14</title>
<path fill="none" stroke="#191970" d="M915.7525,-112.4369C953.8467,-102.9133 1012.4313,-88.2672 1053.5987,-77.9753"/>
<polygon fill="#191970" stroke="#191970" points="1054.5528,-81.3446 1063.4053,-75.5237 1052.855,-74.5536 1054.5528,-81.3446"/>
</g>
<!-- Node20&#45;&gt;Node14 -->
<g id="edge22" class="edge">
<title>Node20&#45;&gt;Node14</title>
<path fill="none" stroke="#191970" d="M1035.4349,-112.2455C1047.5947,-103.7337 1065.4464,-91.2375 1079.5285,-81.3801"/>
<polygon fill="#191970" stroke="#191970" points="1081.5395,-84.2447 1087.7248,-75.6427 1077.5253,-78.51 1081.5395,-84.2447"/>
</g>
<!-- Node21&#45;&gt;Node14 -->
<g id="edge24" class="edge">
<title>Node21&#45;&gt;Node14</title>
<path fill="none" stroke="#191970" d="M1167.5651,-112.2455C1155.4053,-103.7337 1137.5536,-91.2375 1123.4715,-81.3801"/>
<polygon fill="#191970" stroke="#191970" points="1125.4747,-78.51 1115.2752,-75.6427 1121.4605,-84.2447 1125.4747,-78.51"/>
</g>
<!-- Node22&#45;&gt;Node14 -->
<g id="edge26" class="edge">
<title>Node22&#45;&gt;Node14</title>
<path fill="none" stroke="#191970" d="M1314.6121,-112.4369C1270.5362,-102.8328 1202.5519,-88.0191 1155.2642,-77.7152"/>
<polygon fill="#191970" stroke="#191970" points="1155.7228,-74.233 1145.2068,-75.5237 1154.2324,-81.0725 1155.7228,-74.233"/>
</g>
<!-- Node23&#45;&gt;Node14 -->
<g id="edge29" class="edge">
<title>Node23&#45;&gt;Node14</title>
<path fill="none" stroke="#191970" d="M787.2218,-112.4369C854.8282,-102.4475 960.5776,-86.8223 1030.4536,-76.4976"/>
<polygon fill="#191970" stroke="#191970" points="1031.1131,-79.9383 1040.4941,-75.0141 1030.0899,-73.0134 1031.1131,-79.9383"/>
</g>
<!-- Node24 -->
<g id="node25" class="node">
<title>Node24</title>
<polygon fill="#ffffff" stroke="#bfbfbf" points="618.5,-56.5 618.5,-75.5 666.5,-75.5 666.5,-56.5 618.5,-56.5"/>
<text text-anchor="middle" x="642.5" y="-63.5" font-family="Helvetica,sans-Serif" font-size="10.00" fill="#000000">mutex</text>
</g>
<!-- Node23&#45;&gt;Node24 -->
<g id="edge28" class="edge">
<title>Node23&#45;&gt;Node24</title>
<path fill="none" stroke="#191970" d="M708.5651,-112.2455C696.4053,-103.7337 678.5536,-91.2375 664.4715,-81.3801"/>
<polygon fill="#191970" stroke="#191970" points="666.4747,-78.51 656.2752,-75.6427 662.4605,-84.2447 666.4747,-78.51"/>
</g>
<!-- Node25&#45;&gt;Node5 -->
<g id="edge32" class="edge">
<title>Node25&#45;&gt;Node5</title>
<path fill="none" stroke="#191970" d="M357.8123,-347.4554C378.5138,-337.509 405.4523,-324.5659 425.6353,-314.8686"/>
<polygon fill="#191970" stroke="#191970" points="427.1667,-318.0159 434.6645,-310.5303 424.1352,-311.7064 427.1667,-318.0159"/>
</g>
<!-- Node25&#45;&gt;Node18 -->
<g id="edge33" class="edge">
<title>Node25&#45;&gt;Node18</title>
<path fill="none" stroke="#191970" d="M309.2544,-347.2826C286.8312,-325.7209 250.5,-283.93 250.5,-239.5 250.5,-239.5 250.5,-239.5 250.5,-122 250.5,-77.6089 379.9552,-40.0993 456.1723,-21.8622"/>
<polygon fill="#191970" stroke="#191970" points="457.1689,-25.2233 466.0998,-19.5235 455.5637,-18.4099 457.1689,-25.2233"/>
</g>
<!-- Node26&#45;&gt;Node2 -->
<g id="edge43" class="edge">
<title>Node26&#45;&gt;Node2</title>
<path fill="none" stroke="#191970" d="M726.6832,-415.5947C729.993,-414.9931 733.2835,-414.4534 736.5,-414 1081.0173,-365.4336 1177.2369,-445.7522 1518.5,-378 1522.1388,-377.2776 1525.8826,-376.3021 1529.5717,-375.1901"/>
<polygon fill="#191970" stroke="#191970" points="1530.7235,-378.4955 1539.0995,-372.0076 1528.5057,-371.8561 1530.7235,-378.4955"/>
</g>
<!-- Node26&#45;&gt;Node5 -->
<g id="edge35" class="edge">
<title>Node26&#45;&gt;Node5</title>
<path fill="none" stroke="#191970" d="M645.7551,-414.2548C603.6924,-389.3467 520.7763,-340.2466 479.3208,-315.698"/>
<polygon fill="#191970" stroke="#191970" points="481.0499,-312.6544 470.662,-310.5706 477.4832,-318.6775 481.0499,-312.6544"/>
</g>
<!-- Node26&#45;&gt;Node9 -->
<g id="edge41" class="edge">
<title>Node26&#45;&gt;Node9</title>
<path fill="none" stroke="#191970" d="M726.7962,-416.213C730.0776,-415.4559 733.331,-414.7133 736.5,-414 811.8462,-397.0415 857.8742,-438.0014 906.5,-378 933.9469,-344.1322 905.2114,-292.3952 883.9397,-262.6749"/>
<polygon fill="#191970" stroke="#191970" points="886.6872,-260.504 877.9197,-254.5556 881.0641,-264.6731 886.6872,-260.504"/>
</g>
<!-- Node26&#45;&gt;Node16 -->
<g id="edge44" class="edge">
<title>Node26&#45;&gt;Node16</title>
<path fill="none" stroke="#191970" d="M726.7467,-415.9762C730.0406,-415.2787 733.3102,-414.6138 736.5,-414 905.8969,-381.4061 1504.5,-473.5041 1504.5,-301 1504.5,-301 1504.5,-301 1504.5,-122 1504.5,-64.847 1434.5517,-34.0159 1388.3322,-19.8822"/>
<polygon fill="#191970" stroke="#191970" points="1389.1584,-16.4774 1378.5784,-17.0369 1387.1981,-23.1973 1389.1584,-16.4774"/>
</g>
<!-- Node27 -->
<g id="node28" class="node">
<title>Node27</title>
<g id="a_node28"><a xlink:href="global__tas__lock_8hpp.html" target="_top" xlink:title="This file provides a tas lock for the ArgoDSM system based on the TAS lock made by David Klaftenegger...">
<polygon fill="#ffffff" stroke="#000000" points="614.5,-347.5 614.5,-377.5 730.5,-377.5 730.5,-347.5 614.5,-347.5"/>
<text text-anchor="start" x="622.5" y="-365.5" font-family="Helvetica,sans-Serif" font-size="10.00" fill="#000000">../synchronization</text>
<text text-anchor="middle" x="672.5" y="-354.5" font-family="Helvetica,sans-Serif" font-size="10.00" fill="#000000">/global_tas_lock.hpp</text>
</a>
</g>
</g>
<!-- Node26&#45;&gt;Node27 -->
<g id="edge36" class="edge">
<title>Node26&#45;&gt;Node27</title>
<path fill="none" stroke="#191970" d="M671.7269,-414.2967C671.8433,-406.5013 671.9881,-396.7991 672.1208,-387.9064"/>
<polygon fill="#191970" stroke="#191970" points="675.6243,-387.6943 672.274,-377.6432 668.625,-387.5898 675.6243,-387.6943"/>
</g>
<!-- Node30 -->
<g id="node31" class="node">
<title>Node30</title>
<polygon fill="#ffffff" stroke="#bfbfbf" points="749,-353 749,-372 826,-372 826,-353 749,-353"/>
<text text-anchor="middle" x="787.5" y="-360" font-family="Helvetica,sans-Serif" font-size="10.00" fill="#000000">sys/mman.h</text>
</g>
<!-- Node26&#45;&gt;Node30 -->
<g id="edge42" class="edge">
<title>Node26&#45;&gt;Node30</title>
<path fill="none" stroke="#191970" d="M697.5327,-414.4639C716.8206,-403.3234 742.9678,-388.2212 762.1028,-377.1691"/>
<polygon fill="#191970" stroke="#191970" points="763.9635,-380.1363 770.8723,-372.1039 760.4624,-374.0747 763.9635,-380.1363"/>
</g>
<!-- Node31 -->
<g id="node32" class="node">
<title>Node31</title>
<polygon fill="#ffffff" stroke="#bfbfbf" points="844,-353 844,-372 897,-372 897,-353 844,-353"/>
<text text-anchor="middle" x="870.5" y="-360" font-family="Helvetica,sans-Serif" font-size="10.00" fill="#000000">stdlib.h</text>
</g>
<!-- Node26&#45;&gt;Node31 -->
<g id="edge45" class="edge">
<title>Node26&#45;&gt;Node31</title>
<path fill="none" stroke="#191970" d="M724.8246,-414.4112C757.1539,-404.8552 799.0594,-391.7407 835.5,-378 837.1245,-377.3874 838.782,-376.7385 840.4487,-376.0669"/>
<polygon fill="#191970" stroke="#191970" points="842.0763,-379.1792 849.9318,-372.0699 839.3574,-372.7288 842.0763,-379.1792"/>
</g>
<!-- Node27&#45;&gt;Node5 -->
<g id="edge37" class="edge">
<title>Node27&#45;&gt;Node5</title>
<path fill="none" stroke="#191970" d="M619.1712,-347.4554C581.9997,-336.9689 533.0206,-323.1515 498.1661,-313.3187"/>
<polygon fill="#191970" stroke="#191970" points="498.8569,-309.877 488.2823,-310.5303 496.9563,-316.614 498.8569,-309.877"/>
</g>
<!-- Node27&#45;&gt;Node9 -->
<g id="edge38" class="edge">
<title>Node27&#45;&gt;Node9</title>
<path fill="none" stroke="#191970" d="M696.1656,-347.4178C730.5515,-325.5035 794.4351,-284.79 833.1463,-260.1192"/>
<polygon fill="#191970" stroke="#191970" points="835.3911,-262.839 841.943,-254.513 831.6289,-256.9359 835.3911,-262.839"/>
</g>
<!-- Node28 -->
<g id="node29" class="node">
<title>Node28</title>
<polygon fill="#ffffff" stroke="#bfbfbf" points="610.5,-291.5 610.5,-310.5 660.5,-310.5 660.5,-291.5 610.5,-291.5"/>
<text text-anchor="middle" x="635.5" y="-298.5" font-family="Helvetica,sans-Serif" font-size="10.00" fill="#000000">chrono</text>
</g>
<!-- Node27&#45;&gt;Node28 -->
<g id="edge39" class="edge">
<title>Node27&#45;&gt;Node28</title>
<path fill="none" stroke="#191970" d="M663.3539,-347.2977C658.3249,-338.9388 652.0445,-328.4997 646.7209,-319.6509"/>
<polygon fill="#191970" stroke="#191970" points="649.5785,-317.6114 641.4242,-310.8469 643.5803,-321.2201 649.5785,-317.6114"/>
</g>
<!-- Node29 -->
<g id="node30" class="node">
<title>Node29</title>
<polygon fill="#ffffff" stroke="#bfbfbf" points="678.5,-291.5 678.5,-310.5 726.5,-310.5 726.5,-291.5 678.5,-291.5"/>
<text text-anchor="middle" x="702.5" y="-298.5" font-family="Helvetica,sans-Serif" font-size="10.00" fill="#000000">thread</text>
</g>
<!-- Node27&#45;&gt;Node29 -->
<g id="edge40" class="edge">
<title>Node27&#45;&gt;Node29</title>
<path fill="none" stroke="#191970" d="M679.9157,-347.2977C683.9499,-339.0277 688.9773,-328.7215 693.264,-319.9339"/>
<polygon fill="#191970" stroke="#191970" points="696.458,-321.3691 697.6966,-310.8469 690.1666,-318.3001 696.458,-321.3691"/>
</g>
<!-- Node32&#45;&gt;Node1 -->
<g id="edge48" class="edge">
<title>Node32&#45;&gt;Node1</title>
<path fill="none" stroke="#191970" d="M399.7473,-482.0468C347.8833,-473.8229 279.6344,-460.5714 256.5,-445 233.1177,-429.2617 216.5125,-400.4327 207.4646,-381.3658"/>
<polygon fill="#191970" stroke="#191970" points="210.619,-379.8465 203.323,-372.1641 204.2358,-382.7196 210.619,-379.8465"/>
</g>
<!-- Node32&#45;&gt;Node3 -->
<g id="edge50" class="edge">
<title>Node32&#45;&gt;Node3</title>
<path fill="none" stroke="#191970" d="M399.7615,-488.0958C288.1927,-482.4291 66.8006,-468.366 40.5,-445 23.0383,-429.4867 19.9343,-401.4417 20.0913,-382.4019"/>
<polygon fill="#191970" stroke="#191970" points="23.5987,-382.2786 20.4937,-372.149 16.6041,-382.004 23.5987,-382.2786"/>
</g>
<!-- Node32&#45;&gt;Node4 -->
<g id="edge51" class="edge">
<title>Node32&#45;&gt;Node4</title>
<path fill="none" stroke="#191970" d="M442.0938,-481.3906C422.6941,-472.682 393.5271,-459.5888 369.3457,-448.7336"/>
<polygon fill="#191970" stroke="#191970" points="370.5703,-445.447 360.014,-444.5446 367.7035,-451.833 370.5703,-445.447"/>
</g>
<!-- Node32&#45;&gt;Node24 -->
<g id="edge49" class="edge">
<title>Node32&#45;&gt;Node24</title>
<path fill="none" stroke="#191970" d="M486.3027,-481.4557C501.427,-473.875 520.3033,-461.7532 530.5,-445 564.0334,-389.9045 548.5,-365.4981 548.5,-301 548.5,-301 548.5,-301 548.5,-178 548.5,-147.3494 549.8427,-136.318 568.5,-112 578.9993,-98.3152 594.8262,-87.6952 609.1519,-80.1248"/>
<polygon fill="#191970" stroke="#191970" points="610.8811,-83.1739 618.2781,-75.5887 607.7654,-76.9055 610.8811,-83.1739"/>
</g>
<!-- Node32&#45;&gt;Node26 -->
<g id="edge52" class="edge">
<title>Node32&#45;&gt;Node26</title>
<path fill="none" stroke="#191970" d="M496,-481.3906C526.6264,-472.3352 573.2867,-458.539 610.7983,-447.4479"/>
<polygon fill="#191970" stroke="#191970" points="612.0203,-450.7364 620.6175,-444.5446 610.0355,-444.0237 612.0203,-450.7364"/>
</g>
<!-- Node32&#45;&gt;Node33 -->
<g id="edge53" class="edge">
<title>Node32&#45;&gt;Node33</title>
<path fill="none" stroke="#191970" d="M408.7311,-481.4581C345.643,-470.4668 242.0983,-452.4272 175.1221,-440.7585"/>
<polygon fill="#191970" stroke="#191970" points="175.5593,-437.2821 165.107,-439.0137 174.3578,-444.1782 175.5593,-437.2821"/>
</g>
<!-- Node32&#45;&gt;Node34 -->
<g id="edge57" class="edge">
<title>Node32&#45;&gt;Node34</title>
<path fill="none" stroke="#191970" d="M527.186,-482.6754C582.6181,-474.8494 664.9211,-461.8288 735.5,-445 739.3676,-444.0778 743.3736,-443.0181 747.3577,-441.8949"/>
<polygon fill="#191970" stroke="#191970" points="748.5236,-445.2001 757.1249,-439.0139 746.5432,-438.4861 748.5236,-445.2001"/>
</g>
<!-- Node35 -->
<g id="node36" class="node">
<title>Node35</title>
<g id="a_node36"><a xlink:href="dynamic__allocator_8h.html" target="_top" xlink:title="This file provides the dynamic allocator for ArgoDSM. ">
<polygon fill="#ffffff" stroke="#000000" points="406,-420 406,-439 521,-439 521,-420 406,-420"/>
<text text-anchor="middle" x="463.5" y="-427" font-family="Helvetica,sans-Serif" font-size="10.00" fill="#000000">dynamic_allocator.h</text>
</a>
</g>
</g>
<!-- Node32&#45;&gt;Node35 -->
<g id="edge58" class="edge">
<title>Node32&#45;&gt;Node35</title>
<path fill="none" stroke="#191970" d="M463.5,-481.3906C463.5,-472.8657 463.5,-460.1392 463.5,-449.4235"/>
<polygon fill="#191970" stroke="#191970" points="467.0001,-449.2448 463.5,-439.2449 460.0001,-449.2449 467.0001,-449.2448"/>
</g>
<!-- Node33&#45;&gt;Node1 -->
<g id="edge54" class="edge">
<title>Node33&#45;&gt;Node1</title>
<path fill="none" stroke="#191970" d="M123.2515,-419.9005C137.659,-409.0544 161.331,-391.2339 178.4816,-378.3229"/>
<polygon fill="#191970" stroke="#191970" points="180.8879,-380.8923 186.7721,-372.0817 176.6779,-375.2998 180.8879,-380.8923"/>
</g>
<!-- Node33&#45;&gt;Node3 -->
<g id="edge55" class="edge">
<title>Node33&#45;&gt;Node3</title>
<path fill="none" stroke="#191970" d="M97.7485,-419.9005C83.341,-409.0544 59.669,-391.2339 42.5184,-378.3229"/>
<polygon fill="#191970" stroke="#191970" points="44.3221,-375.2998 34.2279,-372.0817 40.1121,-380.8923 44.3221,-375.2998"/>
</g>
<!-- Node33&#45;&gt;Node5 -->
<g id="edge56" class="edge">
<title>Node33&#45;&gt;Node5</title>
<path fill="none" stroke="#191970" d="M114.5564,-419.9482C122.5878,-402.3098 142.3006,-364.8071 171.5,-347 205.2714,-326.4047 306.1881,-313.6519 377.8612,-306.942"/>
<polygon fill="#191970" stroke="#191970" points="378.5725,-310.3917 388.2123,-305.9956 377.9351,-303.4207 378.5725,-310.3917"/>
</g>
</g>
</svg>
