<?xml version="1.0" encoding="UTF-8" standalone="no"?>
<!DOCTYPE svg PUBLIC "-//W3C//DTD SVG 1.1//EN"
 "http://www.w3.org/Graphics/SVG/1.1/DTD/svg11.dtd">
<!-- Generated by graphviz version 2.40.1 (20161225.0304)
 -->
<!-- Title: /home/atmerhannah/argodsm/src/data_distribution/data_distribution.hpp Pages: 1 -->
<!--zoomable 218 -->
<svg id="main" version="1.1" xmlns="http://www.w3.org/2000/svg" xmlns:xlink="http://www.w3.org/1999/xlink" xml:space="preserve" onload="init(evt)">
<style type="text/css"><![CDATA[
.edge:hover path { stroke: red; }
.edge:hover polygon { stroke: red; fill: red; }
]]></style>
<script type="text/javascript"><![CDATA[
var edges = document.getElementsByTagName('g');
if (edges && edges.length) {
  for (var i=0;i<edges.length;i++) {
    if (edges[i].id.substr(0,4)=='edge') {
      edges[i].setAttribute('class','edge');
    }
  }
}
]]></script>
        <defs>
                <circle id="rim" cx="0" cy="0" r="7"/>
                <circle id="rim2" cx="0" cy="0" r="3.5"/>
                <g id="zoomPlus">
                        <use xlink:href="#rim" fill="#404040">
                                <set attributeName="fill" to="#808080" begin="zoomplus.mouseover" end="zoomplus.mouseout"/>
                        </use>
                        <path d="M-4,0h8M0,-4v8" fill="none" stroke="white" stroke-width="1.5" pointer-events="none"/>
                </g>
                <g id="zoomMin">
                        <use xlink:href="#rim" fill="#404040">
                                <set attributeName="fill" to="#808080" begin="zoomminus.mouseover" end="zoomminus.mouseout"/>
                        </use>
                        <path d="M-4,0h8" fill="none" stroke="white" stroke-width="1.5" pointer-events="none"/>
                </g>
                <g id="dirArrow">
                        <path fill="none" stroke="white" stroke-width="1.5" d="M0,-3.0v7 M-2.5,-0.5L0,-3.0L2.5,-0.5"/>
                </g>
               <g id="resetDef">
                       <use xlink:href="#rim2" fill="#404040">
                               <set attributeName="fill" to="#808080" begin="reset.mouseover" end="reset.mouseout"/>
                       </use>
               </g>
        </defs>

<script type="text/javascript">
var viewWidth = 813;
var viewHeight = 218;
var sectionId = 'dynsection-0';
</script>
<script xlink:href="svgpan.js"/>
<svg id="graph" class="graph">
<g id="viewport">
<title>/home/atmerhannah/argodsm/src/data_distribution/data_distribution.hpp</title>
<polygon fill="#ffffff" stroke="transparent" points="-4,4 -4,-214 808.8064,-214 808.8064,4 -4,4"/>
<!-- Node0 -->
<g id="node1" class="node">
<title>Node0</title>
<polygon fill="#bfbfbf" stroke="#000000" points="219.8064,-168.5 219.8064,-209.5 380.8064,-209.5 380.8064,-168.5 219.8064,-168.5"/>
<text text-anchor="start" x="227.8064" y="-197.5" font-family="Helvetica,sans-Serif" font-size="10.00" fill="#000000">/home/atmerhannah/argodsm</text>
<text text-anchor="start" x="227.8064" y="-186.5" font-family="Helvetica,sans-Serif" font-size="10.00" fill="#000000">/src/data_distribution</text>
<text text-anchor="middle" x="300.3064" y="-175.5" font-family="Helvetica,sans-Serif" font-size="10.00" fill="#000000">/data_distribution.hpp</text>
</g>
<!-- Node1 -->
<g id="node2" class="node">
<title>Node1</title>
<g id="a_node2"><a xlink:href="base__distribution_8hpp.html" target="_top" xlink:title="This file implements the base distribution class for all the policies to derive from. ">
<polygon fill="#ffffff" stroke="#000000" points="239.3064,-56.5 239.3064,-75.5 361.3064,-75.5 361.3064,-56.5 239.3064,-56.5"/>
<text text-anchor="middle" x="300.3064" y="-63.5" font-family="Helvetica,sans-Serif" font-size="10.00" fill="#000000">base_distribution.hpp</text>
</a>
</g>
</g>
<!-- Node0&#45;&gt;Node1 -->
<g id="edge1" class="edge">
<title>Node0&#45;&gt;Node1</title>
<path fill="none" stroke="#191970" d="M219.7184,-184.7254C141.6328,-178.6977 31.1732,-164.5341 4.3064,-132 -1.3537,-125.1461 -1.4763,-118.7508 4.3064,-112 18.7793,-95.1042 146.1491,-80.2435 229.0268,-72.2459"/>
<polygon fill="#191970" stroke="#191970" points="229.5304,-75.7139 239.1535,-71.2814 228.8666,-68.7454 229.5304,-75.7139"/>
</g>
<!-- Node6 -->
<g id="node7" class="node">
<title>Node6</title>
<g id="a_node7"><a xlink:href="naive__distribution_8hpp.html" target="_top" xlink:title="This file implements the naive data distribution. ">
<polygon fill="#ffffff" stroke="#000000" points="13.8064,-112.5 13.8064,-131.5 138.8064,-131.5 138.8064,-112.5 13.8064,-112.5"/>
<text text-anchor="middle" x="76.3064" y="-119.5" font-family="Helvetica,sans-Serif" font-size="10.00" fill="#000000">naive_distribution.hpp</text>
</a>
</g>
</g>
<!-- Node0&#45;&gt;Node6 -->
<g id="edge6" class="edge">
<title>Node0&#45;&gt;Node6</title>
<path fill="none" stroke="#191970" d="M231.5767,-168.4425C194.442,-157.3352 149.8079,-143.9848 117.9441,-134.4542"/>
<polygon fill="#191970" stroke="#191970" points="118.6568,-131.0142 108.0732,-131.5017 116.6508,-137.7206 118.6568,-131.0142"/>
</g>
<!-- Node7 -->
<g id="node8" class="node">
<title>Node7</title>
<g id="a_node8"><a xlink:href="cyclic__distribution_8hpp.html" target="_top" xlink:title="This file implements the cyclic data distribution. ">
<polygon fill="#ffffff" stroke="#000000" points="157.3064,-112.5 157.3064,-131.5 283.3064,-131.5 283.3064,-112.5 157.3064,-112.5"/>
<text text-anchor="middle" x="220.3064" y="-119.5" font-family="Helvetica,sans-Serif" font-size="10.00" fill="#000000">cyclic_distribution.hpp</text>
</a>
</g>
</g>
<!-- Node0&#45;&gt;Node7 -->
<g id="edge8" class="edge">
<title>Node0&#45;&gt;Node7</title>
<path fill="none" stroke="#191970" d="M275.4324,-168.168C263.9956,-158.5897 250.6241,-147.3911 239.9147,-138.422"/>
<polygon fill="#191970" stroke="#191970" points="241.8983,-135.5179 231.9845,-131.7805 237.4038,-140.8845 241.8983,-135.5179"/>
</g>
<!-- Node8 -->
<g id="node9" class="node">
<title>Node8</title>
<g id="a_node9"><a xlink:href="skew__mapp__distribution_8hpp.html" target="_top" xlink:title="This file implements the skew&#45;mapp data distribution. ">
<polygon fill="#ffffff" stroke="#000000" points="301.8064,-112.5 301.8064,-131.5 458.8064,-131.5 458.8064,-112.5 301.8064,-112.5"/>
<text text-anchor="middle" x="380.3064" y="-119.5" font-family="Helvetica,sans-Serif" font-size="10.00" fill="#000000">skew_mapp_distribution.hpp</text>
</a>
</g>
</g>
<!-- Node0&#45;&gt;Node8 -->
<g id="edge10" class="edge">
<title>Node0&#45;&gt;Node8</title>
<path fill="none" stroke="#191970" d="M325.1803,-168.168C336.6171,-158.5897 349.9886,-147.3911 360.698,-138.422"/>
<polygon fill="#191970" stroke="#191970" points="363.2089,-140.8845 368.6282,-131.7805 358.7144,-135.5179 363.2089,-140.8845"/>
</g>
<!-- Node9 -->
<g id="node10" class="node">
<title>Node9</title>
<g id="a_node10"><a xlink:href="prime__mapp__distribution_8hpp.html" target="_top" xlink:title="This file implements the prime&#45;mapp data distribution. ">
<polygon fill="#ffffff" stroke="#000000" points="477.3064,-112.5 477.3064,-131.5 637.3064,-131.5 637.3064,-112.5 477.3064,-112.5"/>
<text text-anchor="middle" x="557.3064" y="-119.5" font-family="Helvetica,sans-Serif" font-size="10.00" fill="#000000">prime_mapp_distribution.hpp</text>
</a>
</g>
</g>
<!-- Node0&#45;&gt;Node9 -->
<g id="edge12" class="edge">
<title>Node0&#45;&gt;Node9</title>
<path fill="none" stroke="#191970" d="M379.1614,-168.4425C422.3201,-157.191 474.308,-143.6377 510.9513,-134.0848"/>
<polygon fill="#191970" stroke="#191970" points="512.066,-137.4112 520.8596,-131.5017 510.3001,-130.6376 512.066,-137.4112"/>
</g>
<!-- Node10 -->
<g id="node11" class="node">
<title>Node10</title>
<g id="a_node11"><a xlink:href="first__touch__distribution_8hpp.html" target="_top" xlink:title="This file implements the first&#45;touch data distribution. ">
<polygon fill="#ffffff" stroke="#000000" points="655.8064,-112.5 655.8064,-131.5 804.8064,-131.5 804.8064,-112.5 655.8064,-112.5"/>
<text text-anchor="middle" x="730.3064" y="-119.5" font-family="Helvetica,sans-Serif" font-size="10.00" fill="#000000">first_touch_distribution.hpp</text>
</a>
</g>
</g>
<!-- Node0&#45;&gt;Node10 -->
<g id="edge14" class="edge">
<title>Node0&#45;&gt;Node10</title>
<path fill="none" stroke="#191970" d="M380.9337,-176.4371C460.9939,-163.9626 582.546,-145.0231 659.1296,-133.0903"/>
<polygon fill="#191970" stroke="#191970" points="659.8233,-136.5246 669.1652,-131.5266 658.7455,-129.608 659.8233,-136.5246"/>
</g>
<!-- Node2 -->
<g id="node3" class="node">
<title>Node2</title>
<polygon fill="#ffffff" stroke="#bfbfbf" points="158.8064,-.5 158.8064,-19.5 207.8064,-19.5 207.8064,-.5 158.8064,-.5"/>
<text text-anchor="middle" x="183.3064" y="-7.5" font-family="Helvetica,sans-Serif" font-size="10.00" fill="#000000">cstdlib</text>
</g>
<!-- Node1&#45;&gt;Node2 -->
<g id="edge2" class="edge">
<title>Node1&#45;&gt;Node2</title>
<path fill="none" stroke="#191970" d="M280.1933,-56.3733C261.496,-47.4241 233.432,-33.9917 212.3129,-23.8835"/>
<polygon fill="#191970" stroke="#191970" points="213.688,-20.6614 203.1569,-19.5011 210.6659,-26.9755 213.688,-20.6614"/>
</g>
<!-- Node3 -->
<g id="node4" class="node">
<title>Node3</title>
<polygon fill="#ffffff" stroke="#bfbfbf" points="226.3064,-.5 226.3064,-19.5 286.3064,-19.5 286.3064,-.5 226.3064,-.5"/>
<text text-anchor="middle" x="256.3064" y="-7.5" font-family="Helvetica,sans-Serif" font-size="10.00" fill="#000000">iostream</text>
</g>
<!-- Node1&#45;&gt;Node3 -->
<g id="edge3" class="edge">
<title>Node1&#45;&gt;Node3</title>
<path fill="none" stroke="#191970" d="M292.6421,-56.2455C286.459,-48.3761 277.6,-37.101 270.1775,-27.6542"/>
<polygon fill="#191970" stroke="#191970" points="272.8131,-25.3435 263.8827,-19.6427 267.3089,-29.6683 272.8131,-25.3435"/>
</g>
<!-- Node4 -->
<g id="node5" class="node">
<title>Node4</title>
<polygon fill="#ffffff" stroke="#bfbfbf" points="304.8064,-.5 304.8064,-19.5 385.8064,-19.5 385.8064,-.5 304.8064,-.5"/>
<text text-anchor="middle" x="345.3064" y="-7.5" font-family="Helvetica,sans-Serif" font-size="10.00" fill="#000000">system_error</text>
</g>
<!-- Node1&#45;&gt;Node4 -->
<g id="edge4" class="edge">
<title>Node1&#45;&gt;Node4</title>
<path fill="none" stroke="#191970" d="M308.1448,-56.2455C314.4684,-48.3761 323.5287,-37.101 331.1199,-27.6542"/>
<polygon fill="#191970" stroke="#191970" points="334.0221,-29.6302 337.5578,-19.6427 328.5655,-25.2454 334.0221,-29.6302"/>
</g>
<!-- Node5 -->
<g id="node6" class="node">
<title>Node5</title>
<g id="a_node6"><a xlink:href="types_8hpp.html" target="_top" xlink:title="This file defines common types used in ArgoDSM. ">
<polygon fill="#ffffff" stroke="#000000" points="404.3064,-.5 404.3064,-19.5 508.3064,-19.5 508.3064,-.5 404.3064,-.5"/>
<text text-anchor="middle" x="456.3064" y="-7.5" font-family="Helvetica,sans-Serif" font-size="10.00" fill="#000000">../types/types.hpp</text>
</a>
</g>
</g>
<!-- Node1&#45;&gt;Node5 -->
<g id="edge5" class="edge">
<title>Node1&#45;&gt;Node5</title>
<path fill="none" stroke="#191970" d="M327.1237,-56.3733C352.8395,-47.1419 391.8444,-33.1402 420.2663,-22.9375"/>
<polygon fill="#191970" stroke="#191970" points="421.6095,-26.174 429.8389,-19.5011 419.2444,-19.5857 421.6095,-26.174"/>
</g>
<!-- Node6&#45;&gt;Node1 -->
<g id="edge7" class="edge">
<title>Node6&#45;&gt;Node1</title>
<path fill="none" stroke="#191970" d="M114.5588,-112.4369C152.6531,-102.9133 211.2376,-88.2672 252.4051,-77.9753"/>
<polygon fill="#191970" stroke="#191970" points="253.3591,-81.3446 262.2117,-75.5237 251.6613,-74.5536 253.3591,-81.3446"/>
</g>
<!-- Node7&#45;&gt;Node1 -->
<g id="edge9" class="edge">
<title>Node7&#45;&gt;Node1</title>
<path fill="none" stroke="#191970" d="M234.2413,-112.2455C246.401,-103.7337 264.2528,-91.2375 278.3348,-81.3801"/>
<polygon fill="#191970" stroke="#191970" points="280.3459,-84.2447 286.5311,-75.6427 276.3316,-78.51 280.3459,-84.2447"/>
</g>
<!-- Node8&#45;&gt;Node1 -->
<g id="edge11" class="edge">
<title>Node8&#45;&gt;Node1</title>
<path fill="none" stroke="#191970" d="M366.3714,-112.2455C354.2117,-103.7337 336.3599,-91.2375 322.2779,-81.3801"/>
<polygon fill="#191970" stroke="#191970" points="324.2811,-78.51 314.0816,-75.6427 320.2668,-84.2447 324.2811,-78.51"/>
</g>
<!-- Node9&#45;&gt;Node1 -->
<g id="edge13" class="edge">
<title>Node9&#45;&gt;Node1</title>
<path fill="none" stroke="#191970" d="M513.4185,-112.4369C469.3425,-102.8328 401.3583,-88.0191 354.0705,-77.7152"/>
<polygon fill="#191970" stroke="#191970" points="354.5291,-74.233 344.0132,-75.5237 353.0387,-81.0725 354.5291,-74.233"/>
</g>
<!-- Node10&#45;&gt;Node1 -->
<g id="edge16" class="edge">
<title>Node10&#45;&gt;Node1</title>
<path fill="none" stroke="#191970" d="M656.8753,-112.4369C577.2171,-102.0628 450.8855,-85.6103 371.9385,-75.3288"/>
<polygon fill="#191970" stroke="#191970" points="371.9682,-71.8032 361.5999,-73.9824 371.0641,-78.7446 371.9682,-71.8032"/>
</g>
<!-- Node11 -->
<g id="node12" class="node">
<title>Node11</title>
<polygon fill="#ffffff" stroke="#bfbfbf" points="706.3064,-56.5 706.3064,-75.5 754.3064,-75.5 754.3064,-56.5 706.3064,-56.5"/>
<text text-anchor="middle" x="730.3064" y="-63.5" font-family="Helvetica,sans-Serif" font-size="10.00" fill="#000000">mutex</text>
</g>
<!-- Node10&#45;&gt;Node11 -->
<g id="edge15" class="edge">
<title>Node10&#45;&gt;Node11</title>
<path fill="none" stroke="#191970" d="M730.3064,-112.2455C730.3064,-104.9382 730.3064,-94.6944 730.3064,-85.7046"/>
<polygon fill="#191970" stroke="#191970" points="733.8064,-85.6426 730.3064,-75.6427 726.8064,-85.6427 733.8064,-85.6426"/>
</g>
</g>
</svg>
        <g id="navigator" transform="translate(0 0)" fill="#404254">
                <rect fill="#f2f5e9" fill-opacity="0.5" stroke="#606060" stroke-width=".5" x="0" y="0" width="60" height="60"/>
                <use id="zoomplus" xlink:href="#zoomPlus" x="17" y="9" onmousedown="handleZoom(evt,'in')"/>
                <use id="zoomminus" xlink:href="#zoomMin" x="42" y="9" onmousedown="handleZoom(evt,'out')"/>
                <use id="reset" xlink:href="#resetDef" x="30" y="36" onmousedown="handleReset()"/>
                <g id="arrowUp" xlink:href="#dirArrow" transform="translate(30 24)" onmousedown="handlePan(0,-1)">
                  <use xlink:href="#rim" fill="#404040">
                        <set attributeName="fill" to="#808080" begin="arrowUp.mouseover" end="arrowUp.mouseout"/>
                  </use>
                  <path fill="none" stroke="white" stroke-width="1.5" d="M0,-3.0v7 M-2.5,-0.5L0,-3.0L2.5,-0.5"/>
                </g>
                <g id="arrowRight" xlink:href="#dirArrow" transform="rotate(90) translate(36 -43)" onmousedown="handlePan(1,0)">
                  <use xlink:href="#rim" fill="#404040">
                        <set attributeName="fill" to="#808080" begin="arrowRight.mouseover" end="arrowRight.mouseout"/>
                  </use>
                  <path fill="none" stroke="white" stroke-width="1.5" d="M0,-3.0v7 M-2.5,-0.5L0,-3.0L2.5,-0.5"/>
                </g>
                <g id="arrowDown" xlink:href="#dirArrow" transform="rotate(180) translate(-30 -48)" onmousedown="handlePan(0,1)">
                  <use xlink:href="#rim" fill="#404040">
                        <set attributeName="fill" to="#808080" begin="arrowDown.mouseover" end="arrowDown.mouseout"/>
                  </use>
                  <path fill="none" stroke="white" stroke-width="1.5" d="M0,-3.0v7 M-2.5,-0.5L0,-3.0L2.5,-0.5"/>
                </g>
                <g id="arrowLeft" xlink:href="#dirArrow" transform="rotate(270) translate(-36 17)" onmousedown="handlePan(-1,0)">
                  <use xlink:href="#rim" fill="#404040">
                        <set attributeName="fill" to="#808080" begin="arrowLeft.mouseover" end="arrowLeft.mouseout"/>
                  </use>
                  <path fill="none" stroke="white" stroke-width="1.5" d="M0,-3.0v7 M-2.5,-0.5L0,-3.0L2.5,-0.5"/>
                </g>
        </g>
        <svg viewBox="0 0 15 15" width="100%" height="30px" preserveAspectRatio="xMaxYMin meet">
         <g id="arrow_out" transform="scale(0.3 0.3)">
          <a xlink:href="data__distribution_8hpp__incl_org.svg" target="_base">
           <rect id="button" ry="5" rx="5" y="6" x="6" height="38" width="38"
                fill="#f2f5e9" fill-opacity="0.5" stroke="#606060" stroke-width="1.0"/>
           <path id="arrow"
             d="M 11.500037,31.436501 C 11.940474,20.09759 22.043105,11.32322 32.158766,21.979434 L 37.068811,17.246167 C 37.068811,17.246167 37.088388,32 37.088388,32 L 22.160133,31.978069 C 22.160133,31.978069 26.997745,27.140456 26.997745,27.140456 C 18.528582,18.264221 13.291696,25.230495 11.500037,31.436501 z"
             style="fill:#404040;"/>
          </a>
         </g>
        </svg>
</svg>
