<?xml version="1.0" encoding="UTF-8" standalone="no"?>
<!DOCTYPE svg PUBLIC "-//W3C//DTD SVG 1.1//EN"
 "http://www.w3.org/Graphics/SVG/1.1/DTD/svg11.dtd">
<!-- Generated by graphviz version 2.40.1 (20161225.0304)
 -->
<!-- Title: /home/atmerhannah/argodsm/src/backend/mpi Pages: 1 -->
<svg width="232pt" height="223pt"
 viewBox="0.00 0.00 231.93 223.00" xmlns="http://www.w3.org/2000/svg" xmlns:xlink="http://www.w3.org/1999/xlink">
<g id="graph0" class="graph" transform="scale(1 1) rotate(0) translate(4 219)">
<title>/home/atmerhannah/argodsm/src/backend/mpi</title>
<polygon fill="#ffffff" stroke="transparent" points="-4,4 -4,-219 227.9341,-219 227.9341,4 -4,4"/>
<g id="clust1" class="cluster">
<title>clusterdir_3f615ade772d23cefe5e20dcb18424a2</title>
<g id="a_clust1"><a xlink:href="dir_3f615ade772d23cefe5e20dcb18424a2.html" target="_top" xlink:title="backend">
<polygon fill="#ddddee" stroke="#000000" points="86,-136 86,-207 156,-207 156,-136 86,-136"/>
<text text-anchor="middle" x="121" y="-195" font-family="Helvetica,sans-Serif" font-size="10.00" fill="#000000">backend</text>
</a>
</g>
</g>
<!-- dir_cd56f9bb444c4dcc895557544c79ce2a -->
<g id="node1" class="node">
<title>dir_cd56f9bb444c4dcc895557544c79ce2a</title>
<g id="a_node1"><a xlink:href="dir_cd56f9bb444c4dcc895557544c79ce2a.html" target="_top" xlink:title="mpi">
<polygon fill="#eeeeff" stroke="#000000" points="148,-180 94,-180 94,-144 148,-144 148,-180"/>
<text text-anchor="middle" x="121" y="-159.5" font-family="Helvetica,sans-Serif" font-size="10.00" fill="#000000">mpi</text>
</a>
</g>
</g>
<!-- dir_e681bd22f1a85a89d9c18b68cc50d922 -->
<g id="node2" class="node">
<title>dir_e681bd22f1a85a89d9c18b68cc50d922</title>
<g id="a_node2"><a xlink:href="dir_e681bd22f1a85a89d9c18b68cc50d922.html" target="_top" xlink:title="signal">
<polygon fill="none" stroke="#000000" points="54,-108 0,-108 0,-72 54,-72 54,-108"/>
<text text-anchor="middle" x="27" y="-87.5" font-family="Helvetica,sans-Serif" font-size="10.00" fill="#000000">signal</text>
</a>
</g>
</g>
<!-- dir_cd56f9bb444c4dcc895557544c79ce2a&#45;&gt;dir_e681bd22f1a85a89d9c18b68cc50d922 -->
<g id="edge3" class="edge">
<title>dir_cd56f9bb444c4dcc895557544c79ce2a&#45;&gt;dir_e681bd22f1a85a89d9c18b68cc50d922</title>
<path fill="none" stroke="#000000" d="M97.2798,-143.8314C85.5906,-134.8779 71.3312,-123.9558 58.7191,-114.2955"/>
<polygon fill="#000000" stroke="#000000" points="60.7797,-111.4651 50.7126,-108.1628 56.5231,-117.0222 60.7797,-111.4651"/>
<g id="a_edge3&#45;headlabel"><a xlink:href="dir_000004_000009.html" target="_top" xlink:title="1">
<text text-anchor="middle" x="65.3598" y="-108.8968" font-family="Helvetica,sans-Serif" font-size="10.00" fill="#000000">1</text>
</a>
</g>
</g>
<!-- dir_303c75b2167b8ee1fb608a7a61a02a87 -->
<g id="node3" class="node">
<title>dir_303c75b2167b8ee1fb608a7a61a02a87</title>
<g id="a_node3"><a xlink:href="dir_303c75b2167b8ee1fb608a7a61a02a87.html" target="_top" xlink:title="data_distribution">
<polygon fill="none" stroke="#000000" points="209.5,-108 110.5,-108 110.5,-72 209.5,-72 209.5,-108"/>
<text text-anchor="middle" x="160" y="-87.5" font-family="Helvetica,sans-Serif" font-size="10.00" fill="#000000">data_distribution</text>
</a>
</g>
</g>
<!-- dir_cd56f9bb444c4dcc895557544c79ce2a&#45;&gt;dir_303c75b2167b8ee1fb608a7a61a02a87 -->
<g id="edge4" class="edge">
<title>dir_cd56f9bb444c4dcc895557544c79ce2a&#45;&gt;dir_303c75b2167b8ee1fb608a7a61a02a87</title>
<path fill="none" stroke="#000000" d="M130.8413,-143.8314C135.1957,-135.7925 140.4098,-126.1666 145.2169,-117.2918"/>
<polygon fill="#000000" stroke="#000000" points="148.3408,-118.8732 150.0261,-108.4133 142.1857,-115.5392 148.3408,-118.8732"/>
<g id="a_edge4&#45;headlabel"><a xlink:href="dir_000004_000006.html" target="_top" xlink:title="1">
<text text-anchor="middle" x="149.1253" y="-120.8862" font-family="Helvetica,sans-Serif" font-size="10.00" fill="#000000">1</text>
</a>
</g>
</g>
<!-- dir_51e5b56c5a94789e05e3a3352a90e377 -->
<g id="node4" class="node">
<title>dir_51e5b56c5a94789e05e3a3352a90e377</title>
<g id="a_node4"><a xlink:href="dir_51e5b56c5a94789e05e3a3352a90e377.html" target="_top" xlink:title="env">
<polygon fill="none" stroke="#000000" points="204,-36 150,-36 150,0 204,0 204,-36"/>
<text text-anchor="middle" x="177" y="-15.5" font-family="Helvetica,sans-Serif" font-size="10.00" fill="#000000">env</text>
</a>
</g>
</g>
<!-- dir_cd56f9bb444c4dcc895557544c79ce2a&#45;&gt;dir_51e5b56c5a94789e05e3a3352a90e377 -->
<g id="edge5" class="edge">
<title>dir_cd56f9bb444c4dcc895557544c79ce2a&#45;&gt;dir_51e5b56c5a94789e05e3a3352a90e377</title>
<path fill="none" stroke="#000000" d="M148.029,-155.3805C171.4109,-148.0666 203.7841,-133.7572 219,-108 231.2444,-87.2728 217.6407,-62.3845 202.741,-44.0389"/>
<polygon fill="#000000" stroke="#000000" points="205.0773,-41.3893 195.8921,-36.1087 199.7795,-45.9646 205.0773,-41.3893"/>
<g id="a_edge5&#45;headlabel"><a xlink:href="dir_000004_000007.html" target="_top" xlink:title="2">
<text text-anchor="middle" x="209.5756" y="-39.7539" font-family="Helvetica,sans-Serif" font-size="10.00" fill="#000000">2</text>
</a>
</g>
</g>
<!-- dir_eaca60f7b9e9ea2ccc0f3ac48dc19de2 -->
<g id="node5" class="node">
<title>dir_eaca60f7b9e9ea2ccc0f3ac48dc19de2</title>
<g id="a_node5"><a xlink:href="dir_eaca60f7b9e9ea2ccc0f3ac48dc19de2.html" target="_top" xlink:title="virtual_memory">
<polygon fill="none" stroke="#000000" points="111.5,-36 16.5,-36 16.5,0 111.5,0 111.5,-36"/>
<text text-anchor="middle" x="64" y="-15.5" font-family="Helvetica,sans-Serif" font-size="10.00" fill="#000000">virtual_memory</text>
</a>
</g>
</g>
<!-- dir_cd56f9bb444c4dcc895557544c79ce2a&#45;&gt;dir_eaca60f7b9e9ea2ccc0f3ac48dc19de2 -->
<g id="edge6" class="edge">
<title>dir_cd56f9bb444c4dcc895557544c79ce2a&#45;&gt;dir_eaca60f7b9e9ea2ccc0f3ac48dc19de2</title>
<path fill="none" stroke="#000000" d="M113.7809,-143.7623C103.9731,-118.9846 86.3533,-74.4714 74.9226,-45.5939"/>
<polygon fill="#000000" stroke="#000000" points="78.0953,-44.0995 71.1605,-36.0896 71.5867,-46.6759 78.0953,-44.0995"/>
<g id="a_edge6&#45;headlabel"><a xlink:href="dir_000004_000013.html" target="_top" xlink:title="3">
<text text-anchor="middle" x="82.0582" y="-43.8968" font-family="Helvetica,sans-Serif" font-size="10.00" fill="#000000">3</text>
</a>
</g>
</g>
<!-- dir_e681bd22f1a85a89d9c18b68cc50d922&#45;&gt;dir_eaca60f7b9e9ea2ccc0f3ac48dc19de2 -->
<g id="edge1" class="edge">
<title>dir_e681bd22f1a85a89d9c18b68cc50d922&#45;&gt;dir_eaca60f7b9e9ea2ccc0f3ac48dc19de2</title>
<path fill="none" stroke="#000000" d="M36.3367,-71.8314C40.4243,-63.8771 45.3104,-54.369 49.8309,-45.5723"/>
<polygon fill="#000000" stroke="#000000" points="53.0799,-46.9074 54.5376,-36.4133 46.8539,-43.7078 53.0799,-46.9074"/>
<g id="a_edge1&#45;headlabel"><a xlink:href="dir_000009_000013.html" target="_top" xlink:title="1">
<text text-anchor="middle" x="53.9623" y="-48.9022" font-family="Helvetica,sans-Serif" font-size="10.00" fill="#000000">1</text>
</a>
</g>
</g>
<!-- dir_303c75b2167b8ee1fb608a7a61a02a87&#45;&gt;dir_51e5b56c5a94789e05e3a3352a90e377 -->
<g id="edge2" class="edge">
<title>dir_303c75b2167b8ee1fb608a7a61a02a87&#45;&gt;dir_51e5b56c5a94789e05e3a3352a90e377</title>
<path fill="none" stroke="#000000" d="M164.2898,-71.8314C166.108,-64.131 168.2699,-54.9743 170.2905,-46.4166"/>
<polygon fill="#000000" stroke="#000000" points="173.7608,-46.95 172.6524,-36.4133 166.9481,-45.3414 173.7608,-46.95"/>
<g id="a_edge2&#45;headlabel"><a xlink:href="dir_000006_000007.html" target="_top" xlink:title="1">
<text text-anchor="middle" x="175.6981" y="-48.6008" font-family="Helvetica,sans-Serif" font-size="10.00" fill="#000000">1</text>
</a>
</g>
</g>
</g>
</svg>
