<?xml version="1.0" encoding="UTF-8" standalone="no"?>
<!DOCTYPE svg PUBLIC "-//W3C//DTD SVG 1.1//EN"
 "http://www.w3.org/Graphics/SVG/1.1/DTD/svg11.dtd">
<!-- Generated by graphviz version 2.40.1 (20161225.0304)
 -->
<!-- Title: /home/atmerhannah/argodsm/src/mempools Pages: 1 -->
<svg width="155pt" height="295pt"
 viewBox="0.00 0.00 155.29 295.00" xmlns="http://www.w3.org/2000/svg" xmlns:xlink="http://www.w3.org/1999/xlink">
<g id="graph0" class="graph" transform="scale(1 1) rotate(0) translate(4 291)">
<title>/home/atmerhannah/argodsm/src/mempools</title>
<polygon fill="#ffffff" stroke="transparent" points="-4,4 -4,-291 151.2877,-291 151.2877,4 -4,4"/>
<g id="clust1" class="cluster">
<title>clusterdir_68267d1309a1af8e8297ef4c3efbcdba</title>
<g id="a_clust1"><a xlink:href="dir_68267d1309a1af8e8297ef4c3efbcdba.html" target="_top" xlink:title="src">
<polygon fill="#ddddee" stroke="#000000" points="55.2877,-208 55.2877,-279 139.2877,-279 139.2877,-208 55.2877,-208"/>
<text text-anchor="middle" x="97.2877" y="-267" font-family="Helvetica,sans-Serif" font-size="10.00" fill="#000000">src</text>
</a>
</g>
</g>
<!-- dir_2146dfdfab3df05eabf1c1d9a0b60864 -->
<g id="node1" class="node">
<title>dir_2146dfdfab3df05eabf1c1d9a0b60864</title>
<g id="a_node1"><a xlink:href="dir_2146dfdfab3df05eabf1c1d9a0b60864.html" target="_top" xlink:title="mempools">
<polygon fill="#eeeeff" stroke="#000000" points="131.2877,-252 63.2877,-252 63.2877,-216 131.2877,-216 131.2877,-252"/>
<text text-anchor="middle" x="97.2877" y="-231.5" font-family="Helvetica,sans-Serif" font-size="10.00" fill="#000000">mempools</text>
</a>
</g>
</g>
<!-- dir_3f615ade772d23cefe5e20dcb18424a2 -->
<g id="node2" class="node">
<title>dir_3f615ade772d23cefe5e20dcb18424a2</title>
<g id="a_node2"><a xlink:href="dir_3f615ade772d23cefe5e20dcb18424a2.html" target="_top" xlink:title="backend">
<polygon fill="#ffffff" stroke="#ff0000" points="69.2877,-180 11.2877,-180 11.2877,-144 69.2877,-144 69.2877,-180"/>
<text text-anchor="middle" x="40.2877" y="-159.5" font-family="Helvetica,sans-Serif" font-size="10.00" fill="#000000">backend</text>
</a>
</g>
</g>
<!-- dir_2146dfdfab3df05eabf1c1d9a0b60864&#45;&gt;dir_3f615ade772d23cefe5e20dcb18424a2 -->
<g id="edge3" class="edge">
<title>dir_2146dfdfab3df05eabf1c1d9a0b60864&#45;&gt;dir_3f615ade772d23cefe5e20dcb18424a2</title>
<path fill="none" stroke="#000000" d="M82.9042,-215.8314C76.3391,-207.5386 68.437,-197.557 61.2299,-188.4533"/>
<polygon fill="#000000" stroke="#000000" points="63.8161,-186.0813 54.8648,-180.4133 58.3277,-190.4262 63.8161,-186.0813"/>
<g id="a_edge3&#45;headlabel"><a xlink:href="dir_000008_000003.html" target="_top" xlink:title="2">
<text text-anchor="middle" x="68.2733" y="-184.6373" font-family="Helvetica,sans-Serif" font-size="10.00" fill="#000000">2</text>
</a>
</g>
</g>
<!-- dir_303c75b2167b8ee1fb608a7a61a02a87 -->
<g id="node3" class="node">
<title>dir_303c75b2167b8ee1fb608a7a61a02a87</title>
<g id="a_node3"><a xlink:href="dir_303c75b2167b8ee1fb608a7a61a02a87.html" target="_top" xlink:title="data_distribution">
<polygon fill="none" stroke="#000000" points="109.7877,-36 10.7877,-36 10.7877,0 109.7877,0 109.7877,-36"/>
<text text-anchor="middle" x="60.2877" y="-15.5" font-family="Helvetica,sans-Serif" font-size="10.00" fill="#000000">data_distribution</text>
</a>
</g>
</g>
<!-- dir_2146dfdfab3df05eabf1c1d9a0b60864&#45;&gt;dir_303c75b2167b8ee1fb608a7a61a02a87 -->
<g id="edge4" class="edge">
<title>dir_2146dfdfab3df05eabf1c1d9a0b60864&#45;&gt;dir_303c75b2167b8ee1fb608a7a61a02a87</title>
<path fill="none" stroke="#000000" d="M105.1977,-215.6595C117.3128,-184.7131 136.9962,-120.7371 116.2877,-72 111.5898,-60.9437 103.3963,-51.0516 94.7033,-42.8494"/>
<polygon fill="#000000" stroke="#000000" points="96.833,-40.0614 87.0108,-36.0896 92.2123,-45.3197 96.833,-40.0614"/>
<g id="a_edge4&#45;headlabel"><a xlink:href="dir_000008_000006.html" target="_top" xlink:title="1">
<text text-anchor="middle" x="101.4073" y="-37.8014" font-family="Helvetica,sans-Serif" font-size="10.00" fill="#000000">1</text>
</a>
</g>
</g>
<!-- dir_1261e2a6fb671f7d089a05433e0b6ee6 -->
<g id="node4" class="node">
<title>dir_1261e2a6fb671f7d089a05433e0b6ee6</title>
<g id="a_node4"><a xlink:href="dir_1261e2a6fb671f7d089a05433e0b6ee6.html" target="_top" xlink:title="synchronization">
<polygon fill="#ffffff" stroke="#ff0000" points="107.2877,-108 13.2877,-108 13.2877,-72 107.2877,-72 107.2877,-108"/>
<text text-anchor="middle" x="60.2877" y="-87.5" font-family="Helvetica,sans-Serif" font-size="10.00" fill="#000000">synchronization</text>
</a>
</g>
</g>
<!-- dir_2146dfdfab3df05eabf1c1d9a0b60864&#45;&gt;dir_1261e2a6fb671f7d089a05433e0b6ee6 -->
<g id="edge5" class="edge">
<title>dir_2146dfdfab3df05eabf1c1d9a0b60864&#45;&gt;dir_1261e2a6fb671f7d089a05433e0b6ee6</title>
<path fill="none" stroke="#000000" d="M94.0981,-215.9268C90.7268,-197.6511 84.9773,-168.6598 78.2877,-144 75.97,-135.4566 73.0704,-126.2803 70.2799,-117.9602"/>
<polygon fill="#000000" stroke="#000000" points="73.5335,-116.6582 66.9766,-108.3361 66.9126,-118.9307 73.5335,-116.6582"/>
<g id="a_edge5&#45;headlabel"><a xlink:href="dir_000008_000010.html" target="_top" xlink:title="2">
<text text-anchor="middle" x="77.3859" y="-116.6364" font-family="Helvetica,sans-Serif" font-size="10.00" fill="#000000">2</text>
</a>
</g>
</g>
<!-- dir_3f615ade772d23cefe5e20dcb18424a2&#45;&gt;dir_303c75b2167b8ee1fb608a7a61a02a87 -->
<g id="edge1" class="edge">
<title>dir_3f615ade772d23cefe5e20dcb18424a2&#45;&gt;dir_303c75b2167b8ee1fb608a7a61a02a87</title>
<path fill="none" stroke="#000000" d="M24.2972,-143.9169C16.6338,-134.0371 8.2711,-121.1563 4.2877,-108 -.3489,-92.6865 -1.9694,-86.7258 4.2877,-72 8.9855,-60.9437 17.179,-51.0516 25.872,-42.8494"/>
<polygon fill="#000000" stroke="#000000" points="28.3631,-45.3197 33.5645,-36.0896 23.7423,-40.0614 28.3631,-45.3197"/>
<g id="a_edge1&#45;headlabel"><a xlink:href="dir_000003_000006.html" target="_top" xlink:title="3">
<text text-anchor="middle" x="27.5371" y="-47.3253" font-family="Helvetica,sans-Serif" font-size="10.00" fill="#000000">3</text>
</a>
</g>
</g>
<!-- dir_3f615ade772d23cefe5e20dcb18424a2&#45;&gt;dir_1261e2a6fb671f7d089a05433e0b6ee6 -->
<g id="edge2" class="edge">
<title>dir_3f615ade772d23cefe5e20dcb18424a2&#45;&gt;dir_1261e2a6fb671f7d089a05433e0b6ee6</title>
<path fill="none" stroke="#000000" d="M39.3821,-143.8314C40.7859,-136.0463 43.1444,-126.7729 45.8677,-118.1347"/>
<polygon fill="#000000" stroke="#000000" points="49.2682,-119.0079 49.1969,-108.4133 42.6458,-116.74 49.2682,-119.0079"/>
<g id="a_edge2&#45;headlabel"><a xlink:href="dir_000003_000010.html" target="_top" xlink:title="1">
<text text-anchor="middle" x="50.7898" y="-120.8284" font-family="Helvetica,sans-Serif" font-size="10.00" fill="#000000">1</text>
</a>
</g>
</g>
<!-- dir_1261e2a6fb671f7d089a05433e0b6ee6&#45;&gt;dir_3f615ade772d23cefe5e20dcb18424a2 -->
<g id="edge6" class="edge">
<title>dir_1261e2a6fb671f7d089a05433e0b6ee6&#45;&gt;dir_3f615ade772d23cefe5e20dcb18424a2</title>
<path fill="none" stroke="#000000" d="M61.1489,-108.4133C59.7251,-116.2292 57.3529,-125.5113 54.6221,-134.136"/>
<polygon fill="#000000" stroke="#000000" points="51.2302,-133.2367 51.2869,-143.8314 57.8495,-135.5137 51.2302,-133.2367"/>
<g id="a_edge6&#45;headlabel"><a xlink:href="dir_000010_000003.html" target="_top" xlink:title="4">
<text text-anchor="middle" x="49.7145" y="-126.414" font-family="Helvetica,sans-Serif" font-size="10.00" fill="#000000">4</text>
</a>
</g>
</g>
<!-- dir_1261e2a6fb671f7d089a05433e0b6ee6&#45;&gt;dir_303c75b2167b8ee1fb608a7a61a02a87 -->
<g id="edge7" class="edge">
<title>dir_1261e2a6fb671f7d089a05433e0b6ee6&#45;&gt;dir_303c75b2167b8ee1fb608a7a61a02a87</title>
<path fill="none" stroke="#000000" d="M60.2877,-71.8314C60.2877,-64.131 60.2877,-54.9743 60.2877,-46.4166"/>
<polygon fill="#000000" stroke="#000000" points="63.7878,-46.4132 60.2877,-36.4133 56.7878,-46.4133 63.7878,-46.4132"/>
<g id="a_edge7&#45;headlabel"><a xlink:href="dir_000010_000006.html" target="_top" xlink:title="2">
<text text-anchor="middle" x="66.6269" y="-47.5079" font-family="Helvetica,sans-Serif" font-size="10.00" fill="#000000">2</text>
</a>
</g>
</g>
</g>
</svg>
