<?xml version="1.0" encoding="UTF-8" standalone="no"?>
<!DOCTYPE svg PUBLIC "-//W3C//DTD SVG 1.1//EN"
 "http://www.w3.org/Graphics/SVG/1.1/DTD/svg11.dtd">
<!-- Generated by graphviz version 2.40.1 (20161225.0304)
 -->
<!-- Title: /home/atmerhannah/argodsm/src Pages: 1 -->
<svg width="314pt" height="508pt"
 viewBox="0.00 0.00 314.00 508.00" xmlns="http://www.w3.org/2000/svg" xmlns:xlink="http://www.w3.org/1999/xlink">
<g id="graph0" class="graph" transform="scale(1 1) rotate(0) translate(4 504)">
<title>/home/atmerhannah/argodsm/src</title>
<polygon fill="#ffffff" stroke="transparent" points="-4,4 -4,-504 310,-504 310,4 -4,4"/>
<g id="clust1" class="cluster">
<title>clusterdir_68267d1309a1af8e8297ef4c3efbcdba</title>
<g id="a_clust1"><a xlink:href="dir_68267d1309a1af8e8297ef4c3efbcdba.html" target="_top">
<polygon fill="#eeeeff" stroke="#000000" points="8,-8 8,-492 298,-492 298,-8 8,-8"/>
</a>
</g>
</g>
<!-- dir_68267d1309a1af8e8297ef4c3efbcdba -->
<g id="node1" class="node">
<title>dir_68267d1309a1af8e8297ef4c3efbcdba</title>
<text text-anchor="middle" x="182" y="-463.5" font-family="Helvetica,sans-Serif" font-size="10.00" fill="#000000">src</text>
</g>
<!-- dir_6c23b03f1c1f5d39fa4681c6907c68b5 -->
<g id="node2" class="node">
<title>dir_6c23b03f1c1f5d39fa4681c6907c68b5</title>
<g id="a_node2"><a xlink:href="dir_6c23b03f1c1f5d39fa4681c6907c68b5.html" target="_top" xlink:title="allocators">
<polygon fill="#ffffff" stroke="#000000" points="214.5,-412 149.5,-412 149.5,-376 214.5,-376 214.5,-412"/>
<text text-anchor="middle" x="182" y="-391.5" font-family="Helvetica,sans-Serif" font-size="10.00" fill="#000000">allocators</text>
</a>
</g>
</g>
<!-- dir_68267d1309a1af8e8297ef4c3efbcdba&#45;&gt;dir_6c23b03f1c1f5d39fa4681c6907c68b5 -->
<g id="edge1" class="edge">
<title>dir_68267d1309a1af8e8297ef4c3efbcdba&#45;&gt;dir_6c23b03f1c1f5d39fa4681c6907c68b5</title>
<path fill="none" stroke="#000000" d="M182,-447.8314C182,-440.131 182,-430.9743 182,-422.4166"/>
<polygon fill="#000000" stroke="#000000" points="185.5001,-422.4132 182,-412.4133 178.5001,-422.4133 185.5001,-422.4132"/>
<g id="a_edge1&#45;headlabel"><a xlink:href="dir_000000_000001.html" target="_top" xlink:title="5">
<text text-anchor="middle" x="188.3393" y="-423.5079" font-family="Helvetica,sans-Serif" font-size="10.00" fill="#000000">5</text>
</a>
</g>
</g>
<!-- dir_3f615ade772d23cefe5e20dcb18424a2 -->
<g id="node3" class="node">
<title>dir_3f615ade772d23cefe5e20dcb18424a2</title>
<g id="a_node3"><a xlink:href="dir_3f615ade772d23cefe5e20dcb18424a2.html" target="_top" xlink:title="backend">
<polygon fill="#ffffff" stroke="#ff0000" points="158,-268 100,-268 100,-232 158,-232 158,-268"/>
<text text-anchor="middle" x="129" y="-247.5" font-family="Helvetica,sans-Serif" font-size="10.00" fill="#000000">backend</text>
</a>
</g>
</g>
<!-- dir_6c23b03f1c1f5d39fa4681c6907c68b5&#45;&gt;dir_3f615ade772d23cefe5e20dcb18424a2 -->
<g id="edge18" class="edge">
<title>dir_6c23b03f1c1f5d39fa4681c6907c68b5&#45;&gt;dir_3f615ade772d23cefe5e20dcb18424a2</title>
<path fill="none" stroke="#000000" d="M163.1339,-375.7266C154.2796,-365.9886 144.4884,-353.2926 139,-340 130.9251,-320.443 128.5767,-296.5743 128.1655,-278.3328"/>
<polygon fill="#000000" stroke="#000000" points="131.6655,-278.3013 128.1185,-268.3179 124.6655,-278.3342 131.6655,-278.3013"/>
<g id="a_edge18&#45;headlabel"><a xlink:href="dir_000001_000003.html" target="_top" xlink:title="2">
<text text-anchor="middle" x="134.5214" y="-279.3826" font-family="Helvetica,sans-Serif" font-size="10.00" fill="#000000">2</text>
</a>
</g>
</g>
<!-- dir_2146dfdfab3df05eabf1c1d9a0b60864 -->
<g id="node6" class="node">
<title>dir_2146dfdfab3df05eabf1c1d9a0b60864</title>
<g id="a_node6"><a xlink:href="dir_2146dfdfab3df05eabf1c1d9a0b60864.html" target="_top" xlink:title="mempools">
<polygon fill="#ffffff" stroke="#000000" points="216,-340 148,-340 148,-304 216,-304 216,-340"/>
<text text-anchor="middle" x="182" y="-319.5" font-family="Helvetica,sans-Serif" font-size="10.00" fill="#000000">mempools</text>
</a>
</g>
</g>
<!-- dir_6c23b03f1c1f5d39fa4681c6907c68b5&#45;&gt;dir_2146dfdfab3df05eabf1c1d9a0b60864 -->
<g id="edge19" class="edge">
<title>dir_6c23b03f1c1f5d39fa4681c6907c68b5&#45;&gt;dir_2146dfdfab3df05eabf1c1d9a0b60864</title>
<path fill="none" stroke="#000000" d="M182,-375.8314C182,-368.131 182,-358.9743 182,-350.4166"/>
<polygon fill="#000000" stroke="#000000" points="185.5001,-350.4132 182,-340.4133 178.5001,-350.4133 185.5001,-350.4132"/>
<g id="a_edge19&#45;headlabel"><a xlink:href="dir_000001_000008.html" target="_top" xlink:title="4">
<text text-anchor="middle" x="188.3393" y="-351.5079" font-family="Helvetica,sans-Serif" font-size="10.00" fill="#000000">4</text>
</a>
</g>
</g>
<!-- dir_303c75b2167b8ee1fb608a7a61a02a87 -->
<g id="node4" class="node">
<title>dir_303c75b2167b8ee1fb608a7a61a02a87</title>
<g id="a_node4"><a xlink:href="dir_303c75b2167b8ee1fb608a7a61a02a87.html" target="_top" xlink:title="data_distribution">
<polygon fill="#ffffff" stroke="#000000" points="269.5,-124 170.5,-124 170.5,-88 269.5,-88 269.5,-124"/>
<text text-anchor="middle" x="220" y="-103.5" font-family="Helvetica,sans-Serif" font-size="10.00" fill="#000000">data_distribution</text>
</a>
</g>
</g>
<!-- dir_3f615ade772d23cefe5e20dcb18424a2&#45;&gt;dir_303c75b2167b8ee1fb608a7a61a02a87 -->
<g id="edge4" class="edge">
<title>dir_3f615ade772d23cefe5e20dcb18424a2&#45;&gt;dir_303c75b2167b8ee1fb608a7a61a02a87</title>
<path fill="none" stroke="#000000" d="M135.8582,-231.9607C143.3842,-213.203 156.4815,-183.37 172,-160 178.4812,-150.2396 186.623,-140.4128 194.3508,-131.8674"/>
<polygon fill="#000000" stroke="#000000" points="197.0291,-134.1268 201.2718,-124.4185 191.901,-129.3621 197.0291,-134.1268"/>
<g id="a_edge4&#45;headlabel"><a xlink:href="dir_000003_000006.html" target="_top" xlink:title="3">
<text text-anchor="middle" x="196.6624" y="-136.1927" font-family="Helvetica,sans-Serif" font-size="10.00" fill="#000000">3</text>
</a>
</g>
</g>
<!-- dir_51e5b56c5a94789e05e3a3352a90e377 -->
<g id="node5" class="node">
<title>dir_51e5b56c5a94789e05e3a3352a90e377</title>
<g id="a_node5"><a xlink:href="dir_51e5b56c5a94789e05e3a3352a90e377.html" target="_top" xlink:title="env">
<polygon fill="#ffffff" stroke="#000000" points="166,-52 112,-52 112,-16 166,-16 166,-52"/>
<text text-anchor="middle" x="139" y="-31.5" font-family="Helvetica,sans-Serif" font-size="10.00" fill="#000000">env</text>
</a>
</g>
</g>
<!-- dir_3f615ade772d23cefe5e20dcb18424a2&#45;&gt;dir_51e5b56c5a94789e05e3a3352a90e377 -->
<g id="edge5" class="edge">
<title>dir_3f615ade772d23cefe5e20dcb18424a2&#45;&gt;dir_51e5b56c5a94789e05e3a3352a90e377</title>
<path fill="none" stroke="#000000" d="M129.4904,-231.7239C130.0064,-213.537 130.8964,-184.833 132,-160 133.4894,-126.4853 135.7015,-87.984 137.2388,-62.4523"/>
<polygon fill="#000000" stroke="#000000" points="140.7392,-62.5504 137.8523,-52.3565 133.7521,-62.1258 140.7392,-62.5504"/>
<g id="a_edge5&#45;headlabel"><a xlink:href="dir_000003_000007.html" target="_top" xlink:title="2">
<text text-anchor="middle" x="143.3553" y="-63.8106" font-family="Helvetica,sans-Serif" font-size="10.00" fill="#000000">2</text>
</a>
</g>
</g>
<!-- dir_e681bd22f1a85a89d9c18b68cc50d922 -->
<g id="node7" class="node">
<title>dir_e681bd22f1a85a89d9c18b68cc50d922</title>
<g id="a_node7"><a xlink:href="dir_e681bd22f1a85a89d9c18b68cc50d922.html" target="_top" xlink:title="signal">
<polygon fill="#ffffff" stroke="#000000" points="78,-196 24,-196 24,-160 78,-160 78,-196"/>
<text text-anchor="middle" x="51" y="-175.5" font-family="Helvetica,sans-Serif" font-size="10.00" fill="#000000">signal</text>
</a>
</g>
</g>
<!-- dir_3f615ade772d23cefe5e20dcb18424a2&#45;&gt;dir_e681bd22f1a85a89d9c18b68cc50d922 -->
<g id="edge3" class="edge">
<title>dir_3f615ade772d23cefe5e20dcb18424a2&#45;&gt;dir_e681bd22f1a85a89d9c18b68cc50d922</title>
<path fill="none" stroke="#000000" d="M109.3173,-231.8314C99.8949,-223.1337 88.4599,-212.5783 78.2204,-203.1265"/>
<polygon fill="#000000" stroke="#000000" points="80.3984,-200.3738 70.6764,-196.1628 75.6505,-205.5175 80.3984,-200.3738"/>
<g id="a_edge3&#45;headlabel"><a xlink:href="dir_000003_000009.html" target="_top" xlink:title="2">
<text text-anchor="middle" x="84.9656" y="-198.2257" font-family="Helvetica,sans-Serif" font-size="10.00" fill="#000000">2</text>
</a>
</g>
</g>
<!-- dir_1261e2a6fb671f7d089a05433e0b6ee6 -->
<g id="node8" class="node">
<title>dir_1261e2a6fb671f7d089a05433e0b6ee6</title>
<g id="a_node8"><a xlink:href="dir_1261e2a6fb671f7d089a05433e0b6ee6.html" target="_top" xlink:title="synchronization">
<polygon fill="#ffffff" stroke="#ff0000" points="290,-196 196,-196 196,-160 290,-160 290,-196"/>
<text text-anchor="middle" x="243" y="-175.5" font-family="Helvetica,sans-Serif" font-size="10.00" fill="#000000">synchronization</text>
</a>
</g>
</g>
<!-- dir_3f615ade772d23cefe5e20dcb18424a2&#45;&gt;dir_1261e2a6fb671f7d089a05433e0b6ee6 -->
<g id="edge6" class="edge">
<title>dir_3f615ade772d23cefe5e20dcb18424a2&#45;&gt;dir_1261e2a6fb671f7d089a05433e0b6ee6</title>
<path fill="none" stroke="#000000" d="M151.8146,-231.8314C165.4985,-222.6221 183.2374,-211.3301 199.4655,-201.4706"/>
<polygon fill="#000000" stroke="#000000" points="201.5249,-204.3163 208.2904,-196.1628 197.917,-198.3177 201.5249,-204.3163"/>
<g id="a_edge6&#45;headlabel"><a xlink:href="dir_000003_000010.html" target="_top" xlink:title="1">
<text text-anchor="middle" x="199.9079" y="-206.1021" font-family="Helvetica,sans-Serif" font-size="10.00" fill="#000000">1</text>
</a>
</g>
</g>
<!-- dir_0c0c9fa8a58db41e576adc3ce68c5ee9 -->
<g id="node9" class="node">
<title>dir_0c0c9fa8a58db41e576adc3ce68c5ee9</title>
<g id="a_node9"><a xlink:href="dir_0c0c9fa8a58db41e576adc3ce68c5ee9.html" target="_top" xlink:title="types">
<polygon fill="#ffffff" stroke="#000000" points="247,-52 193,-52 193,-16 247,-16 247,-52"/>
<text text-anchor="middle" x="220" y="-31.5" font-family="Helvetica,sans-Serif" font-size="10.00" fill="#000000">types</text>
</a>
</g>
</g>
<!-- dir_3f615ade772d23cefe5e20dcb18424a2&#45;&gt;dir_0c0c9fa8a58db41e576adc3ce68c5ee9 -->
<g id="edge2" class="edge">
<title>dir_3f615ade772d23cefe5e20dcb18424a2&#45;&gt;dir_0c0c9fa8a58db41e576adc3ce68c5ee9</title>
<path fill="none" stroke="#000000" d="M131.2753,-231.7956C136.1207,-194.8663 148.1534,-112.5668 162,-88 168.1748,-77.0446 177.3344,-67.0282 186.5602,-58.6769"/>
<polygon fill="#000000" stroke="#000000" points="188.951,-61.2373 194.2613,-52.0694 184.3928,-55.9248 188.951,-61.2373"/>
<g id="a_edge2&#45;headlabel"><a xlink:href="dir_000003_000012.html" target="_top" xlink:title="3">
<text text-anchor="middle" x="188.0717" y="-63.2328" font-family="Helvetica,sans-Serif" font-size="10.00" fill="#000000">3</text>
</a>
</g>
</g>
<!-- dir_eaca60f7b9e9ea2ccc0f3ac48dc19de2 -->
<g id="node10" class="node">
<title>dir_eaca60f7b9e9ea2ccc0f3ac48dc19de2</title>
<g id="a_node10"><a xlink:href="dir_eaca60f7b9e9ea2ccc0f3ac48dc19de2.html" target="_top" xlink:title="virtual_memory">
<polygon fill="#ffffff" stroke="#000000" points="111.5,-124 16.5,-124 16.5,-88 111.5,-88 111.5,-124"/>
<text text-anchor="middle" x="64" y="-103.5" font-family="Helvetica,sans-Serif" font-size="10.00" fill="#000000">virtual_memory</text>
</a>
</g>
</g>
<!-- dir_3f615ade772d23cefe5e20dcb18424a2&#45;&gt;dir_eaca60f7b9e9ea2ccc0f3ac48dc19de2 -->
<g id="edge7" class="edge">
<title>dir_3f615ade772d23cefe5e20dcb18424a2&#45;&gt;dir_eaca60f7b9e9ea2ccc0f3ac48dc19de2</title>
<path fill="none" stroke="#000000" d="M120.7677,-231.7623C109.5345,-206.8764 89.3149,-162.0822 76.2852,-133.2165"/>
<polygon fill="#000000" stroke="#000000" points="79.4698,-131.7641 72.1655,-124.0896 73.0896,-134.6441 79.4698,-131.7641"/>
<g id="a_edge7&#45;headlabel"><a xlink:href="dir_000003_000013.html" target="_top" xlink:title="4">
<text text-anchor="middle" x="83.5364" y="-131.3723" font-family="Helvetica,sans-Serif" font-size="10.00" fill="#000000">4</text>
</a>
</g>
</g>
<!-- dir_303c75b2167b8ee1fb608a7a61a02a87&#45;&gt;dir_51e5b56c5a94789e05e3a3352a90e377 -->
<g id="edge10" class="edge">
<title>dir_303c75b2167b8ee1fb608a7a61a02a87&#45;&gt;dir_51e5b56c5a94789e05e3a3352a90e377</title>
<path fill="none" stroke="#000000" d="M199.5603,-87.8314C189.6795,-79.0485 177.6676,-68.3712 166.955,-58.8489"/>
<polygon fill="#000000" stroke="#000000" points="169.2326,-56.1906 159.4332,-52.1628 164.582,-61.4224 169.2326,-56.1906"/>
<g id="a_edge10&#45;headlabel"><a xlink:href="dir_000006_000007.html" target="_top" xlink:title="1">
<text text-anchor="middle" x="173.8055" y="-53.9566" font-family="Helvetica,sans-Serif" font-size="10.00" fill="#000000">1</text>
</a>
</g>
</g>
<!-- dir_303c75b2167b8ee1fb608a7a61a02a87&#45;&gt;dir_0c0c9fa8a58db41e576adc3ce68c5ee9 -->
<g id="edge9" class="edge">
<title>dir_303c75b2167b8ee1fb608a7a61a02a87&#45;&gt;dir_0c0c9fa8a58db41e576adc3ce68c5ee9</title>
<path fill="none" stroke="#000000" d="M220,-87.8314C220,-80.131 220,-70.9743 220,-62.4166"/>
<polygon fill="#000000" stroke="#000000" points="223.5001,-62.4132 220,-52.4133 216.5001,-62.4133 223.5001,-62.4132"/>
<g id="a_edge9&#45;headlabel"><a xlink:href="dir_000006_000012.html" target="_top" xlink:title="1">
<text text-anchor="middle" x="226.3393" y="-63.5079" font-family="Helvetica,sans-Serif" font-size="10.00" fill="#000000">1</text>
</a>
</g>
</g>
<!-- dir_2146dfdfab3df05eabf1c1d9a0b60864&#45;&gt;dir_3f615ade772d23cefe5e20dcb18424a2 -->
<g id="edge11" class="edge">
<title>dir_2146dfdfab3df05eabf1c1d9a0b60864&#45;&gt;dir_3f615ade772d23cefe5e20dcb18424a2</title>
<path fill="none" stroke="#000000" d="M168.6259,-303.8314C162.5838,-295.6232 155.3237,-285.7606 148.6779,-276.7323"/>
<polygon fill="#000000" stroke="#000000" points="151.3011,-274.3918 142.5542,-268.4133 145.6637,-278.5415 151.3011,-274.3918"/>
<g id="a_edge11&#45;headlabel"><a xlink:href="dir_000008_000003.html" target="_top" xlink:title="2">
<text text-anchor="middle" x="155.7186" y="-273.1035" font-family="Helvetica,sans-Serif" font-size="10.00" fill="#000000">2</text>
</a>
</g>
</g>
<!-- dir_2146dfdfab3df05eabf1c1d9a0b60864&#45;&gt;dir_303c75b2167b8ee1fb608a7a61a02a87 -->
<g id="edge12" class="edge">
<title>dir_2146dfdfab3df05eabf1c1d9a0b60864&#45;&gt;dir_303c75b2167b8ee1fb608a7a61a02a87</title>
<path fill="none" stroke="#000000" d="M179.5635,-303.537C176.1842,-272.948 172.049,-210.1565 187,-160 189.812,-150.5665 194.6977,-141.122 199.8611,-132.8295"/>
<polygon fill="#000000" stroke="#000000" points="202.8815,-134.6077 205.4881,-124.3385 197.0464,-130.7408 202.8815,-134.6077"/>
<g id="a_edge12&#45;headlabel"><a xlink:href="dir_000008_000006.html" target="_top" xlink:title="1">
<text text-anchor="middle" x="203.2626" y="-136.6725" font-family="Helvetica,sans-Serif" font-size="10.00" fill="#000000">1</text>
</a>
</g>
</g>
<!-- dir_2146dfdfab3df05eabf1c1d9a0b60864&#45;&gt;dir_1261e2a6fb671f7d089a05433e0b6ee6 -->
<g id="edge13" class="edge">
<title>dir_2146dfdfab3df05eabf1c1d9a0b60864&#45;&gt;dir_1261e2a6fb671f7d089a05433e0b6ee6</title>
<path fill="none" stroke="#000000" d="M189.7257,-303.7623C200.2218,-278.9846 219.0781,-234.4714 231.3109,-205.5939"/>
<polygon fill="#000000" stroke="#000000" points="234.6592,-206.6628 235.337,-196.0896 228.2136,-203.9323 234.6592,-206.6628"/>
<g id="a_edge13&#45;headlabel"><a xlink:href="dir_000008_000010.html" target="_top" xlink:title="2">
<text text-anchor="middle" x="235.8715" y="-208.5801" font-family="Helvetica,sans-Serif" font-size="10.00" fill="#000000">2</text>
</a>
</g>
</g>
<!-- dir_e681bd22f1a85a89d9c18b68cc50d922&#45;&gt;dir_eaca60f7b9e9ea2ccc0f3ac48dc19de2 -->
<g id="edge8" class="edge">
<title>dir_e681bd22f1a85a89d9c18b68cc50d922&#45;&gt;dir_eaca60f7b9e9ea2ccc0f3ac48dc19de2</title>
<path fill="none" stroke="#000000" d="M54.2804,-159.8314C55.6708,-152.131 57.3241,-142.9743 58.8692,-134.4166"/>
<polygon fill="#000000" stroke="#000000" points="62.3428,-134.8761 60.6754,-124.4133 55.4542,-133.6322 62.3428,-134.8761"/>
<g id="a_edge8&#45;headlabel"><a xlink:href="dir_000009_000013.html" target="_top" xlink:title="1">
<text text-anchor="middle" x="64.4983" y="-136.4179" font-family="Helvetica,sans-Serif" font-size="10.00" fill="#000000">1</text>
</a>
</g>
</g>
<!-- dir_1261e2a6fb671f7d089a05433e0b6ee6&#45;&gt;dir_6c23b03f1c1f5d39fa4681c6907c68b5 -->
<g id="edge17" class="edge">
<title>dir_1261e2a6fb671f7d089a05433e0b6ee6&#45;&gt;dir_6c23b03f1c1f5d39fa4681c6907c68b5</title>
<path fill="none" stroke="#000000" d="M244.1833,-196.3024C245.4911,-227.1926 245.1953,-291.0878 225,-340 220.8837,-349.9694 214.3471,-359.6033 207.6006,-367.9054"/>
<polygon fill="#000000" stroke="#000000" points="204.7389,-365.8649 200.8661,-375.7266 210.0434,-370.4324 204.7389,-365.8649"/>
<g id="a_edge17&#45;headlabel"><a xlink:href="dir_000010_000001.html" target="_top" xlink:title="1">
<text text-anchor="middle" x="204.9328" y="-358.7884" font-family="Helvetica,sans-Serif" font-size="10.00" fill="#000000">1</text>
</a>
</g>
</g>
<!-- dir_1261e2a6fb671f7d089a05433e0b6ee6&#45;&gt;dir_3f615ade772d23cefe5e20dcb18424a2 -->
<g id="edge15" class="edge">
<title>dir_1261e2a6fb671f7d089a05433e0b6ee6&#45;&gt;dir_3f615ade772d23cefe5e20dcb18424a2</title>
<path fill="none" stroke="#000000" d="M220.1098,-196.2195C204.8944,-206.4569 184.6889,-219.2557 167.1202,-229.7991"/>
<polygon fill="#000000" stroke="#000000" points="165.0292,-226.9699 158.2136,-235.0816 168.6001,-232.9907 165.0292,-226.9699"/>
<g id="a_edge15&#45;headlabel"><a xlink:href="dir_000010_000003.html" target="_top" xlink:title="4">
<text text-anchor="middle" x="166.6726" y="-220.1942" font-family="Helvetica,sans-Serif" font-size="10.00" fill="#000000">4</text>
</a>
</g>
</g>
<!-- dir_1261e2a6fb671f7d089a05433e0b6ee6&#45;&gt;dir_303c75b2167b8ee1fb608a7a61a02a87 -->
<g id="edge16" class="edge">
<title>dir_1261e2a6fb671f7d089a05433e0b6ee6&#45;&gt;dir_303c75b2167b8ee1fb608a7a61a02a87</title>
<path fill="none" stroke="#000000" d="M237.1961,-159.8314C234.7092,-152.0463 231.7469,-142.7729 228.9875,-134.1347"/>
<polygon fill="#000000" stroke="#000000" points="232.2591,-132.874 225.882,-124.4133 225.591,-135.0041 232.2591,-132.874"/>
<g id="a_edge16&#45;headlabel"><a xlink:href="dir_000010_000006.html" target="_top" xlink:title="2">
<text text-anchor="middle" x="236.0574" y="-132.9342" font-family="Helvetica,sans-Serif" font-size="10.00" fill="#000000">2</text>
</a>
</g>
</g>
<!-- dir_1261e2a6fb671f7d089a05433e0b6ee6&#45;&gt;dir_0c0c9fa8a58db41e576adc3ce68c5ee9 -->
<g id="edge14" class="edge">
<title>dir_1261e2a6fb671f7d089a05433e0b6ee6&#45;&gt;dir_0c0c9fa8a58db41e576adc3ce68c5ee9</title>
<path fill="none" stroke="#000000" d="M258.9686,-159.9194C273.0761,-141.638 289.8515,-112.6423 279,-88 273.8411,-76.2848 264.7467,-66.0045 255.2203,-57.6448"/>
<polygon fill="#000000" stroke="#000000" points="257.1514,-54.7029 247.1934,-51.0851 252.7219,-60.1231 257.1514,-54.7029"/>
<g id="a_edge14&#45;headlabel"><a xlink:href="dir_000010_000012.html" target="_top" xlink:title="1">
<text text-anchor="middle" x="261.7314" y="-52.2789" font-family="Helvetica,sans-Serif" font-size="10.00" fill="#000000">1</text>
</a>
</g>
</g>
</g>
</svg>
