<?xml version="1.0" encoding="UTF-8" standalone="no"?>
<!DOCTYPE svg PUBLIC "-//W3C//DTD SVG 1.1//EN"
 "http://www.w3.org/Graphics/SVG/1.1/DTD/svg11.dtd">
<!-- Generated by graphviz version 2.40.1 (20161225.0304)
 -->
<!-- Title: /home/atmerhannah/argodsm/src/allocators/dynamic_allocator.hpp Pages: 1 -->
<svg width="1296pt" height="531pt"
 viewBox="0.00 0.00 1295.50 531.00" xmlns="http://www.w3.org/2000/svg" xmlns:xlink="http://www.w3.org/1999/xlink">
<g id="graph0" class="graph" transform="scale(1 1) rotate(0) translate(4 527)">
<title>/home/atmerhannah/argodsm/src/allocators/dynamic_allocator.hpp</title>
<polygon fill="#ffffff" stroke="transparent" points="-4,4 -4,-527 1291.5,-527 1291.5,4 -4,4"/>
<!-- Node0 -->
<g id="node1" class="node">
<title>Node0</title>
<polygon fill="#bfbfbf" stroke="#000000" points="571.5,-481.5 571.5,-522.5 732.5,-522.5 732.5,-481.5 571.5,-481.5"/>
<text text-anchor="start" x="579.5" y="-510.5" font-family="Helvetica,sans-Serif" font-size="10.00" fill="#000000">/home/atmerhannah/argodsm</text>
<text text-anchor="start" x="579.5" y="-499.5" font-family="Helvetica,sans-Serif" font-size="10.00" fill="#000000">/src/allocators/dynamic</text>
<text text-anchor="middle" x="652" y="-488.5" font-family="Helvetica,sans-Serif" font-size="10.00" fill="#000000">_allocator.hpp</text>
</g>
<!-- Node1 -->
<g id="node2" class="node">
<title>Node1</title>
<polygon fill="#ffffff" stroke="#bfbfbf" points="387,-353 387,-372 425,-372 425,-353 387,-353"/>
<text text-anchor="middle" x="406" y="-360" font-family="Helvetica,sans-Serif" font-size="10.00" fill="#000000">map</text>
</g>
<!-- Node0&#45;&gt;Node1 -->
<g id="edge1" class="edge">
<title>Node0&#45;&gt;Node1</title>
<path fill="none" stroke="#191970" d="M571.3409,-489.3125C517.566,-479.3369 453.1797,-463.9722 433,-445 415.6424,-428.681 409.4262,-401.0566 407.2103,-382.3125"/>
<polygon fill="#191970" stroke="#191970" points="410.6835,-381.8571 406.2986,-372.2122 403.7119,-382.4864 410.6835,-381.8571"/>
</g>
<!-- Node2 -->
<g id="node3" class="node">
<title>Node2</title>
<polygon fill="#ffffff" stroke="#bfbfbf" points="1035,-56.5 1035,-75.5 1083,-75.5 1083,-56.5 1035,-56.5"/>
<text text-anchor="middle" x="1059" y="-63.5" font-family="Helvetica,sans-Serif" font-size="10.00" fill="#000000">mutex</text>
</g>
<!-- Node0&#45;&gt;Node2 -->
<g id="edge2" class="edge">
<title>Node0&#45;&gt;Node2</title>
<path fill="none" stroke="#191970" d="M732.9533,-490.0469C847.9989,-470.7446 1045,-428.1125 1045,-362.5 1045,-362.5 1045,-362.5 1045,-178 1045,-145.311 1050.9446,-107.6669 1055.0866,-85.4058"/>
<polygon fill="#191970" stroke="#191970" points="1058.5324,-86.0207 1056.9941,-75.5381 1051.6597,-84.692 1058.5324,-86.0207"/>
</g>
<!-- Node3 -->
<g id="node4" class="node">
<title>Node3</title>
<polygon fill="#ffffff" stroke="#bfbfbf" points="481.5,-353 481.5,-372 524.5,-372 524.5,-353 481.5,-353"/>
<text text-anchor="middle" x="503" y="-360" font-family="Helvetica,sans-Serif" font-size="10.00" fill="#000000">stack</text>
</g>
<!-- Node0&#45;&gt;Node3 -->
<g id="edge3" class="edge">
<title>Node0&#45;&gt;Node3</title>
<path fill="none" stroke="#191970" d="M635.2326,-481.4002C619.7114,-462.8757 595.5435,-435.3716 572,-414 557.4733,-400.8134 539.705,-387.6111 525.8375,-377.8754"/>
<polygon fill="#191970" stroke="#191970" points="527.5767,-374.8227 517.3611,-372.0132 523.595,-380.58 527.5767,-374.8227"/>
</g>
<!-- Node4 -->
<g id="node5" class="node">
<title>Node4</title>
<g id="a_node5"><a xlink:href="dynamic__mempool_8hpp.html" target="_top" xlink:title="This file provides a dynamically growing memory pool for ArgoDSM. ">
<polygon fill="#ffffff" stroke="#000000" points="264,-414.5 264,-444.5 386,-444.5 386,-414.5 264,-414.5"/>
<text text-anchor="start" x="272" y="-432.5" font-family="Helvetica,sans-Serif" font-size="10.00" fill="#000000">../mempools/dynamic</text>
<text text-anchor="middle" x="325" y="-421.5" font-family="Helvetica,sans-Serif" font-size="10.00" fill="#000000">_mempool.hpp</text>
</a>
</g>
</g>
<!-- Node0&#45;&gt;Node4 -->
<g id="edge4" class="edge">
<title>Node0&#45;&gt;Node4</title>
<path fill="none" stroke="#191970" d="M571.1685,-484.0786C517.5327,-472.1869 447.7899,-456.724 396.2385,-445.2945"/>
<polygon fill="#191970" stroke="#191970" points="396.7015,-441.8122 386.181,-443.0646 395.1863,-448.6463 396.7015,-441.8122"/>
</g>
<!-- Node25 -->
<g id="node26" class="node">
<title>Node25</title>
<g id="a_node26"><a xlink:href="global__mempool_8hpp.html" target="_top" xlink:title="This file provides a dynamically growing memory pool for ArgoDSM. ">
<polygon fill="#ffffff" stroke="#000000" points="657,-414.5 657,-444.5 767,-444.5 767,-414.5 657,-414.5"/>
<text text-anchor="start" x="665" y="-432.5" font-family="Helvetica,sans-Serif" font-size="10.00" fill="#000000">../mempools/global</text>
<text text-anchor="middle" x="712" y="-421.5" font-family="Helvetica,sans-Serif" font-size="10.00" fill="#000000">_mempool.hpp</text>
</a>
</g>
</g>
<!-- Node0&#45;&gt;Node25 -->
<g id="edge34" class="edge">
<title>Node0&#45;&gt;Node25</title>
<path fill="none" stroke="#191970" d="M669.0331,-481.4183C676.5361,-472.3522 685.379,-461.6671 693.086,-452.3544"/>
<polygon fill="#191970" stroke="#191970" points="695.8249,-454.5346 699.5042,-444.5991 690.4321,-450.0716 695.8249,-454.5346"/>
</g>
<!-- Node33 -->
<g id="node34" class="node">
<title>Node33</title>
<g id="a_node34"><a xlink:href="generic__allocator_8hpp.html" target="_top" xlink:title="This file provides a generic allocator template for ArgoDSM. ">
<polygon fill="#ffffff" stroke="#000000" points="442.5,-420 442.5,-439 563.5,-439 563.5,-420 442.5,-420"/>
<text text-anchor="middle" x="503" y="-427" font-family="Helvetica,sans-Serif" font-size="10.00" fill="#000000">generic_allocator.hpp</text>
</a>
</g>
</g>
<!-- Node0&#45;&gt;Node33 -->
<g id="edge47" class="edge">
<title>Node0&#45;&gt;Node33</title>
<path fill="none" stroke="#191970" d="M609.7011,-481.4183C584.819,-469.3112 554.0026,-454.3167 531.8947,-443.5595"/>
<polygon fill="#191970" stroke="#191970" points="533.223,-440.3135 522.6995,-439.0853 530.1602,-446.6079 533.223,-440.3135"/>
</g>
<!-- Node34 -->
<g id="node35" class="node">
<title>Node34</title>
<g id="a_node35"><a xlink:href="null__lock_8hpp.html" target="_top" xlink:title="dummy lock, not intended for public use ">
<polygon fill="#ffffff" stroke="#000000" points="1073.5,-420 1073.5,-439 1154.5,-439 1154.5,-420 1073.5,-420"/>
<text text-anchor="middle" x="1114" y="-427" font-family="Helvetica,sans-Serif" font-size="10.00" fill="#000000">null_lock.hpp</text>
</a>
</g>
</g>
<!-- Node0&#45;&gt;Node34 -->
<g id="edge51" class="edge">
<title>Node0&#45;&gt;Node34</title>
<path fill="none" stroke="#191970" d="M732.8711,-493.9435C815.4036,-484.9582 946.9271,-468.5267 1059,-445 1063.6694,-444.0198 1068.5255,-442.8608 1073.3334,-441.6249"/>
<polygon fill="#191970" stroke="#191970" points="1074.3095,-444.9868 1083.0591,-439.0123 1072.4935,-438.2265 1074.3095,-444.9868"/>
</g>
<!-- Node35 -->
<g id="node36" class="node">
<title>Node35</title>
<g id="a_node36"><a xlink:href="dynamic__allocator_8h.html" target="_top" xlink:title="This file provides the dynamic allocator for ArgoDSM. ">
<polygon fill="#ffffff" stroke="#000000" points="1172.5,-420 1172.5,-439 1287.5,-439 1287.5,-420 1172.5,-420"/>
<text text-anchor="middle" x="1230" y="-427" font-family="Helvetica,sans-Serif" font-size="10.00" fill="#000000">dynamic_allocator.h</text>
</a>
</g>
</g>
<!-- Node0&#45;&gt;Node35 -->
<g id="edge52" class="edge">
<title>Node0&#45;&gt;Node35</title>
<path fill="none" stroke="#191970" d="M732.6757,-496.0248C833.9106,-487.8381 1012.6246,-471.1046 1164,-445 1170.1655,-443.9368 1176.6162,-442.6468 1182.9678,-441.2701"/>
<polygon fill="#191970" stroke="#191970" points="1183.8241,-444.665 1192.8121,-439.0554 1182.2877,-437.8357 1183.8241,-444.665"/>
</g>
<!-- Node5 -->
<g id="node6" class="node">
<title>Node5</title>
<g id="a_node6"><a xlink:href="backend_8hpp.html" target="_top" xlink:title="This file provides the backend interface. ">
<polygon fill="#ffffff" stroke="#000000" points="387,-291.5 387,-310.5 519,-310.5 519,-291.5 387,-291.5"/>
<text text-anchor="middle" x="453" y="-298.5" font-family="Helvetica,sans-Serif" font-size="10.00" fill="#000000">../backend/backend.hpp</text>
</a>
</g>
</g>
<!-- Node4&#45;&gt;Node5 -->
<g id="edge5" class="edge">
<title>Node4&#45;&gt;Node5</title>
<path fill="none" stroke="#191970" d="M332.0812,-414.3663C340.9314,-396.6364 357.4452,-367.1303 378,-347 391.07,-334.1999 408.326,-323.3084 422.9907,-315.3414"/>
<polygon fill="#191970" stroke="#191970" points="424.9415,-318.2711 432.1832,-310.5375 421.6994,-312.0671 424.9415,-318.2711"/>
</g>
<!-- Node24 -->
<g id="node25" class="node">
<title>Node24</title>
<g id="a_node25"><a xlink:href="broadcast_8hpp.html" target="_top" xlink:title="This file provides a broadcasting facility for a single value. ">
<polygon fill="#ffffff" stroke="#000000" points="227.5,-347.5 227.5,-377.5 330.5,-377.5 330.5,-347.5 227.5,-347.5"/>
<text text-anchor="start" x="235.5" y="-365.5" font-family="Helvetica,sans-Serif" font-size="10.00" fill="#000000">../synchronization</text>
<text text-anchor="middle" x="279" y="-354.5" font-family="Helvetica,sans-Serif" font-size="10.00" fill="#000000">/broadcast.hpp</text>
</a>
</g>
</g>
<!-- Node4&#45;&gt;Node24 -->
<g id="edge31" class="edge">
<title>Node4&#45;&gt;Node24</title>
<path fill="none" stroke="#191970" d="M314.5619,-414.2967C308.8569,-405.9873 301.6646,-395.5115 295.2433,-386.1587"/>
<polygon fill="#191970" stroke="#191970" points="297.9423,-383.9062 289.3968,-377.6432 292.1715,-387.8682 297.9423,-383.9062"/>
</g>
<!-- Node6 -->
<g id="node7" class="node">
<title>Node6</title>
<polygon fill="#ffffff" stroke="#bfbfbf" points="504,-230 504,-249 556,-249 556,-230 504,-230"/>
<text text-anchor="middle" x="530" y="-237" font-family="Helvetica,sans-Serif" font-size="10.00" fill="#000000">cassert</text>
</g>
<!-- Node5&#45;&gt;Node6 -->
<g id="edge6" class="edge">
<title>Node5&#45;&gt;Node6</title>
<path fill="none" stroke="#191970" d="M465.0313,-291.3906C477.0107,-281.8227 495.6166,-266.9621 509.8525,-255.5919"/>
<polygon fill="#191970" stroke="#191970" points="512.4239,-258.0175 518.0532,-249.0419 508.0553,-252.5479 512.4239,-258.0175"/>
</g>
<!-- Node7 -->
<g id="node8" class="node">
<title>Node7</title>
<polygon fill="#ffffff" stroke="#bfbfbf" points="352,-230 352,-249 402,-249 402,-230 352,-230"/>
<text text-anchor="middle" x="377" y="-237" font-family="Helvetica,sans-Serif" font-size="10.00" fill="#000000">cstdint</text>
</g>
<!-- Node5&#45;&gt;Node7 -->
<g id="edge7" class="edge">
<title>Node5&#45;&gt;Node7</title>
<path fill="none" stroke="#191970" d="M441.125,-291.3906C429.3703,-281.8786 411.1514,-267.1357 397.1328,-255.7917"/>
<polygon fill="#191970" stroke="#191970" points="399.0178,-252.8146 389.0424,-249.2449 394.6144,-258.2562 399.0178,-252.8146"/>
</g>
<!-- Node8 -->
<g id="node9" class="node">
<title>Node8</title>
<polygon fill="#ffffff" stroke="#bfbfbf" points="420.5,-230 420.5,-249 485.5,-249 485.5,-230 420.5,-230"/>
<text text-anchor="middle" x="453" y="-237" font-family="Helvetica,sans-Serif" font-size="10.00" fill="#000000">stdexcept</text>
</g>
<!-- Node5&#45;&gt;Node8 -->
<g id="edge8" class="edge">
<title>Node5&#45;&gt;Node8</title>
<path fill="none" stroke="#191970" d="M453,-291.3906C453,-282.8657 453,-270.1392 453,-259.4235"/>
<polygon fill="#191970" stroke="#191970" points="456.5001,-259.2448 453,-249.2449 449.5001,-259.2449 456.5001,-259.2448"/>
</g>
<!-- Node9 -->
<g id="node10" class="node">
<title>Node9</title>
<g id="a_node10"><a xlink:href="global__ptr_8hpp.html" target="_top" xlink:title="This file provides the global pointer for ArgoDSM. ">
<polygon fill="#ffffff" stroke="#000000" points="590,-224.5 590,-254.5 698,-254.5 698,-224.5 590,-224.5"/>
<text text-anchor="start" x="598" y="-242.5" font-family="Helvetica,sans-Serif" font-size="10.00" fill="#000000">../data_distribution</text>
<text text-anchor="middle" x="644" y="-231.5" font-family="Helvetica,sans-Serif" font-size="10.00" fill="#000000">/global_ptr.hpp</text>
</a>
</g>
</g>
<!-- Node5&#45;&gt;Node9 -->
<g id="edge9" class="edge">
<title>Node5&#45;&gt;Node9</title>
<path fill="none" stroke="#191970" d="M482.8438,-291.3906C510.7277,-282.4123 553.0855,-268.7735 587.3782,-257.7316"/>
<polygon fill="#191970" stroke="#191970" points="588.8302,-260.9411 597.2761,-254.5446 586.6847,-254.278 588.8302,-260.9411"/>
</g>
<!-- Node18 -->
<g id="node19" class="node">
<title>Node18</title>
<g id="a_node19"><a xlink:href="types_8hpp.html" target="_top" xlink:title="This file defines common types used in ArgoDSM. ">
<polygon fill="#ffffff" stroke="#000000" points="0,-.5 0,-19.5 104,-19.5 104,-.5 0,-.5"/>
<text text-anchor="middle" x="52" y="-7.5" font-family="Helvetica,sans-Serif" font-size="10.00" fill="#000000">../types/types.hpp</text>
</a>
</g>
</g>
<!-- Node5&#45;&gt;Node18 -->
<g id="edge30" class="edge">
<title>Node5&#45;&gt;Node18</title>
<path fill="none" stroke="#191970" d="M386.783,-294.4834C272.8878,-281.4238 52,-247.1785 52,-178 52,-178 52,-178 52,-122 52,-89.7116 52,-52.1872 52,-29.8048"/>
<polygon fill="#191970" stroke="#191970" points="55.5001,-29.5883 52,-19.5884 48.5001,-29.5884 55.5001,-29.5883"/>
</g>
<!-- Node10 -->
<g id="node11" class="node">
<title>Node10</title>
<polygon fill="#ffffff" stroke="#bfbfbf" points="672,-168.5 672,-187.5 716,-187.5 716,-168.5 672,-168.5"/>
<text text-anchor="middle" x="694" y="-175.5" font-family="Helvetica,sans-Serif" font-size="10.00" fill="#000000">string</text>
</g>
<!-- Node9&#45;&gt;Node10 -->
<g id="edge10" class="edge">
<title>Node9&#45;&gt;Node10</title>
<path fill="none" stroke="#191970" d="M656.3596,-224.2977C663.3724,-215.672 672.186,-204.8312 679.5214,-195.8087"/>
<polygon fill="#191970" stroke="#191970" points="682.4018,-197.8141 685.9944,-187.8469 676.9703,-193.3982 682.4018,-197.8141"/>
</g>
<!-- Node11 -->
<g id="node12" class="node">
<title>Node11</title>
<g id="a_node12"><a xlink:href="env_8hpp.html" target="_top" xlink:title="This file provides facilities for handling environment variables. ">
<polygon fill="#ffffff" stroke="#000000" points="271.5,-168.5 271.5,-187.5 356.5,-187.5 356.5,-168.5 271.5,-168.5"/>
<text text-anchor="middle" x="314" y="-175.5" font-family="Helvetica,sans-Serif" font-size="10.00" fill="#000000">../env/env.hpp</text>
</a>
</g>
</g>
<!-- Node9&#45;&gt;Node11 -->
<g id="edge11" class="edge">
<title>Node9&#45;&gt;Node11</title>
<path fill="none" stroke="#191970" d="M589.621,-228.7381C581.3751,-227.1331 572.9644,-225.5111 565,-224 496.5899,-211.0207 417.5695,-196.6396 366.7536,-187.4704"/>
<polygon fill="#191970" stroke="#191970" points="367.1276,-183.9815 356.6653,-185.6517 365.8856,-190.8704 367.1276,-183.9815"/>
</g>
<!-- Node13 -->
<g id="node14" class="node">
<title>Node13</title>
<g id="a_node14"><a xlink:href="data__distribution_8hpp.html" target="_top" xlink:title="This file provides an abstraction layer for distributing the shared memory space. ...">
<polygon fill="#ffffff" stroke="#000000" points="534,-168.5 534,-187.5 654,-187.5 654,-168.5 534,-168.5"/>
<text text-anchor="middle" x="594" y="-175.5" font-family="Helvetica,sans-Serif" font-size="10.00" fill="#000000">data_distribution.hpp</text>
</a>
</g>
</g>
<!-- Node9&#45;&gt;Node13 -->
<g id="edge13" class="edge">
<title>Node9&#45;&gt;Node13</title>
<path fill="none" stroke="#191970" d="M631.6404,-224.2977C624.6276,-215.672 615.814,-204.8312 608.4786,-195.8087"/>
<polygon fill="#191970" stroke="#191970" points="611.0297,-193.3982 602.0056,-187.8469 605.5982,-197.8141 611.0297,-193.3982"/>
</g>
<!-- Node12 -->
<g id="node13" class="node">
<title>Node12</title>
<polygon fill="#ffffff" stroke="#bfbfbf" points="80.5,-112.5 80.5,-131.5 133.5,-131.5 133.5,-112.5 80.5,-112.5"/>
<text text-anchor="middle" x="107" y="-119.5" font-family="Helvetica,sans-Serif" font-size="10.00" fill="#000000">cstddef</text>
</g>
<!-- Node11&#45;&gt;Node12 -->
<g id="edge12" class="edge">
<title>Node11&#45;&gt;Node12</title>
<path fill="none" stroke="#191970" d="M277.7118,-168.4863C244.9099,-159.844 195.0469,-146.6018 143.4004,-132.3604"/>
<polygon fill="#191970" stroke="#191970" points="144.3109,-128.9809 133.7399,-129.6905 142.4461,-135.7279 144.3109,-128.9809"/>
</g>
<!-- Node14 -->
<g id="node15" class="node">
<title>Node14</title>
<g id="a_node15"><a xlink:href="base__distribution_8hpp.html" target="_top" xlink:title="This file implements the base distribution class for all the policies to derive from. ">
<polygon fill="#ffffff" stroke="#000000" points="545,-56.5 545,-75.5 667,-75.5 667,-56.5 545,-56.5"/>
<text text-anchor="middle" x="606" y="-63.5" font-family="Helvetica,sans-Serif" font-size="10.00" fill="#000000">base_distribution.hpp</text>
</a>
</g>
</g>
<!-- Node13&#45;&gt;Node14 -->
<g id="edge14" class="edge">
<title>Node13&#45;&gt;Node14</title>
<path fill="none" stroke="#191970" d="M648.1101,-168.4101C701.2162,-158.45 775.4745,-142.8359 784,-132 789.4964,-125.0141 789.4426,-119.0279 784,-112 770.6286,-94.7338 720.6927,-82.7829 677.1029,-75.3983"/>
<polygon fill="#191970" stroke="#191970" points="677.4861,-71.9146 667.0524,-73.7554 676.3568,-78.8229 677.4861,-71.9146"/>
</g>
<!-- Node19 -->
<g id="node20" class="node">
<title>Node19</title>
<g id="a_node20"><a xlink:href="naive__distribution_8hpp.html" target="_top" xlink:title="This file implements the naive data distribution. ">
<polygon fill="#ffffff" stroke="#000000" points="151.5,-112.5 151.5,-131.5 276.5,-131.5 276.5,-112.5 151.5,-112.5"/>
<text text-anchor="middle" x="214" y="-119.5" font-family="Helvetica,sans-Serif" font-size="10.00" fill="#000000">naive_distribution.hpp</text>
</a>
</g>
</g>
<!-- Node13&#45;&gt;Node19 -->
<g id="edge19" class="edge">
<title>Node13&#45;&gt;Node19</title>
<path fill="none" stroke="#191970" d="M533.7879,-169.1266C466.8667,-159.2646 358.7975,-143.3386 287.0829,-132.7701"/>
<polygon fill="#191970" stroke="#191970" points="287.1785,-129.2465 276.7751,-131.2511 286.1579,-136.1717 287.1785,-129.2465"/>
</g>
<!-- Node20 -->
<g id="node21" class="node">
<title>Node20</title>
<g id="a_node21"><a xlink:href="cyclic__distribution_8hpp.html" target="_top" xlink:title="This file implements the cyclic data distribution. ">
<polygon fill="#ffffff" stroke="#000000" points="295,-112.5 295,-131.5 421,-131.5 421,-112.5 295,-112.5"/>
<text text-anchor="middle" x="358" y="-119.5" font-family="Helvetica,sans-Serif" font-size="10.00" fill="#000000">cyclic_distribution.hpp</text>
</a>
</g>
</g>
<!-- Node13&#45;&gt;Node20 -->
<g id="edge21" class="edge">
<title>Node13&#45;&gt;Node20</title>
<path fill="none" stroke="#191970" d="M553.6983,-168.4369C513.3936,-158.8731 451.3179,-144.1432 407.9182,-133.845"/>
<polygon fill="#191970" stroke="#191970" points="408.6734,-130.4271 398.1355,-131.5237 407.0572,-137.238 408.6734,-130.4271"/>
</g>
<!-- Node21 -->
<g id="node22" class="node">
<title>Node21</title>
<g id="a_node22"><a xlink:href="skew__mapp__distribution_8hpp.html" target="_top" xlink:title="This file implements the skew&#45;mapp data distribution. ">
<polygon fill="#ffffff" stroke="#000000" points="439.5,-112.5 439.5,-131.5 596.5,-131.5 596.5,-112.5 439.5,-112.5"/>
<text text-anchor="middle" x="518" y="-119.5" font-family="Helvetica,sans-Serif" font-size="10.00" fill="#000000">skew_mapp_distribution.hpp</text>
</a>
</g>
</g>
<!-- Node13&#45;&gt;Node21 -->
<g id="edge23" class="edge">
<title>Node13&#45;&gt;Node21</title>
<path fill="none" stroke="#191970" d="M580.7618,-168.2455C569.319,-159.814 552.5704,-147.4729 539.2525,-137.6598"/>
<polygon fill="#191970" stroke="#191970" points="541.2133,-134.757 531.0865,-131.6427 537.0609,-140.3924 541.2133,-134.757"/>
</g>
<!-- Node22 -->
<g id="node23" class="node">
<title>Node22</title>
<g id="a_node23"><a xlink:href="prime__mapp__distribution_8hpp.html" target="_top" xlink:title="This file implements the prime&#45;mapp data distribution. ">
<polygon fill="#ffffff" stroke="#000000" points="615,-112.5 615,-131.5 775,-131.5 775,-112.5 615,-112.5"/>
<text text-anchor="middle" x="695" y="-119.5" font-family="Helvetica,sans-Serif" font-size="10.00" fill="#000000">prime_mapp_distribution.hpp</text>
</a>
</g>
</g>
<!-- Node13&#45;&gt;Node22 -->
<g id="edge25" class="edge">
<title>Node13&#45;&gt;Node22</title>
<path fill="none" stroke="#191970" d="M611.5929,-168.2455C627.379,-159.4928 650.7639,-146.527 668.7587,-136.5496"/>
<polygon fill="#191970" stroke="#191970" points="670.5603,-139.5528 677.6087,-131.6427 667.1659,-133.4308 670.5603,-139.5528"/>
</g>
<!-- Node23 -->
<g id="node24" class="node">
<title>Node23</title>
<g id="a_node24"><a xlink:href="first__touch__distribution_8hpp.html" target="_top" xlink:title="This file implements the first&#45;touch data distribution. ">
<polygon fill="#ffffff" stroke="#000000" points="830.5,-112.5 830.5,-131.5 979.5,-131.5 979.5,-112.5 830.5,-112.5"/>
<text text-anchor="middle" x="905" y="-119.5" font-family="Helvetica,sans-Serif" font-size="10.00" fill="#000000">first_touch_distribution.hpp</text>
</a>
</g>
</g>
<!-- Node13&#45;&gt;Node23 -->
<g id="edge27" class="edge">
<title>Node13&#45;&gt;Node23</title>
<path fill="none" stroke="#191970" d="M647.1094,-168.4369C701.1174,-158.712 784.7896,-143.6456 842.0864,-133.3285"/>
<polygon fill="#191970" stroke="#191970" points="842.8882,-136.7405 852.1096,-131.5237 841.6476,-129.8513 842.8882,-136.7405"/>
</g>
<!-- Node15 -->
<g id="node16" class="node">
<title>Node15</title>
<polygon fill="#ffffff" stroke="#bfbfbf" points="540.5,-.5 540.5,-19.5 589.5,-19.5 589.5,-.5 540.5,-.5"/>
<text text-anchor="middle" x="565" y="-7.5" font-family="Helvetica,sans-Serif" font-size="10.00" fill="#000000">cstdlib</text>
</g>
<!-- Node14&#45;&gt;Node15 -->
<g id="edge15" class="edge">
<title>Node14&#45;&gt;Node15</title>
<path fill="none" stroke="#191970" d="M598.8583,-56.2455C593.1556,-48.4564 585.01,-37.3308 578.1375,-27.9439"/>
<polygon fill="#191970" stroke="#191970" points="580.7913,-25.6437 572.0598,-19.6427 575.1432,-29.7789 580.7913,-25.6437"/>
</g>
<!-- Node16 -->
<g id="node17" class="node">
<title>Node16</title>
<polygon fill="#ffffff" stroke="#bfbfbf" points="798,-.5 798,-19.5 858,-19.5 858,-.5 798,-.5"/>
<text text-anchor="middle" x="828" y="-7.5" font-family="Helvetica,sans-Serif" font-size="10.00" fill="#000000">iostream</text>
</g>
<!-- Node14&#45;&gt;Node16 -->
<g id="edge16" class="edge">
<title>Node14&#45;&gt;Node16</title>
<path fill="none" stroke="#191970" d="M643.9109,-56.4369C683.9827,-46.3287 746.9316,-30.4497 787.8364,-20.1314"/>
<polygon fill="#191970" stroke="#191970" points="788.8935,-23.4744 797.7336,-17.6348 787.1813,-16.687 788.8935,-23.4744"/>
</g>
<!-- Node17 -->
<g id="node18" class="node">
<title>Node17</title>
<polygon fill="#ffffff" stroke="#bfbfbf" points="607.5,-.5 607.5,-19.5 688.5,-19.5 688.5,-.5 607.5,-.5"/>
<text text-anchor="middle" x="648" y="-7.5" font-family="Helvetica,sans-Serif" font-size="10.00" fill="#000000">system_error</text>
</g>
<!-- Node14&#45;&gt;Node17 -->
<g id="edge17" class="edge">
<title>Node14&#45;&gt;Node17</title>
<path fill="none" stroke="#191970" d="M613.3158,-56.2455C619.2179,-48.3761 627.6742,-37.101 634.7594,-27.6542"/>
<polygon fill="#191970" stroke="#191970" points="637.568,-29.7427 640.768,-19.6427 631.9679,-25.5427 637.568,-29.7427"/>
</g>
<!-- Node14&#45;&gt;Node18 -->
<g id="edge18" class="edge">
<title>Node14&#45;&gt;Node18</title>
<path fill="none" stroke="#191970" d="M544.8618,-59.82C438.681,-49.0869 221.3194,-27.1153 114.3198,-16.2995"/>
<polygon fill="#191970" stroke="#191970" points="114.6183,-12.8119 104.317,-15.2884 113.9143,-19.7764 114.6183,-12.8119"/>
</g>
<!-- Node19&#45;&gt;Node14 -->
<g id="edge20" class="edge">
<title>Node19&#45;&gt;Node14</title>
<path fill="none" stroke="#191970" d="M276.547,-113.0647C346.9453,-103.0078 461.0864,-86.7019 534.8364,-76.1662"/>
<polygon fill="#191970" stroke="#191970" points="535.5615,-79.5983 544.966,-74.7191 534.5715,-72.6686 535.5615,-79.5983"/>
</g>
<!-- Node20&#45;&gt;Node14 -->
<g id="edge22" class="edge">
<title>Node20&#45;&gt;Node14</title>
<path fill="none" stroke="#191970" d="M400.3509,-112.4369C442.7942,-102.8529 508.2119,-88.0812 553.8313,-77.78"/>
<polygon fill="#191970" stroke="#191970" points="554.8403,-81.1404 563.8237,-75.5237 553.2984,-74.3123 554.8403,-81.1404"/>
</g>
<!-- Node21&#45;&gt;Node14 -->
<g id="edge24" class="edge">
<title>Node21&#45;&gt;Node14</title>
<path fill="none" stroke="#191970" d="M533.3284,-112.2455C546.8303,-103.6534 566.7122,-91.0014 582.2686,-81.1018"/>
<polygon fill="#191970" stroke="#191970" points="584.2897,-83.9643 590.8472,-75.6427 580.5315,-78.0587 584.2897,-83.9643"/>
</g>
<!-- Node22&#45;&gt;Node14 -->
<g id="edge26" class="edge">
<title>Node22&#45;&gt;Node14</title>
<path fill="none" stroke="#191970" d="M679.4974,-112.2455C665.842,-103.6534 645.7343,-91.0014 630.0011,-81.1018"/>
<polygon fill="#191970" stroke="#191970" points="631.6529,-78.006 621.325,-75.6427 627.9249,-83.9307 631.6529,-78.006"/>
</g>
<!-- Node23&#45;&gt;Node2 -->
<g id="edge28" class="edge">
<title>Node23&#45;&gt;Node2</title>
<path fill="none" stroke="#191970" d="M931.4735,-112.3733C957.4751,-102.9181 997.2391,-88.4585 1025.4437,-78.2023"/>
<polygon fill="#191970" stroke="#191970" points="1026.6947,-81.4717 1034.8965,-74.7649 1024.3024,-74.8931 1026.6947,-81.4717"/>
</g>
<!-- Node23&#45;&gt;Node14 -->
<g id="edge29" class="edge">
<title>Node23&#45;&gt;Node14</title>
<path fill="none" stroke="#191970" d="M853.9398,-112.4369C802.1232,-102.7321 721.905,-87.708 666.8285,-77.3926"/>
<polygon fill="#191970" stroke="#191970" points="667.323,-73.9245 656.8496,-75.5237 666.0344,-80.8048 667.323,-73.9245"/>
</g>
<!-- Node24&#45;&gt;Node5 -->
<g id="edge32" class="edge">
<title>Node24&#45;&gt;Node5</title>
<path fill="none" stroke="#191970" d="M321.5652,-347.4554C350.5975,-337.194 388.6541,-323.7429 416.3409,-313.9571"/>
<polygon fill="#191970" stroke="#191970" points="417.7741,-317.1628 426.0362,-310.5303 415.4414,-310.5629 417.7741,-317.1628"/>
</g>
<!-- Node24&#45;&gt;Node18 -->
<g id="edge33" class="edge">
<title>Node24&#45;&gt;Node18</title>
<path fill="none" stroke="#191970" d="M227.2762,-349.6897C150.1564,-329.0558 14,-286.0367 14,-239.5 14,-239.5 14,-239.5 14,-122 14,-87.6118 30.2634,-50.2832 41.511,-28.5791"/>
<polygon fill="#191970" stroke="#191970" points="44.7317,-29.9804 46.393,-19.5166 38.569,-26.6605 44.7317,-29.9804"/>
</g>
<!-- Node25&#45;&gt;Node5 -->
<g id="edge35" class="edge">
<title>Node25&#45;&gt;Node5</title>
<path fill="none" stroke="#191970" d="M659.0537,-414.4491C632.0878,-405.6987 599.3173,-393.3538 572,-378 552.6978,-367.1511 551.3156,-359.4424 533,-347 516.2087,-335.5931 496.4418,-324.2094 480.7579,-315.6201"/>
<polygon fill="#191970" stroke="#191970" points="482.0443,-312.3368 471.5833,-310.658 478.7141,-318.4939 482.0443,-312.3368"/>
</g>
<!-- Node25&#45;&gt;Node9 -->
<g id="edge42" class="edge">
<title>Node25&#45;&gt;Node9</title>
<path fill="none" stroke="#191970" d="M701.7121,-414.2692C695.337,-404.2948 687.3691,-390.7837 682,-378 665.9903,-339.8813 654.7776,-293.0366 648.8645,-264.7623"/>
<polygon fill="#191970" stroke="#191970" points="652.2801,-263.9947 646.8587,-254.8921 645.4203,-265.3888 652.2801,-263.9947"/>
</g>
<!-- Node25&#45;&gt;Node16 -->
<g id="edge45" class="edge">
<title>Node25&#45;&gt;Node16</title>
<path fill="none" stroke="#191970" d="M767.1797,-426.1594C838.3906,-420.7086 956.8548,-407.4055 988,-378 1013.6301,-353.8015 1007,-336.2487 1007,-301 1007,-301 1007,-301 1007,-122 1007,-57.0461 921.249,-28.3522 868.4501,-16.8409"/>
<polygon fill="#191970" stroke="#191970" points="868.8656,-13.353 858.3649,-14.7621 867.4524,-20.2089 868.8656,-13.353"/>
</g>
<!-- Node26 -->
<g id="node27" class="node">
<title>Node26</title>
<g id="a_node27"><a xlink:href="global__tas__lock_8hpp.html" target="_top" xlink:title="This file provides a tas lock for the ArgoDSM system based on the TAS lock made by David Klaftenegger...">
<polygon fill="#ffffff" stroke="#000000" points="691,-347.5 691,-377.5 807,-377.5 807,-347.5 691,-347.5"/>
<text text-anchor="start" x="699" y="-365.5" font-family="Helvetica,sans-Serif" font-size="10.00" fill="#000000">../synchronization</text>
<text text-anchor="middle" x="749" y="-354.5" font-family="Helvetica,sans-Serif" font-size="10.00" fill="#000000">/global_tas_lock.hpp</text>
</a>
</g>
</g>
<!-- Node25&#45;&gt;Node26 -->
<g id="edge36" class="edge">
<title>Node25&#45;&gt;Node26</title>
<path fill="none" stroke="#191970" d="M720.3959,-414.2967C724.9373,-406.0729 730.6506,-395.7272 735.7748,-386.4483"/>
<polygon fill="#191970" stroke="#191970" points="738.8669,-388.0891 740.6374,-377.6432 732.7392,-384.7051 738.8669,-388.0891"/>
</g>
<!-- Node30 -->
<g id="node31" class="node">
<title>Node30</title>
<polygon fill="#ffffff" stroke="#bfbfbf" points="825.5,-353 825.5,-372 902.5,-372 902.5,-353 825.5,-353"/>
<text text-anchor="middle" x="864" y="-360" font-family="Helvetica,sans-Serif" font-size="10.00" fill="#000000">sys/mman.h</text>
</g>
<!-- Node25&#45;&gt;Node30 -->
<g id="edge43" class="edge">
<title>Node25&#45;&gt;Node30</title>
<path fill="none" stroke="#191970" d="M746.1118,-414.4639C772.0749,-403.0196 807.523,-387.3945 832.7515,-376.274"/>
<polygon fill="#191970" stroke="#191970" points="834.4732,-379.3401 842.212,-372.1039 831.6498,-372.9347 834.4732,-379.3401"/>
</g>
<!-- Node31 -->
<g id="node32" class="node">
<title>Node31</title>
<polygon fill="#ffffff" stroke="#bfbfbf" points="921,-353 921,-372 979,-372 979,-353 921,-353"/>
<text text-anchor="middle" x="950" y="-360" font-family="Helvetica,sans-Serif" font-size="10.00" fill="#000000">memory</text>
</g>
<!-- Node25&#45;&gt;Node31 -->
<g id="edge44" class="edge">
<title>Node25&#45;&gt;Node31</title>
<path fill="none" stroke="#191970" d="M767.0103,-417.2197C807.2648,-407.7616 862.9998,-393.6815 911,-378 913.279,-377.2555 915.6165,-376.4462 917.9598,-375.6012"/>
<polygon fill="#191970" stroke="#191970" points="919.3729,-378.8089 927.4904,-372.0004 916.8988,-372.2607 919.3729,-378.8089"/>
</g>
<!-- Node32 -->
<g id="node33" class="node">
<title>Node32</title>
<polygon fill="#ffffff" stroke="#bfbfbf" points="581.5,-353 581.5,-372 634.5,-372 634.5,-353 581.5,-353"/>
<text text-anchor="middle" x="608" y="-360" font-family="Helvetica,sans-Serif" font-size="10.00" fill="#000000">stdlib.h</text>
</g>
<!-- Node25&#45;&gt;Node32 -->
<g id="edge46" class="edge">
<title>Node25&#45;&gt;Node32</title>
<path fill="none" stroke="#191970" d="M688.6604,-414.4639C671.6821,-403.526 648.7758,-388.769 631.7118,-377.7759"/>
<polygon fill="#191970" stroke="#191970" points="633.2096,-374.5774 622.9076,-372.1039 629.4186,-380.462 633.2096,-374.5774"/>
</g>
<!-- Node26&#45;&gt;Node5 -->
<g id="edge37" class="edge">
<title>Node26&#45;&gt;Node5</title>
<path fill="none" stroke="#191970" d="M690.8731,-350.423C638.1537,-339.4694 560.9483,-323.4284 508.925,-312.6195"/>
<polygon fill="#191970" stroke="#191970" points="509.3737,-309.1381 498.8708,-310.5306 507.9496,-315.9917 509.3737,-309.1381"/>
</g>
<!-- Node26&#45;&gt;Node9 -->
<g id="edge38" class="edge">
<title>Node26&#45;&gt;Node9</title>
<path fill="none" stroke="#191970" d="M736.1249,-347.4178C718.0193,-326.2084 684.8815,-287.3897 663.6756,-262.5485"/>
<polygon fill="#191970" stroke="#191970" points="666.135,-260.0388 656.9804,-254.7056 660.811,-264.5837 666.135,-260.0388"/>
</g>
<!-- Node27 -->
<g id="node28" class="node">
<title>Node27</title>
<polygon fill="#ffffff" stroke="#bfbfbf" points="727,-291.5 727,-310.5 777,-310.5 777,-291.5 727,-291.5"/>
<text text-anchor="middle" x="752" y="-298.5" font-family="Helvetica,sans-Serif" font-size="10.00" fill="#000000">atomic</text>
</g>
<!-- Node26&#45;&gt;Node27 -->
<g id="edge39" class="edge">
<title>Node26&#45;&gt;Node27</title>
<path fill="none" stroke="#191970" d="M749.7416,-347.2977C750.1276,-339.3834 750.6047,-329.6043 751.0207,-321.0759"/>
<polygon fill="#191970" stroke="#191970" points="754.5282,-321.0056 751.5197,-310.8469 747.5365,-320.6645 754.5282,-321.0056"/>
</g>
<!-- Node28 -->
<g id="node29" class="node">
<title>Node28</title>
<polygon fill="#ffffff" stroke="#bfbfbf" points="795,-291.5 795,-310.5 845,-310.5 845,-291.5 795,-291.5"/>
<text text-anchor="middle" x="820" y="-298.5" font-family="Helvetica,sans-Serif" font-size="10.00" fill="#000000">chrono</text>
</g>
<!-- Node26&#45;&gt;Node28 -->
<g id="edge40" class="edge">
<title>Node26&#45;&gt;Node28</title>
<path fill="none" stroke="#191970" d="M766.5506,-347.2977C777.0221,-338.2274 790.3211,-326.7077 801.0338,-317.4285"/>
<polygon fill="#191970" stroke="#191970" points="803.3649,-320.0398 808.632,-310.8469 798.7818,-314.7487 803.3649,-320.0398"/>
</g>
<!-- Node29 -->
<g id="node30" class="node">
<title>Node29</title>
<polygon fill="#ffffff" stroke="#bfbfbf" points="863,-291.5 863,-310.5 911,-310.5 911,-291.5 863,-291.5"/>
<text text-anchor="middle" x="887" y="-298.5" font-family="Helvetica,sans-Serif" font-size="10.00" fill="#000000">thread</text>
</g>
<!-- Node26&#45;&gt;Node29 -->
<g id="edge41" class="edge">
<title>Node26&#45;&gt;Node29</title>
<path fill="none" stroke="#191970" d="M782.7586,-347.4554C805.2793,-337.419 834.6467,-324.3314 856.4692,-314.6061"/>
<polygon fill="#191970" stroke="#191970" points="857.9056,-317.7979 865.6149,-310.5303 855.0561,-311.4041 857.9056,-317.7979"/>
</g>
<!-- Node33&#45;&gt;Node1 -->
<g id="edge48" class="edge">
<title>Node33&#45;&gt;Node1</title>
<path fill="none" stroke="#191970" d="M489.1023,-419.9005C473.1836,-408.9052 446.8879,-390.7422 428.1401,-377.7927"/>
<polygon fill="#191970" stroke="#191970" points="430.0892,-374.8852 419.872,-372.0817 426.1108,-380.6448 430.0892,-374.8852"/>
</g>
<!-- Node33&#45;&gt;Node3 -->
<g id="edge49" class="edge">
<title>Node33&#45;&gt;Node3</title>
<path fill="none" stroke="#191970" d="M503,-419.9005C503,-410.149 503,-394.7597 503,-382.3695"/>
<polygon fill="#191970" stroke="#191970" points="506.5001,-382.0816 503,-372.0817 499.5001,-382.0817 506.5001,-382.0816"/>
</g>
<!-- Node33&#45;&gt;Node5 -->
<g id="edge50" class="edge">
<title>Node33&#45;&gt;Node5</title>
<path fill="none" stroke="#191970" d="M495.8818,-419.7152C488.8923,-409.6908 478.3772,-393.4315 472,-378 464.2983,-359.3635 459.1904,-336.8498 456.229,-320.9944"/>
<polygon fill="#191970" stroke="#191970" points="459.613,-320.0259 454.4458,-310.7766 452.7172,-321.2295 459.613,-320.0259"/>
</g>
</g>
</svg>
