<?xml version="1.0" encoding="UTF-8" standalone="no"?>
<!DOCTYPE svg PUBLIC "-//W3C//DTD SVG 1.1//EN"
 "http://www.w3.org/Graphics/SVG/1.1/DTD/svg11.dtd">
<!-- Generated by graphviz version 2.40.1 (20161225.0304)
 -->
<!-- Title: /home/atmerhannah/argodsm/src/data_distribution/first_touch_distribution.hpp Pages: 1 -->
<svg width="358pt" height="162pt"
 viewBox="0.00 0.00 357.50 162.00" xmlns="http://www.w3.org/2000/svg" xmlns:xlink="http://www.w3.org/1999/xlink">
<g id="graph0" class="graph" transform="scale(1 1) rotate(0) translate(4 158)">
<title>/home/atmerhannah/argodsm/src/data_distribution/first_touch_distribution.hpp</title>
<polygon fill="#ffffff" stroke="transparent" points="-4,4 -4,-158 353.5,-158 353.5,4 -4,4"/>
<!-- Node0 -->
<g id="node1" class="node">
<title>Node0</title>
<polygon fill="#bfbfbf" stroke="#000000" points="9,-112.5 9,-153.5 170,-153.5 170,-112.5 9,-112.5"/>
<text text-anchor="start" x="17" y="-141.5" font-family="Helvetica,sans-Serif" font-size="10.00" fill="#000000">/home/atmerhannah/argodsm</text>
<text text-anchor="start" x="17" y="-130.5" font-family="Helvetica,sans-Serif" font-size="10.00" fill="#000000">/src/data_distribution</text>
<text text-anchor="middle" x="89.5" y="-119.5" font-family="Helvetica,sans-Serif" font-size="10.00" fill="#000000">/first_touch_distribution.hpp</text>
</g>
<!-- Node1 -->
<g id="node2" class="node">
<title>Node1</title>
<polygon fill="#ffffff" stroke="#bfbfbf" points="14.5,-56.5 14.5,-75.5 62.5,-75.5 62.5,-56.5 14.5,-56.5"/>
<text text-anchor="middle" x="38.5" y="-63.5" font-family="Helvetica,sans-Serif" font-size="10.00" fill="#000000">mutex</text>
</g>
<!-- Node0&#45;&gt;Node1 -->
<g id="edge1" class="edge">
<title>Node0&#45;&gt;Node1</title>
<path fill="none" stroke="#191970" d="M73.6428,-112.168C66.7128,-103.0639 58.6685,-92.4959 52.0264,-83.7699"/>
<polygon fill="#191970" stroke="#191970" points="54.7867,-81.6176 45.9448,-75.7805 49.2168,-85.8574 54.7867,-81.6176"/>
</g>
<!-- Node2 -->
<g id="node3" class="node">
<title>Node2</title>
<g id="a_node3"><a xlink:href="base__distribution_8hpp.html" target="_top" xlink:title="This file implements the base distribution class for all the policies to derive from. ">
<polygon fill="#ffffff" stroke="#000000" points="80.5,-56.5 80.5,-75.5 202.5,-75.5 202.5,-56.5 80.5,-56.5"/>
<text text-anchor="middle" x="141.5" y="-63.5" font-family="Helvetica,sans-Serif" font-size="10.00" fill="#000000">base_distribution.hpp</text>
</a>
</g>
</g>
<!-- Node0&#45;&gt;Node2 -->
<g id="edge2" class="edge">
<title>Node0&#45;&gt;Node2</title>
<path fill="none" stroke="#191970" d="M105.6681,-112.168C112.734,-103.0639 120.936,-92.4959 127.7084,-83.7699"/>
<polygon fill="#191970" stroke="#191970" points="130.5429,-85.8263 133.9092,-75.7805 125.0129,-81.5344 130.5429,-85.8263"/>
</g>
<!-- Node3 -->
<g id="node4" class="node">
<title>Node3</title>
<polygon fill="#ffffff" stroke="#bfbfbf" points="0,-.5 0,-19.5 49,-19.5 49,-.5 0,-.5"/>
<text text-anchor="middle" x="24.5" y="-7.5" font-family="Helvetica,sans-Serif" font-size="10.00" fill="#000000">cstdlib</text>
</g>
<!-- Node2&#45;&gt;Node3 -->
<g id="edge3" class="edge">
<title>Node2&#45;&gt;Node3</title>
<path fill="none" stroke="#191970" d="M121.387,-56.3733C102.6897,-47.4241 74.6256,-33.9917 53.5066,-23.8835"/>
<polygon fill="#191970" stroke="#191970" points="54.8817,-20.6614 44.3506,-19.5011 51.8595,-26.9755 54.8817,-20.6614"/>
</g>
<!-- Node4 -->
<g id="node5" class="node">
<title>Node4</title>
<polygon fill="#ffffff" stroke="#bfbfbf" points="67.5,-.5 67.5,-19.5 127.5,-19.5 127.5,-.5 67.5,-.5"/>
<text text-anchor="middle" x="97.5" y="-7.5" font-family="Helvetica,sans-Serif" font-size="10.00" fill="#000000">iostream</text>
</g>
<!-- Node2&#45;&gt;Node4 -->
<g id="edge4" class="edge">
<title>Node2&#45;&gt;Node4</title>
<path fill="none" stroke="#191970" d="M133.8358,-56.2455C127.6527,-48.3761 118.7937,-37.101 111.3711,-27.6542"/>
<polygon fill="#191970" stroke="#191970" points="114.0068,-25.3435 105.0764,-19.6427 108.5025,-29.6683 114.0068,-25.3435"/>
</g>
<!-- Node5 -->
<g id="node6" class="node">
<title>Node5</title>
<polygon fill="#ffffff" stroke="#bfbfbf" points="146,-.5 146,-19.5 227,-19.5 227,-.5 146,-.5"/>
<text text-anchor="middle" x="186.5" y="-7.5" font-family="Helvetica,sans-Serif" font-size="10.00" fill="#000000">system_error</text>
</g>
<!-- Node2&#45;&gt;Node5 -->
<g id="edge5" class="edge">
<title>Node2&#45;&gt;Node5</title>
<path fill="none" stroke="#191970" d="M149.3384,-56.2455C155.662,-48.3761 164.7224,-37.101 172.3136,-27.6542"/>
<polygon fill="#191970" stroke="#191970" points="175.2158,-29.6302 178.7514,-19.6427 169.7592,-25.2454 175.2158,-29.6302"/>
</g>
<!-- Node6 -->
<g id="node7" class="node">
<title>Node6</title>
<g id="a_node7"><a xlink:href="types_8hpp.html" target="_top" xlink:title="This file defines common types used in ArgoDSM. ">
<polygon fill="#ffffff" stroke="#000000" points="245.5,-.5 245.5,-19.5 349.5,-19.5 349.5,-.5 245.5,-.5"/>
<text text-anchor="middle" x="297.5" y="-7.5" font-family="Helvetica,sans-Serif" font-size="10.00" fill="#000000">../types/types.hpp</text>
</a>
</g>
</g>
<!-- Node2&#45;&gt;Node6 -->
<g id="edge6" class="edge">
<title>Node2&#45;&gt;Node6</title>
<path fill="none" stroke="#191970" d="M168.3174,-56.3733C194.0332,-47.1419 233.038,-33.1402 261.4599,-22.9375"/>
<polygon fill="#191970" stroke="#191970" points="262.8032,-26.174 271.0326,-19.5011 260.4381,-19.5857 262.8032,-26.174"/>
</g>
</g>
</svg>
