<?xml version="1.0" encoding="UTF-8" standalone="no"?>
<!DOCTYPE svg PUBLIC "-//W3C//DTD SVG 1.1//EN"
 "http://www.w3.org/Graphics/SVG/1.1/DTD/svg11.dtd">
<!-- Generated by graphviz version 2.40.1 (20161225.0304)
 -->
<!-- Title: /home/atmerhannah/argodsm/src/allocators/generic_allocator.hpp Pages: 1 -->
<!--zoomable 429 -->
<svg id="main" version="1.1" xmlns="http://www.w3.org/2000/svg" xmlns:xlink="http://www.w3.org/1999/xlink" xml:space="preserve" onload="init(evt)">
<style type="text/css"><![CDATA[
.edge:hover path { stroke: red; }
.edge:hover polygon { stroke: red; fill: red; }
]]></style>
<script type="text/javascript"><![CDATA[
var edges = document.getElementsByTagName('g');
if (edges && edges.length) {
  for (var i=0;i<edges.length;i++) {
    if (edges[i].id.substr(0,4)=='edge') {
      edges[i].setAttribute('class','edge');
    }
  }
}
]]></script>
        <defs>
                <circle id="rim" cx="0" cy="0" r="7"/>
                <circle id="rim2" cx="0" cy="0" r="3.5"/>
                <g id="zoomPlus">
                        <use xlink:href="#rim" fill="#404040">
                                <set attributeName="fill" to="#808080" begin="zoomplus.mouseover" end="zoomplus.mouseout"/>
                        </use>
                        <path d="M-4,0h8M0,-4v8" fill="none" stroke="white" stroke-width="1.5" pointer-events="none"/>
                </g>
                <g id="zoomMin">
                        <use xlink:href="#rim" fill="#404040">
                                <set attributeName="fill" to="#808080" begin="zoomminus.mouseover" end="zoomminus.mouseout"/>
                        </use>
                        <path d="M-4,0h8" fill="none" stroke="white" stroke-width="1.5" pointer-events="none"/>
                </g>
                <g id="dirArrow">
                        <path fill="none" stroke="white" stroke-width="1.5" d="M0,-3.0v7 M-2.5,-0.5L0,-3.0L2.5,-0.5"/>
                </g>
               <g id="resetDef">
                       <use xlink:href="#rim2" fill="#404040">
                               <set attributeName="fill" to="#808080" begin="reset.mouseover" end="reset.mouseout"/>
                       </use>
               </g>
        </defs>

<script type="text/javascript">
var viewWidth = 1959;
var viewHeight = 429;
var sectionId = 'dynsection-1';
</script>
<script xlink:href="svgpan.js"/>
<svg id="graph" class="graph">
<g id="viewport">
<title>/home/atmerhannah/argodsm/src/allocators/generic_allocator.hpp</title>
<polygon fill="#ffffff" stroke="transparent" points="-4,4 -4,-425 1955,-425 1955,4 -4,4"/>
<!-- Node23 -->
<g id="node1" class="node">
<title>Node23</title>
<polygon fill="#bfbfbf" stroke="#000000" points="1388,-379.5 1388,-420.5 1549,-420.5 1549,-379.5 1388,-379.5"/>
<text text-anchor="start" x="1396" y="-408.5" font-family="Helvetica,sans-Serif" font-size="10.00" fill="#000000">/home/atmerhannah/argodsm</text>
<text text-anchor="start" x="1396" y="-397.5" font-family="Helvetica,sans-Serif" font-size="10.00" fill="#000000">/src/allocators/generic</text>
<text text-anchor="middle" x="1468.5" y="-386.5" font-family="Helvetica,sans-Serif" font-size="10.00" fill="#000000">_allocator.hpp</text>
</g>
<!-- Node24 -->
<g id="node2" class="node">
<title>Node24</title>
<g id="a_node2"><a xlink:href="dynamic__allocator_8hpp.html" target="_top" xlink:title="This file provides the dynamic allocator for ArgoDSM. ">
<polygon fill="#ffffff" stroke="#000000" points="980,-301.5 980,-342.5 1141,-342.5 1141,-301.5 980,-301.5"/>
<text text-anchor="start" x="988" y="-330.5" font-family="Helvetica,sans-Serif" font-size="10.00" fill="#000000">/home/atmerhannah/argodsm</text>
<text text-anchor="start" x="988" y="-319.5" font-family="Helvetica,sans-Serif" font-size="10.00" fill="#000000">/src/allocators/dynamic</text>
<text text-anchor="middle" x="1060.5" y="-308.5" font-family="Helvetica,sans-Serif" font-size="10.00" fill="#000000">_allocator.hpp</text>
</a>
</g>
</g>
<!-- Node23&#45;&gt;Node24 -->
<g id="edge1" class="edge">
<title>Node23&#45;&gt;Node24</title>
<path fill="none" stroke="#191970" d="M1377.6437,-382.6304C1306.8271,-369.0919 1209.405,-350.4671 1141.2886,-337.4449"/>
<polygon fill="#191970" stroke="#191970" points="1377.413,-386.1496 1387.8923,-384.5897 1378.7275,-379.2741 1377.413,-386.1496"/>
</g>
<!-- Node25 -->
<g id="node3" class="node">
<title>Node25</title>
<g id="a_node3"><a xlink:href="collective__allocator_8hpp.html" target="_top" xlink:title="This file provides the collective allocator for ArgoDSM. ">
<polygon fill="#ffffff" stroke="#000000" points="1132,-223.5 1132,-264.5 1293,-264.5 1293,-223.5 1132,-223.5"/>
<text text-anchor="start" x="1140" y="-252.5" font-family="Helvetica,sans-Serif" font-size="10.00" fill="#000000">/home/atmerhannah/argodsm</text>
<text text-anchor="start" x="1140" y="-241.5" font-family="Helvetica,sans-Serif" font-size="10.00" fill="#000000">/src/allocators/collective</text>
<text text-anchor="middle" x="1212.5" y="-230.5" font-family="Helvetica,sans-Serif" font-size="10.00" fill="#000000">_allocator.hpp</text>
</a>
</g>
</g>
<!-- Node23&#45;&gt;Node25 -->
<g id="edge29" class="edge">
<title>Node23&#45;&gt;Node25</title>
<path fill="none" stroke="#191970" d="M1378.2074,-376.2917C1354.1685,-367.8171 1328.9438,-356.84 1307.5,-343 1274.4764,-321.6863 1244.5573,-286.7207 1227.4595,-264.5554"/>
<polygon fill="#191970" stroke="#191970" points="1377.1116,-379.6159 1387.7061,-379.5351 1379.3736,-372.9914 1377.1116,-379.6159"/>
</g>
<!-- Node30 -->
<g id="node8" class="node">
<title>Node30</title>
<g id="a_node8"><a xlink:href="tests_2allocators_8cpp.html" target="_top" xlink:title="This file provides unit tests for the ArgoDSM allocators and memory pools. ">
<polygon fill="#ffffff" stroke="#000000" points="1253,-.5 1253,-30.5 1414,-30.5 1414,-.5 1253,-.5"/>
<text text-anchor="start" x="1261" y="-18.5" font-family="Helvetica,sans-Serif" font-size="10.00" fill="#000000">/home/atmerhannah/argodsm</text>
<text text-anchor="middle" x="1333.5" y="-7.5" font-family="Helvetica,sans-Serif" font-size="10.00" fill="#000000">/tests/allocators.cpp</text>
</a>
</g>
</g>
<!-- Node23&#45;&gt;Node30 -->
<g id="edge30" class="edge">
<title>Node23&#45;&gt;Node30</title>
<path fill="none" stroke="#191970" d="M1419.3092,-374.1172C1376.5805,-347.6903 1321.5,-302.3146 1321.5,-244 1321.5,-244 1321.5,-244 1321.5,-166 1321.5,-116.4605 1328.0407,-58.0377 1331.4644,-30.8504"/>
<polygon fill="#191970" stroke="#191970" points="1417.5686,-377.1546 1427.9425,-379.3074 1421.1754,-371.1553 1417.5686,-377.1546"/>
</g>
<!-- Node34 -->
<g id="node12" class="node">
<title>Node34</title>
<g id="a_node12"><a xlink:href="lock_8cpp.html" target="_top" xlink:title="This file provides unit tests for the ArgoDSM locks. ">
<polygon fill="#ffffff" stroke="#000000" points="1432,-.5 1432,-30.5 1593,-30.5 1593,-.5 1432,-.5"/>
<text text-anchor="start" x="1440" y="-18.5" font-family="Helvetica,sans-Serif" font-size="10.00" fill="#000000">/home/atmerhannah/argodsm</text>
<text text-anchor="middle" x="1512.5" y="-7.5" font-family="Helvetica,sans-Serif" font-size="10.00" fill="#000000">/tests/lock.cpp</text>
</a>
</g>
</g>
<!-- Node23&#45;&gt;Node34 -->
<g id="edge31" class="edge">
<title>Node23&#45;&gt;Node34</title>
<path fill="none" stroke="#191970" d="M1517.6908,-374.1172C1560.4195,-347.6903 1615.5,-302.3146 1615.5,-244 1615.5,-244 1615.5,-244 1615.5,-166 1615.5,-107.7425 1562.29,-55.4816 1532.3594,-30.6931"/>
<polygon fill="#191970" stroke="#191970" points="1515.8246,-371.1553 1509.0575,-379.3074 1519.4314,-377.1546 1515.8246,-371.1553"/>
</g>
<!-- Node35 -->
<g id="node13" class="node">
<title>Node35</title>
<g id="a_node13"><a xlink:href="omp_8cpp.html" target="_top" xlink:title="This file provides tests using OpenMP in ArgoDSM. ">
<polygon fill="#ffffff" stroke="#000000" points="1611,-.5 1611,-30.5 1772,-30.5 1772,-.5 1611,-.5"/>
<text text-anchor="start" x="1619" y="-18.5" font-family="Helvetica,sans-Serif" font-size="10.00" fill="#000000">/home/atmerhannah/argodsm</text>
<text text-anchor="middle" x="1691.5" y="-7.5" font-family="Helvetica,sans-Serif" font-size="10.00" fill="#000000">/tests/omp.cpp</text>
</a>
</g>
</g>
<!-- Node23&#45;&gt;Node35 -->
<g id="edge32" class="edge">
<title>Node23&#45;&gt;Node35</title>
<path fill="none" stroke="#191970" d="M1557.8488,-376.113C1619.905,-353.4884 1691.5,-312.5351 1691.5,-244 1691.5,-244 1691.5,-244 1691.5,-166 1691.5,-116.6172 1691.5,-58.1198 1691.5,-30.8826"/>
<polygon fill="#191970" stroke="#191970" points="1556.6444,-372.8264 1548.3782,-379.4537 1558.9731,-379.4278 1556.6444,-372.8264"/>
</g>
<!-- Node36 -->
<g id="node14" class="node">
<title>Node36</title>
<g id="a_node14"><a xlink:href="prefetch_8cpp.html" target="_top" xlink:title="This file provides unit tests for the ArgoDSM prefetch mechanism. ">
<polygon fill="#ffffff" stroke="#000000" points="1790,-.5 1790,-30.5 1951,-30.5 1951,-.5 1790,-.5"/>
<text text-anchor="start" x="1798" y="-18.5" font-family="Helvetica,sans-Serif" font-size="10.00" fill="#000000">/home/atmerhannah/argodsm</text>
<text text-anchor="middle" x="1870.5" y="-7.5" font-family="Helvetica,sans-Serif" font-size="10.00" fill="#000000">/tests/prefetch.cpp</text>
</a>
</g>
</g>
<!-- Node23&#45;&gt;Node36 -->
<g id="edge33" class="edge">
<title>Node23&#45;&gt;Node36</title>
<path fill="none" stroke="#191970" d="M1559.059,-380.9836C1593.4081,-371.9388 1632.2358,-359.4382 1665.5,-343 1731.8831,-310.1954 1799.5,-318.0464 1799.5,-244 1799.5,-244 1799.5,-244 1799.5,-166 1799.5,-111.9755 1837.3845,-56.573 1857.8066,-30.6322"/>
<polygon fill="#191970" stroke="#191970" points="1557.8416,-377.6826 1549.0275,-383.5615 1559.584,-384.4623 1557.8416,-377.6826"/>
</g>
<!-- Node24&#45;&gt;Node25 -->
<g id="edge2" class="edge">
<title>Node24&#45;&gt;Node25</title>
<path fill="none" stroke="#191970" d="M1109.9172,-296.6411C1130.1818,-286.2422 1153.3314,-274.3628 1172.5048,-264.5239"/>
<polygon fill="#191970" stroke="#191970" points="1108.1332,-293.6227 1100.8341,-301.3022 1111.3291,-299.8506 1108.1332,-293.6227"/>
</g>
<!-- Node26 -->
<g id="node4" class="node">
<title>Node26</title>
<g id="a_node4"><a xlink:href="src_2allocators_2allocators_8cpp.html" target="_top" xlink:title="This file provides the default allocators. ">
<polygon fill="#ffffff" stroke="#000000" points="801,-151 801,-181 962,-181 962,-151 801,-151"/>
<text text-anchor="start" x="809" y="-169" font-family="Helvetica,sans-Serif" font-size="10.00" fill="#000000">/home/atmerhannah/argodsm</text>
<text text-anchor="middle" x="881.5" y="-158" font-family="Helvetica,sans-Serif" font-size="10.00" fill="#000000">/src/allocators/allocators.cpp</text>
</a>
</g>
</g>
<!-- Node24&#45;&gt;Node26 -->
<g id="edge26" class="edge">
<title>Node24&#45;&gt;Node26</title>
<path fill="none" stroke="#191970" d="M1029.0448,-294.5866C991.2022,-261.6064 929.0125,-207.4076 898.9075,-181.1708"/>
<polygon fill="#191970" stroke="#191970" points="1026.8918,-297.3528 1036.7302,-301.2844 1031.4909,-292.0757 1026.8918,-297.3528"/>
</g>
<!-- Node27 -->
<g id="node5" class="node">
<title>Node27</title>
<g id="a_node5"><a xlink:href="allocators_8hpp.html" target="_top" xlink:title="This file provides all C++ allocators for ArgoDSM. ">
<polygon fill="#ffffff" stroke="#000000" points="980,-151 980,-181 1141,-181 1141,-151 980,-151"/>
<text text-anchor="start" x="988" y="-169" font-family="Helvetica,sans-Serif" font-size="10.00" fill="#000000">/home/atmerhannah/argodsm</text>
<text text-anchor="middle" x="1060.5" y="-158" font-family="Helvetica,sans-Serif" font-size="10.00" fill="#000000">/src/allocators/allocators.hpp</text>
</a>
</g>
</g>
<!-- Node24&#45;&gt;Node27 -->
<g id="edge27" class="edge">
<title>Node24&#45;&gt;Node27</title>
<path fill="none" stroke="#191970" d="M1060.5,-291.2053C1060.5,-258.0093 1060.5,-206.5293 1060.5,-181.1708"/>
<polygon fill="#191970" stroke="#191970" points="1057.0001,-291.2844 1060.5,-301.2844 1064.0001,-291.2844 1057.0001,-291.2844"/>
</g>
<!-- Node29 -->
<g id="node7" class="node">
<title>Node29</title>
<g id="a_node7"><a xlink:href="argo_8cpp.html" target="_top" xlink:title="This file implements some of the basic ArgoDSM calls. ">
<polygon fill="#ffffff" stroke="#000000" points="0,-.5 0,-30.5 161,-30.5 161,-.5 0,-.5"/>
<text text-anchor="start" x="8" y="-18.5" font-family="Helvetica,sans-Serif" font-size="10.00" fill="#000000">/home/atmerhannah/argodsm</text>
<text text-anchor="middle" x="80.5" y="-7.5" font-family="Helvetica,sans-Serif" font-size="10.00" fill="#000000">/src/argo.cpp</text>
</a>
</g>
</g>
<!-- Node24&#45;&gt;Node29 -->
<g id="edge28" class="edge">
<title>Node24&#45;&gt;Node29</title>
<path fill="none" stroke="#191970" d="M984.915,-298.3604C792.2447,-238.1018 286.8048,-80.0229 128.5726,-30.535"/>
<polygon fill="#191970" stroke="#191970" points="984.0888,-301.7691 994.6777,-301.4137 986.1784,-295.0883 984.0888,-301.7691"/>
</g>
<!-- Node25&#45;&gt;Node26 -->
<g id="edge3" class="edge">
<title>Node25&#45;&gt;Node26</title>
<path fill="none" stroke="#191970" d="M1121.9992,-222.6927C1076.5352,-211.9864 1020.5992,-198.8107 970.5,-187 962.3104,-185.0693 953.6971,-183.038 945.1865,-181.0304"/>
<polygon fill="#191970" stroke="#191970" points="1121.2954,-226.1226 1131.8315,-225.008 1122.9,-219.309 1121.2954,-226.1226"/>
</g>
<!-- Node25&#45;&gt;Node27 -->
<g id="edge4" class="edge">
<title>Node25&#45;&gt;Node27</title>
<path fill="none" stroke="#191970" d="M1163.1284,-218.6646C1138.9591,-206.2619 1110.6768,-191.7486 1089.9296,-181.102"/>
<polygon fill="#191970" stroke="#191970" points="1161.6709,-221.8506 1172.1659,-223.3022 1164.8668,-215.6227 1161.6709,-221.8506"/>
</g>
<!-- Node25&#45;&gt;Node29 -->
<g id="edge17" class="edge">
<title>Node25&#45;&gt;Node29</title>
<path fill="none" stroke="#191970" d="M1201.7624,-214.0914C1191.8806,-191.1881 1174.8743,-160.9061 1149.5,-145 1056.6175,-86.7756 277.9867,-46.7439 169.5,-31 166.8614,-30.6171 164.1807,-30.2167 161.4752,-29.8027"/>
<polygon fill="#191970" stroke="#191970" points="1198.5408,-215.4602 1205.5649,-223.3919 1205.0202,-212.8111 1198.5408,-215.4602"/>
</g>
<!-- Node25&#45;&gt;Node30 -->
<g id="edge21" class="edge">
<title>Node25&#45;&gt;Node30</title>
<path fill="none" stroke="#191970" d="M1220.0497,-213.5172C1231.3088,-169.5785 1252.9469,-91.0727 1269.5,-67 1279.6009,-52.3105 1295.0964,-39.6877 1308.3102,-30.6155"/>
<polygon fill="#191970" stroke="#191970" points="1216.6161,-212.8188 1217.5499,-223.3724 1223.4012,-214.54 1216.6161,-212.8188"/>
</g>
<!-- Node31 -->
<g id="node9" class="node">
<title>Node31</title>
<g id="a_node9"><a xlink:href="api_8cpp.html" target="_top" xlink:title="This file provides unit tests for the ArgoDSM API functions. ">
<polygon fill="#ffffff" stroke="#000000" points="1074,-.5 1074,-30.5 1235,-30.5 1235,-.5 1074,-.5"/>
<text text-anchor="start" x="1082" y="-18.5" font-family="Helvetica,sans-Serif" font-size="10.00" fill="#000000">/home/atmerhannah/argodsm</text>
<text text-anchor="middle" x="1154.5" y="-7.5" font-family="Helvetica,sans-Serif" font-size="10.00" fill="#000000">/tests/api.cpp</text>
</a>
</g>
</g>
<!-- Node25&#45;&gt;Node31 -->
<g id="edge22" class="edge">
<title>Node25&#45;&gt;Node31</title>
<path fill="none" stroke="#191970" d="M1212.4348,-212.9944C1211.4305,-176.8388 1206.8225,-115.8053 1188.5,-67 1183.5295,-53.7602 1174.6453,-40.4816 1167.2049,-30.7244"/>
<polygon fill="#191970" stroke="#191970" points="1208.9431,-213.4472 1212.642,-223.3754 1215.9417,-213.3075 1208.9431,-213.4472"/>
</g>
<!-- Node25&#45;&gt;Node34 -->
<g id="edge23" class="edge">
<title>Node25&#45;&gt;Node34</title>
<path fill="none" stroke="#191970" d="M1230.6765,-214.5534C1258.9034,-169.6718 1312.9885,-87.2156 1341.5,-67 1358.8252,-54.7159 1406.5801,-40.8304 1447.2336,-30.5756"/>
<polygon fill="#191970" stroke="#191970" points="1227.5648,-212.928 1225.2275,-223.2619 1233.4989,-216.6411 1227.5648,-212.928"/>
</g>
<!-- Node25&#45;&gt;Node35 -->
<g id="edge24" class="edge">
<title>Node25&#45;&gt;Node35</title>
<path fill="none" stroke="#191970" d="M1303.1879,-233.3055C1380.0773,-223.1354 1483.5767,-206.5188 1520.5,-187 1586.9037,-151.897 1586.3713,-120.0944 1639.5,-67 1651.7228,-54.7851 1665.6347,-41.0138 1675.9914,-30.7872"/>
<polygon fill="#191970" stroke="#191970" points="1302.4632,-229.8703 1293.0008,-234.636 1303.3699,-236.8114 1302.4632,-229.8703"/>
</g>
<!-- Node25&#45;&gt;Node36 -->
<g id="edge25" class="edge">
<title>Node25&#45;&gt;Node36</title>
<path fill="none" stroke="#191970" d="M1303.5155,-237.6699C1374.9758,-230.6752 1476.1503,-216.2537 1560.5,-187 1620.0636,-166.3425 1783.0201,-68.7948 1845.5841,-30.748"/>
<polygon fill="#191970" stroke="#191970" points="1302.8181,-234.2203 1293.1933,-238.6489 1303.4791,-241.189 1302.8181,-234.2203"/>
</g>
<!-- Node40 -->
<g id="node18" class="node">
<title>Node40</title>
<g id="a_node18"><a xlink:href="cohort__lock_8hpp.html" target="_top" xlink:title="This file provides a cohort lock for the ArgoDSM system. ">
<polygon fill="#ffffff" stroke="#000000" points="1350,-145.5 1350,-186.5 1511,-186.5 1511,-145.5 1350,-145.5"/>
<text text-anchor="start" x="1358" y="-174.5" font-family="Helvetica,sans-Serif" font-size="10.00" fill="#000000">/home/atmerhannah/argodsm</text>
<text text-anchor="start" x="1358" y="-163.5" font-family="Helvetica,sans-Serif" font-size="10.00" fill="#000000">/src/synchronization/cohort</text>
<text text-anchor="middle" x="1430.5" y="-152.5" font-family="Helvetica,sans-Serif" font-size="10.00" fill="#000000">_lock.hpp</text>
</a>
</g>
</g>
<!-- Node25&#45;&gt;Node40 -->
<g id="edge18" class="edge">
<title>Node25&#45;&gt;Node40</title>
<path fill="none" stroke="#191970" d="M1279.5778,-219.9997C1309.4667,-209.3055 1344.3171,-196.8361 1372.9936,-186.5757"/>
<polygon fill="#191970" stroke="#191970" points="1278.2984,-216.7401 1270.0621,-223.4044 1280.6567,-223.3309 1278.2984,-216.7401"/>
</g>
<!-- Node28 -->
<g id="node6" class="node">
<title>Node28</title>
<g id="a_node6"><a xlink:href="argo_8hpp.html" target="_top" xlink:title="This file provides the full C++ interface to ArgoDSM. ">
<polygon fill="#ffffff" stroke="#000000" points="1018,-73 1018,-103 1179,-103 1179,-73 1018,-73"/>
<text text-anchor="start" x="1026" y="-91" font-family="Helvetica,sans-Serif" font-size="10.00" fill="#000000">/home/atmerhannah/argodsm</text>
<text text-anchor="middle" x="1098.5" y="-80" font-family="Helvetica,sans-Serif" font-size="10.00" fill="#000000">/src/argo.hpp</text>
</a>
</g>
</g>
<!-- Node27&#45;&gt;Node28 -->
<g id="edge5" class="edge">
<title>Node27&#45;&gt;Node28</title>
<path fill="none" stroke="#191970" d="M1072.2382,-141.9059C1078.3792,-129.3005 1085.7117,-114.2497 1091.0661,-103.2592"/>
<polygon fill="#191970" stroke="#191970" points="1069.0601,-140.438 1067.8268,-150.9608 1075.353,-143.5038 1069.0601,-140.438"/>
</g>
<!-- Node28&#45;&gt;Node29 -->
<g id="edge6" class="edge">
<title>Node28&#45;&gt;Node29</title>
<path fill="none" stroke="#191970" d="M1027.9979,-70.989C1019.7753,-69.4294 1011.4775,-68.0458 1003.5,-67 635.6355,-18.7768 538.3588,-70.9115 169.5,-31 166.8492,-30.7132 164.158,-30.3961 161.4434,-30.054"/>
<polygon fill="#191970" stroke="#191970" points="1027.4738,-74.4531 1037.964,-72.9677 1028.837,-67.5872 1027.4738,-74.4531"/>
</g>
<!-- Node28&#45;&gt;Node30 -->
<g id="edge7" class="edge">
<title>Node28&#45;&gt;Node30</title>
<path fill="none" stroke="#191970" d="M1156.9348,-69.9723C1196.3331,-57.8174 1247.7052,-41.9686 1284.8702,-30.5028"/>
<polygon fill="#191970" stroke="#191970" points="1155.7159,-66.6854 1147.1922,-72.978 1157.7796,-73.3743 1155.7159,-66.6854"/>
</g>
<!-- Node28&#45;&gt;Node31 -->
<g id="edge8" class="edge">
<title>Node28&#45;&gt;Node31</title>
<path fill="none" stroke="#191970" d="M1116.3858,-64.8443C1125.071,-53.6 1135.2561,-40.4139 1142.9116,-30.5028"/>
<polygon fill="#191970" stroke="#191970" points="1113.4463,-62.9243 1110.1032,-72.978 1118.9861,-67.2034 1113.4463,-62.9243"/>
</g>
<!-- Node32 -->
<g id="node10" class="node">
<title>Node32</title>
<g id="a_node10"><a xlink:href="backend_8cpp.html" target="_top" xlink:title="This file provides tests for the backends. ">
<polygon fill="#ffffff" stroke="#000000" points="716,-.5 716,-30.5 877,-30.5 877,-.5 716,-.5"/>
<text text-anchor="start" x="724" y="-18.5" font-family="Helvetica,sans-Serif" font-size="10.00" fill="#000000">/home/atmerhannah/argodsm</text>
<text text-anchor="middle" x="796.5" y="-7.5" font-family="Helvetica,sans-Serif" font-size="10.00" fill="#000000">/tests/backend.cpp</text>
</a>
</g>
</g>
<!-- Node28&#45;&gt;Node32 -->
<g id="edge9" class="edge">
<title>Node28&#45;&gt;Node32</title>
<path fill="none" stroke="#191970" d="M1025.9661,-70.5871C975.0172,-58.3559 907.5649,-42.1629 858.9944,-30.5028"/>
<polygon fill="#191970" stroke="#191970" points="1025.3846,-74.0468 1035.9254,-72.978 1027.0187,-67.2402 1025.3846,-74.0468"/>
</g>
<!-- Node33 -->
<g id="node11" class="node">
<title>Node33</title>
<g id="a_node11"><a xlink:href="barrier_8cpp.html" target="_top" xlink:title="This file provides tests for the barrier synchronization. ">
<polygon fill="#ffffff" stroke="#000000" points="895,-.5 895,-30.5 1056,-30.5 1056,-.5 895,-.5"/>
<text text-anchor="start" x="903" y="-18.5" font-family="Helvetica,sans-Serif" font-size="10.00" fill="#000000">/home/atmerhannah/argodsm</text>
<text text-anchor="middle" x="975.5" y="-7.5" font-family="Helvetica,sans-Serif" font-size="10.00" fill="#000000">/tests/barrier.cpp</text>
</a>
</g>
</g>
<!-- Node28&#45;&gt;Node33 -->
<g id="edge10" class="edge">
<title>Node28&#45;&gt;Node33</title>
<path fill="none" stroke="#191970" d="M1064.1818,-67.7718C1044.1297,-55.9525 1019.2514,-41.2884 1000.953,-30.5028"/>
<polygon fill="#191970" stroke="#191970" points="1062.6222,-70.9153 1073.0143,-72.978 1066.1767,-64.8849 1062.6222,-70.9153"/>
</g>
<!-- Node28&#45;&gt;Node34 -->
<g id="edge11" class="edge">
<title>Node28&#45;&gt;Node34</title>
<path fill="none" stroke="#191970" d="M1189.3356,-72.0928C1261.7772,-59.4068 1362.287,-41.8054 1431.8976,-29.6151"/>
<polygon fill="#191970" stroke="#191970" points="1188.5525,-68.6766 1179.3062,-73.8492 1189.76,-75.5717 1188.5525,-68.6766"/>
</g>
<!-- Node28&#45;&gt;Node35 -->
<g id="edge12" class="edge">
<title>Node28&#45;&gt;Node35</title>
<path fill="none" stroke="#191970" d="M1189.6103,-79.3511C1290.7156,-69.3685 1458.6076,-51.6479 1602.5,-31 1605.1392,-30.6213 1607.8204,-30.2245 1610.5264,-29.8138"/>
<polygon fill="#191970" stroke="#191970" points="1189.0428,-75.89 1179.4334,-80.3521 1189.728,-82.8563 1189.0428,-75.89"/>
</g>
<!-- Node28&#45;&gt;Node36 -->
<g id="edge13" class="edge">
<title>Node28&#45;&gt;Node36</title>
<path fill="none" stroke="#191970" d="M1189.3845,-80.0466C1235.0302,-76.0774 1291.189,-71.2321 1341.5,-67 1537.0185,-50.5533 1586.872,-55.8579 1781.5,-31 1784.1448,-30.6622 1786.8308,-30.3009 1789.5409,-29.9208"/>
<polygon fill="#191970" stroke="#191970" points="1188.8743,-76.5777 1179.2154,-80.9316 1189.4812,-83.5514 1188.8743,-76.5777"/>
</g>
<!-- Node37 -->
<g id="node15" class="node">
<title>Node37</title>
<g id="a_node15"><a xlink:href="stlallocation_8cpp.html" target="_top" xlink:title="This file provides tests using C++ interfaces in ArgoDSM. ">
<polygon fill="#ffffff" stroke="#000000" points="179,-.5 179,-30.5 340,-30.5 340,-.5 179,-.5"/>
<text text-anchor="start" x="187" y="-18.5" font-family="Helvetica,sans-Serif" font-size="10.00" fill="#000000">/home/atmerhannah/argodsm</text>
<text text-anchor="middle" x="259.5" y="-7.5" font-family="Helvetica,sans-Serif" font-size="10.00" fill="#000000">/tests/stlallocation.cpp</text>
</a>
</g>
</g>
<!-- Node28&#45;&gt;Node37 -->
<g id="edge14" class="edge">
<title>Node28&#45;&gt;Node37</title>
<path fill="none" stroke="#191970" d="M1027.6173,-71.0117C1019.5175,-69.4637 1011.3522,-68.0764 1003.5,-67 714.6507,-27.4047 638.169,-64.0684 348.5,-31 345.8509,-30.6976 343.1612,-30.367 340.4479,-30.0133"/>
<polygon fill="#191970" stroke="#191970" points="1026.948,-74.4471 1037.4393,-72.9697 1028.3166,-67.5822 1026.948,-74.4471"/>
</g>
<!-- Node38 -->
<g id="node16" class="node">
<title>Node38</title>
<g id="a_node16"><a xlink:href="trivial_8cpp.html" target="_top" xlink:title="This file provides unit tests for trivial sanity checks when using ArgoDSM. ">
<polygon fill="#ffffff" stroke="#000000" points="358,-.5 358,-30.5 519,-30.5 519,-.5 358,-.5"/>
<text text-anchor="start" x="366" y="-18.5" font-family="Helvetica,sans-Serif" font-size="10.00" fill="#000000">/home/atmerhannah/argodsm</text>
<text text-anchor="middle" x="438.5" y="-7.5" font-family="Helvetica,sans-Serif" font-size="10.00" fill="#000000">/tests/trivial.cpp</text>
</a>
</g>
</g>
<!-- Node28&#45;&gt;Node38 -->
<g id="edge15" class="edge">
<title>Node28&#45;&gt;Node38</title>
<path fill="none" stroke="#191970" d="M1026.7813,-71.0154C1018.9531,-69.4996 1011.0783,-68.1184 1003.5,-67 793.6135,-36.0254 738.0319,-57.2314 527.5,-31 524.8542,-30.6703 522.1673,-30.3161 519.4565,-29.942"/>
<polygon fill="#191970" stroke="#191970" points="1026.1529,-74.459 1036.6465,-72.9977 1027.532,-67.5962 1026.1529,-74.459"/>
</g>
<!-- Node39 -->
<g id="node17" class="node">
<title>Node39</title>
<g id="a_node17"><a xlink:href="uninitialized_8cpp.html" target="_top" xlink:title="This file provides unit tests for accessing ArgoDSM memory in various ways. ">
<polygon fill="#ffffff" stroke="#000000" points="537,-.5 537,-30.5 698,-30.5 698,-.5 537,-.5"/>
<text text-anchor="start" x="545" y="-18.5" font-family="Helvetica,sans-Serif" font-size="10.00" fill="#000000">/home/atmerhannah/argodsm</text>
<text text-anchor="middle" x="617.5" y="-7.5" font-family="Helvetica,sans-Serif" font-size="10.00" fill="#000000">/tests/uninitialized.cpp</text>
</a>
</g>
</g>
<!-- Node28&#45;&gt;Node39 -->
<g id="edge16" class="edge">
<title>Node28&#45;&gt;Node39</title>
<path fill="none" stroke="#191970" d="M1024.2931,-70.8732C1017.282,-69.4734 1010.2681,-68.1554 1003.5,-67 872.4301,-44.6239 838.0413,-50.4133 706.5,-31 703.7071,-30.5878 700.867,-30.157 698.0001,-29.7121"/>
<polygon fill="#191970" stroke="#191970" points="1024.0348,-74.3929 1034.534,-72.9731 1025.4409,-67.5356 1024.0348,-74.3929"/>
</g>
<!-- Node40&#45;&gt;Node34 -->
<g id="edge20" class="edge">
<title>Node40&#45;&gt;Node34</title>
<path fill="none" stroke="#191970" d="M1490.7846,-139.7462C1502.6847,-131.6701 1513.6112,-121.517 1520.5,-109 1534.0896,-84.3075 1525.6586,-50.2888 1518.7631,-30.8255"/>
<polygon fill="#191970" stroke="#191970" points="1488.6015,-136.984 1481.9912,-145.2638 1492.3221,-142.9134 1488.6015,-136.984"/>
</g>
<!-- Node41 -->
<g id="node19" class="node">
<title>Node41</title>
<g id="a_node19"><a xlink:href="cohort__lock_8cpp_source.html" target="_top" xlink:title="/home/atmerhannah/argodsm\l/src/synchronization/cohort\l_lock.cpp">
<polygon fill="#ffffff" stroke="#000000" points="1350,-67.5 1350,-108.5 1511,-108.5 1511,-67.5 1350,-67.5"/>
<text text-anchor="start" x="1358" y="-96.5" font-family="Helvetica,sans-Serif" font-size="10.00" fill="#000000">/home/atmerhannah/argodsm</text>
<text text-anchor="start" x="1358" y="-85.5" font-family="Helvetica,sans-Serif" font-size="10.00" fill="#000000">/src/synchronization/cohort</text>
<text text-anchor="middle" x="1430.5" y="-74.5" font-family="Helvetica,sans-Serif" font-size="10.00" fill="#000000">_lock.cpp</text>
</a>
</g>
</g>
<!-- Node40&#45;&gt;Node41 -->
<g id="edge19" class="edge">
<title>Node40&#45;&gt;Node41</title>
<path fill="none" stroke="#191970" d="M1430.5,-135.0789C1430.5,-126.2178 1430.5,-116.7747 1430.5,-108.6898"/>
<polygon fill="#191970" stroke="#191970" points="1427.0001,-135.0974 1430.5,-145.0974 1434.0001,-135.0975 1427.0001,-135.0974"/>
</g>
</g>
</svg>
        <g id="navigator" transform="translate(0 0)" fill="#404254">
                <rect fill="#f2f5e9" fill-opacity="0.5" stroke="#606060" stroke-width=".5" x="0" y="0" width="60" height="60"/>
                <use id="zoomplus" xlink:href="#zoomPlus" x="17" y="9" onmousedown="handleZoom(evt,'in')"/>
                <use id="zoomminus" xlink:href="#zoomMin" x="42" y="9" onmousedown="handleZoom(evt,'out')"/>
                <use id="reset" xlink:href="#resetDef" x="30" y="36" onmousedown="handleReset()"/>
                <g id="arrowUp" xlink:href="#dirArrow" transform="translate(30 24)" onmousedown="handlePan(0,-1)">
                  <use xlink:href="#rim" fill="#404040">
                        <set attributeName="fill" to="#808080" begin="arrowUp.mouseover" end="arrowUp.mouseout"/>
                  </use>
                  <path fill="none" stroke="white" stroke-width="1.5" d="M0,-3.0v7 M-2.5,-0.5L0,-3.0L2.5,-0.5"/>
                </g>
                <g id="arrowRight" xlink:href="#dirArrow" transform="rotate(90) translate(36 -43)" onmousedown="handlePan(1,0)">
                  <use xlink:href="#rim" fill="#404040">
                        <set attributeName="fill" to="#808080" begin="arrowRight.mouseover" end="arrowRight.mouseout"/>
                  </use>
                  <path fill="none" stroke="white" stroke-width="1.5" d="M0,-3.0v7 M-2.5,-0.5L0,-3.0L2.5,-0.5"/>
                </g>
                <g id="arrowDown" xlink:href="#dirArrow" transform="rotate(180) translate(-30 -48)" onmousedown="handlePan(0,1)">
                  <use xlink:href="#rim" fill="#404040">
                        <set attributeName="fill" to="#808080" begin="arrowDown.mouseover" end="arrowDown.mouseout"/>
                  </use>
                  <path fill="none" stroke="white" stroke-width="1.5" d="M0,-3.0v7 M-2.5,-0.5L0,-3.0L2.5,-0.5"/>
                </g>
                <g id="arrowLeft" xlink:href="#dirArrow" transform="rotate(270) translate(-36 17)" onmousedown="handlePan(-1,0)">
                  <use xlink:href="#rim" fill="#404040">
                        <set attributeName="fill" to="#808080" begin="arrowLeft.mouseover" end="arrowLeft.mouseout"/>
                  </use>
                  <path fill="none" stroke="white" stroke-width="1.5" d="M0,-3.0v7 M-2.5,-0.5L0,-3.0L2.5,-0.5"/>
                </g>
        </g>
        <svg viewBox="0 0 15 15" width="100%" height="30px" preserveAspectRatio="xMaxYMin meet">
         <g id="arrow_out" transform="scale(0.3 0.3)">
          <a xlink:href="generic__allocator_8hpp__dep__incl_org.svg" target="_base">
           <rect id="button" ry="5" rx="5" y="6" x="6" height="38" width="38"
                fill="#f2f5e9" fill-opacity="0.5" stroke="#606060" stroke-width="1.0"/>
           <path id="arrow"
             d="M 11.500037,31.436501 C 11.940474,20.09759 22.043105,11.32322 32.158766,21.979434 L 37.068811,17.246167 C 37.068811,17.246167 37.088388,32 37.088388,32 L 22.160133,31.978069 C 22.160133,31.978069 26.997745,27.140456 26.997745,27.140456 C 18.528582,18.264221 13.291696,25.230495 11.500037,31.436501 z"
             style="fill:#404040;"/>
          </a>
         </g>
        </svg>
</svg>
