<?xml version="1.0" encoding="UTF-8" standalone="no"?>
<!DOCTYPE svg PUBLIC "-//W3C//DTD SVG 1.1//EN"
 "http://www.w3.org/Graphics/SVG/1.1/DTD/svg11.dtd">
<!-- Generated by graphviz version 2.40.1 (20161225.0304)
 -->
<!-- Title: /home/atmerhannah/argodsm/src/synchronization/global_tas_lock.hpp Pages: 1 -->
<svg width="1169pt" height="397pt"
 viewBox="0.00 0.00 1168.50 397.00" xmlns="http://www.w3.org/2000/svg" xmlns:xlink="http://www.w3.org/1999/xlink">
<g id="graph0" class="graph" transform="scale(1 1) rotate(0) translate(4 393)">
<title>/home/atmerhannah/argodsm/src/synchronization/global_tas_lock.hpp</title>
<polygon fill="#ffffff" stroke="transparent" points="-4,4 -4,-393 1164.5,-393 1164.5,4 -4,4"/>
<!-- Node0 -->
<g id="node1" class="node">
<title>Node0</title>
<polygon fill="#bfbfbf" stroke="#000000" points="275.5,-347.5 275.5,-388.5 436.5,-388.5 436.5,-347.5 275.5,-347.5"/>
<text text-anchor="start" x="283.5" y="-376.5" font-family="Helvetica,sans-Serif" font-size="10.00" fill="#000000">/home/atmerhannah/argodsm</text>
<text text-anchor="start" x="283.5" y="-365.5" font-family="Helvetica,sans-Serif" font-size="10.00" fill="#000000">/src/synchronization/global</text>
<text text-anchor="middle" x="356" y="-354.5" font-family="Helvetica,sans-Serif" font-size="10.00" fill="#000000">_tas_lock.hpp</text>
</g>
<!-- Node1 -->
<g id="node2" class="node">
<title>Node1</title>
<g id="a_node2"><a xlink:href="backend_8hpp.html" target="_top" xlink:title="This file provides the backend interface. ">
<polygon fill="#ffffff" stroke="#000000" points="133,-291.5 133,-310.5 265,-310.5 265,-291.5 133,-291.5"/>
<text text-anchor="middle" x="199" y="-298.5" font-family="Helvetica,sans-Serif" font-size="10.00" fill="#000000">../backend/backend.hpp</text>
</a>
</g>
</g>
<!-- Node0&#45;&gt;Node1 -->
<g id="edge1" class="edge">
<title>Node0&#45;&gt;Node1</title>
<path fill="none" stroke="#191970" d="M307.6138,-347.3511C282.6558,-336.7003 252.9111,-324.0066 230.8647,-314.5983"/>
<polygon fill="#191970" stroke="#191970" points="232.1948,-311.3606 221.6236,-310.6546 229.4473,-317.7989 232.1948,-311.3606"/>
</g>
<!-- Node5 -->
<g id="node6" class="node">
<title>Node5</title>
<g id="a_node6"><a xlink:href="global__ptr_8hpp.html" target="_top" xlink:title="This file provides the global pointer for ArgoDSM. ">
<polygon fill="#ffffff" stroke="#000000" points="260,-224.5 260,-254.5 368,-254.5 368,-224.5 260,-224.5"/>
<text text-anchor="start" x="268" y="-242.5" font-family="Helvetica,sans-Serif" font-size="10.00" fill="#000000">../data_distribution</text>
<text text-anchor="middle" x="314" y="-231.5" font-family="Helvetica,sans-Serif" font-size="10.00" fill="#000000">/global_ptr.hpp</text>
</a>
</g>
</g>
<!-- Node0&#45;&gt;Node5 -->
<g id="edge27" class="edge">
<title>Node0&#45;&gt;Node5</title>
<path fill="none" stroke="#191970" d="M340.7925,-347.4009C333.8993,-337.0037 326.3368,-323.8865 322,-311 317.0331,-296.241 315.0066,-278.8997 314.2345,-264.9917"/>
<polygon fill="#191970" stroke="#191970" points="317.7207,-264.5519 313.8521,-254.6886 310.7255,-264.8116 317.7207,-264.5519"/>
</g>
<!-- Node21 -->
<g id="node22" class="node">
<title>Node21</title>
<polygon fill="#ffffff" stroke="#bfbfbf" points="331,-291.5 331,-310.5 381,-310.5 381,-291.5 331,-291.5"/>
<text text-anchor="middle" x="356" y="-298.5" font-family="Helvetica,sans-Serif" font-size="10.00" fill="#000000">atomic</text>
</g>
<!-- Node0&#45;&gt;Node21 -->
<g id="edge28" class="edge">
<title>Node0&#45;&gt;Node21</title>
<path fill="none" stroke="#191970" d="M356,-347.168C356,-338.8226 356,-329.2471 356,-320.9879"/>
<polygon fill="#191970" stroke="#191970" points="359.5001,-320.7804 356,-310.7805 352.5001,-320.7805 359.5001,-320.7804"/>
</g>
<!-- Node22 -->
<g id="node23" class="node">
<title>Node22</title>
<polygon fill="#ffffff" stroke="#bfbfbf" points="399,-291.5 399,-310.5 449,-310.5 449,-291.5 399,-291.5"/>
<text text-anchor="middle" x="424" y="-298.5" font-family="Helvetica,sans-Serif" font-size="10.00" fill="#000000">chrono</text>
</g>
<!-- Node0&#45;&gt;Node22 -->
<g id="edge29" class="edge">
<title>Node0&#45;&gt;Node22</title>
<path fill="none" stroke="#191970" d="M377.1429,-347.168C386.6716,-337.7794 397.7805,-326.834 406.7895,-317.9574"/>
<polygon fill="#191970" stroke="#191970" points="409.4068,-320.2921 414.0736,-310.7805 404.4938,-315.3058 409.4068,-320.2921"/>
</g>
<!-- Node23 -->
<g id="node24" class="node">
<title>Node23</title>
<polygon fill="#ffffff" stroke="#bfbfbf" points="467,-291.5 467,-310.5 515,-310.5 515,-291.5 467,-291.5"/>
<text text-anchor="middle" x="491" y="-298.5" font-family="Helvetica,sans-Serif" font-size="10.00" fill="#000000">thread</text>
</g>
<!-- Node0&#45;&gt;Node23 -->
<g id="edge30" class="edge">
<title>Node0&#45;&gt;Node23</title>
<path fill="none" stroke="#191970" d="M397.606,-347.3511C418.6817,-336.8913 443.7271,-324.4614 462.5739,-315.1077"/>
<polygon fill="#191970" stroke="#191970" points="464.1451,-318.2354 471.5466,-310.6546 461.0331,-311.9651 464.1451,-318.2354"/>
</g>
<!-- Node2 -->
<g id="node3" class="node">
<title>Node2</title>
<polygon fill="#ffffff" stroke="#bfbfbf" points="152,-230 152,-249 204,-249 204,-230 152,-230"/>
<text text-anchor="middle" x="178" y="-237" font-family="Helvetica,sans-Serif" font-size="10.00" fill="#000000">cassert</text>
</g>
<!-- Node1&#45;&gt;Node2 -->
<g id="edge2" class="edge">
<title>Node1&#45;&gt;Node2</title>
<path fill="none" stroke="#191970" d="M195.7188,-291.3906C192.7465,-282.6862 188.2786,-269.6015 184.573,-258.7494"/>
<polygon fill="#191970" stroke="#191970" points="187.8712,-257.5773 181.3275,-249.2449 181.2468,-259.8394 187.8712,-257.5773"/>
</g>
<!-- Node3 -->
<g id="node4" class="node">
<title>Node3</title>
<polygon fill="#ffffff" stroke="#bfbfbf" points="0,-230 0,-249 50,-249 50,-230 0,-230"/>
<text text-anchor="middle" x="25" y="-237" font-family="Helvetica,sans-Serif" font-size="10.00" fill="#000000">cstdint</text>
</g>
<!-- Node1&#45;&gt;Node3 -->
<g id="edge3" class="edge">
<title>Node1&#45;&gt;Node3</title>
<path fill="none" stroke="#191970" d="M166.6714,-291.4876C138.0638,-282.8081 95.3385,-269.203 59,-255 57.4215,-254.383 55.8111,-253.7306 54.1917,-253.0563"/>
<polygon fill="#191970" stroke="#191970" points="55.5451,-249.8283 44.9788,-249.0509 52.7541,-256.2478 55.5451,-249.8283"/>
</g>
<!-- Node4 -->
<g id="node5" class="node">
<title>Node4</title>
<polygon fill="#ffffff" stroke="#bfbfbf" points="68.5,-230 68.5,-249 133.5,-249 133.5,-230 68.5,-230"/>
<text text-anchor="middle" x="101" y="-237" font-family="Helvetica,sans-Serif" font-size="10.00" fill="#000000">stdexcept</text>
</g>
<!-- Node1&#45;&gt;Node4 -->
<g id="edge4" class="edge">
<title>Node1&#45;&gt;Node4</title>
<path fill="none" stroke="#191970" d="M183.6875,-291.3906C167.9376,-281.5067 143.1877,-265.9749 124.8663,-254.4773"/>
<polygon fill="#191970" stroke="#191970" points="126.5357,-251.3929 116.205,-249.0419 122.8148,-257.3221 126.5357,-251.3929"/>
</g>
<!-- Node1&#45;&gt;Node5 -->
<g id="edge5" class="edge">
<title>Node1&#45;&gt;Node5</title>
<path fill="none" stroke="#191970" d="M216.9688,-291.3906C232.9649,-282.8361 256.8723,-270.0509 276.953,-259.3121"/>
<polygon fill="#191970" stroke="#191970" points="278.7002,-262.3469 285.8678,-254.5446 275.399,-256.1741 278.7002,-262.3469"/>
</g>
<!-- Node14 -->
<g id="node15" class="node">
<title>Node14</title>
<g id="a_node15"><a xlink:href="types_8hpp.html" target="_top" xlink:title="This file defines common types used in ArgoDSM. ">
<polygon fill="#ffffff" stroke="#000000" points="336,-.5 336,-19.5 440,-19.5 440,-.5 336,-.5"/>
<text text-anchor="middle" x="388" y="-7.5" font-family="Helvetica,sans-Serif" font-size="10.00" fill="#000000">../types/types.hpp</text>
</a>
</g>
</g>
<!-- Node1&#45;&gt;Node14 -->
<g id="edge26" class="edge">
<title>Node1&#45;&gt;Node14</title>
<path fill="none" stroke="#191970" d="M203.4505,-291.3521C212.4581,-270.9143 232,-221.5554 232,-178 232,-178 232,-178 232,-122 232,-68.419 293.478,-37.9726 339.2464,-22.7303"/>
<polygon fill="#191970" stroke="#191970" points="340.5676,-25.983 349.037,-19.6175 338.4466,-19.312 340.5676,-25.983"/>
</g>
<!-- Node6 -->
<g id="node7" class="node">
<title>Node6</title>
<polygon fill="#ffffff" stroke="#bfbfbf" points="721,-168.5 721,-187.5 765,-187.5 765,-168.5 721,-168.5"/>
<text text-anchor="middle" x="743" y="-175.5" font-family="Helvetica,sans-Serif" font-size="10.00" fill="#000000">string</text>
</g>
<!-- Node5&#45;&gt;Node6 -->
<g id="edge6" class="edge">
<title>Node5&#45;&gt;Node6</title>
<path fill="none" stroke="#191970" d="M368.2998,-235.6463C443.4708,-229.6146 583.4719,-215.8679 710.8553,-187.9188"/>
<polygon fill="#191970" stroke="#191970" points="711.7852,-191.2975 720.784,-185.7053 710.262,-184.4652 711.7852,-191.2975"/>
</g>
<!-- Node7 -->
<g id="node8" class="node">
<title>Node7</title>
<g id="a_node8"><a xlink:href="env_8hpp.html" target="_top" xlink:title="This file provides facilities for handling environment variables. ">
<polygon fill="#ffffff" stroke="#000000" points="266.5,-168.5 266.5,-187.5 351.5,-187.5 351.5,-168.5 266.5,-168.5"/>
<text text-anchor="middle" x="309" y="-175.5" font-family="Helvetica,sans-Serif" font-size="10.00" fill="#000000">../env/env.hpp</text>
</a>
</g>
</g>
<!-- Node5&#45;&gt;Node7 -->
<g id="edge7" class="edge">
<title>Node5&#45;&gt;Node7</title>
<path fill="none" stroke="#191970" d="M312.764,-224.2977C312.1206,-216.3834 311.3256,-206.6043 310.6322,-198.0759"/>
<polygon fill="#191970" stroke="#191970" points="314.0995,-197.5304 309.8006,-187.8469 307.1225,-198.0977 314.0995,-197.5304"/>
</g>
<!-- Node9 -->
<g id="node10" class="node">
<title>Node9</title>
<g id="a_node10"><a xlink:href="data__distribution_8hpp.html" target="_top" xlink:title="This file provides an abstraction layer for distributing the shared memory space. ...">
<polygon fill="#ffffff" stroke="#000000" points="583,-168.5 583,-187.5 703,-187.5 703,-168.5 583,-168.5"/>
<text text-anchor="middle" x="643" y="-175.5" font-family="Helvetica,sans-Serif" font-size="10.00" fill="#000000">data_distribution.hpp</text>
</a>
</g>
</g>
<!-- Node5&#45;&gt;Node9 -->
<g id="edge9" class="edge">
<title>Node5&#45;&gt;Node9</title>
<path fill="none" stroke="#191970" d="M368.3277,-229.3445C427.1952,-218.3404 520.8999,-200.8242 582.187,-189.3678"/>
<polygon fill="#191970" stroke="#191970" points="582.923,-192.7909 592.1095,-187.513 581.6367,-185.9101 582.923,-192.7909"/>
</g>
<!-- Node8 -->
<g id="node9" class="node">
<title>Node8</title>
<polygon fill="#ffffff" stroke="#bfbfbf" points="260.5,-112.5 260.5,-131.5 313.5,-131.5 313.5,-112.5 260.5,-112.5"/>
<text text-anchor="middle" x="287" y="-119.5" font-family="Helvetica,sans-Serif" font-size="10.00" fill="#000000">cstddef</text>
</g>
<!-- Node7&#45;&gt;Node8 -->
<g id="edge8" class="edge">
<title>Node7&#45;&gt;Node8</title>
<path fill="none" stroke="#191970" d="M305.1679,-168.2455C302.2341,-160.7776 298.0953,-150.2427 294.509,-141.1137"/>
<polygon fill="#191970" stroke="#191970" points="297.7024,-139.6704 290.7882,-131.6427 291.1871,-142.23 297.7024,-139.6704"/>
</g>
<!-- Node10 -->
<g id="node11" class="node">
<title>Node10</title>
<g id="a_node11"><a xlink:href="base__distribution_8hpp.html" target="_top" xlink:title="This file implements the base distribution class for all the policies to derive from. ">
<polygon fill="#ffffff" stroke="#000000" points="671,-56.5 671,-75.5 793,-75.5 793,-56.5 671,-56.5"/>
<text text-anchor="middle" x="732" y="-63.5" font-family="Helvetica,sans-Serif" font-size="10.00" fill="#000000">base_distribution.hpp</text>
</a>
</g>
</g>
<!-- Node9&#45;&gt;Node10 -->
<g id="edge10" class="edge">
<title>Node9&#45;&gt;Node10</title>
<path fill="none" stroke="#191970" d="M692.3386,-168.4561C742.1896,-158.315 812.9874,-142.3466 821,-132 838.5362,-109.3559 805.5708,-90.7267 774.9147,-79.1016"/>
<polygon fill="#191970" stroke="#191970" points="775.7039,-75.6661 765.1094,-75.5771 773.336,-82.2535 775.7039,-75.6661"/>
</g>
<!-- Node15 -->
<g id="node16" class="node">
<title>Node15</title>
<g id="a_node16"><a xlink:href="naive__distribution_8hpp.html" target="_top" xlink:title="This file implements the naive data distribution. ">
<polygon fill="#ffffff" stroke="#000000" points="868.5,-112.5 868.5,-131.5 993.5,-131.5 993.5,-112.5 868.5,-112.5"/>
<text text-anchor="middle" x="931" y="-119.5" font-family="Helvetica,sans-Serif" font-size="10.00" fill="#000000">naive_distribution.hpp</text>
</a>
</g>
</g>
<!-- Node9&#45;&gt;Node15 -->
<g id="edge15" class="edge">
<title>Node9&#45;&gt;Node15</title>
<path fill="none" stroke="#191970" d="M692.1817,-168.4369C741.9884,-158.7522 819.0385,-143.7703 872.0788,-133.4569"/>
<polygon fill="#191970" stroke="#191970" points="872.873,-136.8681 882.0211,-131.5237 871.5369,-129.9968 872.873,-136.8681"/>
</g>
<!-- Node16 -->
<g id="node17" class="node">
<title>Node16</title>
<g id="a_node17"><a xlink:href="cyclic__distribution_8hpp.html" target="_top" xlink:title="This file implements the cyclic data distribution. ">
<polygon fill="#ffffff" stroke="#000000" points="332,-112.5 332,-131.5 458,-131.5 458,-112.5 332,-112.5"/>
<text text-anchor="middle" x="395" y="-119.5" font-family="Helvetica,sans-Serif" font-size="10.00" fill="#000000">cyclic_distribution.hpp</text>
</a>
</g>
</g>
<!-- Node9&#45;&gt;Node16 -->
<g id="edge17" class="edge">
<title>Node9&#45;&gt;Node16</title>
<path fill="none" stroke="#191970" d="M600.6491,-168.4369C558.2058,-158.8529 492.7881,-144.0812 447.1687,-133.78"/>
<polygon fill="#191970" stroke="#191970" points="447.7016,-130.3123 437.1763,-131.5237 446.1597,-137.1404 447.7016,-130.3123"/>
</g>
<!-- Node17 -->
<g id="node18" class="node">
<title>Node17</title>
<g id="a_node18"><a xlink:href="skew__mapp__distribution_8hpp.html" target="_top" xlink:title="This file implements the skew&#45;mapp data distribution. ">
<polygon fill="#ffffff" stroke="#000000" points="476.5,-112.5 476.5,-131.5 633.5,-131.5 633.5,-112.5 476.5,-112.5"/>
<text text-anchor="middle" x="555" y="-119.5" font-family="Helvetica,sans-Serif" font-size="10.00" fill="#000000">skew_mapp_distribution.hpp</text>
</a>
</g>
</g>
<!-- Node9&#45;&gt;Node17 -->
<g id="edge19" class="edge">
<title>Node9&#45;&gt;Node17</title>
<path fill="none" stroke="#191970" d="M627.6716,-168.2455C614.1697,-159.6534 594.2878,-147.0014 578.7314,-137.1018"/>
<polygon fill="#191970" stroke="#191970" points="580.4685,-134.0587 570.1528,-131.6427 576.7103,-139.9643 580.4685,-134.0587"/>
</g>
<!-- Node18 -->
<g id="node19" class="node">
<title>Node18</title>
<g id="a_node19"><a xlink:href="prime__mapp__distribution_8hpp.html" target="_top" xlink:title="This file implements the prime&#45;mapp data distribution. ">
<polygon fill="#ffffff" stroke="#000000" points="652,-112.5 652,-131.5 812,-131.5 812,-112.5 652,-112.5"/>
<text text-anchor="middle" x="732" y="-119.5" font-family="Helvetica,sans-Serif" font-size="10.00" fill="#000000">prime_mapp_distribution.hpp</text>
</a>
</g>
</g>
<!-- Node9&#45;&gt;Node18 -->
<g id="edge21" class="edge">
<title>Node9&#45;&gt;Node18</title>
<path fill="none" stroke="#191970" d="M658.5026,-168.2455C672.158,-159.6534 692.2657,-147.0014 707.9989,-137.1018"/>
<polygon fill="#191970" stroke="#191970" points="710.0751,-139.9307 716.675,-131.6427 706.3471,-134.006 710.0751,-139.9307"/>
</g>
<!-- Node19 -->
<g id="node20" class="node">
<title>Node19</title>
<g id="a_node20"><a xlink:href="first__touch__distribution_8hpp.html" target="_top" xlink:title="This file implements the first&#45;touch data distribution. ">
<polygon fill="#ffffff" stroke="#000000" points="1011.5,-112.5 1011.5,-131.5 1160.5,-131.5 1160.5,-112.5 1011.5,-112.5"/>
<text text-anchor="middle" x="1086" y="-119.5" font-family="Helvetica,sans-Serif" font-size="10.00" fill="#000000">first_touch_distribution.hpp</text>
</a>
</g>
</g>
<!-- Node9&#45;&gt;Node19 -->
<g id="edge23" class="edge">
<title>Node9&#45;&gt;Node19</title>
<path fill="none" stroke="#191970" d="M703.2001,-169.1974C706.1748,-168.7869 709.1207,-168.3857 712,-168 766.0607,-160.7588 908.3736,-143.4343 1001.0337,-132.2345"/>
<polygon fill="#191970" stroke="#191970" points="1001.7299,-135.676 1011.2378,-131.0017 1000.8902,-128.7265 1001.7299,-135.676"/>
</g>
<!-- Node11 -->
<g id="node12" class="node">
<title>Node11</title>
<polygon fill="#ffffff" stroke="#bfbfbf" points="790.5,-.5 790.5,-19.5 839.5,-19.5 839.5,-.5 790.5,-.5"/>
<text text-anchor="middle" x="815" y="-7.5" font-family="Helvetica,sans-Serif" font-size="10.00" fill="#000000">cstdlib</text>
</g>
<!-- Node10&#45;&gt;Node11 -->
<g id="edge11" class="edge">
<title>Node10&#45;&gt;Node11</title>
<path fill="none" stroke="#191970" d="M746.4575,-56.2455C759.0732,-47.7337 777.5944,-35.2375 792.2045,-25.3801"/>
<polygon fill="#191970" stroke="#191970" points="794.3761,-28.1371 800.7082,-19.6427 790.4609,-22.3343 794.3761,-28.1371"/>
</g>
<!-- Node12 -->
<g id="node13" class="node">
<title>Node12</title>
<polygon fill="#ffffff" stroke="#bfbfbf" points="613,-.5 613,-19.5 673,-19.5 673,-.5 613,-.5"/>
<text text-anchor="middle" x="643" y="-7.5" font-family="Helvetica,sans-Serif" font-size="10.00" fill="#000000">iostream</text>
</g>
<!-- Node10&#45;&gt;Node12 -->
<g id="edge12" class="edge">
<title>Node10&#45;&gt;Node12</title>
<path fill="none" stroke="#191970" d="M716.4974,-56.2455C702.842,-47.6534 682.7343,-35.0014 667.0011,-25.1018"/>
<polygon fill="#191970" stroke="#191970" points="668.6529,-22.006 658.325,-19.6427 664.9249,-27.9307 668.6529,-22.006"/>
</g>
<!-- Node13 -->
<g id="node14" class="node">
<title>Node13</title>
<polygon fill="#ffffff" stroke="#bfbfbf" points="691.5,-.5 691.5,-19.5 772.5,-19.5 772.5,-.5 691.5,-.5"/>
<text text-anchor="middle" x="732" y="-7.5" font-family="Helvetica,sans-Serif" font-size="10.00" fill="#000000">system_error</text>
</g>
<!-- Node10&#45;&gt;Node13 -->
<g id="edge13" class="edge">
<title>Node10&#45;&gt;Node13</title>
<path fill="none" stroke="#191970" d="M732,-56.2455C732,-48.9382 732,-38.6944 732,-29.7046"/>
<polygon fill="#191970" stroke="#191970" points="735.5001,-29.6426 732,-19.6427 728.5001,-29.6427 735.5001,-29.6426"/>
</g>
<!-- Node10&#45;&gt;Node14 -->
<g id="edge14" class="edge">
<title>Node10&#45;&gt;Node14</title>
<path fill="none" stroke="#191970" d="M673.2552,-56.4369C611.1786,-46.3314 513.6719,-30.4582 450.2866,-20.1397"/>
<polygon fill="#191970" stroke="#191970" points="450.4623,-16.6223 440.0298,-18.47 449.3375,-23.5313 450.4623,-16.6223"/>
</g>
<!-- Node15&#45;&gt;Node10 -->
<g id="edge16" class="edge">
<title>Node15&#45;&gt;Node10</title>
<path fill="none" stroke="#191970" d="M896.7907,-112.3733C863.2703,-102.9404 812.0495,-88.5265 775.619,-78.2747"/>
<polygon fill="#191970" stroke="#191970" points="776.3372,-74.8409 765.7629,-75.5011 774.4409,-81.5792 776.3372,-74.8409"/>
</g>
<!-- Node16&#45;&gt;Node10 -->
<g id="edge18" class="edge">
<title>Node16&#45;&gt;Node10</title>
<path fill="none" stroke="#191970" d="M452.5495,-112.4369C511.3149,-102.6717 602.4913,-87.5207 664.5966,-77.2006"/>
<polygon fill="#191970" stroke="#191970" points="665.3969,-80.6157 674.6879,-75.5237 664.2494,-73.7103 665.3969,-80.6157"/>
</g>
<!-- Node17&#45;&gt;Node10 -->
<g id="edge20" class="edge">
<title>Node17&#45;&gt;Node10</title>
<path fill="none" stroke="#191970" d="M585.4274,-112.3733C614.9872,-103.021 660.0226,-88.7725 692.3695,-78.5385"/>
<polygon fill="#191970" stroke="#191970" points="693.4913,-81.8546 701.9697,-75.5011 691.3797,-75.1807 693.4913,-81.8546"/>
</g>
<!-- Node18&#45;&gt;Node10 -->
<g id="edge22" class="edge">
<title>Node18&#45;&gt;Node10</title>
<path fill="none" stroke="#191970" d="M732,-112.2455C732,-104.9382 732,-94.6944 732,-85.7046"/>
<polygon fill="#191970" stroke="#191970" points="735.5001,-85.6426 732,-75.6427 728.5001,-85.6427 735.5001,-85.6426"/>
</g>
<!-- Node19&#45;&gt;Node10 -->
<g id="edge25" class="edge">
<title>Node19&#45;&gt;Node10</title>
<path fill="none" stroke="#191970" d="M1025.5475,-112.4369C963.6903,-102.6516 867.6467,-87.4582 802.4004,-77.1368"/>
<polygon fill="#191970" stroke="#191970" points="802.6273,-73.6292 792.2032,-75.5237 801.5335,-80.5433 802.6273,-73.6292"/>
</g>
<!-- Node20 -->
<g id="node21" class="node">
<title>Node20</title>
<polygon fill="#ffffff" stroke="#bfbfbf" points="1062,-56.5 1062,-75.5 1110,-75.5 1110,-56.5 1062,-56.5"/>
<text text-anchor="middle" x="1086" y="-63.5" font-family="Helvetica,sans-Serif" font-size="10.00" fill="#000000">mutex</text>
</g>
<!-- Node19&#45;&gt;Node20 -->
<g id="edge24" class="edge">
<title>Node19&#45;&gt;Node20</title>
<path fill="none" stroke="#191970" d="M1086,-112.2455C1086,-104.9382 1086,-94.6944 1086,-85.7046"/>
<polygon fill="#191970" stroke="#191970" points="1089.5001,-85.6426 1086,-75.6427 1082.5001,-85.6427 1089.5001,-85.6426"/>
</g>
</g>
</svg>
