<?xml version="1.0" encoding="UTF-8" standalone="no"?>
<!DOCTYPE svg PUBLIC "-//W3C//DTD SVG 1.1//EN"
 "http://www.w3.org/Graphics/SVG/1.1/DTD/svg11.dtd">
<!-- Generated by graphviz version 2.40.1 (20161225.0304)
 -->
<!-- Title: /home/atmerhannah/argodsm/src/mempools/global_mempool.hpp Pages: 1 -->
<svg width="1381pt" height="453pt"
 viewBox="0.00 0.00 1381.00 453.00" xmlns="http://www.w3.org/2000/svg" xmlns:xlink="http://www.w3.org/1999/xlink">
<g id="graph0" class="graph" transform="scale(1 1) rotate(0) translate(4 449)">
<title>/home/atmerhannah/argodsm/src/mempools/global_mempool.hpp</title>
<polygon fill="#ffffff" stroke="transparent" points="-4,4 -4,-449 1377,-449 1377,4 -4,4"/>
<!-- Node0 -->
<g id="node1" class="node">
<title>Node0</title>
<polygon fill="#bfbfbf" stroke="#000000" points="1022.5,-414.5 1022.5,-444.5 1216.5,-444.5 1216.5,-414.5 1022.5,-414.5"/>
<text text-anchor="start" x="1030.5" y="-432.5" font-family="Helvetica,sans-Serif" font-size="10.00" fill="#000000">/home/atmerhannah/argodsm</text>
<text text-anchor="middle" x="1119.5" y="-421.5" font-family="Helvetica,sans-Serif" font-size="10.00" fill="#000000">/src/mempools/global_mempool.hpp</text>
</g>
<!-- Node1 -->
<g id="node2" class="node">
<title>Node1</title>
<g id="a_node2"><a xlink:href="backend_8hpp.html" target="_top" xlink:title="This file provides the backend interface. ">
<polygon fill="#ffffff" stroke="#000000" points="336.5,-291.5 336.5,-310.5 468.5,-310.5 468.5,-291.5 336.5,-291.5"/>
<text text-anchor="middle" x="402.5" y="-298.5" font-family="Helvetica,sans-Serif" font-size="10.00" fill="#000000">../backend/backend.hpp</text>
</a>
</g>
</g>
<!-- Node0&#45;&gt;Node1 -->
<g id="edge1" class="edge">
<title>Node0&#45;&gt;Node1</title>
<path fill="none" stroke="#191970" d="M1022.3516,-420.8811C938.1133,-412.5832 813.153,-398.2921 705.5,-378 611.1577,-360.217 502.5342,-330.2485 444.4028,-313.4229"/>
<polygon fill="#191970" stroke="#191970" points="445.0716,-309.9724 434.492,-310.5398 443.1163,-316.6938 445.0716,-309.9724"/>
</g>
<!-- Node5 -->
<g id="node6" class="node">
<title>Node5</title>
<g id="a_node6"><a xlink:href="global__ptr_8hpp.html" target="_top" xlink:title="This file provides the global pointer for ArgoDSM. ">
<polygon fill="#ffffff" stroke="#000000" points="631.5,-224.5 631.5,-254.5 739.5,-254.5 739.5,-224.5 631.5,-224.5"/>
<text text-anchor="start" x="639.5" y="-242.5" font-family="Helvetica,sans-Serif" font-size="10.00" fill="#000000">../data_distribution</text>
<text text-anchor="middle" x="685.5" y="-231.5" font-family="Helvetica,sans-Serif" font-size="10.00" fill="#000000">/global_ptr.hpp</text>
</a>
</g>
</g>
<!-- Node0&#45;&gt;Node5 -->
<g id="edge33" class="edge">
<title>Node0&#45;&gt;Node5</title>
<path fill="none" stroke="#191970" d="M1101.1044,-414.3058C1065.6905,-385.8226 984.6166,-324.28 906.5,-291 855.9567,-269.467 794.8996,-256.1116 749.7814,-248.4142"/>
<polygon fill="#191970" stroke="#191970" points="750.2674,-244.9471 739.8295,-246.7637 749.1221,-251.8527 750.2674,-244.9471"/>
</g>
<!-- Node12 -->
<g id="node13" class="node">
<title>Node12</title>
<polygon fill="#ffffff" stroke="#bfbfbf" points="938.5,-.5 938.5,-19.5 998.5,-19.5 998.5,-.5 938.5,-.5"/>
<text text-anchor="middle" x="968.5" y="-7.5" font-family="Helvetica,sans-Serif" font-size="10.00" fill="#000000">iostream</text>
</g>
<!-- Node0&#45;&gt;Node12 -->
<g id="edge36" class="edge">
<title>Node0&#45;&gt;Node12</title>
<path fill="none" stroke="#191970" d="M1119.5,-414.4649C1119.5,-390.4731 1119.5,-342.0486 1119.5,-301 1119.5,-301 1119.5,-301 1119.5,-122 1119.5,-66.6215 1053.172,-35.452 1008.4359,-20.7272"/>
<polygon fill="#191970" stroke="#191970" points="1009.2836,-17.3249 998.6942,-17.6651 1007.1845,-24.0027 1009.2836,-17.3249"/>
</g>
<!-- Node21 -->
<g id="node22" class="node">
<title>Node21</title>
<g id="a_node22"><a xlink:href="global__tas__lock_8hpp.html" target="_top" xlink:title="This file provides a tas lock for the ArgoDSM system based on the TAS lock made by David Klaftenegger...">
<polygon fill="#ffffff" stroke="#000000" points="714.5,-347.5 714.5,-377.5 830.5,-377.5 830.5,-347.5 714.5,-347.5"/>
<text text-anchor="start" x="722.5" y="-365.5" font-family="Helvetica,sans-Serif" font-size="10.00" fill="#000000">../synchronization</text>
<text text-anchor="middle" x="772.5" y="-354.5" font-family="Helvetica,sans-Serif" font-size="10.00" fill="#000000">/global_tas_lock.hpp</text>
</a>
</g>
</g>
<!-- Node0&#45;&gt;Node21 -->
<g id="edge27" class="edge">
<title>Node0&#45;&gt;Node21</title>
<path fill="none" stroke="#191970" d="M1041.6264,-414.4639C981.3062,-402.817 898.5597,-386.8401 840.801,-375.6878"/>
<polygon fill="#191970" stroke="#191970" points="841.16,-372.1925 830.6778,-373.7332 839.8329,-379.0656 841.16,-372.1925"/>
</g>
<!-- Node25 -->
<g id="node26" class="node">
<title>Node25</title>
<polygon fill="#ffffff" stroke="#bfbfbf" points="1148,-353 1148,-372 1225,-372 1225,-353 1148,-353"/>
<text text-anchor="middle" x="1186.5" y="-360" font-family="Helvetica,sans-Serif" font-size="10.00" fill="#000000">sys/mman.h</text>
</g>
<!-- Node0&#45;&gt;Node25 -->
<g id="edge34" class="edge">
<title>Node0&#45;&gt;Node25</title>
<path fill="none" stroke="#191970" d="M1134.7033,-414.2967C1145.1422,-403.8578 1159.0003,-389.9997 1169.7554,-379.2446"/>
<polygon fill="#191970" stroke="#191970" points="1172.3488,-381.601 1176.945,-372.055 1167.399,-376.6512 1172.3488,-381.601"/>
</g>
<!-- Node26 -->
<g id="node27" class="node">
<title>Node26</title>
<polygon fill="#ffffff" stroke="#bfbfbf" points="1243.5,-353 1243.5,-372 1301.5,-372 1301.5,-353 1243.5,-353"/>
<text text-anchor="middle" x="1272.5" y="-360" font-family="Helvetica,sans-Serif" font-size="10.00" fill="#000000">memory</text>
</g>
<!-- Node0&#45;&gt;Node26 -->
<g id="edge35" class="edge">
<title>Node0&#45;&gt;Node26</title>
<path fill="none" stroke="#191970" d="M1153.8362,-414.4639C1180.0858,-402.969 1215.9674,-387.2561 1241.3825,-376.1266"/>
<polygon fill="#191970" stroke="#191970" points="1242.8124,-379.3214 1250.5687,-372.1039 1240.0045,-372.9092 1242.8124,-379.3214"/>
</g>
<!-- Node27 -->
<g id="node28" class="node">
<title>Node27</title>
<polygon fill="#ffffff" stroke="#bfbfbf" points="1320,-353 1320,-372 1373,-372 1373,-353 1320,-353"/>
<text text-anchor="middle" x="1346.5" y="-360" font-family="Helvetica,sans-Serif" font-size="10.00" fill="#000000">stdlib.h</text>
</g>
<!-- Node0&#45;&gt;Node27 -->
<g id="edge37" class="edge">
<title>Node0&#45;&gt;Node27</title>
<path fill="none" stroke="#191970" d="M1184.3007,-414.4799C1221.606,-405.2259 1269.1452,-392.395 1310.5,-378 1312.3797,-377.3457 1314.2999,-376.6385 1316.2267,-375.8992"/>
<polygon fill="#191970" stroke="#191970" points="1317.8106,-379.0337 1325.7598,-372.0294 1315.1777,-372.5477 1317.8106,-379.0337"/>
</g>
<!-- Node2 -->
<g id="node3" class="node">
<title>Node2</title>
<polygon fill="#ffffff" stroke="#bfbfbf" points="83.5,-230 83.5,-249 135.5,-249 135.5,-230 83.5,-230"/>
<text text-anchor="middle" x="109.5" y="-237" font-family="Helvetica,sans-Serif" font-size="10.00" fill="#000000">cassert</text>
</g>
<!-- Node1&#45;&gt;Node2 -->
<g id="edge2" class="edge">
<title>Node1&#45;&gt;Node2</title>
<path fill="none" stroke="#191970" d="M336.4599,-292.4998C284.9481,-285.0314 211.9125,-272.594 149.5,-255 146.9015,-254.2675 144.2369,-253.4316 141.577,-252.5364"/>
<polygon fill="#191970" stroke="#191970" points="142.6855,-249.2156 132.0912,-249.1128 140.3091,-255.7999 142.6855,-249.2156"/>
</g>
<!-- Node3 -->
<g id="node4" class="node">
<title>Node3</title>
<polygon fill="#ffffff" stroke="#bfbfbf" points="377.5,-230 377.5,-249 427.5,-249 427.5,-230 377.5,-230"/>
<text text-anchor="middle" x="402.5" y="-237" font-family="Helvetica,sans-Serif" font-size="10.00" fill="#000000">cstdint</text>
</g>
<!-- Node1&#45;&gt;Node3 -->
<g id="edge3" class="edge">
<title>Node1&#45;&gt;Node3</title>
<path fill="none" stroke="#191970" d="M402.5,-291.3906C402.5,-282.8657 402.5,-270.1392 402.5,-259.4235"/>
<polygon fill="#191970" stroke="#191970" points="406.0001,-259.2448 402.5,-249.2449 399.0001,-259.2449 406.0001,-259.2448"/>
</g>
<!-- Node4 -->
<g id="node5" class="node">
<title>Node4</title>
<polygon fill="#ffffff" stroke="#bfbfbf" points="0,-230 0,-249 65,-249 65,-230 0,-230"/>
<text text-anchor="middle" x="32.5" y="-237" font-family="Helvetica,sans-Serif" font-size="10.00" fill="#000000">stdexcept</text>
</g>
<!-- Node1&#45;&gt;Node4 -->
<g id="edge4" class="edge">
<title>Node1&#45;&gt;Node4</title>
<path fill="none" stroke="#191970" d="M336.3597,-295.914C269.5423,-289.8019 163.7231,-277.4442 74.5,-255 71.5062,-254.2469 68.4303,-253.3544 65.37,-252.3838"/>
<polygon fill="#191970" stroke="#191970" points="66.3615,-249.0238 55.7669,-249.0931 64.0922,-255.6458 66.3615,-249.0238"/>
</g>
<!-- Node1&#45;&gt;Node5 -->
<g id="edge5" class="edge">
<title>Node1&#45;&gt;Node5</title>
<path fill="none" stroke="#191970" d="M446.4082,-291.4581C493.227,-281.2837 567.8379,-265.0697 621.2602,-253.4602"/>
<polygon fill="#191970" stroke="#191970" points="622.2834,-256.8197 631.3121,-251.2758 620.7969,-249.9793 622.2834,-256.8197"/>
</g>
<!-- Node14 -->
<g id="node15" class="node">
<title>Node14</title>
<g id="a_node15"><a xlink:href="types_8hpp.html" target="_top" xlink:title="This file defines common types used in ArgoDSM. ">
<polygon fill="#ffffff" stroke="#000000" points="338.5,-.5 338.5,-19.5 442.5,-19.5 442.5,-.5 338.5,-.5"/>
<text text-anchor="middle" x="390.5" y="-7.5" font-family="Helvetica,sans-Serif" font-size="10.00" fill="#000000">../types/types.hpp</text>
</a>
</g>
</g>
<!-- Node1&#45;&gt;Node14 -->
<g id="edge26" class="edge">
<title>Node1&#45;&gt;Node14</title>
<path fill="none" stroke="#191970" d="M336.2426,-295.0421C265.5118,-284.6152 163.5,-256.0481 163.5,-178 163.5,-178 163.5,-178 163.5,-122 163.5,-81.8722 279.0224,-41.9992 345.2448,-22.4389"/>
<polygon fill="#191970" stroke="#191970" points="346.4082,-25.7456 355.0313,-19.5898 344.4515,-19.0246 346.4082,-25.7456"/>
</g>
<!-- Node6 -->
<g id="node7" class="node">
<title>Node6</title>
<polygon fill="#ffffff" stroke="#bfbfbf" points="763.5,-168.5 763.5,-187.5 807.5,-187.5 807.5,-168.5 763.5,-168.5"/>
<text text-anchor="middle" x="785.5" y="-175.5" font-family="Helvetica,sans-Serif" font-size="10.00" fill="#000000">string</text>
</g>
<!-- Node5&#45;&gt;Node6 -->
<g id="edge6" class="edge">
<title>Node5&#45;&gt;Node6</title>
<path fill="none" stroke="#191970" d="M709.9628,-224.4554C725.6235,-214.8241 745.8532,-202.3828 761.4356,-192.7996"/>
<polygon fill="#191970" stroke="#191970" points="763.319,-195.7503 770.0035,-187.5303 759.652,-189.7876 763.319,-195.7503"/>
</g>
<!-- Node7 -->
<g id="node8" class="node">
<title>Node7</title>
<g id="a_node8"><a xlink:href="env_8hpp.html" target="_top" xlink:title="This file provides facilities for handling environment variables. ">
<polygon fill="#ffffff" stroke="#000000" points="357,-168.5 357,-187.5 442,-187.5 442,-168.5 357,-168.5"/>
<text text-anchor="middle" x="399.5" y="-175.5" font-family="Helvetica,sans-Serif" font-size="10.00" fill="#000000">../env/env.hpp</text>
</a>
</g>
</g>
<!-- Node5&#45;&gt;Node7 -->
<g id="edge7" class="edge">
<title>Node5&#45;&gt;Node7</title>
<path fill="none" stroke="#191970" d="M631.3694,-227.86C579.9021,-216.7928 502.9893,-200.2538 452.0508,-189.3003"/>
<polygon fill="#191970" stroke="#191970" points="452.7371,-185.8679 442.2247,-187.1873 451.2654,-192.7115 452.7371,-185.8679"/>
</g>
<!-- Node9 -->
<g id="node10" class="node">
<title>Node9</title>
<g id="a_node10"><a xlink:href="data__distribution_8hpp.html" target="_top" xlink:title="This file provides an abstraction layer for distributing the shared memory space. ...">
<polygon fill="#ffffff" stroke="#000000" points="625.5,-168.5 625.5,-187.5 745.5,-187.5 745.5,-168.5 625.5,-168.5"/>
<text text-anchor="middle" x="685.5" y="-175.5" font-family="Helvetica,sans-Serif" font-size="10.00" fill="#000000">data_distribution.hpp</text>
</a>
</g>
</g>
<!-- Node5&#45;&gt;Node9 -->
<g id="edge9" class="edge">
<title>Node5&#45;&gt;Node9</title>
<path fill="none" stroke="#191970" d="M685.5,-224.2977C685.5,-216.3834 685.5,-206.6043 685.5,-198.0759"/>
<polygon fill="#191970" stroke="#191970" points="689.0001,-197.8469 685.5,-187.8469 682.0001,-197.847 689.0001,-197.8469"/>
</g>
<!-- Node8 -->
<g id="node9" class="node">
<title>Node8</title>
<polygon fill="#ffffff" stroke="#bfbfbf" points="192,-112.5 192,-131.5 245,-131.5 245,-112.5 192,-112.5"/>
<text text-anchor="middle" x="218.5" y="-119.5" font-family="Helvetica,sans-Serif" font-size="10.00" fill="#000000">cstddef</text>
</g>
<!-- Node7&#45;&gt;Node8 -->
<g id="edge8" class="edge">
<title>Node7&#45;&gt;Node8</title>
<path fill="none" stroke="#191970" d="M368.385,-168.3733C336.8748,-158.6242 288.168,-143.5547 254.8884,-133.2583"/>
<polygon fill="#191970" stroke="#191970" points="255.6794,-129.8394 245.0917,-130.2273 253.6104,-136.5267 255.6794,-129.8394"/>
</g>
<!-- Node10 -->
<g id="node11" class="node">
<title>Node10</title>
<g id="a_node11"><a xlink:href="base__distribution_8hpp.html" target="_top" xlink:title="This file implements the base distribution class for all the policies to derive from. ">
<polygon fill="#ffffff" stroke="#000000" points="678.5,-56.5 678.5,-75.5 800.5,-75.5 800.5,-56.5 678.5,-56.5"/>
<text text-anchor="middle" x="739.5" y="-63.5" font-family="Helvetica,sans-Serif" font-size="10.00" fill="#000000">base_distribution.hpp</text>
</a>
</g>
</g>
<!-- Node9&#45;&gt;Node10 -->
<g id="edge10" class="edge">
<title>Node9&#45;&gt;Node10</title>
<path fill="none" stroke="#191970" d="M723.5976,-168.4497C742.3946,-161.6063 763.3748,-150.2734 774.5,-132 784.423,-115.7012 771.3803,-96.3375 758.4915,-82.815"/>
<polygon fill="#191970" stroke="#191970" points="760.6962,-80.076 751.0954,-75.5954 755.8066,-85.0852 760.6962,-80.076"/>
</g>
<!-- Node15 -->
<g id="node16" class="node">
<title>Node15</title>
<g id="a_node16"><a xlink:href="naive__distribution_8hpp.html" target="_top" xlink:title="This file implements the naive data distribution. ">
<polygon fill="#ffffff" stroke="#000000" points="822,-112.5 822,-131.5 947,-131.5 947,-112.5 822,-112.5"/>
<text text-anchor="middle" x="884.5" y="-119.5" font-family="Helvetica,sans-Serif" font-size="10.00" fill="#000000">naive_distribution.hpp</text>
</a>
</g>
</g>
<!-- Node9&#45;&gt;Node15 -->
<g id="edge15" class="edge">
<title>Node9&#45;&gt;Node15</title>
<path fill="none" stroke="#191970" d="M719.7093,-168.3733C753.2297,-158.9404 804.4505,-144.5265 840.881,-134.2747"/>
<polygon fill="#191970" stroke="#191970" points="842.0591,-137.5792 850.7371,-131.5011 840.1628,-130.8409 842.0591,-137.5792"/>
</g>
<!-- Node16 -->
<g id="node17" class="node">
<title>Node16</title>
<g id="a_node17"><a xlink:href="cyclic__distribution_8hpp.html" target="_top" xlink:title="This file implements the cyclic data distribution. ">
<polygon fill="#ffffff" stroke="#000000" points="965.5,-112.5 965.5,-131.5 1091.5,-131.5 1091.5,-112.5 965.5,-112.5"/>
<text text-anchor="middle" x="1028.5" y="-119.5" font-family="Helvetica,sans-Serif" font-size="10.00" fill="#000000">cyclic_distribution.hpp</text>
</a>
</g>
</g>
<!-- Node9&#45;&gt;Node16 -->
<g id="edge17" class="edge">
<title>Node9&#45;&gt;Node16</title>
<path fill="none" stroke="#191970" d="M744.0741,-168.4369C804.0091,-158.6516 897.0683,-143.4582 960.2871,-133.1368"/>
<polygon fill="#191970" stroke="#191970" points="960.8622,-136.5893 970.1675,-131.5237 959.7342,-129.6808 960.8622,-136.5893"/>
</g>
<!-- Node17 -->
<g id="node18" class="node">
<title>Node17</title>
<g id="a_node18"><a xlink:href="skew__mapp__distribution_8hpp.html" target="_top" xlink:title="This file implements the skew&#45;mapp data distribution. ">
<polygon fill="#ffffff" stroke="#000000" points="430,-112.5 430,-131.5 587,-131.5 587,-112.5 430,-112.5"/>
<text text-anchor="middle" x="508.5" y="-119.5" font-family="Helvetica,sans-Serif" font-size="10.00" fill="#000000">skew_mapp_distribution.hpp</text>
</a>
</g>
</g>
<!-- Node9&#45;&gt;Node17 -->
<g id="edge19" class="edge">
<title>Node9&#45;&gt;Node17</title>
<path fill="none" stroke="#191970" d="M655.0726,-168.3733C625.5128,-159.021 580.4774,-144.7725 548.1305,-134.5385"/>
<polygon fill="#191970" stroke="#191970" points="549.1203,-131.1807 538.5303,-131.5011 547.0087,-137.8546 549.1203,-131.1807"/>
</g>
<!-- Node18 -->
<g id="node19" class="node">
<title>Node18</title>
<g id="a_node19"><a xlink:href="prime__mapp__distribution_8hpp.html" target="_top" xlink:title="This file implements the prime&#45;mapp data distribution. ">
<polygon fill="#ffffff" stroke="#000000" points="605.5,-112.5 605.5,-131.5 765.5,-131.5 765.5,-112.5 605.5,-112.5"/>
<text text-anchor="middle" x="685.5" y="-119.5" font-family="Helvetica,sans-Serif" font-size="10.00" fill="#000000">prime_mapp_distribution.hpp</text>
</a>
</g>
</g>
<!-- Node9&#45;&gt;Node18 -->
<g id="edge21" class="edge">
<title>Node9&#45;&gt;Node18</title>
<path fill="none" stroke="#191970" d="M685.5,-168.2455C685.5,-160.9382 685.5,-150.6944 685.5,-141.7046"/>
<polygon fill="#191970" stroke="#191970" points="689.0001,-141.6426 685.5,-131.6427 682.0001,-141.6427 689.0001,-141.6426"/>
</g>
<!-- Node19 -->
<g id="node20" class="node">
<title>Node19</title>
<g id="a_node20"><a xlink:href="first__touch__distribution_8hpp.html" target="_top" xlink:title="This file implements the first&#45;touch data distribution. ">
<polygon fill="#ffffff" stroke="#000000" points="263,-112.5 263,-131.5 412,-131.5 412,-112.5 263,-112.5"/>
<text text-anchor="middle" x="337.5" y="-119.5" font-family="Helvetica,sans-Serif" font-size="10.00" fill="#000000">first_touch_distribution.hpp</text>
</a>
</g>
</g>
<!-- Node9&#45;&gt;Node19 -->
<g id="edge23" class="edge">
<title>Node9&#45;&gt;Node19</title>
<path fill="none" stroke="#191970" d="M626.0721,-168.4369C565.2634,-158.6516 470.8476,-143.4582 406.7072,-133.1368"/>
<polygon fill="#191970" stroke="#191970" points="407.1119,-129.657 396.6828,-131.5237 405.9997,-136.5681 407.1119,-129.657"/>
</g>
<!-- Node11 -->
<g id="node12" class="node">
<title>Node11</title>
<polygon fill="#ffffff" stroke="#bfbfbf" points="674,-.5 674,-19.5 723,-19.5 723,-.5 674,-.5"/>
<text text-anchor="middle" x="698.5" y="-7.5" font-family="Helvetica,sans-Serif" font-size="10.00" fill="#000000">cstdlib</text>
</g>
<!-- Node10&#45;&gt;Node11 -->
<g id="edge11" class="edge">
<title>Node10&#45;&gt;Node11</title>
<path fill="none" stroke="#191970" d="M732.3583,-56.2455C726.6556,-48.4564 718.51,-37.3308 711.6375,-27.9439"/>
<polygon fill="#191970" stroke="#191970" points="714.2913,-25.6437 705.5598,-19.6427 708.6432,-29.7789 714.2913,-25.6437"/>
</g>
<!-- Node10&#45;&gt;Node12 -->
<g id="edge12" class="edge">
<title>Node10&#45;&gt;Node12</title>
<path fill="none" stroke="#191970" d="M778.6063,-56.4369C820.3832,-46.2207 886.2655,-30.1097 928.4145,-19.8026"/>
<polygon fill="#191970" stroke="#191970" points="929.4472,-23.1532 938.3295,-17.3779 927.7843,-16.3536 929.4472,-23.1532"/>
</g>
<!-- Node13 -->
<g id="node14" class="node">
<title>Node13</title>
<polygon fill="#ffffff" stroke="#bfbfbf" points="741,-.5 741,-19.5 822,-19.5 822,-.5 741,-.5"/>
<text text-anchor="middle" x="781.5" y="-7.5" font-family="Helvetica,sans-Serif" font-size="10.00" fill="#000000">system_error</text>
</g>
<!-- Node10&#45;&gt;Node13 -->
<g id="edge13" class="edge">
<title>Node10&#45;&gt;Node13</title>
<path fill="none" stroke="#191970" d="M746.8158,-56.2455C752.7179,-48.3761 761.1742,-37.101 768.2594,-27.6542"/>
<polygon fill="#191970" stroke="#191970" points="771.068,-29.7427 774.268,-19.6427 765.4679,-25.5427 771.068,-29.7427"/>
</g>
<!-- Node10&#45;&gt;Node14 -->
<g id="edge14" class="edge">
<title>Node10&#45;&gt;Node14</title>
<path fill="none" stroke="#191970" d="M679.9013,-56.4369C616.6079,-46.2809 517.0092,-30.2995 452.7306,-19.9854"/>
<polygon fill="#191970" stroke="#191970" points="453.1568,-16.5091 442.7286,-18.3805 452.0477,-23.4207 453.1568,-16.5091"/>
</g>
<!-- Node15&#45;&gt;Node10 -->
<g id="edge16" class="edge">
<title>Node15&#45;&gt;Node10</title>
<path fill="none" stroke="#191970" d="M859.5736,-112.3733C835.8798,-103.2226 800.0489,-89.3844 773.6932,-79.2057"/>
<polygon fill="#191970" stroke="#191970" points="774.6906,-75.8389 764.1011,-75.5011 772.1686,-82.3689 774.6906,-75.8389"/>
</g>
<!-- Node16&#45;&gt;Node10 -->
<g id="edge18" class="edge">
<title>Node16&#45;&gt;Node10</title>
<path fill="none" stroke="#191970" d="M979.1475,-112.4369C929.1678,-102.7522 851.8502,-87.7703 798.6258,-77.4569"/>
<polygon fill="#191970" stroke="#191970" points="799.1322,-73.99 788.6489,-75.5237 797.8005,-80.8622 799.1322,-73.99"/>
</g>
<!-- Node17&#45;&gt;Node10 -->
<g id="edge20" class="edge">
<title>Node17&#45;&gt;Node10</title>
<path fill="none" stroke="#191970" d="M547.9478,-112.4369C587.3156,-102.8932 647.9034,-88.2052 690.3708,-77.9101"/>
<polygon fill="#191970" stroke="#191970" points="691.321,-81.2812 700.2149,-75.5237 689.6717,-74.4783 691.321,-81.2812"/>
</g>
<!-- Node18&#45;&gt;Node10 -->
<g id="edge22" class="edge">
<title>Node18&#45;&gt;Node10</title>
<path fill="none" stroke="#191970" d="M694.9061,-112.2455C702.6493,-104.2155 713.812,-92.6394 723.0318,-83.0781"/>
<polygon fill="#191970" stroke="#191970" points="725.7798,-85.2706 730.2017,-75.6427 720.7409,-80.4117 725.7798,-85.2706"/>
</g>
<!-- Node19&#45;&gt;Node10 -->
<g id="edge25" class="edge">
<title>Node19&#45;&gt;Node10</title>
<path fill="none" stroke="#191970" d="M406.1495,-112.4369C479.1836,-102.263 594.1842,-86.243 668.2108,-75.9308"/>
<polygon fill="#191970" stroke="#191970" points="668.9543,-79.3612 678.3757,-74.5148 667.9884,-72.4281 668.9543,-79.3612"/>
</g>
<!-- Node20 -->
<g id="node21" class="node">
<title>Node20</title>
<polygon fill="#ffffff" stroke="#bfbfbf" points="313.5,-56.5 313.5,-75.5 361.5,-75.5 361.5,-56.5 313.5,-56.5"/>
<text text-anchor="middle" x="337.5" y="-63.5" font-family="Helvetica,sans-Serif" font-size="10.00" fill="#000000">mutex</text>
</g>
<!-- Node19&#45;&gt;Node20 -->
<g id="edge24" class="edge">
<title>Node19&#45;&gt;Node20</title>
<path fill="none" stroke="#191970" d="M337.5,-112.2455C337.5,-104.9382 337.5,-94.6944 337.5,-85.7046"/>
<polygon fill="#191970" stroke="#191970" points="341.0001,-85.6426 337.5,-75.6427 334.0001,-85.6427 341.0001,-85.6426"/>
</g>
<!-- Node21&#45;&gt;Node1 -->
<g id="edge28" class="edge">
<title>Node21&#45;&gt;Node1</title>
<path fill="none" stroke="#191970" d="M714.2805,-352.823C647.9426,-341.7965 539.6988,-323.8047 469.7975,-312.1859"/>
<polygon fill="#191970" stroke="#191970" points="470.2106,-308.7066 459.772,-310.5195 469.0627,-315.6119 470.2106,-308.7066"/>
</g>
<!-- Node21&#45;&gt;Node5 -->
<g id="edge29" class="edge">
<title>Node21&#45;&gt;Node5</title>
<path fill="none" stroke="#191970" d="M744.7293,-347.4884C730.7463,-338.6035 714.652,-326.124 704.5,-311 695.316,-297.3181 690.5653,-279.3918 688.1109,-264.9118"/>
<polygon fill="#191970" stroke="#191970" points="691.5226,-264.0438 686.6462,-254.6379 684.5927,-265.0318 691.5226,-264.0438"/>
</g>
<!-- Node22 -->
<g id="node23" class="node">
<title>Node22</title>
<polygon fill="#ffffff" stroke="#bfbfbf" points="847.5,-291.5 847.5,-310.5 897.5,-310.5 897.5,-291.5 847.5,-291.5"/>
<text text-anchor="middle" x="872.5" y="-298.5" font-family="Helvetica,sans-Serif" font-size="10.00" fill="#000000">atomic</text>
</g>
<!-- Node21&#45;&gt;Node22 -->
<g id="edge30" class="edge">
<title>Node21&#45;&gt;Node22</title>
<path fill="none" stroke="#191970" d="M796.9628,-347.4554C812.6235,-337.8241 832.8532,-325.3828 848.4356,-315.7996"/>
<polygon fill="#191970" stroke="#191970" points="850.319,-318.7503 857.0035,-310.5303 846.652,-312.7876 850.319,-318.7503"/>
</g>
<!-- Node23 -->
<g id="node24" class="node">
<title>Node23</title>
<polygon fill="#ffffff" stroke="#bfbfbf" points="713.5,-291.5 713.5,-310.5 763.5,-310.5 763.5,-291.5 713.5,-291.5"/>
<text text-anchor="middle" x="738.5" y="-298.5" font-family="Helvetica,sans-Serif" font-size="10.00" fill="#000000">chrono</text>
</g>
<!-- Node21&#45;&gt;Node23 -->
<g id="edge31" class="edge">
<title>Node21&#45;&gt;Node23</title>
<path fill="none" stroke="#191970" d="M764.0955,-347.2977C759.4743,-338.9388 753.7031,-328.4997 748.8111,-319.6509"/>
<polygon fill="#191970" stroke="#191970" points="751.8452,-317.9051 743.9438,-310.8469 745.7191,-321.292 751.8452,-317.9051"/>
</g>
<!-- Node24 -->
<g id="node25" class="node">
<title>Node24</title>
<polygon fill="#ffffff" stroke="#bfbfbf" points="781.5,-291.5 781.5,-310.5 829.5,-310.5 829.5,-291.5 781.5,-291.5"/>
<text text-anchor="middle" x="805.5" y="-298.5" font-family="Helvetica,sans-Serif" font-size="10.00" fill="#000000">thread</text>
</g>
<!-- Node21&#45;&gt;Node24 -->
<g id="edge32" class="edge">
<title>Node21&#45;&gt;Node24</title>
<path fill="none" stroke="#191970" d="M780.6573,-347.2977C785.0949,-339.0277 790.625,-328.7215 795.3404,-319.9339"/>
<polygon fill="#191970" stroke="#191970" points="798.5721,-321.3134 800.2163,-310.8469 792.404,-318.0037 798.5721,-321.3134"/>
</g>
</g>
</svg>
