<?xml version="1.0" encoding="UTF-8" standalone="no"?>
<!DOCTYPE svg PUBLIC "-//W3C//DTD SVG 1.1//EN"
 "http://www.w3.org/Graphics/SVG/1.1/DTD/svg11.dtd">
<!-- Generated by graphviz version 2.40.1 (20161225.0304)
 -->
<!-- Title: /home/atmerhannah/argodsm/src/mempools/global_mempool.hpp Pages: 1 -->
<svg width="1959pt" height="418pt"
 viewBox="0.00 0.00 1959.00 418.00" xmlns="http://www.w3.org/2000/svg" xmlns:xlink="http://www.w3.org/1999/xlink">
<g id="graph0" class="graph" transform="scale(1 1) rotate(0) translate(4 414)">
<title>/home/atmerhannah/argodsm/src/mempools/global_mempool.hpp</title>
<polygon fill="#ffffff" stroke="transparent" points="-4,4 -4,-414 1955,-414 1955,4 -4,4"/>
<!-- Node27 -->
<g id="node1" class="node">
<title>Node27</title>
<polygon fill="#bfbfbf" stroke="#000000" points="1089.5,-379.5 1089.5,-409.5 1283.5,-409.5 1283.5,-379.5 1089.5,-379.5"/>
<text text-anchor="start" x="1097.5" y="-397.5" font-family="Helvetica,sans-Serif" font-size="10.00" fill="#000000">/home/atmerhannah/argodsm</text>
<text text-anchor="middle" x="1186.5" y="-386.5" font-family="Helvetica,sans-Serif" font-size="10.00" fill="#000000">/src/mempools/global_mempool.hpp</text>
</g>
<!-- Node28 -->
<g id="node2" class="node">
<title>Node28</title>
<g id="a_node2"><a xlink:href="collective__allocator_8hpp.html" target="_top" xlink:title="This file provides the collective allocator for ArgoDSM. ">
<polygon fill="#ffffff" stroke="#000000" points="1199,-223.5 1199,-264.5 1360,-264.5 1360,-223.5 1199,-223.5"/>
<text text-anchor="start" x="1207" y="-252.5" font-family="Helvetica,sans-Serif" font-size="10.00" fill="#000000">/home/atmerhannah/argodsm</text>
<text text-anchor="start" x="1207" y="-241.5" font-family="Helvetica,sans-Serif" font-size="10.00" fill="#000000">/src/allocators/collective</text>
<text text-anchor="middle" x="1279.5" y="-230.5" font-family="Helvetica,sans-Serif" font-size="10.00" fill="#000000">_allocator.hpp</text>
</a>
</g>
</g>
<!-- Node27&#45;&gt;Node28 -->
<g id="edge1" class="edge">
<title>Node27&#45;&gt;Node28</title>
<path fill="none" stroke="#191970" d="M1203.0527,-370.859C1208.9988,-362.1817 1215.6722,-352.225 1221.5,-343 1238.3098,-316.3915 1256.4634,-284.9167 1267.8988,-264.7182"/>
<polygon fill="#191970" stroke="#191970" points="1199.9885,-369.1369 1197.1855,-379.3542 1205.7483,-373.1149 1199.9885,-369.1369"/>
</g>
<!-- Node45 -->
<g id="node19" class="node">
<title>Node45</title>
<g id="a_node19"><a xlink:href="dynamic__allocator_8hpp.html" target="_top" xlink:title="This file provides the dynamic allocator for ArgoDSM. ">
<polygon fill="#ffffff" stroke="#000000" points="1052,-301.5 1052,-342.5 1213,-342.5 1213,-301.5 1052,-301.5"/>
<text text-anchor="start" x="1060" y="-330.5" font-family="Helvetica,sans-Serif" font-size="10.00" fill="#000000">/home/atmerhannah/argodsm</text>
<text text-anchor="start" x="1060" y="-319.5" font-family="Helvetica,sans-Serif" font-size="10.00" fill="#000000">/src/allocators/dynamic</text>
<text text-anchor="middle" x="1132.5" y="-308.5" font-family="Helvetica,sans-Serif" font-size="10.00" fill="#000000">_allocator.hpp</text>
</a>
</g>
</g>
<!-- Node27&#45;&gt;Node45 -->
<g id="edge25" class="edge">
<title>Node27&#45;&gt;Node45</title>
<path fill="none" stroke="#191970" d="M1169.3022,-371.4104C1162.3869,-362.1259 1154.4788,-351.5086 1147.7701,-342.5015"/>
<polygon fill="#191970" stroke="#191970" points="1166.5307,-373.5488 1175.3112,-379.478 1172.1447,-369.3674 1166.5307,-373.5488"/>
</g>
<!-- Node29 -->
<g id="node3" class="node">
<title>Node29</title>
<g id="a_node3"><a xlink:href="src_2allocators_2allocators_8cpp.html" target="_top" xlink:title="This file provides the default allocators. ">
<polygon fill="#ffffff" stroke="#000000" points="873,-151 873,-181 1034,-181 1034,-151 873,-151"/>
<text text-anchor="start" x="881" y="-169" font-family="Helvetica,sans-Serif" font-size="10.00" fill="#000000">/home/atmerhannah/argodsm</text>
<text text-anchor="middle" x="953.5" y="-158" font-family="Helvetica,sans-Serif" font-size="10.00" fill="#000000">/src/allocators/allocators.cpp</text>
</a>
</g>
</g>
<!-- Node28&#45;&gt;Node29 -->
<g id="edge2" class="edge">
<title>Node28&#45;&gt;Node29</title>
<path fill="none" stroke="#191970" d="M1189.1716,-222.3877C1134.2019,-209.2354 1065.3671,-192.7658 1016.3108,-181.0284"/>
<polygon fill="#191970" stroke="#191970" points="1188.3758,-225.796 1198.9157,-224.7191 1190.0047,-218.9881 1188.3758,-225.796"/>
</g>
<!-- Node30 -->
<g id="node4" class="node">
<title>Node30</title>
<g id="a_node4"><a xlink:href="allocators_8hpp.html" target="_top" xlink:title="This file provides all C++ allocators for ArgoDSM. ">
<polygon fill="#ffffff" stroke="#000000" points="1052,-151 1052,-181 1213,-181 1213,-151 1052,-151"/>
<text text-anchor="start" x="1060" y="-169" font-family="Helvetica,sans-Serif" font-size="10.00" fill="#000000">/home/atmerhannah/argodsm</text>
<text text-anchor="middle" x="1132.5" y="-158" font-family="Helvetica,sans-Serif" font-size="10.00" fill="#000000">/src/allocators/allocators.hpp</text>
</a>
</g>
</g>
<!-- Node28&#45;&gt;Node30 -->
<g id="edge3" class="edge">
<title>Node28&#45;&gt;Node30</title>
<path fill="none" stroke="#191970" d="M1231.4433,-218.5005C1208.1373,-206.1341 1180.9378,-191.7017 1160.9615,-181.102"/>
<polygon fill="#191970" stroke="#191970" points="1230.0186,-221.7067 1240.4926,-223.3022 1233.2997,-215.5233 1230.0186,-221.7067"/>
</g>
<!-- Node32 -->
<g id="node6" class="node">
<title>Node32</title>
<g id="a_node6"><a xlink:href="argo_8cpp.html" target="_top" xlink:title="This file implements some of the basic ArgoDSM calls. ">
<polygon fill="#ffffff" stroke="#000000" points="0,-.5 0,-30.5 161,-30.5 161,-.5 0,-.5"/>
<text text-anchor="start" x="8" y="-18.5" font-family="Helvetica,sans-Serif" font-size="10.00" fill="#000000">/home/atmerhannah/argodsm</text>
<text text-anchor="middle" x="80.5" y="-7.5" font-family="Helvetica,sans-Serif" font-size="10.00" fill="#000000">/src/argo.cpp</text>
</a>
</g>
</g>
<!-- Node28&#45;&gt;Node32 -->
<g id="edge16" class="edge">
<title>Node28&#45;&gt;Node32</title>
<path fill="none" stroke="#191970" d="M1270.1624,-213.7862C1261.4199,-190.9211 1245.9734,-160.8388 1221.5,-145 1172.1473,-113.0598 227.7099,-39.2141 169.5,-31 166.8599,-30.6274 164.1779,-30.236 161.4714,-29.8299"/>
<polygon fill="#191970" stroke="#191970" points="1266.9382,-215.1637 1273.6107,-223.3934 1273.5266,-212.7989 1266.9382,-215.1637"/>
</g>
<!-- Node33 -->
<g id="node7" class="node">
<title>Node33</title>
<g id="a_node7"><a xlink:href="tests_2allocators_8cpp.html" target="_top" xlink:title="This file provides unit tests for the ArgoDSM allocators and memory pools. ">
<polygon fill="#ffffff" stroke="#000000" points="1432,-.5 1432,-30.5 1593,-30.5 1593,-.5 1432,-.5"/>
<text text-anchor="start" x="1440" y="-18.5" font-family="Helvetica,sans-Serif" font-size="10.00" fill="#000000">/home/atmerhannah/argodsm</text>
<text text-anchor="middle" x="1512.5" y="-7.5" font-family="Helvetica,sans-Serif" font-size="10.00" fill="#000000">/tests/allocators.cpp</text>
</a>
</g>
</g>
<!-- Node28&#45;&gt;Node33 -->
<g id="edge20" class="edge">
<title>Node28&#45;&gt;Node33</title>
<path fill="none" stroke="#191970" d="M1298.1444,-214.7519C1326.7437,-170.5258 1380.9152,-89.4078 1407.5,-67 1425.9743,-51.4283 1449.9617,-39.2054 1470.3447,-30.5825"/>
<polygon fill="#191970" stroke="#191970" points="1295.0879,-213.0338 1292.615,-223.336 1300.9727,-216.8245 1295.0879,-213.0338"/>
</g>
<!-- Node34 -->
<g id="node8" class="node">
<title>Node34</title>
<g id="a_node8"><a xlink:href="api_8cpp.html" target="_top" xlink:title="This file provides unit tests for the ArgoDSM API functions. ">
<polygon fill="#ffffff" stroke="#000000" points="1611,-.5 1611,-30.5 1772,-30.5 1772,-.5 1611,-.5"/>
<text text-anchor="start" x="1619" y="-18.5" font-family="Helvetica,sans-Serif" font-size="10.00" fill="#000000">/home/atmerhannah/argodsm</text>
<text text-anchor="middle" x="1691.5" y="-7.5" font-family="Helvetica,sans-Serif" font-size="10.00" fill="#000000">/tests/api.cpp</text>
</a>
</g>
</g>
<!-- Node28&#45;&gt;Node34 -->
<g id="edge21" class="edge">
<title>Node28&#45;&gt;Node34</title>
<path fill="none" stroke="#191970" d="M1314.7348,-217.3548C1365.1603,-180.1057 1461.7524,-111.9911 1551.5,-67 1580.6711,-52.3763 1615.0417,-39.672 1642.4269,-30.5403"/>
<polygon fill="#191970" stroke="#191970" points="1312.4006,-214.7285 1306.457,-223.4992 1316.5728,-220.3493 1312.4006,-214.7285"/>
</g>
<!-- Node37 -->
<g id="node11" class="node">
<title>Node37</title>
<g id="a_node11"><a xlink:href="lock_8cpp.html" target="_top" xlink:title="This file provides unit tests for the ArgoDSM locks. ">
<polygon fill="#ffffff" stroke="#000000" points="1790,-.5 1790,-30.5 1951,-30.5 1951,-.5 1790,-.5"/>
<text text-anchor="start" x="1798" y="-18.5" font-family="Helvetica,sans-Serif" font-size="10.00" fill="#000000">/home/atmerhannah/argodsm</text>
<text text-anchor="middle" x="1870.5" y="-7.5" font-family="Helvetica,sans-Serif" font-size="10.00" fill="#000000">/tests/lock.cpp</text>
</a>
</g>
</g>
<!-- Node28&#45;&gt;Node37 -->
<g id="edge22" class="edge">
<title>Node28&#45;&gt;Node37</title>
<path fill="none" stroke="#191970" d="M1333.0144,-219.1666C1354.1038,-209.282 1378.4997,-197.7258 1400.5,-187 1506.982,-135.0869 1526.9268,-106.8096 1638.5,-67 1666.624,-56.9653 1737.1166,-41.8133 1793.0734,-30.5392"/>
<polygon fill="#191970" stroke="#191970" points="1331.4619,-216.0287 1323.8876,-223.4369 1334.4285,-222.3691 1331.4619,-216.0287"/>
</g>
<!-- Node38 -->
<g id="node12" class="node">
<title>Node38</title>
<g id="a_node12"><a xlink:href="omp_8cpp.html" target="_top" xlink:title="This file provides tests using OpenMP in ArgoDSM. ">
<polygon fill="#ffffff" stroke="#000000" points="1074,-.5 1074,-30.5 1235,-30.5 1235,-.5 1074,-.5"/>
<text text-anchor="start" x="1082" y="-18.5" font-family="Helvetica,sans-Serif" font-size="10.00" fill="#000000">/home/atmerhannah/argodsm</text>
<text text-anchor="middle" x="1154.5" y="-7.5" font-family="Helvetica,sans-Serif" font-size="10.00" fill="#000000">/tests/omp.cpp</text>
</a>
</g>
</g>
<!-- Node28&#45;&gt;Node38 -->
<g id="edge23" class="edge">
<title>Node28&#45;&gt;Node38</title>
<path fill="none" stroke="#191970" d="M1280.5837,-212.8894C1280.3591,-174.9666 1274.8265,-110.5629 1243.5,-67 1231.8269,-50.7673 1213.3326,-38.8808 1196.22,-30.6446"/>
<polygon fill="#191970" stroke="#191970" points="1277.0811,-213.2771 1280.5147,-223.3001 1284.081,-213.3236 1277.0811,-213.2771"/>
</g>
<!-- Node39 -->
<g id="node13" class="node">
<title>Node39</title>
<g id="a_node13"><a xlink:href="prefetch_8cpp.html" target="_top" xlink:title="This file provides unit tests for the ArgoDSM prefetch mechanism. ">
<polygon fill="#ffffff" stroke="#000000" points="1253,-.5 1253,-30.5 1414,-30.5 1414,-.5 1253,-.5"/>
<text text-anchor="start" x="1261" y="-18.5" font-family="Helvetica,sans-Serif" font-size="10.00" fill="#000000">/home/atmerhannah/argodsm</text>
<text text-anchor="middle" x="1333.5" y="-7.5" font-family="Helvetica,sans-Serif" font-size="10.00" fill="#000000">/tests/prefetch.cpp</text>
</a>
</g>
</g>
<!-- Node28&#45;&gt;Node39 -->
<g id="edge24" class="edge">
<title>Node28&#45;&gt;Node39</title>
<path fill="none" stroke="#191970" d="M1287.0689,-213.4684C1289.1717,-204.9093 1291.4421,-195.5953 1293.5,-187 1307.3101,-129.3177 1323.1605,-60.5711 1330.0279,-30.6554"/>
<polygon fill="#191970" stroke="#191970" points="1283.6072,-212.8881 1284.6126,-223.4351 1290.4039,-214.5631 1283.6072,-212.8881"/>
</g>
<!-- Node43 -->
<g id="node17" class="node">
<title>Node43</title>
<g id="a_node17"><a xlink:href="cohort__lock_8hpp.html" target="_top" xlink:title="This file provides a cohort lock for the ArgoDSM system. ">
<polygon fill="#ffffff" stroke="#000000" points="1647,-145.5 1647,-186.5 1808,-186.5 1808,-145.5 1647,-145.5"/>
<text text-anchor="start" x="1655" y="-174.5" font-family="Helvetica,sans-Serif" font-size="10.00" fill="#000000">/home/atmerhannah/argodsm</text>
<text text-anchor="start" x="1655" y="-163.5" font-family="Helvetica,sans-Serif" font-size="10.00" fill="#000000">/src/synchronization/cohort</text>
<text text-anchor="middle" x="1727.5" y="-152.5" font-family="Helvetica,sans-Serif" font-size="10.00" fill="#000000">_lock.hpp</text>
</a>
</g>
</g>
<!-- Node28&#45;&gt;Node43 -->
<g id="edge17" class="edge">
<title>Node28&#45;&gt;Node43</title>
<path fill="none" stroke="#191970" d="M1370.3046,-228.1903C1451.3602,-214.0779 1568.9548,-193.6038 1646.7819,-180.0536"/>
<polygon fill="#191970" stroke="#191970" points="1369.3623,-224.8016 1360.1108,-229.9651 1370.563,-231.6979 1369.3623,-224.8016"/>
</g>
<!-- Node31 -->
<g id="node5" class="node">
<title>Node31</title>
<g id="a_node5"><a xlink:href="argo_8hpp.html" target="_top" xlink:title="This file provides the full C++ interface to ArgoDSM. ">
<polygon fill="#ffffff" stroke="#000000" points="1074,-73 1074,-103 1235,-103 1235,-73 1074,-73"/>
<text text-anchor="start" x="1082" y="-91" font-family="Helvetica,sans-Serif" font-size="10.00" fill="#000000">/home/atmerhannah/argodsm</text>
<text text-anchor="middle" x="1154.5" y="-80" font-family="Helvetica,sans-Serif" font-size="10.00" fill="#000000">/src/argo.hpp</text>
</a>
</g>
</g>
<!-- Node30&#45;&gt;Node31 -->
<g id="edge4" class="edge">
<title>Node30&#45;&gt;Node31</title>
<path fill="none" stroke="#191970" d="M1139.5057,-141.1616C1143.0172,-128.7119 1147.157,-114.0342 1150.1961,-103.2592"/>
<polygon fill="#191970" stroke="#191970" points="1136.0879,-140.3862 1136.7418,-150.9608 1142.8251,-142.2865 1136.0879,-140.3862"/>
</g>
<!-- Node31&#45;&gt;Node32 -->
<g id="edge5" class="edge">
<title>Node31&#45;&gt;Node32</title>
<path fill="none" stroke="#191970" d="M1084.1848,-71.0023C1075.9014,-69.4324 1067.5385,-68.0427 1059.5,-67 666.9099,-16.0768 563.1391,-73.053 169.5,-31 166.8488,-30.7168 164.1573,-30.4028 161.4424,-30.0634"/>
<polygon fill="#191970" stroke="#191970" points="1083.7319,-74.4807 1094.2221,-72.9955 1085.0954,-67.6147 1083.7319,-74.4807"/>
</g>
<!-- Node31&#45;&gt;Node33 -->
<g id="edge6" class="edge">
<title>Node31&#45;&gt;Node33</title>
<path fill="none" stroke="#191970" d="M1238.6029,-70.968C1299.212,-58.6938 1380.2405,-42.2844 1438.4172,-30.5028"/>
<polygon fill="#191970" stroke="#191970" points="1237.7841,-67.5627 1228.6778,-72.978 1239.1736,-74.4234 1237.7841,-67.5627"/>
</g>
<!-- Node31&#45;&gt;Node34 -->
<g id="edge7" class="edge">
<title>Node31&#45;&gt;Node34</title>
<path fill="none" stroke="#191970" d="M1245.1443,-77.7036C1335.7608,-67.1196 1479.0104,-49.5992 1602.5,-31 1605.2916,-30.5795 1608.1307,-30.1416 1610.9967,-29.6907"/>
<polygon fill="#191970" stroke="#191970" points="1244.7069,-74.2308 1235.179,-78.8644 1245.5169,-81.1838 1244.7069,-74.2308"/>
</g>
<!-- Node35 -->
<g id="node9" class="node">
<title>Node35</title>
<g id="a_node9"><a xlink:href="backend_8cpp.html" target="_top" xlink:title="This file provides tests for the backends. ">
<polygon fill="#ffffff" stroke="#000000" points="895,-.5 895,-30.5 1056,-30.5 1056,-.5 895,-.5"/>
<text text-anchor="start" x="903" y="-18.5" font-family="Helvetica,sans-Serif" font-size="10.00" fill="#000000">/home/atmerhannah/argodsm</text>
<text text-anchor="middle" x="975.5" y="-7.5" font-family="Helvetica,sans-Serif" font-size="10.00" fill="#000000">/tests/backend.cpp</text>
</a>
</g>
</g>
<!-- Node31&#45;&gt;Node35 -->
<g id="edge8" class="edge">
<title>Node31&#45;&gt;Node35</title>
<path fill="none" stroke="#191970" d="M1108.0706,-69.1948C1078.3271,-57.1478 1040.2503,-41.7257 1012.5414,-30.5028"/>
<polygon fill="#191970" stroke="#191970" points="1106.8285,-72.4679 1117.4111,-72.978 1109.4564,-65.9798 1106.8285,-72.4679"/>
</g>
<!-- Node36 -->
<g id="node10" class="node">
<title>Node36</title>
<g id="a_node10"><a xlink:href="barrier_8cpp.html" target="_top" xlink:title="This file provides tests for the barrier synchronization. ">
<polygon fill="#ffffff" stroke="#000000" points="179,-.5 179,-30.5 340,-30.5 340,-.5 179,-.5"/>
<text text-anchor="start" x="187" y="-18.5" font-family="Helvetica,sans-Serif" font-size="10.00" fill="#000000">/home/atmerhannah/argodsm</text>
<text text-anchor="middle" x="259.5" y="-7.5" font-family="Helvetica,sans-Serif" font-size="10.00" fill="#000000">/tests/barrier.cpp</text>
</a>
</g>
</g>
<!-- Node31&#45;&gt;Node36 -->
<g id="edge9" class="edge">
<title>Node31&#45;&gt;Node36</title>
<path fill="none" stroke="#191970" d="M1083.806,-71.0129C1075.645,-69.4569 1067.4141,-68.0675 1059.5,-67 745.9347,-24.706 662.9397,-66.2088 348.5,-31 345.8503,-30.7033 343.16,-30.3777 340.4463,-30.0282"/>
<polygon fill="#191970" stroke="#191970" points="1083.2088,-74.4626 1093.6999,-72.9831 1084.576,-67.5974 1083.2088,-74.4626"/>
</g>
<!-- Node31&#45;&gt;Node37 -->
<g id="edge10" class="edge">
<title>Node31&#45;&gt;Node37</title>
<path fill="none" stroke="#191970" d="M1245.4647,-82.0739C1367.6835,-73.5769 1591.5241,-56.1353 1781.5,-31 1784.1432,-30.6503 1786.8279,-30.2787 1789.5368,-29.8896"/>
<polygon fill="#191970" stroke="#191970" points="1245.136,-78.5882 1235.4011,-82.7693 1245.6186,-85.5715 1245.136,-78.5882"/>
</g>
<!-- Node31&#45;&gt;Node38 -->
<g id="edge11" class="edge">
<title>Node31&#45;&gt;Node38</title>
<path fill="none" stroke="#191970" d="M1154.5,-62.8409C1154.5,-52.0601 1154.5,-39.8309 1154.5,-30.5028"/>
<polygon fill="#191970" stroke="#191970" points="1151.0001,-62.9779 1154.5,-72.978 1158.0001,-62.978 1151.0001,-62.9779"/>
</g>
<!-- Node31&#45;&gt;Node39 -->
<g id="edge12" class="edge">
<title>Node31&#45;&gt;Node39</title>
<path fill="none" stroke="#191970" d="M1200.9294,-69.1948C1230.6729,-57.1478 1268.7497,-41.7257 1296.4586,-30.5028"/>
<polygon fill="#191970" stroke="#191970" points="1199.5436,-65.9798 1191.5889,-72.978 1202.1715,-72.4679 1199.5436,-65.9798"/>
</g>
<!-- Node40 -->
<g id="node14" class="node">
<title>Node40</title>
<g id="a_node14"><a xlink:href="stlallocation_8cpp.html" target="_top" xlink:title="This file provides tests using C++ interfaces in ArgoDSM. ">
<polygon fill="#ffffff" stroke="#000000" points="358,-.5 358,-30.5 519,-30.5 519,-.5 358,-.5"/>
<text text-anchor="start" x="366" y="-18.5" font-family="Helvetica,sans-Serif" font-size="10.00" fill="#000000">/home/atmerhannah/argodsm</text>
<text text-anchor="middle" x="438.5" y="-7.5" font-family="Helvetica,sans-Serif" font-size="10.00" fill="#000000">/tests/stlallocation.cpp</text>
</a>
</g>
</g>
<!-- Node31&#45;&gt;Node40 -->
<g id="edge13" class="edge">
<title>Node31&#45;&gt;Node40</title>
<path fill="none" stroke="#191970" d="M1082.9723,-70.9894C1075.0824,-69.4713 1067.1415,-68.0968 1059.5,-67 824.9189,-33.3297 762.781,-59.3693 527.5,-31 524.8529,-30.6808 522.1649,-30.3357 519.4531,-29.9694"/>
<polygon fill="#191970" stroke="#191970" points="1082.42,-74.4482 1092.9124,-72.979 1083.7939,-67.5844 1082.42,-74.4482"/>
</g>
<!-- Node41 -->
<g id="node15" class="node">
<title>Node41</title>
<g id="a_node15"><a xlink:href="trivial_8cpp.html" target="_top" xlink:title="This file provides unit tests for trivial sanity checks when using ArgoDSM. ">
<polygon fill="#ffffff" stroke="#000000" points="537,-.5 537,-30.5 698,-30.5 698,-.5 537,-.5"/>
<text text-anchor="start" x="545" y="-18.5" font-family="Helvetica,sans-Serif" font-size="10.00" fill="#000000">/home/atmerhannah/argodsm</text>
<text text-anchor="middle" x="617.5" y="-7.5" font-family="Helvetica,sans-Serif" font-size="10.00" fill="#000000">/tests/trivial.cpp</text>
</a>
</g>
</g>
<!-- Node31&#45;&gt;Node41 -->
<g id="edge14" class="edge">
<title>Node31&#45;&gt;Node41</title>
<path fill="none" stroke="#191970" d="M1081.3391,-70.9373C1073.9834,-69.4895 1066.6084,-68.1442 1059.5,-67 903.8014,-41.9385 862.7244,-52.5424 706.5,-31 703.8587,-30.6358 701.1758,-30.2516 698.4683,-29.8517"/>
<polygon fill="#191970" stroke="#191970" points="1080.8343,-74.4062 1091.3308,-72.9659 1082.2271,-67.5462 1080.8343,-74.4062"/>
</g>
<!-- Node42 -->
<g id="node16" class="node">
<title>Node42</title>
<g id="a_node16"><a xlink:href="uninitialized_8cpp.html" target="_top" xlink:title="This file provides unit tests for accessing ArgoDSM memory in various ways. ">
<polygon fill="#ffffff" stroke="#000000" points="716,-.5 716,-30.5 877,-30.5 877,-.5 716,-.5"/>
<text text-anchor="start" x="724" y="-18.5" font-family="Helvetica,sans-Serif" font-size="10.00" fill="#000000">/home/atmerhannah/argodsm</text>
<text text-anchor="middle" x="796.5" y="-7.5" font-family="Helvetica,sans-Serif" font-size="10.00" fill="#000000">/tests/uninitialized.cpp</text>
</a>
</g>
</g>
<!-- Node31&#45;&gt;Node42 -->
<g id="edge15" class="edge">
<title>Node31&#45;&gt;Node42</title>
<path fill="none" stroke="#191970" d="M1077.4021,-70.7929C1071.3485,-69.492 1065.3263,-68.2142 1059.5,-67 998.0098,-54.1852 928.2345,-40.5643 876.0122,-30.5512"/>
<polygon fill="#191970" stroke="#191970" points="1077.0768,-74.3034 1087.5908,-72.9968 1078.5568,-67.4616 1077.0768,-74.3034"/>
</g>
<!-- Node43&#45;&gt;Node37 -->
<g id="edge19" class="edge">
<title>Node43&#45;&gt;Node37</title>
<path fill="none" stroke="#191970" d="M1777.7335,-140.2234C1791.671,-131.5451 1806.0927,-120.979 1817.5,-109 1840.0183,-85.3531 1856.5168,-50.3433 1864.7029,-30.5561"/>
<polygon fill="#191970" stroke="#191970" points="1775.9201,-137.2298 1769.1492,-145.3787 1779.5241,-143.2307 1775.9201,-137.2298"/>
</g>
<!-- Node44 -->
<g id="node18" class="node">
<title>Node44</title>
<g id="a_node18"><a xlink:href="cohort__lock_8cpp_source.html" target="_top" xlink:title="/home/atmerhannah/argodsm\l/src/synchronization/cohort\l_lock.cpp">
<polygon fill="#ffffff" stroke="#000000" points="1647,-67.5 1647,-108.5 1808,-108.5 1808,-67.5 1647,-67.5"/>
<text text-anchor="start" x="1655" y="-96.5" font-family="Helvetica,sans-Serif" font-size="10.00" fill="#000000">/home/atmerhannah/argodsm</text>
<text text-anchor="start" x="1655" y="-85.5" font-family="Helvetica,sans-Serif" font-size="10.00" fill="#000000">/src/synchronization/cohort</text>
<text text-anchor="middle" x="1727.5" y="-74.5" font-family="Helvetica,sans-Serif" font-size="10.00" fill="#000000">_lock.cpp</text>
</a>
</g>
</g>
<!-- Node43&#45;&gt;Node44 -->
<g id="edge18" class="edge">
<title>Node43&#45;&gt;Node44</title>
<path fill="none" stroke="#191970" d="M1727.5,-135.0789C1727.5,-126.2178 1727.5,-116.7747 1727.5,-108.6898"/>
<polygon fill="#191970" stroke="#191970" points="1724.0001,-135.0974 1727.5,-145.0974 1731.0001,-135.0975 1724.0001,-135.0974"/>
</g>
<!-- Node45&#45;&gt;Node28 -->
<g id="edge26" class="edge">
<title>Node45&#45;&gt;Node28</title>
<path fill="none" stroke="#191970" d="M1180.5567,-296.5005C1200.0913,-286.1352 1222.3612,-274.3185 1240.8204,-264.5239"/>
<polygon fill="#191970" stroke="#191970" points="1178.7003,-293.5233 1171.5074,-301.3022 1181.9814,-299.7067 1178.7003,-293.5233"/>
</g>
<!-- Node45&#45;&gt;Node29 -->
<g id="edge27" class="edge">
<title>Node45&#45;&gt;Node29</title>
<path fill="none" stroke="#191970" d="M1101.0448,-294.5866C1063.2022,-261.6064 1001.0125,-207.4076 970.9075,-181.1708"/>
<polygon fill="#191970" stroke="#191970" points="1098.8918,-297.3528 1108.7302,-301.2844 1103.4909,-292.0757 1098.8918,-297.3528"/>
</g>
<!-- Node45&#45;&gt;Node30 -->
<g id="edge28" class="edge">
<title>Node45&#45;&gt;Node30</title>
<path fill="none" stroke="#191970" d="M1132.5,-291.2053C1132.5,-258.0093 1132.5,-206.5293 1132.5,-181.1708"/>
<polygon fill="#191970" stroke="#191970" points="1129.0001,-291.2844 1132.5,-301.2844 1136.0001,-291.2844 1129.0001,-291.2844"/>
</g>
<!-- Node45&#45;&gt;Node32 -->
<g id="edge29" class="edge">
<title>Node45&#45;&gt;Node32</title>
<path fill="none" stroke="#191970" d="M1051.9773,-298.5397C845.6146,-238.416 302.1306,-80.072 132.1045,-30.535"/>
<polygon fill="#191970" stroke="#191970" points="1051.2619,-301.9768 1061.8418,-301.4137 1053.22,-295.2562 1051.2619,-301.9768"/>
</g>
</g>
</svg>
