<?xml version="1.0" encoding="UTF-8" standalone="no"?>
<!DOCTYPE svg PUBLIC "-//W3C//DTD SVG 1.1//EN"
 "http://www.w3.org/Graphics/SVG/1.1/DTD/svg11.dtd">
<!-- Generated by graphviz version 2.40.1 (20161225.0304)
 -->
<!-- Title: /home/atmerhannah/argodsm/src/data_distribution/global_ptr.hpp Pages: 1 -->
<!--zoomable 274 -->
<svg id="main" version="1.1" xmlns="http://www.w3.org/2000/svg" xmlns:xlink="http://www.w3.org/1999/xlink" xml:space="preserve" onload="init(evt)">
<style type="text/css"><![CDATA[
.edge:hover path { stroke: red; }
.edge:hover polygon { stroke: red; fill: red; }
]]></style>
<script type="text/javascript"><![CDATA[
var edges = document.getElementsByTagName('g');
if (edges && edges.length) {
  for (var i=0;i<edges.length;i++) {
    if (edges[i].id.substr(0,4)=='edge') {
      edges[i].setAttribute('class','edge');
    }
  }
}
]]></script>
        <defs>
                <circle id="rim" cx="0" cy="0" r="7"/>
                <circle id="rim2" cx="0" cy="0" r="3.5"/>
                <g id="zoomPlus">
                        <use xlink:href="#rim" fill="#404040">
                                <set attributeName="fill" to="#808080" begin="zoomplus.mouseover" end="zoomplus.mouseout"/>
                        </use>
                        <path d="M-4,0h8M0,-4v8" fill="none" stroke="white" stroke-width="1.5" pointer-events="none"/>
                </g>
                <g id="zoomMin">
                        <use xlink:href="#rim" fill="#404040">
                                <set attributeName="fill" to="#808080" begin="zoomminus.mouseover" end="zoomminus.mouseout"/>
                        </use>
                        <path d="M-4,0h8" fill="none" stroke="white" stroke-width="1.5" pointer-events="none"/>
                </g>
                <g id="dirArrow">
                        <path fill="none" stroke="white" stroke-width="1.5" d="M0,-3.0v7 M-2.5,-0.5L0,-3.0L2.5,-0.5"/>
                </g>
               <g id="resetDef">
                       <use xlink:href="#rim2" fill="#404040">
                               <set attributeName="fill" to="#808080" begin="reset.mouseover" end="reset.mouseout"/>
                       </use>
               </g>
        </defs>

<script type="text/javascript">
var viewWidth = 909;
var viewHeight = 274;
var sectionId = 'dynsection-0';
</script>
<script xlink:href="svgpan.js"/>
<svg id="graph" class="graph">
<g id="viewport">
<title>/home/atmerhannah/argodsm/src/data_distribution/global_ptr.hpp</title>
<polygon fill="#ffffff" stroke="transparent" points="-4,4 -4,-270 905,-270 905,4 -4,4"/>
<!-- Node0 -->
<g id="node1" class="node">
<title>Node0</title>
<polygon fill="#bfbfbf" stroke="#000000" points="30,-224.5 30,-265.5 191,-265.5 191,-224.5 30,-224.5"/>
<text text-anchor="start" x="38" y="-253.5" font-family="Helvetica,sans-Serif" font-size="10.00" fill="#000000">/home/atmerhannah/argodsm</text>
<text text-anchor="start" x="38" y="-242.5" font-family="Helvetica,sans-Serif" font-size="10.00" fill="#000000">/src/data_distribution</text>
<text text-anchor="middle" x="110.5" y="-231.5" font-family="Helvetica,sans-Serif" font-size="10.00" fill="#000000">/global_ptr.hpp</text>
</g>
<!-- Node1 -->
<g id="node2" class="node">
<title>Node1</title>
<polygon fill="#ffffff" stroke="#bfbfbf" points="5.5,-168.5 5.5,-187.5 49.5,-187.5 49.5,-168.5 5.5,-168.5"/>
<text text-anchor="middle" x="27.5" y="-175.5" font-family="Helvetica,sans-Serif" font-size="10.00" fill="#000000">string</text>
</g>
<!-- Node0&#45;&gt;Node1 -->
<g id="edge1" class="edge">
<title>Node0&#45;&gt;Node1</title>
<path fill="none" stroke="#191970" d="M84.6933,-224.168C72.7101,-214.4949 58.6797,-203.1692 47.5144,-194.1562"/>
<polygon fill="#191970" stroke="#191970" points="49.5957,-191.3383 39.6161,-187.7805 45.1989,-196.7851 49.5957,-191.3383"/>
</g>
<!-- Node2 -->
<g id="node3" class="node">
<title>Node2</title>
<g id="a_node3"><a xlink:href="env_8hpp.html" target="_top" xlink:title="This file provides facilities for handling environment variables. ">
<polygon fill="#ffffff" stroke="#000000" points="68,-168.5 68,-187.5 153,-187.5 153,-168.5 68,-168.5"/>
<text text-anchor="middle" x="110.5" y="-175.5" font-family="Helvetica,sans-Serif" font-size="10.00" fill="#000000">../env/env.hpp</text>
</a>
</g>
</g>
<!-- Node0&#45;&gt;Node2 -->
<g id="edge2" class="edge">
<title>Node0&#45;&gt;Node2</title>
<path fill="none" stroke="#191970" d="M110.5,-224.168C110.5,-215.8226 110.5,-206.2471 110.5,-197.9879"/>
<polygon fill="#191970" stroke="#191970" points="114.0001,-197.7804 110.5,-187.7805 107.0001,-197.7805 114.0001,-197.7804"/>
</g>
<!-- Node4 -->
<g id="node5" class="node">
<title>Node4</title>
<g id="a_node5"><a xlink:href="data__distribution_8hpp.html" target="_top" xlink:title="This file provides an abstraction layer for distributing the shared memory space. ...">
<polygon fill="#ffffff" stroke="#000000" points="256.5,-168.5 256.5,-187.5 376.5,-187.5 376.5,-168.5 256.5,-168.5"/>
<text text-anchor="middle" x="316.5" y="-175.5" font-family="Helvetica,sans-Serif" font-size="10.00" fill="#000000">data_distribution.hpp</text>
</a>
</g>
</g>
<!-- Node0&#45;&gt;Node4 -->
<g id="edge4" class="edge">
<title>Node0&#45;&gt;Node4</title>
<path fill="none" stroke="#191970" d="M173.7068,-224.4425C207.5618,-213.4314 248.1946,-200.2158 277.4444,-190.7026"/>
<polygon fill="#191970" stroke="#191970" points="278.8588,-193.9231 287.2859,-187.5017 276.6937,-187.2663 278.8588,-193.9231"/>
</g>
<!-- Node3 -->
<g id="node4" class="node">
<title>Node3</title>
<polygon fill="#ffffff" stroke="#bfbfbf" points="0,-112.5 0,-131.5 53,-131.5 53,-112.5 0,-112.5"/>
<text text-anchor="middle" x="26.5" y="-119.5" font-family="Helvetica,sans-Serif" font-size="10.00" fill="#000000">cstddef</text>
</g>
<!-- Node2&#45;&gt;Node3 -->
<g id="edge3" class="edge">
<title>Node2&#45;&gt;Node3</title>
<path fill="none" stroke="#191970" d="M95.8683,-168.2455C83.1006,-159.7337 64.3562,-147.2375 49.5701,-137.3801"/>
<polygon fill="#191970" stroke="#191970" points="51.226,-134.2775 40.964,-131.6427 47.3431,-140.1019 51.226,-134.2775"/>
</g>
<!-- Node5 -->
<g id="node6" class="node">
<title>Node5</title>
<g id="a_node6"><a xlink:href="base__distribution_8hpp.html" target="_top" xlink:title="This file implements the base distribution class for all the policies to derive from. ">
<polygon fill="#ffffff" stroke="#000000" points="335.5,-56.5 335.5,-75.5 457.5,-75.5 457.5,-56.5 335.5,-56.5"/>
<text text-anchor="middle" x="396.5" y="-63.5" font-family="Helvetica,sans-Serif" font-size="10.00" fill="#000000">base_distribution.hpp</text>
</a>
</g>
</g>
<!-- Node4&#45;&gt;Node5 -->
<g id="edge5" class="edge">
<title>Node4&#45;&gt;Node5</title>
<path fill="none" stroke="#191970" d="M256.2977,-173.5032C199.3488,-167.8495 119.7984,-155.841 100.5,-132 94.9074,-125.0909 94.7173,-118.7508 100.5,-112 114.9729,-95.1042 242.3428,-80.2435 325.2205,-72.2459"/>
<polygon fill="#191970" stroke="#191970" points="325.7241,-75.7139 335.3471,-71.2814 325.0603,-68.7454 325.7241,-75.7139"/>
</g>
<!-- Node10 -->
<g id="node11" class="node">
<title>Node10</title>
<g id="a_node11"><a xlink:href="naive__distribution_8hpp.html" target="_top" xlink:title="This file implements the naive data distribution. ">
<polygon fill="#ffffff" stroke="#000000" points="110,-112.5 110,-131.5 235,-131.5 235,-112.5 110,-112.5"/>
<text text-anchor="middle" x="172.5" y="-119.5" font-family="Helvetica,sans-Serif" font-size="10.00" fill="#000000">naive_distribution.hpp</text>
</a>
</g>
</g>
<!-- Node4&#45;&gt;Node10 -->
<g id="edge10" class="edge">
<title>Node4&#45;&gt;Node10</title>
<path fill="none" stroke="#191970" d="M291.7455,-168.3733C268.2151,-159.2226 232.6313,-145.3844 206.4574,-135.2057"/>
<polygon fill="#191970" stroke="#191970" points="207.5201,-131.8636 196.9315,-131.5011 204.9829,-138.3877 207.5201,-131.8636"/>
</g>
<!-- Node11 -->
<g id="node12" class="node">
<title>Node11</title>
<g id="a_node12"><a xlink:href="cyclic__distribution_8hpp.html" target="_top" xlink:title="This file implements the cyclic data distribution. ">
<polygon fill="#ffffff" stroke="#000000" points="253.5,-112.5 253.5,-131.5 379.5,-131.5 379.5,-112.5 253.5,-112.5"/>
<text text-anchor="middle" x="316.5" y="-119.5" font-family="Helvetica,sans-Serif" font-size="10.00" fill="#000000">cyclic_distribution.hpp</text>
</a>
</g>
</g>
<!-- Node4&#45;&gt;Node11 -->
<g id="edge12" class="edge">
<title>Node4&#45;&gt;Node11</title>
<path fill="none" stroke="#191970" d="M316.5,-168.2455C316.5,-160.9382 316.5,-150.6944 316.5,-141.7046"/>
<polygon fill="#191970" stroke="#191970" points="320.0001,-141.6426 316.5,-131.6427 313.0001,-141.6427 320.0001,-141.6426"/>
</g>
<!-- Node12 -->
<g id="node13" class="node">
<title>Node12</title>
<g id="a_node13"><a xlink:href="skew__mapp__distribution_8hpp.html" target="_top" xlink:title="This file implements the skew&#45;mapp data distribution. ">
<polygon fill="#ffffff" stroke="#000000" points="398,-112.5 398,-131.5 555,-131.5 555,-112.5 398,-112.5"/>
<text text-anchor="middle" x="476.5" y="-119.5" font-family="Helvetica,sans-Serif" font-size="10.00" fill="#000000">skew_mapp_distribution.hpp</text>
</a>
</g>
</g>
<!-- Node4&#45;&gt;Node12 -->
<g id="edge14" class="edge">
<title>Node4&#45;&gt;Node12</title>
<path fill="none" stroke="#191970" d="M344.005,-168.3733C370.3802,-159.1419 410.3851,-145.1402 439.5358,-134.9375"/>
<polygon fill="#191970" stroke="#191970" points="441.0716,-138.1082 449.3539,-131.5011 438.7591,-131.5012 441.0716,-138.1082"/>
</g>
<!-- Node13 -->
<g id="node14" class="node">
<title>Node13</title>
<g id="a_node14"><a xlink:href="prime__mapp__distribution_8hpp.html" target="_top" xlink:title="This file implements the prime&#45;mapp data distribution. ">
<polygon fill="#ffffff" stroke="#000000" points="573.5,-112.5 573.5,-131.5 733.5,-131.5 733.5,-112.5 573.5,-112.5"/>
<text text-anchor="middle" x="653.5" y="-119.5" font-family="Helvetica,sans-Serif" font-size="10.00" fill="#000000">prime_mapp_distribution.hpp</text>
</a>
</g>
</g>
<!-- Node4&#45;&gt;Node13 -->
<g id="edge16" class="edge">
<title>Node4&#45;&gt;Node13</title>
<path fill="none" stroke="#191970" d="M374.0495,-168.4369C432.8149,-158.6717 523.9913,-143.5207 586.0966,-133.2006"/>
<polygon fill="#191970" stroke="#191970" points="586.8969,-136.6157 596.1879,-131.5237 585.7494,-129.7103 586.8969,-136.6157"/>
</g>
<!-- Node14 -->
<g id="node15" class="node">
<title>Node14</title>
<g id="a_node15"><a xlink:href="first__touch__distribution_8hpp.html" target="_top" xlink:title="This file implements the first&#45;touch data distribution. ">
<polygon fill="#ffffff" stroke="#000000" points="752,-112.5 752,-131.5 901,-131.5 901,-112.5 752,-112.5"/>
<text text-anchor="middle" x="826.5" y="-119.5" font-family="Helvetica,sans-Serif" font-size="10.00" fill="#000000">first_touch_distribution.hpp</text>
</a>
</g>
</g>
<!-- Node4&#45;&gt;Node14 -->
<g id="edge18" class="edge">
<title>Node4&#45;&gt;Node14</title>
<path fill="none" stroke="#191970" d="M376.8402,-171.6941C457.3941,-163.2291 604.8074,-147.5754 741.6013,-132.0918"/>
<polygon fill="#191970" stroke="#191970" points="742.3079,-135.5342 751.8499,-130.9298 741.5192,-128.5788 742.3079,-135.5342"/>
</g>
<!-- Node6 -->
<g id="node7" class="node">
<title>Node6</title>
<polygon fill="#ffffff" stroke="#bfbfbf" points="255,-.5 255,-19.5 304,-19.5 304,-.5 255,-.5"/>
<text text-anchor="middle" x="279.5" y="-7.5" font-family="Helvetica,sans-Serif" font-size="10.00" fill="#000000">cstdlib</text>
</g>
<!-- Node5&#45;&gt;Node6 -->
<g id="edge6" class="edge">
<title>Node5&#45;&gt;Node6</title>
<path fill="none" stroke="#191970" d="M376.387,-56.3733C357.6897,-47.4241 329.6256,-33.9917 308.5066,-23.8835"/>
<polygon fill="#191970" stroke="#191970" points="309.8817,-20.6614 299.3506,-19.5011 306.8595,-26.9755 309.8817,-20.6614"/>
</g>
<!-- Node7 -->
<g id="node8" class="node">
<title>Node7</title>
<polygon fill="#ffffff" stroke="#bfbfbf" points="322.5,-.5 322.5,-19.5 382.5,-19.5 382.5,-.5 322.5,-.5"/>
<text text-anchor="middle" x="352.5" y="-7.5" font-family="Helvetica,sans-Serif" font-size="10.00" fill="#000000">iostream</text>
</g>
<!-- Node5&#45;&gt;Node7 -->
<g id="edge7" class="edge">
<title>Node5&#45;&gt;Node7</title>
<path fill="none" stroke="#191970" d="M388.8358,-56.2455C382.6527,-48.3761 373.7937,-37.101 366.3711,-27.6542"/>
<polygon fill="#191970" stroke="#191970" points="369.0068,-25.3435 360.0764,-19.6427 363.5025,-29.6683 369.0068,-25.3435"/>
</g>
<!-- Node8 -->
<g id="node9" class="node">
<title>Node8</title>
<polygon fill="#ffffff" stroke="#bfbfbf" points="401,-.5 401,-19.5 482,-19.5 482,-.5 401,-.5"/>
<text text-anchor="middle" x="441.5" y="-7.5" font-family="Helvetica,sans-Serif" font-size="10.00" fill="#000000">system_error</text>
</g>
<!-- Node5&#45;&gt;Node8 -->
<g id="edge8" class="edge">
<title>Node5&#45;&gt;Node8</title>
<path fill="none" stroke="#191970" d="M404.3384,-56.2455C410.662,-48.3761 419.7224,-37.101 427.3136,-27.6542"/>
<polygon fill="#191970" stroke="#191970" points="430.2158,-29.6302 433.7514,-19.6427 424.7592,-25.2454 430.2158,-29.6302"/>
</g>
<!-- Node9 -->
<g id="node10" class="node">
<title>Node9</title>
<g id="a_node10"><a xlink:href="types_8hpp.html" target="_top" xlink:title="This file defines common types used in ArgoDSM. ">
<polygon fill="#ffffff" stroke="#000000" points="500.5,-.5 500.5,-19.5 604.5,-19.5 604.5,-.5 500.5,-.5"/>
<text text-anchor="middle" x="552.5" y="-7.5" font-family="Helvetica,sans-Serif" font-size="10.00" fill="#000000">../types/types.hpp</text>
</a>
</g>
</g>
<!-- Node5&#45;&gt;Node9 -->
<g id="edge9" class="edge">
<title>Node5&#45;&gt;Node9</title>
<path fill="none" stroke="#191970" d="M423.3174,-56.3733C449.0332,-47.1419 488.038,-33.1402 516.4599,-22.9375"/>
<polygon fill="#191970" stroke="#191970" points="517.8032,-26.174 526.0326,-19.5011 515.4381,-19.5857 517.8032,-26.174"/>
</g>
<!-- Node10&#45;&gt;Node5 -->
<g id="edge11" class="edge">
<title>Node10&#45;&gt;Node5</title>
<path fill="none" stroke="#191970" d="M210.7525,-112.4369C248.8467,-102.9133 307.4313,-88.2672 348.5987,-77.9753"/>
<polygon fill="#191970" stroke="#191970" points="349.5528,-81.3446 358.4053,-75.5237 347.855,-74.5536 349.5528,-81.3446"/>
</g>
<!-- Node11&#45;&gt;Node5 -->
<g id="edge13" class="edge">
<title>Node11&#45;&gt;Node5</title>
<path fill="none" stroke="#191970" d="M330.4349,-112.2455C342.5947,-103.7337 360.4464,-91.2375 374.5285,-81.3801"/>
<polygon fill="#191970" stroke="#191970" points="376.5395,-84.2447 382.7248,-75.6427 372.5253,-78.51 376.5395,-84.2447"/>
</g>
<!-- Node12&#45;&gt;Node5 -->
<g id="edge15" class="edge">
<title>Node12&#45;&gt;Node5</title>
<path fill="none" stroke="#191970" d="M462.5651,-112.2455C450.4053,-103.7337 432.5536,-91.2375 418.4715,-81.3801"/>
<polygon fill="#191970" stroke="#191970" points="420.4747,-78.51 410.2752,-75.6427 416.4605,-84.2447 420.4747,-78.51"/>
</g>
<!-- Node13&#45;&gt;Node5 -->
<g id="edge17" class="edge">
<title>Node13&#45;&gt;Node5</title>
<path fill="none" stroke="#191970" d="M609.6121,-112.4369C565.5362,-102.8328 497.5519,-88.0191 450.2642,-77.7152"/>
<polygon fill="#191970" stroke="#191970" points="450.7228,-74.233 440.2068,-75.5237 449.2324,-81.0725 450.7228,-74.233"/>
</g>
<!-- Node14&#45;&gt;Node5 -->
<g id="edge20" class="edge">
<title>Node14&#45;&gt;Node5</title>
<path fill="none" stroke="#191970" d="M753.0689,-112.4369C673.4108,-102.0628 547.0791,-85.6103 468.1321,-75.3288"/>
<polygon fill="#191970" stroke="#191970" points="468.1618,-71.8032 457.7935,-73.9824 467.2578,-78.7446 468.1618,-71.8032"/>
</g>
<!-- Node15 -->
<g id="node16" class="node">
<title>Node15</title>
<polygon fill="#ffffff" stroke="#bfbfbf" points="802.5,-56.5 802.5,-75.5 850.5,-75.5 850.5,-56.5 802.5,-56.5"/>
<text text-anchor="middle" x="826.5" y="-63.5" font-family="Helvetica,sans-Serif" font-size="10.00" fill="#000000">mutex</text>
</g>
<!-- Node14&#45;&gt;Node15 -->
<g id="edge19" class="edge">
<title>Node14&#45;&gt;Node15</title>
<path fill="none" stroke="#191970" d="M826.5,-112.2455C826.5,-104.9382 826.5,-94.6944 826.5,-85.7046"/>
<polygon fill="#191970" stroke="#191970" points="830.0001,-85.6426 826.5,-75.6427 823.0001,-85.6427 830.0001,-85.6426"/>
</g>
</g>
</svg>
        <g id="navigator" transform="translate(0 0)" fill="#404254">
                <rect fill="#f2f5e9" fill-opacity="0.5" stroke="#606060" stroke-width=".5" x="0" y="0" width="60" height="60"/>
                <use id="zoomplus" xlink:href="#zoomPlus" x="17" y="9" onmousedown="handleZoom(evt,'in')"/>
                <use id="zoomminus" xlink:href="#zoomMin" x="42" y="9" onmousedown="handleZoom(evt,'out')"/>
                <use id="reset" xlink:href="#resetDef" x="30" y="36" onmousedown="handleReset()"/>
                <g id="arrowUp" xlink:href="#dirArrow" transform="translate(30 24)" onmousedown="handlePan(0,-1)">
                  <use xlink:href="#rim" fill="#404040">
                        <set attributeName="fill" to="#808080" begin="arrowUp.mouseover" end="arrowUp.mouseout"/>
                  </use>
                  <path fill="none" stroke="white" stroke-width="1.5" d="M0,-3.0v7 M-2.5,-0.5L0,-3.0L2.5,-0.5"/>
                </g>
                <g id="arrowRight" xlink:href="#dirArrow" transform="rotate(90) translate(36 -43)" onmousedown="handlePan(1,0)">
                  <use xlink:href="#rim" fill="#404040">
                        <set attributeName="fill" to="#808080" begin="arrowRight.mouseover" end="arrowRight.mouseout"/>
                  </use>
                  <path fill="none" stroke="white" stroke-width="1.5" d="M0,-3.0v7 M-2.5,-0.5L0,-3.0L2.5,-0.5"/>
                </g>
                <g id="arrowDown" xlink:href="#dirArrow" transform="rotate(180) translate(-30 -48)" onmousedown="handlePan(0,1)">
                  <use xlink:href="#rim" fill="#404040">
                        <set attributeName="fill" to="#808080" begin="arrowDown.mouseover" end="arrowDown.mouseout"/>
                  </use>
                  <path fill="none" stroke="white" stroke-width="1.5" d="M0,-3.0v7 M-2.5,-0.5L0,-3.0L2.5,-0.5"/>
                </g>
                <g id="arrowLeft" xlink:href="#dirArrow" transform="rotate(270) translate(-36 17)" onmousedown="handlePan(-1,0)">
                  <use xlink:href="#rim" fill="#404040">
                        <set attributeName="fill" to="#808080" begin="arrowLeft.mouseover" end="arrowLeft.mouseout"/>
                  </use>
                  <path fill="none" stroke="white" stroke-width="1.5" d="M0,-3.0v7 M-2.5,-0.5L0,-3.0L2.5,-0.5"/>
                </g>
        </g>
        <svg viewBox="0 0 15 15" width="100%" height="30px" preserveAspectRatio="xMaxYMin meet">
         <g id="arrow_out" transform="scale(0.3 0.3)">
          <a xlink:href="global__ptr_8hpp__incl_org.svg" target="_base">
           <rect id="button" ry="5" rx="5" y="6" x="6" height="38" width="38"
                fill="#f2f5e9" fill-opacity="0.5" stroke="#606060" stroke-width="1.0"/>
           <path id="arrow"
             d="M 11.500037,31.436501 C 11.940474,20.09759 22.043105,11.32322 32.158766,21.979434 L 37.068811,17.246167 C 37.068811,17.246167 37.088388,32 37.088388,32 L 22.160133,31.978069 C 22.160133,31.978069 26.997745,27.140456 26.997745,27.140456 C 18.528582,18.264221 13.291696,25.230495 11.500037,31.436501 z"
             style="fill:#404040;"/>
          </a>
         </g>
        </svg>
</svg>
