<?xml version="1.0" encoding="UTF-8" standalone="no"?>
<!DOCTYPE svg PUBLIC "-//W3C//DTD SVG 1.1//EN"
 "http://www.w3.org/Graphics/SVG/1.1/DTD/svg11.dtd">
<!-- Generated by graphviz version 2.40.1 (20161225.0304)
 -->
<!-- Title: /home/atmerhannah/argodsm/src/mempools/global_mempool.hpp Pages: 1 -->
<!--zoomable 453 -->
<svg id="main" version="1.1" xmlns="http://www.w3.org/2000/svg" xmlns:xlink="http://www.w3.org/1999/xlink" xml:space="preserve" onload="init(evt)">
<style type="text/css"><![CDATA[
.edge:hover path { stroke: red; }
.edge:hover polygon { stroke: red; fill: red; }
]]></style>
<script type="text/javascript"><![CDATA[
var edges = document.getElementsByTagName('g');
if (edges && edges.length) {
  for (var i=0;i<edges.length;i++) {
    if (edges[i].id.substr(0,4)=='edge') {
      edges[i].setAttribute('class','edge');
    }
  }
}
]]></script>
        <defs>
                <circle id="rim" cx="0" cy="0" r="7"/>
                <circle id="rim2" cx="0" cy="0" r="3.5"/>
                <g id="zoomPlus">
                        <use xlink:href="#rim" fill="#404040">
                                <set attributeName="fill" to="#808080" begin="zoomplus.mouseover" end="zoomplus.mouseout"/>
                        </use>
                        <path d="M-4,0h8M0,-4v8" fill="none" stroke="white" stroke-width="1.5" pointer-events="none"/>
                </g>
                <g id="zoomMin">
                        <use xlink:href="#rim" fill="#404040">
                                <set attributeName="fill" to="#808080" begin="zoomminus.mouseover" end="zoomminus.mouseout"/>
                        </use>
                        <path d="M-4,0h8" fill="none" stroke="white" stroke-width="1.5" pointer-events="none"/>
                </g>
                <g id="dirArrow">
                        <path fill="none" stroke="white" stroke-width="1.5" d="M0,-3.0v7 M-2.5,-0.5L0,-3.0L2.5,-0.5"/>
                </g>
               <g id="resetDef">
                       <use xlink:href="#rim2" fill="#404040">
                               <set attributeName="fill" to="#808080" begin="reset.mouseover" end="reset.mouseout"/>
                       </use>
               </g>
        </defs>

<script type="text/javascript">
var viewWidth = 1449;
var viewHeight = 453;
var sectionId = 'dynsection-0';
</script>
<script xlink:href="svgpan.js"/>
<svg id="graph" class="graph">
<g id="viewport">
<title>/home/atmerhannah/argodsm/src/mempools/global_mempool.hpp</title>
<polygon fill="#ffffff" stroke="transparent" points="-4,4 -4,-449 1445,-449 1445,4 -4,4"/>
<!-- Node0 -->
<g id="node1" class="node">
<title>Node0</title>
<polygon fill="#bfbfbf" stroke="#000000" points="1090.5,-414.5 1090.5,-444.5 1284.5,-444.5 1284.5,-414.5 1090.5,-414.5"/>
<text text-anchor="start" x="1098.5" y="-432.5" font-family="Helvetica,sans-Serif" font-size="10.00" fill="#000000">/home/atmerhannah/argodsm</text>
<text text-anchor="middle" x="1187.5" y="-421.5" font-family="Helvetica,sans-Serif" font-size="10.00" fill="#000000">/src/mempools/global_mempool.hpp</text>
</g>
<!-- Node1 -->
<g id="node2" class="node">
<title>Node1</title>
<g id="a_node2"><a xlink:href="backend_8hpp.html" target="_top" xlink:title="This file provides the backend interface. ">
<polygon fill="#ffffff" stroke="#000000" points="165.5,-291.5 165.5,-310.5 297.5,-310.5 297.5,-291.5 165.5,-291.5"/>
<text text-anchor="middle" x="231.5" y="-298.5" font-family="Helvetica,sans-Serif" font-size="10.00" fill="#000000">../backend/backend.hpp</text>
</a>
</g>
</g>
<!-- Node0&#45;&gt;Node1 -->
<g id="edge1" class="edge">
<title>Node0&#45;&gt;Node1</title>
<path fill="none" stroke="#191970" d="M1090.3639,-427.0979C911.8807,-422.013 538.4969,-408.0718 412.5,-378 354.8132,-364.2318 292.0941,-333.7064 257.72,-315.4968"/>
<polygon fill="#191970" stroke="#191970" points="259.2705,-312.3567 248.8042,-310.7115 255.9601,-318.5245 259.2705,-312.3567"/>
</g>
<!-- Node5 -->
<g id="node6" class="node">
<title>Node5</title>
<g id="a_node6"><a xlink:href="global__ptr_8hpp.html" target="_top" xlink:title="This file provides the global pointer for ArgoDSM. ">
<polygon fill="#ffffff" stroke="#000000" points="372.5,-224.5 372.5,-254.5 480.5,-254.5 480.5,-224.5 372.5,-224.5"/>
<text text-anchor="start" x="380.5" y="-242.5" font-family="Helvetica,sans-Serif" font-size="10.00" fill="#000000">../data_distribution</text>
<text text-anchor="middle" x="426.5" y="-231.5" font-family="Helvetica,sans-Serif" font-size="10.00" fill="#000000">/global_ptr.hpp</text>
</a>
</g>
</g>
<!-- Node0&#45;&gt;Node5 -->
<g id="edge32" class="edge">
<title>Node0&#45;&gt;Node5</title>
<path fill="none" stroke="#191970" d="M1090.3579,-425.869C895.5918,-418.1576 473.8819,-399.1147 450.5,-378 419.2313,-349.7633 419.222,-296.6213 422.5311,-265.0081"/>
<polygon fill="#191970" stroke="#191970" points="426.0396,-265.1542 423.7942,-254.8001 419.0926,-264.2946 426.0396,-265.1542"/>
</g>
<!-- Node12 -->
<g id="node13" class="node">
<title>Node12</title>
<polygon fill="#ffffff" stroke="#bfbfbf" points="934.5,-.5 934.5,-19.5 994.5,-19.5 994.5,-.5 934.5,-.5"/>
<text text-anchor="middle" x="964.5" y="-7.5" font-family="Helvetica,sans-Serif" font-size="10.00" fill="#000000">iostream</text>
</g>
<!-- Node0&#45;&gt;Node12 -->
<g id="edge35" class="edge">
<title>Node0&#45;&gt;Node12</title>
<path fill="none" stroke="#191970" d="M1187.5,-414.4649C1187.5,-390.4731 1187.5,-342.0486 1187.5,-301 1187.5,-301 1187.5,-301 1187.5,-122 1187.5,-41.1527 1069.0048,-18.6595 1004.7686,-12.4056"/>
<polygon fill="#191970" stroke="#191970" points="1004.8441,-8.8987 994.5748,-11.5048 1004.2279,-15.8715 1004.8441,-8.8987"/>
</g>
<!-- Node21 -->
<g id="node22" class="node">
<title>Node21</title>
<g id="a_node22"><a xlink:href="global__tas__lock_8hpp.html" target="_top" xlink:title="This file provides a tas lock for the ArgoDSM system based on the TAS lock made by David Klaftenegger...">
<polygon fill="#ffffff" stroke="#000000" points="459.5,-347.5 459.5,-377.5 575.5,-377.5 575.5,-347.5 459.5,-347.5"/>
<text text-anchor="start" x="467.5" y="-365.5" font-family="Helvetica,sans-Serif" font-size="10.00" fill="#000000">../synchronization</text>
<text text-anchor="middle" x="517.5" y="-354.5" font-family="Helvetica,sans-Serif" font-size="10.00" fill="#000000">/global_tas_lock.hpp</text>
</a>
</g>
</g>
<!-- Node0&#45;&gt;Node21 -->
<g id="edge27" class="edge">
<title>Node0&#45;&gt;Node21</title>
<path fill="none" stroke="#191970" d="M1090.4343,-419.7934C953.1773,-406.0677 705.7815,-381.3282 586.0747,-369.3575"/>
<polygon fill="#191970" stroke="#191970" points="586.2378,-365.8564 575.9391,-368.3439 585.5412,-372.8217 586.2378,-365.8564"/>
</g>
<!-- Node24 -->
<g id="node25" class="node">
<title>Node24</title>
<polygon fill="#ffffff" stroke="#bfbfbf" points="1216,-353 1216,-372 1293,-372 1293,-353 1216,-353"/>
<text text-anchor="middle" x="1254.5" y="-360" font-family="Helvetica,sans-Serif" font-size="10.00" fill="#000000">sys/mman.h</text>
</g>
<!-- Node0&#45;&gt;Node24 -->
<g id="edge33" class="edge">
<title>Node0&#45;&gt;Node24</title>
<path fill="none" stroke="#191970" d="M1202.7033,-414.2967C1213.1422,-403.8578 1227.0003,-389.9997 1237.7554,-379.2446"/>
<polygon fill="#191970" stroke="#191970" points="1240.3488,-381.601 1244.945,-372.055 1235.399,-376.6512 1240.3488,-381.601"/>
</g>
<!-- Node25 -->
<g id="node26" class="node">
<title>Node25</title>
<polygon fill="#ffffff" stroke="#bfbfbf" points="1311.5,-353 1311.5,-372 1369.5,-372 1369.5,-353 1311.5,-353"/>
<text text-anchor="middle" x="1340.5" y="-360" font-family="Helvetica,sans-Serif" font-size="10.00" fill="#000000">memory</text>
</g>
<!-- Node0&#45;&gt;Node25 -->
<g id="edge34" class="edge">
<title>Node0&#45;&gt;Node25</title>
<path fill="none" stroke="#191970" d="M1221.8362,-414.4639C1248.0858,-402.969 1283.9674,-387.2561 1309.3825,-376.1266"/>
<polygon fill="#191970" stroke="#191970" points="1310.8124,-379.3214 1318.5687,-372.1039 1308.0045,-372.9092 1310.8124,-379.3214"/>
</g>
<!-- Node26 -->
<g id="node27" class="node">
<title>Node26</title>
<polygon fill="#ffffff" stroke="#bfbfbf" points="1388,-353 1388,-372 1441,-372 1441,-353 1388,-353"/>
<text text-anchor="middle" x="1414.5" y="-360" font-family="Helvetica,sans-Serif" font-size="10.00" fill="#000000">stdlib.h</text>
</g>
<!-- Node0&#45;&gt;Node26 -->
<g id="edge36" class="edge">
<title>Node0&#45;&gt;Node26</title>
<path fill="none" stroke="#191970" d="M1252.3007,-414.4799C1289.606,-405.2259 1337.1452,-392.395 1378.5,-378 1380.3797,-377.3457 1382.2999,-376.6385 1384.2267,-375.8992"/>
<polygon fill="#191970" stroke="#191970" points="1385.8106,-379.0337 1393.7598,-372.0294 1383.1777,-372.5477 1385.8106,-379.0337"/>
</g>
<!-- Node2 -->
<g id="node3" class="node">
<title>Node2</title>
<polygon fill="#ffffff" stroke="#bfbfbf" points="83.5,-230 83.5,-249 135.5,-249 135.5,-230 83.5,-230"/>
<text text-anchor="middle" x="109.5" y="-237" font-family="Helvetica,sans-Serif" font-size="10.00" fill="#000000">cassert</text>
</g>
<!-- Node1&#45;&gt;Node2 -->
<g id="edge2" class="edge">
<title>Node1&#45;&gt;Node2</title>
<path fill="none" stroke="#191970" d="M212.4375,-291.3906C192.3828,-281.2811 160.6066,-265.2628 137.6616,-253.6962"/>
<polygon fill="#191970" stroke="#191970" points="138.9337,-250.418 128.4286,-249.0419 135.7827,-256.6687 138.9337,-250.418"/>
</g>
<!-- Node3 -->
<g id="node4" class="node">
<title>Node3</title>
<polygon fill="#ffffff" stroke="#bfbfbf" points="153.5,-230 153.5,-249 203.5,-249 203.5,-230 153.5,-230"/>
<text text-anchor="middle" x="178.5" y="-237" font-family="Helvetica,sans-Serif" font-size="10.00" fill="#000000">cstdint</text>
</g>
<!-- Node1&#45;&gt;Node3 -->
<g id="edge3" class="edge">
<title>Node1&#45;&gt;Node3</title>
<path fill="none" stroke="#191970" d="M223.2188,-291.3906C215.3307,-282.2376 203.2686,-268.2409 193.6588,-257.09"/>
<polygon fill="#191970" stroke="#191970" points="196.0775,-254.5352 186.898,-249.2449 190.7749,-259.1049 196.0775,-254.5352"/>
</g>
<!-- Node4 -->
<g id="node5" class="node">
<title>Node4</title>
<polygon fill="#ffffff" stroke="#bfbfbf" points="0,-230 0,-249 65,-249 65,-230 0,-230"/>
<text text-anchor="middle" x="32.5" y="-237" font-family="Helvetica,sans-Serif" font-size="10.00" fill="#000000">stdexcept</text>
</g>
<!-- Node1&#45;&gt;Node4 -->
<g id="edge4" class="edge">
<title>Node1&#45;&gt;Node4</title>
<path fill="none" stroke="#191970" d="M196.3679,-291.4501C164.4088,-282.5869 116.0298,-268.7293 74.5,-255 72.1109,-254.2102 69.6543,-253.3722 67.1855,-252.511"/>
<polygon fill="#191970" stroke="#191970" points="68.315,-249.1978 57.7204,-249.126 65.9577,-255.789 68.315,-249.1978"/>
</g>
<!-- Node1&#45;&gt;Node5 -->
<g id="edge5" class="edge">
<title>Node1&#45;&gt;Node5</title>
<path fill="none" stroke="#191970" d="M261.9688,-291.3906C290.5589,-282.3737 334.053,-268.6563 369.1428,-257.5896"/>
<polygon fill="#191970" stroke="#191970" points="370.3134,-260.8904 378.7976,-254.5446 368.2079,-254.2145 370.3134,-260.8904"/>
</g>
<!-- Node14 -->
<g id="node15" class="node">
<title>Node14</title>
<g id="a_node15"><a xlink:href="types_8hpp.html" target="_top" xlink:title="This file defines common types used in ArgoDSM. ">
<polygon fill="#ffffff" stroke="#000000" points="352.5,-.5 352.5,-19.5 456.5,-19.5 456.5,-.5 352.5,-.5"/>
<text text-anchor="middle" x="404.5" y="-7.5" font-family="Helvetica,sans-Serif" font-size="10.00" fill="#000000">../types/types.hpp</text>
</a>
</g>
</g>
<!-- Node1&#45;&gt;Node14 -->
<g id="edge26" class="edge">
<title>Node1&#45;&gt;Node14</title>
<path fill="none" stroke="#191970" d="M231.5,-291.4309C231.5,-270.738 231.5,-220.2813 231.5,-178 231.5,-178 231.5,-178 231.5,-122 231.5,-65.9828 296.2056,-36.5924 346.4724,-22.212"/>
<polygon fill="#191970" stroke="#191970" points="347.5811,-25.5376 356.3099,-19.5326 345.7415,-18.7836 347.5811,-25.5376"/>
</g>
<!-- Node6 -->
<g id="node7" class="node">
<title>Node6</title>
<polygon fill="#ffffff" stroke="#bfbfbf" points="321.5,-168.5 321.5,-187.5 365.5,-187.5 365.5,-168.5 321.5,-168.5"/>
<text text-anchor="middle" x="343.5" y="-175.5" font-family="Helvetica,sans-Serif" font-size="10.00" fill="#000000">string</text>
</g>
<!-- Node5&#45;&gt;Node6 -->
<g id="edge6" class="edge">
<title>Node5&#45;&gt;Node6</title>
<path fill="none" stroke="#191970" d="M405.9831,-224.2977C393.5018,-215.0495 377.5841,-203.2551 364.9386,-193.8853"/>
<polygon fill="#191970" stroke="#191970" points="366.9078,-190.9882 356.7894,-187.8469 362.7404,-196.6126 366.9078,-190.9882"/>
</g>
<!-- Node7 -->
<g id="node8" class="node">
<title>Node7</title>
<g id="a_node8"><a xlink:href="env_8hpp.html" target="_top" xlink:title="This file provides facilities for handling environment variables. ">
<polygon fill="#ffffff" stroke="#000000" points="384,-168.5 384,-187.5 469,-187.5 469,-168.5 384,-168.5"/>
<text text-anchor="middle" x="426.5" y="-175.5" font-family="Helvetica,sans-Serif" font-size="10.00" fill="#000000">../env/env.hpp</text>
</a>
</g>
</g>
<!-- Node5&#45;&gt;Node7 -->
<g id="edge7" class="edge">
<title>Node5&#45;&gt;Node7</title>
<path fill="none" stroke="#191970" d="M426.5,-224.2977C426.5,-216.3834 426.5,-206.6043 426.5,-198.0759"/>
<polygon fill="#191970" stroke="#191970" points="430.0001,-197.8469 426.5,-187.8469 423.0001,-197.847 430.0001,-197.8469"/>
</g>
<!-- Node9 -->
<g id="node10" class="node">
<title>Node9</title>
<g id="a_node10"><a xlink:href="data__distribution_8hpp.html" target="_top" xlink:title="This file provides an abstraction layer for distributing the shared memory space. ...">
<polygon fill="#ffffff" stroke="#000000" points="550.5,-168.5 550.5,-187.5 670.5,-187.5 670.5,-168.5 550.5,-168.5"/>
<text text-anchor="middle" x="610.5" y="-175.5" font-family="Helvetica,sans-Serif" font-size="10.00" fill="#000000">data_distribution.hpp</text>
</a>
</g>
</g>
<!-- Node5&#45;&gt;Node9 -->
<g id="edge9" class="edge">
<title>Node5&#45;&gt;Node9</title>
<path fill="none" stroke="#191970" d="M471.5115,-224.4554C502.4816,-214.104 543.1628,-200.5067 572.502,-190.7004"/>
<polygon fill="#191970" stroke="#191970" points="573.6118,-194.0199 581.9865,-187.5303 571.3927,-187.3809 573.6118,-194.0199"/>
</g>
<!-- Node8 -->
<g id="node9" class="node">
<title>Node8</title>
<polygon fill="#ffffff" stroke="#bfbfbf" points="260,-112.5 260,-131.5 313,-131.5 313,-112.5 260,-112.5"/>
<text text-anchor="middle" x="286.5" y="-119.5" font-family="Helvetica,sans-Serif" font-size="10.00" fill="#000000">cstddef</text>
</g>
<!-- Node7&#45;&gt;Node8 -->
<g id="edge8" class="edge">
<title>Node7&#45;&gt;Node8</title>
<path fill="none" stroke="#191970" d="M402.4331,-168.3733C379.6572,-159.2629 345.2656,-145.5062 319.851,-135.3404"/>
<polygon fill="#191970" stroke="#191970" points="320.8375,-131.9654 310.2528,-131.5011 318.2377,-138.4648 320.8375,-131.9654"/>
</g>
<!-- Node10 -->
<g id="node11" class="node">
<title>Node10</title>
<g id="a_node11"><a xlink:href="base__distribution_8hpp.html" target="_top" xlink:title="This file implements the base distribution class for all the policies to derive from. ">
<polygon fill="#ffffff" stroke="#000000" points="621.5,-56.5 621.5,-75.5 743.5,-75.5 743.5,-56.5 621.5,-56.5"/>
<text text-anchor="middle" x="682.5" y="-63.5" font-family="Helvetica,sans-Serif" font-size="10.00" fill="#000000">base_distribution.hpp</text>
</a>
</g>
</g>
<!-- Node9&#45;&gt;Node10 -->
<g id="edge10" class="edge">
<title>Node9&#45;&gt;Node10</title>
<path fill="none" stroke="#191970" d="M586.1406,-168.4873C559.488,-156.6393 522.6494,-135.1214 539.5,-112 549.7403,-97.9488 588.1072,-86.0556 622.523,-77.8843"/>
<polygon fill="#191970" stroke="#191970" points="623.607,-81.2265 632.5685,-75.5748 622.0385,-74.4045 623.607,-81.2265"/>
</g>
<!-- Node15 -->
<g id="node16" class="node">
<title>Node15</title>
<g id="a_node16"><a xlink:href="naive__distribution_8hpp.html" target="_top" xlink:title="This file implements the naive data distribution. ">
<polygon fill="#ffffff" stroke="#000000" points="548,-112.5 548,-131.5 673,-131.5 673,-112.5 548,-112.5"/>
<text text-anchor="middle" x="610.5" y="-119.5" font-family="Helvetica,sans-Serif" font-size="10.00" fill="#000000">naive_distribution.hpp</text>
</a>
</g>
</g>
<!-- Node9&#45;&gt;Node15 -->
<g id="edge15" class="edge">
<title>Node9&#45;&gt;Node15</title>
<path fill="none" stroke="#191970" d="M610.5,-168.2455C610.5,-160.9382 610.5,-150.6944 610.5,-141.7046"/>
<polygon fill="#191970" stroke="#191970" points="614.0001,-141.6426 610.5,-131.6427 607.0001,-141.6427 614.0001,-141.6426"/>
</g>
<!-- Node16 -->
<g id="node17" class="node">
<title>Node16</title>
<g id="a_node17"><a xlink:href="cyclic__distribution_8hpp.html" target="_top" xlink:title="This file implements the cyclic data distribution. ">
<polygon fill="#ffffff" stroke="#000000" points="691.5,-112.5 691.5,-131.5 817.5,-131.5 817.5,-112.5 691.5,-112.5"/>
<text text-anchor="middle" x="754.5" y="-119.5" font-family="Helvetica,sans-Serif" font-size="10.00" fill="#000000">cyclic_distribution.hpp</text>
</a>
</g>
</g>
<!-- Node9&#45;&gt;Node16 -->
<g id="edge17" class="edge">
<title>Node9&#45;&gt;Node16</title>
<path fill="none" stroke="#191970" d="M635.2545,-168.3733C658.7849,-159.2226 694.3687,-145.3844 720.5426,-135.2057"/>
<polygon fill="#191970" stroke="#191970" points="722.0171,-138.3877 730.0685,-131.5011 719.4799,-131.8636 722.0171,-138.3877"/>
</g>
<!-- Node17 -->
<g id="node18" class="node">
<title>Node17</title>
<g id="a_node18"><a xlink:href="skew__mapp__distribution_8hpp.html" target="_top" xlink:title="This file implements the skew&#45;mapp data distribution. ">
<polygon fill="#ffffff" stroke="#000000" points="836,-112.5 836,-131.5 993,-131.5 993,-112.5 836,-112.5"/>
<text text-anchor="middle" x="914.5" y="-119.5" font-family="Helvetica,sans-Serif" font-size="10.00" fill="#000000">skew_mapp_distribution.hpp</text>
</a>
</g>
</g>
<!-- Node9&#45;&gt;Node17 -->
<g id="edge19" class="edge">
<title>Node9&#45;&gt;Node17</title>
<path fill="none" stroke="#191970" d="M662.414,-168.4369C715.0971,-158.7321 796.6568,-143.708 852.6543,-133.3926"/>
<polygon fill="#191970" stroke="#191970" points="853.5996,-136.7775 862.8001,-131.5237 852.3314,-129.8933 853.5996,-136.7775"/>
</g>
<!-- Node18 -->
<g id="node19" class="node">
<title>Node18</title>
<g id="a_node19"><a xlink:href="prime__mapp__distribution_8hpp.html" target="_top" xlink:title="This file implements the prime&#45;mapp data distribution. ">
<polygon fill="#ffffff" stroke="#000000" points="331.5,-112.5 331.5,-131.5 491.5,-131.5 491.5,-112.5 331.5,-112.5"/>
<text text-anchor="middle" x="411.5" y="-119.5" font-family="Helvetica,sans-Serif" font-size="10.00" fill="#000000">prime_mapp_distribution.hpp</text>
</a>
</g>
</g>
<!-- Node9&#45;&gt;Node18 -->
<g id="edge21" class="edge">
<title>Node9&#45;&gt;Node18</title>
<path fill="none" stroke="#191970" d="M576.2907,-168.3733C542.7703,-158.9404 491.5495,-144.5265 455.119,-134.2747"/>
<polygon fill="#191970" stroke="#191970" points="455.8372,-130.8409 445.2629,-131.5011 453.9409,-137.5792 455.8372,-130.8409"/>
</g>
<!-- Node19 -->
<g id="node20" class="node">
<title>Node19</title>
<g id="a_node20"><a xlink:href="first__touch__distribution_8hpp.html" target="_top" xlink:title="This file implements the first&#45;touch data distribution. ">
<polygon fill="#ffffff" stroke="#000000" points="1011,-112.5 1011,-131.5 1160,-131.5 1160,-112.5 1011,-112.5"/>
<text text-anchor="middle" x="1085.5" y="-119.5" font-family="Helvetica,sans-Serif" font-size="10.00" fill="#000000">first_touch_distribution.hpp</text>
</a>
</g>
</g>
<!-- Node9&#45;&gt;Node19 -->
<g id="edge23" class="edge">
<title>Node9&#45;&gt;Node19</title>
<path fill="none" stroke="#191970" d="M670.6108,-171.0046C745.5199,-162.274 877.7515,-146.8197 1000.8639,-132.1921"/>
<polygon fill="#191970" stroke="#191970" points="1001.3277,-135.6617 1010.8446,-131.0057 1000.5014,-128.7106 1001.3277,-135.6617"/>
</g>
<!-- Node11 -->
<g id="node12" class="node">
<title>Node11</title>
<polygon fill="#ffffff" stroke="#bfbfbf" points="617,-.5 617,-19.5 666,-19.5 666,-.5 617,-.5"/>
<text text-anchor="middle" x="641.5" y="-7.5" font-family="Helvetica,sans-Serif" font-size="10.00" fill="#000000">cstdlib</text>
</g>
<!-- Node10&#45;&gt;Node11 -->
<g id="edge11" class="edge">
<title>Node10&#45;&gt;Node11</title>
<path fill="none" stroke="#191970" d="M675.3583,-56.2455C669.6556,-48.4564 661.51,-37.3308 654.6375,-27.9439"/>
<polygon fill="#191970" stroke="#191970" points="657.2913,-25.6437 648.5598,-19.6427 651.6432,-29.7789 657.2913,-25.6437"/>
</g>
<!-- Node10&#45;&gt;Node12 -->
<g id="edge12" class="edge">
<title>Node10&#45;&gt;Node12</title>
<path fill="none" stroke="#191970" d="M730.6571,-56.4369C785.2574,-45.5943 873.294,-28.1118 924.3416,-17.9747"/>
<polygon fill="#191970" stroke="#191970" points="925.2158,-21.3696 934.3425,-15.9887 923.8522,-14.5036 925.2158,-21.3696"/>
</g>
<!-- Node13 -->
<g id="node14" class="node">
<title>Node13</title>
<polygon fill="#ffffff" stroke="#bfbfbf" points="684,-.5 684,-19.5 765,-19.5 765,-.5 684,-.5"/>
<text text-anchor="middle" x="724.5" y="-7.5" font-family="Helvetica,sans-Serif" font-size="10.00" fill="#000000">system_error</text>
</g>
<!-- Node10&#45;&gt;Node13 -->
<g id="edge13" class="edge">
<title>Node10&#45;&gt;Node13</title>
<path fill="none" stroke="#191970" d="M689.8158,-56.2455C695.7179,-48.3761 704.1742,-37.101 711.2594,-27.6542"/>
<polygon fill="#191970" stroke="#191970" points="714.068,-29.7427 717.268,-19.6427 708.4679,-25.5427 714.068,-29.7427"/>
</g>
<!-- Node10&#45;&gt;Node14 -->
<g id="edge14" class="edge">
<title>Node10&#45;&gt;Node14</title>
<path fill="none" stroke="#191970" d="M635.026,-56.4369C587.0486,-46.7724 512.883,-31.8326 461.6949,-21.5213"/>
<polygon fill="#191970" stroke="#191970" points="462.2725,-18.0674 451.7782,-19.5237 460.8901,-24.9296 462.2725,-18.0674"/>
</g>
<!-- Node15&#45;&gt;Node10 -->
<g id="edge16" class="edge">
<title>Node15&#45;&gt;Node10</title>
<path fill="none" stroke="#191970" d="M623.0414,-112.2455C633.7787,-103.8943 649.4473,-91.7076 662.0047,-81.9408"/>
<polygon fill="#191970" stroke="#191970" points="664.3575,-84.5449 670.1023,-75.6427 660.0599,-79.0194 664.3575,-84.5449"/>
</g>
<!-- Node16&#45;&gt;Node10 -->
<g id="edge18" class="edge">
<title>Node16&#45;&gt;Node10</title>
<path fill="none" stroke="#191970" d="M741.9586,-112.2455C731.2213,-103.8943 715.5527,-91.7076 702.9953,-81.9408"/>
<polygon fill="#191970" stroke="#191970" points="704.9401,-79.0194 694.8977,-75.6427 700.6425,-84.5449 704.9401,-79.0194"/>
</g>
<!-- Node17&#45;&gt;Node10 -->
<g id="edge20" class="edge">
<title>Node17&#45;&gt;Node10</title>
<path fill="none" stroke="#191970" d="M874.8814,-112.4369C835.3432,-102.8932 774.4931,-88.2052 731.8418,-77.9101"/>
<polygon fill="#191970" stroke="#191970" points="732.4973,-74.4679 721.9552,-75.5237 730.8548,-81.2724 732.4973,-74.4679"/>
</g>
<!-- Node18&#45;&gt;Node10 -->
<g id="edge22" class="edge">
<title>Node18&#45;&gt;Node10</title>
<path fill="none" stroke="#191970" d="M457.7786,-112.4369C504.4505,-102.7925 576.5449,-87.8948 626.4331,-77.5858"/>
<polygon fill="#191970" stroke="#191970" points="627.3274,-80.975 636.4122,-75.5237 625.9108,-74.1198 627.3274,-80.975"/>
</g>
<!-- Node19&#45;&gt;Node10 -->
<g id="edge25" class="edge">
<title>Node19&#45;&gt;Node10</title>
<path fill="none" stroke="#191970" d="M1016.6797,-112.4369C943.464,-102.263 828.1773,-86.243 753.9665,-75.9308"/>
<polygon fill="#191970" stroke="#191970" points="754.1629,-72.4246 743.7763,-74.5148 753.1994,-79.358 754.1629,-72.4246"/>
</g>
<!-- Node20 -->
<g id="node21" class="node">
<title>Node20</title>
<polygon fill="#ffffff" stroke="#bfbfbf" points="1061.5,-56.5 1061.5,-75.5 1109.5,-75.5 1109.5,-56.5 1061.5,-56.5"/>
<text text-anchor="middle" x="1085.5" y="-63.5" font-family="Helvetica,sans-Serif" font-size="10.00" fill="#000000">mutex</text>
</g>
<!-- Node19&#45;&gt;Node20 -->
<g id="edge24" class="edge">
<title>Node19&#45;&gt;Node20</title>
<path fill="none" stroke="#191970" d="M1085.5,-112.2455C1085.5,-104.9382 1085.5,-94.6944 1085.5,-85.7046"/>
<polygon fill="#191970" stroke="#191970" points="1089.0001,-85.6426 1085.5,-75.6427 1082.0001,-85.6427 1089.0001,-85.6426"/>
</g>
<!-- Node21&#45;&gt;Node1 -->
<g id="edge28" class="edge">
<title>Node21&#45;&gt;Node1</title>
<path fill="none" stroke="#191970" d="M459.2789,-349.9804C408.55,-339.072 335.5435,-323.373 285.9575,-312.7103"/>
<polygon fill="#191970" stroke="#191970" points="286.5698,-309.262 276.0575,-310.5814 285.0982,-316.1056 286.5698,-309.262"/>
</g>
<!-- Node21&#45;&gt;Node5 -->
<g id="edge29" class="edge">
<title>Node21&#45;&gt;Node5</title>
<path fill="none" stroke="#191970" d="M506.3416,-347.4178C490.7183,-326.3006 462.1801,-287.727 443.7925,-262.8733"/>
<polygon fill="#191970" stroke="#191970" points="446.511,-260.663 437.7497,-254.7056 440.8836,-264.8263 446.511,-260.663"/>
</g>
<!-- Node22 -->
<g id="node23" class="node">
<title>Node22</title>
<polygon fill="#ffffff" stroke="#bfbfbf" points="492.5,-291.5 492.5,-310.5 542.5,-310.5 542.5,-291.5 492.5,-291.5"/>
<text text-anchor="middle" x="517.5" y="-298.5" font-family="Helvetica,sans-Serif" font-size="10.00" fill="#000000">chrono</text>
</g>
<!-- Node21&#45;&gt;Node22 -->
<g id="edge30" class="edge">
<title>Node21&#45;&gt;Node22</title>
<path fill="none" stroke="#191970" d="M517.5,-347.2977C517.5,-339.3834 517.5,-329.6043 517.5,-321.0759"/>
<polygon fill="#191970" stroke="#191970" points="521.0001,-320.8469 517.5,-310.8469 514.0001,-320.847 521.0001,-320.8469"/>
</g>
<!-- Node23 -->
<g id="node24" class="node">
<title>Node23</title>
<polygon fill="#ffffff" stroke="#bfbfbf" points="560.5,-291.5 560.5,-310.5 608.5,-310.5 608.5,-291.5 560.5,-291.5"/>
<text text-anchor="middle" x="584.5" y="-298.5" font-family="Helvetica,sans-Serif" font-size="10.00" fill="#000000">thread</text>
</g>
<!-- Node21&#45;&gt;Node23 -->
<g id="edge31" class="edge">
<title>Node21&#45;&gt;Node23</title>
<path fill="none" stroke="#191970" d="M534.0618,-347.2977C543.8465,-338.3163 556.2474,-326.9334 566.3043,-317.702"/>
<polygon fill="#191970" stroke="#191970" points="568.7722,-320.1876 573.7725,-310.8469 564.0387,-315.0307 568.7722,-320.1876"/>
</g>
</g>
</svg>
        <g id="navigator" transform="translate(0 0)" fill="#404254">
                <rect fill="#f2f5e9" fill-opacity="0.5" stroke="#606060" stroke-width=".5" x="0" y="0" width="60" height="60"/>
                <use id="zoomplus" xlink:href="#zoomPlus" x="17" y="9" onmousedown="handleZoom(evt,'in')"/>
                <use id="zoomminus" xlink:href="#zoomMin" x="42" y="9" onmousedown="handleZoom(evt,'out')"/>
                <use id="reset" xlink:href="#resetDef" x="30" y="36" onmousedown="handleReset()"/>
                <g id="arrowUp" xlink:href="#dirArrow" transform="translate(30 24)" onmousedown="handlePan(0,-1)">
                  <use xlink:href="#rim" fill="#404040">
                        <set attributeName="fill" to="#808080" begin="arrowUp.mouseover" end="arrowUp.mouseout"/>
                  </use>
                  <path fill="none" stroke="white" stroke-width="1.5" d="M0,-3.0v7 M-2.5,-0.5L0,-3.0L2.5,-0.5"/>
                </g>
                <g id="arrowRight" xlink:href="#dirArrow" transform="rotate(90) translate(36 -43)" onmousedown="handlePan(1,0)">
                  <use xlink:href="#rim" fill="#404040">
                        <set attributeName="fill" to="#808080" begin="arrowRight.mouseover" end="arrowRight.mouseout"/>
                  </use>
                  <path fill="none" stroke="white" stroke-width="1.5" d="M0,-3.0v7 M-2.5,-0.5L0,-3.0L2.5,-0.5"/>
                </g>
                <g id="arrowDown" xlink:href="#dirArrow" transform="rotate(180) translate(-30 -48)" onmousedown="handlePan(0,1)">
                  <use xlink:href="#rim" fill="#404040">
                        <set attributeName="fill" to="#808080" begin="arrowDown.mouseover" end="arrowDown.mouseout"/>
                  </use>
                  <path fill="none" stroke="white" stroke-width="1.5" d="M0,-3.0v7 M-2.5,-0.5L0,-3.0L2.5,-0.5"/>
                </g>
                <g id="arrowLeft" xlink:href="#dirArrow" transform="rotate(270) translate(-36 17)" onmousedown="handlePan(-1,0)">
                  <use xlink:href="#rim" fill="#404040">
                        <set attributeName="fill" to="#808080" begin="arrowLeft.mouseover" end="arrowLeft.mouseout"/>
                  </use>
                  <path fill="none" stroke="white" stroke-width="1.5" d="M0,-3.0v7 M-2.5,-0.5L0,-3.0L2.5,-0.5"/>
                </g>
        </g>
        <svg viewBox="0 0 15 15" width="100%" height="30px" preserveAspectRatio="xMaxYMin meet">
         <g id="arrow_out" transform="scale(0.3 0.3)">
          <a xlink:href="global__mempool_8hpp__incl_org.svg" target="_base">
           <rect id="button" ry="5" rx="5" y="6" x="6" height="38" width="38"
                fill="#f2f5e9" fill-opacity="0.5" stroke="#606060" stroke-width="1.0"/>
           <path id="arrow"
             d="M 11.500037,31.436501 C 11.940474,20.09759 22.043105,11.32322 32.158766,21.979434 L 37.068811,17.246167 C 37.068811,17.246167 37.088388,32 37.088388,32 L 22.160133,31.978069 C 22.160133,31.978069 26.997745,27.140456 26.997745,27.140456 C 18.528582,18.264221 13.291696,25.230495 11.500037,31.436501 z"
             style="fill:#404040;"/>
          </a>
         </g>
        </svg>
</svg>
