<?xml version="1.0" encoding="UTF-8" standalone="no"?>
<!DOCTYPE svg PUBLIC "-//W3C//DTD SVG 1.1//EN"
 "http://www.w3.org/Graphics/SVG/1.1/DTD/svg11.dtd">
<!-- Generated by graphviz version 2.40.1 (20161225.0304)
 -->
<!-- Title: Graphical Class Hierarchy Pages: 1 -->
<svg width="359pt" height="290pt"
 viewBox="0.00 0.00 359.00 290.00" xmlns="http://www.w3.org/2000/svg" xmlns:xlink="http://www.w3.org/1999/xlink">
<g id="graph0" class="graph" transform="scale(1 1) rotate(0) translate(4 286)">
<title>Graphical Class Hierarchy</title>
<polygon fill="#ffffff" stroke="transparent" points="-4,4 -4,-286 355,-286 355,4 -4,4"/>
<!-- Node0 -->
<g id="node1" class="node">
<title>Node0</title>
<g id="a_node1"><a xlink:href="classargo_1_1data__distribution_1_1base__distribution.html" target="_top" xlink:title="the base data distribution class ">
<polygon fill="#ffffff" stroke="#000000" points="0,-126 0,-156 170,-156 170,-126 0,-126"/>
<text text-anchor="start" x="8" y="-144" font-family="Helvetica,sans-Serif" font-size="10.00" fill="#000000">argo::data_distribution</text>
<text text-anchor="middle" x="85" y="-133" font-family="Helvetica,sans-Serif" font-size="10.00" fill="#000000">::base_distribution&lt; instance &gt;</text>
</a>
</g>
</g>
<!-- Node1 -->
<g id="node2" class="node">
<title>Node1</title>
<g id="a_node2"><a xlink:href="classargo_1_1data__distribution_1_1cyclic__distribution.html" target="_top" xlink:title="the cyclic data distribution ">
<polygon fill="#ffffff" stroke="#000000" points="215,-240.5 215,-281.5 342,-281.5 342,-240.5 215,-240.5"/>
<text text-anchor="start" x="223" y="-269.5" font-family="Helvetica,sans-Serif" font-size="10.00" fill="#000000">argo::data_distribution</text>
<text text-anchor="start" x="223" y="-258.5" font-family="Helvetica,sans-Serif" font-size="10.00" fill="#000000">::cyclic_distribution</text>
<text text-anchor="middle" x="278.5" y="-247.5" font-family="Helvetica,sans-Serif" font-size="10.00" fill="#000000">&lt; instance &gt;</text>
</a>
</g>
</g>
<!-- Node0&#45;&gt;Node1 -->
<g id="edge1" class="edge">
<title>Node0&#45;&gt;Node1</title>
<path fill="none" stroke="#191970" d="M110.2711,-162.7176C133.9072,-182.301 170.758,-211.0118 206,-231 211.8059,-234.2929 218.0453,-237.4244 224.3397,-240.3355"/>
<polygon fill="#191970" stroke="#191970" points="112.4007,-159.9359 102.4861,-156.2006 107.9074,-165.3034 112.4007,-159.9359"/>
</g>
<!-- Node2 -->
<g id="node3" class="node">
<title>Node2</title>
<g id="a_node3"><a xlink:href="classargo_1_1data__distribution_1_1first__touch__distribution.html" target="_top" xlink:title="the first&#45;touch data distribution ">
<polygon fill="#ffffff" stroke="#000000" points="211.5,-180.5 211.5,-221.5 345.5,-221.5 345.5,-180.5 211.5,-180.5"/>
<text text-anchor="start" x="219.5" y="-209.5" font-family="Helvetica,sans-Serif" font-size="10.00" fill="#000000">argo::data_distribution</text>
<text text-anchor="start" x="219.5" y="-198.5" font-family="Helvetica,sans-Serif" font-size="10.00" fill="#000000">::first_touch_distribution</text>
<text text-anchor="middle" x="278.5" y="-187.5" font-family="Helvetica,sans-Serif" font-size="10.00" fill="#000000">&lt; instance &gt;</text>
</a>
</g>
</g>
<!-- Node0&#45;&gt;Node2 -->
<g id="edge2" class="edge">
<title>Node0&#45;&gt;Node2</title>
<path fill="none" stroke="#191970" d="M143.5381,-159.1514C165.1793,-165.8618 189.8597,-173.5146 212.1452,-180.4249"/>
<polygon fill="#191970" stroke="#191970" points="144.4162,-155.7593 133.8282,-156.1405 142.343,-162.4452 144.4162,-155.7593"/>
</g>
<!-- Node3 -->
<g id="node4" class="node">
<title>Node3</title>
<g id="a_node4"><a xlink:href="classargo_1_1data__distribution_1_1naive__distribution.html" target="_top" xlink:title="the naive data distribution ">
<polygon fill="#ffffff" stroke="#000000" points="215,-120.5 215,-161.5 342,-161.5 342,-120.5 215,-120.5"/>
<text text-anchor="start" x="223" y="-149.5" font-family="Helvetica,sans-Serif" font-size="10.00" fill="#000000">argo::data_distribution</text>
<text text-anchor="start" x="223" y="-138.5" font-family="Helvetica,sans-Serif" font-size="10.00" fill="#000000">::naive_distribution&lt;</text>
<text text-anchor="middle" x="278.5" y="-127.5" font-family="Helvetica,sans-Serif" font-size="10.00" fill="#000000"> instance &gt;</text>
</a>
</g>
</g>
<!-- Node0&#45;&gt;Node3 -->
<g id="edge3" class="edge">
<title>Node0&#45;&gt;Node3</title>
<path fill="none" stroke="#191970" d="M180.3941,-141C192.0745,-141 203.7812,-141 214.8331,-141"/>
<polygon fill="#191970" stroke="#191970" points="180.1535,-137.5001 170.1535,-141 180.1535,-144.5001 180.1535,-137.5001"/>
</g>
<!-- Node4 -->
<g id="node5" class="node">
<title>Node4</title>
<g id="a_node5"><a xlink:href="classargo_1_1data__distribution_1_1prime__mapp__distribution.html" target="_top" xlink:title="the prime&#45;mapp data distribution ">
<polygon fill="#ffffff" stroke="#000000" points="206,-60.5 206,-101.5 351,-101.5 351,-60.5 206,-60.5"/>
<text text-anchor="start" x="214" y="-89.5" font-family="Helvetica,sans-Serif" font-size="10.00" fill="#000000">argo::data_distribution</text>
<text text-anchor="start" x="214" y="-78.5" font-family="Helvetica,sans-Serif" font-size="10.00" fill="#000000">::prime_mapp_distribution</text>
<text text-anchor="middle" x="278.5" y="-67.5" font-family="Helvetica,sans-Serif" font-size="10.00" fill="#000000">&lt; instance &gt;</text>
</a>
</g>
</g>
<!-- Node0&#45;&gt;Node4 -->
<g id="edge4" class="edge">
<title>Node0&#45;&gt;Node4</title>
<path fill="none" stroke="#191970" d="M143.5381,-122.8486C165.1793,-116.1382 189.8597,-108.4854 212.1452,-101.5751"/>
<polygon fill="#191970" stroke="#191970" points="142.343,-119.5548 133.8282,-125.8595 144.4162,-126.2407 142.343,-119.5548"/>
</g>
<!-- Node5 -->
<g id="node6" class="node">
<title>Node5</title>
<g id="a_node6"><a xlink:href="classargo_1_1data__distribution_1_1skew__mapp__distribution.html" target="_top" xlink:title="the skew&#45;mapp data distribution ">
<polygon fill="#ffffff" stroke="#000000" points="207.5,-.5 207.5,-41.5 349.5,-41.5 349.5,-.5 207.5,-.5"/>
<text text-anchor="start" x="215.5" y="-29.5" font-family="Helvetica,sans-Serif" font-size="10.00" fill="#000000">argo::data_distribution</text>
<text text-anchor="start" x="215.5" y="-18.5" font-family="Helvetica,sans-Serif" font-size="10.00" fill="#000000">::skew_mapp_distribution</text>
<text text-anchor="middle" x="278.5" y="-7.5" font-family="Helvetica,sans-Serif" font-size="10.00" fill="#000000">&lt; instance &gt;</text>
</a>
</g>
</g>
<!-- Node0&#45;&gt;Node5 -->
<g id="edge5" class="edge">
<title>Node0&#45;&gt;Node5</title>
<path fill="none" stroke="#191970" d="M110.2711,-119.2824C133.9072,-99.699 170.758,-70.9882 206,-51 211.8059,-47.7071 218.0453,-44.5756 224.3397,-41.6645"/>
<polygon fill="#191970" stroke="#191970" points="107.9074,-116.6966 102.4861,-125.7994 112.4007,-122.0641 107.9074,-116.6966"/>
</g>
</g>
</svg>
