<?xml version="1.0" encoding="UTF-8" standalone="no"?>
<!DOCTYPE svg PUBLIC "-//W3C//DTD SVG 1.1//EN"
 "http://www.w3.org/Graphics/SVG/1.1/DTD/svg11.dtd">
<!-- Generated by graphviz version 2.40.1 (20161225.0304)
 -->
<!-- Title: TEST_F Pages: 1 -->
<svg width="521pt" height="129pt"
 viewBox="0.00 0.00 521.00 128.50" xmlns="http://www.w3.org/2000/svg" xmlns:xlink="http://www.w3.org/1999/xlink">
<g id="graph0" class="graph" transform="scale(1 1) rotate(0) translate(4 124.5)">
<title>TEST_F</title>
<polygon fill="#ffffff" stroke="transparent" points="-4,4 -4,-124.5 517,-124.5 517,4 -4,4"/>
<!-- Node0 -->
<g id="node1" class="node">
<title>Node0</title>
<polygon fill="#bfbfbf" stroke="#000000" points="0,-63 0,-82 51,-82 51,-63 0,-63"/>
<text text-anchor="middle" x="25.5" y="-70" font-family="Helvetica,sans-Serif" font-size="10.00" fill="#000000">TEST_F</text>
</g>
<!-- Node1 -->
<g id="node2" class="node">
<title>Node1</title>
<g id="a_node2"><a xlink:href="namespaceargo_a10bae1e1e60ff583384b937201a87c29.html#a10bae1e1e60ff583384b937201a87c29" target="_top" xlink:title="a barrier for threads ">
<polygon fill="#ffffff" stroke="#000000" points="114,-101 114,-120 191,-120 191,-101 114,-101"/>
<text text-anchor="middle" x="152.5" y="-108" font-family="Helvetica,sans-Serif" font-size="10.00" fill="#000000">argo::barrier</text>
</a>
</g>
</g>
<!-- Node0&#45;&gt;Node1 -->
<g id="edge1" class="edge">
<title>Node0&#45;&gt;Node1</title>
<path fill="none" stroke="#191970" d="M51.2031,-80.5495C62.2134,-83.9694 75.2242,-87.9733 87,-91.5 94.2557,-93.673 101.9751,-95.9463 109.4733,-98.1342"/>
<polygon fill="#191970" stroke="#191970" points="108.5661,-101.5153 119.1457,-100.9456 110.52,-94.7935 108.5661,-101.5153"/>
</g>
<!-- Node2 -->
<g id="node3" class="node">
<title>Node2</title>
<g id="a_node3"><a xlink:href="namespaceargo_a79c9492f3fd441bfa6261dffbc0f02f4.html#a79c9492f3fd441bfa6261dffbc0f02f4" target="_top" xlink:title="Number of ArgoDSM nodes being run. ">
<polygon fill="#ffffff" stroke="#000000" points="87,-63 87,-82 218,-82 218,-63 87,-63"/>
<text text-anchor="middle" x="152.5" y="-70" font-family="Helvetica,sans-Serif" font-size="10.00" fill="#000000">argo::number_of_nodes</text>
</a>
</g>
</g>
<!-- Node0&#45;&gt;Node2 -->
<g id="edge2" class="edge">
<title>Node0&#45;&gt;Node2</title>
<path fill="none" stroke="#191970" d="M51.2003,-72.5C58.8651,-72.5 67.6851,-72.5 76.8562,-72.5"/>
<polygon fill="#191970" stroke="#191970" points="76.9075,-76.0001 86.9074,-72.5 76.9074,-69.0001 76.9075,-76.0001"/>
</g>
<!-- Node3 -->
<g id="node4" class="node">
<title>Node3</title>
<g id="a_node4"><a xlink:href="namespaceargo_a09ca0ec2df9dbed721fb14b26cfa39a3.html#a09ca0ec2df9dbed721fb14b26cfa39a3" target="_top" xlink:title="template function to delete objects that were allocated using collective_new ">
<polygon fill="#ffffff" stroke="#000000" points="106.5,-25 106.5,-44 198.5,-44 198.5,-25 106.5,-25"/>
<text text-anchor="middle" x="152.5" y="-32" font-family="Helvetica,sans-Serif" font-size="10.00" fill="#000000">argo::codelete_</text>
</a>
</g>
</g>
<!-- Node0&#45;&gt;Node3 -->
<g id="edge3" class="edge">
<title>Node0&#45;&gt;Node3</title>
<path fill="none" stroke="#191970" d="M51.2031,-64.4505C62.2134,-61.0306 75.2242,-57.0267 87,-53.5 94.2557,-51.327 101.9751,-49.0537 109.4733,-46.8658"/>
<polygon fill="#191970" stroke="#191970" points="110.52,-50.2065 119.1457,-44.0544 108.5661,-43.4847 110.52,-50.2065"/>
</g>
<!-- Node4 -->
<g id="node5" class="node">
<title>Node4</title>
<g id="a_node5"><a xlink:href="namespaceargo_a2deaaacde085d381cbb01f24318965b4.html#a2deaaacde085d381cbb01f24318965b4" target="_top" xlink:title="A unique ArgoDSM node identifier. Counting starts from 0. ">
<polygon fill="#ffffff" stroke="#000000" points="257,-44 257,-63 340,-63 340,-44 257,-44"/>
<text text-anchor="middle" x="298.5" y="-51" font-family="Helvetica,sans-Serif" font-size="10.00" fill="#000000">argo::node_id</text>
</a>
</g>
</g>
<!-- Node3&#45;&gt;Node4 -->
<g id="edge4" class="edge">
<title>Node3&#45;&gt;Node4</title>
<path fill="none" stroke="#191970" d="M198.6953,-40.5117C213.9091,-42.4916 230.9266,-44.7062 246.54,-46.7381"/>
<polygon fill="#191970" stroke="#191970" points="246.1964,-50.2228 256.5645,-48.0426 247.0998,-43.2813 246.1964,-50.2228"/>
</g>
<!-- Node5 -->
<g id="node6" class="node">
<title>Node5</title>
<g id="a_node6"><a xlink:href="src_2allocators_2allocators_8cpp_a215edf4fe9276398650302b518c52baf.html#a215edf4fe9276398650302b518c52baf" target="_top" xlink:title="basic free function for collective allocations, for C interface ">
<polygon fill="#ffffff" stroke="#000000" points="254,-6 254,-25 343,-25 343,-6 254,-6"/>
<text text-anchor="middle" x="298.5" y="-13" font-family="Helvetica,sans-Serif" font-size="10.00" fill="#000000">collective_free</text>
</a>
</g>
</g>
<!-- Node3&#45;&gt;Node5 -->
<g id="edge5" class="edge">
<title>Node3&#45;&gt;Node5</title>
<path fill="none" stroke="#191970" d="M198.6953,-28.4883C212.9496,-26.6333 228.7874,-24.5722 243.5702,-22.6484"/>
<polygon fill="#191970" stroke="#191970" points="244.1388,-26.104 253.6035,-21.3427 243.2354,-19.1625 244.1388,-26.104"/>
</g>
<!-- Node6 -->
<g id="node7" class="node">
<title>Node6</title>
<g id="a_node7"><a xlink:href="classargo_1_1allocators_1_1generic__allocator_ab98a25e383864eecd7d602f95c49c420.html#ab98a25e383864eecd7d602f95c49c420" target="_top" xlink:title="free an allocated pointer ">
<polygon fill="#ffffff" stroke="#000000" points="379,-.5 379,-30.5 513,-30.5 513,-.5 379,-.5"/>
<text text-anchor="start" x="387" y="-18.5" font-family="Helvetica,sans-Serif" font-size="10.00" fill="#000000">argo::allocators::generic</text>
<text text-anchor="middle" x="446" y="-7.5" font-family="Helvetica,sans-Serif" font-size="10.00" fill="#000000">_allocator::free</text>
</a>
</g>
</g>
<!-- Node5&#45;&gt;Node6 -->
<g id="edge6" class="edge">
<title>Node5&#45;&gt;Node6</title>
<path fill="none" stroke="#191970" d="M343.1551,-15.5C351.2606,-15.5 359.9246,-15.5 368.6558,-15.5"/>
<polygon fill="#191970" stroke="#191970" points="368.9071,-19.0001 378.907,-15.5 368.907,-12.0001 368.9071,-19.0001"/>
</g>
</g>
</svg>
