<?xml version="1.0" encoding="UTF-8" standalone="no"?>
<!DOCTYPE svg PUBLIC "-//W3C//DTD SVG 1.1//EN"
 "http://www.w3.org/Graphics/SVG/1.1/DTD/svg11.dtd">
<!-- Generated by graphviz version 2.40.1 (20161225.0304)
 -->
<!-- Title: /home/atmerhannah/argodsm/src/synchronization/intranode/mcs_lock.cpp Pages: 1 -->
<svg width="182pt" height="162pt"
 viewBox="0.00 0.00 182.00 162.00" xmlns="http://www.w3.org/2000/svg" xmlns:xlink="http://www.w3.org/1999/xlink">
<g id="graph0" class="graph" transform="scale(1 1) rotate(0) translate(4 158)">
<title>/home/atmerhannah/argodsm/src/synchronization/intranode/mcs_lock.cpp</title>
<polygon fill="#ffffff" stroke="transparent" points="-4,4 -4,-158 178,-158 178,4 -4,4"/>
<!-- Node0 -->
<g id="node1" class="node">
<title>Node0</title>
<polygon fill="#bfbfbf" stroke="#000000" points="0,-112.5 0,-153.5 164,-153.5 164,-112.5 0,-112.5"/>
<text text-anchor="start" x="8" y="-141.5" font-family="Helvetica,sans-Serif" font-size="10.00" fill="#000000">/home/atmerhannah/argodsm</text>
<text text-anchor="start" x="8" y="-130.5" font-family="Helvetica,sans-Serif" font-size="10.00" fill="#000000">/src/synchronization/intranode</text>
<text text-anchor="middle" x="82" y="-119.5" font-family="Helvetica,sans-Serif" font-size="10.00" fill="#000000">/mcs_lock.cpp</text>
</g>
<!-- Node1 -->
<g id="node2" class="node">
<title>Node1</title>
<polygon fill="#ffffff" stroke="#bfbfbf" points="16,-56.5 16,-75.5 64,-75.5 64,-56.5 16,-56.5"/>
<text text-anchor="middle" x="40" y="-63.5" font-family="Helvetica,sans-Serif" font-size="10.00" fill="#000000">thread</text>
</g>
<!-- Node0&#45;&gt;Node1 -->
<g id="edge1" class="edge">
<title>Node0&#45;&gt;Node1</title>
<path fill="none" stroke="#191970" d="M68.9412,-112.168C63.353,-103.2536 56.885,-92.9356 51.4827,-84.3177"/>
<polygon fill="#191970" stroke="#191970" points="54.4079,-82.3944 46.131,-75.7805 48.4769,-86.1123 54.4079,-82.3944"/>
</g>
<!-- Node2 -->
<g id="node3" class="node">
<title>Node2</title>
<g id="a_node3"><a xlink:href="mcs__lock_8hpp.html" target="_top" xlink:title="MCS lock for local use. ">
<polygon fill="#ffffff" stroke="#000000" points="82.5,-56.5 82.5,-75.5 165.5,-75.5 165.5,-56.5 82.5,-56.5"/>
<text text-anchor="middle" x="124" y="-63.5" font-family="Helvetica,sans-Serif" font-size="10.00" fill="#000000">mcs_lock.hpp</text>
</a>
</g>
</g>
<!-- Node0&#45;&gt;Node2 -->
<g id="edge2" class="edge">
<title>Node0&#45;&gt;Node2</title>
<path fill="none" stroke="#191970" d="M95.0588,-112.168C100.647,-103.2536 107.115,-92.9356 112.5173,-84.3177"/>
<polygon fill="#191970" stroke="#191970" points="115.5231,-86.1123 117.869,-75.7805 109.5921,-82.3944 115.5231,-86.1123"/>
</g>
<!-- Node3 -->
<g id="node4" class="node">
<title>Node3</title>
<polygon fill="#ffffff" stroke="#bfbfbf" points="68,-.5 68,-19.5 118,-19.5 118,-.5 68,-.5"/>
<text text-anchor="middle" x="93" y="-7.5" font-family="Helvetica,sans-Serif" font-size="10.00" fill="#000000">atomic</text>
</g>
<!-- Node2&#45;&gt;Node3 -->
<g id="edge3" class="edge">
<title>Node2&#45;&gt;Node3</title>
<path fill="none" stroke="#191970" d="M118.6002,-56.2455C114.3773,-48.617 108.3827,-37.7881 103.2559,-28.5267"/>
<polygon fill="#191970" stroke="#191970" points="106.2432,-26.6965 98.3379,-19.6427 100.119,-30.0867 106.2432,-26.6965"/>
</g>
<!-- Node4 -->
<g id="node5" class="node">
<title>Node4</title>
<polygon fill="#ffffff" stroke="#bfbfbf" points="136,-.5 136,-19.5 174,-19.5 174,-.5 136,-.5"/>
<text text-anchor="middle" x="155" y="-7.5" font-family="Helvetica,sans-Serif" font-size="10.00" fill="#000000">map</text>
</g>
<!-- Node2&#45;&gt;Node4 -->
<g id="edge4" class="edge">
<title>Node2&#45;&gt;Node4</title>
<path fill="none" stroke="#191970" d="M129.3998,-56.2455C133.6227,-48.617 139.6173,-37.7881 144.7441,-28.5267"/>
<polygon fill="#191970" stroke="#191970" points="147.881,-30.0867 149.6621,-19.6427 141.7568,-26.6965 147.881,-30.0867"/>
</g>
</g>
</svg>
