<?xml version="1.0" encoding="UTF-8" standalone="no"?>
<!DOCTYPE svg PUBLIC "-//W3C//DTD SVG 1.1//EN"
 "http://www.w3.org/Graphics/SVG/1.1/DTD/svg11.dtd">
<!-- Generated by graphviz version 2.40.1 (20161225.0304)
 -->
<!-- Title: /home/atmerhannah/argodsm/src/virtual_memory/memfd.cpp Pages: 1 -->
<svg width="923pt" height="151pt"
 viewBox="0.00 0.00 922.50 151.00" xmlns="http://www.w3.org/2000/svg" xmlns:xlink="http://www.w3.org/1999/xlink">
<g id="graph0" class="graph" transform="scale(1 1) rotate(0) translate(4 147)">
<title>/home/atmerhannah/argodsm/src/virtual_memory/memfd.cpp</title>
<polygon fill="#ffffff" stroke="transparent" points="-4,4 -4,-147 918.5,-147 918.5,4 -4,4"/>
<!-- Node0 -->
<g id="node1" class="node">
<title>Node0</title>
<polygon fill="#bfbfbf" stroke="#000000" points="296,-112.5 296,-142.5 469,-142.5 469,-112.5 296,-112.5"/>
<text text-anchor="start" x="304" y="-130.5" font-family="Helvetica,sans-Serif" font-size="10.00" fill="#000000">/home/atmerhannah/argodsm</text>
<text text-anchor="middle" x="382.5" y="-119.5" font-family="Helvetica,sans-Serif" font-size="10.00" fill="#000000">/src/virtual_memory/memfd.cpp</text>
</g>
<!-- Node1 -->
<g id="node2" class="node">
<title>Node1</title>
<polygon fill="#ffffff" stroke="#bfbfbf" points="0,-56.5 0,-75.5 47,-75.5 47,-56.5 0,-56.5"/>
<text text-anchor="middle" x="23.5" y="-63.5" font-family="Helvetica,sans-Serif" font-size="10.00" fill="#000000">cerrno</text>
</g>
<!-- Node0&#45;&gt;Node1 -->
<g id="edge1" class="edge">
<title>Node0&#45;&gt;Node1</title>
<path fill="none" stroke="#191970" d="M295.7391,-117.0993C232.1458,-108.7095 143.6417,-95.4432 57.1748,-75.8926"/>
<polygon fill="#191970" stroke="#191970" points="57.7174,-72.4263 47.1882,-73.6041 56.1538,-79.2494 57.7174,-72.4263"/>
</g>
<!-- Node2 -->
<g id="node3" class="node">
<title>Node2</title>
<polygon fill="#ffffff" stroke="#bfbfbf" points="65,-56.5 65,-75.5 118,-75.5 118,-56.5 65,-56.5"/>
<text text-anchor="middle" x="91.5" y="-63.5" font-family="Helvetica,sans-Serif" font-size="10.00" fill="#000000">cstddef</text>
</g>
<!-- Node0&#45;&gt;Node2 -->
<g id="edge2" class="edge">
<title>Node0&#45;&gt;Node2</title>
<path fill="none" stroke="#191970" d="M300.3485,-112.4586C252.661,-103.3621 191.2675,-91.0311 127.9464,-75.98"/>
<polygon fill="#191970" stroke="#191970" points="128.7213,-72.5667 118.181,-73.6407 127.0905,-79.3741 128.7213,-72.5667"/>
</g>
<!-- Node3 -->
<g id="node4" class="node">
<title>Node3</title>
<polygon fill="#ffffff" stroke="#bfbfbf" points="136,-56.5 136,-75.5 185,-75.5 185,-56.5 136,-56.5"/>
<text text-anchor="middle" x="160.5" y="-63.5" font-family="Helvetica,sans-Serif" font-size="10.00" fill="#000000">cstdlib</text>
</g>
<!-- Node0&#45;&gt;Node3 -->
<g id="edge3" class="edge">
<title>Node0&#45;&gt;Node3</title>
<path fill="none" stroke="#191970" d="M326.4852,-112.4492C291.3306,-102.9356 244.8162,-90.2253 195.0313,-76.1167"/>
<polygon fill="#191970" stroke="#191970" points="195.9427,-72.7372 185.3669,-73.372 194.0302,-79.4709 195.9427,-72.7372"/>
</g>
<!-- Node4 -->
<g id="node5" class="node">
<title>Node4</title>
<polygon fill="#ffffff" stroke="#bfbfbf" points="203.5,-56.5 203.5,-75.5 263.5,-75.5 263.5,-56.5 203.5,-56.5"/>
<text text-anchor="middle" x="233.5" y="-63.5" font-family="Helvetica,sans-Serif" font-size="10.00" fill="#000000">iostream</text>
</g>
<!-- Node0&#45;&gt;Node4 -->
<g id="edge4" class="edge">
<title>Node0&#45;&gt;Node4</title>
<path fill="none" stroke="#191970" d="M346.0505,-112.4554C321.6256,-102.374 289.7419,-89.2139 266.1479,-79.4755"/>
<polygon fill="#191970" stroke="#191970" points="267.1687,-76.1104 256.5897,-75.5303 264.4979,-82.5809 267.1687,-76.1104"/>
</g>
<!-- Node5 -->
<g id="node6" class="node">
<title>Node5</title>
<polygon fill="#ffffff" stroke="#bfbfbf" points="281.5,-56.5 281.5,-75.5 325.5,-75.5 325.5,-56.5 281.5,-56.5"/>
<text text-anchor="middle" x="303.5" y="-63.5" font-family="Helvetica,sans-Serif" font-size="10.00" fill="#000000">string</text>
</g>
<!-- Node0&#45;&gt;Node5 -->
<g id="edge5" class="edge">
<title>Node0&#45;&gt;Node5</title>
<path fill="none" stroke="#191970" d="M362.9719,-112.2977C351.2063,-103.1384 336.2325,-91.4816 324.2535,-82.1562"/>
<polygon fill="#191970" stroke="#191970" points="326.1898,-79.228 316.1489,-75.8469 321.8897,-84.7516 326.1898,-79.228"/>
</g>
<!-- Node6 -->
<g id="node7" class="node">
<title>Node6</title>
<polygon fill="#ffffff" stroke="#bfbfbf" points="344,-56.5 344,-75.5 421,-75.5 421,-56.5 344,-56.5"/>
<text text-anchor="middle" x="382.5" y="-63.5" font-family="Helvetica,sans-Serif" font-size="10.00" fill="#000000">sys/mman.h</text>
</g>
<!-- Node0&#45;&gt;Node6 -->
<g id="edge6" class="edge">
<title>Node0&#45;&gt;Node6</title>
<path fill="none" stroke="#191970" d="M382.5,-112.2977C382.5,-104.3834 382.5,-94.6043 382.5,-86.0759"/>
<polygon fill="#191970" stroke="#191970" points="386.0001,-85.8469 382.5,-75.8469 379.0001,-85.847 386.0001,-85.8469"/>
</g>
<!-- Node7 -->
<g id="node8" class="node">
<title>Node7</title>
<polygon fill="#ffffff" stroke="#bfbfbf" points="439,-56.5 439,-75.5 518,-75.5 518,-56.5 439,-56.5"/>
<text text-anchor="middle" x="478.5" y="-63.5" font-family="Helvetica,sans-Serif" font-size="10.00" fill="#000000">sys/syscall.h</text>
</g>
<!-- Node0&#45;&gt;Node7 -->
<g id="edge7" class="edge">
<title>Node0&#45;&gt;Node7</title>
<path fill="none" stroke="#191970" d="M406.2303,-112.2977C421.0362,-102.8127 440.0228,-90.6495 454.8193,-81.1705"/>
<polygon fill="#191970" stroke="#191970" points="456.8835,-84.0047 463.4159,-75.6633 453.1075,-78.1105 456.8835,-84.0047"/>
</g>
<!-- Node8 -->
<g id="node9" class="node">
<title>Node8</title>
<polygon fill="#ffffff" stroke="#bfbfbf" points="536.5,-56.5 536.5,-75.5 608.5,-75.5 608.5,-56.5 536.5,-56.5"/>
<text text-anchor="middle" x="572.5" y="-63.5" font-family="Helvetica,sans-Serif" font-size="10.00" fill="#000000">sys/types.h</text>
</g>
<!-- Node0&#45;&gt;Node8 -->
<g id="edge8" class="edge">
<title>Node0&#45;&gt;Node8</title>
<path fill="none" stroke="#191970" d="M428.9792,-112.4554C460.9593,-102.104 502.9671,-88.5067 533.2629,-78.7004"/>
<polygon fill="#191970" stroke="#191970" points="534.6206,-81.9398 543.0567,-75.5303 532.4649,-75.28 534.6206,-81.9398"/>
</g>
<!-- Node9 -->
<g id="node10" class="node">
<title>Node9</title>
<polygon fill="#ffffff" stroke="#bfbfbf" points="627,-56.5 627,-75.5 708,-75.5 708,-56.5 627,-56.5"/>
<text text-anchor="middle" x="667.5" y="-63.5" font-family="Helvetica,sans-Serif" font-size="10.00" fill="#000000">system_error</text>
</g>
<!-- Node0&#45;&gt;Node9 -->
<g id="edge9" class="edge">
<title>Node0&#45;&gt;Node9</title>
<path fill="none" stroke="#191970" d="M452.2188,-112.4554C503.0831,-101.4794 570.8587,-86.8542 616.6706,-76.9685"/>
<polygon fill="#191970" stroke="#191970" points="617.6345,-80.3411 626.6712,-74.8104 616.1579,-73.4986 617.6345,-80.3411"/>
</g>
<!-- Node10 -->
<g id="node11" class="node">
<title>Node10</title>
<polygon fill="#ffffff" stroke="#bfbfbf" points="726.5,-56.5 726.5,-75.5 782.5,-75.5 782.5,-56.5 726.5,-56.5"/>
<text text-anchor="middle" x="754.5" y="-63.5" font-family="Helvetica,sans-Serif" font-size="10.00" fill="#000000">unistd.h</text>
</g>
<!-- Node0&#45;&gt;Node10 -->
<g id="edge10" class="edge">
<title>Node0&#45;&gt;Node10</title>
<path fill="none" stroke="#191970" d="M469.0428,-116.8917C534.5155,-108.2415 626.7783,-94.7216 716.2481,-76.0872"/>
<polygon fill="#191970" stroke="#191970" points="717.2332,-79.4566 726.2968,-73.97 715.79,-72.6069 717.2332,-79.4566"/>
</g>
<!-- Node11 -->
<g id="node12" class="node">
<title>Node11</title>
<g id="a_node12"><a xlink:href="virtual__memory_8hpp.html" target="_top" xlink:title="This file provides facilities for handling virtual memory and virtual address space. ">
<polygon fill="#ffffff" stroke="#000000" points="800.5,-56.5 800.5,-75.5 914.5,-75.5 914.5,-56.5 800.5,-56.5"/>
<text text-anchor="middle" x="857.5" y="-63.5" font-family="Helvetica,sans-Serif" font-size="10.00" fill="#000000">virtual_memory.hpp</text>
</a>
</g>
</g>
<!-- Node0&#45;&gt;Node11 -->
<g id="edge11" class="edge">
<title>Node0&#45;&gt;Node11</title>
<path fill="none" stroke="#191970" d="M469.1538,-117.229C549.6524,-107.5405 673.1462,-92.3043 790.0698,-76.1729"/>
<polygon fill="#191970" stroke="#191970" points="790.8497,-79.5984 800.2753,-74.7603 789.8899,-72.6646 790.8497,-79.5984"/>
</g>
<!-- Node12 -->
<g id="node13" class="node">
<title>Node12</title>
<polygon fill="#ffffff" stroke="#bfbfbf" points="835,-.5 835,-19.5 880,-19.5 880,-.5 835,-.5"/>
<text text-anchor="middle" x="857.5" y="-7.5" font-family="Helvetica,sans-Serif" font-size="10.00" fill="#000000">utility</text>
</g>
<!-- Node11&#45;&gt;Node12 -->
<g id="edge12" class="edge">
<title>Node11&#45;&gt;Node12</title>
<path fill="none" stroke="#191970" d="M857.5,-56.2455C857.5,-48.9382 857.5,-38.6944 857.5,-29.7046"/>
<polygon fill="#191970" stroke="#191970" points="861.0001,-29.6426 857.5,-19.6427 854.0001,-29.6427 861.0001,-29.6426"/>
</g>
</g>
</svg>
