<?xml version="1.0" encoding="UTF-8" standalone="no"?>
<!DOCTYPE svg PUBLIC "-//W3C//DTD SVG 1.1//EN"
 "http://www.w3.org/Graphics/SVG/1.1/DTD/svg11.dtd">
<!-- Generated by graphviz version 2.40.1 (20161225.0304)
 -->
<!-- Title: argo::backend::atomic::_fetch_add Pages: 1 -->
<svg width="294pt" height="191pt"
 viewBox="0.00 0.00 294.00 191.00" xmlns="http://www.w3.org/2000/svg" xmlns:xlink="http://www.w3.org/1999/xlink">
<g id="graph0" class="graph" transform="scale(1 1) rotate(0) translate(4 187)">
<title>argo::backend::atomic::_fetch_add</title>
<polygon fill="#ffffff" stroke="transparent" points="-4,4 -4,-187 290,-187 290,4 -4,4"/>
<!-- Node3 -->
<g id="node1" class="node">
<title>Node3</title>
<polygon fill="#bfbfbf" stroke="#000000" points="0,-67.5 0,-97.5 125,-97.5 125,-67.5 0,-67.5"/>
<text text-anchor="start" x="8" y="-85.5" font-family="Helvetica,sans-Serif" font-size="10.00" fill="#000000">argo::backend::atomic</text>
<text text-anchor="middle" x="62.5" y="-74.5" font-family="Helvetica,sans-Serif" font-size="10.00" fill="#000000">::_fetch_add</text>
</g>
<!-- Node3&#45;&gt;Node3 -->
<g id="edge1" class="edge">
<title>Node3&#45;&gt;Node3</title>
<path fill="none" stroke="#191970" d="M34.0699,-107.9579C37.5985,-112.679 47.0752,-116 62.5,-116 87.8125,-116 97.1069,-107.0566 90.3833,-97.659"/>
<polygon fill="#191970" stroke="#191970" points="37.5815,-107.8305 34.6167,-97.659 30.5914,-107.4594 37.5815,-107.8305"/>
</g>
<!-- Node4 -->
<g id="node2" class="node">
<title>Node4</title>
<g id="a_node2"><a xlink:href="backend_8hpp_a42d4f07adf3b439564928f89022b74b5.html#a42d4f07adf3b439564928f89022b74b5" target="_top" xlink:title="Backend internal type erased atomic (post)increment function for signed integers. ...">
<polygon fill="#ffffff" stroke="#000000" points="161,-134.5 161,-164.5 286,-164.5 286,-134.5 161,-134.5"/>
<text text-anchor="start" x="169" y="-152.5" font-family="Helvetica,sans-Serif" font-size="10.00" fill="#000000">argo::backend::atomic</text>
<text text-anchor="middle" x="223.5" y="-141.5" font-family="Helvetica,sans-Serif" font-size="10.00" fill="#000000">::_fetch_add_int</text>
</a>
</g>
</g>
<!-- Node3&#45;&gt;Node4 -->
<g id="edge2" class="edge">
<title>Node3&#45;&gt;Node4</title>
<path fill="none" stroke="#191970" d="M105.3217,-101.6929C122.5489,-109.2834 142.646,-117.9743 161,-125.5 168.2054,-128.4544 175.9202,-131.5063 183.3843,-134.4023"/>
<polygon fill="#191970" stroke="#191970" points="106.6369,-98.4476 96.0757,-97.6036 103.8055,-104.8494 106.6369,-98.4476"/>
</g>
<!-- Node5 -->
<g id="node3" class="node">
<title>Node5</title>
<g id="a_node3"><a xlink:href="backend_8hpp_ab1a86cdd5235a54afdf0ac3d9f9f6f9c.html#ab1a86cdd5235a54afdf0ac3d9f9f6f9c" target="_top" xlink:title="Backend internal type erased atomic (post)increment function for unsigned integers. ">
<polygon fill="#ffffff" stroke="#000000" points="161,-67.5 161,-97.5 286,-97.5 286,-67.5 161,-67.5"/>
<text text-anchor="start" x="169" y="-85.5" font-family="Helvetica,sans-Serif" font-size="10.00" fill="#000000">argo::backend::atomic</text>
<text text-anchor="middle" x="223.5" y="-74.5" font-family="Helvetica,sans-Serif" font-size="10.00" fill="#000000">::_fetch_add_uint</text>
</a>
</g>
</g>
<!-- Node3&#45;&gt;Node5 -->
<g id="edge4" class="edge">
<title>Node3&#45;&gt;Node5</title>
<path fill="none" stroke="#191970" d="M135.2184,-82.5C143.8129,-82.5 152.5268,-82.5 160.9633,-82.5"/>
<polygon fill="#191970" stroke="#191970" points="135.2078,-79.0001 125.2078,-82.5 135.2078,-86.0001 135.2078,-79.0001"/>
</g>
<!-- Node6 -->
<g id="node4" class="node">
<title>Node6</title>
<g id="a_node4"><a xlink:href="backend_8hpp_a62d5f2da9f560d2d8a956be88861af7b.html#a62d5f2da9f560d2d8a956be88861af7b" target="_top" xlink:title="Backend internal type erased atomic (post)increment function for floating point numbers. ">
<polygon fill="#ffffff" stroke="#000000" points="161,-.5 161,-30.5 286,-30.5 286,-.5 161,-.5"/>
<text text-anchor="start" x="169" y="-18.5" font-family="Helvetica,sans-Serif" font-size="10.00" fill="#000000">argo::backend::atomic</text>
<text text-anchor="middle" x="223.5" y="-7.5" font-family="Helvetica,sans-Serif" font-size="10.00" fill="#000000">::_fetch_add_float</text>
</a>
</g>
</g>
<!-- Node3&#45;&gt;Node6 -->
<g id="edge6" class="edge">
<title>Node3&#45;&gt;Node6</title>
<path fill="none" stroke="#191970" d="M107.9413,-63.5897C133.0233,-53.1518 163.7488,-40.3654 187.2109,-30.6017"/>
<polygon fill="#191970" stroke="#191970" points="106.5193,-60.3904 98.6315,-67.4639 109.2088,-66.8531 106.5193,-60.3904"/>
</g>
<!-- Node4&#45;&gt;Node4 -->
<g id="edge3" class="edge">
<title>Node4&#45;&gt;Node4</title>
<path fill="none" stroke="#191970" d="M195.0699,-174.9579C198.5985,-179.679 208.0752,-183 223.5,-183 248.8125,-183 258.1069,-174.0566 251.3833,-164.659"/>
<polygon fill="#191970" stroke="#191970" points="198.5815,-174.8305 195.6167,-164.659 191.5914,-174.4594 198.5815,-174.8305"/>
</g>
<!-- Node5&#45;&gt;Node5 -->
<g id="edge5" class="edge">
<title>Node5&#45;&gt;Node5</title>
<path fill="none" stroke="#191970" d="M195.0699,-107.9579C198.5985,-112.679 208.0752,-116 223.5,-116 248.8125,-116 258.1069,-107.0566 251.3833,-97.659"/>
<polygon fill="#191970" stroke="#191970" points="198.5815,-107.8305 195.6167,-97.659 191.5914,-107.4594 198.5815,-107.8305"/>
</g>
<!-- Node6&#45;&gt;Node6 -->
<g id="edge7" class="edge">
<title>Node6&#45;&gt;Node6</title>
<path fill="none" stroke="#191970" d="M195.0699,-40.9579C198.5985,-45.679 208.0752,-49 223.5,-49 248.8125,-49 258.1069,-40.0566 251.3833,-30.659"/>
<polygon fill="#191970" stroke="#191970" points="198.5815,-40.8305 195.6167,-30.659 191.5914,-40.4594 198.5815,-40.8305"/>
</g>
</g>
</svg>
