<?xml version="1.0" encoding="UTF-8" standalone="no"?>
<!DOCTYPE svg PUBLIC "-//W3C//DTD SVG 1.1//EN"
 "http://www.w3.org/Graphics/SVG/1.1/DTD/svg11.dtd">
<!-- Generated by graphviz version 2.40.1 (20161225.0304)
 -->
<!-- Title: /home/atmerhannah/argodsm/src/backend/mpi/mpi.cpp Pages: 1 -->
<svg width="2071pt" height="386pt"
 viewBox="0.00 0.00 2070.50 386.00" xmlns="http://www.w3.org/2000/svg" xmlns:xlink="http://www.w3.org/1999/xlink">
<g id="graph0" class="graph" transform="scale(1 1) rotate(0) translate(4 382)">
<title>/home/atmerhannah/argodsm/src/backend/mpi/mpi.cpp</title>
<polygon fill="#ffffff" stroke="transparent" points="-4,4 -4,-382 2066.5,-382 2066.5,4 -4,4"/>
<!-- Node0 -->
<g id="node1" class="node">
<title>Node0</title>
<polygon fill="#bfbfbf" stroke="#000000" points="1180,-347.5 1180,-377.5 1341,-377.5 1341,-347.5 1180,-347.5"/>
<text text-anchor="start" x="1188" y="-365.5" font-family="Helvetica,sans-Serif" font-size="10.00" fill="#000000">/home/atmerhannah/argodsm</text>
<text text-anchor="middle" x="1260.5" y="-354.5" font-family="Helvetica,sans-Serif" font-size="10.00" fill="#000000">/src/backend/mpi/mpi.cpp</text>
</g>
<!-- Node1 -->
<g id="node2" class="node">
<title>Node1</title>
<g id="a_node2"><a xlink:href="backend_8hpp.html" target="_top" xlink:title="This file provides the backend interface. ">
<polygon fill="#ffffff" stroke="#000000" points="1625.5,-291.5 1625.5,-310.5 1713.5,-310.5 1713.5,-291.5 1625.5,-291.5"/>
<text text-anchor="middle" x="1669.5" y="-298.5" font-family="Helvetica,sans-Serif" font-size="10.00" fill="#000000">../backend.hpp</text>
</a>
</g>
</g>
<!-- Node0&#45;&gt;Node1 -->
<g id="edge1" class="edge">
<title>Node0&#45;&gt;Node1</title>
<path fill="none" stroke="#191970" d="M1341.3052,-350.3496C1422.5171,-338.138 1545.4178,-319.6578 1615.4992,-309.1199"/>
<polygon fill="#191970" stroke="#191970" points="1616.0762,-312.5726 1625.4446,-307.6245 1615.0353,-305.6504 1616.0762,-312.5726"/>
</g>
<!-- Node21 -->
<g id="node22" class="node">
<title>Node21</title>
<polygon fill="#ffffff" stroke="#bfbfbf" points="1930.5,-291.5 1930.5,-310.5 1980.5,-310.5 1980.5,-291.5 1930.5,-291.5"/>
<text text-anchor="middle" x="1955.5" y="-298.5" font-family="Helvetica,sans-Serif" font-size="10.00" fill="#000000">atomic</text>
</g>
<!-- Node0&#45;&gt;Node21 -->
<g id="edge27" class="edge">
<title>Node0&#45;&gt;Node21</title>
<path fill="none" stroke="#191970" d="M1341.0698,-360.646C1465.3515,-356.7823 1710.9746,-345.154 1916.5,-311 1917.7799,-310.7873 1919.0793,-310.5529 1920.3886,-310.301"/>
<polygon fill="#191970" stroke="#191970" points="1921.4389,-313.6541 1930.4605,-308.099 1919.9437,-306.8156 1921.4389,-313.6541"/>
</g>
<!-- Node22 -->
<g id="node23" class="node">
<title>Node22</title>
<polygon fill="#ffffff" stroke="#bfbfbf" points="1998.5,-291.5 1998.5,-310.5 2062.5,-310.5 2062.5,-291.5 1998.5,-291.5"/>
<text text-anchor="middle" x="2030.5" y="-298.5" font-family="Helvetica,sans-Serif" font-size="10.00" fill="#000000">algorithm</text>
</g>
<!-- Node0&#45;&gt;Node22 -->
<g id="edge28" class="edge">
<title>Node0&#45;&gt;Node22</title>
<path fill="none" stroke="#191970" d="M1341.093,-361.2386C1474.1814,-358.1806 1748.2371,-347.768 1988.4071,-310.9257"/>
<polygon fill="#191970" stroke="#191970" points="1989.0297,-314.371 1998.3744,-309.3783 1987.9558,-307.4539 1989.0297,-314.371"/>
</g>
<!-- Node23 -->
<g id="node24" class="node">
<title>Node23</title>
<polygon fill="#ffffff" stroke="#bfbfbf" points="0,-230 0,-249 69,-249 69,-230 0,-230"/>
<text text-anchor="middle" x="34.5" y="-237" font-family="Helvetica,sans-Serif" font-size="10.00" fill="#000000">type_traits</text>
</g>
<!-- Node0&#45;&gt;Node23 -->
<g id="edge29" class="edge">
<title>Node0&#45;&gt;Node23</title>
<path fill="none" stroke="#191970" d="M1179.945,-360.3522C979.2868,-354.6597 461.0581,-337.7634 290.5,-311 210.3193,-298.4183 119.4748,-269.375 70.4668,-252.4286"/>
<polygon fill="#191970" stroke="#191970" points="71.5455,-249.0981 60.9507,-249.1077 69.2391,-255.7072 71.5455,-249.0981"/>
</g>
<!-- Node24 -->
<g id="node25" class="node">
<title>Node24</title>
<polygon fill="#ffffff" stroke="#bfbfbf" points="87.5,-230 87.5,-249 131.5,-249 131.5,-230 87.5,-230"/>
<text text-anchor="middle" x="109.5" y="-237" font-family="Helvetica,sans-Serif" font-size="10.00" fill="#000000">mpi.h</text>
</g>
<!-- Node0&#45;&gt;Node24 -->
<g id="edge30" class="edge">
<title>Node0&#45;&gt;Node24</title>
<path fill="none" stroke="#191970" d="M1179.9677,-358.7025C1045.4117,-351.9339 766.474,-336.0939 531.5,-311 356.9415,-292.3581 308.0565,-307.3736 140.5,-255 138.8417,-254.4816 137.163,-253.883 135.4898,-253.2289"/>
<polygon fill="#191970" stroke="#191970" points="136.7015,-249.9367 126.1441,-249.0466 133.8422,-256.3261 136.7015,-249.9367"/>
</g>
<!-- Node25 -->
<g id="node26" class="node">
<title>Node25</title>
<g id="a_node26"><a xlink:href="swdsm_8h.html" target="_top" xlink:title="this is a legacy file from the ArgoDSM prototype ">
<polygon fill="#ffffff" stroke="#000000" points="826.5,-291.5 826.5,-310.5 886.5,-310.5 886.5,-291.5 826.5,-291.5"/>
<text text-anchor="middle" x="856.5" y="-298.5" font-family="Helvetica,sans-Serif" font-size="10.00" fill="#000000">swdsm.h</text>
</a>
</g>
</g>
<!-- Node0&#45;&gt;Node25 -->
<g id="edge31" class="edge">
<title>Node0&#45;&gt;Node25</title>
<path fill="none" stroke="#191970" d="M1179.7156,-350.2024C1094.0341,-337.1593 962.1806,-317.0875 896.5192,-307.092"/>
<polygon fill="#191970" stroke="#191970" points="896.9794,-303.6218 886.5665,-305.577 895.9258,-310.5421 896.9794,-303.6218"/>
</g>
<!-- Node33 -->
<g id="node34" class="node">
<title>Node33</title>
<polygon fill="#ffffff" stroke="#bfbfbf" points="149.5,-230 149.5,-249 229.5,-249 229.5,-230 149.5,-230"/>
<text text-anchor="middle" x="189.5" y="-237" font-family="Helvetica,sans-Serif" font-size="10.00" fill="#000000">semaphore.h</text>
</g>
<!-- Node0&#45;&gt;Node33 -->
<g id="edge59" class="edge">
<title>Node0&#45;&gt;Node33</title>
<path fill="none" stroke="#191970" d="M1179.8408,-354.9604C954.6828,-333.7809 329.8651,-274.0524 238.5,-255 234.3729,-254.1394 230.1001,-253.0684 225.8759,-251.8941"/>
<polygon fill="#191970" stroke="#191970" points="226.7819,-248.5121 216.1991,-249.0167 224.7868,-255.2218 226.7819,-248.5121"/>
</g>
<!-- Node49 -->
<g id="node50" class="node">
<title>Node49</title>
<g id="a_node50"><a xlink:href="explicit__instantiations_8inc_8cpp.html" target="_top" xlink:title="file listing all template instances in the backend ">
<polygon fill="#ffffff" stroke="#000000" points="1814,-56.5 1814,-75.5 1985,-75.5 1985,-56.5 1814,-56.5"/>
<text text-anchor="middle" x="1899.5" y="-63.5" font-family="Helvetica,sans-Serif" font-size="10.00" fill="#000000">../explicit_instantiations.inc.cpp</text>
</a>
</g>
</g>
<!-- Node0&#45;&gt;Node49 -->
<g id="edge60" class="edge">
<title>Node0&#45;&gt;Node49</title>
<path fill="none" stroke="#191970" d="M1341.1148,-358.9801C1434.0314,-353.6681 1590.8593,-340.8351 1722.5,-311 1806.4512,-291.9733 1902.5,-325.5804 1902.5,-239.5 1902.5,-239.5 1902.5,-239.5 1902.5,-178 1902.5,-145.7 1901.2378,-108.1791 1900.3508,-85.8005"/>
<polygon fill="#191970" stroke="#191970" points="1903.8387,-85.4334 1899.9298,-75.5861 1896.8447,-85.7217 1903.8387,-85.4334"/>
</g>
<!-- Node2 -->
<g id="node3" class="node">
<title>Node2</title>
<polygon fill="#ffffff" stroke="#bfbfbf" points="1738.5,-230 1738.5,-249 1790.5,-249 1790.5,-230 1738.5,-230"/>
<text text-anchor="middle" x="1764.5" y="-237" font-family="Helvetica,sans-Serif" font-size="10.00" fill="#000000">cassert</text>
</g>
<!-- Node1&#45;&gt;Node2 -->
<g id="edge2" class="edge">
<title>Node1&#45;&gt;Node2</title>
<path fill="none" stroke="#191970" d="M1684.3438,-291.3906C1699.5418,-281.5519 1723.3848,-266.1167 1741.1206,-254.6351"/>
<polygon fill="#191970" stroke="#191970" points="1743.268,-257.4144 1749.7605,-249.0419 1739.4639,-251.5382 1743.268,-257.4144"/>
</g>
<!-- Node3 -->
<g id="node4" class="node">
<title>Node3</title>
<polygon fill="#ffffff" stroke="#bfbfbf" points="1506.5,-230 1506.5,-249 1556.5,-249 1556.5,-230 1506.5,-230"/>
<text text-anchor="middle" x="1531.5" y="-237" font-family="Helvetica,sans-Serif" font-size="10.00" fill="#000000">cstdint</text>
</g>
<!-- Node1&#45;&gt;Node3 -->
<g id="edge3" class="edge">
<title>Node1&#45;&gt;Node3</title>
<path fill="none" stroke="#191970" d="M1647.5556,-291.3797C1626.4855,-282.1224 1593.776,-267.6981 1565.5,-255 1564.3016,-254.4618 1563.0801,-253.9118 1561.8466,-253.3552"/>
<polygon fill="#191970" stroke="#191970" points="1562.8939,-249.9872 1552.3409,-249.0459 1560.0036,-256.3626 1562.8939,-249.9872"/>
</g>
<!-- Node4 -->
<g id="node5" class="node">
<title>Node4</title>
<polygon fill="#ffffff" stroke="#bfbfbf" points="1809,-230 1809,-249 1874,-249 1874,-230 1809,-230"/>
<text text-anchor="middle" x="1841.5" y="-237" font-family="Helvetica,sans-Serif" font-size="10.00" fill="#000000">stdexcept</text>
</g>
<!-- Node1&#45;&gt;Node4 -->
<g id="edge4" class="edge">
<title>Node1&#45;&gt;Node4</title>
<path fill="none" stroke="#191970" d="M1696.9287,-291.4147C1723.265,-282.1828 1764.1511,-267.7761 1799.5,-255 1801.7203,-254.1975 1804.005,-253.3673 1806.3075,-252.5271"/>
<polygon fill="#191970" stroke="#191970" points="1807.5705,-255.792 1815.7545,-249.0635 1805.1608,-249.2198 1807.5705,-255.792"/>
</g>
<!-- Node5 -->
<g id="node6" class="node">
<title>Node5</title>
<g id="a_node6"><a xlink:href="global__ptr_8hpp.html" target="_top" xlink:title="This file provides the global pointer for ArgoDSM. ">
<polygon fill="#ffffff" stroke="#000000" points="1574.5,-224.5 1574.5,-254.5 1682.5,-254.5 1682.5,-224.5 1574.5,-224.5"/>
<text text-anchor="start" x="1582.5" y="-242.5" font-family="Helvetica,sans-Serif" font-size="10.00" fill="#000000">../data_distribution</text>
<text text-anchor="middle" x="1628.5" y="-231.5" font-family="Helvetica,sans-Serif" font-size="10.00" fill="#000000">/global_ptr.hpp</text>
</a>
</g>
</g>
<!-- Node1&#45;&gt;Node5 -->
<g id="edge5" class="edge">
<title>Node1&#45;&gt;Node5</title>
<path fill="none" stroke="#191970" d="M1663.0938,-291.3906C1658.0587,-283.838 1650.8251,-272.9876 1644.2729,-263.1593"/>
<polygon fill="#191970" stroke="#191970" points="1646.989,-260.9236 1638.5297,-254.5446 1641.1646,-264.8066 1646.989,-260.9236"/>
</g>
<!-- Node14 -->
<g id="node15" class="node">
<title>Node14</title>
<g id="a_node15"><a xlink:href="types_8hpp.html" target="_top" xlink:title="This file defines common types used in ArgoDSM. ">
<polygon fill="#ffffff" stroke="#000000" points="1709.5,-.5 1709.5,-19.5 1813.5,-19.5 1813.5,-.5 1709.5,-.5"/>
<text text-anchor="middle" x="1761.5" y="-7.5" font-family="Helvetica,sans-Serif" font-size="10.00" fill="#000000">../types/types.hpp</text>
</a>
</g>
</g>
<!-- Node1&#45;&gt;Node14 -->
<g id="edge26" class="edge">
<title>Node1&#45;&gt;Node14</title>
<path fill="none" stroke="#191970" d="M1674.7082,-291.338C1679.5077,-282.1705 1686.6067,-267.9138 1691.5,-255 1722.5137,-173.1522 1747.4021,-71.4706 1757.1073,-29.506"/>
<polygon fill="#191970" stroke="#191970" points="1760.571,-30.0593 1759.3869,-19.5308 1753.747,-28.4997 1760.571,-30.0593"/>
</g>
<!-- Node6 -->
<g id="node7" class="node">
<title>Node6</title>
<polygon fill="#ffffff" stroke="#bfbfbf" points="1300.5,-168.5 1300.5,-187.5 1344.5,-187.5 1344.5,-168.5 1300.5,-168.5"/>
<text text-anchor="middle" x="1322.5" y="-175.5" font-family="Helvetica,sans-Serif" font-size="10.00" fill="#000000">string</text>
</g>
<!-- Node5&#45;&gt;Node6 -->
<g id="edge6" class="edge">
<title>Node5&#45;&gt;Node6</title>
<path fill="none" stroke="#191970" d="M1574.2606,-225.8916C1571.3018,-225.2317 1568.3672,-224.5965 1565.5,-224 1472.3613,-204.6234 1446.9973,-210.2377 1354.5,-188 1354.401,-187.9762 1354.3018,-187.9522 1354.2025,-187.9281"/>
<polygon fill="#191970" stroke="#191970" points="1355.3401,-184.6101 1344.7732,-185.3787 1353.5131,-191.3675 1355.3401,-184.6101"/>
</g>
<!-- Node7 -->
<g id="node8" class="node">
<title>Node7</title>
<g id="a_node8"><a xlink:href="env_8hpp.html" target="_top" xlink:title="This file provides facilities for handling environment variables. ">
<polygon fill="#ffffff" stroke="#000000" points="1363,-168.5 1363,-187.5 1448,-187.5 1448,-168.5 1363,-168.5"/>
<text text-anchor="middle" x="1405.5" y="-175.5" font-family="Helvetica,sans-Serif" font-size="10.00" fill="#000000">../env/env.hpp</text>
</a>
</g>
</g>
<!-- Node5&#45;&gt;Node7 -->
<g id="edge7" class="edge">
<title>Node5&#45;&gt;Node7</title>
<path fill="none" stroke="#191970" d="M1574.2332,-224.534C1536.0519,-214.0042 1485.586,-200.0865 1449.8219,-190.2233"/>
<polygon fill="#191970" stroke="#191970" points="1450.7175,-186.8397 1440.1468,-187.5551 1448.8564,-193.5878 1450.7175,-186.8397"/>
</g>
<!-- Node9 -->
<g id="node10" class="node">
<title>Node9</title>
<g id="a_node10"><a xlink:href="data__distribution_8hpp.html" target="_top" xlink:title="This file provides an abstraction layer for distributing the shared memory space. ...">
<polygon fill="#ffffff" stroke="#000000" points="1466.5,-168.5 1466.5,-187.5 1586.5,-187.5 1586.5,-168.5 1466.5,-168.5"/>
<text text-anchor="middle" x="1526.5" y="-175.5" font-family="Helvetica,sans-Serif" font-size="10.00" fill="#000000">data_distribution.hpp</text>
</a>
</g>
</g>
<!-- Node5&#45;&gt;Node9 -->
<g id="edge9" class="edge">
<title>Node5&#45;&gt;Node9</title>
<path fill="none" stroke="#191970" d="M1603.548,-224.4554C1587.5741,-214.8241 1566.9398,-202.3828 1551.0457,-192.7996"/>
<polygon fill="#191970" stroke="#191970" points="1552.6774,-189.6965 1542.3064,-187.5303 1549.063,-195.6912 1552.6774,-189.6965"/>
</g>
<!-- Node8 -->
<g id="node9" class="node">
<title>Node8</title>
<polygon fill="#ffffff" stroke="#bfbfbf" points="834,-112.5 834,-131.5 887,-131.5 887,-112.5 834,-112.5"/>
<text text-anchor="middle" x="860.5" y="-119.5" font-family="Helvetica,sans-Serif" font-size="10.00" fill="#000000">cstddef</text>
</g>
<!-- Node7&#45;&gt;Node8 -->
<g id="edge8" class="edge">
<title>Node7&#45;&gt;Node8</title>
<path fill="none" stroke="#191970" d="M1362.9963,-169.4259C1359.7896,-168.9018 1356.5976,-168.4183 1353.5,-168 1154.4133,-141.118 1098.2453,-167.3539 897.123,-131.988"/>
<polygon fill="#191970" stroke="#191970" points="897.5836,-128.5149 887.1236,-130.2003 896.3516,-135.4056 897.5836,-128.5149"/>
</g>
<!-- Node10 -->
<g id="node11" class="node">
<title>Node10</title>
<g id="a_node11"><a xlink:href="base__distribution_8hpp.html" target="_top" xlink:title="This file implements the base distribution class for all the policies to derive from. ">
<polygon fill="#ffffff" stroke="#000000" points="1377.5,-56.5 1377.5,-75.5 1499.5,-75.5 1499.5,-56.5 1377.5,-56.5"/>
<text text-anchor="middle" x="1438.5" y="-63.5" font-family="Helvetica,sans-Serif" font-size="10.00" fill="#000000">base_distribution.hpp</text>
</a>
</g>
</g>
<!-- Node9&#45;&gt;Node10 -->
<g id="edge10" class="edge">
<title>Node9&#45;&gt;Node10</title>
<path fill="none" stroke="#191970" d="M1586.6303,-175.0767C1651.3093,-169.7246 1740.3736,-154.6098 1704.5,-112 1680.0463,-82.9545 1579.9865,-72.2489 1509.8244,-68.3031"/>
<polygon fill="#191970" stroke="#191970" points="1509.8728,-64.8009 1499.7021,-67.7686 1509.5036,-71.7911 1509.8728,-64.8009"/>
</g>
<!-- Node15 -->
<g id="node16" class="node">
<title>Node15</title>
<g id="a_node16"><a xlink:href="naive__distribution_8hpp.html" target="_top" xlink:title="This file implements the naive data distribution. ">
<polygon fill="#ffffff" stroke="#000000" points="1072,-112.5 1072,-131.5 1197,-131.5 1197,-112.5 1072,-112.5"/>
<text text-anchor="middle" x="1134.5" y="-119.5" font-family="Helvetica,sans-Serif" font-size="10.00" fill="#000000">naive_distribution.hpp</text>
</a>
</g>
</g>
<!-- Node9&#45;&gt;Node15 -->
<g id="edge15" class="edge">
<title>Node9&#45;&gt;Node15</title>
<path fill="none" stroke="#191970" d="M1466.2905,-169.2651C1463.3183,-168.8367 1460.3755,-168.4131 1457.5,-168 1371.5507,-155.6516 1272.7139,-141.5971 1207.2448,-132.3078"/>
<polygon fill="#191970" stroke="#191970" points="1207.4234,-128.7982 1197.0309,-130.8588 1206.4402,-135.7288 1207.4234,-128.7982"/>
</g>
<!-- Node16 -->
<g id="node17" class="node">
<title>Node16</title>
<g id="a_node17"><a xlink:href="cyclic__distribution_8hpp.html" target="_top" xlink:title="This file implements the cyclic data distribution. ">
<polygon fill="#ffffff" stroke="#000000" points="1215.5,-112.5 1215.5,-131.5 1341.5,-131.5 1341.5,-112.5 1215.5,-112.5"/>
<text text-anchor="middle" x="1278.5" y="-119.5" font-family="Helvetica,sans-Serif" font-size="10.00" fill="#000000">cyclic_distribution.hpp</text>
</a>
</g>
</g>
<!-- Node9&#45;&gt;Node16 -->
<g id="edge17" class="edge">
<title>Node9&#45;&gt;Node16</title>
<path fill="none" stroke="#191970" d="M1484.1491,-168.4369C1441.7058,-158.8529 1376.2881,-144.0812 1330.6687,-133.78"/>
<polygon fill="#191970" stroke="#191970" points="1331.2016,-130.3123 1320.6763,-131.5237 1329.6597,-137.1404 1331.2016,-130.3123"/>
</g>
<!-- Node17 -->
<g id="node18" class="node">
<title>Node17</title>
<g id="a_node18"><a xlink:href="skew__mapp__distribution_8hpp.html" target="_top" xlink:title="This file implements the skew&#45;mapp data distribution. ">
<polygon fill="#ffffff" stroke="#000000" points="1360,-112.5 1360,-131.5 1517,-131.5 1517,-112.5 1360,-112.5"/>
<text text-anchor="middle" x="1438.5" y="-119.5" font-family="Helvetica,sans-Serif" font-size="10.00" fill="#000000">skew_mapp_distribution.hpp</text>
</a>
</g>
</g>
<!-- Node9&#45;&gt;Node17 -->
<g id="edge19" class="edge">
<title>Node9&#45;&gt;Node17</title>
<path fill="none" stroke="#191970" d="M1511.1716,-168.2455C1497.6697,-159.6534 1477.7878,-147.0014 1462.2314,-137.1018"/>
<polygon fill="#191970" stroke="#191970" points="1463.9685,-134.0587 1453.6528,-131.6427 1460.2103,-139.9643 1463.9685,-134.0587"/>
</g>
<!-- Node18 -->
<g id="node19" class="node">
<title>Node18</title>
<g id="a_node19"><a xlink:href="prime__mapp__distribution_8hpp.html" target="_top" xlink:title="This file implements the prime&#45;mapp data distribution. ">
<polygon fill="#ffffff" stroke="#000000" points="1535.5,-112.5 1535.5,-131.5 1695.5,-131.5 1695.5,-112.5 1535.5,-112.5"/>
<text text-anchor="middle" x="1615.5" y="-119.5" font-family="Helvetica,sans-Serif" font-size="10.00" fill="#000000">prime_mapp_distribution.hpp</text>
</a>
</g>
</g>
<!-- Node9&#45;&gt;Node18 -->
<g id="edge21" class="edge">
<title>Node9&#45;&gt;Node18</title>
<path fill="none" stroke="#191970" d="M1542.0026,-168.2455C1555.658,-159.6534 1575.7657,-147.0014 1591.4989,-137.1018"/>
<polygon fill="#191970" stroke="#191970" points="1593.5751,-139.9307 1600.175,-131.6427 1589.8471,-134.006 1593.5751,-139.9307"/>
</g>
<!-- Node19 -->
<g id="node20" class="node">
<title>Node19</title>
<g id="a_node20"><a xlink:href="first__touch__distribution_8hpp.html" target="_top" xlink:title="This file implements the first&#45;touch data distribution. ">
<polygon fill="#ffffff" stroke="#000000" points="905,-112.5 905,-131.5 1054,-131.5 1054,-112.5 905,-112.5"/>
<text text-anchor="middle" x="979.5" y="-119.5" font-family="Helvetica,sans-Serif" font-size="10.00" fill="#000000">first_touch_distribution.hpp</text>
</a>
</g>
</g>
<!-- Node9&#45;&gt;Node19 -->
<g id="edge23" class="edge">
<title>Node9&#45;&gt;Node19</title>
<path fill="none" stroke="#191970" d="M1466.3139,-169.0864C1463.3355,-168.7053 1460.385,-168.3406 1457.5,-168 1286.1125,-147.765 1240.0718,-150.2914 1064.2556,-132.0507"/>
<polygon fill="#191970" stroke="#191970" points="1064.4528,-128.5523 1054.1431,-130.9935 1063.725,-135.5143 1064.4528,-128.5523"/>
</g>
<!-- Node11 -->
<g id="node12" class="node">
<title>Node11</title>
<polygon fill="#ffffff" stroke="#bfbfbf" points="1341,-.5 1341,-19.5 1390,-19.5 1390,-.5 1341,-.5"/>
<text text-anchor="middle" x="1365.5" y="-7.5" font-family="Helvetica,sans-Serif" font-size="10.00" fill="#000000">cstdlib</text>
</g>
<!-- Node10&#45;&gt;Node11 -->
<g id="edge11" class="edge">
<title>Node10&#45;&gt;Node11</title>
<path fill="none" stroke="#191970" d="M1425.7844,-56.2455C1414.898,-47.8943 1399.0117,-35.7076 1386.28,-25.9408"/>
<polygon fill="#191970" stroke="#191970" points="1388.1346,-22.9523 1378.0699,-19.6427 1383.8739,-28.5063 1388.1346,-22.9523"/>
</g>
<!-- Node12 -->
<g id="node13" class="node">
<title>Node12</title>
<polygon fill="#ffffff" stroke="#bfbfbf" points="1408.5,-.5 1408.5,-19.5 1468.5,-19.5 1468.5,-.5 1408.5,-.5"/>
<text text-anchor="middle" x="1438.5" y="-7.5" font-family="Helvetica,sans-Serif" font-size="10.00" fill="#000000">iostream</text>
</g>
<!-- Node10&#45;&gt;Node12 -->
<g id="edge12" class="edge">
<title>Node10&#45;&gt;Node12</title>
<path fill="none" stroke="#191970" d="M1438.5,-56.2455C1438.5,-48.9382 1438.5,-38.6944 1438.5,-29.7046"/>
<polygon fill="#191970" stroke="#191970" points="1442.0001,-29.6426 1438.5,-19.6427 1435.0001,-29.6427 1442.0001,-29.6426"/>
</g>
<!-- Node13 -->
<g id="node14" class="node">
<title>Node13</title>
<polygon fill="#ffffff" stroke="#bfbfbf" points="1487,-.5 1487,-19.5 1568,-19.5 1568,-.5 1487,-.5"/>
<text text-anchor="middle" x="1527.5" y="-7.5" font-family="Helvetica,sans-Serif" font-size="10.00" fill="#000000">system_error</text>
</g>
<!-- Node10&#45;&gt;Node13 -->
<g id="edge13" class="edge">
<title>Node10&#45;&gt;Node13</title>
<path fill="none" stroke="#191970" d="M1454.0026,-56.2455C1467.658,-47.6534 1487.7657,-35.0014 1503.4989,-25.1018"/>
<polygon fill="#191970" stroke="#191970" points="1505.5751,-27.9307 1512.175,-19.6427 1501.8471,-22.006 1505.5751,-27.9307"/>
</g>
<!-- Node10&#45;&gt;Node14 -->
<g id="edge14" class="edge">
<title>Node10&#45;&gt;Node14</title>
<path fill="none" stroke="#191970" d="M1493.6587,-56.4369C1550.7183,-46.5442 1639.6591,-31.1241 1699.2143,-20.7988"/>
<polygon fill="#191970" stroke="#191970" points="1699.9883,-24.2169 1709.2434,-19.06 1698.7924,-17.3198 1699.9883,-24.2169"/>
</g>
<!-- Node15&#45;&gt;Node10 -->
<g id="edge16" class="edge">
<title>Node15&#45;&gt;Node10</title>
<path fill="none" stroke="#191970" d="M1186.414,-112.4369C1239.0971,-102.7321 1320.6568,-87.708 1376.6543,-77.3926"/>
<polygon fill="#191970" stroke="#191970" points="1377.5996,-80.7775 1386.8001,-75.5237 1376.3314,-73.8933 1377.5996,-80.7775"/>
</g>
<!-- Node16&#45;&gt;Node10 -->
<g id="edge18" class="edge">
<title>Node16&#45;&gt;Node10</title>
<path fill="none" stroke="#191970" d="M1306.005,-112.3733C1332.3802,-103.1419 1372.3851,-89.1402 1401.5358,-78.9375"/>
<polygon fill="#191970" stroke="#191970" points="1403.0716,-82.1082 1411.3539,-75.5011 1400.7591,-75.5012 1403.0716,-82.1082"/>
</g>
<!-- Node17&#45;&gt;Node10 -->
<g id="edge20" class="edge">
<title>Node17&#45;&gt;Node10</title>
<path fill="none" stroke="#191970" d="M1438.5,-112.2455C1438.5,-104.9382 1438.5,-94.6944 1438.5,-85.7046"/>
<polygon fill="#191970" stroke="#191970" points="1442.0001,-85.6426 1438.5,-75.6427 1435.0001,-85.6427 1442.0001,-85.6426"/>
</g>
<!-- Node18&#45;&gt;Node10 -->
<g id="edge22" class="edge">
<title>Node18&#45;&gt;Node10</title>
<path fill="none" stroke="#191970" d="M1585.0726,-112.3733C1555.5128,-103.021 1510.4774,-88.7725 1478.1305,-78.5385"/>
<polygon fill="#191970" stroke="#191970" points="1479.1203,-75.1807 1468.5303,-75.5011 1477.0087,-81.8546 1479.1203,-75.1807"/>
</g>
<!-- Node19&#45;&gt;Node10 -->
<g id="edge25" class="edge">
<title>Node19&#45;&gt;Node10</title>
<path fill="none" stroke="#191970" d="M1054.012,-112.9092C1140.4959,-102.3578 1282.1004,-85.0814 1367.1939,-74.6997"/>
<polygon fill="#191970" stroke="#191970" points="1367.781,-78.1541 1377.2835,-73.4687 1366.9332,-71.2056 1367.781,-78.1541"/>
</g>
<!-- Node20 -->
<g id="node21" class="node">
<title>Node20</title>
<polygon fill="#ffffff" stroke="#bfbfbf" points="955.5,-56.5 955.5,-75.5 1003.5,-75.5 1003.5,-56.5 955.5,-56.5"/>
<text text-anchor="middle" x="979.5" y="-63.5" font-family="Helvetica,sans-Serif" font-size="10.00" fill="#000000">mutex</text>
</g>
<!-- Node19&#45;&gt;Node20 -->
<g id="edge24" class="edge">
<title>Node19&#45;&gt;Node20</title>
<path fill="none" stroke="#191970" d="M979.5,-112.2455C979.5,-104.9382 979.5,-94.6944 979.5,-85.7046"/>
<polygon fill="#191970" stroke="#191970" points="983.0001,-85.6426 979.5,-75.6427 976.0001,-85.6427 983.0001,-85.6426"/>
</g>
<!-- Node25&#45;&gt;Node3 -->
<g id="edge32" class="edge">
<title>Node25&#45;&gt;Node3</title>
<path fill="none" stroke="#191970" d="M886.5083,-300.2568C996.8128,-297.3066 1379.5238,-285.085 1497.5,-255 1499.6962,-254.44 1501.9262,-253.7441 1504.1399,-252.9599"/>
<polygon fill="#191970" stroke="#191970" points="1505.6497,-256.124 1513.5849,-249.1038 1503.0038,-249.6433 1505.6497,-256.124"/>
</g>
<!-- Node25&#45;&gt;Node23 -->
<g id="edge33" class="edge">
<title>Node25&#45;&gt;Node23</title>
<path fill="none" stroke="#191970" d="M826.3458,-300.3418C701.6008,-297.4456 225.5627,-284.6393 78.5,-255 74.8727,-254.2689 71.1387,-253.3052 67.4516,-252.215"/>
<polygon fill="#191970" stroke="#191970" points="68.499,-248.8752 57.9067,-249.1071 66.3317,-255.5313 68.499,-248.8752"/>
</g>
<!-- Node25&#45;&gt;Node24 -->
<g id="edge39" class="edge">
<title>Node25&#45;&gt;Node24</title>
<path fill="none" stroke="#191970" d="M826.3624,-299.7715C698.8763,-294.4789 207.3887,-273.0737 140.5,-255 138.7828,-254.536 137.0487,-253.9725 135.3247,-253.3386"/>
<polygon fill="#191970" stroke="#191970" points="136.3102,-249.9492 125.7462,-249.1418 133.501,-256.3608 136.3102,-249.9492"/>
</g>
<!-- Node26 -->
<g id="node27" class="node">
<title>Node26</title>
<polygon fill="#ffffff" stroke="#bfbfbf" points="792.5,-230 792.5,-249 848.5,-249 848.5,-230 792.5,-230"/>
<text text-anchor="middle" x="820.5" y="-237" font-family="Helvetica,sans-Serif" font-size="10.00" fill="#000000">assert.h</text>
</g>
<!-- Node25&#45;&gt;Node26 -->
<g id="edge34" class="edge">
<title>Node25&#45;&gt;Node26</title>
<path fill="none" stroke="#191970" d="M850.875,-291.3906C845.6747,-282.5068 837.8034,-269.0601 831.3767,-258.0811"/>
<polygon fill="#191970" stroke="#191970" points="834.2767,-256.1069 826.2043,-249.2449 828.2356,-259.6432 834.2767,-256.1069"/>
</g>
<!-- Node27 -->
<g id="node28" class="node">
<title>Node27</title>
<polygon fill="#ffffff" stroke="#bfbfbf" points="867,-230 867,-249 918,-249 918,-230 867,-230"/>
<text text-anchor="middle" x="892.5" y="-237" font-family="Helvetica,sans-Serif" font-size="10.00" fill="#000000">errno.h</text>
</g>
<!-- Node25&#45;&gt;Node27 -->
<g id="edge35" class="edge">
<title>Node25&#45;&gt;Node27</title>
<path fill="none" stroke="#191970" d="M862.125,-291.3906C867.3253,-282.5068 875.1966,-269.0601 881.6233,-258.0811"/>
<polygon fill="#191970" stroke="#191970" points="884.7644,-259.6432 886.7957,-249.2449 878.7233,-256.1069 884.7644,-259.6432"/>
</g>
<!-- Node28 -->
<g id="node29" class="node">
<title>Node28</title>
<polygon fill="#ffffff" stroke="#bfbfbf" points="936,-230 936,-249 983,-249 983,-230 936,-230"/>
<text text-anchor="middle" x="959.5" y="-237" font-family="Helvetica,sans-Serif" font-size="10.00" fill="#000000">fcntl.h</text>
</g>
<!-- Node25&#45;&gt;Node28 -->
<g id="edge36" class="edge">
<title>Node25&#45;&gt;Node28</title>
<path fill="none" stroke="#191970" d="M872.5938,-291.3906C889.2228,-281.4616 915.3976,-265.833 934.6794,-254.3201"/>
<polygon fill="#191970" stroke="#191970" points="936.7276,-257.1736 943.5193,-249.0419 933.139,-251.1634 936.7276,-257.1736"/>
</g>
<!-- Node29 -->
<g id="node30" class="node">
<title>Node29</title>
<polygon fill="#ffffff" stroke="#bfbfbf" points="1001,-230 1001,-249 1060,-249 1060,-230 1001,-230"/>
<text text-anchor="middle" x="1030.5" y="-237" font-family="Helvetica,sans-Serif" font-size="10.00" fill="#000000">malloc.h</text>
</g>
<!-- Node25&#45;&gt;Node29 -->
<g id="edge37" class="edge">
<title>Node25&#45;&gt;Node29</title>
<path fill="none" stroke="#191970" d="M885.8796,-291.4583C913.3271,-282.4333 955.3758,-268.3236 991.5,-255 993.3969,-254.3004 995.3409,-253.5703 997.2994,-252.8245"/>
<polygon fill="#191970" stroke="#191970" points="999.007,-255.9162 1007.0625,-249.0344 996.4736,-249.3907 999.007,-255.9162"/>
</g>
<!-- Node30 -->
<g id="node31" class="node">
<title>Node30</title>
<polygon fill="#ffffff" stroke="#bfbfbf" points="1078,-230 1078,-249 1129,-249 1129,-230 1078,-230"/>
<text text-anchor="middle" x="1103.5" y="-237" font-family="Helvetica,sans-Serif" font-size="10.00" fill="#000000">math.h</text>
</g>
<!-- Node25&#45;&gt;Node30 -->
<g id="edge38" class="edge">
<title>Node25&#45;&gt;Node30</title>
<path fill="none" stroke="#191970" d="M886.5002,-296.4674C928.0402,-289.7478 1005.1241,-275.6709 1068.5,-255 1070.3954,-254.3818 1072.3272,-253.6956 1074.2609,-252.9659"/>
<polygon fill="#191970" stroke="#191970" points="1075.8559,-256.0949 1083.7847,-249.0674 1073.2041,-249.6167 1075.8559,-256.0949"/>
</g>
<!-- Node31 -->
<g id="node32" class="node">
<title>Node31</title>
<polygon fill="#ffffff" stroke="#bfbfbf" points="1147,-230 1147,-249 1210,-249 1210,-230 1147,-230"/>
<text text-anchor="middle" x="1178.5" y="-237" font-family="Helvetica,sans-Serif" font-size="10.00" fill="#000000">pthread.h</text>
</g>
<!-- Node25&#45;&gt;Node31 -->
<g id="edge40" class="edge">
<title>Node25&#45;&gt;Node31</title>
<path fill="none" stroke="#191970" d="M886.5733,-298.1706C938.6105,-292.817 1048.5141,-279.4873 1138.5,-255 1141.2622,-254.2483 1144.0967,-253.373 1146.9195,-252.428"/>
<polygon fill="#191970" stroke="#191970" points="1148.1312,-255.7117 1156.3498,-249.0255 1145.7554,-249.1272 1148.1312,-255.7117"/>
</g>
<!-- Node32 -->
<g id="node33" class="node">
<title>Node32</title>
<polygon fill="#ffffff" stroke="#bfbfbf" points="1228,-230 1228,-249 1275,-249 1275,-230 1228,-230"/>
<text text-anchor="middle" x="1251.5" y="-237" font-family="Helvetica,sans-Serif" font-size="10.00" fill="#000000">omp.h</text>
</g>
<!-- Node25&#45;&gt;Node32 -->
<g id="edge41" class="edge">
<title>Node25&#45;&gt;Node32</title>
<path fill="none" stroke="#191970" d="M886.5481,-298.4566C961.8552,-291.8803 1157.0792,-273.5293 1219.5,-255 1221.3641,-254.4467 1223.2539,-253.7948 1225.135,-253.0771"/>
<polygon fill="#191970" stroke="#191970" points="1226.5309,-256.2867 1234.3068,-249.0904 1223.7404,-249.8669 1226.5309,-256.2867"/>
</g>
<!-- Node25&#45;&gt;Node33 -->
<g id="edge42" class="edge">
<title>Node25&#45;&gt;Node33</title>
<path fill="none" stroke="#191970" d="M826.4485,-298.5371C801.1311,-296.4763 763.9524,-293.4829 731.5,-291 512.4457,-274.2401 454.2563,-296.4114 238.5,-255 234.2612,-254.1864 229.8746,-253.1268 225.5476,-251.9433"/>
<polygon fill="#191970" stroke="#191970" points="226.2388,-248.4978 215.6565,-249.0141 224.251,-255.2097 226.2388,-248.4978"/>
</g>
<!-- Node34 -->
<g id="node35" class="node">
<title>Node34</title>
<polygon fill="#ffffff" stroke="#bfbfbf" points="1293,-230 1293,-249 1348,-249 1348,-230 1293,-230"/>
<text text-anchor="middle" x="1320.5" y="-237" font-family="Helvetica,sans-Serif" font-size="10.00" fill="#000000">signal.h</text>
</g>
<!-- Node25&#45;&gt;Node34 -->
<g id="edge43" class="edge">
<title>Node25&#45;&gt;Node34</title>
<path fill="none" stroke="#191970" d="M886.5409,-298.9451C970.9259,-292.987 1208.8744,-274.8604 1284.5,-255 1286.8323,-254.3875 1289.2088,-253.6476 1291.5724,-252.8272"/>
<polygon fill="#191970" stroke="#191970" points="1293.0265,-256.0169 1301.0713,-249.1225 1290.483,-249.4954 1293.0265,-256.0169"/>
</g>
<!-- Node35 -->
<g id="node36" class="node">
<title>Node35</title>
<polygon fill="#ffffff" stroke="#bfbfbf" points="1366.5,-230 1366.5,-249 1416.5,-249 1416.5,-230 1366.5,-230"/>
<text text-anchor="middle" x="1391.5" y="-237" font-family="Helvetica,sans-Serif" font-size="10.00" fill="#000000">stdio.h</text>
</g>
<!-- Node25&#45;&gt;Node35 -->
<g id="edge44" class="edge">
<title>Node25&#45;&gt;Node35</title>
<path fill="none" stroke="#191970" d="M886.5469,-299.564C980.4675,-294.8677 1267.5956,-278.8826 1357.5,-255 1359.6905,-254.4181 1361.9164,-253.7063 1364.1272,-252.911"/>
<polygon fill="#191970" stroke="#191970" points="1365.6469,-256.0706 1373.5664,-249.0326 1362.9865,-249.5958 1365.6469,-256.0706"/>
</g>
<!-- Node36 -->
<g id="node37" class="node">
<title>Node36</title>
<polygon fill="#ffffff" stroke="#bfbfbf" points="1435,-230 1435,-249 1488,-249 1488,-230 1435,-230"/>
<text text-anchor="middle" x="1461.5" y="-237" font-family="Helvetica,sans-Serif" font-size="10.00" fill="#000000">stdlib.h</text>
</g>
<!-- Node25&#45;&gt;Node36 -->
<g id="edge45" class="edge">
<title>Node25&#45;&gt;Node36</title>
<path fill="none" stroke="#191970" d="M886.5798,-299.8587C988.732,-295.7816 1321.7452,-280.7887 1425.5,-255 1427.9847,-254.3824 1430.5166,-253.6116 1433.0283,-252.7458"/>
<polygon fill="#191970" stroke="#191970" points="1434.4288,-255.9564 1442.4718,-249.0601 1431.8837,-249.4355 1434.4288,-255.9564"/>
</g>
<!-- Node37 -->
<g id="node38" class="node">
<title>Node37</title>
<polygon fill="#ffffff" stroke="#bfbfbf" points="248,-230 248,-249 301,-249 301,-230 248,-230"/>
<text text-anchor="middle" x="274.5" y="-237" font-family="Helvetica,sans-Serif" font-size="10.00" fill="#000000">string.h</text>
</g>
<!-- Node25&#45;&gt;Node37 -->
<g id="edge46" class="edge">
<title>Node25&#45;&gt;Node37</title>
<path fill="none" stroke="#191970" d="M826.3099,-298.5283C712.54,-289.2055 315.8259,-256.618 309.5,-255 307.1641,-254.4026 304.7873,-253.6631 302.4281,-252.834"/>
<polygon fill="#191970" stroke="#191970" points="303.5637,-249.5186 292.9791,-249.0541 300.9638,-256.0179 303.5637,-249.5186"/>
</g>
<!-- Node38 -->
<g id="node39" class="node">
<title>Node38</title>
<polygon fill="#ffffff" stroke="#bfbfbf" points="319,-230 319,-249 396,-249 396,-230 319,-230"/>
<text text-anchor="middle" x="357.5" y="-237" font-family="Helvetica,sans-Serif" font-size="10.00" fill="#000000">sys/mman.h</text>
</g>
<!-- Node25&#45;&gt;Node38 -->
<g id="edge47" class="edge">
<title>Node25&#45;&gt;Node38</title>
<path fill="none" stroke="#191970" d="M826.4055,-298.3015C732.1645,-289.7996 446.5638,-263.6235 405.5,-255 401.5631,-254.1732 397.4935,-253.1441 393.4656,-252.0118"/>
<polygon fill="#191970" stroke="#191970" points="394.2235,-248.5846 383.6385,-249.0414 392.198,-255.2851 394.2235,-248.5846"/>
</g>
<!-- Node39 -->
<g id="node40" class="node">
<title>Node39</title>
<polygon fill="#ffffff" stroke="#bfbfbf" points="414.5,-230 414.5,-249 478.5,-249 478.5,-230 414.5,-230"/>
<text text-anchor="middle" x="446.5" y="-237" font-family="Helvetica,sans-Serif" font-size="10.00" fill="#000000">sys/stat.h</text>
</g>
<!-- Node25&#45;&gt;Node39 -->
<g id="edge48" class="edge">
<title>Node25&#45;&gt;Node39</title>
<path fill="none" stroke="#191970" d="M826.3269,-298.1708C750.1972,-290.8832 551.8108,-270.9242 487.5,-255 484.4946,-254.2558 481.4088,-253.3566 478.3441,-252.3706"/>
<polygon fill="#191970" stroke="#191970" points="479.346,-249.013 468.7511,-249.008 477.0304,-255.6189 479.346,-249.013"/>
</g>
<!-- Node40 -->
<g id="node41" class="node">
<title>Node40</title>
<polygon fill="#ffffff" stroke="#bfbfbf" points="496.5,-230 496.5,-249 568.5,-249 568.5,-230 496.5,-230"/>
<text text-anchor="middle" x="532.5" y="-237" font-family="Helvetica,sans-Serif" font-size="10.00" fill="#000000">sys/types.h</text>
</g>
<!-- Node25&#45;&gt;Node40 -->
<g id="edge49" class="edge">
<title>Node25&#45;&gt;Node40</title>
<path fill="none" stroke="#191970" d="M826.4309,-297.7267C774.9247,-291.7468 666.7402,-277.555 577.5,-255 574.2956,-254.1901 570.9939,-253.2549 567.7036,-252.2533"/>
<polygon fill="#191970" stroke="#191970" points="568.5672,-248.8542 557.9755,-249.1082 566.4139,-255.5147 568.5672,-248.8542"/>
</g>
<!-- Node41 -->
<g id="node42" class="node">
<title>Node41</title>
<polygon fill="#ffffff" stroke="#bfbfbf" points="586.5,-230 586.5,-249 634.5,-249 634.5,-230 586.5,-230"/>
<text text-anchor="middle" x="610.5" y="-237" font-family="Helvetica,sans-Serif" font-size="10.00" fill="#000000">time.h</text>
</g>
<!-- Node25&#45;&gt;Node41 -->
<g id="edge50" class="edge">
<title>Node25&#45;&gt;Node41</title>
<path fill="none" stroke="#191970" d="M826.2904,-296.6868C784.4758,-290.2218 706.9373,-276.439 643.5,-255 641.851,-254.4427 640.1754,-253.8263 638.4981,-253.1698"/>
<polygon fill="#191970" stroke="#191970" points="639.6134,-249.8396 629.0439,-249.1062 636.849,-256.2707 639.6134,-249.8396"/>
</g>
<!-- Node42 -->
<g id="node43" class="node">
<title>Node42</title>
<polygon fill="#ffffff" stroke="#bfbfbf" points="652.5,-230 652.5,-249 708.5,-249 708.5,-230 652.5,-230"/>
<text text-anchor="middle" x="680.5" y="-237" font-family="Helvetica,sans-Serif" font-size="10.00" fill="#000000">unistd.h</text>
</g>
<!-- Node25&#45;&gt;Node42 -->
<g id="edge51" class="edge">
<title>Node25&#45;&gt;Node42</title>
<path fill="none" stroke="#191970" d="M826.4412,-291.7895C798.1297,-282.9412 754.6376,-268.9003 717.5,-255 715.69,-254.3225 713.8376,-253.6098 711.9734,-252.8774"/>
<polygon fill="#191970" stroke="#191970" points="713.2766,-249.6291 702.6938,-249.124 710.6518,-256.1184 713.2766,-249.6291"/>
</g>
<!-- Node43 -->
<g id="node44" class="node">
<title>Node43</title>
<g id="a_node44"><a xlink:href="argo_8h.html" target="_top" xlink:title="This file provides the full C interface to ArgoDSM. ">
<polygon fill="#ffffff" stroke="#000000" points="727,-230 727,-249 774,-249 774,-230 727,-230"/>
<text text-anchor="middle" x="750.5" y="-237" font-family="Helvetica,sans-Serif" font-size="10.00" fill="#000000">argo.h</text>
</a>
</g>
</g>
<!-- Node25&#45;&gt;Node43 -->
<g id="edge52" class="edge">
<title>Node25&#45;&gt;Node43</title>
<path fill="none" stroke="#191970" d="M839.9375,-291.3906C822.7463,-281.4165 795.6418,-265.6908 775.7734,-254.1633"/>
<polygon fill="#191970" stroke="#191970" points="777.3523,-251.033 766.9462,-249.0419 773.8394,-257.0877 777.3523,-251.033"/>
</g>
<!-- Node44 -->
<g id="node45" class="node">
<title>Node44</title>
<polygon fill="#ffffff" stroke="#bfbfbf" points="753.5,-112.5 753.5,-131.5 809.5,-131.5 809.5,-112.5 753.5,-112.5"/>
<text text-anchor="middle" x="781.5" y="-119.5" font-family="Helvetica,sans-Serif" font-size="10.00" fill="#000000">stddef.h</text>
</g>
<!-- Node43&#45;&gt;Node44 -->
<g id="edge53" class="edge">
<title>Node43&#45;&gt;Node44</title>
<path fill="none" stroke="#191970" d="M753.0369,-229.8845C758.1233,-210.6053 769.655,-166.8963 776.3753,-141.4241"/>
<polygon fill="#191970" stroke="#191970" points="779.7612,-142.3104 778.9281,-131.7484 772.9928,-140.5246 779.7612,-142.3104"/>
</g>
<!-- Node45 -->
<g id="node46" class="node">
<title>Node45</title>
<g id="a_node46"><a xlink:href="allocators_8h.html" target="_top" xlink:title="This file provides all C allocators for ArgoDSM. ">
<polygon fill="#ffffff" stroke="#000000" points="597,-168.5 597,-187.5 722,-187.5 722,-168.5 597,-168.5"/>
<text text-anchor="middle" x="659.5" y="-175.5" font-family="Helvetica,sans-Serif" font-size="10.00" fill="#000000">allocators/allocators.h</text>
</a>
</g>
</g>
<!-- Node43&#45;&gt;Node45 -->
<g id="edge54" class="edge">
<title>Node43&#45;&gt;Node45</title>
<path fill="none" stroke="#191970" d="M736.2813,-229.8906C721.8566,-220.1421 699.3024,-204.8994 682.364,-193.4521"/>
<polygon fill="#191970" stroke="#191970" points="683.8641,-190.2415 673.6189,-187.5419 679.9444,-196.0412 683.8641,-190.2415"/>
</g>
<!-- Node48 -->
<g id="node49" class="node">
<title>Node48</title>
<g id="a_node49"><a xlink:href="synchronization_8h.html" target="_top" xlink:title="This file provides C bindings for some ArgoDSM synchronization primitives. ">
<polygon fill="#ffffff" stroke="#000000" points="779,-168.5 779,-187.5 962,-187.5 962,-168.5 779,-168.5"/>
<text text-anchor="middle" x="870.5" y="-175.5" font-family="Helvetica,sans-Serif" font-size="10.00" fill="#000000">synchronization/synchronization.h</text>
</a>
</g>
</g>
<!-- Node43&#45;&gt;Node48 -->
<g id="edge57" class="edge">
<title>Node43&#45;&gt;Node48</title>
<path fill="none" stroke="#191970" d="M769.25,-229.8906C788.976,-219.7811 820.2312,-203.7628 842.8,-192.1962"/>
<polygon fill="#191970" stroke="#191970" points="844.5787,-195.2176 851.8817,-187.5419 841.386,-188.9881 844.5787,-195.2176"/>
</g>
<!-- Node46 -->
<g id="node47" class="node">
<title>Node46</title>
<g id="a_node47"><a xlink:href="collective__allocator_8h.html" target="_top" xlink:title="This file provides the collective allocator for ArgoDSM. ">
<polygon fill="#ffffff" stroke="#000000" points="603.5,-112.5 603.5,-131.5 723.5,-131.5 723.5,-112.5 603.5,-112.5"/>
<text text-anchor="middle" x="663.5" y="-119.5" font-family="Helvetica,sans-Serif" font-size="10.00" fill="#000000">collective_allocator.h</text>
</a>
</g>
</g>
<!-- Node45&#45;&gt;Node46 -->
<g id="edge55" class="edge">
<title>Node45&#45;&gt;Node46</title>
<path fill="none" stroke="#191970" d="M660.1967,-168.2455C660.7187,-160.9382 661.4504,-150.6944 662.0925,-141.7046"/>
<polygon fill="#191970" stroke="#191970" points="665.5898,-141.8667 662.8112,-131.6427 658.6076,-141.3679 665.5898,-141.8667"/>
</g>
<!-- Node47 -->
<g id="node48" class="node">
<title>Node47</title>
<g id="a_node48"><a xlink:href="dynamic__allocator_8h.html" target="_top" xlink:title="This file provides the dynamic allocator for ArgoDSM. ">
<polygon fill="#ffffff" stroke="#000000" points="470,-112.5 470,-131.5 585,-131.5 585,-112.5 470,-112.5"/>
<text text-anchor="middle" x="527.5" y="-119.5" font-family="Helvetica,sans-Serif" font-size="10.00" fill="#000000">dynamic_allocator.h</text>
</a>
</g>
</g>
<!-- Node45&#45;&gt;Node47 -->
<g id="edge56" class="edge">
<title>Node45&#45;&gt;Node47</title>
<path fill="none" stroke="#191970" d="M636.8084,-168.3733C615.4289,-159.3032 583.1943,-145.6279 559.2638,-135.4755"/>
<polygon fill="#191970" stroke="#191970" points="560.4683,-132.1846 549.8955,-131.5011 557.7344,-138.6287 560.4683,-132.1846"/>
</g>
<!-- Node48&#45;&gt;Node44 -->
<g id="edge58" class="edge">
<title>Node48&#45;&gt;Node44</title>
<path fill="none" stroke="#191970" d="M854.9974,-168.2455C841.342,-159.6534 821.2343,-147.0014 805.5011,-137.1018"/>
<polygon fill="#191970" stroke="#191970" points="807.1529,-134.006 796.825,-131.6427 803.4249,-139.9307 807.1529,-134.006"/>
</g>
<!-- Node49&#45;&gt;Node14 -->
<g id="edge61" class="edge">
<title>Node49&#45;&gt;Node14</title>
<path fill="none" stroke="#191970" d="M1875.777,-56.3733C1853.3263,-47.2629 1819.4261,-33.5062 1794.3745,-23.3404"/>
<polygon fill="#191970" stroke="#191970" points="1795.4957,-20.0182 1784.9135,-19.5011 1792.8635,-26.5045 1795.4957,-20.0182"/>
</g>
</g>
</svg>
