<?xml version="1.0" encoding="UTF-8" standalone="no"?>
<!DOCTYPE svg PUBLIC "-//W3C//DTD SVG 1.1//EN"
 "http://www.w3.org/Graphics/SVG/1.1/DTD/svg11.dtd">
<!-- Generated by graphviz version 2.40.1 (20161225.0304)
 -->
<!-- Title: fitting_mpi_int Pages: 1 -->
<!--zoomable 593 -->
<svg id="main" version="1.1" xmlns="http://www.w3.org/2000/svg" xmlns:xlink="http://www.w3.org/1999/xlink" xml:space="preserve" onload="init(evt)">
<style type="text/css"><![CDATA[
.edge:hover path { stroke: red; }
.edge:hover polygon { stroke: red; fill: red; }
]]></style>
<script type="text/javascript"><![CDATA[
var edges = document.getElementsByTagName('g');
if (edges && edges.length) {
  for (var i=0;i<edges.length;i++) {
    if (edges[i].id.substr(0,4)=='edge') {
      edges[i].setAttribute('class','edge');
    }
  }
}
]]></script>
        <defs>
                <circle id="rim" cx="0" cy="0" r="7"/>
                <circle id="rim2" cx="0" cy="0" r="3.5"/>
                <g id="zoomPlus">
                        <use xlink:href="#rim" fill="#404040">
                                <set attributeName="fill" to="#808080" begin="zoomplus.mouseover" end="zoomplus.mouseout"/>
                        </use>
                        <path d="M-4,0h8M0,-4v8" fill="none" stroke="white" stroke-width="1.5" pointer-events="none"/>
                </g>
                <g id="zoomMin">
                        <use xlink:href="#rim" fill="#404040">
                                <set attributeName="fill" to="#808080" begin="zoomminus.mouseover" end="zoomminus.mouseout"/>
                        </use>
                        <path d="M-4,0h8" fill="none" stroke="white" stroke-width="1.5" pointer-events="none"/>
                </g>
                <g id="dirArrow">
                        <path fill="none" stroke="white" stroke-width="1.5" d="M0,-3.0v7 M-2.5,-0.5L0,-3.0L2.5,-0.5"/>
                </g>
               <g id="resetDef">
                       <use xlink:href="#rim2" fill="#404040">
                               <set attributeName="fill" to="#808080" begin="reset.mouseover" end="reset.mouseout"/>
                       </use>
               </g>
        </defs>

<script type="text/javascript">
var viewWidth = 313;
var viewHeight = 593;
var sectionId = 'dynsection-0';
</script>
<script xlink:href="svgpan.js"/>
<svg id="graph" class="graph">
<g id="viewport">
<title>fitting_mpi_int</title>
<polygon fill="#ffffff" stroke="transparent" points="-4,4 -4,-589 309,-589 309,4 -4,4"/>
<!-- Node1 -->
<g id="node1" class="node">
<title>Node1</title>
<polygon fill="#bfbfbf" stroke="#000000" points="0,-274 0,-293 87,-293 87,-274 0,-274"/>
<text text-anchor="middle" x="43.5" y="-281" font-family="Helvetica,sans-Serif" font-size="10.00" fill="#000000">fitting_mpi_int</text>
</g>
<!-- Node2 -->
<g id="node2" class="node">
<title>Node2</title>
<g id="a_node2"><a xlink:href="backend_8hpp_a59102c6814043d49f3b2623f367f6ba2.html#a59102c6814043d49f3b2623f367f6ba2" target="_top" xlink:title="Backend internal type erased atomic exchange function. ">
<polygon fill="#ffffff" stroke="#000000" points="151.5,-536.5 151.5,-566.5 276.5,-566.5 276.5,-536.5 151.5,-536.5"/>
<text text-anchor="start" x="159.5" y="-554.5" font-family="Helvetica,sans-Serif" font-size="10.00" fill="#000000">argo::backend::atomic</text>
<text text-anchor="middle" x="214" y="-543.5" font-family="Helvetica,sans-Serif" font-size="10.00" fill="#000000">::_exchange</text>
</a>
</g>
</g>
<!-- Node1&#45;&gt;Node2 -->
<g id="edge1" class="edge">
<title>Node1&#45;&gt;Node2</title>
<path fill="none" stroke="#191970" d="M47.3931,-303.1959C58.1,-355.4538 89.4291,-495.7936 123,-527.5 130.9586,-535.0166 140.9845,-540.2426 151.4506,-543.8622"/>
<polygon fill="#191970" stroke="#191970" points="50.7839,-302.3041 45.3767,-293.193 43.9219,-303.6875 50.7839,-302.3041"/>
</g>
<!-- Node3 -->
<g id="node3" class="node">
<title>Node3</title>
<g id="a_node3"><a xlink:href="backend_8hpp_ae76ec4647c992bfecf6309787f3dec4a.html#ae76ec4647c992bfecf6309787f3dec4a" target="_top" xlink:title="Backend internal type erased atomic store function. ">
<polygon fill="#ffffff" stroke="#000000" points="151.5,-469.5 151.5,-499.5 276.5,-499.5 276.5,-469.5 151.5,-469.5"/>
<text text-anchor="start" x="159.5" y="-487.5" font-family="Helvetica,sans-Serif" font-size="10.00" fill="#000000">argo::backend::atomic</text>
<text text-anchor="middle" x="214" y="-476.5" font-family="Helvetica,sans-Serif" font-size="10.00" fill="#000000">::_store</text>
</a>
</g>
</g>
<!-- Node1&#45;&gt;Node3 -->
<g id="edge3" class="edge">
<title>Node1&#45;&gt;Node3</title>
<path fill="none" stroke="#191970" d="M46.6585,-303.2419C53.5889,-339.9213 73.6353,-418.6452 123,-460.5 131.1005,-467.3682 140.9541,-472.2958 151.1483,-475.8256"/>
<polygon fill="#191970" stroke="#191970" points="50.0887,-302.5392 44.9108,-293.2959 43.1943,-303.7507 50.0887,-302.5392"/>
</g>
<!-- Node4 -->
<g id="node4" class="node">
<title>Node4</title>
<g id="a_node4"><a xlink:href="backend_8hpp_af453e2680e15d1b3b31d2baae901d182.html#af453e2680e15d1b3b31d2baae901d182" target="_top" xlink:title="Backend internal type erased atomic store function. ">
<polygon fill="#ffffff" stroke="#000000" points="141,-402.5 141,-432.5 287,-432.5 287,-402.5 141,-402.5"/>
<text text-anchor="start" x="149" y="-420.5" font-family="Helvetica,sans-Serif" font-size="10.00" fill="#000000">argo::backend::atomic</text>
<text text-anchor="middle" x="214" y="-409.5" font-family="Helvetica,sans-Serif" font-size="10.00" fill="#000000">::_store_public_owners_dir</text>
</a>
</g>
</g>
<!-- Node1&#45;&gt;Node4 -->
<g id="edge5" class="edge">
<title>Node1&#45;&gt;Node4</title>
<path fill="none" stroke="#191970" d="M51.9663,-302.2305C64.1143,-326.9498 88.8489,-370.0646 123,-393.5 128.5235,-397.2904 134.6119,-400.4822 140.9425,-403.17"/>
<polygon fill="#191970" stroke="#191970" points="55.1141,-300.6996 47.6702,-293.1604 48.7878,-303.6961 55.1141,-300.6996"/>
</g>
<!-- Node5 -->
<g id="node5" class="node">
<title>Node5</title>
<g id="a_node5"><a xlink:href="backend_8hpp_ad05287a5a2d303811b5c9e7a488bda59.html#ad05287a5a2d303811b5c9e7a488bda59" target="_top" xlink:title="Backend internal type erased atomic store function. ">
<polygon fill="#ffffff" stroke="#000000" points="151.5,-335.5 151.5,-365.5 276.5,-365.5 276.5,-335.5 151.5,-335.5"/>
<text text-anchor="start" x="159.5" y="-353.5" font-family="Helvetica,sans-Serif" font-size="10.00" fill="#000000">argo::backend::atomic</text>
<text text-anchor="middle" x="214" y="-342.5" font-family="Helvetica,sans-Serif" font-size="10.00" fill="#000000">::_load</text>
</a>
</g>
</g>
<!-- Node1&#45;&gt;Node5 -->
<g id="edge7" class="edge">
<title>Node1&#45;&gt;Node5</title>
<path fill="none" stroke="#191970" d="M67.3688,-298.355C82.7923,-307.4582 103.5466,-318.8013 123,-326.5 131.9635,-330.0473 141.6289,-333.2343 151.1966,-336.0387"/>
<polygon fill="#191970" stroke="#191970" points="68.8871,-295.1839 58.5137,-293.029 65.2792,-301.1825 68.8871,-295.1839"/>
</g>
<!-- Node6 -->
<g id="node6" class="node">
<title>Node6</title>
<g id="a_node6"><a xlink:href="backend_8hpp_a9f720289269a6cf7de8c6ab7e89fac5b.html#a9f720289269a6cf7de8c6ab7e89fac5b" target="_top" xlink:title="Backend internal type erased atomic load function. ">
<polygon fill="#ffffff" stroke="#000000" points="143,-268.5 143,-298.5 285,-298.5 285,-268.5 143,-268.5"/>
<text text-anchor="start" x="151" y="-286.5" font-family="Helvetica,sans-Serif" font-size="10.00" fill="#000000">argo::backend::atomic</text>
<text text-anchor="middle" x="214" y="-275.5" font-family="Helvetica,sans-Serif" font-size="10.00" fill="#000000">::_load_public_owners_dir</text>
</a>
</g>
</g>
<!-- Node1&#45;&gt;Node6 -->
<g id="edge9" class="edge">
<title>Node1&#45;&gt;Node6</title>
<path fill="none" stroke="#191970" d="M97.5921,-283.5C111.9488,-283.5 127.6725,-283.5 142.7904,-283.5"/>
<polygon fill="#191970" stroke="#191970" points="97.408,-280.0001 87.408,-283.5 97.408,-287.0001 97.408,-280.0001"/>
</g>
<!-- Node7 -->
<g id="node7" class="node">
<title>Node7</title>
<g id="a_node7"><a xlink:href="backend_8hpp_ab1a7511272b2801f891b966a67b2a4dc.html#ab1a7511272b2801f891b966a67b2a4dc" target="_top" xlink:title="Backend internal type erased atomic CAS function. ">
<polygon fill="#ffffff" stroke="#000000" points="151.5,-201.5 151.5,-231.5 276.5,-231.5 276.5,-201.5 151.5,-201.5"/>
<text text-anchor="start" x="159.5" y="-219.5" font-family="Helvetica,sans-Serif" font-size="10.00" fill="#000000">argo::backend::atomic</text>
<text text-anchor="middle" x="214" y="-208.5" font-family="Helvetica,sans-Serif" font-size="10.00" fill="#000000">::_compare_exchange</text>
</a>
</g>
</g>
<!-- Node1&#45;&gt;Node7 -->
<g id="edge11" class="edge">
<title>Node1&#45;&gt;Node7</title>
<path fill="none" stroke="#191970" d="M77.4232,-270.1695C105.7977,-259.0194 146.2574,-243.1203 175.773,-231.5218"/>
<polygon fill="#191970" stroke="#191970" points="75.9556,-266.9856 67.9285,-273.9005 78.5158,-273.5006 75.9556,-266.9856"/>
</g>
<!-- Node8 -->
<g id="node8" class="node">
<title>Node8</title>
<g id="a_node8"><a xlink:href="backend_8hpp_a21022014311b61de767ed4d49fecc9a3.html#a21022014311b61de767ed4d49fecc9a3" target="_top" xlink:title="Backend internal type erased atomic CAS function. ">
<polygon fill="#ffffff" stroke="#000000" points="123,-134.5 123,-164.5 305,-164.5 305,-134.5 123,-134.5"/>
<text text-anchor="start" x="131" y="-152.5" font-family="Helvetica,sans-Serif" font-size="10.00" fill="#000000">argo::backend::atomic</text>
<text text-anchor="middle" x="214" y="-141.5" font-family="Helvetica,sans-Serif" font-size="10.00" fill="#000000">::_compare_exchange_owners_dir</text>
</a>
</g>
</g>
<!-- Node1&#45;&gt;Node8 -->
<g id="edge13" class="edge">
<title>Node1&#45;&gt;Node8</title>
<path fill="none" stroke="#191970" d="M55.6381,-265.6306C69.8851,-245.7175 95.1321,-213.5575 123,-192.5 138.0565,-181.123 156.6051,-171.6923 173.0196,-164.5905"/>
<polygon fill="#191970" stroke="#191970" points="52.7631,-263.6346 49.8964,-273.8342 58.498,-267.6485 52.7631,-263.6346"/>
</g>
<!-- Node9 -->
<g id="node9" class="node">
<title>Node9</title>
<g id="a_node9"><a xlink:href="backend_8hpp_a15d2d5e1fdf93090999bce8f0307d91c.html#a15d2d5e1fdf93090999bce8f0307d91c" target="_top" xlink:title="Backend internal type erased atomic CAS function. ">
<polygon fill="#ffffff" stroke="#000000" points="124.5,-67.5 124.5,-97.5 303.5,-97.5 303.5,-67.5 124.5,-67.5"/>
<text text-anchor="start" x="132.5" y="-85.5" font-family="Helvetica,sans-Serif" font-size="10.00" fill="#000000">argo::backend::atomic</text>
<text text-anchor="middle" x="214" y="-74.5" font-family="Helvetica,sans-Serif" font-size="10.00" fill="#000000">::_compare_exchange_offsets_tbl</text>
</a>
</g>
</g>
<!-- Node1&#45;&gt;Node9 -->
<g id="edge15" class="edge">
<title>Node1&#45;&gt;Node9</title>
<path fill="none" stroke="#191970" d="M48.7743,-263.9265C58.4543,-231.3339 81.9244,-165.5715 123,-125.5 135.3826,-113.4201 151.7972,-104.2526 167.2734,-97.5514"/>
<polygon fill="#191970" stroke="#191970" points="45.3858,-263.0468 46.0147,-273.623 52.1184,-264.963 45.3858,-263.0468"/>
</g>
<!-- Node10 -->
<g id="node10" class="node">
<title>Node10</title>
<g id="a_node10"><a xlink:href="backend_8hpp_a42d4f07adf3b439564928f89022b74b5.html#a42d4f07adf3b439564928f89022b74b5" target="_top" xlink:title="Backend internal type erased atomic (post)increment function for signed integers. ...">
<polygon fill="#ffffff" stroke="#000000" points="151.5,-.5 151.5,-30.5 276.5,-30.5 276.5,-.5 151.5,-.5"/>
<text text-anchor="start" x="159.5" y="-18.5" font-family="Helvetica,sans-Serif" font-size="10.00" fill="#000000">argo::backend::atomic</text>
<text text-anchor="middle" x="214" y="-7.5" font-family="Helvetica,sans-Serif" font-size="10.00" fill="#000000">::_fetch_add_int</text>
</a>
</g>
</g>
<!-- Node1&#45;&gt;Node10 -->
<g id="edge17" class="edge">
<title>Node1&#45;&gt;Node10</title>
<path fill="none" stroke="#191970" d="M45.4054,-263.642C50.4812,-220.9701 67.944,-119.4659 123,-58.5 134.1256,-46.1802 149.5256,-37.0824 164.4954,-30.5119"/>
<polygon fill="#191970" stroke="#191970" points="41.924,-263.2819 44.3234,-273.6014 48.8831,-264.038 41.924,-263.2819"/>
</g>
<!-- Node2&#45;&gt;Node2 -->
<g id="edge2" class="edge">
<title>Node2&#45;&gt;Node2</title>
<path fill="none" stroke="#191970" d="M183.7931,-576.9579C187.5422,-581.679 197.6111,-585 214,-585 240.8945,-585 250.7699,-576.0566 243.626,-566.659"/>
<polygon fill="#191970" stroke="#191970" points="187.3052,-576.8403 184.374,-566.659 180.3163,-576.446 187.3052,-576.8403"/>
</g>
<!-- Node3&#45;&gt;Node3 -->
<g id="edge4" class="edge">
<title>Node3&#45;&gt;Node3</title>
<path fill="none" stroke="#191970" d="M183.7931,-509.9579C187.5422,-514.679 197.6111,-518 214,-518 240.8945,-518 250.7699,-509.0566 243.626,-499.659"/>
<polygon fill="#191970" stroke="#191970" points="187.3052,-509.8403 184.374,-499.659 180.3163,-509.446 187.3052,-509.8403"/>
</g>
<!-- Node4&#45;&gt;Node4 -->
<g id="edge6" class="edge">
<title>Node4&#45;&gt;Node4</title>
<path fill="none" stroke="#191970" d="M183.7931,-442.9579C187.5422,-447.679 197.6111,-451 214,-451 240.8945,-451 250.7699,-442.0566 243.626,-432.659"/>
<polygon fill="#191970" stroke="#191970" points="187.3052,-442.8403 184.374,-432.659 180.3163,-442.446 187.3052,-442.8403"/>
</g>
<!-- Node5&#45;&gt;Node5 -->
<g id="edge8" class="edge">
<title>Node5&#45;&gt;Node5</title>
<path fill="none" stroke="#191970" d="M183.7931,-375.9579C187.5422,-380.679 197.6111,-384 214,-384 240.8945,-384 250.7699,-375.0566 243.626,-365.659"/>
<polygon fill="#191970" stroke="#191970" points="187.3052,-375.8403 184.374,-365.659 180.3163,-375.446 187.3052,-375.8403"/>
</g>
<!-- Node6&#45;&gt;Node6 -->
<g id="edge10" class="edge">
<title>Node6&#45;&gt;Node6</title>
<path fill="none" stroke="#191970" d="M183.7931,-308.9579C187.5422,-313.679 197.6111,-317 214,-317 240.8945,-317 250.7699,-308.0566 243.626,-298.659"/>
<polygon fill="#191970" stroke="#191970" points="187.3052,-308.8403 184.374,-298.659 180.3163,-308.446 187.3052,-308.8403"/>
</g>
<!-- Node7&#45;&gt;Node7 -->
<g id="edge12" class="edge">
<title>Node7&#45;&gt;Node7</title>
<path fill="none" stroke="#191970" d="M183.7931,-241.9579C187.5422,-246.679 197.6111,-250 214,-250 240.8945,-250 250.7699,-241.0566 243.626,-231.659"/>
<polygon fill="#191970" stroke="#191970" points="187.3052,-241.8403 184.374,-231.659 180.3163,-241.446 187.3052,-241.8403"/>
</g>
<!-- Node8&#45;&gt;Node8 -->
<g id="edge14" class="edge">
<title>Node8&#45;&gt;Node8</title>
<path fill="none" stroke="#191970" d="M183.7931,-174.9579C187.5422,-179.679 197.6111,-183 214,-183 240.8945,-183 250.7699,-174.0566 243.626,-164.659"/>
<polygon fill="#191970" stroke="#191970" points="187.3052,-174.8403 184.374,-164.659 180.3163,-174.446 187.3052,-174.8403"/>
</g>
<!-- Node9&#45;&gt;Node9 -->
<g id="edge16" class="edge">
<title>Node9&#45;&gt;Node9</title>
<path fill="none" stroke="#191970" d="M183.7931,-107.9579C187.5422,-112.679 197.6111,-116 214,-116 240.8945,-116 250.7699,-107.0566 243.626,-97.659"/>
<polygon fill="#191970" stroke="#191970" points="187.3052,-107.8403 184.374,-97.659 180.3163,-107.446 187.3052,-107.8403"/>
</g>
<!-- Node10&#45;&gt;Node10 -->
<g id="edge18" class="edge">
<title>Node10&#45;&gt;Node10</title>
<path fill="none" stroke="#191970" d="M183.7931,-40.9579C187.5422,-45.679 197.6111,-49 214,-49 240.8945,-49 250.7699,-40.0566 243.626,-30.659"/>
<polygon fill="#191970" stroke="#191970" points="187.3052,-40.8403 184.374,-30.659 180.3163,-40.446 187.3052,-40.8403"/>
</g>
</g>
</svg>
        <g id="navigator" transform="translate(0 0)" fill="#404254">
                <rect fill="#f2f5e9" fill-opacity="0.5" stroke="#606060" stroke-width=".5" x="0" y="0" width="60" height="60"/>
                <use id="zoomplus" xlink:href="#zoomPlus" x="17" y="9" onmousedown="handleZoom(evt,'in')"/>
                <use id="zoomminus" xlink:href="#zoomMin" x="42" y="9" onmousedown="handleZoom(evt,'out')"/>
                <use id="reset" xlink:href="#resetDef" x="30" y="36" onmousedown="handleReset()"/>
                <g id="arrowUp" xlink:href="#dirArrow" transform="translate(30 24)" onmousedown="handlePan(0,-1)">
                  <use xlink:href="#rim" fill="#404040">
                        <set attributeName="fill" to="#808080" begin="arrowUp.mouseover" end="arrowUp.mouseout"/>
                  </use>
                  <path fill="none" stroke="white" stroke-width="1.5" d="M0,-3.0v7 M-2.5,-0.5L0,-3.0L2.5,-0.5"/>
                </g>
                <g id="arrowRight" xlink:href="#dirArrow" transform="rotate(90) translate(36 -43)" onmousedown="handlePan(1,0)">
                  <use xlink:href="#rim" fill="#404040">
                        <set attributeName="fill" to="#808080" begin="arrowRight.mouseover" end="arrowRight.mouseout"/>
                  </use>
                  <path fill="none" stroke="white" stroke-width="1.5" d="M0,-3.0v7 M-2.5,-0.5L0,-3.0L2.5,-0.5"/>
                </g>
                <g id="arrowDown" xlink:href="#dirArrow" transform="rotate(180) translate(-30 -48)" onmousedown="handlePan(0,1)">
                  <use xlink:href="#rim" fill="#404040">
                        <set attributeName="fill" to="#808080" begin="arrowDown.mouseover" end="arrowDown.mouseout"/>
                  </use>
                  <path fill="none" stroke="white" stroke-width="1.5" d="M0,-3.0v7 M-2.5,-0.5L0,-3.0L2.5,-0.5"/>
                </g>
                <g id="arrowLeft" xlink:href="#dirArrow" transform="rotate(270) translate(-36 17)" onmousedown="handlePan(-1,0)">
                  <use xlink:href="#rim" fill="#404040">
                        <set attributeName="fill" to="#808080" begin="arrowLeft.mouseover" end="arrowLeft.mouseout"/>
                  </use>
                  <path fill="none" stroke="white" stroke-width="1.5" d="M0,-3.0v7 M-2.5,-0.5L0,-3.0L2.5,-0.5"/>
                </g>
        </g>
        <svg viewBox="0 0 15 15" width="100%" height="30px" preserveAspectRatio="xMaxYMin meet">
         <g id="arrow_out" transform="scale(0.3 0.3)">
          <a xlink:href="mpi_8cpp_a42bc863264a399b805b95e0fc53a9fed_a42bc863264a399b805b95e0fc53a9fed_icgraph_org.svg" target="_base">
           <rect id="button" ry="5" rx="5" y="6" x="6" height="38" width="38"
                fill="#f2f5e9" fill-opacity="0.5" stroke="#606060" stroke-width="1.0"/>
           <path id="arrow"
             d="M 11.500037,31.436501 C 11.940474,20.09759 22.043105,11.32322 32.158766,21.979434 L 37.068811,17.246167 C 37.068811,17.246167 37.088388,32 37.088388,32 L 22.160133,31.978069 C 22.160133,31.978069 26.997745,27.140456 26.997745,27.140456 C 18.528582,18.264221 13.291696,25.230495 11.500037,31.436501 z"
             style="fill:#404040;"/>
          </a>
         </g>
        </svg>
</svg>
