<?xml version="1.0" encoding="UTF-8" standalone="no"?>
<!DOCTYPE svg PUBLIC "-//W3C//DTD SVG 1.1//EN"
 "http://www.w3.org/Graphics/SVG/1.1/DTD/svg11.dtd">
<!-- Generated by graphviz version 2.40.1 (20161225.0304)
 -->
<!-- Title: argo::is_argo_address Pages: 1 -->
<svg width="289pt" height="66pt"
 viewBox="0.00 0.00 289.00 66.00" xmlns="http://www.w3.org/2000/svg" xmlns:xlink="http://www.w3.org/1999/xlink">
<g id="graph0" class="graph" transform="scale(1 1) rotate(0) translate(4 62)">
<title>argo::is_argo_address</title>
<polygon fill="#ffffff" stroke="transparent" points="-4,4 -4,-62 285,-62 285,4 -4,4"/>
<!-- Node1 -->
<g id="node1" class="node">
<title>Node1</title>
<polygon fill="#bfbfbf" stroke="#000000" points="0,-19.5 0,-38.5 123,-38.5 123,-19.5 0,-19.5"/>
<text text-anchor="middle" x="61.5" y="-26.5" font-family="Helvetica,sans-Serif" font-size="10.00" fill="#000000">argo::is_argo_address</text>
</g>
<!-- Node2 -->
<g id="node2" class="node">
<title>Node2</title>
<g id="a_node2"><a xlink:href="argo_8h_a812d09caf62e1cad552da9be3c893a29.html#a812d09caf62e1cad552da9be3c893a29" target="_top" xlink:title="Check if addr belongs in the ArgoDSM memory space. ">
<polygon fill="#ffffff" stroke="#000000" points="159,-38.5 159,-57.5 281,-57.5 281,-38.5 159,-38.5"/>
<text text-anchor="middle" x="220" y="-45.5" font-family="Helvetica,sans-Serif" font-size="10.00" fill="#000000">argo_is_argo_address</text>
</a>
</g>
</g>
<!-- Node1&#45;&gt;Node2 -->
<g id="edge1" class="edge">
<title>Node1&#45;&gt;Node2</title>
<path fill="none" stroke="#191970" d="M133.2386,-37.5996C141.8282,-38.6293 150.5367,-39.6732 158.9553,-40.6823"/>
<polygon fill="#191970" stroke="#191970" points="133.5796,-34.1155 123.2341,-36.4003 132.7464,-41.0657 133.5796,-34.1155"/>
</g>
<!-- Node3 -->
<g id="node3" class="node">
<title>Node3</title>
<g id="a_node3"><a xlink:href="api_8cpp_a5c4874db80bf26d19ab51d123c8534fc.html#a5c4874db80bf26d19ab51d123c8534fc" target="_top" xlink:title="Unittest that checks correctness of the argo::is_argo_address(T* addr) API function. ">
<polygon fill="#ffffff" stroke="#000000" points="194.5,-.5 194.5,-19.5 245.5,-19.5 245.5,-.5 194.5,-.5"/>
<text text-anchor="middle" x="220" y="-7.5" font-family="Helvetica,sans-Serif" font-size="10.00" fill="#000000">TEST_F</text>
</a>
</g>
</g>
<!-- Node1&#45;&gt;Node3 -->
<g id="edge2" class="edge">
<title>Node1&#45;&gt;Node3</title>
<path fill="none" stroke="#191970" d="M133.1722,-20.4084C154.9726,-17.7951 177.5449,-15.0893 194.2091,-13.0917"/>
<polygon fill="#191970" stroke="#191970" points="132.7464,-16.9343 123.2341,-21.5997 133.5796,-23.8845 132.7464,-16.9343"/>
</g>
</g>
</svg>
