<?xml version="1.0" encoding="UTF-8" standalone="no"?>
<!DOCTYPE svg PUBLIC "-//W3C//DTD SVG 1.1//EN"
 "http://www.w3.org/Graphics/SVG/1.1/DTD/svg11.dtd">
<!-- Generated by graphviz version 2.40.1 (20161225.0304)
 -->
<!-- Title: argo::env::allocation_policy Pages: 1 -->
<!--zoomable 461 -->
<svg id="main" version="1.1" xmlns="http://www.w3.org/2000/svg" xmlns:xlink="http://www.w3.org/1999/xlink" xml:space="preserve" onload="init(evt)">
<style type="text/css"><![CDATA[
.edge:hover path { stroke: red; }
.edge:hover polygon { stroke: red; fill: red; }
]]></style>
<script type="text/javascript"><![CDATA[
var edges = document.getElementsByTagName('g');
if (edges && edges.length) {
  for (var i=0;i<edges.length;i++) {
    if (edges[i].id.substr(0,4)=='edge') {
      edges[i].setAttribute('class','edge');
    }
  }
}
]]></script>
        <defs>
                <circle id="rim" cx="0" cy="0" r="7"/>
                <circle id="rim2" cx="0" cy="0" r="3.5"/>
                <g id="zoomPlus">
                        <use xlink:href="#rim" target="_top" fill="#404040">
                                <set attributeName="fill" to="#808080" begin="zoomplus.mouseover" end="zoomplus.mouseout"/>
                        </use>
                        <path d="M-4,0h8M0,-4v8" fill="none" stroke="white" stroke-width="1.5" pointer-events="none"/>
                </g>
                <g id="zoomMin">
                        <use xlink:href="#rim" target="_top" fill="#404040">
                                <set attributeName="fill" to="#808080" begin="zoomminus.mouseover" end="zoomminus.mouseout"/>
                        </use>
                        <path d="M-4,0h8" fill="none" stroke="white" stroke-width="1.5" pointer-events="none"/>
                </g>
                <g id="dirArrow">
                        <path fill="none" stroke="white" stroke-width="1.5" d="M0,-3.0v7 M-2.5,-0.5L0,-3.0L2.5,-0.5"/>
                </g>
               <g id="resetDef">
                       <use xlink:href="#rim2" target="_top" fill="#404040">
                               <set attributeName="fill" to="#808080" begin="reset.mouseover" end="reset.mouseout"/>
                       </use>
               </g>
        </defs>

<script type="text/javascript">
var viewWidth = 1784;
var viewHeight = 461;
var sectionId = 'dynsection-0';
</script>
<script xlink:href="svgpan.js" target="_top"/>
<svg id="graph" class="graph">
<g id="viewport">
<title>argo::env::allocation_policy</title>
<polygon fill="#ffffff" stroke="transparent" points="-4,4 -4,-457.4932 1780,-457.4932 1780,4 -4,4"/>
<!-- Node1 -->
<g id="node1" class="node">
<title>Node1</title>
<polygon fill="#bfbfbf" stroke="#000000" points="0,-183.4932 0,-213.4932 116,-213.4932 116,-183.4932 0,-183.4932"/>
<text text-anchor="start" x="8" y="-201.4932" font-family="Helvetica,sans-Serif" font-size="10.00" fill="#000000">argo::env::allocation</text>
<text text-anchor="middle" x="58" y="-190.4932" font-family="Helvetica,sans-Serif" font-size="10.00" fill="#000000">_policy</text>
</g>
<!-- Node2 -->
<g id="node2" class="node">
<title>Node2</title>
<g id="a_node2"><a xlink:href="namespaceargo_a31330d8b35bd7f9ef9880eec82339c54.html#a31330d8b35bd7f9ef9880eec82339c54" target="_top" target="_top" xlink:title="initialize ArgoDSM system ">
<polygon fill="#ffffff" stroke="#000000" points="185.5,-371.9932 185.5,-390.9932 245.5,-390.9932 245.5,-371.9932 185.5,-371.9932"/>
<text text-anchor="middle" x="215.5" y="-378.9932" font-family="Helvetica,sans-Serif" font-size="10.00" fill="#000000">argo::init</text>
</a>
</g>
</g>
<!-- Node1&#45;&gt;Node2 -->
<g id="edge1" class="edge">
<title>Node1&#45;&gt;Node2</title>
<path fill="none" stroke="#191970" d="M77.7649,-221.742C96.7461,-244.0406 126.2553,-278.6331 152,-308.4932 171.524,-331.1382 194.5971,-357.585 206.8448,-371.5988"/>
<polygon fill="#191970" stroke="#191970" points="80.1815,-219.1812 71.0354,-213.8333 74.8503,-223.7176 80.1815,-219.1812"/>
</g>
<!-- Node5 -->
<g id="node5" class="node">
<title>Node5</title>
<g id="a_node5"><a xlink:href="namespaceargo_1_1data__distribution_a1bb3f2dcecd237990e6dc67764f06860.html#a1bb3f2dcecd237990e6dc67764f06860" target="_top" target="_top" xlink:title="identifies if we distribute data using a cyclic memory policy ">
<polygon fill="#ffffff" stroke="#000000" points="152,-268.4932 152,-298.4932 279,-298.4932 279,-268.4932 152,-268.4932"/>
<text text-anchor="start" x="160" y="-286.4932" font-family="Helvetica,sans-Serif" font-size="10.00" fill="#000000">argo::data_distribution</text>
<text text-anchor="middle" x="215.5" y="-275.4932" font-family="Helvetica,sans-Serif" font-size="10.00" fill="#000000">::is_cyclic_policy</text>
</a>
</g>
</g>
<!-- Node1&#45;&gt;Node5 -->
<g id="edge4" class="edge">
<title>Node1&#45;&gt;Node5</title>
<path fill="none" stroke="#191970" d="M94.5987,-218.2449C122.9191,-233.5289 161.5514,-254.3781 187.4528,-268.3566"/>
<polygon fill="#191970" stroke="#191970" points="96.2578,-215.1631 85.7953,-213.4938 92.9332,-221.3233 96.2578,-215.1631"/>
</g>
<!-- Node35 -->
<g id="node35" class="node">
<title>Node35</title>
<g id="a_node35"><a xlink:href="namespaceargo_1_1data__distribution_abb2c51a38640b8b83cab348e7d796fe5.html#abb2c51a38640b8b83cab348e7d796fe5" target="_top" target="_top" xlink:title="identifies if we distribute data using the prime&#45;mapp memory policy ">
<polygon fill="#ffffff" stroke="#000000" points="152,-134.4932 152,-164.4932 279,-164.4932 279,-134.4932 152,-134.4932"/>
<text text-anchor="start" x="160" y="-152.4932" font-family="Helvetica,sans-Serif" font-size="10.00" fill="#000000">argo::data_distribution</text>
<text text-anchor="middle" x="215.5" y="-141.4932" font-family="Helvetica,sans-Serif" font-size="10.00" fill="#000000">::is_prime_policy</text>
</a>
</g>
</g>
<!-- Node1&#45;&gt;Node35 -->
<g id="edge42" class="edge">
<title>Node1&#45;&gt;Node35</title>
<path fill="none" stroke="#191970" d="M116.2201,-180.3803C132.9643,-175.171 151.0396,-169.5475 167.1199,-164.5448"/>
<polygon fill="#191970" stroke="#191970" points="115.0492,-177.079 106.5403,-183.3918 117.1287,-183.763 115.0492,-177.079"/>
</g>
<!-- Node36 -->
<g id="node36" class="node">
<title>Node36</title>
<g id="a_node36"><a xlink:href="namespaceargo_1_1data__distribution_a58576657391f45caf61bf0748a23b098.html#a58576657391f45caf61bf0748a23b098" target="_top" target="_top" xlink:title="identifies if we distribute data using the first&#45;touch memory policy ">
<polygon fill="#ffffff" stroke="#000000" points="152,-183.4932 152,-213.4932 279,-213.4932 279,-183.4932 152,-183.4932"/>
<text text-anchor="start" x="160" y="-201.4932" font-family="Helvetica,sans-Serif" font-size="10.00" fill="#000000">argo::data_distribution</text>
<text text-anchor="middle" x="215.5" y="-190.4932" font-family="Helvetica,sans-Serif" font-size="10.00" fill="#000000">::is_first_touch_policy</text>
</a>
</g>
</g>
<!-- Node1&#45;&gt;Node36 -->
<g id="edge44" class="edge">
<title>Node1&#45;&gt;Node36</title>
<path fill="none" stroke="#191970" d="M126.4412,-198.4932C134.9256,-198.4932 143.5725,-198.4932 151.9787,-198.4932"/>
<polygon fill="#191970" stroke="#191970" points="126.1997,-194.9933 116.1997,-198.4932 126.1997,-201.9933 126.1997,-194.9933"/>
</g>
<!-- Node37 -->
<g id="node37" class="node">
<title>Node37</title>
<g id="a_node37"><a xlink:href="classargo_1_1data__distribution_1_1global__ptr_ae4353680349f6abbd2cf262dace8e2f2.html#ae4353680349f6abbd2cf262dace8e2f2" target="_top" target="_top" xlink:title="return a pointer to the selected allocation policy ">
<polygon fill="#ffffff" stroke="#000000" points="152,-73.9932 152,-114.9932 279,-114.9932 279,-73.9932 152,-73.9932"/>
<text text-anchor="start" x="160" y="-102.9932" font-family="Helvetica,sans-Serif" font-size="10.00" fill="#000000">argo::data_distribution</text>
<text text-anchor="start" x="160" y="-91.9932" font-family="Helvetica,sans-Serif" font-size="10.00" fill="#000000">::global_ptr&lt; std::size</text>
<text text-anchor="middle" x="215.5" y="-80.9932" font-family="Helvetica,sans-Serif" font-size="10.00" fill="#000000">_t &gt;::policy</text>
</a>
</g>
</g>
<!-- Node1&#45;&gt;Node37 -->
<g id="edge52" class="edge">
<title>Node1&#45;&gt;Node37</title>
<path fill="none" stroke="#191970" d="M83.0968,-176.6932C101.4587,-161.3305 127.3635,-140.8442 152,-125.4932 157.8307,-121.8601 164.1491,-118.3331 170.4627,-115.0396"/>
<polygon fill="#191970" stroke="#191970" points="80.5969,-174.2236 75.2227,-183.3542 85.1179,-179.5678 80.5969,-174.2236"/>
</g>
<!-- Node3 -->
<g id="node3" class="node">
<title>Node3</title>
<g id="a_node3"><a xlink:href="tests_2allocators_8cpp_a3c04138a5bfe5d72780bb7e82a18e627.html#a3c04138a5bfe5d72780bb7e82a18e627" target="_top" target="_top" xlink:title="The main function that runs the tests. ">
<polygon fill="#ffffff" stroke="#000000" points="358,-371.9932 358,-390.9932 399,-390.9932 399,-371.9932 358,-371.9932"/>
<text text-anchor="middle" x="378.5" y="-378.9932" font-family="Helvetica,sans-Serif" font-size="10.00" fill="#000000">main</text>
</a>
</g>
</g>
<!-- Node2&#45;&gt;Node3 -->
<g id="edge2" class="edge">
<title>Node2&#45;&gt;Node3</title>
<path fill="none" stroke="#191970" d="M255.8131,-381.4932C288.1083,-381.4932 332.1085,-381.4932 357.6943,-381.4932"/>
<polygon fill="#191970" stroke="#191970" points="255.7771,-377.9933 245.777,-381.4932 255.777,-384.9933 255.7771,-377.9933"/>
</g>
<!-- Node4 -->
<g id="node4" class="node">
<title>Node4</title>
<g id="a_node4"><a xlink:href="argo_8h_aa84680ad78c3598c30a482ff71ec6bbc.html#aa84680ad78c3598c30a482ff71ec6bbc" target="_top" target="_top" xlink:title="initialize ArgoDSM system ">
<polygon fill="#ffffff" stroke="#000000" points="349,-409.9932 349,-428.9932 408,-428.9932 408,-409.9932 349,-409.9932"/>
<text text-anchor="middle" x="378.5" y="-416.9932" font-family="Helvetica,sans-Serif" font-size="10.00" fill="#000000">argo_init</text>
</a>
</g>
</g>
<!-- Node2&#45;&gt;Node4 -->
<g id="edge3" class="edge">
<title>Node2&#45;&gt;Node4</title>
<path fill="none" stroke="#191970" d="M255.5645,-390.8334C284.4512,-397.5677 322.7995,-406.5078 348.9347,-412.6007"/>
<polygon fill="#191970" stroke="#191970" points="256.3106,-387.4135 245.777,-388.5517 254.7212,-394.2307 256.3106,-387.4135"/>
</g>
<!-- Node6 -->
<g id="node6" class="node">
<title>Node6</title>
<g id="a_node6"><a xlink:href="namespaceargo_1_1data__distribution_acc3c36c6299a0636d31774e216102de1.html#acc3c36c6299a0636d31774e216102de1" target="_top" target="_top" xlink:title="based on the chosen policy, gets the required size we need to add to the standardisation of the ArgoD...">
<polygon fill="#ffffff" stroke="#000000" points="315,-44.4932 315,-74.4932 442,-74.4932 442,-44.4932 315,-44.4932"/>
<text text-anchor="start" x="323" y="-62.4932" font-family="Helvetica,sans-Serif" font-size="10.00" fill="#000000">argo::data_distribution</text>
<text text-anchor="middle" x="378.5" y="-51.4932" font-family="Helvetica,sans-Serif" font-size="10.00" fill="#000000">::policy_padding</text>
</a>
</g>
</g>
<!-- Node5&#45;&gt;Node6 -->
<g id="edge5" class="edge">
<title>Node5&#45;&gt;Node6</title>
<path fill="none" stroke="#191970" d="M241.6303,-261.7008C253.7514,-250.8948 267.8973,-237.236 279,-223.4932 319.6011,-173.2375 355.807,-104.9687 370.9628,-74.8487"/>
<polygon fill="#191970" stroke="#191970" points="239.2354,-259.1455 234.0099,-268.3621 243.8424,-264.4159 239.2354,-259.1455"/>
</g>
<!-- Node9 -->
<g id="node9" class="node">
<title>Node9</title>
<g id="a_node9"><a xlink:href="namespaceargo_1_1data__distribution_a2a70ed49553953957c3a28aa755d7ac8.html#a2a70ed49553953957c3a28aa755d7ac8" target="_top" target="_top" xlink:title="based on the chosen policy, gets the policy block size ">
<polygon fill="#ffffff" stroke="#000000" points="315,-284.4932 315,-314.4932 442,-314.4932 442,-284.4932 315,-284.4932"/>
<text text-anchor="start" x="323" y="-302.4932" font-family="Helvetica,sans-Serif" font-size="10.00" fill="#000000">argo::data_distribution</text>
<text text-anchor="middle" x="378.5" y="-291.4932" font-family="Helvetica,sans-Serif" font-size="10.00" fill="#000000">::policy_block_size</text>
</a>
</g>
</g>
<!-- Node5&#45;&gt;Node9 -->
<g id="edge8" class="edge">
<title>Node5&#45;&gt;Node9</title>
<path fill="none" stroke="#191970" d="M289.4095,-290.7481C297.9533,-291.5868 306.6094,-292.4364 314.9977,-293.2598"/>
<polygon fill="#191970" stroke="#191970" points="289.7482,-287.2646 279.4541,-289.7709 289.0643,-294.2311 289.7482,-287.2646"/>
</g>
<!-- Node34 -->
<g id="node34" class="node">
<title>Node34</title>
<g id="a_node34"><a xlink:href="api_8cpp_a42290e9787e669eb9618124225ff8010.html#a42290e9787e669eb9618124225ff8010" target="_top" target="_top" xlink:title="Unittest that checks that argo::get_block_size() is consistent with argo::env::block_size() for all c...">
<polygon fill="#ffffff" stroke="#000000" points="663,-330.9932 663,-349.9932 714,-349.9932 714,-330.9932 663,-330.9932"/>
<text text-anchor="middle" x="688.5" y="-337.9932" font-family="Helvetica,sans-Serif" font-size="10.00" fill="#000000">TEST_F</text>
</a>
</g>
</g>
<!-- Node5&#45;&gt;Node34 -->
<g id="edge41" class="edge">
<title>Node5&#45;&gt;Node34</title>
<path fill="none" stroke="#191970" d="M253.7255,-302.9071C271.8224,-311.1335 294.0244,-319.8723 315,-324.4932 443.0344,-352.6991 601.563,-346.3545 662.7453,-342.4228"/>
<polygon fill="#191970" stroke="#191970" points="255.2062,-299.7357 244.6644,-298.6764 252.2447,-306.0784 255.2062,-299.7357"/>
</g>
<!-- Node7 -->
<g id="node7" class="node">
<title>Node7</title>
<g id="a_node7"><a xlink:href="swdsm_8h_a10dca85d339ce630cf42dca685b3f6d9.html#a10dca85d339ce630cf42dca685b3f6d9" target="_top" target="_top" xlink:title="Initializes ArgoDSM runtime. ">
<polygon fill="#ffffff" stroke="#000000" points="1536.5,-70.9932 1536.5,-89.9932 1622.5,-89.9932 1622.5,-70.9932 1536.5,-70.9932"/>
<text text-anchor="middle" x="1579.5" y="-77.9932" font-family="Helvetica,sans-Serif" font-size="10.00" fill="#000000">argo_initialize</text>
</a>
</g>
</g>
<!-- Node6&#45;&gt;Node7 -->
<g id="edge6" class="edge">
<title>Node6&#45;&gt;Node7</title>
<path fill="none" stroke="#191970" d="M452.2303,-60.6079C515.0382,-61.4613 607.6908,-62.4932 688.5,-62.4932 688.5,-62.4932 688.5,-62.4932 1268,-62.4932 1364.0165,-62.4932 1476.4038,-71.1223 1536.4625,-76.4312"/>
<polygon fill="#191970" stroke="#191970" points="452.0728,-57.1055 442.0254,-60.4672 451.9762,-64.1048 452.0728,-57.1055"/>
</g>
<!-- Node8 -->
<g id="node8" class="node">
<title>Node8</title>
<g id="a_node8"><a xlink:href="backend_8hpp_af0d80a03a17a374c10d9635ddf81e261.html#af0d80a03a17a374c10d9635ddf81e261" target="_top" target="_top" xlink:title="initialize backend ">
<polygon fill="#ffffff" stroke="#000000" points="1669,-70.9932 1669,-89.9932 1776,-89.9932 1776,-70.9932 1669,-70.9932"/>
<text text-anchor="middle" x="1722.5" y="-77.9932" font-family="Helvetica,sans-Serif" font-size="10.00" fill="#000000">argo::backend::init</text>
</a>
</g>
</g>
<!-- Node7&#45;&gt;Node8 -->
<g id="edge7" class="edge">
<title>Node7&#45;&gt;Node8</title>
<path fill="none" stroke="#191970" d="M1632.933,-80.4932C1644.7171,-80.4932 1657.2019,-80.4932 1668.9891,-80.4932"/>
<polygon fill="#191970" stroke="#191970" points="1632.7928,-76.9933 1622.7928,-80.4932 1632.7927,-83.9933 1632.7928,-76.9933"/>
</g>
<!-- Node10 -->
<g id="node10" class="node">
<title>Node10</title>
<g id="a_node10"><a xlink:href="namespaceargo_a2f35b6b6e0af76fb8fb47f2031d6f58e.html#a2f35b6b6e0af76fb8fb47f2031d6f58e" target="_top" target="_top" xlink:title="Get the block size of the current allocation policy. ">
<polygon fill="#ffffff" stroke="#000000" points="478,-254.9932 478,-273.9932 594,-273.9932 594,-254.9932 478,-254.9932"/>
<text text-anchor="middle" x="536" y="-261.9932" font-family="Helvetica,sans-Serif" font-size="10.00" fill="#000000">argo::get_block_size</text>
</a>
</g>
</g>
<!-- Node9&#45;&gt;Node10 -->
<g id="edge9" class="edge">
<title>Node9&#45;&gt;Node10</title>
<path fill="none" stroke="#191970" d="M452.2,-283.1154C466.1466,-280.0162 480.3054,-276.8698 492.9169,-274.0672"/>
<polygon fill="#191970" stroke="#191970" points="451.1099,-279.7722 442.1073,-285.3582 452.6284,-286.6055 451.1099,-279.7722"/>
</g>
<!-- Node11 -->
<g id="node11" class="node">
<title>Node11</title>
<g id="a_node11"><a xlink:href="argo_8h_ad0931c5341a3b07302a3a019834280f6.html#ad0931c5341a3b07302a3a019834280f6" target="_top" target="_top" xlink:title="Get the block size of the current allocation policy. ">
<polygon fill="#ffffff" stroke="#000000" points="630.5,-292.9932 630.5,-311.9932 746.5,-311.9932 746.5,-292.9932 630.5,-292.9932"/>
<text text-anchor="middle" x="688.5" y="-299.9932" font-family="Helvetica,sans-Serif" font-size="10.00" fill="#000000">argo_get_block_size</text>
</a>
</g>
</g>
<!-- Node10&#45;&gt;Node11 -->
<g id="edge10" class="edge">
<title>Node10&#45;&gt;Node11</title>
<path fill="none" stroke="#191970" d="M584.3184,-276.5332C605.6234,-281.842 630.3042,-287.992 650.2945,-292.9731"/>
<polygon fill="#191970" stroke="#191970" points="585.0318,-273.104 574.4822,-274.0822 583.3392,-279.8963 585.0318,-273.104"/>
</g>
<!-- Node12 -->
<g id="node12" class="node">
<title>Node12</title>
<g id="a_node12"><a xlink:href="namespaceargo_a48dc17c94275df10a8e7f3959cbf0191.html#a48dc17c94275df10a8e7f3959cbf0191" target="_top" target="_top" xlink:title="Get the ArgoDSM node id where addr is physically backed. ">
<polygon fill="#ffffff" stroke="#000000" points="630,-254.9932 630,-273.9932 747,-273.9932 747,-254.9932 630,-254.9932"/>
<text text-anchor="middle" x="688.5" y="-261.9932" font-family="Helvetica,sans-Serif" font-size="10.00" fill="#000000">argo::get_homenode</text>
</a>
</g>
</g>
<!-- Node10&#45;&gt;Node12 -->
<g id="edge11" class="edge">
<title>Node10&#45;&gt;Node12</title>
<path fill="none" stroke="#191970" d="M604.3579,-264.4932C612.8541,-264.4932 621.4824,-264.4932 629.8147,-264.4932"/>
<polygon fill="#191970" stroke="#191970" points="604.0888,-260.9933 594.0887,-264.4932 604.0887,-267.9933 604.0888,-260.9933"/>
</g>
<!-- Node10&#45;&gt;Node34 -->
<g id="edge40" class="edge">
<title>Node10&#45;&gt;Node34</title>
<path fill="none" stroke="#191970" d="M573.9764,-277.9569C580.8569,-281.0182 587.8073,-284.5488 594,-288.4932 612.3069,-300.1537 611.2507,-310.5582 630,-321.4932 640.0545,-327.3572 652.1524,-331.6722 662.7308,-334.6941"/>
<polygon fill="#191970" stroke="#191970" points="575.291,-274.7129 564.7152,-274.0783 572.587,-281.1696 575.291,-274.7129"/>
</g>
<!-- Node13 -->
<g id="node13" class="node">
<title>Node13</title>
<g id="a_node13"><a xlink:href="argo_8h_aa4a06a633ece5fbb94b9d8f0a6479e4c.html#aa4a06a633ece5fbb94b9d8f0a6479e4c" target="_top" target="_top" xlink:title="Get the ArgoDSM node id where addr is physically backed. ">
<polygon fill="#ffffff" stroke="#000000" points="783,-295.9932 783,-314.9932 899,-314.9932 899,-295.9932 783,-295.9932"/>
<text text-anchor="middle" x="841" y="-302.9932" font-family="Helvetica,sans-Serif" font-size="10.00" fill="#000000">argo_get_homenode</text>
</a>
</g>
</g>
<!-- Node12&#45;&gt;Node13 -->
<g id="edge12" class="edge">
<title>Node12&#45;&gt;Node13</title>
<path fill="none" stroke="#191970" d="M733.7291,-276.6532C756.6838,-282.8246 784.1602,-290.2117 805.5581,-295.9646"/>
<polygon fill="#191970" stroke="#191970" points="734.4357,-273.2189 723.8699,-274.0025 732.6182,-279.9789 734.4357,-273.2189"/>
</g>
<!-- Node14 -->
<g id="node14" class="node">
<title>Node14</title>
<g id="a_node14"><a xlink:href="classwrite__buffer_aa2325346aceb3e7ffdbdbdc8e8682147.html#aa2325346aceb3e7ffdbdbdc8e8682147" target="_top" target="_top" xlink:title="Sorts all elements by home node id in ascending order. ">
<polygon fill="#ffffff" stroke="#000000" points="791,-333.9932 791,-352.9932 891,-352.9932 891,-333.9932 791,-333.9932"/>
<text text-anchor="middle" x="841" y="-340.9932" font-family="Helvetica,sans-Serif" font-size="10.00" fill="#000000">write_buffer::sort</text>
</a>
</g>
</g>
<!-- Node12&#45;&gt;Node14 -->
<g id="edge13" class="edge">
<title>Node12&#45;&gt;Node14</title>
<path fill="none" stroke="#191970" d="M737.1785,-277.9973C740.6064,-279.6397 743.9199,-281.4658 747,-283.4932 767.2555,-296.826 762.7614,-311.1348 783,-324.4932 788.7481,-328.2872 795.3165,-331.3795 801.9179,-333.8818"/>
<polygon fill="#191970" stroke="#191970" points="738.4916,-274.7525 727.9189,-274.0675 735.7568,-281.1962 738.4916,-274.7525"/>
</g>
<!-- Node29 -->
<g id="node29" class="node">
<title>Node29</title>
<g id="a_node29"><a xlink:href="classwrite__buffer_a9e8cf81e623c4bb67f687379f8709a53.html#a9e8cf81e623c4bb67f687379f8709a53" target="_top" target="_top" xlink:title="Sorts the first _write_back_size elements by home node id in ascending order. ">
<polygon fill="#ffffff" stroke="#000000" points="791,-246.4932 791,-276.4932 891,-276.4932 891,-246.4932 791,-246.4932"/>
<text text-anchor="start" x="799" y="-264.4932" font-family="Helvetica,sans-Serif" font-size="10.00" fill="#000000">write_buffer::sort</text>
<text text-anchor="middle" x="841" y="-253.4932" font-family="Helvetica,sans-Serif" font-size="10.00" fill="#000000">_first</text>
</a>
</g>
</g>
<!-- Node12&#45;&gt;Node29 -->
<g id="edge34" class="edge">
<title>Node12&#45;&gt;Node29</title>
<path fill="none" stroke="#191970" d="M757.3019,-263.1397C768.5917,-262.9176 780.1014,-262.6912 790.8282,-262.4802"/>
<polygon fill="#191970" stroke="#191970" points="756.9535,-259.6458 747.0243,-263.3419 757.0913,-266.6444 756.9535,-259.6458"/>
</g>
<!-- Node33 -->
<g id="node33" class="node">
<title>Node33</title>
<g id="a_node33"><a xlink:href="api_8cpp_a6255f7c304a854275724ca1df48fab28.html#a6255f7c304a854275724ca1df48fab28" target="_top" target="_top" xlink:title="Unittest that checks correctness of the argo::get_homenode(T* addr) API function. ...">
<polygon fill="#ffffff" stroke="#000000" points="815.5,-371.9932 815.5,-390.9932 866.5,-390.9932 866.5,-371.9932 815.5,-371.9932"/>
<text text-anchor="middle" x="841" y="-378.9932" font-family="Helvetica,sans-Serif" font-size="10.00" fill="#000000">TEST_F</text>
</a>
</g>
</g>
<!-- Node12&#45;&gt;Node33 -->
<g id="edge39" class="edge">
<title>Node12&#45;&gt;Node33</title>
<path fill="none" stroke="#191970" d="M740.8257,-278.808C743.0094,-280.2252 745.0829,-281.7823 747,-283.4932 775.7877,-309.1848 754.2448,-336.7652 783,-362.4932 791.9232,-370.477 804.2695,-375.1145 815.2785,-377.8044"/>
<polygon fill="#191970" stroke="#191970" points="742.416,-275.689 731.9556,-274.0067 739.0838,-281.845 742.416,-275.689"/>
</g>
<!-- Node15 -->
<g id="node15" class="node">
<title>Node15</title>
<g id="a_node15"><a xlink:href="classwrite__buffer_aca2e330e17a38c1cc8d8c60701ce9dd7.html#aca2e330e17a38c1cc8d8c60701ce9dd7" target="_top" target="_top" xlink:title="Flushes the ArgoDSM write buffer to memory. ">
<polygon fill="#ffffff" stroke="#000000" points="935,-327.9932 935,-346.9932 1039,-346.9932 1039,-327.9932 935,-327.9932"/>
<text text-anchor="middle" x="987" y="-334.9932" font-family="Helvetica,sans-Serif" font-size="10.00" fill="#000000">write_buffer::flush</text>
</a>
</g>
</g>
<!-- Node14&#45;&gt;Node15 -->
<g id="edge14" class="edge">
<title>Node14&#45;&gt;Node15</title>
<path fill="none" stroke="#191970" d="M901.2791,-341.016C912.362,-340.5605 923.8486,-340.0885 934.6741,-339.6436"/>
<polygon fill="#191970" stroke="#191970" points="901.0927,-337.5206 891.2449,-341.4283 901.3802,-344.5147 901.0927,-337.5206"/>
</g>
<!-- Node16 -->
<g id="node16" class="node">
<title>Node16</title>
<g id="a_node16"><a xlink:href="swdsm_8h_aa7c3a2de6bbafdaf68fe6ceb6110ab97.html#aa7c3a2de6bbafdaf68fe6ceb6110ab97" target="_top" target="_top" xlink:title="Self&#45;Invalidates all memory that has potential writers. ">
<polygon fill="#ffffff" stroke="#000000" points="1075.5,-323.9932 1075.5,-342.9932 1173.5,-342.9932 1173.5,-323.9932 1075.5,-323.9932"/>
<text text-anchor="middle" x="1124.5" y="-330.9932" font-family="Helvetica,sans-Serif" font-size="10.00" fill="#000000">self_invalidation</text>
</a>
</g>
</g>
<!-- Node15&#45;&gt;Node16 -->
<g id="edge15" class="edge">
<title>Node15&#45;&gt;Node16</title>
<path fill="none" stroke="#191970" d="M1049.494,-335.6752C1058.1954,-335.4221 1067.0315,-335.165 1075.4386,-334.9204"/>
<polygon fill="#191970" stroke="#191970" points="1049.2691,-332.1802 1039.3751,-335.9696 1049.4727,-339.1772 1049.2691,-332.1802"/>
</g>
<!-- Node17 -->
<g id="node17" class="node">
<title>Node17</title>
<g id="a_node17"><a xlink:href="swdsm_8h_ad3f5bdae81c60ac704dda7372792427d.html#ad3f5bdae81c60ac704dda7372792427d" target="_top" target="_top" xlink:title="Global barrier for ArgoDSM &#45; needs to be called by every thread in the system that need coherent view...">
<polygon fill="#ffffff" stroke="#000000" points="1210,-282.9932 1210,-301.9932 1326,-301.9932 1326,-282.9932 1210,-282.9932"/>
<text text-anchor="middle" x="1268" y="-289.9932" font-family="Helvetica,sans-Serif" font-size="10.00" fill="#000000">swdsm_argo_barrier</text>
</a>
</g>
</g>
<!-- Node15&#45;&gt;Node17 -->
<g id="edge28" class="edge">
<title>Node15&#45;&gt;Node17</title>
<path fill="none" stroke="#191970" d="M1028.6626,-325.3071C1043.2213,-321.3952 1059.7392,-317.3424 1075,-314.4932 1119.9198,-306.1068 1171.3577,-300.4348 1209.8292,-296.9532"/>
<polygon fill="#191970" stroke="#191970" points="1027.6532,-321.9546 1018.936,-327.9763 1029.5057,-328.7051 1027.6532,-321.9546"/>
</g>
<!-- Node27 -->
<g id="node27" class="node">
<title>Node27</title>
<g id="a_node27"><a xlink:href="swdsm_8h_ad390eb58e1be03ed6a0939fae7ebd20a.html#ad390eb58e1be03ed6a0939fae7ebd20a" target="_top" target="_top" xlink:title="Release function for ArgoDSM (Release according to Release Consistency) ">
<polygon fill="#ffffff" stroke="#000000" points="1228,-377.9932 1228,-396.9932 1308,-396.9932 1308,-377.9932 1228,-377.9932"/>
<text text-anchor="middle" x="1268" y="-384.9932" font-family="Helvetica,sans-Serif" font-size="10.00" fill="#000000">argo_release</text>
</a>
</g>
</g>
<!-- Node15&#45;&gt;Node27 -->
<g id="edge29" class="edge">
<title>Node15&#45;&gt;Node27</title>
<path fill="none" stroke="#191970" d="M1049.0879,-348.5409C1103.5785,-358.2367 1181.2173,-372.0514 1227.8982,-380.3576"/>
<polygon fill="#191970" stroke="#191970" points="1049.6539,-345.0867 1039.1954,-346.7806 1048.4276,-351.9784 1049.6539,-345.0867"/>
</g>
<!-- Node16&#45;&gt;Node17 -->
<g id="edge16" class="edge">
<title>Node16&#45;&gt;Node17</title>
<path fill="none" stroke="#191970" d="M1167.6055,-321.1774C1189.0049,-315.0632 1214.4716,-307.787 1234.4009,-302.0929"/>
<polygon fill="#191970" stroke="#191970" points="1166.4362,-317.8713 1157.7825,-323.9839 1168.3593,-324.602 1166.4362,-317.8713"/>
</g>
<!-- Node23 -->
<g id="node23" class="node">
<title>Node23</title>
<g id="a_node23"><a xlink:href="swdsm_8h_a44b8bb7a3c8b47b4f9552c8e10b25e4b.html#a44b8bb7a3c8b47b4f9552c8e10b25e4b" target="_top" target="_top" xlink:title="acquire function for ArgoDSM (Acquire according to Release Consistency) ">
<polygon fill="#ffffff" stroke="#000000" points="1228,-323.9932 1228,-342.9932 1308,-342.9932 1308,-323.9932 1228,-323.9932"/>
<text text-anchor="middle" x="1268" y="-330.9932" font-family="Helvetica,sans-Serif" font-size="10.00" fill="#000000">argo_acquire</text>
</a>
</g>
</g>
<!-- Node16&#45;&gt;Node23 -->
<g id="edge23" class="edge">
<title>Node16&#45;&gt;Node23</title>
<path fill="none" stroke="#191970" d="M1183.9117,-333.4932C1198.6052,-333.4932 1214.0103,-333.4932 1227.5617,-333.4932"/>
<polygon fill="#191970" stroke="#191970" points="1183.8846,-329.9933 1173.8846,-333.4932 1183.8845,-336.9933 1183.8846,-329.9933"/>
</g>
<!-- Node18 -->
<g id="node18" class="node">
<title>Node18</title>
<g id="a_node18"><a xlink:href="backend_8hpp_af1a647431651556204709451bebb5a42.html#af1a647431651556204709451bebb5a42" target="_top" target="_top" xlink:title="a simple collective barrier ">
<polygon fill="#ffffff" stroke="#000000" points="1364,-245.9932 1364,-264.9932 1488,-264.9932 1488,-245.9932 1364,-245.9932"/>
<text text-anchor="middle" x="1426" y="-252.9932" font-family="Helvetica,sans-Serif" font-size="10.00" fill="#000000">argo::backend::barrier</text>
</a>
</g>
</g>
<!-- Node17&#45;&gt;Node18 -->
<g id="edge17" class="edge">
<title>Node17&#45;&gt;Node18</title>
<path fill="none" stroke="#191970" d="M1318.6312,-280.6365C1340.1334,-275.6012 1364.8689,-269.8087 1385.1747,-265.0536"/>
<polygon fill="#191970" stroke="#191970" points="1317.6275,-277.2768 1308.6889,-282.9648 1319.2236,-284.0924 1317.6275,-277.2768"/>
</g>
<!-- Node19 -->
<g id="node19" class="node">
<title>Node19</title>
<g id="a_node19"><a xlink:href="swdsm_8h_acd175d6d8efa5cce6963bae64891a490.html#acd175d6d8efa5cce6963bae64891a490" target="_top" target="_top" xlink:title="Allocates memory in global address space. ">
<polygon fill="#ffffff" stroke="#000000" points="1384.5,-283.9932 1384.5,-302.9932 1467.5,-302.9932 1467.5,-283.9932 1384.5,-283.9932"/>
<text text-anchor="middle" x="1426" y="-290.9932" font-family="Helvetica,sans-Serif" font-size="10.00" fill="#000000">argo_gmalloc</text>
</a>
</g>
</g>
<!-- Node17&#45;&gt;Node19 -->
<g id="edge18" class="edge">
<title>Node17&#45;&gt;Node19</title>
<path fill="none" stroke="#191970" d="M1336.3948,-292.9261C1352.6389,-293.0289 1369.4922,-293.1356 1384.14,-293.2283"/>
<polygon fill="#191970" stroke="#191970" points="1336.4065,-289.4262 1326.3845,-292.8627 1336.3621,-296.426 1336.4065,-289.4262"/>
</g>
<!-- Node20 -->
<g id="node20" class="node">
<title>Node20</title>
<g id="a_node20"><a xlink:href="swdsm_8cpp_aa954d5e0bcaee69ff6e03e697bcaf68b.html#aa954d5e0bcaee69ff6e03e697bcaf68b" target="_top" target="_top" xlink:title="shut down ArgoDSM system ">
<polygon fill="#ffffff" stroke="#000000" points="1386.5,-169.9932 1386.5,-188.9932 1465.5,-188.9932 1465.5,-169.9932 1386.5,-169.9932"/>
<text text-anchor="middle" x="1426" y="-176.9932" font-family="Helvetica,sans-Serif" font-size="10.00" fill="#000000">argo_finalize</text>
</a>
</g>
</g>
<!-- Node17&#45;&gt;Node20 -->
<g id="edge19" class="edge">
<title>Node17&#45;&gt;Node20</title>
<path fill="none" stroke="#191970" d="M1289.6104,-277.0377C1322.7594,-253.3298 1385.1902,-208.6799 1412.5631,-189.1031"/>
<polygon fill="#191970" stroke="#191970" points="1287.5688,-274.1947 1281.471,-282.8589 1291.6409,-279.8884 1287.5688,-274.1947"/>
</g>
<!-- Node22 -->
<g id="node22" class="node">
<title>Node22</title>
<g id="a_node22"><a xlink:href="swdsm_8h_a0c6b51af2b87ddf7eb04aa7d4e0e836e.html#a0c6b51af2b87ddf7eb04aa7d4e0e836e" target="_top" target="_top" xlink:title="Resets current coherence. Collective function called by all threads on all nodes. ...">
<polygon fill="#ffffff" stroke="#000000" points="1364,-131.9932 1364,-150.9932 1488,-150.9932 1488,-131.9932 1364,-131.9932"/>
<text text-anchor="middle" x="1426" y="-138.9932" font-family="Helvetica,sans-Serif" font-size="10.00" fill="#000000">argo_reset_coherence</text>
</a>
</g>
</g>
<!-- Node17&#45;&gt;Node22 -->
<g id="edge21" class="edge">
<title>Node17&#45;&gt;Node22</title>
<path fill="none" stroke="#191970" d="M1276.4469,-273.5156C1290.212,-244.7611 1320.203,-190.3504 1362,-160.4932 1367.4701,-156.5857 1373.7468,-153.4735 1380.1837,-150.9968"/>
<polygon fill="#191970" stroke="#191970" points="1273.1477,-272.3109 1272.1179,-282.8556 1279.4987,-275.2545 1273.1477,-272.3109"/>
</g>
<!-- Node21 -->
<g id="node21" class="node">
<title>Node21</title>
<g id="a_node21"><a xlink:href="swdsm_8h_a18cc89a7368e30281ea4b1d214a1b1ff.html#a18cc89a7368e30281ea4b1d214a1b1ff" target="_top" target="_top" xlink:title="Pins and registers the local thread. ">
<polygon fill="#ffffff" stroke="#000000" points="1529,-169.9932 1529,-188.9932 1630,-188.9932 1630,-169.9932 1529,-169.9932"/>
<text text-anchor="middle" x="1579.5" y="-176.9932" font-family="Helvetica,sans-Serif" font-size="10.00" fill="#000000">argo_pin_threads</text>
</a>
</g>
</g>
<!-- Node20&#45;&gt;Node21 -->
<g id="edge20" class="edge">
<title>Node20&#45;&gt;Node21</title>
<path fill="none" stroke="#191970" d="M1475.8002,-179.4932C1492.7693,-179.4932 1511.7517,-179.4932 1528.7913,-179.4932"/>
<polygon fill="#191970" stroke="#191970" points="1475.5301,-175.9933 1465.5301,-179.4932 1475.53,-182.9933 1475.5301,-175.9933"/>
</g>
<!-- Node22&#45;&gt;Node7 -->
<g id="edge22" class="edge">
<title>Node22&#45;&gt;Node7</title>
<path fill="none" stroke="#191970" d="M1459.9867,-128.2902C1469.6898,-124.501 1480.2692,-120.3507 1490,-116.4932 1512.4199,-107.6056 1537.9357,-97.3259 1555.9708,-90.0323"/>
<polygon fill="#191970" stroke="#191970" points="1458.685,-125.041 1450.6397,-131.9348 1461.228,-131.5628 1458.685,-125.041"/>
</g>
<!-- Node24 -->
<g id="node24" class="node">
<title>Node24</title>
<g id="a_node24"><a xlink:href="backend_8hpp_a1032f833666c3f810ac1c6210197d426.html#a1032f833666c3f810ac1c6210197d426" target="_top" target="_top" xlink:title="causes a node to self&#45;invalidate its cache, and thus getting any updated values on subsequent accesse...">
<polygon fill="#ffffff" stroke="#000000" points="1362,-321.9932 1362,-340.9932 1490,-340.9932 1490,-321.9932 1362,-321.9932"/>
<text text-anchor="middle" x="1426" y="-328.9932" font-family="Helvetica,sans-Serif" font-size="10.00" fill="#000000">argo::backend::acquire</text>
</a>
</g>
</g>
<!-- Node23&#45;&gt;Node24 -->
<g id="edge24" class="edge">
<title>Node23&#45;&gt;Node24</title>
<path fill="none" stroke="#191970" d="M1318.5231,-332.8537C1332.3033,-332.6792 1347.4182,-332.4879 1361.8475,-332.3053"/>
<polygon fill="#191970" stroke="#191970" points="1318.2337,-329.357 1308.2789,-332.9833 1318.3224,-336.3564 1318.2337,-329.357"/>
</g>
<!-- Node26 -->
<g id="node26" class="node">
<title>Node26</title>
<g id="a_node26"><a xlink:href="swdsm_8h_ac0b665f72bc2a28dc663ed204c526e1b.html#ac0b665f72bc2a28dc663ed204c526e1b" target="_top" target="_top" xlink:title="acquire&#45;release function for ArgoDSM (Both acquire and release according to Release Consistency) ...">
<polygon fill="#ffffff" stroke="#000000" points="1386.5,-377.9932 1386.5,-396.9932 1465.5,-396.9932 1465.5,-377.9932 1386.5,-377.9932"/>
<text text-anchor="middle" x="1426" y="-384.9932" font-family="Helvetica,sans-Serif" font-size="10.00" fill="#000000">argo_acq_rel</text>
</a>
</g>
</g>
<!-- Node23&#45;&gt;Node26 -->
<g id="edge27" class="edge">
<title>Node23&#45;&gt;Node26</title>
<path fill="none" stroke="#191970" d="M1301.5895,-346.6305C1319.4316,-353.4484 1341.7935,-361.7406 1362,-368.4932 1371.7836,-371.7627 1382.4999,-375.0553 1392.3179,-377.9598"/>
<polygon fill="#191970" stroke="#191970" points="1302.7745,-343.3364 1292.1846,-343.0135 1300.2618,-349.8699 1302.7745,-343.3364"/>
</g>
<!-- Node24&#45;&gt;Node24 -->
<g id="edge25" class="edge">
<title>Node24&#45;&gt;Node24</title>
<path fill="none" stroke="#191970" d="M1397.6275,-350.1471C1398.8135,-355.43 1408.271,-359.4932 1426,-359.4932 1453.0156,-359.4932 1460.8248,-350.0585 1449.4276,-341.2503"/>
<polygon fill="#191970" stroke="#191970" points="1400.7735,-351.6913 1402.5724,-341.2503 1394.6551,-348.2906 1400.7735,-351.6913"/>
</g>
<!-- Node25 -->
<g id="node25" class="node">
<title>Node25</title>
<g id="a_node25"><a xlink:href="singlenode_8cpp_aab3cabb3e1c0b9696b339416b684f78c.html#aab3cabb3e1c0b9696b339416b684f78c" target="_top" target="_top" xlink:title="argo::backend::init">
<polygon fill="#ffffff" stroke="#000000" points="1526,-321.9932 1526,-340.9932 1633,-340.9932 1633,-321.9932 1526,-321.9932"/>
<text text-anchor="middle" x="1579.5" y="-328.9932" font-family="Helvetica,sans-Serif" font-size="10.00" fill="#000000">argo::backend::init</text>
</a>
</g>
</g>
<!-- Node24&#45;&gt;Node25 -->
<g id="edge26" class="edge">
<title>Node24&#45;&gt;Node25</title>
<path fill="none" stroke="#191970" d="M1500.2612,-331.4932C1508.8631,-331.4932 1517.5067,-331.4932 1525.7592,-331.4932"/>
<polygon fill="#191970" stroke="#191970" points="1500.2084,-327.9933 1490.2084,-331.4932 1500.2084,-334.9933 1500.2084,-327.9933"/>
</g>
<!-- Node27&#45;&gt;Node26 -->
<g id="edge33" class="edge">
<title>Node27&#45;&gt;Node26</title>
<path fill="none" stroke="#191970" d="M1318.4252,-387.4932C1340.3886,-387.4932 1365.7577,-387.4932 1386.3418,-387.4932"/>
<polygon fill="#191970" stroke="#191970" points="1318.2789,-383.9933 1308.2789,-387.4932 1318.2788,-390.9933 1318.2789,-383.9933"/>
</g>
<!-- Node28 -->
<g id="node28" class="node">
<title>Node28</title>
<g id="a_node28"><a xlink:href="backend_8hpp_a8953c9cd9d3c56306740b6c9b97513a2.html#a8953c9cd9d3c56306740b6c9b97513a2" target="_top" target="_top" xlink:title="causes a node to self&#45;downgrade its cache, making all previous writes to be propagated to the homenod...">
<polygon fill="#ffffff" stroke="#000000" points="1362,-415.9932 1362,-434.9932 1490,-434.9932 1490,-415.9932 1362,-415.9932"/>
<text text-anchor="middle" x="1426" y="-422.9932" font-family="Helvetica,sans-Serif" font-size="10.00" fill="#000000">argo::backend::release</text>
</a>
</g>
</g>
<!-- Node27&#45;&gt;Node28 -->
<g id="edge30" class="edge">
<title>Node27&#45;&gt;Node28</title>
<path fill="none" stroke="#191970" d="M1317.7616,-399.4612C1339.9029,-404.7863 1365.6116,-410.9694 1386.4166,-415.9731"/>
<polygon fill="#191970" stroke="#191970" points="1318.4113,-396.0177 1307.8701,-397.0822 1316.7744,-402.8236 1318.4113,-396.0177"/>
</g>
<!-- Node28&#45;&gt;Node25 -->
<g id="edge32" class="edge">
<title>Node28&#45;&gt;Node25</title>
<path fill="none" stroke="#191970" d="M1476.7537,-412.5543C1481.3339,-410.7554 1485.8171,-408.7406 1490,-406.4932 1523.2161,-388.6465 1555.4115,-357.1413 1570.5348,-341.2463"/>
<polygon fill="#191970" stroke="#191970" points="1475.5138,-409.2806 1467.2809,-415.9491 1477.8755,-415.8702 1475.5138,-409.2806"/>
</g>
<!-- Node28&#45;&gt;Node28 -->
<g id="edge31" class="edge">
<title>Node28&#45;&gt;Node28</title>
<path fill="none" stroke="#191970" d="M1397.6275,-444.1471C1398.8135,-449.43 1408.271,-453.4932 1426,-453.4932 1453.0156,-453.4932 1460.8248,-444.0585 1449.4276,-435.2503"/>
<polygon fill="#191970" stroke="#191970" points="1400.7735,-445.6913 1402.5724,-435.2503 1394.6551,-442.2906 1400.7735,-445.6913"/>
</g>
<!-- Node30 -->
<g id="node30" class="node">
<title>Node30</title>
<g id="a_node30"><a xlink:href="classwrite__buffer_aa6a1c2c3aa3a7cde744bbca3b14f599a.html#aa6a1c2c3aa3a7cde744bbca3b14f599a" target="_top" target="_top" xlink:title="Flushes first _write_back_size elements of the ArgoDSM write buffer to memory. ">
<polygon fill="#ffffff" stroke="#000000" points="935,-246.4932 935,-276.4932 1039,-276.4932 1039,-246.4932 935,-246.4932"/>
<text text-anchor="start" x="943" y="-264.4932" font-family="Helvetica,sans-Serif" font-size="10.00" fill="#000000">write_buffer::flush</text>
<text text-anchor="middle" x="987" y="-253.4932" font-family="Helvetica,sans-Serif" font-size="10.00" fill="#000000">_partial</text>
</a>
</g>
</g>
<!-- Node29&#45;&gt;Node30 -->
<g id="edge35" class="edge">
<title>Node29&#45;&gt;Node30</title>
<path fill="none" stroke="#191970" d="M901.2791,-261.4932C912.362,-261.4932 923.8486,-261.4932 934.6741,-261.4932"/>
<polygon fill="#191970" stroke="#191970" points="901.245,-257.9933 891.2449,-261.4932 901.2449,-264.9933 901.245,-257.9933"/>
</g>
<!-- Node31 -->
<g id="node31" class="node">
<title>Node31</title>
<g id="a_node31"><a xlink:href="classwrite__buffer_a23b0dbc463111cacbbf83b267e76ac9f.html#a23b0dbc463111cacbbf83b267e76ac9f" target="_top" target="_top" xlink:title="Adds a new element to the write buffer. ">
<polygon fill="#ffffff" stroke="#000000" points="1075,-247.9932 1075,-266.9932 1174,-266.9932 1174,-247.9932 1075,-247.9932"/>
<text text-anchor="middle" x="1124.5" y="-254.9932" font-family="Helvetica,sans-Serif" font-size="10.00" fill="#000000">write_buffer::add</text>
</a>
</g>
</g>
<!-- Node30&#45;&gt;Node31 -->
<g id="edge36" class="edge">
<title>Node30&#45;&gt;Node31</title>
<path fill="none" stroke="#191970" d="M1049.6432,-259.6709C1058.1411,-259.4236 1066.7644,-259.1728 1074.9884,-258.9335"/>
<polygon fill="#191970" stroke="#191970" points="1049.2691,-256.1802 1039.3751,-259.9696 1049.4727,-263.1772 1049.2691,-256.1802"/>
</g>
<!-- Node32 -->
<g id="node32" class="node">
<title>Node32</title>
<g id="a_node32"><a xlink:href="swdsm_8h_a8b00f264b792522b179fbc9c818187bd.html#a8b00f264b792522b179fbc9c818187bd" target="_top" target="_top" xlink:title="Catches memory accesses to memory not yet cached in ArgoDSM. Launches remote requests for memory not ...">
<polygon fill="#ffffff" stroke="#000000" points="1241.5,-93.9932 1241.5,-112.9932 1294.5,-112.9932 1294.5,-93.9932 1241.5,-93.9932"/>
<text text-anchor="middle" x="1268" y="-100.9932" font-family="Helvetica,sans-Serif" font-size="10.00" fill="#000000">handler</text>
</a>
</g>
</g>
<!-- Node31&#45;&gt;Node32 -->
<g id="edge37" class="edge">
<title>Node31&#45;&gt;Node32</title>
<path fill="none" stroke="#191970" d="M1140.3539,-240.4793C1170.5173,-208.1088 1235.2734,-138.6144 1259.0268,-113.1229"/>
<polygon fill="#191970" stroke="#191970" points="1137.7332,-238.1577 1133.4766,-247.8598 1142.8545,-242.9298 1137.7332,-238.1577"/>
</g>
<!-- Node32&#45;&gt;Node7 -->
<g id="edge38" class="edge">
<title>Node32&#45;&gt;Node7</title>
<path fill="none" stroke="#191970" d="M1304.7054,-100.783C1362.563,-96.511 1474.7105,-88.2305 1536.3407,-83.6799"/>
<polygon fill="#191970" stroke="#191970" points="1304.2734,-97.3053 1294.5583,-101.5322 1304.7889,-104.2863 1304.2734,-97.3053"/>
</g>
<!-- Node35&#45;&gt;Node6 -->
<g id="edge43" class="edge">
<title>Node35&#45;&gt;Node6</title>
<path fill="none" stroke="#191970" d="M269.3419,-130.0882C272.6841,-128.3384 275.9328,-126.473 279,-124.4932 297.7488,-112.3913 296.6625,-102.2098 315,-89.4932 323.1156,-83.8652 332.4527,-78.7953 341.4259,-74.4937"/>
<polygon fill="#191970" stroke="#191970" points="267.8115,-126.9404 260.3372,-134.4495 270.8629,-133.2404 267.8115,-126.9404"/>
</g>
<!-- Node36&#45;&gt;Node7 -->
<g id="edge46" class="edge">
<title>Node36&#45;&gt;Node7</title>
<path fill="none" stroke="#191970" d="M276.6023,-176.9706C277.4328,-176.1745 278.2332,-175.349 279,-174.4932 321.871,-126.6426 265.9625,-76.0014 315,-34.4932 390.2468,29.2001 437.4154,-15.4932 536,-15.4932 536,-15.4932 536,-15.4932 1268,-15.4932 1375.1747,-15.4932 1498.8009,-52.8214 1552.396,-70.9022"/>
<polygon fill="#191970" stroke="#191970" points="274.1366,-174.4557 268.4165,-183.3737 278.4495,-179.9693 274.1366,-174.4557"/>
</g>
<!-- Node36&#45;&gt;Node9 -->
<g id="edge50" class="edge">
<title>Node36&#45;&gt;Node9</title>
<path fill="none" stroke="#191970" d="M242.7521,-219.9549C262.2636,-234.8116 289.4891,-254.5265 315,-269.4932 324.0442,-274.7992 334.178,-279.9259 343.6487,-284.3949"/>
<polygon fill="#191970" stroke="#191970" points="244.6888,-217.0291 234.6274,-213.7096 240.4227,-222.5789 244.6888,-217.0291"/>
</g>
<!-- Node36&#45;&gt;Node20 -->
<g id="edge47" class="edge">
<title>Node36&#45;&gt;Node20</title>
<path fill="none" stroke="#191970" d="M289.4193,-191.6203C354.332,-186.1804 451.3448,-179.4932 536,-179.4932 536,-179.4932 536,-179.4932 1124.5,-179.4932 1218.457,-179.4932 1328.8841,-179.4932 1386.4913,-179.4932"/>
<polygon fill="#191970" stroke="#191970" points="288.9514,-188.1474 279.2837,-192.4815 289.5441,-195.1223 288.9514,-188.1474"/>
</g>
<!-- Node36&#45;&gt;Node22 -->
<g id="edge48" class="edge">
<title>Node36&#45;&gt;Node22</title>
<path fill="none" stroke="#191970" d="M277.4054,-180.811C341.5366,-164.0744 444.9367,-141.4932 536,-141.4932 536,-141.4932 536,-141.4932 1124.5,-141.4932 1207.334,-141.4932 1302.9692,-141.4932 1363.9261,-141.4932"/>
<polygon fill="#191970" stroke="#191970" points="276.2301,-177.5014 267.4578,-183.4426 278.0203,-184.2686 276.2301,-177.5014"/>
</g>
<!-- Node36&#45;&gt;Node25 -->
<g id="edge49" class="edge">
<title>Node36&#45;&gt;Node25</title>
<path fill="none" stroke="#191970" d="M289.4193,-205.3661C354.332,-210.806 451.3448,-217.4932 536,-217.4932 536,-217.4932 536,-217.4932 1268,-217.4932 1367.0274,-217.4932 1400.8435,-193.394 1490,-236.4932 1530.1898,-255.9214 1561.5249,-301.7053 1573.8338,-321.7769"/>
<polygon fill="#191970" stroke="#191970" points="289.5441,-201.8641 279.2837,-204.5049 288.9514,-208.839 289.5441,-201.8641"/>
</g>
<!-- Node36&#45;&gt;Node32 -->
<g id="edge45" class="edge">
<title>Node36&#45;&gt;Node32</title>
<path fill="none" stroke="#191970" d="M273.2286,-178.4002C275.2238,-177.1657 277.1556,-175.8643 279,-174.4932 300.1168,-158.7952 292.0703,-140.3995 315,-127.4932 401.098,-79.0316 437.2003,-103.4932 536,-103.4932 536,-103.4932 536,-103.4932 987,-103.4932 1080.4227,-103.4932 1191.3166,-103.4932 1241.2662,-103.4932"/>
<polygon fill="#191970" stroke="#191970" points="271.2255,-175.5073 264.1486,-183.3921 274.5979,-181.6415 271.2255,-175.5073"/>
</g>
<!-- Node36&#45;&gt;Node34 -->
<g id="edge51" class="edge">
<title>Node36&#45;&gt;Node34</title>
<path fill="none" stroke="#191970" d="M270.3667,-216.8148C284.8691,-221.6235 300.5164,-226.7813 315,-231.4932 387.3112,-255.0179 405.0607,-261.9948 478,-283.4932 544.2778,-303.0282 623.0368,-323.6787 662.7983,-333.9263"/>
<polygon fill="#191970" stroke="#191970" points="271.1314,-213.3809 260.5379,-213.5513 268.9255,-220.0243 271.1314,-213.3809"/>
</g>
</g>
</svg>
        <g id="navigator" transform="translate(0 0)" fill="#404254">
                <rect fill="#f2f5e9" fill-opacity="0.5" stroke="#606060" stroke-width=".5" x="0" y="0" width="60" height="60"/>
                <use id="zoomplus" xlink:href="#zoomPlus" target="_top" x="17" y="9" onmousedown="handleZoom(evt,'in')"/>
                <use id="zoomminus" xlink:href="#zoomMin" target="_top" x="42" y="9" onmousedown="handleZoom(evt,'out')"/>
                <use id="reset" xlink:href="#resetDef" target="_top" x="30" y="36" onmousedown="handleReset()"/>
                <g id="arrowUp" xlink:href="#dirArrow" target="_top" transform="translate(30 24)" onmousedown="handlePan(0,-1)">
                  <use xlink:href="#rim" target="_top" fill="#404040">
                        <set attributeName="fill" to="#808080" begin="arrowUp.mouseover" end="arrowUp.mouseout"/>
                  </use>
                  <path fill="none" stroke="white" stroke-width="1.5" d="M0,-3.0v7 M-2.5,-0.5L0,-3.0L2.5,-0.5"/>
                </g>
                <g id="arrowRight" xlink:href="#dirArrow" target="_top" transform="rotate(90) translate(36 -43)" onmousedown="handlePan(1,0)">
                  <use xlink:href="#rim" target="_top" fill="#404040">
                        <set attributeName="fill" to="#808080" begin="arrowRight.mouseover" end="arrowRight.mouseout"/>
                  </use>
                  <path fill="none" stroke="white" stroke-width="1.5" d="M0,-3.0v7 M-2.5,-0.5L0,-3.0L2.5,-0.5"/>
                </g>
                <g id="arrowDown" xlink:href="#dirArrow" target="_top" transform="rotate(180) translate(-30 -48)" onmousedown="handlePan(0,1)">
                  <use xlink:href="#rim" target="_top" fill="#404040">
                        <set attributeName="fill" to="#808080" begin="arrowDown.mouseover" end="arrowDown.mouseout"/>
                  </use>
                  <path fill="none" stroke="white" stroke-width="1.5" d="M0,-3.0v7 M-2.5,-0.5L0,-3.0L2.5,-0.5"/>
                </g>
                <g id="arrowLeft" xlink:href="#dirArrow" target="_top" transform="rotate(270) translate(-36 17)" onmousedown="handlePan(-1,0)">
                  <use xlink:href="#rim" target="_top" fill="#404040">
                        <set attributeName="fill" to="#808080" begin="arrowLeft.mouseover" end="arrowLeft.mouseout"/>
                  </use>
                  <path fill="none" stroke="white" stroke-width="1.5" d="M0,-3.0v7 M-2.5,-0.5L0,-3.0L2.5,-0.5"/>
                </g>
        </g>
        <svg viewBox="0 0 15 15" width="100%" height="30px" preserveAspectRatio="xMaxYMin meet">
         <g id="arrow_out" transform="scale(0.3 0.3)">
          <a xlink:href="namespaceargo_1_1env_a25a08cb2d0d11432d640ec7173063339_a25a08cb2d0d11432d640ec7173063339_icgraph_org.svg" target="_top" target="_base">
           <rect id="button" ry="5" rx="5" y="6" x="6" height="38" width="38"
                fill="#f2f5e9" fill-opacity="0.5" stroke="#606060" stroke-width="1.0"/>
           <path id="arrow"
             d="M 11.500037,31.436501 C 11.940474,20.09759 22.043105,11.32322 32.158766,21.979434 L 37.068811,17.246167 C 37.068811,17.246167 37.088388,32 37.088388,32 L 22.160133,31.978069 C 22.160133,31.978069 26.997745,27.140456 26.997745,27.140456 C 18.528582,18.264221 13.291696,25.230495 11.500037,31.436501 z"
             style="fill:#404040;"/>
          </a>
         </g>
        </svg>
</svg>
