<?xml version="1.0" encoding="UTF-8" standalone="no"?>
<!DOCTYPE svg PUBLIC "-//W3C//DTD SVG 1.1//EN"
 "http://www.w3.org/Graphics/SVG/1.1/DTD/svg11.dtd">
<!-- Generated by graphviz version 2.40.1 (20161225.0304)
 -->
<!-- Title: argo::codelete_ Pages: 1 -->
<svg width="267pt" height="78pt"
 viewBox="0.00 0.00 267.00 77.50" xmlns="http://www.w3.org/2000/svg" xmlns:xlink="http://www.w3.org/1999/xlink">
<g id="graph0" class="graph" transform="scale(1 1) rotate(0) translate(4 73.5)">
<title>argo::codelete_</title>
<polygon fill="#ffffff" stroke="transparent" points="-4,4 -4,-73.5 263,-73.5 263,4 -4,4"/>
<!-- Node4 -->
<g id="node1" class="node">
<title>Node4</title>
<polygon fill="#bfbfbf" stroke="#000000" points="0,-28 0,-47 92,-47 92,-28 0,-28"/>
<text text-anchor="middle" x="46" y="-35" font-family="Helvetica,sans-Serif" font-size="10.00" fill="#000000">argo::codelete_</text>
</g>
<!-- Node5 -->
<g id="node2" class="node">
<title>Node5</title>
<g id="a_node2"><a xlink:href="tests_2allocators_8cpp_a13fc720238a04e385587d7b2cef0f3bc.html#a13fc720238a04e385587d7b2cef0f3bc" target="_top" xlink:title="Test if it is possible to delete a null pointer with no errors. ">
<polygon fill="#ffffff" stroke="#000000" points="168,-50 168,-69 219,-69 219,-50 168,-50"/>
<text text-anchor="middle" x="193.5" y="-57" font-family="Helvetica,sans-Serif" font-size="10.00" fill="#000000">TEST_F</text>
</a>
</g>
</g>
<!-- Node4&#45;&gt;Node5 -->
<g id="edge1" class="edge">
<title>Node4&#45;&gt;Node5</title>
<path fill="none" stroke="#191970" d="M102.3866,-45.9102C124.8341,-49.2583 149.5571,-52.9458 167.5792,-55.6339"/>
<polygon fill="#191970" stroke="#191970" points="102.6722,-42.4142 92.2652,-44.4006 101.6395,-49.3376 102.6722,-42.4142"/>
</g>
<!-- Node6 -->
<g id="node3" class="node">
<title>Node6</title>
<g id="a_node3"><a xlink:href="classargo_1_1globallock_1_1cohort__lock_a48e63a5ba24a93d3799a3993c663a30b.html#a48e63a5ba24a93d3799a3993c663a30b" target="_top" xlink:title="argo::globallock::cohort\l_lock::~cohort_lock">
<polygon fill="#ffffff" stroke="#000000" points="128,-.5 128,-30.5 259,-30.5 259,-.5 128,-.5"/>
<text text-anchor="start" x="136" y="-18.5" font-family="Helvetica,sans-Serif" font-size="10.00" fill="#000000">argo::globallock::cohort</text>
<text text-anchor="middle" x="193.5" y="-7.5" font-family="Helvetica,sans-Serif" font-size="10.00" fill="#000000">_lock::~cohort_lock</text>
</a>
</g>
</g>
<!-- Node4&#45;&gt;Node6 -->
<g id="edge2" class="edge">
<title>Node4&#45;&gt;Node6</title>
<path fill="none" stroke="#191970" d="M102.3041,-29.1021C110.6897,-27.8514 119.3946,-26.553 127.9504,-25.2769"/>
<polygon fill="#191970" stroke="#191970" points="101.6395,-25.6624 92.2652,-30.5994 102.6722,-32.5858 101.6395,-25.6624"/>
</g>
</g>
</svg>
