<?xml version="1.0" encoding="UTF-8" standalone="no"?>
<!DOCTYPE svg PUBLIC "-//W3C//DTD SVG 1.1//EN"
 "http://www.w3.org/Graphics/SVG/1.1/DTD/svg11.dtd">
<!-- Generated by graphviz version 2.40.1 (20161225.0304)
 -->
<!-- Title: argo::codelete_array Pages: 1 -->
<svg width="480pt" height="122pt"
 viewBox="0.00 0.00 480.00 121.50" xmlns="http://www.w3.org/2000/svg" xmlns:xlink="http://www.w3.org/1999/xlink">
<g id="graph0" class="graph" transform="scale(1 1) rotate(0) translate(4 117.5)">
<title>argo::codelete_array</title>
<polygon fill="#ffffff" stroke="transparent" points="-4,4 -4,-117.5 476,-117.5 476,4 -4,4"/>
<!-- Node0 -->
<g id="node1" class="node">
<title>Node0</title>
<polygon fill="#bfbfbf" stroke="#000000" points="0,-50 0,-69 117,-69 117,-50 0,-50"/>
<text text-anchor="middle" x="58.5" y="-57" font-family="Helvetica,sans-Serif" font-size="10.00" fill="#000000">argo::codelete_array</text>
</g>
<!-- Node1 -->
<g id="node2" class="node">
<title>Node1</title>
<g id="a_node2"><a xlink:href="namespaceargo_a2deaaacde085d381cbb01f24318965b4.html#a2deaaacde085d381cbb01f24318965b4" target="_top" xlink:title="A unique ArgoDSM node identifier. Counting starts from 0. ">
<polygon fill="#ffffff" stroke="#000000" points="186,-94 186,-113 269,-113 269,-94 186,-94"/>
<text text-anchor="middle" x="227.5" y="-101" font-family="Helvetica,sans-Serif" font-size="10.00" fill="#000000">argo::node_id</text>
</a>
</g>
</g>
<!-- Node0&#45;&gt;Node1 -->
<g id="edge1" class="edge">
<title>Node0&#45;&gt;Node1</title>
<path fill="none" stroke="#191970" d="M94.3793,-69.0724C112.026,-73.7599 133.618,-79.4648 153,-84.5 161.7295,-86.7678 171.0411,-89.1622 180.0192,-91.4582"/>
<polygon fill="#191970" stroke="#191970" points="179.4103,-94.915 189.9653,-93.9968 181.1415,-88.1324 179.4103,-94.915"/>
</g>
<!-- Node2 -->
<g id="node3" class="node">
<title>Node2</title>
<g id="a_node3"><a xlink:href="classargo_1_1allocators_1_1generic__allocator_a6a7fe288a35b74a248c341d6f67c800c.html#a6a7fe288a35b74a248c341d6f67c800c" target="_top" xlink:title="How much space has been allocated for the given chunk. ">
<polygon fill="#ffffff" stroke="#000000" points="153,-44.5 153,-74.5 302,-74.5 302,-44.5 153,-44.5"/>
<text text-anchor="start" x="161" y="-62.5" font-family="Helvetica,sans-Serif" font-size="10.00" fill="#000000">argo::allocators::generic</text>
<text text-anchor="middle" x="227.5" y="-51.5" font-family="Helvetica,sans-Serif" font-size="10.00" fill="#000000">_allocator::allocated_space</text>
</a>
</g>
</g>
<!-- Node0&#45;&gt;Node2 -->
<g id="edge2" class="edge">
<title>Node0&#45;&gt;Node2</title>
<path fill="none" stroke="#191970" d="M117.1337,-59.5C125.4248,-59.5 134.0836,-59.5 142.746,-59.5"/>
<polygon fill="#191970" stroke="#191970" points="142.8947,-63.0001 152.8947,-59.5 142.8947,-56.0001 142.8947,-63.0001"/>
</g>
<!-- Node3 -->
<g id="node4" class="node">
<title>Node3</title>
<g id="a_node4"><a xlink:href="src_2allocators_2allocators_8cpp_a215edf4fe9276398650302b518c52baf.html#a215edf4fe9276398650302b518c52baf" target="_top" xlink:title="basic free function for collective allocations, for C interface ">
<polygon fill="#ffffff" stroke="#000000" points="183,-6 183,-25 272,-25 272,-6 183,-6"/>
<text text-anchor="middle" x="227.5" y="-13" font-family="Helvetica,sans-Serif" font-size="10.00" fill="#000000">collective_free</text>
</a>
</g>
</g>
<!-- Node0&#45;&gt;Node3 -->
<g id="edge3" class="edge">
<title>Node0&#45;&gt;Node3</title>
<path fill="none" stroke="#191970" d="M95.1705,-49.9527C120.3063,-43.4084 153.8612,-34.6722 180.8919,-27.6346"/>
<polygon fill="#191970" stroke="#191970" points="182.1056,-30.9354 190.9011,-25.0287 180.3418,-24.1613 182.1056,-30.9354"/>
</g>
<!-- Node4 -->
<g id="node5" class="node">
<title>Node4</title>
<g id="a_node5"><a xlink:href="classargo_1_1allocators_1_1generic__allocator_ab98a25e383864eecd7d602f95c49c420.html#ab98a25e383864eecd7d602f95c49c420" target="_top" xlink:title="free an allocated pointer ">
<polygon fill="#ffffff" stroke="#000000" points="338,-.5 338,-30.5 472,-30.5 472,-.5 338,-.5"/>
<text text-anchor="start" x="346" y="-18.5" font-family="Helvetica,sans-Serif" font-size="10.00" fill="#000000">argo::allocators::generic</text>
<text text-anchor="middle" x="405" y="-7.5" font-family="Helvetica,sans-Serif" font-size="10.00" fill="#000000">_allocator::free</text>
</a>
</g>
</g>
<!-- Node3&#45;&gt;Node4 -->
<g id="edge4" class="edge">
<title>Node3&#45;&gt;Node4</title>
<path fill="none" stroke="#191970" d="M272.2907,-15.5C289.0924,-15.5 308.7061,-15.5 327.6195,-15.5"/>
<polygon fill="#191970" stroke="#191970" points="327.7288,-19.0001 337.7288,-15.5 327.7288,-12.0001 327.7288,-19.0001"/>
</g>
</g>
</svg>
