<?xml version="1.0" encoding="UTF-8" standalone="no"?>
<!DOCTYPE svg PUBLIC "-//W3C//DTD SVG 1.1//EN"
 "http://www.w3.org/Graphics/SVG/1.1/DTD/svg11.dtd">
<!-- Generated by graphviz version 2.40.1 (20161225.0304)
 -->
<!-- Title: argo::node_id Pages: 1 -->
<svg width="824pt" height="1060pt"
 viewBox="0.00 0.00 824.00 1059.50" xmlns="http://www.w3.org/2000/svg" xmlns:xlink="http://www.w3.org/1999/xlink">
<g id="graph0" class="graph" transform="scale(1 1) rotate(0) translate(4 1055.5)">
<title>argo::node_id</title>
<polygon fill="#ffffff" stroke="transparent" points="-4,4 -4,-1055.5 820,-1055.5 820,4 -4,4"/>
<!-- Node1 -->
<g id="node1" class="node">
<title>Node1</title>
<polygon fill="#bfbfbf" stroke="#000000" points="0,-567 0,-586 83,-586 83,-567 0,-567"/>
<text text-anchor="middle" x="41.5" y="-574" font-family="Helvetica,sans-Serif" font-size="10.00" fill="#000000">argo::node_id</text>
</g>
<!-- Node2 -->
<g id="node2" class="node">
<title>Node2</title>
<g id="a_node2"><a xlink:href="tests_2allocators_8cpp_ae126220d4ebd940b8dcc827b3c74ceda.html#ae126220d4ebd940b8dcc827b3c74ceda" target="_top" xlink:title="Unittest that checks that node 0 allocating the whole requested memory space dynamically &#45; also check...">
<polygon fill="#ffffff" stroke="#000000" points="192.5,-1032 192.5,-1051 243.5,-1051 243.5,-1032 192.5,-1032"/>
<text text-anchor="middle" x="218" y="-1039" font-family="Helvetica,sans-Serif" font-size="10.00" fill="#000000">TEST_F</text>
</a>
</g>
</g>
<!-- Node1&#45;&gt;Node2 -->
<g id="edge1" class="edge">
<title>Node1&#45;&gt;Node2</title>
<path fill="none" stroke="#191970" d="M42.0651,-596.6098C44.6989,-675.2659 58.3558,-960.7811 119,-1022.5 137.8897,-1041.7244 169.8786,-1044.6951 192.371,-1044.0105"/>
<polygon fill="#191970" stroke="#191970" points="45.5503,-596.0766 41.7417,-586.1901 38.5537,-596.2938 45.5503,-596.0766"/>
</g>
<!-- Node3 -->
<g id="node3" class="node">
<title>Node3</title>
<g id="a_node3"><a xlink:href="namespaceargo_a43db7086bc5f4070897fc687ea7e950c.html#a43db7086bc5f4070897fc687ea7e950c" target="_top" xlink:title="template function to construct new objects using collective allocation ">
<polygon fill="#ffffff" stroke="#000000" points="177.5,-994 177.5,-1013 258.5,-1013 258.5,-994 177.5,-994"/>
<text text-anchor="middle" x="218" y="-1001" font-family="Helvetica,sans-Serif" font-size="10.00" fill="#000000">argo::conew_</text>
</a>
</g>
</g>
<!-- Node1&#45;&gt;Node3 -->
<g id="edge2" class="edge">
<title>Node1&#45;&gt;Node3</title>
<path fill="none" stroke="#191970" d="M42.4043,-596.3105C46.1936,-670.2469 63.2796,-928.6737 119,-984.5 134.0834,-999.6121 157.2745,-1004.6356 177.42,-1005.754"/>
<polygon fill="#191970" stroke="#191970" points="45.8888,-595.9053 41.9064,-586.0875 38.8971,-596.2459 45.8888,-595.9053"/>
</g>
<!-- Node4 -->
<g id="node4" class="node">
<title>Node4</title>
<g id="a_node4"><a xlink:href="namespaceargo_a09ca0ec2df9dbed721fb14b26cfa39a3.html#a09ca0ec2df9dbed721fb14b26cfa39a3" target="_top" xlink:title="template function to delete objects that were allocated using collective_new ">
<polygon fill="#ffffff" stroke="#000000" points="172,-956 172,-975 264,-975 264,-956 172,-956"/>
<text text-anchor="middle" x="218" y="-963" font-family="Helvetica,sans-Serif" font-size="10.00" fill="#000000">argo::codelete_</text>
</a>
</g>
</g>
<!-- Node1&#45;&gt;Node4 -->
<g id="edge3" class="edge">
<title>Node1&#45;&gt;Node4</title>
<path fill="none" stroke="#191970" d="M42.818,-596.242C47.8585,-665.5976 68.243,-896.5917 119,-946.5 132.7894,-960.0588 153.1197,-965.4525 171.7751,-967.2037"/>
<polygon fill="#191970" stroke="#191970" points="46.3064,-595.9519 42.1163,-586.2209 39.3235,-596.441 46.3064,-595.9519"/>
</g>
<!-- Node7 -->
<g id="node7" class="node">
<title>Node7</title>
<g id="a_node7"><a xlink:href="namespaceargo_a532a530aefb04b559d017b8ac402feb5.html#a532a530aefb04b559d017b8ac402feb5" target="_top" xlink:title="Collectively construct a new array of objects in the global memory. ">
<polygon fill="#ffffff" stroke="#000000" points="164.5,-918 164.5,-937 271.5,-937 271.5,-918 164.5,-918"/>
<text text-anchor="middle" x="218" y="-925" font-family="Helvetica,sans-Serif" font-size="10.00" fill="#000000">argo::conew_array</text>
</a>
</g>
</g>
<!-- Node1&#45;&gt;Node7 -->
<g id="edge6" class="edge">
<title>Node1&#45;&gt;Node7</title>
<path fill="none" stroke="#191970" d="M43.331,-596.2744C49.726,-660.9378 73.2063,-864.4898 119,-908.5 131.0506,-920.0813 147.8876,-925.666 164.2628,-928.1164"/>
<polygon fill="#191970" stroke="#191970" points="46.8029,-595.8131 42.3628,-586.1936 39.835,-596.4824 46.8029,-595.8131"/>
</g>
<!-- Node8 -->
<g id="node8" class="node">
<title>Node8</title>
<g id="a_node8"><a xlink:href="namespaceargo_aa7e8ddf5784dd37c965cfd43cd65a330.html#aa7e8ddf5784dd37c965cfd43cd65a330" target="_top" xlink:title="Delete a globally collectively allocated array of objects. ">
<polygon fill="#ffffff" stroke="#000000" points="159.5,-880 159.5,-899 276.5,-899 276.5,-880 159.5,-880"/>
<text text-anchor="middle" x="218" y="-887" font-family="Helvetica,sans-Serif" font-size="10.00" fill="#000000">argo::codelete_array</text>
</a>
</g>
</g>
<!-- Node1&#45;&gt;Node8 -->
<g id="edge7" class="edge">
<title>Node1&#45;&gt;Node8</title>
<path fill="none" stroke="#191970" d="M43.9746,-596.3142C51.8337,-656.0036 78.1407,-832.3337 119,-870.5 129.935,-880.7143 144.6088,-886.2251 159.3042,-889.0349"/>
<polygon fill="#191970" stroke="#191970" points="47.4332,-595.7669 42.686,-586.2952 40.4904,-596.66 47.4332,-595.7669"/>
</g>
<!-- Node10 -->
<g id="node10" class="node">
<title>Node10</title>
<g id="a_node10"><a xlink:href="argo_8h_ac15daccc12e056745f7a476832db112b.html#ac15daccc12e056745f7a476832db112b" target="_top" xlink:title="A unique ArgoDSM node identifier. Counting starts from 0. ">
<polygon fill="#ffffff" stroke="#000000" points="177,-842 177,-861 259,-861 259,-842 177,-842"/>
<text text-anchor="middle" x="218" y="-849" font-family="Helvetica,sans-Serif" font-size="10.00" fill="#000000">argo_node_id</text>
</a>
</g>
</g>
<!-- Node1&#45;&gt;Node10 -->
<g id="edge9" class="edge">
<title>Node1&#45;&gt;Node10</title>
<path fill="none" stroke="#191970" d="M44.7778,-596.2C54.1998,-650.4365 83.0031,-800.0762 119,-832.5 134.4744,-846.4384 156.9544,-851.524 176.5832,-852.9753"/>
<polygon fill="#191970" stroke="#191970" points="48.1956,-595.4212 43.0658,-586.1511 41.295,-596.5969 48.1956,-595.4212"/>
</g>
<!-- Node12 -->
<g id="node12" class="node">
<title>Node12</title>
<g id="a_node12"><a xlink:href="backend_8hpp_a0fb29a8253f0d9aefc999d93414b1758.html#a0fb29a8253f0d9aefc999d93414b1758" target="_top" xlink:title="backend internal type erased function for selective acquire ">
<polygon fill="#ffffff" stroke="#000000" points="147.5,-774.5 147.5,-804.5 288.5,-804.5 288.5,-774.5 147.5,-774.5"/>
<text text-anchor="start" x="155.5" y="-792.5" font-family="Helvetica,sans-Serif" font-size="10.00" fill="#000000">argo::backend::_selective</text>
<text text-anchor="middle" x="218" y="-781.5" font-family="Helvetica,sans-Serif" font-size="10.00" fill="#000000">_acquire</text>
</a>
</g>
</g>
<!-- Node1&#45;&gt;Node12 -->
<g id="edge11" class="edge">
<title>Node1&#45;&gt;Node12</title>
<path fill="none" stroke="#191970" d="M44.27,-596.1876C50.5705,-633.5506 69.4696,-714.9762 119,-759.5 127.1473,-766.8238 137.0329,-772.3606 147.3659,-776.5463"/>
<polygon fill="#191970" stroke="#191970" points="47.6957,-595.439 42.6991,-586.0964 40.779,-596.5158 47.6957,-595.439"/>
</g>
<!-- Node13 -->
<g id="node13" class="node">
<title>Node13</title>
<g id="a_node13"><a xlink:href="singlenode_8cpp_aab3cabb3e1c0b9696b339416b684f78c.html#aab3cabb3e1c0b9696b339416b684f78c" target="_top" xlink:title="argo::backend::init">
<polygon fill="#ffffff" stroke="#000000" points="365,-758 365,-777 472,-777 472,-758 365,-758"/>
<text text-anchor="middle" x="418.5" y="-765" font-family="Helvetica,sans-Serif" font-size="10.00" fill="#000000">argo::backend::init</text>
</a>
</g>
</g>
<!-- Node1&#45;&gt;Node13 -->
<g id="edge14" class="edge">
<title>Node1&#45;&gt;Node13</title>
<path fill="none" stroke="#191970" d="M45.5004,-596.0171C53.3418,-628.8728 74.0437,-694.745 119,-726.5 157.526,-753.7129 289.6073,-762.9243 364.8707,-765.9974"/>
<polygon fill="#191970" stroke="#191970" points="48.912,-595.2349 43.3177,-586.2374 42.0801,-596.7597 48.912,-595.2349"/>
</g>
<!-- Node14 -->
<g id="node14" class="node">
<title>Node14</title>
<g id="a_node14"><a xlink:href="classargo_1_1data__distribution_1_1first__touch__distribution_ac1f2f15350c218a5dff4e5e06110e655.html#ac1f2f15350c218a5dff4e5e06110e655" target="_top" xlink:title="compute home node of an address ">
<polygon fill="#ffffff" stroke="#000000" points="151,-676 151,-717 285,-717 285,-676 151,-676"/>
<text text-anchor="start" x="159" y="-705" font-family="Helvetica,sans-Serif" font-size="10.00" fill="#000000">argo::data_distribution</text>
<text text-anchor="start" x="159" y="-694" font-family="Helvetica,sans-Serif" font-size="10.00" fill="#000000">::first_touch_distribution</text>
<text text-anchor="middle" x="218" y="-683" font-family="Helvetica,sans-Serif" font-size="10.00" fill="#000000">::peek_homenode</text>
</a>
</g>
</g>
<!-- Node1&#45;&gt;Node14 -->
<g id="edge15" class="edge">
<title>Node1&#45;&gt;Node14</title>
<path fill="none" stroke="#191970" d="M52.7168,-594.8999C66.0658,-615.2886 90.2079,-647.7571 119,-666.5 128.708,-672.8197 139.8086,-677.8592 150.9839,-681.8626"/>
<polygon fill="#191970" stroke="#191970" points="55.5245,-592.7922 47.211,-586.2244 49.6143,-596.5431 55.5245,-592.7922"/>
</g>
<!-- Node15 -->
<g id="node15" class="node">
<title>Node15</title>
<g id="a_node15"><a xlink:href="classargo_1_1data__distribution_1_1first__touch__distribution_a3072e6056edc945f0714bbdb775718ed.html#a3072e6056edc945f0714bbdb775718ed" target="_top" xlink:title="compute home node of an address ">
<polygon fill="#ffffff" stroke="#000000" points="151,-616 151,-657 285,-657 285,-616 151,-616"/>
<text text-anchor="start" x="159" y="-645" font-family="Helvetica,sans-Serif" font-size="10.00" fill="#000000">argo::data_distribution</text>
<text text-anchor="start" x="159" y="-634" font-family="Helvetica,sans-Serif" font-size="10.00" fill="#000000">::first_touch_distribution</text>
<text text-anchor="middle" x="218" y="-623" font-family="Helvetica,sans-Serif" font-size="10.00" fill="#000000">::homenode</text>
</a>
</g>
</g>
<!-- Node1&#45;&gt;Node15 -->
<g id="edge16" class="edge">
<title>Node1&#45;&gt;Node15</title>
<path fill="none" stroke="#191970" d="M74.2461,-589.8031C87.9839,-595.2202 104.1815,-601.3947 119,-606.5 129.2728,-610.0392 140.2194,-613.5811 150.9475,-616.9267"/>
<polygon fill="#191970" stroke="#191970" points="75.3179,-586.4628 64.7324,-586.0187 72.7305,-592.9671 75.3179,-586.4628"/>
</g>
<!-- Node16 -->
<g id="node16" class="node">
<title>Node16</title>
<g id="a_node16"><a xlink:href="classargo_1_1data__distribution_1_1first__touch__distribution_a7ba49b6dd4f8d6c226bb2fb140a59bdf.html#a7ba49b6dd4f8d6c226bb2fb140a59bdf" target="_top" xlink:title="compute the offset of ptr in the backing store on ptr&#39;s homenode ">
<polygon fill="#ffffff" stroke="#000000" points="151,-556 151,-597 285,-597 285,-556 151,-556"/>
<text text-anchor="start" x="159" y="-585" font-family="Helvetica,sans-Serif" font-size="10.00" fill="#000000">argo::data_distribution</text>
<text text-anchor="start" x="159" y="-574" font-family="Helvetica,sans-Serif" font-size="10.00" fill="#000000">::first_touch_distribution</text>
<text text-anchor="middle" x="218" y="-563" font-family="Helvetica,sans-Serif" font-size="10.00" fill="#000000">::peek_local_offset</text>
</a>
</g>
</g>
<!-- Node1&#45;&gt;Node16 -->
<g id="edge17" class="edge">
<title>Node1&#45;&gt;Node16</title>
<path fill="none" stroke="#191970" d="M93.3476,-576.5C111.3771,-576.5 131.8645,-576.5 150.9465,-576.5"/>
<polygon fill="#191970" stroke="#191970" points="93.3281,-573.0001 83.328,-576.5 93.328,-580.0001 93.3281,-573.0001"/>
</g>
<!-- Node17 -->
<g id="node17" class="node">
<title>Node17</title>
<g id="a_node17"><a xlink:href="classargo_1_1data__distribution_1_1first__touch__distribution_aa8574afc7f9e197c51ea71df78f4908d.html#aa8574afc7f9e197c51ea71df78f4908d" target="_top" xlink:title="compute the offset of ptr in the backing store on ptr&#39;s homenode ">
<polygon fill="#ffffff" stroke="#000000" points="151,-496 151,-537 285,-537 285,-496 151,-496"/>
<text text-anchor="start" x="159" y="-525" font-family="Helvetica,sans-Serif" font-size="10.00" fill="#000000">argo::data_distribution</text>
<text text-anchor="start" x="159" y="-514" font-family="Helvetica,sans-Serif" font-size="10.00" fill="#000000">::first_touch_distribution</text>
<text text-anchor="middle" x="218" y="-503" font-family="Helvetica,sans-Serif" font-size="10.00" fill="#000000">::local_offset</text>
</a>
</g>
</g>
<!-- Node1&#45;&gt;Node17 -->
<g id="edge18" class="edge">
<title>Node1&#45;&gt;Node17</title>
<path fill="none" stroke="#191970" d="M74.2461,-563.1969C87.9839,-557.7798 104.1815,-551.6053 119,-546.5 129.2728,-542.9608 140.2194,-539.4189 150.9475,-536.0733"/>
<polygon fill="#191970" stroke="#191970" points="72.7305,-560.0329 64.7324,-566.9813 75.3179,-566.5372 72.7305,-560.0329"/>
</g>
<!-- Node18 -->
<g id="node18" class="node">
<title>Node18</title>
<g id="a_node18"><a xlink:href="classargo_1_1data__distribution_1_1first__touch__distribution_a4d637cba39bb57ea4686e726252df51e.html#a4d637cba39bb57ea4686e726252df51e" target="_top" xlink:title="perform the necessary directory actions ">
<polygon fill="#ffffff" stroke="#000000" points="151,-436 151,-477 285,-477 285,-436 151,-436"/>
<text text-anchor="start" x="159" y="-465" font-family="Helvetica,sans-Serif" font-size="10.00" fill="#000000">argo::data_distribution</text>
<text text-anchor="start" x="159" y="-454" font-family="Helvetica,sans-Serif" font-size="10.00" fill="#000000">::first_touch_distribution</text>
<text text-anchor="middle" x="218" y="-443" font-family="Helvetica,sans-Serif" font-size="10.00" fill="#000000">::update_dirs</text>
</a>
</g>
</g>
<!-- Node1&#45;&gt;Node18 -->
<g id="edge19" class="edge">
<title>Node1&#45;&gt;Node18</title>
<path fill="none" stroke="#191970" d="M52.7168,-558.1001C66.0658,-537.7114 90.2079,-505.2429 119,-486.5 128.708,-480.1803 139.8086,-475.1408 150.9839,-471.1374"/>
<polygon fill="#191970" stroke="#191970" points="49.6143,-556.4569 47.211,-566.7756 55.5245,-560.2078 49.6143,-556.4569"/>
</g>
<!-- Node19 -->
<g id="node19" class="node">
<title>Node19</title>
<g id="a_node19"><a xlink:href="classargo_1_1data__distribution_1_1first__touch__distribution_a1b7431790effdb97e72f39a0773e9fb9.html#a1b7431790effdb97e72f39a0773e9fb9" target="_top" xlink:title="try and claim ownership of a page ">
<polygon fill="#ffffff" stroke="#000000" points="151,-376 151,-417 285,-417 285,-376 151,-376"/>
<text text-anchor="start" x="159" y="-405" font-family="Helvetica,sans-Serif" font-size="10.00" fill="#000000">argo::data_distribution</text>
<text text-anchor="start" x="159" y="-394" font-family="Helvetica,sans-Serif" font-size="10.00" fill="#000000">::first_touch_distribution</text>
<text text-anchor="middle" x="218" y="-383" font-family="Helvetica,sans-Serif" font-size="10.00" fill="#000000">::first_touch</text>
</a>
</g>
</g>
<!-- Node1&#45;&gt;Node19 -->
<g id="edge20" class="edge">
<title>Node1&#45;&gt;Node19</title>
<path fill="none" stroke="#191970" d="M46.3058,-556.8426C55.1556,-524.7989 77.0787,-461.3869 119,-426.5 128.249,-418.803 139.4378,-413.08 150.9177,-408.825"/>
<polygon fill="#191970" stroke="#191970" points="42.8535,-556.2103 43.7094,-566.7705 49.6258,-557.9815 42.8535,-556.2103"/>
</g>
<!-- Node20 -->
<g id="node20" class="node">
<title>Node20</title>
<g id="a_node20"><a xlink:href="namespaceargo_1_1mempools_a7d4eab651fde73499ebbc196bf7cda05.html#a7d4eab651fde73499ebbc196bf7cda05" target="_top" xlink:title="restrict growing to ArgoDSM node 0 ">
<polygon fill="#ffffff" stroke="#000000" points="138.5,-326.5 138.5,-356.5 297.5,-356.5 297.5,-326.5 138.5,-326.5"/>
<text text-anchor="start" x="146.5" y="-344.5" font-family="Helvetica,sans-Serif" font-size="10.00" fill="#000000">argo::mempools::do</text>
<text text-anchor="middle" x="218" y="-333.5" font-family="Helvetica,sans-Serif" font-size="10.00" fill="#000000">_grow&lt; NODE_ZERO_ONLY &gt;</text>
</a>
</g>
</g>
<!-- Node1&#45;&gt;Node20 -->
<g id="edge21" class="edge">
<title>Node1&#45;&gt;Node20</title>
<path fill="none" stroke="#191970" d="M42.8538,-556.613C46.7971,-514.8807 61.9424,-417.7991 119,-366.5 124.6685,-361.4036 131.2258,-357.314 138.2135,-354.0366"/>
<polygon fill="#191970" stroke="#191970" points="39.3449,-556.5785 42.0131,-566.8318 46.3213,-557.1525 39.3449,-556.5785"/>
</g>
<!-- Node21 -->
<g id="node21" class="node">
<title>Node21</title>
<g id="a_node21"><a xlink:href="classargo_1_1mempools_1_1global__memory__pool_a8158f23df9fd2ea2c603ad2e56635783.html#a8158f23df9fd2ea2c603ad2e56635783" target="_top" xlink:title="Default constructor: initializes memory on heap and sets offset to 0. ">
<polygon fill="#ffffff" stroke="#000000" points="119,-277.5 119,-307.5 317,-307.5 317,-277.5 119,-277.5"/>
<text text-anchor="start" x="127" y="-295.5" font-family="Helvetica,sans-Serif" font-size="10.00" fill="#000000">argo::mempools::global</text>
<text text-anchor="middle" x="218" y="-284.5" font-family="Helvetica,sans-Serif" font-size="10.00" fill="#000000">_memory_pool::global_memory_pool</text>
</a>
</g>
</g>
<!-- Node1&#45;&gt;Node21 -->
<g id="edge22" class="edge">
<title>Node1&#45;&gt;Node21</title>
<path fill="none" stroke="#191970" d="M44.8423,-556.6781C54.4325,-502.0897 83.632,-351.3656 119,-317.5 122.9692,-313.6994 127.4288,-310.4527 132.2019,-307.6814"/>
<polygon fill="#191970" stroke="#191970" points="41.3488,-556.3414 43.0984,-566.7908 48.247,-557.5311 41.3488,-556.3414"/>
</g>
<!-- Node22 -->
<g id="node22" class="node">
<title>Node22</title>
<g id="a_node22"><a xlink:href="classargo_1_1mempools_1_1global__memory__pool_a382544f1b6de66b437e8034097313cc8.html#a382544f1b6de66b437e8034097313cc8" target="_top" xlink:title="Resets the memory pool to the initial state instead of de&#45;allocating and (re)allocating all buffers a...">
<polygon fill="#ffffff" stroke="#000000" points="152,-228.5 152,-258.5 284,-258.5 284,-228.5 152,-228.5"/>
<text text-anchor="start" x="160" y="-246.5" font-family="Helvetica,sans-Serif" font-size="10.00" fill="#000000">argo::mempools::global</text>
<text text-anchor="middle" x="218" y="-235.5" font-family="Helvetica,sans-Serif" font-size="10.00" fill="#000000">_memory_pool::reset</text>
</a>
</g>
</g>
<!-- Node1&#45;&gt;Node22 -->
<g id="edge23" class="edge">
<title>Node1&#45;&gt;Node22</title>
<path fill="none" stroke="#191970" d="M43.8349,-556.6813C51.4576,-495.3036 77.5358,-309.9994 119,-268.5 127.9587,-259.5337 139.6357,-253.6258 151.8139,-249.7673"/>
<polygon fill="#191970" stroke="#191970" points="40.3212,-556.584 42.5919,-566.9326 47.2703,-557.4266 40.3212,-556.584"/>
</g>
<!-- Node27 -->
<g id="node27" class="node">
<title>Node27</title>
<g id="a_node27"><a xlink:href="broadcast_8hpp_aed4a254909b428f98f2d877182d5fbb3.html#aed4a254909b428f98f2d877182d5fbb3" target="_top" xlink:title="broadcast a single value ">
<polygon fill="#ffffff" stroke="#000000" points="157,-179.5 157,-209.5 279,-209.5 279,-179.5 157,-179.5"/>
<text text-anchor="start" x="165" y="-197.5" font-family="Helvetica,sans-Serif" font-size="10.00" fill="#000000">argo::synchronization</text>
<text text-anchor="middle" x="218" y="-186.5" font-family="Helvetica,sans-Serif" font-size="10.00" fill="#000000">::broadcast</text>
</a>
</g>
</g>
<!-- Node1&#45;&gt;Node27 -->
<g id="edge28" class="edge">
<title>Node1&#45;&gt;Node27</title>
<path fill="none" stroke="#191970" d="M43.0973,-556.6864C48.9464,-489.0491 71.3848,-268.7418 119,-219.5 129.1046,-209.0502 142.8933,-202.7298 156.9693,-198.9656"/>
<polygon fill="#191970" stroke="#191970" points="39.5947,-556.5722 42.2471,-566.8296 46.5702,-557.1569 39.5947,-556.5722"/>
</g>
<!-- Node28 -->
<g id="node28" class="node">
<title>Node28</title>
<g id="a_node28"><a xlink:href="classargo_1_1globallock_1_1global__tas__lock_a89bbe556d8a271dd64d65b421993da00.html#a89bbe556d8a271dd64d65b421993da00" target="_top" xlink:title="try to lock ">
<polygon fill="#ffffff" stroke="#000000" points="152.5,-130.5 152.5,-160.5 283.5,-160.5 283.5,-130.5 152.5,-130.5"/>
<text text-anchor="start" x="160.5" y="-148.5" font-family="Helvetica,sans-Serif" font-size="10.00" fill="#000000">argo::globallock::global</text>
<text text-anchor="middle" x="218" y="-137.5" font-family="Helvetica,sans-Serif" font-size="10.00" fill="#000000">_tas_lock::try_lock</text>
</a>
</g>
</g>
<!-- Node1&#45;&gt;Node28 -->
<g id="edge29" class="edge">
<title>Node1&#45;&gt;Node28</title>
<path fill="none" stroke="#191970" d="M42.55,-556.4066C46.8157,-482.557 65.2612,-227.4917 119,-170.5 127.9387,-161.0203 139.9053,-154.9232 152.4244,-151.0478"/>
<polygon fill="#191970" stroke="#191970" points="39.0414,-556.467 41.9839,-566.645 46.0308,-556.8535 39.0414,-556.467"/>
</g>
<!-- Node37 -->
<g id="node37" class="node">
<title>Node37</title>
<g id="a_node37"><a xlink:href="classargo_1_1globallock_1_1global__tas__lock_a55bd610c8555b8d986541c3f669789a2.html#a55bd610c8555b8d986541c3f669789a2" target="_top" xlink:title="release the lock ">
<polygon fill="#ffffff" stroke="#000000" points="152.5,-81.5 152.5,-111.5 283.5,-111.5 283.5,-81.5 152.5,-81.5"/>
<text text-anchor="start" x="160.5" y="-99.5" font-family="Helvetica,sans-Serif" font-size="10.00" fill="#000000">argo::globallock::global</text>
<text text-anchor="middle" x="218" y="-88.5" font-family="Helvetica,sans-Serif" font-size="10.00" fill="#000000">_tas_lock::unlock</text>
</a>
</g>
</g>
<!-- Node1&#45;&gt;Node37 -->
<g id="edge38" class="edge">
<title>Node1&#45;&gt;Node37</title>
<path fill="none" stroke="#191970" d="M42.0927,-556.5805C44.8539,-477.4427 58.9949,-186.4199 119,-121.5 127.8439,-111.9318 139.7702,-105.797 152.2799,-101.9129"/>
<polygon fill="#191970" stroke="#191970" points="38.5916,-556.5583 41.7638,-566.6671 45.5879,-556.7865 38.5916,-556.5583"/>
</g>
<!-- Node40 -->
<g id="node40" class="node">
<title>Node40</title>
<g id="a_node40"><a xlink:href="barrier_8cpp_a03ef2b2b4275df192876f1fc8943aadf.html#a03ef2b2b4275df192876f1fc8943aadf" target="_top" xlink:title="Unittest that checks that the barrier call works with multiple threads. ">
<polygon fill="#ffffff" stroke="#000000" points="192,-43 192,-62 244,-62 244,-43 192,-43"/>
<text text-anchor="middle" x="218" y="-50" font-family="Helvetica,sans-Serif" font-size="10.00" fill="#000000">TEST_P</text>
</a>
</g>
</g>
<!-- Node1&#45;&gt;Node40 -->
<g id="edge44" class="edge">
<title>Node1&#45;&gt;Node40</title>
<path fill="none" stroke="#191970" d="M43.2074,-556.7321C51.0552,-467.8987 84.7471,-108.3933 119,-72.5 137.5217,-53.0913 169.2662,-49.7382 191.8124,-50.1819"/>
<polygon fill="#191970" stroke="#191970" points="39.7113,-556.5364 42.3265,-566.8033 46.6846,-557.1464 39.7113,-556.5364"/>
</g>
<!-- Node5 -->
<g id="node5" class="node">
<title>Node5</title>
<g id="a_node5"><a xlink:href="tests_2allocators_8cpp_a13fc720238a04e385587d7b2cef0f3bc.html#a13fc720238a04e385587d7b2cef0f3bc" target="_top" xlink:title="Test if it is possible to delete a null pointer with no errors. ">
<polygon fill="#ffffff" stroke="#000000" points="393,-937 393,-956 444,-956 444,-937 393,-937"/>
<text text-anchor="middle" x="418.5" y="-944" font-family="Helvetica,sans-Serif" font-size="10.00" fill="#000000">TEST_F</text>
</a>
</g>
</g>
<!-- Node4&#45;&gt;Node5 -->
<g id="edge4" class="edge">
<title>Node4&#45;&gt;Node5</title>
<path fill="none" stroke="#191970" d="M274.4058,-960.1548C313.3526,-956.4641 363.2939,-951.7315 392.9897,-948.9174"/>
<polygon fill="#191970" stroke="#191970" points="273.8757,-956.6893 264.2505,-961.1172 274.5361,-963.6581 273.8757,-956.6893"/>
</g>
<!-- Node6 -->
<g id="node6" class="node">
<title>Node6</title>
<g id="a_node6"><a xlink:href="classargo_1_1globallock_1_1cohort__lock_a48e63a5ba24a93d3799a3993c663a30b.html#a48e63a5ba24a93d3799a3993c663a30b" target="_top" xlink:title="argo::globallock::cohort\l_lock::~cohort_lock">
<polygon fill="#ffffff" stroke="#000000" points="353,-975.5 353,-1005.5 484,-1005.5 484,-975.5 353,-975.5"/>
<text text-anchor="start" x="361" y="-993.5" font-family="Helvetica,sans-Serif" font-size="10.00" fill="#000000">argo::globallock::cohort</text>
<text text-anchor="middle" x="418.5" y="-982.5" font-family="Helvetica,sans-Serif" font-size="10.00" fill="#000000">_lock::~cohort_lock</text>
</a>
</g>
</g>
<!-- Node4&#45;&gt;Node6 -->
<g id="edge5" class="edge">
<title>Node4&#45;&gt;Node6</title>
<path fill="none" stroke="#191970" d="M274.403,-972.5328C298.7583,-975.5696 327.4137,-979.1426 352.729,-982.2991"/>
<polygon fill="#191970" stroke="#191970" points="274.6067,-969.0312 264.2505,-971.2669 273.7406,-975.9774 274.6067,-969.0312"/>
</g>
<!-- Node9 -->
<g id="node9" class="node">
<title>Node9</title>
<g id="a_node9"><a xlink:href="tests_2allocators_8cpp_a0571f7229f019db2f46d8f56bebd01d0.html#a0571f7229f019db2f46d8f56bebd01d0" target="_top" xlink:title="mixes dynamic and collective allocation and stores dynamic arrays in a collective arrays to communica...">
<polygon fill="#ffffff" stroke="#000000" points="393,-880 393,-899 444,-899 444,-880 393,-880"/>
<text text-anchor="middle" x="418.5" y="-887" font-family="Helvetica,sans-Serif" font-size="10.00" fill="#000000">TEST_F</text>
</a>
</g>
</g>
<!-- Node8&#45;&gt;Node9 -->
<g id="edge8" class="edge">
<title>Node8&#45;&gt;Node9</title>
<path fill="none" stroke="#191970" d="M286.6888,-889.5C323.356,-889.5 366.2961,-889.5 392.9523,-889.5"/>
<polygon fill="#191970" stroke="#191970" points="286.5319,-886.0001 276.5319,-889.5 286.5319,-893.0001 286.5319,-886.0001"/>
</g>
<!-- Node11 -->
<g id="node11" class="node">
<title>Node11</title>
<g id="a_node11"><a xlink:href="omp_8cpp_a8dc8d62aec3b0b57259d2bca6ef6bf7e.html#a8dc8d62aec3b0b57259d2bca6ef6bf7e" target="_top" xlink:title="Unittest that checks that data written 1 OpenMP thread per node by all threads after an ArgoDSM barri...">
<polygon fill="#ffffff" stroke="#000000" points="393,-842 393,-861 444,-861 444,-842 393,-842"/>
<text text-anchor="middle" x="418.5" y="-849" font-family="Helvetica,sans-Serif" font-size="10.00" fill="#000000">TEST_F</text>
</a>
</g>
</g>
<!-- Node10&#45;&gt;Node11 -->
<g id="edge10" class="edge">
<title>Node10&#45;&gt;Node11</title>
<path fill="none" stroke="#191970" d="M269.2983,-851.5C308.7904,-851.5 361.7144,-851.5 392.7577,-851.5"/>
<polygon fill="#191970" stroke="#191970" points="269.058,-848.0001 259.058,-851.5 269.058,-855.0001 269.058,-848.0001"/>
</g>
<!-- Node12&#45;&gt;Node12 -->
<g id="edge12" class="edge">
<title>Node12&#45;&gt;Node12</title>
<path fill="none" stroke="#191970" d="M186.7269,-814.9579C190.6084,-819.679 201.0327,-823 218,-823 245.8438,-823 256.0676,-814.0566 248.6716,-804.659"/>
<polygon fill="#191970" stroke="#191970" points="190.2393,-814.8461 187.3284,-804.659 183.2512,-814.4379 190.2393,-814.8461"/>
</g>
<!-- Node12&#45;&gt;Node13 -->
<g id="edge13" class="edge">
<title>Node12&#45;&gt;Node13</title>
<path fill="none" stroke="#191970" d="M298.7878,-780.6355C321.0069,-778.1975 344.5527,-775.6139 364.8294,-773.389"/>
<polygon fill="#191970" stroke="#191970" points="298.2474,-777.1737 288.6888,-781.7436 299.0109,-784.1319 298.2474,-777.1737"/>
</g>
<!-- Node23 -->
<g id="node23" class="node">
<title>Node23</title>
<g id="a_node23"><a xlink:href="argo_8h_a5a8515fc3191ad0f3398d8ac1441b57a.html#a5a8515fc3191ad0f3398d8ac1441b57a" target="_top" xlink:title="reset ArgoDSM system ">
<polygon fill="#ffffff" stroke="#000000" points="384.5,-234 384.5,-253 452.5,-253 452.5,-234 384.5,-234"/>
<text text-anchor="middle" x="418.5" y="-241" font-family="Helvetica,sans-Serif" font-size="10.00" fill="#000000">argo_reset</text>
</a>
</g>
</g>
<!-- Node22&#45;&gt;Node23 -->
<g id="edge24" class="edge">
<title>Node22&#45;&gt;Node23</title>
<path fill="none" stroke="#191970" d="M294.5845,-243.5C325.6023,-243.5 359.8258,-243.5 384.4329,-243.5"/>
<polygon fill="#191970" stroke="#191970" points="294.2069,-240.0001 284.2069,-243.5 294.2068,-247.0001 294.2069,-240.0001"/>
</g>
<!-- Node24 -->
<g id="node24" class="node">
<title>Node24</title>
<g id="a_node24"><a xlink:href="namespaceargo_a31330d8b35bd7f9ef9880eec82339c54.html#a31330d8b35bd7f9ef9880eec82339c54" target="_top" xlink:title="initialize ArgoDSM system ">
<polygon fill="#ffffff" stroke="#000000" points="560,-234 560,-253 620,-253 620,-234 560,-234"/>
<text text-anchor="middle" x="590" y="-241" font-family="Helvetica,sans-Serif" font-size="10.00" fill="#000000">argo::init</text>
</a>
</g>
</g>
<!-- Node23&#45;&gt;Node24 -->
<g id="edge25" class="edge">
<title>Node23&#45;&gt;Node24</title>
<path fill="none" stroke="#191970" d="M463.1388,-243.5C493.5532,-243.5 533.0068,-243.5 559.7832,-243.5"/>
<polygon fill="#191970" stroke="#191970" points="462.7934,-240.0001 452.7934,-243.5 462.7934,-247.0001 462.7934,-240.0001"/>
</g>
<!-- Node25 -->
<g id="node25" class="node">
<title>Node25</title>
<g id="a_node25"><a xlink:href="tests_2allocators_8cpp_a3c04138a5bfe5d72780bb7e82a18e627.html#a3c04138a5bfe5d72780bb7e82a18e627" target="_top" xlink:title="The main function that runs the tests. ">
<polygon fill="#ffffff" stroke="#000000" points="735.5,-269 735.5,-288 776.5,-288 776.5,-269 735.5,-269"/>
<text text-anchor="middle" x="756" y="-276" font-family="Helvetica,sans-Serif" font-size="10.00" fill="#000000">main</text>
</a>
</g>
</g>
<!-- Node24&#45;&gt;Node25 -->
<g id="edge26" class="edge">
<title>Node24&#45;&gt;Node25</title>
<path fill="none" stroke="#191970" d="M629.8938,-251.9114C663.0011,-258.8918 708.7737,-268.5426 735.0942,-274.0922"/>
<polygon fill="#191970" stroke="#191970" points="630.5683,-248.4767 620.0613,-249.8382 629.1241,-255.3261 630.5683,-248.4767"/>
</g>
<!-- Node26 -->
<g id="node26" class="node">
<title>Node26</title>
<g id="a_node26"><a xlink:href="argo_8h_aa84680ad78c3598c30a482ff71ec6bbc.html#aa84680ad78c3598c30a482ff71ec6bbc" target="_top" xlink:title="initialize ArgoDSM system ">
<polygon fill="#ffffff" stroke="#000000" points="726.5,-231 726.5,-250 785.5,-250 785.5,-231 726.5,-231"/>
<text text-anchor="middle" x="756" y="-238" font-family="Helvetica,sans-Serif" font-size="10.00" fill="#000000">argo_init</text>
</a>
</g>
</g>
<!-- Node24&#45;&gt;Node26 -->
<g id="edge27" class="edge">
<title>Node24&#45;&gt;Node26</title>
<path fill="none" stroke="#191970" d="M630.1069,-242.7752C659.8053,-242.2385 699.6066,-241.5192 726.4414,-241.0342"/>
<polygon fill="#191970" stroke="#191970" points="629.9964,-239.2765 620.0613,-242.9567 630.123,-246.2754 629.9964,-239.2765"/>
</g>
<!-- Node29 -->
<g id="node29" class="node">
<title>Node29</title>
<g id="a_node29"><a xlink:href="classargo_1_1globallock_1_1global__tas__lock_ae1a2cc75c9371ed191ac68f4e72f227e.html#ae1a2cc75c9371ed191ac68f4e72f227e" target="_top" xlink:title="take the lock ">
<polygon fill="#ffffff" stroke="#000000" points="353,-164.5 353,-194.5 484,-194.5 484,-164.5 353,-164.5"/>
<text text-anchor="start" x="361" y="-182.5" font-family="Helvetica,sans-Serif" font-size="10.00" fill="#000000">argo::globallock::global</text>
<text text-anchor="middle" x="418.5" y="-171.5" font-family="Helvetica,sans-Serif" font-size="10.00" fill="#000000">_tas_lock::lock</text>
</a>
</g>
</g>
<!-- Node28&#45;&gt;Node29 -->
<g id="edge30" class="edge">
<title>Node28&#45;&gt;Node29</title>
<path fill="none" stroke="#191970" d="M293.6708,-158.3319C313.0917,-161.6253 333.8242,-165.141 352.7013,-168.3421"/>
<polygon fill="#191970" stroke="#191970" points="294.0956,-154.8541 283.6512,-156.6329 292.9253,-161.7556 294.0956,-154.8541"/>
</g>
<!-- Node36 -->
<g id="node36" class="node">
<title>Node36</title>
<g id="a_node36"><a xlink:href="lock_8cpp_a7f9fec9adf3c86b1db45340c27c6c89f.html#a7f9fec9adf3c86b1db45340c27c6c89f" target="_top" xlink:title="Tests trylock functionality. ">
<polygon fill="#ffffff" stroke="#000000" points="393,-126 393,-145 444,-145 444,-126 393,-126"/>
<text text-anchor="middle" x="418.5" y="-133" font-family="Helvetica,sans-Serif" font-size="10.00" fill="#000000">TEST_F</text>
</a>
</g>
</g>
<!-- Node28&#45;&gt;Node36 -->
<g id="edge37" class="edge">
<title>Node28&#45;&gt;Node36</title>
<path fill="none" stroke="#191970" d="M293.8444,-141.7172C328.7391,-139.9769 367.8341,-138.027 392.7817,-136.7827"/>
<polygon fill="#191970" stroke="#191970" points="293.4644,-138.2317 283.6512,-142.2256 293.8132,-145.2231 293.4644,-138.2317"/>
</g>
<!-- Node30 -->
<g id="node30" class="node">
<title>Node30</title>
<g id="a_node30"><a xlink:href="classargo_1_1mempools_1_1global__memory__pool_af2ce384d7ee177371521c875045c565c.html#af2ce384d7ee177371521c875045c565c" target="_top" xlink:title="Reserve more memory. ">
<polygon fill="#ffffff" stroke="#000000" points="524,-46.5 524,-76.5 656,-76.5 656,-46.5 524,-46.5"/>
<text text-anchor="start" x="532" y="-64.5" font-family="Helvetica,sans-Serif" font-size="10.00" fill="#000000">argo::mempools::global</text>
<text text-anchor="middle" x="590" y="-53.5" font-family="Helvetica,sans-Serif" font-size="10.00" fill="#000000">_memory_pool::reserve</text>
</a>
</g>
</g>
<!-- Node29&#45;&gt;Node30 -->
<g id="edge31" class="edge">
<title>Node29&#45;&gt;Node30</title>
<path fill="none" stroke="#191970" d="M477.8971,-159.2436C480.0349,-157.7667 482.0803,-156.1877 484,-154.5 509.3878,-132.1801 494.5123,-109.7057 520,-87.5 524.8873,-83.242 530.5358,-79.6555 536.4617,-76.6406"/>
<polygon fill="#191970" stroke="#191970" points="476.0227,-156.2867 469.2654,-164.4469 479.6366,-162.2817 476.0227,-156.2867"/>
</g>
<!-- Node31 -->
<g id="node31" class="node">
<title>Node31</title>
<g id="a_node31"><a xlink:href="classargo_1_1mempools_1_1global__memory__pool_ac37f5714010e1f4b482e6c6a8a246c05.html#ac37f5714010e1f4b482e6c6a8a246c05" target="_top" xlink:title="check remaining available memory in pool ">
<polygon fill="#ffffff" stroke="#000000" points="520,-96.5 520,-126.5 660,-126.5 660,-96.5 520,-96.5"/>
<text text-anchor="start" x="528" y="-114.5" font-family="Helvetica,sans-Serif" font-size="10.00" fill="#000000">argo::mempools::global</text>
<text text-anchor="middle" x="590" y="-103.5" font-family="Helvetica,sans-Serif" font-size="10.00" fill="#000000">_memory_pool::available</text>
</a>
</g>
</g>
<!-- Node29&#45;&gt;Node31 -->
<g id="edge32" class="edge">
<title>Node29&#45;&gt;Node31</title>
<path fill="none" stroke="#191970" d="M469.4619,-160.617C474.4017,-158.6167 479.3148,-156.5594 484,-154.5 500.3764,-147.3018 503.5469,-143.521 520,-136.5 528.071,-133.0559 536.7932,-129.6775 545.2512,-126.573"/>
<polygon fill="#191970" stroke="#191970" points="467.9861,-157.4371 459.9825,-164.3792 470.5684,-163.9434 467.9861,-157.4371"/>
</g>
<!-- Node33 -->
<g id="node33" class="node">
<title>Node33</title>
<g id="a_node33"><a xlink:href="classargo_1_1globallock_1_1cohort__lock_ae6e70438d85a8ae5698d198ce11d9a89.html#ae6e70438d85a8ae5698d198ce11d9a89" target="_top" xlink:title="Acquire the lock. ">
<polygon fill="#ffffff" stroke="#000000" points="524.5,-184.5 524.5,-214.5 655.5,-214.5 655.5,-184.5 524.5,-184.5"/>
<text text-anchor="start" x="532.5" y="-202.5" font-family="Helvetica,sans-Serif" font-size="10.00" fill="#000000">argo::globallock::cohort</text>
<text text-anchor="middle" x="590" y="-191.5" font-family="Helvetica,sans-Serif" font-size="10.00" fill="#000000">_lock::lock</text>
</a>
</g>
</g>
<!-- Node29&#45;&gt;Node33 -->
<g id="edge34" class="edge">
<title>Node29&#45;&gt;Node33</title>
<path fill="none" stroke="#191970" d="M494.2665,-188.3357C504.2994,-189.5058 514.5171,-190.6973 524.3602,-191.8452"/>
<polygon fill="#191970" stroke="#191970" points="494.654,-184.8573 484.3159,-187.1753 493.8431,-191.8102 494.654,-184.8573"/>
</g>
<!-- Node35 -->
<g id="node35" class="node">
<title>Node35</title>
<g id="a_node35"><a xlink:href="lock_8cpp_a9442277381b3576227a7eec86626d5de.html#a9442277381b3576227a7eec86626d5de" target="_top" xlink:title="Checks locking is working by implementing a custom barrier. ">
<polygon fill="#ffffff" stroke="#000000" points="564.5,-146 564.5,-165 615.5,-165 615.5,-146 564.5,-146"/>
<text text-anchor="middle" x="590" y="-153" font-family="Helvetica,sans-Serif" font-size="10.00" fill="#000000">TEST_F</text>
</a>
</g>
</g>
<!-- Node29&#45;&gt;Node35 -->
<g id="edge36" class="edge">
<title>Node29&#45;&gt;Node35</title>
<path fill="none" stroke="#191970" d="M494.2484,-168.8996C519.3963,-165.3804 545.7076,-161.6984 564.3711,-159.0866"/>
<polygon fill="#191970" stroke="#191970" points="493.7343,-165.4374 484.3159,-170.2896 494.7045,-172.3698 493.7343,-165.4374"/>
</g>
<!-- Node32 -->
<g id="node32" class="node">
<title>Node32</title>
<g id="a_node32"><a xlink:href="tests_2allocators_8cpp_ab6f86a07c7fdc11016618b4a93bd5045.html#ab6f86a07c7fdc11016618b4a93bd5045" target="_top" xlink:title="Unittest that checks that the global address space is at least as large as requested. ">
<polygon fill="#ffffff" stroke="#000000" points="730.5,-102 730.5,-121 781.5,-121 781.5,-102 730.5,-102"/>
<text text-anchor="middle" x="756" y="-109" font-family="Helvetica,sans-Serif" font-size="10.00" fill="#000000">TEST_F</text>
</a>
</g>
</g>
<!-- Node31&#45;&gt;Node32 -->
<g id="edge33" class="edge">
<title>Node31&#45;&gt;Node32</title>
<path fill="none" stroke="#191970" d="M670.6098,-111.5C692.1841,-111.5 713.974,-111.5 730.1422,-111.5"/>
<polygon fill="#191970" stroke="#191970" points="670.399,-108.0001 660.3989,-111.5 670.3989,-115.0001 670.399,-108.0001"/>
</g>
<!-- Node34 -->
<g id="node34" class="node">
<title>Node34</title>
<g id="a_node34"><a xlink:href="cohort__lock_8h_a3518d9666b8fe266f34c7aea2b4a583e.html#a3518d9666b8fe266f34c7aea2b4a583e" target="_top" xlink:title="lock a cohort lock ">
<polygon fill="#ffffff" stroke="#000000" points="696,-190 696,-209 816,-209 816,-190 696,-190"/>
<text text-anchor="middle" x="756" y="-197" font-family="Helvetica,sans-Serif" font-size="10.00" fill="#000000">argo_cohortlock_lock</text>
</a>
</g>
</g>
<!-- Node33&#45;&gt;Node34 -->
<g id="edge35" class="edge">
<title>Node33&#45;&gt;Node34</title>
<path fill="none" stroke="#191970" d="M665.6935,-199.5C675.8513,-199.5 686.1562,-199.5 695.9932,-199.5"/>
<polygon fill="#191970" stroke="#191970" points="665.6076,-196.0001 655.6076,-199.5 665.6076,-203.0001 665.6076,-196.0001"/>
</g>
<!-- Node37&#45;&gt;Node30 -->
<g id="edge39" class="edge">
<title>Node37&#45;&gt;Node30</title>
<path fill="none" stroke="#191970" d="M293.8064,-89.3677C361.3695,-83.0109 459.2681,-73.8 523.7552,-67.7327"/>
<polygon fill="#191970" stroke="#191970" points="293.278,-85.9018 283.6498,-90.3233 293.9337,-92.8711 293.278,-85.9018"/>
</g>
<!-- Node37&#45;&gt;Node31 -->
<g id="edge40" class="edge">
<title>Node37&#45;&gt;Node31</title>
<path fill="none" stroke="#191970" d="M294.0223,-99.5654C360.2613,-102.2363 455.5376,-106.0781 519.9511,-108.6754"/>
<polygon fill="#191970" stroke="#191970" points="293.7827,-96.053 283.6498,-99.1472 293.5007,-103.0473 293.7827,-96.053"/>
</g>
<!-- Node37&#45;&gt;Node36 -->
<g id="edge43" class="edge">
<title>Node37&#45;&gt;Node36</title>
<path fill="none" stroke="#191970" d="M293.8444,-111.2528C328.7391,-118.0403 367.8341,-125.6448 392.7817,-130.4974"/>
<polygon fill="#191970" stroke="#191970" points="294.1355,-107.7439 283.6512,-109.2701 292.7989,-114.6151 294.1355,-107.7439"/>
</g>
<!-- Node38 -->
<g id="node38" class="node">
<title>Node38</title>
<g id="a_node38"><a xlink:href="classargo_1_1globallock_1_1cohort__lock_ac937f13d00780ca9ff8f4dd826c6c12b.html#ac937f13d00780ca9ff8f4dd826c6c12b" target="_top" xlink:title="Release the lock. ">
<polygon fill="#ffffff" stroke="#000000" points="353,-.5 353,-30.5 484,-30.5 484,-.5 353,-.5"/>
<text text-anchor="start" x="361" y="-18.5" font-family="Helvetica,sans-Serif" font-size="10.00" fill="#000000">argo::globallock::cohort</text>
<text text-anchor="middle" x="418.5" y="-7.5" font-family="Helvetica,sans-Serif" font-size="10.00" fill="#000000">_lock::unlock</text>
</a>
</g>
</g>
<!-- Node37&#45;&gt;Node38 -->
<g id="edge41" class="edge">
<title>Node37&#45;&gt;Node38</title>
<path fill="none" stroke="#191970" d="M293.2637,-80.7127C301.4311,-78.0563 309.4944,-75.0007 317,-71.5 334.8866,-63.1574 335.9462,-55.4347 353,-45.5 362.1863,-40.1485 372.4934,-35.0434 382.1642,-30.611"/>
<polygon fill="#191970" stroke="#191970" points="292.1949,-77.3795 283.6552,-83.6504 294.2415,-84.0736 292.1949,-77.3795"/>
</g>
<!-- Node39 -->
<g id="node39" class="node">
<title>Node39</title>
<g id="a_node39"><a xlink:href="cohort__lock_8h_aecc3694b56dfe7472a345995d7559e89.html#aecc3694b56dfe7472a345995d7559e89" target="_top" xlink:title="unlock a cohort lock ">
<polygon fill="#ffffff" stroke="#000000" points="524,-6 524,-25 656,-25 656,-6 524,-6"/>
<text text-anchor="middle" x="590" y="-13" font-family="Helvetica,sans-Serif" font-size="10.00" fill="#000000">argo_cohortlock_unlock</text>
</a>
</g>
</g>
<!-- Node38&#45;&gt;Node39 -->
<g id="edge42" class="edge">
<title>Node38&#45;&gt;Node39</title>
<path fill="none" stroke="#191970" d="M494.4312,-15.5C504.2187,-15.5 514.1791,-15.5 523.7933,-15.5"/>
<polygon fill="#191970" stroke="#191970" points="494.3159,-12.0001 484.3159,-15.5 494.3159,-19.0001 494.3159,-12.0001"/>
</g>
</g>
</svg>
