<?xml version="1.0" encoding="UTF-8" standalone="no"?>
<!DOCTYPE svg PUBLIC "-//W3C//DTD SVG 1.1//EN"
 "http://www.w3.org/Graphics/SVG/1.1/DTD/svg11.dtd">
<!-- Generated by graphviz version 2.40.1 (20161225.0304)
 -->
<!-- Title: argo::chunk_size Pages: 1 -->
<svg width="1332pt" height="454pt"
 viewBox="0.00 0.00 1332.00 453.50" xmlns="http://www.w3.org/2000/svg" xmlns:xlink="http://www.w3.org/1999/xlink">
<g id="graph0" class="graph" transform="scale(1 1) rotate(0) translate(4 449.5)">
<title>argo::chunk_size</title>
<polygon fill="#ffffff" stroke="transparent" points="-4,4 -4,-449.5 1328,-449.5 1328,4 -4,4"/>
<!-- Node1 -->
<g id="node1" class="node">
<title>Node1</title>
<polygon fill="#bfbfbf" stroke="#000000" points="0,-137 0,-156 98,-156 98,-137 0,-137"/>
<text text-anchor="middle" x="49" y="-144" font-family="Helvetica,sans-Serif" font-size="10.00" fill="#000000">argo::chunk_size</text>
</g>
<!-- Node2 -->
<g id="node2" class="node">
<title>Node2</title>
<g id="a_node2"><a xlink:href="argo_8h_acead353584cb963251b5a5b9e10cd9b9.html#acead353584cb963251b5a5b9e10cd9b9" target="_top" xlink:title="Get the size of memory which is the portion of memory owned by this node // TODO improve. ">
<polygon fill="#ffffff" stroke="#000000" points="165.5,-271 165.5,-290 263.5,-290 263.5,-271 165.5,-271"/>
<text text-anchor="middle" x="214.5" y="-278" font-family="Helvetica,sans-Serif" font-size="10.00" fill="#000000">argo_chunk_size</text>
</a>
</g>
</g>
<!-- Node1&#45;&gt;Node2 -->
<g id="edge1" class="edge">
<title>Node1&#45;&gt;Node2</title>
<path fill="none" stroke="#191970" d="M57.5191,-165.1035C70.327,-190.9058 97.0407,-237.1248 134,-261.5 143.3502,-267.6666 154.4758,-271.8393 165.4269,-274.6606"/>
<polygon fill="#191970" stroke="#191970" points="60.6384,-163.5136 53.1622,-156.0064 54.325,-166.5372 60.6384,-163.5136"/>
</g>
<!-- Node3 -->
<g id="node3" class="node">
<title>Node3</title>
<g id="a_node3"><a xlink:href="namespaceargo_a48dc17c94275df10a8e7f3959cbf0191.html#a48dc17c94275df10a8e7f3959cbf0191" target="_top" xlink:title="Get the ArgoDSM node id where addr is physically backed. ">
<polygon fill="#ffffff" stroke="#000000" points="156,-233 156,-252 273,-252 273,-233 156,-233"/>
<text text-anchor="middle" x="214.5" y="-240" font-family="Helvetica,sans-Serif" font-size="10.00" fill="#000000">argo::get_homenode</text>
</a>
</g>
</g>
<!-- Node1&#45;&gt;Node3 -->
<g id="edge2" class="edge">
<title>Node1&#45;&gt;Node3</title>
<path fill="none" stroke="#191970" d="M63.6257,-163.7918C79.2872,-181.1971 105.7292,-207.5462 134,-222.5 142.1469,-226.8093 151.2516,-230.2139 160.326,-232.8969"/>
<polygon fill="#191970" stroke="#191970" points="66.0668,-161.2669 56.8426,-156.055 60.8033,-165.8817 66.0668,-161.2669"/>
</g>
<!-- Node27 -->
<g id="node27" class="node">
<title>Node27</title>
<g id="a_node27"><a xlink:href="backend_8hpp_ae76ec4647c992bfecf6309787f3dec4a.html#ae76ec4647c992bfecf6309787f3dec4a" target="_top" xlink:title="Backend internal type erased atomic store function. ">
<polygon fill="#ffffff" stroke="#000000" points="152,-165.5 152,-195.5 277,-195.5 277,-165.5 152,-165.5"/>
<text text-anchor="start" x="160" y="-183.5" font-family="Helvetica,sans-Serif" font-size="10.00" fill="#000000">argo::backend::atomic</text>
<text text-anchor="middle" x="214.5" y="-172.5" font-family="Helvetica,sans-Serif" font-size="10.00" fill="#000000">::_store</text>
</a>
</g>
</g>
<!-- Node1&#45;&gt;Node27 -->
<g id="edge32" class="edge">
<title>Node1&#45;&gt;Node27</title>
<path fill="none" stroke="#191970" d="M105.6393,-158.1359C120.5557,-161.2003 136.7332,-164.5237 151.9417,-167.6481"/>
<polygon fill="#191970" stroke="#191970" points="106.0412,-154.6454 95.5414,-156.0614 104.6325,-161.5022 106.0412,-154.6454"/>
</g>
<!-- Node28 -->
<g id="node28" class="node">
<title>Node28</title>
<g id="a_node28"><a xlink:href="backend_8hpp_ad05287a5a2d303811b5c9e7a488bda59.html#ad05287a5a2d303811b5c9e7a488bda59" target="_top" xlink:title="Backend internal type erased atomic store function. ">
<polygon fill="#ffffff" stroke="#000000" points="152,-98.5 152,-128.5 277,-128.5 277,-98.5 152,-98.5"/>
<text text-anchor="start" x="160" y="-116.5" font-family="Helvetica,sans-Serif" font-size="10.00" fill="#000000">argo::backend::atomic</text>
<text text-anchor="middle" x="214.5" y="-105.5" font-family="Helvetica,sans-Serif" font-size="10.00" fill="#000000">::_load</text>
</a>
</g>
</g>
<!-- Node1&#45;&gt;Node28 -->
<g id="edge34" class="edge">
<title>Node1&#45;&gt;Node28</title>
<path fill="none" stroke="#191970" d="M106.769,-134.9811C121.3693,-132.0699 137.1145,-128.9304 151.9389,-125.9744"/>
<polygon fill="#191970" stroke="#191970" points="105.992,-131.5671 96.8695,-136.955 107.3608,-138.4319 105.992,-131.5671"/>
</g>
<!-- Node29 -->
<g id="node29" class="node">
<title>Node29</title>
<g id="a_node29"><a xlink:href="namespaceargo_1_1mempools_a06f9a6c5d45716a00b40c6caa37988f9.html#a06f9a6c5d45716a00b40c6caa37988f9" target="_top" xlink:title="synchronize memory metainformation (address) after growing to ensure visibility ">
<polygon fill="#ffffff" stroke="#000000" points="134,-49.5 134,-79.5 295,-79.5 295,-49.5 134,-49.5"/>
<text text-anchor="start" x="142" y="-67.5" font-family="Helvetica,sans-Serif" font-size="10.00" fill="#000000">argo::mempools::synchronize</text>
<text text-anchor="middle" x="214.5" y="-56.5" font-family="Helvetica,sans-Serif" font-size="10.00" fill="#000000">&lt; NODE_ZERO_ONLY &gt;</text>
</a>
</g>
</g>
<!-- Node1&#45;&gt;Node29 -->
<g id="edge36" class="edge">
<title>Node1&#45;&gt;Node29</title>
<path fill="none" stroke="#191970" d="M68.5305,-130.5747C85.1058,-117.7174 109.9612,-99.9425 134,-88.5 140.979,-85.178 148.5186,-82.2028 156.0876,-79.5732"/>
<polygon fill="#191970" stroke="#191970" points="66.341,-127.844 60.6655,-136.7905 70.6814,-133.3359 66.341,-127.844"/>
</g>
<!-- Node30 -->
<g id="node30" class="node">
<title>Node30</title>
<g id="a_node30"><a xlink:href="classargo_1_1mempools_1_1dynamic__memory__pool_a0699b3234a7d6f2fcc7cfa62385089f9.html#a0699b3234a7d6f2fcc7cfa62385089f9" target="_top" xlink:title="fail to grow the memory pool ">
<polygon fill="#ffffff" stroke="#000000" points="142.5,-.5 142.5,-30.5 286.5,-30.5 286.5,-.5 142.5,-.5"/>
<text text-anchor="start" x="150.5" y="-18.5" font-family="Helvetica,sans-Serif" font-size="10.00" fill="#000000">argo::mempools::dynamic</text>
<text text-anchor="middle" x="214.5" y="-7.5" font-family="Helvetica,sans-Serif" font-size="10.00" fill="#000000">_memory_pool::grow</text>
</a>
</g>
</g>
<!-- Node1&#45;&gt;Node30 -->
<g id="edge37" class="edge">
<title>Node1&#45;&gt;Node30</title>
<path fill="none" stroke="#191970" d="M58.8376,-128.0877C72.5461,-104.1727 99.6273,-62.7449 134,-39.5 139.0738,-36.0688 144.6496,-33.1174 150.426,-30.5808"/>
<polygon fill="#191970" stroke="#191970" points="55.7486,-126.441 53.9488,-136.8818 61.8667,-129.8422 55.7486,-126.441"/>
</g>
<!-- Node4 -->
<g id="node4" class="node">
<title>Node4</title>
<g id="a_node4"><a xlink:href="argo_8h_aa4a06a633ece5fbb94b9d8f0a6479e4c.html#aa4a06a633ece5fbb94b9d8f0a6479e4c" target="_top" xlink:title="Get the ArgoDSM node id where addr is physically backed. ">
<polygon fill="#ffffff" stroke="#000000" points="331,-293 331,-312 447,-312 447,-293 331,-293"/>
<text text-anchor="middle" x="389" y="-300" font-family="Helvetica,sans-Serif" font-size="10.00" fill="#000000">argo_get_homenode</text>
</a>
</g>
</g>
<!-- Node3&#45;&gt;Node4 -->
<g id="edge3" class="edge">
<title>Node3&#45;&gt;Node4</title>
<path fill="none" stroke="#191970" d="M275.65,-254.7625C282.2764,-256.73 288.8432,-258.968 295,-261.5 312.3419,-268.6318 313.9759,-275.6396 331,-283.5 338.696,-287.0534 347.2461,-290.2414 355.3649,-292.9454"/>
<polygon fill="#191970" stroke="#191970" points="276.5112,-251.3693 265.9396,-252.0707 274.6412,-258.115 276.5112,-251.3693"/>
</g>
<!-- Node5 -->
<g id="node5" class="node">
<title>Node5</title>
<g id="a_node5"><a xlink:href="classwrite__buffer_aa2325346aceb3e7ffdbdbdc8e8682147.html#aa2325346aceb3e7ffdbdbdc8e8682147" target="_top" xlink:title="Sorts all elements by home node id in ascending order. ">
<polygon fill="#ffffff" stroke="#000000" points="339,-255 339,-274 439,-274 439,-255 339,-255"/>
<text text-anchor="middle" x="389" y="-262" font-family="Helvetica,sans-Serif" font-size="10.00" fill="#000000">write_buffer::sort</text>
</a>
</g>
</g>
<!-- Node3&#45;&gt;Node5 -->
<g id="edge4" class="edge">
<title>Node3&#45;&gt;Node5</title>
<path fill="none" stroke="#191970" d="M283.235,-251.1657C301.7498,-253.5 321.4308,-255.9812 338.7313,-258.1624"/>
<polygon fill="#191970" stroke="#191970" points="283.4507,-247.6653 273.0914,-249.8869 282.575,-254.6103 283.4507,-247.6653"/>
</g>
<!-- Node22 -->
<g id="node22" class="node">
<title>Node22</title>
<g id="a_node22"><a xlink:href="classwrite__buffer_a9e8cf81e623c4bb67f687379f8709a53.html#a9e8cf81e623c4bb67f687379f8709a53" target="_top" xlink:title="Sorts the first _write_back_size elements by home node id in ascending order. ">
<polygon fill="#ffffff" stroke="#000000" points="339,-205.5 339,-235.5 439,-235.5 439,-205.5 339,-205.5"/>
<text text-anchor="start" x="347" y="-223.5" font-family="Helvetica,sans-Serif" font-size="10.00" fill="#000000">write_buffer::sort</text>
<text text-anchor="middle" x="389" y="-212.5" font-family="Helvetica,sans-Serif" font-size="10.00" fill="#000000">_first</text>
</a>
</g>
</g>
<!-- Node3&#45;&gt;Node22 -->
<g id="edge26" class="edge">
<title>Node3&#45;&gt;Node22</title>
<path fill="none" stroke="#191970" d="M283.235,-233.8343C301.7498,-231.5 321.4308,-229.0188 338.7313,-226.8376"/>
<polygon fill="#191970" stroke="#191970" points="282.575,-230.3897 273.0914,-235.1131 283.4507,-237.3347 282.575,-230.3897"/>
</g>
<!-- Node26 -->
<g id="node26" class="node">
<title>Node26</title>
<g id="a_node26"><a xlink:href="api_8cpp_a6255f7c304a854275724ca1df48fab28.html#a6255f7c304a854275724ca1df48fab28" target="_top" xlink:title="Unittest that checks correctness of the argo::get_homenode(T* addr) API function. ...">
<polygon fill="#ffffff" stroke="#000000" points="363.5,-167 363.5,-186 414.5,-186 414.5,-167 363.5,-167"/>
<text text-anchor="middle" x="389" y="-174" font-family="Helvetica,sans-Serif" font-size="10.00" fill="#000000">TEST_F</text>
</a>
</g>
</g>
<!-- Node3&#45;&gt;Node26 -->
<g id="edge31" class="edge">
<title>Node3&#45;&gt;Node26</title>
<path fill="none" stroke="#191970" d="M275.9048,-229.9935C282.4838,-227.8478 288.9699,-225.3648 295,-222.5 313.065,-213.9178 313.2604,-204.7362 331,-195.5 341.1503,-190.2152 353.059,-186.0079 363.436,-182.9095"/>
<polygon fill="#191970" stroke="#191970" points="274.8089,-226.6682 266.2414,-232.9009 276.8257,-233.3713 274.8089,-226.6682"/>
</g>
<!-- Node6 -->
<g id="node6" class="node">
<title>Node6</title>
<g id="a_node6"><a xlink:href="classwrite__buffer_aca2e330e17a38c1cc8d8c60701ce9dd7.html#aca2e330e17a38c1cc8d8c60701ce9dd7" target="_top" xlink:title="Flushes the ArgoDSM write buffer to memory. ">
<polygon fill="#ffffff" stroke="#000000" points="483,-262 483,-281 587,-281 587,-262 483,-262"/>
<text text-anchor="middle" x="535" y="-269" font-family="Helvetica,sans-Serif" font-size="10.00" fill="#000000">write_buffer::flush</text>
</a>
</g>
</g>
<!-- Node5&#45;&gt;Node6 -->
<g id="edge5" class="edge">
<title>Node5&#45;&gt;Node6</title>
<path fill="none" stroke="#191970" d="M449.2791,-267.3901C460.362,-267.9215 471.8486,-268.4722 482.6741,-268.9912"/>
<polygon fill="#191970" stroke="#191970" points="449.4011,-263.892 439.2449,-266.909 449.0658,-270.884 449.4011,-263.892"/>
</g>
<!-- Node7 -->
<g id="node7" class="node">
<title>Node7</title>
<g id="a_node7"><a xlink:href="swdsm_8h_aa7c3a2de6bbafdaf68fe6ceb6110ab97.html#aa7c3a2de6bbafdaf68fe6ceb6110ab97" target="_top" xlink:title="Self&#45;Invalidates all memory that has potential writers. ">
<polygon fill="#ffffff" stroke="#000000" points="623.5,-276 623.5,-295 721.5,-295 721.5,-276 623.5,-276"/>
<text text-anchor="middle" x="672.5" y="-283" font-family="Helvetica,sans-Serif" font-size="10.00" fill="#000000">self_invalidation</text>
</a>
</g>
</g>
<!-- Node6&#45;&gt;Node7 -->
<g id="edge6" class="edge">
<title>Node6&#45;&gt;Node7</title>
<path fill="none" stroke="#191970" d="M597.494,-277.863C606.1954,-278.749 615.0315,-279.6487 623.4386,-280.5047"/>
<polygon fill="#191970" stroke="#191970" points="597.6782,-274.3638 587.3751,-276.8327 596.9691,-281.3278 597.6782,-274.3638"/>
</g>
<!-- Node8 -->
<g id="node8" class="node">
<title>Node8</title>
<g id="a_node8"><a xlink:href="swdsm_8h_ad3f5bdae81c60ac704dda7372792427d.html#ad3f5bdae81c60ac704dda7372792427d" target="_top" xlink:title="Global barrier for ArgoDSM &#45; needs to be called by every thread in the system that need coherent view...">
<polygon fill="#ffffff" stroke="#000000" points="758,-238 758,-257 874,-257 874,-238 758,-238"/>
<text text-anchor="middle" x="816" y="-245" font-family="Helvetica,sans-Serif" font-size="10.00" fill="#000000">swdsm_argo_barrier</text>
</a>
</g>
</g>
<!-- Node6&#45;&gt;Node8 -->
<g id="edge20" class="edge">
<title>Node6&#45;&gt;Node8</title>
<path fill="none" stroke="#191970" d="M597.4382,-266.1672C645.3367,-262.0762 710.9674,-256.4708 757.7806,-252.4725"/>
<polygon fill="#191970" stroke="#191970" points="596.8612,-262.7036 587.1954,-267.042 597.457,-269.6783 596.8612,-262.7036"/>
</g>
<!-- Node20 -->
<g id="node20" class="node">
<title>Node20</title>
<g id="a_node20"><a xlink:href="swdsm_8h_ad390eb58e1be03ed6a0939fae7ebd20a.html#ad390eb58e1be03ed6a0939fae7ebd20a" target="_top" xlink:title="Release function for ArgoDSM (Release according to Release Consistency) ">
<polygon fill="#ffffff" stroke="#000000" points="776,-370 776,-389 856,-389 856,-370 776,-370"/>
<text text-anchor="middle" x="816" y="-377" font-family="Helvetica,sans-Serif" font-size="10.00" fill="#000000">argo_release</text>
</a>
</g>
</g>
<!-- Node6&#45;&gt;Node20 -->
<g id="edge21" class="edge">
<title>Node6&#45;&gt;Node20</title>
<path fill="none" stroke="#191970" d="M569.3015,-284.6835C626.6744,-306.7343 740.7577,-350.5813 791.119,-369.9372"/>
<polygon fill="#191970" stroke="#191970" points="570.5269,-281.4049 559.9369,-281.0843 568.0155,-287.9389 570.5269,-281.4049"/>
</g>
<!-- Node7&#45;&gt;Node8 -->
<g id="edge7" class="edge">
<title>Node7&#45;&gt;Node8</title>
<path fill="none" stroke="#191970" d="M718.4735,-273.3258C738.3164,-268.0713 761.1928,-262.0134 779.8005,-257.0859"/>
<polygon fill="#191970" stroke="#191970" points="717.4819,-269.9677 708.7111,-275.911 719.2739,-276.7345 717.4819,-269.9677"/>
</g>
<!-- Node16 -->
<g id="node16" class="node">
<title>Node16</title>
<g id="a_node16"><a xlink:href="swdsm_8h_a44b8bb7a3c8b47b4f9552c8e10b25e4b.html#a44b8bb7a3c8b47b4f9552c8e10b25e4b" target="_top" xlink:title="acquire function for ArgoDSM (Acquire according to Release Consistency) ">
<polygon fill="#ffffff" stroke="#000000" points="776,-314 776,-333 856,-333 856,-314 776,-314"/>
<text text-anchor="middle" x="816" y="-321" font-family="Helvetica,sans-Serif" font-size="10.00" fill="#000000">argo_acquire</text>
</a>
</g>
</g>
<!-- Node7&#45;&gt;Node16 -->
<g id="edge15" class="edge">
<title>Node7&#45;&gt;Node16</title>
<path fill="none" stroke="#191970" d="M718.4735,-297.6742C738.3164,-302.9287 761.1928,-308.9866 779.8005,-313.9141"/>
<polygon fill="#191970" stroke="#191970" points="719.2739,-294.2655 708.7111,-295.089 717.4819,-301.0323 719.2739,-294.2655"/>
</g>
<!-- Node9 -->
<g id="node9" class="node">
<title>Node9</title>
<g id="a_node9"><a xlink:href="backend_8hpp_af1a647431651556204709451bebb5a42.html#af1a647431651556204709451bebb5a42" target="_top" xlink:title="a simple collective barrier ">
<polygon fill="#ffffff" stroke="#000000" points="912,-200 912,-219 1036,-219 1036,-200 912,-200"/>
<text text-anchor="middle" x="974" y="-207" font-family="Helvetica,sans-Serif" font-size="10.00" fill="#000000">argo::backend::barrier</text>
</a>
</g>
</g>
<!-- Node8&#45;&gt;Node9 -->
<g id="edge8" class="edge">
<title>Node8&#45;&gt;Node9</title>
<path fill="none" stroke="#191970" d="M865.7616,-235.532C887.9029,-230.2069 913.6116,-224.0238 934.4166,-219.0201"/>
<polygon fill="#191970" stroke="#191970" points="864.7744,-232.1696 855.8701,-237.911 866.4113,-238.9755 864.7744,-232.1696"/>
</g>
<!-- Node10 -->
<g id="node10" class="node">
<title>Node10</title>
<g id="a_node10"><a xlink:href="swdsm_8h_acd175d6d8efa5cce6963bae64891a490.html#acd175d6d8efa5cce6963bae64891a490" target="_top" xlink:title="Allocates memory in global address space. ">
<polygon fill="#ffffff" stroke="#000000" points="932.5,-238 932.5,-257 1015.5,-257 1015.5,-238 932.5,-238"/>
<text text-anchor="middle" x="974" y="-245" font-family="Helvetica,sans-Serif" font-size="10.00" fill="#000000">argo_gmalloc</text>
</a>
</g>
</g>
<!-- Node8&#45;&gt;Node10 -->
<g id="edge9" class="edge">
<title>Node8&#45;&gt;Node10</title>
<path fill="none" stroke="#191970" d="M884.3948,-247.5C900.6389,-247.5 917.4922,-247.5 932.14,-247.5"/>
<polygon fill="#191970" stroke="#191970" points="884.3845,-244.0001 874.3845,-247.5 884.3844,-251.0001 884.3845,-244.0001"/>
</g>
<!-- Node11 -->
<g id="node11" class="node">
<title>Node11</title>
<g id="a_node11"><a xlink:href="swdsm_8cpp_aa954d5e0bcaee69ff6e03e697bcaf68b.html#aa954d5e0bcaee69ff6e03e697bcaf68b" target="_top" xlink:title="shut down ArgoDSM system ">
<polygon fill="#ffffff" stroke="#000000" points="934.5,-276 934.5,-295 1013.5,-295 1013.5,-276 934.5,-276"/>
<text text-anchor="middle" x="974" y="-283" font-family="Helvetica,sans-Serif" font-size="10.00" fill="#000000">argo_finalize</text>
</a>
</g>
</g>
<!-- Node8&#45;&gt;Node11 -->
<g id="edge10" class="edge">
<title>Node8&#45;&gt;Node11</title>
<path fill="none" stroke="#191970" d="M865.7616,-259.468C887.9029,-264.7931 913.6116,-270.9762 934.4166,-275.9799"/>
<polygon fill="#191970" stroke="#191970" points="866.4113,-256.0245 855.8701,-257.089 864.7744,-262.8304 866.4113,-256.0245"/>
</g>
<!-- Node13 -->
<g id="node13" class="node">
<title>Node13</title>
<g id="a_node13"><a xlink:href="swdsm_8h_a0c6b51af2b87ddf7eb04aa7d4e0e836e.html#a0c6b51af2b87ddf7eb04aa7d4e0e836e" target="_top" xlink:title="Resets current coherence. Collective function called by all threads on all nodes. ...">
<polygon fill="#ffffff" stroke="#000000" points="912,-162 912,-181 1036,-181 1036,-162 912,-162"/>
<text text-anchor="middle" x="974" y="-169" font-family="Helvetica,sans-Serif" font-size="10.00" fill="#000000">argo_reset_coherence</text>
</a>
</g>
</g>
<!-- Node8&#45;&gt;Node13 -->
<g id="edge12" class="edge">
<title>Node8&#45;&gt;Node13</title>
<path fill="none" stroke="#191970" d="M837.7121,-232.119C856.2237,-219.5583 883.9051,-202.0546 910,-190.5 918.1604,-186.8866 927.2019,-183.728 935.8561,-181.0775"/>
<polygon fill="#191970" stroke="#191970" points="835.6572,-229.2845 829.4084,-237.8404 839.6289,-235.0487 835.6572,-229.2845"/>
</g>
<!-- Node12 -->
<g id="node12" class="node">
<title>Node12</title>
<g id="a_node12"><a xlink:href="swdsm_8h_a18cc89a7368e30281ea4b1d214a1b1ff.html#a18cc89a7368e30281ea4b1d214a1b1ff" target="_top" xlink:title="Pins and registers the local thread. ">
<polygon fill="#ffffff" stroke="#000000" points="1077,-276 1077,-295 1178,-295 1178,-276 1077,-276"/>
<text text-anchor="middle" x="1127.5" y="-283" font-family="Helvetica,sans-Serif" font-size="10.00" fill="#000000">argo_pin_threads</text>
</a>
</g>
</g>
<!-- Node11&#45;&gt;Node12 -->
<g id="edge11" class="edge">
<title>Node11&#45;&gt;Node12</title>
<path fill="none" stroke="#191970" d="M1023.8002,-285.5C1040.7693,-285.5 1059.7517,-285.5 1076.7913,-285.5"/>
<polygon fill="#191970" stroke="#191970" points="1023.5301,-282.0001 1013.5301,-285.5 1023.53,-289.0001 1023.5301,-282.0001"/>
</g>
<!-- Node14 -->
<g id="node14" class="node">
<title>Node14</title>
<g id="a_node14"><a xlink:href="swdsm_8h_a10dca85d339ce630cf42dca685b3f6d9.html#a10dca85d339ce630cf42dca685b3f6d9" target="_top" xlink:title="Initializes ArgoDSM runtime. ">
<polygon fill="#ffffff" stroke="#000000" points="1084.5,-143 1084.5,-162 1170.5,-162 1170.5,-143 1084.5,-143"/>
<text text-anchor="middle" x="1127.5" y="-150" font-family="Helvetica,sans-Serif" font-size="10.00" fill="#000000">argo_initialize</text>
</a>
</g>
</g>
<!-- Node13&#45;&gt;Node14 -->
<g id="edge13" class="edge">
<title>Node13&#45;&gt;Node14</title>
<path fill="none" stroke="#191970" d="M1046.7126,-162.4997C1059.6043,-160.904 1072.6483,-159.2895 1084.3843,-157.8368"/>
<polygon fill="#191970" stroke="#191970" points="1045.9286,-159.07 1036.4343,-163.772 1046.7886,-166.017 1045.9286,-159.07"/>
</g>
<!-- Node15 -->
<g id="node15" class="node">
<title>Node15</title>
<g id="a_node15"><a xlink:href="backend_8hpp_af0d80a03a17a374c10d9635ddf81e261.html#af0d80a03a17a374c10d9635ddf81e261" target="_top" xlink:title="initialize backend ">
<polygon fill="#ffffff" stroke="#000000" points="1217,-143 1217,-162 1324,-162 1324,-143 1217,-143"/>
<text text-anchor="middle" x="1270.5" y="-150" font-family="Helvetica,sans-Serif" font-size="10.00" fill="#000000">argo::backend::init</text>
</a>
</g>
</g>
<!-- Node14&#45;&gt;Node15 -->
<g id="edge14" class="edge">
<title>Node14&#45;&gt;Node15</title>
<path fill="none" stroke="#191970" d="M1180.933,-152.5C1192.7171,-152.5 1205.2019,-152.5 1216.9891,-152.5"/>
<polygon fill="#191970" stroke="#191970" points="1180.7928,-149.0001 1170.7928,-152.5 1180.7927,-156.0001 1180.7928,-149.0001"/>
</g>
<!-- Node17 -->
<g id="node17" class="node">
<title>Node17</title>
<g id="a_node17"><a xlink:href="backend_8hpp_a1032f833666c3f810ac1c6210197d426.html#a1032f833666c3f810ac1c6210197d426" target="_top" xlink:title="causes a node to self&#45;invalidate its cache, and thus getting any updated values on subsequent accesse...">
<polygon fill="#ffffff" stroke="#000000" points="910,-314 910,-333 1038,-333 1038,-314 910,-314"/>
<text text-anchor="middle" x="974" y="-321" font-family="Helvetica,sans-Serif" font-size="10.00" fill="#000000">argo::backend::acquire</text>
</a>
</g>
</g>
<!-- Node16&#45;&gt;Node17 -->
<g id="edge16" class="edge">
<title>Node16&#45;&gt;Node17</title>
<path fill="none" stroke="#191970" d="M866.5231,-323.5C880.3033,-323.5 895.4182,-323.5 909.8475,-323.5"/>
<polygon fill="#191970" stroke="#191970" points="866.2789,-320.0001 856.2789,-323.5 866.2789,-327.0001 866.2789,-320.0001"/>
</g>
<!-- Node19 -->
<g id="node19" class="node">
<title>Node19</title>
<g id="a_node19"><a xlink:href="swdsm_8h_ac0b665f72bc2a28dc663ed204c526e1b.html#ac0b665f72bc2a28dc663ed204c526e1b" target="_top" xlink:title="acquire&#45;release function for ArgoDSM (Both acquire and release according to Release Consistency) ...">
<polygon fill="#ffffff" stroke="#000000" points="934.5,-370 934.5,-389 1013.5,-389 1013.5,-370 934.5,-370"/>
<text text-anchor="middle" x="974" y="-377" font-family="Helvetica,sans-Serif" font-size="10.00" fill="#000000">argo_acq_rel</text>
</a>
</g>
</g>
<!-- Node16&#45;&gt;Node19 -->
<g id="edge19" class="edge">
<title>Node16&#45;&gt;Node19</title>
<path fill="none" stroke="#191970" d="M848.0594,-336.9143C866.1124,-344.2667 889.1538,-353.3179 910,-360.5 919.6433,-363.8224 930.2193,-367.1057 939.9473,-369.9843"/>
<polygon fill="#191970" stroke="#191970" points="849.1688,-333.5863 838.5888,-333.027 846.5108,-340.0621 849.1688,-333.5863"/>
</g>
<!-- Node17&#45;&gt;Node17 -->
<g id="edge17" class="edge">
<title>Node17&#45;&gt;Node17</title>
<path fill="none" stroke="#191970" d="M945.6275,-342.1539C946.8135,-347.4368 956.271,-351.5 974,-351.5 1001.0156,-351.5 1008.8248,-342.0653 997.4276,-333.2571"/>
<polygon fill="#191970" stroke="#191970" points="948.7735,-343.6981 950.5724,-333.2571 942.6551,-340.2974 948.7735,-343.6981"/>
</g>
<!-- Node18 -->
<g id="node18" class="node">
<title>Node18</title>
<g id="a_node18"><a xlink:href="singlenode_8cpp_aab3cabb3e1c0b9696b339416b684f78c.html#aab3cabb3e1c0b9696b339416b684f78c" target="_top" xlink:title="argo::backend::init">
<polygon fill="#ffffff" stroke="#000000" points="1074,-361 1074,-380 1181,-380 1181,-361 1074,-361"/>
<text text-anchor="middle" x="1127.5" y="-368" font-family="Helvetica,sans-Serif" font-size="10.00" fill="#000000">argo::backend::init</text>
</a>
</g>
</g>
<!-- Node17&#45;&gt;Node18 -->
<g id="edge18" class="edge">
<title>Node17&#45;&gt;Node18</title>
<path fill="none" stroke="#191970" d="M1014.8303,-336.0018C1040.3583,-343.8182 1072.7319,-353.7306 1096.2201,-360.9224"/>
<polygon fill="#191970" stroke="#191970" points="1015.6496,-332.5923 1005.063,-333.0112 1013.6001,-339.2856 1015.6496,-332.5923"/>
</g>
<!-- Node20&#45;&gt;Node19 -->
<g id="edge25" class="edge">
<title>Node20&#45;&gt;Node19</title>
<path fill="none" stroke="#191970" d="M866.4252,-379.5C888.3886,-379.5 913.7577,-379.5 934.3418,-379.5"/>
<polygon fill="#191970" stroke="#191970" points="866.2789,-376.0001 856.2789,-379.5 866.2788,-383.0001 866.2789,-376.0001"/>
</g>
<!-- Node21 -->
<g id="node21" class="node">
<title>Node21</title>
<g id="a_node21"><a xlink:href="backend_8hpp_a8953c9cd9d3c56306740b6c9b97513a2.html#a8953c9cd9d3c56306740b6c9b97513a2" target="_top" xlink:title="causes a node to self&#45;downgrade its cache, making all previous writes to be propagated to the homenod...">
<polygon fill="#ffffff" stroke="#000000" points="910,-408 910,-427 1038,-427 1038,-408 910,-408"/>
<text text-anchor="middle" x="974" y="-415" font-family="Helvetica,sans-Serif" font-size="10.00" fill="#000000">argo::backend::release</text>
</a>
</g>
</g>
<!-- Node20&#45;&gt;Node21 -->
<g id="edge22" class="edge">
<title>Node20&#45;&gt;Node21</title>
<path fill="none" stroke="#191970" d="M865.7616,-391.468C887.9029,-396.7931 913.6116,-402.9762 934.4166,-407.9799"/>
<polygon fill="#191970" stroke="#191970" points="866.4113,-388.0245 855.8701,-389.089 864.7744,-394.8304 866.4113,-388.0245"/>
</g>
<!-- Node21&#45;&gt;Node18 -->
<g id="edge24" class="edge">
<title>Node21&#45;&gt;Node18</title>
<path fill="none" stroke="#191970" d="M1016.2842,-405.0419C1023.5336,-402.8789 1030.9877,-400.6377 1038,-398.5 1057.7781,-392.4708 1079.9594,-385.5326 1097.2918,-380.0712"/>
<polygon fill="#191970" stroke="#191970" points="1015.1735,-401.7207 1006.5861,-407.9261 1017.1689,-408.4302 1015.1735,-401.7207"/>
</g>
<!-- Node21&#45;&gt;Node21 -->
<g id="edge23" class="edge">
<title>Node21&#45;&gt;Node21</title>
<path fill="none" stroke="#191970" d="M945.6275,-436.1539C946.8135,-441.4368 956.271,-445.5 974,-445.5 1001.0156,-445.5 1008.8248,-436.0653 997.4276,-427.2571"/>
<polygon fill="#191970" stroke="#191970" points="948.7735,-437.6981 950.5724,-427.2571 942.6551,-434.2974 948.7735,-437.6981"/>
</g>
<!-- Node23 -->
<g id="node23" class="node">
<title>Node23</title>
<g id="a_node23"><a xlink:href="classwrite__buffer_aa6a1c2c3aa3a7cde744bbca3b14f599a.html#aa6a1c2c3aa3a7cde744bbca3b14f599a" target="_top" xlink:title="Flushes first _write_back_size elements of the ArgoDSM write buffer to memory. ">
<polygon fill="#ffffff" stroke="#000000" points="483,-199.5 483,-229.5 587,-229.5 587,-199.5 483,-199.5"/>
<text text-anchor="start" x="491" y="-217.5" font-family="Helvetica,sans-Serif" font-size="10.00" fill="#000000">write_buffer::flush</text>
<text text-anchor="middle" x="535" y="-206.5" font-family="Helvetica,sans-Serif" font-size="10.00" fill="#000000">_partial</text>
</a>
</g>
</g>
<!-- Node22&#45;&gt;Node23 -->
<g id="edge27" class="edge">
<title>Node22&#45;&gt;Node23</title>
<path fill="none" stroke="#191970" d="M449.2791,-218.0228C460.362,-217.5673 471.8486,-217.0953 482.6741,-216.6504"/>
<polygon fill="#191970" stroke="#191970" points="449.0927,-214.5274 439.2449,-218.4351 449.3802,-221.5215 449.0927,-214.5274"/>
</g>
<!-- Node24 -->
<g id="node24" class="node">
<title>Node24</title>
<g id="a_node24"><a xlink:href="classwrite__buffer_a23b0dbc463111cacbbf83b267e76ac9f.html#a23b0dbc463111cacbbf83b267e76ac9f" target="_top" xlink:title="Adds a new element to the write buffer. ">
<polygon fill="#ffffff" stroke="#000000" points="623,-189 623,-208 722,-208 722,-189 623,-189"/>
<text text-anchor="middle" x="672.5" y="-196" font-family="Helvetica,sans-Serif" font-size="10.00" fill="#000000">write_buffer::add</text>
</a>
</g>
</g>
<!-- Node23&#45;&gt;Node24 -->
<g id="edge28" class="edge">
<title>Node23&#45;&gt;Node24</title>
<path fill="none" stroke="#191970" d="M597.3631,-207.2432C605.9515,-206.2438 614.6741,-205.2288 622.9884,-204.2614"/>
<polygon fill="#191970" stroke="#191970" points="596.9035,-203.773 587.3751,-208.4054 597.7127,-210.7261 596.9035,-203.773"/>
</g>
<!-- Node25 -->
<g id="node25" class="node">
<title>Node25</title>
<g id="a_node25"><a xlink:href="swdsm_8h_a8b00f264b792522b179fbc9c818187bd.html#a8b00f264b792522b179fbc9c818187bd" target="_top" xlink:title="Catches memory accesses to memory not yet cached in ArgoDSM. Launches remote requests for memory not ...">
<polygon fill="#ffffff" stroke="#000000" points="789.5,-162 789.5,-181 842.5,-181 842.5,-162 789.5,-162"/>
<text text-anchor="middle" x="816" y="-169" font-family="Helvetica,sans-Serif" font-size="10.00" fill="#000000">handler</text>
</a>
</g>
</g>
<!-- Node24&#45;&gt;Node25 -->
<g id="edge29" class="edge">
<title>Node24&#45;&gt;Node25</title>
<path fill="none" stroke="#191970" d="M732.2136,-187.2647C752.0735,-183.528 773.1999,-179.553 789.2703,-176.5293"/>
<polygon fill="#191970" stroke="#191970" points="731.467,-183.8437 722.2866,-189.1325 732.7614,-190.723 731.467,-183.8437"/>
</g>
<!-- Node25&#45;&gt;Node14 -->
<g id="edge30" class="edge">
<title>Node25&#45;&gt;Node14</title>
<path fill="none" stroke="#191970" d="M852.7477,-162.3035C870.0045,-158.4416 890.9301,-154.408 910,-152.5 970.3044,-146.4664 1040.4855,-147.9984 1084.455,-149.981"/>
<polygon fill="#191970" stroke="#191970" points="851.4816,-159.0037 842.5263,-164.6653 853.0576,-165.824 851.4816,-159.0037"/>
</g>
<!-- Node27&#45;&gt;Node27 -->
<g id="edge33" class="edge">
<title>Node27&#45;&gt;Node27</title>
<path fill="none" stroke="#191970" d="M185.3592,-205.9579C188.976,-210.679 198.6896,-214 214.5,-214 240.4453,-214 249.9721,-205.0566 243.0804,-195.659"/>
<polygon fill="#191970" stroke="#191970" points="188.871,-205.8344 185.9196,-195.659 181.8813,-205.454 188.871,-205.8344"/>
</g>
<!-- Node28&#45;&gt;Node28 -->
<g id="edge35" class="edge">
<title>Node28&#45;&gt;Node28</title>
<path fill="none" stroke="#191970" d="M185.3592,-138.9579C188.976,-143.679 198.6896,-147 214.5,-147 240.4453,-147 249.9721,-138.0566 243.0804,-128.659"/>
<polygon fill="#191970" stroke="#191970" points="188.871,-138.8344 185.9196,-128.659 181.8813,-138.454 188.871,-138.8344"/>
</g>
</g>
</svg>
