<?xml version="1.0" encoding="UTF-8" standalone="no"?>
<!DOCTYPE svg PUBLIC "-//W3C//DTD SVG 1.1//EN"
 "http://www.w3.org/Graphics/SVG/1.1/DTD/svg11.dtd">
<!-- Generated by graphviz version 2.40.1 (20161225.0304)
 -->
<!-- Title: argo::get_block_size Pages: 1 -->
<!--zoomable 311 -->
<svg id="main" version="1.1" xmlns="http://www.w3.org/2000/svg" xmlns:xlink="http://www.w3.org/1999/xlink" xml:space="preserve" onload="init(evt)">
<style type="text/css"><![CDATA[
.edge:hover path { stroke: red; }
.edge:hover polygon { stroke: red; fill: red; }
]]></style>
<script type="text/javascript"><![CDATA[
var edges = document.getElementsByTagName('g');
if (edges && edges.length) {
  for (var i=0;i<edges.length;i++) {
    if (edges[i].id.substr(0,4)=='edge') {
      edges[i].setAttribute('class','edge');
    }
  }
}
]]></script>
        <defs>
                <circle id="rim" cx="0" cy="0" r="7"/>
                <circle id="rim2" cx="0" cy="0" r="3.5"/>
                <g id="zoomPlus">
                        <use xlink:href="#rim" target="_top" fill="#404040">
                                <set attributeName="fill" to="#808080" begin="zoomplus.mouseover" end="zoomplus.mouseout"/>
                        </use>
                        <path d="M-4,0h8M0,-4v8" fill="none" stroke="white" stroke-width="1.5" pointer-events="none"/>
                </g>
                <g id="zoomMin">
                        <use xlink:href="#rim" target="_top" fill="#404040">
                                <set attributeName="fill" to="#808080" begin="zoomminus.mouseover" end="zoomminus.mouseout"/>
                        </use>
                        <path d="M-4,0h8" fill="none" stroke="white" stroke-width="1.5" pointer-events="none"/>
                </g>
                <g id="dirArrow">
                        <path fill="none" stroke="white" stroke-width="1.5" d="M0,-3.0v7 M-2.5,-0.5L0,-3.0L2.5,-0.5"/>
                </g>
               <g id="resetDef">
                       <use xlink:href="#rim2" target="_top" fill="#404040">
                               <set attributeName="fill" to="#808080" begin="reset.mouseover" end="reset.mouseout"/>
                       </use>
               </g>
        </defs>

<script type="text/javascript">
var viewWidth = 1306;
var viewHeight = 311;
var sectionId = 'dynsection-1';
</script>
<script xlink:href="svgpan.js" target="_top"/>
<svg id="graph" class="graph">
<g id="viewport">
<title>argo::get_block_size</title>
<polygon fill="#ffffff" stroke="transparent" points="-4,4 -4,-307 1302,-307 1302,4 -4,4"/>
<!-- Node6 -->
<g id="node1" class="node">
<title>Node6</title>
<polygon fill="#bfbfbf" stroke="#000000" points="0,-90.5 0,-109.5 116,-109.5 116,-90.5 0,-90.5"/>
<text text-anchor="middle" x="58" y="-97.5" font-family="Helvetica,sans-Serif" font-size="10.00" fill="#000000">argo::get_block_size</text>
</g>
<!-- Node7 -->
<g id="node2" class="node">
<title>Node7</title>
<g id="a_node2"><a xlink:href="argo_8h_ad0931c5341a3b07302a3a019834280f6.html#ad0931c5341a3b07302a3a019834280f6" target="_top" target="_top" xlink:title="Get the block size of the current allocation policy. ">
<polygon fill="#ffffff" stroke="#000000" points="152.5,-128.5 152.5,-147.5 268.5,-147.5 268.5,-128.5 152.5,-128.5"/>
<text text-anchor="middle" x="210.5" y="-135.5" font-family="Helvetica,sans-Serif" font-size="10.00" fill="#000000">argo_get_block_size</text>
</a>
</g>
</g>
<!-- Node6&#45;&gt;Node7 -->
<g id="edge1" class="edge">
<title>Node6&#45;&gt;Node7</title>
<path fill="none" stroke="#191970" d="M106.3184,-112.04C127.6234,-117.3488 152.3042,-123.4988 172.2945,-128.4799"/>
<polygon fill="#191970" stroke="#191970" points="107.0318,-108.6108 96.4822,-109.589 105.3392,-115.4031 107.0318,-108.6108"/>
</g>
<!-- Node8 -->
<g id="node3" class="node">
<title>Node8</title>
<g id="a_node3"><a xlink:href="namespaceargo_a48dc17c94275df10a8e7f3959cbf0191.html#a48dc17c94275df10a8e7f3959cbf0191" target="_top" target="_top" xlink:title="Get the ArgoDSM node id where addr is physically backed. ">
<polygon fill="#ffffff" stroke="#000000" points="152,-90.5 152,-109.5 269,-109.5 269,-90.5 152,-90.5"/>
<text text-anchor="middle" x="210.5" y="-97.5" font-family="Helvetica,sans-Serif" font-size="10.00" fill="#000000">argo::get_homenode</text>
</a>
</g>
</g>
<!-- Node6&#45;&gt;Node8 -->
<g id="edge2" class="edge">
<title>Node6&#45;&gt;Node8</title>
<path fill="none" stroke="#191970" d="M126.3579,-100C134.8541,-100 143.4824,-100 151.8147,-100"/>
<polygon fill="#191970" stroke="#191970" points="126.0888,-96.5001 116.0887,-100 126.0887,-103.5001 126.0888,-96.5001"/>
</g>
<!-- Node32 -->
<g id="node27" class="node">
<title>Node32</title>
<g id="a_node27"><a xlink:href="api_8cpp_a42290e9787e669eb9618124225ff8010.html#a42290e9787e669eb9618124225ff8010" target="_top" target="_top" xlink:title="Unittest that checks that argo::get_block_size() is consistent with argo::env::block_size() for all c...">
<polygon fill="#ffffff" stroke="#000000" points="185,-52.5 185,-71.5 236,-71.5 236,-52.5 185,-52.5"/>
<text text-anchor="middle" x="210.5" y="-59.5" font-family="Helvetica,sans-Serif" font-size="10.00" fill="#000000">TEST_F</text>
</a>
</g>
</g>
<!-- Node6&#45;&gt;Node32 -->
<g id="edge32" class="edge">
<title>Node6&#45;&gt;Node32</title>
<path fill="none" stroke="#191970" d="M106.2096,-87.9871C132.3224,-81.4803 163.5328,-73.7033 184.9642,-68.363"/>
<polygon fill="#191970" stroke="#191970" points="105.3392,-84.5969 96.4822,-90.411 107.0318,-91.3892 105.3392,-84.5969"/>
</g>
<!-- Node9 -->
<g id="node4" class="node">
<title>Node9</title>
<g id="a_node4"><a xlink:href="argo_8h_aa4a06a633ece5fbb94b9d8f0a6479e4c.html#aa4a06a633ece5fbb94b9d8f0a6479e4c" target="_top" target="_top" xlink:title="Get the ArgoDSM node id where addr is physically backed. ">
<polygon fill="#ffffff" stroke="#000000" points="305,-150.5 305,-169.5 421,-169.5 421,-150.5 305,-150.5"/>
<text text-anchor="middle" x="363" y="-157.5" font-family="Helvetica,sans-Serif" font-size="10.00" fill="#000000">argo_get_homenode</text>
</a>
</g>
</g>
<!-- Node8&#45;&gt;Node9 -->
<g id="edge3" class="edge">
<title>Node8&#45;&gt;Node9</title>
<path fill="none" stroke="#191970" d="M254.1454,-112.9164C259.2216,-114.7873 264.2709,-116.8237 269,-119 286.034,-126.8388 287.9759,-133.1396 305,-141 312.696,-144.5534 321.2461,-147.7414 329.3649,-150.4454"/>
<polygon fill="#191970" stroke="#191970" points="255.0226,-109.5157 244.4277,-109.5293 252.7186,-116.1257 255.0226,-109.5157"/>
</g>
<!-- Node10 -->
<g id="node5" class="node">
<title>Node10</title>
<g id="a_node5"><a xlink:href="classwrite__buffer_aa2325346aceb3e7ffdbdbdc8e8682147.html#aa2325346aceb3e7ffdbdbdc8e8682147" target="_top" target="_top" xlink:title="Sorts all elements by home node id in ascending order. ">
<polygon fill="#ffffff" stroke="#000000" points="313,-112.5 313,-131.5 413,-131.5 413,-112.5 313,-112.5"/>
<text text-anchor="middle" x="363" y="-119.5" font-family="Helvetica,sans-Serif" font-size="10.00" fill="#000000">write_buffer::sort</text>
</a>
</g>
</g>
<!-- Node8&#45;&gt;Node10 -->
<g id="edge4" class="edge">
<title>Node8&#45;&gt;Node10</title>
<path fill="none" stroke="#191970" d="M278.9564,-109.8757C290.3567,-111.5203 301.9919,-113.1988 312.8282,-114.7621"/>
<polygon fill="#191970" stroke="#191970" points="279.4217,-106.4066 269.0243,-108.4429 278.4221,-113.3349 279.4217,-106.4066"/>
</g>
<!-- Node27 -->
<g id="node22" class="node">
<title>Node27</title>
<g id="a_node22"><a xlink:href="classwrite__buffer_a9e8cf81e623c4bb67f687379f8709a53.html#a9e8cf81e623c4bb67f687379f8709a53" target="_top" target="_top" xlink:title="Sorts the first _write_back_size elements by home node id in ascending order. ">
<polygon fill="#ffffff" stroke="#000000" points="313,-63 313,-93 413,-93 413,-63 313,-63"/>
<text text-anchor="start" x="321" y="-81" font-family="Helvetica,sans-Serif" font-size="10.00" fill="#000000">write_buffer::sort</text>
<text text-anchor="middle" x="363" y="-70" font-family="Helvetica,sans-Serif" font-size="10.00" fill="#000000">_first</text>
</a>
</g>
</g>
<!-- Node8&#45;&gt;Node27 -->
<g id="edge26" class="edge">
<title>Node8&#45;&gt;Node27</title>
<path fill="none" stroke="#191970" d="M278.9564,-90.1243C290.3567,-88.4797 301.9919,-86.8012 312.8282,-85.2379"/>
<polygon fill="#191970" stroke="#191970" points="278.4221,-86.6651 269.0243,-91.5571 279.4217,-93.5934 278.4221,-86.6651"/>
</g>
<!-- Node31 -->
<g id="node26" class="node">
<title>Node31</title>
<g id="a_node26"><a xlink:href="api_8cpp_a6255f7c304a854275724ca1df48fab28.html#a6255f7c304a854275724ca1df48fab28" target="_top" target="_top" xlink:title="Unittest that checks correctness of the argo::get_homenode(T* addr) API function. ...">
<polygon fill="#ffffff" stroke="#000000" points="337.5,-24.5 337.5,-43.5 388.5,-43.5 388.5,-24.5 337.5,-24.5"/>
<text text-anchor="middle" x="363" y="-31.5" font-family="Helvetica,sans-Serif" font-size="10.00" fill="#000000">TEST_F</text>
</a>
</g>
</g>
<!-- Node8&#45;&gt;Node31 -->
<g id="edge31" class="edge">
<title>Node8&#45;&gt;Node31</title>
<path fill="none" stroke="#191970" d="M256.2453,-86.8682C260.643,-85.0955 264.9639,-83.1401 269,-81 286.9081,-71.5045 287.1039,-62.5181 305,-53 315.1035,-47.6264 327.005,-43.4052 337.3891,-40.3204"/>
<polygon fill="#191970" stroke="#191970" points="254.7325,-83.6964 246.5758,-90.4579 257.1688,-90.2587 254.7325,-83.6964"/>
</g>
<!-- Node11 -->
<g id="node6" class="node">
<title>Node11</title>
<g id="a_node6"><a xlink:href="classwrite__buffer_aca2e330e17a38c1cc8d8c60701ce9dd7.html#aca2e330e17a38c1cc8d8c60701ce9dd7" target="_top" target="_top" xlink:title="Flushes the ArgoDSM write buffer to memory. ">
<polygon fill="#ffffff" stroke="#000000" points="457,-119.5 457,-138.5 561,-138.5 561,-119.5 457,-119.5"/>
<text text-anchor="middle" x="509" y="-126.5" font-family="Helvetica,sans-Serif" font-size="10.00" fill="#000000">write_buffer::flush</text>
</a>
</g>
</g>
<!-- Node10&#45;&gt;Node11 -->
<g id="edge5" class="edge">
<title>Node10&#45;&gt;Node11</title>
<path fill="none" stroke="#191970" d="M423.2791,-124.8901C434.362,-125.4215 445.8486,-125.9722 456.6741,-126.4912"/>
<polygon fill="#191970" stroke="#191970" points="423.4011,-121.392 413.2449,-124.409 423.0658,-128.384 423.4011,-121.392"/>
</g>
<!-- Node12 -->
<g id="node7" class="node">
<title>Node12</title>
<g id="a_node7"><a xlink:href="swdsm_8h_aa7c3a2de6bbafdaf68fe6ceb6110ab97.html#aa7c3a2de6bbafdaf68fe6ceb6110ab97" target="_top" target="_top" xlink:title="Self&#45;Invalidates all memory that has potential writers. ">
<polygon fill="#ffffff" stroke="#000000" points="597.5,-133.5 597.5,-152.5 695.5,-152.5 695.5,-133.5 597.5,-133.5"/>
<text text-anchor="middle" x="646.5" y="-140.5" font-family="Helvetica,sans-Serif" font-size="10.00" fill="#000000">self_invalidation</text>
</a>
</g>
</g>
<!-- Node11&#45;&gt;Node12 -->
<g id="edge6" class="edge">
<title>Node11&#45;&gt;Node12</title>
<path fill="none" stroke="#191970" d="M571.494,-135.363C580.1954,-136.249 589.0315,-137.1487 597.4386,-138.0047"/>
<polygon fill="#191970" stroke="#191970" points="571.6782,-131.8638 561.3751,-134.3327 570.9691,-138.8278 571.6782,-131.8638"/>
</g>
<!-- Node13 -->
<g id="node8" class="node">
<title>Node13</title>
<g id="a_node8"><a xlink:href="swdsm_8h_ad3f5bdae81c60ac704dda7372792427d.html#ad3f5bdae81c60ac704dda7372792427d" target="_top" target="_top" xlink:title="Global barrier for ArgoDSM &#45; needs to be called by every thread in the system that need coherent view...">
<polygon fill="#ffffff" stroke="#000000" points="732,-95.5 732,-114.5 848,-114.5 848,-95.5 732,-95.5"/>
<text text-anchor="middle" x="790" y="-102.5" font-family="Helvetica,sans-Serif" font-size="10.00" fill="#000000">swdsm_argo_barrier</text>
</a>
</g>
</g>
<!-- Node11&#45;&gt;Node13 -->
<g id="edge20" class="edge">
<title>Node11&#45;&gt;Node13</title>
<path fill="none" stroke="#191970" d="M571.4382,-123.6672C619.3367,-119.5762 684.9674,-113.9708 731.7806,-109.9725"/>
<polygon fill="#191970" stroke="#191970" points="570.8612,-120.2036 561.1954,-124.542 571.457,-127.1783 570.8612,-120.2036"/>
</g>
<!-- Node25 -->
<g id="node20" class="node">
<title>Node25</title>
<g id="a_node20"><a xlink:href="swdsm_8h_ad390eb58e1be03ed6a0939fae7ebd20a.html#ad390eb58e1be03ed6a0939fae7ebd20a" target="_top" target="_top" xlink:title="Release function for ArgoDSM (Release according to Release Consistency) ">
<polygon fill="#ffffff" stroke="#000000" points="750,-227.5 750,-246.5 830,-246.5 830,-227.5 750,-227.5"/>
<text text-anchor="middle" x="790" y="-234.5" font-family="Helvetica,sans-Serif" font-size="10.00" fill="#000000">argo_release</text>
</a>
</g>
</g>
<!-- Node11&#45;&gt;Node25 -->
<g id="edge21" class="edge">
<title>Node11&#45;&gt;Node25</title>
<path fill="none" stroke="#191970" d="M543.3015,-142.1835C600.6744,-164.2343 714.7577,-208.0813 765.119,-227.4372"/>
<polygon fill="#191970" stroke="#191970" points="544.5269,-138.9049 533.9369,-138.5843 542.0155,-145.4389 544.5269,-138.9049"/>
</g>
<!-- Node12&#45;&gt;Node13 -->
<g id="edge7" class="edge">
<title>Node12&#45;&gt;Node13</title>
<path fill="none" stroke="#191970" d="M692.4735,-130.8258C712.3164,-125.5713 735.1928,-119.5134 753.8005,-114.5859"/>
<polygon fill="#191970" stroke="#191970" points="691.4819,-127.4677 682.7111,-133.411 693.2739,-134.2345 691.4819,-127.4677"/>
</g>
<!-- Node21 -->
<g id="node16" class="node">
<title>Node21</title>
<g id="a_node16"><a xlink:href="swdsm_8h_a44b8bb7a3c8b47b4f9552c8e10b25e4b.html#a44b8bb7a3c8b47b4f9552c8e10b25e4b" target="_top" target="_top" xlink:title="acquire function for ArgoDSM (Acquire according to Release Consistency) ">
<polygon fill="#ffffff" stroke="#000000" points="750,-171.5 750,-190.5 830,-190.5 830,-171.5 750,-171.5"/>
<text text-anchor="middle" x="790" y="-178.5" font-family="Helvetica,sans-Serif" font-size="10.00" fill="#000000">argo_acquire</text>
</a>
</g>
</g>
<!-- Node12&#45;&gt;Node21 -->
<g id="edge15" class="edge">
<title>Node12&#45;&gt;Node21</title>
<path fill="none" stroke="#191970" d="M692.4735,-155.1742C712.3164,-160.4287 735.1928,-166.4866 753.8005,-171.4141"/>
<polygon fill="#191970" stroke="#191970" points="693.2739,-151.7655 682.7111,-152.589 691.4819,-158.5323 693.2739,-151.7655"/>
</g>
<!-- Node14 -->
<g id="node9" class="node">
<title>Node14</title>
<g id="a_node9"><a xlink:href="backend_8hpp_af1a647431651556204709451bebb5a42.html#af1a647431651556204709451bebb5a42" target="_top" target="_top" xlink:title="a simple collective barrier ">
<polygon fill="#ffffff" stroke="#000000" points="886,-57.5 886,-76.5 1010,-76.5 1010,-57.5 886,-57.5"/>
<text text-anchor="middle" x="948" y="-64.5" font-family="Helvetica,sans-Serif" font-size="10.00" fill="#000000">argo::backend::barrier</text>
</a>
</g>
</g>
<!-- Node13&#45;&gt;Node14 -->
<g id="edge8" class="edge">
<title>Node13&#45;&gt;Node14</title>
<path fill="none" stroke="#191970" d="M839.7616,-93.032C861.9029,-87.7069 887.6116,-81.5238 908.4166,-76.5201"/>
<polygon fill="#191970" stroke="#191970" points="838.7744,-89.6696 829.8701,-95.411 840.4113,-96.4755 838.7744,-89.6696"/>
</g>
<!-- Node15 -->
<g id="node10" class="node">
<title>Node15</title>
<g id="a_node10"><a xlink:href="swdsm_8h_acd175d6d8efa5cce6963bae64891a490.html#acd175d6d8efa5cce6963bae64891a490" target="_top" target="_top" xlink:title="Allocates memory in global address space. ">
<polygon fill="#ffffff" stroke="#000000" points="906.5,-95.5 906.5,-114.5 989.5,-114.5 989.5,-95.5 906.5,-95.5"/>
<text text-anchor="middle" x="948" y="-102.5" font-family="Helvetica,sans-Serif" font-size="10.00" fill="#000000">argo_gmalloc</text>
</a>
</g>
</g>
<!-- Node13&#45;&gt;Node15 -->
<g id="edge9" class="edge">
<title>Node13&#45;&gt;Node15</title>
<path fill="none" stroke="#191970" d="M858.3948,-105C874.6389,-105 891.4922,-105 906.14,-105"/>
<polygon fill="#191970" stroke="#191970" points="858.3845,-101.5001 848.3845,-105 858.3844,-108.5001 858.3845,-101.5001"/>
</g>
<!-- Node16 -->
<g id="node11" class="node">
<title>Node16</title>
<g id="a_node11"><a xlink:href="swdsm_8cpp_aa954d5e0bcaee69ff6e03e697bcaf68b.html#aa954d5e0bcaee69ff6e03e697bcaf68b" target="_top" target="_top" xlink:title="shut down ArgoDSM system ">
<polygon fill="#ffffff" stroke="#000000" points="908.5,-133.5 908.5,-152.5 987.5,-152.5 987.5,-133.5 908.5,-133.5"/>
<text text-anchor="middle" x="948" y="-140.5" font-family="Helvetica,sans-Serif" font-size="10.00" fill="#000000">argo_finalize</text>
</a>
</g>
</g>
<!-- Node13&#45;&gt;Node16 -->
<g id="edge10" class="edge">
<title>Node13&#45;&gt;Node16</title>
<path fill="none" stroke="#191970" d="M839.7616,-116.968C861.9029,-122.2931 887.6116,-128.4762 908.4166,-133.4799"/>
<polygon fill="#191970" stroke="#191970" points="840.4113,-113.5245 829.8701,-114.589 838.7744,-120.3304 840.4113,-113.5245"/>
</g>
<!-- Node18 -->
<g id="node13" class="node">
<title>Node18</title>
<g id="a_node13"><a xlink:href="swdsm_8h_a0c6b51af2b87ddf7eb04aa7d4e0e836e.html#a0c6b51af2b87ddf7eb04aa7d4e0e836e" target="_top" target="_top" xlink:title="Resets current coherence. Collective function called by all threads on all nodes. ...">
<polygon fill="#ffffff" stroke="#000000" points="886,-19.5 886,-38.5 1010,-38.5 1010,-19.5 886,-19.5"/>
<text text-anchor="middle" x="948" y="-26.5" font-family="Helvetica,sans-Serif" font-size="10.00" fill="#000000">argo_reset_coherence</text>
</a>
</g>
</g>
<!-- Node13&#45;&gt;Node18 -->
<g id="edge12" class="edge">
<title>Node13&#45;&gt;Node18</title>
<path fill="none" stroke="#191970" d="M811.7121,-89.619C830.2237,-77.0583 857.9051,-59.5546 884,-48 892.1604,-44.3866 901.2019,-41.228 909.8561,-38.5775"/>
<polygon fill="#191970" stroke="#191970" points="809.6572,-86.7845 803.4084,-95.3404 813.6289,-92.5487 809.6572,-86.7845"/>
</g>
<!-- Node17 -->
<g id="node12" class="node">
<title>Node17</title>
<g id="a_node12"><a xlink:href="swdsm_8h_a18cc89a7368e30281ea4b1d214a1b1ff.html#a18cc89a7368e30281ea4b1d214a1b1ff" target="_top" target="_top" xlink:title="Pins and registers the local thread. ">
<polygon fill="#ffffff" stroke="#000000" points="1051,-133.5 1051,-152.5 1152,-152.5 1152,-133.5 1051,-133.5"/>
<text text-anchor="middle" x="1101.5" y="-140.5" font-family="Helvetica,sans-Serif" font-size="10.00" fill="#000000">argo_pin_threads</text>
</a>
</g>
</g>
<!-- Node16&#45;&gt;Node17 -->
<g id="edge11" class="edge">
<title>Node16&#45;&gt;Node17</title>
<path fill="none" stroke="#191970" d="M997.8002,-143C1014.7693,-143 1033.7517,-143 1050.7913,-143"/>
<polygon fill="#191970" stroke="#191970" points="997.5301,-139.5001 987.5301,-143 997.53,-146.5001 997.5301,-139.5001"/>
</g>
<!-- Node19 -->
<g id="node14" class="node">
<title>Node19</title>
<g id="a_node14"><a xlink:href="swdsm_8h_a10dca85d339ce630cf42dca685b3f6d9.html#a10dca85d339ce630cf42dca685b3f6d9" target="_top" target="_top" xlink:title="Initializes ArgoDSM runtime. ">
<polygon fill="#ffffff" stroke="#000000" points="1058.5,-.5 1058.5,-19.5 1144.5,-19.5 1144.5,-.5 1058.5,-.5"/>
<text text-anchor="middle" x="1101.5" y="-7.5" font-family="Helvetica,sans-Serif" font-size="10.00" fill="#000000">argo_initialize</text>
</a>
</g>
</g>
<!-- Node18&#45;&gt;Node19 -->
<g id="edge13" class="edge">
<title>Node18&#45;&gt;Node19</title>
<path fill="none" stroke="#191970" d="M1020.7126,-19.9997C1033.6043,-18.404 1046.6483,-16.7895 1058.3843,-15.3368"/>
<polygon fill="#191970" stroke="#191970" points="1019.9286,-16.57 1010.4343,-21.272 1020.7886,-23.517 1019.9286,-16.57"/>
</g>
<!-- Node20 -->
<g id="node15" class="node">
<title>Node20</title>
<g id="a_node15"><a xlink:href="backend_8hpp_af0d80a03a17a374c10d9635ddf81e261.html#af0d80a03a17a374c10d9635ddf81e261" target="_top" target="_top" xlink:title="initialize backend ">
<polygon fill="#ffffff" stroke="#000000" points="1191,-.5 1191,-19.5 1298,-19.5 1298,-.5 1191,-.5"/>
<text text-anchor="middle" x="1244.5" y="-7.5" font-family="Helvetica,sans-Serif" font-size="10.00" fill="#000000">argo::backend::init</text>
</a>
</g>
</g>
<!-- Node19&#45;&gt;Node20 -->
<g id="edge14" class="edge">
<title>Node19&#45;&gt;Node20</title>
<path fill="none" stroke="#191970" d="M1154.933,-10C1166.7171,-10 1179.2019,-10 1190.9891,-10"/>
<polygon fill="#191970" stroke="#191970" points="1154.7928,-6.5001 1144.7928,-10 1154.7927,-13.5001 1154.7928,-6.5001"/>
</g>
<!-- Node22 -->
<g id="node17" class="node">
<title>Node22</title>
<g id="a_node17"><a xlink:href="backend_8hpp_a1032f833666c3f810ac1c6210197d426.html#a1032f833666c3f810ac1c6210197d426" target="_top" target="_top" xlink:title="causes a node to self&#45;invalidate its cache, and thus getting any updated values on subsequent accesse...">
<polygon fill="#ffffff" stroke="#000000" points="884,-171.5 884,-190.5 1012,-190.5 1012,-171.5 884,-171.5"/>
<text text-anchor="middle" x="948" y="-178.5" font-family="Helvetica,sans-Serif" font-size="10.00" fill="#000000">argo::backend::acquire</text>
</a>
</g>
</g>
<!-- Node21&#45;&gt;Node22 -->
<g id="edge16" class="edge">
<title>Node21&#45;&gt;Node22</title>
<path fill="none" stroke="#191970" d="M840.5231,-181C854.3033,-181 869.4182,-181 883.8475,-181"/>
<polygon fill="#191970" stroke="#191970" points="840.2789,-177.5001 830.2789,-181 840.2789,-184.5001 840.2789,-177.5001"/>
</g>
<!-- Node24 -->
<g id="node19" class="node">
<title>Node24</title>
<g id="a_node19"><a xlink:href="swdsm_8h_ac0b665f72bc2a28dc663ed204c526e1b.html#ac0b665f72bc2a28dc663ed204c526e1b" target="_top" target="_top" xlink:title="acquire&#45;release function for ArgoDSM (Both acquire and release according to Release Consistency) ...">
<polygon fill="#ffffff" stroke="#000000" points="908.5,-227.5 908.5,-246.5 987.5,-246.5 987.5,-227.5 908.5,-227.5"/>
<text text-anchor="middle" x="948" y="-234.5" font-family="Helvetica,sans-Serif" font-size="10.00" fill="#000000">argo_acq_rel</text>
</a>
</g>
</g>
<!-- Node21&#45;&gt;Node24 -->
<g id="edge19" class="edge">
<title>Node21&#45;&gt;Node24</title>
<path fill="none" stroke="#191970" d="M822.0594,-194.4143C840.1124,-201.7667 863.1538,-210.8179 884,-218 893.6433,-221.3224 904.2193,-224.6057 913.9473,-227.4843"/>
<polygon fill="#191970" stroke="#191970" points="823.1688,-191.0863 812.5888,-190.527 820.5108,-197.5621 823.1688,-191.0863"/>
</g>
<!-- Node22&#45;&gt;Node22 -->
<g id="edge17" class="edge">
<title>Node22&#45;&gt;Node22</title>
<path fill="none" stroke="#191970" d="M919.6275,-199.6539C920.8135,-204.9368 930.271,-209 948,-209 975.0156,-209 982.8248,-199.5653 971.4276,-190.7571"/>
<polygon fill="#191970" stroke="#191970" points="922.7735,-201.1981 924.5724,-190.7571 916.6551,-197.7974 922.7735,-201.1981"/>
</g>
<!-- Node23 -->
<g id="node18" class="node">
<title>Node23</title>
<g id="a_node18"><a xlink:href="singlenode_8cpp_aab3cabb3e1c0b9696b339416b684f78c.html#aab3cabb3e1c0b9696b339416b684f78c" target="_top" target="_top" xlink:title="argo::backend::init">
<polygon fill="#ffffff" stroke="#000000" points="1048,-218.5 1048,-237.5 1155,-237.5 1155,-218.5 1048,-218.5"/>
<text text-anchor="middle" x="1101.5" y="-225.5" font-family="Helvetica,sans-Serif" font-size="10.00" fill="#000000">argo::backend::init</text>
</a>
</g>
</g>
<!-- Node22&#45;&gt;Node23 -->
<g id="edge18" class="edge">
<title>Node22&#45;&gt;Node23</title>
<path fill="none" stroke="#191970" d="M988.8303,-193.5018C1014.3583,-201.3182 1046.7319,-211.2306 1070.2201,-218.4224"/>
<polygon fill="#191970" stroke="#191970" points="989.6496,-190.0923 979.063,-190.5112 987.6001,-196.7856 989.6496,-190.0923"/>
</g>
<!-- Node25&#45;&gt;Node24 -->
<g id="edge25" class="edge">
<title>Node25&#45;&gt;Node24</title>
<path fill="none" stroke="#191970" d="M840.4252,-237C862.3886,-237 887.7577,-237 908.3418,-237"/>
<polygon fill="#191970" stroke="#191970" points="840.2789,-233.5001 830.2789,-237 840.2788,-240.5001 840.2789,-233.5001"/>
</g>
<!-- Node26 -->
<g id="node21" class="node">
<title>Node26</title>
<g id="a_node21"><a xlink:href="backend_8hpp_a8953c9cd9d3c56306740b6c9b97513a2.html#a8953c9cd9d3c56306740b6c9b97513a2" target="_top" target="_top" xlink:title="causes a node to self&#45;downgrade its cache, making all previous writes to be propagated to the homenod...">
<polygon fill="#ffffff" stroke="#000000" points="884,-265.5 884,-284.5 1012,-284.5 1012,-265.5 884,-265.5"/>
<text text-anchor="middle" x="948" y="-272.5" font-family="Helvetica,sans-Serif" font-size="10.00" fill="#000000">argo::backend::release</text>
</a>
</g>
</g>
<!-- Node25&#45;&gt;Node26 -->
<g id="edge22" class="edge">
<title>Node25&#45;&gt;Node26</title>
<path fill="none" stroke="#191970" d="M839.7616,-248.968C861.9029,-254.2931 887.6116,-260.4762 908.4166,-265.4799"/>
<polygon fill="#191970" stroke="#191970" points="840.4113,-245.5245 829.8701,-246.589 838.7744,-252.3304 840.4113,-245.5245"/>
</g>
<!-- Node26&#45;&gt;Node23 -->
<g id="edge24" class="edge">
<title>Node26&#45;&gt;Node23</title>
<path fill="none" stroke="#191970" d="M990.2842,-262.5419C997.5336,-260.3789 1004.9877,-258.1377 1012,-256 1031.7781,-249.9708 1053.9594,-243.0326 1071.2918,-237.5712"/>
<polygon fill="#191970" stroke="#191970" points="989.1735,-259.2207 980.5861,-265.4261 991.1689,-265.9302 989.1735,-259.2207"/>
</g>
<!-- Node26&#45;&gt;Node26 -->
<g id="edge23" class="edge">
<title>Node26&#45;&gt;Node26</title>
<path fill="none" stroke="#191970" d="M919.6275,-293.6539C920.8135,-298.9368 930.271,-303 948,-303 975.0156,-303 982.8248,-293.5653 971.4276,-284.7571"/>
<polygon fill="#191970" stroke="#191970" points="922.7735,-295.1981 924.5724,-284.7571 916.6551,-291.7974 922.7735,-295.1981"/>
</g>
<!-- Node28 -->
<g id="node23" class="node">
<title>Node28</title>
<g id="a_node23"><a xlink:href="classwrite__buffer_aa6a1c2c3aa3a7cde744bbca3b14f599a.html#aa6a1c2c3aa3a7cde744bbca3b14f599a" target="_top" target="_top" xlink:title="Flushes first _write_back_size elements of the ArgoDSM write buffer to memory. ">
<polygon fill="#ffffff" stroke="#000000" points="457,-57 457,-87 561,-87 561,-57 457,-57"/>
<text text-anchor="start" x="465" y="-75" font-family="Helvetica,sans-Serif" font-size="10.00" fill="#000000">write_buffer::flush</text>
<text text-anchor="middle" x="509" y="-64" font-family="Helvetica,sans-Serif" font-size="10.00" fill="#000000">_partial</text>
</a>
</g>
</g>
<!-- Node27&#45;&gt;Node28 -->
<g id="edge27" class="edge">
<title>Node27&#45;&gt;Node28</title>
<path fill="none" stroke="#191970" d="M423.2791,-75.5228C434.362,-75.0673 445.8486,-74.5953 456.6741,-74.1504"/>
<polygon fill="#191970" stroke="#191970" points="423.0927,-72.0274 413.2449,-75.9351 423.3802,-79.0215 423.0927,-72.0274"/>
</g>
<!-- Node29 -->
<g id="node24" class="node">
<title>Node29</title>
<g id="a_node24"><a xlink:href="classwrite__buffer_a23b0dbc463111cacbbf83b267e76ac9f.html#a23b0dbc463111cacbbf83b267e76ac9f" target="_top" target="_top" xlink:title="Adds a new element to the write buffer. ">
<polygon fill="#ffffff" stroke="#000000" points="597,-46.5 597,-65.5 696,-65.5 696,-46.5 597,-46.5"/>
<text text-anchor="middle" x="646.5" y="-53.5" font-family="Helvetica,sans-Serif" font-size="10.00" fill="#000000">write_buffer::add</text>
</a>
</g>
</g>
<!-- Node28&#45;&gt;Node29 -->
<g id="edge28" class="edge">
<title>Node28&#45;&gt;Node29</title>
<path fill="none" stroke="#191970" d="M571.3631,-64.7432C579.9515,-63.7438 588.6741,-62.7288 596.9884,-61.7614"/>
<polygon fill="#191970" stroke="#191970" points="570.9035,-61.273 561.3751,-65.9054 571.7127,-68.2261 570.9035,-61.273"/>
</g>
<!-- Node30 -->
<g id="node25" class="node">
<title>Node30</title>
<g id="a_node25"><a xlink:href="swdsm_8h_a8b00f264b792522b179fbc9c818187bd.html#a8b00f264b792522b179fbc9c818187bd" target="_top" target="_top" xlink:title="Catches memory accesses to memory not yet cached in ArgoDSM. Launches remote requests for memory not ...">
<polygon fill="#ffffff" stroke="#000000" points="763.5,-19.5 763.5,-38.5 816.5,-38.5 816.5,-19.5 763.5,-19.5"/>
<text text-anchor="middle" x="790" y="-26.5" font-family="Helvetica,sans-Serif" font-size="10.00" fill="#000000">handler</text>
</a>
</g>
</g>
<!-- Node29&#45;&gt;Node30 -->
<g id="edge29" class="edge">
<title>Node29&#45;&gt;Node30</title>
<path fill="none" stroke="#191970" d="M706.2136,-44.7647C726.0735,-41.028 747.1999,-37.053 763.2703,-34.0293"/>
<polygon fill="#191970" stroke="#191970" points="705.467,-41.3437 696.2866,-46.6325 706.7614,-48.223 705.467,-41.3437"/>
</g>
<!-- Node30&#45;&gt;Node19 -->
<g id="edge30" class="edge">
<title>Node30&#45;&gt;Node19</title>
<path fill="none" stroke="#191970" d="M826.7477,-19.8035C844.0045,-15.9416 864.9301,-11.908 884,-10 944.3044,-3.9664 1014.4855,-5.4984 1058.455,-7.481"/>
<polygon fill="#191970" stroke="#191970" points="825.4816,-16.5037 816.5263,-22.1653 827.0576,-23.324 825.4816,-16.5037"/>
</g>
</g>
</svg>
        <g id="navigator" transform="translate(0 0)" fill="#404254">
                <rect fill="#f2f5e9" fill-opacity="0.5" stroke="#606060" stroke-width=".5" x="0" y="0" width="60" height="60"/>
                <use id="zoomplus" xlink:href="#zoomPlus" target="_top" x="17" y="9" onmousedown="handleZoom(evt,'in')"/>
                <use id="zoomminus" xlink:href="#zoomMin" target="_top" x="42" y="9" onmousedown="handleZoom(evt,'out')"/>
                <use id="reset" xlink:href="#resetDef" target="_top" x="30" y="36" onmousedown="handleReset()"/>
                <g id="arrowUp" xlink:href="#dirArrow" target="_top" transform="translate(30 24)" onmousedown="handlePan(0,-1)">
                  <use xlink:href="#rim" target="_top" fill="#404040">
                        <set attributeName="fill" to="#808080" begin="arrowUp.mouseover" end="arrowUp.mouseout"/>
                  </use>
                  <path fill="none" stroke="white" stroke-width="1.5" d="M0,-3.0v7 M-2.5,-0.5L0,-3.0L2.5,-0.5"/>
                </g>
                <g id="arrowRight" xlink:href="#dirArrow" target="_top" transform="rotate(90) translate(36 -43)" onmousedown="handlePan(1,0)">
                  <use xlink:href="#rim" target="_top" fill="#404040">
                        <set attributeName="fill" to="#808080" begin="arrowRight.mouseover" end="arrowRight.mouseout"/>
                  </use>
                  <path fill="none" stroke="white" stroke-width="1.5" d="M0,-3.0v7 M-2.5,-0.5L0,-3.0L2.5,-0.5"/>
                </g>
                <g id="arrowDown" xlink:href="#dirArrow" target="_top" transform="rotate(180) translate(-30 -48)" onmousedown="handlePan(0,1)">
                  <use xlink:href="#rim" target="_top" fill="#404040">
                        <set attributeName="fill" to="#808080" begin="arrowDown.mouseover" end="arrowDown.mouseout"/>
                  </use>
                  <path fill="none" stroke="white" stroke-width="1.5" d="M0,-3.0v7 M-2.5,-0.5L0,-3.0L2.5,-0.5"/>
                </g>
                <g id="arrowLeft" xlink:href="#dirArrow" target="_top" transform="rotate(270) translate(-36 17)" onmousedown="handlePan(-1,0)">
                  <use xlink:href="#rim" target="_top" fill="#404040">
                        <set attributeName="fill" to="#808080" begin="arrowLeft.mouseover" end="arrowLeft.mouseout"/>
                  </use>
                  <path fill="none" stroke="white" stroke-width="1.5" d="M0,-3.0v7 M-2.5,-0.5L0,-3.0L2.5,-0.5"/>
                </g>
        </g>
        <svg viewBox="0 0 15 15" width="100%" height="30px" preserveAspectRatio="xMaxYMin meet">
         <g id="arrow_out" transform="scale(0.3 0.3)">
          <a xlink:href="namespaceargo_a2f35b6b6e0af76fb8fb47f2031d6f58e_a2f35b6b6e0af76fb8fb47f2031d6f58e_icgraph_org.svg" target="_top" target="_base">
           <rect id="button" ry="5" rx="5" y="6" x="6" height="38" width="38"
                fill="#f2f5e9" fill-opacity="0.5" stroke="#606060" stroke-width="1.0"/>
           <path id="arrow"
             d="M 11.500037,31.436501 C 11.940474,20.09759 22.043105,11.32322 32.158766,21.979434 L 37.068811,17.246167 C 37.068811,17.246167 37.088388,32 37.088388,32 L 22.160133,31.978069 C 22.160133,31.978069 26.997745,27.140456 26.997745,27.140456 C 18.528582,18.264221 13.291696,25.230495 11.500037,31.436501 z"
             style="fill:#404040;"/>
          </a>
         </g>
        </svg>
</svg>
