<?xml version="1.0" encoding="UTF-8" standalone="no"?>
<!DOCTYPE svg PUBLIC "-//W3C//DTD SVG 1.1//EN"
 "http://www.w3.org/Graphics/SVG/1.1/DTD/svg11.dtd">
<!-- Generated by graphviz version 2.40.1 (20161225.0304)
 -->
<!-- Title: argo::finalize Pages: 1 -->
<svg width="421pt" height="164pt"
 viewBox="0.00 0.00 421.00 164.00" xmlns="http://www.w3.org/2000/svg" xmlns:xlink="http://www.w3.org/1999/xlink">
<g id="graph0" class="graph" transform="scale(1 1) rotate(0) translate(4 160)">
<title>argo::finalize</title>
<polygon fill="#ffffff" stroke="transparent" points="-4,4 -4,-160 417,-160 417,4 -4,4"/>
<!-- Node1 -->
<g id="node1" class="node">
<title>Node1</title>
<polygon fill="#bfbfbf" stroke="#000000" points="0,-79.5 0,-98.5 80,-98.5 80,-79.5 0,-79.5"/>
<text text-anchor="middle" x="40" y="-86.5" font-family="Helvetica,sans-Serif" font-size="10.00" fill="#000000">argo::finalize</text>
</g>
<!-- Node2 -->
<g id="node2" class="node">
<title>Node2</title>
<g id="a_node2"><a xlink:href="tests_2allocators_8cpp_a3c04138a5bfe5d72780bb7e82a18e627.html#a3c04138a5bfe5d72780bb7e82a18e627" target="_top" xlink:title="The main function that runs the tests. ">
<polygon fill="#ffffff" stroke="#000000" points="162.5,-136.5 162.5,-155.5 203.5,-155.5 203.5,-136.5 162.5,-136.5"/>
<text text-anchor="middle" x="183" y="-143.5" font-family="Helvetica,sans-Serif" font-size="10.00" fill="#000000">main</text>
</a>
</g>
</g>
<!-- Node1&#45;&gt;Node2 -->
<g id="edge1" class="edge">
<title>Node1&#45;&gt;Node2</title>
<path fill="none" stroke="#191970" d="M65.6542,-103.3362C80.1347,-111.041 98.7381,-120.305 116,-127 131.2178,-132.9022 149.0177,-137.8632 162.4445,-141.2343"/>
<polygon fill="#191970" stroke="#191970" points="67.2503,-100.2203 56.7894,-98.5408 63.9197,-106.3772 67.2503,-100.2203"/>
</g>
<!-- Node3 -->
<g id="node3" class="node">
<title>Node3</title>
<g id="a_node3"><a xlink:href="swdsm_8h_aa954d5e0bcaee69ff6e03e697bcaf68b.html#aa954d5e0bcaee69ff6e03e697bcaf68b" target="_top" xlink:title="Shutting down ArgoDSM runtime. ">
<polygon fill="#ffffff" stroke="#000000" points="143.5,-98.5 143.5,-117.5 222.5,-117.5 222.5,-98.5 143.5,-98.5"/>
<text text-anchor="middle" x="183" y="-105.5" font-family="Helvetica,sans-Serif" font-size="10.00" fill="#000000">argo_finalize</text>
</a>
</g>
</g>
<!-- Node1&#45;&gt;Node3 -->
<g id="edge2" class="edge">
<title>Node1&#45;&gt;Node3</title>
<path fill="none" stroke="#191970" d="M90.1735,-95.6664C107.5093,-97.9698 126.6863,-100.5178 143.0878,-102.697"/>
<polygon fill="#191970" stroke="#191970" points="90.5879,-92.1908 80.214,-94.3431 89.6659,-99.1298 90.5879,-92.1908"/>
</g>
<!-- Node6 -->
<g id="node6" class="node">
<title>Node6</title>
<g id="a_node6"><a xlink:href="singlenode_8cpp_aab3cabb3e1c0b9696b339416b684f78c.html#aab3cabb3e1c0b9696b339416b684f78c" target="_top" xlink:title="argo::backend::init">
<polygon fill="#ffffff" stroke="#000000" points="129.5,-60.5 129.5,-79.5 236.5,-79.5 236.5,-60.5 129.5,-60.5"/>
<text text-anchor="middle" x="183" y="-67.5" font-family="Helvetica,sans-Serif" font-size="10.00" fill="#000000">argo::backend::init</text>
</a>
</g>
</g>
<!-- Node1&#45;&gt;Node6 -->
<g id="edge5" class="edge">
<title>Node1&#45;&gt;Node6</title>
<path fill="none" stroke="#191970" d="M90.1673,-82.3344C102.8867,-80.6444 116.5976,-78.8227 129.4764,-77.1115"/>
<polygon fill="#191970" stroke="#191970" points="89.6659,-78.8702 80.214,-83.6569 90.5879,-85.8092 89.6659,-78.8702"/>
</g>
<!-- Node7 -->
<g id="node7" class="node">
<title>Node7</title>
<g id="a_node7"><a xlink:href="classargo_1_1mempools_1_1global__memory__pool_a2adeebf07ab9ba9ec2956dcf37f3abc3.html#a2adeebf07ab9ba9ec2956dcf37f3abc3" target="_top" xlink:title="argo::mempools::global\l_memory_pool::~global\l_memory_pool">
<polygon fill="#ffffff" stroke="#000000" points="116,-.5 116,-41.5 250,-41.5 250,-.5 116,-.5"/>
<text text-anchor="start" x="124" y="-29.5" font-family="Helvetica,sans-Serif" font-size="10.00" fill="#000000">argo::mempools::global</text>
<text text-anchor="start" x="124" y="-18.5" font-family="Helvetica,sans-Serif" font-size="10.00" fill="#000000">_memory_pool::~global</text>
<text text-anchor="middle" x="183" y="-7.5" font-family="Helvetica,sans-Serif" font-size="10.00" fill="#000000">_memory_pool</text>
</a>
</g>
</g>
<!-- Node1&#45;&gt;Node7 -->
<g id="edge6" class="edge">
<title>Node1&#45;&gt;Node7</title>
<path fill="none" stroke="#191970" d="M67.9229,-74.6817C82.2285,-67.4371 99.9681,-58.593 116,-51 122.5654,-47.8905 129.5287,-44.6785 136.3873,-41.5637"/>
<polygon fill="#191970" stroke="#191970" points="65.9583,-71.7542 58.6308,-79.4066 69.1311,-77.9939 65.9583,-71.7542"/>
</g>
<!-- Node4 -->
<g id="node4" class="node">
<title>Node4</title>
<g id="a_node4"><a xlink:href="backend_8hpp_a2f1a764c586ff7c03530e974dcd2d59c.html#a2f1a764c586ff7c03530e974dcd2d59c" target="_top" xlink:title="global memory space address ">
<polygon fill="#ffffff" stroke="#000000" points="286,-117.5 286,-136.5 413,-136.5 413,-117.5 286,-117.5"/>
<text text-anchor="middle" x="349.5" y="-124.5" font-family="Helvetica,sans-Serif" font-size="10.00" fill="#000000">argo::backend::finalize</text>
</a>
</g>
</g>
<!-- Node3&#45;&gt;Node4 -->
<g id="edge3" class="edge">
<title>Node3&#45;&gt;Node4</title>
<path fill="none" stroke="#191970" d="M232.9387,-113.6987C249.5818,-115.5979 268.352,-117.7399 285.8891,-119.7411"/>
<polygon fill="#191970" stroke="#191970" points="233.2133,-110.2074 222.8809,-112.551 232.4196,-117.1623 233.2133,-110.2074"/>
</g>
<!-- Node5 -->
<g id="node5" class="node">
<title>Node5</title>
<g id="a_node5"><a xlink:href="swdsm_8h_a18cc89a7368e30281ea4b1d214a1b1ff.html#a18cc89a7368e30281ea4b1d214a1b1ff" target="_top" xlink:title="Pins and registers the local thread. ">
<polygon fill="#ffffff" stroke="#000000" points="299,-79.5 299,-98.5 400,-98.5 400,-79.5 299,-79.5"/>
<text text-anchor="middle" x="349.5" y="-86.5" font-family="Helvetica,sans-Serif" font-size="10.00" fill="#000000">argo_pin_threads</text>
</a>
</g>
</g>
<!-- Node3&#45;&gt;Node5 -->
<g id="edge4" class="edge">
<title>Node3&#45;&gt;Node5</title>
<path fill="none" stroke="#191970" d="M232.8282,-102.3139C253.7003,-99.9321 277.9334,-97.1668 298.8885,-94.7755"/>
<polygon fill="#191970" stroke="#191970" points="232.4196,-98.8377 222.8809,-103.449 233.2133,-105.7926 232.4196,-98.8377"/>
</g>
</g>
</svg>
