<?xml version="1.0" encoding="UTF-8" standalone="no"?>
<!DOCTYPE svg PUBLIC "-//W3C//DTD SVG 1.1//EN"
 "http://www.w3.org/Graphics/SVG/1.1/DTD/svg11.dtd">
<!-- Generated by graphviz version 2.40.1 (20161225.0304)
 -->
<!-- Title: argo::env::write_buffer_size Pages: 1 -->
<svg width="531pt" height="28pt"
 viewBox="0.00 0.00 531.00 28.00" xmlns="http://www.w3.org/2000/svg" xmlns:xlink="http://www.w3.org/1999/xlink">
<g id="graph0" class="graph" transform="scale(1 1) rotate(0) translate(4 24)">
<title>argo::env::write_buffer_size</title>
<polygon fill="#ffffff" stroke="transparent" points="-4,4 -4,-24 527,-24 527,4 -4,4"/>
<!-- Node1 -->
<g id="node1" class="node">
<title>Node1</title>
<polygon fill="#bfbfbf" stroke="#000000" points="0,-.5 0,-19.5 151,-19.5 151,-.5 0,-.5"/>
<text text-anchor="middle" x="75.5" y="-7.5" font-family="Helvetica,sans-Serif" font-size="10.00" fill="#000000">argo::env::write_buffer_size</text>
</g>
<!-- Node2 -->
<g id="node2" class="node">
<title>Node2</title>
<g id="a_node2"><a xlink:href="swdsm_8h_a08cfbea6d24819e4e6b063144a5e6b5e.html#a08cfbea6d24819e4e6b063144a5e6b5e" target="_top" xlink:title="Prints collected statistics. ">
<polygon fill="#ffffff" stroke="#000000" points="187,-.5 187,-19.5 271,-19.5 271,-.5 187,-.5"/>
<text text-anchor="middle" x="229" y="-7.5" font-family="Helvetica,sans-Serif" font-size="10.00" fill="#000000">printStatistics</text>
</a>
</g>
</g>
<!-- Node1&#45;&gt;Node2 -->
<g id="edge1" class="edge">
<title>Node1&#45;&gt;Node2</title>
<path fill="none" stroke="#191970" d="M161.3695,-10C170.2044,-10 178.8758,-10 186.9064,-10"/>
<polygon fill="#191970" stroke="#191970" points="161.3506,-6.5001 151.3506,-10 161.3506,-13.5001 161.3506,-6.5001"/>
</g>
<!-- Node3 -->
<g id="node3" class="node">
<title>Node3</title>
<g id="a_node3"><a xlink:href="swdsm_8cpp_aa954d5e0bcaee69ff6e03e697bcaf68b.html#aa954d5e0bcaee69ff6e03e697bcaf68b" target="_top" xlink:title="shut down ArgoDSM system ">
<polygon fill="#ffffff" stroke="#000000" points="307,-.5 307,-19.5 386,-19.5 386,-.5 307,-.5"/>
<text text-anchor="middle" x="346.5" y="-7.5" font-family="Helvetica,sans-Serif" font-size="10.00" fill="#000000">argo_finalize</text>
</a>
</g>
</g>
<!-- Node2&#45;&gt;Node3 -->
<g id="edge2" class="edge">
<title>Node2&#45;&gt;Node3</title>
<path fill="none" stroke="#191970" d="M281.3264,-10C289.8336,-10 298.5228,-10 306.6686,-10"/>
<polygon fill="#191970" stroke="#191970" points="281.0883,-6.5001 271.0883,-10 281.0883,-13.5001 281.0883,-6.5001"/>
</g>
<!-- Node4 -->
<g id="node4" class="node">
<title>Node4</title>
<g id="a_node4"><a xlink:href="swdsm_8h_a18cc89a7368e30281ea4b1d214a1b1ff.html#a18cc89a7368e30281ea4b1d214a1b1ff" target="_top" xlink:title="Pins and registers the local thread. ">
<polygon fill="#ffffff" stroke="#000000" points="422,-.5 422,-19.5 523,-19.5 523,-.5 422,-.5"/>
<text text-anchor="middle" x="472.5" y="-7.5" font-family="Helvetica,sans-Serif" font-size="10.00" fill="#000000">argo_pin_threads</text>
</a>
</g>
</g>
<!-- Node3&#45;&gt;Node4 -->
<g id="edge3" class="edge">
<title>Node3&#45;&gt;Node4</title>
<path fill="none" stroke="#191970" d="M396.1662,-10C404.6568,-10 413.4861,-10 421.9982,-10"/>
<polygon fill="#191970" stroke="#191970" points="396.0215,-6.5001 386.0215,-10 396.0214,-13.5001 396.0215,-6.5001"/>
</g>
</g>
</svg>
