<?xml version="1.0" encoding="UTF-8" standalone="no"?>
<!DOCTYPE svg PUBLIC "-//W3C//DTD SVG 1.1//EN"
 "http://www.w3.org/Graphics/SVG/1.1/DTD/svg11.dtd">
<!-- Generated by graphviz version 2.40.1 (20161225.0304)
 -->
<!-- Title: argo::number_of_nodes Pages: 1 -->
<!--zoomable 526 -->
<svg id="main" version="1.1" xmlns="http://www.w3.org/2000/svg" xmlns:xlink="http://www.w3.org/1999/xlink" xml:space="preserve" onload="init(evt)">
<style type="text/css"><![CDATA[
.edge:hover path { stroke: red; }
.edge:hover polygon { stroke: red; fill: red; }
]]></style>
<script type="text/javascript"><![CDATA[
var edges = document.getElementsByTagName('g');
if (edges && edges.length) {
  for (var i=0;i<edges.length;i++) {
    if (edges[i].id.substr(0,4)=='edge') {
      edges[i].setAttribute('class','edge');
    }
  }
}
]]></script>
        <defs>
                <circle id="rim" cx="0" cy="0" r="7"/>
                <circle id="rim2" cx="0" cy="0" r="3.5"/>
                <g id="zoomPlus">
                        <use xlink:href="#rim" target="_top" fill="#404040">
                                <set attributeName="fill" to="#808080" begin="zoomplus.mouseover" end="zoomplus.mouseout"/>
                        </use>
                        <path d="M-4,0h8M0,-4v8" fill="none" stroke="white" stroke-width="1.5" pointer-events="none"/>
                </g>
                <g id="zoomMin">
                        <use xlink:href="#rim" target="_top" fill="#404040">
                                <set attributeName="fill" to="#808080" begin="zoomminus.mouseover" end="zoomminus.mouseout"/>
                        </use>
                        <path d="M-4,0h8" fill="none" stroke="white" stroke-width="1.5" pointer-events="none"/>
                </g>
                <g id="dirArrow">
                        <path fill="none" stroke="white" stroke-width="1.5" d="M0,-3.0v7 M-2.5,-0.5L0,-3.0L2.5,-0.5"/>
                </g>
               <g id="resetDef">
                       <use xlink:href="#rim2" target="_top" fill="#404040">
                               <set attributeName="fill" to="#808080" begin="reset.mouseover" end="reset.mouseout"/>
                       </use>
               </g>
        </defs>

<script type="text/javascript">
var viewWidth = 1163;
var viewHeight = 526;
var sectionId = 'dynsection-0';
</script>
<script xlink:href="svgpan.js" target="_top"/>
<svg id="graph" class="graph">
<g id="viewport">
<title>argo::number_of_nodes</title>
<polygon fill="#ffffff" stroke="transparent" points="-4,4 -4,-521.9872 1159,-521.9872 1159,4 -4,4"/>
<!-- Node1 -->
<g id="node1" class="node">
<title>Node1</title>
<polygon fill="#bfbfbf" stroke="#000000" points="0,-260.4872 0,-279.4872 131,-279.4872 131,-260.4872 0,-260.4872"/>
<text text-anchor="middle" x="65.5" y="-267.4872" font-family="Helvetica,sans-Serif" font-size="10.00" fill="#000000">argo::number_of_nodes</text>
</g>
<!-- Node2 -->
<g id="node2" class="node">
<title>Node2</title>
<g id="a_node2"><a xlink:href="tests_2allocators_8cpp_ac2d847d8ff00d834e2715e7bc92d5fa5.html#ac2d847d8ff00d834e2715e7bc92d5fa5" target="_top" target="_top" xlink:title="Unittest that checks that allocating a few different sizes by all nodes dynamically. ">
<polygon fill="#ffffff" stroke="#000000" points="240.5,-498.4872 240.5,-517.4872 291.5,-517.4872 291.5,-498.4872 240.5,-498.4872"/>
<text text-anchor="middle" x="266" y="-505.4872" font-family="Helvetica,sans-Serif" font-size="10.00" fill="#000000">TEST_F</text>
</a>
</g>
</g>
<!-- Node1&#45;&gt;Node2 -->
<g id="edge1" class="edge">
<title>Node1&#45;&gt;Node2</title>
<path fill="none" stroke="#191970" d="M68.5084,-289.6793C76.248,-333.1402 101.0789,-437.4861 167,-488.9872 187.8249,-505.2567 218.5266,-508.9437 240.2082,-509.2312"/>
<polygon fill="#191970" stroke="#191970" points="71.9564,-289.0772 66.8599,-279.7887 65.0517,-290.228 71.9564,-289.0772"/>
</g>
<!-- Node3 -->
<g id="node3" class="node">
<title>Node3</title>
<g id="a_node3"><a xlink:href="argo_8h_a9c392c7a4d9dd9c0e57814debefd9733.html#a9c392c7a4d9dd9c0e57814debefd9733" target="_top" target="_top" xlink:title="Number of ArgoDSM nodes being run. ">
<polygon fill="#ffffff" stroke="#000000" points="200.5,-460.4872 200.5,-479.4872 331.5,-479.4872 331.5,-460.4872 200.5,-460.4872"/>
<text text-anchor="middle" x="266" y="-467.4872" font-family="Helvetica,sans-Serif" font-size="10.00" fill="#000000">argo_number_of_nodes</text>
</a>
</g>
</g>
<!-- Node1&#45;&gt;Node3 -->
<g id="edge2" class="edge">
<title>Node1&#45;&gt;Node3</title>
<path fill="none" stroke="#191970" d="M71.1726,-289.804C82.7627,-326.5878 112.7558,-405.3669 167,-445.9872 176.7677,-453.3017 188.4621,-458.4167 200.335,-461.9866"/>
<polygon fill="#191970" stroke="#191970" points="74.4008,-288.3869 68.1599,-279.8253 67.6996,-290.4101 74.4008,-288.3869"/>
</g>
<!-- Node5 -->
<g id="node5" class="node">
<title>Node5</title>
<g id="a_node5"><a xlink:href="backend_8hpp_a0fb29a8253f0d9aefc999d93414b1758.html#a0fb29a8253f0d9aefc999d93414b1758" target="_top" target="_top" xlink:title="backend internal type erased function for selective acquire ">
<polygon fill="#ffffff" stroke="#000000" points="401,-422.9872 401,-452.9872 542,-452.9872 542,-422.9872 401,-422.9872"/>
<text text-anchor="start" x="409" y="-440.9872" font-family="Helvetica,sans-Serif" font-size="10.00" fill="#000000">argo::backend::_selective</text>
<text text-anchor="middle" x="471.5" y="-429.9872" font-family="Helvetica,sans-Serif" font-size="10.00" fill="#000000">_acquire</text>
</a>
</g>
</g>
<!-- Node1&#45;&gt;Node5 -->
<g id="edge4" class="edge">
<title>Node1&#45;&gt;Node5</title>
<path fill="none" stroke="#191970" d="M73.1394,-288.7253C86.8281,-319.6046 118.697,-380.496 167,-407.9872 238.7896,-448.8456 335.7148,-451.1363 400.7522,-446.6378"/>
<polygon fill="#191970" stroke="#191970" points="76.3436,-287.3165 69.1966,-279.4953 69.9063,-290.0664 76.3436,-287.3165"/>
</g>
<!-- Node6 -->
<g id="node6" class="node">
<title>Node6</title>
<g id="a_node6"><a xlink:href="singlenode_8cpp_aab3cabb3e1c0b9696b339416b684f78c.html#aab3cabb3e1c0b9696b339416b684f78c" target="_top" target="_top" xlink:title="argo::backend::init">
<polygon fill="#ffffff" stroke="#000000" points="905,-347.4872 905,-366.4872 1012,-366.4872 1012,-347.4872 905,-347.4872"/>
<text text-anchor="middle" x="958.5" y="-354.4872" font-family="Helvetica,sans-Serif" font-size="10.00" fill="#000000">argo::backend::init</text>
</a>
</g>
</g>
<!-- Node1&#45;&gt;Node6 -->
<g id="edge37" class="edge">
<title>Node1&#45;&gt;Node6</title>
<path fill="none" stroke="#191970" d="M84.2367,-285.921C103.6375,-301.5194 135.4749,-324.6794 167,-336.9872 431.7322,-440.3421 785.1122,-389.7995 911.2826,-366.5272"/>
<polygon fill="#191970" stroke="#191970" points="86.4314,-283.1944 76.4821,-279.5525 81.9888,-288.6039 86.4314,-283.1944"/>
</g>
<!-- Node7 -->
<g id="node7" class="node">
<title>Node7</title>
<g id="a_node7"><a xlink:href="backend_8hpp_ac3350bde3c8baf64753e515336fad3be.html#ac3350bde3c8baf64753e515336fad3be" target="_top" target="_top" xlink:title="backend internal type erased function for selective release ">
<polygon fill="#ffffff" stroke="#000000" points="401,-316.9872 401,-346.9872 542,-346.9872 542,-316.9872 401,-316.9872"/>
<text text-anchor="start" x="409" y="-334.9872" font-family="Helvetica,sans-Serif" font-size="10.00" fill="#000000">argo::backend::_selective</text>
<text text-anchor="middle" x="471.5" y="-323.9872" font-family="Helvetica,sans-Serif" font-size="10.00" fill="#000000">_release</text>
</a>
</g>
</g>
<!-- Node1&#45;&gt;Node7 -->
<g id="edge7" class="edge">
<title>Node1&#45;&gt;Node7</title>
<path fill="none" stroke="#191970" d="M91.9448,-284.1267C111.9514,-294.0873 140.4274,-306.7228 167,-312.9872 245.6201,-331.5216 338.6273,-334.7164 400.9814,-334.2701"/>
<polygon fill="#191970" stroke="#191970" points="93.3482,-280.9136 82.8492,-279.4914 90.1698,-287.1504 93.3482,-280.9136"/>
</g>
<!-- Node8 -->
<g id="node8" class="node">
<title>Node8</title>
<g id="a_node8"><a xlink:href="backend_8hpp_ae76ec4647c992bfecf6309787f3dec4a.html#ae76ec4647c992bfecf6309787f3dec4a" target="_top" target="_top" xlink:title="Backend internal type erased atomic store function. ">
<polygon fill="#ffffff" stroke="#000000" points="203.5,-254.9872 203.5,-284.9872 328.5,-284.9872 328.5,-254.9872 203.5,-254.9872"/>
<text text-anchor="start" x="211.5" y="-272.9872" font-family="Helvetica,sans-Serif" font-size="10.00" fill="#000000">argo::backend::atomic</text>
<text text-anchor="middle" x="266" y="-261.9872" font-family="Helvetica,sans-Serif" font-size="10.00" fill="#000000">::_store</text>
</a>
</g>
</g>
<!-- Node1&#45;&gt;Node8 -->
<g id="edge10" class="edge">
<title>Node1&#45;&gt;Node8</title>
<path fill="none" stroke="#191970" d="M141.3623,-269.9872C161.7864,-269.9872 183.6484,-269.9872 203.2695,-269.9872"/>
<polygon fill="#191970" stroke="#191970" points="141.1512,-266.4873 131.1512,-269.9872 141.1512,-273.4873 141.1512,-266.4873"/>
</g>
<!-- Node9 -->
<g id="node9" class="node">
<title>Node9</title>
<g id="a_node9"><a xlink:href="classwrite__buffer_aa6a1c2c3aa3a7cde744bbca3b14f599a.html#aa6a1c2c3aa3a7cde744bbca3b14f599a" target="_top" target="_top" xlink:title="Flushes first _write_back_size elements of the ArgoDSM write buffer to memory. ">
<polygon fill="#ffffff" stroke="#000000" points="214,-90.9872 214,-120.9872 318,-120.9872 318,-90.9872 214,-90.9872"/>
<text text-anchor="start" x="222" y="-108.9872" font-family="Helvetica,sans-Serif" font-size="10.00" fill="#000000">write_buffer::flush</text>
<text text-anchor="middle" x="266" y="-97.9872" font-family="Helvetica,sans-Serif" font-size="10.00" fill="#000000">_partial</text>
</a>
</g>
</g>
<!-- Node1&#45;&gt;Node9 -->
<g id="edge12" class="edge">
<title>Node1&#45;&gt;Node9</title>
<path fill="none" stroke="#191970" d="M74.7678,-251.1397C90.0029,-222.0993 123.0847,-166.575 167,-135.9872 180.8527,-126.3385 197.8802,-119.7308 213.8832,-115.2317"/>
<polygon fill="#191970" stroke="#191970" points="71.5607,-249.7244 70.1347,-260.2229 77.7964,-252.9051 71.5607,-249.7244"/>
</g>
<!-- Node14 -->
<g id="node14" class="node">
<title>Node14</title>
<g id="a_node14"><a xlink:href="classwrite__buffer_aca2e330e17a38c1cc8d8c60701ce9dd7.html#aca2e330e17a38c1cc8d8c60701ce9dd7" target="_top" target="_top" xlink:title="Flushes the ArgoDSM write buffer to memory. ">
<polygon fill="#ffffff" stroke="#000000" points="214,-216.4872 214,-235.4872 318,-235.4872 318,-216.4872 214,-216.4872"/>
<text text-anchor="middle" x="266" y="-223.4872" font-family="Helvetica,sans-Serif" font-size="10.00" fill="#000000">write_buffer::flush</text>
</a>
</g>
</g>
<!-- Node1&#45;&gt;Node14 -->
<g id="edge17" class="edge">
<title>Node1&#45;&gt;Node14</title>
<path fill="none" stroke="#191970" d="M114.5271,-258.0514C131.1577,-254.0941 149.8624,-249.7433 167,-245.9872 183.2717,-242.4208 201.1001,-238.7472 217.0891,-235.537"/>
<polygon fill="#191970" stroke="#191970" points="113.3845,-254.7259 104.4728,-260.4557 115.0126,-261.5339 113.3845,-254.7259"/>
</g>
<!-- Node27 -->
<g id="node27" class="node">
<title>Node27</title>
<g id="a_node27"><a xlink:href="namespaceargo_1_1data__distribution_acc3c36c6299a0636d31774e216102de1.html#acc3c36c6299a0636d31774e216102de1" target="_top" target="_top" xlink:title="based on the chosen policy, gets the required size we need to add to the standardisation of the ArgoD...">
<polygon fill="#ffffff" stroke="#000000" points="578,-74.9872 578,-104.9872 705,-104.9872 705,-74.9872 578,-74.9872"/>
<text text-anchor="start" x="586" y="-92.9872" font-family="Helvetica,sans-Serif" font-size="10.00" fill="#000000">argo::data_distribution</text>
<text text-anchor="middle" x="641.5" y="-81.9872" font-family="Helvetica,sans-Serif" font-size="10.00" fill="#000000">::policy_padding</text>
</a>
</g>
</g>
<!-- Node1&#45;&gt;Node27 -->
<g id="edge38" class="edge">
<title>Node1&#45;&gt;Node27</title>
<path fill="none" stroke="#191970" d="M86.1781,-254.4326C105.9767,-240.2175 137.1644,-219.5531 167,-206.9872 307.5529,-147.7903 484.6622,-114.041 577.6975,-99.1881"/>
<polygon fill="#191970" stroke="#191970" points="83.9398,-251.7333 77.9287,-260.4578 88.0685,-257.3861 83.9398,-251.7333"/>
</g>
<!-- Node28 -->
<g id="node28" class="node">
<title>Node28</title>
<g id="a_node28"><a xlink:href="classargo_1_1mempools_1_1global__memory__pool_a8158f23df9fd2ea2c603ad2e56635783.html#a8158f23df9fd2ea2c603ad2e56635783" target="_top" target="_top" xlink:title="Default constructor: initializes memory on heap and sets offset to 0. ">
<polygon fill="#ffffff" stroke="#000000" points="167,-41.9872 167,-71.9872 365,-71.9872 365,-41.9872 167,-41.9872"/>
<text text-anchor="start" x="175" y="-59.9872" font-family="Helvetica,sans-Serif" font-size="10.00" fill="#000000">argo::mempools::global</text>
<text text-anchor="middle" x="266" y="-48.9872" font-family="Helvetica,sans-Serif" font-size="10.00" fill="#000000">_memory_pool::global_memory_pool</text>
</a>
</g>
</g>
<!-- Node1&#45;&gt;Node28 -->
<g id="edge40" class="edge">
<title>Node1&#45;&gt;Node28</title>
<path fill="none" stroke="#191970" d="M70.2902,-250.3374C80.7877,-211.6105 109.5982,-125.344 167,-80.9872 171.4781,-77.5268 176.3835,-74.5565 181.5395,-72.0078"/>
<polygon fill="#191970" stroke="#191970" points="66.8213,-249.7724 67.7069,-260.3301 73.5985,-251.5244 66.8213,-249.7724"/>
</g>
<!-- Node29 -->
<g id="node29" class="node">
<title>Node29</title>
<g id="a_node29"><a xlink:href="barrier_8cpp_a03ef2b2b4275df192876f1fc8943aadf.html#a03ef2b2b4275df192876f1fc8943aadf" target="_top" target="_top" xlink:title="Unittest that checks that the barrier call works with multiple threads. ">
<polygon fill="#ffffff" stroke="#000000" points="240,-3.4872 240,-22.4872 292,-22.4872 292,-3.4872 240,-3.4872"/>
<text text-anchor="middle" x="266" y="-10.4872" font-family="Helvetica,sans-Serif" font-size="10.00" fill="#000000">TEST_P</text>
</a>
</g>
</g>
<!-- Node1&#45;&gt;Node29 -->
<g id="edge41" class="edge">
<title>Node1&#45;&gt;Node29</title>
<path fill="none" stroke="#191970" d="M67.7252,-250.2139C74.0301,-204.076 96.4053,-88.9166 167,-31.9872 187.435,-15.5079 217.9117,-11.8171 239.6466,-11.5861"/>
<polygon fill="#191970" stroke="#191970" points="64.222,-250.0212 66.449,-260.3793 71.1675,-250.8933 64.222,-250.0212"/>
</g>
<!-- Node4 -->
<g id="node4" class="node">
<title>Node4</title>
<g id="a_node4"><a xlink:href="omp_8cpp_a8dc8d62aec3b0b57259d2bca6ef6bf7e.html#a8dc8d62aec3b0b57259d2bca6ef6bf7e" target="_top" target="_top" xlink:title="Unittest that checks that data written 1 OpenMP thread per node by all threads after an ArgoDSM barri...">
<polygon fill="#ffffff" stroke="#000000" points="446,-490.4872 446,-509.4872 497,-509.4872 497,-490.4872 446,-490.4872"/>
<text text-anchor="middle" x="471.5" y="-497.4872" font-family="Helvetica,sans-Serif" font-size="10.00" fill="#000000">TEST_F</text>
</a>
</g>
</g>
<!-- Node3&#45;&gt;Node4 -->
<g id="edge3" class="edge">
<title>Node3&#45;&gt;Node4</title>
<path fill="none" stroke="#191970" d="M341.4997,-481.009C378.179,-486.3637 419.852,-492.4473 445.9102,-496.2515"/>
<polygon fill="#191970" stroke="#191970" points="341.7046,-477.5019 331.3038,-479.5206 340.6933,-484.4285 341.7046,-477.5019"/>
</g>
<!-- Node5&#45;&gt;Node5 -->
<g id="edge5" class="edge">
<title>Node5&#45;&gt;Node5</title>
<path fill="none" stroke="#191970" d="M441.2931,-463.4451C445.0422,-468.1662 455.1111,-471.4872 471.5,-471.4872 498.3945,-471.4872 508.2699,-462.5438 501.126,-453.1462"/>
<polygon fill="#191970" stroke="#191970" points="444.8052,-463.3275 441.874,-453.1462 437.8163,-462.9332 444.8052,-463.3275"/>
</g>
<!-- Node5&#45;&gt;Node6 -->
<g id="edge6" class="edge">
<title>Node5&#45;&gt;Node6</title>
<path fill="none" stroke="#191970" d="M552.4155,-442.589C634.15,-444.8258 763.1215,-441.6907 869,-408.9872 899.0475,-399.7062 929.8378,-378.8144 946.3142,-366.523"/>
<polygon fill="#191970" stroke="#191970" points="552.2959,-439.0837 542.1929,-442.2744 552.0805,-446.0804 552.2959,-439.0837"/>
</g>
<!-- Node7&#45;&gt;Node6 -->
<g id="edge9" class="edge">
<title>Node7&#45;&gt;Node6</title>
<path fill="none" stroke="#191970" d="M552.099,-336.1247C651.9758,-341.2519 819.398,-349.8464 904.8256,-354.2318"/>
<polygon fill="#191970" stroke="#191970" points="552.2201,-332.6264 542.0537,-335.609 551.8611,-339.6172 552.2201,-332.6264"/>
</g>
<!-- Node7&#45;&gt;Node7 -->
<g id="edge8" class="edge">
<title>Node7&#45;&gt;Node7</title>
<path fill="none" stroke="#191970" d="M441.2931,-357.4451C445.0422,-362.1662 455.1111,-365.4872 471.5,-365.4872 498.3945,-365.4872 508.2699,-356.5438 501.126,-347.1462"/>
<polygon fill="#191970" stroke="#191970" points="444.8052,-357.3275 441.874,-347.1462 437.8163,-356.9332 444.8052,-357.3275"/>
</g>
<!-- Node8&#45;&gt;Node8 -->
<g id="edge11" class="edge">
<title>Node8&#45;&gt;Node8</title>
<path fill="none" stroke="#191970" d="M230.4624,-295.4451C234.8731,-300.1662 246.719,-303.4872 266,-303.4872 297.6406,-303.4872 309.2587,-294.5438 300.8541,-285.1462"/>
<polygon fill="#191970" stroke="#191970" points="233.9759,-295.356 231.1459,-285.1462 226.9913,-294.8924 233.9759,-295.356"/>
</g>
<!-- Node10 -->
<g id="node10" class="node">
<title>Node10</title>
<g id="a_node10"><a xlink:href="classwrite__buffer_a23b0dbc463111cacbbf83b267e76ac9f.html#a23b0dbc463111cacbbf83b267e76ac9f" target="_top" target="_top" xlink:title="Adds a new element to the write buffer. ">
<polygon fill="#ffffff" stroke="#000000" points="422,-41.4872 422,-60.4872 521,-60.4872 521,-41.4872 422,-41.4872"/>
<text text-anchor="middle" x="471.5" y="-48.4872" font-family="Helvetica,sans-Serif" font-size="10.00" fill="#000000">write_buffer::add</text>
</a>
</g>
</g>
<!-- Node9&#45;&gt;Node10 -->
<g id="edge13" class="edge">
<title>Node9&#45;&gt;Node10</title>
<path fill="none" stroke="#191970" d="M327.9442,-90.6204C340.2383,-87.4929 353.04,-84.1812 365,-80.9872 389.6831,-74.3954 417.4647,-66.5555 438.4629,-60.5436"/>
<polygon fill="#191970" stroke="#191970" points="327.0537,-87.2353 318.2191,-93.0834 328.7723,-94.0211 327.0537,-87.2353"/>
</g>
<!-- Node11 -->
<g id="node11" class="node">
<title>Node11</title>
<g id="a_node11"><a xlink:href="swdsm_8h_a8b00f264b792522b179fbc9c818187bd.html#a8b00f264b792522b179fbc9c818187bd" target="_top" target="_top" xlink:title="Catches memory accesses to memory not yet cached in ArgoDSM. Launches remote requests for memory not ...">
<polygon fill="#ffffff" stroke="#000000" points="615,-4.4872 615,-23.4872 668,-23.4872 668,-4.4872 615,-4.4872"/>
<text text-anchor="middle" x="641.5" y="-11.4872" font-family="Helvetica,sans-Serif" font-size="10.00" fill="#000000">handler</text>
</a>
</g>
</g>
<!-- Node10&#45;&gt;Node11 -->
<g id="edge14" class="edge">
<title>Node10&#45;&gt;Node11</title>
<path fill="none" stroke="#191970" d="M525.1532,-39.3097C555.0243,-32.8084 590.9016,-24.9998 614.8441,-19.7888"/>
<polygon fill="#191970" stroke="#191970" points="524.3061,-35.9121 515.2792,-41.4588 525.7948,-42.7519 524.3061,-35.9121"/>
</g>
<!-- Node12 -->
<g id="node12" class="node">
<title>Node12</title>
<g id="a_node12"><a xlink:href="swdsm_8h_a10dca85d339ce630cf42dca685b3f6d9.html#a10dca85d339ce630cf42dca685b3f6d9" target="_top" target="_top" xlink:title="Initializes ArgoDSM runtime. ">
<polygon fill="#ffffff" stroke="#000000" points="915.5,-7.4872 915.5,-26.4872 1001.5,-26.4872 1001.5,-7.4872 915.5,-7.4872"/>
<text text-anchor="middle" x="958.5" y="-14.4872" font-family="Helvetica,sans-Serif" font-size="10.00" fill="#000000">argo_initialize</text>
</a>
</g>
</g>
<!-- Node11&#45;&gt;Node12 -->
<g id="edge15" class="edge">
<title>Node11&#45;&gt;Node12</title>
<path fill="none" stroke="#191970" d="M677.9699,-8.9819C696.7584,-6.6507 720.0623,-4.141 741,-2.9872 797.8027,.1431 812.2822,1.422 869,-2.9872 884.2094,-4.1696 900.7425,-6.4659 915.4125,-8.8623"/>
<polygon fill="#191970" stroke="#191970" points="677.5166,-5.5113 668.04,-10.2489 678.4026,-12.455 677.5166,-5.5113"/>
</g>
<!-- Node13 -->
<g id="node13" class="node">
<title>Node13</title>
<g id="a_node13"><a xlink:href="backend_8hpp_af0d80a03a17a374c10d9635ddf81e261.html#af0d80a03a17a374c10d9635ddf81e261" target="_top" target="_top" xlink:title="initialize backend ">
<polygon fill="#ffffff" stroke="#000000" points="1048,-7.4872 1048,-26.4872 1155,-26.4872 1155,-7.4872 1048,-7.4872"/>
<text text-anchor="middle" x="1101.5" y="-14.4872" font-family="Helvetica,sans-Serif" font-size="10.00" fill="#000000">argo::backend::init</text>
</a>
</g>
</g>
<!-- Node12&#45;&gt;Node13 -->
<g id="edge16" class="edge">
<title>Node12&#45;&gt;Node13</title>
<path fill="none" stroke="#191970" d="M1011.933,-16.9872C1023.7171,-16.9872 1036.2019,-16.9872 1047.9891,-16.9872"/>
<polygon fill="#191970" stroke="#191970" points="1011.7928,-13.4873 1001.7928,-16.9872 1011.7927,-20.4873 1011.7928,-13.4873"/>
</g>
<!-- Node15 -->
<g id="node15" class="node">
<title>Node15</title>
<g id="a_node15"><a xlink:href="swdsm_8h_aa7c3a2de6bbafdaf68fe6ceb6110ab97.html#aa7c3a2de6bbafdaf68fe6ceb6110ab97" target="_top" target="_top" xlink:title="Self&#45;Invalidates all memory that has potential writers. ">
<polygon fill="#ffffff" stroke="#000000" points="422.5,-216.4872 422.5,-235.4872 520.5,-235.4872 520.5,-216.4872 422.5,-216.4872"/>
<text text-anchor="middle" x="471.5" y="-223.4872" font-family="Helvetica,sans-Serif" font-size="10.00" fill="#000000">self_invalidation</text>
</a>
</g>
</g>
<!-- Node14&#45;&gt;Node15 -->
<g id="edge18" class="edge">
<title>Node14&#45;&gt;Node15</title>
<path fill="none" stroke="#191970" d="M328.5128,-225.9872C358.5934,-225.9872 394.138,-225.9872 422.2628,-225.9872"/>
<polygon fill="#191970" stroke="#191970" points="328.122,-222.4873 318.122,-225.9872 328.122,-229.4873 328.122,-222.4873"/>
</g>
<!-- Node16 -->
<g id="node16" class="node">
<title>Node16</title>
<g id="a_node16"><a xlink:href="swdsm_8h_ad3f5bdae81c60ac704dda7372792427d.html#ad3f5bdae81c60ac704dda7372792427d" target="_top" target="_top" xlink:title="Global barrier for ArgoDSM &#45; needs to be called by every thread in the system that need coherent view...">
<polygon fill="#ffffff" stroke="#000000" points="583.5,-140.4872 583.5,-159.4872 699.5,-159.4872 699.5,-140.4872 583.5,-140.4872"/>
<text text-anchor="middle" x="641.5" y="-147.4872" font-family="Helvetica,sans-Serif" font-size="10.00" fill="#000000">swdsm_argo_barrier</text>
</a>
</g>
</g>
<!-- Node14&#45;&gt;Node16 -->
<g id="edge31" class="edge">
<title>Node14&#45;&gt;Node16</title>
<path fill="none" stroke="#191970" d="M323.2871,-214.3925C397.5526,-199.3614 525.6779,-173.4292 594.5159,-159.4966"/>
<polygon fill="#191970" stroke="#191970" points="322.284,-211.0244 313.1771,-216.4387 323.6727,-217.8853 322.284,-211.0244"/>
</g>
<!-- Node25 -->
<g id="node25" class="node">
<title>Node25</title>
<g id="a_node25"><a xlink:href="swdsm_8h_ad390eb58e1be03ed6a0939fae7ebd20a.html#ad390eb58e1be03ed6a0939fae7ebd20a" target="_top" target="_top" xlink:title="Release function for ArgoDSM (Release according to Release Consistency) ">
<polygon fill="#ffffff" stroke="#000000" points="601.5,-254.4872 601.5,-273.4872 681.5,-273.4872 681.5,-254.4872 601.5,-254.4872"/>
<text text-anchor="middle" x="641.5" y="-261.4872" font-family="Helvetica,sans-Serif" font-size="10.00" fill="#000000">argo_release</text>
</a>
</g>
</g>
<!-- Node14&#45;&gt;Node25 -->
<g id="edge32" class="edge">
<title>Node14&#45;&gt;Node25</title>
<path fill="none" stroke="#191970" d="M328.0807,-235.5327C350.9631,-238.8377 377.1241,-242.3664 401,-244.9872 471.3606,-252.7105 553.6346,-258.517 601.4291,-261.5715"/>
<polygon fill="#191970" stroke="#191970" points="328.5563,-232.0651 318.1556,-234.0839 327.5451,-238.9917 328.5563,-232.0651"/>
</g>
<!-- Node15&#45;&gt;Node16 -->
<g id="edge19" class="edge">
<title>Node15&#45;&gt;Node16</title>
<path fill="none" stroke="#191970" d="M512.3528,-213.2667C522.1732,-209.8844 532.5521,-206.0358 542,-201.9872 572.098,-189.0896 605.5435,-170.7256 624.9807,-159.6243"/>
<polygon fill="#191970" stroke="#191970" points="511.139,-209.9822 502.7736,-216.4838 513.3676,-216.618 511.139,-209.9822"/>
</g>
<!-- Node22 -->
<g id="node22" class="node">
<title>Node22</title>
<g id="a_node22"><a xlink:href="swdsm_8h_a44b8bb7a3c8b47b4f9552c8e10b25e4b.html#a44b8bb7a3c8b47b4f9552c8e10b25e4b" target="_top" target="_top" xlink:title="acquire function for ArgoDSM (Acquire according to Release Consistency) ">
<polygon fill="#ffffff" stroke="#000000" points="601.5,-216.4872 601.5,-235.4872 681.5,-235.4872 681.5,-216.4872 601.5,-216.4872"/>
<text text-anchor="middle" x="641.5" y="-223.4872" font-family="Helvetica,sans-Serif" font-size="10.00" fill="#000000">argo_acquire</text>
</a>
</g>
</g>
<!-- Node15&#45;&gt;Node22 -->
<g id="edge26" class="edge">
<title>Node15&#45;&gt;Node22</title>
<path fill="none" stroke="#191970" d="M530.8074,-225.9872C554.119,-225.9872 580.2763,-225.9872 601.3083,-225.9872"/>
<polygon fill="#191970" stroke="#191970" points="530.6711,-222.4873 520.671,-225.9872 530.671,-229.4873 530.6711,-222.4873"/>
</g>
<!-- Node17 -->
<g id="node17" class="node">
<title>Node17</title>
<g id="a_node17"><a xlink:href="backend_8hpp_af1a647431651556204709451bebb5a42.html#af1a647431651556204709451bebb5a42" target="_top" target="_top" xlink:title="a simple collective barrier ">
<polygon fill="#ffffff" stroke="#000000" points="743,-159.4872 743,-178.4872 867,-178.4872 867,-159.4872 743,-159.4872"/>
<text text-anchor="middle" x="805" y="-166.4872" font-family="Helvetica,sans-Serif" font-size="10.00" fill="#000000">argo::backend::barrier</text>
</a>
</g>
</g>
<!-- Node16&#45;&gt;Node17 -->
<g id="edge20" class="edge">
<title>Node16&#45;&gt;Node17</title>
<path fill="none" stroke="#191970" d="M709.6224,-157.9036C720.6615,-159.1864 732.0418,-160.5089 742.9272,-161.7738"/>
<polygon fill="#191970" stroke="#191970" points="709.9415,-154.4172 699.6043,-156.7394 709.1335,-161.3704 709.9415,-154.4172"/>
</g>
<!-- Node18 -->
<g id="node18" class="node">
<title>Node18</title>
<g id="a_node18"><a xlink:href="swdsm_8h_acd175d6d8efa5cce6963bae64891a490.html#acd175d6d8efa5cce6963bae64891a490" target="_top" target="_top" xlink:title="Allocates memory in global address space. ">
<polygon fill="#ffffff" stroke="#000000" points="763.5,-121.4872 763.5,-140.4872 846.5,-140.4872 846.5,-121.4872 763.5,-121.4872"/>
<text text-anchor="middle" x="805" y="-128.4872" font-family="Helvetica,sans-Serif" font-size="10.00" fill="#000000">argo_gmalloc</text>
</a>
</g>
</g>
<!-- Node16&#45;&gt;Node18 -->
<g id="edge21" class="edge">
<title>Node16&#45;&gt;Node18</title>
<path fill="none" stroke="#191970" d="M709.6003,-142.0734C727.8082,-139.9575 746.9457,-137.7336 763.2611,-135.8376"/>
<polygon fill="#191970" stroke="#191970" points="709.1335,-138.604 699.6043,-143.235 709.9415,-145.5572 709.1335,-138.604"/>
</g>
<!-- Node19 -->
<g id="node19" class="node">
<title>Node19</title>
<g id="a_node19"><a xlink:href="swdsm_8cpp_aa954d5e0bcaee69ff6e03e697bcaf68b.html#aa954d5e0bcaee69ff6e03e697bcaf68b" target="_top" target="_top" xlink:title="shut down ArgoDSM system ">
<polygon fill="#ffffff" stroke="#000000" points="765.5,-83.4872 765.5,-102.4872 844.5,-102.4872 844.5,-83.4872 765.5,-83.4872"/>
<text text-anchor="middle" x="805" y="-90.4872" font-family="Helvetica,sans-Serif" font-size="10.00" fill="#000000">argo_finalize</text>
</a>
</g>
</g>
<!-- Node16&#45;&gt;Node19 -->
<g id="edge22" class="edge">
<title>Node16&#45;&gt;Node19</title>
<path fill="none" stroke="#191970" d="M674.5574,-136.6367C693.8114,-129.0435 718.6297,-119.5672 741,-111.9872 750.6601,-108.7139 761.2413,-105.4459 770.969,-102.5663"/>
<polygon fill="#191970" stroke="#191970" points="673.0414,-133.4728 665.0385,-140.4157 675.6243,-139.9788 673.0414,-133.4728"/>
</g>
<!-- Node21 -->
<g id="node21" class="node">
<title>Node21</title>
<g id="a_node21"><a xlink:href="swdsm_8h_a0c6b51af2b87ddf7eb04aa7d4e0e836e.html#a0c6b51af2b87ddf7eb04aa7d4e0e836e" target="_top" target="_top" xlink:title="Resets current coherence. Collective function called by all threads on all nodes. ...">
<polygon fill="#ffffff" stroke="#000000" points="743,-45.4872 743,-64.4872 867,-64.4872 867,-45.4872 743,-45.4872"/>
<text text-anchor="middle" x="805" y="-52.4872" font-family="Helvetica,sans-Serif" font-size="10.00" fill="#000000">argo_reset_coherence</text>
</a>
</g>
</g>
<!-- Node16&#45;&gt;Node21 -->
<g id="edge24" class="edge">
<title>Node16&#45;&gt;Node21</title>
<path fill="none" stroke="#191970" d="M671.2391,-135.6985C682.3419,-129.718 694.7352,-122.2348 705,-113.9872 723.6447,-99.0064 720.7776,-86.7583 741,-73.9872 747.0759,-70.1501 753.9626,-67.0571 760.9111,-64.5729"/>
<polygon fill="#191970" stroke="#191970" points="669.5479,-132.633 662.2912,-140.3526 672.778,-138.8432 669.5479,-132.633"/>
</g>
<!-- Node20 -->
<g id="node20" class="node">
<title>Node20</title>
<g id="a_node20"><a xlink:href="swdsm_8h_a18cc89a7368e30281ea4b1d214a1b1ff.html#a18cc89a7368e30281ea4b1d214a1b1ff" target="_top" target="_top" xlink:title="Pins and registers the local thread. ">
<polygon fill="#ffffff" stroke="#000000" points="908,-83.4872 908,-102.4872 1009,-102.4872 1009,-83.4872 908,-83.4872"/>
<text text-anchor="middle" x="958.5" y="-90.4872" font-family="Helvetica,sans-Serif" font-size="10.00" fill="#000000">argo_pin_threads</text>
</a>
</g>
</g>
<!-- Node19&#45;&gt;Node20 -->
<g id="edge23" class="edge">
<title>Node19&#45;&gt;Node20</title>
<path fill="none" stroke="#191970" d="M854.8002,-92.9872C871.7693,-92.9872 890.7517,-92.9872 907.7913,-92.9872"/>
<polygon fill="#191970" stroke="#191970" points="854.5301,-89.4873 844.5301,-92.9872 854.53,-96.4873 854.5301,-89.4873"/>
</g>
<!-- Node21&#45;&gt;Node12 -->
<g id="edge25" class="edge">
<title>Node21&#45;&gt;Node12</title>
<path fill="none" stroke="#191970" d="M853.6352,-42.9472C875.0799,-37.6384 899.9226,-31.4884 920.044,-26.5072"/>
<polygon fill="#191970" stroke="#191970" points="852.6004,-39.5976 843.7345,-45.3982 854.2826,-46.3925 852.6004,-39.5976"/>
</g>
<!-- Node23 -->
<g id="node23" class="node">
<title>Node23</title>
<g id="a_node23"><a xlink:href="backend_8hpp_a1032f833666c3f810ac1c6210197d426.html#a1032f833666c3f810ac1c6210197d426" target="_top" target="_top" xlink:title="causes a node to self&#45;invalidate its cache, and thus getting any updated values on subsequent accesse...">
<polygon fill="#ffffff" stroke="#000000" points="741,-197.4872 741,-216.4872 869,-216.4872 869,-197.4872 741,-197.4872"/>
<text text-anchor="middle" x="805" y="-204.4872" font-family="Helvetica,sans-Serif" font-size="10.00" fill="#000000">argo::backend::acquire</text>
</a>
</g>
</g>
<!-- Node22&#45;&gt;Node23 -->
<g id="edge27" class="edge">
<title>Node22&#45;&gt;Node23</title>
<path fill="none" stroke="#191970" d="M692.2563,-220.0889C707.6367,-218.3016 724.7351,-216.3146 740.8717,-214.4394"/>
<polygon fill="#191970" stroke="#191970" points="691.4449,-216.6596 681.9157,-221.2906 692.2529,-223.6128 691.4449,-216.6596"/>
</g>
<!-- Node24 -->
<g id="node24" class="node">
<title>Node24</title>
<g id="a_node24"><a xlink:href="swdsm_8h_ac0b665f72bc2a28dc663ed204c526e1b.html#ac0b665f72bc2a28dc663ed204c526e1b" target="_top" target="_top" xlink:title="acquire&#45;release function for ArgoDSM (Both acquire and release according to Release Consistency) ...">
<polygon fill="#ffffff" stroke="#000000" points="765.5,-253.4872 765.5,-272.4872 844.5,-272.4872 844.5,-253.4872 765.5,-253.4872"/>
<text text-anchor="middle" x="805" y="-260.4872" font-family="Helvetica,sans-Serif" font-size="10.00" fill="#000000">argo_acq_rel</text>
</a>
</g>
</g>
<!-- Node22&#45;&gt;Node24 -->
<g id="edge30" class="edge">
<title>Node22&#45;&gt;Node24</title>
<path fill="none" stroke="#191970" d="M691.766,-237.3624C715.4091,-242.7128 743.1992,-249.0017 765.3316,-254.0102"/>
<polygon fill="#191970" stroke="#191970" points="692.4417,-233.9268 681.9157,-235.1333 690.8966,-240.7542 692.4417,-233.9268"/>
</g>
<!-- Node23&#45;&gt;Node6 -->
<g id="edge29" class="edge">
<title>Node23&#45;&gt;Node6</title>
<path fill="none" stroke="#191970" d="M834.9899,-221.2791C846.2788,-227.4159 858.8331,-235.2032 869,-243.9872 906.4954,-276.3825 939.5295,-326.2635 952.5734,-347.203"/>
<polygon fill="#191970" stroke="#191970" points="836.3696,-218.0512 825.885,-216.5268 833.1305,-224.2568 836.3696,-218.0512"/>
</g>
<!-- Node23&#45;&gt;Node23 -->
<g id="edge28" class="edge">
<title>Node23&#45;&gt;Node23</title>
<path fill="none" stroke="#191970" d="M776.6275,-225.6411C777.8135,-230.924 787.271,-234.9872 805,-234.9872 832.0156,-234.9872 839.8248,-225.5525 828.4276,-216.7442"/>
<polygon fill="#191970" stroke="#191970" points="779.7735,-227.1853 781.5724,-216.7442 773.6551,-223.7846 779.7735,-227.1853"/>
</g>
<!-- Node25&#45;&gt;Node24 -->
<g id="edge36" class="edge">
<title>Node25&#45;&gt;Node24</title>
<path fill="none" stroke="#191970" d="M692.0829,-263.6778C715.6571,-263.5336 743.298,-263.3646 765.3316,-263.2298"/>
<polygon fill="#191970" stroke="#191970" points="691.8941,-260.1788 681.9157,-263.74 691.937,-267.1787 691.8941,-260.1788"/>
</g>
<!-- Node26 -->
<g id="node26" class="node">
<title>Node26</title>
<g id="a_node26"><a xlink:href="backend_8hpp_a8953c9cd9d3c56306740b6c9b97513a2.html#a8953c9cd9d3c56306740b6c9b97513a2" target="_top" target="_top" xlink:title="causes a node to self&#45;downgrade its cache, making all previous writes to be propagated to the homenod...">
<polygon fill="#ffffff" stroke="#000000" points="741,-291.4872 741,-310.4872 869,-310.4872 869,-291.4872 741,-291.4872"/>
<text text-anchor="middle" x="805" y="-298.4872" font-family="Helvetica,sans-Serif" font-size="10.00" fill="#000000">argo::backend::release</text>
</a>
</g>
</g>
<!-- Node25&#45;&gt;Node26 -->
<g id="edge33" class="edge">
<title>Node25&#45;&gt;Node26</title>
<path fill="none" stroke="#191970" d="M691.733,-275.3549C714.4794,-280.5024 741.0696,-286.5197 762.7685,-291.4302"/>
<polygon fill="#191970" stroke="#191970" points="692.4417,-271.9268 681.9157,-273.1333 690.8966,-278.7542 692.4417,-271.9268"/>
</g>
<!-- Node26&#45;&gt;Node6 -->
<g id="edge35" class="edge">
<title>Node26&#45;&gt;Node6</title>
<path fill="none" stroke="#191970" d="M840.8446,-314.0641C868.9053,-324.3012 907.2724,-338.2983 932.4567,-347.4861"/>
<polygon fill="#191970" stroke="#191970" points="841.9815,-310.7532 831.3876,-310.6139 839.5824,-317.3293 841.9815,-310.7532"/>
</g>
<!-- Node26&#45;&gt;Node26 -->
<g id="edge34" class="edge">
<title>Node26&#45;&gt;Node26</title>
<path fill="none" stroke="#191970" d="M776.6275,-319.6411C777.8135,-324.924 787.271,-328.9872 805,-328.9872 832.0156,-328.9872 839.8248,-319.5525 828.4276,-310.7442"/>
<polygon fill="#191970" stroke="#191970" points="779.7735,-321.1853 781.5724,-310.7442 773.6551,-317.7846 779.7735,-321.1853"/>
</g>
<!-- Node27&#45;&gt;Node12 -->
<g id="edge39" class="edge">
<title>Node27&#45;&gt;Node12</title>
<path fill="none" stroke="#191970" d="M671.7709,-69.3002C690.7822,-57.4166 716.3029,-43.4159 741,-35.9872 799.6208,-18.3545 870.8401,-15.4076 915.432,-15.6347"/>
<polygon fill="#191970" stroke="#191970" points="669.7908,-66.412 663.2573,-74.7525 673.566,-72.3068 669.7908,-66.412"/>
</g>
</g>
</svg>
        <g id="navigator" transform="translate(0 0)" fill="#404254">
                <rect fill="#f2f5e9" fill-opacity="0.5" stroke="#606060" stroke-width=".5" x="0" y="0" width="60" height="60"/>
                <use id="zoomplus" xlink:href="#zoomPlus" target="_top" x="17" y="9" onmousedown="handleZoom(evt,'in')"/>
                <use id="zoomminus" xlink:href="#zoomMin" target="_top" x="42" y="9" onmousedown="handleZoom(evt,'out')"/>
                <use id="reset" xlink:href="#resetDef" target="_top" x="30" y="36" onmousedown="handleReset()"/>
                <g id="arrowUp" xlink:href="#dirArrow" target="_top" transform="translate(30 24)" onmousedown="handlePan(0,-1)">
                  <use xlink:href="#rim" target="_top" fill="#404040">
                        <set attributeName="fill" to="#808080" begin="arrowUp.mouseover" end="arrowUp.mouseout"/>
                  </use>
                  <path fill="none" stroke="white" stroke-width="1.5" d="M0,-3.0v7 M-2.5,-0.5L0,-3.0L2.5,-0.5"/>
                </g>
                <g id="arrowRight" xlink:href="#dirArrow" target="_top" transform="rotate(90) translate(36 -43)" onmousedown="handlePan(1,0)">
                  <use xlink:href="#rim" target="_top" fill="#404040">
                        <set attributeName="fill" to="#808080" begin="arrowRight.mouseover" end="arrowRight.mouseout"/>
                  </use>
                  <path fill="none" stroke="white" stroke-width="1.5" d="M0,-3.0v7 M-2.5,-0.5L0,-3.0L2.5,-0.5"/>
                </g>
                <g id="arrowDown" xlink:href="#dirArrow" target="_top" transform="rotate(180) translate(-30 -48)" onmousedown="handlePan(0,1)">
                  <use xlink:href="#rim" target="_top" fill="#404040">
                        <set attributeName="fill" to="#808080" begin="arrowDown.mouseover" end="arrowDown.mouseout"/>
                  </use>
                  <path fill="none" stroke="white" stroke-width="1.5" d="M0,-3.0v7 M-2.5,-0.5L0,-3.0L2.5,-0.5"/>
                </g>
                <g id="arrowLeft" xlink:href="#dirArrow" target="_top" transform="rotate(270) translate(-36 17)" onmousedown="handlePan(-1,0)">
                  <use xlink:href="#rim" target="_top" fill="#404040">
                        <set attributeName="fill" to="#808080" begin="arrowLeft.mouseover" end="arrowLeft.mouseout"/>
                  </use>
                  <path fill="none" stroke="white" stroke-width="1.5" d="M0,-3.0v7 M-2.5,-0.5L0,-3.0L2.5,-0.5"/>
                </g>
        </g>
        <svg viewBox="0 0 15 15" width="100%" height="30px" preserveAspectRatio="xMaxYMin meet">
         <g id="arrow_out" transform="scale(0.3 0.3)">
          <a xlink:href="namespaceargo_a79c9492f3fd441bfa6261dffbc0f02f4_a79c9492f3fd441bfa6261dffbc0f02f4_icgraph_org.svg" target="_top" target="_base">
           <rect id="button" ry="5" rx="5" y="6" x="6" height="38" width="38"
                fill="#f2f5e9" fill-opacity="0.5" stroke="#606060" stroke-width="1.0"/>
           <path id="arrow"
             d="M 11.500037,31.436501 C 11.940474,20.09759 22.043105,11.32322 32.158766,21.979434 L 37.068811,17.246167 C 37.068811,17.246167 37.088388,32 37.088388,32 L 22.160133,31.978069 C 22.160133,31.978069 26.997745,27.140456 26.997745,27.140456 C 18.528582,18.264221 13.291696,25.230495 11.500037,31.436501 z"
             style="fill:#404040;"/>
          </a>
         </g>
        </svg>
</svg>
