<?xml version="1.0" encoding="UTF-8" standalone="no"?>
<!DOCTYPE svg PUBLIC "-//W3C//DTD SVG 1.1//EN"
 "http://www.w3.org/Graphics/SVG/1.1/DTD/svg11.dtd">
<!-- Generated by graphviz version 2.40.1 (20161225.0304)
 -->
<!-- Title: argo::init Pages: 1 -->
<svg width="163pt" height="66pt"
 viewBox="0.00 0.00 163.00 66.00" xmlns="http://www.w3.org/2000/svg" xmlns:xlink="http://www.w3.org/1999/xlink">
<g id="graph0" class="graph" transform="scale(1 1) rotate(0) translate(4 62)">
<title>argo::init</title>
<polygon fill="#ffffff" stroke="transparent" points="-4,4 -4,-62 159,-62 159,4 -4,4"/>
<!-- Node10 -->
<g id="node1" class="node">
<title>Node10</title>
<polygon fill="#bfbfbf" stroke="#000000" points="0,-19.5 0,-38.5 60,-38.5 60,-19.5 0,-19.5"/>
<text text-anchor="middle" x="30" y="-26.5" font-family="Helvetica,sans-Serif" font-size="10.00" fill="#000000">argo::init</text>
</g>
<!-- Node11 -->
<g id="node2" class="node">
<title>Node11</title>
<g id="a_node2"><a xlink:href="tests_2allocators_8cpp_a3c04138a5bfe5d72780bb7e82a18e627.html#a3c04138a5bfe5d72780bb7e82a18e627" target="_top" target="_top" xlink:title="The main function that runs the tests. ">
<polygon fill="#ffffff" stroke="#000000" points="105,-38.5 105,-57.5 146,-57.5 146,-38.5 105,-38.5"/>
<text text-anchor="middle" x="125.5" y="-45.5" font-family="Helvetica,sans-Serif" font-size="10.00" fill="#000000">main</text>
</a>
</g>
</g>
<!-- Node10&#45;&gt;Node11 -->
<g id="edge1" class="edge">
<title>Node10&#45;&gt;Node11</title>
<path fill="none" stroke="#191970" d="M70.0488,-36.9678C82.0207,-39.3497 94.6561,-41.8635 104.8367,-43.889"/>
<polygon fill="#191970" stroke="#191970" points="70.7076,-33.5304 60.2168,-35.0117 69.3416,-40.3958 70.7076,-33.5304"/>
</g>
<!-- Node12 -->
<g id="node3" class="node">
<title>Node12</title>
<g id="a_node3"><a xlink:href="argo_8h_aa84680ad78c3598c30a482ff71ec6bbc.html#aa84680ad78c3598c30a482ff71ec6bbc" target="_top" target="_top" xlink:title="initialize ArgoDSM system ">
<polygon fill="#ffffff" stroke="#000000" points="96,-.5 96,-19.5 155,-19.5 155,-.5 96,-.5"/>
<text text-anchor="middle" x="125.5" y="-7.5" font-family="Helvetica,sans-Serif" font-size="10.00" fill="#000000">argo_init</text>
</a>
</g>
</g>
<!-- Node10&#45;&gt;Node12 -->
<g id="edge2" class="edge">
<title>Node10&#45;&gt;Node12</title>
<path fill="none" stroke="#191970" d="M70.1028,-21.0214C78.7168,-19.3076 87.6718,-17.526 95.8067,-15.9076"/>
<polygon fill="#191970" stroke="#191970" points="69.3416,-17.6042 60.2168,-22.9883 70.7076,-24.4696 69.3416,-17.6042"/>
</g>
</g>
</svg>
