<?xml version="1.0" encoding="UTF-8" standalone="no"?>
<!DOCTYPE svg PUBLIC "-//W3C//DTD SVG 1.1//EN"
 "http://www.w3.org/Graphics/SVG/1.1/DTD/svg11.dtd">
<!-- Generated by graphviz version 2.40.1 (20161225.0304)
 -->
<!-- Title: argo::conew_ Pages: 1 -->
<svg width="387pt" height="72pt"
 viewBox="0.00 0.00 387.00 71.50" xmlns="http://www.w3.org/2000/svg" xmlns:xlink="http://www.w3.org/1999/xlink">
<g id="graph0" class="graph" transform="scale(1 1) rotate(0) translate(4 67.5)">
<title>argo::conew_</title>
<polygon fill="#ffffff" stroke="transparent" points="-4,4 -4,-67.5 383,-67.5 383,4 -4,4"/>
<!-- Node0 -->
<g id="node1" class="node">
<title>Node0</title>
<polygon fill="#bfbfbf" stroke="#000000" points="0,-19.5 0,-38.5 81,-38.5 81,-19.5 0,-19.5"/>
<text text-anchor="middle" x="40.5" y="-26.5" font-family="Helvetica,sans-Serif" font-size="10.00" fill="#000000">argo::conew_</text>
</g>
<!-- Node1 -->
<g id="node2" class="node">
<title>Node1</title>
<g id="a_node2"><a xlink:href="src_2allocators_2allocators_8cpp_a4e8d23563c42daa5dfce669293d7e389.html#a4e8d23563c42daa5dfce669293d7e389" target="_top" xlink:title="basic collective allocation function, for C interface ">
<polygon fill="#ffffff" stroke="#000000" points="117,-38.5 117,-57.5 209,-57.5 209,-38.5 117,-38.5"/>
<text text-anchor="middle" x="163" y="-45.5" font-family="Helvetica,sans-Serif" font-size="10.00" fill="#000000">collective_alloc</text>
</a>
</g>
</g>
<!-- Node0&#45;&gt;Node1 -->
<g id="edge1" class="edge">
<title>Node0&#45;&gt;Node1</title>
<path fill="none" stroke="#191970" d="M81.2907,-35.3267C89.4949,-36.5992 98.2523,-37.9575 106.8734,-39.2946"/>
<polygon fill="#191970" stroke="#191970" points="106.4715,-42.7741 116.8898,-40.8482 107.5444,-35.8568 106.4715,-42.7741"/>
</g>
<!-- Node3 -->
<g id="node4" class="node">
<title>Node3</title>
<g id="a_node4"><a xlink:href="namespaceargo_a2deaaacde085d381cbb01f24318965b4.html#a2deaaacde085d381cbb01f24318965b4" target="_top" xlink:title="A unique ArgoDSM node identifier. Counting starts from 0. ">
<polygon fill="#ffffff" stroke="#000000" points="121.5,-.5 121.5,-19.5 204.5,-19.5 204.5,-.5 121.5,-.5"/>
<text text-anchor="middle" x="163" y="-7.5" font-family="Helvetica,sans-Serif" font-size="10.00" fill="#000000">argo::node_id</text>
</a>
</g>
</g>
<!-- Node0&#45;&gt;Node3 -->
<g id="edge3" class="edge">
<title>Node0&#45;&gt;Node3</title>
<path fill="none" stroke="#191970" d="M81.2907,-22.6733C90.7955,-21.1991 101.0429,-19.6097 110.9606,-18.0714"/>
<polygon fill="#191970" stroke="#191970" points="111.7862,-21.4853 121.1316,-16.4939 110.7133,-14.568 111.7862,-21.4853"/>
</g>
<!-- Node2 -->
<g id="node3" class="node">
<title>Node2</title>
<g id="a_node3"><a xlink:href="classargo_1_1allocators_1_1generic__allocator_ae0df0734076478aeaeb689cdb902497a.html#ae0df0734076478aeaeb689cdb902497a" target="_top" xlink:title="Allocate memory. ">
<polygon fill="#ffffff" stroke="#000000" points="245,-33 245,-63 379,-63 379,-33 245,-33"/>
<text text-anchor="start" x="253" y="-51" font-family="Helvetica,sans-Serif" font-size="10.00" fill="#000000">argo::allocators::generic</text>
<text text-anchor="middle" x="312" y="-40" font-family="Helvetica,sans-Serif" font-size="10.00" fill="#000000">_allocator::allocate</text>
</a>
</g>
</g>
<!-- Node1&#45;&gt;Node2 -->
<g id="edge2" class="edge">
<title>Node1&#45;&gt;Node2</title>
<path fill="none" stroke="#191970" d="M209.3278,-48C217.4328,-48 226.0595,-48 234.7363,-48"/>
<polygon fill="#191970" stroke="#191970" points="234.9168,-51.5001 244.9168,-48 234.9167,-44.5001 234.9168,-51.5001"/>
</g>
</g>
</svg>
