<?xml version="1.0" encoding="UTF-8" standalone="no"?>
<!DOCTYPE svg PUBLIC "-//W3C//DTD SVG 1.1//EN"
 "http://www.w3.org/Graphics/SVG/1.1/DTD/svg11.dtd">
<!-- Generated by graphviz version 2.40.1 (20161225.0304)
 -->
<!-- Title: argo::data_distribution::policy_padding Pages: 1 -->
<svg width="454pt" height="176pt"
 viewBox="0.00 0.00 454.00 175.50" xmlns="http://www.w3.org/2000/svg" xmlns:xlink="http://www.w3.org/1999/xlink">
<g id="graph0" class="graph" transform="scale(1 1) rotate(0) translate(4 171.5)">
<title>argo::data_distribution::policy_padding</title>
<polygon fill="#ffffff" stroke="transparent" points="-4,4 -4,-171.5 450,-171.5 450,4 -4,4"/>
<!-- Node0 -->
<g id="node1" class="node">
<title>Node0</title>
<polygon fill="#bfbfbf" stroke="#000000" points="0,-63 0,-93 127,-93 127,-63 0,-63"/>
<text text-anchor="start" x="8" y="-81" font-family="Helvetica,sans-Serif" font-size="10.00" fill="#000000">argo::data_distribution</text>
<text text-anchor="middle" x="63.5" y="-70" font-family="Helvetica,sans-Serif" font-size="10.00" fill="#000000">::policy_padding</text>
</g>
<!-- Node1 -->
<g id="node2" class="node">
<title>Node1</title>
<g id="a_node2"><a xlink:href="namespaceargo_1_1data__distribution_a1bb3f2dcecd237990e6dc67764f06860.html#a1bb3f2dcecd237990e6dc67764f06860" target="_top" xlink:title="identifies if we distribute data using a cyclic memory policy ">
<polygon fill="#ffffff" stroke="#000000" points="165,-137 165,-167 292,-167 292,-137 165,-137"/>
<text text-anchor="start" x="173" y="-155" font-family="Helvetica,sans-Serif" font-size="10.00" fill="#000000">argo::data_distribution</text>
<text text-anchor="middle" x="228.5" y="-144" font-family="Helvetica,sans-Serif" font-size="10.00" fill="#000000">::is_cyclic_policy</text>
</a>
</g>
</g>
<!-- Node0&#45;&gt;Node1 -->
<g id="edge1" class="edge">
<title>Node0&#45;&gt;Node1</title>
<path fill="none" stroke="#191970" d="M91.3987,-93.0972C111.1233,-103.5034 138.338,-117.3269 163,-128 167.1124,-129.7798 171.4043,-131.5464 175.738,-133.2665"/>
<polygon fill="#191970" stroke="#191970" points="174.649,-136.598 185.2382,-136.945 177.1766,-130.0703 174.649,-136.598"/>
</g>
<!-- Node3 -->
<g id="node4" class="node">
<title>Node3</title>
<g id="a_node4"><a xlink:href="namespaceargo_1_1env_a30775a9aa41b956df7474a2c0cc317aa.html#a30775a9aa41b956df7474a2c0cc317aa" target="_top" xlink:title="get the allocation block size requested by environment variable ">
<polygon fill="#ffffff" stroke="#000000" points="170.5,-88 170.5,-118 286.5,-118 286.5,-88 170.5,-88"/>
<text text-anchor="start" x="178.5" y="-106" font-family="Helvetica,sans-Serif" font-size="10.00" fill="#000000">argo::env::allocation</text>
<text text-anchor="middle" x="228.5" y="-95" font-family="Helvetica,sans-Serif" font-size="10.00" fill="#000000">_block_size</text>
</a>
</g>
</g>
<!-- Node0&#45;&gt;Node3 -->
<g id="edge3" class="edge">
<title>Node0&#45;&gt;Node3</title>
<path fill="none" stroke="#191970" d="M127.2933,-87.6657C138.1246,-89.3068 149.4099,-91.0167 160.3481,-92.674"/>
<polygon fill="#191970" stroke="#191970" points="159.8613,-96.1401 170.2728,-94.1777 160.91,-89.219 159.8613,-96.1401"/>
</g>
<!-- Node4 -->
<g id="node5" class="node">
<title>Node4</title>
<g id="a_node5"><a xlink:href="namespaceargo_1_1data__distribution_abb2c51a38640b8b83cab348e7d796fe5.html#abb2c51a38640b8b83cab348e7d796fe5" target="_top" xlink:title="identifies if we distribute data using the prime&#45;mapp memory policy ">
<polygon fill="#ffffff" stroke="#000000" points="165,-39 165,-69 292,-69 292,-39 165,-39"/>
<text text-anchor="start" x="173" y="-57" font-family="Helvetica,sans-Serif" font-size="10.00" fill="#000000">argo::data_distribution</text>
<text text-anchor="middle" x="228.5" y="-46" font-family="Helvetica,sans-Serif" font-size="10.00" fill="#000000">::is_prime_policy</text>
</a>
</g>
</g>
<!-- Node0&#45;&gt;Node4 -->
<g id="edge4" class="edge">
<title>Node0&#45;&gt;Node4</title>
<path fill="none" stroke="#191970" d="M127.2933,-68.721C136.3505,-67.4036 145.7253,-66.04 154.949,-64.6983"/>
<polygon fill="#191970" stroke="#191970" points="155.4843,-68.1574 164.8763,-63.2543 154.4767,-61.2303 155.4843,-68.1574"/>
</g>
<!-- Node5 -->
<g id="node6" class="node">
<title>Node5</title>
<g id="a_node6"><a xlink:href="namespaceargo_a79c9492f3fd441bfa6261dffbc0f02f4.html#a79c9492f3fd441bfa6261dffbc0f02f4" target="_top" xlink:title="Number of ArgoDSM nodes being run. ">
<polygon fill="#ffffff" stroke="#000000" points="163,-.5 163,-19.5 294,-19.5 294,-.5 163,-.5"/>
<text text-anchor="middle" x="228.5" y="-7.5" font-family="Helvetica,sans-Serif" font-size="10.00" fill="#000000">argo::number_of_nodes</text>
</a>
</g>
</g>
<!-- Node0&#45;&gt;Node5 -->
<g id="edge6" class="edge">
<title>Node0&#45;&gt;Node5</title>
<path fill="none" stroke="#191970" d="M91.7212,-62.9531C111.3638,-52.8378 138.3517,-39.6429 163,-30 169.7751,-27.3495 177.0533,-24.8234 184.2072,-22.5137"/>
<polygon fill="#191970" stroke="#191970" points="185.326,-25.8311 193.8264,-19.5069 183.2376,-19.1499 185.326,-25.8311"/>
</g>
<!-- Node2 -->
<g id="node3" class="node">
<title>Node2</title>
<g id="a_node3"><a xlink:href="namespaceargo_1_1env_a25a08cb2d0d11432d640ec7173063339.html#a25a08cb2d0d11432d640ec7173063339" target="_top" xlink:title="get the allocation policy requested by environment variable ">
<polygon fill="#ffffff" stroke="#000000" points="330,-88 330,-118 446,-118 446,-88 330,-88"/>
<text text-anchor="start" x="338" y="-106" font-family="Helvetica,sans-Serif" font-size="10.00" fill="#000000">argo::env::allocation</text>
<text text-anchor="middle" x="388" y="-95" font-family="Helvetica,sans-Serif" font-size="10.00" fill="#000000">_policy</text>
</a>
</g>
</g>
<!-- Node1&#45;&gt;Node2 -->
<g id="edge2" class="edge">
<title>Node1&#45;&gt;Node2</title>
<path fill="none" stroke="#191970" d="M277.6567,-136.8986C293.9546,-131.8917 312.2617,-126.2676 329.2095,-121.061"/>
<polygon fill="#191970" stroke="#191970" points="330.4743,-124.334 339.0056,-118.0516 328.4186,-117.6426 330.4743,-124.334"/>
</g>
<!-- Node4&#45;&gt;Node2 -->
<g id="edge5" class="edge">
<title>Node4&#45;&gt;Node2</title>
<path fill="none" stroke="#191970" d="M277.6567,-69.1014C293.9546,-74.1083 312.2617,-79.7324 329.2095,-84.939"/>
<polygon fill="#191970" stroke="#191970" points="328.4186,-88.3574 339.0056,-87.9484 330.4743,-81.666 328.4186,-88.3574"/>
</g>
</g>
</svg>
