<?xml version="1.0" encoding="UTF-8" standalone="no"?>
<!DOCTYPE svg PUBLIC "-//W3C//DTD SVG 1.1//EN"
 "http://www.w3.org/Graphics/SVG/1.1/DTD/svg11.dtd">
<!-- Generated by graphviz version 2.40.1 (20161225.0304)
 -->
<!-- Title: argo::data_distribution::policy_block_size Pages: 1 -->
<!--zoomable 311 -->
<svg id="main" version="1.1" xmlns="http://www.w3.org/2000/svg" xmlns:xlink="http://www.w3.org/1999/xlink" xml:space="preserve" onload="init(evt)">
<style type="text/css"><![CDATA[
.edge:hover path { stroke: red; }
.edge:hover polygon { stroke: red; fill: red; }
]]></style>
<script type="text/javascript"><![CDATA[
var edges = document.getElementsByTagName('g');
if (edges && edges.length) {
  for (var i=0;i<edges.length;i++) {
    if (edges[i].id.substr(0,4)=='edge') {
      edges[i].setAttribute('class','edge');
    }
  }
}
]]></script>
        <defs>
                <circle id="rim" cx="0" cy="0" r="7"/>
                <circle id="rim2" cx="0" cy="0" r="3.5"/>
                <g id="zoomPlus">
                        <use xlink:href="#rim" target="_top" fill="#404040">
                                <set attributeName="fill" to="#808080" begin="zoomplus.mouseover" end="zoomplus.mouseout"/>
                        </use>
                        <path d="M-4,0h8M0,-4v8" fill="none" stroke="white" stroke-width="1.5" pointer-events="none"/>
                </g>
                <g id="zoomMin">
                        <use xlink:href="#rim" target="_top" fill="#404040">
                                <set attributeName="fill" to="#808080" begin="zoomminus.mouseover" end="zoomminus.mouseout"/>
                        </use>
                        <path d="M-4,0h8" fill="none" stroke="white" stroke-width="1.5" pointer-events="none"/>
                </g>
                <g id="dirArrow">
                        <path fill="none" stroke="white" stroke-width="1.5" d="M0,-3.0v7 M-2.5,-0.5L0,-3.0L2.5,-0.5"/>
                </g>
               <g id="resetDef">
                       <use xlink:href="#rim2" target="_top" fill="#404040">
                               <set attributeName="fill" to="#808080" begin="reset.mouseover" end="reset.mouseout"/>
                       </use>
               </g>
        </defs>

<script type="text/javascript">
var viewWidth = 1469;
var viewHeight = 311;
var sectionId = 'dynsection-1';
</script>
<script xlink:href="svgpan.js" target="_top"/>
<svg id="graph" class="graph">
<g id="viewport">
<title>argo::data_distribution::policy_block_size</title>
<polygon fill="#ffffff" stroke="transparent" points="-4,4 -4,-307 1465,-307 1465,4 -4,4"/>
<!-- Node5 -->
<g id="node1" class="node">
<title>Node5</title>
<polygon fill="#bfbfbf" stroke="#000000" points="0,-85 0,-115 127,-115 127,-85 0,-85"/>
<text text-anchor="start" x="8" y="-103" font-family="Helvetica,sans-Serif" font-size="10.00" fill="#000000">argo::data_distribution</text>
<text text-anchor="middle" x="63.5" y="-92" font-family="Helvetica,sans-Serif" font-size="10.00" fill="#000000">::policy_block_size</text>
</g>
<!-- Node6 -->
<g id="node2" class="node">
<title>Node6</title>
<g id="a_node2"><a xlink:href="namespaceargo_a2f35b6b6e0af76fb8fb47f2031d6f58e.html#a2f35b6b6e0af76fb8fb47f2031d6f58e" target="_top" target="_top" xlink:title="Get the block size of the current allocation policy. ">
<polygon fill="#ffffff" stroke="#000000" points="163,-90.5 163,-109.5 279,-109.5 279,-90.5 163,-90.5"/>
<text text-anchor="middle" x="221" y="-97.5" font-family="Helvetica,sans-Serif" font-size="10.00" fill="#000000">argo::get_block_size</text>
</a>
</g>
</g>
<!-- Node5&#45;&gt;Node6 -->
<g id="edge1" class="edge">
<title>Node5&#45;&gt;Node6</title>
<path fill="none" stroke="#191970" d="M137.135,-100C145.7301,-100 154.4067,-100 162.7531,-100"/>
<polygon fill="#191970" stroke="#191970" points="137.1073,-96.5001 127.1073,-100 137.1073,-103.5001 137.1073,-96.5001"/>
</g>
<!-- Node7 -->
<g id="node3" class="node">
<title>Node7</title>
<g id="a_node3"><a xlink:href="argo_8h_ad0931c5341a3b07302a3a019834280f6.html#ad0931c5341a3b07302a3a019834280f6" target="_top" target="_top" xlink:title="Get the block size of the current allocation policy. ">
<polygon fill="#ffffff" stroke="#000000" points="315.5,-128.5 315.5,-147.5 431.5,-147.5 431.5,-128.5 315.5,-128.5"/>
<text text-anchor="middle" x="373.5" y="-135.5" font-family="Helvetica,sans-Serif" font-size="10.00" fill="#000000">argo_get_block_size</text>
</a>
</g>
</g>
<!-- Node6&#45;&gt;Node7 -->
<g id="edge2" class="edge">
<title>Node6&#45;&gt;Node7</title>
<path fill="none" stroke="#191970" d="M269.3184,-112.04C290.6234,-117.3488 315.3042,-123.4988 335.2945,-128.4799"/>
<polygon fill="#191970" stroke="#191970" points="270.0318,-108.6108 259.4822,-109.589 268.3392,-115.4031 270.0318,-108.6108"/>
</g>
<!-- Node8 -->
<g id="node4" class="node">
<title>Node8</title>
<g id="a_node4"><a xlink:href="namespaceargo_a48dc17c94275df10a8e7f3959cbf0191.html#a48dc17c94275df10a8e7f3959cbf0191" target="_top" target="_top" xlink:title="Get the ArgoDSM node id where addr is physically backed. ">
<polygon fill="#ffffff" stroke="#000000" points="315,-90.5 315,-109.5 432,-109.5 432,-90.5 315,-90.5"/>
<text text-anchor="middle" x="373.5" y="-97.5" font-family="Helvetica,sans-Serif" font-size="10.00" fill="#000000">argo::get_homenode</text>
</a>
</g>
</g>
<!-- Node6&#45;&gt;Node8 -->
<g id="edge3" class="edge">
<title>Node6&#45;&gt;Node8</title>
<path fill="none" stroke="#191970" d="M289.3579,-100C297.8541,-100 306.4824,-100 314.8147,-100"/>
<polygon fill="#191970" stroke="#191970" points="289.0888,-96.5001 279.0887,-100 289.0887,-103.5001 289.0888,-96.5001"/>
</g>
<!-- Node32 -->
<g id="node28" class="node">
<title>Node32</title>
<g id="a_node28"><a xlink:href="api_8cpp_a42290e9787e669eb9618124225ff8010.html#a42290e9787e669eb9618124225ff8010" target="_top" target="_top" xlink:title="Unittest that checks that argo::get_block_size() is consistent with argo::env::block_size() for all c...">
<polygon fill="#ffffff" stroke="#000000" points="348,-52.5 348,-71.5 399,-71.5 399,-52.5 348,-52.5"/>
<text text-anchor="middle" x="373.5" y="-59.5" font-family="Helvetica,sans-Serif" font-size="10.00" fill="#000000">TEST_F</text>
</a>
</g>
</g>
<!-- Node6&#45;&gt;Node32 -->
<g id="edge33" class="edge">
<title>Node6&#45;&gt;Node32</title>
<path fill="none" stroke="#191970" d="M269.2096,-87.9871C295.3224,-81.4803 326.5328,-73.7033 347.9642,-68.363"/>
<polygon fill="#191970" stroke="#191970" points="268.3392,-84.5969 259.4822,-90.411 270.0318,-91.3892 268.3392,-84.5969"/>
</g>
<!-- Node9 -->
<g id="node5" class="node">
<title>Node9</title>
<g id="a_node5"><a xlink:href="argo_8h_aa4a06a633ece5fbb94b9d8f0a6479e4c.html#aa4a06a633ece5fbb94b9d8f0a6479e4c" target="_top" target="_top" xlink:title="Get the ArgoDSM node id where addr is physically backed. ">
<polygon fill="#ffffff" stroke="#000000" points="468,-150.5 468,-169.5 584,-169.5 584,-150.5 468,-150.5"/>
<text text-anchor="middle" x="526" y="-157.5" font-family="Helvetica,sans-Serif" font-size="10.00" fill="#000000">argo_get_homenode</text>
</a>
</g>
</g>
<!-- Node8&#45;&gt;Node9 -->
<g id="edge4" class="edge">
<title>Node8&#45;&gt;Node9</title>
<path fill="none" stroke="#191970" d="M417.1454,-112.9164C422.2216,-114.7873 427.2709,-116.8237 432,-119 449.034,-126.8388 450.9759,-133.1396 468,-141 475.696,-144.5534 484.2461,-147.7414 492.3649,-150.4454"/>
<polygon fill="#191970" stroke="#191970" points="418.0226,-109.5157 407.4277,-109.5293 415.7186,-116.1257 418.0226,-109.5157"/>
</g>
<!-- Node10 -->
<g id="node6" class="node">
<title>Node10</title>
<g id="a_node6"><a xlink:href="classwrite__buffer_aa2325346aceb3e7ffdbdbdc8e8682147.html#aa2325346aceb3e7ffdbdbdc8e8682147" target="_top" target="_top" xlink:title="Sorts all elements by home node id in ascending order. ">
<polygon fill="#ffffff" stroke="#000000" points="476,-112.5 476,-131.5 576,-131.5 576,-112.5 476,-112.5"/>
<text text-anchor="middle" x="526" y="-119.5" font-family="Helvetica,sans-Serif" font-size="10.00" fill="#000000">write_buffer::sort</text>
</a>
</g>
</g>
<!-- Node8&#45;&gt;Node10 -->
<g id="edge5" class="edge">
<title>Node8&#45;&gt;Node10</title>
<path fill="none" stroke="#191970" d="M441.9564,-109.8757C453.3567,-111.5203 464.9919,-113.1988 475.8282,-114.7621"/>
<polygon fill="#191970" stroke="#191970" points="442.4217,-106.4066 432.0243,-108.4429 441.4221,-113.3349 442.4217,-106.4066"/>
</g>
<!-- Node27 -->
<g id="node23" class="node">
<title>Node27</title>
<g id="a_node23"><a xlink:href="classwrite__buffer_a9e8cf81e623c4bb67f687379f8709a53.html#a9e8cf81e623c4bb67f687379f8709a53" target="_top" target="_top" xlink:title="Sorts the first _write_back_size elements by home node id in ascending order. ">
<polygon fill="#ffffff" stroke="#000000" points="476,-63 476,-93 576,-93 576,-63 476,-63"/>
<text text-anchor="start" x="484" y="-81" font-family="Helvetica,sans-Serif" font-size="10.00" fill="#000000">write_buffer::sort</text>
<text text-anchor="middle" x="526" y="-70" font-family="Helvetica,sans-Serif" font-size="10.00" fill="#000000">_first</text>
</a>
</g>
</g>
<!-- Node8&#45;&gt;Node27 -->
<g id="edge27" class="edge">
<title>Node8&#45;&gt;Node27</title>
<path fill="none" stroke="#191970" d="M441.9564,-90.1243C453.3567,-88.4797 464.9919,-86.8012 475.8282,-85.2379"/>
<polygon fill="#191970" stroke="#191970" points="441.4221,-86.6651 432.0243,-91.5571 442.4217,-93.5934 441.4221,-86.6651"/>
</g>
<!-- Node31 -->
<g id="node27" class="node">
<title>Node31</title>
<g id="a_node27"><a xlink:href="api_8cpp_a6255f7c304a854275724ca1df48fab28.html#a6255f7c304a854275724ca1df48fab28" target="_top" target="_top" xlink:title="Unittest that checks correctness of the argo::get_homenode(T* addr) API function. ...">
<polygon fill="#ffffff" stroke="#000000" points="500.5,-24.5 500.5,-43.5 551.5,-43.5 551.5,-24.5 500.5,-24.5"/>
<text text-anchor="middle" x="526" y="-31.5" font-family="Helvetica,sans-Serif" font-size="10.00" fill="#000000">TEST_F</text>
</a>
</g>
</g>
<!-- Node8&#45;&gt;Node31 -->
<g id="edge32" class="edge">
<title>Node8&#45;&gt;Node31</title>
<path fill="none" stroke="#191970" d="M419.2453,-86.8682C423.643,-85.0955 427.9639,-83.1401 432,-81 449.9081,-71.5045 450.1039,-62.5181 468,-53 478.1035,-47.6264 490.005,-43.4052 500.3891,-40.3204"/>
<polygon fill="#191970" stroke="#191970" points="417.7325,-83.6964 409.5758,-90.4579 420.1688,-90.2587 417.7325,-83.6964"/>
</g>
<!-- Node11 -->
<g id="node7" class="node">
<title>Node11</title>
<g id="a_node7"><a xlink:href="classwrite__buffer_aca2e330e17a38c1cc8d8c60701ce9dd7.html#aca2e330e17a38c1cc8d8c60701ce9dd7" target="_top" target="_top" xlink:title="Flushes the ArgoDSM write buffer to memory. ">
<polygon fill="#ffffff" stroke="#000000" points="620,-119.5 620,-138.5 724,-138.5 724,-119.5 620,-119.5"/>
<text text-anchor="middle" x="672" y="-126.5" font-family="Helvetica,sans-Serif" font-size="10.00" fill="#000000">write_buffer::flush</text>
</a>
</g>
</g>
<!-- Node10&#45;&gt;Node11 -->
<g id="edge6" class="edge">
<title>Node10&#45;&gt;Node11</title>
<path fill="none" stroke="#191970" d="M586.2791,-124.8901C597.362,-125.4215 608.8486,-125.9722 619.6741,-126.4912"/>
<polygon fill="#191970" stroke="#191970" points="586.4011,-121.392 576.2449,-124.409 586.0658,-128.384 586.4011,-121.392"/>
</g>
<!-- Node12 -->
<g id="node8" class="node">
<title>Node12</title>
<g id="a_node8"><a xlink:href="swdsm_8h_aa7c3a2de6bbafdaf68fe6ceb6110ab97.html#aa7c3a2de6bbafdaf68fe6ceb6110ab97" target="_top" target="_top" xlink:title="Self&#45;Invalidates all memory that has potential writers. ">
<polygon fill="#ffffff" stroke="#000000" points="760.5,-133.5 760.5,-152.5 858.5,-152.5 858.5,-133.5 760.5,-133.5"/>
<text text-anchor="middle" x="809.5" y="-140.5" font-family="Helvetica,sans-Serif" font-size="10.00" fill="#000000">self_invalidation</text>
</a>
</g>
</g>
<!-- Node11&#45;&gt;Node12 -->
<g id="edge7" class="edge">
<title>Node11&#45;&gt;Node12</title>
<path fill="none" stroke="#191970" d="M734.494,-135.363C743.1954,-136.249 752.0315,-137.1487 760.4386,-138.0047"/>
<polygon fill="#191970" stroke="#191970" points="734.6782,-131.8638 724.3751,-134.3327 733.9691,-138.8278 734.6782,-131.8638"/>
</g>
<!-- Node13 -->
<g id="node9" class="node">
<title>Node13</title>
<g id="a_node9"><a xlink:href="swdsm_8h_ad3f5bdae81c60ac704dda7372792427d.html#ad3f5bdae81c60ac704dda7372792427d" target="_top" target="_top" xlink:title="Global barrier for ArgoDSM &#45; needs to be called by every thread in the system that need coherent view...">
<polygon fill="#ffffff" stroke="#000000" points="895,-95.5 895,-114.5 1011,-114.5 1011,-95.5 895,-95.5"/>
<text text-anchor="middle" x="953" y="-102.5" font-family="Helvetica,sans-Serif" font-size="10.00" fill="#000000">swdsm_argo_barrier</text>
</a>
</g>
</g>
<!-- Node11&#45;&gt;Node13 -->
<g id="edge21" class="edge">
<title>Node11&#45;&gt;Node13</title>
<path fill="none" stroke="#191970" d="M734.4382,-123.6672C782.3367,-119.5762 847.9674,-113.9708 894.7806,-109.9725"/>
<polygon fill="#191970" stroke="#191970" points="733.8612,-120.2036 724.1954,-124.542 734.457,-127.1783 733.8612,-120.2036"/>
</g>
<!-- Node25 -->
<g id="node21" class="node">
<title>Node25</title>
<g id="a_node21"><a xlink:href="swdsm_8h_ad390eb58e1be03ed6a0939fae7ebd20a.html#ad390eb58e1be03ed6a0939fae7ebd20a" target="_top" target="_top" xlink:title="Release function for ArgoDSM (Release according to Release Consistency) ">
<polygon fill="#ffffff" stroke="#000000" points="913,-227.5 913,-246.5 993,-246.5 993,-227.5 913,-227.5"/>
<text text-anchor="middle" x="953" y="-234.5" font-family="Helvetica,sans-Serif" font-size="10.00" fill="#000000">argo_release</text>
</a>
</g>
</g>
<!-- Node11&#45;&gt;Node25 -->
<g id="edge22" class="edge">
<title>Node11&#45;&gt;Node25</title>
<path fill="none" stroke="#191970" d="M706.3015,-142.1835C763.6744,-164.2343 877.7577,-208.0813 928.119,-227.4372"/>
<polygon fill="#191970" stroke="#191970" points="707.5269,-138.9049 696.9369,-138.5843 705.0155,-145.4389 707.5269,-138.9049"/>
</g>
<!-- Node12&#45;&gt;Node13 -->
<g id="edge8" class="edge">
<title>Node12&#45;&gt;Node13</title>
<path fill="none" stroke="#191970" d="M855.4735,-130.8258C875.3164,-125.5713 898.1928,-119.5134 916.8005,-114.5859"/>
<polygon fill="#191970" stroke="#191970" points="854.4819,-127.4677 845.7111,-133.411 856.2739,-134.2345 854.4819,-127.4677"/>
</g>
<!-- Node21 -->
<g id="node17" class="node">
<title>Node21</title>
<g id="a_node17"><a xlink:href="swdsm_8h_a44b8bb7a3c8b47b4f9552c8e10b25e4b.html#a44b8bb7a3c8b47b4f9552c8e10b25e4b" target="_top" target="_top" xlink:title="acquire function for ArgoDSM (Acquire according to Release Consistency) ">
<polygon fill="#ffffff" stroke="#000000" points="913,-171.5 913,-190.5 993,-190.5 993,-171.5 913,-171.5"/>
<text text-anchor="middle" x="953" y="-178.5" font-family="Helvetica,sans-Serif" font-size="10.00" fill="#000000">argo_acquire</text>
</a>
</g>
</g>
<!-- Node12&#45;&gt;Node21 -->
<g id="edge16" class="edge">
<title>Node12&#45;&gt;Node21</title>
<path fill="none" stroke="#191970" d="M855.4735,-155.1742C875.3164,-160.4287 898.1928,-166.4866 916.8005,-171.4141"/>
<polygon fill="#191970" stroke="#191970" points="856.2739,-151.7655 845.7111,-152.589 854.4819,-158.5323 856.2739,-151.7655"/>
</g>
<!-- Node14 -->
<g id="node10" class="node">
<title>Node14</title>
<g id="a_node10"><a xlink:href="backend_8hpp_af1a647431651556204709451bebb5a42.html#af1a647431651556204709451bebb5a42" target="_top" target="_top" xlink:title="a simple collective barrier ">
<polygon fill="#ffffff" stroke="#000000" points="1049,-57.5 1049,-76.5 1173,-76.5 1173,-57.5 1049,-57.5"/>
<text text-anchor="middle" x="1111" y="-64.5" font-family="Helvetica,sans-Serif" font-size="10.00" fill="#000000">argo::backend::barrier</text>
</a>
</g>
</g>
<!-- Node13&#45;&gt;Node14 -->
<g id="edge9" class="edge">
<title>Node13&#45;&gt;Node14</title>
<path fill="none" stroke="#191970" d="M1002.7616,-93.032C1024.9029,-87.7069 1050.6116,-81.5238 1071.4166,-76.5201"/>
<polygon fill="#191970" stroke="#191970" points="1001.7744,-89.6696 992.8701,-95.411 1003.4113,-96.4755 1001.7744,-89.6696"/>
</g>
<!-- Node15 -->
<g id="node11" class="node">
<title>Node15</title>
<g id="a_node11"><a xlink:href="swdsm_8h_acd175d6d8efa5cce6963bae64891a490.html#acd175d6d8efa5cce6963bae64891a490" target="_top" target="_top" xlink:title="Allocates memory in global address space. ">
<polygon fill="#ffffff" stroke="#000000" points="1069.5,-95.5 1069.5,-114.5 1152.5,-114.5 1152.5,-95.5 1069.5,-95.5"/>
<text text-anchor="middle" x="1111" y="-102.5" font-family="Helvetica,sans-Serif" font-size="10.00" fill="#000000">argo_gmalloc</text>
</a>
</g>
</g>
<!-- Node13&#45;&gt;Node15 -->
<g id="edge10" class="edge">
<title>Node13&#45;&gt;Node15</title>
<path fill="none" stroke="#191970" d="M1021.3948,-105C1037.6389,-105 1054.4922,-105 1069.14,-105"/>
<polygon fill="#191970" stroke="#191970" points="1021.3845,-101.5001 1011.3845,-105 1021.3844,-108.5001 1021.3845,-101.5001"/>
</g>
<!-- Node16 -->
<g id="node12" class="node">
<title>Node16</title>
<g id="a_node12"><a xlink:href="swdsm_8cpp_aa954d5e0bcaee69ff6e03e697bcaf68b.html#aa954d5e0bcaee69ff6e03e697bcaf68b" target="_top" target="_top" xlink:title="shut down ArgoDSM system ">
<polygon fill="#ffffff" stroke="#000000" points="1071.5,-133.5 1071.5,-152.5 1150.5,-152.5 1150.5,-133.5 1071.5,-133.5"/>
<text text-anchor="middle" x="1111" y="-140.5" font-family="Helvetica,sans-Serif" font-size="10.00" fill="#000000">argo_finalize</text>
</a>
</g>
</g>
<!-- Node13&#45;&gt;Node16 -->
<g id="edge11" class="edge">
<title>Node13&#45;&gt;Node16</title>
<path fill="none" stroke="#191970" d="M1002.7616,-116.968C1024.9029,-122.2931 1050.6116,-128.4762 1071.4166,-133.4799"/>
<polygon fill="#191970" stroke="#191970" points="1003.4113,-113.5245 992.8701,-114.589 1001.7744,-120.3304 1003.4113,-113.5245"/>
</g>
<!-- Node18 -->
<g id="node14" class="node">
<title>Node18</title>
<g id="a_node14"><a xlink:href="swdsm_8h_a0c6b51af2b87ddf7eb04aa7d4e0e836e.html#a0c6b51af2b87ddf7eb04aa7d4e0e836e" target="_top" target="_top" xlink:title="Resets current coherence. Collective function called by all threads on all nodes. ...">
<polygon fill="#ffffff" stroke="#000000" points="1049,-19.5 1049,-38.5 1173,-38.5 1173,-19.5 1049,-19.5"/>
<text text-anchor="middle" x="1111" y="-26.5" font-family="Helvetica,sans-Serif" font-size="10.00" fill="#000000">argo_reset_coherence</text>
</a>
</g>
</g>
<!-- Node13&#45;&gt;Node18 -->
<g id="edge13" class="edge">
<title>Node13&#45;&gt;Node18</title>
<path fill="none" stroke="#191970" d="M974.7121,-89.619C993.2237,-77.0583 1020.9051,-59.5546 1047,-48 1055.1604,-44.3866 1064.2019,-41.228 1072.8561,-38.5775"/>
<polygon fill="#191970" stroke="#191970" points="972.6572,-86.7845 966.4084,-95.3404 976.6289,-92.5487 972.6572,-86.7845"/>
</g>
<!-- Node17 -->
<g id="node13" class="node">
<title>Node17</title>
<g id="a_node13"><a xlink:href="swdsm_8h_a18cc89a7368e30281ea4b1d214a1b1ff.html#a18cc89a7368e30281ea4b1d214a1b1ff" target="_top" target="_top" xlink:title="Pins and registers the local thread. ">
<polygon fill="#ffffff" stroke="#000000" points="1214,-133.5 1214,-152.5 1315,-152.5 1315,-133.5 1214,-133.5"/>
<text text-anchor="middle" x="1264.5" y="-140.5" font-family="Helvetica,sans-Serif" font-size="10.00" fill="#000000">argo_pin_threads</text>
</a>
</g>
</g>
<!-- Node16&#45;&gt;Node17 -->
<g id="edge12" class="edge">
<title>Node16&#45;&gt;Node17</title>
<path fill="none" stroke="#191970" d="M1160.8002,-143C1177.7693,-143 1196.7517,-143 1213.7913,-143"/>
<polygon fill="#191970" stroke="#191970" points="1160.5301,-139.5001 1150.5301,-143 1160.53,-146.5001 1160.5301,-139.5001"/>
</g>
<!-- Node19 -->
<g id="node15" class="node">
<title>Node19</title>
<g id="a_node15"><a xlink:href="swdsm_8h_a10dca85d339ce630cf42dca685b3f6d9.html#a10dca85d339ce630cf42dca685b3f6d9" target="_top" target="_top" xlink:title="Initializes ArgoDSM runtime. ">
<polygon fill="#ffffff" stroke="#000000" points="1221.5,-.5 1221.5,-19.5 1307.5,-19.5 1307.5,-.5 1221.5,-.5"/>
<text text-anchor="middle" x="1264.5" y="-7.5" font-family="Helvetica,sans-Serif" font-size="10.00" fill="#000000">argo_initialize</text>
</a>
</g>
</g>
<!-- Node18&#45;&gt;Node19 -->
<g id="edge14" class="edge">
<title>Node18&#45;&gt;Node19</title>
<path fill="none" stroke="#191970" d="M1183.7126,-19.9997C1196.6043,-18.404 1209.6483,-16.7895 1221.3843,-15.3368"/>
<polygon fill="#191970" stroke="#191970" points="1182.9286,-16.57 1173.4343,-21.272 1183.7886,-23.517 1182.9286,-16.57"/>
</g>
<!-- Node20 -->
<g id="node16" class="node">
<title>Node20</title>
<g id="a_node16"><a xlink:href="backend_8hpp_af0d80a03a17a374c10d9635ddf81e261.html#af0d80a03a17a374c10d9635ddf81e261" target="_top" target="_top" xlink:title="initialize backend ">
<polygon fill="#ffffff" stroke="#000000" points="1354,-.5 1354,-19.5 1461,-19.5 1461,-.5 1354,-.5"/>
<text text-anchor="middle" x="1407.5" y="-7.5" font-family="Helvetica,sans-Serif" font-size="10.00" fill="#000000">argo::backend::init</text>
</a>
</g>
</g>
<!-- Node19&#45;&gt;Node20 -->
<g id="edge15" class="edge">
<title>Node19&#45;&gt;Node20</title>
<path fill="none" stroke="#191970" d="M1317.933,-10C1329.7171,-10 1342.2019,-10 1353.9891,-10"/>
<polygon fill="#191970" stroke="#191970" points="1317.7928,-6.5001 1307.7928,-10 1317.7927,-13.5001 1317.7928,-6.5001"/>
</g>
<!-- Node22 -->
<g id="node18" class="node">
<title>Node22</title>
<g id="a_node18"><a xlink:href="backend_8hpp_a1032f833666c3f810ac1c6210197d426.html#a1032f833666c3f810ac1c6210197d426" target="_top" target="_top" xlink:title="causes a node to self&#45;invalidate its cache, and thus getting any updated values on subsequent accesse...">
<polygon fill="#ffffff" stroke="#000000" points="1047,-171.5 1047,-190.5 1175,-190.5 1175,-171.5 1047,-171.5"/>
<text text-anchor="middle" x="1111" y="-178.5" font-family="Helvetica,sans-Serif" font-size="10.00" fill="#000000">argo::backend::acquire</text>
</a>
</g>
</g>
<!-- Node21&#45;&gt;Node22 -->
<g id="edge17" class="edge">
<title>Node21&#45;&gt;Node22</title>
<path fill="none" stroke="#191970" d="M1003.5231,-181C1017.3033,-181 1032.4182,-181 1046.8475,-181"/>
<polygon fill="#191970" stroke="#191970" points="1003.2789,-177.5001 993.2789,-181 1003.2789,-184.5001 1003.2789,-177.5001"/>
</g>
<!-- Node24 -->
<g id="node20" class="node">
<title>Node24</title>
<g id="a_node20"><a xlink:href="swdsm_8h_ac0b665f72bc2a28dc663ed204c526e1b.html#ac0b665f72bc2a28dc663ed204c526e1b" target="_top" target="_top" xlink:title="acquire&#45;release function for ArgoDSM (Both acquire and release according to Release Consistency) ...">
<polygon fill="#ffffff" stroke="#000000" points="1071.5,-227.5 1071.5,-246.5 1150.5,-246.5 1150.5,-227.5 1071.5,-227.5"/>
<text text-anchor="middle" x="1111" y="-234.5" font-family="Helvetica,sans-Serif" font-size="10.00" fill="#000000">argo_acq_rel</text>
</a>
</g>
</g>
<!-- Node21&#45;&gt;Node24 -->
<g id="edge20" class="edge">
<title>Node21&#45;&gt;Node24</title>
<path fill="none" stroke="#191970" d="M985.0594,-194.4143C1003.1124,-201.7667 1026.1538,-210.8179 1047,-218 1056.6433,-221.3224 1067.2193,-224.6057 1076.9473,-227.4843"/>
<polygon fill="#191970" stroke="#191970" points="986.1688,-191.0863 975.5888,-190.527 983.5108,-197.5621 986.1688,-191.0863"/>
</g>
<!-- Node22&#45;&gt;Node22 -->
<g id="edge18" class="edge">
<title>Node22&#45;&gt;Node22</title>
<path fill="none" stroke="#191970" d="M1082.6275,-199.6539C1083.8135,-204.9368 1093.271,-209 1111,-209 1138.0156,-209 1145.8248,-199.5653 1134.4276,-190.7571"/>
<polygon fill="#191970" stroke="#191970" points="1085.7735,-201.1981 1087.5724,-190.7571 1079.6551,-197.7974 1085.7735,-201.1981"/>
</g>
<!-- Node23 -->
<g id="node19" class="node">
<title>Node23</title>
<g id="a_node19"><a xlink:href="singlenode_8cpp_aab3cabb3e1c0b9696b339416b684f78c.html#aab3cabb3e1c0b9696b339416b684f78c" target="_top" target="_top" xlink:title="argo::backend::init">
<polygon fill="#ffffff" stroke="#000000" points="1211,-218.5 1211,-237.5 1318,-237.5 1318,-218.5 1211,-218.5"/>
<text text-anchor="middle" x="1264.5" y="-225.5" font-family="Helvetica,sans-Serif" font-size="10.00" fill="#000000">argo::backend::init</text>
</a>
</g>
</g>
<!-- Node22&#45;&gt;Node23 -->
<g id="edge19" class="edge">
<title>Node22&#45;&gt;Node23</title>
<path fill="none" stroke="#191970" d="M1151.8303,-193.5018C1177.3583,-201.3182 1209.7319,-211.2306 1233.2201,-218.4224"/>
<polygon fill="#191970" stroke="#191970" points="1152.6496,-190.0923 1142.063,-190.5112 1150.6001,-196.7856 1152.6496,-190.0923"/>
</g>
<!-- Node25&#45;&gt;Node24 -->
<g id="edge26" class="edge">
<title>Node25&#45;&gt;Node24</title>
<path fill="none" stroke="#191970" d="M1003.4252,-237C1025.3886,-237 1050.7577,-237 1071.3418,-237"/>
<polygon fill="#191970" stroke="#191970" points="1003.2789,-233.5001 993.2789,-237 1003.2788,-240.5001 1003.2789,-233.5001"/>
</g>
<!-- Node26 -->
<g id="node22" class="node">
<title>Node26</title>
<g id="a_node22"><a xlink:href="backend_8hpp_a8953c9cd9d3c56306740b6c9b97513a2.html#a8953c9cd9d3c56306740b6c9b97513a2" target="_top" target="_top" xlink:title="causes a node to self&#45;downgrade its cache, making all previous writes to be propagated to the homenod...">
<polygon fill="#ffffff" stroke="#000000" points="1047,-265.5 1047,-284.5 1175,-284.5 1175,-265.5 1047,-265.5"/>
<text text-anchor="middle" x="1111" y="-272.5" font-family="Helvetica,sans-Serif" font-size="10.00" fill="#000000">argo::backend::release</text>
</a>
</g>
</g>
<!-- Node25&#45;&gt;Node26 -->
<g id="edge23" class="edge">
<title>Node25&#45;&gt;Node26</title>
<path fill="none" stroke="#191970" d="M1002.7616,-248.968C1024.9029,-254.2931 1050.6116,-260.4762 1071.4166,-265.4799"/>
<polygon fill="#191970" stroke="#191970" points="1003.4113,-245.5245 992.8701,-246.589 1001.7744,-252.3304 1003.4113,-245.5245"/>
</g>
<!-- Node26&#45;&gt;Node23 -->
<g id="edge25" class="edge">
<title>Node26&#45;&gt;Node23</title>
<path fill="none" stroke="#191970" d="M1153.2842,-262.5419C1160.5336,-260.3789 1167.9877,-258.1377 1175,-256 1194.7781,-249.9708 1216.9594,-243.0326 1234.2918,-237.5712"/>
<polygon fill="#191970" stroke="#191970" points="1152.1735,-259.2207 1143.5861,-265.4261 1154.1689,-265.9302 1152.1735,-259.2207"/>
</g>
<!-- Node26&#45;&gt;Node26 -->
<g id="edge24" class="edge">
<title>Node26&#45;&gt;Node26</title>
<path fill="none" stroke="#191970" d="M1082.6275,-293.6539C1083.8135,-298.9368 1093.271,-303 1111,-303 1138.0156,-303 1145.8248,-293.5653 1134.4276,-284.7571"/>
<polygon fill="#191970" stroke="#191970" points="1085.7735,-295.1981 1087.5724,-284.7571 1079.6551,-291.7974 1085.7735,-295.1981"/>
</g>
<!-- Node28 -->
<g id="node24" class="node">
<title>Node28</title>
<g id="a_node24"><a xlink:href="classwrite__buffer_aa6a1c2c3aa3a7cde744bbca3b14f599a.html#aa6a1c2c3aa3a7cde744bbca3b14f599a" target="_top" target="_top" xlink:title="Flushes first _write_back_size elements of the ArgoDSM write buffer to memory. ">
<polygon fill="#ffffff" stroke="#000000" points="620,-57 620,-87 724,-87 724,-57 620,-57"/>
<text text-anchor="start" x="628" y="-75" font-family="Helvetica,sans-Serif" font-size="10.00" fill="#000000">write_buffer::flush</text>
<text text-anchor="middle" x="672" y="-64" font-family="Helvetica,sans-Serif" font-size="10.00" fill="#000000">_partial</text>
</a>
</g>
</g>
<!-- Node27&#45;&gt;Node28 -->
<g id="edge28" class="edge">
<title>Node27&#45;&gt;Node28</title>
<path fill="none" stroke="#191970" d="M586.2791,-75.5228C597.362,-75.0673 608.8486,-74.5953 619.6741,-74.1504"/>
<polygon fill="#191970" stroke="#191970" points="586.0927,-72.0274 576.2449,-75.9351 586.3802,-79.0215 586.0927,-72.0274"/>
</g>
<!-- Node29 -->
<g id="node25" class="node">
<title>Node29</title>
<g id="a_node25"><a xlink:href="classwrite__buffer_a23b0dbc463111cacbbf83b267e76ac9f.html#a23b0dbc463111cacbbf83b267e76ac9f" target="_top" target="_top" xlink:title="Adds a new element to the write buffer. ">
<polygon fill="#ffffff" stroke="#000000" points="760,-46.5 760,-65.5 859,-65.5 859,-46.5 760,-46.5"/>
<text text-anchor="middle" x="809.5" y="-53.5" font-family="Helvetica,sans-Serif" font-size="10.00" fill="#000000">write_buffer::add</text>
</a>
</g>
</g>
<!-- Node28&#45;&gt;Node29 -->
<g id="edge29" class="edge">
<title>Node28&#45;&gt;Node29</title>
<path fill="none" stroke="#191970" d="M734.3631,-64.7432C742.9515,-63.7438 751.6741,-62.7288 759.9884,-61.7614"/>
<polygon fill="#191970" stroke="#191970" points="733.9035,-61.273 724.3751,-65.9054 734.7127,-68.2261 733.9035,-61.273"/>
</g>
<!-- Node30 -->
<g id="node26" class="node">
<title>Node30</title>
<g id="a_node26"><a xlink:href="swdsm_8h_a8b00f264b792522b179fbc9c818187bd.html#a8b00f264b792522b179fbc9c818187bd" target="_top" target="_top" xlink:title="Catches memory accesses to memory not yet cached in ArgoDSM. Launches remote requests for memory not ...">
<polygon fill="#ffffff" stroke="#000000" points="926.5,-19.5 926.5,-38.5 979.5,-38.5 979.5,-19.5 926.5,-19.5"/>
<text text-anchor="middle" x="953" y="-26.5" font-family="Helvetica,sans-Serif" font-size="10.00" fill="#000000">handler</text>
</a>
</g>
</g>
<!-- Node29&#45;&gt;Node30 -->
<g id="edge30" class="edge">
<title>Node29&#45;&gt;Node30</title>
<path fill="none" stroke="#191970" d="M869.2136,-44.7647C889.0735,-41.028 910.1999,-37.053 926.2703,-34.0293"/>
<polygon fill="#191970" stroke="#191970" points="868.467,-41.3437 859.2866,-46.6325 869.7614,-48.223 868.467,-41.3437"/>
</g>
<!-- Node30&#45;&gt;Node19 -->
<g id="edge31" class="edge">
<title>Node30&#45;&gt;Node19</title>
<path fill="none" stroke="#191970" d="M989.7477,-19.8035C1007.0045,-15.9416 1027.9301,-11.908 1047,-10 1107.3044,-3.9664 1177.4855,-5.4984 1221.455,-7.481"/>
<polygon fill="#191970" stroke="#191970" points="988.4816,-16.5037 979.5263,-22.1653 990.0576,-23.324 988.4816,-16.5037"/>
</g>
</g>
</svg>
        <g id="navigator" transform="translate(0 0)" fill="#404254">
                <rect fill="#f2f5e9" fill-opacity="0.5" stroke="#606060" stroke-width=".5" x="0" y="0" width="60" height="60"/>
                <use id="zoomplus" xlink:href="#zoomPlus" target="_top" x="17" y="9" onmousedown="handleZoom(evt,'in')"/>
                <use id="zoomminus" xlink:href="#zoomMin" target="_top" x="42" y="9" onmousedown="handleZoom(evt,'out')"/>
                <use id="reset" xlink:href="#resetDef" target="_top" x="30" y="36" onmousedown="handleReset()"/>
                <g id="arrowUp" xlink:href="#dirArrow" target="_top" transform="translate(30 24)" onmousedown="handlePan(0,-1)">
                  <use xlink:href="#rim" target="_top" fill="#404040">
                        <set attributeName="fill" to="#808080" begin="arrowUp.mouseover" end="arrowUp.mouseout"/>
                  </use>
                  <path fill="none" stroke="white" stroke-width="1.5" d="M0,-3.0v7 M-2.5,-0.5L0,-3.0L2.5,-0.5"/>
                </g>
                <g id="arrowRight" xlink:href="#dirArrow" target="_top" transform="rotate(90) translate(36 -43)" onmousedown="handlePan(1,0)">
                  <use xlink:href="#rim" target="_top" fill="#404040">
                        <set attributeName="fill" to="#808080" begin="arrowRight.mouseover" end="arrowRight.mouseout"/>
                  </use>
                  <path fill="none" stroke="white" stroke-width="1.5" d="M0,-3.0v7 M-2.5,-0.5L0,-3.0L2.5,-0.5"/>
                </g>
                <g id="arrowDown" xlink:href="#dirArrow" target="_top" transform="rotate(180) translate(-30 -48)" onmousedown="handlePan(0,1)">
                  <use xlink:href="#rim" target="_top" fill="#404040">
                        <set attributeName="fill" to="#808080" begin="arrowDown.mouseover" end="arrowDown.mouseout"/>
                  </use>
                  <path fill="none" stroke="white" stroke-width="1.5" d="M0,-3.0v7 M-2.5,-0.5L0,-3.0L2.5,-0.5"/>
                </g>
                <g id="arrowLeft" xlink:href="#dirArrow" target="_top" transform="rotate(270) translate(-36 17)" onmousedown="handlePan(-1,0)">
                  <use xlink:href="#rim" target="_top" fill="#404040">
                        <set attributeName="fill" to="#808080" begin="arrowLeft.mouseover" end="arrowLeft.mouseout"/>
                  </use>
                  <path fill="none" stroke="white" stroke-width="1.5" d="M0,-3.0v7 M-2.5,-0.5L0,-3.0L2.5,-0.5"/>
                </g>
        </g>
        <svg viewBox="0 0 15 15" width="100%" height="30px" preserveAspectRatio="xMaxYMin meet">
         <g id="arrow_out" transform="scale(0.3 0.3)">
          <a xlink:href="namespaceargo_1_1data__distribution_a2a70ed49553953957c3a28aa755d7ac8_a2a70ed49553953957c3a28aa755d7ac8_icgraph_org.svg" target="_top" target="_base">
           <rect id="button" ry="5" rx="5" y="6" x="6" height="38" width="38"
                fill="#f2f5e9" fill-opacity="0.5" stroke="#606060" stroke-width="1.0"/>
           <path id="arrow"
             d="M 11.500037,31.436501 C 11.940474,20.09759 22.043105,11.32322 32.158766,21.979434 L 37.068811,17.246167 C 37.068811,17.246167 37.088388,32 37.088388,32 L 22.160133,31.978069 C 22.160133,31.978069 26.997745,27.140456 26.997745,27.140456 C 18.528582,18.264221 13.291696,25.230495 11.500037,31.436501 z"
             style="fill:#404040;"/>
          </a>
         </g>
        </svg>
</svg>
