<?xml version="1.0" encoding="UTF-8" standalone="no"?>
<!DOCTYPE svg PUBLIC "-//W3C//DTD SVG 1.1//EN"
 "http://www.w3.org/Graphics/SVG/1.1/DTD/svg11.dtd">
<!-- Generated by graphviz version 2.40.1 (20161225.0304)
 -->
<!-- Title: argo::mempools::synchronize&lt; NODE_ZERO_ONLY &gt; Pages: 1 -->
<svg width="303pt" height="66pt"
 viewBox="0.00 0.00 303.00 66.00" xmlns="http://www.w3.org/2000/svg" xmlns:xlink="http://www.w3.org/1999/xlink">
<g id="graph0" class="graph" transform="scale(1 1) rotate(0) translate(4 62)">
<title>argo::mempools::synchronize&lt; NODE_ZERO_ONLY &gt;</title>
<polygon fill="#ffffff" stroke="transparent" points="-4,4 -4,-62 299,-62 299,4 -4,4"/>
<!-- Node0 -->
<g id="node1" class="node">
<title>Node0</title>
<polygon fill="#bfbfbf" stroke="#000000" points="0,-14 0,-44 161,-44 161,-14 0,-14"/>
<text text-anchor="start" x="8" y="-32" font-family="Helvetica,sans-Serif" font-size="10.00" fill="#000000">argo::mempools::synchronize</text>
<text text-anchor="middle" x="80.5" y="-21" font-family="Helvetica,sans-Serif" font-size="10.00" fill="#000000">&lt; NODE_ZERO_ONLY &gt;</text>
</g>
<!-- Node1 -->
<g id="node2" class="node">
<title>Node1</title>
<g id="a_node2"><a xlink:href="explicit__instantiations_8inc_8cpp_a073931f253ee8178898e6a8446031f9a.html#a073931f253ee8178898e6a8446031f9a" target="_top" xlink:title="explicit instantiation for pointers to raw memory ">
<polygon fill="#ffffff" stroke="#000000" points="213.5,-38.5 213.5,-57.5 278.5,-57.5 278.5,-38.5 213.5,-38.5"/>
<text text-anchor="middle" x="246" y="-45.5" font-family="Helvetica,sans-Serif" font-size="10.00" fill="#000000">broadcast</text>
</a>
</g>
</g>
<!-- Node0&#45;&gt;Node1 -->
<g id="edge1" class="edge">
<title>Node0&#45;&gt;Node1</title>
<path fill="none" stroke="#191970" d="M161.3107,-38.2774C175.67,-39.9259 190.1072,-41.5833 202.8916,-43.051"/>
<polygon fill="#191970" stroke="#191970" points="202.8697,-46.5714 213.2036,-44.2349 203.6681,-39.6171 202.8697,-46.5714"/>
</g>
<!-- Node2 -->
<g id="node3" class="node">
<title>Node2</title>
<g id="a_node3"><a xlink:href="namespaceargo_a2b6b342c320b2a608d317a328fc46d83.html#a2b6b342c320b2a608d317a328fc46d83" target="_top" xlink:title="Size of memory which is the portion of memory owned by this node. ">
<polygon fill="#ffffff" stroke="#000000" points="197,-.5 197,-19.5 295,-19.5 295,-.5 197,-.5"/>
<text text-anchor="middle" x="246" y="-7.5" font-family="Helvetica,sans-Serif" font-size="10.00" fill="#000000">argo::chunk_size</text>
</a>
</g>
</g>
<!-- Node0&#45;&gt;Node2 -->
<g id="edge2" class="edge">
<title>Node0&#45;&gt;Node2</title>
<path fill="none" stroke="#191970" d="M161.3107,-19.7226C169.9442,-18.7315 178.6059,-17.7371 186.9196,-16.7826"/>
<polygon fill="#191970" stroke="#191970" points="187.327,-20.259 196.8626,-15.6412 186.5286,-13.3046 187.327,-20.259"/>
</g>
</g>
</svg>
