<?xml version="1.0" encoding="UTF-8" standalone="no"?>
<!DOCTYPE svg PUBLIC "-//W3C//DTD SVG 1.1//EN"
 "http://www.w3.org/Graphics/SVG/1.1/DTD/svg11.dtd">
<!-- Generated by graphviz version 2.40.1 (20161225.0304)
 -->
<!-- Title: TEST_F Pages: 1 -->
<svg width="393pt" height="126pt"
 viewBox="0.00 0.00 393.00 125.74" xmlns="http://www.w3.org/2000/svg" xmlns:xlink="http://www.w3.org/1999/xlink">
<g id="graph0" class="graph" transform="scale(1 1) rotate(0) translate(4 121.7388)">
<title>TEST_F</title>
<polygon fill="#ffffff" stroke="transparent" points="-4,4 -4,-121.7388 389,-121.7388 389,4 -4,4"/>
<!-- Node0 -->
<g id="node1" class="node">
<title>Node0</title>
<polygon fill="#bfbfbf" stroke="#000000" points="0,-57.5 0,-76.5 51,-76.5 51,-57.5 0,-57.5"/>
<text text-anchor="middle" x="25.5" y="-64.5" font-family="Helvetica,sans-Serif" font-size="10.00" fill="#000000">TEST_F</text>
</g>
<!-- Node1 -->
<g id="node2" class="node">
<title>Node1</title>
<g id="a_node2"><a xlink:href="namespaceargo_a2deaaacde085d381cbb01f24318965b4.html#a2deaaacde085d381cbb01f24318965b4" target="_top" xlink:title="A unique ArgoDSM node identifier. Counting starts from 0. ">
<polygon fill="#ffffff" stroke="#000000" points="278,-95.5 278,-114.5 361,-114.5 361,-95.5 278,-95.5"/>
<text text-anchor="middle" x="319.5" y="-102.5" font-family="Helvetica,sans-Serif" font-size="10.00" fill="#000000">argo::node_id</text>
</a>
</g>
</g>
<!-- Node0&#45;&gt;Node1 -->
<g id="edge1" class="edge">
<title>Node0&#45;&gt;Node1</title>
<path fill="none" stroke="#191970" d="M36.8095,-76.7088C48.4886,-86.0414 67.6827,-99.5135 87,-105 147.2306,-122.1068 219.8328,-118.4825 267.7003,-112.9696"/>
<polygon fill="#191970" stroke="#191970" points="268.3212,-116.4198 277.8229,-111.733 267.4723,-109.4715 268.3212,-116.4198"/>
</g>
<!-- Node2 -->
<g id="node3" class="node">
<title>Node2</title>
<g id="a_node3"><a xlink:href="argo_8cpp_ac15daccc12e056745f7a476832db112b.html#ac15daccc12e056745f7a476832db112b" target="_top" xlink:title="A unique ArgoDSM node identifier. Counting starts from 0. ">
<polygon fill="#ffffff" stroke="#000000" points="111.5,-76.5 111.5,-95.5 193.5,-95.5 193.5,-76.5 111.5,-76.5"/>
<text text-anchor="middle" x="152.5" y="-83.5" font-family="Helvetica,sans-Serif" font-size="10.00" fill="#000000">argo_node_id</text>
</a>
</g>
</g>
<!-- Node0&#45;&gt;Node2 -->
<g id="edge2" class="edge">
<title>Node0&#45;&gt;Node2</title>
<path fill="none" stroke="#191970" d="M51.2003,-70.8449C65.6205,-73.0023 84.1296,-75.7714 101.3724,-78.351"/>
<polygon fill="#191970" stroke="#191970" points="100.9302,-81.8237 111.338,-79.8419 101.966,-74.9007 100.9302,-81.8237"/>
</g>
<!-- Node3 -->
<g id="node4" class="node">
<title>Node3</title>
<g id="a_node4"><a xlink:href="argo_8cpp_a9c392c7a4d9dd9c0e57814debefd9733.html#a9c392c7a4d9dd9c0e57814debefd9733" target="_top" xlink:title="Number of ArgoDSM nodes being run. ">
<polygon fill="#ffffff" stroke="#000000" points="87,-38.5 87,-57.5 218,-57.5 218,-38.5 87,-38.5"/>
<text text-anchor="middle" x="152.5" y="-45.5" font-family="Helvetica,sans-Serif" font-size="10.00" fill="#000000">argo_number_of_nodes</text>
</a>
</g>
</g>
<!-- Node0&#45;&gt;Node3 -->
<g id="edge4" class="edge">
<title>Node0&#45;&gt;Node3</title>
<path fill="none" stroke="#191970" d="M51.2003,-63.1551C59.4087,-61.927 68.942,-60.5008 78.8125,-59.0241"/>
<polygon fill="#191970" stroke="#191970" points="79.3867,-62.4773 88.7587,-57.5361 78.3509,-55.5543 79.3867,-62.4773"/>
</g>
<!-- Node5 -->
<g id="node6" class="node">
<title>Node5</title>
<g id="a_node6"><a xlink:href="namespaceargo_a10bae1e1e60ff583384b937201a87c29.html#a10bae1e1e60ff583384b937201a87c29" target="_top" xlink:title="a barrier for threads ">
<polygon fill="#ffffff" stroke="#000000" points="114,-.5 114,-19.5 191,-19.5 191,-.5 114,-.5"/>
<text text-anchor="middle" x="152.5" y="-7.5" font-family="Helvetica,sans-Serif" font-size="10.00" fill="#000000">argo::barrier</text>
</a>
</g>
</g>
<!-- Node0&#45;&gt;Node5 -->
<g id="edge6" class="edge">
<title>Node0&#45;&gt;Node5</title>
<path fill="none" stroke="#191970" d="M38.5966,-57.4453C50.6678,-49.0022 69.335,-36.8442 87,-29 92.4073,-26.5989 98.1992,-24.4112 104.0195,-22.4452"/>
<polygon fill="#191970" stroke="#191970" points="105.3065,-25.7088 113.7787,-19.3471 103.1884,-19.0369 105.3065,-25.7088"/>
</g>
<!-- Node2&#45;&gt;Node1 -->
<g id="edge3" class="edge">
<title>Node2&#45;&gt;Node1</title>
<path fill="none" stroke="#191970" d="M193.7809,-90.6966C216.0775,-93.2334 243.8242,-96.3902 267.5743,-99.0923"/>
<polygon fill="#191970" stroke="#191970" points="267.4933,-102.6056 277.8249,-100.2585 268.2847,-95.6504 267.4933,-102.6056"/>
</g>
<!-- Node4 -->
<g id="node5" class="node">
<title>Node4</title>
<g id="a_node5"><a xlink:href="namespaceargo_a79c9492f3fd441bfa6261dffbc0f02f4.html#a79c9492f3fd441bfa6261dffbc0f02f4" target="_top" xlink:title="Number of ArgoDSM nodes being run. ">
<polygon fill="#ffffff" stroke="#000000" points="254,-38.5 254,-57.5 385,-57.5 385,-38.5 254,-38.5"/>
<text text-anchor="middle" x="319.5" y="-45.5" font-family="Helvetica,sans-Serif" font-size="10.00" fill="#000000">argo::number_of_nodes</text>
</a>
</g>
</g>
<!-- Node3&#45;&gt;Node4 -->
<g id="edge5" class="edge">
<title>Node3&#45;&gt;Node4</title>
<path fill="none" stroke="#191970" d="M218.0235,-48C226.496,-48 235.2278,-48 243.8471,-48"/>
<polygon fill="#191970" stroke="#191970" points="243.8914,-51.5001 253.8913,-48 243.8913,-44.5001 243.8914,-51.5001"/>
</g>
</g>
</svg>
