<?xml version="1.0" encoding="UTF-8" standalone="no"?>
<!DOCTYPE svg PUBLIC "-//W3C//DTD SVG 1.1//EN"
 "http://www.w3.org/Graphics/SVG/1.1/DTD/svg11.dtd">
<!-- Generated by graphviz version 2.40.1 (20161225.0304)
 -->
<!-- Title: /home/atmerhannah/argodsm/src/virtual_memory/shm.cpp Pages: 1 -->
<svg width="1071pt" height="151pt"
 viewBox="0.00 0.00 1070.50 151.00" xmlns="http://www.w3.org/2000/svg" xmlns:xlink="http://www.w3.org/1999/xlink">
<g id="graph0" class="graph" transform="scale(1 1) rotate(0) translate(4 147)">
<title>/home/atmerhannah/argodsm/src/virtual_memory/shm.cpp</title>
<polygon fill="#ffffff" stroke="transparent" points="-4,4 -4,-147 1066.5,-147 1066.5,4 -4,4"/>
<!-- Node0 -->
<g id="node1" class="node">
<title>Node0</title>
<polygon fill="#bfbfbf" stroke="#000000" points="367,-112.5 367,-142.5 528,-142.5 528,-112.5 367,-112.5"/>
<text text-anchor="start" x="375" y="-130.5" font-family="Helvetica,sans-Serif" font-size="10.00" fill="#000000">/home/atmerhannah/argodsm</text>
<text text-anchor="middle" x="447.5" y="-119.5" font-family="Helvetica,sans-Serif" font-size="10.00" fill="#000000">/src/virtual_memory/shm.cpp</text>
</g>
<!-- Node1 -->
<g id="node2" class="node">
<title>Node1</title>
<polygon fill="#ffffff" stroke="#bfbfbf" points="0,-56.5 0,-75.5 47,-75.5 47,-56.5 0,-56.5"/>
<text text-anchor="middle" x="23.5" y="-63.5" font-family="Helvetica,sans-Serif" font-size="10.00" fill="#000000">cerrno</text>
</g>
<!-- Node0&#45;&gt;Node1 -->
<g id="edge1" class="edge">
<title>Node0&#45;&gt;Node1</title>
<path fill="none" stroke="#191970" d="M366.715,-120.7438C289.4386,-113.3978 169.6006,-99.7018 56.9977,-75.795"/>
<polygon fill="#191970" stroke="#191970" points="57.6845,-72.3627 47.1717,-73.6785 56.2105,-79.2058 57.6845,-72.3627"/>
</g>
<!-- Node2 -->
<g id="node3" class="node">
<title>Node2</title>
<polygon fill="#ffffff" stroke="#bfbfbf" points="65,-56.5 65,-75.5 118,-75.5 118,-56.5 65,-56.5"/>
<text text-anchor="middle" x="91.5" y="-63.5" font-family="Helvetica,sans-Serif" font-size="10.00" fill="#000000">cstddef</text>
</g>
<!-- Node0&#45;&gt;Node2 -->
<g id="edge2" class="edge">
<title>Node0&#45;&gt;Node2</title>
<path fill="none" stroke="#191970" d="M366.8126,-117.0506C304.1743,-108.3528 215.0294,-94.6991 127.938,-75.8963"/>
<polygon fill="#191970" stroke="#191970" points="128.6701,-72.4738 118.1537,-73.76 127.1769,-79.3127 128.6701,-72.4738"/>
</g>
<!-- Node3 -->
<g id="node4" class="node">
<title>Node3</title>
<polygon fill="#ffffff" stroke="#bfbfbf" points="136,-56.5 136,-75.5 185,-75.5 185,-56.5 136,-56.5"/>
<text text-anchor="middle" x="160.5" y="-63.5" font-family="Helvetica,sans-Serif" font-size="10.00" fill="#000000">cstdlib</text>
</g>
<!-- Node0&#45;&gt;Node3 -->
<g id="edge3" class="edge">
<title>Node0&#45;&gt;Node3</title>
<path fill="none" stroke="#191970" d="M366.7775,-112.8868C319.3337,-103.8707 258.0361,-91.4878 195.0307,-75.9775"/>
<polygon fill="#191970" stroke="#191970" points="195.8646,-72.5783 185.3157,-73.5641 194.1769,-79.3719 195.8646,-72.5783"/>
</g>
<!-- Node4 -->
<g id="node5" class="node">
<title>Node4</title>
<polygon fill="#ffffff" stroke="#bfbfbf" points="203,-56.5 203,-75.5 250,-75.5 250,-56.5 203,-56.5"/>
<text text-anchor="middle" x="226.5" y="-63.5" font-family="Helvetica,sans-Serif" font-size="10.00" fill="#000000">fcntl.h</text>
</g>
<!-- Node0&#45;&gt;Node4 -->
<g id="edge4" class="edge">
<title>Node0&#45;&gt;Node4</title>
<path fill="none" stroke="#191970" d="M391.0376,-112.4573C355.9105,-103.0007 309.5778,-90.3515 259.9125,-76.068"/>
<polygon fill="#191970" stroke="#191970" points="260.8488,-72.6954 250.2704,-73.2864 258.9084,-79.4212 260.8488,-72.6954"/>
</g>
<!-- Node5 -->
<g id="node6" class="node">
<title>Node5</title>
<polygon fill="#ffffff" stroke="#bfbfbf" points="268.5,-56.5 268.5,-75.5 328.5,-75.5 328.5,-56.5 268.5,-56.5"/>
<text text-anchor="middle" x="298.5" y="-63.5" font-family="Helvetica,sans-Serif" font-size="10.00" fill="#000000">iostream</text>
</g>
<!-- Node0&#45;&gt;Node5 -->
<g id="edge5" class="edge">
<title>Node0&#45;&gt;Node5</title>
<path fill="none" stroke="#191970" d="M411.0505,-112.4554C386.6256,-102.374 354.7419,-89.2139 331.1479,-79.4755"/>
<polygon fill="#191970" stroke="#191970" points="332.1687,-76.1104 321.5897,-75.5303 329.4979,-82.5809 332.1687,-76.1104"/>
</g>
<!-- Node6 -->
<g id="node7" class="node">
<title>Node6</title>
<polygon fill="#ffffff" stroke="#bfbfbf" points="346.5,-56.5 346.5,-75.5 390.5,-75.5 390.5,-56.5 346.5,-56.5"/>
<text text-anchor="middle" x="368.5" y="-63.5" font-family="Helvetica,sans-Serif" font-size="10.00" fill="#000000">string</text>
</g>
<!-- Node0&#45;&gt;Node6 -->
<g id="edge6" class="edge">
<title>Node0&#45;&gt;Node6</title>
<path fill="none" stroke="#191970" d="M427.9719,-112.2977C416.2063,-103.1384 401.2325,-91.4816 389.2535,-82.1562"/>
<polygon fill="#191970" stroke="#191970" points="391.1898,-79.228 381.1489,-75.8469 386.8897,-84.7516 391.1898,-79.228"/>
</g>
<!-- Node7 -->
<g id="node8" class="node">
<title>Node7</title>
<polygon fill="#ffffff" stroke="#bfbfbf" points="409,-56.5 409,-75.5 486,-75.5 486,-56.5 409,-56.5"/>
<text text-anchor="middle" x="447.5" y="-63.5" font-family="Helvetica,sans-Serif" font-size="10.00" fill="#000000">sys/mman.h</text>
</g>
<!-- Node0&#45;&gt;Node7 -->
<g id="edge7" class="edge">
<title>Node0&#45;&gt;Node7</title>
<path fill="none" stroke="#191970" d="M447.5,-112.2977C447.5,-104.3834 447.5,-94.6043 447.5,-86.0759"/>
<polygon fill="#191970" stroke="#191970" points="451.0001,-85.8469 447.5,-75.8469 444.0001,-85.847 451.0001,-85.8469"/>
</g>
<!-- Node8 -->
<g id="node9" class="node">
<title>Node8</title>
<polygon fill="#ffffff" stroke="#bfbfbf" points="504.5,-56.5 504.5,-75.5 568.5,-75.5 568.5,-56.5 504.5,-56.5"/>
<text text-anchor="middle" x="536.5" y="-63.5" font-family="Helvetica,sans-Serif" font-size="10.00" fill="#000000">sys/stat.h</text>
</g>
<!-- Node0&#45;&gt;Node8 -->
<g id="edge8" class="edge">
<title>Node0&#45;&gt;Node8</title>
<path fill="none" stroke="#191970" d="M469.5,-112.2977C483.0968,-102.9022 500.4966,-90.8787 514.1567,-81.4395"/>
<polygon fill="#191970" stroke="#191970" points="516.2785,-84.2276 522.5158,-75.6633 512.2991,-78.4688 516.2785,-84.2276"/>
</g>
<!-- Node9 -->
<g id="node10" class="node">
<title>Node9</title>
<polygon fill="#ffffff" stroke="#bfbfbf" points="587,-56.5 587,-75.5 666,-75.5 666,-56.5 587,-56.5"/>
<text text-anchor="middle" x="626.5" y="-63.5" font-family="Helvetica,sans-Serif" font-size="10.00" fill="#000000">sys/statvfs.h</text>
</g>
<!-- Node0&#45;&gt;Node9 -->
<g id="edge9" class="edge">
<title>Node0&#45;&gt;Node9</title>
<path fill="none" stroke="#191970" d="M491.2883,-112.4554C521.2859,-102.149 560.6487,-88.6249 589.1616,-78.8286"/>
<polygon fill="#191970" stroke="#191970" points="590.4413,-82.0898 598.7614,-75.5303 588.1667,-75.4696 590.4413,-82.0898"/>
</g>
<!-- Node10 -->
<g id="node11" class="node">
<title>Node10</title>
<polygon fill="#ffffff" stroke="#bfbfbf" points="684.5,-56.5 684.5,-75.5 756.5,-75.5 756.5,-56.5 684.5,-56.5"/>
<text text-anchor="middle" x="720.5" y="-63.5" font-family="Helvetica,sans-Serif" font-size="10.00" fill="#000000">sys/types.h</text>
</g>
<!-- Node0&#45;&gt;Node10 -->
<g id="edge10" class="edge">
<title>Node0&#45;&gt;Node10</title>
<path fill="none" stroke="#191970" d="M514.2833,-112.4554C564.0752,-101.2386 630.785,-86.2105 674.669,-76.3246"/>
<polygon fill="#191970" stroke="#191970" points="675.5034,-79.7244 684.4897,-74.1122 673.965,-72.8955 675.5034,-79.7244"/>
</g>
<!-- Node11 -->
<g id="node12" class="node">
<title>Node11</title>
<polygon fill="#ffffff" stroke="#bfbfbf" points="775,-56.5 775,-75.5 856,-75.5 856,-56.5 775,-56.5"/>
<text text-anchor="middle" x="815.5" y="-63.5" font-family="Helvetica,sans-Serif" font-size="10.00" fill="#000000">system_error</text>
</g>
<!-- Node0&#45;&gt;Node11 -->
<g id="edge11" class="edge">
<title>Node0&#45;&gt;Node11</title>
<path fill="none" stroke="#191970" d="M528.0165,-115.2995C589.9977,-105.713 678.0491,-91.6747 764.8376,-76.0684"/>
<polygon fill="#191970" stroke="#191970" points="765.6462,-79.479 774.8648,-74.2572 764.4019,-72.5905 765.6462,-79.479"/>
</g>
<!-- Node12 -->
<g id="node13" class="node">
<title>Node12</title>
<polygon fill="#ffffff" stroke="#bfbfbf" points="874.5,-56.5 874.5,-75.5 930.5,-75.5 930.5,-56.5 874.5,-56.5"/>
<text text-anchor="middle" x="902.5" y="-63.5" font-family="Helvetica,sans-Serif" font-size="10.00" fill="#000000">unistd.h</text>
</g>
<!-- Node0&#45;&gt;Node12 -->
<g id="edge12" class="edge">
<title>Node0&#45;&gt;Node12</title>
<path fill="none" stroke="#191970" d="M528.1659,-120.971C610.5131,-113.5328 742.0914,-99.5156 864.3995,-75.9906"/>
<polygon fill="#191970" stroke="#191970" points="865.1689,-79.4066 874.3147,-74.0583 863.8299,-72.5358 865.1689,-79.4066"/>
</g>
<!-- Node13 -->
<g id="node14" class="node">
<title>Node13</title>
<g id="a_node14"><a xlink:href="virtual__memory_8hpp.html" target="_top" xlink:title="This file provides facilities for handling virtual memory and virtual address space. ">
<polygon fill="#ffffff" stroke="#000000" points="948.5,-56.5 948.5,-75.5 1062.5,-75.5 1062.5,-56.5 948.5,-56.5"/>
<text text-anchor="middle" x="1005.5" y="-63.5" font-family="Helvetica,sans-Serif" font-size="10.00" fill="#000000">virtual_memory.hpp</text>
</a>
</g>
</g>
<!-- Node0&#45;&gt;Node13 -->
<g id="edge13" class="edge">
<title>Node0&#45;&gt;Node13</title>
<path fill="none" stroke="#191970" d="M528.1674,-120.206C623.5444,-111.3226 787.3306,-95.2555 937.9263,-76.1552"/>
<polygon fill="#191970" stroke="#191970" points="938.8084,-79.5711 948.2851,-74.8338 937.9226,-72.6274 938.8084,-79.5711"/>
</g>
<!-- Node14 -->
<g id="node15" class="node">
<title>Node14</title>
<polygon fill="#ffffff" stroke="#bfbfbf" points="983,-.5 983,-19.5 1028,-19.5 1028,-.5 983,-.5"/>
<text text-anchor="middle" x="1005.5" y="-7.5" font-family="Helvetica,sans-Serif" font-size="10.00" fill="#000000">utility</text>
</g>
<!-- Node13&#45;&gt;Node14 -->
<g id="edge14" class="edge">
<title>Node13&#45;&gt;Node14</title>
<path fill="none" stroke="#191970" d="M1005.5,-56.2455C1005.5,-48.9382 1005.5,-38.6944 1005.5,-29.7046"/>
<polygon fill="#191970" stroke="#191970" points="1009.0001,-29.6426 1005.5,-19.6427 1002.0001,-29.6427 1009.0001,-29.6426"/>
</g>
</g>
</svg>
