<?xml version="1.0" encoding="UTF-8" standalone="no"?>
<!DOCTYPE svg PUBLIC "-//W3C//DTD SVG 1.1//EN"
 "http://www.w3.org/Graphics/SVG/1.1/DTD/svg11.dtd">
<!-- Generated by graphviz version 2.40.1 (20161225.0304)
 -->
<!-- Title: singlenode_handler Pages: 1 -->
<svg width="749pt" height="435pt"
 viewBox="0.00 0.00 749.00 434.63" xmlns="http://www.w3.org/2000/svg" xmlns:xlink="http://www.w3.org/1999/xlink">
<g id="graph0" class="graph" transform="scale(1 1) rotate(0) translate(4 430.6274)">
<title>singlenode_handler</title>
<polygon fill="#ffffff" stroke="transparent" points="-4,4 -4,-430.6274 745,-430.6274 745,4 -4,4"/>
<!-- Node0 -->
<g id="node1" class="node">
<title>Node0</title>
<polygon fill="#bfbfbf" stroke="#000000" points="0,-158.5 0,-177.5 112,-177.5 112,-158.5 0,-158.5"/>
<text text-anchor="middle" x="56" y="-165.5" font-family="Helvetica,sans-Serif" font-size="10.00" fill="#000000">singlenode_handler</text>
</g>
<!-- Node1 -->
<g id="node2" class="node">
<title>Node1</title>
<g id="a_node2"><a xlink:href="namespaceargo_a31330d8b35bd7f9ef9880eec82339c54.html#a31330d8b35bd7f9ef9880eec82339c54" target="_top" xlink:title="initialize ArgoDSM system ">
<polygon fill="#ffffff" stroke="#000000" points="183.5,-322.5 183.5,-341.5 243.5,-341.5 243.5,-322.5 183.5,-322.5"/>
<text text-anchor="middle" x="213.5" y="-329.5" font-family="Helvetica,sans-Serif" font-size="10.00" fill="#000000">argo::init</text>
</a>
</g>
</g>
<!-- Node0&#45;&gt;Node1 -->
<g id="edge1" class="edge">
<title>Node0&#45;&gt;Node1</title>
<path fill="none" stroke="#191970" d="M59.3966,-177.8315C68.9537,-204.0139 98.643,-275.954 148,-313 155.5106,-318.6372 164.6544,-322.6052 173.6986,-325.3971"/>
<polygon fill="#191970" stroke="#191970" points="172.8266,-328.7869 183.3913,-327.9884 174.6346,-322.0244 172.8266,-328.7869"/>
</g>
<!-- Node9 -->
<g id="node10" class="node">
<title>Node9</title>
<g id="a_node10"><a xlink:href="namespaceargo_a2deaaacde085d381cbb01f24318965b4.html#a2deaaacde085d381cbb01f24318965b4" target="_top" xlink:title="A unique ArgoDSM node identifier. Counting starts from 0. ">
<polygon fill="#ffffff" stroke="#000000" points="658,-328.5 658,-347.5 741,-347.5 741,-328.5 658,-328.5"/>
<text text-anchor="middle" x="699.5" y="-335.5" font-family="Helvetica,sans-Serif" font-size="10.00" fill="#000000">argo::node_id</text>
</a>
</g>
</g>
<!-- Node0&#45;&gt;Node9 -->
<g id="edge15" class="edge">
<title>Node0&#45;&gt;Node9</title>
<path fill="none" stroke="#191970" d="M58.3233,-177.8136C65.9177,-207.8667 92.7576,-299.7025 148,-351 206.8487,-405.6463 236.2281,-404.3676 315,-420 448.7712,-446.547 607.9587,-381.6996 671.3943,-351.9539"/>
<polygon fill="#191970" stroke="#191970" points="673.2143,-354.9636 680.7346,-347.5006 670.2017,-348.645 673.2143,-354.9636"/>
</g>
<!-- Node11 -->
<g id="node12" class="node">
<title>Node11</title>
<g id="a_node12"><a xlink:href="classargo_1_1data__distribution_1_1base__distribution_a4b275eeffdafd81ecbd739ea03942666.html#a4b275eeffdafd81ecbd739ea03942666" target="_top" xlink:title="set runtime parameters for global memory space ">
<polygon fill="#ffffff" stroke="#000000" points="149,-262.5 149,-303.5 278,-303.5 278,-262.5 149,-262.5"/>
<text text-anchor="start" x="157" y="-291.5" font-family="Helvetica,sans-Serif" font-size="10.00" fill="#000000">argo::data_distribution</text>
<text text-anchor="start" x="157" y="-280.5" font-family="Helvetica,sans-Serif" font-size="10.00" fill="#000000">::base_distribution&lt; 0</text>
<text text-anchor="middle" x="213.5" y="-269.5" font-family="Helvetica,sans-Serif" font-size="10.00" fill="#000000"> &gt;::set_memory_space</text>
</a>
</g>
</g>
<!-- Node0&#45;&gt;Node11 -->
<g id="edge11" class="edge">
<title>Node0&#45;&gt;Node11</title>
<path fill="none" stroke="#191970" d="M64.5779,-177.7366C79.9508,-194.7424 113.7959,-230.2129 148,-253 150.1859,-254.4563 152.454,-255.8755 154.7759,-257.254"/>
<polygon fill="#191970" stroke="#191970" points="153.5008,-260.5501 163.9398,-262.3608 156.9084,-254.4355 153.5008,-260.5501"/>
</g>
<!-- Node12 -->
<g id="node13" class="node">
<title>Node12</title>
<g id="a_node13"><a xlink:href="classargo_1_1signal_1_1signal__handler_a07112cd878d25cae303dc9a65c73d059.html#a07112cd878d25cae303dc9a65c73d059" target="_top" xlink:title="install a signal handler for ArgoDSM ">
<polygon fill="#ffffff" stroke="#000000" points="152.5,-202.5 152.5,-243.5 274.5,-243.5 274.5,-202.5 152.5,-202.5"/>
<text text-anchor="start" x="160.5" y="-231.5" font-family="Helvetica,sans-Serif" font-size="10.00" fill="#000000">argo::signal::signal</text>
<text text-anchor="start" x="160.5" y="-220.5" font-family="Helvetica,sans-Serif" font-size="10.00" fill="#000000">_handler::install_argo</text>
<text text-anchor="middle" x="213.5" y="-209.5" font-family="Helvetica,sans-Serif" font-size="10.00" fill="#000000">_handler</text>
</a>
</g>
</g>
<!-- Node0&#45;&gt;Node12 -->
<g id="edge12" class="edge">
<title>Node0&#45;&gt;Node12</title>
<path fill="none" stroke="#191970" d="M83.4344,-177.5803C100.5549,-183.5588 123.4067,-191.5388 145.1764,-199.141"/>
<polygon fill="#191970" stroke="#191970" points="144.153,-202.4908 154.7478,-202.4834 146.4608,-195.8822 144.153,-202.4908"/>
</g>
<!-- Node13 -->
<g id="node14" class="node">
<title>Node13</title>
<g id="a_node14"><a xlink:href="namespaceargo_1_1data__distribution_a58576657391f45caf61bf0748a23b098.html#a58576657391f45caf61bf0748a23b098" target="_top" xlink:title="identifies if we distribute data using the first&#45;touch memory policy ">
<polygon fill="#ffffff" stroke="#000000" points="150,-153 150,-183 277,-183 277,-153 150,-153"/>
<text text-anchor="start" x="158" y="-171" font-family="Helvetica,sans-Serif" font-size="10.00" fill="#000000">argo::data_distribution</text>
<text text-anchor="middle" x="213.5" y="-160" font-family="Helvetica,sans-Serif" font-size="10.00" fill="#000000">::is_first_touch_policy</text>
</a>
</g>
</g>
<!-- Node0&#45;&gt;Node13 -->
<g id="edge13" class="edge">
<title>Node0&#45;&gt;Node13</title>
<path fill="none" stroke="#191970" d="M112.4163,-168C121.2664,-168 130.5269,-168 139.6975,-168"/>
<polygon fill="#191970" stroke="#191970" points="139.9867,-171.5001 149.9866,-168 139.9866,-164.5001 139.9867,-171.5001"/>
</g>
<!-- Node14 -->
<g id="node15" class="node">
<title>Node14</title>
<g id="a_node15"><a xlink:href="namespaceargo_a79c9492f3fd441bfa6261dffbc0f02f4.html#a79c9492f3fd441bfa6261dffbc0f02f4" target="_top" xlink:title="Number of ArgoDSM nodes being run. ">
<polygon fill="#ffffff" stroke="#000000" points="148,-114.5 148,-133.5 279,-133.5 279,-114.5 148,-114.5"/>
<text text-anchor="middle" x="213.5" y="-121.5" font-family="Helvetica,sans-Serif" font-size="10.00" fill="#000000">argo::number_of_nodes</text>
</a>
</g>
</g>
<!-- Node0&#45;&gt;Node14 -->
<g id="edge16" class="edge">
<title>Node0&#45;&gt;Node14</title>
<path fill="none" stroke="#191970" d="M90.1752,-158.4527C113.4973,-151.9373 144.5968,-143.2492 169.7302,-136.2278"/>
<polygon fill="#191970" stroke="#191970" points="170.7021,-139.5903 179.3915,-133.5287 168.8186,-132.8485 170.7021,-139.5903"/>
</g>
<!-- Node15 -->
<g id="node16" class="node">
<title>Node15</title>
<g id="a_node16"><a xlink:href="namespaceargo_aa6f830b22d3f1b054609c5ffa40af4b6.html#aa6f830b22d3f1b054609c5ffa40af4b6" target="_top" xlink:title="shut down ArgoDSM system ">
<polygon fill="#ffffff" stroke="#000000" points="173.5,-76.5 173.5,-95.5 253.5,-95.5 253.5,-76.5 173.5,-76.5"/>
<text text-anchor="middle" x="213.5" y="-83.5" font-family="Helvetica,sans-Serif" font-size="10.00" fill="#000000">argo::finalize</text>
</a>
</g>
</g>
<!-- Node0&#45;&gt;Node15 -->
<g id="edge17" class="edge">
<title>Node0&#45;&gt;Node15</title>
<path fill="none" stroke="#191970" d="M67.4593,-158.3475C84.1734,-144.7059 116.6697,-119.8027 148,-105 152.9513,-102.6606 158.2515,-100.5464 163.6128,-98.6523"/>
<polygon fill="#191970" stroke="#191970" points="164.8597,-101.9268 173.2671,-95.4796 162.6743,-95.2767 164.8597,-101.9268"/>
</g>
<!-- Node16 -->
<g id="node17" class="node">
<title>Node16</title>
<g id="a_node17"><a xlink:href="namespaceargo_a10bae1e1e60ff583384b937201a87c29.html#a10bae1e1e60ff583384b937201a87c29" target="_top" xlink:title="a barrier for threads ">
<polygon fill="#ffffff" stroke="#000000" points="175,-38.5 175,-57.5 252,-57.5 252,-38.5 175,-38.5"/>
<text text-anchor="middle" x="213.5" y="-45.5" font-family="Helvetica,sans-Serif" font-size="10.00" fill="#000000">argo::barrier</text>
</a>
</g>
</g>
<!-- Node0&#45;&gt;Node16 -->
<g id="edge18" class="edge">
<title>Node0&#45;&gt;Node16</title>
<path fill="none" stroke="#191970" d="M62.088,-158.3158C75.2393,-138.1987 108.341,-91.7077 148,-67 153.342,-63.6719 159.2895,-60.9068 165.3609,-58.6142"/>
<polygon fill="#191970" stroke="#191970" points="166.5758,-61.8983 174.9343,-55.3878 164.3401,-55.2649 166.5758,-61.8983"/>
</g>
<!-- Node17 -->
<g id="node18" class="node">
<title>Node17</title>
<g id="a_node18"><a xlink:href="explicit__instantiations_8inc_8cpp_a073931f253ee8178898e6a8446031f9a.html#a073931f253ee8178898e6a8446031f9a" target="_top" xlink:title="explicit instantiation for pointers to raw memory ">
<polygon fill="#ffffff" stroke="#000000" points="181,-.5 181,-19.5 246,-19.5 246,-.5 181,-.5"/>
<text text-anchor="middle" x="213.5" y="-7.5" font-family="Helvetica,sans-Serif" font-size="10.00" fill="#000000">broadcast</text>
</a>
</g>
</g>
<!-- Node0&#45;&gt;Node17 -->
<g id="edge19" class="edge">
<title>Node0&#45;&gt;Node17</title>
<path fill="none" stroke="#191970" d="M59.6621,-158.2066C69.6697,-132.8042 99.9789,-64.3246 148,-29 154.7807,-24.0121 162.8468,-20.3292 170.9615,-17.6112"/>
<polygon fill="#191970" stroke="#191970" points="172.1747,-20.9035 180.8005,-14.7515 170.221,-14.1817 172.1747,-20.9035"/>
</g>
<!-- Node2 -->
<g id="node3" class="node">
<title>Node2</title>
<g id="a_node3"><a xlink:href="namespaceargo_1_1env_a3b366d9bdcdee4e6d3ff4f95ecd5d56f.html#a3b366d9bdcdee4e6d3ff4f95ecd5d56f" target="_top" xlink:title="read and store environment variables used by ArgoDSM ">
<polygon fill="#ffffff" stroke="#000000" points="340.5,-341.5 340.5,-360.5 423.5,-360.5 423.5,-341.5 340.5,-341.5"/>
<text text-anchor="middle" x="382" y="-348.5" font-family="Helvetica,sans-Serif" font-size="10.00" fill="#000000">argo::env::init</text>
</a>
</g>
</g>
<!-- Node1&#45;&gt;Node2 -->
<g id="edge2" class="edge">
<title>Node1&#45;&gt;Node2</title>
<path fill="none" stroke="#191970" d="M243.6244,-335.3968C267.6521,-338.1062 301.8654,-341.964 330.2596,-345.1658"/>
<polygon fill="#191970" stroke="#191970" points="330.0985,-348.6697 340.4277,-346.3123 330.8829,-341.7138 330.0985,-348.6697"/>
</g>
<!-- Node3 -->
<g id="node4" class="node">
<title>Node3</title>
<g id="a_node4"><a xlink:href="namespaceargo_1_1env_af1be596a06fd9e786462c96442172689.html#af1be596a06fd9e786462c96442172689" target="_top" xlink:title="get the memory size requested by environment variable ">
<polygon fill="#ffffff" stroke="#000000" points="315,-303.5 315,-322.5 449,-322.5 449,-303.5 315,-303.5"/>
<text text-anchor="middle" x="382" y="-310.5" font-family="Helvetica,sans-Serif" font-size="10.00" fill="#000000">argo::env::memory_size</text>
</a>
</g>
</g>
<!-- Node1&#45;&gt;Node3 -->
<g id="edge3" class="edge">
<title>Node1&#45;&gt;Node3</title>
<path fill="none" stroke="#191970" d="M243.6244,-328.6032C260.7038,-326.6773 282.9295,-324.1712 304.5535,-321.7328"/>
<polygon fill="#191970" stroke="#191970" points="305.2145,-325.1806 314.7593,-320.582 304.4301,-318.2247 305.2145,-325.1806"/>
</g>
<!-- Node4 -->
<g id="node5" class="node">
<title>Node4</title>
<g id="a_node5"><a xlink:href="namespaceargo_1_1env_aa118cb239143d769e04b17d2a98d48a2.html#aa118cb239143d769e04b17d2a98d48a2" target="_top" xlink:title="get the cache size requested by environment variable ">
<polygon fill="#ffffff" stroke="#000000" points="321.5,-265.5 321.5,-284.5 442.5,-284.5 442.5,-265.5 321.5,-265.5"/>
<text text-anchor="middle" x="382" y="-272.5" font-family="Helvetica,sans-Serif" font-size="10.00" fill="#000000">argo::env::cache_size</text>
</a>
</g>
</g>
<!-- Node1&#45;&gt;Node4 -->
<g id="edge4" class="edge">
<title>Node1&#45;&gt;Node4</title>
<path fill="none" stroke="#191970" d="M243.6059,-324.6477C254.8809,-321.5366 267.6925,-317.5685 279,-313 295.7743,-306.2227 298.2055,-300.7269 315,-294 320.8188,-291.6693 327.0287,-289.5034 333.2325,-287.5311"/>
<polygon fill="#191970" stroke="#191970" points="334.3644,-290.8453 342.9194,-284.5953 332.3341,-284.1462 334.3644,-290.8453"/>
</g>
<!-- Node5 -->
<g id="node6" class="node">
<title>Node5</title>
<g id="a_node6"><a xlink:href="namespaceargo_1_1env_a25a08cb2d0d11432d640ec7173063339.html#a25a08cb2d0d11432d640ec7173063339" target="_top" xlink:title="get the allocation policy requested by environment variable ">
<polygon fill="#ffffff" stroke="#000000" points="324,-175 324,-205 440,-205 440,-175 324,-175"/>
<text text-anchor="start" x="332" y="-193" font-family="Helvetica,sans-Serif" font-size="10.00" fill="#000000">argo::env::allocation</text>
<text text-anchor="middle" x="382" y="-182" font-family="Helvetica,sans-Serif" font-size="10.00" fill="#000000">_policy</text>
</a>
</g>
</g>
<!-- Node1&#45;&gt;Node5 -->
<g id="edge5" class="edge">
<title>Node1&#45;&gt;Node5</title>
<path fill="none" stroke="#191970" d="M243.7745,-329.1297C255.9908,-326.5848 269.4299,-321.8344 279,-313 312.1771,-282.3732 283.6139,-250.4596 315,-218 317.6536,-215.2556 320.6169,-212.7687 323.7795,-210.5168"/>
<polygon fill="#191970" stroke="#191970" points="325.883,-213.3309 332.5406,-205.0891 322.1965,-207.3803 325.883,-213.3309"/>
</g>
<!-- Node6 -->
<g id="node7" class="node">
<title>Node6</title>
<g id="a_node7"><a xlink:href="namespaceargo_1_1env_a30775a9aa41b956df7474a2c0cc317aa.html#a30775a9aa41b956df7474a2c0cc317aa" target="_top" xlink:title="get the allocation block size requested by environment variable ">
<polygon fill="#ffffff" stroke="#000000" points="324,-380 324,-410 440,-410 440,-380 324,-380"/>
<text text-anchor="start" x="332" y="-398" font-family="Helvetica,sans-Serif" font-size="10.00" fill="#000000">argo::env::allocation</text>
<text text-anchor="middle" x="382" y="-387" font-family="Helvetica,sans-Serif" font-size="10.00" fill="#000000">_block_size</text>
</a>
</g>
</g>
<!-- Node1&#45;&gt;Node6 -->
<g id="edge6" class="edge">
<title>Node1&#45;&gt;Node6</title>
<path fill="none" stroke="#191970" d="M238.9421,-341.5339C259.4696,-349.2241 289.091,-360.3163 315,-370 320.5131,-372.0606 326.282,-374.2153 332.0228,-376.3586"/>
<polygon fill="#191970" stroke="#191970" points="331.0149,-379.7183 341.6075,-379.9363 333.4629,-373.1602 331.0149,-379.7183"/>
</g>
<!-- Node7 -->
<g id="node8" class="node">
<title>Node7</title>
<g id="a_node8"><a xlink:href="argo_8cpp_a5a8515fc3191ad0f3398d8ac1441b57a.html#a5a8515fc3191ad0f3398d8ac1441b57a" target="_top" xlink:title="reset ArgoDSM system ">
<polygon fill="#ffffff" stroke="#000000" points="348,-227.5 348,-246.5 416,-246.5 416,-227.5 348,-227.5"/>
<text text-anchor="middle" x="382" y="-234.5" font-family="Helvetica,sans-Serif" font-size="10.00" fill="#000000">argo_reset</text>
</a>
</g>
</g>
<!-- Node1&#45;&gt;Node7 -->
<g id="edge7" class="edge">
<title>Node1&#45;&gt;Node7</title>
<path fill="none" stroke="#191970" d="M243.6166,-327.9991C255.5264,-325.2695 268.7808,-320.6869 279,-313 302.9451,-294.9886 291.001,-273.9394 315,-256 321.7471,-250.9565 329.7842,-247.251 337.9095,-244.5286"/>
<polygon fill="#191970" stroke="#191970" points="339.1503,-247.8133 347.7836,-241.6718 337.2048,-241.0891 339.1503,-247.8133"/>
</g>
<!-- Node8 -->
<g id="node9" class="node">
<title>Node8</title>
<g id="a_node9"><a xlink:href="classargo_1_1mempools_1_1global__memory__pool_a382544f1b6de66b437e8034097313cc8.html#a382544f1b6de66b437e8034097313cc8" target="_top" xlink:title="Resets the memory pool to the initial state instead of de&#45;allocating and (re)allocating all buffers a...">
<polygon fill="#ffffff" stroke="#000000" points="487.5,-222 487.5,-252 619.5,-252 619.5,-222 487.5,-222"/>
<text text-anchor="start" x="495.5" y="-240" font-family="Helvetica,sans-Serif" font-size="10.00" fill="#000000">argo::mempools::global</text>
<text text-anchor="middle" x="553.5" y="-229" font-family="Helvetica,sans-Serif" font-size="10.00" fill="#000000">_memory_pool::reset</text>
</a>
</g>
</g>
<!-- Node7&#45;&gt;Node8 -->
<g id="edge8" class="edge">
<title>Node7&#45;&gt;Node8</title>
<path fill="none" stroke="#191970" d="M416.2934,-237C433.8457,-237 455.9624,-237 477.2831,-237"/>
<polygon fill="#191970" stroke="#191970" points="477.3317,-240.5001 487.3316,-237 477.3316,-233.5001 477.3317,-240.5001"/>
</g>
<!-- Node10 -->
<g id="node11" class="node">
<title>Node10</title>
<g id="a_node11"><a xlink:href="classargo_1_1allocators_1_1generic__allocator_af7bba2f941e23af3efd7b06a7feeb296.html#af7bba2f941e23af3efd7b06a7feeb296" target="_top" xlink:title="set memory pool ">
<polygon fill="#ffffff" stroke="#000000" points="485,-271 485,-301 622,-301 622,-271 485,-271"/>
<text text-anchor="start" x="493" y="-289" font-family="Helvetica,sans-Serif" font-size="10.00" fill="#000000">argo::allocators::generic</text>
<text text-anchor="middle" x="553.5" y="-278" font-family="Helvetica,sans-Serif" font-size="10.00" fill="#000000">_allocator::set_mempool</text>
</a>
</g>
</g>
<!-- Node7&#45;&gt;Node10 -->
<g id="edge10" class="edge">
<title>Node7&#45;&gt;Node10</title>
<path fill="none" stroke="#191970" d="M415.747,-246.547C426.3885,-249.5637 438.1873,-252.9148 449,-256 462.6563,-259.8966 477.3119,-264.094 491.1997,-268.079"/>
<polygon fill="#191970" stroke="#191970" points="490.5737,-271.5406 501.1512,-270.9357 492.5052,-264.8123 490.5737,-271.5406"/>
</g>
<!-- Node8&#45;&gt;Node9 -->
<g id="edge9" class="edge">
<title>Node8&#45;&gt;Node9</title>
<path fill="none" stroke="#191970" d="M604.809,-252.114C610.7935,-254.7018 616.6604,-257.6555 622,-261 647.5964,-277.0327 671.3362,-302.9134 685.6251,-320.1867"/>
<polygon fill="#191970" stroke="#191970" points="683.1945,-322.7485 692.1955,-328.3372 688.6443,-318.3552 683.1945,-322.7485"/>
</g>
<!-- Node13&#45;&gt;Node5 -->
<g id="edge14" class="edge">
<title>Node13&#45;&gt;Node5</title>
<path fill="none" stroke="#191970" d="M277.2026,-176.3173C289.1433,-177.8763 301.6705,-179.5119 313.7428,-181.0881"/>
<polygon fill="#191970" stroke="#191970" points="313.3848,-184.571 323.7538,-182.3952 314.2911,-177.6299 313.3848,-184.571"/>
</g>
</g>
</svg>
