<?xml version="1.0" encoding="UTF-8" standalone="no"?>
<!DOCTYPE svg PUBLIC "-//W3C//DTD SVG 1.1//EN"
 "http://www.w3.org/Graphics/SVG/1.1/DTD/svg11.dtd">
<!-- Generated by graphviz version 2.40.1 (20161225.0304)
 -->
<!-- Title: singlenode_handler Pages: 1 -->
<svg width="749pt" height="503pt"
 viewBox="0.00 0.00 749.00 503.00" xmlns="http://www.w3.org/2000/svg" xmlns:xlink="http://www.w3.org/1999/xlink">
<g id="graph0" class="graph" transform="scale(1 1) rotate(0) translate(4 499)">
<title>singlenode_handler</title>
<polygon fill="#ffffff" stroke="transparent" points="-4,4 -4,-499 745,-499 745,4 -4,4"/>
<!-- Node0 -->
<g id="node1" class="node">
<title>Node0</title>
<polygon fill="#bfbfbf" stroke="#000000" points="0,-163.5 0,-182.5 112,-182.5 112,-163.5 0,-163.5"/>
<text text-anchor="middle" x="56" y="-170.5" font-family="Helvetica,sans-Serif" font-size="10.00" fill="#000000">singlenode_handler</text>
</g>
<!-- Node1 -->
<g id="node2" class="node">
<title>Node1</title>
<g id="a_node2"><a xlink:href="namespaceargo_a31330d8b35bd7f9ef9880eec82339c54.html#a31330d8b35bd7f9ef9880eec82339c54" target="_top" xlink:title="initialize ArgoDSM system ">
<polygon fill="#ffffff" stroke="#000000" points="183.5,-360.5 183.5,-379.5 243.5,-379.5 243.5,-360.5 183.5,-360.5"/>
<text text-anchor="middle" x="213.5" y="-367.5" font-family="Helvetica,sans-Serif" font-size="10.00" fill="#000000">argo::init</text>
</a>
</g>
</g>
<!-- Node0&#45;&gt;Node1 -->
<g id="edge1" class="edge">
<title>Node0&#45;&gt;Node1</title>
<path fill="none" stroke="#191970" d="M58.1703,-182.817C65.3241,-212.8309 91.031,-304.1686 148,-351 155.3215,-357.0186 164.4684,-361.1311 173.5832,-363.9409"/>
<polygon fill="#191970" stroke="#191970" points="172.8127,-367.3571 183.3734,-366.5072 174.5877,-360.5859 172.8127,-367.3571"/>
</g>
<!-- Node9 -->
<g id="node10" class="node">
<title>Node9</title>
<g id="a_node10"><a xlink:href="namespaceargo_a2deaaacde085d381cbb01f24318965b4.html#a2deaaacde085d381cbb01f24318965b4" target="_top" xlink:title="A unique ArgoDSM node identifier. Counting starts from 0. ">
<polygon fill="#ffffff" stroke="#000000" points="658,-275.5 658,-294.5 741,-294.5 741,-275.5 658,-275.5"/>
<text text-anchor="middle" x="699.5" y="-282.5" font-family="Helvetica,sans-Serif" font-size="10.00" fill="#000000">argo::node_id</text>
</a>
</g>
</g>
<!-- Node0&#45;&gt;Node9 -->
<g id="edge16" class="edge">
<title>Node0&#45;&gt;Node9</title>
<path fill="none" stroke="#191970" d="M81.4489,-182.5741C99.7386,-189.1393 125.107,-197.6057 148,-203 242.7739,-225.3316 529.1778,-263.2048 647.4969,-278.4016"/>
<polygon fill="#191970" stroke="#191970" points="647.3768,-281.9147 657.7407,-279.7145 648.2668,-274.9715 647.3768,-281.9147"/>
</g>
<!-- Node11 -->
<g id="node12" class="node">
<title>Node11</title>
<g id="a_node12"><a xlink:href="classargo_1_1data__distribution_1_1base__distribution_a4b275eeffdafd81ecbd739ea03942666.html#a4b275eeffdafd81ecbd739ea03942666" target="_top" xlink:title="set runtime parameters for global memory space ">
<polygon fill="#ffffff" stroke="#000000" points="149,-250.5 149,-291.5 278,-291.5 278,-250.5 149,-250.5"/>
<text text-anchor="start" x="157" y="-279.5" font-family="Helvetica,sans-Serif" font-size="10.00" fill="#000000">argo::data_distribution</text>
<text text-anchor="start" x="157" y="-268.5" font-family="Helvetica,sans-Serif" font-size="10.00" fill="#000000">::base_distribution&lt; 0</text>
<text text-anchor="middle" x="213.5" y="-257.5" font-family="Helvetica,sans-Serif" font-size="10.00" fill="#000000"> &gt;::set_memory_space</text>
</a>
</g>
</g>
<!-- Node0&#45;&gt;Node11 -->
<g id="edge11" class="edge">
<title>Node0&#45;&gt;Node11</title>
<path fill="none" stroke="#191970" d="M69.1053,-182.6503C86.683,-195.4355 119.0414,-218.4204 148,-236 153.2799,-239.2052 158.8775,-242.4365 164.4889,-245.5718"/>
<polygon fill="#191970" stroke="#191970" points="162.8254,-248.6514 173.2746,-250.4023 166.198,-242.5173 162.8254,-248.6514"/>
</g>
<!-- Node12 -->
<g id="node13" class="node">
<title>Node12</title>
<g id="a_node13"><a xlink:href="classargo_1_1signal_1_1signal__handler_a07112cd878d25cae303dc9a65c73d059.html#a07112cd878d25cae303dc9a65c73d059" target="_top" xlink:title="install a signal handler for ArgoDSM ">
<polygon fill="#ffffff" stroke="#000000" points="152.5,-152.5 152.5,-193.5 274.5,-193.5 274.5,-152.5 152.5,-152.5"/>
<text text-anchor="start" x="160.5" y="-181.5" font-family="Helvetica,sans-Serif" font-size="10.00" fill="#000000">argo::signal::signal</text>
<text text-anchor="start" x="160.5" y="-170.5" font-family="Helvetica,sans-Serif" font-size="10.00" fill="#000000">_handler::install_argo</text>
<text text-anchor="middle" x="213.5" y="-159.5" font-family="Helvetica,sans-Serif" font-size="10.00" fill="#000000">_handler</text>
</a>
</g>
</g>
<!-- Node0&#45;&gt;Node12 -->
<g id="edge12" class="edge">
<title>Node0&#45;&gt;Node12</title>
<path fill="none" stroke="#191970" d="M112.4163,-173C122.0464,-173 132.1622,-173 142.1196,-173"/>
<polygon fill="#191970" stroke="#191970" points="142.4118,-176.5001 152.4118,-173 142.4118,-169.5001 142.4118,-176.5001"/>
</g>
<!-- Node14 -->
<g id="node15" class="node">
<title>Node14</title>
<g id="a_node15"><a xlink:href="namespaceargo_1_1data__distribution_a58576657391f45caf61bf0748a23b098.html#a58576657391f45caf61bf0748a23b098" target="_top" xlink:title="identifies if we distribute data using the first&#45;touch memory policy ">
<polygon fill="#ffffff" stroke="#000000" points="150,-311 150,-341 277,-341 277,-311 150,-311"/>
<text text-anchor="start" x="158" y="-329" font-family="Helvetica,sans-Serif" font-size="10.00" fill="#000000">argo::data_distribution</text>
<text text-anchor="middle" x="213.5" y="-318" font-family="Helvetica,sans-Serif" font-size="10.00" fill="#000000">::is_first_touch_policy</text>
</a>
</g>
</g>
<!-- Node0&#45;&gt;Node14 -->
<g id="edge14" class="edge">
<title>Node0&#45;&gt;Node14</title>
<path fill="none" stroke="#191970" d="M60.5368,-182.8295C71.9234,-206.481 103.98,-267.1098 148,-301 150.3056,-302.7751 152.7519,-304.4366 155.2923,-305.9904"/>
<polygon fill="#191970" stroke="#191970" points="153.7708,-309.1473 164.2253,-310.8662 157.1245,-303.003 153.7708,-309.1473"/>
</g>
<!-- Node15 -->
<g id="node16" class="node">
<title>Node15</title>
<g id="a_node16"><a xlink:href="namespaceargo_a79c9492f3fd441bfa6261dffbc0f02f4.html#a79c9492f3fd441bfa6261dffbc0f02f4" target="_top" xlink:title="Number of ArgoDSM nodes being run. ">
<polygon fill="#ffffff" stroke="#000000" points="148,-114.5 148,-133.5 279,-133.5 279,-114.5 148,-114.5"/>
<text text-anchor="middle" x="213.5" y="-121.5" font-family="Helvetica,sans-Serif" font-size="10.00" fill="#000000">argo::number_of_nodes</text>
</a>
</g>
</g>
<!-- Node0&#45;&gt;Node15 -->
<g id="edge17" class="edge">
<title>Node0&#45;&gt;Node15</title>
<path fill="none" stroke="#191970" d="M84.5173,-163.4333C102.6481,-157.4173 126.6459,-149.5769 148,-143 155.0794,-140.8196 162.6105,-138.5702 169.9498,-136.4157"/>
<polygon fill="#191970" stroke="#191970" points="171.1568,-139.7096 179.7785,-133.5519 169.1986,-132.989 171.1568,-139.7096"/>
</g>
<!-- Node16 -->
<g id="node17" class="node">
<title>Node16</title>
<g id="a_node17"><a xlink:href="namespaceargo_aa6f830b22d3f1b054609c5ffa40af4b6.html#aa6f830b22d3f1b054609c5ffa40af4b6" target="_top" xlink:title="shut down ArgoDSM system ">
<polygon fill="#ffffff" stroke="#000000" points="173.5,-76.5 173.5,-95.5 253.5,-95.5 253.5,-76.5 173.5,-76.5"/>
<text text-anchor="middle" x="213.5" y="-83.5" font-family="Helvetica,sans-Serif" font-size="10.00" fill="#000000">argo::finalize</text>
</a>
</g>
</g>
<!-- Node0&#45;&gt;Node16 -->
<g id="edge18" class="edge">
<title>Node0&#45;&gt;Node16</title>
<path fill="none" stroke="#191970" d="M66.2291,-163.497C82.4082,-148.9399 115.422,-121.1171 148,-105 152.9083,-102.5717 158.181,-100.4007 163.5262,-98.4733"/>
<polygon fill="#191970" stroke="#191970" points="164.7811,-101.7444 173.1628,-95.2639 162.5692,-95.103 164.7811,-101.7444"/>
</g>
<!-- Node17 -->
<g id="node18" class="node">
<title>Node17</title>
<g id="a_node18"><a xlink:href="namespaceargo_a10bae1e1e60ff583384b937201a87c29.html#a10bae1e1e60ff583384b937201a87c29" target="_top" xlink:title="a barrier for threads ">
<polygon fill="#ffffff" stroke="#000000" points="175,-38.5 175,-57.5 252,-57.5 252,-38.5 175,-38.5"/>
<text text-anchor="middle" x="213.5" y="-45.5" font-family="Helvetica,sans-Serif" font-size="10.00" fill="#000000">argo::barrier</text>
</a>
</g>
</g>
<!-- Node0&#45;&gt;Node17 -->
<g id="edge19" class="edge">
<title>Node0&#45;&gt;Node17</title>
<path fill="none" stroke="#191970" d="M61.5768,-163.4617C74.2181,-142.6893 107.1531,-93.1331 148,-67 153.3017,-63.6081 159.2257,-60.8056 165.285,-58.494"/>
<polygon fill="#191970" stroke="#191970" points="166.5017,-61.7773 174.8482,-55.2514 164.2538,-55.148 166.5017,-61.7773"/>
</g>
<!-- Node18 -->
<g id="node19" class="node">
<title>Node18</title>
<g id="a_node19"><a xlink:href="explicit__instantiations_8inc_8cpp_a073931f253ee8178898e6a8446031f9a.html#a073931f253ee8178898e6a8446031f9a" target="_top" xlink:title="explicit instantiation for pointers to raw memory ">
<polygon fill="#ffffff" stroke="#000000" points="181,-.5 181,-19.5 246,-19.5 246,-.5 181,-.5"/>
<text text-anchor="middle" x="213.5" y="-7.5" font-family="Helvetica,sans-Serif" font-size="10.00" fill="#000000">broadcast</text>
</a>
</g>
</g>
<!-- Node0&#45;&gt;Node18 -->
<g id="edge20" class="edge">
<title>Node0&#45;&gt;Node18</title>
<path fill="none" stroke="#191970" d="M59.4169,-163.2359C69.0245,-137.2331 98.8278,-65.787 148,-29 154.7402,-23.9575 162.7883,-20.2503 170.8981,-17.5258"/>
<polygon fill="#191970" stroke="#191970" points="172.1113,-20.8181 180.737,-14.666 170.1575,-14.0962 172.1113,-20.8181"/>
</g>
<!-- Node2 -->
<g id="node3" class="node">
<title>Node2</title>
<g id="a_node3"><a xlink:href="namespaceargo_1_1env_a3b366d9bdcdee4e6d3ff4f95ecd5d56f.html#a3b366d9bdcdee4e6d3ff4f95ecd5d56f" target="_top" xlink:title="read and store environment variables used by ArgoDSM ">
<polygon fill="#ffffff" stroke="#000000" points="340.5,-349.5 340.5,-368.5 423.5,-368.5 423.5,-349.5 340.5,-349.5"/>
<text text-anchor="middle" x="382" y="-356.5" font-family="Helvetica,sans-Serif" font-size="10.00" fill="#000000">argo::env::init</text>
</a>
</g>
</g>
<!-- Node1&#45;&gt;Node2 -->
<g id="edge2" class="edge">
<title>Node1&#45;&gt;Node2</title>
<path fill="none" stroke="#191970" d="M243.6244,-368.0334C267.6521,-366.4648 301.8654,-364.2313 330.2596,-362.3777"/>
<polygon fill="#191970" stroke="#191970" points="330.677,-365.858 340.4277,-361.7139 330.2209,-358.8729 330.677,-365.858"/>
</g>
<!-- Node3 -->
<g id="node4" class="node">
<title>Node3</title>
<g id="a_node4"><a xlink:href="namespaceargo_1_1env_af1be596a06fd9e786462c96442172689.html#af1be596a06fd9e786462c96442172689" target="_top" xlink:title="get the memory size requested by environment variable ">
<polygon fill="#ffffff" stroke="#000000" points="315,-311.5 315,-330.5 449,-330.5 449,-311.5 315,-311.5"/>
<text text-anchor="middle" x="382" y="-318.5" font-family="Helvetica,sans-Serif" font-size="10.00" fill="#000000">argo::env::memory_size</text>
</a>
</g>
</g>
<!-- Node1&#45;&gt;Node3 -->
<g id="edge3" class="edge">
<title>Node1&#45;&gt;Node3</title>
<path fill="none" stroke="#191970" d="M243.5254,-361.3874C254.6758,-358.1634 267.4253,-354.447 279,-351 295.0344,-346.225 298.9514,-344.7269 315,-340 322.5025,-337.7903 330.4913,-335.4841 338.2418,-333.2714"/>
<polygon fill="#191970" stroke="#191970" points="339.2149,-336.6335 347.8769,-330.5328 337.301,-329.9002 339.2149,-336.6335"/>
</g>
<!-- Node4 -->
<g id="node5" class="node">
<title>Node4</title>
<g id="a_node5"><a xlink:href="namespaceargo_1_1env_aa118cb239143d769e04b17d2a98d48a2.html#aa118cb239143d769e04b17d2a98d48a2" target="_top" xlink:title="get the cache size requested by environment variable ">
<polygon fill="#ffffff" stroke="#000000" points="321.5,-475.5 321.5,-494.5 442.5,-494.5 442.5,-475.5 321.5,-475.5"/>
<text text-anchor="middle" x="382" y="-482.5" font-family="Helvetica,sans-Serif" font-size="10.00" fill="#000000">argo::env::cache_size</text>
</a>
</g>
</g>
<!-- Node1&#45;&gt;Node4 -->
<g id="edge4" class="edge">
<title>Node1&#45;&gt;Node4</title>
<path fill="none" stroke="#191970" d="M221.0389,-379.7729C236.5134,-399.1595 273.8832,-442.6247 315,-466 318.889,-468.2109 323.0534,-470.1797 327.3324,-471.93"/>
<polygon fill="#191970" stroke="#191970" points="326.2269,-475.2526 336.8204,-475.4223 328.6449,-468.6835 326.2269,-475.2526"/>
</g>
<!-- Node5 -->
<g id="node6" class="node">
<title>Node5</title>
<g id="a_node6"><a xlink:href="namespaceargo_1_1env_a25a08cb2d0d11432d640ec7173063339.html#a25a08cb2d0d11432d640ec7173063339" target="_top" xlink:title="get the allocation policy requested by environment variable ">
<polygon fill="#ffffff" stroke="#000000" points="324,-262 324,-292 440,-292 440,-262 324,-262"/>
<text text-anchor="start" x="332" y="-280" font-family="Helvetica,sans-Serif" font-size="10.00" fill="#000000">argo::env::allocation</text>
<text text-anchor="middle" x="382" y="-269" font-family="Helvetica,sans-Serif" font-size="10.00" fill="#000000">_policy</text>
</a>
</g>
</g>
<!-- Node1&#45;&gt;Node5 -->
<g id="edge5" class="edge">
<title>Node1&#45;&gt;Node5</title>
<path fill="none" stroke="#191970" d="M243.6821,-365.5563C255.4673,-362.7646 268.6139,-358.2551 279,-351 301.1537,-335.5247 293.4405,-318.2929 315,-302 317.4468,-300.1509 320.0453,-298.4258 322.7434,-296.8181"/>
<polygon fill="#191970" stroke="#191970" points="324.4599,-299.8694 331.6358,-292.0747 321.1653,-293.6932 324.4599,-299.8694"/>
</g>
<!-- Node6 -->
<g id="node7" class="node">
<title>Node6</title>
<g id="a_node7"><a xlink:href="namespaceargo_1_1env_a30775a9aa41b956df7474a2c0cc317aa.html#a30775a9aa41b956df7474a2c0cc317aa" target="_top" xlink:title="get the allocation block size requested by environment variable ">
<polygon fill="#ffffff" stroke="#000000" points="324,-426 324,-456 440,-456 440,-426 324,-426"/>
<text text-anchor="start" x="332" y="-444" font-family="Helvetica,sans-Serif" font-size="10.00" fill="#000000">argo::env::allocation</text>
<text text-anchor="middle" x="382" y="-433" font-family="Helvetica,sans-Serif" font-size="10.00" fill="#000000">_block_size</text>
</a>
</g>
</g>
<!-- Node1&#45;&gt;Node6 -->
<g id="edge6" class="edge">
<title>Node1&#45;&gt;Node6</title>
<path fill="none" stroke="#191970" d="M233.5434,-379.5738C253.8905,-389.1763 286.3852,-404.1935 315,-416 320.0928,-418.1013 325.4332,-420.2253 330.7823,-422.301"/>
<polygon fill="#191970" stroke="#191970" points="329.778,-425.6642 340.3684,-425.9697 332.28,-419.1266 329.778,-425.6642"/>
</g>
<!-- Node7 -->
<g id="node8" class="node">
<title>Node7</title>
<g id="a_node8"><a xlink:href="argo_8cpp_a5a8515fc3191ad0f3398d8ac1441b57a.html#a5a8515fc3191ad0f3398d8ac1441b57a" target="_top" xlink:title="reset ArgoDSM system ">
<polygon fill="#ffffff" stroke="#000000" points="348,-387.5 348,-406.5 416,-406.5 416,-387.5 348,-387.5"/>
<text text-anchor="middle" x="382" y="-394.5" font-family="Helvetica,sans-Serif" font-size="10.00" fill="#000000">argo_reset</text>
</a>
</g>
</g>
<!-- Node1&#45;&gt;Node7 -->
<g id="edge7" class="edge">
<title>Node1&#45;&gt;Node7</title>
<path fill="none" stroke="#191970" d="M243.6244,-374.8271C269.7898,-379.0197 308.0336,-385.1478 337.6885,-389.8996"/>
<polygon fill="#191970" stroke="#191970" points="337.3579,-393.3912 347.7857,-391.5176 338.4655,-386.4794 337.3579,-393.3912"/>
</g>
<!-- Node8 -->
<g id="node9" class="node">
<title>Node8</title>
<g id="a_node9"><a xlink:href="classargo_1_1mempools_1_1global__memory__pool_a382544f1b6de66b437e8034097313cc8.html#a382544f1b6de66b437e8034097313cc8" target="_top" xlink:title="Resets the memory pool to the initial state instead of de&#45;allocating and (re)allocating all buffers a...">
<polygon fill="#ffffff" stroke="#000000" points="487.5,-302 487.5,-332 619.5,-332 619.5,-302 487.5,-302"/>
<text text-anchor="start" x="495.5" y="-320" font-family="Helvetica,sans-Serif" font-size="10.00" fill="#000000">argo::mempools::global</text>
<text text-anchor="middle" x="553.5" y="-309" font-family="Helvetica,sans-Serif" font-size="10.00" fill="#000000">_memory_pool::reset</text>
</a>
</g>
</g>
<!-- Node7&#45;&gt;Node8 -->
<g id="edge8" class="edge">
<title>Node7&#45;&gt;Node8</title>
<path fill="none" stroke="#191970" d="M416.3142,-389.0558C426.9824,-386.1145 438.6537,-382.403 449,-378 475.0987,-366.8933 502.7364,-350.5339 523.0298,-337.5521"/>
<polygon fill="#191970" stroke="#191970" points="525.0436,-340.4178 531.5277,-332.0388 521.2336,-334.5454 525.0436,-340.4178"/>
</g>
<!-- Node10 -->
<g id="node11" class="node">
<title>Node10</title>
<g id="a_node11"><a xlink:href="classargo_1_1allocators_1_1generic__allocator_af7bba2f941e23af3efd7b06a7feeb296.html#af7bba2f941e23af3efd7b06a7feeb296" target="_top" xlink:title="set memory pool ">
<polygon fill="#ffffff" stroke="#000000" points="485,-382 485,-412 622,-412 622,-382 485,-382"/>
<text text-anchor="start" x="493" y="-400" font-family="Helvetica,sans-Serif" font-size="10.00" fill="#000000">argo::allocators::generic</text>
<text text-anchor="middle" x="553.5" y="-389" font-family="Helvetica,sans-Serif" font-size="10.00" fill="#000000">_allocator::set_mempool</text>
</a>
</g>
</g>
<!-- Node7&#45;&gt;Node10 -->
<g id="edge10" class="edge">
<title>Node7&#45;&gt;Node10</title>
<path fill="none" stroke="#191970" d="M416.2934,-397C433.1782,-397 454.2869,-397 474.8477,-397"/>
<polygon fill="#191970" stroke="#191970" points="474.8762,-400.5001 484.8762,-397 474.8761,-393.5001 474.8762,-400.5001"/>
</g>
<!-- Node8&#45;&gt;Node9 -->
<g id="edge9" class="edge">
<title>Node8&#45;&gt;Node9</title>
<path fill="none" stroke="#191970" d="M619.6652,-302.498C629.0939,-300.4315 638.6761,-298.3313 647.775,-296.337"/>
<polygon fill="#191970" stroke="#191970" points="648.7901,-299.6977 657.8088,-294.1378 647.2913,-292.86 648.7901,-299.6977"/>
</g>
<!-- Node13 -->
<g id="node14" class="node">
<title>Node13</title>
<g id="a_node14"><a xlink:href="classargo_1_1signal_1_1signal__handler_a5072dc2ef8e7f83b4aa84e61682b4d96.html#a5072dc2ef8e7f83b4aa84e61682b4d96" target="_top" xlink:title="a generic signal handler function ">
<polygon fill="#ffffff" stroke="#000000" points="321.5,-152.5 321.5,-193.5 442.5,-193.5 442.5,-152.5 321.5,-152.5"/>
<text text-anchor="start" x="329.5" y="-181.5" font-family="Helvetica,sans-Serif" font-size="10.00" fill="#000000">argo::signal::signal</text>
<text text-anchor="start" x="329.5" y="-170.5" font-family="Helvetica,sans-Serif" font-size="10.00" fill="#000000">_handler::argo_signal</text>
<text text-anchor="middle" x="382" y="-159.5" font-family="Helvetica,sans-Serif" font-size="10.00" fill="#000000">_handler</text>
</a>
</g>
</g>
<!-- Node12&#45;&gt;Node13 -->
<g id="edge13" class="edge">
<title>Node12&#45;&gt;Node13</title>
<path fill="none" stroke="#191970" d="M274.809,-173C286.6448,-173 299.1345,-173 311.2425,-173"/>
<polygon fill="#191970" stroke="#191970" points="311.3007,-176.5001 321.3006,-173 311.3006,-169.5001 311.3007,-176.5001"/>
</g>
<!-- Node14&#45;&gt;Node5 -->
<g id="edge15" class="edge">
<title>Node14&#45;&gt;Node5</title>
<path fill="none" stroke="#191970" d="M265.4305,-310.8986C282.8089,-305.8449 302.3498,-300.1624 320.3938,-294.9152"/>
<polygon fill="#191970" stroke="#191970" points="321.6161,-298.2048 330.241,-292.0516 319.6614,-291.4832 321.6161,-298.2048"/>
</g>
</g>
</svg>
