<?xml version="1.0" encoding="UTF-8" standalone="no"?>
<!DOCTYPE svg PUBLIC "-//W3C//DTD SVG 1.1//EN"
 "http://www.w3.org/Graphics/SVG/1.1/DTD/svg11.dtd">
<!-- Generated by graphviz version 2.40.1 (20161225.0304)
 -->
<!-- Title: /home/atmerhannah/argodsm/src/backend/singlenode/singlenode.cpp Pages: 1 -->
<!--zoomable 475 -->
<svg id="main" version="1.1" xmlns="http://www.w3.org/2000/svg" xmlns:xlink="http://www.w3.org/1999/xlink" xml:space="preserve" onload="init(evt)">
<style type="text/css"><![CDATA[
.edge:hover path { stroke: red; }
.edge:hover polygon { stroke: red; fill: red; }
]]></style>
<script type="text/javascript"><![CDATA[
var edges = document.getElementsByTagName('g');
if (edges && edges.length) {
  for (var i=0;i<edges.length;i++) {
    if (edges[i].id.substr(0,4)=='edge') {
      edges[i].setAttribute('class','edge');
    }
  }
}
]]></script>
        <defs>
                <circle id="rim" cx="0" cy="0" r="7"/>
                <circle id="rim2" cx="0" cy="0" r="3.5"/>
                <g id="zoomPlus">
                        <use xlink:href="#rim" fill="#404040">
                                <set attributeName="fill" to="#808080" begin="zoomplus.mouseover" end="zoomplus.mouseout"/>
                        </use>
                        <path d="M-4,0h8M0,-4v8" fill="none" stroke="white" stroke-width="1.5" pointer-events="none"/>
                </g>
                <g id="zoomMin">
                        <use xlink:href="#rim" fill="#404040">
                                <set attributeName="fill" to="#808080" begin="zoomminus.mouseover" end="zoomminus.mouseout"/>
                        </use>
                        <path d="M-4,0h8" fill="none" stroke="white" stroke-width="1.5" pointer-events="none"/>
                </g>
                <g id="dirArrow">
                        <path fill="none" stroke="white" stroke-width="1.5" d="M0,-3.0v7 M-2.5,-0.5L0,-3.0L2.5,-0.5"/>
                </g>
               <g id="resetDef">
                       <use xlink:href="#rim2" fill="#404040">
                               <set attributeName="fill" to="#808080" begin="reset.mouseover" end="reset.mouseout"/>
                       </use>
               </g>
        </defs>

<script type="text/javascript">
var viewWidth = 1298;
var viewHeight = 475;
var sectionId = 'dynsection-0';
</script>
<script xlink:href="svgpan.js"/>
<svg id="graph" class="graph">
<g id="viewport">
<title>/home/atmerhannah/argodsm/src/backend/singlenode/singlenode.cpp</title>
<polygon fill="#ffffff" stroke="transparent" points="-4,4 -4,-471 1293.7439,-471 1293.7439,4 -4,4"/>
<!-- Node0 -->
<g id="node1" class="node">
<title>Node0</title>
<polygon fill="#bfbfbf" stroke="#000000" points="712.2439,-425.5 712.2439,-466.5 873.2439,-466.5 873.2439,-425.5 712.2439,-425.5"/>
<text text-anchor="start" x="720.2439" y="-454.5" font-family="Helvetica,sans-Serif" font-size="10.00" fill="#000000">/home/atmerhannah/argodsm</text>
<text text-anchor="start" x="720.2439" y="-443.5" font-family="Helvetica,sans-Serif" font-size="10.00" fill="#000000">/src/backend/singlenode</text>
<text text-anchor="middle" x="792.7439" y="-432.5" font-family="Helvetica,sans-Serif" font-size="10.00" fill="#000000">/singlenode.cpp</text>
</g>
<!-- Node1 -->
<g id="node2" class="node">
<title>Node1</title>
<g id="a_node2"><a xlink:href="global__ptr_8hpp.html" target="_top" xlink:title="This file provides the global pointer for ArgoDSM. ">
<polygon fill="#ffffff" stroke="#000000" points="556.7439,-224.5 556.7439,-254.5 688.7439,-254.5 688.7439,-224.5 556.7439,-224.5"/>
<text text-anchor="start" x="564.7439" y="-242.5" font-family="Helvetica,sans-Serif" font-size="10.00" fill="#000000">data_distribution/global</text>
<text text-anchor="middle" x="622.7439" y="-231.5" font-family="Helvetica,sans-Serif" font-size="10.00" fill="#000000">_ptr.hpp</text>
</a>
</g>
</g>
<!-- Node0&#45;&gt;Node1 -->
<g id="edge1" class="edge">
<title>Node0&#45;&gt;Node1</title>
<path fill="none" stroke="#191970" d="M712.0752,-428.0012C670.5302,-417.3631 625.3701,-403.2238 609.7439,-389 576.245,-358.5077 566.8005,-333.7627 581.7439,-291 585.3631,-280.6429 592.0336,-270.8115 598.9579,-262.5679"/>
<polygon fill="#191970" stroke="#191970" points="601.7765,-264.6679 605.8631,-254.8929 596.5727,-259.986 601.7765,-264.6679"/>
</g>
<!-- Node4 -->
<g id="node5" class="node">
<title>Node4</title>
<polygon fill="#ffffff" stroke="#bfbfbf" points="1155.2439,-112.5 1155.2439,-131.5 1208.2439,-131.5 1208.2439,-112.5 1155.2439,-112.5"/>
<text text-anchor="middle" x="1181.7439" y="-119.5" font-family="Helvetica,sans-Serif" font-size="10.00" fill="#000000">cstddef</text>
</g>
<!-- Node0&#45;&gt;Node4 -->
<g id="edge45" class="edge">
<title>Node0&#45;&gt;Node4</title>
<path fill="none" stroke="#191970" d="M792.3589,-425.3508C791.7377,-367.1547 793.3347,-203.7155 829.7439,-168 878.3292,-120.3404 1061.6713,-143.7123 1145.1894,-131.7871"/>
<polygon fill="#191970" stroke="#191970" points="1145.8293,-135.2286 1155.1018,-130.103 1144.6568,-128.3275 1145.8293,-135.2286"/>
</g>
<!-- Node10 -->
<g id="node11" class="node">
<title>Node10</title>
<g id="a_node11"><a xlink:href="types_8hpp.html" target="_top" xlink:title="This file defines common types used in ArgoDSM. ">
<polygon fill="#ffffff" stroke="#000000" points="152.7439,-.5 152.7439,-19.5 256.7439,-19.5 256.7439,-.5 152.7439,-.5"/>
<text text-anchor="middle" x="204.7439" y="-7.5" font-family="Helvetica,sans-Serif" font-size="10.00" fill="#000000">../types/types.hpp</text>
</a>
</g>
</g>
<!-- Node0&#45;&gt;Node10 -->
<g id="edge39" class="edge">
<title>Node0&#45;&gt;Node10</title>
<path fill="none" stroke="#191970" d="M712.0461,-441.7178C570.2551,-433.6476 282.2051,-414.6647 184.7439,-389 98.0767,-366.1777 .7439,-396.1217 .7439,-306.5 .7439,-306.5 .7439,-306.5 .7439,-122 .7439,-91.4754 -2.2316,-77.1857 19.7439,-56 37.2802,-39.0939 95.8148,-26.4211 142.4021,-18.7029"/>
<polygon fill="#191970" stroke="#191970" points="143.1278,-22.1312 152.4432,-17.0842 142.0137,-15.2204 143.1278,-22.1312"/>
</g>
<!-- Node16 -->
<g id="node17" class="node">
<title>Node16</title>
<polygon fill="#ffffff" stroke="#bfbfbf" points="218.7439,-56.5 218.7439,-75.5 266.7439,-75.5 266.7439,-56.5 218.7439,-56.5"/>
<text text-anchor="middle" x="242.7439" y="-63.5" font-family="Helvetica,sans-Serif" font-size="10.00" fill="#000000">mutex</text>
</g>
<!-- Node0&#45;&gt;Node16 -->
<g id="edge47" class="edge">
<title>Node0&#45;&gt;Node16</title>
<path fill="none" stroke="#191970" d="M712.1801,-442.2664C559.4123,-432.9755 242.7439,-402.1775 242.7439,-306.5 242.7439,-306.5 242.7439,-306.5 242.7439,-178 242.7439,-145.7116 242.7439,-108.1872 242.7439,-85.8048"/>
<polygon fill="#191970" stroke="#191970" points="246.244,-85.5883 242.7439,-75.5884 239.244,-85.5884 246.244,-85.5883"/>
</g>
<!-- Node17 -->
<g id="node18" class="node">
<title>Node17</title>
<g id="a_node18"><a xlink:href="signal_8hpp.html" target="_top" xlink:title="This file provides facilities for handling POSIX signals, especially SIGSEGV, within ArgoDSM...">
<polygon fill="#ffffff" stroke="#000000" points="821.2439,-364 821.2439,-383 920.2439,-383 920.2439,-364 821.2439,-364"/>
<text text-anchor="middle" x="870.7439" y="-371" font-family="Helvetica,sans-Serif" font-size="10.00" fill="#000000">signal/signal.hpp</text>
</a>
</g>
</g>
<!-- Node0&#45;&gt;Node17 -->
<g id="edge22" class="edge">
<title>Node0&#45;&gt;Node17</title>
<path fill="none" stroke="#191970" d="M814.8869,-425.4183C826.9195,-414.2342 841.603,-400.5861 852.8949,-390.0904"/>
<polygon fill="#191970" stroke="#191970" points="855.4896,-392.4571 860.4314,-383.0853 850.7239,-387.3299 855.4896,-392.4571"/>
</g>
<!-- Node21 -->
<g id="node22" class="node">
<title>Node21</title>
<g id="a_node22"><a xlink:href="virtual__memory_8hpp.html" target="_top" xlink:title="This file provides facilities for handling virtual memory and virtual address space. ">
<polygon fill="#ffffff" stroke="#000000" points="989.2439,-291.5 989.2439,-321.5 1118.2439,-321.5 1118.2439,-291.5 989.2439,-291.5"/>
<text text-anchor="start" x="997.2439" y="-309.5" font-family="Helvetica,sans-Serif" font-size="10.00" fill="#000000">virtual_memory/virtual</text>
<text text-anchor="middle" x="1053.7439" y="-298.5" font-family="Helvetica,sans-Serif" font-size="10.00" fill="#000000">_memory.hpp</text>
</a>
</g>
</g>
<!-- Node0&#45;&gt;Node21 -->
<g id="edge40" class="edge">
<title>Node0&#45;&gt;Node21</title>
<path fill="none" stroke="#191970" d="M851.6797,-425.3881C876.2478,-415.7657 904.617,-403.2741 928.7439,-389 947.8006,-377.7255 949.5393,-370.6042 967.7439,-358 983.6516,-346.986 1001.9627,-335.8251 1017.5893,-326.7223"/>
<polygon fill="#191970" stroke="#191970" points="1019.5272,-329.645 1026.4413,-321.6172 1016.03,-323.5812 1019.5272,-329.645"/>
</g>
<!-- Node22 -->
<g id="node23" class="node">
<title>Node22</title>
<g id="a_node23"><a xlink:href="global__tas__lock_8hpp.html" target="_top" xlink:title="This file provides a tas lock for the ArgoDSM system based on the TAS lock made by David Klaftenegger...">
<polygon fill="#ffffff" stroke="#000000" points="619.2439,-358.5 619.2439,-388.5 746.2439,-388.5 746.2439,-358.5 619.2439,-358.5"/>
<text text-anchor="start" x="627.2439" y="-376.5" font-family="Helvetica,sans-Serif" font-size="10.00" fill="#000000">synchronization/global</text>
<text text-anchor="middle" x="682.7439" y="-365.5" font-family="Helvetica,sans-Serif" font-size="10.00" fill="#000000">_tas_lock.hpp</text>
</a>
</g>
</g>
<!-- Node0&#45;&gt;Node22 -->
<g id="edge29" class="edge">
<title>Node0&#45;&gt;Node22</title>
<path fill="none" stroke="#191970" d="M761.5165,-425.4183C746.6495,-415.6196 728.9129,-403.9296 714.0374,-394.1253"/>
<polygon fill="#191970" stroke="#191970" points="715.9286,-391.1799 705.6529,-388.5991 712.0763,-397.0246 715.9286,-391.1799"/>
</g>
<!-- Node23 -->
<g id="node24" class="node">
<title>Node23</title>
<g id="a_node24"><a xlink:href="backend_8hpp.html" target="_top" xlink:title="This file provides the backend interface. ">
<polygon fill="#ffffff" stroke="#000000" points="402.7439,-297 402.7439,-316 534.7439,-316 534.7439,-297 402.7439,-297"/>
<text text-anchor="middle" x="468.7439" y="-304" font-family="Helvetica,sans-Serif" font-size="10.00" fill="#000000">../backend/backend.hpp</text>
</a>
</g>
</g>
<!-- Node0&#45;&gt;Node23 -->
<g id="edge41" class="edge">
<title>Node0&#45;&gt;Node23</title>
<path fill="none" stroke="#191970" d="M712.1958,-438.8284C662.5044,-431.6676 598.9034,-417.3964 548.7439,-389 520.1163,-372.7933 495.1781,-343.2386 481.0528,-324.2538"/>
<polygon fill="#191970" stroke="#191970" points="483.8749,-322.1833 475.1837,-316.1242 478.1994,-326.2808 483.8749,-322.1833"/>
</g>
<!-- Node28 -->
<g id="node29" class="node">
<title>Node28</title>
<polygon fill="#ffffff" stroke="#bfbfbf" points="976.7439,-364 976.7439,-383 1026.7439,-383 1026.7439,-364 976.7439,-364"/>
<text text-anchor="middle" x="1001.7439" y="-371" font-family="Helvetica,sans-Serif" font-size="10.00" fill="#000000">atomic</text>
</g>
<!-- Node0&#45;&gt;Node28 -->
<g id="edge42" class="edge">
<title>Node0&#45;&gt;Node28</title>
<path fill="none" stroke="#191970" d="M856.8067,-425.4394C888.7786,-414.9453 927.958,-401.7335 962.7439,-389 964.6425,-388.305 966.5878,-387.5785 968.5473,-386.8356"/>
<polygon fill="#191970" stroke="#191970" points="970.2523,-389.9286 978.3132,-383.0531 967.7241,-383.4011 970.2523,-389.9286"/>
</g>
<!-- Node29 -->
<g id="node30" class="node">
<title>Node29</title>
<polygon fill="#ffffff" stroke="#bfbfbf" points="1045.2439,-364 1045.2439,-383 1152.2439,-383 1152.2439,-364 1045.2439,-364"/>
<text text-anchor="middle" x="1098.7439" y="-371" font-family="Helvetica,sans-Serif" font-size="10.00" fill="#000000">condition_variable</text>
</g>
<!-- Node0&#45;&gt;Node29 -->
<g id="edge43" class="edge">
<title>Node0&#45;&gt;Node29</title>
<path fill="none" stroke="#191970" d="M873.5191,-427.2838C920.826,-416.2648 981.708,-401.9844 1035.7439,-389 1040.4258,-387.875 1045.3009,-386.6934 1050.1741,-385.5056"/>
<polygon fill="#191970" stroke="#191970" points="1051.2297,-388.8507 1060.1117,-383.0749 1049.5664,-382.0512 1051.2297,-388.8507"/>
</g>
<!-- Node30 -->
<g id="node31" class="node">
<title>Node30</title>
<polygon fill="#ffffff" stroke="#bfbfbf" points="1170.2439,-364 1170.2439,-383 1221.2439,-383 1221.2439,-364 1170.2439,-364"/>
<text text-anchor="middle" x="1195.7439" y="-371" font-family="Helvetica,sans-Serif" font-size="10.00" fill="#000000">csignal</text>
</g>
<!-- Node0&#45;&gt;Node30 -->
<g id="edge44" class="edge">
<title>Node0&#45;&gt;Node30</title>
<path fill="none" stroke="#191970" d="M873.3196,-439.9613C949.0281,-432.7948 1064.858,-417.9645 1161.7439,-389 1163.6551,-388.4286 1165.5978,-387.7709 1167.5367,-387.0558"/>
<polygon fill="#191970" stroke="#191970" points="1169.1284,-390.1853 1177.0379,-383.1362 1166.4588,-383.7143 1169.1284,-390.1853"/>
</g>
<!-- Node31 -->
<g id="node32" class="node">
<title>Node31</title>
<polygon fill="#ffffff" stroke="#bfbfbf" points="1239.7439,-364 1239.7439,-383 1289.7439,-383 1289.7439,-364 1239.7439,-364"/>
<text text-anchor="middle" x="1264.7439" y="-371" font-family="Helvetica,sans-Serif" font-size="10.00" fill="#000000">cstring</text>
</g>
<!-- Node0&#45;&gt;Node31 -->
<g id="edge46" class="edge">
<title>Node0&#45;&gt;Node31</title>
<path fill="none" stroke="#191970" d="M873.3176,-442.7023C962.3048,-437.4144 1109.0949,-423.7927 1230.7439,-389 1232.7086,-388.4381 1234.7045,-387.7798 1236.6944,-387.0573"/>
<polygon fill="#191970" stroke="#191970" points="1238.5007,-390.099 1246.4187,-383.0594 1235.8389,-383.6248 1238.5007,-390.099"/>
</g>
<!-- Node32 -->
<g id="node33" class="node">
<title>Node32</title>
<g id="a_node33"><a xlink:href="explicit__instantiations_8inc_8cpp.html" target="_top" xlink:title="file listing all template instances in the backend ">
<polygon fill="#ffffff" stroke="#000000" points="29.2439,-56.5 29.2439,-75.5 200.2439,-75.5 200.2439,-56.5 29.2439,-56.5"/>
<text text-anchor="middle" x="114.7439" y="-63.5" font-family="Helvetica,sans-Serif" font-size="10.00" fill="#000000">../explicit_instantiations.inc.cpp</text>
</a>
</g>
</g>
<!-- Node0&#45;&gt;Node32 -->
<g id="edge48" class="edge">
<title>Node0&#45;&gt;Node32</title>
<path fill="none" stroke="#191970" d="M712.1626,-442.0085C587.5598,-435.0131 354.3907,-418.4118 276.7439,-389 217.2422,-366.4613 159.7439,-370.1274 159.7439,-306.5 159.7439,-306.5 159.7439,-306.5 159.7439,-178 159.7439,-142.7698 140.336,-105.5087 127.0115,-84.0783"/>
<polygon fill="#191970" stroke="#191970" points="129.9426,-82.1655 121.5784,-75.6623 124.0616,-85.9621 129.9426,-82.1655"/>
</g>
<!-- Node2 -->
<g id="node3" class="node">
<title>Node2</title>
<polygon fill="#ffffff" stroke="#bfbfbf" points="838.7439,-168.5 838.7439,-187.5 882.7439,-187.5 882.7439,-168.5 838.7439,-168.5"/>
<text text-anchor="middle" x="860.7439" y="-175.5" font-family="Helvetica,sans-Serif" font-size="10.00" fill="#000000">string</text>
</g>
<!-- Node1&#45;&gt;Node2 -->
<g id="edge2" class="edge">
<title>Node1&#45;&gt;Node2</title>
<path fill="none" stroke="#191970" d="M680.9652,-224.4554C727.5075,-212.4287 791.0053,-196.0207 828.7509,-186.2671"/>
<polygon fill="#191970" stroke="#191970" points="829.8723,-189.5923 838.6787,-183.7017 828.121,-182.815 829.8723,-189.5923"/>
</g>
<!-- Node3 -->
<g id="node4" class="node">
<title>Node3</title>
<g id="a_node4"><a xlink:href="env_8hpp.html" target="_top" xlink:title="This file provides facilities for handling environment variables. ">
<polygon fill="#ffffff" stroke="#000000" points="697.2439,-168.5 697.2439,-187.5 782.2439,-187.5 782.2439,-168.5 697.2439,-168.5"/>
<text text-anchor="middle" x="739.7439" y="-175.5" font-family="Helvetica,sans-Serif" font-size="10.00" fill="#000000">../env/env.hpp</text>
</a>
</g>
</g>
<!-- Node1&#45;&gt;Node3 -->
<g id="edge3" class="edge">
<title>Node1&#45;&gt;Node3</title>
<path fill="none" stroke="#191970" d="M651.3653,-224.4554C670.0308,-214.644 694.2438,-201.9167 712.605,-192.2653"/>
<polygon fill="#191970" stroke="#191970" points="714.3899,-195.2812 721.613,-187.5303 711.1329,-189.0851 714.3899,-195.2812"/>
</g>
<!-- Node5 -->
<g id="node6" class="node">
<title>Node5</title>
<g id="a_node6"><a xlink:href="data__distribution_8hpp.html" target="_top" xlink:title="This file provides an abstraction layer for distributing the shared memory space. ...">
<polygon fill="#ffffff" stroke="#000000" points="558.7439,-168.5 558.7439,-187.5 678.7439,-187.5 678.7439,-168.5 558.7439,-168.5"/>
<text text-anchor="middle" x="618.7439" y="-175.5" font-family="Helvetica,sans-Serif" font-size="10.00" fill="#000000">data_distribution.hpp</text>
</a>
</g>
</g>
<!-- Node1&#45;&gt;Node5 -->
<g id="edge5" class="edge">
<title>Node1&#45;&gt;Node5</title>
<path fill="none" stroke="#191970" d="M621.7551,-224.2977C621.2403,-216.3834 620.6043,-206.6043 620.0496,-198.0759"/>
<polygon fill="#191970" stroke="#191970" points="623.5261,-197.5986 619.3843,-187.8469 616.5408,-198.053 623.5261,-197.5986"/>
</g>
<!-- Node3&#45;&gt;Node4 -->
<g id="edge4" class="edge">
<title>Node3&#45;&gt;Node4</title>
<path fill="none" stroke="#191970" d="M782.3333,-170.1871C787.1857,-169.3984 792.0667,-168.65 796.7439,-168 948.304,-146.9379 991.3553,-160.9615 1144.8361,-132.0968"/>
<polygon fill="#191970" stroke="#191970" points="1145.9429,-135.4486 1155.1076,-130.1327 1144.6282,-128.5732 1145.9429,-135.4486"/>
</g>
<!-- Node6 -->
<g id="node7" class="node">
<title>Node6</title>
<g id="a_node7"><a xlink:href="base__distribution_8hpp.html" target="_top" xlink:title="This file implements the base distribution class for all the policies to derive from. ">
<polygon fill="#ffffff" stroke="#000000" points="637.7439,-56.5 637.7439,-75.5 759.7439,-75.5 759.7439,-56.5 637.7439,-56.5"/>
<text text-anchor="middle" x="698.7439" y="-63.5" font-family="Helvetica,sans-Serif" font-size="10.00" fill="#000000">base_distribution.hpp</text>
</a>
</g>
</g>
<!-- Node5&#45;&gt;Node6 -->
<g id="edge6" class="edge">
<title>Node5&#45;&gt;Node6</title>
<path fill="none" stroke="#191970" d="M678.9473,-169.2218C681.9211,-168.8048 684.8659,-168.3955 687.7439,-168 749.239,-159.5482 923.7774,-178.6351 964.7439,-132 970.6103,-125.3218 970.4687,-118.7999 964.7439,-112 940.2901,-82.9545 840.2304,-72.2489 770.0683,-68.3031"/>
<polygon fill="#191970" stroke="#191970" points="770.1166,-64.8009 759.946,-67.7686 769.7475,-71.7911 770.1166,-64.8009"/>
</g>
<!-- Node11 -->
<g id="node12" class="node">
<title>Node11</title>
<g id="a_node12"><a xlink:href="naive__distribution_8hpp.html" target="_top" xlink:title="This file implements the naive data distribution. ">
<polygon fill="#ffffff" stroke="#000000" points="1012.2439,-112.5 1012.2439,-131.5 1137.2439,-131.5 1137.2439,-112.5 1012.2439,-112.5"/>
<text text-anchor="middle" x="1074.7439" y="-119.5" font-family="Helvetica,sans-Serif" font-size="10.00" fill="#000000">naive_distribution.hpp</text>
</a>
</g>
</g>
<!-- Node5&#45;&gt;Node11 -->
<g id="edge11" class="edge">
<title>Node5&#45;&gt;Node11</title>
<path fill="none" stroke="#191970" d="M678.9408,-169.1734C681.9163,-168.7693 684.8633,-168.3759 687.7439,-168 825.2813,-150.0511 860.0775,-148.9321 997.7439,-132 999.2072,-131.82 1000.6861,-131.6372 1002.1765,-131.452"/>
<polygon fill="#191970" stroke="#191970" points="1002.6512,-134.92 1012.1379,-130.2026 1001.78,-127.9744 1002.6512,-134.92"/>
</g>
<!-- Node12 -->
<g id="node13" class="node">
<title>Node12</title>
<g id="a_node13"><a xlink:href="cyclic__distribution_8hpp.html" target="_top" xlink:title="This file implements the cyclic data distribution. ">
<polygon fill="#ffffff" stroke="#000000" points="475.7439,-112.5 475.7439,-131.5 601.7439,-131.5 601.7439,-112.5 475.7439,-112.5"/>
<text text-anchor="middle" x="538.7439" y="-119.5" font-family="Helvetica,sans-Serif" font-size="10.00" fill="#000000">cyclic_distribution.hpp</text>
</a>
</g>
</g>
<!-- Node5&#45;&gt;Node12 -->
<g id="edge13" class="edge">
<title>Node5&#45;&gt;Node12</title>
<path fill="none" stroke="#191970" d="M604.8089,-168.2455C592.6492,-159.7337 574.7974,-147.2375 560.7154,-137.3801"/>
<polygon fill="#191970" stroke="#191970" points="562.7186,-134.51 552.5191,-131.6427 558.7043,-140.2447 562.7186,-134.51"/>
</g>
<!-- Node13 -->
<g id="node14" class="node">
<title>Node13</title>
<g id="a_node14"><a xlink:href="skew__mapp__distribution_8hpp.html" target="_top" xlink:title="This file implements the skew&#45;mapp data distribution. ">
<polygon fill="#ffffff" stroke="#000000" points="620.2439,-112.5 620.2439,-131.5 777.2439,-131.5 777.2439,-112.5 620.2439,-112.5"/>
<text text-anchor="middle" x="698.7439" y="-119.5" font-family="Helvetica,sans-Serif" font-size="10.00" fill="#000000">skew_mapp_distribution.hpp</text>
</a>
</g>
</g>
<!-- Node5&#45;&gt;Node13 -->
<g id="edge15" class="edge">
<title>Node5&#45;&gt;Node13</title>
<path fill="none" stroke="#191970" d="M632.6788,-168.2455C644.8385,-159.7337 662.6903,-147.2375 676.7723,-137.3801"/>
<polygon fill="#191970" stroke="#191970" points="678.7834,-140.2447 684.9686,-131.6427 674.7691,-134.51 678.7834,-140.2447"/>
</g>
<!-- Node14 -->
<g id="node15" class="node">
<title>Node14</title>
<g id="a_node15"><a xlink:href="prime__mapp__distribution_8hpp.html" target="_top" xlink:title="This file implements the prime&#45;mapp data distribution. ">
<polygon fill="#ffffff" stroke="#000000" points="795.7439,-112.5 795.7439,-131.5 955.7439,-131.5 955.7439,-112.5 795.7439,-112.5"/>
<text text-anchor="middle" x="875.7439" y="-119.5" font-family="Helvetica,sans-Serif" font-size="10.00" fill="#000000">prime_mapp_distribution.hpp</text>
</a>
</g>
</g>
<!-- Node5&#45;&gt;Node14 -->
<g id="edge17" class="edge">
<title>Node5&#45;&gt;Node14</title>
<path fill="none" stroke="#191970" d="M662.6317,-168.4369C706.7077,-158.8328 774.6919,-144.0191 821.9797,-133.7152"/>
<polygon fill="#191970" stroke="#191970" points="823.0115,-137.0725 832.037,-131.5237 821.5211,-130.233 823.0115,-137.0725"/>
</g>
<!-- Node15 -->
<g id="node16" class="node">
<title>Node15</title>
<g id="a_node16"><a xlink:href="first__touch__distribution_8hpp.html" target="_top" xlink:title="This file implements the first&#45;touch data distribution. ">
<polygon fill="#ffffff" stroke="#000000" points="308.2439,-112.5 308.2439,-131.5 457.2439,-131.5 457.2439,-112.5 308.2439,-112.5"/>
<text text-anchor="middle" x="382.7439" y="-119.5" font-family="Helvetica,sans-Serif" font-size="10.00" fill="#000000">first_touch_distribution.hpp</text>
</a>
</g>
</g>
<!-- Node5&#45;&gt;Node15 -->
<g id="edge19" class="edge">
<title>Node5&#45;&gt;Node15</title>
<path fill="none" stroke="#191970" d="M578.4422,-168.4369C538.1374,-158.8731 476.0618,-144.1432 432.6621,-133.845"/>
<polygon fill="#191970" stroke="#191970" points="433.4173,-130.4271 422.8793,-131.5237 431.8011,-137.238 433.4173,-130.4271"/>
</g>
<!-- Node7 -->
<g id="node8" class="node">
<title>Node7</title>
<polygon fill="#ffffff" stroke="#bfbfbf" points="601.2439,-.5 601.2439,-19.5 650.2439,-19.5 650.2439,-.5 601.2439,-.5"/>
<text text-anchor="middle" x="625.7439" y="-7.5" font-family="Helvetica,sans-Serif" font-size="10.00" fill="#000000">cstdlib</text>
</g>
<!-- Node6&#45;&gt;Node7 -->
<g id="edge7" class="edge">
<title>Node6&#45;&gt;Node7</title>
<path fill="none" stroke="#191970" d="M686.0282,-56.2455C675.1418,-47.8943 659.2556,-35.7076 646.5239,-25.9408"/>
<polygon fill="#191970" stroke="#191970" points="648.3784,-22.9523 638.3138,-19.6427 644.1178,-28.5063 648.3784,-22.9523"/>
</g>
<!-- Node8 -->
<g id="node9" class="node">
<title>Node8</title>
<polygon fill="#ffffff" stroke="#bfbfbf" points="668.7439,-.5 668.7439,-19.5 728.7439,-19.5 728.7439,-.5 668.7439,-.5"/>
<text text-anchor="middle" x="698.7439" y="-7.5" font-family="Helvetica,sans-Serif" font-size="10.00" fill="#000000">iostream</text>
</g>
<!-- Node6&#45;&gt;Node8 -->
<g id="edge8" class="edge">
<title>Node6&#45;&gt;Node8</title>
<path fill="none" stroke="#191970" d="M698.7439,-56.2455C698.7439,-48.9382 698.7439,-38.6944 698.7439,-29.7046"/>
<polygon fill="#191970" stroke="#191970" points="702.244,-29.6426 698.7439,-19.6427 695.244,-29.6427 702.244,-29.6426"/>
</g>
<!-- Node9 -->
<g id="node10" class="node">
<title>Node9</title>
<polygon fill="#ffffff" stroke="#bfbfbf" points="747.2439,-.5 747.2439,-19.5 828.2439,-19.5 828.2439,-.5 747.2439,-.5"/>
<text text-anchor="middle" x="787.7439" y="-7.5" font-family="Helvetica,sans-Serif" font-size="10.00" fill="#000000">system_error</text>
</g>
<!-- Node6&#45;&gt;Node9 -->
<g id="edge9" class="edge">
<title>Node6&#45;&gt;Node9</title>
<path fill="none" stroke="#191970" d="M714.2465,-56.2455C727.9018,-47.6534 748.0096,-35.0014 763.7428,-25.1018"/>
<polygon fill="#191970" stroke="#191970" points="765.8189,-27.9307 772.4189,-19.6427 762.091,-22.006 765.8189,-27.9307"/>
</g>
<!-- Node6&#45;&gt;Node10 -->
<g id="edge10" class="edge">
<title>Node6&#45;&gt;Node10</title>
<path fill="none" stroke="#191970" d="M637.6743,-59.0771C543.1525,-48.3621 362.4063,-27.8727 267.1055,-17.0693"/>
<polygon fill="#191970" stroke="#191970" points="267.3673,-13.5767 257.0367,-15.9279 266.5787,-20.5321 267.3673,-13.5767"/>
</g>
<!-- Node11&#45;&gt;Node6 -->
<g id="edge12" class="edge">
<title>Node11&#45;&gt;Node6</title>
<path fill="none" stroke="#191970" d="M1012.233,-112.6899C945.4571,-102.7445 839.8086,-87.0096 769.8913,-76.5964"/>
<polygon fill="#191970" stroke="#191970" points="770.2503,-73.1114 759.8438,-75.1 769.2191,-80.035 770.2503,-73.1114"/>
</g>
<!-- Node12&#45;&gt;Node6 -->
<g id="edge14" class="edge">
<title>Node12&#45;&gt;Node6</title>
<path fill="none" stroke="#191970" d="M566.2488,-112.3733C592.6241,-103.1419 632.629,-89.1402 661.7797,-78.9375"/>
<polygon fill="#191970" stroke="#191970" points="663.3155,-82.1082 671.5978,-75.5011 661.003,-75.5012 663.3155,-82.1082"/>
</g>
<!-- Node13&#45;&gt;Node6 -->
<g id="edge16" class="edge">
<title>Node13&#45;&gt;Node6</title>
<path fill="none" stroke="#191970" d="M698.7439,-112.2455C698.7439,-104.9382 698.7439,-94.6944 698.7439,-85.7046"/>
<polygon fill="#191970" stroke="#191970" points="702.244,-85.6426 698.7439,-75.6427 695.244,-85.6427 702.244,-85.6426"/>
</g>
<!-- Node14&#45;&gt;Node6 -->
<g id="edge18" class="edge">
<title>Node14&#45;&gt;Node6</title>
<path fill="none" stroke="#191970" d="M845.3165,-112.3733C815.7567,-103.021 770.7213,-88.7725 738.3744,-78.5385"/>
<polygon fill="#191970" stroke="#191970" points="739.3642,-75.1807 728.7742,-75.5011 737.2526,-81.8546 739.3642,-75.1807"/>
</g>
<!-- Node15&#45;&gt;Node6 -->
<g id="edge21" class="edge">
<title>Node15&#45;&gt;Node6</title>
<path fill="none" stroke="#191970" d="M436.7071,-112.4369C491.5834,-102.712 576.6008,-87.6456 634.8188,-77.3285"/>
<polygon fill="#191970" stroke="#191970" points="635.7673,-80.715 645.0032,-75.5237 634.5458,-73.8224 635.7673,-80.715"/>
</g>
<!-- Node15&#45;&gt;Node16 -->
<g id="edge20" class="edge">
<title>Node15&#45;&gt;Node16</title>
<path fill="none" stroke="#191970" d="M358.677,-112.3733C335.901,-103.2629 301.5095,-89.5062 276.0948,-79.3404"/>
<polygon fill="#191970" stroke="#191970" points="277.0813,-75.9654 266.4967,-75.5011 274.4816,-82.4648 277.0813,-75.9654"/>
</g>
<!-- Node17&#45;&gt;Node2 -->
<g id="edge24" class="edge">
<title>Node17&#45;&gt;Node2</title>
<path fill="none" stroke="#191970" d="M870.1406,-363.6287C869.5137,-353.2631 868.518,-336.4883 867.7439,-322 865.3729,-277.6261 862.9238,-225.5418 861.6453,-197.7836"/>
<polygon fill="#191970" stroke="#191970" points="865.1411,-197.6086 861.1868,-187.7793 858.1484,-197.9291 865.1411,-197.6086"/>
</g>
<!-- Node18 -->
<g id="node19" class="node">
<title>Node18</title>
<polygon fill="#ffffff" stroke="#bfbfbf" points="714.2439,-230 714.2439,-249 779.2439,-249 779.2439,-230 714.2439,-230"/>
<text text-anchor="middle" x="746.7439" y="-237" font-family="Helvetica,sans-Serif" font-size="10.00" fill="#000000">stdexcept</text>
</g>
<!-- Node17&#45;&gt;Node18 -->
<g id="edge23" class="edge">
<title>Node17&#45;&gt;Node18</title>
<path fill="none" stroke="#191970" d="M861.8261,-363.8631C841.0027,-341.3603 788.9513,-285.1112 762.5837,-256.6173"/>
<polygon fill="#191970" stroke="#191970" points="764.9416,-254.0121 755.5808,-249.0496 759.8039,-258.7665 764.9416,-254.0121"/>
</g>
<!-- Node19 -->
<g id="node20" class="node">
<title>Node19</title>
<polygon fill="#ffffff" stroke="#bfbfbf" points="984.2439,-230 984.2439,-249 1029.2439,-249 1029.2439,-230 984.2439,-230"/>
<text text-anchor="middle" x="1006.7439" y="-237" font-family="Helvetica,sans-Serif" font-size="10.00" fill="#000000">utility</text>
</g>
<!-- Node17&#45;&gt;Node19 -->
<g id="edge25" class="edge">
<title>Node17&#45;&gt;Node19</title>
<path fill="none" stroke="#191970" d="M886.1056,-363.8962C900.9156,-354.2593 923.5503,-338.5118 940.7439,-322 961.8109,-301.7682 982.2065,-274.7844 994.6144,-257.2769"/>
<polygon fill="#191970" stroke="#191970" points="997.4873,-259.2761 1000.3361,-249.0714 991.7454,-255.2722 997.4873,-259.2761"/>
</g>
<!-- Node20 -->
<g id="node21" class="node">
<title>Node20</title>
<polygon fill="#ffffff" stroke="#bfbfbf" points="877.2439,-297 877.2439,-316 932.2439,-316 932.2439,-297 877.2439,-297"/>
<text text-anchor="middle" x="904.7439" y="-304" font-family="Helvetica,sans-Serif" font-size="10.00" fill="#000000">signal.h</text>
</g>
<!-- Node17&#45;&gt;Node20 -->
<g id="edge26" class="edge">
<title>Node17&#45;&gt;Node20</title>
<path fill="none" stroke="#191970" d="M875.6152,-363.9005C880.7153,-353.8505 888.8541,-337.8122 895.2339,-325.2403"/>
<polygon fill="#191970" stroke="#191970" points="898.4773,-326.583 899.8815,-316.0817 892.2351,-323.4153 898.4773,-326.583"/>
</g>
<!-- Node17&#45;&gt;Node21 -->
<g id="edge27" class="edge">
<title>Node17&#45;&gt;Node21</title>
<path fill="none" stroke="#191970" d="M896.9633,-363.9005C924.6065,-353.7798 968.8363,-337.5864 1003.2806,-324.9756"/>
<polygon fill="#191970" stroke="#191970" points="1004.5272,-328.2465 1012.7143,-321.5218 1002.1205,-321.6732 1004.5272,-328.2465"/>
</g>
<!-- Node21&#45;&gt;Node19 -->
<g id="edge28" class="edge">
<title>Node21&#45;&gt;Node19</title>
<path fill="none" stroke="#191970" d="M1043.0788,-291.2967C1036.0404,-281.2631 1026.7861,-268.0709 1019.3787,-257.5113"/>
<polygon fill="#191970" stroke="#191970" points="1022.0548,-255.2316 1013.4466,-249.055 1016.3242,-259.2516 1022.0548,-255.2316"/>
</g>
<!-- Node22&#45;&gt;Node1 -->
<g id="edge36" class="edge">
<title>Node22&#45;&gt;Node1</title>
<path fill="none" stroke="#191970" d="M696.9329,-358.2596C711.0099,-341.2009 728.7453,-313.0615 715.7439,-291 707.6728,-277.3045 694.505,-266.995 680.5837,-259.3433"/>
<polygon fill="#191970" stroke="#191970" points="681.8766,-256.0752 671.3727,-254.69 678.7202,-262.3232 681.8766,-256.0752"/>
</g>
<!-- Node22&#45;&gt;Node23 -->
<g id="edge30" class="edge">
<title>Node22&#45;&gt;Node23</title>
<path fill="none" stroke="#191970" d="M634.7181,-358.4639C596.7581,-346.5792 544.3969,-330.1858 508.7036,-319.0108"/>
<polygon fill="#191970" stroke="#191970" points="509.693,-315.6531 499.104,-316.0053 507.6015,-322.3333 509.693,-315.6531"/>
</g>
<!-- Node26 -->
<g id="node27" class="node">
<title>Node26</title>
<polygon fill="#ffffff" stroke="#bfbfbf" points="590.7439,-297 590.7439,-316 640.7439,-316 640.7439,-297 590.7439,-297"/>
<text text-anchor="middle" x="615.7439" y="-304" font-family="Helvetica,sans-Serif" font-size="10.00" fill="#000000">chrono</text>
</g>
<!-- Node22&#45;&gt;Node26 -->
<g id="edge37" class="edge">
<title>Node22&#45;&gt;Node26</title>
<path fill="none" stroke="#191970" d="M667.5405,-358.2967C657.1016,-347.8578 643.2435,-333.9997 632.4885,-323.2446"/>
<polygon fill="#191970" stroke="#191970" points="634.8448,-320.6512 625.2988,-316.055 629.895,-325.601 634.8448,-320.6512"/>
</g>
<!-- Node27 -->
<g id="node28" class="node">
<title>Node27</title>
<polygon fill="#ffffff" stroke="#bfbfbf" points="658.7439,-297 658.7439,-316 706.7439,-316 706.7439,-297 658.7439,-297"/>
<text text-anchor="middle" x="682.7439" y="-304" font-family="Helvetica,sans-Serif" font-size="10.00" fill="#000000">thread</text>
</g>
<!-- Node22&#45;&gt;Node27 -->
<g id="edge38" class="edge">
<title>Node22&#45;&gt;Node27</title>
<path fill="none" stroke="#191970" d="M682.7439,-358.2967C682.7439,-348.7699 682.7439,-336.3954 682.7439,-326.1306"/>
<polygon fill="#191970" stroke="#191970" points="686.244,-326.0549 682.7439,-316.055 679.244,-326.055 686.244,-326.0549"/>
</g>
<!-- Node23&#45;&gt;Node1 -->
<g id="edge34" class="edge">
<title>Node23&#45;&gt;Node1</title>
<path fill="none" stroke="#191970" d="M490.8083,-296.9005C513.6732,-286.9528 550.0232,-271.1382 578.784,-258.6254"/>
<polygon fill="#191970" stroke="#191970" points="580.4428,-261.7207 588.2162,-254.5218 577.6501,-255.3018 580.4428,-261.7207"/>
</g>
<!-- Node23&#45;&gt;Node10 -->
<g id="edge35" class="edge">
<title>Node23&#45;&gt;Node10</title>
<path fill="none" stroke="#191970" d="M450.1804,-296.904C433.277,-287.613 408.2118,-272.4048 389.7439,-255 340.2562,-208.3613 329.2626,-192.7684 298.7439,-132 282.9056,-100.463 296.9574,-84.2031 275.7439,-56 265.7012,-42.6484 250.5654,-32.0801 236.8452,-24.4576"/>
<polygon fill="#191970" stroke="#191970" points="238.1366,-21.1833 227.6528,-19.6531 234.8941,-27.3871 238.1366,-21.1833"/>
</g>
<!-- Node23&#45;&gt;Node18 -->
<g id="edge33" class="edge">
<title>Node23&#45;&gt;Node18</title>
<path fill="none" stroke="#191970" d="M516.8427,-296.9266C563.3834,-287.3712 635.7828,-271.7346 697.7439,-255 701.1638,-254.0763 704.7015,-253.0663 708.2383,-252.019"/>
<polygon fill="#191970" stroke="#191970" points="709.5607,-255.2749 718.1043,-249.0093 707.5182,-248.5795 709.5607,-255.2749"/>
</g>
<!-- Node24 -->
<g id="node25" class="node">
<title>Node24</title>
<polygon fill="#ffffff" stroke="#bfbfbf" points="466.7439,-230 466.7439,-249 518.7439,-249 518.7439,-230 466.7439,-230"/>
<text text-anchor="middle" x="492.7439" y="-237" font-family="Helvetica,sans-Serif" font-size="10.00" fill="#000000">cassert</text>
</g>
<!-- Node23&#45;&gt;Node24 -->
<g id="edge31" class="edge">
<title>Node23&#45;&gt;Node24</title>
<path fill="none" stroke="#191970" d="M472.1825,-296.9005C475.7469,-286.95 481.414,-271.1292 485.8968,-258.6147"/>
<polygon fill="#191970" stroke="#191970" points="489.2343,-259.6762 489.3116,-249.0817 482.6443,-257.3156 489.2343,-259.6762"/>
</g>
<!-- Node25 -->
<g id="node26" class="node">
<title>Node25</title>
<polygon fill="#ffffff" stroke="#bfbfbf" points="398.7439,-230 398.7439,-249 448.7439,-249 448.7439,-230 398.7439,-230"/>
<text text-anchor="middle" x="423.7439" y="-237" font-family="Helvetica,sans-Serif" font-size="10.00" fill="#000000">cstdint</text>
</g>
<!-- Node23&#45;&gt;Node25 -->
<g id="edge32" class="edge">
<title>Node23&#45;&gt;Node25</title>
<path fill="none" stroke="#191970" d="M462.2965,-296.9005C455.4128,-286.6515 444.3463,-270.1747 435.8318,-257.4976"/>
<polygon fill="#191970" stroke="#191970" points="438.6604,-255.4316 430.1793,-249.0817 432.8494,-259.3345 438.6604,-255.4316"/>
</g>
<!-- Node32&#45;&gt;Node10 -->
<g id="edge49" class="edge">
<title>Node32&#45;&gt;Node10</title>
<path fill="none" stroke="#191970" d="M130.4207,-56.2455C144.2294,-47.6534 164.5631,-35.0014 180.4731,-25.1018"/>
<polygon fill="#191970" stroke="#191970" points="182.6052,-27.8974 189.2467,-19.6427 178.9071,-21.954 182.6052,-27.8974"/>
</g>
</g>
</svg>
        <g id="navigator" transform="translate(0 0)" fill="#404254">
                <rect fill="#f2f5e9" fill-opacity="0.5" stroke="#606060" stroke-width=".5" x="0" y="0" width="60" height="60"/>
                <use id="zoomplus" xlink:href="#zoomPlus" x="17" y="9" onmousedown="handleZoom(evt,'in')"/>
                <use id="zoomminus" xlink:href="#zoomMin" x="42" y="9" onmousedown="handleZoom(evt,'out')"/>
                <use id="reset" xlink:href="#resetDef" x="30" y="36" onmousedown="handleReset()"/>
                <g id="arrowUp" xlink:href="#dirArrow" transform="translate(30 24)" onmousedown="handlePan(0,-1)">
                  <use xlink:href="#rim" fill="#404040">
                        <set attributeName="fill" to="#808080" begin="arrowUp.mouseover" end="arrowUp.mouseout"/>
                  </use>
                  <path fill="none" stroke="white" stroke-width="1.5" d="M0,-3.0v7 M-2.5,-0.5L0,-3.0L2.5,-0.5"/>
                </g>
                <g id="arrowRight" xlink:href="#dirArrow" transform="rotate(90) translate(36 -43)" onmousedown="handlePan(1,0)">
                  <use xlink:href="#rim" fill="#404040">
                        <set attributeName="fill" to="#808080" begin="arrowRight.mouseover" end="arrowRight.mouseout"/>
                  </use>
                  <path fill="none" stroke="white" stroke-width="1.5" d="M0,-3.0v7 M-2.5,-0.5L0,-3.0L2.5,-0.5"/>
                </g>
                <g id="arrowDown" xlink:href="#dirArrow" transform="rotate(180) translate(-30 -48)" onmousedown="handlePan(0,1)">
                  <use xlink:href="#rim" fill="#404040">
                        <set attributeName="fill" to="#808080" begin="arrowDown.mouseover" end="arrowDown.mouseout"/>
                  </use>
                  <path fill="none" stroke="white" stroke-width="1.5" d="M0,-3.0v7 M-2.5,-0.5L0,-3.0L2.5,-0.5"/>
                </g>
                <g id="arrowLeft" xlink:href="#dirArrow" transform="rotate(270) translate(-36 17)" onmousedown="handlePan(-1,0)">
                  <use xlink:href="#rim" fill="#404040">
                        <set attributeName="fill" to="#808080" begin="arrowLeft.mouseover" end="arrowLeft.mouseout"/>
                  </use>
                  <path fill="none" stroke="white" stroke-width="1.5" d="M0,-3.0v7 M-2.5,-0.5L0,-3.0L2.5,-0.5"/>
                </g>
        </g>
        <svg viewBox="0 0 15 15" width="100%" height="30px" preserveAspectRatio="xMaxYMin meet">
         <g id="arrow_out" transform="scale(0.3 0.3)">
          <a xlink:href="singlenode_8cpp__incl_org.svg" target="_base">
           <rect id="button" ry="5" rx="5" y="6" x="6" height="38" width="38"
                fill="#f2f5e9" fill-opacity="0.5" stroke="#606060" stroke-width="1.0"/>
           <path id="arrow"
             d="M 11.500037,31.436501 C 11.940474,20.09759 22.043105,11.32322 32.158766,21.979434 L 37.068811,17.246167 C 37.068811,17.246167 37.088388,32 37.088388,32 L 22.160133,31.978069 C 22.160133,31.978069 26.997745,27.140456 26.997745,27.140456 C 18.528582,18.264221 13.291696,25.230495 11.500037,31.436501 z"
             style="fill:#404040;"/>
          </a>
         </g>
        </svg>
</svg>
