<?xml version="1.0" encoding="UTF-8" standalone="no"?>
<!DOCTYPE svg PUBLIC "-//W3C//DTD SVG 1.1//EN"
 "http://www.w3.org/Graphics/SVG/1.1/DTD/svg11.dtd">
<!-- Generated by graphviz version 2.40.1 (20161225.0304)
 -->
<!-- Title: dynamic_alloc Pages: 1 -->
<svg width="226pt" height="104pt"
 viewBox="0.00 0.00 226.00 104.00" xmlns="http://www.w3.org/2000/svg" xmlns:xlink="http://www.w3.org/1999/xlink">
<g id="graph0" class="graph" transform="scale(1 1) rotate(0) translate(4 100)">
<title>dynamic_alloc</title>
<polygon fill="#ffffff" stroke="transparent" points="-4,4 -4,-100 222,-100 222,4 -4,4"/>
<!-- Node2 -->
<g id="node1" class="node">
<title>Node2</title>
<polygon fill="#bfbfbf" stroke="#000000" points="0,-38.5 0,-57.5 87,-57.5 87,-38.5 0,-38.5"/>
<text text-anchor="middle" x="43.5" y="-45.5" font-family="Helvetica,sans-Serif" font-size="10.00" fill="#000000">dynamic_alloc</text>
</g>
<!-- Node3 -->
<g id="node2" class="node">
<title>Node3</title>
<g id="a_node2"><a xlink:href="tests_2allocators_8cpp_a100f23c9297b2b8356f61ededc2431a5.html#a100f23c9297b2b8356f61ededc2431a5" target="_top" xlink:title="Unittest that checks that allocating 0 bytes dynamically by all nodes is allowed. ...">
<polygon fill="#ffffff" stroke="#000000" points="145,-76.5 145,-95.5 196,-95.5 196,-76.5 145,-76.5"/>
<text text-anchor="middle" x="170.5" y="-83.5" font-family="Helvetica,sans-Serif" font-size="10.00" fill="#000000">TEST_F</text>
</a>
</g>
</g>
<!-- Node2&#45;&gt;Node3 -->
<g id="edge1" class="edge">
<title>Node2&#45;&gt;Node3</title>
<path fill="none" stroke="#191970" d="M85.2095,-60.48C104.8947,-66.3701 127.7594,-73.2115 144.857,-78.3273"/>
<polygon fill="#191970" stroke="#191970" points="86.1311,-57.1025 75.5475,-57.589 84.1245,-63.8088 86.1311,-57.1025"/>
</g>
<!-- Node4 -->
<g id="node3" class="node">
<title>Node4</title>
<g id="a_node3"><a xlink:href="namespaceargo_abf8f4f896d56dcc711d50e395ff02bf6.html#abf8f4f896d56dcc711d50e395ff02bf6" target="_top" xlink:title="template function to construct new objects ">
<polygon fill="#ffffff" stroke="#000000" points="135.5,-38.5 135.5,-57.5 205.5,-57.5 205.5,-38.5 135.5,-38.5"/>
<text text-anchor="middle" x="170.5" y="-45.5" font-family="Helvetica,sans-Serif" font-size="10.00" fill="#000000">argo::new_</text>
</a>
</g>
</g>
<!-- Node2&#45;&gt;Node4 -->
<g id="edge2" class="edge">
<title>Node2&#45;&gt;Node4</title>
<path fill="none" stroke="#191970" d="M97.3013,-48C110.0835,-48 123.4026,-48 135.1208,-48"/>
<polygon fill="#191970" stroke="#191970" points="97.2062,-44.5001 87.2062,-48 97.2062,-51.5001 97.2062,-44.5001"/>
</g>
<!-- Node5 -->
<g id="node4" class="node">
<title>Node5</title>
<g id="a_node4"><a xlink:href="namespaceargo_a9fef671adb114cd54a04a846d5a860dd.html#a9fef671adb114cd54a04a846d5a860dd" target="_top" xlink:title="Construct a new array of objects in the global memory. ">
<polygon fill="#ffffff" stroke="#000000" points="123,-.5 123,-19.5 218,-19.5 218,-.5 123,-.5"/>
<text text-anchor="middle" x="170.5" y="-7.5" font-family="Helvetica,sans-Serif" font-size="10.00" fill="#000000">argo::new_array</text>
</a>
</g>
</g>
<!-- Node2&#45;&gt;Node5 -->
<g id="edge3" class="edge">
<title>Node2&#45;&gt;Node5</title>
<path fill="none" stroke="#191970" d="M85.3943,-35.4647C102.6712,-30.2952 122.3707,-24.4009 138.4628,-19.5859"/>
<polygon fill="#191970" stroke="#191970" points="84.1245,-32.1912 75.5475,-38.411 86.1311,-38.8975 84.1245,-32.1912"/>
</g>
</g>
</svg>
