<?xml version="1.0" encoding="UTF-8" standalone="no"?>
<!DOCTYPE svg PUBLIC "-//W3C//DTD SVG 1.1//EN"
 "http://www.w3.org/Graphics/SVG/1.1/DTD/svg11.dtd">
<!-- Generated by graphviz version 2.40.1 (20161225.0304)
 -->
<!-- Title: collective_alloc Pages: 1 -->
<svg width="243pt" height="104pt"
 viewBox="0.00 0.00 243.00 104.00" xmlns="http://www.w3.org/2000/svg" xmlns:xlink="http://www.w3.org/1999/xlink">
<g id="graph0" class="graph" transform="scale(1 1) rotate(0) translate(4 100)">
<title>collective_alloc</title>
<polygon fill="#ffffff" stroke="transparent" points="-4,4 -4,-100 239,-100 239,4 -4,4"/>
<!-- Node2 -->
<g id="node1" class="node">
<title>Node2</title>
<polygon fill="#bfbfbf" stroke="#000000" points="0,-38.5 0,-57.5 92,-57.5 92,-38.5 0,-38.5"/>
<text text-anchor="middle" x="46" y="-45.5" font-family="Helvetica,sans-Serif" font-size="10.00" fill="#000000">collective_alloc</text>
</g>
<!-- Node3 -->
<g id="node2" class="node">
<title>Node3</title>
<g id="a_node2"><a xlink:href="tests_2allocators_8cpp_a1837b5eb3f1a85c0c59ad6405738e398.html#a1837b5eb3f1a85c0c59ad6405738e398" target="_top" xlink:title="Unittest that checks that allocating 0 bytes collectively is allowed. ">
<polygon fill="#ffffff" stroke="#000000" points="156,-76.5 156,-95.5 207,-95.5 207,-76.5 156,-76.5"/>
<text text-anchor="middle" x="181.5" y="-83.5" font-family="Helvetica,sans-Serif" font-size="10.00" fill="#000000">TEST_F</text>
</a>
</g>
</g>
<!-- Node2&#45;&gt;Node3 -->
<g id="edge1" class="edge">
<title>Node2&#45;&gt;Node3</title>
<path fill="none" stroke="#191970" d="M89.9069,-60.3134C111.713,-66.4287 137.2963,-73.6034 155.8741,-78.8134"/>
<polygon fill="#191970" stroke="#191970" points="90.766,-56.9193 80.1924,-57.589 88.8758,-63.6593 90.766,-56.9193"/>
</g>
<!-- Node4 -->
<g id="node3" class="node">
<title>Node4</title>
<g id="a_node3"><a xlink:href="namespaceargo_a43db7086bc5f4070897fc687ea7e950c.html#a43db7086bc5f4070897fc687ea7e950c" target="_top" xlink:title="template function to construct new objects using collective allocation ">
<polygon fill="#ffffff" stroke="#000000" points="141,-38.5 141,-57.5 222,-57.5 222,-38.5 141,-38.5"/>
<text text-anchor="middle" x="181.5" y="-45.5" font-family="Helvetica,sans-Serif" font-size="10.00" fill="#000000">argo::conew_</text>
</a>
</g>
</g>
<!-- Node2&#45;&gt;Node4 -->
<g id="edge2" class="edge">
<title>Node2&#45;&gt;Node4</title>
<path fill="none" stroke="#191970" d="M102.4416,-48C115.3435,-48 128.8083,-48 140.8929,-48"/>
<polygon fill="#191970" stroke="#191970" points="102.2525,-44.5001 92.2524,-48 102.2524,-51.5001 102.2525,-44.5001"/>
</g>
<!-- Node5 -->
<g id="node4" class="node">
<title>Node5</title>
<g id="a_node4"><a xlink:href="namespaceargo_a532a530aefb04b559d017b8ac402feb5.html#a532a530aefb04b559d017b8ac402feb5" target="_top" xlink:title="Collectively construct a new array of objects in the global memory. ">
<polygon fill="#ffffff" stroke="#000000" points="128,-.5 128,-19.5 235,-19.5 235,-.5 128,-.5"/>
<text text-anchor="middle" x="181.5" y="-7.5" font-family="Helvetica,sans-Serif" font-size="10.00" fill="#000000">argo::conew_array</text>
</a>
</g>
</g>
<!-- Node2&#45;&gt;Node5 -->
<g id="edge3" class="edge">
<title>Node2&#45;&gt;Node5</title>
<path fill="none" stroke="#191970" d="M89.9246,-35.6817C108.5414,-30.4607 129.9087,-24.4684 147.3186,-19.5859"/>
<polygon fill="#191970" stroke="#191970" points="88.8758,-32.3407 80.1924,-38.411 90.766,-39.0807 88.8758,-32.3407"/>
</g>
</g>
</svg>
