<?xml version="1.0" encoding="UTF-8" standalone="no"?>
<!DOCTYPE svg PUBLIC "-//W3C//DTD SVG 1.1//EN"
 "http://www.w3.org/Graphics/SVG/1.1/DTD/svg11.dtd">
<!-- Generated by graphviz version 2.40.1 (20161225.0304)
 -->
<!-- Title: /home/atmerhannah/argodsm/src/allocators/allocators.cpp Pages: 1 -->
<svg width="1166pt" height="632pt"
 viewBox="0.00 0.00 1166.19 632.00" xmlns="http://www.w3.org/2000/svg" xmlns:xlink="http://www.w3.org/1999/xlink">
<g id="graph0" class="graph" transform="scale(1 1) rotate(0) translate(4 628)">
<title>/home/atmerhannah/argodsm/src/allocators/allocators.cpp</title>
<polygon fill="#ffffff" stroke="transparent" points="-4,4 -4,-628 1162.1949,-628 1162.1949,4 -4,4"/>
<!-- Node0 -->
<g id="node1" class="node">
<title>Node0</title>
<polygon fill="#bfbfbf" stroke="#000000" points="344.6949,-593.5 344.6949,-623.5 505.6949,-623.5 505.6949,-593.5 344.6949,-593.5"/>
<text text-anchor="start" x="352.6949" y="-611.5" font-family="Helvetica,sans-Serif" font-size="10.00" fill="#000000">/home/atmerhannah/argodsm</text>
<text text-anchor="middle" x="425.1949" y="-600.5" font-family="Helvetica,sans-Serif" font-size="10.00" fill="#000000">/src/allocators/allocators.cpp</text>
</g>
<!-- Node1 -->
<g id="node2" class="node">
<title>Node1</title>
<g id="a_node2"><a xlink:href="collective__allocator_8hpp.html" target="_top" xlink:title="This file provides the collective allocator for ArgoDSM. ">
<polygon fill="#ffffff" stroke="#000000" points="424.1949,-537.5 424.1949,-556.5 556.1949,-556.5 556.1949,-537.5 424.1949,-537.5"/>
<text text-anchor="middle" x="490.1949" y="-544.5" font-family="Helvetica,sans-Serif" font-size="10.00" fill="#000000">collective_allocator.hpp</text>
</a>
</g>
</g>
<!-- Node0&#45;&gt;Node1 -->
<g id="edge1" class="edge">
<title>Node0&#45;&gt;Node1</title>
<path fill="none" stroke="#191970" d="M441.2623,-593.2977C450.6609,-584.4052 462.5477,-573.1586 472.2519,-563.9769"/>
<polygon fill="#191970" stroke="#191970" points="474.9291,-566.2621 479.7876,-556.8469 470.1181,-561.1774 474.9291,-566.2621"/>
</g>
<!-- Node34 -->
<g id="node35" class="node">
<title>Node34</title>
<g id="a_node35"><a xlink:href="dynamic__allocator_8hpp.html" target="_top" xlink:title="This file provides the dynamic allocator for ArgoDSM. ">
<polygon fill="#ffffff" stroke="#000000" points="293.6949,-481.5 293.6949,-500.5 420.6949,-500.5 420.6949,-481.5 293.6949,-481.5"/>
<text text-anchor="middle" x="357.1949" y="-488.5" font-family="Helvetica,sans-Serif" font-size="10.00" fill="#000000">dynamic_allocator.hpp</text>
</a>
</g>
</g>
<!-- Node0&#45;&gt;Node34 -->
<g id="edge64" class="edge">
<title>Node0&#45;&gt;Node34</title>
<path fill="none" stroke="#191970" d="M416.3051,-593.1389C403.831,-571.5843 381.1682,-532.4245 367.8205,-509.3604"/>
<polygon fill="#191970" stroke="#191970" points="370.7655,-507.4615 362.7272,-500.5595 364.7069,-510.9677 370.7655,-507.4615"/>
</g>
<!-- Node2 -->
<g id="node3" class="node">
<title>Node2</title>
<polygon fill="#ffffff" stroke="#bfbfbf" points="155.1949,-353 155.1949,-372 193.1949,-372 193.1949,-353 155.1949,-353"/>
<text text-anchor="middle" x="174.1949" y="-360" font-family="Helvetica,sans-Serif" font-size="10.00" fill="#000000">map</text>
</g>
<!-- Node1&#45;&gt;Node2 -->
<g id="edge2" class="edge">
<title>Node1&#45;&gt;Node2</title>
<path fill="none" stroke="#191970" d="M423.9814,-542.6056C306.8518,-533.2972 70.7634,-507.1204 21.1949,-445 -15.2441,-399.3337 90.9263,-375.5556 144.855,-366.6764"/>
<polygon fill="#191970" stroke="#191970" points="145.5524,-370.1097 154.8864,-365.0971 144.4638,-363.1949 145.5524,-370.1097"/>
</g>
<!-- Node3 -->
<g id="node4" class="node">
<title>Node3</title>
<polygon fill="#ffffff" stroke="#bfbfbf" points="1100.1949,-353 1100.1949,-372 1158.1949,-372 1158.1949,-353 1100.1949,-353"/>
<text text-anchor="middle" x="1129.1949" y="-360" font-family="Helvetica,sans-Serif" font-size="10.00" fill="#000000">memory</text>
</g>
<!-- Node1&#45;&gt;Node3 -->
<g id="edge3" class="edge">
<title>Node1&#45;&gt;Node3</title>
<path fill="none" stroke="#191970" d="M556.4463,-541.0802C644.273,-532.7821 794.3111,-516.9159 847.1949,-501 948.799,-470.4212 1058.8227,-406.3413 1105.801,-377.3316"/>
<polygon fill="#191970" stroke="#191970" points="1107.6962,-380.2746 1114.3349,-372.0176 1103.996,-374.3325 1107.6962,-380.2746"/>
</g>
<!-- Node4 -->
<g id="node5" class="node">
<title>Node4</title>
<polygon fill="#ffffff" stroke="#bfbfbf" points="330.6949,-353 330.6949,-372 373.6949,-372 373.6949,-353 330.6949,-353"/>
<text text-anchor="middle" x="352.1949" y="-360" font-family="Helvetica,sans-Serif" font-size="10.00" fill="#000000">stack</text>
</g>
<!-- Node1&#45;&gt;Node4 -->
<g id="edge4" class="edge">
<title>Node1&#45;&gt;Node4</title>
<path fill="none" stroke="#191970" d="M491.6428,-537.4452C494.6718,-513.8114 499.1837,-451.7971 470.1949,-414 449.3275,-386.792 411.098,-373.6993 383.8071,-367.575"/>
<polygon fill="#191970" stroke="#191970" points="384.4412,-364.1322 373.9422,-365.5541 383.0363,-370.9898 384.4412,-364.1322"/>
</g>
<!-- Node5 -->
<g id="node6" class="node">
<title>Node5</title>
<g id="a_node6"><a xlink:href="dynamic__mempool_8hpp.html" target="_top" xlink:title="This file provides a dynamically growing memory pool for ArgoDSM. ">
<polygon fill="#ffffff" stroke="#000000" points="518.1949,-414.5 518.1949,-444.5 640.1949,-444.5 640.1949,-414.5 518.1949,-414.5"/>
<text text-anchor="start" x="526.1949" y="-432.5" font-family="Helvetica,sans-Serif" font-size="10.00" fill="#000000">../mempools/dynamic</text>
<text text-anchor="middle" x="579.1949" y="-421.5" font-family="Helvetica,sans-Serif" font-size="10.00" fill="#000000">_mempool.hpp</text>
</a>
</g>
</g>
<!-- Node1&#45;&gt;Node5 -->
<g id="edge5" class="edge">
<title>Node1&#45;&gt;Node5</title>
<path fill="none" stroke="#191970" d="M497.4782,-537.3845C511.3533,-519.0661 541.9342,-478.6925 561.4984,-452.8633"/>
<polygon fill="#191970" stroke="#191970" points="564.4229,-454.799 567.6709,-444.7143 558.8429,-450.5725 564.4229,-454.799"/>
</g>
<!-- Node6 -->
<g id="node7" class="node">
<title>Node6</title>
<g id="a_node7"><a xlink:href="backend_8hpp.html" target="_top" xlink:title="This file provides the backend interface. ">
<polygon fill="#ffffff" stroke="#000000" points="555.1949,-291.5 555.1949,-310.5 687.1949,-310.5 687.1949,-291.5 555.1949,-291.5"/>
<text text-anchor="middle" x="621.1949" y="-298.5" font-family="Helvetica,sans-Serif" font-size="10.00" fill="#000000">../backend/backend.hpp</text>
</a>
</g>
</g>
<!-- Node1&#45;&gt;Node6 -->
<g id="edge48" class="edge">
<title>Node1&#45;&gt;Node6</title>
<path fill="none" stroke="#191970" d="M520.9171,-537.4866C558.9378,-523.8644 621.9835,-494.7858 649.1949,-445 671.4849,-404.2185 647.7694,-348.4074 632.3105,-319.7159"/>
<polygon fill="#191970" stroke="#191970" points="635.2297,-317.7664 627.2757,-310.7674 629.129,-321.199 635.2297,-317.7664"/>
</g>
<!-- Node27 -->
<g id="node28" class="node">
<title>Node27</title>
<g id="a_node28"><a xlink:href="global__mempool_8hpp.html" target="_top" xlink:title="This file provides a dynamically growing memory pool for ArgoDSM. ">
<polygon fill="#ffffff" stroke="#000000" points="807.1949,-414.5 807.1949,-444.5 917.1949,-444.5 917.1949,-414.5 807.1949,-414.5"/>
<text text-anchor="start" x="815.1949" y="-432.5" font-family="Helvetica,sans-Serif" font-size="10.00" fill="#000000">../mempools/global</text>
<text text-anchor="middle" x="862.1949" y="-421.5" font-family="Helvetica,sans-Serif" font-size="10.00" fill="#000000">_mempool.hpp</text>
</a>
</g>
</g>
<!-- Node1&#45;&gt;Node27 -->
<g id="edge35" class="edge">
<title>Node1&#45;&gt;Node27</title>
<path fill="none" stroke="#191970" d="M556.255,-545.0299C641.2894,-541.3071 783.1155,-530.7156 825.1949,-501 840.8353,-489.9551 850.3318,-470.2563 855.7812,-454.3283"/>
<polygon fill="#191970" stroke="#191970" points="859.199,-455.1221 858.8017,-444.5347 852.5099,-453.059 859.199,-455.1221"/>
</g>
<!-- Node1&#45;&gt;Node34 -->
<g id="edge49" class="edge">
<title>Node1&#45;&gt;Node34</title>
<path fill="none" stroke="#191970" d="M467.3314,-537.3733C445.79,-528.3032 413.3111,-514.6279 389.1993,-504.4755"/>
<polygon fill="#191970" stroke="#191970" points="390.3347,-501.156 379.7601,-500.5011 387.6182,-507.6075 390.3347,-501.156"/>
</g>
<!-- Node35 -->
<g id="node36" class="node">
<title>Node35</title>
<g id="a_node36"><a xlink:href="generic__allocator_8hpp.html" target="_top" xlink:title="This file provides a generic allocator template for ArgoDSM. ">
<polygon fill="#ffffff" stroke="#000000" points="202.6949,-420 202.6949,-439 323.6949,-439 323.6949,-420 202.6949,-420"/>
<text text-anchor="middle" x="263.1949" y="-427" font-family="Helvetica,sans-Serif" font-size="10.00" fill="#000000">generic_allocator.hpp</text>
</a>
</g>
</g>
<!-- Node1&#45;&gt;Node35 -->
<g id="edge61" class="edge">
<title>Node1&#45;&gt;Node35</title>
<path fill="none" stroke="#191970" d="M424.0692,-539.5677C371.7594,-532.3888 304.2925,-519.8135 284.1949,-501 270.0747,-487.7819 265.2847,-465.618 263.743,-449.4645"/>
<polygon fill="#191970" stroke="#191970" points="267.2327,-449.1893 263.1199,-439.4254 260.2462,-449.623 267.2327,-449.1893"/>
</g>
<!-- Node36 -->
<g id="node37" class="node">
<title>Node36</title>
<g id="a_node37"><a xlink:href="null__lock_8hpp.html" target="_top" xlink:title="dummy lock, not intended for public use ">
<polygon fill="#ffffff" stroke="#000000" points="380.6949,-420 380.6949,-439 461.6949,-439 461.6949,-420 380.6949,-420"/>
<text text-anchor="middle" x="421.1949" y="-427" font-family="Helvetica,sans-Serif" font-size="10.00" fill="#000000">null_lock.hpp</text>
</a>
</g>
</g>
<!-- Node1&#45;&gt;Node36 -->
<g id="edge62" class="edge">
<title>Node1&#45;&gt;Node36</title>
<path fill="none" stroke="#191970" d="M484.5484,-537.3845C473.0753,-517.8471 446.8694,-473.2211 432.0062,-447.9106"/>
<polygon fill="#191970" stroke="#191970" points="435.0014,-446.0992 426.9195,-439.2484 428.9652,-449.6438 435.0014,-446.0992"/>
</g>
<!-- Node38 -->
<g id="node39" class="node">
<title>Node38</title>
<g id="a_node39"><a xlink:href="collective__allocator_8h.html" target="_top" xlink:title="This file provides the collective allocator for ArgoDSM. ">
<polygon fill="#ffffff" stroke="#000000" points="696.1949,-481.5 696.1949,-500.5 816.1949,-500.5 816.1949,-481.5 696.1949,-481.5"/>
<text text-anchor="middle" x="756.1949" y="-488.5" font-family="Helvetica,sans-Serif" font-size="10.00" fill="#000000">collective_allocator.h</text>
</a>
</g>
</g>
<!-- Node1&#45;&gt;Node38 -->
<g id="edge63" class="edge">
<title>Node1&#45;&gt;Node38</title>
<path fill="none" stroke="#191970" d="M535.6197,-537.4369C581.4305,-527.7925 652.1947,-512.8948 701.1624,-502.5858"/>
<polygon fill="#191970" stroke="#191970" points="701.893,-506.0088 710.9575,-500.5237 700.4509,-499.1589 701.893,-506.0088"/>
</g>
<!-- Node5&#45;&gt;Node6 -->
<g id="edge6" class="edge">
<title>Node5&#45;&gt;Node6</title>
<path fill="none" stroke="#191970" d="M585.5182,-414.3112C589.6529,-404.1262 595.0376,-390.3643 599.1949,-378 605.6841,-358.7004 611.9488,-336.2823 616.122,-320.6301"/>
<polygon fill="#191970" stroke="#191970" points="619.609,-321.1311 618.7644,-310.57 612.8387,-319.3527 619.609,-321.1311"/>
</g>
<!-- Node26 -->
<g id="node27" class="node">
<title>Node26</title>
<g id="a_node27"><a xlink:href="broadcast_8hpp.html" target="_top" xlink:title="This file provides a broadcasting facility for a single value. ">
<polygon fill="#ffffff" stroke="#000000" points="487.6949,-347.5 487.6949,-377.5 590.6949,-377.5 590.6949,-347.5 487.6949,-347.5"/>
<text text-anchor="start" x="495.6949" y="-365.5" font-family="Helvetica,sans-Serif" font-size="10.00" fill="#000000">../synchronization</text>
<text text-anchor="middle" x="539.1949" y="-354.5" font-family="Helvetica,sans-Serif" font-size="10.00" fill="#000000">/broadcast.hpp</text>
</a>
</g>
</g>
<!-- Node5&#45;&gt;Node26 -->
<g id="edge32" class="edge">
<title>Node5&#45;&gt;Node26</title>
<path fill="none" stroke="#191970" d="M570.1183,-414.2967C565.2086,-406.0729 559.0321,-395.7272 553.4924,-386.4483"/>
<polygon fill="#191970" stroke="#191970" points="556.3669,-384.4352 548.2356,-377.6432 550.3566,-388.0236 556.3669,-384.4352"/>
</g>
<!-- Node7 -->
<g id="node8" class="node">
<title>Node7</title>
<polygon fill="#ffffff" stroke="#bfbfbf" points="526.1949,-230 526.1949,-249 578.1949,-249 578.1949,-230 526.1949,-230"/>
<text text-anchor="middle" x="552.1949" y="-237" font-family="Helvetica,sans-Serif" font-size="10.00" fill="#000000">cassert</text>
</g>
<!-- Node6&#45;&gt;Node7 -->
<g id="edge7" class="edge">
<title>Node6&#45;&gt;Node7</title>
<path fill="none" stroke="#191970" d="M610.4137,-291.3906C599.8423,-281.9683 583.5124,-267.4134 570.8346,-256.1137"/>
<polygon fill="#191970" stroke="#191970" points="572.9221,-253.2858 563.1282,-249.2449 568.2645,-258.5114 572.9221,-253.2858"/>
</g>
<!-- Node8 -->
<g id="node9" class="node">
<title>Node8</title>
<polygon fill="#ffffff" stroke="#bfbfbf" points="596.1949,-230 596.1949,-249 646.1949,-249 646.1949,-230 596.1949,-230"/>
<text text-anchor="middle" x="621.1949" y="-237" font-family="Helvetica,sans-Serif" font-size="10.00" fill="#000000">cstdint</text>
</g>
<!-- Node6&#45;&gt;Node8 -->
<g id="edge8" class="edge">
<title>Node6&#45;&gt;Node8</title>
<path fill="none" stroke="#191970" d="M621.1949,-291.3906C621.1949,-282.8657 621.1949,-270.1392 621.1949,-259.4235"/>
<polygon fill="#191970" stroke="#191970" points="624.695,-259.2448 621.1949,-249.2449 617.695,-259.2449 624.695,-259.2448"/>
</g>
<!-- Node9 -->
<g id="node10" class="node">
<title>Node9</title>
<polygon fill="#ffffff" stroke="#bfbfbf" points="664.6949,-230 664.6949,-249 729.6949,-249 729.6949,-230 664.6949,-230"/>
<text text-anchor="middle" x="697.1949" y="-237" font-family="Helvetica,sans-Serif" font-size="10.00" fill="#000000">stdexcept</text>
</g>
<!-- Node6&#45;&gt;Node9 -->
<g id="edge9" class="edge">
<title>Node6&#45;&gt;Node9</title>
<path fill="none" stroke="#191970" d="M633.0699,-291.3906C644.8246,-281.8786 663.0435,-267.1357 677.0621,-255.7917"/>
<polygon fill="#191970" stroke="#191970" points="679.5805,-258.2562 685.1525,-249.2449 675.1771,-252.8146 679.5805,-258.2562"/>
</g>
<!-- Node10 -->
<g id="node11" class="node">
<title>Node10</title>
<g id="a_node11"><a xlink:href="global__ptr_8hpp.html" target="_top" xlink:title="This file provides the global pointer for ArgoDSM. ">
<polygon fill="#ffffff" stroke="#000000" points="753.1949,-224.5 753.1949,-254.5 861.1949,-254.5 861.1949,-224.5 753.1949,-224.5"/>
<text text-anchor="start" x="761.1949" y="-242.5" font-family="Helvetica,sans-Serif" font-size="10.00" fill="#000000">../data_distribution</text>
<text text-anchor="middle" x="807.1949" y="-231.5" font-family="Helvetica,sans-Serif" font-size="10.00" fill="#000000">/global_ptr.hpp</text>
</a>
</g>
</g>
<!-- Node6&#45;&gt;Node10 -->
<g id="edge10" class="edge">
<title>Node6&#45;&gt;Node10</title>
<path fill="none" stroke="#191970" d="M650.2574,-291.3906C677.4114,-282.4123 718.6604,-268.7735 752.0554,-257.7316"/>
<polygon fill="#191970" stroke="#191970" points="753.2985,-261.007 761.6942,-254.5446 751.1009,-254.3609 753.2985,-261.007"/>
</g>
<!-- Node19 -->
<g id="node20" class="node">
<title>Node19</title>
<g id="a_node20"><a xlink:href="types_8hpp.html" target="_top" xlink:title="This file defines common types used in ArgoDSM. ">
<polygon fill="#ffffff" stroke="#000000" points="26.1949,-.5 26.1949,-19.5 130.1949,-19.5 130.1949,-.5 26.1949,-.5"/>
<text text-anchor="middle" x="78.1949" y="-7.5" font-family="Helvetica,sans-Serif" font-size="10.00" fill="#000000">../types/types.hpp</text>
</a>
</g>
</g>
<!-- Node6&#45;&gt;Node19 -->
<g id="edge31" class="edge">
<title>Node6&#45;&gt;Node19</title>
<path fill="none" stroke="#191970" d="M555.1553,-292.9255C410.4449,-274.3371 78.1949,-226.39 78.1949,-178 78.1949,-178 78.1949,-178 78.1949,-122 78.1949,-89.7116 78.1949,-52.1872 78.1949,-29.8048"/>
<polygon fill="#191970" stroke="#191970" points="81.695,-29.5883 78.1949,-19.5884 74.695,-29.5884 81.695,-29.5883"/>
</g>
<!-- Node11 -->
<g id="node12" class="node">
<title>Node11</title>
<polygon fill="#ffffff" stroke="#bfbfbf" points="786.1949,-168.5 786.1949,-187.5 830.1949,-187.5 830.1949,-168.5 786.1949,-168.5"/>
<text text-anchor="middle" x="808.1949" y="-175.5" font-family="Helvetica,sans-Serif" font-size="10.00" fill="#000000">string</text>
</g>
<!-- Node10&#45;&gt;Node11 -->
<g id="edge11" class="edge">
<title>Node10&#45;&gt;Node11</title>
<path fill="none" stroke="#191970" d="M807.4421,-224.2977C807.5708,-216.3834 807.7298,-206.6043 807.8685,-198.0759"/>
<polygon fill="#191970" stroke="#191970" points="811.3717,-197.9025 808.0348,-187.8469 804.3726,-197.7887 811.3717,-197.9025"/>
</g>
<!-- Node12 -->
<g id="node13" class="node">
<title>Node12</title>
<g id="a_node13"><a xlink:href="env_8hpp.html" target="_top" xlink:title="This file provides facilities for handling environment variables. ">
<polygon fill="#ffffff" stroke="#000000" points="903.6949,-168.5 903.6949,-187.5 988.6949,-187.5 988.6949,-168.5 903.6949,-168.5"/>
<text text-anchor="middle" x="946.1949" y="-175.5" font-family="Helvetica,sans-Serif" font-size="10.00" fill="#000000">../env/env.hpp</text>
</a>
</g>
</g>
<!-- Node10&#45;&gt;Node12 -->
<g id="edge12" class="edge">
<title>Node10&#45;&gt;Node12</title>
<path fill="none" stroke="#191970" d="M841.1981,-224.4554C863.882,-214.419 893.4622,-201.3314 915.4429,-191.6061"/>
<polygon fill="#191970" stroke="#191970" points="916.9261,-194.7772 924.6548,-187.5303 914.0938,-188.3758 916.9261,-194.7772"/>
</g>
<!-- Node14 -->
<g id="node15" class="node">
<title>Node14</title>
<g id="a_node15"><a xlink:href="data__distribution_8hpp.html" target="_top" xlink:title="This file provides an abstraction layer for distributing the shared memory space. ...">
<polygon fill="#ffffff" stroke="#000000" points="648.1949,-168.5 648.1949,-187.5 768.1949,-187.5 768.1949,-168.5 648.1949,-168.5"/>
<text text-anchor="middle" x="708.1949" y="-175.5" font-family="Helvetica,sans-Serif" font-size="10.00" fill="#000000">data_distribution.hpp</text>
</a>
</g>
</g>
<!-- Node10&#45;&gt;Node14 -->
<g id="edge14" class="edge">
<title>Node10&#45;&gt;Node14</title>
<path fill="none" stroke="#191970" d="M782.9768,-224.4554C767.6176,-214.9141 747.8192,-202.6151 732.4524,-193.0691"/>
<polygon fill="#191970" stroke="#191970" points="733.8777,-189.8341 723.5364,-187.5303 730.1839,-195.7802 733.8777,-189.8341"/>
</g>
<!-- Node13 -->
<g id="node14" class="node">
<title>Node13</title>
<polygon fill="#ffffff" stroke="#bfbfbf" points="990.6949,-112.5 990.6949,-131.5 1043.6949,-131.5 1043.6949,-112.5 990.6949,-112.5"/>
<text text-anchor="middle" x="1017.1949" y="-119.5" font-family="Helvetica,sans-Serif" font-size="10.00" fill="#000000">cstddef</text>
</g>
<!-- Node12&#45;&gt;Node13 -->
<g id="edge13" class="edge">
<title>Node12&#45;&gt;Node13</title>
<path fill="none" stroke="#191970" d="M958.5622,-168.2455C969.1503,-159.8943 984.6013,-147.7076 996.9842,-137.9408"/>
<polygon fill="#191970" stroke="#191970" points="999.2852,-140.5837 1004.9694,-131.6427 994.9502,-135.0875 999.2852,-140.5837"/>
</g>
<!-- Node15 -->
<g id="node16" class="node">
<title>Node15</title>
<g id="a_node16"><a xlink:href="base__distribution_8hpp.html" target="_top" xlink:title="This file implements the base distribution class for all the policies to derive from. ">
<polygon fill="#ffffff" stroke="#000000" points="561.1949,-56.5 561.1949,-75.5 683.1949,-75.5 683.1949,-56.5 561.1949,-56.5"/>
<text text-anchor="middle" x="622.1949" y="-63.5" font-family="Helvetica,sans-Serif" font-size="10.00" fill="#000000">base_distribution.hpp</text>
</a>
</g>
</g>
<!-- Node14&#45;&gt;Node15 -->
<g id="edge15" class="edge">
<title>Node14&#45;&gt;Node15</title>
<path fill="none" stroke="#191970" d="M742.9482,-168.4303C776.6253,-157.4062 819.9337,-137.4883 800.1949,-112 786.8235,-94.7338 736.8876,-82.7829 693.2978,-75.3983"/>
<polygon fill="#191970" stroke="#191970" points="693.681,-71.9146 683.2473,-73.7554 692.5517,-78.8229 693.681,-71.9146"/>
</g>
<!-- Node20 -->
<g id="node21" class="node">
<title>Node20</title>
<g id="a_node21"><a xlink:href="naive__distribution_8hpp.html" target="_top" xlink:title="This file implements the naive data distribution. ">
<polygon fill="#ffffff" stroke="#000000" points="847.6949,-112.5 847.6949,-131.5 972.6949,-131.5 972.6949,-112.5 847.6949,-112.5"/>
<text text-anchor="middle" x="910.1949" y="-119.5" font-family="Helvetica,sans-Serif" font-size="10.00" fill="#000000">naive_distribution.hpp</text>
</a>
</g>
</g>
<!-- Node14&#45;&gt;Node20 -->
<g id="edge20" class="edge">
<title>Node14&#45;&gt;Node20</title>
<path fill="none" stroke="#191970" d="M742.92,-168.3733C776.9457,-158.9404 828.9386,-144.5265 865.9183,-134.2747"/>
<polygon fill="#191970" stroke="#191970" points="867.2215,-137.5455 875.923,-131.5011 865.3514,-130.7999 867.2215,-137.5455"/>
</g>
<!-- Node21 -->
<g id="node22" class="node">
<title>Node21</title>
<g id="a_node22"><a xlink:href="cyclic__distribution_8hpp.html" target="_top" xlink:title="This file implements the cyclic data distribution. ">
<polygon fill="#ffffff" stroke="#000000" points="311.1949,-112.5 311.1949,-131.5 437.1949,-131.5 437.1949,-112.5 311.1949,-112.5"/>
<text text-anchor="middle" x="374.1949" y="-119.5" font-family="Helvetica,sans-Serif" font-size="10.00" fill="#000000">cyclic_distribution.hpp</text>
</a>
</g>
</g>
<!-- Node14&#45;&gt;Node21 -->
<g id="edge22" class="edge">
<title>Node14&#45;&gt;Node21</title>
<path fill="none" stroke="#191970" d="M651.1578,-168.4369C592.9155,-158.6717 502.5507,-143.5207 440.9983,-133.2006"/>
<polygon fill="#191970" stroke="#191970" points="441.4379,-129.7255 430.9968,-131.5237 440.2804,-136.6291 441.4379,-129.7255"/>
</g>
<!-- Node22 -->
<g id="node23" class="node">
<title>Node22</title>
<g id="a_node23"><a xlink:href="skew__mapp__distribution_8hpp.html" target="_top" xlink:title="This file implements the skew&#45;mapp data distribution. ">
<polygon fill="#ffffff" stroke="#000000" points="455.6949,-112.5 455.6949,-131.5 612.6949,-131.5 612.6949,-112.5 455.6949,-112.5"/>
<text text-anchor="middle" x="534.1949" y="-119.5" font-family="Helvetica,sans-Serif" font-size="10.00" fill="#000000">skew_mapp_distribution.hpp</text>
</a>
</g>
</g>
<!-- Node14&#45;&gt;Node22 -->
<g id="edge24" class="edge">
<title>Node14&#45;&gt;Node22</title>
<path fill="none" stroke="#191970" d="M678.2832,-168.3733C649.3497,-159.0613 605.3338,-144.8953 573.5656,-134.671"/>
<polygon fill="#191970" stroke="#191970" points="574.3077,-131.2331 563.7163,-131.5011 572.1631,-137.8965 574.3077,-131.2331"/>
</g>
<!-- Node23 -->
<g id="node24" class="node">
<title>Node23</title>
<g id="a_node24"><a xlink:href="prime__mapp__distribution_8hpp.html" target="_top" xlink:title="This file implements the prime&#45;mapp data distribution. ">
<polygon fill="#ffffff" stroke="#000000" points="631.1949,-112.5 631.1949,-131.5 791.1949,-131.5 791.1949,-112.5 631.1949,-112.5"/>
<text text-anchor="middle" x="711.1949" y="-119.5" font-family="Helvetica,sans-Serif" font-size="10.00" fill="#000000">prime_mapp_distribution.hpp</text>
</a>
</g>
</g>
<!-- Node14&#45;&gt;Node23 -->
<g id="edge26" class="edge">
<title>Node14&#45;&gt;Node23</title>
<path fill="none" stroke="#191970" d="M708.7175,-168.2455C709.1089,-160.9382 709.6577,-150.6944 710.1393,-141.7046"/>
<polygon fill="#191970" stroke="#191970" points="713.6383,-141.8156 710.6783,-131.6427 706.6483,-141.4411 713.6383,-141.8156"/>
</g>
<!-- Node24 -->
<g id="node25" class="node">
<title>Node24</title>
<g id="a_node25"><a xlink:href="first__touch__distribution_8hpp.html" target="_top" xlink:title="This file implements the first&#45;touch data distribution. ">
<polygon fill="#ffffff" stroke="#000000" points="143.6949,-112.5 143.6949,-131.5 292.6949,-131.5 292.6949,-112.5 143.6949,-112.5"/>
<text text-anchor="middle" x="218.1949" y="-119.5" font-family="Helvetica,sans-Serif" font-size="10.00" fill="#000000">first_touch_distribution.hpp</text>
</a>
</g>
</g>
<!-- Node14&#45;&gt;Node24 -->
<g id="edge28" class="edge">
<title>Node14&#45;&gt;Node24</title>
<path fill="none" stroke="#191970" d="M647.9934,-171.287C570.7266,-162.6471 432.2346,-147.0798 302.9331,-132.0805"/>
<polygon fill="#191970" stroke="#191970" points="303.1843,-128.5862 292.8473,-130.9095 302.3769,-135.5395 303.1843,-128.5862"/>
</g>
<!-- Node16 -->
<g id="node17" class="node">
<title>Node16</title>
<polygon fill="#ffffff" stroke="#bfbfbf" points="638.6949,-.5 638.6949,-19.5 687.6949,-19.5 687.6949,-.5 638.6949,-.5"/>
<text text-anchor="middle" x="663.1949" y="-7.5" font-family="Helvetica,sans-Serif" font-size="10.00" fill="#000000">cstdlib</text>
</g>
<!-- Node15&#45;&gt;Node16 -->
<g id="edge16" class="edge">
<title>Node15&#45;&gt;Node16</title>
<path fill="none" stroke="#191970" d="M629.3366,-56.2455C635.0393,-48.4564 643.1849,-37.3308 650.0574,-27.9439"/>
<polygon fill="#191970" stroke="#191970" points="653.0517,-29.7789 656.1351,-19.6427 647.4036,-25.6437 653.0517,-29.7789"/>
</g>
<!-- Node17 -->
<g id="node18" class="node">
<title>Node17</title>
<polygon fill="#ffffff" stroke="#bfbfbf" points="938.1949,-.5 938.1949,-19.5 998.1949,-19.5 998.1949,-.5 938.1949,-.5"/>
<text text-anchor="middle" x="968.1949" y="-7.5" font-family="Helvetica,sans-Serif" font-size="10.00" fill="#000000">iostream</text>
</g>
<!-- Node15&#45;&gt;Node17 -->
<g id="edge17" class="edge">
<title>Node15&#45;&gt;Node17</title>
<path fill="none" stroke="#191970" d="M681.2813,-56.4369C751.7093,-45.0381 867.4783,-26.301 928.1904,-16.4747"/>
<polygon fill="#191970" stroke="#191970" points="928.8427,-19.9148 938.155,-14.862 927.7242,-13.0047 928.8427,-19.9148"/>
</g>
<!-- Node18 -->
<g id="node19" class="node">
<title>Node18</title>
<polygon fill="#ffffff" stroke="#bfbfbf" points="539.6949,-.5 539.6949,-19.5 620.6949,-19.5 620.6949,-.5 539.6949,-.5"/>
<text text-anchor="middle" x="580.1949" y="-7.5" font-family="Helvetica,sans-Serif" font-size="10.00" fill="#000000">system_error</text>
</g>
<!-- Node15&#45;&gt;Node18 -->
<g id="edge18" class="edge">
<title>Node15&#45;&gt;Node18</title>
<path fill="none" stroke="#191970" d="M614.8791,-56.2455C608.977,-48.3761 600.5207,-37.101 593.4356,-27.6542"/>
<polygon fill="#191970" stroke="#191970" points="596.227,-25.5427 587.4269,-19.6427 590.627,-29.7427 596.227,-25.5427"/>
</g>
<!-- Node15&#45;&gt;Node19 -->
<g id="edge19" class="edge">
<title>Node15&#45;&gt;Node19</title>
<path fill="none" stroke="#191970" d="M561.1119,-59.712C456.8877,-48.9831 245.7949,-27.2529 140.6447,-16.4287"/>
<polygon fill="#191970" stroke="#191970" points="140.8064,-12.9269 130.5005,-15.3844 140.0895,-19.8901 140.8064,-12.9269"/>
</g>
<!-- Node20&#45;&gt;Node15 -->
<g id="edge21" class="edge">
<title>Node20&#45;&gt;Node15</title>
<path fill="none" stroke="#191970" d="M861.0132,-112.4369C811.2065,-102.7522 734.1564,-87.7703 681.1161,-77.4569"/>
<polygon fill="#191970" stroke="#191970" points="681.658,-73.9968 671.1738,-75.5237 680.3219,-80.8681 681.658,-73.9968"/>
</g>
<!-- Node21&#45;&gt;Node15 -->
<g id="edge23" class="edge">
<title>Node21&#45;&gt;Node15</title>
<path fill="none" stroke="#191970" d="M416.5458,-112.4369C458.9891,-102.8529 524.4068,-88.0812 570.0263,-77.78"/>
<polygon fill="#191970" stroke="#191970" points="571.0352,-81.1404 580.0187,-75.5237 569.4933,-74.3123 571.0352,-81.1404"/>
</g>
<!-- Node22&#45;&gt;Node15 -->
<g id="edge25" class="edge">
<title>Node22&#45;&gt;Node15</title>
<path fill="none" stroke="#191970" d="M549.5233,-112.2455C563.0252,-103.6534 582.9071,-91.0014 598.4635,-81.1018"/>
<polygon fill="#191970" stroke="#191970" points="600.4846,-83.9643 607.0421,-75.6427 596.7264,-78.0587 600.4846,-83.9643"/>
</g>
<!-- Node23&#45;&gt;Node15 -->
<g id="edge27" class="edge">
<title>Node23&#45;&gt;Node15</title>
<path fill="none" stroke="#191970" d="M695.6923,-112.2455C682.037,-103.6534 661.9292,-91.0014 646.196,-81.1018"/>
<polygon fill="#191970" stroke="#191970" points="647.8478,-78.006 637.5199,-75.6427 644.1198,-83.9307 647.8478,-78.006"/>
</g>
<!-- Node24&#45;&gt;Node15 -->
<g id="edge30" class="edge">
<title>Node24&#45;&gt;Node15</title>
<path fill="none" stroke="#191970" d="M287.1859,-112.4369C360.691,-102.2481 476.4952,-86.196 550.878,-75.8855"/>
<polygon fill="#191970" stroke="#191970" points="551.6654,-79.3099 561.0901,-74.47 550.7043,-72.3762 551.6654,-79.3099"/>
</g>
<!-- Node25 -->
<g id="node26" class="node">
<title>Node25</title>
<polygon fill="#ffffff" stroke="#bfbfbf" points="150.1949,-56.5 150.1949,-75.5 198.1949,-75.5 198.1949,-56.5 150.1949,-56.5"/>
<text text-anchor="middle" x="174.1949" y="-63.5" font-family="Helvetica,sans-Serif" font-size="10.00" fill="#000000">mutex</text>
</g>
<!-- Node24&#45;&gt;Node25 -->
<g id="edge29" class="edge">
<title>Node24&#45;&gt;Node25</title>
<path fill="none" stroke="#191970" d="M210.5307,-112.2455C204.3476,-104.3761 195.4886,-93.101 188.0661,-83.6542"/>
<polygon fill="#191970" stroke="#191970" points="190.7017,-81.3435 181.7713,-75.6427 185.1974,-85.6683 190.7017,-81.3435"/>
</g>
<!-- Node26&#45;&gt;Node6 -->
<g id="edge33" class="edge">
<title>Node26&#45;&gt;Node6</title>
<path fill="none" stroke="#191970" d="M559.4646,-347.2977C571.7956,-338.0495 587.5215,-326.2551 600.0146,-316.8853"/>
<polygon fill="#191970" stroke="#191970" points="602.1657,-319.647 608.0657,-310.8469 597.9656,-314.047 602.1657,-319.647"/>
</g>
<!-- Node26&#45;&gt;Node19 -->
<g id="edge34" class="edge">
<title>Node26&#45;&gt;Node19</title>
<path fill="none" stroke="#191970" d="M487.6726,-355.2447C360.179,-336.5935 40.1949,-285.2278 40.1949,-239.5 40.1949,-239.5 40.1949,-239.5 40.1949,-122 40.1949,-87.6118 56.4583,-50.2832 67.7059,-28.5791"/>
<polygon fill="#191970" stroke="#191970" points="70.9266,-29.9804 72.5879,-19.5166 64.7639,-26.6605 70.9266,-29.9804"/>
</g>
<!-- Node27&#45;&gt;Node3 -->
<g id="edge45" class="edge">
<title>Node27&#45;&gt;Node3</title>
<path fill="none" stroke="#191970" d="M917.4449,-418.7259C963.0758,-409.368 1029.3449,-394.7159 1086.1949,-378 1088.9785,-377.1815 1091.8441,-376.2807 1094.7115,-375.3377"/>
<polygon fill="#191970" stroke="#191970" points="1096.0296,-378.5857 1104.3508,-372.0276 1093.7561,-371.9652 1096.0296,-378.5857"/>
</g>
<!-- Node27&#45;&gt;Node6 -->
<g id="edge36" class="edge">
<title>Node27&#45;&gt;Node6</title>
<path fill="none" stroke="#191970" d="M863.2376,-414.3917C863.6314,-395.8429 861.2667,-364.6778 843.1949,-347 822.6664,-326.9191 753.4143,-314.7851 697.6522,-308.0628"/>
<polygon fill="#191970" stroke="#191970" points="697.7499,-304.5506 687.412,-306.8699 696.9398,-311.5036 697.7499,-304.5506"/>
</g>
<!-- Node27&#45;&gt;Node10 -->
<g id="edge43" class="edge">
<title>Node27&#45;&gt;Node10</title>
<path fill="none" stroke="#191970" d="M917.2604,-418.0601C956.1552,-408.733 1003.379,-394.4446 1015.1949,-378 1037.7576,-346.5988 1039.0253,-321.4503 1015.1949,-291 997.523,-268.4189 925.7117,-254.3588 871.3711,-246.7456"/>
<polygon fill="#191970" stroke="#191970" points="871.8246,-243.2752 861.4448,-245.3985 870.8832,-250.2116 871.8246,-243.2752"/>
</g>
<!-- Node27&#45;&gt;Node17 -->
<g id="edge46" class="edge">
<title>Node27&#45;&gt;Node17</title>
<path fill="none" stroke="#191970" d="M917.3366,-418.3484C961.2477,-408.5447 1018.2262,-393.4637 1036.1949,-378 1064.8291,-353.3577 1072.1949,-338.7778 1072.1949,-301 1072.1949,-301 1072.1949,-301 1072.1949,-122 1072.1949,-77.5129 1027.589,-43.2585 996.8026,-24.9145"/>
<polygon fill="#191970" stroke="#191970" points="998.1744,-21.667 987.7565,-19.7386 994.698,-27.7428 998.1744,-21.667"/>
</g>
<!-- Node28 -->
<g id="node29" class="node">
<title>Node28</title>
<g id="a_node29"><a xlink:href="global__tas__lock_8hpp.html" target="_top" xlink:title="This file provides a tas lock for the ArgoDSM system based on the TAS lock made by David Klaftenegger...">
<polygon fill="#ffffff" stroke="#000000" points="890.1949,-347.5 890.1949,-377.5 1006.1949,-377.5 1006.1949,-347.5 890.1949,-347.5"/>
<text text-anchor="start" x="898.1949" y="-365.5" font-family="Helvetica,sans-Serif" font-size="10.00" fill="#000000">../synchronization</text>
<text text-anchor="middle" x="948.1949" y="-354.5" font-family="Helvetica,sans-Serif" font-size="10.00" fill="#000000">/global_tas_lock.hpp</text>
</a>
</g>
</g>
<!-- Node27&#45;&gt;Node28 -->
<g id="edge37" class="edge">
<title>Node27&#45;&gt;Node28</title>
<path fill="none" stroke="#191970" d="M881.7096,-414.2967C893.2551,-405.302 908.0589,-393.7687 920.7655,-383.8694"/>
<polygon fill="#191970" stroke="#191970" points="923.0198,-386.55 928.7574,-377.6432 918.7178,-381.028 923.0198,-386.55"/>
</g>
<!-- Node32 -->
<g id="node33" class="node">
<title>Node32</title>
<polygon fill="#ffffff" stroke="#bfbfbf" points="685.6949,-353 685.6949,-372 762.6949,-372 762.6949,-353 685.6949,-353"/>
<text text-anchor="middle" x="724.1949" y="-360" font-family="Helvetica,sans-Serif" font-size="10.00" fill="#000000">sys/mman.h</text>
</g>
<!-- Node27&#45;&gt;Node32 -->
<g id="edge44" class="edge">
<title>Node27&#45;&gt;Node32</title>
<path fill="none" stroke="#191970" d="M831.225,-414.4639C807.8618,-403.1209 776.039,-387.6707 753.1755,-376.5703"/>
<polygon fill="#191970" stroke="#191970" points="754.5006,-373.323 743.9761,-372.1039 751.4433,-379.62 754.5006,-373.323"/>
</g>
<!-- Node33 -->
<g id="node34" class="node">
<title>Node33</title>
<polygon fill="#ffffff" stroke="#bfbfbf" points="780.6949,-353 780.6949,-372 833.6949,-372 833.6949,-353 780.6949,-353"/>
<text text-anchor="middle" x="807.1949" y="-360" font-family="Helvetica,sans-Serif" font-size="10.00" fill="#000000">stdlib.h</text>
</g>
<!-- Node27&#45;&gt;Node33 -->
<g id="edge47" class="edge">
<title>Node27&#45;&gt;Node33</title>
<path fill="none" stroke="#191970" d="M849.7146,-414.2967C841.3117,-404.0605 830.21,-390.5366 821.4576,-379.8746"/>
<polygon fill="#191970" stroke="#191970" points="824.0888,-377.5635 815.0385,-372.055 818.6783,-382.005 824.0888,-377.5635"/>
</g>
<!-- Node28&#45;&gt;Node6 -->
<g id="edge38" class="edge">
<title>Node28&#45;&gt;Node6</title>
<path fill="none" stroke="#191970" d="M890.0707,-349.812C885.38,-348.8415 880.7105,-347.8931 876.1949,-347 812.0677,-334.3171 738.5801,-321.2113 687.0203,-312.2491"/>
<polygon fill="#191970" stroke="#191970" points="687.4609,-308.7734 677.01,-310.5133 686.2649,-315.6705 687.4609,-308.7734"/>
</g>
<!-- Node28&#45;&gt;Node10 -->
<g id="edge39" class="edge">
<title>Node28&#45;&gt;Node10</title>
<path fill="none" stroke="#191970" d="M891.5939,-347.4896C859.2708,-337.7096 823.2243,-324.3298 813.1949,-311 803.3715,-297.944 802.0393,-279.4971 803.0759,-264.6108"/>
<polygon fill="#191970" stroke="#191970" points="806.5707,-264.8459 804.1618,-254.5286 799.611,-264.0962 806.5707,-264.8459"/>
</g>
<!-- Node29 -->
<g id="node30" class="node">
<title>Node29</title>
<polygon fill="#ffffff" stroke="#bfbfbf" points="822.1949,-291.5 822.1949,-310.5 872.1949,-310.5 872.1949,-291.5 822.1949,-291.5"/>
<text text-anchor="middle" x="847.1949" y="-298.5" font-family="Helvetica,sans-Serif" font-size="10.00" fill="#000000">atomic</text>
</g>
<!-- Node28&#45;&gt;Node29 -->
<g id="edge40" class="edge">
<title>Node28&#45;&gt;Node29</title>
<path fill="none" stroke="#191970" d="M923.4875,-347.4554C907.6702,-337.8241 887.2382,-325.3828 871.5,-315.7996"/>
<polygon fill="#191970" stroke="#191970" points="873.2078,-312.7418 862.8463,-310.5303 869.5672,-318.7206 873.2078,-312.7418"/>
</g>
<!-- Node30 -->
<g id="node31" class="node">
<title>Node30</title>
<polygon fill="#ffffff" stroke="#bfbfbf" points="890.1949,-291.5 890.1949,-310.5 940.1949,-310.5 940.1949,-291.5 890.1949,-291.5"/>
<text text-anchor="middle" x="915.1949" y="-298.5" font-family="Helvetica,sans-Serif" font-size="10.00" fill="#000000">chrono</text>
</g>
<!-- Node28&#45;&gt;Node30 -->
<g id="edge41" class="edge">
<title>Node28&#45;&gt;Node30</title>
<path fill="none" stroke="#191970" d="M940.0376,-347.2977C935.6,-339.0277 930.0699,-328.7215 925.3545,-319.9339"/>
<polygon fill="#191970" stroke="#191970" points="928.2909,-318.0037 920.4786,-310.8469 922.1228,-321.3134 928.2909,-318.0037"/>
</g>
<!-- Node31 -->
<g id="node32" class="node">
<title>Node31</title>
<polygon fill="#ffffff" stroke="#bfbfbf" points="958.1949,-291.5 958.1949,-310.5 1006.1949,-310.5 1006.1949,-291.5 958.1949,-291.5"/>
<text text-anchor="middle" x="982.1949" y="-298.5" font-family="Helvetica,sans-Serif" font-size="10.00" fill="#000000">thread</text>
</g>
<!-- Node28&#45;&gt;Node31 -->
<g id="edge42" class="edge">
<title>Node28&#45;&gt;Node31</title>
<path fill="none" stroke="#191970" d="M956.5994,-347.2977C961.2206,-338.9388 966.9918,-328.4997 971.8838,-319.6509"/>
<polygon fill="#191970" stroke="#191970" points="974.9758,-321.292 976.7511,-310.8469 968.8497,-317.9051 974.9758,-321.292"/>
</g>
<!-- Node34&#45;&gt;Node2 -->
<g id="edge50" class="edge">
<title>Node34&#45;&gt;Node2</title>
<path fill="none" stroke="#191970" d="M300.6311,-481.4711C259.3421,-473.3848 208.0954,-460.6194 193.1949,-445 177.1566,-428.1878 173.681,-400.6793 173.3685,-382.0961"/>
<polygon fill="#191970" stroke="#191970" points="176.8682,-382.1354 173.4887,-372.0941 169.8687,-382.0512 176.8682,-382.1354"/>
</g>
<!-- Node34&#45;&gt;Node4 -->
<g id="edge52" class="edge">
<title>Node34&#45;&gt;Node4</title>
<path fill="none" stroke="#191970" d="M356.8191,-481.3416C356.0047,-460.4114 354.0628,-410.504 352.9722,-382.4762"/>
<polygon fill="#191970" stroke="#191970" points="356.4613,-382.1268 352.5751,-372.2705 349.4666,-382.399 356.4613,-382.1268"/>
</g>
<!-- Node34&#45;&gt;Node5 -->
<g id="edge53" class="edge">
<title>Node34&#45;&gt;Node5</title>
<path fill="none" stroke="#191970" d="M391.8824,-481.3906C424.7789,-472.2774 475.0076,-458.3627 515.173,-447.2358"/>
<polygon fill="#191970" stroke="#191970" points="516.185,-450.5874 524.8876,-444.5446 514.3161,-443.8414 516.185,-450.5874"/>
</g>
<!-- Node34&#45;&gt;Node25 -->
<g id="edge51" class="edge">
<title>Node34&#45;&gt;Node25</title>
<path fill="none" stroke="#191970" d="M293.4008,-486.1583C201.5684,-478.6099 40.9191,-463.019 21.1949,-445 -6.5847,-419.622 2.1949,-400.1265 2.1949,-362.5 2.1949,-362.5 2.1949,-362.5 2.1949,-301 2.1949,-201.0171 104.8317,-115.2733 151.5355,-81.4321"/>
<polygon fill="#191970" stroke="#191970" points="153.6985,-84.1889 159.8261,-75.5459 149.646,-78.4812 153.6985,-84.1889"/>
</g>
<!-- Node34&#45;&gt;Node27 -->
<g id="edge54" class="edge">
<title>Node34&#45;&gt;Node27</title>
<path fill="none" stroke="#191970" d="M420.8976,-483.2421C517.4454,-471.4843 699.8571,-449.2699 797.1776,-437.4179"/>
<polygon fill="#191970" stroke="#191970" points="797.6791,-440.8828 807.1827,-436.1995 796.8329,-433.9342 797.6791,-440.8828"/>
</g>
<!-- Node34&#45;&gt;Node35 -->
<g id="edge55" class="edge">
<title>Node34&#45;&gt;Node35</title>
<path fill="none" stroke="#191970" d="M342.5074,-481.3906C327.4693,-471.5519 303.8773,-456.1167 286.3282,-444.6351"/>
<polygon fill="#191970" stroke="#191970" points="288.0636,-441.588 277.7793,-439.0419 284.2312,-447.4457 288.0636,-441.588"/>
</g>
<!-- Node34&#45;&gt;Node36 -->
<g id="edge59" class="edge">
<title>Node34&#45;&gt;Node36</title>
<path fill="none" stroke="#191970" d="M367.1949,-481.3906C376.9068,-472.0581 391.8588,-457.6902 403.569,-446.4374"/>
<polygon fill="#191970" stroke="#191970" points="406.2685,-448.6974 411.0539,-439.2449 401.4183,-443.65 406.2685,-448.6974"/>
</g>
<!-- Node37 -->
<g id="node38" class="node">
<title>Node37</title>
<g id="a_node38"><a xlink:href="dynamic__allocator_8h.html" target="_top" xlink:title="This file provides the dynamic allocator for ArgoDSM. ">
<polygon fill="#ffffff" stroke="#000000" points="30.6949,-420 30.6949,-439 145.6949,-439 145.6949,-420 30.6949,-420"/>
<text text-anchor="middle" x="88.1949" y="-427" font-family="Helvetica,sans-Serif" font-size="10.00" fill="#000000">dynamic_allocator.h</text>
</a>
</g>
</g>
<!-- Node34&#45;&gt;Node37 -->
<g id="edge60" class="edge">
<title>Node34&#45;&gt;Node37</title>
<path fill="none" stroke="#191970" d="M315.4588,-481.4581C268.1434,-470.6406 190.9657,-452.9959 139.8813,-441.3168"/>
<polygon fill="#191970" stroke="#191970" points="140.5575,-437.8811 130.0289,-439.0643 138.9973,-444.7051 140.5575,-437.8811"/>
</g>
<!-- Node35&#45;&gt;Node2 -->
<g id="edge56" class="edge">
<title>Node35&#45;&gt;Node2</title>
<path fill="none" stroke="#191970" d="M250.4434,-419.9005C236.0359,-409.0544 212.3639,-391.2339 195.2134,-378.3229"/>
<polygon fill="#191970" stroke="#191970" points="197.0171,-375.2998 186.9228,-372.0817 192.807,-380.8923 197.0171,-375.2998"/>
</g>
<!-- Node35&#45;&gt;Node4 -->
<g id="edge57" class="edge">
<title>Node35&#45;&gt;Node4</title>
<path fill="none" stroke="#191970" d="M275.9464,-419.9005C290.3539,-409.0544 314.0259,-391.2339 331.1765,-378.3229"/>
<polygon fill="#191970" stroke="#191970" points="333.5828,-380.8923 339.467,-372.0817 329.3728,-375.2998 333.5828,-380.8923"/>
</g>
<!-- Node35&#45;&gt;Node6 -->
<g id="edge58" class="edge">
<title>Node35&#45;&gt;Node6</title>
<path fill="none" stroke="#191970" d="M266.9008,-419.9312C274.2857,-402.2644 292.6264,-364.7163 321.1949,-347 357.5691,-324.443 468.5905,-311.9905 544.8695,-305.9018"/>
<polygon fill="#191970" stroke="#191970" points="545.2253,-309.3848 554.9238,-305.1199 544.6825,-302.4059 545.2253,-309.3848"/>
</g>
</g>
</svg>
