<?xml version="1.0" encoding="UTF-8" standalone="no"?>
<!DOCTYPE svg PUBLIC "-//W3C//DTD SVG 1.1//EN"
 "http://www.w3.org/Graphics/SVG/1.1/DTD/svg11.dtd">
<!-- Generated by graphviz version 2.40.1 (20161225.0304)
 -->
<!-- Title: argo::_internal::alloc_param_in&lt; P, AP, APs... &gt; Pages: 1 -->
<svg width="156pt" height="128pt"
 viewBox="0.00 0.00 156.00 128.00" xmlns="http://www.w3.org/2000/svg" xmlns:xlink="http://www.w3.org/1999/xlink">
<g id="graph0" class="graph" transform="scale(1 1) rotate(0) translate(4 124)">
<title>argo::_internal::alloc_param_in&lt; P, AP, APs... &gt;</title>
<polygon fill="#ffffff" stroke="transparent" points="-4,4 -4,-124 152,-124 152,4 -4,4"/>
<!-- Node0 -->
<g id="node1" class="node">
<title>Node0</title>
<polygon fill="#bfbfbf" stroke="#000000" points="0,-.5 0,-30.5 148,-30.5 148,-.5 0,-.5"/>
<text text-anchor="start" x="8" y="-18.5" font-family="Helvetica,sans-Serif" font-size="10.00" fill="#000000">argo::_internal::alloc</text>
<text text-anchor="middle" x="74" y="-7.5" font-family="Helvetica,sans-Serif" font-size="10.00" fill="#000000">_param_in&lt; P, AP, APs... &gt;</text>
</g>
<!-- Node1 -->
<g id="node2" class="node">
<title>Node1</title>
<polygon fill="#ffffff" stroke="#bfbfbf" points="2,-67.5 2,-119.5 146,-119.5 146,-67.5 2,-67.5"/>
<text text-anchor="start" x="10" y="-107.5" font-family="Helvetica,sans-Serif" font-size="10.00" fill="#000000">std::conditional&lt; P</text>
<text text-anchor="start" x="10" y="-96.5" font-family="Helvetica,sans-Serif" font-size="10.00" fill="#000000">==AP, std::true_type,</text>
<text text-anchor="start" x="10" y="-85.5" font-family="Helvetica,sans-Serif" font-size="10.00" fill="#000000"> alloc_param_in&lt; P, APs...</text>
<text text-anchor="middle" x="74" y="-74.5" font-family="Helvetica,sans-Serif" font-size="10.00" fill="#000000"> &gt; &gt;::type</text>
</g>
<!-- Node1&#45;&gt;Node0 -->
<g id="edge1" class="edge">
<title>Node1&#45;&gt;Node0</title>
<path fill="none" stroke="#191970" d="M74,-57.0863C74,-47.6965 74,-38.1059 74,-30.5046"/>
<polygon fill="#191970" stroke="#191970" points="70.5001,-57.0927 74,-67.0928 77.5001,-57.0928 70.5001,-57.0927"/>
</g>
</g>
</svg>
