<?xml version="1.0" encoding="UTF-8" standalone="no"?>
<!DOCTYPE svg PUBLIC "-//W3C//DTD SVG 1.1//EN"
 "http://www.w3.org/Graphics/SVG/1.1/DTD/svg11.dtd">
<!-- Generated by graphviz version 2.40.1 (20161225.0304)
 -->
<!-- Title: argo_pin_threads Pages: 1 -->
<!--zoomable 306 -->
<svg id="main" version="1.1" xmlns="http://www.w3.org/2000/svg" xmlns:xlink="http://www.w3.org/1999/xlink" xml:space="preserve" onload="init(evt)">
<style type="text/css"><![CDATA[
.edge:hover path { stroke: red; }
.edge:hover polygon { stroke: red; fill: red; }
]]></style>
<script type="text/javascript"><![CDATA[
var edges = document.getElementsByTagName('g');
if (edges && edges.length) {
  for (var i=0;i<edges.length;i++) {
    if (edges[i].id.substr(0,4)=='edge') {
      edges[i].setAttribute('class','edge');
    }
  }
}
]]></script>
        <defs>
                <circle id="rim" cx="0" cy="0" r="7"/>
                <circle id="rim2" cx="0" cy="0" r="3.5"/>
                <g id="zoomPlus">
                        <use xlink:href="#rim" fill="#404040">
                                <set attributeName="fill" to="#808080" begin="zoomplus.mouseover" end="zoomplus.mouseout"/>
                        </use>
                        <path d="M-4,0h8M0,-4v8" fill="none" stroke="white" stroke-width="1.5" pointer-events="none"/>
                </g>
                <g id="zoomMin">
                        <use xlink:href="#rim" fill="#404040">
                                <set attributeName="fill" to="#808080" begin="zoomminus.mouseover" end="zoomminus.mouseout"/>
                        </use>
                        <path d="M-4,0h8" fill="none" stroke="white" stroke-width="1.5" pointer-events="none"/>
                </g>
                <g id="dirArrow">
                        <path fill="none" stroke="white" stroke-width="1.5" d="M0,-3.0v7 M-2.5,-0.5L0,-3.0L2.5,-0.5"/>
                </g>
               <g id="resetDef">
                       <use xlink:href="#rim2" fill="#404040">
                               <set attributeName="fill" to="#808080" begin="reset.mouseover" end="reset.mouseout"/>
                       </use>
               </g>
        </defs>

<script type="text/javascript">
var viewWidth = 1707;
var viewHeight = 306;
var sectionId = 'dynsection-0';
</script>
<script xlink:href="svgpan.js"/>
<svg id="graph" class="graph">
<g id="viewport">
<title>argo_pin_threads</title>
<polygon fill="#ffffff" stroke="transparent" points="-4,4 -4,-302 1703,-302 1703,4 -4,4"/>
<!-- Node0 -->
<g id="node1" class="node">
<title>Node0</title>
<polygon fill="#bfbfbf" stroke="#000000" points="0,-240.5 0,-259.5 101,-259.5 101,-240.5 0,-240.5"/>
<text text-anchor="middle" x="50.5" y="-247.5" font-family="Helvetica,sans-Serif" font-size="10.00" fill="#000000">argo_pin_threads</text>
</g>
<!-- Node1 -->
<g id="node2" class="node">
<title>Node1</title>
<g id="a_node2"><a xlink:href="swdsm_8cpp_a377c1387b86686470eddb261e718ef2a.html#a377c1387b86686470eddb261e718ef2a" target="_top" xlink:title="Registers the local thread to ArgoDSM and gets a local thread ID. ">
<polygon fill="#ffffff" stroke="#000000" points="137,-278.5 137,-297.5 255,-297.5 255,-278.5 137,-278.5"/>
<text text-anchor="middle" x="196" y="-285.5" font-family="Helvetica,sans-Serif" font-size="10.00" fill="#000000">argo_register_thread</text>
</a>
</g>
</g>
<!-- Node0&#45;&gt;Node1 -->
<g id="edge1" class="edge">
<title>Node0&#45;&gt;Node1</title>
<path fill="none" stroke="#191970" d="M87.2158,-259.589C106.1566,-264.5358 129.4572,-270.6211 149.6285,-275.8892"/>
<polygon fill="#191970" stroke="#191970" points="148.9883,-279.3394 159.5482,-278.4799 150.7572,-272.5665 148.9883,-279.3394"/>
</g>
<!-- Node2 -->
<g id="node3" class="node">
<title>Node2</title>
<g id="a_node3"><a xlink:href="swdsm_8cpp_af093b91a183f713e272716649b931962.html#af093b91a183f713e272716649b931962" target="_top" xlink:title="Gives out a local thread ID for a local thread assuming NUM_THREADS per node. ">
<polygon fill="#ffffff" stroke="#000000" points="143,-240.5 143,-259.5 249,-259.5 249,-240.5 143,-240.5"/>
<text text-anchor="middle" x="196" y="-247.5" font-family="Helvetica,sans-Serif" font-size="10.00" fill="#000000">argo_get_local_tid</text>
</a>
</g>
</g>
<!-- Node0&#45;&gt;Node2 -->
<g id="edge2" class="edge">
<title>Node0&#45;&gt;Node2</title>
<path fill="none" stroke="#191970" d="M101.3888,-250C111.4686,-250 122.1656,-250 132.6015,-250"/>
<polygon fill="#191970" stroke="#191970" points="132.918,-253.5001 142.9179,-250 132.9179,-246.5001 132.918,-253.5001"/>
</g>
<!-- Node3 -->
<g id="node4" class="node">
<title>Node3</title>
<g id="a_node4"><a xlink:href="swdsm_8cpp_aa954d5e0bcaee69ff6e03e697bcaf68b.html#aa954d5e0bcaee69ff6e03e697bcaf68b" target="_top" xlink:title="shut down ArgoDSM system ">
<polygon fill="#ffffff" stroke="#000000" points="156.5,-202.5 156.5,-221.5 235.5,-221.5 235.5,-202.5 156.5,-202.5"/>
<text text-anchor="middle" x="196" y="-209.5" font-family="Helvetica,sans-Serif" font-size="10.00" fill="#000000">argo_finalize</text>
</a>
</g>
</g>
<!-- Node0&#45;&gt;Node3 -->
<g id="edge3" class="edge">
<title>Node0&#45;&gt;Node3</title>
<path fill="none" stroke="#191970" d="M87.2158,-240.411C106.1566,-235.4642 129.4572,-229.3789 149.6285,-224.1108"/>
<polygon fill="#191970" stroke="#191970" points="150.7572,-227.4335 159.5482,-221.5201 148.9883,-220.6606 150.7572,-227.4335"/>
</g>
<!-- Node4 -->
<g id="node5" class="node">
<title>Node4</title>
<g id="a_node5"><a xlink:href="namespaceargo_aa6f830b22d3f1b054609c5ffa40af4b6.html#aa6f830b22d3f1b054609c5ffa40af4b6" target="_top" xlink:title="shut down ArgoDSM system ">
<polygon fill="#ffffff" stroke="#000000" points="309,-278.5 309,-297.5 389,-297.5 389,-278.5 309,-278.5"/>
<text text-anchor="middle" x="349" y="-285.5" font-family="Helvetica,sans-Serif" font-size="10.00" fill="#000000">argo::finalize</text>
</a>
</g>
</g>
<!-- Node3&#45;&gt;Node4 -->
<g id="edge4" class="edge">
<title>Node3&#45;&gt;Node4</title>
<path fill="none" stroke="#191970" d="M233.8661,-221.5179C241.1264,-224.0766 248.4883,-227.2131 255,-231 273.7629,-241.9117 272.6931,-252.3395 291,-264 297.1927,-267.9444 304.1431,-271.475 311.0236,-274.5363"/>
<polygon fill="#191970" stroke="#191970" points="309.709,-277.7803 320.2848,-278.4149 312.413,-271.3236 309.709,-277.7803"/>
</g>
<!-- Node5 -->
<g id="node6" class="node">
<title>Node5</title>
<g id="a_node6"><a xlink:href="swdsm_8cpp_ad3f5bdae81c60ac704dda7372792427d.html#ad3f5bdae81c60ac704dda7372792427d" target="_top" xlink:title="Global barrier for ArgoDSM &#45; needs to be called by every thread in the system that need coherent view...">
<polygon fill="#ffffff" stroke="#000000" points="291,-145.5 291,-164.5 407,-164.5 407,-145.5 291,-145.5"/>
<text text-anchor="middle" x="349" y="-152.5" font-family="Helvetica,sans-Serif" font-size="10.00" fill="#000000">swdsm_argo_barrier</text>
</a>
</g>
</g>
<!-- Node3&#45;&gt;Node5 -->
<g id="edge5" class="edge">
<title>Node3&#45;&gt;Node5</title>
<path fill="none" stroke="#191970" d="M221.6088,-202.4595C246.8729,-193.0473 285.6897,-178.5862 313.8365,-168.1001"/>
<polygon fill="#191970" stroke="#191970" points="315.1588,-171.3426 323.3077,-164.5716 312.715,-164.783 315.1588,-171.3426"/>
</g>
<!-- Node17 -->
<g id="node18" class="node">
<title>Node17</title>
<g id="a_node18"><a xlink:href="namespaceargo_1_1data__distribution_a58576657391f45caf61bf0748a23b098.html#a58576657391f45caf61bf0748a23b098" target="_top" xlink:title="identifies if we distribute data using the first&#45;touch memory policy ">
<polygon fill="#ffffff" stroke="#000000" points="1420,-152 1420,-182 1547,-182 1547,-152 1420,-152"/>
<text text-anchor="start" x="1428" y="-170" font-family="Helvetica,sans-Serif" font-size="10.00" fill="#000000">argo::data_distribution</text>
<text text-anchor="middle" x="1483.5" y="-159" font-family="Helvetica,sans-Serif" font-size="10.00" fill="#000000">::is_first_touch_policy</text>
</a>
</g>
</g>
<!-- Node3&#45;&gt;Node17 -->
<g id="edge33" class="edge">
<title>Node3&#45;&gt;Node17</title>
<path fill="none" stroke="#191970" d="M235.5423,-219.6899C296.1791,-230.7936 415.894,-250 518.5,-250 518.5,-250 518.5,-250 1155.5,-250 1259.4858,-250 1376.5048,-210.3093 1438.8055,-185.8218"/>
<polygon fill="#191970" stroke="#191970" points="1440.329,-188.9825 1448.3242,-182.0307 1437.7388,-182.4793 1440.329,-188.9825"/>
</g>
<!-- Node26 -->
<g id="node27" class="node">
<title>Node26</title>
<g id="a_node27"><a xlink:href="swdsm_8cpp_af770e3f703653ddb0967b85d88881ab7.html#af770e3f703653ddb0967b85d88881ab7" target="_top" xlink:title="Gives the ArgoDSM node id for the local process. ">
<polygon fill="#ffffff" stroke="#000000" points="660.5,-189.5 660.5,-208.5 703.5,-208.5 703.5,-189.5 660.5,-189.5"/>
<text text-anchor="middle" x="682" y="-196.5" font-family="Helvetica,sans-Serif" font-size="10.00" fill="#000000">getID</text>
</a>
</g>
</g>
<!-- Node3&#45;&gt;Node26 -->
<g id="edge30" class="edge">
<title>Node3&#45;&gt;Node26</title>
<path fill="none" stroke="#191970" d="M235.7714,-210.9362C329.9069,-208.4181 564.8571,-202.1335 650.2987,-199.848"/>
<polygon fill="#191970" stroke="#191970" points="650.5157,-203.3435 660.4185,-199.5773 650.3285,-196.346 650.5157,-203.3435"/>
</g>
<!-- Node28 -->
<g id="node29" class="node">
<title>Node28</title>
<g id="a_node29"><a xlink:href="swdsm_8cpp_a08cfbea6d24819e4e6b063144a5e6b5e.html#a08cfbea6d24819e4e6b063144a5e6b5e" target="_top" xlink:title="Prints collected statistics. ">
<polygon fill="#ffffff" stroke="#000000" points="307,-69.5 307,-88.5 391,-88.5 391,-69.5 307,-69.5"/>
<text text-anchor="middle" x="349" y="-76.5" font-family="Helvetica,sans-Serif" font-size="10.00" fill="#000000">printStatistics</text>
</a>
</g>
</g>
<!-- Node3&#45;&gt;Node28 -->
<g id="edge31" class="edge">
<title>Node3&#45;&gt;Node28</title>
<path fill="none" stroke="#191970" d="M207.0034,-202.435C232.7915,-180.0178 297.3957,-123.8586 329.8143,-95.6778"/>
<polygon fill="#191970" stroke="#191970" points="332.4326,-98.0393 337.6835,-88.8372 327.8402,-92.7563 332.4326,-98.0393"/>
</g>
<!-- Node6 -->
<g id="node7" class="node">
<title>Node6</title>
<g id="a_node7"><a xlink:href="swdsm_8cpp_ac99d42ffcf7c78281cb3a6b286ce3a5e.html#ac99d42ffcf7c78281cb3a6b286ce3a5e" target="_top" xlink:title="Gives number of ArgoDSM nodes. ">
<polygon fill="#ffffff" stroke="#000000" points="471.5,-164.5 471.5,-183.5 565.5,-183.5 565.5,-164.5 471.5,-164.5"/>
<text text-anchor="middle" x="518.5" y="-171.5" font-family="Helvetica,sans-Serif" font-size="10.00" fill="#000000">argo_get_nodes</text>
</a>
</g>
</g>
<!-- Node5&#45;&gt;Node6 -->
<g id="edge6" class="edge">
<title>Node5&#45;&gt;Node6</title>
<path fill="none" stroke="#191970" d="M407.3323,-161.5387C424.7835,-163.4949 443.8951,-165.6372 461.2744,-167.5853"/>
<polygon fill="#191970" stroke="#191970" points="460.9536,-171.0712 471.2813,-168.707 461.7334,-164.1148 460.9536,-171.0712"/>
</g>
<!-- Node7 -->
<g id="node8" class="node">
<title>Node7</title>
<g id="a_node8"><a xlink:href="classwrite__buffer_aca2e330e17a38c1cc8d8c60701ce9dd7.html#aca2e330e17a38c1cc8d8c60701ce9dd7" target="_top" xlink:title="Flushes the ArgoDSM write buffer to memory. ">
<polygon fill="#ffffff" stroke="#000000" points="630,-94.5 630,-113.5 734,-113.5 734,-94.5 630,-94.5"/>
<text text-anchor="middle" x="682" y="-101.5" font-family="Helvetica,sans-Serif" font-size="10.00" fill="#000000">write_buffer::flush</text>
</a>
</g>
</g>
<!-- Node5&#45;&gt;Node7 -->
<g id="edge7" class="edge">
<title>Node5&#45;&gt;Node7</title>
<path fill="none" stroke="#191970" d="M367.4935,-145.3893C386.0369,-136.2719 415.6821,-123.0874 443,-117 501.8819,-103.8789 570.8407,-101.4588 619.5118,-101.8224"/>
<polygon fill="#191970" stroke="#191970" points="619.5388,-105.3229 629.5789,-101.9394 619.6203,-98.3234 619.5388,-105.3229"/>
</g>
<!-- Node25 -->
<g id="node26" class="node">
<title>Node25</title>
<g id="a_node26"><a xlink:href="swdsm_8cpp_aa7c3a2de6bbafdaf68fe6ceb6110ab97.html#aa7c3a2de6bbafdaf68fe6ceb6110ab97" target="_top" xlink:title="Self&#45;Invalidates all memory that has potential writers. ">
<polygon fill="#ffffff" stroke="#000000" points="469.5,-126.5 469.5,-145.5 567.5,-145.5 567.5,-126.5 469.5,-126.5"/>
<text text-anchor="middle" x="518.5" y="-133.5" font-family="Helvetica,sans-Serif" font-size="10.00" fill="#000000">self_invalidation</text>
</a>
</g>
</g>
<!-- Node5&#45;&gt;Node25 -->
<g id="edge26" class="edge">
<title>Node5&#45;&gt;Node25</title>
<path fill="none" stroke="#191970" d="M407.3323,-148.4613C424.0653,-146.5856 442.3248,-144.5388 459.1201,-142.6562"/>
<polygon fill="#191970" stroke="#191970" points="459.8137,-146.1004 469.3615,-141.5081 459.0339,-139.144 459.8137,-146.1004"/>
</g>
<!-- Node8 -->
<g id="node9" class="node">
<title>Node8</title>
<g id="a_node9"><a xlink:href="classwrite__buffer_ab70cc0d6ca3591094aae489dbc3feaa5.html#ab70cc0d6ca3591094aae489dbc3feaa5" target="_top" xlink:title="Check if the write buffer is empty. ">
<polygon fill="#ffffff" stroke="#000000" points="779,-164.5 779,-183.5 892,-183.5 892,-164.5 779,-164.5"/>
<text text-anchor="middle" x="835.5" y="-171.5" font-family="Helvetica,sans-Serif" font-size="10.00" fill="#000000">write_buffer::empty</text>
</a>
</g>
</g>
<!-- Node7&#45;&gt;Node8 -->
<g id="edge8" class="edge">
<title>Node7&#45;&gt;Node8</title>
<path fill="none" stroke="#191970" d="M711.9786,-113.516C719.4118,-116.4135 727.1932,-119.9287 734,-124 752.1206,-134.8384 751.4361,-144.9398 770,-155 774.0322,-157.1851 778.3438,-159.144 782.7578,-160.8951"/>
<polygon fill="#191970" stroke="#191970" points="781.9216,-164.3137 792.516,-164.4036 784.29,-157.7265 781.9216,-164.3137"/>
</g>
<!-- Node9 -->
<g id="node10" class="node">
<title>Node9</title>
<g id="a_node10"><a xlink:href="classwrite__buffer_aa2325346aceb3e7ffdbdbdc8e8682147.html#aa2325346aceb3e7ffdbdbdc8e8682147" target="_top" xlink:title="Sorts all elements by home node id in ascending order. ">
<polygon fill="#ffffff" stroke="#000000" points="785.5,-49.5 785.5,-68.5 885.5,-68.5 885.5,-49.5 785.5,-49.5"/>
<text text-anchor="middle" x="835.5" y="-56.5" font-family="Helvetica,sans-Serif" font-size="10.00" fill="#000000">write_buffer::sort</text>
</a>
</g>
</g>
<!-- Node7&#45;&gt;Node9 -->
<g id="edge9" class="edge">
<title>Node7&#45;&gt;Node9</title>
<path fill="none" stroke="#191970" d="M714.5534,-94.4567C737.4484,-87.7448 768.3032,-78.6994 793.1175,-71.4248"/>
<polygon fill="#191970" stroke="#191970" points="794.382,-74.7015 802.9935,-68.5296 792.4127,-67.9842 794.382,-74.7015"/>
</g>
<!-- Node18 -->
<g id="node19" class="node">
<title>Node18</title>
<g id="a_node19"><a xlink:href="classwrite__buffer_ae065d3ee59035ad508eb8ce6670d2c89.html#ae065d3ee59035ad508eb8ce6670d2c89" target="_top" xlink:title="Removes the front element from the buffer and returns it. ">
<polygon fill="#ffffff" stroke="#000000" points="786,-126.5 786,-145.5 885,-145.5 885,-126.5 786,-126.5"/>
<text text-anchor="middle" x="835.5" y="-133.5" font-family="Helvetica,sans-Serif" font-size="10.00" fill="#000000">write_buffer::pop</text>
</a>
</g>
</g>
<!-- Node7&#45;&gt;Node18 -->
<g id="edge19" class="edge">
<title>Node7&#45;&gt;Node18</title>
<path fill="none" stroke="#191970" d="M727.6395,-113.5144C744.0398,-116.9334 762.7215,-120.8279 779.8762,-124.4042"/>
<polygon fill="#191970" stroke="#191970" points="779.2675,-127.8524 789.7713,-126.467 780.6961,-120.9998 779.2675,-127.8524"/>
</g>
<!-- Node19 -->
<g id="node20" class="node">
<title>Node19</title>
<g id="a_node20"><a xlink:href="swdsm_8cpp_a3b6a6b2b244edb9faa79814ce8e5e9f5.html#a3b6a6b2b244edb9faa79814ce8e5e9f5" target="_top" xlink:title="stores a page remotely &#45; only writing back what has been written locally since last synchronization p...">
<polygon fill="#ffffff" stroke="#000000" points="792.5,-88.5 792.5,-107.5 878.5,-107.5 878.5,-88.5 792.5,-88.5"/>
<text text-anchor="middle" x="835.5" y="-95.5" font-family="Helvetica,sans-Serif" font-size="10.00" fill="#000000">storepageDIFF</text>
</a>
</g>
</g>
<!-- Node7&#45;&gt;Node19 -->
<g id="edge20" class="edge">
<title>Node7&#45;&gt;Node19</title>
<path fill="none" stroke="#191970" d="M734.3967,-101.9519C749.639,-101.3561 766.311,-100.7045 781.6417,-100.1052"/>
<polygon fill="#191970" stroke="#191970" points="782.1513,-103.5881 792.0069,-99.7001 781.8778,-96.5934 782.1513,-103.5881"/>
</g>
<!-- Node24 -->
<g id="node25" class="node">
<title>Node24</title>
<g id="a_node25"><a xlink:href="namespaceargo_a79c9492f3fd441bfa6261dffbc0f02f4.html#a79c9492f3fd441bfa6261dffbc0f02f4" target="_top" xlink:title="Number of ArgoDSM nodes being run. ">
<polygon fill="#ffffff" stroke="#000000" points="770,-202.5 770,-221.5 901,-221.5 901,-202.5 770,-202.5"/>
<text text-anchor="middle" x="835.5" y="-209.5" font-family="Helvetica,sans-Serif" font-size="10.00" fill="#000000">argo::number_of_nodes</text>
</a>
</g>
</g>
<!-- Node7&#45;&gt;Node24 -->
<g id="edge25" class="edge">
<title>Node7&#45;&gt;Node24</title>
<path fill="none" stroke="#191970" d="M717.2721,-113.5521C723.2983,-116.2592 729.1645,-119.6854 734,-124 759.8089,-147.0292 743.2376,-171.0861 770,-193 772.1586,-194.7675 774.4746,-196.3706 776.901,-197.8245"/>
<polygon fill="#191970" stroke="#191970" points="775.5808,-201.0788 786.0846,-202.4642 778.7373,-194.8309 775.5808,-201.0788"/>
</g>
<!-- Node10 -->
<g id="node11" class="node">
<title>Node10</title>
<g id="a_node11"><a xlink:href="namespaceargo_a48dc17c94275df10a8e7f3959cbf0191.html#a48dc17c94275df10a8e7f3959cbf0191" target="_top" xlink:title="Get the ArgoDSM node id where addr is physically backed. ">
<polygon fill="#ffffff" stroke="#000000" points="937,-44.5 937,-63.5 1054,-63.5 1054,-44.5 937,-44.5"/>
<text text-anchor="middle" x="995.5" y="-51.5" font-family="Helvetica,sans-Serif" font-size="10.00" fill="#000000">argo::get_homenode</text>
</a>
</g>
</g>
<!-- Node9&#45;&gt;Node10 -->
<g id="edge10" class="edge">
<title>Node9&#45;&gt;Node10</title>
<path fill="none" stroke="#191970" d="M885.686,-57.4317C898.6124,-57.0277 912.7506,-56.5859 926.452,-56.1577"/>
<polygon fill="#191970" stroke="#191970" points="926.9314,-59.6446 936.8171,-55.8338 926.7127,-52.648 926.9314,-59.6446"/>
</g>
<!-- Node11 -->
<g id="node12" class="node">
<title>Node11</title>
<g id="a_node12"><a xlink:href="classargo_1_1data__distribution_1_1global__ptr_a3e2cdd4d323ef91174615e27ab94e342.html#a3e2cdd4d323ef91174615e27ab94e342" target="_top" xlink:title="return the home node of the value pointed to, or a default value if the page has not yet been first&#45;t...">
<polygon fill="#ffffff" stroke="#000000" points="1090,-39 1090,-69 1221,-69 1221,-39 1090,-39"/>
<text text-anchor="start" x="1098" y="-57" font-family="Helvetica,sans-Serif" font-size="10.00" fill="#000000">argo::data_distribution</text>
<text text-anchor="middle" x="1155.5" y="-46" font-family="Helvetica,sans-Serif" font-size="10.00" fill="#000000">::global_ptr::peek_node</text>
</a>
</g>
</g>
<!-- Node10&#45;&gt;Node11 -->
<g id="edge11" class="edge">
<title>Node10&#45;&gt;Node11</title>
<path fill="none" stroke="#191970" d="M1054.1696,-54C1062.503,-54 1071.1696,-54 1079.7702,-54"/>
<polygon fill="#191970" stroke="#191970" points="1079.8123,-57.5001 1089.8123,-54 1079.8122,-50.5001 1079.8123,-57.5001"/>
</g>
<!-- Node12 -->
<g id="node13" class="node">
<title>Node12</title>
<g id="a_node13"><a xlink:href="namespaceargo_a2f35b6b6e0af76fb8fb47f2031d6f58e.html#a2f35b6b6e0af76fb8fb47f2031d6f58e" target="_top" xlink:title="Get the block size of the current allocation policy. ">
<polygon fill="#ffffff" stroke="#000000" points="1097.5,-.5 1097.5,-19.5 1213.5,-19.5 1213.5,-.5 1097.5,-.5"/>
<text text-anchor="middle" x="1155.5" y="-7.5" font-family="Helvetica,sans-Serif" font-size="10.00" fill="#000000">argo::get_block_size</text>
</a>
</g>
</g>
<!-- Node10&#45;&gt;Node12 -->
<g id="edge12" class="edge">
<title>Node10&#45;&gt;Node12</title>
<path fill="none" stroke="#191970" d="M1030.2176,-44.4527C1053.91,-37.9373 1085.5031,-29.2492 1111.0354,-22.2278"/>
<polygon fill="#191970" stroke="#191970" points="1112.1362,-25.5551 1120.8501,-19.5287 1110.28,-18.8056 1112.1362,-25.5551"/>
</g>
<!-- Node13 -->
<g id="node14" class="node">
<title>Node13</title>
<g id="a_node14"><a xlink:href="namespaceargo_1_1data__distribution_a2a70ed49553953957c3a28aa755d7ac8.html#a2a70ed49553953957c3a28aa755d7ac8" target="_top" xlink:title="based on the chosen policy, gets the policy block size ">
<polygon fill="#ffffff" stroke="#000000" points="1257,-78 1257,-108 1384,-108 1384,-78 1257,-78"/>
<text text-anchor="start" x="1265" y="-96" font-family="Helvetica,sans-Serif" font-size="10.00" fill="#000000">argo::data_distribution</text>
<text text-anchor="middle" x="1320.5" y="-85" font-family="Helvetica,sans-Serif" font-size="10.00" fill="#000000">::policy_block_size</text>
</a>
</g>
</g>
<!-- Node12&#45;&gt;Node13 -->
<g id="edge13" class="edge">
<title>Node12&#45;&gt;Node13</title>
<path fill="none" stroke="#191970" d="M1195.3064,-19.5483C1203.9482,-22.1692 1212.917,-25.3227 1221,-29 1246.6156,-40.6537 1273.3139,-58.1662 1292.5981,-71.9277"/>
<polygon fill="#191970" stroke="#191970" points="1290.756,-74.9152 1300.9063,-77.9521 1294.8652,-69.2482 1290.756,-74.9152"/>
</g>
<!-- Node14 -->
<g id="node15" class="node">
<title>Node14</title>
<g id="a_node15"><a xlink:href="namespaceargo_1_1env_a30775a9aa41b956df7474a2c0cc317aa.html#a30775a9aa41b956df7474a2c0cc317aa" target="_top" xlink:title="get the allocation block size requested by environment variable ">
<polygon fill="#ffffff" stroke="#000000" points="1425.5,-103 1425.5,-133 1541.5,-133 1541.5,-103 1425.5,-103"/>
<text text-anchor="start" x="1433.5" y="-121" font-family="Helvetica,sans-Serif" font-size="10.00" fill="#000000">argo::env::allocation</text>
<text text-anchor="middle" x="1483.5" y="-110" font-family="Helvetica,sans-Serif" font-size="10.00" fill="#000000">_block_size</text>
</a>
</g>
</g>
<!-- Node13&#45;&gt;Node14 -->
<g id="edge14" class="edge">
<title>Node13&#45;&gt;Node14</title>
<path fill="none" stroke="#191970" d="M1384.4541,-102.8089C1394.5549,-104.3581 1405.0331,-105.9652 1415.2277,-107.5288"/>
<polygon fill="#191970" stroke="#191970" points="1414.8881,-111.0176 1425.3032,-109.0741 1415.9494,-104.0985 1414.8881,-111.0176"/>
</g>
<!-- Node15 -->
<g id="node16" class="node">
<title>Node15</title>
<g id="a_node16"><a xlink:href="namespaceargo_1_1data__distribution_a1bb3f2dcecd237990e6dc67764f06860.html#a1bb3f2dcecd237990e6dc67764f06860" target="_top" xlink:title="identifies if we distribute data using a cyclic memory policy ">
<polygon fill="#ffffff" stroke="#000000" points="1420,-54 1420,-84 1547,-84 1547,-54 1420,-54"/>
<text text-anchor="start" x="1428" y="-72" font-family="Helvetica,sans-Serif" font-size="10.00" fill="#000000">argo::data_distribution</text>
<text text-anchor="middle" x="1483.5" y="-61" font-family="Helvetica,sans-Serif" font-size="10.00" fill="#000000">::is_cyclic_policy</text>
</a>
</g>
</g>
<!-- Node13&#45;&gt;Node15 -->
<g id="edge15" class="edge">
<title>Node13&#45;&gt;Node15</title>
<path fill="none" stroke="#191970" d="M1384.4541,-83.5834C1392.8519,-82.347 1401.5106,-81.0721 1410.0503,-79.8147"/>
<polygon fill="#191970" stroke="#191970" points="1410.6142,-83.2695 1419.9977,-78.35 1409.5945,-76.3441 1410.6142,-83.2695"/>
</g>
<!-- Node13&#45;&gt;Node17 -->
<g id="edge17" class="edge">
<title>Node13&#45;&gt;Node17</title>
<path fill="none" stroke="#191970" d="M1349.3719,-108.0047C1369.0739,-118.0487 1395.8735,-131.3318 1420,-142 1424.6222,-144.0438 1429.467,-146.1007 1434.332,-148.1094"/>
<polygon fill="#191970" stroke="#191970" points="1433.0772,-151.3774 1443.6592,-151.897 1435.7109,-144.8917 1433.0772,-151.3774"/>
</g>
<!-- Node16 -->
<g id="node17" class="node">
<title>Node16</title>
<g id="a_node17"><a xlink:href="namespaceargo_1_1env_a25a08cb2d0d11432d640ec7173063339.html#a25a08cb2d0d11432d640ec7173063339" target="_top" xlink:title="get the allocation policy requested by environment variable ">
<polygon fill="#ffffff" stroke="#000000" points="1583,-103 1583,-133 1699,-133 1699,-103 1583,-103"/>
<text text-anchor="start" x="1591" y="-121" font-family="Helvetica,sans-Serif" font-size="10.00" fill="#000000">argo::env::allocation</text>
<text text-anchor="middle" x="1641" y="-110" font-family="Helvetica,sans-Serif" font-size="10.00" fill="#000000">_policy</text>
</a>
</g>
</g>
<!-- Node15&#45;&gt;Node16 -->
<g id="edge16" class="edge">
<title>Node15&#45;&gt;Node16</title>
<path fill="none" stroke="#191970" d="M1532.0403,-84.1014C1548.1339,-89.1083 1566.2114,-94.7324 1582.9467,-99.939"/>
<polygon fill="#191970" stroke="#191970" points="1582.0316,-103.3197 1592.6199,-102.9484 1584.1111,-96.6357 1582.0316,-103.3197"/>
</g>
<!-- Node17&#45;&gt;Node16 -->
<g id="edge18" class="edge">
<title>Node17&#45;&gt;Node16</title>
<path fill="none" stroke="#191970" d="M1532.0403,-151.8986C1548.1339,-146.8917 1566.2114,-141.2676 1582.9467,-136.061"/>
<polygon fill="#191970" stroke="#191970" points="1584.1111,-139.3643 1592.6199,-133.0516 1582.0316,-132.6803 1584.1111,-139.3643"/>
</g>
<!-- Node20 -->
<g id="node21" class="node">
<title>Node20</title>
<g id="a_node21"><a xlink:href="swdsm_8cpp_ab2e5fbbe4d1f44d25619f290dc37dd3e.html#ab2e5fbbe4d1f44d25619f290dc37dd3e" target="_top" xlink:title="Gives homenode for a given address. ">
<polygon fill="#ffffff" stroke="#000000" points="951,-135.5 951,-154.5 1040,-154.5 1040,-135.5 951,-135.5"/>
<text text-anchor="middle" x="995.5" y="-142.5" font-family="Helvetica,sans-Serif" font-size="10.00" fill="#000000">get_homenode</text>
</a>
</g>
</g>
<!-- Node19&#45;&gt;Node20 -->
<g id="edge21" class="edge">
<title>Node19&#45;&gt;Node20</title>
<path fill="none" stroke="#191970" d="M868.4963,-107.5315C878.8997,-110.5474 890.4333,-113.902 901,-117 918.2693,-122.0631 937.2989,-127.6919 953.7276,-132.567"/>
<polygon fill="#191970" stroke="#191970" points="952.9992,-136.0017 963.5818,-135.4933 954.9919,-129.2913 952.9992,-136.0017"/>
</g>
<!-- Node22 -->
<g id="node23" class="node">
<title>Node22</title>
<g id="a_node23"><a xlink:href="swdsm_8cpp_a974f1a03f5461bb989248cceb41cd95b.html#a974f1a03f5461bb989248cceb41cd95b" target="_top" xlink:title="Gets the offset of an address on the local nodes part of the global memory. ">
<polygon fill="#ffffff" stroke="#000000" points="963,-90.5 963,-109.5 1028,-109.5 1028,-90.5 963,-90.5"/>
<text text-anchor="middle" x="995.5" y="-97.5" font-family="Helvetica,sans-Serif" font-size="10.00" fill="#000000">get_offset</text>
</a>
</g>
</g>
<!-- Node19&#45;&gt;Node22 -->
<g id="edge23" class="edge">
<title>Node19&#45;&gt;Node22</title>
<path fill="none" stroke="#191970" d="M878.7983,-98.5412C901.7517,-98.8281 929.8515,-99.1794 952.7258,-99.4653"/>
<polygon fill="#191970" stroke="#191970" points="952.7877,-102.9663 962.8307,-99.5916 952.8752,-95.9668 952.7877,-102.9663"/>
</g>
<!-- Node21 -->
<g id="node22" class="node">
<title>Node21</title>
<g id="a_node22"><a xlink:href="classargo_1_1data__distribution_1_1global__ptr_ac7d651586337d08cda18ef26ffcd34a0.html#ac7d651586337d08cda18ef26ffcd34a0" target="_top" xlink:title="return the home node of the value pointed to ">
<polygon fill="#ffffff" stroke="#000000" points="1092,-137 1092,-167 1219,-167 1219,-137 1092,-137"/>
<text text-anchor="start" x="1100" y="-155" font-family="Helvetica,sans-Serif" font-size="10.00" fill="#000000">argo::data_distribution</text>
<text text-anchor="middle" x="1155.5" y="-144" font-family="Helvetica,sans-Serif" font-size="10.00" fill="#000000">::global_ptr::node</text>
</a>
</g>
</g>
<!-- Node20&#45;&gt;Node21 -->
<g id="edge22" class="edge">
<title>Node20&#45;&gt;Node21</title>
<path fill="none" stroke="#191970" d="M1040.0689,-146.9499C1052.9412,-147.5131 1067.3472,-148.1433 1081.5013,-148.7626"/>
<polygon fill="#191970" stroke="#191970" points="1081.5941,-152.2699 1091.7375,-149.2104 1081.9001,-145.2766 1081.5941,-152.2699"/>
</g>
<!-- Node23 -->
<g id="node24" class="node">
<title>Node23</title>
<g id="a_node24"><a xlink:href="classargo_1_1data__distribution_1_1global__ptr_ad8c21c408fa2b926cfd9acfd87e8e4e6.html#ad8c21c408fa2b926cfd9acfd87e8e4e6" target="_top" xlink:title="return the offset on the home node&#39;s local memory share ">
<polygon fill="#ffffff" stroke="#000000" points="1092,-88 1092,-118 1219,-118 1219,-88 1092,-88"/>
<text text-anchor="start" x="1100" y="-106" font-family="Helvetica,sans-Serif" font-size="10.00" fill="#000000">argo::data_distribution</text>
<text text-anchor="middle" x="1155.5" y="-95" font-family="Helvetica,sans-Serif" font-size="10.00" fill="#000000">::global_ptr::offset</text>
</a>
</g>
</g>
<!-- Node22&#45;&gt;Node23 -->
<g id="edge24" class="edge">
<title>Node22&#45;&gt;Node23</title>
<path fill="none" stroke="#191970" d="M1028.2645,-100.6143C1043.764,-100.905 1062.9491,-101.2647 1081.6797,-101.6159"/>
<polygon fill="#191970" stroke="#191970" points="1081.6467,-105.1158 1091.7106,-101.8039 1081.778,-98.117 1081.6467,-105.1158"/>
</g>
<!-- Node25&#45;&gt;Node7 -->
<g id="edge29" class="edge">
<title>Node25&#45;&gt;Node7</title>
<path fill="none" stroke="#191970" d="M567.1127,-126.4856C584.7447,-123.0347 604.8524,-119.0992 623.2643,-115.4957"/>
<polygon fill="#191970" stroke="#191970" points="624.1507,-118.8887 633.2923,-113.533 622.8062,-112.019 624.1507,-118.8887"/>
</g>
<!-- Node25&#45;&gt;Node26 -->
<g id="edge27" class="edge">
<title>Node25&#45;&gt;Node26</title>
<path fill="none" stroke="#191970" d="M563.3049,-145.57C573.5232,-148.2209 584.2417,-151.3815 594,-155 594.0997,-155.037 628.2023,-172.0914 653.919,-184.954"/>
<polygon fill="#191970" stroke="#191970" points="652.4263,-188.1208 662.9357,-189.4639 655.5578,-181.8602 652.4263,-188.1208"/>
</g>
<!-- Node27 -->
<g id="node28" class="node">
<title>Node27</title>
<g id="a_node28"><a xlink:href="swdsm_8cpp_aff9ea7ba7f37206d933c8dc8004dbc7b.html#aff9ea7ba7f37206d933c8dc8004dbc7b" target="_top" xlink:title="Gives an index to the sharer/writer vector depending on the address. ">
<polygon fill="#ffffff" stroke="#000000" points="631.5,-133 631.5,-163 732.5,-163 732.5,-133 631.5,-133"/>
<text text-anchor="start" x="639.5" y="-151" font-family="Helvetica,sans-Serif" font-size="10.00" fill="#000000">get_classification</text>
<text text-anchor="middle" x="682" y="-140" font-family="Helvetica,sans-Serif" font-size="10.00" fill="#000000">_index</text>
</a>
</g>
</g>
<!-- Node25&#45;&gt;Node27 -->
<g id="edge28" class="edge">
<title>Node25&#45;&gt;Node27</title>
<path fill="none" stroke="#191970" d="M567.5554,-139.6004C584.3823,-140.8354 603.4218,-142.2328 621.0735,-143.5283"/>
<polygon fill="#191970" stroke="#191970" points="621.0497,-147.0359 631.2791,-144.2774 621.5621,-140.0547 621.0497,-147.0359"/>
</g>
<!-- Node29 -->
<g id="node30" class="node">
<title>Node29</title>
<g id="a_node30"><a xlink:href="namespaceargo_1_1env_a5b409fb87255b7e434bf833ab8598113.html#a5b409fb87255b7e434bf833ab8598113" target="_top" xlink:title="get the write buffer size requested by environment variable ">
<polygon fill="#ffffff" stroke="#000000" points="443,-50.5 443,-69.5 594,-69.5 594,-50.5 443,-50.5"/>
<text text-anchor="middle" x="518.5" y="-57.5" font-family="Helvetica,sans-Serif" font-size="10.00" fill="#000000">argo::env::write_buffer_size</text>
</a>
</g>
</g>
<!-- Node28&#45;&gt;Node29 -->
<g id="edge32" class="edge">
<title>Node28&#45;&gt;Node29</title>
<path fill="none" stroke="#191970" d="M391.3348,-74.2545C404.0024,-72.8345 418.3734,-71.2236 432.7818,-69.6085"/>
<polygon fill="#191970" stroke="#191970" points="433.1944,-73.0843 442.7423,-68.492 432.4146,-66.1279 433.1944,-73.0843"/>
</g>
</g>
</svg>
        <g id="navigator" transform="translate(0 0)" fill="#404254">
                <rect fill="#f2f5e9" fill-opacity="0.5" stroke="#606060" stroke-width=".5" x="0" y="0" width="60" height="60"/>
                <use id="zoomplus" xlink:href="#zoomPlus" x="17" y="9" onmousedown="handleZoom(evt,'in')"/>
                <use id="zoomminus" xlink:href="#zoomMin" x="42" y="9" onmousedown="handleZoom(evt,'out')"/>
                <use id="reset" xlink:href="#resetDef" x="30" y="36" onmousedown="handleReset()"/>
                <g id="arrowUp" xlink:href="#dirArrow" transform="translate(30 24)" onmousedown="handlePan(0,-1)">
                  <use xlink:href="#rim" fill="#404040">
                        <set attributeName="fill" to="#808080" begin="arrowUp.mouseover" end="arrowUp.mouseout"/>
                  </use>
                  <path fill="none" stroke="white" stroke-width="1.5" d="M0,-3.0v7 M-2.5,-0.5L0,-3.0L2.5,-0.5"/>
                </g>
                <g id="arrowRight" xlink:href="#dirArrow" transform="rotate(90) translate(36 -43)" onmousedown="handlePan(1,0)">
                  <use xlink:href="#rim" fill="#404040">
                        <set attributeName="fill" to="#808080" begin="arrowRight.mouseover" end="arrowRight.mouseout"/>
                  </use>
                  <path fill="none" stroke="white" stroke-width="1.5" d="M0,-3.0v7 M-2.5,-0.5L0,-3.0L2.5,-0.5"/>
                </g>
                <g id="arrowDown" xlink:href="#dirArrow" transform="rotate(180) translate(-30 -48)" onmousedown="handlePan(0,1)">
                  <use xlink:href="#rim" fill="#404040">
                        <set attributeName="fill" to="#808080" begin="arrowDown.mouseover" end="arrowDown.mouseout"/>
                  </use>
                  <path fill="none" stroke="white" stroke-width="1.5" d="M0,-3.0v7 M-2.5,-0.5L0,-3.0L2.5,-0.5"/>
                </g>
                <g id="arrowLeft" xlink:href="#dirArrow" transform="rotate(270) translate(-36 17)" onmousedown="handlePan(-1,0)">
                  <use xlink:href="#rim" fill="#404040">
                        <set attributeName="fill" to="#808080" begin="arrowLeft.mouseover" end="arrowLeft.mouseout"/>
                  </use>
                  <path fill="none" stroke="white" stroke-width="1.5" d="M0,-3.0v7 M-2.5,-0.5L0,-3.0L2.5,-0.5"/>
                </g>
        </g>
        <svg viewBox="0 0 15 15" width="100%" height="30px" preserveAspectRatio="xMaxYMin meet">
         <g id="arrow_out" transform="scale(0.3 0.3)">
          <a xlink:href="swdsm_8h_a18cc89a7368e30281ea4b1d214a1b1ff_a18cc89a7368e30281ea4b1d214a1b1ff_cgraph_org.svg" target="_base">
           <rect id="button" ry="5" rx="5" y="6" x="6" height="38" width="38"
                fill="#f2f5e9" fill-opacity="0.5" stroke="#606060" stroke-width="1.0"/>
           <path id="arrow"
             d="M 11.500037,31.436501 C 11.940474,20.09759 22.043105,11.32322 32.158766,21.979434 L 37.068811,17.246167 C 37.068811,17.246167 37.088388,32 37.088388,32 L 22.160133,31.978069 C 22.160133,31.978069 26.997745,27.140456 26.997745,27.140456 C 18.528582,18.264221 13.291696,25.230495 11.500037,31.436501 z"
             style="fill:#404040;"/>
          </a>
         </g>
        </svg>
</svg>
