<?xml version="1.0" encoding="UTF-8" standalone="no"?>
<!DOCTYPE svg PUBLIC "-//W3C//DTD SVG 1.1//EN"
 "http://www.w3.org/Graphics/SVG/1.1/DTD/svg11.dtd">
<!-- Generated by graphviz version 2.40.1 (20161225.0304)
 -->
<!-- Title: self_invalidation Pages: 1 -->
<svg width="1211pt" height="192pt"
 viewBox="0.00 0.00 1211.00 192.00" xmlns="http://www.w3.org/2000/svg" xmlns:xlink="http://www.w3.org/1999/xlink">
<g id="graph0" class="graph" transform="scale(1 1) rotate(0) translate(4 188)">
<title>self_invalidation</title>
<polygon fill="#ffffff" stroke="transparent" points="-4,4 -4,-188 1207,-188 1207,4 -4,4"/>
<!-- Node0 -->
<g id="node1" class="node">
<title>Node0</title>
<polygon fill="#bfbfbf" stroke="#000000" points="0,-120.5 0,-139.5 98,-139.5 98,-120.5 0,-120.5"/>
<text text-anchor="middle" x="49" y="-127.5" font-family="Helvetica,sans-Serif" font-size="10.00" fill="#000000">self_invalidation</text>
</g>
<!-- Node1 -->
<g id="node2" class="node">
<title>Node1</title>
<g id="a_node2"><a xlink:href="swdsm_8cpp_af770e3f703653ddb0967b85d88881ab7.html#af770e3f703653ddb0967b85d88881ab7" target="_top" xlink:title="Gives the ArgoDSM node id for the local process. ">
<polygon fill="#ffffff" stroke="#000000" points="164.5,-164.5 164.5,-183.5 207.5,-183.5 207.5,-164.5 164.5,-164.5"/>
<text text-anchor="middle" x="186" y="-171.5" font-family="Helvetica,sans-Serif" font-size="10.00" fill="#000000">getID</text>
</a>
</g>
</g>
<!-- Node0&#45;&gt;Node1 -->
<g id="edge1" class="edge">
<title>Node0&#45;&gt;Node1</title>
<path fill="none" stroke="#191970" d="M78.727,-139.5473C101.2121,-146.7689 132.0081,-156.6595 154.8372,-163.9915"/>
<polygon fill="#191970" stroke="#191970" points="153.8046,-167.3359 164.3959,-167.0614 155.9451,-160.6712 153.8046,-167.3359"/>
</g>
<!-- Node2 -->
<g id="node3" class="node">
<title>Node2</title>
<g id="a_node3"><a xlink:href="swdsm_8cpp_aff9ea7ba7f37206d933c8dc8004dbc7b.html#aff9ea7ba7f37206d933c8dc8004dbc7b" target="_top" xlink:title="Gives an index to the sharer/writer vector depending on the address. ">
<polygon fill="#ffffff" stroke="#000000" points="135.5,-115 135.5,-145 236.5,-145 236.5,-115 135.5,-115"/>
<text text-anchor="start" x="143.5" y="-133" font-family="Helvetica,sans-Serif" font-size="10.00" fill="#000000">get_classification</text>
<text text-anchor="middle" x="186" y="-122" font-family="Helvetica,sans-Serif" font-size="10.00" fill="#000000">_index</text>
</a>
</g>
</g>
<!-- Node0&#45;&gt;Node2 -->
<g id="edge2" class="edge">
<title>Node0&#45;&gt;Node2</title>
<path fill="none" stroke="#191970" d="M98.0732,-130C106.8871,-130 116.1689,-130 125.2656,-130"/>
<polygon fill="#191970" stroke="#191970" points="125.4226,-133.5001 135.4226,-130 125.4226,-126.5001 125.4226,-133.5001"/>
</g>
<!-- Node3 -->
<g id="node4" class="node">
<title>Node3</title>
<g id="a_node4"><a xlink:href="classwrite__buffer_aca2e330e17a38c1cc8d8c60701ce9dd7.html#aca2e330e17a38c1cc8d8c60701ce9dd7" target="_top" xlink:title="Flushes the ArgoDSM write buffer to memory. ">
<polygon fill="#ffffff" stroke="#000000" points="134,-76.5 134,-95.5 238,-95.5 238,-76.5 134,-76.5"/>
<text text-anchor="middle" x="186" y="-83.5" font-family="Helvetica,sans-Serif" font-size="10.00" fill="#000000">write_buffer::flush</text>
</a>
</g>
</g>
<!-- Node0&#45;&gt;Node3 -->
<g id="edge3" class="edge">
<title>Node0&#45;&gt;Node3</title>
<path fill="none" stroke="#191970" d="M78.727,-120.4527C98.6545,-114.0526 125.1097,-105.556 146.7616,-98.6021"/>
<polygon fill="#191970" stroke="#191970" points="147.8803,-101.919 156.3311,-95.5287 145.7398,-95.2543 147.8803,-101.919"/>
</g>
<!-- Node4 -->
<g id="node5" class="node">
<title>Node4</title>
<g id="a_node5"><a xlink:href="classwrite__buffer_ab70cc0d6ca3591094aae489dbc3feaa5.html#ab70cc0d6ca3591094aae489dbc3feaa5" target="_top" xlink:title="Check if the write buffer is empty. ">
<polygon fill="#ffffff" stroke="#000000" points="283,-152.5 283,-171.5 396,-171.5 396,-152.5 283,-152.5"/>
<text text-anchor="middle" x="339.5" y="-159.5" font-family="Helvetica,sans-Serif" font-size="10.00" fill="#000000">write_buffer::empty</text>
</a>
</g>
</g>
<!-- Node3&#45;&gt;Node4 -->
<g id="edge4" class="edge">
<title>Node3&#45;&gt;Node4</title>
<path fill="none" stroke="#191970" d="M217.3254,-95.536C224.4148,-98.3662 231.7023,-101.8456 238,-106 257.1522,-118.6339 254.3293,-131.1897 274,-143 277.5973,-145.1598 281.4538,-147.0858 285.4288,-148.8012"/>
<polygon fill="#191970" stroke="#191970" points="284.263,-152.1028 294.8527,-152.4328 286.7802,-145.571 284.263,-152.1028"/>
</g>
<!-- Node5 -->
<g id="node6" class="node">
<title>Node5</title>
<g id="a_node6"><a xlink:href="classwrite__buffer_aa2325346aceb3e7ffdbdbdc8e8682147.html#aa2325346aceb3e7ffdbdbdc8e8682147" target="_top" xlink:title="Sorts all elements by home node id in ascending order. ">
<polygon fill="#ffffff" stroke="#000000" points="289.5,-114.5 289.5,-133.5 389.5,-133.5 389.5,-114.5 289.5,-114.5"/>
<text text-anchor="middle" x="339.5" y="-121.5" font-family="Helvetica,sans-Serif" font-size="10.00" fill="#000000">write_buffer::sort</text>
</a>
</g>
</g>
<!-- Node3&#45;&gt;Node5 -->
<g id="edge5" class="edge">
<title>Node3&#45;&gt;Node5</title>
<path fill="none" stroke="#191970" d="M224.7345,-95.589C244.8993,-100.5809 269.7479,-106.7324 291.1611,-112.0334"/>
<polygon fill="#191970" stroke="#191970" points="290.4959,-115.4743 301.044,-114.4799 292.1781,-108.6794 290.4959,-115.4743"/>
</g>
<!-- Node14 -->
<g id="node15" class="node">
<title>Node14</title>
<g id="a_node15"><a xlink:href="classwrite__buffer_ae065d3ee59035ad508eb8ce6670d2c89.html#ae065d3ee59035ad508eb8ce6670d2c89" target="_top" xlink:title="Removes the front element from the buffer and returns it. ">
<polygon fill="#ffffff" stroke="#000000" points="290,-76.5 290,-95.5 389,-95.5 389,-76.5 290,-76.5"/>
<text text-anchor="middle" x="339.5" y="-83.5" font-family="Helvetica,sans-Serif" font-size="10.00" fill="#000000">write_buffer::pop</text>
</a>
</g>
</g>
<!-- Node3&#45;&gt;Node14 -->
<g id="edge15" class="edge">
<title>Node3&#45;&gt;Node14</title>
<path fill="none" stroke="#191970" d="M238.3967,-86C251.6849,-86 266.0597,-86 279.685,-86"/>
<polygon fill="#191970" stroke="#191970" points="279.9279,-89.5001 289.9279,-86 279.9279,-82.5001 279.9279,-89.5001"/>
</g>
<!-- Node15 -->
<g id="node16" class="node">
<title>Node15</title>
<g id="a_node16"><a xlink:href="swdsm_8cpp_a3b6a6b2b244edb9faa79814ce8e5e9f5.html#a3b6a6b2b244edb9faa79814ce8e5e9f5" target="_top" xlink:title="stores a page remotely &#45; only writing back what has been written locally since last synchronization p...">
<polygon fill="#ffffff" stroke="#000000" points="296.5,-38.5 296.5,-57.5 382.5,-57.5 382.5,-38.5 296.5,-38.5"/>
<text text-anchor="middle" x="339.5" y="-45.5" font-family="Helvetica,sans-Serif" font-size="10.00" fill="#000000">storepageDIFF</text>
</a>
</g>
</g>
<!-- Node3&#45;&gt;Node15 -->
<g id="edge16" class="edge">
<title>Node3&#45;&gt;Node15</title>
<path fill="none" stroke="#191970" d="M224.7345,-76.411C244.8993,-71.4191 269.7479,-65.2676 291.1611,-59.9666"/>
<polygon fill="#191970" stroke="#191970" points="292.1781,-63.3206 301.044,-57.5201 290.4959,-56.5257 292.1781,-63.3206"/>
</g>
<!-- Node20 -->
<g id="node21" class="node">
<title>Node20</title>
<g id="a_node21"><a xlink:href="namespaceargo_a79c9492f3fd441bfa6261dffbc0f02f4.html#a79c9492f3fd441bfa6261dffbc0f02f4" target="_top" xlink:title="Number of ArgoDSM nodes being run. ">
<polygon fill="#ffffff" stroke="#000000" points="274,-.5 274,-19.5 405,-19.5 405,-.5 274,-.5"/>
<text text-anchor="middle" x="339.5" y="-7.5" font-family="Helvetica,sans-Serif" font-size="10.00" fill="#000000">argo::number_of_nodes</text>
</a>
</g>
</g>
<!-- Node3&#45;&gt;Node20 -->
<g id="edge21" class="edge">
<title>Node3&#45;&gt;Node20</title>
<path fill="none" stroke="#191970" d="M198.1527,-76.4675C214.5424,-64.0129 245.026,-42.2374 274,-29 279.0482,-26.6936 284.4438,-24.5948 289.8903,-22.705"/>
<polygon fill="#191970" stroke="#191970" points="291.2519,-25.9429 299.6848,-19.5291 289.0928,-19.2842 291.2519,-25.9429"/>
</g>
<!-- Node6 -->
<g id="node7" class="node">
<title>Node6</title>
<g id="a_node7"><a xlink:href="namespaceargo_a48dc17c94275df10a8e7f3959cbf0191.html#a48dc17c94275df10a8e7f3959cbf0191" target="_top" xlink:title="Get the ArgoDSM node id where addr is physically backed. ">
<polygon fill="#ffffff" stroke="#000000" points="441,-114.5 441,-133.5 558,-133.5 558,-114.5 441,-114.5"/>
<text text-anchor="middle" x="499.5" y="-121.5" font-family="Helvetica,sans-Serif" font-size="10.00" fill="#000000">argo::get_homenode</text>
</a>
</g>
</g>
<!-- Node5&#45;&gt;Node6 -->
<g id="edge6" class="edge">
<title>Node5&#45;&gt;Node6</title>
<path fill="none" stroke="#191970" d="M389.686,-124C402.6124,-124 416.7506,-124 430.452,-124"/>
<polygon fill="#191970" stroke="#191970" points="430.8172,-127.5001 440.8171,-124 430.8171,-120.5001 430.8172,-127.5001"/>
</g>
<!-- Node7 -->
<g id="node8" class="node">
<title>Node7</title>
<g id="a_node8"><a xlink:href="classargo_1_1data__distribution_1_1global__ptr_a3e2cdd4d323ef91174615e27ab94e342.html#a3e2cdd4d323ef91174615e27ab94e342" target="_top" xlink:title="return the home node of the value pointed to, or a default value if the page has not yet been first&#45;t...">
<polygon fill="#ffffff" stroke="#000000" points="594,-146 594,-176 725,-176 725,-146 594,-146"/>
<text text-anchor="start" x="602" y="-164" font-family="Helvetica,sans-Serif" font-size="10.00" fill="#000000">argo::data_distribution</text>
<text text-anchor="middle" x="659.5" y="-153" font-family="Helvetica,sans-Serif" font-size="10.00" fill="#000000">::global_ptr::peek_node</text>
</a>
</g>
</g>
<!-- Node6&#45;&gt;Node7 -->
<g id="edge7" class="edge">
<title>Node6&#45;&gt;Node7</title>
<path fill="none" stroke="#191970" d="M540.704,-133.5284C554.1478,-136.6373 569.5203,-140.1922 584.6465,-143.6901"/>
<polygon fill="#191970" stroke="#191970" points="583.9967,-147.1322 594.5282,-145.9753 585.5739,-140.3121 583.9967,-147.1322"/>
</g>
<!-- Node8 -->
<g id="node9" class="node">
<title>Node8</title>
<g id="a_node9"><a xlink:href="namespaceargo_a2f35b6b6e0af76fb8fb47f2031d6f58e.html#a2f35b6b6e0af76fb8fb47f2031d6f58e" target="_top" xlink:title="Get the block size of the current allocation policy. ">
<polygon fill="#ffffff" stroke="#000000" points="601.5,-107.5 601.5,-126.5 717.5,-126.5 717.5,-107.5 601.5,-107.5"/>
<text text-anchor="middle" x="659.5" y="-114.5" font-family="Helvetica,sans-Serif" font-size="10.00" fill="#000000">argo::get_block_size</text>
</a>
</g>
</g>
<!-- Node6&#45;&gt;Node8 -->
<g id="edge8" class="edge">
<title>Node6&#45;&gt;Node8</title>
<path fill="none" stroke="#191970" d="M558.1696,-121.4332C568.9585,-120.9612 580.3057,-120.4648 591.3452,-119.9818"/>
<polygon fill="#191970" stroke="#191970" points="591.5347,-123.4769 601.3722,-119.5431 591.2287,-116.4836 591.5347,-123.4769"/>
</g>
<!-- Node9 -->
<g id="node10" class="node">
<title>Node9</title>
<g id="a_node10"><a xlink:href="namespaceargo_1_1data__distribution_a2a70ed49553953957c3a28aa755d7ac8.html#a2a70ed49553953957c3a28aa755d7ac8" target="_top" xlink:title="based on the chosen policy, gets the policy block size ">
<polygon fill="#ffffff" stroke="#000000" points="761,-102 761,-132 888,-132 888,-102 761,-102"/>
<text text-anchor="start" x="769" y="-120" font-family="Helvetica,sans-Serif" font-size="10.00" fill="#000000">argo::data_distribution</text>
<text text-anchor="middle" x="824.5" y="-109" font-family="Helvetica,sans-Serif" font-size="10.00" fill="#000000">::policy_block_size</text>
</a>
</g>
</g>
<!-- Node8&#45;&gt;Node9 -->
<g id="edge9" class="edge">
<title>Node8&#45;&gt;Node9</title>
<path fill="none" stroke="#191970" d="M717.6728,-117C728.3993,-117 739.7284,-117 750.841,-117"/>
<polygon fill="#191970" stroke="#191970" points="750.9621,-120.5001 760.9621,-117 750.962,-113.5001 750.9621,-120.5001"/>
</g>
<!-- Node10 -->
<g id="node11" class="node">
<title>Node10</title>
<g id="a_node11"><a xlink:href="namespaceargo_1_1env_a30775a9aa41b956df7474a2c0cc317aa.html#a30775a9aa41b956df7474a2c0cc317aa" target="_top" xlink:title="get the allocation block size requested by environment variable ">
<polygon fill="#ffffff" stroke="#000000" points="929.5,-151 929.5,-181 1045.5,-181 1045.5,-151 929.5,-151"/>
<text text-anchor="start" x="937.5" y="-169" font-family="Helvetica,sans-Serif" font-size="10.00" fill="#000000">argo::env::allocation</text>
<text text-anchor="middle" x="987.5" y="-158" font-family="Helvetica,sans-Serif" font-size="10.00" fill="#000000">_block_size</text>
</a>
</g>
</g>
<!-- Node9&#45;&gt;Node10 -->
<g id="edge10" class="edge">
<title>Node9&#45;&gt;Node10</title>
<path fill="none" stroke="#191970" d="M874.7354,-132.1014C891.3909,-137.1083 910.0997,-142.7324 927.4194,-147.939"/>
<polygon fill="#191970" stroke="#191970" points="926.8462,-151.4213 937.4305,-150.9484 928.8615,-144.7177 926.8462,-151.4213"/>
</g>
<!-- Node11 -->
<g id="node12" class="node">
<title>Node11</title>
<g id="a_node12"><a xlink:href="namespaceargo_1_1data__distribution_a1bb3f2dcecd237990e6dc67764f06860.html#a1bb3f2dcecd237990e6dc67764f06860" target="_top" xlink:title="identifies if we distribute data using a cyclic memory policy ">
<polygon fill="#ffffff" stroke="#000000" points="924,-102 924,-132 1051,-132 1051,-102 924,-102"/>
<text text-anchor="start" x="932" y="-120" font-family="Helvetica,sans-Serif" font-size="10.00" fill="#000000">argo::data_distribution</text>
<text text-anchor="middle" x="987.5" y="-109" font-family="Helvetica,sans-Serif" font-size="10.00" fill="#000000">::is_cyclic_policy</text>
</a>
</g>
</g>
<!-- Node9&#45;&gt;Node11 -->
<g id="edge11" class="edge">
<title>Node9&#45;&gt;Node11</title>
<path fill="none" stroke="#191970" d="M888.4541,-117C896.7606,-117 905.3224,-117 913.7718,-117"/>
<polygon fill="#191970" stroke="#191970" points="913.9977,-120.5001 923.9977,-117 913.9977,-113.5001 913.9977,-120.5001"/>
</g>
<!-- Node13 -->
<g id="node14" class="node">
<title>Node13</title>
<g id="a_node14"><a xlink:href="namespaceargo_1_1data__distribution_a58576657391f45caf61bf0748a23b098.html#a58576657391f45caf61bf0748a23b098" target="_top" xlink:title="identifies if we distribute data using the first&#45;touch memory policy ">
<polygon fill="#ffffff" stroke="#000000" points="924,-53 924,-83 1051,-83 1051,-53 924,-53"/>
<text text-anchor="start" x="932" y="-71" font-family="Helvetica,sans-Serif" font-size="10.00" fill="#000000">argo::data_distribution</text>
<text text-anchor="middle" x="987.5" y="-60" font-family="Helvetica,sans-Serif" font-size="10.00" fill="#000000">::is_first_touch_policy</text>
</a>
</g>
</g>
<!-- Node9&#45;&gt;Node13 -->
<g id="edge13" class="edge">
<title>Node9&#45;&gt;Node13</title>
<path fill="none" stroke="#191970" d="M874.7354,-101.8986C891.3909,-96.8917 910.0997,-91.2676 927.4194,-86.061"/>
<polygon fill="#191970" stroke="#191970" points="928.8615,-89.2823 937.4305,-83.0516 926.8462,-82.5787 928.8615,-89.2823"/>
</g>
<!-- Node12 -->
<g id="node13" class="node">
<title>Node12</title>
<g id="a_node13"><a xlink:href="namespaceargo_1_1env_a25a08cb2d0d11432d640ec7173063339.html#a25a08cb2d0d11432d640ec7173063339" target="_top" xlink:title="get the allocation policy requested by environment variable ">
<polygon fill="#ffffff" stroke="#000000" points="1087,-77 1087,-107 1203,-107 1203,-77 1087,-77"/>
<text text-anchor="start" x="1095" y="-95" font-family="Helvetica,sans-Serif" font-size="10.00" fill="#000000">argo::env::allocation</text>
<text text-anchor="middle" x="1145" y="-84" font-family="Helvetica,sans-Serif" font-size="10.00" fill="#000000">_policy</text>
</a>
</g>
</g>
<!-- Node11&#45;&gt;Node12 -->
<g id="edge12" class="edge">
<title>Node11&#45;&gt;Node12</title>
<path fill="none" stroke="#191970" d="M1051.1073,-106.9036C1059.5754,-105.5595 1068.2863,-104.1768 1076.8281,-102.8209"/>
<polygon fill="#191970" stroke="#191970" points="1077.4255,-106.27 1086.7531,-101.2455 1076.3281,-99.3566 1077.4255,-106.27"/>
</g>
<!-- Node13&#45;&gt;Node12 -->
<g id="edge14" class="edge">
<title>Node13&#45;&gt;Node12</title>
<path fill="none" stroke="#191970" d="M1051.1073,-77.6925C1059.5754,-78.9829 1068.2863,-80.3103 1076.8281,-81.6119"/>
<polygon fill="#191970" stroke="#191970" points="1076.34,-85.0778 1086.7531,-83.1243 1077.3945,-78.1577 1076.34,-85.0778"/>
</g>
<!-- Node16 -->
<g id="node17" class="node">
<title>Node16</title>
<g id="a_node17"><a xlink:href="swdsm_8cpp_ab2e5fbbe4d1f44d25619f290dc37dd3e.html#ab2e5fbbe4d1f44d25619f290dc37dd3e" target="_top" xlink:title="Gives homenode for a given address. ">
<polygon fill="#ffffff" stroke="#000000" points="455,-52.5 455,-71.5 544,-71.5 544,-52.5 455,-52.5"/>
<text text-anchor="middle" x="499.5" y="-59.5" font-family="Helvetica,sans-Serif" font-size="10.00" fill="#000000">get_homenode</text>
</a>
</g>
</g>
<!-- Node15&#45;&gt;Node16 -->
<g id="edge17" class="edge">
<title>Node15&#45;&gt;Node16</title>
<path fill="none" stroke="#191970" d="M382.7983,-51.7886C401.8788,-53.4581 424.5155,-55.4389 444.7506,-57.2094"/>
<polygon fill="#191970" stroke="#191970" points="444.5053,-60.7013 454.7724,-58.0863 445.1155,-53.7279 444.5053,-60.7013"/>
</g>
<!-- Node18 -->
<g id="node19" class="node">
<title>Node18</title>
<g id="a_node19"><a xlink:href="swdsm_8cpp_a974f1a03f5461bb989248cceb41cd95b.html#a974f1a03f5461bb989248cceb41cd95b" target="_top" xlink:title="Gets the offset of an address on the local nodes part of the global memory. ">
<polygon fill="#ffffff" stroke="#000000" points="467,-11.5 467,-30.5 532,-30.5 532,-11.5 467,-11.5"/>
<text text-anchor="middle" x="499.5" y="-18.5" font-family="Helvetica,sans-Serif" font-size="10.00" fill="#000000">get_offset</text>
</a>
</g>
</g>
<!-- Node15&#45;&gt;Node18 -->
<g id="edge19" class="edge">
<title>Node15&#45;&gt;Node18</title>
<path fill="none" stroke="#191970" d="M382.7983,-40.6934C405.7517,-36.82 433.8515,-32.0782 456.7258,-28.2181"/>
<polygon fill="#191970" stroke="#191970" points="457.5525,-31.6282 466.8307,-26.5129 456.3877,-24.7258 457.5525,-31.6282"/>
</g>
<!-- Node17 -->
<g id="node18" class="node">
<title>Node17</title>
<g id="a_node18"><a xlink:href="classargo_1_1data__distribution_1_1global__ptr_ac7d651586337d08cda18ef26ffcd34a0.html#ac7d651586337d08cda18ef26ffcd34a0" target="_top" xlink:title="return the home node of the value pointed to ">
<polygon fill="#ffffff" stroke="#000000" points="596,-50 596,-80 723,-80 723,-50 596,-50"/>
<text text-anchor="start" x="604" y="-68" font-family="Helvetica,sans-Serif" font-size="10.00" fill="#000000">argo::data_distribution</text>
<text text-anchor="middle" x="659.5" y="-57" font-family="Helvetica,sans-Serif" font-size="10.00" fill="#000000">::global_ptr::node</text>
</a>
</g>
</g>
<!-- Node16&#45;&gt;Node17 -->
<g id="edge18" class="edge">
<title>Node16&#45;&gt;Node17</title>
<path fill="none" stroke="#191970" d="M544.0689,-62.8357C556.9412,-63.077 571.3472,-63.3471 585.5013,-63.6125"/>
<polygon fill="#191970" stroke="#191970" points="585.6737,-67.1163 595.7375,-63.8045 585.8049,-60.1175 585.6737,-67.1163"/>
</g>
<!-- Node19 -->
<g id="node20" class="node">
<title>Node19</title>
<g id="a_node20"><a xlink:href="classargo_1_1data__distribution_1_1global__ptr_ad8c21c408fa2b926cfd9acfd87e8e4e6.html#ad8c21c408fa2b926cfd9acfd87e8e4e6" target="_top" xlink:title="return the offset on the home node&#39;s local memory share ">
<polygon fill="#ffffff" stroke="#000000" points="596,-1 596,-31 723,-31 723,-1 596,-1"/>
<text text-anchor="start" x="604" y="-19" font-family="Helvetica,sans-Serif" font-size="10.00" fill="#000000">argo::data_distribution</text>
<text text-anchor="middle" x="659.5" y="-8" font-family="Helvetica,sans-Serif" font-size="10.00" fill="#000000">::global_ptr::offset</text>
</a>
</g>
</g>
<!-- Node18&#45;&gt;Node19 -->
<g id="edge20" class="edge">
<title>Node18&#45;&gt;Node19</title>
<path fill="none" stroke="#191970" d="M532.2645,-19.9761C547.764,-19.4917 566.9491,-18.8922 585.6797,-18.3069"/>
<polygon fill="#191970" stroke="#191970" points="585.8248,-21.8042 595.7106,-17.9934 585.6061,-14.8076 585.8248,-21.8042"/>
</g>
</g>
</svg>
