<?xml version="1.0" encoding="UTF-8" standalone="no"?>
<!DOCTYPE svg PUBLIC "-//W3C//DTD SVG 1.1//EN"
 "http://www.w3.org/Graphics/SVG/1.1/DTD/svg11.dtd">
<!-- Generated by graphviz version 2.40.1 (20161225.0304)
 -->
<!-- Title: align_backwards Pages: 1 -->
<svg width="535pt" height="122pt"
 viewBox="0.00 0.00 535.00 122.00" xmlns="http://www.w3.org/2000/svg" xmlns:xlink="http://www.w3.org/1999/xlink">
<g id="graph0" class="graph" transform="scale(1 1) rotate(0) translate(4 118)">
<title>align_backwards</title>
<polygon fill="#ffffff" stroke="transparent" points="-4,4 -4,-118 531,-118 531,4 -4,4"/>
<!-- Node1 -->
<g id="node1" class="node">
<title>Node1</title>
<polygon fill="#bfbfbf" stroke="#000000" points="0,-38.5 0,-57.5 98,-57.5 98,-38.5 0,-38.5"/>
<text text-anchor="middle" x="49" y="-45.5" font-family="Helvetica,sans-Serif" font-size="10.00" fill="#000000">align_backwards</text>
</g>
<!-- Node2 -->
<g id="node2" class="node">
<title>Node2</title>
<g id="a_node2"><a xlink:href="swdsm_8h_adb24c11067d42b9bc8515a78a524e2c7.html#adb24c11067d42b9bc8515a78a524e2c7" target="_top" xlink:title="Catches memory accesses to memory not yet cached in ArgoDSM. Launches remote requests for memory not ...">
<polygon fill="#ffffff" stroke="#000000" points="144.5,-94.5 144.5,-113.5 197.5,-113.5 197.5,-94.5 144.5,-94.5"/>
<text text-anchor="middle" x="171" y="-101.5" font-family="Helvetica,sans-Serif" font-size="10.00" fill="#000000">handler</text>
</a>
</g>
</g>
<!-- Node1&#45;&gt;Node2 -->
<g id="edge1" class="edge">
<title>Node1&#45;&gt;Node2</title>
<path fill="none" stroke="#191970" d="M79.2584,-61.8891C101.3819,-72.0441 130.8094,-85.5518 150.3011,-94.4989"/>
<polygon fill="#191970" stroke="#191970" points="80.521,-58.6176 69.9725,-57.6267 77.6007,-64.9794 80.521,-58.6176"/>
</g>
<!-- Node5 -->
<g id="node5" class="node">
<title>Node5</title>
<g id="a_node5"><a xlink:href="swdsm_8h_aa5da42b70088b546b0f16d0a8031cfd1.html#aa5da42b70088b546b0f16d0a8031cfd1" target="_top" xlink:title="Gets the offset of an address on the local nodes part of the global memory. ">
<polygon fill="#ffffff" stroke="#000000" points="134,-38.5 134,-57.5 208,-57.5 208,-38.5 134,-38.5"/>
<text text-anchor="middle" x="171" y="-45.5" font-family="Helvetica,sans-Serif" font-size="10.00" fill="#000000">peek_offset</text>
</a>
</g>
</g>
<!-- Node1&#45;&gt;Node5 -->
<g id="edge4" class="edge">
<title>Node1&#45;&gt;Node5</title>
<path fill="none" stroke="#191970" d="M108.4187,-48C117.1165,-48 125.8572,-48 133.9328,-48"/>
<polygon fill="#191970" stroke="#191970" points="108.2704,-44.5001 98.2704,-48 108.2704,-51.5001 108.2704,-44.5001"/>
</g>
<!-- Node6 -->
<g id="node6" class="node">
<title>Node6</title>
<g id="a_node6"><a xlink:href="swdsm_8h_a93e3c7288ce47ac8b4ec8ff9f8a82435.html#a93e3c7288ce47ac8b4ec8ff9f8a82435" target="_top" xlink:title="Check whether a page is either cached on the node or locally backed. ">
<polygon fill="#ffffff" stroke="#000000" points="136,-.5 136,-19.5 206,-19.5 206,-.5 136,-.5"/>
<text text-anchor="middle" x="171" y="-7.5" font-family="Helvetica,sans-Serif" font-size="10.00" fill="#000000">_is_cached</text>
</a>
</g>
</g>
<!-- Node1&#45;&gt;Node6 -->
<g id="edge6" class="edge">
<title>Node1&#45;&gt;Node6</title>
<path fill="none" stroke="#191970" d="M89.7108,-35.3196C106.195,-30.1852 124.91,-24.3559 140.2241,-19.5859"/>
<polygon fill="#191970" stroke="#191970" points="88.2925,-32.0954 79.7858,-38.411 90.3742,-38.7787 88.2925,-32.0954"/>
</g>
<!-- Node3 -->
<g id="node3" class="node">
<title>Node3</title>
<g id="a_node3"><a xlink:href="swdsm_8h_a31ba60e8ddccfa922da8d7e6a10f7b1d.html#a31ba60e8ddccfa922da8d7e6a10f7b1d" target="_top" xlink:title="Initializes ArgoDSM runtime. ">
<polygon fill="#ffffff" stroke="#000000" points="271,-94.5 271,-113.5 357,-113.5 357,-94.5 271,-94.5"/>
<text text-anchor="middle" x="314" y="-101.5" font-family="Helvetica,sans-Serif" font-size="10.00" fill="#000000">argo_initialize</text>
</a>
</g>
</g>
<!-- Node2&#45;&gt;Node3 -->
<g id="edge2" class="edge">
<title>Node2&#45;&gt;Node3</title>
<path fill="none" stroke="#191970" d="M207.7361,-104C226.9613,-104 250.6183,-104 270.7269,-104"/>
<polygon fill="#191970" stroke="#191970" points="207.5621,-100.5001 197.5621,-104 207.562,-107.5001 207.5621,-100.5001"/>
</g>
<!-- Node4 -->
<g id="node4" class="node">
<title>Node4</title>
<g id="a_node4"><a xlink:href="backend_8hpp_aab3cabb3e1c0b9696b339416b684f78c.html#aab3cabb3e1c0b9696b339416b684f78c" target="_top" xlink:title="initialize backend ">
<polygon fill="#ffffff" stroke="#000000" points="420,-94.5 420,-113.5 527,-113.5 527,-94.5 420,-94.5"/>
<text text-anchor="middle" x="473.5" y="-101.5" font-family="Helvetica,sans-Serif" font-size="10.00" fill="#000000">argo::backend::init</text>
</a>
</g>
</g>
<!-- Node3&#45;&gt;Node4 -->
<g id="edge3" class="edge">
<title>Node3&#45;&gt;Node4</title>
<path fill="none" stroke="#191970" d="M367.3968,-104C384.2505,-104 402.8734,-104 419.7516,-104"/>
<polygon fill="#191970" stroke="#191970" points="367.163,-100.5001 357.163,-104 367.163,-107.5001 367.163,-100.5001"/>
</g>
<!-- Node5&#45;&gt;Node5 -->
<g id="edge5" class="edge">
<title>Node5&#45;&gt;Node5</title>
<path fill="none" stroke="#191970" d="M148.3066,-67.0292C149.5445,-72.128 157.1089,-76 171,-76 192.6836,-76 198.9515,-66.5653 189.8037,-57.7571"/>
<polygon fill="#191970" stroke="#191970" points="151.5553,-68.3325 152.1963,-57.7571 145.1003,-65.6246 151.5553,-68.3325"/>
</g>
<!-- Node7 -->
<g id="node7" class="node">
<title>Node7</title>
<g id="a_node7"><a xlink:href="backend_8hpp_a8189df2ded0e8e6b64477a53f80d67e8.html#a8189df2ded0e8e6b64477a53f80d67e8" target="_top" xlink:title="Check if a an address is cached or node local. ">
<polygon fill="#ffffff" stroke="#000000" points="244,-.5 244,-19.5 384,-19.5 384,-.5 244,-.5"/>
<text text-anchor="middle" x="314" y="-7.5" font-family="Helvetica,sans-Serif" font-size="10.00" fill="#000000">argo::backend::is_cached</text>
</a>
</g>
</g>
<!-- Node6&#45;&gt;Node7 -->
<g id="edge7" class="edge">
<title>Node6&#45;&gt;Node7</title>
<path fill="none" stroke="#191970" d="M216.6225,-10C225.3197,-10 234.6075,-10 243.8648,-10"/>
<polygon fill="#191970" stroke="#191970" points="216.3484,-6.5001 206.3483,-10 216.3483,-13.5001 216.3484,-6.5001"/>
</g>
<!-- Node7&#45;&gt;Node7 -->
<g id="edge8" class="edge">
<title>Node7&#45;&gt;Node7</title>
<path fill="none" stroke="#191970" d="M287.4941,-28.6539C288.6021,-33.9368 297.4374,-38 314,-38 339.2383,-38 346.5337,-28.5653 335.8863,-19.7571"/>
<polygon fill="#191970" stroke="#191970" points="290.6117,-30.2449 292.1137,-19.7571 284.3992,-27.0192 290.6117,-30.2449"/>
</g>
</g>
</svg>
