<?xml version="1.0" encoding="UTF-8" standalone="no"?>
<!DOCTYPE svg PUBLIC "-//W3C//DTD SVG 1.1//EN"
 "http://www.w3.org/Graphics/SVG/1.1/DTD/svg11.dtd">
<!-- Generated by graphviz version 2.40.1 (20161225.0304)
 -->
<!-- Title: /home/atmerhannah/argodsm/src/backend/mpi/swdsm.cpp Pages: 1 -->
<svg width="2848pt" height="453pt"
 viewBox="0.00 0.00 2848.00 453.00" xmlns="http://www.w3.org/2000/svg" xmlns:xlink="http://www.w3.org/1999/xlink">
<g id="graph0" class="graph" transform="scale(1 1) rotate(0) translate(4 449)">
<title>/home/atmerhannah/argodsm/src/backend/mpi/swdsm.cpp</title>
<polygon fill="#ffffff" stroke="transparent" points="-4,4 -4,-449 2844,-449 2844,4 -4,4"/>
<!-- Node0 -->
<g id="node1" class="node">
<title>Node0</title>
<polygon fill="#bfbfbf" stroke="#000000" points="977,-414.5 977,-444.5 1138,-444.5 1138,-414.5 977,-414.5"/>
<text text-anchor="start" x="985" y="-432.5" font-family="Helvetica,sans-Serif" font-size="10.00" fill="#000000">/home/atmerhannah/argodsm</text>
<text text-anchor="middle" x="1057.5" y="-421.5" font-family="Helvetica,sans-Serif" font-size="10.00" fill="#000000">/src/backend/mpi/swdsm.cpp</text>
</g>
<!-- Node1 -->
<g id="node2" class="node">
<title>Node1</title>
<polygon fill="#ffffff" stroke="#bfbfbf" points="0,-112.5 0,-131.5 53,-131.5 53,-112.5 0,-112.5"/>
<text text-anchor="middle" x="26.5" y="-119.5" font-family="Helvetica,sans-Serif" font-size="10.00" fill="#000000">cstddef</text>
</g>
<!-- Node0&#45;&gt;Node1 -->
<g id="edge1" class="edge">
<title>Node0&#45;&gt;Node1</title>
<path fill="none" stroke="#191970" d="M976.9911,-425.8576C769.6513,-415.4089 233.5,-381.1707 233.5,-306.5 233.5,-306.5 233.5,-306.5 233.5,-239.5 233.5,-200.7293 122.2853,-155.6663 62.8936,-134.3656"/>
<polygon fill="#191970" stroke="#191970" points="63.7326,-130.9499 53.1379,-130.9132 61.3973,-137.5489 63.7326,-130.9499"/>
</g>
<!-- Node2 -->
<g id="node3" class="node">
<title>Node2</title>
<polygon fill="#ffffff" stroke="#bfbfbf" points="1277,-358.5 1277,-377.5 1324,-377.5 1324,-358.5 1277,-358.5"/>
<text text-anchor="middle" x="1300.5" y="-365.5" font-family="Helvetica,sans-Serif" font-size="10.00" fill="#000000">vector</text>
</g>
<!-- Node0&#45;&gt;Node2 -->
<g id="edge2" class="edge">
<title>Node0&#45;&gt;Node2</title>
<path fill="none" stroke="#191970" d="M1118.0931,-414.4669C1158.9272,-404.2895 1213.9884,-390.4762 1262.5,-378 1263.9452,-377.6283 1265.421,-377.2471 1266.9114,-376.8608"/>
<polygon fill="#191970" stroke="#191970" points="1268.0016,-380.1936 1276.794,-374.2822 1266.2342,-373.4204 1268.0016,-380.1936"/>
</g>
<!-- Node3 -->
<g id="node4" class="node">
<title>Node3</title>
<g id="a_node4"><a xlink:href="env_8hpp.html" target="_top" xlink:title="This file provides facilities for handling environment variables. ">
<polygon fill="#ffffff" stroke="#000000" points="467.5,-168.5 467.5,-187.5 543.5,-187.5 543.5,-168.5 467.5,-168.5"/>
<text text-anchor="middle" x="505.5" y="-175.5" font-family="Helvetica,sans-Serif" font-size="10.00" fill="#000000">env/env.hpp</text>
</a>
</g>
</g>
<!-- Node0&#45;&gt;Node3 -->
<g id="edge3" class="edge">
<title>Node0&#45;&gt;Node3</title>
<path fill="none" stroke="#191970" d="M976.9041,-423.4512C864.6594,-410.8572 661.365,-372.3095 539.5,-255 523.3501,-239.4539 514.3468,-214.8913 509.7241,-197.6998"/>
<polygon fill="#191970" stroke="#191970" points="513.0424,-196.5315 507.2878,-187.6357 506.2389,-198.1785 513.0424,-196.5315"/>
</g>
<!-- Node4 -->
<g id="node5" class="node">
<title>Node4</title>
<g id="a_node5"><a xlink:href="signal_8hpp.html" target="_top" xlink:title="This file provides facilities for handling POSIX signals, especially SIGSEGV, within ArgoDSM...">
<polygon fill="#ffffff" stroke="#000000" points="969,-358.5 969,-377.5 1068,-377.5 1068,-358.5 969,-358.5"/>
<text text-anchor="middle" x="1018.5" y="-365.5" font-family="Helvetica,sans-Serif" font-size="10.00" fill="#000000">signal/signal.hpp</text>
</a>
</g>
</g>
<!-- Node0&#45;&gt;Node4 -->
<g id="edge5" class="edge">
<title>Node0&#45;&gt;Node4</title>
<path fill="none" stroke="#191970" d="M1047.8595,-414.2977C1042.5023,-405.8498 1035.7978,-395.2773 1030.1487,-386.369"/>
<polygon fill="#191970" stroke="#191970" points="1033.0556,-384.4176 1024.7444,-377.8469 1027.1441,-388.1664 1033.0556,-384.4176"/>
</g>
<!-- Node9 -->
<g id="node10" class="node">
<title>Node9</title>
<g id="a_node10"><a xlink:href="virtual__memory_8hpp.html" target="_top" xlink:title="This file provides facilities for handling virtual memory and virtual address space. ">
<polygon fill="#ffffff" stroke="#000000" points="1085,-291.5 1085,-321.5 1214,-321.5 1214,-291.5 1085,-291.5"/>
<text text-anchor="start" x="1093" y="-309.5" font-family="Helvetica,sans-Serif" font-size="10.00" fill="#000000">virtual_memory/virtual</text>
<text text-anchor="middle" x="1149.5" y="-298.5" font-family="Helvetica,sans-Serif" font-size="10.00" fill="#000000">_memory.hpp</text>
</a>
</g>
</g>
<!-- Node0&#45;&gt;Node9 -->
<g id="edge12" class="edge">
<title>Node0&#45;&gt;Node9</title>
<path fill="none" stroke="#191970" d="M1068.781,-414.4178C1084.576,-393.3006 1113.4278,-354.727 1132.0175,-329.8733"/>
<polygon fill="#191970" stroke="#191970" points="1134.9398,-331.8098 1138.1267,-321.7056 1129.3344,-327.617 1134.9398,-331.8098"/>
</g>
<!-- Node10 -->
<g id="node11" class="node">
<title>Node10</title>
<g id="a_node11"><a xlink:href="global__ptr_8hpp.html" target="_top" xlink:title="This file provides the global pointer for ArgoDSM. ">
<polygon fill="#ffffff" stroke="#000000" points="590.5,-224.5 590.5,-254.5 722.5,-254.5 722.5,-224.5 590.5,-224.5"/>
<text text-anchor="start" x="598.5" y="-242.5" font-family="Helvetica,sans-Serif" font-size="10.00" fill="#000000">data_distribution/global</text>
<text text-anchor="middle" x="656.5" y="-231.5" font-family="Helvetica,sans-Serif" font-size="10.00" fill="#000000">_ptr.hpp</text>
</a>
</g>
</g>
<!-- Node0&#45;&gt;Node10 -->
<g id="edge13" class="edge">
<title>Node0&#45;&gt;Node10</title>
<path fill="none" stroke="#191970" d="M1005.8482,-414.448C947.3942,-396.4176 850.2109,-363.3951 772.5,-322 739.6706,-304.5124 705.3457,-279.0693 682.6326,-261.0709"/>
<polygon fill="#191970" stroke="#191970" points="684.8064,-258.3277 674.8142,-254.8053 680.4288,-263.7901 684.8064,-258.3277"/>
</g>
<!-- Node23 -->
<g id="node21" class="node">
<title>Node23</title>
<g id="a_node21"><a xlink:href="swdsm_8h.html" target="_top" xlink:title="this is a legacy file from the ArgoDSM prototype ">
<polygon fill="#ffffff" stroke="#000000" points="1720.5,-297 1720.5,-316 1780.5,-316 1780.5,-297 1720.5,-297"/>
<text text-anchor="middle" x="1750.5" y="-304" font-family="Helvetica,sans-Serif" font-size="10.00" fill="#000000">swdsm.h</text>
</a>
</g>
</g>
<!-- Node0&#45;&gt;Node23 -->
<g id="edge30" class="edge">
<title>Node0&#45;&gt;Node23</title>
<path fill="none" stroke="#191970" d="M1117.3257,-414.484C1150.8251,-405.3599 1193.0612,-392.6551 1229.5,-378 1247.5728,-370.7314 1249.8346,-363.573 1268.5,-358 1351.056,-333.351 1609.8933,-315.1864 1710.2132,-308.9017"/>
<polygon fill="#191970" stroke="#191970" points="1710.4893,-312.3914 1720.2536,-308.2793 1710.0561,-305.4048 1710.4893,-312.3914"/>
</g>
<!-- Node49 -->
<g id="node45" class="node">
<title>Node49</title>
<g id="a_node45"><a xlink:href="write__buffer_8hpp.html" target="_top" xlink:title="This file provides an interface for the ArgoDSM write buffer. ">
<polygon fill="#ffffff" stroke="#000000" points="1125,-358.5 1125,-377.5 1220,-377.5 1220,-358.5 1125,-358.5"/>
<text text-anchor="middle" x="1172.5" y="-365.5" font-family="Helvetica,sans-Serif" font-size="10.00" fill="#000000">write_buffer.hpp</text>
</a>
</g>
</g>
<!-- Node0&#45;&gt;Node49 -->
<g id="edge56" class="edge">
<title>Node0&#45;&gt;Node49</title>
<path fill="none" stroke="#191970" d="M1085.6322,-414.4554C1103.9786,-404.644 1127.7777,-391.9167 1145.8251,-382.2653"/>
<polygon fill="#191970" stroke="#191970" points="1147.5114,-385.3326 1154.6791,-377.5303 1144.2103,-379.1598 1147.5114,-385.3326"/>
</g>
<!-- Node3&#45;&gt;Node1 -->
<g id="edge4" class="edge">
<title>Node3&#45;&gt;Node1</title>
<path fill="none" stroke="#191970" d="M467.4738,-175.7354C391.1862,-170.8123 214.2101,-157.4762 67.5,-132 66.0563,-131.7493 64.5879,-131.4767 63.1075,-131.1872"/>
<polygon fill="#191970" stroke="#191970" points="63.8092,-127.7582 53.2976,-129.0837 62.3414,-134.6026 63.8092,-127.7582"/>
</g>
<!-- Node5 -->
<g id="node6" class="node">
<title>Node5</title>
<polygon fill="#ffffff" stroke="#bfbfbf" points="779,-230 779,-249 844,-249 844,-230 779,-230"/>
<text text-anchor="middle" x="811.5" y="-237" font-family="Helvetica,sans-Serif" font-size="10.00" fill="#000000">stdexcept</text>
</g>
<!-- Node4&#45;&gt;Node5 -->
<g id="edge6" class="edge">
<title>Node4&#45;&gt;Node5</title>
<path fill="none" stroke="#191970" d="M968.5539,-362.9515C916.4885,-356.5942 839.8199,-343.7809 820.5,-322 805.3858,-304.9605 805.5063,-277.5054 807.8095,-258.9963"/>
<polygon fill="#191970" stroke="#191970" points="811.2795,-259.4598 809.3639,-249.0396 804.3633,-258.38 811.2795,-259.4598"/>
</g>
<!-- Node6 -->
<g id="node7" class="node">
<title>Node6</title>
<polygon fill="#ffffff" stroke="#bfbfbf" points="714.5,-168.5 714.5,-187.5 758.5,-187.5 758.5,-168.5 714.5,-168.5"/>
<text text-anchor="middle" x="736.5" y="-175.5" font-family="Helvetica,sans-Serif" font-size="10.00" fill="#000000">string</text>
</g>
<!-- Node4&#45;&gt;Node6 -->
<g id="edge7" class="edge">
<title>Node4&#45;&gt;Node6</title>
<path fill="none" stroke="#191970" d="M968.716,-362.4168C913.4808,-355.36 828.7916,-341.7084 803.5,-322 763.2085,-290.6031 746.1453,-229.241 739.7913,-197.7222"/>
<polygon fill="#191970" stroke="#191970" points="743.174,-196.7666 737.9117,-187.571 736.291,-198.0411 743.174,-196.7666"/>
</g>
<!-- Node7 -->
<g id="node8" class="node">
<title>Node7</title>
<polygon fill="#ffffff" stroke="#bfbfbf" points="1009,-230 1009,-249 1054,-249 1054,-230 1009,-230"/>
<text text-anchor="middle" x="1031.5" y="-237" font-family="Helvetica,sans-Serif" font-size="10.00" fill="#000000">utility</text>
</g>
<!-- Node4&#45;&gt;Node7 -->
<g id="edge8" class="edge">
<title>Node4&#45;&gt;Node7</title>
<path fill="none" stroke="#191970" d="M1019.4771,-358.3416C1021.5946,-337.4114 1026.6436,-287.504 1029.4791,-259.4762"/>
<polygon fill="#191970" stroke="#191970" points="1032.9872,-259.572 1030.5115,-249.2705 1026.0227,-258.8674 1032.9872,-259.572"/>
</g>
<!-- Node8 -->
<g id="node9" class="node">
<title>Node8</title>
<polygon fill="#ffffff" stroke="#bfbfbf" points="1141,-230 1141,-249 1196,-249 1196,-230 1141,-230"/>
<text text-anchor="middle" x="1168.5" y="-237" font-family="Helvetica,sans-Serif" font-size="10.00" fill="#000000">signal.h</text>
</g>
<!-- Node4&#45;&gt;Node8 -->
<g id="edge9" class="edge">
<title>Node4&#45;&gt;Node8</title>
<path fill="none" stroke="#191970" d="M1023.8784,-358.4694C1033.0586,-342.8445 1053.0512,-311.4739 1076.5,-291 1094.3472,-275.417 1117.6662,-262.4262 1136.3613,-253.3901"/>
<polygon fill="#191970" stroke="#191970" points="1138.092,-256.4443 1145.6626,-249.0324 1135.1223,-250.1055 1138.092,-256.4443"/>
</g>
<!-- Node4&#45;&gt;Node9 -->
<g id="edge10" class="edge">
<title>Node4&#45;&gt;Node9</title>
<path fill="none" stroke="#191970" d="M1038.9688,-358.3906C1057.4367,-349.7205 1085.1618,-336.7046 1108.2236,-325.8779"/>
<polygon fill="#191970" stroke="#191970" points="1109.8891,-328.9625 1117.4538,-321.5446 1106.9143,-322.6261 1109.8891,-328.9625"/>
</g>
<!-- Node9&#45;&gt;Node7 -->
<g id="edge11" class="edge">
<title>Node9&#45;&gt;Node7</title>
<path fill="none" stroke="#191970" d="M1123.0185,-291.4639C1103.398,-280.3234 1076.8,-265.2212 1057.3351,-254.1691"/>
<polygon fill="#191970" stroke="#191970" points="1058.8385,-250.9979 1048.4144,-249.1039 1055.3822,-257.0851 1058.8385,-250.9979"/>
</g>
<!-- Node10&#45;&gt;Node3 -->
<g id="edge15" class="edge">
<title>Node10&#45;&gt;Node3</title>
<path fill="none" stroke="#191970" d="M619.5612,-224.4554C594.698,-214.329 562.2082,-201.0964 538.2664,-191.3453"/>
<polygon fill="#191970" stroke="#191970" points="539.4812,-188.0609 528.8996,-187.5303 536.8407,-194.5438 539.4812,-188.0609"/>
</g>
<!-- Node10&#45;&gt;Node6 -->
<g id="edge14" class="edge">
<title>Node10&#45;&gt;Node6</title>
<path fill="none" stroke="#191970" d="M676.2753,-224.2977C688.1898,-215.1384 703.3532,-203.4816 715.4838,-194.1562"/>
<polygon fill="#191970" stroke="#191970" points="717.896,-196.7165 723.691,-187.8469 713.6297,-191.1668 717.896,-196.7165"/>
</g>
<!-- Node11 -->
<g id="node12" class="node">
<title>Node11</title>
<g id="a_node12"><a xlink:href="data__distribution_8hpp.html" target="_top" xlink:title="This file provides an abstraction layer for distributing the shared memory space. ...">
<polygon fill="#ffffff" stroke="#000000" points="561.5,-168.5 561.5,-187.5 681.5,-187.5 681.5,-168.5 561.5,-168.5"/>
<text text-anchor="middle" x="621.5" y="-175.5" font-family="Helvetica,sans-Serif" font-size="10.00" fill="#000000">data_distribution.hpp</text>
</a>
</g>
</g>
<!-- Node10&#45;&gt;Node11 -->
<g id="edge16" class="edge">
<title>Node10&#45;&gt;Node11</title>
<path fill="none" stroke="#191970" d="M647.8483,-224.2977C643.0912,-215.9388 637.1502,-205.4997 632.1143,-196.6509"/>
<polygon fill="#191970" stroke="#191970" points="635.0921,-194.8069 627.1039,-187.8469 629.0083,-198.2692 635.0921,-194.8069"/>
</g>
<!-- Node12 -->
<g id="node13" class="node">
<title>Node12</title>
<g id="a_node13"><a xlink:href="base__distribution_8hpp.html" target="_top" xlink:title="This file implements the base distribution class for all the policies to derive from. ">
<polygon fill="#ffffff" stroke="#ff0000" points="415.5,-56.5 415.5,-75.5 537.5,-75.5 537.5,-56.5 415.5,-56.5"/>
<text text-anchor="middle" x="476.5" y="-63.5" font-family="Helvetica,sans-Serif" font-size="10.00" fill="#000000">base_distribution.hpp</text>
</a>
</g>
</g>
<!-- Node11&#45;&gt;Node12 -->
<g id="edge17" class="edge">
<title>Node11&#45;&gt;Node12</title>
<path fill="none" stroke="#191970" d="M561.3186,-169.0451C558.339,-168.6748 555.3869,-168.3238 552.5,-168 502.4327,-162.384 134.6815,-169.0121 100.5,-132 57.9005,-85.8727 284.34,-71.8714 404.8986,-67.7095"/>
<polygon fill="#191970" stroke="#191970" points="405.2819,-71.1989 415.1607,-67.3702 405.0505,-64.2027 405.2819,-71.1989"/>
</g>
<!-- Node17 -->
<g id="node15" class="node">
<title>Node17</title>
<g id="a_node15"><a xlink:href="naive__distribution_8hpp.html" target="_top" xlink:title="This file implements the naive data distribution. ">
<polygon fill="#ffffff" stroke="#000000" points="110,-112.5 110,-131.5 235,-131.5 235,-112.5 110,-112.5"/>
<text text-anchor="middle" x="172.5" y="-119.5" font-family="Helvetica,sans-Serif" font-size="10.00" fill="#000000">naive_distribution.hpp</text>
</a>
</g>
</g>
<!-- Node11&#45;&gt;Node17 -->
<g id="edge19" class="edge">
<title>Node11&#45;&gt;Node17</title>
<path fill="none" stroke="#191970" d="M561.3027,-169.1761C558.3273,-168.7712 555.3805,-168.377 552.5,-168 419.0475,-150.5337 382.8873,-149.5201 245.3952,-132.0901"/>
<polygon fill="#191970" stroke="#191970" points="245.6801,-128.5981 235.3179,-130.8063 244.7954,-135.542 245.6801,-128.5981"/>
</g>
<!-- Node18 -->
<g id="node16" class="node">
<title>Node18</title>
<g id="a_node16"><a xlink:href="cyclic__distribution_8hpp.html" target="_top" xlink:title="This file implements the cyclic data distribution. ">
<polygon fill="#ffffff" stroke="#000000" points="253.5,-112.5 253.5,-131.5 379.5,-131.5 379.5,-112.5 253.5,-112.5"/>
<text text-anchor="middle" x="316.5" y="-119.5" font-family="Helvetica,sans-Serif" font-size="10.00" fill="#000000">cyclic_distribution.hpp</text>
</a>
</g>
</g>
<!-- Node11&#45;&gt;Node18 -->
<g id="edge21" class="edge">
<title>Node11&#45;&gt;Node18</title>
<path fill="none" stroke="#191970" d="M569.4152,-168.4369C516.5588,-158.7321 434.7309,-143.708 378.5491,-133.3926"/>
<polygon fill="#191970" stroke="#191970" points="378.8377,-129.8872 368.37,-131.5237 377.5735,-136.7721 378.8377,-129.8872"/>
</g>
<!-- Node19 -->
<g id="node17" class="node">
<title>Node19</title>
<g id="a_node17"><a xlink:href="skew__mapp__distribution_8hpp.html" target="_top" xlink:title="This file implements the skew&#45;mapp data distribution. ">
<polygon fill="#ffffff" stroke="#000000" points="398,-112.5 398,-131.5 555,-131.5 555,-112.5 398,-112.5"/>
<text text-anchor="middle" x="476.5" y="-119.5" font-family="Helvetica,sans-Serif" font-size="10.00" fill="#000000">skew_mapp_distribution.hpp</text>
</a>
</g>
</g>
<!-- Node11&#45;&gt;Node19 -->
<g id="edge23" class="edge">
<title>Node11&#45;&gt;Node19</title>
<path fill="none" stroke="#191970" d="M596.5736,-168.3733C572.8798,-159.2226 537.0489,-145.3844 510.6932,-135.2057"/>
<polygon fill="#191970" stroke="#191970" points="511.6906,-131.8389 501.1011,-131.5011 509.1686,-138.3689 511.6906,-131.8389"/>
</g>
<!-- Node20 -->
<g id="node18" class="node">
<title>Node20</title>
<g id="a_node18"><a xlink:href="prime__mapp__distribution_8hpp.html" target="_top" xlink:title="This file implements the prime&#45;mapp data distribution. ">
<polygon fill="#ffffff" stroke="#000000" points="573.5,-112.5 573.5,-131.5 733.5,-131.5 733.5,-112.5 573.5,-112.5"/>
<text text-anchor="middle" x="653.5" y="-119.5" font-family="Helvetica,sans-Serif" font-size="10.00" fill="#000000">prime_mapp_distribution.hpp</text>
</a>
</g>
</g>
<!-- Node11&#45;&gt;Node20 -->
<g id="edge25" class="edge">
<title>Node11&#45;&gt;Node20</title>
<path fill="none" stroke="#191970" d="M627.074,-168.2455C631.4331,-160.617 637.6211,-149.7881 642.9133,-140.5267"/>
<polygon fill="#191970" stroke="#191970" points="646.0673,-142.0616 647.9899,-131.6427 639.9896,-138.5886 646.0673,-142.0616"/>
</g>
<!-- Node21 -->
<g id="node19" class="node">
<title>Node21</title>
<g id="a_node19"><a xlink:href="first__touch__distribution_8hpp.html" target="_top" xlink:title="This file implements the first&#45;touch data distribution. ">
<polygon fill="#ffffff" stroke="#000000" points="752,-112.5 752,-131.5 901,-131.5 901,-112.5 752,-112.5"/>
<text text-anchor="middle" x="826.5" y="-119.5" font-family="Helvetica,sans-Serif" font-size="10.00" fill="#000000">first_touch_distribution.hpp</text>
</a>
</g>
</g>
<!-- Node11&#45;&gt;Node21 -->
<g id="edge27" class="edge">
<title>Node11&#45;&gt;Node21</title>
<path fill="none" stroke="#191970" d="M656.7408,-168.3733C691.4194,-158.9001 744.4883,-144.4032 782.0462,-134.1435"/>
<polygon fill="#191970" stroke="#191970" points="782.9949,-137.5126 791.7191,-131.5011 781.1502,-130.7601 782.9949,-137.5126"/>
</g>
<!-- Node16 -->
<g id="node14" class="node">
<title>Node16</title>
<g id="a_node14"><a xlink:href="types_8hpp.html" target="_top" xlink:title="This file defines common types used in ArgoDSM. ">
<polygon fill="#ffffff" stroke="#000000" points="650.5,-.5 650.5,-19.5 754.5,-19.5 754.5,-.5 650.5,-.5"/>
<text text-anchor="middle" x="702.5" y="-7.5" font-family="Helvetica,sans-Serif" font-size="10.00" fill="#000000">../types/types.hpp</text>
</a>
</g>
</g>
<!-- Node12&#45;&gt;Node16 -->
<g id="edge18" class="edge">
<title>Node12&#45;&gt;Node16</title>
<path fill="none" stroke="#191970" d="M515.094,-56.4369C553.5284,-46.9133 612.636,-32.2672 654.171,-21.9753"/>
<polygon fill="#191970" stroke="#191970" points="655.2006,-25.3261 664.0652,-19.5237 653.5169,-18.5316 655.2006,-25.3261"/>
</g>
<!-- Node17&#45;&gt;Node12 -->
<g id="edge20" class="edge">
<title>Node17&#45;&gt;Node12</title>
<path fill="none" stroke="#191970" d="M224.414,-112.4369C277.0971,-102.7321 358.6568,-87.708 414.6543,-77.3926"/>
<polygon fill="#191970" stroke="#191970" points="415.5996,-80.7775 424.8001,-75.5237 414.3314,-73.8933 415.5996,-80.7775"/>
</g>
<!-- Node18&#45;&gt;Node12 -->
<g id="edge22" class="edge">
<title>Node18&#45;&gt;Node12</title>
<path fill="none" stroke="#191970" d="M344.005,-112.3733C370.3802,-103.1419 410.3851,-89.1402 439.5358,-78.9375"/>
<polygon fill="#191970" stroke="#191970" points="441.0716,-82.1082 449.3539,-75.5011 438.7591,-75.5012 441.0716,-82.1082"/>
</g>
<!-- Node19&#45;&gt;Node12 -->
<g id="edge24" class="edge">
<title>Node19&#45;&gt;Node12</title>
<path fill="none" stroke="#191970" d="M476.5,-112.2455C476.5,-104.9382 476.5,-94.6944 476.5,-85.7046"/>
<polygon fill="#191970" stroke="#191970" points="480.0001,-85.6426 476.5,-75.6427 473.0001,-85.6427 480.0001,-85.6426"/>
</g>
<!-- Node20&#45;&gt;Node12 -->
<g id="edge26" class="edge">
<title>Node20&#45;&gt;Node12</title>
<path fill="none" stroke="#191970" d="M623.0726,-112.3733C593.5128,-103.021 548.4774,-88.7725 516.1305,-78.5385"/>
<polygon fill="#191970" stroke="#191970" points="517.1203,-75.1807 506.5303,-75.5011 515.0087,-81.8546 517.1203,-75.1807"/>
</g>
<!-- Node21&#45;&gt;Node12 -->
<g id="edge29" class="edge">
<title>Node21&#45;&gt;Node12</title>
<path fill="none" stroke="#191970" d="M766.7305,-112.4369C705.5723,-102.6516 610.614,-87.4582 546.105,-77.1368"/>
<polygon fill="#191970" stroke="#191970" points="546.4503,-73.6476 536.0229,-75.5237 545.3444,-80.5597 546.4503,-73.6476"/>
</g>
<!-- Node22 -->
<g id="node20" class="node">
<title>Node22</title>
<polygon fill="#ffffff" stroke="#bfbfbf" points="956.5,-56.5 956.5,-75.5 1004.5,-75.5 1004.5,-56.5 956.5,-56.5"/>
<text text-anchor="middle" x="980.5" y="-63.5" font-family="Helvetica,sans-Serif" font-size="10.00" fill="#000000">mutex</text>
</g>
<!-- Node21&#45;&gt;Node22 -->
<g id="edge28" class="edge">
<title>Node21&#45;&gt;Node22</title>
<path fill="none" stroke="#191970" d="M852.9735,-112.3733C878.9751,-102.9181 918.7391,-88.4585 946.9437,-78.2023"/>
<polygon fill="#191970" stroke="#191970" points="948.1947,-81.4717 956.3965,-74.7649 945.8024,-74.8931 948.1947,-81.4717"/>
</g>
<!-- Node23&#45;&gt;Node8 -->
<g id="edge42" class="edge">
<title>Node23&#45;&gt;Node8</title>
<path fill="none" stroke="#191970" d="M1720.3198,-304.8511C1620.9165,-299.2321 1304.4898,-279.7983 1205.5,-255 1202.8674,-254.3405 1200.1789,-253.5226 1197.5126,-252.6098"/>
<polygon fill="#191970" stroke="#191970" points="1198.6829,-249.3102 1188.0925,-249.0021 1196.1792,-255.8472 1198.6829,-249.3102"/>
</g>
<!-- Node24 -->
<g id="node22" class="node">
<title>Node24</title>
<polygon fill="#ffffff" stroke="#bfbfbf" points="1072.5,-230 1072.5,-249 1122.5,-249 1122.5,-230 1072.5,-230"/>
<text text-anchor="middle" x="1097.5" y="-237" font-family="Helvetica,sans-Serif" font-size="10.00" fill="#000000">cstdint</text>
</g>
<!-- Node23&#45;&gt;Node24 -->
<g id="edge31" class="edge">
<title>Node23&#45;&gt;Node24</title>
<path fill="none" stroke="#191970" d="M1720.282,-304.5749C1604.102,-297.0922 1189.8086,-269.6345 1132.5,-255 1130.1639,-254.4034 1127.7869,-253.6646 1125.4276,-252.8359"/>
<polygon fill="#191970" stroke="#191970" points="1126.5631,-249.5205 1115.9784,-249.0568 1123.9637,-256.02 1126.5631,-249.5205"/>
</g>
<!-- Node25 -->
<g id="node23" class="node">
<title>Node25</title>
<polygon fill="#ffffff" stroke="#bfbfbf" points="1277,-230 1277,-249 1346,-249 1346,-230 1277,-230"/>
<text text-anchor="middle" x="1311.5" y="-237" font-family="Helvetica,sans-Serif" font-size="10.00" fill="#000000">type_traits</text>
</g>
<!-- Node23&#45;&gt;Node25 -->
<g id="edge32" class="edge">
<title>Node23&#45;&gt;Node25</title>
<path fill="none" stroke="#191970" d="M1720.3825,-304.7269C1653.7961,-300.34 1489.3658,-286.9337 1355.5,-255 1352.27,-254.2295 1348.9461,-253.3082 1345.6411,-252.3042"/>
<polygon fill="#191970" stroke="#191970" points="1346.4885,-248.8989 1335.8959,-249.1122 1344.3095,-255.5511 1346.4885,-248.8989"/>
</g>
<!-- Node26 -->
<g id="node24" class="node">
<title>Node26</title>
<polygon fill="#ffffff" stroke="#bfbfbf" points="1364.5,-230 1364.5,-249 1420.5,-249 1420.5,-230 1364.5,-230"/>
<text text-anchor="middle" x="1392.5" y="-237" font-family="Helvetica,sans-Serif" font-size="10.00" fill="#000000">assert.h</text>
</g>
<!-- Node23&#45;&gt;Node26 -->
<g id="edge33" class="edge">
<title>Node23&#45;&gt;Node26</title>
<path fill="none" stroke="#191970" d="M1720.4525,-303.9651C1663.1795,-298.6308 1534.7965,-284.2506 1430.5,-255 1428.0389,-254.3098 1425.5213,-253.5086 1423.0114,-252.6411"/>
<polygon fill="#191970" stroke="#191970" points="1424.0968,-249.31 1413.5049,-249.0613 1421.6299,-255.8609 1424.0968,-249.31"/>
</g>
<!-- Node27 -->
<g id="node25" class="node">
<title>Node27</title>
<polygon fill="#ffffff" stroke="#bfbfbf" points="1439,-230 1439,-249 1490,-249 1490,-230 1439,-230"/>
<text text-anchor="middle" x="1464.5" y="-237" font-family="Helvetica,sans-Serif" font-size="10.00" fill="#000000">errno.h</text>
</g>
<!-- Node23&#45;&gt;Node27 -->
<g id="edge34" class="edge">
<title>Node23&#45;&gt;Node27</title>
<path fill="none" stroke="#191970" d="M1720.2156,-302.4328C1672.4994,-295.5488 1577.2466,-279.873 1499.5,-255 1497.6011,-254.3925 1495.6667,-253.7145 1493.731,-252.9909"/>
<polygon fill="#191970" stroke="#191970" points="1494.7837,-249.6405 1484.2022,-249.1079 1492.142,-256.1229 1494.7837,-249.6405"/>
</g>
<!-- Node28 -->
<g id="node26" class="node">
<title>Node28</title>
<polygon fill="#ffffff" stroke="#bfbfbf" points="1508,-230 1508,-249 1555,-249 1555,-230 1508,-230"/>
<text text-anchor="middle" x="1531.5" y="-237" font-family="Helvetica,sans-Serif" font-size="10.00" fill="#000000">fcntl.h</text>
</g>
<!-- Node23&#45;&gt;Node28 -->
<g id="edge35" class="edge">
<title>Node23&#45;&gt;Node28</title>
<path fill="none" stroke="#191970" d="M1720.3712,-299.8174C1683.1709,-291.1898 1618.2314,-274.8949 1564.5,-255 1562.9085,-254.4107 1561.2883,-253.7748 1559.663,-253.1086"/>
<polygon fill="#191970" stroke="#191970" points="1561.0248,-249.8841 1550.461,-249.0736 1558.2138,-256.2949 1561.0248,-249.8841"/>
</g>
<!-- Node29 -->
<g id="node27" class="node">
<title>Node29</title>
<polygon fill="#ffffff" stroke="#bfbfbf" points="1573,-230 1573,-249 1632,-249 1632,-230 1573,-230"/>
<text text-anchor="middle" x="1602.5" y="-237" font-family="Helvetica,sans-Serif" font-size="10.00" fill="#000000">malloc.h</text>
</g>
<!-- Node23&#45;&gt;Node29 -->
<g id="edge36" class="edge">
<title>Node23&#45;&gt;Node29</title>
<path fill="none" stroke="#191970" d="M1729.2952,-296.9005C1704.0179,-285.4574 1661.5916,-266.2509 1632.8452,-253.2374"/>
<polygon fill="#191970" stroke="#191970" points="1634.2189,-250.0173 1623.6655,-249.0817 1631.332,-256.3943 1634.2189,-250.0173"/>
</g>
<!-- Node30 -->
<g id="node28" class="node">
<title>Node30</title>
<polygon fill="#ffffff" stroke="#bfbfbf" points="1650,-230 1650,-249 1701,-249 1701,-230 1650,-230"/>
<text text-anchor="middle" x="1675.5" y="-237" font-family="Helvetica,sans-Serif" font-size="10.00" fill="#000000">math.h</text>
</g>
<!-- Node23&#45;&gt;Node30 -->
<g id="edge37" class="edge">
<title>Node23&#45;&gt;Node30</title>
<path fill="none" stroke="#191970" d="M1739.7543,-296.9005C1727.836,-286.2535 1708.3943,-268.8856 1694.0132,-256.0385"/>
<polygon fill="#191970" stroke="#191970" points="1696.0151,-253.1337 1686.2257,-249.0817 1691.3516,-258.354 1696.0151,-253.1337"/>
</g>
<!-- Node31 -->
<g id="node29" class="node">
<title>Node31</title>
<polygon fill="#ffffff" stroke="#bfbfbf" points="1214.5,-230 1214.5,-249 1258.5,-249 1258.5,-230 1214.5,-230"/>
<text text-anchor="middle" x="1236.5" y="-237" font-family="Helvetica,sans-Serif" font-size="10.00" fill="#000000">mpi.h</text>
</g>
<!-- Node23&#45;&gt;Node31 -->
<g id="edge38" class="edge">
<title>Node23&#45;&gt;Node31</title>
<path fill="none" stroke="#191970" d="M1720.2788,-304.6342C1628.5322,-298.7559 1354.2628,-279.546 1268.5,-255 1266.7864,-254.5095 1265.0522,-253.9325 1263.3239,-253.2947"/>
<polygon fill="#191970" stroke="#191970" points="1264.244,-249.8811 1253.6739,-249.1565 1261.4851,-256.3145 1264.244,-249.8811"/>
</g>
<!-- Node32 -->
<g id="node30" class="node">
<title>Node32</title>
<polygon fill="#ffffff" stroke="#bfbfbf" points="1719,-230 1719,-249 1782,-249 1782,-230 1719,-230"/>
<text text-anchor="middle" x="1750.5" y="-237" font-family="Helvetica,sans-Serif" font-size="10.00" fill="#000000">pthread.h</text>
</g>
<!-- Node23&#45;&gt;Node32 -->
<g id="edge39" class="edge">
<title>Node23&#45;&gt;Node32</title>
<path fill="none" stroke="#191970" d="M1750.5,-296.9005C1750.5,-287.149 1750.5,-271.7597 1750.5,-259.3695"/>
<polygon fill="#191970" stroke="#191970" points="1754.0001,-259.0816 1750.5,-249.0817 1747.0001,-259.0817 1754.0001,-259.0816"/>
</g>
<!-- Node33 -->
<g id="node31" class="node">
<title>Node33</title>
<polygon fill="#ffffff" stroke="#bfbfbf" points="1800,-230 1800,-249 1847,-249 1847,-230 1800,-230"/>
<text text-anchor="middle" x="1823.5" y="-237" font-family="Helvetica,sans-Serif" font-size="10.00" fill="#000000">omp.h</text>
</g>
<!-- Node23&#45;&gt;Node33 -->
<g id="edge40" class="edge">
<title>Node23&#45;&gt;Node33</title>
<path fill="none" stroke="#191970" d="M1760.9591,-296.9005C1772.5597,-286.2535 1791.4829,-268.8856 1805.4805,-256.0385"/>
<polygon fill="#191970" stroke="#191970" points="1808.0596,-258.4221 1813.0603,-249.0817 1803.3263,-253.2649 1808.0596,-258.4221"/>
</g>
<!-- Node34 -->
<g id="node32" class="node">
<title>Node34</title>
<polygon fill="#ffffff" stroke="#bfbfbf" points="1865.5,-230 1865.5,-249 1945.5,-249 1945.5,-230 1865.5,-230"/>
<text text-anchor="middle" x="1905.5" y="-237" font-family="Helvetica,sans-Serif" font-size="10.00" fill="#000000">semaphore.h</text>
</g>
<!-- Node23&#45;&gt;Node34 -->
<g id="edge41" class="edge">
<title>Node23&#45;&gt;Node34</title>
<path fill="none" stroke="#191970" d="M1772.7077,-296.9005C1799.2957,-285.4077 1844.0002,-266.0838 1874.1114,-253.068"/>
<polygon fill="#191970" stroke="#191970" points="1875.5431,-256.2622 1883.3335,-249.0817 1872.7656,-249.8368 1875.5431,-256.2622"/>
</g>
<!-- Node35 -->
<g id="node33" class="node">
<title>Node35</title>
<polygon fill="#ffffff" stroke="#bfbfbf" points="1963.5,-230 1963.5,-249 2013.5,-249 2013.5,-230 1963.5,-230"/>
<text text-anchor="middle" x="1988.5" y="-237" font-family="Helvetica,sans-Serif" font-size="10.00" fill="#000000">stdio.h</text>
</g>
<!-- Node23&#45;&gt;Node35 -->
<g id="edge43" class="edge">
<title>Node23&#45;&gt;Node35</title>
<path fill="none" stroke="#191970" d="M1780.7295,-300.6527C1821.0012,-292.4611 1894.1828,-276.1676 1954.5,-255 1956.1413,-254.424 1957.8117,-253.7987 1959.4872,-253.1406"/>
<polygon fill="#191970" stroke="#191970" points="1961.1238,-256.2486 1968.9706,-249.1298 1958.3971,-249.8015 1961.1238,-256.2486"/>
</g>
<!-- Node36 -->
<g id="node34" class="node">
<title>Node36</title>
<polygon fill="#ffffff" stroke="#bfbfbf" points="2032,-230 2032,-249 2085,-249 2085,-230 2032,-230"/>
<text text-anchor="middle" x="2058.5" y="-237" font-family="Helvetica,sans-Serif" font-size="10.00" fill="#000000">stdlib.h</text>
</g>
<!-- Node23&#45;&gt;Node36 -->
<g id="edge44" class="edge">
<title>Node23&#45;&gt;Node36</title>
<path fill="none" stroke="#191970" d="M1780.8048,-302.9709C1831.6001,-296.5686 1936.7861,-281.2184 2022.5,-255 2024.6148,-254.3531 2026.7729,-253.6207 2028.9291,-252.8348"/>
<polygon fill="#191970" stroke="#191970" points="2030.2248,-256.0862 2038.2311,-249.1472 2027.645,-249.5789 2030.2248,-256.0862"/>
</g>
<!-- Node37 -->
<g id="node35" class="node">
<title>Node37</title>
<polygon fill="#ffffff" stroke="#bfbfbf" points="2103,-230 2103,-249 2156,-249 2156,-230 2103,-230"/>
<text text-anchor="middle" x="2129.5" y="-237" font-family="Helvetica,sans-Serif" font-size="10.00" fill="#000000">string.h</text>
</g>
<!-- Node23&#45;&gt;Node37 -->
<g id="edge45" class="edge">
<title>Node23&#45;&gt;Node37</title>
<path fill="none" stroke="#191970" d="M1780.5254,-304.7174C1841.0161,-300.538 1981.4198,-287.8539 2094.5,-255 2096.6259,-254.3823 2098.7912,-253.663 2100.9496,-252.8788"/>
<polygon fill="#191970" stroke="#191970" points="2102.2582,-256.1251 2110.2251,-249.1408 2099.6416,-249.6325 2102.2582,-256.1251"/>
</g>
<!-- Node38 -->
<g id="node36" class="node">
<title>Node38</title>
<polygon fill="#ffffff" stroke="#bfbfbf" points="2174,-230 2174,-249 2251,-249 2251,-230 2174,-230"/>
<text text-anchor="middle" x="2212.5" y="-237" font-family="Helvetica,sans-Serif" font-size="10.00" fill="#000000">sys/mman.h</text>
</g>
<!-- Node23&#45;&gt;Node38 -->
<g id="edge46" class="edge">
<title>Node23&#45;&gt;Node38</title>
<path fill="none" stroke="#191970" d="M1780.5328,-304.7873C1849.3549,-300.4265 2023.4751,-286.9102 2165.5,-255 2169.1518,-254.1795 2172.9218,-253.1894 2176.6639,-252.1112"/>
<polygon fill="#191970" stroke="#191970" points="2177.8799,-255.399 2186.4043,-249.1074 2175.817,-248.7098 2177.8799,-255.399"/>
</g>
<!-- Node39 -->
<g id="node37" class="node">
<title>Node39</title>
<polygon fill="#ffffff" stroke="#bfbfbf" points="2269.5,-230 2269.5,-249 2333.5,-249 2333.5,-230 2269.5,-230"/>
<text text-anchor="middle" x="2301.5" y="-237" font-family="Helvetica,sans-Serif" font-size="10.00" fill="#000000">sys/stat.h</text>
</g>
<!-- Node23&#45;&gt;Node39 -->
<g id="edge47" class="edge">
<title>Node23&#45;&gt;Node39</title>
<path fill="none" stroke="#191970" d="M1780.6889,-304.489C1875.761,-297.9929 2168.1336,-276.7283 2260.5,-255 2263.5139,-254.291 2266.6055,-253.4158 2269.6739,-252.4452"/>
<polygon fill="#191970" stroke="#191970" points="2270.9776,-255.6975 2279.2726,-249.1064 2268.6778,-249.0861 2270.9776,-255.6975"/>
</g>
<!-- Node40 -->
<g id="node38" class="node">
<title>Node40</title>
<polygon fill="#ffffff" stroke="#bfbfbf" points="2351.5,-230 2351.5,-249 2423.5,-249 2423.5,-230 2351.5,-230"/>
<text text-anchor="middle" x="2387.5" y="-237" font-family="Helvetica,sans-Serif" font-size="10.00" fill="#000000">sys/types.h</text>
</g>
<!-- Node23&#45;&gt;Node40 -->
<g id="edge48" class="edge">
<title>Node23&#45;&gt;Node40</title>
<path fill="none" stroke="#191970" d="M1780.6305,-304.8569C1885.3823,-298.9922 2233.2588,-278.1978 2342.5,-255 2346.1069,-254.2341 2349.8237,-253.2642 2353.5025,-252.1847"/>
<polygon fill="#191970" stroke="#191970" points="2354.5885,-255.5121 2363.0501,-249.1362 2352.4593,-248.8438 2354.5885,-255.5121"/>
</g>
<!-- Node41 -->
<g id="node39" class="node">
<title>Node41</title>
<polygon fill="#ffffff" stroke="#bfbfbf" points="2441.5,-230 2441.5,-249 2489.5,-249 2489.5,-230 2441.5,-230"/>
<text text-anchor="middle" x="2465.5" y="-237" font-family="Helvetica,sans-Serif" font-size="10.00" fill="#000000">time.h</text>
</g>
<!-- Node23&#45;&gt;Node41 -->
<g id="edge49" class="edge">
<title>Node23&#45;&gt;Node41</title>
<path fill="none" stroke="#191970" d="M1780.8459,-305.6682C1896.1111,-302.2833 2306.6145,-288.1167 2432.5,-255 2434.4741,-254.4807 2436.4746,-253.8462 2438.4634,-253.1338"/>
<polygon fill="#191970" stroke="#191970" points="2440.2556,-256.1784 2448.1348,-249.0954 2437.5583,-249.7189 2440.2556,-256.1784"/>
</g>
<!-- Node42 -->
<g id="node40" class="node">
<title>Node42</title>
<polygon fill="#ffffff" stroke="#bfbfbf" points="2507.5,-230 2507.5,-249 2563.5,-249 2563.5,-230 2507.5,-230"/>
<text text-anchor="middle" x="2535.5" y="-237" font-family="Helvetica,sans-Serif" font-size="10.00" fill="#000000">unistd.h</text>
</g>
<!-- Node23&#45;&gt;Node42 -->
<g id="edge50" class="edge">
<title>Node23&#45;&gt;Node42</title>
<path fill="none" stroke="#191970" d="M1780.7735,-305.7355C1902.7797,-302.4513 2358.5414,-288.173 2498.5,-255 2501.1408,-254.3741 2503.835,-253.5796 2506.5051,-252.6823"/>
<polygon fill="#191970" stroke="#191970" points="2507.8269,-255.9242 2515.9314,-249.1001 2505.3403,-249.3808 2507.8269,-255.9242"/>
</g>
<!-- Node43 -->
<g id="node41" class="node">
<title>Node43</title>
<g id="a_node41"><a xlink:href="argo_8h.html" target="_top" xlink:title="This file provides the full C interface to ArgoDSM. ">
<polygon fill="#ffffff" stroke="#000000" points="2582,-230 2582,-249 2629,-249 2629,-230 2582,-230"/>
<text text-anchor="middle" x="2605.5" y="-237" font-family="Helvetica,sans-Serif" font-size="10.00" fill="#000000">argo.h</text>
</a>
</g>
</g>
<!-- Node23&#45;&gt;Node43 -->
<g id="edge51" class="edge">
<title>Node23&#45;&gt;Node43</title>
<path fill="none" stroke="#191970" d="M1780.6908,-306.1199C1910.0868,-304.2593 2418.231,-294.5297 2572.5,-255 2574.4774,-254.4933 2576.4804,-253.8683 2578.471,-253.1628"/>
<polygon fill="#191970" stroke="#191970" points="2580.2564,-256.211 2588.1464,-249.14 2577.569,-249.7474 2580.2564,-256.211"/>
</g>
<!-- Node44 -->
<g id="node42" class="node">
<title>Node44</title>
<polygon fill="#ffffff" stroke="#bfbfbf" points="2517.5,-112.5 2517.5,-131.5 2573.5,-131.5 2573.5,-112.5 2517.5,-112.5"/>
<text text-anchor="middle" x="2545.5" y="-119.5" font-family="Helvetica,sans-Serif" font-size="10.00" fill="#000000">stddef.h</text>
</g>
<!-- Node43&#45;&gt;Node44 -->
<g id="edge52" class="edge">
<title>Node43&#45;&gt;Node44</title>
<path fill="none" stroke="#191970" d="M2585.3723,-229.8005C2556.8372,-215.9548 2507.8004,-191.7722 2505.5,-188 2495.1997,-171.1093 2510.0885,-151.7464 2524.5359,-138.3823"/>
<polygon fill="#191970" stroke="#191970" points="2527.0745,-140.8144 2532.3541,-131.6287 2522.4986,-135.5171 2527.0745,-140.8144"/>
</g>
<!-- Node45 -->
<g id="node43" class="node">
<title>Node45</title>
<g id="a_node43"><a xlink:href="allocators_8h.html" target="_top" xlink:title="This file provides all C allocators for ArgoDSM. ">
<polygon fill="#ffffff" stroke="#ff0000" points="2715,-168.5 2715,-187.5 2840,-187.5 2840,-168.5 2715,-168.5"/>
<text text-anchor="middle" x="2777.5" y="-175.5" font-family="Helvetica,sans-Serif" font-size="10.00" fill="#000000">allocators/allocators.h</text>
</a>
</g>
</g>
<!-- Node43&#45;&gt;Node45 -->
<g id="edge53" class="edge">
<title>Node43&#45;&gt;Node45</title>
<path fill="none" stroke="#191970" d="M2629.0552,-231.0776C2658.0288,-220.7179 2707.5187,-203.0224 2741.3262,-190.9342"/>
<polygon fill="#191970" stroke="#191970" points="2742.6069,-194.1934 2750.8446,-187.5308 2740.25,-187.6021 2742.6069,-194.1934"/>
</g>
<!-- Node48 -->
<g id="node44" class="node">
<title>Node48</title>
<g id="a_node44"><a xlink:href="synchronization_8h.html" target="_top" xlink:title="This file provides C bindings for some ArgoDSM synchronization primitives. ">
<polygon fill="#ffffff" stroke="#000000" points="2514,-168.5 2514,-187.5 2697,-187.5 2697,-168.5 2514,-168.5"/>
<text text-anchor="middle" x="2605.5" y="-175.5" font-family="Helvetica,sans-Serif" font-size="10.00" fill="#000000">synchronization/synchronization.h</text>
</a>
</g>
</g>
<!-- Node43&#45;&gt;Node48 -->
<g id="edge54" class="edge">
<title>Node43&#45;&gt;Node48</title>
<path fill="none" stroke="#191970" d="M2605.5,-229.8906C2605.5,-221.3657 2605.5,-208.6392 2605.5,-197.9235"/>
<polygon fill="#191970" stroke="#191970" points="2609.0001,-197.7448 2605.5,-187.7449 2602.0001,-197.7449 2609.0001,-197.7448"/>
</g>
<!-- Node48&#45;&gt;Node44 -->
<g id="edge55" class="edge">
<title>Node48&#45;&gt;Node44</title>
<path fill="none" stroke="#191970" d="M2595.0488,-168.2455C2586.2731,-160.0549 2573.5446,-148.1749 2563.186,-138.5069"/>
<polygon fill="#191970" stroke="#191970" points="2565.5301,-135.9072 2555.8314,-131.6427 2560.7539,-141.0246 2565.5301,-135.9072"/>
</g>
<!-- Node49&#45;&gt;Node3 -->
<g id="edge68" class="edge">
<title>Node49&#45;&gt;Node3</title>
<path fill="none" stroke="#191970" d="M1124.8396,-362.6308C1042.6646,-353.2297 877.6366,-333.6793 820.5,-322 712.4178,-299.9069 676.5356,-311.0188 581.5,-255 555.5952,-239.7304 532.368,-213.4456 518.6005,-195.8943"/>
<polygon fill="#191970" stroke="#191970" points="521.1412,-193.4536 512.2991,-187.6169 515.5715,-197.6937 521.1412,-193.4536"/>
</g>
<!-- Node49&#45;&gt;Node9 -->
<g id="edge69" class="edge">
<title>Node49&#45;&gt;Node9</title>
<path fill="none" stroke="#191970" d="M1168.9063,-358.3906C1166.1682,-351.0692 1162.2711,-340.6488 1158.6868,-331.0647"/>
<polygon fill="#191970" stroke="#191970" points="1161.9076,-329.685 1155.1264,-321.5446 1155.3511,-332.137 1161.9076,-329.685"/>
</g>
<!-- Node49&#45;&gt;Node22 -->
<g id="edge60" class="edge">
<title>Node49&#45;&gt;Node22</title>
<path fill="none" stroke="#191970" d="M1126.0222,-358.3755C1069.1992,-343.5738 980.5,-309.2912 980.5,-239.5 980.5,-239.5 980.5,-239.5 980.5,-178 980.5,-145.7116 980.5,-108.1872 980.5,-85.8048"/>
<polygon fill="#191970" stroke="#191970" points="984.0001,-85.5883 980.5,-75.5884 977.0001,-85.5884 984.0001,-85.5883"/>
</g>
<!-- Node49&#45;&gt;Node23 -->
<g id="edge70" class="edge">
<title>Node49&#45;&gt;Node23</title>
<path fill="none" stroke="#191970" d="M1220.1849,-360.0109C1225.0147,-359.2911 1229.8511,-358.6063 1234.5,-358 1411.252,-334.9468 1623.2508,-316.7475 1710.2508,-309.6834"/>
<polygon fill="#191970" stroke="#191970" points="1710.7871,-313.1516 1720.4729,-308.8581 1710.2236,-306.1743 1710.7871,-313.1516"/>
</g>
<!-- Node49&#45;&gt;Node31 -->
<g id="edge61" class="edge">
<title>Node49&#45;&gt;Node31</title>
<path fill="none" stroke="#191970" d="M1188.0625,-358.2974C1199.7842,-350.1152 1215.206,-337.3058 1223.5,-322 1234.097,-302.4444 1236.662,-276.7026 1237.0158,-259.2099"/>
<polygon fill="#191970" stroke="#191970" points="1240.5156,-259.0453 1236.9913,-249.0538 1233.5156,-259.0623 1240.5156,-259.0453"/>
</g>
<!-- Node50 -->
<g id="node46" class="node">
<title>Node50</title>
<polygon fill="#ffffff" stroke="#bfbfbf" points="1271,-297 1271,-316 1318,-316 1318,-297 1271,-297"/>
<text text-anchor="middle" x="1294.5" y="-304" font-family="Helvetica,sans-Serif" font-size="10.00" fill="#000000">deque</text>
</g>
<!-- Node49&#45;&gt;Node50 -->
<g id="edge57" class="edge">
<title>Node49&#45;&gt;Node50</title>
<path fill="none" stroke="#191970" d="M1191.5625,-358.3906C1211.6172,-348.2811 1243.3934,-332.2628 1266.3384,-320.6962"/>
<polygon fill="#191970" stroke="#191970" points="1268.2173,-323.6687 1275.5714,-316.0419 1265.0663,-317.418 1268.2173,-323.6687"/>
</g>
<!-- Node51 -->
<g id="node47" class="node">
<title>Node51</title>
<polygon fill="#ffffff" stroke="#bfbfbf" points="1336,-297 1336,-316 1389,-316 1389,-297 1336,-297"/>
<text text-anchor="middle" x="1362.5" y="-304" font-family="Helvetica,sans-Serif" font-size="10.00" fill="#000000">iterator</text>
</g>
<!-- Node49&#45;&gt;Node51 -->
<g id="edge58" class="edge">
<title>Node49&#45;&gt;Node51</title>
<path fill="none" stroke="#191970" d="M1209.5769,-358.437C1241.2538,-349.9259 1287.8554,-336.5927 1327.5,-322 1329.1293,-321.4003 1330.7905,-320.7615 1332.4603,-320.098"/>
<polygon fill="#191970" stroke="#191970" points="1334.079,-323.2147 1341.9524,-316.1253 1331.3764,-316.7575 1334.079,-323.2147"/>
</g>
<!-- Node52 -->
<g id="node48" class="node">
<title>Node52</title>
<polygon fill="#ffffff" stroke="#bfbfbf" points="1407.5,-297 1407.5,-316 1471.5,-316 1471.5,-297 1407.5,-297"/>
<text text-anchor="middle" x="1439.5" y="-304" font-family="Helvetica,sans-Serif" font-size="10.00" fill="#000000">algorithm</text>
</g>
<!-- Node49&#45;&gt;Node52 -->
<g id="edge59" class="edge">
<title>Node49&#45;&gt;Node52</title>
<path fill="none" stroke="#191970" d="M1220.3146,-359.2031C1276.3458,-348.7302 1365.7053,-331.47 1398.5,-322 1401.2416,-321.2083 1404.0598,-320.316 1406.8733,-319.3694"/>
<polygon fill="#191970" stroke="#191970" points="1408.0572,-322.6632 1416.3027,-316.0102 1405.708,-316.0692 1408.0572,-322.6632"/>
</g>
<!-- Node53 -->
<g id="node49" class="node">
<title>Node53</title>
<g id="a_node49"><a xlink:href="backend_8hpp.html" target="_top" xlink:title="This file provides the backend interface. ">
<polygon fill="#ffffff" stroke="#000000" points="829,-297 829,-316 952,-316 952,-297 829,-297"/>
<text text-anchor="middle" x="890.5" y="-304" font-family="Helvetica,sans-Serif" font-size="10.00" fill="#000000">backend/backend.hpp</text>
</a>
</g>
</g>
<!-- Node49&#45;&gt;Node53 -->
<g id="edge62" class="edge">
<title>Node49&#45;&gt;Node53</title>
<path fill="none" stroke="#191970" d="M1128.7469,-358.4581C1079.0415,-347.6181 997.9001,-329.9224 944.3499,-318.2439"/>
<polygon fill="#191970" stroke="#191970" points="944.8719,-314.7755 934.3557,-316.0643 943.3803,-321.6148 944.8719,-314.7755"/>
</g>
<!-- Node53&#45;&gt;Node5 -->
<g id="edge65" class="edge">
<title>Node53&#45;&gt;Node5</title>
<path fill="none" stroke="#191970" d="M879.1812,-296.9005C866.5099,-286.1539 845.7652,-268.5603 830.5773,-255.6794"/>
<polygon fill="#191970" stroke="#191970" points="832.6882,-252.8805 822.7978,-249.0817 828.1605,-258.2191 832.6882,-252.8805"/>
</g>
<!-- Node53&#45;&gt;Node10 -->
<g id="edge66" class="edge">
<title>Node53&#45;&gt;Node10</title>
<path fill="none" stroke="#191970" d="M856.9735,-296.9005C821.0223,-286.6068 763.1306,-270.031 718.7793,-257.3321"/>
<polygon fill="#191970" stroke="#191970" points="719.5412,-253.9097 708.9641,-254.5218 717.6143,-260.6393 719.5412,-253.9097"/>
</g>
<!-- Node53&#45;&gt;Node16 -->
<g id="edge67" class="edge">
<title>Node53&#45;&gt;Node16</title>
<path fill="none" stroke="#191970" d="M890.0193,-296.8112C889.387,-281.3587 888.662,-250.2029 891.5,-224 896.9367,-173.8046 937.2092,-154.8457 910.5,-112 878.8508,-61.2299 813.7541,-35.0223 764.766,-21.9743"/>
<polygon fill="#191970" stroke="#191970" points="765.4409,-18.5346 754.8867,-19.4612 763.7151,-25.3185 765.4409,-18.5346"/>
</g>
<!-- Node53&#45;&gt;Node24 -->
<g id="edge64" class="edge">
<title>Node53&#45;&gt;Node24</title>
<path fill="none" stroke="#191970" d="M928.1146,-296.9171C963.4948,-287.5257 1017.7224,-272.1543 1063.5,-255 1065.087,-254.4053 1066.7042,-253.7705 1068.3289,-253.1101"/>
<polygon fill="#191970" stroke="#191970" points="1069.7504,-256.3088 1077.5579,-249.1469 1066.9883,-249.8768 1069.7504,-256.3088"/>
</g>
<!-- Node54 -->
<g id="node50" class="node">
<title>Node54</title>
<polygon fill="#ffffff" stroke="#bfbfbf" points="900.5,-230 900.5,-249 952.5,-249 952.5,-230 900.5,-230"/>
<text text-anchor="middle" x="926.5" y="-237" font-family="Helvetica,sans-Serif" font-size="10.00" fill="#000000">cassert</text>
</g>
<!-- Node53&#45;&gt;Node54 -->
<g id="edge63" class="edge">
<title>Node53&#45;&gt;Node54</title>
<path fill="none" stroke="#191970" d="M895.6579,-296.9005C901.0579,-286.8505 909.6755,-270.8122 916.4306,-258.2403"/>
<polygon fill="#191970" stroke="#191970" points="919.7016,-259.5472 921.3516,-249.0817 913.5353,-256.234 919.7016,-259.5472"/>
</g>
</g>
</svg>
