<?xml version="1.0" encoding="UTF-8" standalone="no"?>
<!DOCTYPE svg PUBLIC "-//W3C//DTD SVG 1.1//EN"
 "http://www.w3.org/Graphics/SVG/1.1/DTD/svg11.dtd">
<!-- Generated by graphviz version 2.40.1 (20161225.0304)
 -->
<!-- Title: swdsm_argo_barrier Pages: 1 -->
<!--zoomable 219 -->
<svg id="main" version="1.1" xmlns="http://www.w3.org/2000/svg" xmlns:xlink="http://www.w3.org/1999/xlink" xml:space="preserve" onload="init(evt)">
<style type="text/css"><![CDATA[
.edge:hover path { stroke: red; }
.edge:hover polygon { stroke: red; fill: red; }
]]></style>
<script type="text/javascript"><![CDATA[
var edges = document.getElementsByTagName('g');
if (edges && edges.length) {
  for (var i=0;i<edges.length;i++) {
    if (edges[i].id.substr(0,4)=='edge') {
      edges[i].setAttribute('class','edge');
    }
  }
}
]]></script>
        <defs>
                <circle id="rim" cx="0" cy="0" r="7"/>
                <circle id="rim2" cx="0" cy="0" r="3.5"/>
                <g id="zoomPlus">
                        <use xlink:href="#rim" fill="#404040">
                                <set attributeName="fill" to="#808080" begin="zoomplus.mouseover" end="zoomplus.mouseout"/>
                        </use>
                        <path d="M-4,0h8M0,-4v8" fill="none" stroke="white" stroke-width="1.5" pointer-events="none"/>
                </g>
                <g id="zoomMin">
                        <use xlink:href="#rim" fill="#404040">
                                <set attributeName="fill" to="#808080" begin="zoomminus.mouseover" end="zoomminus.mouseout"/>
                        </use>
                        <path d="M-4,0h8" fill="none" stroke="white" stroke-width="1.5" pointer-events="none"/>
                </g>
                <g id="dirArrow">
                        <path fill="none" stroke="white" stroke-width="1.5" d="M0,-3.0v7 M-2.5,-0.5L0,-3.0L2.5,-0.5"/>
                </g>
               <g id="resetDef">
                       <use xlink:href="#rim2" fill="#404040">
                               <set attributeName="fill" to="#808080" begin="reset.mouseover" end="reset.mouseout"/>
                       </use>
               </g>
        </defs>

<script type="text/javascript">
var viewWidth = 1363;
var viewHeight = 219;
var sectionId = 'dynsection-0';
</script>
<script xlink:href="svgpan.js"/>
<svg id="graph" class="graph">
<g id="viewport">
<title>swdsm_argo_barrier</title>
<polygon fill="#ffffff" stroke="transparent" points="-4,4 -4,-215 1359,-215 1359,4 -4,4"/>
<!-- Node0 -->
<g id="node1" class="node">
<title>Node0</title>
<polygon fill="#bfbfbf" stroke="#000000" points="0,-93 0,-112 116,-112 116,-93 0,-93"/>
<text text-anchor="middle" x="58" y="-100" font-family="Helvetica,sans-Serif" font-size="10.00" fill="#000000">swdsm_argo_barrier</text>
</g>
<!-- Node1 -->
<g id="node2" class="node">
<title>Node1</title>
<g id="a_node2"><a xlink:href="swdsm_8cpp_ac99d42ffcf7c78281cb3a6b286ce3a5e.html#ac99d42ffcf7c78281cb3a6b286ce3a5e" target="_top" xlink:title="Gives number of ArgoDSM nodes. ">
<polygon fill="#ffffff" stroke="#000000" points="154,-131 154,-150 248,-150 248,-131 154,-131"/>
<text text-anchor="middle" x="201" y="-138" font-family="Helvetica,sans-Serif" font-size="10.00" fill="#000000">argo_get_nodes</text>
</a>
</g>
</g>
<!-- Node0&#45;&gt;Node1 -->
<g id="edge1" class="edge">
<title>Node0&#45;&gt;Node1</title>
<path fill="none" stroke="#191970" d="M94.0849,-112.089C112.6296,-117.0169 135.4265,-123.0749 155.199,-128.3291"/>
<polygon fill="#191970" stroke="#191970" points="154.3631,-131.7284 164.9266,-130.9141 156.1609,-124.9632 154.3631,-131.7284"/>
</g>
<!-- Node2 -->
<g id="node3" class="node">
<title>Node2</title>
<g id="a_node3"><a xlink:href="classwrite__buffer_aca2e330e17a38c1cc8d8c60701ce9dd7.html#aca2e330e17a38c1cc8d8c60701ce9dd7" target="_top" xlink:title="Flushes the ArgoDSM write buffer to memory. ">
<polygon fill="#ffffff" stroke="#000000" points="286,-93 286,-112 390,-112 390,-93 286,-93"/>
<text text-anchor="middle" x="338" y="-100" font-family="Helvetica,sans-Serif" font-size="10.00" fill="#000000">write_buffer::flush</text>
</a>
</g>
</g>
<!-- Node0&#45;&gt;Node2 -->
<g id="edge2" class="edge">
<title>Node0&#45;&gt;Node2</title>
<path fill="none" stroke="#191970" d="M116.0162,-102.5C162.5769,-102.5 227.8172,-102.5 275.5209,-102.5"/>
<polygon fill="#191970" stroke="#191970" points="275.7241,-106.0001 285.7241,-102.5 275.7241,-99.0001 275.7241,-106.0001"/>
</g>
<!-- Node21 -->
<g id="node22" class="node">
<title>Node21</title>
<g id="a_node22"><a xlink:href="swdsm_8cpp_aa7c3a2de6bbafdaf68fe6ceb6110ab97.html#aa7c3a2de6bbafdaf68fe6ceb6110ab97" target="_top" xlink:title="Self&#45;Invalidates all memory that has potential writers. ">
<polygon fill="#ffffff" stroke="#000000" points="152,-55 152,-74 250,-74 250,-55 152,-55"/>
<text text-anchor="middle" x="201" y="-62" font-family="Helvetica,sans-Serif" font-size="10.00" fill="#000000">self_invalidation</text>
</a>
</g>
</g>
<!-- Node0&#45;&gt;Node21 -->
<g id="edge22" class="edge">
<title>Node0&#45;&gt;Node21</title>
<path fill="none" stroke="#191970" d="M94.0849,-92.911C112.6296,-87.9831 135.4265,-81.9251 155.199,-76.6709"/>
<polygon fill="#191970" stroke="#191970" points="156.1609,-80.0368 164.9266,-74.0859 154.3631,-73.2716 156.1609,-80.0368"/>
</g>
<!-- Node3 -->
<g id="node4" class="node">
<title>Node3</title>
<g id="a_node4"><a xlink:href="classwrite__buffer_ab70cc0d6ca3591094aae489dbc3feaa5.html#ab70cc0d6ca3591094aae489dbc3feaa5" target="_top" xlink:title="Check if the write buffer is empty. ">
<polygon fill="#ffffff" stroke="#000000" points="435,-169 435,-188 548,-188 548,-169 435,-169"/>
<text text-anchor="middle" x="491.5" y="-176" font-family="Helvetica,sans-Serif" font-size="10.00" fill="#000000">write_buffer::empty</text>
</a>
</g>
</g>
<!-- Node2&#45;&gt;Node3 -->
<g id="edge3" class="edge">
<title>Node2&#45;&gt;Node3</title>
<path fill="none" stroke="#191970" d="M350.1527,-112.0325C366.5424,-124.4871 397.026,-146.2626 426,-159.5 431.0482,-161.8064 436.4438,-163.9052 441.8903,-165.795"/>
<polygon fill="#191970" stroke="#191970" points="441.0928,-169.2158 451.6848,-168.9709 443.2519,-162.5571 441.0928,-169.2158"/>
</g>
<!-- Node4 -->
<g id="node5" class="node">
<title>Node4</title>
<g id="a_node5"><a xlink:href="classwrite__buffer_aa2325346aceb3e7ffdbdbdc8e8682147.html#aa2325346aceb3e7ffdbdbdc8e8682147" target="_top" xlink:title="Sorts all elements by home node id in ascending order. ">
<polygon fill="#ffffff" stroke="#000000" points="441.5,-131 441.5,-150 541.5,-150 541.5,-131 441.5,-131"/>
<text text-anchor="middle" x="491.5" y="-138" font-family="Helvetica,sans-Serif" font-size="10.00" fill="#000000">write_buffer::sort</text>
</a>
</g>
</g>
<!-- Node2&#45;&gt;Node4 -->
<g id="edge4" class="edge">
<title>Node2&#45;&gt;Node4</title>
<path fill="none" stroke="#191970" d="M376.7345,-112.089C396.8993,-117.0809 421.7479,-123.2324 443.1611,-128.5334"/>
<polygon fill="#191970" stroke="#191970" points="442.4959,-131.9743 453.044,-130.9799 444.1781,-125.1794 442.4959,-131.9743"/>
</g>
<!-- Node14 -->
<g id="node15" class="node">
<title>Node14</title>
<g id="a_node15"><a xlink:href="classwrite__buffer_ae065d3ee59035ad508eb8ce6670d2c89.html#ae065d3ee59035ad508eb8ce6670d2c89" target="_top" xlink:title="Removes the front element from the buffer and returns it. ">
<polygon fill="#ffffff" stroke="#000000" points="442,-93 442,-112 541,-112 541,-93 442,-93"/>
<text text-anchor="middle" x="491.5" y="-100" font-family="Helvetica,sans-Serif" font-size="10.00" fill="#000000">write_buffer::pop</text>
</a>
</g>
</g>
<!-- Node2&#45;&gt;Node14 -->
<g id="edge15" class="edge">
<title>Node2&#45;&gt;Node14</title>
<path fill="none" stroke="#191970" d="M390.3967,-102.5C403.6849,-102.5 418.0597,-102.5 431.685,-102.5"/>
<polygon fill="#191970" stroke="#191970" points="431.9279,-106.0001 441.9279,-102.5 431.9279,-99.0001 431.9279,-106.0001"/>
</g>
<!-- Node15 -->
<g id="node16" class="node">
<title>Node15</title>
<g id="a_node16"><a xlink:href="swdsm_8cpp_ae0f2d0961e80b2903b3f54c9e6c68658.html#ae0f2d0961e80b2903b3f54c9e6c68658" target="_top" xlink:title="stores a page remotely &#45; only writing back what has been written locally since last synchronization p...">
<polygon fill="#ffffff" stroke="#000000" points="448.5,-55 448.5,-74 534.5,-74 534.5,-55 448.5,-55"/>
<text text-anchor="middle" x="491.5" y="-62" font-family="Helvetica,sans-Serif" font-size="10.00" fill="#000000">storepageDIFF</text>
</a>
</g>
</g>
<!-- Node2&#45;&gt;Node15 -->
<g id="edge16" class="edge">
<title>Node2&#45;&gt;Node15</title>
<path fill="none" stroke="#191970" d="M376.7345,-92.911C396.8993,-87.9191 421.7479,-81.7676 443.1611,-76.4666"/>
<polygon fill="#191970" stroke="#191970" points="444.1781,-79.8206 453.044,-74.0201 442.4959,-73.0257 444.1781,-79.8206"/>
</g>
<!-- Node20 -->
<g id="node21" class="node">
<title>Node20</title>
<g id="a_node21"><a xlink:href="namespaceargo_a79c9492f3fd441bfa6261dffbc0f02f4.html#a79c9492f3fd441bfa6261dffbc0f02f4" target="_top" xlink:title="Number of ArgoDSM nodes being run. ">
<polygon fill="#ffffff" stroke="#000000" points="426,-17 426,-36 557,-36 557,-17 426,-17"/>
<text text-anchor="middle" x="491.5" y="-24" font-family="Helvetica,sans-Serif" font-size="10.00" fill="#000000">argo::number_of_nodes</text>
</a>
</g>
</g>
<!-- Node2&#45;&gt;Node20 -->
<g id="edge21" class="edge">
<title>Node2&#45;&gt;Node20</title>
<path fill="none" stroke="#191970" d="M371.2842,-92.9451C377.7575,-90.3779 384.2969,-87.2476 390,-83.5 409.4424,-70.7239 406.1346,-57.6079 426,-45.5 429.428,-43.4106 433.097,-41.5414 436.883,-39.8707"/>
<polygon fill="#191970" stroke="#191970" points="438.4318,-43.0229 446.4642,-36.1142 435.8766,-36.5059 438.4318,-43.0229"/>
</g>
<!-- Node5 -->
<g id="node6" class="node">
<title>Node5</title>
<g id="a_node6"><a xlink:href="namespaceargo_a48dc17c94275df10a8e7f3959cbf0191.html#a48dc17c94275df10a8e7f3959cbf0191" target="_top" xlink:title="Get the ArgoDSM node id where addr is physically backed. ">
<polygon fill="#ffffff" stroke="#000000" points="593,-134 593,-153 710,-153 710,-134 593,-134"/>
<text text-anchor="middle" x="651.5" y="-141" font-family="Helvetica,sans-Serif" font-size="10.00" fill="#000000">argo::get_homenode</text>
</a>
</g>
</g>
<!-- Node4&#45;&gt;Node5 -->
<g id="edge5" class="edge">
<title>Node4&#45;&gt;Node5</title>
<path fill="none" stroke="#191970" d="M541.686,-141.441C554.6124,-141.6834 568.7506,-141.9484 582.452,-142.2054"/>
<polygon fill="#191970" stroke="#191970" points="582.7533,-145.7115 592.8171,-142.3997 582.8845,-138.7127 582.7533,-145.7115"/>
</g>
<!-- Node6 -->
<g id="node7" class="node">
<title>Node6</title>
<g id="a_node7"><a xlink:href="classargo_1_1data__distribution_1_1global__ptr_a3e2cdd4d323ef91174615e27ab94e342.html#a3e2cdd4d323ef91174615e27ab94e342" target="_top" xlink:title="return the home node of the value pointed to, or a default value if the page has not yet been first&#45;t...">
<polygon fill="#ffffff" stroke="#000000" points="746,-175.5 746,-205.5 877,-205.5 877,-175.5 746,-175.5"/>
<text text-anchor="start" x="754" y="-193.5" font-family="Helvetica,sans-Serif" font-size="10.00" fill="#000000">argo::data_distribution</text>
<text text-anchor="middle" x="811.5" y="-182.5" font-family="Helvetica,sans-Serif" font-size="10.00" fill="#000000">::global_ptr::peek_node</text>
</a>
</g>
</g>
<!-- Node5&#45;&gt;Node6 -->
<g id="edge6" class="edge">
<title>Node5&#45;&gt;Node6</title>
<path fill="none" stroke="#191970" d="M683.8784,-153.0112C702.9686,-158.6189 727.7471,-165.8976 750.3856,-172.5476"/>
<polygon fill="#191970" stroke="#191970" points="749.6888,-175.9908 760.2699,-175.4512 751.6617,-169.2746 749.6888,-175.9908"/>
</g>
<!-- Node7 -->
<g id="node8" class="node">
<title>Node7</title>
<g id="a_node8"><a xlink:href="namespaceargo_a2f35b6b6e0af76fb8fb47f2031d6f58e.html#a2f35b6b6e0af76fb8fb47f2031d6f58e" target="_top" xlink:title="Get the block size of the current allocation policy. ">
<polygon fill="#ffffff" stroke="#000000" points="753.5,-137 753.5,-156 869.5,-156 869.5,-137 753.5,-137"/>
<text text-anchor="middle" x="811.5" y="-144" font-family="Helvetica,sans-Serif" font-size="10.00" fill="#000000">argo::get_block_size</text>
</a>
</g>
</g>
<!-- Node5&#45;&gt;Node7 -->
<g id="edge7" class="edge">
<title>Node5&#45;&gt;Node7</title>
<path fill="none" stroke="#191970" d="M710.1696,-144.6001C720.9585,-144.8023 732.3057,-145.0151 743.3452,-145.2221"/>
<polygon fill="#191970" stroke="#191970" points="743.3083,-148.7219 753.3722,-145.4101 743.4396,-141.7232 743.3083,-148.7219"/>
</g>
<!-- Node13 -->
<g id="node14" class="node">
<title>Node13</title>
<g id="a_node14"><a xlink:href="namespaceargo_a2b6b342c320b2a608d317a328fc46d83.html#a2b6b342c320b2a608d317a328fc46d83" target="_top" xlink:title="Size of memory which is the portion of memory owned by this node. ">
<polygon fill="#ffffff" stroke="#000000" points="762.5,-99 762.5,-118 860.5,-118 860.5,-99 762.5,-99"/>
<text text-anchor="middle" x="811.5" y="-106" font-family="Helvetica,sans-Serif" font-size="10.00" fill="#000000">argo::chunk_size</text>
</a>
</g>
</g>
<!-- Node5&#45;&gt;Node13 -->
<g id="edge14" class="edge">
<title>Node5&#45;&gt;Node13</title>
<path fill="none" stroke="#191970" d="M695.2207,-133.9361C714.6221,-129.692 737.6353,-124.6579 758.0477,-120.1927"/>
<polygon fill="#191970" stroke="#191970" points="758.8111,-123.6085 767.8322,-118.0523 757.3152,-116.7702 758.8111,-123.6085"/>
</g>
<!-- Node8 -->
<g id="node9" class="node">
<title>Node8</title>
<g id="a_node9"><a xlink:href="namespaceargo_1_1data__distribution_a2a70ed49553953957c3a28aa755d7ac8.html#a2a70ed49553953957c3a28aa755d7ac8" target="_top" xlink:title="based on the chosen policy, gets the policy block size ">
<polygon fill="#ffffff" stroke="#000000" points="913,-131.5 913,-161.5 1040,-161.5 1040,-131.5 913,-131.5"/>
<text text-anchor="start" x="921" y="-149.5" font-family="Helvetica,sans-Serif" font-size="10.00" fill="#000000">argo::data_distribution</text>
<text text-anchor="middle" x="976.5" y="-138.5" font-family="Helvetica,sans-Serif" font-size="10.00" fill="#000000">::policy_block_size</text>
</a>
</g>
</g>
<!-- Node7&#45;&gt;Node8 -->
<g id="edge8" class="edge">
<title>Node7&#45;&gt;Node8</title>
<path fill="none" stroke="#191970" d="M869.6728,-146.5C880.3993,-146.5 891.7284,-146.5 902.841,-146.5"/>
<polygon fill="#191970" stroke="#191970" points="902.9621,-150.0001 912.9621,-146.5 902.962,-143.0001 902.9621,-150.0001"/>
</g>
<!-- Node9 -->
<g id="node10" class="node">
<title>Node9</title>
<g id="a_node10"><a xlink:href="namespaceargo_1_1env_a30775a9aa41b956df7474a2c0cc317aa.html#a30775a9aa41b956df7474a2c0cc317aa" target="_top" xlink:title="get the allocation block size requested by environment variable ">
<polygon fill="#ffffff" stroke="#000000" points="1081.5,-180.5 1081.5,-210.5 1197.5,-210.5 1197.5,-180.5 1081.5,-180.5"/>
<text text-anchor="start" x="1089.5" y="-198.5" font-family="Helvetica,sans-Serif" font-size="10.00" fill="#000000">argo::env::allocation</text>
<text text-anchor="middle" x="1139.5" y="-187.5" font-family="Helvetica,sans-Serif" font-size="10.00" fill="#000000">_block_size</text>
</a>
</g>
</g>
<!-- Node8&#45;&gt;Node9 -->
<g id="edge9" class="edge">
<title>Node8&#45;&gt;Node9</title>
<path fill="none" stroke="#191970" d="M1026.7354,-161.6014C1043.3909,-166.6083 1062.0997,-172.2324 1079.4194,-177.439"/>
<polygon fill="#191970" stroke="#191970" points="1078.8462,-180.9213 1089.4305,-180.4484 1080.8615,-174.2177 1078.8462,-180.9213"/>
</g>
<!-- Node10 -->
<g id="node11" class="node">
<title>Node10</title>
<g id="a_node11"><a xlink:href="namespaceargo_1_1data__distribution_a1bb3f2dcecd237990e6dc67764f06860.html#a1bb3f2dcecd237990e6dc67764f06860" target="_top" xlink:title="identifies if we distribute data using a cyclic memory policy ">
<polygon fill="#ffffff" stroke="#000000" points="1076,-131.5 1076,-161.5 1203,-161.5 1203,-131.5 1076,-131.5"/>
<text text-anchor="start" x="1084" y="-149.5" font-family="Helvetica,sans-Serif" font-size="10.00" fill="#000000">argo::data_distribution</text>
<text text-anchor="middle" x="1139.5" y="-138.5" font-family="Helvetica,sans-Serif" font-size="10.00" fill="#000000">::is_cyclic_policy</text>
</a>
</g>
</g>
<!-- Node8&#45;&gt;Node10 -->
<g id="edge10" class="edge">
<title>Node8&#45;&gt;Node10</title>
<path fill="none" stroke="#191970" d="M1040.4541,-146.5C1048.7606,-146.5 1057.3224,-146.5 1065.7718,-146.5"/>
<polygon fill="#191970" stroke="#191970" points="1065.9977,-150.0001 1075.9977,-146.5 1065.9977,-143.0001 1065.9977,-150.0001"/>
</g>
<!-- Node12 -->
<g id="node13" class="node">
<title>Node12</title>
<g id="a_node13"><a xlink:href="namespaceargo_1_1data__distribution_a58576657391f45caf61bf0748a23b098.html#a58576657391f45caf61bf0748a23b098" target="_top" xlink:title="identifies if we distribute data using the first&#45;touch memory policy ">
<polygon fill="#ffffff" stroke="#000000" points="1076,-82.5 1076,-112.5 1203,-112.5 1203,-82.5 1076,-82.5"/>
<text text-anchor="start" x="1084" y="-100.5" font-family="Helvetica,sans-Serif" font-size="10.00" fill="#000000">argo::data_distribution</text>
<text text-anchor="middle" x="1139.5" y="-89.5" font-family="Helvetica,sans-Serif" font-size="10.00" fill="#000000">::is_first_touch_policy</text>
</a>
</g>
</g>
<!-- Node8&#45;&gt;Node12 -->
<g id="edge12" class="edge">
<title>Node8&#45;&gt;Node12</title>
<path fill="none" stroke="#191970" d="M1026.7354,-131.3986C1043.3909,-126.3917 1062.0997,-120.7676 1079.4194,-115.561"/>
<polygon fill="#191970" stroke="#191970" points="1080.8615,-118.7823 1089.4305,-112.5516 1078.8462,-112.0787 1080.8615,-118.7823"/>
</g>
<!-- Node11 -->
<g id="node12" class="node">
<title>Node11</title>
<g id="a_node12"><a xlink:href="namespaceargo_1_1env_a25a08cb2d0d11432d640ec7173063339.html#a25a08cb2d0d11432d640ec7173063339" target="_top" xlink:title="get the allocation policy requested by environment variable ">
<polygon fill="#ffffff" stroke="#000000" points="1239,-106.5 1239,-136.5 1355,-136.5 1355,-106.5 1239,-106.5"/>
<text text-anchor="start" x="1247" y="-124.5" font-family="Helvetica,sans-Serif" font-size="10.00" fill="#000000">argo::env::allocation</text>
<text text-anchor="middle" x="1297" y="-113.5" font-family="Helvetica,sans-Serif" font-size="10.00" fill="#000000">_policy</text>
</a>
</g>
</g>
<!-- Node10&#45;&gt;Node11 -->
<g id="edge11" class="edge">
<title>Node10&#45;&gt;Node11</title>
<path fill="none" stroke="#191970" d="M1203.1073,-136.4036C1211.5754,-135.0595 1220.2863,-133.6768 1228.8281,-132.3209"/>
<polygon fill="#191970" stroke="#191970" points="1229.4255,-135.77 1238.7531,-130.7455 1228.3281,-128.8566 1229.4255,-135.77"/>
</g>
<!-- Node12&#45;&gt;Node11 -->
<g id="edge13" class="edge">
<title>Node12&#45;&gt;Node11</title>
<path fill="none" stroke="#191970" d="M1203.1073,-107.1925C1211.5754,-108.4829 1220.2863,-109.8103 1228.8281,-111.1119"/>
<polygon fill="#191970" stroke="#191970" points="1228.34,-114.5778 1238.7531,-112.6243 1229.3945,-107.6577 1228.34,-114.5778"/>
</g>
<!-- Node16 -->
<g id="node17" class="node">
<title>Node16</title>
<g id="a_node17"><a xlink:href="swdsm_8cpp_a0edf823a78daed8888e8e18468460617.html#a0edf823a78daed8888e8e18468460617" target="_top" xlink:title="Gives homenode for a given address. ">
<polygon fill="#ffffff" stroke="#000000" points="607,-55 607,-74 696,-74 696,-55 607,-55"/>
<text text-anchor="middle" x="651.5" y="-62" font-family="Helvetica,sans-Serif" font-size="10.00" fill="#000000">get_homenode</text>
</a>
</g>
</g>
<!-- Node15&#45;&gt;Node16 -->
<g id="edge17" class="edge">
<title>Node15&#45;&gt;Node16</title>
<path fill="none" stroke="#191970" d="M534.7983,-64.5C553.8788,-64.5 576.5155,-64.5 596.7506,-64.5"/>
<polygon fill="#191970" stroke="#191970" points="596.7724,-68.0001 606.7724,-64.5 596.7723,-61.0001 596.7724,-68.0001"/>
</g>
<!-- Node18 -->
<g id="node19" class="node">
<title>Node18</title>
<g id="a_node19"><a xlink:href="swdsm_8cpp_ab58b1f9fa1b59d3060f241994979e18f.html#ab58b1f9fa1b59d3060f241994979e18f" target="_top" xlink:title="Gets the offset of an address on the local nodes part of the global memory. ">
<polygon fill="#ffffff" stroke="#000000" points="619,-12 619,-31 684,-31 684,-12 619,-12"/>
<text text-anchor="middle" x="651.5" y="-19" font-family="Helvetica,sans-Serif" font-size="10.00" fill="#000000">get_offset</text>
</a>
</g>
</g>
<!-- Node15&#45;&gt;Node18 -->
<g id="edge19" class="edge">
<title>Node15&#45;&gt;Node18</title>
<path fill="none" stroke="#191970" d="M527.0092,-54.9569C551.2295,-48.4477 583.4273,-39.7945 609.0101,-32.9192"/>
<polygon fill="#191970" stroke="#191970" points="610.0652,-36.2599 618.8141,-30.2843 608.2483,-29.4998 610.0652,-36.2599"/>
</g>
<!-- Node17 -->
<g id="node18" class="node">
<title>Node17</title>
<g id="a_node18"><a xlink:href="classargo_1_1data__distribution_1_1global__ptr_ac7d651586337d08cda18ef26ffcd34a0.html#ac7d651586337d08cda18ef26ffcd34a0" target="_top" xlink:title="return the home node of the value pointed to ">
<polygon fill="#ffffff" stroke="#000000" points="748,-49.5 748,-79.5 875,-79.5 875,-49.5 748,-49.5"/>
<text text-anchor="start" x="756" y="-67.5" font-family="Helvetica,sans-Serif" font-size="10.00" fill="#000000">argo::data_distribution</text>
<text text-anchor="middle" x="811.5" y="-56.5" font-family="Helvetica,sans-Serif" font-size="10.00" fill="#000000">::global_ptr::node</text>
</a>
</g>
</g>
<!-- Node16&#45;&gt;Node17 -->
<g id="edge18" class="edge">
<title>Node16&#45;&gt;Node17</title>
<path fill="none" stroke="#191970" d="M696.0689,-64.5C708.9412,-64.5 723.3472,-64.5 737.5013,-64.5"/>
<polygon fill="#191970" stroke="#191970" points="737.7376,-68.0001 747.7375,-64.5 737.7375,-61.0001 737.7376,-68.0001"/>
</g>
<!-- Node19 -->
<g id="node20" class="node">
<title>Node19</title>
<g id="a_node20"><a xlink:href="classargo_1_1data__distribution_1_1global__ptr_ad8c21c408fa2b926cfd9acfd87e8e4e6.html#ad8c21c408fa2b926cfd9acfd87e8e4e6" target="_top" xlink:title="return the offset on the home node&#39;s local memory share ">
<polygon fill="#ffffff" stroke="#000000" points="748,-.5 748,-30.5 875,-30.5 875,-.5 748,-.5"/>
<text text-anchor="start" x="756" y="-18.5" font-family="Helvetica,sans-Serif" font-size="10.00" fill="#000000">argo::data_distribution</text>
<text text-anchor="middle" x="811.5" y="-7.5" font-family="Helvetica,sans-Serif" font-size="10.00" fill="#000000">::global_ptr::offset</text>
</a>
</g>
</g>
<!-- Node18&#45;&gt;Node19 -->
<g id="edge20" class="edge">
<title>Node18&#45;&gt;Node19</title>
<path fill="none" stroke="#191970" d="M684.2645,-20.2713C699.764,-19.6901 718.9491,-18.9707 737.6797,-18.2683"/>
<polygon fill="#191970" stroke="#191970" points="737.8488,-21.7645 747.7106,-17.8921 737.5864,-14.7694 737.8488,-21.7645"/>
</g>
<!-- Node21&#45;&gt;Node2 -->
<g id="edge25" class="edge">
<title>Node21&#45;&gt;Node2</title>
<path fill="none" stroke="#191970" d="M235.5709,-74.089C253.1752,-78.9719 274.7793,-84.9643 293.601,-90.185"/>
<polygon fill="#191970" stroke="#191970" points="292.8685,-93.6138 303.4402,-92.9141 294.7395,-86.8685 292.8685,-93.6138"/>
</g>
<!-- Node22 -->
<g id="node23" class="node">
<title>Node22</title>
<g id="a_node23"><a xlink:href="swdsm_8cpp_af770e3f703653ddb0967b85d88881ab7.html#af770e3f703653ddb0967b85d88881ab7" target="_top" xlink:title="Gives the ArgoDSM node id for the local process. ">
<polygon fill="#ffffff" stroke="#000000" points="316.5,-55 316.5,-74 359.5,-74 359.5,-55 316.5,-55"/>
<text text-anchor="middle" x="338" y="-62" font-family="Helvetica,sans-Serif" font-size="10.00" fill="#000000">getID</text>
</a>
</g>
</g>
<!-- Node21&#45;&gt;Node22 -->
<g id="edge23" class="edge">
<title>Node21&#45;&gt;Node22</title>
<path fill="none" stroke="#191970" d="M250.0732,-64.5C268.716,-64.5 289.4517,-64.5 306.1023,-64.5"/>
<polygon fill="#191970" stroke="#191970" points="306.3912,-68.0001 316.3911,-64.5 306.3911,-61.0001 306.3912,-68.0001"/>
</g>
<!-- Node23 -->
<g id="node24" class="node">
<title>Node23</title>
<g id="a_node24"><a xlink:href="swdsm_8cpp_adfcbbdedcad0833d49e3111447061689.html#adfcbbdedcad0833d49e3111447061689" target="_top" xlink:title="Gives an index to the sharer/writer vector depending on the address. ">
<polygon fill="#ffffff" stroke="#000000" points="287.5,-5.5 287.5,-35.5 388.5,-35.5 388.5,-5.5 287.5,-5.5"/>
<text text-anchor="start" x="295.5" y="-23.5" font-family="Helvetica,sans-Serif" font-size="10.00" fill="#000000">get_classification</text>
<text text-anchor="middle" x="338" y="-12.5" font-family="Helvetica,sans-Serif" font-size="10.00" fill="#000000">_index</text>
</a>
</g>
</g>
<!-- Node21&#45;&gt;Node23 -->
<g id="edge24" class="edge">
<title>Node21&#45;&gt;Node23</title>
<path fill="none" stroke="#191970" d="M230.727,-54.9527C245.6007,-50.1757 264.1109,-44.2308 281.5462,-38.6311"/>
<polygon fill="#191970" stroke="#191970" points="282.6412,-41.9556 291.0919,-35.5654 280.5007,-35.2909 282.6412,-41.9556"/>
</g>
</g>
</svg>
        <g id="navigator" transform="translate(0 0)" fill="#404254">
                <rect fill="#f2f5e9" fill-opacity="0.5" stroke="#606060" stroke-width=".5" x="0" y="0" width="60" height="60"/>
                <use id="zoomplus" xlink:href="#zoomPlus" x="17" y="9" onmousedown="handleZoom(evt,'in')"/>
                <use id="zoomminus" xlink:href="#zoomMin" x="42" y="9" onmousedown="handleZoom(evt,'out')"/>
                <use id="reset" xlink:href="#resetDef" x="30" y="36" onmousedown="handleReset()"/>
                <g id="arrowUp" xlink:href="#dirArrow" transform="translate(30 24)" onmousedown="handlePan(0,-1)">
                  <use xlink:href="#rim" fill="#404040">
                        <set attributeName="fill" to="#808080" begin="arrowUp.mouseover" end="arrowUp.mouseout"/>
                  </use>
                  <path fill="none" stroke="white" stroke-width="1.5" d="M0,-3.0v7 M-2.5,-0.5L0,-3.0L2.5,-0.5"/>
                </g>
                <g id="arrowRight" xlink:href="#dirArrow" transform="rotate(90) translate(36 -43)" onmousedown="handlePan(1,0)">
                  <use xlink:href="#rim" fill="#404040">
                        <set attributeName="fill" to="#808080" begin="arrowRight.mouseover" end="arrowRight.mouseout"/>
                  </use>
                  <path fill="none" stroke="white" stroke-width="1.5" d="M0,-3.0v7 M-2.5,-0.5L0,-3.0L2.5,-0.5"/>
                </g>
                <g id="arrowDown" xlink:href="#dirArrow" transform="rotate(180) translate(-30 -48)" onmousedown="handlePan(0,1)">
                  <use xlink:href="#rim" fill="#404040">
                        <set attributeName="fill" to="#808080" begin="arrowDown.mouseover" end="arrowDown.mouseout"/>
                  </use>
                  <path fill="none" stroke="white" stroke-width="1.5" d="M0,-3.0v7 M-2.5,-0.5L0,-3.0L2.5,-0.5"/>
                </g>
                <g id="arrowLeft" xlink:href="#dirArrow" transform="rotate(270) translate(-36 17)" onmousedown="handlePan(-1,0)">
                  <use xlink:href="#rim" fill="#404040">
                        <set attributeName="fill" to="#808080" begin="arrowLeft.mouseover" end="arrowLeft.mouseout"/>
                  </use>
                  <path fill="none" stroke="white" stroke-width="1.5" d="M0,-3.0v7 M-2.5,-0.5L0,-3.0L2.5,-0.5"/>
                </g>
        </g>
        <svg viewBox="0 0 15 15" width="100%" height="30px" preserveAspectRatio="xMaxYMin meet">
         <g id="arrow_out" transform="scale(0.3 0.3)">
          <a xlink:href="swdsm_8h_ad3f5bdae81c60ac704dda7372792427d_ad3f5bdae81c60ac704dda7372792427d_cgraph_org.svg" target="_base">
           <rect id="button" ry="5" rx="5" y="6" x="6" height="38" width="38"
                fill="#f2f5e9" fill-opacity="0.5" stroke="#606060" stroke-width="1.0"/>
           <path id="arrow"
             d="M 11.500037,31.436501 C 11.940474,20.09759 22.043105,11.32322 32.158766,21.979434 L 37.068811,17.246167 C 37.068811,17.246167 37.088388,32 37.088388,32 L 22.160133,31.978069 C 22.160133,31.978069 26.997745,27.140456 26.997745,27.140456 C 18.528582,18.264221 13.291696,25.230495 11.500037,31.436501 z"
             style="fill:#404040;"/>
          </a>
         </g>
        </svg>
</svg>
