<?xml version="1.0" encoding="UTF-8" standalone="no"?>
<!DOCTYPE svg PUBLIC "-//W3C//DTD SVG 1.1//EN"
 "http://www.w3.org/Graphics/SVG/1.1/DTD/svg11.dtd">
<!-- Generated by graphviz version 2.40.1 (20161225.0304)
 -->
<!-- Title: init_mpi_struct Pages: 1 -->
<svg width="449pt" height="28pt"
 viewBox="0.00 0.00 449.00 28.00" xmlns="http://www.w3.org/2000/svg" xmlns:xlink="http://www.w3.org/1999/xlink">
<g id="graph0" class="graph" transform="scale(1 1) rotate(0) translate(4 24)">
<title>init_mpi_struct</title>
<polygon fill="#ffffff" stroke="transparent" points="-4,4 -4,-24 445,-24 445,4 -4,4"/>
<!-- Node1 -->
<g id="node1" class="node">
<title>Node1</title>
<polygon fill="#bfbfbf" stroke="#000000" points="0,-.5 0,-19.5 89,-19.5 89,-.5 0,-.5"/>
<text text-anchor="middle" x="44.5" y="-7.5" font-family="Helvetica,sans-Serif" font-size="10.00" fill="#000000">init_mpi_struct</text>
</g>
<!-- Node2 -->
<g id="node2" class="node">
<title>Node2</title>
<g id="a_node2"><a xlink:href="swdsm_8h_a986edbd6f804f61cd8c58dcaa51025e8.html#a986edbd6f804f61cd8c58dcaa51025e8" target="_top" xlink:title="Initializes the MPI environment. ">
<polygon fill="#ffffff" stroke="#000000" points="125,-.5 125,-19.5 176,-19.5 176,-.5 125,-.5"/>
<text text-anchor="middle" x="150.5" y="-7.5" font-family="Helvetica,sans-Serif" font-size="10.00" fill="#000000">initmpi</text>
</a>
</g>
</g>
<!-- Node1&#45;&gt;Node2 -->
<g id="edge1" class="edge">
<title>Node1&#45;&gt;Node2</title>
<path fill="none" stroke="#191970" d="M99.253,-10C108.2281,-10 117.1361,-10 124.9459,-10"/>
<polygon fill="#191970" stroke="#191970" points="99.1464,-6.5001 89.1463,-10 99.1463,-13.5001 99.1464,-6.5001"/>
</g>
<!-- Node3 -->
<g id="node3" class="node">
<title>Node3</title>
<g id="a_node3"><a xlink:href="swdsm_8h_a10dca85d339ce630cf42dca685b3f6d9.html#a10dca85d339ce630cf42dca685b3f6d9" target="_top" xlink:title="Initializes ArgoDSM runtime. ">
<polygon fill="#ffffff" stroke="#000000" points="212,-.5 212,-19.5 298,-19.5 298,-.5 212,-.5"/>
<text text-anchor="middle" x="255" y="-7.5" font-family="Helvetica,sans-Serif" font-size="10.00" fill="#000000">argo_initialize</text>
</a>
</g>
</g>
<!-- Node2&#45;&gt;Node3 -->
<g id="edge2" class="edge">
<title>Node2&#45;&gt;Node3</title>
<path fill="none" stroke="#191970" d="M186.1164,-10C194.3704,-10 203.2426,-10 211.7828,-10"/>
<polygon fill="#191970" stroke="#191970" points="186.0636,-6.5001 176.0636,-10 186.0635,-13.5001 186.0636,-6.5001"/>
</g>
<!-- Node4 -->
<g id="node4" class="node">
<title>Node4</title>
<g id="a_node4"><a xlink:href="backend_8hpp_af0d80a03a17a374c10d9635ddf81e261.html#af0d80a03a17a374c10d9635ddf81e261" target="_top" xlink:title="initialize backend ">
<polygon fill="#ffffff" stroke="#000000" points="334,-.5 334,-19.5 441,-19.5 441,-.5 334,-.5"/>
<text text-anchor="middle" x="387.5" y="-7.5" font-family="Helvetica,sans-Serif" font-size="10.00" fill="#000000">argo::backend::init</text>
</a>
</g>
</g>
<!-- Node3&#45;&gt;Node4 -->
<g id="edge3" class="edge">
<title>Node3&#45;&gt;Node4</title>
<path fill="none" stroke="#191970" d="M308.0705,-10C316.4617,-10 325.147,-10 333.5579,-10"/>
<polygon fill="#191970" stroke="#191970" points="308.019,-6.5001 298.019,-10 308.0189,-13.5001 308.019,-6.5001"/>
</g>
</g>
</svg>
