<?xml version="1.0" encoding="UTF-8" standalone="no"?>
<!DOCTYPE svg PUBLIC "-//W3C//DTD SVG 1.1//EN"
 "http://www.w3.org/Graphics/SVG/1.1/DTD/svg11.dtd">
<!-- Generated by graphviz version 2.40.1 (20161225.0304)
 -->
<!-- Title: get_offset Pages: 1 -->
<svg width="1114pt" height="393pt"
 viewBox="0.00 0.00 1114.00 393.03" xmlns="http://www.w3.org/2000/svg" xmlns:xlink="http://www.w3.org/1999/xlink">
<g id="graph0" class="graph" transform="scale(1 1) rotate(0) translate(4 389.032)">
<title>get_offset</title>
<polygon fill="#ffffff" stroke="transparent" points="-4,4 -4,-389.032 1110,-389.032 1110,4 -4,4"/>
<!-- Node2 -->
<g id="node1" class="node">
<title>Node2</title>
<polygon fill="#bfbfbf" stroke="#000000" points="0,-289 0,-308 65,-308 65,-289 0,-289"/>
<text text-anchor="middle" x="32.5" y="-296" font-family="Helvetica,sans-Serif" font-size="10.00" fill="#000000">get_offset</text>
</g>
<!-- Node3 -->
<g id="node2" class="node">
<title>Node3</title>
<g id="a_node2"><a xlink:href="swdsm_8h_a8b00f264b792522b179fbc9c818187bd.html#a8b00f264b792522b179fbc9c818187bd" target="_top" xlink:title="Catches memory accesses to memory not yet cached in ArgoDSM. Launches remote requests for memory not ...">
<polygon fill="#ffffff" stroke="#000000" points="571.5,-308 571.5,-327 624.5,-327 624.5,-308 571.5,-308"/>
<text text-anchor="middle" x="598" y="-315" font-family="Helvetica,sans-Serif" font-size="10.00" fill="#000000">handler</text>
</a>
</g>
</g>
<!-- Node2&#45;&gt;Node3 -->
<g id="edge1" class="edge">
<title>Node2&#45;&gt;Node3</title>
<path fill="none" stroke="#191970" d="M75.5267,-299.9456C186.7589,-303.6829 481.4281,-313.5833 571.4825,-316.609"/>
<polygon fill="#191970" stroke="#191970" points="75.4599,-296.4415 65.348,-299.6036 75.2248,-303.4376 75.4599,-296.4415"/>
</g>
<!-- Node6 -->
<g id="node5" class="node">
<title>Node6</title>
<g id="a_node5"><a xlink:href="swdsm_8cpp_a97adb774a1a5a7a3505416a171c570e9.html#a97adb774a1a5a7a3505416a171c570e9" target="_top" xlink:title="load into cache helper function ">
<polygon fill="#ffffff" stroke="#000000" points="224,-327 224,-346 326,-346 326,-327 224,-327"/>
<text text-anchor="middle" x="275" y="-334" font-family="Helvetica,sans-Serif" font-size="10.00" fill="#000000">load_cache_entry</text>
</a>
</g>
</g>
<!-- Node2&#45;&gt;Node6 -->
<g id="edge4" class="edge">
<title>Node2&#45;&gt;Node6</title>
<path fill="none" stroke="#191970" d="M75.0124,-307.6324C83.5967,-309.3513 92.5724,-311.0591 101,-312.5 142.1797,-319.5406 189.1165,-325.9189 223.855,-330.3275"/>
<polygon fill="#191970" stroke="#191970" points="75.6691,-304.1944 65.1713,-305.625 74.27,-311.0532 75.6691,-304.1944"/>
</g>
<!-- Node7 -->
<g id="node6" class="node">
<title>Node7</title>
<g id="a_node6"><a xlink:href="swdsm_8h_ae0f2d0961e80b2903b3f54c9e6c68658.html#ae0f2d0961e80b2903b3f54c9e6c68658" target="_top" xlink:title="stores a page remotely &#45; only writing back what has been written locally since last synchronization p...">
<polygon fill="#ffffff" stroke="#000000" points="101,-197 101,-216 187,-216 187,-197 101,-197"/>
<text text-anchor="middle" x="144" y="-204" font-family="Helvetica,sans-Serif" font-size="10.00" fill="#000000">storepageDIFF</text>
</a>
</g>
</g>
<!-- Node2&#45;&gt;Node7 -->
<g id="edge6" class="edge">
<title>Node2&#45;&gt;Node7</title>
<path fill="none" stroke="#191970" d="M52.2527,-282.2018C75.426,-263.0813 113.0957,-231.9995 132.1533,-216.2748"/>
<polygon fill="#191970" stroke="#191970" points="49.9183,-279.5903 44.4325,-288.6544 54.3733,-284.9897 49.9183,-279.5903"/>
</g>
<!-- Node4 -->
<g id="node3" class="node">
<title>Node4</title>
<g id="a_node3"><a xlink:href="swdsm_8h_a10dca85d339ce630cf42dca685b3f6d9.html#a10dca85d339ce630cf42dca685b3f6d9" target="_top" xlink:title="Initializes ArgoDSM runtime. ">
<polygon fill="#ffffff" stroke="#000000" points="866.5,-364 866.5,-383 952.5,-383 952.5,-364 866.5,-364"/>
<text text-anchor="middle" x="909.5" y="-371" font-family="Helvetica,sans-Serif" font-size="10.00" fill="#000000">argo_initialize</text>
</a>
</g>
</g>
<!-- Node3&#45;&gt;Node4 -->
<g id="edge2" class="edge">
<title>Node3&#45;&gt;Node4</title>
<path fill="none" stroke="#191970" d="M617.5046,-333.4339C635.5712,-347.0891 663.827,-365.7441 692,-373.5 750.6137,-389.6362 821.5286,-385.4761 866.0891,-380.1664"/>
<polygon fill="#191970" stroke="#191970" points="619.5399,-330.5828 609.499,-327.2017 615.2398,-336.1064 619.5399,-330.5828"/>
</g>
<!-- Node5 -->
<g id="node4" class="node">
<title>Node5</title>
<g id="a_node4"><a xlink:href="backend_8hpp_af0d80a03a17a374c10d9635ddf81e261.html#af0d80a03a17a374c10d9635ddf81e261" target="_top" xlink:title="initialize backend ">
<polygon fill="#ffffff" stroke="#000000" points="999,-364 999,-383 1106,-383 1106,-364 999,-364"/>
<text text-anchor="middle" x="1052.5" y="-371" font-family="Helvetica,sans-Serif" font-size="10.00" fill="#000000">argo::backend::init</text>
</a>
</g>
</g>
<!-- Node4&#45;&gt;Node5 -->
<g id="edge3" class="edge">
<title>Node4&#45;&gt;Node5</title>
<path fill="none" stroke="#191970" d="M962.933,-373.5C974.7171,-373.5 987.2019,-373.5 998.9891,-373.5"/>
<polygon fill="#191970" stroke="#191970" points="962.7928,-370.0001 952.7928,-373.5 962.7927,-377.0001 962.7928,-370.0001"/>
</g>
<!-- Node6&#45;&gt;Node3 -->
<g id="edge5" class="edge">
<title>Node6&#45;&gt;Node3</title>
<path fill="none" stroke="#191970" d="M336.2935,-332.8945C407.0067,-328.7349 520.0963,-322.0826 571.2852,-319.0715"/>
<polygon fill="#191970" stroke="#191970" points="335.9575,-329.4081 326.1803,-333.4894 336.3686,-336.396 335.9575,-329.4081"/>
</g>
<!-- Node7&#45;&gt;Node6 -->
<g id="edge13" class="edge">
<title>Node7&#45;&gt;Node6</title>
<path fill="none" stroke="#191970" d="M161.3008,-223.6687C189.2516,-251.4061 243.4253,-305.1663 265.3955,-326.9688"/>
<polygon fill="#191970" stroke="#191970" points="163.4098,-220.8307 153.8463,-216.2711 158.479,-225.7994 163.4098,-220.8307"/>
</g>
<!-- Node8 -->
<g id="node7" class="node">
<title>Node8</title>
<g id="a_node7"><a xlink:href="backend_8hpp_a0fb29a8253f0d9aefc999d93414b1758.html#a0fb29a8253f0d9aefc999d93414b1758" target="_top" xlink:title="backend internal type erased function for selective acquire ">
<polygon fill="#ffffff" stroke="#000000" points="363,-68.5 363,-98.5 504,-98.5 504,-68.5 363,-68.5"/>
<text text-anchor="start" x="371" y="-86.5" font-family="Helvetica,sans-Serif" font-size="10.00" fill="#000000">argo::backend::_selective</text>
<text text-anchor="middle" x="433.5" y="-75.5" font-family="Helvetica,sans-Serif" font-size="10.00" fill="#000000">_acquire</text>
</a>
</g>
</g>
<!-- Node7&#45;&gt;Node8 -->
<g id="edge7" class="edge">
<title>Node7&#45;&gt;Node8</title>
<path fill="none" stroke="#191970" d="M174.9343,-192.6143C189.4889,-186.1275 207.103,-178.3435 223,-171.5 283.7581,-145.3443 354.8246,-115.865 396.8946,-98.529"/>
<polygon fill="#191970" stroke="#191970" points="173.1088,-189.5964 165.4056,-196.8704 175.9637,-195.9878 173.1088,-189.5964"/>
</g>
<!-- Node10 -->
<g id="node9" class="node">
<title>Node10</title>
<g id="a_node9"><a xlink:href="backend_8hpp_ac3350bde3c8baf64753e515336fad3be.html#ac3350bde3c8baf64753e515336fad3be" target="_top" xlink:title="backend internal type erased function for selective release ">
<polygon fill="#ffffff" stroke="#000000" points="363,-.5 363,-30.5 504,-30.5 504,-.5 363,-.5"/>
<text text-anchor="start" x="371" y="-18.5" font-family="Helvetica,sans-Serif" font-size="10.00" fill="#000000">argo::backend::_selective</text>
<text text-anchor="middle" x="433.5" y="-7.5" font-family="Helvetica,sans-Serif" font-size="10.00" fill="#000000">_release</text>
</a>
</g>
</g>
<!-- Node7&#45;&gt;Node10 -->
<g id="edge10" class="edge">
<title>Node7&#45;&gt;Node10</title>
<path fill="none" stroke="#191970" d="M157.8691,-189.0524C172.6477,-171.2492 197.4003,-143.5965 223,-124.5 278.4181,-83.16 351.7547,-49.1364 395.6252,-30.63"/>
<polygon fill="#191970" stroke="#191970" points="155.061,-186.9578 151.4554,-196.9203 160.4867,-191.3807 155.061,-186.9578"/>
</g>
<!-- Node11 -->
<g id="node10" class="node">
<title>Node11</title>
<g id="a_node10"><a xlink:href="classwrite__buffer_aa6a1c2c3aa3a7cde744bbca3b14f599a.html#aa6a1c2c3aa3a7cde744bbca3b14f599a" target="_top" xlink:title="Flushes first _write_back_size elements of the ArgoDSM write buffer to memory. ">
<polygon fill="#ffffff" stroke="#000000" points="223,-226.5 223,-256.5 327,-256.5 327,-226.5 223,-226.5"/>
<text text-anchor="start" x="231" y="-244.5" font-family="Helvetica,sans-Serif" font-size="10.00" fill="#000000">write_buffer::flush</text>
<text text-anchor="middle" x="275" y="-233.5" font-family="Helvetica,sans-Serif" font-size="10.00" fill="#000000">_partial</text>
</a>
</g>
</g>
<!-- Node7&#45;&gt;Node11 -->
<g id="edge14" class="edge">
<title>Node7&#45;&gt;Node11</title>
<path fill="none" stroke="#191970" d="M189.6905,-218.7074C200.2977,-221.5414 211.6701,-224.5798 222.5428,-227.4847"/>
<polygon fill="#191970" stroke="#191970" points="190.3609,-215.2638 179.7963,-216.0639 188.554,-222.0266 190.3609,-215.2638"/>
</g>
<!-- Node13 -->
<g id="node12" class="node">
<title>Node13</title>
<g id="a_node12"><a xlink:href="classwrite__buffer_aca2e330e17a38c1cc8d8c60701ce9dd7.html#aca2e330e17a38c1cc8d8c60701ce9dd7" target="_top" xlink:title="Flushes the ArgoDSM write buffer to memory. ">
<polygon fill="#ffffff" stroke="#000000" points="223,-181 223,-200 327,-200 327,-181 223,-181"/>
<text text-anchor="middle" x="275" y="-188" font-family="Helvetica,sans-Serif" font-size="10.00" fill="#000000">write_buffer::flush</text>
</a>
</g>
</g>
<!-- Node7&#45;&gt;Node13 -->
<g id="edge17" class="edge">
<title>Node7&#45;&gt;Node13</title>
<path fill="none" stroke="#191970" d="M197.2948,-199.9907C205.6674,-198.9681 214.3158,-197.9118 222.6665,-196.8919"/>
<polygon fill="#191970" stroke="#191970" points="196.7592,-196.53 187.2574,-201.2167 197.608,-203.4784 196.7592,-196.53"/>
</g>
<!-- Node8&#45;&gt;Node8 -->
<g id="edge8" class="edge">
<title>Node8&#45;&gt;Node8</title>
<path fill="none" stroke="#191970" d="M405.4253,-108.9579C408.9098,-113.679 418.268,-117 433.5,-117 458.4961,-117 467.6743,-108.0566 461.0348,-98.659"/>
<polygon fill="#191970" stroke="#191970" points="408.9368,-108.8286 405.9652,-98.659 401.9464,-108.462 408.9368,-108.8286"/>
</g>
<!-- Node9 -->
<g id="node8" class="node">
<title>Node9</title>
<g id="a_node8"><a xlink:href="singlenode_8cpp_aab3cabb3e1c0b9696b339416b684f78c.html#aab3cabb3e1c0b9696b339416b684f78c" target="_top" xlink:title="argo::backend::init">
<polygon fill="#ffffff" stroke="#000000" points="856,-62 856,-81 963,-81 963,-62 856,-62"/>
<text text-anchor="middle" x="909.5" y="-69" font-family="Helvetica,sans-Serif" font-size="10.00" fill="#000000">argo::backend::init</text>
</a>
</g>
</g>
<!-- Node8&#45;&gt;Node9 -->
<g id="edge9" class="edge">
<title>Node8&#45;&gt;Node9</title>
<path fill="none" stroke="#191970" d="M514.5246,-78.7728C565.4532,-76.041 632.5419,-72.8793 692,-71.5 747.8704,-70.2039 811.8353,-70.4064 855.862,-70.808"/>
<polygon fill="#191970" stroke="#191970" points="514.0324,-75.2942 504.2366,-79.3305 514.4114,-82.2839 514.0324,-75.2942"/>
</g>
<!-- Node10&#45;&gt;Node9 -->
<g id="edge12" class="edge">
<title>Node10&#45;&gt;Node9</title>
<path fill="none" stroke="#191970" d="M514.3377,-25.0103C611.6766,-36.4619 772.4402,-55.3753 855.7369,-65.1749"/>
<polygon fill="#191970" stroke="#191970" points="514.5885,-21.5158 504.248,-23.8233 513.7706,-28.4678 514.5885,-21.5158"/>
</g>
<!-- Node10&#45;&gt;Node10 -->
<g id="edge11" class="edge">
<title>Node10&#45;&gt;Node10</title>
<path fill="none" stroke="#191970" d="M405.4253,-40.9579C408.9098,-45.679 418.268,-49 433.5,-49 458.4961,-49 467.6743,-40.0566 461.0348,-30.659"/>
<polygon fill="#191970" stroke="#191970" points="408.9368,-40.8286 405.9652,-30.659 401.9464,-40.462 408.9368,-40.8286"/>
</g>
<!-- Node12 -->
<g id="node11" class="node">
<title>Node12</title>
<g id="a_node11"><a xlink:href="classwrite__buffer_a23b0dbc463111cacbbf83b267e76ac9f.html#a23b0dbc463111cacbbf83b267e76ac9f" target="_top" xlink:title="Adds a new element to the write buffer. ">
<polygon fill="#ffffff" stroke="#000000" points="384,-251 384,-270 483,-270 483,-251 384,-251"/>
<text text-anchor="middle" x="433.5" y="-258" font-family="Helvetica,sans-Serif" font-size="10.00" fill="#000000">write_buffer::add</text>
</a>
</g>
</g>
<!-- Node11&#45;&gt;Node12 -->
<g id="edge15" class="edge">
<title>Node11&#45;&gt;Node12</title>
<path fill="none" stroke="#191970" d="M337.339,-248.9728C352.7951,-250.8256 369.1512,-252.7863 383.9049,-254.5549"/>
<polygon fill="#191970" stroke="#191970" points="337.6836,-245.4892 327.3381,-247.774 336.8504,-252.4394 337.6836,-245.4892"/>
</g>
<!-- Node12&#45;&gt;Node3 -->
<g id="edge16" class="edge">
<title>Node12&#45;&gt;Node3</title>
<path fill="none" stroke="#191970" d="M471.4312,-273.3389C481.983,-276.9306 493.4434,-280.8502 504,-284.5 526.7216,-292.3557 552.4816,-301.4095 571.2818,-308.0443"/>
<polygon fill="#191970" stroke="#191970" points="472.2463,-269.9194 461.6519,-270.0153 469.9938,-276.5471 472.2463,-269.9194"/>
</g>
<!-- Node14 -->
<g id="node13" class="node">
<title>Node14</title>
<g id="a_node13"><a xlink:href="swdsm_8h_aa7c3a2de6bbafdaf68fe6ceb6110ab97.html#aa7c3a2de6bbafdaf68fe6ceb6110ab97" target="_top" xlink:title="Self&#45;Invalidates all memory that has potential writers. ">
<polygon fill="#ffffff" stroke="#000000" points="384.5,-175 384.5,-194 482.5,-194 482.5,-175 384.5,-175"/>
<text text-anchor="middle" x="433.5" y="-182" font-family="Helvetica,sans-Serif" font-size="10.00" fill="#000000">self_invalidation</text>
</a>
</g>
</g>
<!-- Node13&#45;&gt;Node14 -->
<g id="edge18" class="edge">
<title>Node13&#45;&gt;Node14</title>
<path fill="none" stroke="#191970" d="M337.4396,-188.1364C353.0526,-187.5453 369.578,-186.9198 384.4385,-186.3572"/>
<polygon fill="#191970" stroke="#191970" points="337.1985,-184.6429 327.3381,-188.5187 337.4634,-191.6379 337.1985,-184.6429"/>
</g>
<!-- Node15 -->
<g id="node14" class="node">
<title>Node15</title>
<g id="a_node14"><a xlink:href="swdsm_8h_ad3f5bdae81c60ac704dda7372792427d.html#ad3f5bdae81c60ac704dda7372792427d" target="_top" xlink:title="Global barrier for ArgoDSM &#45; needs to be called by every thread in the system that need coherent view...">
<polygon fill="#ffffff" stroke="#000000" points="540,-250 540,-269 656,-269 656,-250 540,-250"/>
<text text-anchor="middle" x="598" y="-257" font-family="Helvetica,sans-Serif" font-size="10.00" fill="#000000">swdsm_argo_barrier</text>
</a>
</g>
</g>
<!-- Node13&#45;&gt;Node15 -->
<g id="edge31" class="edge">
<title>Node13&#45;&gt;Node15</title>
<path fill="none" stroke="#191970" d="M329.7134,-202.188C392.7052,-215.6445 494.9751,-237.4916 553.3665,-249.9653"/>
<polygon fill="#191970" stroke="#191970" points="330.0832,-198.6881 319.5726,-200.0217 328.6208,-205.5336 330.0832,-198.6881"/>
</g>
<!-- Node24 -->
<g id="node23" class="node">
<title>Node24</title>
<g id="a_node23"><a xlink:href="swdsm_8h_ad390eb58e1be03ed6a0939fae7ebd20a.html#ad390eb58e1be03ed6a0939fae7ebd20a" target="_top" xlink:title="Release function for ArgoDSM (Release according to Release Consistency) ">
<polygon fill="#ffffff" stroke="#000000" points="558,-137 558,-156 638,-156 638,-137 558,-137"/>
<text text-anchor="middle" x="598" y="-144" font-family="Helvetica,sans-Serif" font-size="10.00" fill="#000000">argo_release</text>
</a>
</g>
</g>
<!-- Node13&#45;&gt;Node24 -->
<g id="edge32" class="edge">
<title>Node13&#45;&gt;Node24</title>
<path fill="none" stroke="#191970" d="M312.8908,-177.9752C328.2812,-173.3518 346.3328,-168.5112 363,-165.5 430.6698,-153.2744 510.7291,-148.9123 557.7736,-147.358"/>
<polygon fill="#191970" stroke="#191970" points="311.7285,-174.6709 303.2027,-180.9607 313.79,-181.3605 311.7285,-174.6709"/>
</g>
<!-- Node14&#45;&gt;Node15 -->
<g id="edge19" class="edge">
<title>Node14&#45;&gt;Node15</title>
<path fill="none" stroke="#191970" d="M474.6761,-197.2119C484.4125,-200.5749 494.6726,-204.417 504,-208.5 532.5742,-221.0081 564.1272,-239.0632 582.4434,-249.9981"/>
<polygon fill="#191970" stroke="#191970" points="475.7622,-193.8846 465.1682,-194.0174 473.5327,-200.5201 475.7622,-193.8846"/>
</g>
<!-- Node21 -->
<g id="node20" class="node">
<title>Node21</title>
<g id="a_node20"><a xlink:href="swdsm_8h_a44b8bb7a3c8b47b4f9552c8e10b25e4b.html#a44b8bb7a3c8b47b4f9552c8e10b25e4b" target="_top" xlink:title="acquire function for ArgoDSM (Acquire according to Release Consistency) ">
<polygon fill="#ffffff" stroke="#000000" points="558,-175 558,-194 638,-194 638,-175 558,-175"/>
<text text-anchor="middle" x="598" y="-182" font-family="Helvetica,sans-Serif" font-size="10.00" fill="#000000">argo_acquire</text>
</a>
</g>
</g>
<!-- Node14&#45;&gt;Node21 -->
<g id="edge26" class="edge">
<title>Node14&#45;&gt;Node21</title>
<path fill="none" stroke="#191970" d="M492.8994,-184.5C514.455,-184.5 538.2849,-184.5 557.7966,-184.5"/>
<polygon fill="#191970" stroke="#191970" points="492.8555,-181.0001 482.8554,-184.5 492.8554,-188.0001 492.8555,-181.0001"/>
</g>
<!-- Node16 -->
<g id="node15" class="node">
<title>Node16</title>
<g id="a_node15"><a xlink:href="backend_8hpp_af1a647431651556204709451bebb5a42.html#af1a647431651556204709451bebb5a42" target="_top" xlink:title="a simple collective barrier ">
<polygon fill="#ffffff" stroke="#000000" points="694,-231 694,-250 818,-250 818,-231 694,-231"/>
<text text-anchor="middle" x="756" y="-238" font-family="Helvetica,sans-Serif" font-size="10.00" fill="#000000">argo::backend::barrier</text>
</a>
</g>
</g>
<!-- Node15&#45;&gt;Node16 -->
<g id="edge20" class="edge">
<title>Node15&#45;&gt;Node16</title>
<path fill="none" stroke="#191970" d="M666.5403,-251.2578C675.6296,-250.1648 684.9068,-249.0492 693.8793,-247.9702"/>
<polygon fill="#191970" stroke="#191970" points="665.895,-247.8101 656.3845,-252.4791 666.7308,-254.76 665.895,-247.8101"/>
</g>
<!-- Node17 -->
<g id="node16" class="node">
<title>Node17</title>
<g id="a_node16"><a xlink:href="swdsm_8h_acd175d6d8efa5cce6963bae64891a490.html#acd175d6d8efa5cce6963bae64891a490" target="_top" xlink:title="Allocates memory in global address space. ">
<polygon fill="#ffffff" stroke="#000000" points="714.5,-269 714.5,-288 797.5,-288 797.5,-269 714.5,-269"/>
<text text-anchor="middle" x="756" y="-276" font-family="Helvetica,sans-Serif" font-size="10.00" fill="#000000">argo_gmalloc</text>
</a>
</g>
</g>
<!-- Node15&#45;&gt;Node17 -->
<g id="edge21" class="edge">
<title>Node15&#45;&gt;Node17</title>
<path fill="none" stroke="#191970" d="M666.3948,-267.7247C682.6389,-269.6781 699.4922,-271.7048 714.14,-273.4662"/>
<polygon fill="#191970" stroke="#191970" points="666.7308,-264.24 656.3845,-266.5209 665.895,-271.1899 666.7308,-264.24"/>
</g>
<!-- Node18 -->
<g id="node17" class="node">
<title>Node18</title>
<g id="a_node17"><a xlink:href="swdsm_8cpp_aa954d5e0bcaee69ff6e03e697bcaf68b.html#aa954d5e0bcaee69ff6e03e697bcaf68b" target="_top" xlink:title="shut down ArgoDSM system ">
<polygon fill="#ffffff" stroke="#000000" points="716.5,-307 716.5,-326 795.5,-326 795.5,-307 716.5,-307"/>
<text text-anchor="middle" x="756" y="-314" font-family="Helvetica,sans-Serif" font-size="10.00" fill="#000000">argo_finalize</text>
</a>
</g>
</g>
<!-- Node15&#45;&gt;Node18 -->
<g id="edge22" class="edge">
<title>Node15&#45;&gt;Node18</title>
<path fill="none" stroke="#191970" d="M629.0503,-272.923C647.233,-280.5637 670.7322,-290.0633 692,-297.5 701.5185,-300.8283 711.959,-304.0888 721.5955,-306.9432"/>
<polygon fill="#191970" stroke="#191970" points="630.3789,-269.6848 619.8058,-269.0063 627.6481,-276.1302 630.3789,-269.6848"/>
</g>
<!-- Node20 -->
<g id="node19" class="node">
<title>Node20</title>
<g id="a_node19"><a xlink:href="swdsm_8h_a0c6b51af2b87ddf7eb04aa7d4e0e836e.html#a0c6b51af2b87ddf7eb04aa7d4e0e836e" target="_top" xlink:title="Resets current coherence. Collective function called by all threads on all nodes. ...">
<polygon fill="#ffffff" stroke="#000000" points="694,-345 694,-364 818,-364 818,-345 694,-345"/>
<text text-anchor="middle" x="756" y="-352" font-family="Helvetica,sans-Serif" font-size="10.00" fill="#000000">argo_reset_coherence</text>
</a>
</g>
</g>
<!-- Node15&#45;&gt;Node20 -->
<g id="edge24" class="edge">
<title>Node15&#45;&gt;Node20</title>
<path fill="none" stroke="#191970" d="M622.9055,-274.6289C633.4703,-281.4516 645.6969,-289.9002 656,-298.5 673.6143,-313.2023 672.3663,-323.6282 692,-335.5 698.3477,-339.3382 705.5215,-342.4448 712.7117,-344.9457"/>
<polygon fill="#191970" stroke="#191970" points="624.4624,-271.4724 614.1392,-269.0887 620.7227,-277.3898 624.4624,-271.4724"/>
</g>
<!-- Node19 -->
<g id="node18" class="node">
<title>Node19</title>
<g id="a_node18"><a xlink:href="swdsm_8h_a18cc89a7368e30281ea4b1d214a1b1ff.html#a18cc89a7368e30281ea4b1d214a1b1ff" target="_top" xlink:title="Pins and registers the local thread. ">
<polygon fill="#ffffff" stroke="#000000" points="859,-307 859,-326 960,-326 960,-307 859,-307"/>
<text text-anchor="middle" x="909.5" y="-314" font-family="Helvetica,sans-Serif" font-size="10.00" fill="#000000">argo_pin_threads</text>
</a>
</g>
</g>
<!-- Node18&#45;&gt;Node19 -->
<g id="edge23" class="edge">
<title>Node18&#45;&gt;Node19</title>
<path fill="none" stroke="#191970" d="M805.8002,-316.5C822.7693,-316.5 841.7517,-316.5 858.7913,-316.5"/>
<polygon fill="#191970" stroke="#191970" points="805.5301,-313.0001 795.5301,-316.5 805.53,-320.0001 805.5301,-313.0001"/>
</g>
<!-- Node20&#45;&gt;Node4 -->
<g id="edge25" class="edge">
<title>Node20&#45;&gt;Node4</title>
<path fill="none" stroke="#191970" d="M828.7126,-363.5003C841.6043,-365.096 854.6483,-366.7105 866.3843,-368.1632"/>
<polygon fill="#191970" stroke="#191970" points="828.7886,-359.983 818.4343,-362.228 827.9286,-366.93 828.7886,-359.983"/>
</g>
<!-- Node22 -->
<g id="node21" class="node">
<title>Node22</title>
<g id="a_node21"><a xlink:href="backend_8hpp_a1032f833666c3f810ac1c6210197d426.html#a1032f833666c3f810ac1c6210197d426" target="_top" xlink:title="causes a node to self&#45;invalidate its cache, and thus getting any updated values on subsequent accesse...">
<polygon fill="#ffffff" stroke="#000000" points="692,-175 692,-194 820,-194 820,-175 692,-175"/>
<text text-anchor="middle" x="756" y="-182" font-family="Helvetica,sans-Serif" font-size="10.00" fill="#000000">argo::backend::acquire</text>
</a>
</g>
</g>
<!-- Node21&#45;&gt;Node22 -->
<g id="edge27" class="edge">
<title>Node21&#45;&gt;Node22</title>
<path fill="none" stroke="#191970" d="M648.5231,-184.5C662.3033,-184.5 677.4182,-184.5 691.8475,-184.5"/>
<polygon fill="#191970" stroke="#191970" points="648.2789,-181.0001 638.2789,-184.5 648.2789,-188.0001 648.2789,-181.0001"/>
</g>
<!-- Node23 -->
<g id="node22" class="node">
<title>Node23</title>
<g id="a_node22"><a xlink:href="swdsm_8h_ac0b665f72bc2a28dc663ed204c526e1b.html#ac0b665f72bc2a28dc663ed204c526e1b" target="_top" xlink:title="acquire&#45;release function for ArgoDSM (Both acquire and release according to Release Consistency) ...">
<polygon fill="#ffffff" stroke="#000000" points="716.5,-137 716.5,-156 795.5,-156 795.5,-137 716.5,-137"/>
<text text-anchor="middle" x="756" y="-144" font-family="Helvetica,sans-Serif" font-size="10.00" fill="#000000">argo_acq_rel</text>
</a>
</g>
</g>
<!-- Node21&#45;&gt;Node23 -->
<g id="edge30" class="edge">
<title>Node21&#45;&gt;Node23</title>
<path fill="none" stroke="#191970" d="M647.7616,-172.532C669.9029,-167.2069 695.6116,-161.0238 716.4166,-156.0201"/>
<polygon fill="#191970" stroke="#191970" points="646.7744,-169.1696 637.8701,-174.911 648.4113,-175.9755 646.7744,-169.1696"/>
</g>
<!-- Node22&#45;&gt;Node9 -->
<g id="edge29" class="edge">
<title>Node22&#45;&gt;Node9</title>
<path fill="none" stroke="#191970" d="M809.1819,-171.1237C812.9457,-169.4524 816.5941,-167.5847 820,-165.5 857.4774,-142.561 889.7896,-100.0279 903.0605,-81.0606"/>
<polygon fill="#191970" stroke="#191970" points="807.6747,-167.9559 799.6603,-174.8856 810.2469,-174.4662 807.6747,-167.9559"/>
</g>
<!-- Node22&#45;&gt;Node22 -->
<g id="edge28" class="edge">
<title>Node22&#45;&gt;Node22</title>
<path fill="none" stroke="#191970" d="M727.6275,-203.1539C728.8135,-208.4368 738.271,-212.5 756,-212.5 783.0156,-212.5 790.8248,-203.0653 779.4276,-194.2571"/>
<polygon fill="#191970" stroke="#191970" points="730.7735,-204.6981 732.5724,-194.2571 724.6551,-201.2974 730.7735,-204.6981"/>
</g>
<!-- Node24&#45;&gt;Node23 -->
<g id="edge36" class="edge">
<title>Node24&#45;&gt;Node23</title>
<path fill="none" stroke="#191970" d="M648.4252,-146.5C670.3886,-146.5 695.7577,-146.5 716.3418,-146.5"/>
<polygon fill="#191970" stroke="#191970" points="648.2789,-143.0001 638.2789,-146.5 648.2788,-150.0001 648.2789,-143.0001"/>
</g>
<!-- Node25 -->
<g id="node24" class="node">
<title>Node25</title>
<g id="a_node24"><a xlink:href="backend_8hpp_a8953c9cd9d3c56306740b6c9b97513a2.html#a8953c9cd9d3c56306740b6c9b97513a2" target="_top" xlink:title="causes a node to self&#45;downgrade its cache, making all previous writes to be propagated to the homenod...">
<polygon fill="#ffffff" stroke="#000000" points="692,-81 692,-100 820,-100 820,-81 692,-81"/>
<text text-anchor="middle" x="756" y="-88" font-family="Helvetica,sans-Serif" font-size="10.00" fill="#000000">argo::backend::release</text>
</a>
</g>
</g>
<!-- Node24&#45;&gt;Node25 -->
<g id="edge33" class="edge">
<title>Node24&#45;&gt;Node25</title>
<path fill="none" stroke="#191970" d="M634.8955,-133.4231C663.7787,-123.186 703.2706,-109.1889 729.1933,-100.0011"/>
<polygon fill="#191970" stroke="#191970" points="633.4174,-130.2336 625.1612,-136.8733 635.7559,-136.8314 633.4174,-130.2336"/>
</g>
<!-- Node25&#45;&gt;Node9 -->
<g id="edge35" class="edge">
<title>Node25&#45;&gt;Node9</title>
<path fill="none" stroke="#191970" d="M830.2612,-81.3081C838.8631,-80.2433 847.5067,-79.1734 855.7592,-78.1519"/>
<polygon fill="#191970" stroke="#191970" points="829.7027,-77.8504 820.2084,-82.5524 830.5627,-84.7974 829.7027,-77.8504"/>
</g>
<!-- Node25&#45;&gt;Node25 -->
<g id="edge34" class="edge">
<title>Node25&#45;&gt;Node25</title>
<path fill="none" stroke="#191970" d="M727.6275,-109.1539C728.8135,-114.4368 738.271,-118.5 756,-118.5 783.0156,-118.5 790.8248,-109.0653 779.4276,-100.2571"/>
<polygon fill="#191970" stroke="#191970" points="730.7735,-110.6981 732.5724,-100.2571 724.6551,-107.2974 730.7735,-110.6981"/>
</g>
</g>
</svg>
