<?xml version="1.0" encoding="UTF-8" standalone="no"?>
<!DOCTYPE svg PUBLIC "-//W3C//DTD SVG 1.1//EN"
 "http://www.w3.org/Graphics/SVG/1.1/DTD/svg11.dtd">
<!-- Generated by graphviz version 2.40.1 (20161225.0304)
 -->
<!-- Title: argo_acquire Pages: 1 -->
<svg width="1327pt" height="219pt"
 viewBox="0.00 0.00 1327.00 219.00" xmlns="http://www.w3.org/2000/svg" xmlns:xlink="http://www.w3.org/1999/xlink">
<g id="graph0" class="graph" transform="scale(1 1) rotate(0) translate(4 215)">
<title>argo_acquire</title>
<polygon fill="#ffffff" stroke="transparent" points="-4,4 -4,-215 1323,-215 1323,4 -4,4"/>
<!-- Node0 -->
<g id="node1" class="node">
<title>Node0</title>
<polygon fill="#bfbfbf" stroke="#000000" points="0,-137 0,-156 80,-156 80,-137 0,-137"/>
<text text-anchor="middle" x="40" y="-144" font-family="Helvetica,sans-Serif" font-size="10.00" fill="#000000">argo_acquire</text>
</g>
<!-- Node1 -->
<g id="node2" class="node">
<title>Node1</title>
<g id="a_node2"><a xlink:href="swdsm_8cpp_aa7c3a2de6bbafdaf68fe6ceb6110ab97.html#aa7c3a2de6bbafdaf68fe6ceb6110ab97" target="_top" xlink:title="Self&#45;Invalidates all memory that has potential writers. ">
<polygon fill="#ffffff" stroke="#000000" points="116,-137 116,-156 214,-156 214,-137 116,-137"/>
<text text-anchor="middle" x="165" y="-144" font-family="Helvetica,sans-Serif" font-size="10.00" fill="#000000">self_invalidation</text>
</a>
</g>
</g>
<!-- Node0&#45;&gt;Node1 -->
<g id="edge1" class="edge">
<title>Node0&#45;&gt;Node1</title>
<path fill="none" stroke="#191970" d="M80.2388,-146.5C88.3438,-146.5 97.0233,-146.5 105.6237,-146.5"/>
<polygon fill="#191970" stroke="#191970" points="105.6444,-150.0001 115.6444,-146.5 105.6443,-143.0001 105.6444,-150.0001"/>
</g>
<!-- Node2 -->
<g id="node3" class="node">
<title>Node2</title>
<g id="a_node3"><a xlink:href="swdsm_8cpp_af770e3f703653ddb0967b85d88881ab7.html#af770e3f703653ddb0967b85d88881ab7" target="_top" xlink:title="Gives the ArgoDSM node id for the local process. ">
<polygon fill="#ffffff" stroke="#000000" points="280.5,-181 280.5,-200 323.5,-200 323.5,-181 280.5,-181"/>
<text text-anchor="middle" x="302" y="-188" font-family="Helvetica,sans-Serif" font-size="10.00" fill="#000000">getID</text>
</a>
</g>
</g>
<!-- Node1&#45;&gt;Node2 -->
<g id="edge2" class="edge">
<title>Node1&#45;&gt;Node2</title>
<path fill="none" stroke="#191970" d="M194.727,-156.0473C217.2121,-163.2689 248.0081,-173.1595 270.8372,-180.4915"/>
<polygon fill="#191970" stroke="#191970" points="269.8046,-183.8359 280.3959,-183.5614 271.9451,-177.1712 269.8046,-183.8359"/>
</g>
<!-- Node3 -->
<g id="node4" class="node">
<title>Node3</title>
<g id="a_node4"><a xlink:href="swdsm_8cpp_adfcbbdedcad0833d49e3111447061689.html#adfcbbdedcad0833d49e3111447061689" target="_top" xlink:title="Gives an index to the sharer/writer vector depending on the address. ">
<polygon fill="#ffffff" stroke="#000000" points="251.5,-131.5 251.5,-161.5 352.5,-161.5 352.5,-131.5 251.5,-131.5"/>
<text text-anchor="start" x="259.5" y="-149.5" font-family="Helvetica,sans-Serif" font-size="10.00" fill="#000000">get_classification</text>
<text text-anchor="middle" x="302" y="-138.5" font-family="Helvetica,sans-Serif" font-size="10.00" fill="#000000">_index</text>
</a>
</g>
</g>
<!-- Node1&#45;&gt;Node3 -->
<g id="edge3" class="edge">
<title>Node1&#45;&gt;Node3</title>
<path fill="none" stroke="#191970" d="M214.0732,-146.5C222.8871,-146.5 232.1689,-146.5 241.2656,-146.5"/>
<polygon fill="#191970" stroke="#191970" points="241.4226,-150.0001 251.4226,-146.5 241.4226,-143.0001 241.4226,-150.0001"/>
</g>
<!-- Node4 -->
<g id="node5" class="node">
<title>Node4</title>
<g id="a_node5"><a xlink:href="classwrite__buffer_aca2e330e17a38c1cc8d8c60701ce9dd7.html#aca2e330e17a38c1cc8d8c60701ce9dd7" target="_top" xlink:title="Flushes the ArgoDSM write buffer to memory. ">
<polygon fill="#ffffff" stroke="#000000" points="250,-93 250,-112 354,-112 354,-93 250,-93"/>
<text text-anchor="middle" x="302" y="-100" font-family="Helvetica,sans-Serif" font-size="10.00" fill="#000000">write_buffer::flush</text>
</a>
</g>
</g>
<!-- Node1&#45;&gt;Node4 -->
<g id="edge4" class="edge">
<title>Node1&#45;&gt;Node4</title>
<path fill="none" stroke="#191970" d="M194.727,-136.9527C214.6545,-130.5526 241.1097,-122.056 262.7616,-115.1021"/>
<polygon fill="#191970" stroke="#191970" points="263.8803,-118.419 272.3311,-112.0287 261.7398,-111.7543 263.8803,-118.419"/>
</g>
<!-- Node5 -->
<g id="node6" class="node">
<title>Node5</title>
<g id="a_node6"><a xlink:href="classwrite__buffer_ab70cc0d6ca3591094aae489dbc3feaa5.html#ab70cc0d6ca3591094aae489dbc3feaa5" target="_top" xlink:title="Check if the write buffer is empty. ">
<polygon fill="#ffffff" stroke="#000000" points="399,-169 399,-188 512,-188 512,-169 399,-169"/>
<text text-anchor="middle" x="455.5" y="-176" font-family="Helvetica,sans-Serif" font-size="10.00" fill="#000000">write_buffer::empty</text>
</a>
</g>
</g>
<!-- Node4&#45;&gt;Node5 -->
<g id="edge5" class="edge">
<title>Node4&#45;&gt;Node5</title>
<path fill="none" stroke="#191970" d="M333.3254,-112.036C340.4148,-114.8662 347.7023,-118.3456 354,-122.5 373.1522,-135.1339 370.3293,-147.6897 390,-159.5 393.5973,-161.6598 397.4538,-163.5858 401.4288,-165.3012"/>
<polygon fill="#191970" stroke="#191970" points="400.263,-168.6028 410.8527,-168.9328 402.7802,-162.071 400.263,-168.6028"/>
</g>
<!-- Node6 -->
<g id="node7" class="node">
<title>Node6</title>
<g id="a_node7"><a xlink:href="classwrite__buffer_aa2325346aceb3e7ffdbdbdc8e8682147.html#aa2325346aceb3e7ffdbdbdc8e8682147" target="_top" xlink:title="Sorts all elements by home node id in ascending order. ">
<polygon fill="#ffffff" stroke="#000000" points="405.5,-131 405.5,-150 505.5,-150 505.5,-131 405.5,-131"/>
<text text-anchor="middle" x="455.5" y="-138" font-family="Helvetica,sans-Serif" font-size="10.00" fill="#000000">write_buffer::sort</text>
</a>
</g>
</g>
<!-- Node4&#45;&gt;Node6 -->
<g id="edge6" class="edge">
<title>Node4&#45;&gt;Node6</title>
<path fill="none" stroke="#191970" d="M340.7345,-112.089C360.8993,-117.0809 385.7479,-123.2324 407.1611,-128.5334"/>
<polygon fill="#191970" stroke="#191970" points="406.4959,-131.9743 417.044,-130.9799 408.1781,-125.1794 406.4959,-131.9743"/>
</g>
<!-- Node16 -->
<g id="node17" class="node">
<title>Node16</title>
<g id="a_node17"><a xlink:href="classwrite__buffer_ae065d3ee59035ad508eb8ce6670d2c89.html#ae065d3ee59035ad508eb8ce6670d2c89" target="_top" xlink:title="Removes the front element from the buffer and returns it. ">
<polygon fill="#ffffff" stroke="#000000" points="406,-93 406,-112 505,-112 505,-93 406,-93"/>
<text text-anchor="middle" x="455.5" y="-100" font-family="Helvetica,sans-Serif" font-size="10.00" fill="#000000">write_buffer::pop</text>
</a>
</g>
</g>
<!-- Node4&#45;&gt;Node16 -->
<g id="edge17" class="edge">
<title>Node4&#45;&gt;Node16</title>
<path fill="none" stroke="#191970" d="M354.3967,-102.5C367.6849,-102.5 382.0597,-102.5 395.685,-102.5"/>
<polygon fill="#191970" stroke="#191970" points="395.9279,-106.0001 405.9279,-102.5 395.9279,-99.0001 395.9279,-106.0001"/>
</g>
<!-- Node17 -->
<g id="node18" class="node">
<title>Node17</title>
<g id="a_node18"><a xlink:href="swdsm_8cpp_ae0f2d0961e80b2903b3f54c9e6c68658.html#ae0f2d0961e80b2903b3f54c9e6c68658" target="_top" xlink:title="stores a page remotely &#45; only writing back what has been written locally since last synchronization p...">
<polygon fill="#ffffff" stroke="#000000" points="412.5,-55 412.5,-74 498.5,-74 498.5,-55 412.5,-55"/>
<text text-anchor="middle" x="455.5" y="-62" font-family="Helvetica,sans-Serif" font-size="10.00" fill="#000000">storepageDIFF</text>
</a>
</g>
</g>
<!-- Node4&#45;&gt;Node17 -->
<g id="edge18" class="edge">
<title>Node4&#45;&gt;Node17</title>
<path fill="none" stroke="#191970" d="M340.7345,-92.911C360.8993,-87.9191 385.7479,-81.7676 407.1611,-76.4666"/>
<polygon fill="#191970" stroke="#191970" points="408.1781,-79.8206 417.044,-74.0201 406.4959,-73.0257 408.1781,-79.8206"/>
</g>
<!-- Node22 -->
<g id="node23" class="node">
<title>Node22</title>
<g id="a_node23"><a xlink:href="namespaceargo_a79c9492f3fd441bfa6261dffbc0f02f4.html#a79c9492f3fd441bfa6261dffbc0f02f4" target="_top" xlink:title="Number of ArgoDSM nodes being run. ">
<polygon fill="#ffffff" stroke="#000000" points="390,-17 390,-36 521,-36 521,-17 390,-17"/>
<text text-anchor="middle" x="455.5" y="-24" font-family="Helvetica,sans-Serif" font-size="10.00" fill="#000000">argo::number_of_nodes</text>
</a>
</g>
</g>
<!-- Node4&#45;&gt;Node22 -->
<g id="edge23" class="edge">
<title>Node4&#45;&gt;Node22</title>
<path fill="none" stroke="#191970" d="M314.1527,-92.9675C330.5424,-80.5129 361.026,-58.7374 390,-45.5 395.0482,-43.1936 400.4438,-41.0948 405.8903,-39.205"/>
<polygon fill="#191970" stroke="#191970" points="407.2519,-42.4429 415.6848,-36.0291 405.0928,-35.7842 407.2519,-42.4429"/>
</g>
<!-- Node7 -->
<g id="node8" class="node">
<title>Node7</title>
<g id="a_node8"><a xlink:href="namespaceargo_a48dc17c94275df10a8e7f3959cbf0191.html#a48dc17c94275df10a8e7f3959cbf0191" target="_top" xlink:title="Get the ArgoDSM node id where addr is physically backed. ">
<polygon fill="#ffffff" stroke="#000000" points="557,-134 557,-153 674,-153 674,-134 557,-134"/>
<text text-anchor="middle" x="615.5" y="-141" font-family="Helvetica,sans-Serif" font-size="10.00" fill="#000000">argo::get_homenode</text>
</a>
</g>
</g>
<!-- Node6&#45;&gt;Node7 -->
<g id="edge7" class="edge">
<title>Node6&#45;&gt;Node7</title>
<path fill="none" stroke="#191970" d="M505.686,-141.441C518.6124,-141.6834 532.7506,-141.9484 546.452,-142.2054"/>
<polygon fill="#191970" stroke="#191970" points="546.7533,-145.7115 556.8171,-142.3997 546.8845,-138.7127 546.7533,-145.7115"/>
</g>
<!-- Node8 -->
<g id="node9" class="node">
<title>Node8</title>
<g id="a_node9"><a xlink:href="classargo_1_1data__distribution_1_1global__ptr_a3e2cdd4d323ef91174615e27ab94e342.html#a3e2cdd4d323ef91174615e27ab94e342" target="_top" xlink:title="return the home node of the value pointed to, or a default value if the page has not yet been first&#45;t...">
<polygon fill="#ffffff" stroke="#000000" points="710,-175.5 710,-205.5 841,-205.5 841,-175.5 710,-175.5"/>
<text text-anchor="start" x="718" y="-193.5" font-family="Helvetica,sans-Serif" font-size="10.00" fill="#000000">argo::data_distribution</text>
<text text-anchor="middle" x="775.5" y="-182.5" font-family="Helvetica,sans-Serif" font-size="10.00" fill="#000000">::global_ptr::peek_node</text>
</a>
</g>
</g>
<!-- Node7&#45;&gt;Node8 -->
<g id="edge8" class="edge">
<title>Node7&#45;&gt;Node8</title>
<path fill="none" stroke="#191970" d="M647.8784,-153.0112C666.9686,-158.6189 691.7471,-165.8976 714.3856,-172.5476"/>
<polygon fill="#191970" stroke="#191970" points="713.6888,-175.9908 724.2699,-175.4512 715.6617,-169.2746 713.6888,-175.9908"/>
</g>
<!-- Node9 -->
<g id="node10" class="node">
<title>Node9</title>
<g id="a_node10"><a xlink:href="namespaceargo_a2f35b6b6e0af76fb8fb47f2031d6f58e.html#a2f35b6b6e0af76fb8fb47f2031d6f58e" target="_top" xlink:title="Get the block size of the current allocation policy. ">
<polygon fill="#ffffff" stroke="#000000" points="717.5,-137 717.5,-156 833.5,-156 833.5,-137 717.5,-137"/>
<text text-anchor="middle" x="775.5" y="-144" font-family="Helvetica,sans-Serif" font-size="10.00" fill="#000000">argo::get_block_size</text>
</a>
</g>
</g>
<!-- Node7&#45;&gt;Node9 -->
<g id="edge9" class="edge">
<title>Node7&#45;&gt;Node9</title>
<path fill="none" stroke="#191970" d="M674.1696,-144.6001C684.9585,-144.8023 696.3057,-145.0151 707.3452,-145.2221"/>
<polygon fill="#191970" stroke="#191970" points="707.3083,-148.7219 717.3722,-145.4101 707.4396,-141.7232 707.3083,-148.7219"/>
</g>
<!-- Node15 -->
<g id="node16" class="node">
<title>Node15</title>
<g id="a_node16"><a xlink:href="namespaceargo_a2b6b342c320b2a608d317a328fc46d83.html#a2b6b342c320b2a608d317a328fc46d83" target="_top" xlink:title="Size of memory which is the portion of memory owned by this node. ">
<polygon fill="#ffffff" stroke="#000000" points="726.5,-99 726.5,-118 824.5,-118 824.5,-99 726.5,-99"/>
<text text-anchor="middle" x="775.5" y="-106" font-family="Helvetica,sans-Serif" font-size="10.00" fill="#000000">argo::chunk_size</text>
</a>
</g>
</g>
<!-- Node7&#45;&gt;Node15 -->
<g id="edge16" class="edge">
<title>Node7&#45;&gt;Node15</title>
<path fill="none" stroke="#191970" d="M659.2207,-133.9361C678.6221,-129.692 701.6353,-124.6579 722.0477,-120.1927"/>
<polygon fill="#191970" stroke="#191970" points="722.8111,-123.6085 731.8322,-118.0523 721.3152,-116.7702 722.8111,-123.6085"/>
</g>
<!-- Node10 -->
<g id="node11" class="node">
<title>Node10</title>
<g id="a_node11"><a xlink:href="namespaceargo_1_1data__distribution_a2a70ed49553953957c3a28aa755d7ac8.html#a2a70ed49553953957c3a28aa755d7ac8" target="_top" xlink:title="based on the chosen policy, gets the policy block size ">
<polygon fill="#ffffff" stroke="#000000" points="877,-131.5 877,-161.5 1004,-161.5 1004,-131.5 877,-131.5"/>
<text text-anchor="start" x="885" y="-149.5" font-family="Helvetica,sans-Serif" font-size="10.00" fill="#000000">argo::data_distribution</text>
<text text-anchor="middle" x="940.5" y="-138.5" font-family="Helvetica,sans-Serif" font-size="10.00" fill="#000000">::policy_block_size</text>
</a>
</g>
</g>
<!-- Node9&#45;&gt;Node10 -->
<g id="edge10" class="edge">
<title>Node9&#45;&gt;Node10</title>
<path fill="none" stroke="#191970" d="M833.6728,-146.5C844.3993,-146.5 855.7284,-146.5 866.841,-146.5"/>
<polygon fill="#191970" stroke="#191970" points="866.9621,-150.0001 876.9621,-146.5 866.962,-143.0001 866.9621,-150.0001"/>
</g>
<!-- Node11 -->
<g id="node12" class="node">
<title>Node11</title>
<g id="a_node12"><a xlink:href="namespaceargo_1_1env_a30775a9aa41b956df7474a2c0cc317aa.html#a30775a9aa41b956df7474a2c0cc317aa" target="_top" xlink:title="get the allocation block size requested by environment variable ">
<polygon fill="#ffffff" stroke="#000000" points="1045.5,-180.5 1045.5,-210.5 1161.5,-210.5 1161.5,-180.5 1045.5,-180.5"/>
<text text-anchor="start" x="1053.5" y="-198.5" font-family="Helvetica,sans-Serif" font-size="10.00" fill="#000000">argo::env::allocation</text>
<text text-anchor="middle" x="1103.5" y="-187.5" font-family="Helvetica,sans-Serif" font-size="10.00" fill="#000000">_block_size</text>
</a>
</g>
</g>
<!-- Node10&#45;&gt;Node11 -->
<g id="edge11" class="edge">
<title>Node10&#45;&gt;Node11</title>
<path fill="none" stroke="#191970" d="M990.7354,-161.6014C1007.3909,-166.6083 1026.0997,-172.2324 1043.4194,-177.439"/>
<polygon fill="#191970" stroke="#191970" points="1042.8462,-180.9213 1053.4305,-180.4484 1044.8615,-174.2177 1042.8462,-180.9213"/>
</g>
<!-- Node12 -->
<g id="node13" class="node">
<title>Node12</title>
<g id="a_node13"><a xlink:href="namespaceargo_1_1data__distribution_a1bb3f2dcecd237990e6dc67764f06860.html#a1bb3f2dcecd237990e6dc67764f06860" target="_top" xlink:title="identifies if we distribute data using a cyclic memory policy ">
<polygon fill="#ffffff" stroke="#000000" points="1040,-131.5 1040,-161.5 1167,-161.5 1167,-131.5 1040,-131.5"/>
<text text-anchor="start" x="1048" y="-149.5" font-family="Helvetica,sans-Serif" font-size="10.00" fill="#000000">argo::data_distribution</text>
<text text-anchor="middle" x="1103.5" y="-138.5" font-family="Helvetica,sans-Serif" font-size="10.00" fill="#000000">::is_cyclic_policy</text>
</a>
</g>
</g>
<!-- Node10&#45;&gt;Node12 -->
<g id="edge12" class="edge">
<title>Node10&#45;&gt;Node12</title>
<path fill="none" stroke="#191970" d="M1004.4541,-146.5C1012.7606,-146.5 1021.3224,-146.5 1029.7718,-146.5"/>
<polygon fill="#191970" stroke="#191970" points="1029.9977,-150.0001 1039.9977,-146.5 1029.9977,-143.0001 1029.9977,-150.0001"/>
</g>
<!-- Node14 -->
<g id="node15" class="node">
<title>Node14</title>
<g id="a_node15"><a xlink:href="namespaceargo_1_1data__distribution_a58576657391f45caf61bf0748a23b098.html#a58576657391f45caf61bf0748a23b098" target="_top" xlink:title="identifies if we distribute data using the first&#45;touch memory policy ">
<polygon fill="#ffffff" stroke="#000000" points="1040,-82.5 1040,-112.5 1167,-112.5 1167,-82.5 1040,-82.5"/>
<text text-anchor="start" x="1048" y="-100.5" font-family="Helvetica,sans-Serif" font-size="10.00" fill="#000000">argo::data_distribution</text>
<text text-anchor="middle" x="1103.5" y="-89.5" font-family="Helvetica,sans-Serif" font-size="10.00" fill="#000000">::is_first_touch_policy</text>
</a>
</g>
</g>
<!-- Node10&#45;&gt;Node14 -->
<g id="edge14" class="edge">
<title>Node10&#45;&gt;Node14</title>
<path fill="none" stroke="#191970" d="M990.7354,-131.3986C1007.3909,-126.3917 1026.0997,-120.7676 1043.4194,-115.561"/>
<polygon fill="#191970" stroke="#191970" points="1044.8615,-118.7823 1053.4305,-112.5516 1042.8462,-112.0787 1044.8615,-118.7823"/>
</g>
<!-- Node13 -->
<g id="node14" class="node">
<title>Node13</title>
<g id="a_node14"><a xlink:href="namespaceargo_1_1env_a25a08cb2d0d11432d640ec7173063339.html#a25a08cb2d0d11432d640ec7173063339" target="_top" xlink:title="get the allocation policy requested by environment variable ">
<polygon fill="#ffffff" stroke="#000000" points="1203,-106.5 1203,-136.5 1319,-136.5 1319,-106.5 1203,-106.5"/>
<text text-anchor="start" x="1211" y="-124.5" font-family="Helvetica,sans-Serif" font-size="10.00" fill="#000000">argo::env::allocation</text>
<text text-anchor="middle" x="1261" y="-113.5" font-family="Helvetica,sans-Serif" font-size="10.00" fill="#000000">_policy</text>
</a>
</g>
</g>
<!-- Node12&#45;&gt;Node13 -->
<g id="edge13" class="edge">
<title>Node12&#45;&gt;Node13</title>
<path fill="none" stroke="#191970" d="M1167.1073,-136.4036C1175.5754,-135.0595 1184.2863,-133.6768 1192.8281,-132.3209"/>
<polygon fill="#191970" stroke="#191970" points="1193.4255,-135.77 1202.7531,-130.7455 1192.3281,-128.8566 1193.4255,-135.77"/>
</g>
<!-- Node14&#45;&gt;Node13 -->
<g id="edge15" class="edge">
<title>Node14&#45;&gt;Node13</title>
<path fill="none" stroke="#191970" d="M1167.1073,-107.1925C1175.5754,-108.4829 1184.2863,-109.8103 1192.8281,-111.1119"/>
<polygon fill="#191970" stroke="#191970" points="1192.34,-114.5778 1202.7531,-112.6243 1193.3945,-107.6577 1192.34,-114.5778"/>
</g>
<!-- Node18 -->
<g id="node19" class="node">
<title>Node18</title>
<g id="a_node19"><a xlink:href="swdsm_8cpp_a0edf823a78daed8888e8e18468460617.html#a0edf823a78daed8888e8e18468460617" target="_top" xlink:title="Gives homenode for a given address. ">
<polygon fill="#ffffff" stroke="#000000" points="571,-55 571,-74 660,-74 660,-55 571,-55"/>
<text text-anchor="middle" x="615.5" y="-62" font-family="Helvetica,sans-Serif" font-size="10.00" fill="#000000">get_homenode</text>
</a>
</g>
</g>
<!-- Node17&#45;&gt;Node18 -->
<g id="edge19" class="edge">
<title>Node17&#45;&gt;Node18</title>
<path fill="none" stroke="#191970" d="M498.7983,-64.5C517.8788,-64.5 540.5155,-64.5 560.7506,-64.5"/>
<polygon fill="#191970" stroke="#191970" points="560.7724,-68.0001 570.7724,-64.5 560.7723,-61.0001 560.7724,-68.0001"/>
</g>
<!-- Node20 -->
<g id="node21" class="node">
<title>Node20</title>
<g id="a_node21"><a xlink:href="swdsm_8cpp_ab58b1f9fa1b59d3060f241994979e18f.html#ab58b1f9fa1b59d3060f241994979e18f" target="_top" xlink:title="Gets the offset of an address on the local nodes part of the global memory. ">
<polygon fill="#ffffff" stroke="#000000" points="583,-12 583,-31 648,-31 648,-12 583,-12"/>
<text text-anchor="middle" x="615.5" y="-19" font-family="Helvetica,sans-Serif" font-size="10.00" fill="#000000">get_offset</text>
</a>
</g>
</g>
<!-- Node17&#45;&gt;Node20 -->
<g id="edge21" class="edge">
<title>Node17&#45;&gt;Node20</title>
<path fill="none" stroke="#191970" d="M491.0092,-54.9569C515.2295,-48.4477 547.4273,-39.7945 573.0101,-32.9192"/>
<polygon fill="#191970" stroke="#191970" points="574.0652,-36.2599 582.8141,-30.2843 572.2483,-29.4998 574.0652,-36.2599"/>
</g>
<!-- Node19 -->
<g id="node20" class="node">
<title>Node19</title>
<g id="a_node20"><a xlink:href="classargo_1_1data__distribution_1_1global__ptr_ac7d651586337d08cda18ef26ffcd34a0.html#ac7d651586337d08cda18ef26ffcd34a0" target="_top" xlink:title="return the home node of the value pointed to ">
<polygon fill="#ffffff" stroke="#000000" points="712,-49.5 712,-79.5 839,-79.5 839,-49.5 712,-49.5"/>
<text text-anchor="start" x="720" y="-67.5" font-family="Helvetica,sans-Serif" font-size="10.00" fill="#000000">argo::data_distribution</text>
<text text-anchor="middle" x="775.5" y="-56.5" font-family="Helvetica,sans-Serif" font-size="10.00" fill="#000000">::global_ptr::node</text>
</a>
</g>
</g>
<!-- Node18&#45;&gt;Node19 -->
<g id="edge20" class="edge">
<title>Node18&#45;&gt;Node19</title>
<path fill="none" stroke="#191970" d="M660.0689,-64.5C672.9412,-64.5 687.3472,-64.5 701.5013,-64.5"/>
<polygon fill="#191970" stroke="#191970" points="701.7376,-68.0001 711.7375,-64.5 701.7375,-61.0001 701.7376,-68.0001"/>
</g>
<!-- Node21 -->
<g id="node22" class="node">
<title>Node21</title>
<g id="a_node22"><a xlink:href="classargo_1_1data__distribution_1_1global__ptr_ad8c21c408fa2b926cfd9acfd87e8e4e6.html#ad8c21c408fa2b926cfd9acfd87e8e4e6" target="_top" xlink:title="return the offset on the home node&#39;s local memory share ">
<polygon fill="#ffffff" stroke="#000000" points="712,-.5 712,-30.5 839,-30.5 839,-.5 712,-.5"/>
<text text-anchor="start" x="720" y="-18.5" font-family="Helvetica,sans-Serif" font-size="10.00" fill="#000000">argo::data_distribution</text>
<text text-anchor="middle" x="775.5" y="-7.5" font-family="Helvetica,sans-Serif" font-size="10.00" fill="#000000">::global_ptr::offset</text>
</a>
</g>
</g>
<!-- Node20&#45;&gt;Node21 -->
<g id="edge22" class="edge">
<title>Node20&#45;&gt;Node21</title>
<path fill="none" stroke="#191970" d="M648.2645,-20.2713C663.764,-19.6901 682.9491,-18.9707 701.6797,-18.2683"/>
<polygon fill="#191970" stroke="#191970" points="701.8488,-21.7645 711.7106,-17.8921 701.5864,-14.7694 701.8488,-21.7645"/>
</g>
</g>
</svg>
