<?xml version="1.0" encoding="UTF-8" standalone="no"?>
<!DOCTYPE svg PUBLIC "-//W3C//DTD SVG 1.1//EN"
 "http://www.w3.org/Graphics/SVG/1.1/DTD/svg11.dtd">
<!-- Generated by graphviz version 2.40.1 (20161225.0304)
 -->
<!-- Title: storepageDIFF Pages: 1 -->
<svg width="1013pt" height="423pt"
 viewBox="0.00 0.00 1013.00 422.50" xmlns="http://www.w3.org/2000/svg" xmlns:xlink="http://www.w3.org/1999/xlink">
<g id="graph0" class="graph" transform="scale(1 1) rotate(0) translate(4 418.5)">
<title>storepageDIFF</title>
<polygon fill="#ffffff" stroke="transparent" points="-4,4 -4,-418.5 1009,-418.5 1009,4 -4,4"/>
<!-- Node5 -->
<g id="node1" class="node">
<title>Node5</title>
<polygon fill="#bfbfbf" stroke="#000000" points="0,-194.5 0,-213.5 86,-213.5 86,-194.5 0,-194.5"/>
<text text-anchor="middle" x="43" y="-201.5" font-family="Helvetica,sans-Serif" font-size="10.00" fill="#000000">storepageDIFF</text>
</g>
<!-- Node6 -->
<g id="node2" class="node">
<title>Node6</title>
<g id="a_node2"><a xlink:href="backend_8hpp_a0fb29a8253f0d9aefc999d93414b1758.html#a0fb29a8253f0d9aefc999d93414b1758" target="_top" xlink:title="backend internal type erased function for selective acquire ">
<polygon fill="#ffffff" stroke="#000000" points="262,-366 262,-396 403,-396 403,-366 262,-366"/>
<text text-anchor="start" x="270" y="-384" font-family="Helvetica,sans-Serif" font-size="10.00" fill="#000000">argo::backend::_selective</text>
<text text-anchor="middle" x="332.5" y="-373" font-family="Helvetica,sans-Serif" font-size="10.00" fill="#000000">_acquire</text>
</a>
</g>
</g>
<!-- Node5&#45;&gt;Node6 -->
<g id="edge1" class="edge">
<title>Node5&#45;&gt;Node6</title>
<path fill="none" stroke="#191970" d="M63.5793,-219.72C79.2934,-231.5078 101.639,-247.8118 122,-261 182.3353,-300.0802 199.4346,-306.5997 262,-342 276.1218,-349.9903 291.9209,-358.7469 304.9778,-365.9349"/>
<polygon fill="#191970" stroke="#191970" points="65.6758,-216.9172 55.5863,-213.6842 61.4575,-222.5035 65.6758,-216.9172"/>
</g>
<!-- Node8 -->
<g id="node4" class="node">
<title>Node8</title>
<g id="a_node4"><a xlink:href="backend_8hpp_ac3350bde3c8baf64753e515336fad3be.html#ac3350bde3c8baf64753e515336fad3be" target="_top" xlink:title="backend internal type erased function for selective release ">
<polygon fill="#ffffff" stroke="#000000" points="262,-284 262,-314 403,-314 403,-284 262,-284"/>
<text text-anchor="start" x="270" y="-302" font-family="Helvetica,sans-Serif" font-size="10.00" fill="#000000">argo::backend::_selective</text>
<text text-anchor="middle" x="332.5" y="-291" font-family="Helvetica,sans-Serif" font-size="10.00" fill="#000000">_release</text>
</a>
</g>
</g>
<!-- Node5&#45;&gt;Node8 -->
<g id="edge4" class="edge">
<title>Node5&#45;&gt;Node8</title>
<path fill="none" stroke="#191970" d="M81.8057,-216.7342C134.9095,-234.1603 230.0657,-265.386 286.6307,-283.9479"/>
<polygon fill="#191970" stroke="#191970" points="82.6767,-213.3364 72.0839,-213.5439 80.4941,-219.9875 82.6767,-213.3364"/>
</g>
<!-- Node9 -->
<g id="node5" class="node">
<title>Node9</title>
<g id="a_node5"><a xlink:href="swdsm_8cpp_a97adb774a1a5a7a3505416a171c570e9.html#a97adb774a1a5a7a3505416a171c570e9" target="_top" xlink:title="load into cache helper function ">
<polygon fill="#ffffff" stroke="#000000" points="123,-87.5 123,-106.5 225,-106.5 225,-87.5 123,-87.5"/>
<text text-anchor="middle" x="174" y="-94.5" font-family="Helvetica,sans-Serif" font-size="10.00" fill="#000000">load_cache_entry</text>
</a>
</g>
</g>
<!-- Node5&#45;&gt;Node9 -->
<g id="edge7" class="edge">
<title>Node5&#45;&gt;Node9</title>
<path fill="none" stroke="#191970" d="M59.4391,-186.8587C74.8742,-171.1989 98.9751,-147.8368 122,-130 133.1575,-121.3566 146.634,-112.853 157.0716,-106.6431"/>
<polygon fill="#191970" stroke="#191970" points="56.6831,-184.6717 52.2091,-194.2755 61.6956,-189.5579 56.6831,-184.6717"/>
</g>
<!-- Node13 -->
<g id="node9" class="node">
<title>Node13</title>
<g id="a_node9"><a xlink:href="classwrite__buffer_aa6a1c2c3aa3a7cde744bbca3b14f599a.html#aa6a1c2c3aa3a7cde744bbca3b14f599a" target="_top" xlink:title="Flushes first _write_back_size elements of the ArgoDSM write buffer to memory. ">
<polygon fill="#ffffff" stroke="#000000" points="122,-139 122,-169 226,-169 226,-139 122,-139"/>
<text text-anchor="start" x="130" y="-157" font-family="Helvetica,sans-Serif" font-size="10.00" fill="#000000">write_buffer::flush</text>
<text text-anchor="middle" x="174" y="-146" font-family="Helvetica,sans-Serif" font-size="10.00" fill="#000000">_partial</text>
</a>
</g>
</g>
<!-- Node5&#45;&gt;Node13 -->
<g id="edge11" class="edge">
<title>Node5&#45;&gt;Node13</title>
<path fill="none" stroke="#191970" d="M77.7324,-190.7434C95.1779,-184.0848 116.3914,-175.988 134.4604,-169.0915"/>
<polygon fill="#191970" stroke="#191970" points="76.043,-187.6418 67.9484,-194.4777 78.5391,-194.1817 76.043,-187.6418"/>
</g>
<!-- Node15 -->
<g id="node11" class="node">
<title>Node15</title>
<g id="a_node11"><a xlink:href="classwrite__buffer_aca2e330e17a38c1cc8d8c60701ce9dd7.html#aca2e330e17a38c1cc8d8c60701ce9dd7" target="_top" xlink:title="Flushes the ArgoDSM write buffer to memory. ">
<polygon fill="#ffffff" stroke="#000000" points="122,-194.5 122,-213.5 226,-213.5 226,-194.5 122,-194.5"/>
<text text-anchor="middle" x="174" y="-201.5" font-family="Helvetica,sans-Serif" font-size="10.00" fill="#000000">write_buffer::flush</text>
</a>
</g>
</g>
<!-- Node5&#45;&gt;Node15 -->
<g id="edge14" class="edge">
<title>Node5&#45;&gt;Node15</title>
<path fill="none" stroke="#191970" d="M96.2948,-204C104.6674,-204 113.3158,-204 121.6665,-204"/>
<polygon fill="#191970" stroke="#191970" points="96.2574,-200.5001 86.2574,-204 96.2573,-207.5001 96.2574,-200.5001"/>
</g>
<!-- Node6&#45;&gt;Node6 -->
<g id="edge2" class="edge">
<title>Node6&#45;&gt;Node6</title>
<path fill="none" stroke="#191970" d="M304.4253,-406.4579C307.9098,-411.179 317.268,-414.5 332.5,-414.5 357.4961,-414.5 366.6743,-405.5566 360.0348,-396.159"/>
<polygon fill="#191970" stroke="#191970" points="307.9368,-406.3286 304.9652,-396.159 300.9464,-405.962 307.9368,-406.3286"/>
</g>
<!-- Node7 -->
<g id="node3" class="node">
<title>Node7</title>
<g id="a_node3"><a xlink:href="singlenode_8cpp_aab3cabb3e1c0b9696b339416b684f78c.html#aab3cabb3e1c0b9696b339416b684f78c" target="_top" xlink:title="argo::backend::init">
<polygon fill="#ffffff" stroke="#000000" points="755,-312.5 755,-331.5 862,-331.5 862,-312.5 755,-312.5"/>
<text text-anchor="middle" x="808.5" y="-319.5" font-family="Helvetica,sans-Serif" font-size="10.00" fill="#000000">argo::backend::init</text>
</a>
</g>
</g>
<!-- Node6&#45;&gt;Node7 -->
<g id="edge3" class="edge">
<title>Node6&#45;&gt;Node7</title>
<path fill="none" stroke="#191970" d="M413.4697,-377.7153C492.0434,-373.5776 614.4127,-364.6161 719,-346 738.9562,-342.4479 760.9492,-336.5784 778.1397,-331.5332"/>
<polygon fill="#191970" stroke="#191970" points="412.9644,-374.2365 403.1567,-378.2438 413.3228,-381.2273 412.9644,-374.2365"/>
</g>
<!-- Node8&#45;&gt;Node7 -->
<g id="edge6" class="edge">
<title>Node8&#45;&gt;Node7</title>
<path fill="none" stroke="#191970" d="M413.0021,-311.5562C463.891,-318.8498 531.1252,-327.3081 591,-331 647.7811,-334.5011 662.1825,-333.8496 719,-331 730.5417,-330.4211 742.8893,-329.4249 754.6124,-328.301"/>
<polygon fill="#191970" stroke="#191970" points="413.4477,-308.0843 403.0493,-310.1148 412.4443,-315.012 413.4477,-308.0843"/>
</g>
<!-- Node8&#45;&gt;Node8 -->
<g id="edge5" class="edge">
<title>Node8&#45;&gt;Node8</title>
<path fill="none" stroke="#191970" d="M304.4253,-324.4579C307.9098,-329.179 317.268,-332.5 332.5,-332.5 357.4961,-332.5 366.6743,-323.5566 360.0348,-314.159"/>
<polygon fill="#191970" stroke="#191970" points="307.9368,-324.3286 304.9652,-314.159 300.9464,-323.962 307.9368,-324.3286"/>
</g>
<!-- Node10 -->
<g id="node6" class="node">
<title>Node10</title>
<g id="a_node6"><a xlink:href="swdsm_8h_a8b00f264b792522b179fbc9c818187bd.html#a8b00f264b792522b179fbc9c818187bd" target="_top" xlink:title="Catches memory accesses to memory not yet cached in ArgoDSM. Launches remote requests for memory not ...">
<polygon fill="#ffffff" stroke="#000000" points="470.5,-80.5 470.5,-99.5 523.5,-99.5 523.5,-80.5 470.5,-80.5"/>
<text text-anchor="middle" x="497" y="-87.5" font-family="Helvetica,sans-Serif" font-size="10.00" fill="#000000">handler</text>
</a>
</g>
</g>
<!-- Node9&#45;&gt;Node10 -->
<g id="edge8" class="edge">
<title>Node9&#45;&gt;Node10</title>
<path fill="none" stroke="#191970" d="M235.2935,-95.6717C306.0067,-94.1392 419.0963,-91.6883 470.2852,-90.579"/>
<polygon fill="#191970" stroke="#191970" points="235.1021,-92.1749 225.1803,-95.8908 235.2538,-99.1732 235.1021,-92.1749"/>
</g>
<!-- Node11 -->
<g id="node7" class="node">
<title>Node11</title>
<g id="a_node7"><a xlink:href="swdsm_8h_a10dca85d339ce630cf42dca685b3f6d9.html#a10dca85d339ce630cf42dca685b3f6d9" target="_top" xlink:title="Initializes ArgoDSM runtime. ">
<polygon fill="#ffffff" stroke="#000000" points="765.5,-.5 765.5,-19.5 851.5,-19.5 851.5,-.5 765.5,-.5"/>
<text text-anchor="middle" x="808.5" y="-7.5" font-family="Helvetica,sans-Serif" font-size="10.00" fill="#000000">argo_initialize</text>
</a>
</g>
</g>
<!-- Node10&#45;&gt;Node11 -->
<g id="edge9" class="edge">
<title>Node10&#45;&gt;Node11</title>
<path fill="none" stroke="#191970" d="M515.8443,-73.7416C533.8403,-59.2468 562.3855,-38.8454 591,-29 648.8848,-9.0836 720.2967,-6.7344 765.1311,-7.714"/>
<polygon fill="#191970" stroke="#191970" points="513.3776,-71.2398 507.9032,-80.3107 517.8394,-76.6335 513.3776,-71.2398"/>
</g>
<!-- Node12 -->
<g id="node8" class="node">
<title>Node12</title>
<g id="a_node8"><a xlink:href="backend_8hpp_af0d80a03a17a374c10d9635ddf81e261.html#af0d80a03a17a374c10d9635ddf81e261" target="_top" xlink:title="initialize backend ">
<polygon fill="#ffffff" stroke="#000000" points="898,-.5 898,-19.5 1005,-19.5 1005,-.5 898,-.5"/>
<text text-anchor="middle" x="951.5" y="-7.5" font-family="Helvetica,sans-Serif" font-size="10.00" fill="#000000">argo::backend::init</text>
</a>
</g>
</g>
<!-- Node11&#45;&gt;Node12 -->
<g id="edge10" class="edge">
<title>Node11&#45;&gt;Node12</title>
<path fill="none" stroke="#191970" d="M861.933,-10C873.7171,-10 886.2019,-10 897.9891,-10"/>
<polygon fill="#191970" stroke="#191970" points="861.7928,-6.5001 851.7928,-10 861.7927,-13.5001 861.7928,-6.5001"/>
</g>
<!-- Node14 -->
<g id="node10" class="node">
<title>Node14</title>
<g id="a_node10"><a xlink:href="classwrite__buffer_a23b0dbc463111cacbbf83b267e76ac9f.html#a23b0dbc463111cacbbf83b267e76ac9f" target="_top" xlink:title="Adds a new element to the write buffer. ">
<polygon fill="#ffffff" stroke="#000000" points="283,-118.5 283,-137.5 382,-137.5 382,-118.5 283,-118.5"/>
<text text-anchor="middle" x="332.5" y="-125.5" font-family="Helvetica,sans-Serif" font-size="10.00" fill="#000000">write_buffer::add</text>
</a>
</g>
</g>
<!-- Node13&#45;&gt;Node14 -->
<g id="edge12" class="edge">
<title>Node13&#45;&gt;Node14</title>
<path fill="none" stroke="#191970" d="M236.339,-143.774C251.7951,-141.2387 268.1512,-138.5556 282.9049,-136.1355"/>
<polygon fill="#191970" stroke="#191970" points="235.6396,-140.3419 226.3381,-145.4146 236.7728,-147.2496 235.6396,-140.3419"/>
</g>
<!-- Node14&#45;&gt;Node10 -->
<g id="edge13" class="edge">
<title>Node14&#45;&gt;Node10</title>
<path fill="none" stroke="#191970" d="M383.8875,-116.1293C412.5824,-109.5007 447.139,-101.518 470.4446,-96.1344"/>
<polygon fill="#191970" stroke="#191970" points="382.9659,-112.75 374.0103,-118.411 384.5415,-119.5704 382.9659,-112.75"/>
</g>
<!-- Node16 -->
<g id="node12" class="node">
<title>Node16</title>
<g id="a_node12"><a xlink:href="swdsm_8h_aa7c3a2de6bbafdaf68fe6ceb6110ab97.html#aa7c3a2de6bbafdaf68fe6ceb6110ab97" target="_top" xlink:title="Self&#45;Invalidates all memory that has potential writers. ">
<polygon fill="#ffffff" stroke="#000000" points="283.5,-194.5 283.5,-213.5 381.5,-213.5 381.5,-194.5 283.5,-194.5"/>
<text text-anchor="middle" x="332.5" y="-201.5" font-family="Helvetica,sans-Serif" font-size="10.00" fill="#000000">self_invalidation</text>
</a>
</g>
</g>
<!-- Node15&#45;&gt;Node16 -->
<g id="edge15" class="edge">
<title>Node15&#45;&gt;Node16</title>
<path fill="none" stroke="#191970" d="M236.4396,-204C252.0526,-204 268.578,-204 283.4385,-204"/>
<polygon fill="#191970" stroke="#191970" points="236.3381,-200.5001 226.3381,-204 236.3381,-207.5001 236.3381,-200.5001"/>
</g>
<!-- Node17 -->
<g id="node13" class="node">
<title>Node17</title>
<g id="a_node13"><a xlink:href="swdsm_8h_ad3f5bdae81c60ac704dda7372792427d.html#ad3f5bdae81c60ac704dda7372792427d" target="_top" xlink:title="Global barrier for ArgoDSM &#45; needs to be called by every thread in the system that need coherent view...">
<polygon fill="#ffffff" stroke="#000000" points="439,-133.5 439,-152.5 555,-152.5 555,-133.5 439,-133.5"/>
<text text-anchor="middle" x="497" y="-140.5" font-family="Helvetica,sans-Serif" font-size="10.00" fill="#000000">swdsm_argo_barrier</text>
</a>
</g>
</g>
<!-- Node15&#45;&gt;Node17 -->
<g id="edge28" class="edge">
<title>Node15&#45;&gt;Node17</title>
<path fill="none" stroke="#191970" d="M226.869,-192.2639C238.4303,-189.7873 250.6142,-187.2458 262,-185 322.7891,-173.0093 392.7223,-160.6998 440.3882,-152.5331"/>
<polygon fill="#191970" stroke="#191970" points="225.9415,-188.8834 216.9051,-194.4145 227.4185,-195.7258 225.9415,-188.8834"/>
</g>
<!-- Node26 -->
<g id="node22" class="node">
<title>Node26</title>
<g id="a_node22"><a xlink:href="swdsm_8h_ad390eb58e1be03ed6a0939fae7ebd20a.html#ad390eb58e1be03ed6a0939fae7ebd20a" target="_top" xlink:title="Release function for ArgoDSM (Release according to Release Consistency) ">
<polygon fill="#ffffff" stroke="#000000" points="457,-246.5 457,-265.5 537,-265.5 537,-246.5 457,-246.5"/>
<text text-anchor="middle" x="497" y="-253.5" font-family="Helvetica,sans-Serif" font-size="10.00" fill="#000000">argo_release</text>
</a>
</g>
</g>
<!-- Node15&#45;&gt;Node26 -->
<g id="edge29" class="edge">
<title>Node15&#45;&gt;Node26</title>
<path fill="none" stroke="#191970" d="M225.0033,-215.6735C237.098,-218.2581 249.978,-220.861 262,-223 330.144,-235.1243 410.055,-245.5474 456.9417,-251.2806"/>
<polygon fill="#191970" stroke="#191970" points="225.5793,-212.2171 215.0646,-213.5174 224.0952,-219.058 225.5793,-212.2171"/>
</g>
<!-- Node16&#45;&gt;Node17 -->
<g id="edge16" class="edge">
<title>Node16&#45;&gt;Node17</title>
<path fill="none" stroke="#191970" d="M371.0796,-191.2307C381.4769,-187.6902 392.6974,-183.7789 403,-180 427.2043,-171.1221 454.6058,-160.24 473.5519,-152.5827"/>
<polygon fill="#191970" stroke="#191970" points="369.7732,-187.9776 361.4201,-194.4951 372.0143,-194.6092 369.7732,-187.9776"/>
</g>
<!-- Node23 -->
<g id="node19" class="node">
<title>Node23</title>
<g id="a_node19"><a xlink:href="swdsm_8h_a44b8bb7a3c8b47b4f9552c8e10b25e4b.html#a44b8bb7a3c8b47b4f9552c8e10b25e4b" target="_top" xlink:title="acquire function for ArgoDSM (Acquire according to Release Consistency) ">
<polygon fill="#ffffff" stroke="#000000" points="457,-194.5 457,-213.5 537,-213.5 537,-194.5 457,-194.5"/>
<text text-anchor="middle" x="497" y="-201.5" font-family="Helvetica,sans-Serif" font-size="10.00" fill="#000000">argo_acquire</text>
</a>
</g>
</g>
<!-- Node16&#45;&gt;Node23 -->
<g id="edge23" class="edge">
<title>Node16&#45;&gt;Node23</title>
<path fill="none" stroke="#191970" d="M391.8994,-204C413.455,-204 437.2849,-204 456.7966,-204"/>
<polygon fill="#191970" stroke="#191970" points="391.8555,-200.5001 381.8554,-204 391.8554,-207.5001 391.8555,-200.5001"/>
</g>
<!-- Node18 -->
<g id="node14" class="node">
<title>Node18</title>
<g id="a_node14"><a xlink:href="backend_8hpp_af1a647431651556204709451bebb5a42.html#af1a647431651556204709451bebb5a42" target="_top" xlink:title="a simple collective barrier ">
<polygon fill="#ffffff" stroke="#000000" points="593,-114.5 593,-133.5 717,-133.5 717,-114.5 593,-114.5"/>
<text text-anchor="middle" x="655" y="-121.5" font-family="Helvetica,sans-Serif" font-size="10.00" fill="#000000">argo::backend::barrier</text>
</a>
</g>
</g>
<!-- Node17&#45;&gt;Node18 -->
<g id="edge17" class="edge">
<title>Node17&#45;&gt;Node18</title>
<path fill="none" stroke="#191970" d="M565.5403,-134.7578C574.6296,-133.6648 583.9068,-132.5492 592.8793,-131.4702"/>
<polygon fill="#191970" stroke="#191970" points="564.895,-131.3101 555.3845,-135.9791 565.7308,-138.26 564.895,-131.3101"/>
</g>
<!-- Node19 -->
<g id="node15" class="node">
<title>Node19</title>
<g id="a_node15"><a xlink:href="swdsm_8h_acd175d6d8efa5cce6963bae64891a490.html#acd175d6d8efa5cce6963bae64891a490" target="_top" xlink:title="Allocates memory in global address space. ">
<polygon fill="#ffffff" stroke="#000000" points="613.5,-76.5 613.5,-95.5 696.5,-95.5 696.5,-76.5 613.5,-76.5"/>
<text text-anchor="middle" x="655" y="-83.5" font-family="Helvetica,sans-Serif" font-size="10.00" fill="#000000">argo_gmalloc</text>
</a>
</g>
</g>
<!-- Node17&#45;&gt;Node19 -->
<g id="edge18" class="edge">
<title>Node17&#45;&gt;Node19</title>
<path fill="none" stroke="#191970" d="M528.0503,-129.577C546.233,-121.9363 569.7322,-112.4367 591,-105 600.5185,-101.6717 610.959,-98.4112 620.5955,-95.5568"/>
<polygon fill="#191970" stroke="#191970" points="526.6481,-126.3698 518.8058,-133.4937 529.3789,-132.8152 526.6481,-126.3698"/>
</g>
<!-- Node20 -->
<g id="node16" class="node">
<title>Node20</title>
<g id="a_node16"><a xlink:href="swdsm_8cpp_aa954d5e0bcaee69ff6e03e697bcaf68b.html#aa954d5e0bcaee69ff6e03e697bcaf68b" target="_top" xlink:title="shut down ArgoDSM system ">
<polygon fill="#ffffff" stroke="#000000" points="615.5,-38.5 615.5,-57.5 694.5,-57.5 694.5,-38.5 615.5,-38.5"/>
<text text-anchor="middle" x="655" y="-45.5" font-family="Helvetica,sans-Serif" font-size="10.00" fill="#000000">argo_finalize</text>
</a>
</g>
</g>
<!-- Node17&#45;&gt;Node20 -->
<g id="edge19" class="edge">
<title>Node17&#45;&gt;Node20</title>
<path fill="none" stroke="#191970" d="M525.8261,-128.6021C535.5555,-123.1079 546.1771,-116.3742 555,-109 573.8642,-93.2333 570.3731,-80.3782 591,-67 598.2931,-62.2698 606.8061,-58.6804 615.1982,-55.9694"/>
<polygon fill="#191970" stroke="#191970" points="523.9776,-125.623 516.8592,-133.4703 527.3175,-131.7749 523.9776,-125.623"/>
</g>
<!-- Node22 -->
<g id="node18" class="node">
<title>Node22</title>
<g id="a_node18"><a xlink:href="swdsm_8h_a0c6b51af2b87ddf7eb04aa7d4e0e836e.html#a0c6b51af2b87ddf7eb04aa7d4e0e836e" target="_top" xlink:title="Resets current coherence. Collective function called by all threads on all nodes. ...">
<polygon fill="#ffffff" stroke="#000000" points="593,-152.5 593,-171.5 717,-171.5 717,-152.5 593,-152.5"/>
<text text-anchor="middle" x="655" y="-159.5" font-family="Helvetica,sans-Serif" font-size="10.00" fill="#000000">argo_reset_coherence</text>
</a>
</g>
</g>
<!-- Node17&#45;&gt;Node22 -->
<g id="edge21" class="edge">
<title>Node17&#45;&gt;Node22</title>
<path fill="none" stroke="#191970" d="M565.5403,-151.2422C574.6296,-152.3352 583.9068,-153.4508 592.8793,-154.5298"/>
<polygon fill="#191970" stroke="#191970" points="565.7308,-147.74 555.3845,-150.0209 564.895,-154.6899 565.7308,-147.74"/>
</g>
<!-- Node21 -->
<g id="node17" class="node">
<title>Node21</title>
<g id="a_node17"><a xlink:href="swdsm_8h_a18cc89a7368e30281ea4b1d214a1b1ff.html#a18cc89a7368e30281ea4b1d214a1b1ff" target="_top" xlink:title="Pins and registers the local thread. ">
<polygon fill="#ffffff" stroke="#000000" points="758,-38.5 758,-57.5 859,-57.5 859,-38.5 758,-38.5"/>
<text text-anchor="middle" x="808.5" y="-45.5" font-family="Helvetica,sans-Serif" font-size="10.00" fill="#000000">argo_pin_threads</text>
</a>
</g>
</g>
<!-- Node20&#45;&gt;Node21 -->
<g id="edge20" class="edge">
<title>Node20&#45;&gt;Node21</title>
<path fill="none" stroke="#191970" d="M704.8002,-48C721.7693,-48 740.7517,-48 757.7913,-48"/>
<polygon fill="#191970" stroke="#191970" points="704.5301,-44.5001 694.5301,-48 704.53,-51.5001 704.5301,-44.5001"/>
</g>
<!-- Node22&#45;&gt;Node11 -->
<g id="edge22" class="edge">
<title>Node22&#45;&gt;Node11</title>
<path fill="none" stroke="#191970" d="M714.2372,-147.0606C715.917,-145.8131 717.5121,-144.4624 719,-143 756.8941,-105.7556 718.0996,-67.2292 755,-29 758.7649,-25.0995 763.3815,-21.998 768.3101,-19.5322"/>
<polygon fill="#191970" stroke="#191970" points="711.9997,-144.3221 705.2357,-152.4768 715.6087,-150.32 711.9997,-144.3221"/>
</g>
<!-- Node24 -->
<g id="node20" class="node">
<title>Node24</title>
<g id="a_node20"><a xlink:href="backend_8hpp_a1032f833666c3f810ac1c6210197d426.html#a1032f833666c3f810ac1c6210197d426" target="_top" xlink:title="causes a node to self&#45;invalidate its cache, and thus getting any updated values on subsequent accesse...">
<polygon fill="#ffffff" stroke="#000000" points="591,-190.5 591,-209.5 719,-209.5 719,-190.5 591,-190.5"/>
<text text-anchor="middle" x="655" y="-197.5" font-family="Helvetica,sans-Serif" font-size="10.00" fill="#000000">argo::backend::acquire</text>
</a>
</g>
</g>
<!-- Node23&#45;&gt;Node24 -->
<g id="edge24" class="edge">
<title>Node23&#45;&gt;Node24</title>
<path fill="none" stroke="#191970" d="M547.5231,-202.7209C561.3033,-202.3721 576.4182,-201.9894 590.8475,-201.6241"/>
<polygon fill="#191970" stroke="#191970" points="547.1871,-199.2282 537.2789,-202.9803 547.3643,-206.226 547.1871,-199.2282"/>
</g>
<!-- Node25 -->
<g id="node21" class="node">
<title>Node25</title>
<g id="a_node21"><a xlink:href="swdsm_8h_ac0b665f72bc2a28dc663ed204c526e1b.html#ac0b665f72bc2a28dc663ed204c526e1b" target="_top" xlink:title="acquire&#45;release function for ArgoDSM (Both acquire and release according to Release Consistency) ...">
<polygon fill="#ffffff" stroke="#000000" points="615.5,-246.5 615.5,-265.5 694.5,-265.5 694.5,-246.5 615.5,-246.5"/>
<text text-anchor="middle" x="655" y="-253.5" font-family="Helvetica,sans-Serif" font-size="10.00" fill="#000000">argo_acq_rel</text>
</a>
</g>
</g>
<!-- Node23&#45;&gt;Node25 -->
<g id="edge27" class="edge">
<title>Node23&#45;&gt;Node25</title>
<path fill="none" stroke="#191970" d="M533.0021,-217.104C550.4473,-223.3344 571.7425,-230.7653 591,-237 600.9242,-240.213 611.7806,-243.5152 621.6872,-246.4467"/>
<polygon fill="#191970" stroke="#191970" points="533.8145,-213.677 523.22,-213.5924 531.4494,-220.2653 533.8145,-213.677"/>
</g>
<!-- Node24&#45;&gt;Node7 -->
<g id="edge26" class="edge">
<title>Node24&#45;&gt;Node7</title>
<path fill="none" stroke="#191970" d="M683.0237,-214.323C694.5559,-220.6893 707.8063,-228.6327 719,-237 751.268,-261.1202 784.4103,-295.6549 799.7404,-312.2997"/>
<polygon fill="#191970" stroke="#191970" points="684.6793,-211.2393 674.2155,-209.5775 681.3591,-217.4019 684.6793,-211.2393"/>
</g>
<!-- Node24&#45;&gt;Node24 -->
<g id="edge25" class="edge">
<title>Node24&#45;&gt;Node24</title>
<path fill="none" stroke="#191970" d="M626.6275,-218.6539C627.8135,-223.9368 637.271,-228 655,-228 682.0156,-228 689.8248,-218.5653 678.4276,-209.7571"/>
<polygon fill="#191970" stroke="#191970" points="629.7735,-220.1981 631.5724,-209.7571 623.6551,-216.7974 629.7735,-220.1981"/>
</g>
<!-- Node26&#45;&gt;Node25 -->
<g id="edge33" class="edge">
<title>Node26&#45;&gt;Node25</title>
<path fill="none" stroke="#191970" d="M547.4252,-256C569.3886,-256 594.7577,-256 615.3418,-256"/>
<polygon fill="#191970" stroke="#191970" points="547.2789,-252.5001 537.2789,-256 547.2788,-259.5001 547.2789,-252.5001"/>
</g>
<!-- Node27 -->
<g id="node23" class="node">
<title>Node27</title>
<g id="a_node23"><a xlink:href="backend_8hpp_a8953c9cd9d3c56306740b6c9b97513a2.html#a8953c9cd9d3c56306740b6c9b97513a2" target="_top" xlink:title="causes a node to self&#45;downgrade its cache, making all previous writes to be propagated to the homenod...">
<polygon fill="#ffffff" stroke="#000000" points="591,-284.5 591,-303.5 719,-303.5 719,-284.5 591,-284.5"/>
<text text-anchor="middle" x="655" y="-291.5" font-family="Helvetica,sans-Serif" font-size="10.00" fill="#000000">argo::backend::release</text>
</a>
</g>
</g>
<!-- Node26&#45;&gt;Node27 -->
<g id="edge30" class="edge">
<title>Node26&#45;&gt;Node27</title>
<path fill="none" stroke="#191970" d="M546.7616,-267.968C568.9029,-273.2931 594.6116,-279.4762 615.4166,-284.4799"/>
<polygon fill="#191970" stroke="#191970" points="547.4113,-264.5245 536.8701,-265.589 545.7744,-271.3304 547.4113,-264.5245"/>
</g>
<!-- Node27&#45;&gt;Node7 -->
<g id="edge32" class="edge">
<title>Node27&#45;&gt;Node7</title>
<path fill="none" stroke="#191970" d="M717.5757,-305.4145C730.4516,-307.7632 743.879,-310.2125 756.3395,-312.4854"/>
<polygon fill="#191970" stroke="#191970" points="717.8624,-301.9091 707.3967,-303.5577 716.6062,-308.7955 717.8624,-301.9091"/>
</g>
<!-- Node27&#45;&gt;Node27 -->
<g id="edge31" class="edge">
<title>Node27&#45;&gt;Node27</title>
<path fill="none" stroke="#191970" d="M626.6275,-312.6539C627.8135,-317.9368 637.271,-322 655,-322 682.0156,-322 689.8248,-312.5653 678.4276,-303.7571"/>
<polygon fill="#191970" stroke="#191970" points="629.7735,-314.1981 631.5724,-303.7571 623.6551,-310.7974 629.7735,-314.1981"/>
</g>
</g>
</svg>
