<?xml version="1.0" encoding="UTF-8" standalone="no"?>
<!DOCTYPE svg PUBLIC "-//W3C//DTD SVG 1.1//EN"
 "http://www.w3.org/Graphics/SVG/1.1/DTD/svg11.dtd">
<!-- Generated by graphviz version 2.40.1 (20161225.0304)
 -->
<!-- Title: swdsm_argo_barrier Pages: 1 -->
<svg width="564pt" height="142pt"
 viewBox="0.00 0.00 564.00 142.00" xmlns="http://www.w3.org/2000/svg" xmlns:xlink="http://www.w3.org/1999/xlink">
<g id="graph0" class="graph" transform="scale(1 1) rotate(0) translate(4 138)">
<title>swdsm_argo_barrier</title>
<polygon fill="#ffffff" stroke="transparent" points="-4,4 -4,-138 560,-138 560,4 -4,4"/>
<!-- Node24 -->
<g id="node1" class="node">
<title>Node24</title>
<polygon fill="#bfbfbf" stroke="#000000" points="0,-57.5 0,-76.5 116,-76.5 116,-57.5 0,-57.5"/>
<text text-anchor="middle" x="58" y="-64.5" font-family="Helvetica,sans-Serif" font-size="10.00" fill="#000000">swdsm_argo_barrier</text>
</g>
<!-- Node25 -->
<g id="node2" class="node">
<title>Node25</title>
<g id="a_node2"><a xlink:href="backend_8hpp_af1a647431651556204709451bebb5a42.html#af1a647431651556204709451bebb5a42" target="_top" xlink:title="a simple collective barrier ">
<polygon fill="#ffffff" stroke="#000000" points="152,-114.5 152,-133.5 276,-133.5 276,-114.5 152,-114.5"/>
<text text-anchor="middle" x="214" y="-121.5" font-family="Helvetica,sans-Serif" font-size="10.00" fill="#000000">argo::backend::barrier</text>
</a>
</g>
</g>
<!-- Node24&#45;&gt;Node25 -->
<g id="edge1" class="edge">
<title>Node24&#45;&gt;Node25</title>
<path fill="none" stroke="#191970" d="M89.6882,-80.6097C107.7919,-88.183 131.0029,-97.5544 152,-105 161.3374,-108.311 171.5815,-111.5908 181.0056,-114.4697"/>
<polygon fill="#191970" stroke="#191970" points="90.7768,-77.2704 80.2025,-76.611 88.0576,-83.7207 90.7768,-77.2704"/>
</g>
<!-- Node26 -->
<g id="node3" class="node">
<title>Node26</title>
<g id="a_node3"><a xlink:href="swdsm_8h_acd175d6d8efa5cce6963bae64891a490.html#acd175d6d8efa5cce6963bae64891a490" target="_top" xlink:title="Allocates memory in global address space. ">
<polygon fill="#ffffff" stroke="#000000" points="172.5,-76.5 172.5,-95.5 255.5,-95.5 255.5,-76.5 172.5,-76.5"/>
<text text-anchor="middle" x="214" y="-83.5" font-family="Helvetica,sans-Serif" font-size="10.00" fill="#000000">argo_gmalloc</text>
</a>
</g>
</g>
<!-- Node24&#45;&gt;Node26 -->
<g id="edge2" class="edge">
<title>Node24&#45;&gt;Node26</title>
<path fill="none" stroke="#191970" d="M126.3066,-75.3194C142.014,-77.2325 158.254,-79.2104 172.4254,-80.9364"/>
<polygon fill="#191970" stroke="#191970" points="126.4385,-71.8097 116.0886,-74.0749 125.5921,-78.7583 126.4385,-71.8097"/>
</g>
<!-- Node27 -->
<g id="node4" class="node">
<title>Node27</title>
<g id="a_node4"><a xlink:href="swdsm_8cpp_aa954d5e0bcaee69ff6e03e697bcaf68b.html#aa954d5e0bcaee69ff6e03e697bcaf68b" target="_top" xlink:title="shut down ArgoDSM system ">
<polygon fill="#ffffff" stroke="#000000" points="174.5,-38.5 174.5,-57.5 253.5,-57.5 253.5,-38.5 174.5,-38.5"/>
<text text-anchor="middle" x="214" y="-45.5" font-family="Helvetica,sans-Serif" font-size="10.00" fill="#000000">argo_finalize</text>
</a>
</g>
</g>
<!-- Node24&#45;&gt;Node27 -->
<g id="edge3" class="edge">
<title>Node24&#45;&gt;Node27</title>
<path fill="none" stroke="#191970" d="M126.2235,-58.6907C142.6658,-56.6881 159.6969,-54.6138 174.332,-52.8314"/>
<polygon fill="#191970" stroke="#191970" points="125.5921,-55.2417 116.0886,-59.9251 126.4385,-62.1903 125.5921,-55.2417"/>
</g>
<!-- Node29 -->
<g id="node6" class="node">
<title>Node29</title>
<g id="a_node6"><a xlink:href="swdsm_8h_a0c6b51af2b87ddf7eb04aa7d4e0e836e.html#a0c6b51af2b87ddf7eb04aa7d4e0e836e" target="_top" xlink:title="Resets current coherence. Collective function called by all threads on all nodes. ...">
<polygon fill="#ffffff" stroke="#000000" points="152,-.5 152,-19.5 276,-19.5 276,-.5 152,-.5"/>
<text text-anchor="middle" x="214" y="-7.5" font-family="Helvetica,sans-Serif" font-size="10.00" fill="#000000">argo_reset_coherence</text>
</a>
</g>
</g>
<!-- Node24&#45;&gt;Node29 -->
<g id="edge5" class="edge">
<title>Node24&#45;&gt;Node29</title>
<path fill="none" stroke="#191970" d="M89.6882,-53.3903C107.7919,-45.817 131.0029,-36.4456 152,-29 161.3374,-25.689 171.5815,-22.4092 181.0056,-19.5303"/>
<polygon fill="#191970" stroke="#191970" points="88.0576,-50.2793 80.2025,-57.389 90.7768,-56.7296 88.0576,-50.2793"/>
</g>
<!-- Node28 -->
<g id="node5" class="node">
<title>Node28</title>
<g id="a_node5"><a xlink:href="swdsm_8h_a18cc89a7368e30281ea4b1d214a1b1ff.html#a18cc89a7368e30281ea4b1d214a1b1ff" target="_top" xlink:title="Pins and registers the local thread. ">
<polygon fill="#ffffff" stroke="#000000" points="312,-38.5 312,-57.5 413,-57.5 413,-38.5 312,-38.5"/>
<text text-anchor="middle" x="362.5" y="-45.5" font-family="Helvetica,sans-Serif" font-size="10.00" fill="#000000">argo_pin_threads</text>
</a>
</g>
</g>
<!-- Node27&#45;&gt;Node28 -->
<g id="edge4" class="edge">
<title>Node27&#45;&gt;Node28</title>
<path fill="none" stroke="#191970" d="M264.1702,-48C279.5682,-48 296.5157,-48 311.9397,-48"/>
<polygon fill="#191970" stroke="#191970" points="263.7953,-44.5001 253.7953,-48 263.7952,-51.5001 263.7953,-44.5001"/>
</g>
<!-- Node30 -->
<g id="node7" class="node">
<title>Node30</title>
<g id="a_node7"><a xlink:href="swdsm_8h_a10dca85d339ce630cf42dca685b3f6d9.html#a10dca85d339ce630cf42dca685b3f6d9" target="_top" xlink:title="Initializes ArgoDSM runtime. ">
<polygon fill="#ffffff" stroke="#000000" points="319.5,-.5 319.5,-19.5 405.5,-19.5 405.5,-.5 319.5,-.5"/>
<text text-anchor="middle" x="362.5" y="-7.5" font-family="Helvetica,sans-Serif" font-size="10.00" fill="#000000">argo_initialize</text>
</a>
</g>
</g>
<!-- Node29&#45;&gt;Node30 -->
<g id="edge6" class="edge">
<title>Node29&#45;&gt;Node30</title>
<path fill="none" stroke="#191970" d="M286.3624,-10C297.5681,-10 308.8311,-10 319.1297,-10"/>
<polygon fill="#191970" stroke="#191970" points="286.117,-6.5001 276.1169,-10 286.1169,-13.5001 286.117,-6.5001"/>
</g>
<!-- Node31 -->
<g id="node8" class="node">
<title>Node31</title>
<g id="a_node8"><a xlink:href="backend_8hpp_af0d80a03a17a374c10d9635ddf81e261.html#af0d80a03a17a374c10d9635ddf81e261" target="_top" xlink:title="initialize backend ">
<polygon fill="#ffffff" stroke="#000000" points="449,-.5 449,-19.5 556,-19.5 556,-.5 449,-.5"/>
<text text-anchor="middle" x="502.5" y="-7.5" font-family="Helvetica,sans-Serif" font-size="10.00" fill="#000000">argo::backend::init</text>
</a>
</g>
</g>
<!-- Node30&#45;&gt;Node31 -->
<g id="edge7" class="edge">
<title>Node30&#45;&gt;Node31</title>
<path fill="none" stroke="#191970" d="M415.8168,-10C426.6429,-10 438.0344,-10 448.8712,-10"/>
<polygon fill="#191970" stroke="#191970" points="415.647,-6.5001 405.647,-10 415.6469,-13.5001 415.647,-6.5001"/>
</g>
</g>
</svg>
