<?xml version="1.0" encoding="UTF-8" standalone="no"?>
<!DOCTYPE svg PUBLIC "-//W3C//DTD SVG 1.1//EN"
 "http://www.w3.org/Graphics/SVG/1.1/DTD/svg11.dtd">
<!-- Generated by graphviz version 2.40.1 (20161225.0304)
 -->
<!-- Title: swdsm_argo_barrier Pages: 1 -->
<svg width="1363pt" height="194pt"
 viewBox="0.00 0.00 1363.00 194.00" xmlns="http://www.w3.org/2000/svg" xmlns:xlink="http://www.w3.org/1999/xlink">
<g id="graph0" class="graph" transform="scale(1 1) rotate(0) translate(4 190)">
<title>swdsm_argo_barrier</title>
<polygon fill="#ffffff" stroke="transparent" points="-4,4 -4,-190 1359,-190 1359,4 -4,4"/>
<!-- Node0 -->
<g id="node1" class="node">
<title>Node0</title>
<polygon fill="#bfbfbf" stroke="#000000" points="0,-88 0,-107 116,-107 116,-88 0,-88"/>
<text text-anchor="middle" x="58" y="-95" font-family="Helvetica,sans-Serif" font-size="10.00" fill="#000000">swdsm_argo_barrier</text>
</g>
<!-- Node1 -->
<g id="node2" class="node">
<title>Node1</title>
<g id="a_node2"><a xlink:href="swdsm_8cpp_ac99d42ffcf7c78281cb3a6b286ce3a5e.html#ac99d42ffcf7c78281cb3a6b286ce3a5e" target="_top" xlink:title="Gives number of ArgoDSM nodes. ">
<polygon fill="#ffffff" stroke="#000000" points="154,-126 154,-145 248,-145 248,-126 154,-126"/>
<text text-anchor="middle" x="201" y="-133" font-family="Helvetica,sans-Serif" font-size="10.00" fill="#000000">argo_get_nodes</text>
</a>
</g>
</g>
<!-- Node0&#45;&gt;Node1 -->
<g id="edge1" class="edge">
<title>Node0&#45;&gt;Node1</title>
<path fill="none" stroke="#191970" d="M94.0849,-107.089C112.6296,-112.0169 135.4265,-118.0749 155.199,-123.3291"/>
<polygon fill="#191970" stroke="#191970" points="154.3631,-126.7284 164.9266,-125.9141 156.1609,-119.9632 154.3631,-126.7284"/>
</g>
<!-- Node2 -->
<g id="node3" class="node">
<title>Node2</title>
<g id="a_node3"><a xlink:href="classwrite__buffer_aca2e330e17a38c1cc8d8c60701ce9dd7.html#aca2e330e17a38c1cc8d8c60701ce9dd7" target="_top" xlink:title="Flushes the ArgoDSM write buffer to memory. ">
<polygon fill="#ffffff" stroke="#000000" points="286,-88 286,-107 390,-107 390,-88 286,-88"/>
<text text-anchor="middle" x="338" y="-95" font-family="Helvetica,sans-Serif" font-size="10.00" fill="#000000">write_buffer::flush</text>
</a>
</g>
</g>
<!-- Node0&#45;&gt;Node2 -->
<g id="edge2" class="edge">
<title>Node0&#45;&gt;Node2</title>
<path fill="none" stroke="#191970" d="M116.0162,-97.5C162.5769,-97.5 227.8172,-97.5 275.5209,-97.5"/>
<polygon fill="#191970" stroke="#191970" points="275.7241,-101.0001 285.7241,-97.5 275.7241,-94.0001 275.7241,-101.0001"/>
</g>
<!-- Node20 -->
<g id="node21" class="node">
<title>Node20</title>
<g id="a_node21"><a xlink:href="swdsm_8cpp_aa7c3a2de6bbafdaf68fe6ceb6110ab97.html#aa7c3a2de6bbafdaf68fe6ceb6110ab97" target="_top" xlink:title="Self&#45;Invalidates all memory that has potential writers. ">
<polygon fill="#ffffff" stroke="#000000" points="152,-50 152,-69 250,-69 250,-50 152,-50"/>
<text text-anchor="middle" x="201" y="-57" font-family="Helvetica,sans-Serif" font-size="10.00" fill="#000000">self_invalidation</text>
</a>
</g>
</g>
<!-- Node0&#45;&gt;Node20 -->
<g id="edge21" class="edge">
<title>Node0&#45;&gt;Node20</title>
<path fill="none" stroke="#191970" d="M94.0849,-87.911C112.6296,-82.9831 135.4265,-76.9251 155.199,-71.6709"/>
<polygon fill="#191970" stroke="#191970" points="156.1609,-75.0368 164.9266,-69.0859 154.3631,-68.2716 156.1609,-75.0368"/>
</g>
<!-- Node3 -->
<g id="node4" class="node">
<title>Node3</title>
<g id="a_node4"><a xlink:href="classwrite__buffer_ab70cc0d6ca3591094aae489dbc3feaa5.html#ab70cc0d6ca3591094aae489dbc3feaa5" target="_top" xlink:title="Check if the write buffer is empty. ">
<polygon fill="#ffffff" stroke="#000000" points="435,-164 435,-183 548,-183 548,-164 435,-164"/>
<text text-anchor="middle" x="491.5" y="-171" font-family="Helvetica,sans-Serif" font-size="10.00" fill="#000000">write_buffer::empty</text>
</a>
</g>
</g>
<!-- Node2&#45;&gt;Node3 -->
<g id="edge3" class="edge">
<title>Node2&#45;&gt;Node3</title>
<path fill="none" stroke="#191970" d="M350.1527,-107.0325C366.5424,-119.4871 397.026,-141.2626 426,-154.5 431.0482,-156.8064 436.4438,-158.9052 441.8903,-160.795"/>
<polygon fill="#191970" stroke="#191970" points="441.0928,-164.2158 451.6848,-163.9709 443.2519,-157.5571 441.0928,-164.2158"/>
</g>
<!-- Node4 -->
<g id="node5" class="node">
<title>Node4</title>
<g id="a_node5"><a xlink:href="classwrite__buffer_aa2325346aceb3e7ffdbdbdc8e8682147.html#aa2325346aceb3e7ffdbdbdc8e8682147" target="_top" xlink:title="Sorts all elements by home node id in ascending order. ">
<polygon fill="#ffffff" stroke="#000000" points="441.5,-126 441.5,-145 541.5,-145 541.5,-126 441.5,-126"/>
<text text-anchor="middle" x="491.5" y="-133" font-family="Helvetica,sans-Serif" font-size="10.00" fill="#000000">write_buffer::sort</text>
</a>
</g>
</g>
<!-- Node2&#45;&gt;Node4 -->
<g id="edge4" class="edge">
<title>Node2&#45;&gt;Node4</title>
<path fill="none" stroke="#191970" d="M376.7345,-107.089C396.8993,-112.0809 421.7479,-118.2324 443.1611,-123.5334"/>
<polygon fill="#191970" stroke="#191970" points="442.4959,-126.9743 453.044,-125.9799 444.1781,-120.1794 442.4959,-126.9743"/>
</g>
<!-- Node13 -->
<g id="node14" class="node">
<title>Node13</title>
<g id="a_node14"><a xlink:href="classwrite__buffer_ae065d3ee59035ad508eb8ce6670d2c89.html#ae065d3ee59035ad508eb8ce6670d2c89" target="_top" xlink:title="Removes the front element from the buffer and returns it. ">
<polygon fill="#ffffff" stroke="#000000" points="442,-88 442,-107 541,-107 541,-88 442,-88"/>
<text text-anchor="middle" x="491.5" y="-95" font-family="Helvetica,sans-Serif" font-size="10.00" fill="#000000">write_buffer::pop</text>
</a>
</g>
</g>
<!-- Node2&#45;&gt;Node13 -->
<g id="edge14" class="edge">
<title>Node2&#45;&gt;Node13</title>
<path fill="none" stroke="#191970" d="M390.3967,-97.5C403.6849,-97.5 418.0597,-97.5 431.685,-97.5"/>
<polygon fill="#191970" stroke="#191970" points="431.9279,-101.0001 441.9279,-97.5 431.9279,-94.0001 431.9279,-101.0001"/>
</g>
<!-- Node14 -->
<g id="node15" class="node">
<title>Node14</title>
<g id="a_node15"><a xlink:href="swdsm_8cpp_a3b6a6b2b244edb9faa79814ce8e5e9f5.html#a3b6a6b2b244edb9faa79814ce8e5e9f5" target="_top" xlink:title="stores a page remotely &#45; only writing back what has been written locally since last synchronization p...">
<polygon fill="#ffffff" stroke="#000000" points="448.5,-50 448.5,-69 534.5,-69 534.5,-50 448.5,-50"/>
<text text-anchor="middle" x="491.5" y="-57" font-family="Helvetica,sans-Serif" font-size="10.00" fill="#000000">storepageDIFF</text>
</a>
</g>
</g>
<!-- Node2&#45;&gt;Node14 -->
<g id="edge15" class="edge">
<title>Node2&#45;&gt;Node14</title>
<path fill="none" stroke="#191970" d="M376.7345,-87.911C396.8993,-82.9191 421.7479,-76.7676 443.1611,-71.4666"/>
<polygon fill="#191970" stroke="#191970" points="444.1781,-74.8206 453.044,-69.0201 442.4959,-68.0257 444.1781,-74.8206"/>
</g>
<!-- Node19 -->
<g id="node20" class="node">
<title>Node19</title>
<g id="a_node20"><a xlink:href="namespaceargo_a79c9492f3fd441bfa6261dffbc0f02f4.html#a79c9492f3fd441bfa6261dffbc0f02f4" target="_top" xlink:title="Number of ArgoDSM nodes being run. ">
<polygon fill="#ffffff" stroke="#000000" points="426,-12 426,-31 557,-31 557,-12 426,-12"/>
<text text-anchor="middle" x="491.5" y="-19" font-family="Helvetica,sans-Serif" font-size="10.00" fill="#000000">argo::number_of_nodes</text>
</a>
</g>
</g>
<!-- Node2&#45;&gt;Node19 -->
<g id="edge20" class="edge">
<title>Node2&#45;&gt;Node19</title>
<path fill="none" stroke="#191970" d="M371.2842,-87.9451C377.7575,-85.3779 384.2969,-82.2476 390,-78.5 409.4424,-65.7239 406.1346,-52.6079 426,-40.5 429.428,-38.4106 433.097,-36.5414 436.883,-34.8707"/>
<polygon fill="#191970" stroke="#191970" points="438.4318,-38.0229 446.4642,-31.1142 435.8766,-31.5059 438.4318,-38.0229"/>
</g>
<!-- Node5 -->
<g id="node6" class="node">
<title>Node5</title>
<g id="a_node6"><a xlink:href="namespaceargo_a48dc17c94275df10a8e7f3959cbf0191.html#a48dc17c94275df10a8e7f3959cbf0191" target="_top" xlink:title="Get the ArgoDSM node id where addr is physically backed. ">
<polygon fill="#ffffff" stroke="#000000" points="593,-126 593,-145 710,-145 710,-126 593,-126"/>
<text text-anchor="middle" x="651.5" y="-133" font-family="Helvetica,sans-Serif" font-size="10.00" fill="#000000">argo::get_homenode</text>
</a>
</g>
</g>
<!-- Node4&#45;&gt;Node5 -->
<g id="edge5" class="edge">
<title>Node4&#45;&gt;Node5</title>
<path fill="none" stroke="#191970" d="M541.686,-135.5C554.6124,-135.5 568.7506,-135.5 582.452,-135.5"/>
<polygon fill="#191970" stroke="#191970" points="582.8172,-139.0001 592.8171,-135.5 582.8171,-132.0001 582.8172,-139.0001"/>
</g>
<!-- Node6 -->
<g id="node7" class="node">
<title>Node6</title>
<g id="a_node7"><a xlink:href="classargo_1_1data__distribution_1_1global__ptr_a3e2cdd4d323ef91174615e27ab94e342.html#a3e2cdd4d323ef91174615e27ab94e342" target="_top" xlink:title="return the home node of the value pointed to, or a default value if the page has not yet been first&#45;t...">
<polygon fill="#ffffff" stroke="#000000" points="746,-150.5 746,-180.5 877,-180.5 877,-150.5 746,-150.5"/>
<text text-anchor="start" x="754" y="-168.5" font-family="Helvetica,sans-Serif" font-size="10.00" fill="#000000">argo::data_distribution</text>
<text text-anchor="middle" x="811.5" y="-157.5" font-family="Helvetica,sans-Serif" font-size="10.00" fill="#000000">::global_ptr::peek_node</text>
</a>
</g>
</g>
<!-- Node5&#45;&gt;Node6 -->
<g id="edge6" class="edge">
<title>Node5&#45;&gt;Node6</title>
<path fill="none" stroke="#191970" d="M702.5649,-145.0747C713.2459,-147.0774 724.7222,-149.2292 736.0752,-151.3578"/>
<polygon fill="#191970" stroke="#191970" points="735.5234,-154.8153 745.9972,-153.2182 736.8135,-147.9352 735.5234,-154.8153"/>
</g>
<!-- Node7 -->
<g id="node8" class="node">
<title>Node7</title>
<g id="a_node8"><a xlink:href="namespaceargo_a2f35b6b6e0af76fb8fb47f2031d6f58e.html#a2f35b6b6e0af76fb8fb47f2031d6f58e" target="_top" xlink:title="Get the block size of the current allocation policy. ">
<polygon fill="#ffffff" stroke="#000000" points="753.5,-112 753.5,-131 869.5,-131 869.5,-112 753.5,-112"/>
<text text-anchor="middle" x="811.5" y="-119" font-family="Helvetica,sans-Serif" font-size="10.00" fill="#000000">argo::get_block_size</text>
</a>
</g>
</g>
<!-- Node5&#45;&gt;Node7 -->
<g id="edge7" class="edge">
<title>Node5&#45;&gt;Node7</title>
<path fill="none" stroke="#191970" d="M710.1696,-130.3664C720.9585,-129.4224 732.3057,-128.4295 743.3452,-127.4635"/>
<polygon fill="#191970" stroke="#191970" points="743.7153,-130.9446 753.3722,-126.5862 743.1051,-123.9713 743.7153,-130.9446"/>
</g>
<!-- Node8 -->
<g id="node9" class="node">
<title>Node8</title>
<g id="a_node9"><a xlink:href="namespaceargo_1_1data__distribution_a2a70ed49553953957c3a28aa755d7ac8.html#a2a70ed49553953957c3a28aa755d7ac8" target="_top" xlink:title="based on the chosen policy, gets the policy block size ">
<polygon fill="#ffffff" stroke="#000000" points="913,-106.5 913,-136.5 1040,-136.5 1040,-106.5 913,-106.5"/>
<text text-anchor="start" x="921" y="-124.5" font-family="Helvetica,sans-Serif" font-size="10.00" fill="#000000">argo::data_distribution</text>
<text text-anchor="middle" x="976.5" y="-113.5" font-family="Helvetica,sans-Serif" font-size="10.00" fill="#000000">::policy_block_size</text>
</a>
</g>
</g>
<!-- Node7&#45;&gt;Node8 -->
<g id="edge8" class="edge">
<title>Node7&#45;&gt;Node8</title>
<path fill="none" stroke="#191970" d="M869.6728,-121.5C880.3993,-121.5 891.7284,-121.5 902.841,-121.5"/>
<polygon fill="#191970" stroke="#191970" points="902.9621,-125.0001 912.9621,-121.5 902.962,-118.0001 902.9621,-125.0001"/>
</g>
<!-- Node9 -->
<g id="node10" class="node">
<title>Node9</title>
<g id="a_node10"><a xlink:href="namespaceargo_1_1env_a30775a9aa41b956df7474a2c0cc317aa.html#a30775a9aa41b956df7474a2c0cc317aa" target="_top" xlink:title="get the allocation block size requested by environment variable ">
<polygon fill="#ffffff" stroke="#000000" points="1081.5,-155.5 1081.5,-185.5 1197.5,-185.5 1197.5,-155.5 1081.5,-155.5"/>
<text text-anchor="start" x="1089.5" y="-173.5" font-family="Helvetica,sans-Serif" font-size="10.00" fill="#000000">argo::env::allocation</text>
<text text-anchor="middle" x="1139.5" y="-162.5" font-family="Helvetica,sans-Serif" font-size="10.00" fill="#000000">_block_size</text>
</a>
</g>
</g>
<!-- Node8&#45;&gt;Node9 -->
<g id="edge9" class="edge">
<title>Node8&#45;&gt;Node9</title>
<path fill="none" stroke="#191970" d="M1026.7354,-136.6014C1043.3909,-141.6083 1062.0997,-147.2324 1079.4194,-152.439"/>
<polygon fill="#191970" stroke="#191970" points="1078.8462,-155.9213 1089.4305,-155.4484 1080.8615,-149.2177 1078.8462,-155.9213"/>
</g>
<!-- Node10 -->
<g id="node11" class="node">
<title>Node10</title>
<g id="a_node11"><a xlink:href="namespaceargo_1_1data__distribution_a1bb3f2dcecd237990e6dc67764f06860.html#a1bb3f2dcecd237990e6dc67764f06860" target="_top" xlink:title="identifies if we distribute data using a cyclic memory policy ">
<polygon fill="#ffffff" stroke="#000000" points="1076,-106.5 1076,-136.5 1203,-136.5 1203,-106.5 1076,-106.5"/>
<text text-anchor="start" x="1084" y="-124.5" font-family="Helvetica,sans-Serif" font-size="10.00" fill="#000000">argo::data_distribution</text>
<text text-anchor="middle" x="1139.5" y="-113.5" font-family="Helvetica,sans-Serif" font-size="10.00" fill="#000000">::is_cyclic_policy</text>
</a>
</g>
</g>
<!-- Node8&#45;&gt;Node10 -->
<g id="edge10" class="edge">
<title>Node8&#45;&gt;Node10</title>
<path fill="none" stroke="#191970" d="M1040.4541,-121.5C1048.7606,-121.5 1057.3224,-121.5 1065.7718,-121.5"/>
<polygon fill="#191970" stroke="#191970" points="1065.9977,-125.0001 1075.9977,-121.5 1065.9977,-118.0001 1065.9977,-125.0001"/>
</g>
<!-- Node12 -->
<g id="node13" class="node">
<title>Node12</title>
<g id="a_node13"><a xlink:href="namespaceargo_1_1data__distribution_a58576657391f45caf61bf0748a23b098.html#a58576657391f45caf61bf0748a23b098" target="_top" xlink:title="identifies if we distribute data using the first&#45;touch memory policy ">
<polygon fill="#ffffff" stroke="#000000" points="1076,-57.5 1076,-87.5 1203,-87.5 1203,-57.5 1076,-57.5"/>
<text text-anchor="start" x="1084" y="-75.5" font-family="Helvetica,sans-Serif" font-size="10.00" fill="#000000">argo::data_distribution</text>
<text text-anchor="middle" x="1139.5" y="-64.5" font-family="Helvetica,sans-Serif" font-size="10.00" fill="#000000">::is_first_touch_policy</text>
</a>
</g>
</g>
<!-- Node8&#45;&gt;Node12 -->
<g id="edge12" class="edge">
<title>Node8&#45;&gt;Node12</title>
<path fill="none" stroke="#191970" d="M1026.7354,-106.3986C1043.3909,-101.3917 1062.0997,-95.7676 1079.4194,-90.561"/>
<polygon fill="#191970" stroke="#191970" points="1080.8615,-93.7823 1089.4305,-87.5516 1078.8462,-87.0787 1080.8615,-93.7823"/>
</g>
<!-- Node11 -->
<g id="node12" class="node">
<title>Node11</title>
<g id="a_node12"><a xlink:href="namespaceargo_1_1env_a25a08cb2d0d11432d640ec7173063339.html#a25a08cb2d0d11432d640ec7173063339" target="_top" xlink:title="get the allocation policy requested by environment variable ">
<polygon fill="#ffffff" stroke="#000000" points="1239,-81.5 1239,-111.5 1355,-111.5 1355,-81.5 1239,-81.5"/>
<text text-anchor="start" x="1247" y="-99.5" font-family="Helvetica,sans-Serif" font-size="10.00" fill="#000000">argo::env::allocation</text>
<text text-anchor="middle" x="1297" y="-88.5" font-family="Helvetica,sans-Serif" font-size="10.00" fill="#000000">_policy</text>
</a>
</g>
</g>
<!-- Node10&#45;&gt;Node11 -->
<g id="edge11" class="edge">
<title>Node10&#45;&gt;Node11</title>
<path fill="none" stroke="#191970" d="M1203.1073,-111.4036C1211.5754,-110.0595 1220.2863,-108.6768 1228.8281,-107.3209"/>
<polygon fill="#191970" stroke="#191970" points="1229.4255,-110.77 1238.7531,-105.7455 1228.3281,-103.8566 1229.4255,-110.77"/>
</g>
<!-- Node12&#45;&gt;Node11 -->
<g id="edge13" class="edge">
<title>Node12&#45;&gt;Node11</title>
<path fill="none" stroke="#191970" d="M1203.1073,-82.1925C1211.5754,-83.4829 1220.2863,-84.8103 1228.8281,-86.1119"/>
<polygon fill="#191970" stroke="#191970" points="1228.34,-89.5778 1238.7531,-87.6243 1229.3945,-82.6577 1228.34,-89.5778"/>
</g>
<!-- Node15 -->
<g id="node16" class="node">
<title>Node15</title>
<g id="a_node16"><a xlink:href="swdsm_8cpp_ab2e5fbbe4d1f44d25619f290dc37dd3e.html#ab2e5fbbe4d1f44d25619f290dc37dd3e" target="_top" xlink:title="Gives homenode for a given address. ">
<polygon fill="#ffffff" stroke="#000000" points="607,-57 607,-76 696,-76 696,-57 607,-57"/>
<text text-anchor="middle" x="651.5" y="-64" font-family="Helvetica,sans-Serif" font-size="10.00" fill="#000000">get_homenode</text>
</a>
</g>
</g>
<!-- Node14&#45;&gt;Node15 -->
<g id="edge16" class="edge">
<title>Node14&#45;&gt;Node15</title>
<path fill="none" stroke="#191970" d="M534.7983,-61.3943C553.8788,-62.2291 576.5155,-63.2194 596.7506,-64.1047"/>
<polygon fill="#191970" stroke="#191970" points="596.6289,-67.6026 606.7724,-64.5432 596.9349,-60.6093 596.6289,-67.6026"/>
</g>
<!-- Node17 -->
<g id="node18" class="node">
<title>Node17</title>
<g id="a_node18"><a xlink:href="swdsm_8cpp_a974f1a03f5461bb989248cceb41cd95b.html#a974f1a03f5461bb989248cceb41cd95b" target="_top" xlink:title="Gets the offset of an address on the local nodes part of the global memory. ">
<polygon fill="#ffffff" stroke="#000000" points="619,-16 619,-35 684,-35 684,-16 619,-16"/>
<text text-anchor="middle" x="651.5" y="-23" font-family="Helvetica,sans-Serif" font-size="10.00" fill="#000000">get_offset</text>
</a>
</g>
</g>
<!-- Node14&#45;&gt;Node17 -->
<g id="edge18" class="edge">
<title>Node14&#45;&gt;Node17</title>
<path fill="none" stroke="#191970" d="M534.7983,-50.2991C557.8551,-45.3995 586.1048,-39.3965 609.0346,-34.5239"/>
<polygon fill="#191970" stroke="#191970" points="609.7766,-37.9445 618.8307,-32.4422 608.3216,-31.0973 609.7766,-37.9445"/>
</g>
<!-- Node16 -->
<g id="node17" class="node">
<title>Node16</title>
<g id="a_node17"><a xlink:href="classargo_1_1data__distribution_1_1global__ptr_ac7d651586337d08cda18ef26ffcd34a0.html#ac7d651586337d08cda18ef26ffcd34a0" target="_top" xlink:title="return the home node of the value pointed to ">
<polygon fill="#ffffff" stroke="#000000" points="748,-54.5 748,-84.5 875,-84.5 875,-54.5 748,-54.5"/>
<text text-anchor="start" x="756" y="-72.5" font-family="Helvetica,sans-Serif" font-size="10.00" fill="#000000">argo::data_distribution</text>
<text text-anchor="middle" x="811.5" y="-61.5" font-family="Helvetica,sans-Serif" font-size="10.00" fill="#000000">::global_ptr::node</text>
</a>
</g>
</g>
<!-- Node15&#45;&gt;Node16 -->
<g id="edge17" class="edge">
<title>Node15&#45;&gt;Node16</title>
<path fill="none" stroke="#191970" d="M696.0689,-67.3357C708.9412,-67.577 723.3472,-67.8471 737.5013,-68.1125"/>
<polygon fill="#191970" stroke="#191970" points="737.6737,-71.6163 747.7375,-68.3045 737.8049,-64.6175 737.6737,-71.6163"/>
</g>
<!-- Node18 -->
<g id="node19" class="node">
<title>Node18</title>
<g id="a_node19"><a xlink:href="classargo_1_1data__distribution_1_1global__ptr_ad8c21c408fa2b926cfd9acfd87e8e4e6.html#ad8c21c408fa2b926cfd9acfd87e8e4e6" target="_top" xlink:title="return the offset on the home node&#39;s local memory share ">
<polygon fill="#ffffff" stroke="#000000" points="748,-5.5 748,-35.5 875,-35.5 875,-5.5 748,-5.5"/>
<text text-anchor="start" x="756" y="-23.5" font-family="Helvetica,sans-Serif" font-size="10.00" fill="#000000">argo::data_distribution</text>
<text text-anchor="middle" x="811.5" y="-12.5" font-family="Helvetica,sans-Serif" font-size="10.00" fill="#000000">::global_ptr::offset</text>
</a>
</g>
</g>
<!-- Node17&#45;&gt;Node18 -->
<g id="edge19" class="edge">
<title>Node17&#45;&gt;Node18</title>
<path fill="none" stroke="#191970" d="M684.2645,-24.4761C699.764,-23.9917 718.9491,-23.3922 737.6797,-22.8069"/>
<polygon fill="#191970" stroke="#191970" points="737.8248,-26.3042 747.7106,-22.4934 737.6061,-19.3076 737.8248,-26.3042"/>
</g>
<!-- Node20&#45;&gt;Node2 -->
<g id="edge24" class="edge">
<title>Node20&#45;&gt;Node2</title>
<path fill="none" stroke="#191970" d="M235.5709,-69.089C253.1752,-73.9719 274.7793,-79.9643 293.601,-85.185"/>
<polygon fill="#191970" stroke="#191970" points="292.8685,-88.6138 303.4402,-87.9141 294.7395,-81.8685 292.8685,-88.6138"/>
</g>
<!-- Node21 -->
<g id="node22" class="node">
<title>Node21</title>
<g id="a_node22"><a xlink:href="swdsm_8cpp_af770e3f703653ddb0967b85d88881ab7.html#af770e3f703653ddb0967b85d88881ab7" target="_top" xlink:title="Gives the ArgoDSM node id for the local process. ">
<polygon fill="#ffffff" stroke="#000000" points="316.5,-50 316.5,-69 359.5,-69 359.5,-50 316.5,-50"/>
<text text-anchor="middle" x="338" y="-57" font-family="Helvetica,sans-Serif" font-size="10.00" fill="#000000">getID</text>
</a>
</g>
</g>
<!-- Node20&#45;&gt;Node21 -->
<g id="edge22" class="edge">
<title>Node20&#45;&gt;Node21</title>
<path fill="none" stroke="#191970" d="M250.0732,-59.5C268.716,-59.5 289.4517,-59.5 306.1023,-59.5"/>
<polygon fill="#191970" stroke="#191970" points="306.3912,-63.0001 316.3911,-59.5 306.3911,-56.0001 306.3912,-63.0001"/>
</g>
<!-- Node22 -->
<g id="node23" class="node">
<title>Node22</title>
<g id="a_node23"><a xlink:href="swdsm_8cpp_aff9ea7ba7f37206d933c8dc8004dbc7b.html#aff9ea7ba7f37206d933c8dc8004dbc7b" target="_top" xlink:title="Gives an index to the sharer/writer vector depending on the address. ">
<polygon fill="#ffffff" stroke="#000000" points="287.5,-.5 287.5,-30.5 388.5,-30.5 388.5,-.5 287.5,-.5"/>
<text text-anchor="start" x="295.5" y="-18.5" font-family="Helvetica,sans-Serif" font-size="10.00" fill="#000000">get_classification</text>
<text text-anchor="middle" x="338" y="-7.5" font-family="Helvetica,sans-Serif" font-size="10.00" fill="#000000">_index</text>
</a>
</g>
</g>
<!-- Node20&#45;&gt;Node22 -->
<g id="edge23" class="edge">
<title>Node20&#45;&gt;Node22</title>
<path fill="none" stroke="#191970" d="M230.727,-49.9527C245.6007,-45.1757 264.1109,-39.2308 281.5462,-33.6311"/>
<polygon fill="#191970" stroke="#191970" points="282.6412,-36.9556 291.0919,-30.5654 280.5007,-30.2909 282.6412,-36.9556"/>
</g>
</g>
</svg>
