<?xml version="1.0" encoding="UTF-8" standalone="no"?>
<!DOCTYPE svg PUBLIC "-//W3C//DTD SVG 1.1//EN"
 "http://www.w3.org/Graphics/SVG/1.1/DTD/svg11.dtd">
<!-- Generated by graphviz version 2.40.1 (20161225.0304)
 -->
<!-- Title: _is_cached Pages: 1 -->
<svg width="379pt" height="142pt"
 viewBox="0.00 0.00 379.00 142.00" xmlns="http://www.w3.org/2000/svg" xmlns:xlink="http://www.w3.org/1999/xlink">
<g id="graph0" class="graph" transform="scale(1 1) rotate(0) translate(4 138)">
<title>_is_cached</title>
<polygon fill="#ffffff" stroke="transparent" points="-4,4 -4,-138 375,-138 375,4 -4,4"/>
<!-- Node0 -->
<g id="node1" class="node">
<title>Node0</title>
<polygon fill="#bfbfbf" stroke="#000000" points="0,-57.5 0,-76.5 70,-76.5 70,-57.5 0,-57.5"/>
<text text-anchor="middle" x="35" y="-64.5" font-family="Helvetica,sans-Serif" font-size="10.00" fill="#000000">_is_cached</text>
</g>
<!-- Node1 -->
<g id="node2" class="node">
<title>Node1</title>
<g id="a_node2"><a xlink:href="swdsm_8cpp_ad56e0108259917bf97090212b3927f55.html#ad56e0108259917bf97090212b3927f55" target="_top" xlink:title="align an offset into a memory region to the beginning of its size block ">
<polygon fill="#ffffff" stroke="#000000" points="106,-114.5 106,-133.5 204,-133.5 204,-114.5 106,-114.5"/>
<text text-anchor="middle" x="155" y="-121.5" font-family="Helvetica,sans-Serif" font-size="10.00" fill="#000000">align_backwards</text>
</a>
</g>
</g>
<!-- Node0&#45;&gt;Node1 -->
<g id="edge1" class="edge">
<title>Node0&#45;&gt;Node1</title>
<path fill="none" stroke="#191970" d="M51.6363,-76.6468C65.8431,-84.7036 86.9437,-96.2451 106,-105 110.1701,-106.9158 114.593,-108.8123 119.0085,-110.623"/>
<polygon fill="#191970" stroke="#191970" points="117.9762,-113.9791 128.5617,-114.4243 120.5642,-107.4751 117.9762,-113.9791"/>
</g>
<!-- Node2 -->
<g id="node3" class="node">
<title>Node2</title>
<g id="a_node3"><a xlink:href="swdsm_8cpp_a4c0ee0be20a4d5b19eef1a568e6ce084.html#a4c0ee0be20a4d5b19eef1a568e6ce084" target="_top" xlink:title="Gives homenode for a given address. ">
<polygon fill="#ffffff" stroke="#000000" points="106,-76.5 106,-95.5 204,-95.5 204,-76.5 106,-76.5"/>
<text text-anchor="middle" x="155" y="-83.5" font-family="Helvetica,sans-Serif" font-size="10.00" fill="#000000">peek_homenode</text>
</a>
</g>
</g>
<!-- Node0&#45;&gt;Node2 -->
<g id="edge2" class="edge">
<title>Node0&#45;&gt;Node2</title>
<path fill="none" stroke="#191970" d="M70.0316,-72.5467C78.1741,-73.8359 87.0634,-75.2434 95.9258,-76.6466"/>
<polygon fill="#191970" stroke="#191970" points="95.4547,-80.1155 105.879,-78.2225 96.5494,-73.2016 95.4547,-80.1155"/>
</g>
<!-- Node4 -->
<g id="node5" class="node">
<title>Node4</title>
<g id="a_node5"><a xlink:href="swdsm_8cpp_acf216cf340937a920846c9a5c1bf3b0b.html#acf216cf340937a920846c9a5c1bf3b0b" target="_top" xlink:title="Gets cacheindex for a given address. ">
<polygon fill="#ffffff" stroke="#000000" points="110.5,-38.5 110.5,-57.5 199.5,-57.5 199.5,-38.5 110.5,-38.5"/>
<text text-anchor="middle" x="155" y="-45.5" font-family="Helvetica,sans-Serif" font-size="10.00" fill="#000000">getCacheIndex</text>
</a>
</g>
</g>
<!-- Node0&#45;&gt;Node4 -->
<g id="edge4" class="edge">
<title>Node0&#45;&gt;Node4</title>
<path fill="none" stroke="#191970" d="M70.0316,-61.4533C79.4745,-59.9582 89.9217,-58.3041 100.1665,-56.682"/>
<polygon fill="#191970" stroke="#191970" points="100.9695,-60.0985 110.2991,-55.0776 99.8748,-53.1846 100.9695,-60.0985"/>
</g>
<!-- Node5 -->
<g id="node6" class="node">
<title>Node5</title>
<g id="a_node6"><a xlink:href="swdsm_8cpp_af770e3f703653ddb0967b85d88881ab7.html#af770e3f703653ddb0967b85d88881ab7" target="_top" xlink:title="Gives the ArgoDSM node id for the local process. ">
<polygon fill="#ffffff" stroke="#000000" points="133.5,-.5 133.5,-19.5 176.5,-19.5 176.5,-.5 133.5,-.5"/>
<text text-anchor="middle" x="155" y="-7.5" font-family="Helvetica,sans-Serif" font-size="10.00" fill="#000000">getID</text>
</a>
</g>
</g>
<!-- Node0&#45;&gt;Node5 -->
<g id="edge5" class="edge">
<title>Node0&#45;&gt;Node5</title>
<path fill="none" stroke="#191970" d="M51.6363,-57.3532C65.8431,-49.2964 86.9437,-37.7549 106,-29 111.6301,-26.4134 117.7211,-23.8622 123.6323,-21.5095"/>
<polygon fill="#191970" stroke="#191970" points="125.2364,-24.6417 133.2976,-17.7665 122.7084,-18.114 125.2364,-24.6417"/>
</g>
<!-- Node3 -->
<g id="node4" class="node">
<title>Node3</title>
<g id="a_node4"><a xlink:href="classargo_1_1data__distribution_1_1global__ptr_a3e2cdd4d323ef91174615e27ab94e342.html#a3e2cdd4d323ef91174615e27ab94e342" target="_top" xlink:title="return the home node of the value pointed to, or a default value if the page has not yet been first&#45;t...">
<polygon fill="#ffffff" stroke="#000000" points="240,-71 240,-101 371,-101 371,-71 240,-71"/>
<text text-anchor="start" x="248" y="-89" font-family="Helvetica,sans-Serif" font-size="10.00" fill="#000000">argo::data_distribution</text>
<text text-anchor="middle" x="305.5" y="-78" font-family="Helvetica,sans-Serif" font-size="10.00" fill="#000000">::global_ptr::peek_node</text>
</a>
</g>
</g>
<!-- Node2&#45;&gt;Node3 -->
<g id="edge3" class="edge">
<title>Node2&#45;&gt;Node3</title>
<path fill="none" stroke="#191970" d="M204.2793,-86C212.4743,-86 221.1376,-86 229.8088,-86"/>
<polygon fill="#191970" stroke="#191970" points="229.964,-89.5001 239.9639,-86 229.9639,-82.5001 229.964,-89.5001"/>
</g>
</g>
</svg>
