<?xml version="1.0" encoding="UTF-8" standalone="no"?>
<!DOCTYPE svg PUBLIC "-//W3C//DTD SVG 1.1//EN"
 "http://www.w3.org/Graphics/SVG/1.1/DTD/svg11.dtd">
<!-- Generated by graphviz version 2.40.1 (20161225.0304)
 -->
<!-- Title: handler Pages: 1 -->
<!--zoomable 674 -->
<svg id="main" version="1.1" xmlns="http://www.w3.org/2000/svg" xmlns:xlink="http://www.w3.org/1999/xlink" xml:space="preserve" onload="init(evt)">
<style type="text/css"><![CDATA[
.edge:hover path { stroke: red; }
.edge:hover polygon { stroke: red; fill: red; }
]]></style>
<script type="text/javascript"><![CDATA[
var edges = document.getElementsByTagName('g');
if (edges && edges.length) {
  for (var i=0;i<edges.length;i++) {
    if (edges[i].id.substr(0,4)=='edge') {
      edges[i].setAttribute('class','edge');
    }
  }
}
]]></script>
        <defs>
                <circle id="rim" cx="0" cy="0" r="7"/>
                <circle id="rim2" cx="0" cy="0" r="3.5"/>
                <g id="zoomPlus">
                        <use xlink:href="#rim" fill="#404040">
                                <set attributeName="fill" to="#808080" begin="zoomplus.mouseover" end="zoomplus.mouseout"/>
                        </use>
                        <path d="M-4,0h8M0,-4v8" fill="none" stroke="white" stroke-width="1.5" pointer-events="none"/>
                </g>
                <g id="zoomMin">
                        <use xlink:href="#rim" fill="#404040">
                                <set attributeName="fill" to="#808080" begin="zoomminus.mouseover" end="zoomminus.mouseout"/>
                        </use>
                        <path d="M-4,0h8" fill="none" stroke="white" stroke-width="1.5" pointer-events="none"/>
                </g>
                <g id="dirArrow">
                        <path fill="none" stroke="white" stroke-width="1.5" d="M0,-3.0v7 M-2.5,-0.5L0,-3.0L2.5,-0.5"/>
                </g>
               <g id="resetDef">
                       <use xlink:href="#rim2" fill="#404040">
                               <set attributeName="fill" to="#808080" begin="reset.mouseover" end="reset.mouseout"/>
                       </use>
               </g>
        </defs>

<script type="text/javascript">
var viewWidth = 1355;
var viewHeight = 674;
var sectionId = 'dynsection-0';
</script>
<script xlink:href="svgpan.js"/>
<svg id="graph" class="graph">
<g id="viewport">
<title>handler</title>
<polygon fill="#ffffff" stroke="transparent" points="-4,4 -4,-670.0338 1351,-670.0338 1351,4 -4,4"/>
<!-- Node0 -->
<g id="node1" class="node">
<title>Node0</title>
<polygon fill="#bfbfbf" stroke="#000000" points="0,-380 0,-399 53,-399 53,-380 0,-380"/>
<text text-anchor="middle" x="26.5" y="-387" font-family="Helvetica,sans-Serif" font-size="10.00" fill="#000000">handler</text>
</g>
<!-- Node1 -->
<g id="node2" class="node">
<title>Node1</title>
<g id="a_node2"><a xlink:href="swdsm_8cpp_ad56e0108259917bf97090212b3927f55.html#ad56e0108259917bf97090212b3927f55" target="_top" xlink:title="align an offset into a memory region to the beginning of its size block ">
<polygon fill="#ffffff" stroke="#000000" points="254,-625 254,-644 352,-644 352,-625 254,-625"/>
<text text-anchor="middle" x="303" y="-632" font-family="Helvetica,sans-Serif" font-size="10.00" fill="#000000">align_backwards</text>
</a>
</g>
</g>
<!-- Node0&#45;&gt;Node1 -->
<g id="edge1" class="edge">
<title>Node0&#45;&gt;Node1</title>
<path fill="none" stroke="#191970" d="M28.6854,-399.0566C34.6402,-423.3324 53.1559,-488.358 89,-529.5 136.4726,-583.9892 160.4685,-587.2817 227,-615.5 232.8339,-617.9744 239.0619,-620.1774 245.3471,-622.126"/>
<polygon fill="#191970" stroke="#191970" points="244.644,-625.566 255.2227,-624.9809 246.5881,-618.8414 244.644,-625.566"/>
</g>
<!-- Node2 -->
<g id="node3" class="node">
<title>Node2</title>
<g id="a_node3"><a xlink:href="swdsm_8cpp_adfcbbdedcad0833d49e3111447061689.html#adfcbbdedcad0833d49e3111447061689" target="_top" xlink:title="Gives an index to the sharer/writer vector depending on the address. ">
<polygon fill="#ffffff" stroke="#000000" points="252.5,-575.5 252.5,-605.5 353.5,-605.5 353.5,-575.5 252.5,-575.5"/>
<text text-anchor="start" x="260.5" y="-593.5" font-family="Helvetica,sans-Serif" font-size="10.00" fill="#000000">get_classification</text>
<text text-anchor="middle" x="303" y="-582.5" font-family="Helvetica,sans-Serif" font-size="10.00" fill="#000000">_index</text>
</a>
</g>
</g>
<!-- Node0&#45;&gt;Node2 -->
<g id="edge2" class="edge">
<title>Node0&#45;&gt;Node2</title>
<path fill="none" stroke="#191970" d="M31.0118,-399.0419C39.9841,-417.2466 61.5866,-457.4405 89,-483.5 140.7086,-532.6548 162.0609,-535.9552 227,-565.5 231.9782,-567.7649 237.2229,-569.9245 242.5345,-571.9576"/>
<polygon fill="#191970" stroke="#191970" points="241.5306,-575.3173 252.1242,-575.476 243.9417,-568.7457 241.5306,-575.3173"/>
</g>
<!-- Node3 -->
<g id="node4" class="node">
<title>Node3</title>
<g id="a_node4"><a xlink:href="swdsm_8cpp_acf216cf340937a920846c9a5c1bf3b0b.html#acf216cf340937a920846c9a5c1bf3b0b" target="_top" xlink:title="Gets cacheindex for a given address. ">
<polygon fill="#ffffff" stroke="#000000" points="258.5,-537 258.5,-556 347.5,-556 347.5,-537 258.5,-537"/>
<text text-anchor="middle" x="303" y="-544" font-family="Helvetica,sans-Serif" font-size="10.00" fill="#000000">getCacheIndex</text>
</a>
</g>
</g>
<!-- Node0&#45;&gt;Node3 -->
<g id="edge3" class="edge">
<title>Node0&#45;&gt;Node3</title>
<path fill="none" stroke="#191970" d="M38.4225,-399.2226C68.3879,-423.2394 149.972,-486.0587 227,-522.5 236.1931,-526.8492 246.3722,-530.6793 256.2132,-533.93"/>
<polygon fill="#191970" stroke="#191970" points="255.3028,-537.3128 265.8926,-536.9853 257.4099,-530.6374 255.3028,-537.3128"/>
</g>
<!-- Node4 -->
<g id="node5" class="node">
<title>Node4</title>
<g id="a_node5"><a xlink:href="namespaceargo_1_1data__distribution_a58576657391f45caf61bf0748a23b098.html#a58576657391f45caf61bf0748a23b098" target="_top" xlink:title="identifies if we distribute data using the first&#45;touch memory policy ">
<polygon fill="#ffffff" stroke="#000000" points="1068,-.5 1068,-30.5 1195,-30.5 1195,-.5 1068,-.5"/>
<text text-anchor="start" x="1076" y="-18.5" font-family="Helvetica,sans-Serif" font-size="10.00" fill="#000000">argo::data_distribution</text>
<text text-anchor="middle" x="1131.5" y="-7.5" font-family="Helvetica,sans-Serif" font-size="10.00" fill="#000000">::is_first_touch_policy</text>
</a>
</g>
</g>
<!-- Node0&#45;&gt;Node4 -->
<g id="edge4" class="edge">
<title>Node0&#45;&gt;Node4</title>
<path fill="none" stroke="#191970" d="M27.6483,-379.9047C33.0371,-336.0997 56.9088,-155.2816 89,-109.5 150.0368,-22.4244 196.6625,-2.5 303,-2.5 303,-2.5 303,-2.5 803.5,-2.5 890.7285,-2.5 990.9033,-7.1472 1057.3608,-10.8846"/>
<polygon fill="#191970" stroke="#191970" points="1057.5472,-14.4008 1067.7302,-11.4757 1057.9457,-7.4122 1057.5472,-14.4008"/>
</g>
<!-- Node6 -->
<g id="node7" class="node">
<title>Node6</title>
<g id="a_node7"><a xlink:href="swdsm_8cpp_a0edf823a78daed8888e8e18468460617.html#a0edf823a78daed8888e8e18468460617" target="_top" xlink:title="Gives homenode for a given address. ">
<polygon fill="#ffffff" stroke="#000000" points="599,-347 599,-366 688,-366 688,-347 599,-347"/>
<text text-anchor="middle" x="643.5" y="-354" font-family="Helvetica,sans-Serif" font-size="10.00" fill="#000000">get_homenode</text>
</a>
</g>
</g>
<!-- Node0&#45;&gt;Node6 -->
<g id="edge6" class="edge">
<title>Node0&#45;&gt;Node6</title>
<path fill="none" stroke="#191970" d="M28.4205,-379.8798C33.6628,-356.1795 50.4791,-294.5818 89,-262.5 137.9749,-221.7118 163.8678,-232.2495 227,-223.5 293.916,-214.2261 313.2693,-207.9044 379,-223.5 476.1137,-246.5416 578.0879,-311.154 621.6706,-341.0126"/>
<polygon fill="#191970" stroke="#191970" points="619.8491,-344.0086 630.0616,-346.8291 623.837,-338.2556 619.8491,-344.0086"/>
</g>
<!-- Node8 -->
<g id="node9" class="node">
<title>Node8</title>
<g id="a_node9"><a xlink:href="swdsm_8cpp_ab58b1f9fa1b59d3060f241994979e18f.html#ab58b1f9fa1b59d3060f241994979e18f" target="_top" xlink:title="Gets the offset of an address on the local nodes part of the global memory. ">
<polygon fill="#ffffff" stroke="#000000" points="611,-499 611,-518 676,-518 676,-499 611,-499"/>
<text text-anchor="middle" x="643.5" y="-506" font-family="Helvetica,sans-Serif" font-size="10.00" fill="#000000">get_offset</text>
</a>
</g>
</g>
<!-- Node0&#45;&gt;Node8 -->
<g id="edge8" class="edge">
<title>Node0&#45;&gt;Node8</title>
<path fill="none" stroke="#191970" d="M27.2403,-399.3483C29.9869,-429.5605 42.0148,-522.2817 89,-578.5 133.7655,-632.0624 159.3453,-636.3034 227,-653.5 292.4736,-670.1422 313.5568,-670.2614 379,-653.5 478.6957,-627.9658 581.1974,-556.1856 623.4458,-524.2095"/>
<polygon fill="#191970" stroke="#191970" points="625.7139,-526.881 631.5239,-518.0213 621.457,-521.3241 625.7139,-526.881"/>
</g>
<!-- Node10 -->
<g id="node11" class="node">
<title>Node10</title>
<g id="a_node11"><a xlink:href="swdsm_8cpp_af770e3f703653ddb0967b85d88881ab7.html#af770e3f703653ddb0967b85d88881ab7" target="_top" xlink:title="Gives the ArgoDSM node id for the local process. ">
<polygon fill="#ffffff" stroke="#000000" points="281.5,-271 281.5,-290 324.5,-290 324.5,-271 281.5,-271"/>
<text text-anchor="middle" x="303" y="-278" font-family="Helvetica,sans-Serif" font-size="10.00" fill="#000000">getID</text>
</a>
</g>
</g>
<!-- Node0&#45;&gt;Node10 -->
<g id="edge10" class="edge">
<title>Node0&#45;&gt;Node10</title>
<path fill="none" stroke="#191970" d="M47.3091,-379.9015C83.4423,-363.4105 160.3144,-329.1014 227,-304.5 241.379,-299.1954 257.5431,-293.9881 271.2555,-289.787"/>
<polygon fill="#191970" stroke="#191970" points="272.6325,-293.0273 281.1935,-286.7856 270.6086,-286.3263 272.6325,-293.0273"/>
</g>
<!-- Node11 -->
<g id="node12" class="node">
<title>Node11</title>
<g id="a_node12"><a xlink:href="swdsm_8cpp_ae78e4f64152ef166f2a0f01a33b44050.html#ae78e4f64152ef166f2a0f01a33b44050" target="_top" xlink:title="Checks if something is power of 2. ">
<polygon fill="#ffffff" stroke="#000000" points="267,-233 267,-252 339,-252 339,-233 267,-233"/>
<text text-anchor="middle" x="303" y="-240" font-family="Helvetica,sans-Serif" font-size="10.00" fill="#000000">isPowerOf2</text>
</a>
</g>
</g>
<!-- Node0&#45;&gt;Node11 -->
<g id="edge11" class="edge">
<title>Node0&#45;&gt;Node11</title>
<path fill="none" stroke="#191970" d="M32.2139,-379.8605C41.9887,-364.1287 63.367,-332.8528 89,-314.5 139.9655,-278.0095 210.7573,-259.0134 256.7219,-249.8938"/>
<polygon fill="#191970" stroke="#191970" points="257.5377,-253.3014 266.7055,-247.9909 256.227,-246.4252 257.5377,-253.3014"/>
</g>
<!-- Node12 -->
<g id="node13" class="node">
<title>Node12</title>
<g id="a_node13"><a xlink:href="swdsm_8cpp_a97adb774a1a5a7a3505416a171c570e9.html#a97adb774a1a5a7a3505416a171c570e9" target="_top" xlink:title="load into cache helper function ">
<polygon fill="#ffffff" stroke="#000000" points="89,-404 89,-423 191,-423 191,-404 89,-404"/>
<text text-anchor="middle" x="140" y="-411" font-family="Helvetica,sans-Serif" font-size="10.00" fill="#000000">load_cache_entry</text>
</a>
</g>
</g>
<!-- Node0&#45;&gt;Node12 -->
<g id="edge12" class="edge">
<title>Node0&#45;&gt;Node12</title>
<path fill="none" stroke="#191970" d="M53.1107,-395.1269C62.6421,-397.1424 73.7714,-399.4957 84.8212,-401.8322"/>
<polygon fill="#191970" stroke="#191970" points="84.3907,-405.3185 94.8985,-403.9631 85.8389,-398.47 84.3907,-405.3185"/>
</g>
<!-- Node19 -->
<g id="node20" class="node">
<title>Node19</title>
<g id="a_node20"><a xlink:href="classwrite__buffer_a23b0dbc463111cacbbf83b267e76ac9f.html#a23b0dbc463111cacbbf83b267e76ac9f" target="_top" xlink:title="Adds a new element to the write buffer. ">
<polygon fill="#ffffff" stroke="#000000" points="90.5,-119 90.5,-138 189.5,-138 189.5,-119 90.5,-119"/>
<text text-anchor="middle" x="140" y="-126" font-family="Helvetica,sans-Serif" font-size="10.00" fill="#000000">write_buffer::add</text>
</a>
</g>
</g>
<!-- Node0&#45;&gt;Node19 -->
<g id="edge28" class="edge">
<title>Node0&#45;&gt;Node19</title>
<path fill="none" stroke="#191970" d="M28.1643,-379.8675C33.571,-350.1779 52.4413,-258.0068 89,-190.5 98.0598,-173.7708 111.9577,-157.2548 122.9587,-145.4808"/>
<polygon fill="#191970" stroke="#191970" points="125.607,-147.7764 130.0168,-138.1429 120.5619,-142.9237 125.607,-147.7764"/>
</g>
<!-- Node5 -->
<g id="node6" class="node">
<title>Node5</title>
<g id="a_node6"><a xlink:href="namespaceargo_1_1env_a25a08cb2d0d11432d640ec7173063339.html#a25a08cb2d0d11432d640ec7173063339" target="_top" xlink:title="get the allocation policy requested by environment variable ">
<polygon fill="#ffffff" stroke="#000000" points="1231,-24.5 1231,-54.5 1347,-54.5 1347,-24.5 1231,-24.5"/>
<text text-anchor="start" x="1239" y="-42.5" font-family="Helvetica,sans-Serif" font-size="10.00" fill="#000000">argo::env::allocation</text>
<text text-anchor="middle" x="1289" y="-31.5" font-family="Helvetica,sans-Serif" font-size="10.00" fill="#000000">_policy</text>
</a>
</g>
</g>
<!-- Node4&#45;&gt;Node5 -->
<g id="edge5" class="edge">
<title>Node4&#45;&gt;Node5</title>
<path fill="none" stroke="#191970" d="M1195.1073,-25.1925C1203.5754,-26.4829 1212.2863,-27.8103 1220.8281,-29.1119"/>
<polygon fill="#191970" stroke="#191970" points="1220.34,-32.5778 1230.7531,-30.6243 1221.3945,-25.6577 1220.34,-32.5778"/>
</g>
<!-- Node7 -->
<g id="node8" class="node">
<title>Node7</title>
<g id="a_node8"><a xlink:href="classargo_1_1data__distribution_1_1global__ptr_ac7d651586337d08cda18ef26ffcd34a0.html#ac7d651586337d08cda18ef26ffcd34a0" target="_top" xlink:title="return the home node of the value pointed to ">
<polygon fill="#ffffff" stroke="#000000" points="740,-341.5 740,-371.5 867,-371.5 867,-341.5 740,-341.5"/>
<text text-anchor="start" x="748" y="-359.5" font-family="Helvetica,sans-Serif" font-size="10.00" fill="#000000">argo::data_distribution</text>
<text text-anchor="middle" x="803.5" y="-348.5" font-family="Helvetica,sans-Serif" font-size="10.00" fill="#000000">::global_ptr::node</text>
</a>
</g>
</g>
<!-- Node6&#45;&gt;Node7 -->
<g id="edge7" class="edge">
<title>Node6&#45;&gt;Node7</title>
<path fill="none" stroke="#191970" d="M688.0689,-356.5C700.9412,-356.5 715.3472,-356.5 729.5013,-356.5"/>
<polygon fill="#191970" stroke="#191970" points="729.7376,-360.0001 739.7375,-356.5 729.7375,-353.0001 729.7376,-360.0001"/>
</g>
<!-- Node9 -->
<g id="node10" class="node">
<title>Node9</title>
<g id="a_node10"><a xlink:href="classargo_1_1data__distribution_1_1global__ptr_ad8c21c408fa2b926cfd9acfd87e8e4e6.html#ad8c21c408fa2b926cfd9acfd87e8e4e6" target="_top" xlink:title="return the offset on the home node&#39;s local memory share ">
<polygon fill="#ffffff" stroke="#000000" points="740,-493.5 740,-523.5 867,-523.5 867,-493.5 740,-493.5"/>
<text text-anchor="start" x="748" y="-511.5" font-family="Helvetica,sans-Serif" font-size="10.00" fill="#000000">argo::data_distribution</text>
<text text-anchor="middle" x="803.5" y="-500.5" font-family="Helvetica,sans-Serif" font-size="10.00" fill="#000000">::global_ptr::offset</text>
</a>
</g>
</g>
<!-- Node8&#45;&gt;Node9 -->
<g id="edge9" class="edge">
<title>Node8&#45;&gt;Node9</title>
<path fill="none" stroke="#191970" d="M676.2645,-508.5C691.764,-508.5 710.9491,-508.5 729.6797,-508.5"/>
<polygon fill="#191970" stroke="#191970" points="729.7106,-512.0001 739.7106,-508.5 729.7105,-505.0001 729.7106,-512.0001"/>
</g>
<!-- Node12&#45;&gt;Node1 -->
<g id="edge15" class="edge">
<title>Node12&#45;&gt;Node1</title>
<path fill="none" stroke="#191970" d="M141.1667,-423.2927C145.6005,-455.9901 164.4512,-562.328 227,-615.5 231.9642,-619.72 237.7319,-623.026 243.8286,-625.6122"/>
<polygon fill="#191970" stroke="#191970" points="243.017,-629.039 253.6116,-629.1118 245.3747,-622.448 243.017,-629.039"/>
</g>
<!-- Node12&#45;&gt;Node2 -->
<g id="edge26" class="edge">
<title>Node12&#45;&gt;Node2</title>
<path fill="none" stroke="#191970" d="M142.8606,-423.3105C151.1905,-450.163 177.9975,-525.5181 227,-565.5 231.8733,-569.4762 237.4003,-572.8279 243.1974,-575.6517"/>
<polygon fill="#191970" stroke="#191970" points="241.9069,-578.9068 252.4743,-579.6683 244.6883,-572.4831 241.9069,-578.9068"/>
</g>
<!-- Node12&#45;&gt;Node3 -->
<g id="edge14" class="edge">
<title>Node12&#45;&gt;Node3</title>
<path fill="none" stroke="#191970" d="M148.055,-423.0808C158.1961,-435.1908 176.0945,-456.7245 191,-475.5 207.3602,-496.108 205.456,-507.3937 227,-522.5 233.6046,-527.131 241.1423,-530.8974 248.8456,-533.9529"/>
<polygon fill="#191970" stroke="#191970" points="247.6781,-537.2524 258.2726,-537.3376 250.0436,-530.6642 247.6781,-537.2524"/>
</g>
<!-- Node12&#45;&gt;Node6 -->
<g id="edge16" class="edge">
<title>Node12&#45;&gt;Node6</title>
<path fill="none" stroke="#191970" d="M191.2168,-410.4873C268.875,-405.5256 420.9355,-394.2697 549,-375.5 562.5902,-373.5082 577.1801,-370.8404 590.7316,-368.135"/>
<polygon fill="#191970" stroke="#191970" points="591.7597,-371.4974 600.8584,-366.0693 590.3606,-364.6387 591.7597,-371.4974"/>
</g>
<!-- Node12&#45;&gt;Node8 -->
<g id="edge17" class="edge">
<title>Node12&#45;&gt;Node8</title>
<path fill="none" stroke="#191970" d="M171.5997,-423.052C178.44,-426.0296 185.3179,-429.8015 191,-434.5 213.515,-453.1173 201.6234,-475.0239 227,-489.5 289.6593,-525.2441 507.2287,-516.8462 600.5021,-511.375"/>
<polygon fill="#191970" stroke="#191970" points="600.9457,-514.8547 610.7165,-510.7582 600.5236,-507.8674 600.9457,-514.8547"/>
</g>
<!-- Node12&#45;&gt;Node10 -->
<g id="edge13" class="edge">
<title>Node12&#45;&gt;Node10</title>
<path fill="none" stroke="#191970" d="M147.2065,-403.828C166.1627,-378.4812 216.6694,-311.5907 227,-304.5 240.1272,-295.4897 256.8086,-289.7305 271.1967,-286.1202"/>
<polygon fill="#191970" stroke="#191970" points="272.2062,-289.4802 281.1846,-283.8553 270.6582,-282.6535 272.2062,-289.4802"/>
</g>
<!-- Node12&#45;&gt;Node11 -->
<g id="edge27" class="edge">
<title>Node12&#45;&gt;Node11</title>
<path fill="none" stroke="#191970" d="M142.5971,-403.8895C150.4082,-376.8944 176.3321,-299.8551 227,-261.5 235.6285,-254.9683 246.2356,-250.6614 256.7576,-247.8272"/>
<polygon fill="#191970" stroke="#191970" points="257.7868,-251.1822 266.7523,-245.5367 256.2231,-244.3591 257.7868,-251.1822"/>
</g>
<!-- Node13 -->
<g id="node14" class="node">
<title>Node13</title>
<g id="a_node14"><a xlink:href="swdsm_8cpp_a4c0ee0be20a4d5b19eef1a568e6ce084.html#a4c0ee0be20a4d5b19eef1a568e6ce084" target="_top" xlink:title="Gives homenode for a given address. ">
<polygon fill="#ffffff" stroke="#000000" points="594.5,-153 594.5,-172 692.5,-172 692.5,-153 594.5,-153"/>
<text text-anchor="middle" x="643.5" y="-160" font-family="Helvetica,sans-Serif" font-size="10.00" fill="#000000">peek_homenode</text>
</a>
</g>
</g>
<!-- Node12&#45;&gt;Node13 -->
<g id="edge18" class="edge">
<title>Node12&#45;&gt;Node13</title>
<path fill="none" stroke="#191970" d="M152.3944,-403.8672C168.772,-391.4676 198.8459,-369.8189 227,-355.5 291.1718,-322.8628 313.1297,-328.5571 379,-299.5 469.0805,-259.7631 571.4647,-203.3592 618.0315,-177.0557"/>
<polygon fill="#191970" stroke="#191970" points="619.8654,-180.0394 626.8389,-172.0631 616.4134,-173.9497 619.8654,-180.0394"/>
</g>
<!-- Node15 -->
<g id="node16" class="node">
<title>Node15</title>
<g id="a_node16"><a xlink:href="swdsm_8cpp_a6383bfb5455d7790849abf059e2db37f.html#a6383bfb5455d7790849abf059e2db37f" target="_top" xlink:title="Gets the offset of an address on the local nodes part of the global memory. ">
<polygon fill="#ffffff" stroke="#000000" points="266,-461 266,-480 340,-480 340,-461 266,-461"/>
<text text-anchor="middle" x="303" y="-468" font-family="Helvetica,sans-Serif" font-size="10.00" fill="#000000">peek_offset</text>
</a>
</g>
</g>
<!-- Node12&#45;&gt;Node15 -->
<g id="edge20" class="edge">
<title>Node12&#45;&gt;Node15</title>
<path fill="none" stroke="#191970" d="M159.3256,-423.0545C176.7163,-431.382 203.13,-443.3668 227,-451.5 236.2681,-454.6579 246.3339,-457.5423 256.0157,-460.0573"/>
<polygon fill="#191970" stroke="#191970" points="255.3656,-463.5026 265.9167,-462.5404 257.0685,-456.7128 255.3656,-463.5026"/>
</g>
<!-- Node17 -->
<g id="node18" class="node">
<title>Node17</title>
<g id="a_node18"><a xlink:href="swdsm_8cpp_ae0f2d0961e80b2903b3f54c9e6c68658.html#ae0f2d0961e80b2903b3f54c9e6c68658" target="_top" xlink:title="stores a page remotely &#45; only writing back what has been written locally since last synchronization p...">
<polygon fill="#ffffff" stroke="#000000" points="439,-347 439,-366 525,-366 525,-347 439,-347"/>
<text text-anchor="middle" x="482" y="-354" font-family="Helvetica,sans-Serif" font-size="10.00" fill="#000000">storepageDIFF</text>
</a>
</g>
</g>
<!-- Node12&#45;&gt;Node17 -->
<g id="edge22" class="edge">
<title>Node12&#45;&gt;Node17</title>
<path fill="none" stroke="#191970" d="M160.6032,-403.8778C177.9286,-396.2308 203.5542,-385.945 227,-380.5 295.4222,-364.6098 376.4987,-359.1917 428.5594,-357.3723"/>
<polygon fill="#191970" stroke="#191970" points="428.6885,-360.87 438.5723,-357.0543 428.4662,-353.8736 428.6885,-360.87"/>
</g>
<!-- Node18 -->
<g id="node19" class="node">
<title>Node18</title>
<g id="a_node19"><a xlink:href="classwrite__buffer_a1fe5684a5d07bd1418b0d66663f9bfdf.html#a1fe5684a5d07bd1418b0d66663f9bfdf" target="_top" xlink:title="If val exists in buffer, delete it. Else, do nothing. ">
<polygon fill="#ffffff" stroke="#000000" points="249,-423 249,-442 357,-442 357,-423 249,-423"/>
<text text-anchor="middle" x="303" y="-430" font-family="Helvetica,sans-Serif" font-size="10.00" fill="#000000">write_buffer::erase</text>
</a>
</g>
</g>
<!-- Node12&#45;&gt;Node18 -->
<g id="edge25" class="edge">
<title>Node12&#45;&gt;Node18</title>
<path fill="none" stroke="#191970" d="M191.127,-419.4596C206.2148,-421.2183 222.9233,-423.1659 238.7263,-425.008"/>
<polygon fill="#191970" stroke="#191970" points="238.6162,-428.5188 248.9542,-426.2002 239.4267,-421.5658 238.6162,-428.5188"/>
</g>
<!-- Node14 -->
<g id="node15" class="node">
<title>Node14</title>
<g id="a_node15"><a xlink:href="classargo_1_1data__distribution_1_1global__ptr_a3e2cdd4d323ef91174615e27ab94e342.html#a3e2cdd4d323ef91174615e27ab94e342" target="_top" xlink:title="return the home node of the value pointed to, or a default value if the page has not yet been first&#45;t...">
<polygon fill="#ffffff" stroke="#000000" points="738,-127.5 738,-157.5 869,-157.5 869,-127.5 738,-127.5"/>
<text text-anchor="start" x="746" y="-145.5" font-family="Helvetica,sans-Serif" font-size="10.00" fill="#000000">argo::data_distribution</text>
<text text-anchor="middle" x="803.5" y="-134.5" font-family="Helvetica,sans-Serif" font-size="10.00" fill="#000000">::global_ptr::peek_node</text>
</a>
</g>
</g>
<!-- Node13&#45;&gt;Node14 -->
<g id="edge19" class="edge">
<title>Node13&#45;&gt;Node14</title>
<path fill="none" stroke="#191970" d="M692.8108,-156.3361C703.9296,-154.9463 715.9807,-153.4399 727.9011,-151.9499"/>
<polygon fill="#191970" stroke="#191970" points="728.3715,-155.4184 737.8601,-150.705 727.5031,-148.4725 728.3715,-155.4184"/>
</g>
<!-- Node16 -->
<g id="node17" class="node">
<title>Node16</title>
<g id="a_node17"><a xlink:href="classargo_1_1data__distribution_1_1global__ptr_aac6a3f5ce7b21b72cb7179c82aa1ffbc.html#aac6a3f5ce7b21b72cb7179c82aa1ffbc" target="_top" xlink:title="return the offset on the home node&#39;s local memory share or a default value if the page has not yet be...">
<polygon fill="#ffffff" stroke="#000000" points="415,-449.5 415,-479.5 549,-479.5 549,-449.5 415,-449.5"/>
<text text-anchor="start" x="423" y="-467.5" font-family="Helvetica,sans-Serif" font-size="10.00" fill="#000000">argo::data_distribution</text>
<text text-anchor="middle" x="482" y="-456.5" font-family="Helvetica,sans-Serif" font-size="10.00" fill="#000000">::global_ptr::peek_offset</text>
</a>
</g>
</g>
<!-- Node15&#45;&gt;Node16 -->
<g id="edge21" class="edge">
<title>Node15&#45;&gt;Node16</title>
<path fill="none" stroke="#191970" d="M340.0889,-469.2568C358.8262,-468.6287 382.2955,-467.842 404.7216,-467.0903"/>
<polygon fill="#191970" stroke="#191970" points="405.0542,-470.5813 414.9313,-466.7481 404.8196,-463.5852 405.0542,-470.5813"/>
</g>
<!-- Node17&#45;&gt;Node6 -->
<g id="edge23" class="edge">
<title>Node17&#45;&gt;Node6</title>
<path fill="none" stroke="#191970" d="M525.279,-356.5C544.7819,-356.5 568.0319,-356.5 588.7321,-356.5"/>
<polygon fill="#191970" stroke="#191970" points="588.9754,-360.0001 598.9753,-356.5 588.9753,-353.0001 588.9754,-360.0001"/>
</g>
<!-- Node17&#45;&gt;Node8 -->
<g id="edge24" class="edge">
<title>Node17&#45;&gt;Node8</title>
<path fill="none" stroke="#191970" d="M492.1025,-366.0083C518.9532,-391.2795 592.3375,-460.3471 626.0917,-492.1157"/>
<polygon fill="#191970" stroke="#191970" points="623.7205,-494.6903 633.4013,-498.9953 628.518,-489.5929 623.7205,-494.6903"/>
</g>
<!-- Node20 -->
<g id="node21" class="node">
<title>Node20</title>
<g id="a_node21"><a xlink:href="classwrite__buffer_a6103a2e16740ac4064c5936dbe5ea06d.html#a6103a2e16740ac4064c5936dbe5ea06d" target="_top" xlink:title="Check if val exists in the buffer. ">
<polygon fill="#ffffff" stroke="#000000" points="254,-119 254,-138 352,-138 352,-119 254,-119"/>
<text text-anchor="middle" x="303" y="-126" font-family="Helvetica,sans-Serif" font-size="10.00" fill="#000000">write_buffer::has</text>
</a>
</g>
</g>
<!-- Node19&#45;&gt;Node20 -->
<g id="edge29" class="edge">
<title>Node19&#45;&gt;Node20</title>
<path fill="none" stroke="#191970" d="M189.7911,-128.5C206.7743,-128.5 225.9338,-128.5 243.5958,-128.5"/>
<polygon fill="#191970" stroke="#191970" points="243.7941,-132.0001 253.7941,-128.5 243.794,-125.0001 243.7941,-132.0001"/>
</g>
<!-- Node21 -->
<g id="node22" class="node">
<title>Node21</title>
<g id="a_node22"><a xlink:href="classwrite__buffer_aec0c6161708f29935031583759393cfe.html#aec0c6161708f29935031583759393cfe" target="_top" xlink:title="Get the size of the buffer. ">
<polygon fill="#ffffff" stroke="#000000" points="252.5,-31 252.5,-50 353.5,-50 353.5,-31 252.5,-31"/>
<text text-anchor="middle" x="303" y="-38" font-family="Helvetica,sans-Serif" font-size="10.00" fill="#000000">write_buffer::size</text>
</a>
</g>
</g>
<!-- Node19&#45;&gt;Node21 -->
<g id="edge30" class="edge">
<title>Node19&#45;&gt;Node21</title>
<path fill="none" stroke="#191970" d="M149.2236,-118.9161C164.1572,-103.9632 195.1805,-75.1759 227,-59.5 231.9564,-57.0582 237.2536,-54.913 242.6587,-53.0316"/>
<polygon fill="#191970" stroke="#191970" points="243.9811,-56.284 252.4539,-49.9231 241.8637,-49.6119 243.9811,-56.284"/>
</g>
<!-- Node22 -->
<g id="node23" class="node">
<title>Node22</title>
<g id="a_node23"><a xlink:href="classwrite__buffer_aa6a1c2c3aa3a7cde744bbca3b14f599a.html#aa6a1c2c3aa3a7cde744bbca3b14f599a" target="_top" xlink:title="Flushes first _write_back_size elements of the ArgoDSM write buffer to memory. ">
<polygon fill="#ffffff" stroke="#000000" points="251,-69.5 251,-99.5 355,-99.5 355,-69.5 251,-69.5"/>
<text text-anchor="start" x="259" y="-87.5" font-family="Helvetica,sans-Serif" font-size="10.00" fill="#000000">write_buffer::flush</text>
<text text-anchor="middle" x="303" y="-76.5" font-family="Helvetica,sans-Serif" font-size="10.00" fill="#000000">_partial</text>
</a>
</g>
</g>
<!-- Node19&#45;&gt;Node22 -->
<g id="edge31" class="edge">
<title>Node19&#45;&gt;Node22</title>
<path fill="none" stroke="#191970" d="M175.3686,-118.9527C194.6173,-113.7567 218.985,-107.1789 241.2577,-101.1666"/>
<polygon fill="#191970" stroke="#191970" points="242.2424,-104.5262 250.9846,-98.541 240.418,-97.7681 242.2424,-104.5262"/>
</g>
<!-- Node32 -->
<g id="node33" class="node">
<title>Node32</title>
<g id="a_node33"><a xlink:href="classwrite__buffer_ae51b3a3d02d35cc4f280690b6860d20f.html#ae51b3a3d02d35cc4f280690b6860d20f" target="_top" xlink:title="Constructs a new element and emplaces it at the back of the buffer. ">
<polygon fill="#ffffff" stroke="#000000" points="227,-157 227,-176 379,-176 379,-157 227,-157"/>
<text text-anchor="middle" x="303" y="-164" font-family="Helvetica,sans-Serif" font-size="10.00" fill="#000000">write_buffer::emplace_back</text>
</a>
</g>
</g>
<!-- Node19&#45;&gt;Node32 -->
<g id="edge45" class="edge">
<title>Node19&#45;&gt;Node32</title>
<path fill="none" stroke="#191970" d="M181.1318,-138.089C202.7383,-143.1261 229.409,-149.3438 252.2858,-154.6771"/>
<polygon fill="#191970" stroke="#191970" points="251.6305,-158.1181 262.164,-156.9799 253.2198,-151.3009 251.6305,-158.1181"/>
</g>
<!-- Node22&#45;&gt;Node17 -->
<g id="edge43" class="edge">
<title>Node22&#45;&gt;Node17</title>
<path fill="none" stroke="#191970" d="M355.3321,-95.0814C363.9618,-98.595 372.2721,-103.2729 379,-109.5 414.494,-142.3518 460.3785,-285.1291 476.2786,-337.3114"/>
<polygon fill="#191970" stroke="#191970" points="472.9622,-338.4367 479.2019,-346.9993 479.6638,-336.4145 472.9622,-338.4367"/>
</g>
<!-- Node23 -->
<g id="node24" class="node">
<title>Node23</title>
<g id="a_node24"><a xlink:href="classwrite__buffer_a9e8cf81e623c4bb67f687379f8709a53.html#a9e8cf81e623c4bb67f687379f8709a53" target="_top" xlink:title="Sorts the first _write_back_size elements by home node id in ascending order. ">
<polygon fill="#ffffff" stroke="#000000" points="432,-39.5 432,-69.5 532,-69.5 532,-39.5 432,-39.5"/>
<text text-anchor="start" x="440" y="-57.5" font-family="Helvetica,sans-Serif" font-size="10.00" fill="#000000">write_buffer::sort</text>
<text text-anchor="middle" x="482" y="-46.5" font-family="Helvetica,sans-Serif" font-size="10.00" fill="#000000">_first</text>
</a>
</g>
</g>
<!-- Node22&#45;&gt;Node23 -->
<g id="edge32" class="edge">
<title>Node22&#45;&gt;Node23</title>
<path fill="none" stroke="#191970" d="M355.2554,-75.7421C376.101,-72.2484 400.2274,-68.2049 421.8008,-64.5892"/>
<polygon fill="#191970" stroke="#191970" points="422.5515,-68.0123 431.8354,-62.9075 421.3944,-61.1086 422.5515,-68.0123"/>
</g>
<!-- Node30 -->
<g id="node31" class="node">
<title>Node30</title>
<g id="a_node31"><a xlink:href="classwrite__buffer_ae065d3ee59035ad508eb8ce6670d2c89.html#ae065d3ee59035ad508eb8ce6670d2c89" target="_top" xlink:title="Removes the front element from the buffer and returns it. ">
<polygon fill="#ffffff" stroke="#000000" points="432.5,-127 432.5,-146 531.5,-146 531.5,-127 432.5,-127"/>
<text text-anchor="middle" x="482" y="-134" font-family="Helvetica,sans-Serif" font-size="10.00" fill="#000000">write_buffer::pop</text>
</a>
</g>
</g>
<!-- Node22&#45;&gt;Node30 -->
<g id="edge42" class="edge">
<title>Node22&#45;&gt;Node30</title>
<path fill="none" stroke="#191970" d="M353.7043,-99.5587C372.8942,-105.2266 394.9424,-111.7013 415,-117.5 422.5951,-119.6958 430.6816,-122.0095 438.5129,-124.2376"/>
<polygon fill="#191970" stroke="#191970" points="437.6641,-127.6349 448.2398,-126.9988 439.5757,-120.9009 437.6641,-127.6349"/>
</g>
<!-- Node31 -->
<g id="node32" class="node">
<title>Node31</title>
<g id="a_node32"><a xlink:href="namespaceargo_a79c9492f3fd441bfa6261dffbc0f02f4.html#a79c9492f3fd441bfa6261dffbc0f02f4" target="_top" xlink:title="Number of ArgoDSM nodes being run. ">
<polygon fill="#ffffff" stroke="#000000" points="416.5,-89 416.5,-108 547.5,-108 547.5,-89 416.5,-89"/>
<text text-anchor="middle" x="482" y="-96" font-family="Helvetica,sans-Serif" font-size="10.00" fill="#000000">argo::number_of_nodes</text>
</a>
</g>
</g>
<!-- Node22&#45;&gt;Node31 -->
<g id="edge44" class="edge">
<title>Node22&#45;&gt;Node31</title>
<path fill="none" stroke="#191970" d="M355.2554,-88.587C371.2139,-89.8352 389.0952,-91.2337 406.2818,-92.5779"/>
<polygon fill="#191970" stroke="#191970" points="406.0585,-96.071 416.301,-93.3615 406.6044,-89.0924 406.0585,-96.071"/>
</g>
<!-- Node24 -->
<g id="node25" class="node">
<title>Node24</title>
<g id="a_node25"><a xlink:href="namespaceargo_a48dc17c94275df10a8e7f3959cbf0191.html#a48dc17c94275df10a8e7f3959cbf0191" target="_top" xlink:title="Get the ArgoDSM node id where addr is physically backed. ">
<polygon fill="#ffffff" stroke="#000000" points="585,-53 585,-72 702,-72 702,-53 585,-53"/>
<text text-anchor="middle" x="643.5" y="-60" font-family="Helvetica,sans-Serif" font-size="10.00" fill="#000000">argo::get_homenode</text>
</a>
</g>
</g>
<!-- Node23&#45;&gt;Node24 -->
<g id="edge33" class="edge">
<title>Node23&#45;&gt;Node24</title>
<path fill="none" stroke="#191970" d="M532.2143,-56.9874C545.6262,-57.6518 560.356,-58.3814 574.5847,-59.0862"/>
<polygon fill="#191970" stroke="#191970" points="574.6698,-62.5947 584.8308,-59.5938 575.0162,-55.6032 574.6698,-62.5947"/>
</g>
<!-- Node24&#45;&gt;Node14 -->
<g id="edge34" class="edge">
<title>Node24&#45;&gt;Node14</title>
<path fill="none" stroke="#191970" d="M662.7997,-72.1499C687.8392,-84.6696 732.1249,-106.8125 764.3388,-122.9194"/>
<polygon fill="#191970" stroke="#191970" points="762.9859,-126.156 773.4955,-127.4977 766.1164,-119.895 762.9859,-126.156"/>
</g>
<!-- Node25 -->
<g id="node26" class="node">
<title>Node25</title>
<g id="a_node26"><a xlink:href="namespaceargo_a2f35b6b6e0af76fb8fb47f2031d6f58e.html#a2f35b6b6e0af76fb8fb47f2031d6f58e" target="_top" xlink:title="Get the block size of the current allocation policy. ">
<polygon fill="#ffffff" stroke="#000000" points="745.5,-69 745.5,-88 861.5,-88 861.5,-69 745.5,-69"/>
<text text-anchor="middle" x="803.5" y="-76" font-family="Helvetica,sans-Serif" font-size="10.00" fill="#000000">argo::get_block_size</text>
</a>
</g>
</g>
<!-- Node24&#45;&gt;Node25 -->
<g id="edge35" class="edge">
<title>Node24&#45;&gt;Node25</title>
<path fill="none" stroke="#191970" d="M702.1696,-68.367C712.9585,-69.4458 724.3057,-70.5806 735.3452,-71.6845"/>
<polygon fill="#191970" stroke="#191970" points="735.0735,-75.1747 745.3722,-72.6872 735.7701,-68.2095 735.0735,-75.1747"/>
</g>
<!-- Node29 -->
<g id="node30" class="node">
<title>Node29</title>
<g id="a_node30"><a xlink:href="namespaceargo_a2b6b342c320b2a608d317a328fc46d83.html#a2b6b342c320b2a608d317a328fc46d83" target="_top" xlink:title="Size of memory which is the portion of memory owned by this node. ">
<polygon fill="#ffffff" stroke="#000000" points="754.5,-31 754.5,-50 852.5,-50 852.5,-31 754.5,-31"/>
<text text-anchor="middle" x="803.5" y="-38" font-family="Helvetica,sans-Serif" font-size="10.00" fill="#000000">argo::chunk_size</text>
</a>
</g>
</g>
<!-- Node24&#45;&gt;Node29 -->
<g id="edge41" class="edge">
<title>Node24&#45;&gt;Node29</title>
<path fill="none" stroke="#191970" d="M702.1696,-54.4329C715.8152,-52.5567 730.3541,-50.5576 744.0338,-48.6766"/>
<polygon fill="#191970" stroke="#191970" points="744.8683,-52.0949 754.2983,-47.2652 743.9147,-45.1601 744.8683,-52.0949"/>
</g>
<!-- Node26 -->
<g id="node27" class="node">
<title>Node26</title>
<g id="a_node27"><a xlink:href="namespaceargo_1_1data__distribution_a2a70ed49553953957c3a28aa755d7ac8.html#a2a70ed49553953957c3a28aa755d7ac8" target="_top" xlink:title="based on the chosen policy, gets the policy block size ">
<polygon fill="#ffffff" stroke="#000000" points="905,-56.5 905,-86.5 1032,-86.5 1032,-56.5 905,-56.5"/>
<text text-anchor="start" x="913" y="-74.5" font-family="Helvetica,sans-Serif" font-size="10.00" fill="#000000">argo::data_distribution</text>
<text text-anchor="middle" x="968.5" y="-63.5" font-family="Helvetica,sans-Serif" font-size="10.00" fill="#000000">::policy_block_size</text>
</a>
</g>
</g>
<!-- Node25&#45;&gt;Node26 -->
<g id="edge36" class="edge">
<title>Node25&#45;&gt;Node26</title>
<path fill="none" stroke="#191970" d="M861.6728,-76.0321C872.3993,-75.577 883.7284,-75.0964 894.841,-74.6249"/>
<polygon fill="#191970" stroke="#191970" points="895.1194,-78.1164 904.9621,-74.1955 894.8227,-71.1226 895.1194,-78.1164"/>
</g>
<!-- Node26&#45;&gt;Node4 -->
<g id="edge40" class="edge">
<title>Node26&#45;&gt;Node4</title>
<path fill="none" stroke="#191970" d="M1012.181,-56.493C1032.4618,-49.5254 1056.7572,-41.1785 1078.1164,-33.8404"/>
<polygon fill="#191970" stroke="#191970" points="1079.3782,-37.1077 1087.6984,-30.5484 1077.1038,-30.4875 1079.3782,-37.1077"/>
</g>
<!-- Node27 -->
<g id="node28" class="node">
<title>Node27</title>
<g id="a_node28"><a xlink:href="namespaceargo_1_1env_a30775a9aa41b956df7474a2c0cc317aa.html#a30775a9aa41b956df7474a2c0cc317aa" target="_top" xlink:title="get the allocation block size requested by environment variable ">
<polygon fill="#ffffff" stroke="#000000" points="1073.5,-98.5 1073.5,-128.5 1189.5,-128.5 1189.5,-98.5 1073.5,-98.5"/>
<text text-anchor="start" x="1081.5" y="-116.5" font-family="Helvetica,sans-Serif" font-size="10.00" fill="#000000">argo::env::allocation</text>
<text text-anchor="middle" x="1131.5" y="-105.5" font-family="Helvetica,sans-Serif" font-size="10.00" fill="#000000">_block_size</text>
</a>
</g>
</g>
<!-- Node26&#45;&gt;Node27 -->
<g id="edge37" class="edge">
<title>Node26&#45;&gt;Node27</title>
<path fill="none" stroke="#191970" d="M1026.8863,-86.5443C1038.6619,-89.5785 1051.1393,-92.7936 1063.2186,-95.906"/>
<polygon fill="#191970" stroke="#191970" points="1062.6905,-99.3842 1073.2475,-98.4902 1064.4371,-92.6056 1062.6905,-99.3842"/>
</g>
<!-- Node28 -->
<g id="node29" class="node">
<title>Node28</title>
<g id="a_node29"><a xlink:href="namespaceargo_1_1data__distribution_a1bb3f2dcecd237990e6dc67764f06860.html#a1bb3f2dcecd237990e6dc67764f06860" target="_top" xlink:title="identifies if we distribute data using a cyclic memory policy ">
<polygon fill="#ffffff" stroke="#000000" points="1068,-49.5 1068,-79.5 1195,-79.5 1195,-49.5 1068,-49.5"/>
<text text-anchor="start" x="1076" y="-67.5" font-family="Helvetica,sans-Serif" font-size="10.00" fill="#000000">argo::data_distribution</text>
<text text-anchor="middle" x="1131.5" y="-56.5" font-family="Helvetica,sans-Serif" font-size="10.00" fill="#000000">::is_cyclic_policy</text>
</a>
</g>
</g>
<!-- Node26&#45;&gt;Node28 -->
<g id="edge38" class="edge">
<title>Node26&#45;&gt;Node28</title>
<path fill="none" stroke="#191970" d="M1032.4541,-68.7535C1040.7606,-68.3968 1049.3224,-68.0291 1057.7718,-67.6662"/>
<polygon fill="#191970" stroke="#191970" points="1058.1571,-71.153 1067.9977,-67.2271 1057.8567,-64.1595 1058.1571,-71.153"/>
</g>
<!-- Node28&#45;&gt;Node5 -->
<g id="edge39" class="edge">
<title>Node28&#45;&gt;Node5</title>
<path fill="none" stroke="#191970" d="M1195.1073,-54.4036C1203.5754,-53.0595 1212.2863,-51.6768 1220.8281,-50.3209"/>
<polygon fill="#191970" stroke="#191970" points="1221.4255,-53.77 1230.7531,-48.7455 1220.3281,-46.8566 1221.4255,-53.77"/>
</g>
</g>
</svg>
        <g id="navigator" transform="translate(0 0)" fill="#404254">
                <rect fill="#f2f5e9" fill-opacity="0.5" stroke="#606060" stroke-width=".5" x="0" y="0" width="60" height="60"/>
                <use id="zoomplus" xlink:href="#zoomPlus" x="17" y="9" onmousedown="handleZoom(evt,'in')"/>
                <use id="zoomminus" xlink:href="#zoomMin" x="42" y="9" onmousedown="handleZoom(evt,'out')"/>
                <use id="reset" xlink:href="#resetDef" x="30" y="36" onmousedown="handleReset()"/>
                <g id="arrowUp" xlink:href="#dirArrow" transform="translate(30 24)" onmousedown="handlePan(0,-1)">
                  <use xlink:href="#rim" fill="#404040">
                        <set attributeName="fill" to="#808080" begin="arrowUp.mouseover" end="arrowUp.mouseout"/>
                  </use>
                  <path fill="none" stroke="white" stroke-width="1.5" d="M0,-3.0v7 M-2.5,-0.5L0,-3.0L2.5,-0.5"/>
                </g>
                <g id="arrowRight" xlink:href="#dirArrow" transform="rotate(90) translate(36 -43)" onmousedown="handlePan(1,0)">
                  <use xlink:href="#rim" fill="#404040">
                        <set attributeName="fill" to="#808080" begin="arrowRight.mouseover" end="arrowRight.mouseout"/>
                  </use>
                  <path fill="none" stroke="white" stroke-width="1.5" d="M0,-3.0v7 M-2.5,-0.5L0,-3.0L2.5,-0.5"/>
                </g>
                <g id="arrowDown" xlink:href="#dirArrow" transform="rotate(180) translate(-30 -48)" onmousedown="handlePan(0,1)">
                  <use xlink:href="#rim" fill="#404040">
                        <set attributeName="fill" to="#808080" begin="arrowDown.mouseover" end="arrowDown.mouseout"/>
                  </use>
                  <path fill="none" stroke="white" stroke-width="1.5" d="M0,-3.0v7 M-2.5,-0.5L0,-3.0L2.5,-0.5"/>
                </g>
                <g id="arrowLeft" xlink:href="#dirArrow" transform="rotate(270) translate(-36 17)" onmousedown="handlePan(-1,0)">
                  <use xlink:href="#rim" fill="#404040">
                        <set attributeName="fill" to="#808080" begin="arrowLeft.mouseover" end="arrowLeft.mouseout"/>
                  </use>
                  <path fill="none" stroke="white" stroke-width="1.5" d="M0,-3.0v7 M-2.5,-0.5L0,-3.0L2.5,-0.5"/>
                </g>
        </g>
        <svg viewBox="0 0 15 15" width="100%" height="30px" preserveAspectRatio="xMaxYMin meet">
         <g id="arrow_out" transform="scale(0.3 0.3)">
          <a xlink:href="swdsm_8cpp_a8b00f264b792522b179fbc9c818187bd_a8b00f264b792522b179fbc9c818187bd_cgraph_org.svg" target="_base">
           <rect id="button" ry="5" rx="5" y="6" x="6" height="38" width="38"
                fill="#f2f5e9" fill-opacity="0.5" stroke="#606060" stroke-width="1.0"/>
           <path id="arrow"
             d="M 11.500037,31.436501 C 11.940474,20.09759 22.043105,11.32322 32.158766,21.979434 L 37.068811,17.246167 C 37.068811,17.246167 37.088388,32 37.088388,32 L 22.160133,31.978069 C 22.160133,31.978069 26.997745,27.140456 26.997745,27.140456 C 18.528582,18.264221 13.291696,25.230495 11.500037,31.436501 z"
             style="fill:#404040;"/>
          </a>
         </g>
        </svg>
</svg>
