<?xml version="1.0" encoding="UTF-8" standalone="no"?>
<!DOCTYPE svg PUBLIC "-//W3C//DTD SVG 1.1//EN"
 "http://www.w3.org/Graphics/SVG/1.1/DTD/svg11.dtd">
<!-- Generated by graphviz version 2.40.1 (20161225.0304)
 -->
<!-- Title: self_invalidation Pages: 1 -->
<svg width="702pt" height="198pt"
 viewBox="0.00 0.00 702.00 198.00" xmlns="http://www.w3.org/2000/svg" xmlns:xlink="http://www.w3.org/1999/xlink">
<g id="graph0" class="graph" transform="scale(1 1) rotate(0) translate(4 194)">
<title>self_invalidation</title>
<polygon fill="#ffffff" stroke="transparent" points="-4,4 -4,-194 698,-194 698,4 -4,4"/>
<!-- Node21 -->
<g id="node1" class="node">
<title>Node21</title>
<polygon fill="#bfbfbf" stroke="#000000" points="0,-66.5 0,-85.5 98,-85.5 98,-66.5 0,-66.5"/>
<text text-anchor="middle" x="49" y="-73.5" font-family="Helvetica,sans-Serif" font-size="10.00" fill="#000000">self_invalidation</text>
</g>
<!-- Node22 -->
<g id="node2" class="node">
<title>Node22</title>
<g id="a_node2"><a xlink:href="swdsm_8h_ad3f5bdae81c60ac704dda7372792427d.html#ad3f5bdae81c60ac704dda7372792427d" target="_top" xlink:title="Global barrier for ArgoDSM &#45; needs to be called by every thread in the system that need coherent view...">
<polygon fill="#ffffff" stroke="#000000" points="134,-113.5 134,-132.5 250,-132.5 250,-113.5 134,-113.5"/>
<text text-anchor="middle" x="192" y="-120.5" font-family="Helvetica,sans-Serif" font-size="10.00" fill="#000000">swdsm_argo_barrier</text>
</a>
</g>
</g>
<!-- Node21&#45;&gt;Node22 -->
<g id="edge1" class="edge">
<title>Node21&#45;&gt;Node22</title>
<path fill="none" stroke="#191970" d="M87.6368,-88.6988C111.2348,-96.4548 140.9368,-106.217 162.614,-113.3417"/>
<polygon fill="#191970" stroke="#191970" points="88.5311,-85.3086 77.9382,-85.5112 86.3454,-91.9586 88.5311,-85.3086"/>
</g>
<!-- Node29 -->
<g id="node9" class="node">
<title>Node29</title>
<g id="a_node9"><a xlink:href="swdsm_8h_a44b8bb7a3c8b47b4f9552c8e10b25e4b.html#a44b8bb7a3c8b47b4f9552c8e10b25e4b" target="_top" xlink:title="acquire function for ArgoDSM (Acquire according to Release Consistency) ">
<polygon fill="#ffffff" stroke="#000000" points="152,-38.5 152,-57.5 232,-57.5 232,-38.5 152,-38.5"/>
<text text-anchor="middle" x="192" y="-45.5" font-family="Helvetica,sans-Serif" font-size="10.00" fill="#000000">argo_acquire</text>
</a>
</g>
</g>
<!-- Node21&#45;&gt;Node29 -->
<g id="edge8" class="edge">
<title>Node21&#45;&gt;Node29</title>
<path fill="none" stroke="#191970" d="M107.9183,-64.4636C122.7343,-61.5625 138.2945,-58.5158 151.9452,-55.8429"/>
<polygon fill="#191970" stroke="#191970" points="106.9536,-61.0859 97.8125,-66.4423 108.2987,-67.9554 106.9536,-61.0859"/>
</g>
<!-- Node23 -->
<g id="node3" class="node">
<title>Node23</title>
<g id="a_node3"><a xlink:href="backend_8hpp_af1a647431651556204709451bebb5a42.html#af1a647431651556204709451bebb5a42" target="_top" xlink:title="a simple collective barrier ">
<polygon fill="#ffffff" stroke="#000000" points="288,-170.5 288,-189.5 412,-189.5 412,-170.5 288,-170.5"/>
<text text-anchor="middle" x="350" y="-177.5" font-family="Helvetica,sans-Serif" font-size="10.00" fill="#000000">argo::backend::barrier</text>
</a>
</g>
</g>
<!-- Node22&#45;&gt;Node23 -->
<g id="edge2" class="edge">
<title>Node22&#45;&gt;Node23</title>
<path fill="none" stroke="#191970" d="M223.0503,-136.423C241.233,-144.0637 264.7322,-153.5633 286,-161 295.5185,-164.3283 305.959,-167.5888 315.5955,-170.4432"/>
<polygon fill="#191970" stroke="#191970" points="224.3789,-133.1848 213.8058,-132.5063 221.6481,-139.6302 224.3789,-133.1848"/>
</g>
<!-- Node24 -->
<g id="node4" class="node">
<title>Node24</title>
<g id="a_node4"><a xlink:href="swdsm_8cpp_aa954d5e0bcaee69ff6e03e697bcaf68b.html#aa954d5e0bcaee69ff6e03e697bcaf68b" target="_top" xlink:title="shut down ArgoDSM system ">
<polygon fill="#ffffff" stroke="#000000" points="310.5,-132.5 310.5,-151.5 389.5,-151.5 389.5,-132.5 310.5,-132.5"/>
<text text-anchor="middle" x="350" y="-139.5" font-family="Helvetica,sans-Serif" font-size="10.00" fill="#000000">argo_finalize</text>
</a>
</g>
</g>
<!-- Node22&#45;&gt;Node24 -->
<g id="edge3" class="edge">
<title>Node22&#45;&gt;Node24</title>
<path fill="none" stroke="#191970" d="M260.7661,-131.2693C277.6157,-133.2956 295.0971,-135.3977 310.0741,-137.1988"/>
<polygon fill="#191970" stroke="#191970" points="260.7308,-127.74 250.3845,-130.0209 259.895,-134.6899 260.7308,-127.74"/>
</g>
<!-- Node26 -->
<g id="node6" class="node">
<title>Node26</title>
<g id="a_node6"><a xlink:href="swdsm_8h_a0c6b51af2b87ddf7eb04aa7d4e0e836e.html#a0c6b51af2b87ddf7eb04aa7d4e0e836e" target="_top" xlink:title="Resets current coherence. Collective function called by all threads on all nodes. ...">
<polygon fill="#ffffff" stroke="#000000" points="288,-94.5 288,-113.5 412,-113.5 412,-94.5 288,-94.5"/>
<text text-anchor="middle" x="350" y="-101.5" font-family="Helvetica,sans-Serif" font-size="10.00" fill="#000000">argo_reset_coherence</text>
</a>
</g>
</g>
<!-- Node22&#45;&gt;Node26 -->
<g id="edge5" class="edge">
<title>Node22&#45;&gt;Node26</title>
<path fill="none" stroke="#191970" d="M260.5403,-114.7578C269.6296,-113.6648 278.9068,-112.5492 287.8793,-111.4702"/>
<polygon fill="#191970" stroke="#191970" points="259.895,-111.3101 250.3845,-115.9791 260.7308,-118.26 259.895,-111.3101"/>
</g>
<!-- Node25 -->
<g id="node5" class="node">
<title>Node25</title>
<g id="a_node5"><a xlink:href="swdsm_8h_a18cc89a7368e30281ea4b1d214a1b1ff.html#a18cc89a7368e30281ea4b1d214a1b1ff" target="_top" xlink:title="Pins and registers the local thread. ">
<polygon fill="#ffffff" stroke="#000000" points="450,-132.5 450,-151.5 551,-151.5 551,-132.5 450,-132.5"/>
<text text-anchor="middle" x="500.5" y="-139.5" font-family="Helvetica,sans-Serif" font-size="10.00" fill="#000000">argo_pin_threads</text>
</a>
</g>
</g>
<!-- Node24&#45;&gt;Node25 -->
<g id="edge4" class="edge">
<title>Node24&#45;&gt;Node25</title>
<path fill="none" stroke="#191970" d="M399.8203,-142C415.9009,-142 433.7372,-142 449.8753,-142"/>
<polygon fill="#191970" stroke="#191970" points="399.5421,-138.5001 389.5421,-142 399.5421,-145.5001 399.5421,-138.5001"/>
</g>
<!-- Node27 -->
<g id="node7" class="node">
<title>Node27</title>
<g id="a_node7"><a xlink:href="swdsm_8h_a31ba60e8ddccfa922da8d7e6a10f7b1d.html#a31ba60e8ddccfa922da8d7e6a10f7b1d" target="_top" xlink:title="Initializes ArgoDSM runtime. ">
<polygon fill="#ffffff" stroke="#000000" points="457.5,-94.5 457.5,-113.5 543.5,-113.5 543.5,-94.5 457.5,-94.5"/>
<text text-anchor="middle" x="500.5" y="-101.5" font-family="Helvetica,sans-Serif" font-size="10.00" fill="#000000">argo_initialize</text>
</a>
</g>
</g>
<!-- Node26&#45;&gt;Node27 -->
<g id="edge6" class="edge">
<title>Node26&#45;&gt;Node27</title>
<path fill="none" stroke="#191970" d="M422.1521,-104C434.2011,-104 446.3563,-104 457.379,-104"/>
<polygon fill="#191970" stroke="#191970" points="422.083,-100.5001 412.083,-104 422.083,-107.5001 422.083,-100.5001"/>
</g>
<!-- Node28 -->
<g id="node8" class="node">
<title>Node28</title>
<g id="a_node8"><a xlink:href="backend_8hpp_aab3cabb3e1c0b9696b339416b684f78c.html#aab3cabb3e1c0b9696b339416b684f78c" target="_top" xlink:title="initialize backend ">
<polygon fill="#ffffff" stroke="#000000" points="587,-94.5 587,-113.5 694,-113.5 694,-94.5 587,-94.5"/>
<text text-anchor="middle" x="640.5" y="-101.5" font-family="Helvetica,sans-Serif" font-size="10.00" fill="#000000">argo::backend::init</text>
</a>
</g>
</g>
<!-- Node27&#45;&gt;Node28 -->
<g id="edge7" class="edge">
<title>Node27&#45;&gt;Node28</title>
<path fill="none" stroke="#191970" d="M553.8168,-104C564.6429,-104 576.0344,-104 586.8712,-104"/>
<polygon fill="#191970" stroke="#191970" points="553.647,-100.5001 543.647,-104 553.6469,-107.5001 553.647,-100.5001"/>
</g>
<!-- Node30 -->
<g id="node10" class="node">
<title>Node30</title>
<g id="a_node10"><a xlink:href="backend_8hpp_a1032f833666c3f810ac1c6210197d426.html#a1032f833666c3f810ac1c6210197d426" target="_top" xlink:title="causes a node to self&#45;invalidate its cache, and thus getting any updated values on subsequent accesse...">
<polygon fill="#ffffff" stroke="#000000" points="286,-38.5 286,-57.5 414,-57.5 414,-38.5 286,-38.5"/>
<text text-anchor="middle" x="350" y="-45.5" font-family="Helvetica,sans-Serif" font-size="10.00" fill="#000000">argo::backend::acquire</text>
</a>
</g>
</g>
<!-- Node29&#45;&gt;Node30 -->
<g id="edge9" class="edge">
<title>Node29&#45;&gt;Node30</title>
<path fill="none" stroke="#191970" d="M242.5231,-48C256.3033,-48 271.4182,-48 285.8475,-48"/>
<polygon fill="#191970" stroke="#191970" points="242.2789,-44.5001 232.2789,-48 242.2789,-51.5001 242.2789,-44.5001"/>
</g>
<!-- Node31 -->
<g id="node11" class="node">
<title>Node31</title>
<g id="a_node11"><a xlink:href="swdsm_8h_ac0b665f72bc2a28dc663ed204c526e1b.html#ac0b665f72bc2a28dc663ed204c526e1b" target="_top" xlink:title="acquire&#45;release function for ArgoDSM (Both acquire and release according to Release Consistency) ...">
<polygon fill="#ffffff" stroke="#000000" points="310.5,-.5 310.5,-19.5 389.5,-19.5 389.5,-.5 310.5,-.5"/>
<text text-anchor="middle" x="350" y="-7.5" font-family="Helvetica,sans-Serif" font-size="10.00" fill="#000000">argo_acq_rel</text>
</a>
</g>
</g>
<!-- Node29&#45;&gt;Node31 -->
<g id="edge11" class="edge">
<title>Node29&#45;&gt;Node31</title>
<path fill="none" stroke="#191970" d="M241.7616,-36.032C263.9029,-30.7069 289.6116,-24.5238 310.4166,-19.5201"/>
<polygon fill="#191970" stroke="#191970" points="240.7744,-32.6696 231.8701,-38.411 242.4113,-39.4755 240.7744,-32.6696"/>
</g>
<!-- Node30&#45;&gt;Node30 -->
<g id="edge10" class="edge">
<title>Node30&#45;&gt;Node30</title>
<path fill="none" stroke="#191970" d="M322.0009,-66.6539C323.1712,-71.9368 332.5043,-76 350,-76 376.6602,-76 384.3666,-66.5653 373.1194,-57.7571"/>
<polygon fill="#191970" stroke="#191970" points="325.1403,-68.208 326.8806,-57.7571 319.0029,-64.8417 325.1403,-68.208"/>
</g>
</g>
</svg>
