<?xml version="1.0" encoding="UTF-8" standalone="no"?>
<!DOCTYPE svg PUBLIC "-//W3C//DTD SVG 1.1//EN"
 "http://www.w3.org/Graphics/SVG/1.1/DTD/svg11.dtd">
<!-- Generated by graphviz version 2.40.1 (20161225.0304)
 -->
<!-- Title: argo_acq_rel Pages: 1 -->
<svg width="1442pt" height="199pt"
 viewBox="0.00 0.00 1442.00 198.50" xmlns="http://www.w3.org/2000/svg" xmlns:xlink="http://www.w3.org/1999/xlink">
<g id="graph0" class="graph" transform="scale(1 1) rotate(0) translate(4 194.5)">
<title>argo_acq_rel</title>
<polygon fill="#ffffff" stroke="transparent" points="-4,4 -4,-194.5 1438,-194.5 1438,4 -4,4"/>
<!-- Node0 -->
<g id="node1" class="node">
<title>Node0</title>
<polygon fill="#bfbfbf" stroke="#000000" points="0,-105 0,-124 79,-124 79,-105 0,-105"/>
<text text-anchor="middle" x="39.5" y="-112" font-family="Helvetica,sans-Serif" font-size="10.00" fill="#000000">argo_acq_rel</text>
</g>
<!-- Node1 -->
<g id="node2" class="node">
<title>Node1</title>
<g id="a_node2"><a xlink:href="swdsm_8cpp_a44b8bb7a3c8b47b4f9552c8e10b25e4b.html#a44b8bb7a3c8b47b4f9552c8e10b25e4b" target="_top" xlink:title="acquire function for ArgoDSM (Acquire according to Release Consistency) ">
<polygon fill="#ffffff" stroke="#000000" points="115,-124 115,-143 195,-143 195,-124 115,-124"/>
<text text-anchor="middle" x="155" y="-131" font-family="Helvetica,sans-Serif" font-size="10.00" fill="#000000">argo_acquire</text>
</a>
</g>
</g>
<!-- Node0&#45;&gt;Node1 -->
<g id="edge1" class="edge">
<title>Node0&#45;&gt;Node1</title>
<path fill="none" stroke="#191970" d="M79.2485,-121.0387C87.5032,-122.3966 96.303,-123.8442 104.8747,-125.2543"/>
<polygon fill="#191970" stroke="#191970" points="104.3506,-128.715 114.7861,-126.8847 105.4869,-121.8079 104.3506,-128.715"/>
</g>
<!-- Node23 -->
<g id="node24" class="node">
<title>Node23</title>
<g id="a_node24"><a xlink:href="swdsm_8cpp_ad390eb58e1be03ed6a0939fae7ebd20a.html#ad390eb58e1be03ed6a0939fae7ebd20a" target="_top" xlink:title="Release function for ArgoDSM (Release according to Release Consistency) ">
<polygon fill="#ffffff" stroke="#000000" points="240,-86 240,-105 320,-105 320,-86 240,-86"/>
<text text-anchor="middle" x="280" y="-93" font-family="Helvetica,sans-Serif" font-size="10.00" fill="#000000">argo_release</text>
</a>
</g>
</g>
<!-- Node0&#45;&gt;Node23 -->
<g id="edge24" class="edge">
<title>Node0&#45;&gt;Node23</title>
<path fill="none" stroke="#191970" d="M79.2137,-111.3625C120.4305,-108.1063 185.0098,-103.0044 229.7521,-99.4697"/>
<polygon fill="#191970" stroke="#191970" points="230.1329,-102.9506 239.8261,-98.6738 229.5815,-95.9723 230.1329,-102.9506"/>
</g>
<!-- Node2 -->
<g id="node3" class="node">
<title>Node2</title>
<g id="a_node3"><a xlink:href="swdsm_8cpp_aa7c3a2de6bbafdaf68fe6ceb6110ab97.html#aa7c3a2de6bbafdaf68fe6ceb6110ab97" target="_top" xlink:title="Self&#45;Invalidates all memory that has potential writers. ">
<polygon fill="#ffffff" stroke="#000000" points="231,-125 231,-144 329,-144 329,-125 231,-125"/>
<text text-anchor="middle" x="280" y="-132" font-family="Helvetica,sans-Serif" font-size="10.00" fill="#000000">self_invalidation</text>
</a>
</g>
</g>
<!-- Node1&#45;&gt;Node2 -->
<g id="edge2" class="edge">
<title>Node1&#45;&gt;Node2</title>
<path fill="none" stroke="#191970" d="M195.2388,-133.8219C203.3438,-133.8868 212.0233,-133.9562 220.6237,-134.025"/>
<polygon fill="#191970" stroke="#191970" points="220.6166,-137.5249 230.6444,-134.1052 220.6727,-130.5252 220.6166,-137.5249"/>
</g>
<!-- Node3 -->
<g id="node4" class="node">
<title>Node3</title>
<g id="a_node4"><a xlink:href="swdsm_8cpp_af770e3f703653ddb0967b85d88881ab7.html#af770e3f703653ddb0967b85d88881ab7" target="_top" xlink:title="Gives the ArgoDSM node id for the local process. ">
<polygon fill="#ffffff" stroke="#000000" points="395.5,-171 395.5,-190 438.5,-190 438.5,-171 395.5,-171"/>
<text text-anchor="middle" x="417" y="-178" font-family="Helvetica,sans-Serif" font-size="10.00" fill="#000000">getID</text>
</a>
</g>
</g>
<!-- Node2&#45;&gt;Node3 -->
<g id="edge3" class="edge">
<title>Node2&#45;&gt;Node3</title>
<path fill="none" stroke="#191970" d="M308.3865,-144.0312C330.9163,-151.596 362.385,-162.1621 385.6532,-169.9748"/>
<polygon fill="#191970" stroke="#191970" points="384.7948,-173.3785 395.3888,-173.2437 387.023,-166.7426 384.7948,-173.3785"/>
</g>
<!-- Node4 -->
<g id="node5" class="node">
<title>Node4</title>
<g id="a_node5"><a xlink:href="swdsm_8cpp_aff9ea7ba7f37206d933c8dc8004dbc7b.html#aff9ea7ba7f37206d933c8dc8004dbc7b" target="_top" xlink:title="Gives an index to the sharer/writer vector depending on the address. ">
<polygon fill="#ffffff" stroke="#000000" points="366.5,-121.5 366.5,-151.5 467.5,-151.5 467.5,-121.5 366.5,-121.5"/>
<text text-anchor="start" x="374.5" y="-139.5" font-family="Helvetica,sans-Serif" font-size="10.00" fill="#000000">get_classification</text>
<text text-anchor="middle" x="417" y="-128.5" font-family="Helvetica,sans-Serif" font-size="10.00" fill="#000000">_index</text>
</a>
</g>
</g>
<!-- Node2&#45;&gt;Node4 -->
<g id="edge4" class="edge">
<title>Node2&#45;&gt;Node4</title>
<path fill="none" stroke="#191970" d="M329.0732,-135.2164C337.8871,-135.3451 347.1689,-135.4806 356.2656,-135.6134"/>
<polygon fill="#191970" stroke="#191970" points="356.3725,-139.1152 366.4226,-135.7616 356.4748,-132.1159 356.3725,-139.1152"/>
</g>
<!-- Node5 -->
<g id="node6" class="node">
<title>Node5</title>
<g id="a_node6"><a xlink:href="classwrite__buffer_aca2e330e17a38c1cc8d8c60701ce9dd7.html#aca2e330e17a38c1cc8d8c60701ce9dd7" target="_top" xlink:title="Flushes the ArgoDSM write buffer to memory. ">
<polygon fill="#ffffff" stroke="#000000" points="365,-83 365,-102 469,-102 469,-83 365,-83"/>
<text text-anchor="middle" x="417" y="-90" font-family="Helvetica,sans-Serif" font-size="10.00" fill="#000000">write_buffer::flush</text>
</a>
</g>
</g>
<!-- Node2&#45;&gt;Node5 -->
<g id="edge5" class="edge">
<title>Node2&#45;&gt;Node5</title>
<path fill="none" stroke="#191970" d="M311.0874,-124.9695C330.2197,-119.1042 354.9688,-111.5169 375.7313,-105.1517"/>
<polygon fill="#191970" stroke="#191970" points="377.0265,-108.4155 385.5614,-102.1381 374.9747,-101.723 377.0265,-108.4155"/>
</g>
<!-- Node6 -->
<g id="node7" class="node">
<title>Node6</title>
<g id="a_node7"><a xlink:href="classwrite__buffer_ab70cc0d6ca3591094aae489dbc3feaa5.html#ab70cc0d6ca3591094aae489dbc3feaa5" target="_top" xlink:title="Check if the write buffer is empty. ">
<polygon fill="#ffffff" stroke="#000000" points="514,-159 514,-178 627,-178 627,-159 514,-159"/>
<text text-anchor="middle" x="570.5" y="-166" font-family="Helvetica,sans-Serif" font-size="10.00" fill="#000000">write_buffer::empty</text>
</a>
</g>
</g>
<!-- Node5&#45;&gt;Node6 -->
<g id="edge6" class="edge">
<title>Node5&#45;&gt;Node6</title>
<path fill="none" stroke="#191970" d="M448.3254,-102.036C455.4148,-104.8662 462.7023,-108.3456 469,-112.5 488.1522,-125.1339 485.3293,-137.6897 505,-149.5 508.5973,-151.6598 512.4538,-153.5858 516.4288,-155.3012"/>
<polygon fill="#191970" stroke="#191970" points="515.263,-158.6028 525.8527,-158.9328 517.7802,-152.071 515.263,-158.6028"/>
</g>
<!-- Node7 -->
<g id="node8" class="node">
<title>Node7</title>
<g id="a_node8"><a xlink:href="classwrite__buffer_aa2325346aceb3e7ffdbdbdc8e8682147.html#aa2325346aceb3e7ffdbdbdc8e8682147" target="_top" xlink:title="Sorts all elements by home node id in ascending order. ">
<polygon fill="#ffffff" stroke="#000000" points="520.5,-121 520.5,-140 620.5,-140 620.5,-121 520.5,-121"/>
<text text-anchor="middle" x="570.5" y="-128" font-family="Helvetica,sans-Serif" font-size="10.00" fill="#000000">write_buffer::sort</text>
</a>
</g>
</g>
<!-- Node5&#45;&gt;Node7 -->
<g id="edge7" class="edge">
<title>Node5&#45;&gt;Node7</title>
<path fill="none" stroke="#191970" d="M455.7345,-102.089C475.8993,-107.0809 500.7479,-113.2324 522.1611,-118.5334"/>
<polygon fill="#191970" stroke="#191970" points="521.4959,-121.9743 532.044,-120.9799 523.1781,-115.1794 521.4959,-121.9743"/>
</g>
<!-- Node16 -->
<g id="node17" class="node">
<title>Node16</title>
<g id="a_node17"><a xlink:href="classwrite__buffer_ae065d3ee59035ad508eb8ce6670d2c89.html#ae065d3ee59035ad508eb8ce6670d2c89" target="_top" xlink:title="Removes the front element from the buffer and returns it. ">
<polygon fill="#ffffff" stroke="#000000" points="521,-83 521,-102 620,-102 620,-83 521,-83"/>
<text text-anchor="middle" x="570.5" y="-90" font-family="Helvetica,sans-Serif" font-size="10.00" fill="#000000">write_buffer::pop</text>
</a>
</g>
</g>
<!-- Node5&#45;&gt;Node16 -->
<g id="edge17" class="edge">
<title>Node5&#45;&gt;Node16</title>
<path fill="none" stroke="#191970" d="M469.3967,-92.5C482.6849,-92.5 497.0597,-92.5 510.685,-92.5"/>
<polygon fill="#191970" stroke="#191970" points="510.9279,-96.0001 520.9279,-92.5 510.9279,-89.0001 510.9279,-96.0001"/>
</g>
<!-- Node17 -->
<g id="node18" class="node">
<title>Node17</title>
<g id="a_node18"><a xlink:href="swdsm_8cpp_a3b6a6b2b244edb9faa79814ce8e5e9f5.html#a3b6a6b2b244edb9faa79814ce8e5e9f5" target="_top" xlink:title="stores a page remotely &#45; only writing back what has been written locally since last synchronization p...">
<polygon fill="#ffffff" stroke="#000000" points="527.5,-45 527.5,-64 613.5,-64 613.5,-45 527.5,-45"/>
<text text-anchor="middle" x="570.5" y="-52" font-family="Helvetica,sans-Serif" font-size="10.00" fill="#000000">storepageDIFF</text>
</a>
</g>
</g>
<!-- Node5&#45;&gt;Node17 -->
<g id="edge18" class="edge">
<title>Node5&#45;&gt;Node17</title>
<path fill="none" stroke="#191970" d="M455.7345,-82.911C475.8993,-77.9191 500.7479,-71.7676 522.1611,-66.4666"/>
<polygon fill="#191970" stroke="#191970" points="523.1781,-69.8206 532.044,-64.0201 521.4959,-63.0257 523.1781,-69.8206"/>
</g>
<!-- Node22 -->
<g id="node23" class="node">
<title>Node22</title>
<g id="a_node23"><a xlink:href="namespaceargo_a79c9492f3fd441bfa6261dffbc0f02f4.html#a79c9492f3fd441bfa6261dffbc0f02f4" target="_top" xlink:title="Number of ArgoDSM nodes being run. ">
<polygon fill="#ffffff" stroke="#000000" points="505,-7 505,-26 636,-26 636,-7 505,-7"/>
<text text-anchor="middle" x="570.5" y="-14" font-family="Helvetica,sans-Serif" font-size="10.00" fill="#000000">argo::number_of_nodes</text>
</a>
</g>
</g>
<!-- Node5&#45;&gt;Node22 -->
<g id="edge23" class="edge">
<title>Node5&#45;&gt;Node22</title>
<path fill="none" stroke="#191970" d="M429.1527,-82.9675C445.5424,-70.5129 476.026,-48.7374 505,-35.5 510.0482,-33.1936 515.4438,-31.0948 520.8903,-29.205"/>
<polygon fill="#191970" stroke="#191970" points="522.2519,-32.4429 530.6848,-26.0291 520.0928,-25.7842 522.2519,-32.4429"/>
</g>
<!-- Node8 -->
<g id="node9" class="node">
<title>Node8</title>
<g id="a_node9"><a xlink:href="namespaceargo_a48dc17c94275df10a8e7f3959cbf0191.html#a48dc17c94275df10a8e7f3959cbf0191" target="_top" xlink:title="Get the ArgoDSM node id where addr is physically backed. ">
<polygon fill="#ffffff" stroke="#000000" points="672,-121 672,-140 789,-140 789,-121 672,-121"/>
<text text-anchor="middle" x="730.5" y="-128" font-family="Helvetica,sans-Serif" font-size="10.00" fill="#000000">argo::get_homenode</text>
</a>
</g>
</g>
<!-- Node7&#45;&gt;Node8 -->
<g id="edge8" class="edge">
<title>Node7&#45;&gt;Node8</title>
<path fill="none" stroke="#191970" d="M620.686,-130.5C633.6124,-130.5 647.7506,-130.5 661.452,-130.5"/>
<polygon fill="#191970" stroke="#191970" points="661.8172,-134.0001 671.8171,-130.5 661.8171,-127.0001 661.8172,-134.0001"/>
</g>
<!-- Node9 -->
<g id="node10" class="node">
<title>Node9</title>
<g id="a_node10"><a xlink:href="classargo_1_1data__distribution_1_1global__ptr_a3e2cdd4d323ef91174615e27ab94e342.html#a3e2cdd4d323ef91174615e27ab94e342" target="_top" xlink:title="return the home node of the value pointed to, or a default value if the page has not yet been first&#45;t...">
<polygon fill="#ffffff" stroke="#000000" points="825,-145.5 825,-175.5 956,-175.5 956,-145.5 825,-145.5"/>
<text text-anchor="start" x="833" y="-163.5" font-family="Helvetica,sans-Serif" font-size="10.00" fill="#000000">argo::data_distribution</text>
<text text-anchor="middle" x="890.5" y="-152.5" font-family="Helvetica,sans-Serif" font-size="10.00" fill="#000000">::global_ptr::peek_node</text>
</a>
</g>
</g>
<!-- Node8&#45;&gt;Node9 -->
<g id="edge9" class="edge">
<title>Node8&#45;&gt;Node9</title>
<path fill="none" stroke="#191970" d="M781.5649,-140.0747C792.2459,-142.0774 803.7222,-144.2292 815.0752,-146.3578"/>
<polygon fill="#191970" stroke="#191970" points="814.5234,-149.8153 824.9972,-148.2182 815.8135,-142.9352 814.5234,-149.8153"/>
</g>
<!-- Node10 -->
<g id="node11" class="node">
<title>Node10</title>
<g id="a_node11"><a xlink:href="namespaceargo_a2f35b6b6e0af76fb8fb47f2031d6f58e.html#a2f35b6b6e0af76fb8fb47f2031d6f58e" target="_top" xlink:title="Get the block size of the current allocation policy. ">
<polygon fill="#ffffff" stroke="#000000" points="832.5,-107 832.5,-126 948.5,-126 948.5,-107 832.5,-107"/>
<text text-anchor="middle" x="890.5" y="-114" font-family="Helvetica,sans-Serif" font-size="10.00" fill="#000000">argo::get_block_size</text>
</a>
</g>
</g>
<!-- Node8&#45;&gt;Node10 -->
<g id="edge10" class="edge">
<title>Node8&#45;&gt;Node10</title>
<path fill="none" stroke="#191970" d="M789.1696,-125.3664C799.9585,-124.4224 811.3057,-123.4295 822.3452,-122.4635"/>
<polygon fill="#191970" stroke="#191970" points="822.7153,-125.9446 832.3722,-121.5862 822.1051,-118.9713 822.7153,-125.9446"/>
</g>
<!-- Node11 -->
<g id="node12" class="node">
<title>Node11</title>
<g id="a_node12"><a xlink:href="namespaceargo_1_1data__distribution_a2a70ed49553953957c3a28aa755d7ac8.html#a2a70ed49553953957c3a28aa755d7ac8" target="_top" xlink:title="based on the chosen policy, gets the policy block size ">
<polygon fill="#ffffff" stroke="#000000" points="992,-101.5 992,-131.5 1119,-131.5 1119,-101.5 992,-101.5"/>
<text text-anchor="start" x="1000" y="-119.5" font-family="Helvetica,sans-Serif" font-size="10.00" fill="#000000">argo::data_distribution</text>
<text text-anchor="middle" x="1055.5" y="-108.5" font-family="Helvetica,sans-Serif" font-size="10.00" fill="#000000">::policy_block_size</text>
</a>
</g>
</g>
<!-- Node10&#45;&gt;Node11 -->
<g id="edge11" class="edge">
<title>Node10&#45;&gt;Node11</title>
<path fill="none" stroke="#191970" d="M948.6728,-116.5C959.3993,-116.5 970.7284,-116.5 981.841,-116.5"/>
<polygon fill="#191970" stroke="#191970" points="981.9621,-120.0001 991.9621,-116.5 981.962,-113.0001 981.9621,-120.0001"/>
</g>
<!-- Node12 -->
<g id="node13" class="node">
<title>Node12</title>
<g id="a_node13"><a xlink:href="namespaceargo_1_1env_a30775a9aa41b956df7474a2c0cc317aa.html#a30775a9aa41b956df7474a2c0cc317aa" target="_top" xlink:title="get the allocation block size requested by environment variable ">
<polygon fill="#ffffff" stroke="#000000" points="1160.5,-150.5 1160.5,-180.5 1276.5,-180.5 1276.5,-150.5 1160.5,-150.5"/>
<text text-anchor="start" x="1168.5" y="-168.5" font-family="Helvetica,sans-Serif" font-size="10.00" fill="#000000">argo::env::allocation</text>
<text text-anchor="middle" x="1218.5" y="-157.5" font-family="Helvetica,sans-Serif" font-size="10.00" fill="#000000">_block_size</text>
</a>
</g>
</g>
<!-- Node11&#45;&gt;Node12 -->
<g id="edge12" class="edge">
<title>Node11&#45;&gt;Node12</title>
<path fill="none" stroke="#191970" d="M1105.7354,-131.6014C1122.3909,-136.6083 1141.0997,-142.2324 1158.4194,-147.439"/>
<polygon fill="#191970" stroke="#191970" points="1157.8462,-150.9213 1168.4305,-150.4484 1159.8615,-144.2177 1157.8462,-150.9213"/>
</g>
<!-- Node13 -->
<g id="node14" class="node">
<title>Node13</title>
<g id="a_node14"><a xlink:href="namespaceargo_1_1data__distribution_a1bb3f2dcecd237990e6dc67764f06860.html#a1bb3f2dcecd237990e6dc67764f06860" target="_top" xlink:title="identifies if we distribute data using a cyclic memory policy ">
<polygon fill="#ffffff" stroke="#000000" points="1155,-101.5 1155,-131.5 1282,-131.5 1282,-101.5 1155,-101.5"/>
<text text-anchor="start" x="1163" y="-119.5" font-family="Helvetica,sans-Serif" font-size="10.00" fill="#000000">argo::data_distribution</text>
<text text-anchor="middle" x="1218.5" y="-108.5" font-family="Helvetica,sans-Serif" font-size="10.00" fill="#000000">::is_cyclic_policy</text>
</a>
</g>
</g>
<!-- Node11&#45;&gt;Node13 -->
<g id="edge13" class="edge">
<title>Node11&#45;&gt;Node13</title>
<path fill="none" stroke="#191970" d="M1119.4541,-116.5C1127.7606,-116.5 1136.3224,-116.5 1144.7718,-116.5"/>
<polygon fill="#191970" stroke="#191970" points="1144.9977,-120.0001 1154.9977,-116.5 1144.9977,-113.0001 1144.9977,-120.0001"/>
</g>
<!-- Node15 -->
<g id="node16" class="node">
<title>Node15</title>
<g id="a_node16"><a xlink:href="namespaceargo_1_1data__distribution_a58576657391f45caf61bf0748a23b098.html#a58576657391f45caf61bf0748a23b098" target="_top" xlink:title="identifies if we distribute data using the first&#45;touch memory policy ">
<polygon fill="#ffffff" stroke="#000000" points="1155,-52.5 1155,-82.5 1282,-82.5 1282,-52.5 1155,-52.5"/>
<text text-anchor="start" x="1163" y="-70.5" font-family="Helvetica,sans-Serif" font-size="10.00" fill="#000000">argo::data_distribution</text>
<text text-anchor="middle" x="1218.5" y="-59.5" font-family="Helvetica,sans-Serif" font-size="10.00" fill="#000000">::is_first_touch_policy</text>
</a>
</g>
</g>
<!-- Node11&#45;&gt;Node15 -->
<g id="edge15" class="edge">
<title>Node11&#45;&gt;Node15</title>
<path fill="none" stroke="#191970" d="M1105.7354,-101.3986C1122.3909,-96.3917 1141.0997,-90.7676 1158.4194,-85.561"/>
<polygon fill="#191970" stroke="#191970" points="1159.8615,-88.7823 1168.4305,-82.5516 1157.8462,-82.0787 1159.8615,-88.7823"/>
</g>
<!-- Node14 -->
<g id="node15" class="node">
<title>Node14</title>
<g id="a_node15"><a xlink:href="namespaceargo_1_1env_a25a08cb2d0d11432d640ec7173063339.html#a25a08cb2d0d11432d640ec7173063339" target="_top" xlink:title="get the allocation policy requested by environment variable ">
<polygon fill="#ffffff" stroke="#000000" points="1318,-76.5 1318,-106.5 1434,-106.5 1434,-76.5 1318,-76.5"/>
<text text-anchor="start" x="1326" y="-94.5" font-family="Helvetica,sans-Serif" font-size="10.00" fill="#000000">argo::env::allocation</text>
<text text-anchor="middle" x="1376" y="-83.5" font-family="Helvetica,sans-Serif" font-size="10.00" fill="#000000">_policy</text>
</a>
</g>
</g>
<!-- Node13&#45;&gt;Node14 -->
<g id="edge14" class="edge">
<title>Node13&#45;&gt;Node14</title>
<path fill="none" stroke="#191970" d="M1282.1073,-106.4036C1290.5754,-105.0595 1299.2863,-103.6768 1307.8281,-102.3209"/>
<polygon fill="#191970" stroke="#191970" points="1308.4255,-105.77 1317.7531,-100.7455 1307.3281,-98.8566 1308.4255,-105.77"/>
</g>
<!-- Node15&#45;&gt;Node14 -->
<g id="edge16" class="edge">
<title>Node15&#45;&gt;Node14</title>
<path fill="none" stroke="#191970" d="M1282.1073,-77.1925C1290.5754,-78.4829 1299.2863,-79.8103 1307.8281,-81.1119"/>
<polygon fill="#191970" stroke="#191970" points="1307.34,-84.5778 1317.7531,-82.6243 1308.3945,-77.6577 1307.34,-84.5778"/>
</g>
<!-- Node18 -->
<g id="node19" class="node">
<title>Node18</title>
<g id="a_node19"><a xlink:href="swdsm_8cpp_ab2e5fbbe4d1f44d25619f290dc37dd3e.html#ab2e5fbbe4d1f44d25619f290dc37dd3e" target="_top" xlink:title="Gives homenode for a given address. ">
<polygon fill="#ffffff" stroke="#000000" points="686,-52 686,-71 775,-71 775,-52 686,-52"/>
<text text-anchor="middle" x="730.5" y="-59" font-family="Helvetica,sans-Serif" font-size="10.00" fill="#000000">get_homenode</text>
</a>
</g>
</g>
<!-- Node17&#45;&gt;Node18 -->
<g id="edge19" class="edge">
<title>Node17&#45;&gt;Node18</title>
<path fill="none" stroke="#191970" d="M613.7983,-56.3943C632.8788,-57.2291 655.5155,-58.2194 675.7506,-59.1047"/>
<polygon fill="#191970" stroke="#191970" points="675.6289,-62.6026 685.7724,-59.5432 675.9349,-55.6093 675.6289,-62.6026"/>
</g>
<!-- Node20 -->
<g id="node21" class="node">
<title>Node20</title>
<g id="a_node21"><a xlink:href="swdsm_8cpp_a974f1a03f5461bb989248cceb41cd95b.html#a974f1a03f5461bb989248cceb41cd95b" target="_top" xlink:title="Gets the offset of an address on the local nodes part of the global memory. ">
<polygon fill="#ffffff" stroke="#000000" points="698,-11 698,-30 763,-30 763,-11 698,-11"/>
<text text-anchor="middle" x="730.5" y="-18" font-family="Helvetica,sans-Serif" font-size="10.00" fill="#000000">get_offset</text>
</a>
</g>
</g>
<!-- Node17&#45;&gt;Node20 -->
<g id="edge21" class="edge">
<title>Node17&#45;&gt;Node20</title>
<path fill="none" stroke="#191970" d="M613.7983,-45.2991C636.8551,-40.3995 665.1048,-34.3965 688.0346,-29.5239"/>
<polygon fill="#191970" stroke="#191970" points="688.7766,-32.9445 697.8307,-27.4422 687.3216,-26.0973 688.7766,-32.9445"/>
</g>
<!-- Node19 -->
<g id="node20" class="node">
<title>Node19</title>
<g id="a_node20"><a xlink:href="classargo_1_1data__distribution_1_1global__ptr_ac7d651586337d08cda18ef26ffcd34a0.html#ac7d651586337d08cda18ef26ffcd34a0" target="_top" xlink:title="return the home node of the value pointed to ">
<polygon fill="#ffffff" stroke="#000000" points="827,-49.5 827,-79.5 954,-79.5 954,-49.5 827,-49.5"/>
<text text-anchor="start" x="835" y="-67.5" font-family="Helvetica,sans-Serif" font-size="10.00" fill="#000000">argo::data_distribution</text>
<text text-anchor="middle" x="890.5" y="-56.5" font-family="Helvetica,sans-Serif" font-size="10.00" fill="#000000">::global_ptr::node</text>
</a>
</g>
</g>
<!-- Node18&#45;&gt;Node19 -->
<g id="edge20" class="edge">
<title>Node18&#45;&gt;Node19</title>
<path fill="none" stroke="#191970" d="M775.0689,-62.3357C787.9412,-62.577 802.3472,-62.8471 816.5013,-63.1125"/>
<polygon fill="#191970" stroke="#191970" points="816.6737,-66.6163 826.7375,-63.3045 816.8049,-59.6175 816.6737,-66.6163"/>
</g>
<!-- Node21 -->
<g id="node22" class="node">
<title>Node21</title>
<g id="a_node22"><a xlink:href="classargo_1_1data__distribution_1_1global__ptr_ad8c21c408fa2b926cfd9acfd87e8e4e6.html#ad8c21c408fa2b926cfd9acfd87e8e4e6" target="_top" xlink:title="return the offset on the home node&#39;s local memory share ">
<polygon fill="#ffffff" stroke="#000000" points="827,-.5 827,-30.5 954,-30.5 954,-.5 827,-.5"/>
<text text-anchor="start" x="835" y="-18.5" font-family="Helvetica,sans-Serif" font-size="10.00" fill="#000000">argo::data_distribution</text>
<text text-anchor="middle" x="890.5" y="-7.5" font-family="Helvetica,sans-Serif" font-size="10.00" fill="#000000">::global_ptr::offset</text>
</a>
</g>
</g>
<!-- Node20&#45;&gt;Node21 -->
<g id="edge22" class="edge">
<title>Node20&#45;&gt;Node21</title>
<path fill="none" stroke="#191970" d="M763.2645,-19.4761C778.764,-18.9917 797.9491,-18.3922 816.6797,-17.8069"/>
<polygon fill="#191970" stroke="#191970" points="816.8248,-21.3042 826.7106,-17.4934 816.6061,-14.3076 816.8248,-21.3042"/>
</g>
<!-- Node23&#45;&gt;Node5 -->
<g id="edge25" class="edge">
<title>Node23&#45;&gt;Node5</title>
<path fill="none" stroke="#191970" d="M320.3635,-94.6161C331.1077,-94.3809 342.9697,-94.1211 354.5956,-93.8665"/>
<polygon fill="#191970" stroke="#191970" points="354.7966,-97.3631 364.7176,-93.6449 354.6433,-90.3647 354.7966,-97.3631"/>
</g>
</g>
</svg>
