<?xml version="1.0" encoding="UTF-8" standalone="no"?>
<!DOCTYPE svg PUBLIC "-//W3C//DTD SVG 1.1//EN"
 "http://www.w3.org/Graphics/SVG/1.1/DTD/svg11.dtd">
<!-- Generated by graphviz version 2.40.1 (20161225.0304)
 -->
<!-- Title: argo_release Pages: 1 -->
<svg width="252pt" height="84pt"
 viewBox="0.00 0.00 252.00 84.00" xmlns="http://www.w3.org/2000/svg" xmlns:xlink="http://www.w3.org/1999/xlink">
<g id="graph0" class="graph" transform="scale(1 1) rotate(0) translate(4 80)">
<title>argo_release</title>
<polygon fill="#ffffff" stroke="transparent" points="-4,4 -4,-80 248,-80 248,4 -4,4"/>
<!-- Node19 -->
<g id="node1" class="node">
<title>Node19</title>
<polygon fill="#bfbfbf" stroke="#000000" points="0,-19.5 0,-38.5 80,-38.5 80,-19.5 0,-19.5"/>
<text text-anchor="middle" x="40" y="-26.5" font-family="Helvetica,sans-Serif" font-size="10.00" fill="#000000">argo_release</text>
</g>
<!-- Node20 -->
<g id="node2" class="node">
<title>Node20</title>
<g id="a_node2"><a xlink:href="backend_8hpp_a8953c9cd9d3c56306740b6c9b97513a2.html#a8953c9cd9d3c56306740b6c9b97513a2" target="_top" xlink:title="causes a node to self&#45;downgrade its cache, making all previous writes to be propagated to the homenod...">
<polygon fill="#ffffff" stroke="#000000" points="116,-38.5 116,-57.5 244,-57.5 244,-38.5 116,-38.5"/>
<text text-anchor="middle" x="180" y="-45.5" font-family="Helvetica,sans-Serif" font-size="10.00" fill="#000000">argo::backend::release</text>
</a>
</g>
</g>
<!-- Node19&#45;&gt;Node20 -->
<g id="edge1" class="edge">
<title>Node19&#45;&gt;Node20</title>
<path fill="none" stroke="#191970" d="M90.0643,-35.7944C98.4154,-36.9278 107.1795,-38.1172 115.8243,-39.2904"/>
<polygon fill="#191970" stroke="#191970" points="90.4983,-32.3213 80.1184,-34.4446 89.5568,-39.2577 90.4983,-32.3213"/>
</g>
<!-- Node21 -->
<g id="node3" class="node">
<title>Node21</title>
<g id="a_node3"><a xlink:href="swdsm_8h_ac0b665f72bc2a28dc663ed204c526e1b.html#ac0b665f72bc2a28dc663ed204c526e1b" target="_top" xlink:title="acquire&#45;release function for ArgoDSM (Both acquire and release according to Release Consistency) ...">
<polygon fill="#ffffff" stroke="#000000" points="140.5,-.5 140.5,-19.5 219.5,-19.5 219.5,-.5 140.5,-.5"/>
<text text-anchor="middle" x="180" y="-7.5" font-family="Helvetica,sans-Serif" font-size="10.00" fill="#000000">argo_acq_rel</text>
</a>
</g>
</g>
<!-- Node19&#45;&gt;Node21 -->
<g id="edge3" class="edge">
<title>Node19&#45;&gt;Node21</title>
<path fill="none" stroke="#191970" d="M90.1481,-22.1942C106.6483,-19.9549 124.7527,-17.4978 140.3598,-15.3797"/>
<polygon fill="#191970" stroke="#191970" points="89.5568,-18.7423 80.1184,-23.5554 90.4983,-25.6787 89.5568,-18.7423"/>
</g>
<!-- Node20&#45;&gt;Node20 -->
<g id="edge2" class="edge">
<title>Node20&#45;&gt;Node20</title>
<path fill="none" stroke="#191970" d="M153.9584,-67.0292C155.3789,-72.128 164.0594,-76 180,-76 204.8828,-76 212.0755,-66.5653 201.5781,-57.7571"/>
<polygon fill="#191970" stroke="#191970" points="157.238,-68.2855 158.4219,-57.7571 150.9308,-65.2493 157.238,-68.2855"/>
</g>
</g>
</svg>
