<?xml version="1.0" encoding="UTF-8" standalone="no"?>
<!DOCTYPE svg PUBLIC "-//W3C//DTD SVG 1.1//EN"
 "http://www.w3.org/Graphics/SVG/1.1/DTD/svg11.dtd">
<!-- Generated by graphviz version 2.40.1 (20161225.0304)
 -->
<!-- Title: align_backwards Pages: 1 -->
<svg width="706pt" height="94pt"
 viewBox="0.00 0.00 706.00 94.00" xmlns="http://www.w3.org/2000/svg" xmlns:xlink="http://www.w3.org/1999/xlink">
<g id="graph0" class="graph" transform="scale(1 1) rotate(0) translate(4 90)">
<title>align_backwards</title>
<polygon fill="#ffffff" stroke="transparent" points="-4,4 -4,-90 702,-90 702,4 -4,4"/>
<!-- Node1 -->
<g id="node1" class="node">
<title>Node1</title>
<polygon fill="#bfbfbf" stroke="#000000" points="0,-38.5 0,-57.5 98,-57.5 98,-38.5 0,-38.5"/>
<text text-anchor="middle" x="49" y="-45.5" font-family="Helvetica,sans-Serif" font-size="10.00" fill="#000000">align_backwards</text>
</g>
<!-- Node2 -->
<g id="node2" class="node">
<title>Node2</title>
<g id="a_node2"><a xlink:href="swdsm_8h_a8b00f264b792522b179fbc9c818187bd.html#a8b00f264b792522b179fbc9c818187bd" target="_top" xlink:title="Catches memory accesses to memory not yet cached in ArgoDSM. Launches remote requests for memory not ...">
<polygon fill="#ffffff" stroke="#000000" points="315.5,-66.5 315.5,-85.5 368.5,-85.5 368.5,-66.5 315.5,-66.5"/>
<text text-anchor="middle" x="342" y="-73.5" font-family="Helvetica,sans-Serif" font-size="10.00" fill="#000000">handler</text>
</a>
</g>
</g>
<!-- Node1&#45;&gt;Node2 -->
<g id="edge1" class="edge">
<title>Node1&#45;&gt;Node2</title>
<path fill="none" stroke="#191970" d="M94.9579,-59.8282C107.5366,-62.6389 121.2254,-65.3094 134,-67 198.6776,-75.5596 275.5538,-76.5231 315.2731,-76.3468"/>
<polygon fill="#191970" stroke="#191970" points="95.6781,-56.4025 85.1468,-57.5601 94.1015,-63.2226 95.6781,-56.4025"/>
</g>
<!-- Node5 -->
<g id="node5" class="node">
<title>Node5</title>
<g id="a_node5"><a xlink:href="swdsm_8cpp_a97adb774a1a5a7a3505416a171c570e9.html#a97adb774a1a5a7a3505416a171c570e9" target="_top" xlink:title="load into cache helper function ">
<polygon fill="#ffffff" stroke="#000000" points="134,-38.5 134,-57.5 236,-57.5 236,-38.5 134,-38.5"/>
<text text-anchor="middle" x="185" y="-45.5" font-family="Helvetica,sans-Serif" font-size="10.00" fill="#000000">load_cache_entry</text>
</a>
</g>
</g>
<!-- Node1&#45;&gt;Node5 -->
<g id="edge4" class="edge">
<title>Node1&#45;&gt;Node5</title>
<path fill="none" stroke="#191970" d="M108.2907,-48C116.7498,-48 125.3917,-48 133.6811,-48"/>
<polygon fill="#191970" stroke="#191970" points="108.0992,-44.5001 98.0991,-48 108.0991,-51.5001 108.0992,-44.5001"/>
</g>
<!-- Node6 -->
<g id="node6" class="node">
<title>Node6</title>
<g id="a_node6"><a xlink:href="swdsm_8h_a1696e0fe6cc8d073536dbce9b6fb8b1b.html#a1696e0fe6cc8d073536dbce9b6fb8b1b" target="_top" xlink:title="Check whether a page is either cached on the node or locally backed. ">
<polygon fill="#ffffff" stroke="#000000" points="150,-.5 150,-19.5 220,-19.5 220,-.5 150,-.5"/>
<text text-anchor="middle" x="185" y="-7.5" font-family="Helvetica,sans-Serif" font-size="10.00" fill="#000000">_is_cached</text>
</a>
</g>
</g>
<!-- Node1&#45;&gt;Node6 -->
<g id="edge6" class="edge">
<title>Node1&#45;&gt;Node6</title>
<path fill="none" stroke="#191970" d="M93.0866,-35.6817C111.7722,-30.4607 133.2183,-24.4684 150.6924,-19.5859"/>
<polygon fill="#191970" stroke="#191970" points="92.0078,-32.349 83.3185,-38.411 93.8915,-39.0908 92.0078,-32.349"/>
</g>
<!-- Node3 -->
<g id="node3" class="node">
<title>Node3</title>
<g id="a_node3"><a xlink:href="swdsm_8h_a10dca85d339ce630cf42dca685b3f6d9.html#a10dca85d339ce630cf42dca685b3f6d9" target="_top" xlink:title="Initializes ArgoDSM runtime. ">
<polygon fill="#ffffff" stroke="#000000" points="458.5,-66.5 458.5,-85.5 544.5,-85.5 544.5,-66.5 458.5,-66.5"/>
<text text-anchor="middle" x="501.5" y="-73.5" font-family="Helvetica,sans-Serif" font-size="10.00" fill="#000000">argo_initialize</text>
</a>
</g>
</g>
<!-- Node2&#45;&gt;Node3 -->
<g id="edge2" class="edge">
<title>Node2&#45;&gt;Node3</title>
<path fill="none" stroke="#191970" d="M378.7271,-76C402.4955,-76 433.5405,-76 458.4651,-76"/>
<polygon fill="#191970" stroke="#191970" points="378.6967,-72.5001 368.6967,-76 378.6967,-79.5001 378.6967,-72.5001"/>
</g>
<!-- Node4 -->
<g id="node4" class="node">
<title>Node4</title>
<g id="a_node4"><a xlink:href="backend_8hpp_af0d80a03a17a374c10d9635ddf81e261.html#af0d80a03a17a374c10d9635ddf81e261" target="_top" xlink:title="initialize backend ">
<polygon fill="#ffffff" stroke="#000000" points="591,-66.5 591,-85.5 698,-85.5 698,-66.5 591,-66.5"/>
<text text-anchor="middle" x="644.5" y="-73.5" font-family="Helvetica,sans-Serif" font-size="10.00" fill="#000000">argo::backend::init</text>
</a>
</g>
</g>
<!-- Node3&#45;&gt;Node4 -->
<g id="edge3" class="edge">
<title>Node3&#45;&gt;Node4</title>
<path fill="none" stroke="#191970" d="M554.933,-76C566.7171,-76 579.2019,-76 590.9891,-76"/>
<polygon fill="#191970" stroke="#191970" points="554.7928,-72.5001 544.7928,-76 554.7927,-79.5001 554.7928,-72.5001"/>
</g>
<!-- Node5&#45;&gt;Node2 -->
<g id="edge5" class="edge">
<title>Node5&#45;&gt;Node2</title>
<path fill="none" stroke="#191970" d="M246.4566,-58.9604C270.2822,-63.2096 296.3086,-67.8512 315.1724,-71.2155"/>
<polygon fill="#191970" stroke="#191970" points="246.8669,-55.4784 236.4077,-57.1682 245.6378,-62.3697 246.8669,-55.4784"/>
</g>
<!-- Node7 -->
<g id="node7" class="node">
<title>Node7</title>
<g id="a_node7"><a xlink:href="backend_8hpp_a8189df2ded0e8e6b64477a53f80d67e8.html#a8189df2ded0e8e6b64477a53f80d67e8" target="_top" xlink:title="Check if a an address is cached or node local. ">
<polygon fill="#ffffff" stroke="#000000" points="272,-.5 272,-19.5 412,-19.5 412,-.5 272,-.5"/>
<text text-anchor="middle" x="342" y="-7.5" font-family="Helvetica,sans-Serif" font-size="10.00" fill="#000000">argo::backend::is_cached</text>
</a>
</g>
</g>
<!-- Node6&#45;&gt;Node7 -->
<g id="edge7" class="edge">
<title>Node6&#45;&gt;Node7</title>
<path fill="none" stroke="#191970" d="M230.2917,-10C243.2742,-10 257.7424,-10 271.847,-10"/>
<polygon fill="#191970" stroke="#191970" points="230.2339,-6.5001 220.2339,-10 230.2338,-13.5001 230.2339,-6.5001"/>
</g>
<!-- Node7&#45;&gt;Node7 -->
<g id="edge8" class="edge">
<title>Node7&#45;&gt;Node7</title>
<path fill="none" stroke="#191970" d="M312.8809,-28.6539C314.0981,-33.9368 323.8044,-38 342,-38 369.7266,-38 377.7413,-28.5653 366.0441,-19.7571"/>
<polygon fill="#191970" stroke="#191970" points="316.0412,-30.1775 317.9559,-19.7571 309.9609,-26.7091 316.0412,-30.1775"/>
</g>
<!-- Node8 -->
<g id="node8" class="node">
<title>Node8</title>
<g id="a_node8"><a xlink:href="singlenode_8cpp_aab3cabb3e1c0b9696b339416b684f78c.html#aab3cabb3e1c0b9696b339416b684f78c" target="_top" xlink:title="argo::backend::init">
<polygon fill="#ffffff" stroke="#000000" points="448,-.5 448,-19.5 555,-19.5 555,-.5 448,-.5"/>
<text text-anchor="middle" x="501.5" y="-7.5" font-family="Helvetica,sans-Serif" font-size="10.00" fill="#000000">argo::backend::init</text>
</a>
</g>
</g>
<!-- Node7&#45;&gt;Node8 -->
<g id="edge9" class="edge">
<title>Node7&#45;&gt;Node8</title>
<path fill="none" stroke="#191970" d="M422.4644,-10C431.0338,-10 439.5922,-10 447.7438,-10"/>
<polygon fill="#191970" stroke="#191970" points="422.4233,-6.5001 412.4233,-10 422.4233,-13.5001 422.4233,-6.5001"/>
</g>
</g>
</svg>
