<?xml version="1.0" encoding="UTF-8" standalone="no"?>
<!DOCTYPE svg PUBLIC "-//W3C//DTD SVG 1.1//EN"
 "http://www.w3.org/Graphics/SVG/1.1/DTD/svg11.dtd">
<!-- Generated by graphviz version 2.40.1 (20161225.0304)
 -->
<!-- Title: /home/atmerhannah/argodsm/src/virtual_memory/virtual_memory.hpp Pages: 1 -->
<svg width="1226pt" height="206pt"
 viewBox="0.00 0.00 1226.00 206.00" xmlns="http://www.w3.org/2000/svg" xmlns:xlink="http://www.w3.org/1999/xlink">
<g id="graph0" class="graph" transform="scale(1 1) rotate(0) translate(4 202)">
<title>/home/atmerhannah/argodsm/src/virtual_memory/virtual_memory.hpp</title>
<polygon fill="#ffffff" stroke="transparent" points="-4,4 -4,-202 1222,-202 1222,4 -4,4"/>
<!-- Node2 -->
<g id="node1" class="node">
<title>Node2</title>
<polygon fill="#bfbfbf" stroke="#000000" points="436,-156.5 436,-197.5 597,-197.5 597,-156.5 436,-156.5"/>
<text text-anchor="start" x="444" y="-185.5" font-family="Helvetica,sans-Serif" font-size="10.00" fill="#000000">/home/atmerhannah/argodsm</text>
<text text-anchor="start" x="444" y="-174.5" font-family="Helvetica,sans-Serif" font-size="10.00" fill="#000000">/src/virtual_memory/virtual</text>
<text text-anchor="middle" x="516.5" y="-163.5" font-family="Helvetica,sans-Serif" font-size="10.00" fill="#000000">_memory.hpp</text>
</g>
<!-- Node3 -->
<g id="node2" class="node">
<title>Node3</title>
<g id="a_node2"><a xlink:href="argo_8cpp.html" target="_top" xlink:title="This file implements some of the basic ArgoDSM calls. ">
<polygon fill="#ffffff" stroke="#000000" points="0,-84 0,-114 161,-114 161,-84 0,-84"/>
<text text-anchor="start" x="8" y="-102" font-family="Helvetica,sans-Serif" font-size="10.00" fill="#000000">/home/atmerhannah/argodsm</text>
<text text-anchor="middle" x="80.5" y="-91" font-family="Helvetica,sans-Serif" font-size="10.00" fill="#000000">/src/argo.cpp</text>
</a>
</g>
</g>
<!-- Node2&#45;&gt;Node3 -->
<g id="edge1" class="edge">
<title>Node2&#45;&gt;Node3</title>
<path fill="none" stroke="#191970" d="M425.7281,-163.1413C356.8901,-152.3132 260.0245,-136.3951 175.5,-120 166.0482,-118.1666 156.0957,-116.1086 146.334,-114.0168"/>
<polygon fill="#191970" stroke="#191970" points="425.2549,-166.6098 435.6764,-164.7014 426.3394,-159.6943 425.2549,-166.6098"/>
</g>
<!-- Node4 -->
<g id="node3" class="node">
<title>Node4</title>
<g id="a_node3"><a xlink:href="write__buffer_8hpp.html" target="_top" xlink:title="This file provides an interface for the ArgoDSM write buffer. ">
<polygon fill="#ffffff" stroke="#000000" points="218,-78.5 218,-119.5 379,-119.5 379,-78.5 218,-78.5"/>
<text text-anchor="start" x="226" y="-107.5" font-family="Helvetica,sans-Serif" font-size="10.00" fill="#000000">/home/atmerhannah/argodsm</text>
<text text-anchor="start" x="226" y="-96.5" font-family="Helvetica,sans-Serif" font-size="10.00" fill="#000000">/src/backend/mpi/write</text>
<text text-anchor="middle" x="298.5" y="-85.5" font-family="Helvetica,sans-Serif" font-size="10.00" fill="#000000">_buffer.hpp</text>
</a>
</g>
</g>
<!-- Node2&#45;&gt;Node4 -->
<g id="edge2" class="edge">
<title>Node2&#45;&gt;Node4</title>
<path fill="none" stroke="#191970" d="M449.4222,-152.9997C419.5333,-142.3055 384.6829,-129.8361 356.0064,-119.5757"/>
<polygon fill="#191970" stroke="#191970" points="448.3433,-156.3309 458.9379,-156.4044 450.7016,-149.7401 448.3433,-156.3309"/>
</g>
<!-- Node5 -->
<g id="node4" class="node">
<title>Node5</title>
<g id="a_node4"><a xlink:href="coherence_8cpp.html" target="_top" xlink:title="This file implements selective coherence mechanisms for ArgoDSM. ">
<polygon fill="#ffffff" stroke="#000000" points="120,-6 120,-36 293,-36 293,-6 120,-6"/>
<text text-anchor="start" x="128" y="-24" font-family="Helvetica,sans-Serif" font-size="10.00" fill="#000000">/home/atmerhannah/argodsm</text>
<text text-anchor="middle" x="206.5" y="-13" font-family="Helvetica,sans-Serif" font-size="10.00" fill="#000000">/src/backend/mpi/coherence.cpp</text>
</a>
</g>
</g>
<!-- Node2&#45;&gt;Node5 -->
<g id="edge5" class="edge">
<title>Node2&#45;&gt;Node5</title>
<path fill="none" stroke="#191970" d="M425.6498,-172.5675C345.0923,-166.5258 236.0526,-152.4473 208.5,-120 188.5822,-96.5438 195.5404,-57.4879 201.5281,-36.1153"/>
<polygon fill="#191970" stroke="#191970" points="425.5957,-176.0725 435.8211,-173.2994 426.0982,-169.0906 425.5957,-176.0725"/>
</g>
<!-- Node6 -->
<g id="node5" class="node">
<title>Node6</title>
<g id="a_node5"><a xlink:href="swdsm_8cpp.html" target="_top" xlink:title="This file implements the MPI&#45;backend of ArgoDSM. ">
<polygon fill="#ffffff" stroke="#000000" points="327,-6 327,-36 488,-36 488,-6 327,-6"/>
<text text-anchor="start" x="335" y="-24" font-family="Helvetica,sans-Serif" font-size="10.00" fill="#000000">/home/atmerhannah/argodsm</text>
<text text-anchor="middle" x="407.5" y="-13" font-family="Helvetica,sans-Serif" font-size="10.00" fill="#000000">/src/backend/mpi/swdsm.cpp</text>
</a>
</g>
</g>
<!-- Node2&#45;&gt;Node6 -->
<g id="edge6" class="edge">
<title>Node2&#45;&gt;Node6</title>
<path fill="none" stroke="#191970" d="M459.768,-150.9426C447.1147,-142.6981 434.9592,-132.4201 426.5,-120 409.0622,-94.3972 406.6548,-56.8721 406.8296,-36.1502"/>
<polygon fill="#191970" stroke="#191970" points="458.2115,-154.0934 468.5683,-156.3268 461.8648,-148.1223 458.2115,-154.0934"/>
</g>
<!-- Node7 -->
<g id="node6" class="node">
<title>Node7</title>
<g id="a_node6"><a xlink:href="singlenode_8cpp.html" target="_top" xlink:title="pseudo&#45;backend implemenation for a single node ArgoDSM system ">
<polygon fill="#ffffff" stroke="#000000" points="525,-.5 525,-41.5 686,-41.5 686,-.5 525,-.5"/>
<text text-anchor="start" x="533" y="-29.5" font-family="Helvetica,sans-Serif" font-size="10.00" fill="#000000">/home/atmerhannah/argodsm</text>
<text text-anchor="start" x="533" y="-18.5" font-family="Helvetica,sans-Serif" font-size="10.00" fill="#000000">/src/backend/singlenode</text>
<text text-anchor="middle" x="605.5" y="-7.5" font-family="Helvetica,sans-Serif" font-size="10.00" fill="#000000">/singlenode.cpp</text>
</a>
</g>
</g>
<!-- Node2&#45;&gt;Node7 -->
<g id="edge7" class="edge">
<title>Node2&#45;&gt;Node7</title>
<path fill="none" stroke="#191970" d="M576.7846,-150.7462C588.6847,-142.6701 599.6112,-132.517 606.5,-120 619.8428,-95.7558 616.0074,-62.8495 611.3233,-41.7655"/>
<polygon fill="#191970" stroke="#191970" points="574.6015,-147.984 567.9912,-156.2638 578.3221,-153.9134 574.6015,-147.984"/>
</g>
<!-- Node8 -->
<g id="node7" class="node">
<title>Node8</title>
<g id="a_node7"><a xlink:href="signal_8hpp.html" target="_top" xlink:title="This file provides facilities for handling POSIX signals, especially SIGSEGV, within ArgoDSM...">
<polygon fill="#ffffff" stroke="#000000" points="436,-84 436,-114 597,-114 597,-84 436,-84"/>
<text text-anchor="start" x="444" y="-102" font-family="Helvetica,sans-Serif" font-size="10.00" fill="#000000">/home/atmerhannah/argodsm</text>
<text text-anchor="middle" x="516.5" y="-91" font-family="Helvetica,sans-Serif" font-size="10.00" fill="#000000">/src/signal/signal.hpp</text>
</a>
</g>
</g>
<!-- Node2&#45;&gt;Node8 -->
<g id="edge8" class="edge">
<title>Node2&#45;&gt;Node8</title>
<path fill="none" stroke="#191970" d="M516.5,-146.0187C516.5,-135.1033 516.5,-123.3119 516.5,-114.2679"/>
<polygon fill="#191970" stroke="#191970" points="513.0001,-146.0974 516.5,-156.0974 520.0001,-146.0975 513.0001,-146.0974"/>
</g>
<!-- Node9 -->
<g id="node8" class="node">
<title>Node9</title>
<g id="a_node8"><a xlink:href="anonymous_8cpp.html" target="_top" xlink:title="This file implements the virtual memory and virtual address handling. ">
<polygon fill="#ffffff" stroke="#000000" points="653,-84 653,-114 848,-114 848,-84 653,-84"/>
<text text-anchor="start" x="661" y="-102" font-family="Helvetica,sans-Serif" font-size="10.00" fill="#000000">/home/atmerhannah/argodsm</text>
<text text-anchor="middle" x="750.5" y="-91" font-family="Helvetica,sans-Serif" font-size="10.00" fill="#000000">/src/virtual_memory/anonymous.cpp</text>
</a>
</g>
</g>
<!-- Node2&#45;&gt;Node9 -->
<g id="edge11" class="edge">
<title>Node2&#45;&gt;Node9</title>
<path fill="none" stroke="#191970" d="M587.8404,-153.2199C626.122,-140.4593 672.1388,-125.1204 705.4436,-114.0188"/>
<polygon fill="#191970" stroke="#191970" points="586.6669,-149.9217 578.2868,-156.4044 588.8805,-156.5624 586.6669,-149.9217"/>
</g>
<!-- Node10 -->
<g id="node9" class="node">
<title>Node10</title>
<g id="a_node9"><a xlink:href="memfd_8cpp.html" target="_top" xlink:title="This file implements the virtual memory and virtual address handling. ">
<polygon fill="#ffffff" stroke="#000000" points="866,-84 866,-114 1039,-114 1039,-84 866,-84"/>
<text text-anchor="start" x="874" y="-102" font-family="Helvetica,sans-Serif" font-size="10.00" fill="#000000">/home/atmerhannah/argodsm</text>
<text text-anchor="middle" x="952.5" y="-91" font-family="Helvetica,sans-Serif" font-size="10.00" fill="#000000">/src/virtual_memory/memfd.cpp</text>
</a>
</g>
</g>
<!-- Node2&#45;&gt;Node10 -->
<g id="edge12" class="edge">
<title>Node2&#45;&gt;Node10</title>
<path fill="none" stroke="#191970" d="M607.2719,-163.1413C676.1099,-152.3132 772.9755,-136.3951 857.5,-120 866.9518,-118.1666 876.9043,-116.1086 886.666,-114.0168"/>
<polygon fill="#191970" stroke="#191970" points="606.6606,-159.6943 597.3236,-164.7014 607.7451,-166.6098 606.6606,-159.6943"/>
</g>
<!-- Node11 -->
<g id="node10" class="node">
<title>Node11</title>
<g id="a_node10"><a xlink:href="shm_8cpp.html" target="_top" xlink:title="This file implements the virtual memory and virtual address handling. ">
<polygon fill="#ffffff" stroke="#000000" points="1057,-84 1057,-114 1218,-114 1218,-84 1057,-84"/>
<text text-anchor="start" x="1065" y="-102" font-family="Helvetica,sans-Serif" font-size="10.00" fill="#000000">/home/atmerhannah/argodsm</text>
<text text-anchor="middle" x="1137.5" y="-91" font-family="Helvetica,sans-Serif" font-size="10.00" fill="#000000">/src/virtual_memory/shm.cpp</text>
</a>
</g>
</g>
<!-- Node2&#45;&gt;Node11 -->
<g id="edge13" class="edge">
<title>Node2&#45;&gt;Node11</title>
<path fill="none" stroke="#191970" d="M607.1931,-170.7528C713.4633,-162.6324 894.6029,-146.2949 1048.5,-120 1058.2023,-118.3423 1068.4254,-116.2557 1078.3478,-114.0454"/>
<polygon fill="#191970" stroke="#191970" points="606.8535,-167.2684 597.1461,-171.5131 607.3817,-174.2485 606.8535,-167.2684"/>
</g>
<!-- Node4&#45;&gt;Node5 -->
<g id="edge3" class="edge">
<title>Node4&#45;&gt;Node5</title>
<path fill="none" stroke="#191970" d="M265.8461,-71.3152C251.8291,-59.4312 236.0021,-46.0126 224.2198,-36.0233"/>
<polygon fill="#191970" stroke="#191970" points="263.9547,-74.3002 273.8457,-78.0974 268.4815,-68.9609 263.9547,-74.3002"/>
</g>
<!-- Node4&#45;&gt;Node6 -->
<g id="edge4" class="edge">
<title>Node4&#45;&gt;Node6</title>
<path fill="none" stroke="#191970" d="M335.9795,-72.1798C352.8363,-60.1171 372.1078,-46.3265 386.3959,-36.102"/>
<polygon fill="#191970" stroke="#191970" points="333.5193,-69.6364 327.4238,-78.3022 337.593,-75.329 333.5193,-69.6364"/>
</g>
<!-- Node8&#45;&gt;Node6 -->
<g id="edge9" class="edge">
<title>Node8&#45;&gt;Node6</title>
<path fill="none" stroke="#191970" d="M486.9073,-77.8236C468.549,-64.6864 445.3868,-48.1117 428.8237,-36.2592"/>
<polygon fill="#191970" stroke="#191970" points="485.3146,-80.9876 495.4837,-83.9608 489.3882,-75.295 485.3146,-80.9876"/>
</g>
<!-- Node8&#45;&gt;Node7 -->
<g id="edge10" class="edge">
<title>Node8&#45;&gt;Node7</title>
<path fill="none" stroke="#191970" d="M541.1973,-77.3552C553.9488,-66.1797 569.4256,-52.6157 581.9999,-41.5956"/>
<polygon fill="#191970" stroke="#191970" points="538.8738,-74.7376 533.6601,-83.9608 543.4875,-80.0019 538.8738,-74.7376"/>
</g>
</g>
</svg>
