<?xml version="1.0" encoding="UTF-8" standalone="no"?>
<!DOCTYPE svg PUBLIC "-//W3C//DTD SVG 1.1//EN"
 "http://www.w3.org/Graphics/SVG/1.1/DTD/svg11.dtd">
<!-- Generated by graphviz version 2.40.1 (20161225.0304)
 -->
<!-- Title: /home/atmerhannah/argodsm/src/allocators/allocators.hpp Pages: 1 -->
<!--zoomable 632 -->
<svg id="main" version="1.1" xmlns="http://www.w3.org/2000/svg" xmlns:xlink="http://www.w3.org/1999/xlink" xml:space="preserve" onload="init(evt)">
<style type="text/css"><![CDATA[
.edge:hover path { stroke: red; }
.edge:hover polygon { stroke: red; fill: red; }
]]></style>
<script type="text/javascript"><![CDATA[
var edges = document.getElementsByTagName('g');
if (edges && edges.length) {
  for (var i=0;i<edges.length;i++) {
    if (edges[i].id.substr(0,4)=='edge') {
      edges[i].setAttribute('class','edge');
    }
  }
}
]]></script>
        <defs>
                <circle id="rim" cx="0" cy="0" r="7"/>
                <circle id="rim2" cx="0" cy="0" r="3.5"/>
                <g id="zoomPlus">
                        <use xlink:href="#rim" fill="#404040">
                                <set attributeName="fill" to="#808080" begin="zoomplus.mouseover" end="zoomplus.mouseout"/>
                        </use>
                        <path d="M-4,0h8M0,-4v8" fill="none" stroke="white" stroke-width="1.5" pointer-events="none"/>
                </g>
                <g id="zoomMin">
                        <use xlink:href="#rim" fill="#404040">
                                <set attributeName="fill" to="#808080" begin="zoomminus.mouseover" end="zoomminus.mouseout"/>
                        </use>
                        <path d="M-4,0h8" fill="none" stroke="white" stroke-width="1.5" pointer-events="none"/>
                </g>
                <g id="dirArrow">
                        <path fill="none" stroke="white" stroke-width="1.5" d="M0,-3.0v7 M-2.5,-0.5L0,-3.0L2.5,-0.5"/>
                </g>
               <g id="resetDef">
                       <use xlink:href="#rim2" fill="#404040">
                               <set attributeName="fill" to="#808080" begin="reset.mouseover" end="reset.mouseout"/>
                       </use>
               </g>
        </defs>

<script type="text/javascript">
var viewWidth = 1303;
var viewHeight = 632;
var sectionId = 'dynsection-0';
</script>
<script xlink:href="svgpan.js"/>
<svg id="graph" class="graph">
<g id="viewport">
<title>/home/atmerhannah/argodsm/src/allocators/allocators.hpp</title>
<polygon fill="#ffffff" stroke="transparent" points="-4,4 -4,-628 1299.4373,-628 1299.4373,4 -4,4"/>
<!-- Node0 -->
<g id="node1" class="node">
<title>Node0</title>
<polygon fill="#bfbfbf" stroke="#000000" points="363.9373,-593.5 363.9373,-623.5 524.9373,-623.5 524.9373,-593.5 363.9373,-593.5"/>
<text text-anchor="start" x="371.9373" y="-611.5" font-family="Helvetica,sans-Serif" font-size="10.00" fill="#000000">/home/atmerhannah/argodsm</text>
<text text-anchor="middle" x="444.4373" y="-600.5" font-family="Helvetica,sans-Serif" font-size="10.00" fill="#000000">/src/allocators/allocators.hpp</text>
</g>
<!-- Node1 -->
<g id="node2" class="node">
<title>Node1</title>
<g id="a_node2"><a xlink:href="collective__allocator_8hpp.html" target="_top" xlink:title="This file provides the collective allocator for ArgoDSM. ">
<polygon fill="#ffffff" stroke="#000000" points="443.4373,-537.5 443.4373,-556.5 575.4373,-556.5 575.4373,-537.5 443.4373,-537.5"/>
<text text-anchor="middle" x="509.4373" y="-544.5" font-family="Helvetica,sans-Serif" font-size="10.00" fill="#000000">collective_allocator.hpp</text>
</a>
</g>
</g>
<!-- Node0&#45;&gt;Node1 -->
<g id="edge1" class="edge">
<title>Node0&#45;&gt;Node1</title>
<path fill="none" stroke="#191970" d="M460.5047,-593.2977C469.9033,-584.4052 481.7901,-573.1586 491.4943,-563.9769"/>
<polygon fill="#191970" stroke="#191970" points="494.1715,-566.2621 499.03,-556.8469 489.3605,-561.1774 494.1715,-566.2621"/>
</g>
<!-- Node33 -->
<g id="node34" class="node">
<title>Node33</title>
<g id="a_node34"><a xlink:href="dynamic__allocator_8hpp.html" target="_top" xlink:title="This file provides the dynamic allocator for ArgoDSM. ">
<polygon fill="#ffffff" stroke="#000000" points="315.9373,-481.5 315.9373,-500.5 442.9373,-500.5 442.9373,-481.5 315.9373,-481.5"/>
<text text-anchor="middle" x="379.4373" y="-488.5" font-family="Helvetica,sans-Serif" font-size="10.00" fill="#000000">dynamic_allocator.hpp</text>
</a>
</g>
</g>
<!-- Node0&#45;&gt;Node33 -->
<g id="edge63" class="edge">
<title>Node0&#45;&gt;Node33</title>
<path fill="none" stroke="#191970" d="M435.9397,-593.1389C424.0159,-571.5843 402.353,-532.4245 389.5941,-509.3604"/>
<polygon fill="#191970" stroke="#191970" points="392.6288,-507.6156 384.7255,-500.5595 386.5036,-511.0041 392.6288,-507.6156"/>
</g>
<!-- Node2 -->
<g id="node3" class="node">
<title>Node2</title>
<polygon fill="#ffffff" stroke="#bfbfbf" points="359.4373,-353 359.4373,-372 397.4373,-372 397.4373,-353 359.4373,-353"/>
<text text-anchor="middle" x="378.4373" y="-360" font-family="Helvetica,sans-Serif" font-size="10.00" fill="#000000">map</text>
</g>
<!-- Node1&#45;&gt;Node2 -->
<g id="edge2" class="edge">
<title>Node1&#45;&gt;Node2</title>
<path fill="none" stroke="#191970" d="M511.5562,-537.1578C516.0746,-513.4065 524.1214,-452.101 496.4373,-414 475.5828,-385.2984 435.2276,-372.3901 407.5697,-366.7244"/>
<polygon fill="#191970" stroke="#191970" points="408.1284,-363.2684 397.6584,-364.8897 406.8542,-370.1515 408.1284,-363.2684"/>
</g>
<!-- Node3 -->
<g id="node4" class="node">
<title>Node3</title>
<polygon fill="#ffffff" stroke="#bfbfbf" points="1237.4373,-353 1237.4373,-372 1295.4373,-372 1295.4373,-353 1237.4373,-353"/>
<text text-anchor="middle" x="1266.4373" y="-360" font-family="Helvetica,sans-Serif" font-size="10.00" fill="#000000">memory</text>
</g>
<!-- Node1&#45;&gt;Node3 -->
<g id="edge3" class="edge">
<title>Node1&#45;&gt;Node3</title>
<path fill="none" stroke="#191970" d="M569.0246,-537.4988C620.2588,-529.0017 696.0158,-515.6553 761.4373,-501 968.7843,-454.5515 1020.6364,-441.4193 1223.4373,-378 1226.0455,-377.1844 1228.7301,-376.3077 1231.4234,-375.4011"/>
<polygon fill="#191970" stroke="#191970" points="1232.7951,-378.6299 1241.0936,-372.0431 1230.4988,-372.0172 1232.7951,-378.6299"/>
</g>
<!-- Node4 -->
<g id="node5" class="node">
<title>Node4</title>
<polygon fill="#ffffff" stroke="#bfbfbf" points="190.9373,-353 190.9373,-372 233.9373,-372 233.9373,-353 190.9373,-353"/>
<text text-anchor="middle" x="212.4373" y="-360" font-family="Helvetica,sans-Serif" font-size="10.00" fill="#000000">stack</text>
</g>
<!-- Node1&#45;&gt;Node4 -->
<g id="edge4" class="edge">
<title>Node1&#45;&gt;Node4</title>
<path fill="none" stroke="#191970" d="M443.3226,-543.5395C320.2393,-535.5664 63.5115,-511.2191 9.4373,-445 -38.6408,-386.1238 111.9987,-368.8959 180.4427,-364.1696"/>
<polygon fill="#191970" stroke="#191970" points="180.923,-367.6461 190.6788,-363.5139 180.4754,-360.6604 180.923,-367.6461"/>
</g>
<!-- Node5 -->
<g id="node6" class="node">
<title>Node5</title>
<g id="a_node6"><a xlink:href="dynamic__mempool_8hpp.html" target="_top" xlink:title="This file provides a dynamically growing memory pool for ArgoDSM. ">
<polygon fill="#ffffff" stroke="#000000" points="544.4373,-414.5 544.4373,-444.5 666.4373,-444.5 666.4373,-414.5 544.4373,-414.5"/>
<text text-anchor="start" x="552.4373" y="-432.5" font-family="Helvetica,sans-Serif" font-size="10.00" fill="#000000">../mempools/dynamic</text>
<text text-anchor="middle" x="605.4373" y="-421.5" font-family="Helvetica,sans-Serif" font-size="10.00" fill="#000000">_mempool.hpp</text>
</a>
</g>
</g>
<!-- Node1&#45;&gt;Node5 -->
<g id="edge5" class="edge">
<title>Node1&#45;&gt;Node5</title>
<path fill="none" stroke="#191970" d="M517.2934,-537.3845C532.3249,-518.9865 565.5332,-478.341 586.6236,-452.5272"/>
<polygon fill="#191970" stroke="#191970" points="589.3903,-454.6728 593.0069,-444.7143 583.9695,-450.2439 589.3903,-454.6728"/>
</g>
<!-- Node6 -->
<g id="node7" class="node">
<title>Node6</title>
<g id="a_node7"><a xlink:href="backend_8hpp.html" target="_top" xlink:title="This file provides the backend interface. ">
<polygon fill="#ffffff" stroke="#000000" points="539.4373,-291.5 539.4373,-310.5 671.4373,-310.5 671.4373,-291.5 539.4373,-291.5"/>
<text text-anchor="middle" x="605.4373" y="-298.5" font-family="Helvetica,sans-Serif" font-size="10.00" fill="#000000">../backend/backend.hpp</text>
</a>
</g>
</g>
<!-- Node1&#45;&gt;Node6 -->
<g id="edge47" class="edge">
<title>Node1&#45;&gt;Node6</title>
<path fill="none" stroke="#191970" d="M575.4885,-540.1568C625.5717,-533.4445 688.4351,-521.2163 704.4373,-501 728.9068,-470.0866 651.8966,-361.9171 619.2962,-318.8694"/>
<polygon fill="#191970" stroke="#191970" points="621.9213,-316.5404 613.0662,-310.7232 616.3609,-320.7928 621.9213,-316.5404"/>
</g>
<!-- Node27 -->
<g id="node28" class="node">
<title>Node27</title>
<g id="a_node28"><a xlink:href="global__mempool_8hpp.html" target="_top" xlink:title="This file provides a dynamically growing memory pool for ArgoDSM. ">
<polygon fill="#ffffff" stroke="#000000" points="736.4373,-414.5 736.4373,-444.5 846.4373,-444.5 846.4373,-414.5 736.4373,-414.5"/>
<text text-anchor="start" x="744.4373" y="-432.5" font-family="Helvetica,sans-Serif" font-size="10.00" fill="#000000">../mempools/global</text>
<text text-anchor="middle" x="791.4373" y="-421.5" font-family="Helvetica,sans-Serif" font-size="10.00" fill="#000000">_mempool.hpp</text>
</a>
</g>
</g>
<!-- Node1&#45;&gt;Node27 -->
<g id="edge35" class="edge">
<title>Node1&#45;&gt;Node27</title>
<path fill="none" stroke="#191970" d="M575.5322,-538.9508C632.9521,-531.012 710.9475,-517.6637 737.4373,-501 755.7087,-489.5062 770.0383,-469.4646 779.3309,-453.5191"/>
<polygon fill="#191970" stroke="#191970" points="782.432,-455.1438 784.212,-444.6996 776.3074,-451.7542 782.432,-455.1438"/>
</g>
<!-- Node1&#45;&gt;Node33 -->
<g id="edge48" class="edge">
<title>Node1&#45;&gt;Node33</title>
<path fill="none" stroke="#191970" d="M487.0895,-537.3733C466.034,-528.3032 434.2878,-514.6279 410.7198,-504.4755"/>
<polygon fill="#191970" stroke="#191970" points="412.0623,-501.243 401.4935,-500.5011 409.2929,-507.6719 412.0623,-501.243"/>
</g>
<!-- Node34 -->
<g id="node35" class="node">
<title>Node34</title>
<g id="a_node35"><a xlink:href="generic__allocator_8hpp.html" target="_top" xlink:title="This file provides a generic allocator template for ArgoDSM. ">
<polygon fill="#ffffff" stroke="#000000" points="228.9373,-420 228.9373,-439 349.9373,-439 349.9373,-420 228.9373,-420"/>
<text text-anchor="middle" x="289.4373" y="-427" font-family="Helvetica,sans-Serif" font-size="10.00" fill="#000000">generic_allocator.hpp</text>
</a>
</g>
</g>
<!-- Node1&#45;&gt;Node34 -->
<g id="edge60" class="edge">
<title>Node1&#45;&gt;Node34</title>
<path fill="none" stroke="#191970" d="M443.2395,-539.6048C391.644,-532.4955 325.6386,-519.999 306.4373,-501 293.0083,-487.7125 289.4265,-465.8776 288.7934,-449.8273"/>
<polygon fill="#191970" stroke="#191970" points="292.2917,-449.3544 288.7548,-439.3674 285.2918,-449.3803 292.2917,-449.3544"/>
</g>
<!-- Node35 -->
<g id="node36" class="node">
<title>Node35</title>
<g id="a_node36"><a xlink:href="null__lock_8hpp.html" target="_top" xlink:title="dummy lock, not intended for public use ">
<polygon fill="#ffffff" stroke="#000000" points="406.9373,-420 406.9373,-439 487.9373,-439 487.9373,-420 406.9373,-420"/>
<text text-anchor="middle" x="447.4373" y="-427" font-family="Helvetica,sans-Serif" font-size="10.00" fill="#000000">null_lock.hpp</text>
</a>
</g>
</g>
<!-- Node1&#45;&gt;Node35 -->
<g id="edge61" class="edge">
<title>Node1&#45;&gt;Node35</title>
<path fill="none" stroke="#191970" d="M504.3636,-537.3845C494.0999,-517.9331 470.7144,-473.6138 457.3289,-448.2462"/>
<polygon fill="#191970" stroke="#191970" points="460.3435,-446.4593 452.5811,-439.2484 454.1524,-449.7261 460.3435,-446.4593"/>
</g>
<!-- Node37 -->
<g id="node38" class="node">
<title>Node37</title>
<g id="a_node38"><a xlink:href="collective__allocator_8h.html" target="_top" xlink:title="This file provides the collective allocator for ArgoDSM. ">
<polygon fill="#ffffff" stroke="#000000" points="575.4373,-481.5 575.4373,-500.5 695.4373,-500.5 695.4373,-481.5 575.4373,-481.5"/>
<text text-anchor="middle" x="635.4373" y="-488.5" font-family="Helvetica,sans-Serif" font-size="10.00" fill="#000000">collective_allocator.h</text>
</a>
</g>
</g>
<!-- Node1&#45;&gt;Node37 -->
<g id="edge62" class="edge">
<title>Node1&#45;&gt;Node37</title>
<path fill="none" stroke="#191970" d="M531.0975,-537.3733C551.4145,-528.3435 582.0013,-514.7494 604.8123,-504.6111"/>
<polygon fill="#191970" stroke="#191970" points="606.3432,-507.7609 614.0598,-500.5011 603.5001,-501.3642 606.3432,-507.7609"/>
</g>
<!-- Node5&#45;&gt;Node6 -->
<g id="edge6" class="edge">
<title>Node5&#45;&gt;Node6</title>
<path fill="none" stroke="#191970" d="M605.4373,-414.2548C605.4373,-390.9744 605.4373,-346.5607 605.4373,-320.8117"/>
<polygon fill="#191970" stroke="#191970" points="608.9374,-320.7358 605.4373,-310.7358 601.9374,-320.7358 608.9374,-320.7358"/>
</g>
<!-- Node26 -->
<g id="node27" class="node">
<title>Node26</title>
<g id="a_node27"><a xlink:href="broadcast_8hpp.html" target="_top" xlink:title="This file provides a broadcasting facility for a single value. ">
<polygon fill="#ffffff" stroke="#000000" points="473.9373,-347.5 473.9373,-377.5 576.9373,-377.5 576.9373,-347.5 473.9373,-347.5"/>
<text text-anchor="start" x="481.9373" y="-365.5" font-family="Helvetica,sans-Serif" font-size="10.00" fill="#000000">../synchronization</text>
<text text-anchor="middle" x="525.4373" y="-354.5" font-family="Helvetica,sans-Serif" font-size="10.00" fill="#000000">/broadcast.hpp</text>
</a>
</g>
</g>
<!-- Node5&#45;&gt;Node26 -->
<g id="edge32" class="edge">
<title>Node5&#45;&gt;Node26</title>
<path fill="none" stroke="#191970" d="M587.2841,-414.2967C576.6464,-405.3876 563.0352,-393.9882 551.2913,-384.1527"/>
<polygon fill="#191970" stroke="#191970" points="553.4325,-381.3806 543.5187,-377.6432 548.938,-386.7472 553.4325,-381.3806"/>
</g>
<!-- Node7 -->
<g id="node8" class="node">
<title>Node7</title>
<polygon fill="#ffffff" stroke="#bfbfbf" points="640.4373,-230 640.4373,-249 692.4373,-249 692.4373,-230 640.4373,-230"/>
<text text-anchor="middle" x="666.4373" y="-237" font-family="Helvetica,sans-Serif" font-size="10.00" fill="#000000">cassert</text>
</g>
<!-- Node6&#45;&gt;Node7 -->
<g id="edge7" class="edge">
<title>Node6&#45;&gt;Node7</title>
<path fill="none" stroke="#191970" d="M614.9686,-291.3906C624.2252,-282.0581 638.4763,-267.6902 649.6376,-256.4374"/>
<polygon fill="#191970" stroke="#191970" points="652.2145,-258.8095 656.7717,-249.2449 647.2445,-253.88 652.2145,-258.8095"/>
</g>
<!-- Node8 -->
<g id="node9" class="node">
<title>Node8</title>
<polygon fill="#ffffff" stroke="#bfbfbf" points="488.4373,-230 488.4373,-249 538.4373,-249 538.4373,-230 488.4373,-230"/>
<text text-anchor="middle" x="513.4373" y="-237" font-family="Helvetica,sans-Serif" font-size="10.00" fill="#000000">cstdint</text>
</g>
<!-- Node6&#45;&gt;Node8 -->
<g id="edge8" class="edge">
<title>Node6&#45;&gt;Node8</title>
<path fill="none" stroke="#191970" d="M591.0623,-291.3906C576.3442,-281.5519 553.2541,-266.1167 536.0784,-254.6351"/>
<polygon fill="#191970" stroke="#191970" points="537.97,-251.6896 527.7114,-249.0419 534.0798,-257.5091 537.97,-251.6896"/>
</g>
<!-- Node9 -->
<g id="node10" class="node">
<title>Node9</title>
<polygon fill="#ffffff" stroke="#bfbfbf" points="556.9373,-230 556.9373,-249 621.9373,-249 621.9373,-230 556.9373,-230"/>
<text text-anchor="middle" x="589.4373" y="-237" font-family="Helvetica,sans-Serif" font-size="10.00" fill="#000000">stdexcept</text>
</g>
<!-- Node6&#45;&gt;Node9 -->
<g id="edge9" class="edge">
<title>Node6&#45;&gt;Node9</title>
<path fill="none" stroke="#191970" d="M602.9373,-291.3906C600.6961,-282.776 597.3387,-269.8708 594.5328,-259.0858"/>
<polygon fill="#191970" stroke="#191970" points="597.8777,-258.0414 591.9726,-249.2449 591.1032,-259.804 597.8777,-258.0414"/>
</g>
<!-- Node10 -->
<g id="node11" class="node">
<title>Node10</title>
<g id="a_node11"><a xlink:href="global__ptr_8hpp.html" target="_top" xlink:title="This file provides the global pointer for ArgoDSM. ">
<polygon fill="#ffffff" stroke="#000000" points="710.4373,-224.5 710.4373,-254.5 818.4373,-254.5 818.4373,-224.5 710.4373,-224.5"/>
<text text-anchor="start" x="718.4373" y="-242.5" font-family="Helvetica,sans-Serif" font-size="10.00" fill="#000000">../data_distribution</text>
<text text-anchor="middle" x="764.4373" y="-231.5" font-family="Helvetica,sans-Serif" font-size="10.00" fill="#000000">/global_ptr.hpp</text>
</a>
</g>
</g>
<!-- Node6&#45;&gt;Node10 -->
<g id="edge10" class="edge">
<title>Node6&#45;&gt;Node10</title>
<path fill="none" stroke="#191970" d="M630.2811,-291.3906C653.1945,-282.5279 687.8486,-269.1239 716.1959,-258.1594"/>
<polygon fill="#191970" stroke="#191970" points="717.4775,-261.4165 725.5415,-254.5446 714.9522,-254.8878 717.4775,-261.4165"/>
</g>
<!-- Node19 -->
<g id="node20" class="node">
<title>Node19</title>
<g id="a_node20"><a xlink:href="types_8hpp.html" target="_top" xlink:title="This file defines common types used in ArgoDSM. ">
<polygon fill="#ffffff" stroke="#000000" points="201.4373,-.5 201.4373,-19.5 305.4373,-19.5 305.4373,-.5 201.4373,-.5"/>
<text text-anchor="middle" x="253.4373" y="-7.5" font-family="Helvetica,sans-Serif" font-size="10.00" fill="#000000">../types/types.hpp</text>
</a>
</g>
</g>
<!-- Node6&#45;&gt;Node19 -->
<g id="edge31" class="edge">
<title>Node6&#45;&gt;Node19</title>
<path fill="none" stroke="#191970" d="M539.2288,-291.6824C437.263,-275.449 253.4373,-237.8795 253.4373,-178 253.4373,-178 253.4373,-178 253.4373,-122 253.4373,-89.7116 253.4373,-52.1872 253.4373,-29.8048"/>
<polygon fill="#191970" stroke="#191970" points="256.9374,-29.5883 253.4373,-19.5884 249.9374,-29.5884 256.9374,-29.5883"/>
</g>
<!-- Node11 -->
<g id="node12" class="node">
<title>Node11</title>
<polygon fill="#ffffff" stroke="#bfbfbf" points="538.4373,-168.5 538.4373,-187.5 582.4373,-187.5 582.4373,-168.5 538.4373,-168.5"/>
<text text-anchor="middle" x="560.4373" y="-175.5" font-family="Helvetica,sans-Serif" font-size="10.00" fill="#000000">string</text>
</g>
<!-- Node10&#45;&gt;Node11 -->
<g id="edge11" class="edge">
<title>Node10&#45;&gt;Node11</title>
<path fill="none" stroke="#191970" d="M712.869,-224.4816C680.7122,-215.04 638.2383,-202.4323 592.562,-188.3072"/>
<polygon fill="#191970" stroke="#191970" points="593.3571,-184.8894 582.7691,-185.2706 591.2839,-191.5754 593.3571,-184.8894"/>
</g>
<!-- Node12 -->
<g id="node13" class="node">
<title>Node12</title>
<g id="a_node13"><a xlink:href="env_8hpp.html" target="_top" xlink:title="This file provides facilities for handling environment variables. ">
<polygon fill="#ffffff" stroke="#000000" points="600.9373,-168.5 600.9373,-187.5 685.9373,-187.5 685.9373,-168.5 600.9373,-168.5"/>
<text text-anchor="middle" x="643.4373" y="-175.5" font-family="Helvetica,sans-Serif" font-size="10.00" fill="#000000">../env/env.hpp</text>
</a>
</g>
</g>
<!-- Node10&#45;&gt;Node12 -->
<g id="edge12" class="edge">
<title>Node10&#45;&gt;Node12</title>
<path fill="none" stroke="#191970" d="M734.8374,-224.4554C715.4452,-214.599 690.2631,-201.7999 671.243,-192.1327"/>
<polygon fill="#191970" stroke="#191970" points="672.6885,-188.9412 662.188,-187.5303 669.5168,-195.1815 672.6885,-188.9412"/>
</g>
<!-- Node14 -->
<g id="node15" class="node">
<title>Node14</title>
<g id="a_node15"><a xlink:href="data__distribution_8hpp.html" target="_top" xlink:title="This file provides an abstraction layer for distributing the shared memory space. ...">
<polygon fill="#ffffff" stroke="#000000" points="704.4373,-168.5 704.4373,-187.5 824.4373,-187.5 824.4373,-168.5 704.4373,-168.5"/>
<text text-anchor="middle" x="764.4373" y="-175.5" font-family="Helvetica,sans-Serif" font-size="10.00" fill="#000000">data_distribution.hpp</text>
</a>
</g>
</g>
<!-- Node10&#45;&gt;Node14 -->
<g id="edge14" class="edge">
<title>Node10&#45;&gt;Node14</title>
<path fill="none" stroke="#191970" d="M764.4373,-224.2977C764.4373,-216.3834 764.4373,-206.6043 764.4373,-198.0759"/>
<polygon fill="#191970" stroke="#191970" points="767.9374,-197.8469 764.4373,-187.8469 760.9374,-197.847 767.9374,-197.8469"/>
</g>
<!-- Node13 -->
<g id="node14" class="node">
<title>Node13</title>
<polygon fill="#ffffff" stroke="#bfbfbf" points="281.9373,-112.5 281.9373,-131.5 334.9373,-131.5 334.9373,-112.5 281.9373,-112.5"/>
<text text-anchor="middle" x="308.4373" y="-119.5" font-family="Helvetica,sans-Serif" font-size="10.00" fill="#000000">cstddef</text>
</g>
<!-- Node12&#45;&gt;Node13 -->
<g id="edge13" class="edge">
<title>Node12&#45;&gt;Node13</title>
<path fill="none" stroke="#191970" d="M600.8989,-169.655C597.7002,-169.0779 594.5195,-168.5198 591.4373,-168 484.8282,-150.0211 454.1236,-155.0282 345.1795,-132.1637"/>
<polygon fill="#191970" stroke="#191970" points="345.6071,-128.6763 335.0973,-130.0159 344.1486,-135.5227 345.6071,-128.6763"/>
</g>
<!-- Node15 -->
<g id="node16" class="node">
<title>Node15</title>
<g id="a_node16"><a xlink:href="base__distribution_8hpp.html" target="_top" xlink:title="This file implements the base distribution class for all the policies to derive from. ">
<polygon fill="#ffffff" stroke="#000000" points="631.4373,-56.5 631.4373,-75.5 753.4373,-75.5 753.4373,-56.5 631.4373,-56.5"/>
<text text-anchor="middle" x="692.4373" y="-63.5" font-family="Helvetica,sans-Serif" font-size="10.00" fill="#000000">base_distribution.hpp</text>
</a>
</g>
</g>
<!-- Node14&#45;&gt;Node15 -->
<g id="edge15" class="edge">
<title>Node14&#45;&gt;Node15</title>
<path fill="none" stroke="#191970" d="M704.3539,-169.1378C643.9309,-159.6134 558.3126,-144.1999 548.4373,-132 523.1849,-100.8035 573.5271,-83.7263 621.4784,-74.8089"/>
<polygon fill="#191970" stroke="#191970" points="622.085,-78.256 631.3295,-73.0801 620.875,-71.3614 622.085,-78.256"/>
</g>
<!-- Node20 -->
<g id="node21" class="node">
<title>Node20</title>
<g id="a_node21"><a xlink:href="naive__distribution_8hpp.html" target="_top" xlink:title="This file implements the naive data distribution. ">
<polygon fill="#ffffff" stroke="#000000" points="557.9373,-112.5 557.9373,-131.5 682.9373,-131.5 682.9373,-112.5 557.9373,-112.5"/>
<text text-anchor="middle" x="620.4373" y="-119.5" font-family="Helvetica,sans-Serif" font-size="10.00" fill="#000000">naive_distribution.hpp</text>
</a>
</g>
</g>
<!-- Node14&#45;&gt;Node20 -->
<g id="edge20" class="edge">
<title>Node14&#45;&gt;Node20</title>
<path fill="none" stroke="#191970" d="M739.6828,-168.3733C716.1524,-159.2226 680.5686,-145.3844 654.3947,-135.2057"/>
<polygon fill="#191970" stroke="#191970" points="655.4574,-131.8636 644.8688,-131.5011 652.9202,-138.3877 655.4574,-131.8636"/>
</g>
<!-- Node21 -->
<g id="node22" class="node">
<title>Node21</title>
<g id="a_node22"><a xlink:href="cyclic__distribution_8hpp.html" target="_top" xlink:title="This file implements the cyclic data distribution. ">
<polygon fill="#ffffff" stroke="#000000" points="701.4373,-112.5 701.4373,-131.5 827.4373,-131.5 827.4373,-112.5 701.4373,-112.5"/>
<text text-anchor="middle" x="764.4373" y="-119.5" font-family="Helvetica,sans-Serif" font-size="10.00" fill="#000000">cyclic_distribution.hpp</text>
</a>
</g>
</g>
<!-- Node14&#45;&gt;Node21 -->
<g id="edge22" class="edge">
<title>Node14&#45;&gt;Node21</title>
<path fill="none" stroke="#191970" d="M764.4373,-168.2455C764.4373,-160.9382 764.4373,-150.6944 764.4373,-141.7046"/>
<polygon fill="#191970" stroke="#191970" points="767.9374,-141.6426 764.4373,-131.6427 760.9374,-141.6427 767.9374,-141.6426"/>
</g>
<!-- Node22 -->
<g id="node23" class="node">
<title>Node22</title>
<g id="a_node23"><a xlink:href="skew__mapp__distribution_8hpp.html" target="_top" xlink:title="This file implements the skew&#45;mapp data distribution. ">
<polygon fill="#ffffff" stroke="#000000" points="845.9373,-112.5 845.9373,-131.5 1002.9373,-131.5 1002.9373,-112.5 845.9373,-112.5"/>
<text text-anchor="middle" x="924.4373" y="-119.5" font-family="Helvetica,sans-Serif" font-size="10.00" fill="#000000">skew_mapp_distribution.hpp</text>
</a>
</g>
</g>
<!-- Node14&#45;&gt;Node22 -->
<g id="edge24" class="edge">
<title>Node14&#45;&gt;Node22</title>
<path fill="none" stroke="#191970" d="M791.9423,-168.3733C818.3175,-159.1419 858.3224,-145.1402 887.4731,-134.9375"/>
<polygon fill="#191970" stroke="#191970" points="889.0089,-138.1082 897.2912,-131.5011 886.6964,-131.5012 889.0089,-138.1082"/>
</g>
<!-- Node23 -->
<g id="node24" class="node">
<title>Node23</title>
<g id="a_node24"><a xlink:href="prime__mapp__distribution_8hpp.html" target="_top" xlink:title="This file implements the prime&#45;mapp data distribution. ">
<polygon fill="#ffffff" stroke="#000000" points="1021.4373,-112.5 1021.4373,-131.5 1181.4373,-131.5 1181.4373,-112.5 1021.4373,-112.5"/>
<text text-anchor="middle" x="1101.4373" y="-119.5" font-family="Helvetica,sans-Serif" font-size="10.00" fill="#000000">prime_mapp_distribution.hpp</text>
</a>
</g>
</g>
<!-- Node14&#45;&gt;Node23 -->
<g id="edge26" class="edge">
<title>Node14&#45;&gt;Node23</title>
<path fill="none" stroke="#191970" d="M821.9868,-168.4369C880.7522,-158.6717 971.9286,-143.5207 1034.0339,-133.2006"/>
<polygon fill="#191970" stroke="#191970" points="1034.8342,-136.6157 1044.1252,-131.5237 1033.6867,-129.7103 1034.8342,-136.6157"/>
</g>
<!-- Node24 -->
<g id="node25" class="node">
<title>Node24</title>
<g id="a_node25"><a xlink:href="first__touch__distribution_8hpp.html" target="_top" xlink:title="This file implements the first&#45;touch data distribution. ">
<polygon fill="#ffffff" stroke="#000000" points="352.9373,-112.5 352.9373,-131.5 501.9373,-131.5 501.9373,-112.5 352.9373,-112.5"/>
<text text-anchor="middle" x="427.4373" y="-119.5" font-family="Helvetica,sans-Serif" font-size="10.00" fill="#000000">first_touch_distribution.hpp</text>
</a>
</g>
</g>
<!-- Node14&#45;&gt;Node24 -->
<g id="edge28" class="edge">
<title>Node14&#45;&gt;Node24</title>
<path fill="none" stroke="#191970" d="M706.8878,-168.4369C648.1224,-158.6717 556.946,-143.5207 494.8407,-133.2006"/>
<polygon fill="#191970" stroke="#191970" points="495.1879,-129.7103 484.7494,-131.5237 494.0404,-136.6157 495.1879,-129.7103"/>
</g>
<!-- Node16 -->
<g id="node17" class="node">
<title>Node16</title>
<polygon fill="#ffffff" stroke="#bfbfbf" points="625.9373,-.5 625.9373,-19.5 674.9373,-19.5 674.9373,-.5 625.9373,-.5"/>
<text text-anchor="middle" x="650.4373" y="-7.5" font-family="Helvetica,sans-Serif" font-size="10.00" fill="#000000">cstdlib</text>
</g>
<!-- Node15&#45;&gt;Node16 -->
<g id="edge16" class="edge">
<title>Node15&#45;&gt;Node16</title>
<path fill="none" stroke="#191970" d="M685.1215,-56.2455C679.2194,-48.3761 670.7631,-37.101 663.6779,-27.6542"/>
<polygon fill="#191970" stroke="#191970" points="666.4694,-25.5427 657.6693,-19.6427 660.8693,-29.7427 666.4694,-25.5427"/>
</g>
<!-- Node17 -->
<g id="node18" class="node">
<title>Node17</title>
<polygon fill="#ffffff" stroke="#bfbfbf" points="1042.4373,-.5 1042.4373,-19.5 1102.4373,-19.5 1102.4373,-.5 1042.4373,-.5"/>
<text text-anchor="middle" x="1072.4373" y="-7.5" font-family="Helvetica,sans-Serif" font-size="10.00" fill="#000000">iostream</text>
</g>
<!-- Node15&#45;&gt;Node17 -->
<g id="edge17" class="edge">
<title>Node15&#45;&gt;Node17</title>
<path fill="none" stroke="#191970" d="M753.4909,-57.0026C831.755,-45.469 965.2877,-25.7905 1032.0047,-15.9585"/>
<polygon fill="#191970" stroke="#191970" points="1032.7371,-19.3884 1042.1199,-14.4678 1031.7165,-12.4632 1032.7371,-19.3884"/>
</g>
<!-- Node18 -->
<g id="node19" class="node">
<title>Node18</title>
<polygon fill="#ffffff" stroke="#bfbfbf" points="692.9373,-.5 692.9373,-19.5 773.9373,-19.5 773.9373,-.5 692.9373,-.5"/>
<text text-anchor="middle" x="733.4373" y="-7.5" font-family="Helvetica,sans-Serif" font-size="10.00" fill="#000000">system_error</text>
</g>
<!-- Node15&#45;&gt;Node18 -->
<g id="edge18" class="edge">
<title>Node15&#45;&gt;Node18</title>
<path fill="none" stroke="#191970" d="M699.579,-56.2455C705.2817,-48.4564 713.4273,-37.3308 720.2998,-27.9439"/>
<polygon fill="#191970" stroke="#191970" points="723.2941,-29.7789 726.3775,-19.6427 717.646,-25.6437 723.2941,-29.7789"/>
</g>
<!-- Node15&#45;&gt;Node19 -->
<g id="edge19" class="edge">
<title>Node15&#45;&gt;Node19</title>
<path fill="none" stroke="#191970" d="M631.3962,-58.2134C548.1682,-47.5967 399.8586,-28.6779 315.898,-17.9676"/>
<polygon fill="#191970" stroke="#191970" points="316.1,-14.4651 305.7374,-16.6715 315.2141,-21.4089 316.1,-14.4651"/>
</g>
<!-- Node20&#45;&gt;Node15 -->
<g id="edge21" class="edge">
<title>Node20&#45;&gt;Node15</title>
<path fill="none" stroke="#191970" d="M632.9787,-112.2455C643.716,-103.8943 659.3846,-91.7076 671.942,-81.9408"/>
<polygon fill="#191970" stroke="#191970" points="674.2948,-84.5449 680.0396,-75.6427 669.9972,-79.0194 674.2948,-84.5449"/>
</g>
<!-- Node21&#45;&gt;Node15 -->
<g id="edge23" class="edge">
<title>Node21&#45;&gt;Node15</title>
<path fill="none" stroke="#191970" d="M751.8959,-112.2455C741.1586,-103.8943 725.49,-91.7076 712.9326,-81.9408"/>
<polygon fill="#191970" stroke="#191970" points="714.8774,-79.0194 704.835,-75.6427 710.5798,-84.5449 714.8774,-79.0194"/>
</g>
<!-- Node22&#45;&gt;Node15 -->
<g id="edge25" class="edge">
<title>Node22&#45;&gt;Node15</title>
<path fill="none" stroke="#191970" d="M884.8187,-112.4369C845.2805,-102.8932 784.4304,-88.2052 741.7792,-77.9101"/>
<polygon fill="#191970" stroke="#191970" points="742.4346,-74.4679 731.8925,-75.5237 740.7921,-81.2724 742.4346,-74.4679"/>
</g>
<!-- Node23&#45;&gt;Node15 -->
<g id="edge27" class="edge">
<title>Node23&#45;&gt;Node15</title>
<path fill="none" stroke="#191970" d="M1031.5924,-112.4369C956.9597,-102.2182 839.2533,-86.1019 763.9764,-75.7951"/>
<polygon fill="#191970" stroke="#191970" points="764.0274,-72.2695 753.645,-74.3805 763.0777,-79.2048 764.0274,-72.2695"/>
</g>
<!-- Node24&#45;&gt;Node15 -->
<g id="edge30" class="edge">
<title>Node24&#45;&gt;Node15</title>
<path fill="none" stroke="#191970" d="M472.6913,-112.4369C518.2346,-102.8127 588.5338,-87.957 637.3059,-77.6504"/>
<polygon fill="#191970" stroke="#191970" points="638.3097,-81.0157 647.3699,-75.5237 636.8623,-74.1669 638.3097,-81.0157"/>
</g>
<!-- Node25 -->
<g id="node26" class="node">
<title>Node25</title>
<polygon fill="#ffffff" stroke="#bfbfbf" points="342.4373,-56.5 342.4373,-75.5 390.4373,-75.5 390.4373,-56.5 342.4373,-56.5"/>
<text text-anchor="middle" x="366.4373" y="-63.5" font-family="Helvetica,sans-Serif" font-size="10.00" fill="#000000">mutex</text>
</g>
<!-- Node24&#45;&gt;Node25 -->
<g id="edge29" class="edge">
<title>Node24&#45;&gt;Node25</title>
<path fill="none" stroke="#191970" d="M416.8119,-112.2455C407.89,-104.0549 394.9493,-92.1749 384.4181,-82.5069"/>
<polygon fill="#191970" stroke="#191970" points="386.6744,-79.8271 376.9409,-75.6427 381.9405,-84.9837 386.6744,-79.8271"/>
</g>
<!-- Node26&#45;&gt;Node6 -->
<g id="edge33" class="edge">
<title>Node26&#45;&gt;Node6</title>
<path fill="none" stroke="#191970" d="M545.2126,-347.2977C557.1271,-338.1384 572.2905,-326.4816 584.4211,-317.1562"/>
<polygon fill="#191970" stroke="#191970" points="586.8334,-319.7165 592.6283,-310.8469 582.567,-314.1668 586.8334,-319.7165"/>
</g>
<!-- Node26&#45;&gt;Node19 -->
<g id="edge34" class="edge">
<title>Node26&#45;&gt;Node19</title>
<path fill="none" stroke="#191970" d="M473.7728,-347.7525C423.4334,-331.4079 346.881,-301.1051 293.4373,-255 241.9975,-210.6237 234.8076,-179.7781 239.4373,-112 241.4106,-83.1109 246.4928,-49.9385 249.9589,-29.4725"/>
<polygon fill="#191970" stroke="#191970" points="253.425,-29.9692 251.6883,-19.5177 246.5283,-28.771 253.425,-29.9692"/>
</g>
<!-- Node27&#45;&gt;Node3 -->
<g id="edge44" class="edge">
<title>Node27&#45;&gt;Node3</title>
<path fill="none" stroke="#191970" d="M846.6916,-426.9336C929.531,-422.1866 1090.3985,-409.4745 1223.4373,-378 1226.6807,-377.2327 1230.0172,-376.2999 1233.3291,-375.2767"/>
<polygon fill="#191970" stroke="#191970" points="1234.7037,-378.5074 1243.0727,-372.0104 1232.4788,-371.8704 1234.7037,-378.5074"/>
</g>
<!-- Node27&#45;&gt;Node6 -->
<g id="edge36" class="edge">
<title>Node27&#45;&gt;Node6</title>
<path fill="none" stroke="#191970" d="M784.5704,-414.2469C775.5549,-395.8424 758.0574,-365.1193 734.4373,-347 713.628,-331.0369 686.8022,-320.29 663.0078,-313.2278"/>
<polygon fill="#191970" stroke="#191970" points="663.9434,-309.8552 653.3691,-310.5146 662.0466,-316.5933 663.9434,-309.8552"/>
</g>
<!-- Node27&#45;&gt;Node10 -->
<g id="edge42" class="edge">
<title>Node27&#45;&gt;Node10</title>
<path fill="none" stroke="#191970" d="M789.2734,-414.2727C784.631,-381.6039 773.6768,-304.5184 767.9949,-264.5352"/>
<polygon fill="#191970" stroke="#191970" points="771.4462,-263.9442 766.574,-254.5361 764.5158,-264.9291 771.4462,-263.9442"/>
</g>
<!-- Node27&#45;&gt;Node17 -->
<g id="edge45" class="edge">
<title>Node27&#45;&gt;Node17</title>
<path fill="none" stroke="#191970" d="M846.5133,-424.2283C960.0184,-411.8368 1209.4373,-376.067 1209.4373,-301 1209.4373,-301 1209.4373,-301 1209.4373,-122 1209.4373,-71.2324 1152.3507,-39.3381 1111.8781,-23.1054"/>
<polygon fill="#191970" stroke="#191970" points="1113.0925,-19.8225 1102.5025,-19.5016 1110.581,-26.3565 1113.0925,-19.8225"/>
</g>
<!-- Node28 -->
<g id="node29" class="node">
<title>Node28</title>
<g id="a_node29"><a xlink:href="global__tas__lock_8hpp.html" target="_top" xlink:title="This file provides a tas lock for the ArgoDSM system based on the TAS lock made by David Klaftenegger...">
<polygon fill="#ffffff" stroke="#000000" points="915.4373,-347.5 915.4373,-377.5 1031.4373,-377.5 1031.4373,-347.5 915.4373,-347.5"/>
<text text-anchor="start" x="923.4373" y="-365.5" font-family="Helvetica,sans-Serif" font-size="10.00" fill="#000000">../synchronization</text>
<text text-anchor="middle" x="973.4373" y="-354.5" font-family="Helvetica,sans-Serif" font-size="10.00" fill="#000000">/global_tas_lock.hpp</text>
</a>
</g>
</g>
<!-- Node27&#45;&gt;Node28 -->
<g id="edge37" class="edge">
<title>Node27&#45;&gt;Node28</title>
<path fill="none" stroke="#191970" d="M832.2817,-414.4639C859.1172,-404.5849 894.4155,-391.5905 923.0002,-381.0675"/>
<polygon fill="#191970" stroke="#191970" points="924.2396,-384.3409 932.4148,-377.6017 921.8213,-377.7719 924.2396,-384.3409"/>
</g>
<!-- Node31 -->
<g id="node32" class="node">
<title>Node31</title>
<polygon fill="#ffffff" stroke="#bfbfbf" points="819.9373,-353 819.9373,-372 896.9373,-372 896.9373,-353 819.9373,-353"/>
<text text-anchor="middle" x="858.4373" y="-360" font-family="Helvetica,sans-Serif" font-size="10.00" fill="#000000">sys/mman.h</text>
</g>
<!-- Node27&#45;&gt;Node31 -->
<g id="edge43" class="edge">
<title>Node27&#45;&gt;Node31</title>
<path fill="none" stroke="#191970" d="M806.6406,-414.2967C817.0795,-403.8578 830.9376,-389.9997 841.6927,-379.2446"/>
<polygon fill="#191970" stroke="#191970" points="844.2861,-381.601 848.8823,-372.055 839.3364,-376.6512 844.2861,-381.601"/>
</g>
<!-- Node32 -->
<g id="node33" class="node">
<title>Node32</title>
<polygon fill="#ffffff" stroke="#bfbfbf" points="671.9373,-353 671.9373,-372 724.9373,-372 724.9373,-353 671.9373,-353"/>
<text text-anchor="middle" x="698.4373" y="-360" font-family="Helvetica,sans-Serif" font-size="10.00" fill="#000000">stdlib.h</text>
</g>
<!-- Node27&#45;&gt;Node32 -->
<g id="edge46" class="edge">
<title>Node27&#45;&gt;Node32</title>
<path fill="none" stroke="#191970" d="M770.3342,-414.2967C755.2816,-403.4524 735.1073,-388.9182 719.9606,-378.006"/>
<polygon fill="#191970" stroke="#191970" points="721.8598,-375.0606 711.7002,-372.055 717.768,-380.7402 721.8598,-375.0606"/>
</g>
<!-- Node28&#45;&gt;Node6 -->
<g id="edge38" class="edge">
<title>Node28&#45;&gt;Node6</title>
<path fill="none" stroke="#191970" d="M915.3897,-348.7879C912.3665,-348.1625 909.3687,-347.5622 906.4373,-347 830.209,-332.3795 742.4074,-319.3983 681.383,-310.9853"/>
<polygon fill="#191970" stroke="#191970" points="681.8296,-307.5139 671.4469,-309.6233 680.8789,-314.4491 681.8296,-307.5139"/>
</g>
<!-- Node28&#45;&gt;Node10 -->
<g id="edge39" class="edge">
<title>Node28&#45;&gt;Node10</title>
<path fill="none" stroke="#191970" d="M947.8098,-347.4178C910.3376,-325.3648 840.5166,-284.2739 798.6805,-259.6527"/>
<polygon fill="#191970" stroke="#191970" points="800.3407,-256.5686 789.9472,-254.513 796.7903,-262.6015 800.3407,-256.5686"/>
</g>
<!-- Node29 -->
<g id="node30" class="node">
<title>Node29</title>
<polygon fill="#ffffff" stroke="#bfbfbf" points="925.4373,-291.5 925.4373,-310.5 975.4373,-310.5 975.4373,-291.5 925.4373,-291.5"/>
<text text-anchor="middle" x="950.4373" y="-298.5" font-family="Helvetica,sans-Serif" font-size="10.00" fill="#000000">chrono</text>
</g>
<!-- Node28&#45;&gt;Node29 -->
<g id="edge40" class="edge">
<title>Node28&#45;&gt;Node29</title>
<path fill="none" stroke="#191970" d="M967.7519,-347.2977C964.6923,-339.1166 960.8875,-328.943 957.6245,-320.2179"/>
<polygon fill="#191970" stroke="#191970" points="960.9011,-318.9873 954.1199,-310.8469 954.3446,-321.4394 960.9011,-318.9873"/>
</g>
<!-- Node30 -->
<g id="node31" class="node">
<title>Node30</title>
<polygon fill="#ffffff" stroke="#bfbfbf" points="993.4373,-291.5 993.4373,-310.5 1041.4373,-310.5 1041.4373,-291.5 993.4373,-291.5"/>
<text text-anchor="middle" x="1017.4373" y="-298.5" font-family="Helvetica,sans-Serif" font-size="10.00" fill="#000000">thread</text>
</g>
<!-- Node28&#45;&gt;Node30 -->
<g id="edge41" class="edge">
<title>Node28&#45;&gt;Node30</title>
<path fill="none" stroke="#191970" d="M984.3137,-347.2977C990.4214,-338.7609 998.0812,-328.0545 1004.4961,-319.0883"/>
<polygon fill="#191970" stroke="#191970" points="1007.4202,-321.0163 1010.3923,-310.8469 1001.7272,-316.9433 1007.4202,-321.0163"/>
</g>
<!-- Node33&#45;&gt;Node2 -->
<g id="edge49" class="edge">
<title>Node33&#45;&gt;Node2</title>
<path fill="none" stroke="#191970" d="M379.3621,-481.3416C379.1993,-460.4114 378.8109,-410.504 378.5928,-382.4762"/>
<polygon fill="#191970" stroke="#191970" points="382.0911,-382.2429 378.5133,-372.2705 375.0914,-382.2974 382.0911,-382.2429"/>
</g>
<!-- Node33&#45;&gt;Node4 -->
<g id="edge51" class="edge">
<title>Node33&#45;&gt;Node4</title>
<path fill="none" stroke="#191970" d="M321.5244,-481.4408C281.2816,-473.5371 232.6017,-461.0237 219.4373,-445 205.0882,-427.5342 205.7263,-400.3961 208.3535,-382.0589"/>
<polygon fill="#191970" stroke="#191970" points="211.8058,-382.6349 210.0809,-372.1814 204.9105,-381.4289 211.8058,-382.6349"/>
</g>
<!-- Node33&#45;&gt;Node5 -->
<g id="edge52" class="edge">
<title>Node33&#45;&gt;Node5</title>
<path fill="none" stroke="#191970" d="M414.7498,-481.3906C448.239,-472.2774 499.3727,-458.3627 540.2618,-447.2358"/>
<polygon fill="#191970" stroke="#191970" points="541.4214,-450.5476 550.1515,-444.5446 539.5833,-443.7932 541.4214,-450.5476"/>
</g>
<!-- Node33&#45;&gt;Node25 -->
<g id="edge50" class="edge">
<title>Node33&#45;&gt;Node25</title>
<path fill="none" stroke="#191970" d="M323.7082,-481.4767C279.7088,-473.0381 222.7799,-459.7867 204.4373,-445 172.4048,-419.1774 162.4373,-403.6447 162.4373,-362.5 162.4373,-362.5 162.4373,-362.5 162.4373,-239.5 162.4373,-151.1587 274.8184,-98.3754 332.758,-77.0327"/>
<polygon fill="#191970" stroke="#191970" points="333.9974,-80.3066 342.2347,-73.6434 331.6401,-73.7154 333.9974,-80.3066"/>
</g>
<!-- Node33&#45;&gt;Node27 -->
<g id="edge53" class="edge">
<title>Node33&#45;&gt;Node27</title>
<path fill="none" stroke="#191970" d="M443.3603,-481.4581C520.2584,-469.9794 648.6563,-450.8132 726.1553,-439.2448"/>
<polygon fill="#191970" stroke="#191970" points="726.9032,-442.672 736.2769,-437.7339 725.8697,-435.7487 726.9032,-442.672"/>
</g>
<!-- Node33&#45;&gt;Node34 -->
<g id="edge54" class="edge">
<title>Node33&#45;&gt;Node34</title>
<path fill="none" stroke="#191970" d="M365.3748,-481.3906C351.1087,-471.6421 328.8023,-456.3994 312.0501,-444.9521"/>
<polygon fill="#191970" stroke="#191970" points="313.6322,-441.7941 303.4011,-439.0419 309.6828,-447.5736 313.6322,-441.7941"/>
</g>
<!-- Node33&#45;&gt;Node35 -->
<g id="edge58" class="edge">
<title>Node33&#45;&gt;Node35</title>
<path fill="none" stroke="#191970" d="M390.0623,-481.3906C400.4804,-471.9683 416.5737,-457.4134 429.0677,-446.1137"/>
<polygon fill="#191970" stroke="#191970" points="431.5935,-448.5484 436.6625,-439.2449 426.8981,-443.3568 431.5935,-448.5484"/>
</g>
<!-- Node36 -->
<g id="node37" class="node">
<title>Node36</title>
<g id="a_node37"><a xlink:href="dynamic__allocator_8h.html" target="_top" xlink:title="This file provides the dynamic allocator for ArgoDSM. ">
<polygon fill="#ffffff" stroke="#000000" points="18.9373,-420 18.9373,-439 133.9373,-439 133.9373,-420 18.9373,-420"/>
<text text-anchor="middle" x="76.4373" y="-427" font-family="Helvetica,sans-Serif" font-size="10.00" fill="#000000">dynamic_allocator.h</text>
</a>
</g>
</g>
<!-- Node33&#45;&gt;Node36 -->
<g id="edge59" class="edge">
<title>Node33&#45;&gt;Node36</title>
<path fill="none" stroke="#191970" d="M330.2744,-481.4388C283.4789,-472.284 211.1017,-457.9836 148.4373,-445 142.582,-443.7868 136.4633,-442.4996 130.3727,-441.206"/>
<polygon fill="#191970" stroke="#191970" points="130.7112,-437.6994 120.2009,-439.0346 129.2498,-444.5452 130.7112,-437.6994"/>
</g>
<!-- Node34&#45;&gt;Node2 -->
<g id="edge55" class="edge">
<title>Node34&#45;&gt;Node2</title>
<path fill="none" stroke="#191970" d="M302.1888,-419.9005C316.5963,-409.0544 340.2683,-391.2339 357.4189,-378.3229"/>
<polygon fill="#191970" stroke="#191970" points="359.8252,-380.8923 365.7094,-372.0817 355.6152,-375.2998 359.8252,-380.8923"/>
</g>
<!-- Node34&#45;&gt;Node4 -->
<g id="edge56" class="edge">
<title>Node34&#45;&gt;Node4</title>
<path fill="none" stroke="#191970" d="M278.4051,-419.9005C266.0545,-409.1539 245.835,-391.5603 231.0316,-378.6794"/>
<polygon fill="#191970" stroke="#191970" points="233.2905,-376.0055 223.4491,-372.0817 228.6955,-381.2863 233.2905,-376.0055"/>
</g>
<!-- Node34&#45;&gt;Node6 -->
<g id="edge57" class="edge">
<title>Node34&#45;&gt;Node6</title>
<path fill="none" stroke="#191970" d="M293.5228,-419.9955C301.6029,-402.436 321.3934,-365.0595 350.4373,-347 379.6739,-328.8207 465.107,-315.936 529.0858,-308.5134"/>
<polygon fill="#191970" stroke="#191970" points="529.617,-311.9756 539.1579,-307.369 528.8267,-305.0204 529.617,-311.9756"/>
</g>
</g>
</svg>
        <g id="navigator" transform="translate(0 0)" fill="#404254">
                <rect fill="#f2f5e9" fill-opacity="0.5" stroke="#606060" stroke-width=".5" x="0" y="0" width="60" height="60"/>
                <use id="zoomplus" xlink:href="#zoomPlus" x="17" y="9" onmousedown="handleZoom(evt,'in')"/>
                <use id="zoomminus" xlink:href="#zoomMin" x="42" y="9" onmousedown="handleZoom(evt,'out')"/>
                <use id="reset" xlink:href="#resetDef" x="30" y="36" onmousedown="handleReset()"/>
                <g id="arrowUp" xlink:href="#dirArrow" transform="translate(30 24)" onmousedown="handlePan(0,-1)">
                  <use xlink:href="#rim" fill="#404040">
                        <set attributeName="fill" to="#808080" begin="arrowUp.mouseover" end="arrowUp.mouseout"/>
                  </use>
                  <path fill="none" stroke="white" stroke-width="1.5" d="M0,-3.0v7 M-2.5,-0.5L0,-3.0L2.5,-0.5"/>
                </g>
                <g id="arrowRight" xlink:href="#dirArrow" transform="rotate(90) translate(36 -43)" onmousedown="handlePan(1,0)">
                  <use xlink:href="#rim" fill="#404040">
                        <set attributeName="fill" to="#808080" begin="arrowRight.mouseover" end="arrowRight.mouseout"/>
                  </use>
                  <path fill="none" stroke="white" stroke-width="1.5" d="M0,-3.0v7 M-2.5,-0.5L0,-3.0L2.5,-0.5"/>
                </g>
                <g id="arrowDown" xlink:href="#dirArrow" transform="rotate(180) translate(-30 -48)" onmousedown="handlePan(0,1)">
                  <use xlink:href="#rim" fill="#404040">
                        <set attributeName="fill" to="#808080" begin="arrowDown.mouseover" end="arrowDown.mouseout"/>
                  </use>
                  <path fill="none" stroke="white" stroke-width="1.5" d="M0,-3.0v7 M-2.5,-0.5L0,-3.0L2.5,-0.5"/>
                </g>
                <g id="arrowLeft" xlink:href="#dirArrow" transform="rotate(270) translate(-36 17)" onmousedown="handlePan(-1,0)">
                  <use xlink:href="#rim" fill="#404040">
                        <set attributeName="fill" to="#808080" begin="arrowLeft.mouseover" end="arrowLeft.mouseout"/>
                  </use>
                  <path fill="none" stroke="white" stroke-width="1.5" d="M0,-3.0v7 M-2.5,-0.5L0,-3.0L2.5,-0.5"/>
                </g>
        </g>
        <svg viewBox="0 0 15 15" width="100%" height="30px" preserveAspectRatio="xMaxYMin meet">
         <g id="arrow_out" transform="scale(0.3 0.3)">
          <a xlink:href="allocators_8hpp__incl_org.svg" target="_base">
           <rect id="button" ry="5" rx="5" y="6" x="6" height="38" width="38"
                fill="#f2f5e9" fill-opacity="0.5" stroke="#606060" stroke-width="1.0"/>
           <path id="arrow"
             d="M 11.500037,31.436501 C 11.940474,20.09759 22.043105,11.32322 32.158766,21.979434 L 37.068811,17.246167 C 37.068811,17.246167 37.088388,32 37.088388,32 L 22.160133,31.978069 C 22.160133,31.978069 26.997745,27.140456 26.997745,27.140456 C 18.528582,18.264221 13.291696,25.230495 11.500037,31.436501 z"
             style="fill:#404040;"/>
          </a>
         </g>
        </svg>
</svg>
