<?xml version="1.0" encoding="UTF-8" standalone="no"?>
<!DOCTYPE svg PUBLIC "-//W3C//DTD SVG 1.1//EN"
 "http://www.w3.org/Graphics/SVG/1.1/DTD/svg11.dtd">
<!-- Generated by graphviz version 2.40.1 (20161225.0304)
 -->
<!-- Title: argo::virtual_memory::allocate_mappable Pages: 1 -->
<svg width="288pt" height="57pt"
 viewBox="0.00 0.00 288.00 57.00" xmlns="http://www.w3.org/2000/svg" xmlns:xlink="http://www.w3.org/1999/xlink">
<g id="graph0" class="graph" transform="scale(1 1) rotate(0) translate(4 53)">
<title>argo::virtual_memory::allocate_mappable</title>
<polygon fill="#ffffff" stroke="transparent" points="-4,4 -4,-53 284,-53 284,4 -4,4"/>
<!-- Node0 -->
<g id="node1" class="node">
<title>Node0</title>
<polygon fill="#bfbfbf" stroke="#000000" points="0,-.5 0,-30.5 122,-30.5 122,-.5 0,-.5"/>
<text text-anchor="start" x="8" y="-18.5" font-family="Helvetica,sans-Serif" font-size="10.00" fill="#000000">argo::virtual_memory</text>
<text text-anchor="middle" x="61" y="-7.5" font-family="Helvetica,sans-Serif" font-size="10.00" fill="#000000">::allocate_mappable</text>
</g>
<!-- Node0&#45;&gt;Node0 -->
<g id="edge1" class="edge">
<title>Node0&#45;&gt;Node0</title>
<path fill="none" stroke="#191970" d="M33.4652,-30.659C26.8257,-40.0566 36.0039,-49 61,-49 76.232,-49 85.5902,-45.679 89.0747,-40.9579"/>
<polygon fill="#191970" stroke="#191970" points="92.5536,-40.462 88.5348,-30.659 85.5632,-40.8286 92.5536,-40.462"/>
</g>
<!-- Node1 -->
<g id="node2" class="node">
<title>Node1</title>
<g id="a_node2"><a xlink:href="anonymous_8cpp_ab7d165839faaa408a36d34192707b119.html#ab7d165839faaa408a36d34192707b119" target="_top" xlink:title="get size of the ArgoDSM virtual memory ">
<polygon fill="#ffffff" stroke="#000000" points="158,-.5 158,-30.5 280,-30.5 280,-.5 158,-.5"/>
<text text-anchor="start" x="166" y="-18.5" font-family="Helvetica,sans-Serif" font-size="10.00" fill="#000000">argo::virtual_memory</text>
<text text-anchor="middle" x="219" y="-7.5" font-family="Helvetica,sans-Serif" font-size="10.00" fill="#000000">::size</text>
</a>
</g>
</g>
<!-- Node0&#45;&gt;Node1 -->
<g id="edge2" class="edge">
<title>Node0&#45;&gt;Node1</title>
<path fill="none" stroke="#191970" d="M122.0869,-15.5C130.5129,-15.5 139.226,-15.5 147.8146,-15.5"/>
<polygon fill="#191970" stroke="#191970" points="147.8151,-19.0001 157.815,-15.5 147.815,-12.0001 147.8151,-19.0001"/>
</g>
</g>
</svg>
