<?xml version="1.0" encoding="UTF-8" standalone="no"?>
<!DOCTYPE svg PUBLIC "-//W3C//DTD SVG 1.1//EN"
 "http://www.w3.org/Graphics/SVG/1.1/DTD/svg11.dtd">
<!-- Generated by graphviz version 2.40.1 (20161225.0304)
 -->
<!-- Title: TEST_F Pages: 1 -->
<!--zoomable 163 -->
<svg id="main" version="1.1" xmlns="http://www.w3.org/2000/svg" xmlns:xlink="http://www.w3.org/1999/xlink" xml:space="preserve" onload="init(evt)">
<style type="text/css"><![CDATA[
.edge:hover path { stroke: red; }
.edge:hover polygon { stroke: red; fill: red; }
]]></style>
<script type="text/javascript"><![CDATA[
var edges = document.getElementsByTagName('g');
if (edges && edges.length) {
  for (var i=0;i<edges.length;i++) {
    if (edges[i].id.substr(0,4)=='edge') {
      edges[i].setAttribute('class','edge');
    }
  }
}
]]></script>
        <defs>
                <circle id="rim" cx="0" cy="0" r="7"/>
                <circle id="rim2" cx="0" cy="0" r="3.5"/>
                <g id="zoomPlus">
                        <use xlink:href="#rim" fill="#404040">
                                <set attributeName="fill" to="#808080" begin="zoomplus.mouseover" end="zoomplus.mouseout"/>
                        </use>
                        <path d="M-4,0h8M0,-4v8" fill="none" stroke="white" stroke-width="1.5" pointer-events="none"/>
                </g>
                <g id="zoomMin">
                        <use xlink:href="#rim" fill="#404040">
                                <set attributeName="fill" to="#808080" begin="zoomminus.mouseover" end="zoomminus.mouseout"/>
                        </use>
                        <path d="M-4,0h8" fill="none" stroke="white" stroke-width="1.5" pointer-events="none"/>
                </g>
                <g id="dirArrow">
                        <path fill="none" stroke="white" stroke-width="1.5" d="M0,-3.0v7 M-2.5,-0.5L0,-3.0L2.5,-0.5"/>
                </g>
               <g id="resetDef">
                       <use xlink:href="#rim2" fill="#404040">
                               <set attributeName="fill" to="#808080" begin="reset.mouseover" end="reset.mouseout"/>
                       </use>
               </g>
        </defs>

<script type="text/javascript">
var viewWidth = 691;
var viewHeight = 163;
var sectionId = 'dynsection-0';
</script>
<script xlink:href="svgpan.js"/>
<svg id="graph" class="graph">
<g id="viewport">
<title>TEST_F</title>
<polygon fill="#ffffff" stroke="transparent" points="-4,4 -4,-158.5 687,-158.5 687,4 -4,4"/>
<!-- Node0 -->
<g id="node1" class="node">
<title>Node0</title>
<polygon fill="#bfbfbf" stroke="#000000" points="0,-38.5 0,-57.5 51,-57.5 51,-38.5 0,-38.5"/>
<text text-anchor="middle" x="25.5" y="-45.5" font-family="Helvetica,sans-Serif" font-size="10.00" fill="#000000">TEST_F</text>
</g>
<!-- Node1 -->
<g id="node2" class="node">
<title>Node1</title>
<g id="a_node2"><a xlink:href="classargo_1_1mempools_1_1global__memory__pool_ac37f5714010e1f4b482e6c6a8a246c05.html#ac37f5714010e1f4b482e6c6a8a246c05" target="_top" xlink:title="check remaining available memory in pool ">
<polygon fill="#ffffff" stroke="#000000" points="87,-77 87,-107 227,-107 227,-77 87,-77"/>
<text text-anchor="start" x="95" y="-95" font-family="Helvetica,sans-Serif" font-size="10.00" fill="#000000">argo::mempools::global</text>
<text text-anchor="middle" x="157" y="-84" font-family="Helvetica,sans-Serif" font-size="10.00" fill="#000000">_memory_pool::available</text>
</a>
</g>
</g>
<!-- Node0&#45;&gt;Node1 -->
<g id="edge1" class="edge">
<title>Node0&#45;&gt;Node1</title>
<path fill="none" stroke="#191970" d="M51.1667,-56.5881C65.7348,-61.4626 84.5482,-67.7576 102.2636,-73.6852"/>
<polygon fill="#191970" stroke="#191970" points="101.3648,-77.0751 111.9586,-76.9291 103.586,-70.4368 101.3648,-77.0751"/>
</g>
<!-- Node6 -->
<g id="node7" class="node">
<title>Node6</title>
<g id="a_node7"><a xlink:href="src_2allocators_2allocators_8cpp_a4e8d23563c42daa5dfce669293d7e389.html#a4e8d23563c42daa5dfce669293d7e389" target="_top" xlink:title="basic collective allocation function, for C interface ">
<polygon fill="#ffffff" stroke="#000000" points="111,-38.5 111,-57.5 203,-57.5 203,-38.5 111,-38.5"/>
<text text-anchor="middle" x="157" y="-45.5" font-family="Helvetica,sans-Serif" font-size="10.00" fill="#000000">collective_alloc</text>
</a>
</g>
</g>
<!-- Node0&#45;&gt;Node6 -->
<g id="edge7" class="edge">
<title>Node0&#45;&gt;Node6</title>
<path fill="none" stroke="#191970" d="M51.1667,-48C65.3499,-48 83.5572,-48 100.8575,-48"/>
<polygon fill="#191970" stroke="#191970" points="100.9016,-51.5001 110.9016,-48 100.9016,-44.5001 100.9016,-51.5001"/>
</g>
<!-- Node8 -->
<g id="node9" class="node">
<title>Node8</title>
<g id="a_node9"><a xlink:href="namespaceargo_a2d693b252d1703b5878ee78d01d47d0e.html#a2d693b252d1703b5878ee78d01d47d0e" target="_top" xlink:title="Check if addr belongs in the ArgoDSM memory space. ">
<polygon fill="#ffffff" stroke="#000000" points="95.5,-.5 95.5,-19.5 218.5,-19.5 218.5,-.5 95.5,-.5"/>
<text text-anchor="middle" x="157" y="-7.5" font-family="Helvetica,sans-Serif" font-size="10.00" fill="#000000">argo::is_argo_address</text>
</a>
</g>
</g>
<!-- Node0&#45;&gt;Node8 -->
<g id="edge9" class="edge">
<title>Node0&#45;&gt;Node8</title>
<path fill="none" stroke="#191970" d="M51.1738,-39.8511C62.1792,-36.4144 75.1942,-32.4248 87,-29 94.8242,-26.7303 103.1644,-24.3943 111.26,-22.1705"/>
<polygon fill="#191970" stroke="#191970" points="112.2351,-25.5325 120.9626,-19.5256 110.3941,-18.7789 112.2351,-25.5325"/>
</g>
<!-- Node2 -->
<g id="node3" class="node">
<title>Node2</title>
<g id="a_node3"><a xlink:href="classargo_1_1globallock_1_1global__tas__lock_ae1a2cc75c9371ed191ac68f4e72f227e.html#ae1a2cc75c9371ed191ac68f4e72f227e" target="_top" xlink:title="take the lock ">
<polygon fill="#ffffff" stroke="#000000" points="264.5,-123 264.5,-153 395.5,-153 395.5,-123 264.5,-123"/>
<text text-anchor="start" x="272.5" y="-141" font-family="Helvetica,sans-Serif" font-size="10.00" fill="#000000">argo::globallock::global</text>
<text text-anchor="middle" x="330" y="-130" font-family="Helvetica,sans-Serif" font-size="10.00" fill="#000000">_tas_lock::lock</text>
</a>
</g>
</g>
<!-- Node1&#45;&gt;Node2 -->
<g id="edge2" class="edge">
<title>Node1&#45;&gt;Node2</title>
<path fill="none" stroke="#191970" d="M213.6467,-107.0621C229.5599,-111.2934 247.0095,-115.9332 263.4433,-120.3029"/>
<polygon fill="#191970" stroke="#191970" points="262.9581,-123.7954 273.5217,-122.9826 264.7569,-117.0304 262.9581,-123.7954"/>
</g>
<!-- Node5 -->
<g id="node6" class="node">
<title>Node5</title>
<g id="a_node6"><a xlink:href="classargo_1_1globallock_1_1global__tas__lock_a55bd610c8555b8d986541c3f669789a2.html#a55bd610c8555b8d986541c3f669789a2" target="_top" xlink:title="release the lock ">
<polygon fill="#ffffff" stroke="#000000" points="433,-75 433,-105 564,-105 564,-75 433,-75"/>
<text text-anchor="start" x="441" y="-93" font-family="Helvetica,sans-Serif" font-size="10.00" fill="#000000">argo::globallock::global</text>
<text text-anchor="middle" x="498.5" y="-82" font-family="Helvetica,sans-Serif" font-size="10.00" fill="#000000">_tas_lock::unlock</text>
</a>
</g>
</g>
<!-- Node1&#45;&gt;Node5 -->
<g id="edge5" class="edge">
<title>Node1&#45;&gt;Node5</title>
<path fill="none" stroke="#191970" d="M227.3449,-91.588C284.2609,-91.2547 364.2606,-90.7862 422.6108,-90.4444"/>
<polygon fill="#191970" stroke="#191970" points="422.8979,-93.9429 432.8772,-90.3843 422.8569,-86.943 422.8979,-93.9429"/>
</g>
<!-- Node3 -->
<g id="node4" class="node">
<title>Node3</title>
<g id="a_node4"><a xlink:href="classargo_1_1globallock_1_1global__tas__lock_a89bbe556d8a271dd64d65b421993da00.html#a89bbe556d8a271dd64d65b421993da00" target="_top" xlink:title="try to lock ">
<polygon fill="#ffffff" stroke="#000000" points="433,-124 433,-154 564,-154 564,-124 433,-124"/>
<text text-anchor="start" x="441" y="-142" font-family="Helvetica,sans-Serif" font-size="10.00" fill="#000000">argo::globallock::global</text>
<text text-anchor="middle" x="498.5" y="-131" font-family="Helvetica,sans-Serif" font-size="10.00" fill="#000000">_tas_lock::try_lock</text>
</a>
</g>
</g>
<!-- Node2&#45;&gt;Node3 -->
<g id="edge3" class="edge">
<title>Node2&#45;&gt;Node3</title>
<path fill="none" stroke="#191970" d="M395.629,-138.3895C404.4913,-138.4421 413.643,-138.4964 422.6647,-138.5499"/>
<polygon fill="#191970" stroke="#191970" points="422.7523,-142.0504 432.7729,-138.6099 422.7939,-135.0505 422.7523,-142.0504"/>
</g>
<!-- Node4 -->
<g id="node5" class="node">
<title>Node4</title>
<g id="a_node5"><a xlink:href="namespaceargo_a2deaaacde085d381cbb01f24318965b4.html#a2deaaacde085d381cbb01f24318965b4" target="_top" xlink:title="A unique ArgoDSM node identifier. Counting starts from 0. ">
<polygon fill="#ffffff" stroke="#000000" points="600,-104.5 600,-123.5 683,-123.5 683,-104.5 600,-104.5"/>
<text text-anchor="middle" x="641.5" y="-111.5" font-family="Helvetica,sans-Serif" font-size="10.00" fill="#000000">argo::node_id</text>
</a>
</g>
</g>
<!-- Node3&#45;&gt;Node4 -->
<g id="edge4" class="edge">
<title>Node3&#45;&gt;Node4</title>
<path fill="none" stroke="#191970" d="M564.1406,-127.5244C572.8056,-126.0095 581.5862,-124.4744 589.9686,-123.009"/>
<polygon fill="#191970" stroke="#191970" points="590.7136,-126.4319 599.9614,-121.262 589.508,-119.5365 590.7136,-126.4319"/>
</g>
<!-- Node5&#45;&gt;Node4 -->
<g id="edge6" class="edge">
<title>Node5&#45;&gt;Node4</title>
<path fill="none" stroke="#191970" d="M564.1406,-101.0166C572.8056,-102.4709 581.5862,-103.9445 589.9686,-105.3514"/>
<polygon fill="#191970" stroke="#191970" points="589.52,-108.825 599.9614,-107.0285 590.6787,-101.9215 589.52,-108.825"/>
</g>
<!-- Node7 -->
<g id="node8" class="node">
<title>Node7</title>
<g id="a_node8"><a xlink:href="classargo_1_1allocators_1_1generic__allocator_ae0df0734076478aeaeb689cdb902497a.html#ae0df0734076478aeaeb689cdb902497a" target="_top" xlink:title="Allocate memory. ">
<polygon fill="#ffffff" stroke="#000000" points="263,-33 263,-63 397,-63 397,-33 263,-33"/>
<text text-anchor="start" x="271" y="-51" font-family="Helvetica,sans-Serif" font-size="10.00" fill="#000000">argo::allocators::generic</text>
<text text-anchor="middle" x="330" y="-40" font-family="Helvetica,sans-Serif" font-size="10.00" fill="#000000">_allocator::allocate</text>
</a>
</g>
</g>
<!-- Node6&#45;&gt;Node7 -->
<g id="edge8" class="edge">
<title>Node6&#45;&gt;Node7</title>
<path fill="none" stroke="#191970" d="M203.3608,-48C218.4459,-48 235.6236,-48 252.3548,-48"/>
<polygon fill="#191970" stroke="#191970" points="252.6919,-51.5001 262.6919,-48 252.6918,-44.5001 252.6919,-51.5001"/>
</g>
</g>
</svg>
        <g id="navigator" transform="translate(0 0)" fill="#404254">
                <rect fill="#f2f5e9" fill-opacity="0.5" stroke="#606060" stroke-width=".5" x="0" y="0" width="60" height="60"/>
                <use id="zoomplus" xlink:href="#zoomPlus" x="17" y="9" onmousedown="handleZoom(evt,'in')"/>
                <use id="zoomminus" xlink:href="#zoomMin" x="42" y="9" onmousedown="handleZoom(evt,'out')"/>
                <use id="reset" xlink:href="#resetDef" x="30" y="36" onmousedown="handleReset()"/>
                <g id="arrowUp" xlink:href="#dirArrow" transform="translate(30 24)" onmousedown="handlePan(0,-1)">
                  <use xlink:href="#rim" fill="#404040">
                        <set attributeName="fill" to="#808080" begin="arrowUp.mouseover" end="arrowUp.mouseout"/>
                  </use>
                  <path fill="none" stroke="white" stroke-width="1.5" d="M0,-3.0v7 M-2.5,-0.5L0,-3.0L2.5,-0.5"/>
                </g>
                <g id="arrowRight" xlink:href="#dirArrow" transform="rotate(90) translate(36 -43)" onmousedown="handlePan(1,0)">
                  <use xlink:href="#rim" fill="#404040">
                        <set attributeName="fill" to="#808080" begin="arrowRight.mouseover" end="arrowRight.mouseout"/>
                  </use>
                  <path fill="none" stroke="white" stroke-width="1.5" d="M0,-3.0v7 M-2.5,-0.5L0,-3.0L2.5,-0.5"/>
                </g>
                <g id="arrowDown" xlink:href="#dirArrow" transform="rotate(180) translate(-30 -48)" onmousedown="handlePan(0,1)">
                  <use xlink:href="#rim" fill="#404040">
                        <set attributeName="fill" to="#808080" begin="arrowDown.mouseover" end="arrowDown.mouseout"/>
                  </use>
                  <path fill="none" stroke="white" stroke-width="1.5" d="M0,-3.0v7 M-2.5,-0.5L0,-3.0L2.5,-0.5"/>
                </g>
                <g id="arrowLeft" xlink:href="#dirArrow" transform="rotate(270) translate(-36 17)" onmousedown="handlePan(-1,0)">
                  <use xlink:href="#rim" fill="#404040">
                        <set attributeName="fill" to="#808080" begin="arrowLeft.mouseover" end="arrowLeft.mouseout"/>
                  </use>
                  <path fill="none" stroke="white" stroke-width="1.5" d="M0,-3.0v7 M-2.5,-0.5L0,-3.0L2.5,-0.5"/>
                </g>
        </g>
        <svg viewBox="0 0 15 15" width="100%" height="30px" preserveAspectRatio="xMaxYMin meet">
         <g id="arrow_out" transform="scale(0.3 0.3)">
          <a xlink:href="api_8cpp_a5c4874db80bf26d19ab51d123c8534fc_a5c4874db80bf26d19ab51d123c8534fc_cgraph_org.svg" target="_base">
           <rect id="button" ry="5" rx="5" y="6" x="6" height="38" width="38"
                fill="#f2f5e9" fill-opacity="0.5" stroke="#606060" stroke-width="1.0"/>
           <path id="arrow"
             d="M 11.500037,31.436501 C 11.940474,20.09759 22.043105,11.32322 32.158766,21.979434 L 37.068811,17.246167 C 37.068811,17.246167 37.088388,32 37.088388,32 L 22.160133,31.978069 C 22.160133,31.978069 26.997745,27.140456 26.997745,27.140456 C 18.528582,18.264221 13.291696,25.230495 11.500037,31.436501 z"
             style="fill:#404040;"/>
          </a>
         </g>
        </svg>
</svg>
