<?xml version="1.0" encoding="UTF-8" standalone="no"?>
<!DOCTYPE svg PUBLIC "-//W3C//DTD SVG 1.1//EN"
 "http://www.w3.org/Graphics/SVG/1.1/DTD/svg11.dtd">
<!-- Generated by graphviz version 2.40.1 (20161225.0304)
 -->
<!-- Title: TEST_F Pages: 1 -->
<!--zoomable 192 -->
<svg id="main" version="1.1" xmlns="http://www.w3.org/2000/svg" xmlns:xlink="http://www.w3.org/1999/xlink" xml:space="preserve" onload="init(evt)">
<style type="text/css"><![CDATA[
.edge:hover path { stroke: red; }
.edge:hover polygon { stroke: red; fill: red; }
]]></style>
<script type="text/javascript"><![CDATA[
var edges = document.getElementsByTagName('g');
if (edges && edges.length) {
  for (var i=0;i<edges.length;i++) {
    if (edges[i].id.substr(0,4)=='edge') {
      edges[i].setAttribute('class','edge');
    }
  }
}
]]></script>
        <defs>
                <circle id="rim" cx="0" cy="0" r="7"/>
                <circle id="rim2" cx="0" cy="0" r="3.5"/>
                <g id="zoomPlus">
                        <use xlink:href="#rim" fill="#404040">
                                <set attributeName="fill" to="#808080" begin="zoomplus.mouseover" end="zoomplus.mouseout"/>
                        </use>
                        <path d="M-4,0h8M0,-4v8" fill="none" stroke="white" stroke-width="1.5" pointer-events="none"/>
                </g>
                <g id="zoomMin">
                        <use xlink:href="#rim" fill="#404040">
                                <set attributeName="fill" to="#808080" begin="zoomminus.mouseover" end="zoomminus.mouseout"/>
                        </use>
                        <path d="M-4,0h8" fill="none" stroke="white" stroke-width="1.5" pointer-events="none"/>
                </g>
                <g id="dirArrow">
                        <path fill="none" stroke="white" stroke-width="1.5" d="M0,-3.0v7 M-2.5,-0.5L0,-3.0L2.5,-0.5"/>
                </g>
               <g id="resetDef">
                       <use xlink:href="#rim2" fill="#404040">
                               <set attributeName="fill" to="#808080" begin="reset.mouseover" end="reset.mouseout"/>
                       </use>
               </g>
        </defs>

<script type="text/javascript">
var viewWidth = 704;
var viewHeight = 192;
var sectionId = 'dynsection-0';
</script>
<script xlink:href="svgpan.js"/>
<svg id="graph" class="graph">
<g id="viewport">
<title>TEST_F</title>
<polygon fill="#ffffff" stroke="transparent" points="-4,4 -4,-188.2398 700,-188.2398 700,4 -4,4"/>
<!-- Node0 -->
<g id="node1" class="node">
<title>Node0</title>
<polygon fill="#bfbfbf" stroke="#000000" points="0,-76.5 0,-95.5 51,-95.5 51,-76.5 0,-76.5"/>
<text text-anchor="middle" x="25.5" y="-83.5" font-family="Helvetica,sans-Serif" font-size="10.00" fill="#000000">TEST_F</text>
</g>
<!-- Node1 -->
<g id="node2" class="node">
<title>Node1</title>
<g id="a_node2"><a xlink:href="namespaceargo_1_1env_a30775a9aa41b956df7474a2c0cc317aa.html#a30775a9aa41b956df7474a2c0cc317aa" target="_top" xlink:title="get the allocation block size requested by environment variable ">
<polygon fill="#ffffff" stroke="#000000" points="422.5,-152 422.5,-182 538.5,-182 538.5,-152 422.5,-152"/>
<text text-anchor="start" x="430.5" y="-170" font-family="Helvetica,sans-Serif" font-size="10.00" fill="#000000">argo::env::allocation</text>
<text text-anchor="middle" x="480.5" y="-159" font-family="Helvetica,sans-Serif" font-size="10.00" fill="#000000">_block_size</text>
</a>
</g>
</g>
<!-- Node0&#45;&gt;Node1 -->
<g id="edge1" class="edge">
<title>Node0&#45;&gt;Node1</title>
<path fill="none" stroke="#191970" d="M32.0415,-95.8722C41.9964,-109.9319 62.4123,-135.2125 87,-146 193.0398,-192.5234 330.8773,-186.7068 412.1092,-177.4242"/>
<polygon fill="#191970" stroke="#191970" points="412.6999,-180.8786 422.2145,-176.2179 411.8702,-173.9279 412.6999,-180.8786"/>
</g>
<!-- Node2 -->
<g id="node3" class="node">
<title>Node2</title>
<g id="a_node3"><a xlink:href="namespaceargo_a2f35b6b6e0af76fb8fb47f2031d6f58e.html#a2f35b6b6e0af76fb8fb47f2031d6f58e" target="_top" xlink:title="Get the block size of the current allocation policy. ">
<polygon fill="#ffffff" stroke="#000000" points="94.5,-117.5 94.5,-136.5 210.5,-136.5 210.5,-117.5 94.5,-117.5"/>
<text text-anchor="middle" x="152.5" y="-124.5" font-family="Helvetica,sans-Serif" font-size="10.00" fill="#000000">argo::get_block_size</text>
</a>
</g>
</g>
<!-- Node0&#45;&gt;Node2 -->
<g id="edge2" class="edge">
<title>Node0&#45;&gt;Node2</title>
<path fill="none" stroke="#191970" d="M51.2003,-94.297C69.0146,-100.048 93.0691,-107.8137 113.2677,-114.3345"/>
<polygon fill="#191970" stroke="#191970" points="112.2377,-117.6797 122.8294,-117.4213 114.3883,-111.0183 112.2377,-117.6797"/>
</g>
<!-- Node4 -->
<g id="node5" class="node">
<title>Node4</title>
<g id="a_node5"><a xlink:href="namespaceargo_1_1data__distribution_a1bb3f2dcecd237990e6dc67764f06860.html#a1bb3f2dcecd237990e6dc67764f06860" target="_top" xlink:title="identifies if we distribute data using a cyclic memory policy ">
<polygon fill="#ffffff" stroke="#000000" points="417,-47 417,-77 544,-77 544,-47 417,-47"/>
<text text-anchor="start" x="425" y="-65" font-family="Helvetica,sans-Serif" font-size="10.00" fill="#000000">argo::data_distribution</text>
<text text-anchor="middle" x="480.5" y="-54" font-family="Helvetica,sans-Serif" font-size="10.00" fill="#000000">::is_cyclic_policy</text>
</a>
</g>
</g>
<!-- Node0&#45;&gt;Node4 -->
<g id="edge10" class="edge">
<title>Node0&#45;&gt;Node4</title>
<path fill="none" stroke="#191970" d="M51.0313,-78.9941C62.0126,-76.2925 75.0481,-73.4972 87,-72 197.645,-58.1398 327.1099,-57.8858 406.4507,-59.5239"/>
<polygon fill="#191970" stroke="#191970" points="406.7526,-63.0314 416.828,-59.7549 406.9084,-56.0331 406.7526,-63.0314"/>
</g>
<!-- Node6 -->
<g id="node7" class="node">
<title>Node6</title>
<g id="a_node7"><a xlink:href="namespaceargo_1_1data__distribution_a58576657391f45caf61bf0748a23b098.html#a58576657391f45caf61bf0748a23b098" target="_top" xlink:title="identifies if we distribute data using the first&#45;touch memory policy ">
<polygon fill="#ffffff" stroke="#000000" points="417,-96 417,-126 544,-126 544,-96 417,-96"/>
<text text-anchor="start" x="425" y="-114" font-family="Helvetica,sans-Serif" font-size="10.00" fill="#000000">argo::data_distribution</text>
<text text-anchor="middle" x="480.5" y="-103" font-family="Helvetica,sans-Serif" font-size="10.00" fill="#000000">::is_first_touch_policy</text>
</a>
</g>
</g>
<!-- Node0&#45;&gt;Node6 -->
<g id="edge11" class="edge">
<title>Node0&#45;&gt;Node6</title>
<path fill="none" stroke="#191970" d="M51.2664,-87.4157C118.7642,-91.1244 302.6762,-101.2295 406.5368,-106.9361"/>
<polygon fill="#191970" stroke="#191970" points="406.4619,-110.4372 416.6389,-107.4911 406.846,-103.4477 406.4619,-110.4372"/>
</g>
<!-- Node7 -->
<g id="node8" class="node">
<title>Node7</title>
<g id="a_node8"><a xlink:href="namespaceargo_a79c9492f3fd441bfa6261dffbc0f02f4.html#a79c9492f3fd441bfa6261dffbc0f02f4" target="_top" xlink:title="Number of ArgoDSM nodes being run. ">
<polygon fill="#ffffff" stroke="#000000" points="87,-.5 87,-19.5 218,-19.5 218,-.5 87,-.5"/>
<text text-anchor="middle" x="152.5" y="-7.5" font-family="Helvetica,sans-Serif" font-size="10.00" fill="#000000">argo::number_of_nodes</text>
</a>
</g>
</g>
<!-- Node0&#45;&gt;Node7 -->
<g id="edge9" class="edge">
<title>Node0&#45;&gt;Node7</title>
<path fill="none" stroke="#191970" d="M34.701,-76.382C46.0728,-64.9569 66.4501,-45.9457 87,-34 94.146,-29.846 102.1373,-26.2011 110.0151,-23.0891"/>
<polygon fill="#191970" stroke="#191970" points="111.3518,-26.3263 119.5038,-19.559 108.9109,-19.7656 111.3518,-26.3263"/>
</g>
<!-- Node3 -->
<g id="node4" class="node">
<title>Node3</title>
<g id="a_node4"><a xlink:href="namespaceargo_1_1data__distribution_a2a70ed49553953957c3a28aa755d7ac8.html#a2a70ed49553953957c3a28aa755d7ac8" target="_top" xlink:title="based on the chosen policy, gets the policy block size ">
<polygon fill="#ffffff" stroke="#000000" points="254,-115 254,-145 381,-145 381,-115 254,-115"/>
<text text-anchor="start" x="262" y="-133" font-family="Helvetica,sans-Serif" font-size="10.00" fill="#000000">argo::data_distribution</text>
<text text-anchor="middle" x="317.5" y="-122" font-family="Helvetica,sans-Serif" font-size="10.00" fill="#000000">::policy_block_size</text>
</a>
</g>
</g>
<!-- Node2&#45;&gt;Node3 -->
<g id="edge3" class="edge">
<title>Node2&#45;&gt;Node3</title>
<path fill="none" stroke="#191970" d="M210.6728,-128.0577C221.3993,-128.2527 232.7284,-128.4587 243.841,-128.6607"/>
<polygon fill="#191970" stroke="#191970" points="243.9001,-132.1623 253.9621,-128.8448 244.0274,-125.1635 243.9001,-132.1623"/>
</g>
<!-- Node3&#45;&gt;Node1 -->
<g id="edge4" class="edge">
<title>Node3&#45;&gt;Node1</title>
<path fill="none" stroke="#191970" d="M381.4541,-144.5172C391.6601,-146.8339 402.2515,-149.2381 412.5462,-151.5749"/>
<polygon fill="#191970" stroke="#191970" points="411.7765,-154.9891 422.3032,-153.7897 413.3261,-148.1628 411.7765,-154.9891"/>
</g>
<!-- Node3&#45;&gt;Node4 -->
<g id="edge5" class="edge">
<title>Node3&#45;&gt;Node4</title>
<path fill="none" stroke="#191970" d="M351.4603,-114.9954C370.6366,-106.6055 395.0828,-96.0474 417,-87 421.9966,-84.9374 427.2292,-82.8159 432.4549,-80.722"/>
<polygon fill="#191970" stroke="#191970" points="433.8048,-83.9519 441.8013,-77.0016 431.2159,-77.4482 433.8048,-83.9519"/>
</g>
<!-- Node3&#45;&gt;Node6 -->
<g id="edge7" class="edge">
<title>Node3&#45;&gt;Node6</title>
<path fill="none" stroke="#191970" d="M381.4541,-122.5452C389.8519,-121.5663 398.5106,-120.557 407.0503,-119.5616"/>
<polygon fill="#191970" stroke="#191970" points="407.4702,-123.0365 416.9977,-118.4021 406.6597,-116.0835 407.4702,-123.0365"/>
</g>
<!-- Node5 -->
<g id="node6" class="node">
<title>Node5</title>
<g id="a_node6"><a xlink:href="namespaceargo_1_1env_a25a08cb2d0d11432d640ec7173063339.html#a25a08cb2d0d11432d640ec7173063339" target="_top" xlink:title="get the allocation policy requested by environment variable ">
<polygon fill="#ffffff" stroke="#000000" points="580,-71 580,-101 696,-101 696,-71 580,-71"/>
<text text-anchor="start" x="588" y="-89" font-family="Helvetica,sans-Serif" font-size="10.00" fill="#000000">argo::env::allocation</text>
<text text-anchor="middle" x="638" y="-78" font-family="Helvetica,sans-Serif" font-size="10.00" fill="#000000">_policy</text>
</a>
</g>
</g>
<!-- Node4&#45;&gt;Node5 -->
<g id="edge6" class="edge">
<title>Node4&#45;&gt;Node5</title>
<path fill="none" stroke="#191970" d="M544.1073,-71.6925C552.5754,-72.9829 561.2863,-74.3103 569.8281,-75.6119"/>
<polygon fill="#191970" stroke="#191970" points="569.34,-79.0778 579.7531,-77.1243 570.3945,-72.1577 569.34,-79.0778"/>
</g>
<!-- Node6&#45;&gt;Node5 -->
<g id="edge8" class="edge">
<title>Node6&#45;&gt;Node5</title>
<path fill="none" stroke="#191970" d="M544.1073,-100.9036C552.5754,-99.5595 561.2863,-98.1768 569.8281,-96.8209"/>
<polygon fill="#191970" stroke="#191970" points="570.4255,-100.27 579.7531,-95.2455 569.3281,-93.3566 570.4255,-100.27"/>
</g>
</g>
</svg>
        <g id="navigator" transform="translate(0 0)" fill="#404254">
                <rect fill="#f2f5e9" fill-opacity="0.5" stroke="#606060" stroke-width=".5" x="0" y="0" width="60" height="60"/>
                <use id="zoomplus" xlink:href="#zoomPlus" x="17" y="9" onmousedown="handleZoom(evt,'in')"/>
                <use id="zoomminus" xlink:href="#zoomMin" x="42" y="9" onmousedown="handleZoom(evt,'out')"/>
                <use id="reset" xlink:href="#resetDef" x="30" y="36" onmousedown="handleReset()"/>
                <g id="arrowUp" xlink:href="#dirArrow" transform="translate(30 24)" onmousedown="handlePan(0,-1)">
                  <use xlink:href="#rim" fill="#404040">
                        <set attributeName="fill" to="#808080" begin="arrowUp.mouseover" end="arrowUp.mouseout"/>
                  </use>
                  <path fill="none" stroke="white" stroke-width="1.5" d="M0,-3.0v7 M-2.5,-0.5L0,-3.0L2.5,-0.5"/>
                </g>
                <g id="arrowRight" xlink:href="#dirArrow" transform="rotate(90) translate(36 -43)" onmousedown="handlePan(1,0)">
                  <use xlink:href="#rim" fill="#404040">
                        <set attributeName="fill" to="#808080" begin="arrowRight.mouseover" end="arrowRight.mouseout"/>
                  </use>
                  <path fill="none" stroke="white" stroke-width="1.5" d="M0,-3.0v7 M-2.5,-0.5L0,-3.0L2.5,-0.5"/>
                </g>
                <g id="arrowDown" xlink:href="#dirArrow" transform="rotate(180) translate(-30 -48)" onmousedown="handlePan(0,1)">
                  <use xlink:href="#rim" fill="#404040">
                        <set attributeName="fill" to="#808080" begin="arrowDown.mouseover" end="arrowDown.mouseout"/>
                  </use>
                  <path fill="none" stroke="white" stroke-width="1.5" d="M0,-3.0v7 M-2.5,-0.5L0,-3.0L2.5,-0.5"/>
                </g>
                <g id="arrowLeft" xlink:href="#dirArrow" transform="rotate(270) translate(-36 17)" onmousedown="handlePan(-1,0)">
                  <use xlink:href="#rim" fill="#404040">
                        <set attributeName="fill" to="#808080" begin="arrowLeft.mouseover" end="arrowLeft.mouseout"/>
                  </use>
                  <path fill="none" stroke="white" stroke-width="1.5" d="M0,-3.0v7 M-2.5,-0.5L0,-3.0L2.5,-0.5"/>
                </g>
        </g>
        <svg viewBox="0 0 15 15" width="100%" height="30px" preserveAspectRatio="xMaxYMin meet">
         <g id="arrow_out" transform="scale(0.3 0.3)">
          <a xlink:href="api_8cpp_a42290e9787e669eb9618124225ff8010_a42290e9787e669eb9618124225ff8010_cgraph_org.svg" target="_base">
           <rect id="button" ry="5" rx="5" y="6" x="6" height="38" width="38"
                fill="#f2f5e9" fill-opacity="0.5" stroke="#606060" stroke-width="1.0"/>
           <path id="arrow"
             d="M 11.500037,31.436501 C 11.940474,20.09759 22.043105,11.32322 32.158766,21.979434 L 37.068811,17.246167 C 37.068811,17.246167 37.088388,32 37.088388,32 L 22.160133,31.978069 C 22.160133,31.978069 26.997745,27.140456 26.997745,27.140456 C 18.528582,18.264221 13.291696,25.230495 11.500037,31.436501 z"
             style="fill:#404040;"/>
          </a>
         </g>
        </svg>
</svg>
