<?xml version="1.0" encoding="UTF-8" standalone="no"?>
<!DOCTYPE svg PUBLIC "-//W3C//DTD SVG 1.1//EN"
 "http://www.w3.org/Graphics/SVG/1.1/DTD/svg11.dtd">
<!-- Generated by graphviz version 2.40.1 (20161225.0304)
 -->
<!-- Title: argo_reset Pages: 1 -->
<svg width="267pt" height="66pt"
 viewBox="0.00 0.00 267.00 66.00" xmlns="http://www.w3.org/2000/svg" xmlns:xlink="http://www.w3.org/1999/xlink">
<g id="graph0" class="graph" transform="scale(1 1) rotate(0) translate(4 62)">
<title>argo_reset</title>
<polygon fill="#ffffff" stroke="transparent" points="-4,4 -4,-62 263,-62 263,4 -4,4"/>
<!-- Node4 -->
<g id="node1" class="node">
<title>Node4</title>
<polygon fill="#bfbfbf" stroke="#000000" points="0,-19.5 0,-38.5 68,-38.5 68,-19.5 0,-19.5"/>
<text text-anchor="middle" x="34" y="-26.5" font-family="Helvetica,sans-Serif" font-size="10.00" fill="#000000">argo_reset</text>
</g>
<!-- Node5 -->
<g id="node2" class="node">
<title>Node5</title>
<g id="a_node2"><a xlink:href="namespaceargo_a31330d8b35bd7f9ef9880eec82339c54.html#a31330d8b35bd7f9ef9880eec82339c54" target="_top" xlink:title="initialize ArgoDSM system ">
<polygon fill="#ffffff" stroke="#000000" points="104,-19.5 104,-38.5 164,-38.5 164,-19.5 104,-19.5"/>
<text text-anchor="middle" x="134" y="-26.5" font-family="Helvetica,sans-Serif" font-size="10.00" fill="#000000">argo::init</text>
</a>
</g>
</g>
<!-- Node4&#45;&gt;Node5 -->
<g id="edge1" class="edge">
<title>Node4&#45;&gt;Node5</title>
<path fill="none" stroke="#191970" d="M78.3911,-29C86.9458,-29 95.7224,-29 103.702,-29"/>
<polygon fill="#191970" stroke="#191970" points="78.1347,-25.5001 68.1346,-29 78.1346,-32.5001 78.1347,-25.5001"/>
</g>
<!-- Node6 -->
<g id="node3" class="node">
<title>Node6</title>
<g id="a_node3"><a xlink:href="tests_2allocators_8cpp_a3c04138a5bfe5d72780bb7e82a18e627.html#a3c04138a5bfe5d72780bb7e82a18e627" target="_top" xlink:title="The main function that runs the tests. ">
<polygon fill="#ffffff" stroke="#000000" points="209,-38.5 209,-57.5 250,-57.5 250,-38.5 209,-38.5"/>
<text text-anchor="middle" x="229.5" y="-45.5" font-family="Helvetica,sans-Serif" font-size="10.00" fill="#000000">main</text>
</a>
</g>
</g>
<!-- Node5&#45;&gt;Node6 -->
<g id="edge2" class="edge">
<title>Node5&#45;&gt;Node6</title>
<path fill="none" stroke="#191970" d="M174.0488,-36.9678C186.0207,-39.3497 198.6561,-41.8635 208.8367,-43.889"/>
<polygon fill="#191970" stroke="#191970" points="174.7076,-33.5304 164.2168,-35.0117 173.3416,-40.3958 174.7076,-33.5304"/>
</g>
<!-- Node7 -->
<g id="node4" class="node">
<title>Node7</title>
<g id="a_node4"><a xlink:href="argo_8h_aa84680ad78c3598c30a482ff71ec6bbc.html#aa84680ad78c3598c30a482ff71ec6bbc" target="_top" xlink:title="initialize ArgoDSM system ">
<polygon fill="#ffffff" stroke="#000000" points="200,-.5 200,-19.5 259,-19.5 259,-.5 200,-.5"/>
<text text-anchor="middle" x="229.5" y="-7.5" font-family="Helvetica,sans-Serif" font-size="10.00" fill="#000000">argo_init</text>
</a>
</g>
</g>
<!-- Node5&#45;&gt;Node7 -->
<g id="edge3" class="edge">
<title>Node5&#45;&gt;Node7</title>
<path fill="none" stroke="#191970" d="M174.1028,-21.0214C182.7168,-19.3076 191.6718,-17.526 199.8067,-15.9076"/>
<polygon fill="#191970" stroke="#191970" points="173.3416,-17.6042 164.2168,-22.9883 174.7076,-24.4696 173.3416,-17.6042"/>
</g>
</g>
</svg>
