<?xml version="1.0" encoding="UTF-8" standalone="no"?>
<!DOCTYPE svg PUBLIC "-//W3C//DTD SVG 1.1//EN"
 "http://www.w3.org/Graphics/SVG/1.1/DTD/svg11.dtd">
<!-- Generated by graphviz version 2.40.1 (20161225.0304)
 -->
<!-- Title: argo_get_homenode Pages: 1 -->
<svg width="922pt" height="137pt"
 viewBox="0.00 0.00 922.00 137.00" xmlns="http://www.w3.org/2000/svg" xmlns:xlink="http://www.w3.org/1999/xlink">
<g id="graph0" class="graph" transform="scale(1 1) rotate(0) translate(4 133)">
<title>argo_get_homenode</title>
<polygon fill="#ffffff" stroke="transparent" points="-4,4 -4,-133 918,-133 918,4 -4,4"/>
<!-- Node0 -->
<g id="node1" class="node">
<title>Node0</title>
<polygon fill="#bfbfbf" stroke="#000000" points="0,-55 0,-74 116,-74 116,-55 0,-55"/>
<text text-anchor="middle" x="58" y="-62" font-family="Helvetica,sans-Serif" font-size="10.00" fill="#000000">argo_get_homenode</text>
</g>
<!-- Node1 -->
<g id="node2" class="node">
<title>Node1</title>
<g id="a_node2"><a xlink:href="namespaceargo_a48dc17c94275df10a8e7f3959cbf0191.html#a48dc17c94275df10a8e7f3959cbf0191" target="_top" xlink:title="Get the ArgoDSM node id where addr is physically backed. ">
<polygon fill="#ffffff" stroke="#000000" points="152,-55 152,-74 269,-74 269,-55 152,-55"/>
<text text-anchor="middle" x="210.5" y="-62" font-family="Helvetica,sans-Serif" font-size="10.00" fill="#000000">argo::get_homenode</text>
</a>
</g>
</g>
<!-- Node0&#45;&gt;Node1 -->
<g id="edge1" class="edge">
<title>Node0&#45;&gt;Node1</title>
<path fill="none" stroke="#191970" d="M116.0887,-64.5C124.4981,-64.5 133.2204,-64.5 141.8133,-64.5"/>
<polygon fill="#191970" stroke="#191970" points="141.8148,-68.0001 151.8147,-64.5 141.8147,-61.0001 141.8148,-68.0001"/>
</g>
<!-- Node2 -->
<g id="node3" class="node">
<title>Node2</title>
<g id="a_node3"><a xlink:href="classargo_1_1data__distribution_1_1global__ptr_a3e2cdd4d323ef91174615e27ab94e342.html#a3e2cdd4d323ef91174615e27ab94e342" target="_top" xlink:title="return the home node of the value pointed to, or a default value if the page has not yet been first&#45;t...">
<polygon fill="#ffffff" stroke="#000000" points="305,-93.5 305,-123.5 436,-123.5 436,-93.5 305,-93.5"/>
<text text-anchor="start" x="313" y="-111.5" font-family="Helvetica,sans-Serif" font-size="10.00" fill="#000000">argo::data_distribution</text>
<text text-anchor="middle" x="370.5" y="-100.5" font-family="Helvetica,sans-Serif" font-size="10.00" fill="#000000">::global_ptr::peek_node</text>
</a>
</g>
</g>
<!-- Node1&#45;&gt;Node2 -->
<g id="edge2" class="edge">
<title>Node1&#45;&gt;Node2</title>
<path fill="none" stroke="#191970" d="M245.2176,-74.0473C262.9905,-78.9349 285.2093,-85.0451 305.9805,-90.7571"/>
<polygon fill="#191970" stroke="#191970" points="305.1467,-94.1577 315.7169,-93.4346 307.0029,-87.4083 305.1467,-94.1577"/>
</g>
<!-- Node3 -->
<g id="node4" class="node">
<title>Node3</title>
<g id="a_node4"><a xlink:href="namespaceargo_a2f35b6b6e0af76fb8fb47f2031d6f58e.html#a2f35b6b6e0af76fb8fb47f2031d6f58e" target="_top" xlink:title="Get the block size of the current allocation policy. ">
<polygon fill="#ffffff" stroke="#000000" points="312.5,-55 312.5,-74 428.5,-74 428.5,-55 312.5,-55"/>
<text text-anchor="middle" x="370.5" y="-62" font-family="Helvetica,sans-Serif" font-size="10.00" fill="#000000">argo::get_block_size</text>
</a>
</g>
</g>
<!-- Node1&#45;&gt;Node3 -->
<g id="edge3" class="edge">
<title>Node1&#45;&gt;Node3</title>
<path fill="none" stroke="#191970" d="M269.1696,-64.5C279.9585,-64.5 291.3057,-64.5 302.3452,-64.5"/>
<polygon fill="#191970" stroke="#191970" points="302.3722,-68.0001 312.3722,-64.5 302.3721,-61.0001 302.3722,-68.0001"/>
</g>
<!-- Node9 -->
<g id="node10" class="node">
<title>Node9</title>
<g id="a_node10"><a xlink:href="namespaceargo_a2b6b342c320b2a608d317a328fc46d83.html#a2b6b342c320b2a608d317a328fc46d83" target="_top" xlink:title="Size of memory which is the portion of memory owned by this node. ">
<polygon fill="#ffffff" stroke="#000000" points="321.5,-17 321.5,-36 419.5,-36 419.5,-17 321.5,-17"/>
<text text-anchor="middle" x="370.5" y="-24" font-family="Helvetica,sans-Serif" font-size="10.00" fill="#000000">argo::chunk_size</text>
</a>
</g>
</g>
<!-- Node1&#45;&gt;Node9 -->
<g id="edge10" class="edge">
<title>Node1&#45;&gt;Node9</title>
<path fill="none" stroke="#191970" d="M250.8748,-54.911C271.9885,-49.8965 298.0287,-43.7119 320.4169,-38.3947"/>
<polygon fill="#191970" stroke="#191970" points="321.495,-41.7361 330.4156,-36.0201 319.8774,-34.9256 321.495,-41.7361"/>
</g>
<!-- Node4 -->
<g id="node5" class="node">
<title>Node4</title>
<g id="a_node5"><a xlink:href="namespaceargo_1_1data__distribution_a2a70ed49553953957c3a28aa755d7ac8.html#a2a70ed49553953957c3a28aa755d7ac8" target="_top" xlink:title="based on the chosen policy, gets the policy block size ">
<polygon fill="#ffffff" stroke="#000000" points="472,-49.5 472,-79.5 599,-79.5 599,-49.5 472,-49.5"/>
<text text-anchor="start" x="480" y="-67.5" font-family="Helvetica,sans-Serif" font-size="10.00" fill="#000000">argo::data_distribution</text>
<text text-anchor="middle" x="535.5" y="-56.5" font-family="Helvetica,sans-Serif" font-size="10.00" fill="#000000">::policy_block_size</text>
</a>
</g>
</g>
<!-- Node3&#45;&gt;Node4 -->
<g id="edge4" class="edge">
<title>Node3&#45;&gt;Node4</title>
<path fill="none" stroke="#191970" d="M428.6728,-64.5C439.3993,-64.5 450.7284,-64.5 461.841,-64.5"/>
<polygon fill="#191970" stroke="#191970" points="461.9621,-68.0001 471.9621,-64.5 461.962,-61.0001 461.9621,-68.0001"/>
</g>
<!-- Node5 -->
<g id="node6" class="node">
<title>Node5</title>
<g id="a_node6"><a xlink:href="namespaceargo_1_1env_a30775a9aa41b956df7474a2c0cc317aa.html#a30775a9aa41b956df7474a2c0cc317aa" target="_top" xlink:title="get the allocation block size requested by environment variable ">
<polygon fill="#ffffff" stroke="#000000" points="640.5,-98.5 640.5,-128.5 756.5,-128.5 756.5,-98.5 640.5,-98.5"/>
<text text-anchor="start" x="648.5" y="-116.5" font-family="Helvetica,sans-Serif" font-size="10.00" fill="#000000">argo::env::allocation</text>
<text text-anchor="middle" x="698.5" y="-105.5" font-family="Helvetica,sans-Serif" font-size="10.00" fill="#000000">_block_size</text>
</a>
</g>
</g>
<!-- Node4&#45;&gt;Node5 -->
<g id="edge5" class="edge">
<title>Node4&#45;&gt;Node5</title>
<path fill="none" stroke="#191970" d="M585.7354,-79.6014C602.3909,-84.6083 621.0997,-90.2324 638.4194,-95.439"/>
<polygon fill="#191970" stroke="#191970" points="637.8462,-98.9213 648.4305,-98.4484 639.8615,-92.2177 637.8462,-98.9213"/>
</g>
<!-- Node6 -->
<g id="node7" class="node">
<title>Node6</title>
<g id="a_node7"><a xlink:href="namespaceargo_1_1data__distribution_a1bb3f2dcecd237990e6dc67764f06860.html#a1bb3f2dcecd237990e6dc67764f06860" target="_top" xlink:title="identifies if we distribute data using a cyclic memory policy ">
<polygon fill="#ffffff" stroke="#000000" points="635,-49.5 635,-79.5 762,-79.5 762,-49.5 635,-49.5"/>
<text text-anchor="start" x="643" y="-67.5" font-family="Helvetica,sans-Serif" font-size="10.00" fill="#000000">argo::data_distribution</text>
<text text-anchor="middle" x="698.5" y="-56.5" font-family="Helvetica,sans-Serif" font-size="10.00" fill="#000000">::is_cyclic_policy</text>
</a>
</g>
</g>
<!-- Node4&#45;&gt;Node6 -->
<g id="edge6" class="edge">
<title>Node4&#45;&gt;Node6</title>
<path fill="none" stroke="#191970" d="M599.4541,-64.5C607.7606,-64.5 616.3224,-64.5 624.7718,-64.5"/>
<polygon fill="#191970" stroke="#191970" points="624.9977,-68.0001 634.9977,-64.5 624.9977,-61.0001 624.9977,-68.0001"/>
</g>
<!-- Node8 -->
<g id="node9" class="node">
<title>Node8</title>
<g id="a_node9"><a xlink:href="namespaceargo_1_1data__distribution_a58576657391f45caf61bf0748a23b098.html#a58576657391f45caf61bf0748a23b098" target="_top" xlink:title="identifies if we distribute data using the first&#45;touch memory policy ">
<polygon fill="#ffffff" stroke="#000000" points="635,-.5 635,-30.5 762,-30.5 762,-.5 635,-.5"/>
<text text-anchor="start" x="643" y="-18.5" font-family="Helvetica,sans-Serif" font-size="10.00" fill="#000000">argo::data_distribution</text>
<text text-anchor="middle" x="698.5" y="-7.5" font-family="Helvetica,sans-Serif" font-size="10.00" fill="#000000">::is_first_touch_policy</text>
</a>
</g>
</g>
<!-- Node4&#45;&gt;Node8 -->
<g id="edge8" class="edge">
<title>Node4&#45;&gt;Node8</title>
<path fill="none" stroke="#191970" d="M585.7354,-49.3986C602.3909,-44.3917 621.0997,-38.7676 638.4194,-33.561"/>
<polygon fill="#191970" stroke="#191970" points="639.8615,-36.7823 648.4305,-30.5516 637.8462,-30.0787 639.8615,-36.7823"/>
</g>
<!-- Node7 -->
<g id="node8" class="node">
<title>Node7</title>
<g id="a_node8"><a xlink:href="namespaceargo_1_1env_a25a08cb2d0d11432d640ec7173063339.html#a25a08cb2d0d11432d640ec7173063339" target="_top" xlink:title="get the allocation policy requested by environment variable ">
<polygon fill="#ffffff" stroke="#000000" points="798,-24.5 798,-54.5 914,-54.5 914,-24.5 798,-24.5"/>
<text text-anchor="start" x="806" y="-42.5" font-family="Helvetica,sans-Serif" font-size="10.00" fill="#000000">argo::env::allocation</text>
<text text-anchor="middle" x="856" y="-31.5" font-family="Helvetica,sans-Serif" font-size="10.00" fill="#000000">_policy</text>
</a>
</g>
</g>
<!-- Node6&#45;&gt;Node7 -->
<g id="edge7" class="edge">
<title>Node6&#45;&gt;Node7</title>
<path fill="none" stroke="#191970" d="M762.1073,-54.4036C770.5754,-53.0595 779.2863,-51.6768 787.8281,-50.3209"/>
<polygon fill="#191970" stroke="#191970" points="788.4255,-53.77 797.7531,-48.7455 787.3281,-46.8566 788.4255,-53.77"/>
</g>
<!-- Node8&#45;&gt;Node7 -->
<g id="edge9" class="edge">
<title>Node8&#45;&gt;Node7</title>
<path fill="none" stroke="#191970" d="M762.1073,-25.1925C770.5754,-26.4829 779.2863,-27.8103 787.8281,-29.1119"/>
<polygon fill="#191970" stroke="#191970" points="787.34,-32.5778 797.7531,-30.6243 788.3945,-25.6577 787.34,-32.5778"/>
</g>
</g>
</svg>
