<?xml version="1.0" encoding="UTF-8" standalone="no"?>
<!DOCTYPE svg PUBLIC "-//W3C//DTD SVG 1.1//EN"
 "http://www.w3.org/Graphics/SVG/1.1/DTD/svg11.dtd">
<!-- Generated by graphviz version 2.40.1 (20161225.0304)
 -->
<!-- Title: argo_reset Pages: 1 -->
<svg width="368pt" height="88pt"
 viewBox="0.00 0.00 368.00 88.00" xmlns="http://www.w3.org/2000/svg" xmlns:xlink="http://www.w3.org/1999/xlink">
<g id="graph0" class="graph" transform="scale(1 1) rotate(0) translate(4 84)">
<title>argo_reset</title>
<polygon fill="#ffffff" stroke="transparent" points="-4,4 -4,-84 364,-84 364,4 -4,4"/>
<!-- Node0 -->
<g id="node1" class="node">
<title>Node0</title>
<polygon fill="#bfbfbf" stroke="#000000" points="0,-30 0,-49 68,-49 68,-30 0,-30"/>
<text text-anchor="middle" x="34" y="-37" font-family="Helvetica,sans-Serif" font-size="10.00" fill="#000000">argo_reset</text>
</g>
<!-- Node1 -->
<g id="node2" class="node">
<title>Node1</title>
<g id="a_node2"><a xlink:href="classargo_1_1mempools_1_1global__memory__pool_a382544f1b6de66b437e8034097313cc8.html#a382544f1b6de66b437e8034097313cc8" target="_top" xlink:title="Resets the memory pool to the initial state instead of de&#45;allocating and (re)allocating all buffers a...">
<polygon fill="#ffffff" stroke="#000000" points="106.5,-49.5 106.5,-79.5 238.5,-79.5 238.5,-49.5 106.5,-49.5"/>
<text text-anchor="start" x="114.5" y="-67.5" font-family="Helvetica,sans-Serif" font-size="10.00" fill="#000000">argo::mempools::global</text>
<text text-anchor="middle" x="172.5" y="-56.5" font-family="Helvetica,sans-Serif" font-size="10.00" fill="#000000">_memory_pool::reset</text>
</a>
</g>
</g>
<!-- Node0&#45;&gt;Node1 -->
<g id="edge1" class="edge">
<title>Node0&#45;&gt;Node1</title>
<path fill="none" stroke="#191970" d="M68.236,-45.6798C76.9474,-47.2522 86.662,-49.0058 96.5607,-50.7925"/>
<polygon fill="#191970" stroke="#191970" points="96.0276,-54.2528 106.4903,-52.5849 97.2711,-47.3641 96.0276,-54.2528"/>
</g>
<!-- Node3 -->
<g id="node4" class="node">
<title>Node3</title>
<g id="a_node4"><a xlink:href="classargo_1_1allocators_1_1generic__allocator_af7bba2f941e23af3efd7b06a7feeb296.html#af7bba2f941e23af3efd7b06a7feeb296" target="_top" xlink:title="set memory pool ">
<polygon fill="#ffffff" stroke="#000000" points="104,-.5 104,-30.5 241,-30.5 241,-.5 104,-.5"/>
<text text-anchor="start" x="112" y="-18.5" font-family="Helvetica,sans-Serif" font-size="10.00" fill="#000000">argo::allocators::generic</text>
<text text-anchor="middle" x="172.5" y="-7.5" font-family="Helvetica,sans-Serif" font-size="10.00" fill="#000000">_allocator::set_mempool</text>
</a>
</g>
</g>
<!-- Node0&#45;&gt;Node3 -->
<g id="edge3" class="edge">
<title>Node0&#45;&gt;Node3</title>
<path fill="none" stroke="#191970" d="M68.236,-33.5674C76.0931,-32.2059 84.7664,-30.7029 93.6547,-29.1627"/>
<polygon fill="#191970" stroke="#191970" points="94.4937,-32.5696 103.7493,-27.4135 93.2985,-25.6724 94.4937,-32.5696"/>
</g>
<!-- Node2 -->
<g id="node3" class="node">
<title>Node2</title>
<g id="a_node3"><a xlink:href="namespaceargo_a2deaaacde085d381cbb01f24318965b4.html#a2deaaacde085d381cbb01f24318965b4" target="_top" xlink:title="A unique ArgoDSM node identifier. Counting starts from 0. ">
<polygon fill="#ffffff" stroke="#000000" points="277,-55 277,-74 360,-74 360,-55 277,-55"/>
<text text-anchor="middle" x="318.5" y="-62" font-family="Helvetica,sans-Serif" font-size="10.00" fill="#000000">argo::node_id</text>
</a>
</g>
</g>
<!-- Node1&#45;&gt;Node2 -->
<g id="edge2" class="edge">
<title>Node1&#45;&gt;Node2</title>
<path fill="none" stroke="#191970" d="M238.6652,-64.5C248.0939,-64.5 257.6761,-64.5 266.775,-64.5"/>
<polygon fill="#191970" stroke="#191970" points="266.8089,-68.0001 276.8088,-64.5 266.8088,-61.0001 266.8089,-68.0001"/>
</g>
</g>
</svg>
