<?xml version="1.0" encoding="UTF-8" standalone="no"?>
<!DOCTYPE svg PUBLIC "-//W3C//DTD SVG 1.1//EN"
 "http://www.w3.org/Graphics/SVG/1.1/DTD/svg11.dtd">
<!-- Generated by graphviz version 2.40.1 (20161225.0304)
 -->
<!-- Title: argo::backend::_selective_acquire Pages: 1 -->
<svg width="292pt" height="57pt"
 viewBox="0.00 0.00 292.00 57.00" xmlns="http://www.w3.org/2000/svg" xmlns:xlink="http://www.w3.org/1999/xlink">
<g id="graph0" class="graph" transform="scale(1 1) rotate(0) translate(4 53)">
<title>argo::backend::_selective_acquire</title>
<polygon fill="#ffffff" stroke="transparent" points="-4,4 -4,-53 288,-53 288,4 -4,4"/>
<!-- Node11 -->
<g id="node1" class="node">
<title>Node11</title>
<polygon fill="#bfbfbf" stroke="#000000" points="0,-.5 0,-30.5 141,-30.5 141,-.5 0,-.5"/>
<text text-anchor="start" x="8" y="-18.5" font-family="Helvetica,sans-Serif" font-size="10.00" fill="#000000">argo::backend::_selective</text>
<text text-anchor="middle" x="70.5" y="-7.5" font-family="Helvetica,sans-Serif" font-size="10.00" fill="#000000">_acquire</text>
</g>
<!-- Node11&#45;&gt;Node11 -->
<g id="edge1" class="edge">
<title>Node11&#45;&gt;Node11</title>
<path fill="none" stroke="#191970" d="M42.0699,-40.9579C45.5985,-45.679 55.0752,-49 70.5,-49 95.8125,-49 105.1069,-40.0566 98.3833,-30.659"/>
<polygon fill="#191970" stroke="#191970" points="45.5815,-40.8305 42.6167,-30.659 38.5914,-40.4594 45.5815,-40.8305"/>
</g>
<!-- Node12 -->
<g id="node2" class="node">
<title>Node12</title>
<g id="a_node2"><a xlink:href="singlenode_8cpp_aab3cabb3e1c0b9696b339416b684f78c.html#aab3cabb3e1c0b9696b339416b684f78c" target="_top" xlink:title="argo::backend::init">
<polygon fill="#ffffff" stroke="#000000" points="177,-6 177,-25 284,-25 284,-6 177,-6"/>
<text text-anchor="middle" x="230.5" y="-13" font-family="Helvetica,sans-Serif" font-size="10.00" fill="#000000">argo::backend::init</text>
</a>
</g>
</g>
<!-- Node11&#45;&gt;Node12 -->
<g id="edge2" class="edge">
<title>Node11&#45;&gt;Node12</title>
<path fill="none" stroke="#191970" d="M151.2166,-15.5C159.8129,-15.5 168.3981,-15.5 176.5753,-15.5"/>
<polygon fill="#191970" stroke="#191970" points="151.1441,-12.0001 141.1441,-15.5 151.144,-19.0001 151.1441,-12.0001"/>
</g>
</g>
</svg>
