<?xml version="1.0" encoding="UTF-8" standalone="no"?>
<!DOCTYPE svg PUBLIC "-//W3C//DTD SVG 1.1//EN"
 "http://www.w3.org/Graphics/SVG/1.1/DTD/svg11.dtd">
<!-- Generated by graphviz version 2.40.1 (20161225.0304)
 -->
<!-- Title: argo::backend::global_size Pages: 1 -->
<svg width="297pt" height="46pt"
 viewBox="0.00 0.00 297.00 46.00" xmlns="http://www.w3.org/2000/svg" xmlns:xlink="http://www.w3.org/1999/xlink">
<g id="graph0" class="graph" transform="scale(1 1) rotate(0) translate(4 42)">
<title>argo::backend::global_size</title>
<polygon fill="#ffffff" stroke="transparent" points="-4,4 -4,-42 293,-42 293,4 -4,4"/>
<!-- Node2 -->
<g id="node1" class="node">
<title>Node2</title>
<polygon fill="#bfbfbf" stroke="#000000" points="0,-.5 0,-19.5 146,-19.5 146,-.5 0,-.5"/>
<text text-anchor="middle" x="73" y="-7.5" font-family="Helvetica,sans-Serif" font-size="10.00" fill="#000000">argo::backend::global_size</text>
</g>
<!-- Node2&#45;&gt;Node2 -->
<g id="edge1" class="edge">
<title>Node2&#45;&gt;Node2</title>
<path fill="none" stroke="#191970" d="M42.6856,-28.2746C43.5499,-33.741 53.6547,-38 73,-38 101.793,-38 110.1159,-28.5653 97.9689,-19.7571"/>
<polygon fill="#191970" stroke="#191970" points="45.6799,-30.0877 48.0311,-19.7571 39.7508,-26.3667 45.6799,-30.0877"/>
</g>
<!-- Node3 -->
<g id="node2" class="node">
<title>Node3</title>
<g id="a_node2"><a xlink:href="singlenode_8cpp_aab3cabb3e1c0b9696b339416b684f78c.html#aab3cabb3e1c0b9696b339416b684f78c" target="_top" xlink:title="argo::backend::init">
<polygon fill="#ffffff" stroke="#000000" points="182,-.5 182,-19.5 289,-19.5 289,-.5 182,-.5"/>
<text text-anchor="middle" x="235.5" y="-7.5" font-family="Helvetica,sans-Serif" font-size="10.00" fill="#000000">argo::backend::init</text>
</a>
</g>
</g>
<!-- Node2&#45;&gt;Node3 -->
<g id="edge2" class="edge">
<title>Node2&#45;&gt;Node3</title>
<path fill="none" stroke="#191970" d="M156.2945,-10C164.928,-10 173.5308,-10 181.7125,-10"/>
<polygon fill="#191970" stroke="#191970" points="156.1687,-6.5001 146.1686,-10 156.1686,-13.5001 156.1687,-6.5001"/>
</g>
</g>
</svg>
