<?xml version="1.0" encoding="UTF-8" standalone="no"?>
<!DOCTYPE svg PUBLIC "-//W3C//DTD SVG 1.1//EN"
 "http://www.w3.org/Graphics/SVG/1.1/DTD/svg11.dtd">
<!-- Generated by graphviz version 2.40.1 (20161225.0304)
 -->
<!-- Title: argo::backend::acquire Pages: 1 -->
<!--zoomable 219 -->
<svg id="main" version="1.1" xmlns="http://www.w3.org/2000/svg" xmlns:xlink="http://www.w3.org/1999/xlink" xml:space="preserve" onload="init(evt)">
<style type="text/css"><![CDATA[
.edge:hover path { stroke: red; }
.edge:hover polygon { stroke: red; fill: red; }
]]></style>
<script type="text/javascript"><![CDATA[
var edges = document.getElementsByTagName('g');
if (edges && edges.length) {
  for (var i=0;i<edges.length;i++) {
    if (edges[i].id.substr(0,4)=='edge') {
      edges[i].setAttribute('class','edge');
    }
  }
}
]]></script>
        <defs>
                <circle id="rim" cx="0" cy="0" r="7"/>
                <circle id="rim2" cx="0" cy="0" r="3.5"/>
                <g id="zoomPlus">
                        <use xlink:href="#rim" target="_top" fill="#404040">
                                <set attributeName="fill" to="#808080" begin="zoomplus.mouseover" end="zoomplus.mouseout"/>
                        </use>
                        <path d="M-4,0h8M0,-4v8" fill="none" stroke="white" stroke-width="1.5" pointer-events="none"/>
                </g>
                <g id="zoomMin">
                        <use xlink:href="#rim" target="_top" fill="#404040">
                                <set attributeName="fill" to="#808080" begin="zoomminus.mouseover" end="zoomminus.mouseout"/>
                        </use>
                        <path d="M-4,0h8" fill="none" stroke="white" stroke-width="1.5" pointer-events="none"/>
                </g>
                <g id="dirArrow">
                        <path fill="none" stroke="white" stroke-width="1.5" d="M0,-3.0v7 M-2.5,-0.5L0,-3.0L2.5,-0.5"/>
                </g>
               <g id="resetDef">
                       <use xlink:href="#rim2" target="_top" fill="#404040">
                               <set attributeName="fill" to="#808080" begin="reset.mouseover" end="reset.mouseout"/>
                       </use>
               </g>
        </defs>

<script type="text/javascript">
var viewWidth = 1491;
var viewHeight = 219;
var sectionId = 'dynsection-0';
</script>
<script xlink:href="svgpan.js" target="_top"/>
<svg id="graph" class="graph">
<g id="viewport">
<title>argo::backend::acquire</title>
<polygon fill="#ffffff" stroke="transparent" points="-4,4 -4,-215 1487,-215 1487,4 -4,4"/>
<!-- Node0 -->
<g id="node1" class="node">
<title>Node0</title>
<polygon fill="#bfbfbf" stroke="#000000" points="0,-137 0,-156 128,-156 128,-137 0,-137"/>
<text text-anchor="middle" x="64" y="-144" font-family="Helvetica,sans-Serif" font-size="10.00" fill="#000000">argo::backend::acquire</text>
</g>
<!-- Node0&#45;&gt;Node0 -->
<g id="edge1" class="edge">
<title>Node0&#45;&gt;Node0</title>
<path fill="none" stroke="#191970" d="M42.4219,-156.2571C31.9245,-165.0653 39.1172,-174.5 64,-174.5 79.9406,-174.5 88.6211,-170.628 90.0416,-165.5292"/>
<polygon fill="#191970" stroke="#191970" points="93.0692,-163.7493 85.5781,-156.2571 86.762,-166.7855 93.0692,-163.7493"/>
</g>
<!-- Node1 -->
<g id="node2" class="node">
<title>Node1</title>
<g id="a_node2"><a xlink:href="swdsm_8cpp_a44b8bb7a3c8b47b4f9552c8e10b25e4b.html#a44b8bb7a3c8b47b4f9552c8e10b25e4b" target="_top" target="_top" xlink:title="acquire function for ArgoDSM (Acquire according to Release Consistency) ">
<polygon fill="#ffffff" stroke="#000000" points="164,-137 164,-156 244,-156 244,-137 164,-137"/>
<text text-anchor="middle" x="204" y="-144" font-family="Helvetica,sans-Serif" font-size="10.00" fill="#000000">argo_acquire</text>
</a>
</g>
</g>
<!-- Node0&#45;&gt;Node1 -->
<g id="edge2" class="edge">
<title>Node0&#45;&gt;Node1</title>
<path fill="none" stroke="#191970" d="M128.2635,-146.5C136.7546,-146.5 145.359,-146.5 153.5725,-146.5"/>
<polygon fill="#191970" stroke="#191970" points="153.7293,-150.0001 163.7292,-146.5 153.7292,-143.0001 153.7293,-150.0001"/>
</g>
<!-- Node2 -->
<g id="node3" class="node">
<title>Node2</title>
<g id="a_node3"><a xlink:href="swdsm_8cpp_aa7c3a2de6bbafdaf68fe6ceb6110ab97.html#aa7c3a2de6bbafdaf68fe6ceb6110ab97" target="_top" target="_top" xlink:title="Self&#45;Invalidates all memory that has potential writers. ">
<polygon fill="#ffffff" stroke="#000000" points="280,-137 280,-156 378,-156 378,-137 280,-137"/>
<text text-anchor="middle" x="329" y="-144" font-family="Helvetica,sans-Serif" font-size="10.00" fill="#000000">self_invalidation</text>
</a>
</g>
</g>
<!-- Node1&#45;&gt;Node2 -->
<g id="edge3" class="edge">
<title>Node1&#45;&gt;Node2</title>
<path fill="none" stroke="#191970" d="M244.2388,-146.5C252.3438,-146.5 261.0233,-146.5 269.6237,-146.5"/>
<polygon fill="#191970" stroke="#191970" points="269.6444,-150.0001 279.6444,-146.5 269.6443,-143.0001 269.6444,-150.0001"/>
</g>
<!-- Node3 -->
<g id="node4" class="node">
<title>Node3</title>
<g id="a_node4"><a xlink:href="swdsm_8cpp_af770e3f703653ddb0967b85d88881ab7.html#af770e3f703653ddb0967b85d88881ab7" target="_top" target="_top" xlink:title="Gives the ArgoDSM node id for the local process. ">
<polygon fill="#ffffff" stroke="#000000" points="444.5,-181 444.5,-200 487.5,-200 487.5,-181 444.5,-181"/>
<text text-anchor="middle" x="466" y="-188" font-family="Helvetica,sans-Serif" font-size="10.00" fill="#000000">getID</text>
</a>
</g>
</g>
<!-- Node2&#45;&gt;Node3 -->
<g id="edge4" class="edge">
<title>Node2&#45;&gt;Node3</title>
<path fill="none" stroke="#191970" d="M358.727,-156.0473C381.2121,-163.2689 412.0081,-173.1595 434.8372,-180.4915"/>
<polygon fill="#191970" stroke="#191970" points="433.8046,-183.8359 444.3959,-183.5614 435.9451,-177.1712 433.8046,-183.8359"/>
</g>
<!-- Node4 -->
<g id="node5" class="node">
<title>Node4</title>
<g id="a_node5"><a xlink:href="swdsm_8cpp_adfcbbdedcad0833d49e3111447061689.html#adfcbbdedcad0833d49e3111447061689" target="_top" target="_top" xlink:title="Gives an index to the sharer/writer vector depending on the address. ">
<polygon fill="#ffffff" stroke="#000000" points="415.5,-131.5 415.5,-161.5 516.5,-161.5 516.5,-131.5 415.5,-131.5"/>
<text text-anchor="start" x="423.5" y="-149.5" font-family="Helvetica,sans-Serif" font-size="10.00" fill="#000000">get_classification</text>
<text text-anchor="middle" x="466" y="-138.5" font-family="Helvetica,sans-Serif" font-size="10.00" fill="#000000">_index</text>
</a>
</g>
</g>
<!-- Node2&#45;&gt;Node4 -->
<g id="edge5" class="edge">
<title>Node2&#45;&gt;Node4</title>
<path fill="none" stroke="#191970" d="M378.0732,-146.5C386.8871,-146.5 396.1689,-146.5 405.2656,-146.5"/>
<polygon fill="#191970" stroke="#191970" points="405.4226,-150.0001 415.4226,-146.5 405.4226,-143.0001 405.4226,-150.0001"/>
</g>
<!-- Node5 -->
<g id="node6" class="node">
<title>Node5</title>
<g id="a_node6"><a xlink:href="classwrite__buffer_aca2e330e17a38c1cc8d8c60701ce9dd7.html#aca2e330e17a38c1cc8d8c60701ce9dd7" target="_top" target="_top" xlink:title="Flushes the ArgoDSM write buffer to memory. ">
<polygon fill="#ffffff" stroke="#000000" points="414,-93 414,-112 518,-112 518,-93 414,-93"/>
<text text-anchor="middle" x="466" y="-100" font-family="Helvetica,sans-Serif" font-size="10.00" fill="#000000">write_buffer::flush</text>
</a>
</g>
</g>
<!-- Node2&#45;&gt;Node5 -->
<g id="edge6" class="edge">
<title>Node2&#45;&gt;Node5</title>
<path fill="none" stroke="#191970" d="M358.727,-136.9527C378.6545,-130.5526 405.1097,-122.056 426.7616,-115.1021"/>
<polygon fill="#191970" stroke="#191970" points="427.8803,-118.419 436.3311,-112.0287 425.7398,-111.7543 427.8803,-118.419"/>
</g>
<!-- Node6 -->
<g id="node7" class="node">
<title>Node6</title>
<g id="a_node7"><a xlink:href="classwrite__buffer_ab70cc0d6ca3591094aae489dbc3feaa5.html#ab70cc0d6ca3591094aae489dbc3feaa5" target="_top" target="_top" xlink:title="Check if the write buffer is empty. ">
<polygon fill="#ffffff" stroke="#000000" points="563,-169 563,-188 676,-188 676,-169 563,-169"/>
<text text-anchor="middle" x="619.5" y="-176" font-family="Helvetica,sans-Serif" font-size="10.00" fill="#000000">write_buffer::empty</text>
</a>
</g>
</g>
<!-- Node5&#45;&gt;Node6 -->
<g id="edge7" class="edge">
<title>Node5&#45;&gt;Node6</title>
<path fill="none" stroke="#191970" d="M497.3254,-112.036C504.4148,-114.8662 511.7023,-118.3456 518,-122.5 537.1522,-135.1339 534.3293,-147.6897 554,-159.5 557.5973,-161.6598 561.4538,-163.5858 565.4288,-165.3012"/>
<polygon fill="#191970" stroke="#191970" points="564.263,-168.6028 574.8527,-168.9328 566.7802,-162.071 564.263,-168.6028"/>
</g>
<!-- Node7 -->
<g id="node8" class="node">
<title>Node7</title>
<g id="a_node8"><a xlink:href="classwrite__buffer_aa2325346aceb3e7ffdbdbdc8e8682147.html#aa2325346aceb3e7ffdbdbdc8e8682147" target="_top" target="_top" xlink:title="Sorts all elements by home node id in ascending order. ">
<polygon fill="#ffffff" stroke="#000000" points="569.5,-131 569.5,-150 669.5,-150 669.5,-131 569.5,-131"/>
<text text-anchor="middle" x="619.5" y="-138" font-family="Helvetica,sans-Serif" font-size="10.00" fill="#000000">write_buffer::sort</text>
</a>
</g>
</g>
<!-- Node5&#45;&gt;Node7 -->
<g id="edge8" class="edge">
<title>Node5&#45;&gt;Node7</title>
<path fill="none" stroke="#191970" d="M504.7345,-112.089C524.8993,-117.0809 549.7479,-123.2324 571.1611,-128.5334"/>
<polygon fill="#191970" stroke="#191970" points="570.4959,-131.9743 581.044,-130.9799 572.1781,-125.1794 570.4959,-131.9743"/>
</g>
<!-- Node17 -->
<g id="node18" class="node">
<title>Node17</title>
<g id="a_node18"><a xlink:href="classwrite__buffer_ae065d3ee59035ad508eb8ce6670d2c89.html#ae065d3ee59035ad508eb8ce6670d2c89" target="_top" target="_top" xlink:title="Removes the front element from the buffer and returns it. ">
<polygon fill="#ffffff" stroke="#000000" points="570,-93 570,-112 669,-112 669,-93 570,-93"/>
<text text-anchor="middle" x="619.5" y="-100" font-family="Helvetica,sans-Serif" font-size="10.00" fill="#000000">write_buffer::pop</text>
</a>
</g>
</g>
<!-- Node5&#45;&gt;Node17 -->
<g id="edge19" class="edge">
<title>Node5&#45;&gt;Node17</title>
<path fill="none" stroke="#191970" d="M518.3967,-102.5C531.6849,-102.5 546.0597,-102.5 559.685,-102.5"/>
<polygon fill="#191970" stroke="#191970" points="559.9279,-106.0001 569.9279,-102.5 559.9279,-99.0001 559.9279,-106.0001"/>
</g>
<!-- Node18 -->
<g id="node19" class="node">
<title>Node18</title>
<g id="a_node19"><a xlink:href="swdsm_8cpp_ae0f2d0961e80b2903b3f54c9e6c68658.html#ae0f2d0961e80b2903b3f54c9e6c68658" target="_top" target="_top" xlink:title="stores a page remotely &#45; only writing back what has been written locally since last synchronization p...">
<polygon fill="#ffffff" stroke="#000000" points="576.5,-55 576.5,-74 662.5,-74 662.5,-55 576.5,-55"/>
<text text-anchor="middle" x="619.5" y="-62" font-family="Helvetica,sans-Serif" font-size="10.00" fill="#000000">storepageDIFF</text>
</a>
</g>
</g>
<!-- Node5&#45;&gt;Node18 -->
<g id="edge20" class="edge">
<title>Node5&#45;&gt;Node18</title>
<path fill="none" stroke="#191970" d="M504.7345,-92.911C524.8993,-87.9191 549.7479,-81.7676 571.1611,-76.4666"/>
<polygon fill="#191970" stroke="#191970" points="572.1781,-79.8206 581.044,-74.0201 570.4959,-73.0257 572.1781,-79.8206"/>
</g>
<!-- Node23 -->
<g id="node24" class="node">
<title>Node23</title>
<g id="a_node24"><a xlink:href="namespaceargo_a79c9492f3fd441bfa6261dffbc0f02f4.html#a79c9492f3fd441bfa6261dffbc0f02f4" target="_top" target="_top" xlink:title="Number of ArgoDSM nodes being run. ">
<polygon fill="#ffffff" stroke="#000000" points="554,-17 554,-36 685,-36 685,-17 554,-17"/>
<text text-anchor="middle" x="619.5" y="-24" font-family="Helvetica,sans-Serif" font-size="10.00" fill="#000000">argo::number_of_nodes</text>
</a>
</g>
</g>
<!-- Node5&#45;&gt;Node23 -->
<g id="edge25" class="edge">
<title>Node5&#45;&gt;Node23</title>
<path fill="none" stroke="#191970" d="M478.1527,-92.9675C494.5424,-80.5129 525.026,-58.7374 554,-45.5 559.0482,-43.1936 564.4438,-41.0948 569.8903,-39.205"/>
<polygon fill="#191970" stroke="#191970" points="571.2519,-42.4429 579.6848,-36.0291 569.0928,-35.7842 571.2519,-42.4429"/>
</g>
<!-- Node8 -->
<g id="node9" class="node">
<title>Node8</title>
<g id="a_node9"><a xlink:href="namespaceargo_a48dc17c94275df10a8e7f3959cbf0191.html#a48dc17c94275df10a8e7f3959cbf0191" target="_top" target="_top" xlink:title="Get the ArgoDSM node id where addr is physically backed. ">
<polygon fill="#ffffff" stroke="#000000" points="721,-134 721,-153 838,-153 838,-134 721,-134"/>
<text text-anchor="middle" x="779.5" y="-141" font-family="Helvetica,sans-Serif" font-size="10.00" fill="#000000">argo::get_homenode</text>
</a>
</g>
</g>
<!-- Node7&#45;&gt;Node8 -->
<g id="edge9" class="edge">
<title>Node7&#45;&gt;Node8</title>
<path fill="none" stroke="#191970" d="M669.686,-141.441C682.6124,-141.6834 696.7506,-141.9484 710.452,-142.2054"/>
<polygon fill="#191970" stroke="#191970" points="710.7533,-145.7115 720.8171,-142.3997 710.8845,-138.7127 710.7533,-145.7115"/>
</g>
<!-- Node9 -->
<g id="node10" class="node">
<title>Node9</title>
<g id="a_node10"><a xlink:href="classargo_1_1data__distribution_1_1global__ptr_a3e2cdd4d323ef91174615e27ab94e342.html#a3e2cdd4d323ef91174615e27ab94e342" target="_top" target="_top" xlink:title="return the home node of the value pointed to, or a default value if the page has not yet been first&#45;t...">
<polygon fill="#ffffff" stroke="#000000" points="874,-175.5 874,-205.5 1005,-205.5 1005,-175.5 874,-175.5"/>
<text text-anchor="start" x="882" y="-193.5" font-family="Helvetica,sans-Serif" font-size="10.00" fill="#000000">argo::data_distribution</text>
<text text-anchor="middle" x="939.5" y="-182.5" font-family="Helvetica,sans-Serif" font-size="10.00" fill="#000000">::global_ptr::peek_node</text>
</a>
</g>
</g>
<!-- Node8&#45;&gt;Node9 -->
<g id="edge10" class="edge">
<title>Node8&#45;&gt;Node9</title>
<path fill="none" stroke="#191970" d="M811.8784,-153.0112C830.9686,-158.6189 855.7471,-165.8976 878.3856,-172.5476"/>
<polygon fill="#191970" stroke="#191970" points="877.6888,-175.9908 888.2699,-175.4512 879.6617,-169.2746 877.6888,-175.9908"/>
</g>
<!-- Node10 -->
<g id="node11" class="node">
<title>Node10</title>
<g id="a_node11"><a xlink:href="namespaceargo_a2f35b6b6e0af76fb8fb47f2031d6f58e.html#a2f35b6b6e0af76fb8fb47f2031d6f58e" target="_top" target="_top" xlink:title="Get the block size of the current allocation policy. ">
<polygon fill="#ffffff" stroke="#000000" points="881.5,-137 881.5,-156 997.5,-156 997.5,-137 881.5,-137"/>
<text text-anchor="middle" x="939.5" y="-144" font-family="Helvetica,sans-Serif" font-size="10.00" fill="#000000">argo::get_block_size</text>
</a>
</g>
</g>
<!-- Node8&#45;&gt;Node10 -->
<g id="edge11" class="edge">
<title>Node8&#45;&gt;Node10</title>
<path fill="none" stroke="#191970" d="M838.1696,-144.6001C848.9585,-144.8023 860.3057,-145.0151 871.3452,-145.2221"/>
<polygon fill="#191970" stroke="#191970" points="871.3083,-148.7219 881.3722,-145.4101 871.4396,-141.7232 871.3083,-148.7219"/>
</g>
<!-- Node16 -->
<g id="node17" class="node">
<title>Node16</title>
<g id="a_node17"><a xlink:href="namespaceargo_a2b6b342c320b2a608d317a328fc46d83.html#a2b6b342c320b2a608d317a328fc46d83" target="_top" target="_top" xlink:title="Size of memory which is the portion of memory owned by this node. ">
<polygon fill="#ffffff" stroke="#000000" points="890.5,-99 890.5,-118 988.5,-118 988.5,-99 890.5,-99"/>
<text text-anchor="middle" x="939.5" y="-106" font-family="Helvetica,sans-Serif" font-size="10.00" fill="#000000">argo::chunk_size</text>
</a>
</g>
</g>
<!-- Node8&#45;&gt;Node16 -->
<g id="edge18" class="edge">
<title>Node8&#45;&gt;Node16</title>
<path fill="none" stroke="#191970" d="M823.2207,-133.9361C842.6221,-129.692 865.6353,-124.6579 886.0477,-120.1927"/>
<polygon fill="#191970" stroke="#191970" points="886.8111,-123.6085 895.8322,-118.0523 885.3152,-116.7702 886.8111,-123.6085"/>
</g>
<!-- Node11 -->
<g id="node12" class="node">
<title>Node11</title>
<g id="a_node12"><a xlink:href="namespaceargo_1_1data__distribution_a2a70ed49553953957c3a28aa755d7ac8.html#a2a70ed49553953957c3a28aa755d7ac8" target="_top" target="_top" xlink:title="based on the chosen policy, gets the policy block size ">
<polygon fill="#ffffff" stroke="#000000" points="1041,-131.5 1041,-161.5 1168,-161.5 1168,-131.5 1041,-131.5"/>
<text text-anchor="start" x="1049" y="-149.5" font-family="Helvetica,sans-Serif" font-size="10.00" fill="#000000">argo::data_distribution</text>
<text text-anchor="middle" x="1104.5" y="-138.5" font-family="Helvetica,sans-Serif" font-size="10.00" fill="#000000">::policy_block_size</text>
</a>
</g>
</g>
<!-- Node10&#45;&gt;Node11 -->
<g id="edge12" class="edge">
<title>Node10&#45;&gt;Node11</title>
<path fill="none" stroke="#191970" d="M997.6728,-146.5C1008.3993,-146.5 1019.7284,-146.5 1030.841,-146.5"/>
<polygon fill="#191970" stroke="#191970" points="1030.9621,-150.0001 1040.9621,-146.5 1030.962,-143.0001 1030.9621,-150.0001"/>
</g>
<!-- Node12 -->
<g id="node13" class="node">
<title>Node12</title>
<g id="a_node13"><a xlink:href="namespaceargo_1_1env_a30775a9aa41b956df7474a2c0cc317aa.html#a30775a9aa41b956df7474a2c0cc317aa" target="_top" target="_top" xlink:title="get the allocation block size requested by environment variable ">
<polygon fill="#ffffff" stroke="#000000" points="1209.5,-180.5 1209.5,-210.5 1325.5,-210.5 1325.5,-180.5 1209.5,-180.5"/>
<text text-anchor="start" x="1217.5" y="-198.5" font-family="Helvetica,sans-Serif" font-size="10.00" fill="#000000">argo::env::allocation</text>
<text text-anchor="middle" x="1267.5" y="-187.5" font-family="Helvetica,sans-Serif" font-size="10.00" fill="#000000">_block_size</text>
</a>
</g>
</g>
<!-- Node11&#45;&gt;Node12 -->
<g id="edge13" class="edge">
<title>Node11&#45;&gt;Node12</title>
<path fill="none" stroke="#191970" d="M1154.7354,-161.6014C1171.3909,-166.6083 1190.0997,-172.2324 1207.4194,-177.439"/>
<polygon fill="#191970" stroke="#191970" points="1206.8462,-180.9213 1217.4305,-180.4484 1208.8615,-174.2177 1206.8462,-180.9213"/>
</g>
<!-- Node13 -->
<g id="node14" class="node">
<title>Node13</title>
<g id="a_node14"><a xlink:href="namespaceargo_1_1data__distribution_a1bb3f2dcecd237990e6dc67764f06860.html#a1bb3f2dcecd237990e6dc67764f06860" target="_top" target="_top" xlink:title="identifies if we distribute data using a cyclic memory policy ">
<polygon fill="#ffffff" stroke="#000000" points="1204,-131.5 1204,-161.5 1331,-161.5 1331,-131.5 1204,-131.5"/>
<text text-anchor="start" x="1212" y="-149.5" font-family="Helvetica,sans-Serif" font-size="10.00" fill="#000000">argo::data_distribution</text>
<text text-anchor="middle" x="1267.5" y="-138.5" font-family="Helvetica,sans-Serif" font-size="10.00" fill="#000000">::is_cyclic_policy</text>
</a>
</g>
</g>
<!-- Node11&#45;&gt;Node13 -->
<g id="edge14" class="edge">
<title>Node11&#45;&gt;Node13</title>
<path fill="none" stroke="#191970" d="M1168.4541,-146.5C1176.7606,-146.5 1185.3224,-146.5 1193.7718,-146.5"/>
<polygon fill="#191970" stroke="#191970" points="1193.9977,-150.0001 1203.9977,-146.5 1193.9977,-143.0001 1193.9977,-150.0001"/>
</g>
<!-- Node15 -->
<g id="node16" class="node">
<title>Node15</title>
<g id="a_node16"><a xlink:href="namespaceargo_1_1data__distribution_a58576657391f45caf61bf0748a23b098.html#a58576657391f45caf61bf0748a23b098" target="_top" target="_top" xlink:title="identifies if we distribute data using the first&#45;touch memory policy ">
<polygon fill="#ffffff" stroke="#000000" points="1204,-82.5 1204,-112.5 1331,-112.5 1331,-82.5 1204,-82.5"/>
<text text-anchor="start" x="1212" y="-100.5" font-family="Helvetica,sans-Serif" font-size="10.00" fill="#000000">argo::data_distribution</text>
<text text-anchor="middle" x="1267.5" y="-89.5" font-family="Helvetica,sans-Serif" font-size="10.00" fill="#000000">::is_first_touch_policy</text>
</a>
</g>
</g>
<!-- Node11&#45;&gt;Node15 -->
<g id="edge16" class="edge">
<title>Node11&#45;&gt;Node15</title>
<path fill="none" stroke="#191970" d="M1154.7354,-131.3986C1171.3909,-126.3917 1190.0997,-120.7676 1207.4194,-115.561"/>
<polygon fill="#191970" stroke="#191970" points="1208.8615,-118.7823 1217.4305,-112.5516 1206.8462,-112.0787 1208.8615,-118.7823"/>
</g>
<!-- Node14 -->
<g id="node15" class="node">
<title>Node14</title>
<g id="a_node15"><a xlink:href="namespaceargo_1_1env_a25a08cb2d0d11432d640ec7173063339.html#a25a08cb2d0d11432d640ec7173063339" target="_top" target="_top" xlink:title="get the allocation policy requested by environment variable ">
<polygon fill="#ffffff" stroke="#000000" points="1367,-106.5 1367,-136.5 1483,-136.5 1483,-106.5 1367,-106.5"/>
<text text-anchor="start" x="1375" y="-124.5" font-family="Helvetica,sans-Serif" font-size="10.00" fill="#000000">argo::env::allocation</text>
<text text-anchor="middle" x="1425" y="-113.5" font-family="Helvetica,sans-Serif" font-size="10.00" fill="#000000">_policy</text>
</a>
</g>
</g>
<!-- Node13&#45;&gt;Node14 -->
<g id="edge15" class="edge">
<title>Node13&#45;&gt;Node14</title>
<path fill="none" stroke="#191970" d="M1331.1073,-136.4036C1339.5754,-135.0595 1348.2863,-133.6768 1356.8281,-132.3209"/>
<polygon fill="#191970" stroke="#191970" points="1357.4255,-135.77 1366.7531,-130.7455 1356.3281,-128.8566 1357.4255,-135.77"/>
</g>
<!-- Node15&#45;&gt;Node14 -->
<g id="edge17" class="edge">
<title>Node15&#45;&gt;Node14</title>
<path fill="none" stroke="#191970" d="M1331.1073,-107.1925C1339.5754,-108.4829 1348.2863,-109.8103 1356.8281,-111.1119"/>
<polygon fill="#191970" stroke="#191970" points="1356.34,-114.5778 1366.7531,-112.6243 1357.3945,-107.6577 1356.34,-114.5778"/>
</g>
<!-- Node19 -->
<g id="node20" class="node">
<title>Node19</title>
<g id="a_node20"><a xlink:href="swdsm_8cpp_a0edf823a78daed8888e8e18468460617.html#a0edf823a78daed8888e8e18468460617" target="_top" target="_top" xlink:title="Gives homenode for a given address. ">
<polygon fill="#ffffff" stroke="#000000" points="735,-55 735,-74 824,-74 824,-55 735,-55"/>
<text text-anchor="middle" x="779.5" y="-62" font-family="Helvetica,sans-Serif" font-size="10.00" fill="#000000">get_homenode</text>
</a>
</g>
</g>
<!-- Node18&#45;&gt;Node19 -->
<g id="edge21" class="edge">
<title>Node18&#45;&gt;Node19</title>
<path fill="none" stroke="#191970" d="M662.7983,-64.5C681.8788,-64.5 704.5155,-64.5 724.7506,-64.5"/>
<polygon fill="#191970" stroke="#191970" points="724.7724,-68.0001 734.7724,-64.5 724.7723,-61.0001 724.7724,-68.0001"/>
</g>
<!-- Node21 -->
<g id="node22" class="node">
<title>Node21</title>
<g id="a_node22"><a xlink:href="swdsm_8cpp_ab58b1f9fa1b59d3060f241994979e18f.html#ab58b1f9fa1b59d3060f241994979e18f" target="_top" target="_top" xlink:title="Gets the offset of an address on the local nodes part of the global memory. ">
<polygon fill="#ffffff" stroke="#000000" points="747,-12 747,-31 812,-31 812,-12 747,-12"/>
<text text-anchor="middle" x="779.5" y="-19" font-family="Helvetica,sans-Serif" font-size="10.00" fill="#000000">get_offset</text>
</a>
</g>
</g>
<!-- Node18&#45;&gt;Node21 -->
<g id="edge23" class="edge">
<title>Node18&#45;&gt;Node21</title>
<path fill="none" stroke="#191970" d="M655.0092,-54.9569C679.2295,-48.4477 711.4273,-39.7945 737.0101,-32.9192"/>
<polygon fill="#191970" stroke="#191970" points="738.0652,-36.2599 746.8141,-30.2843 736.2483,-29.4998 738.0652,-36.2599"/>
</g>
<!-- Node20 -->
<g id="node21" class="node">
<title>Node20</title>
<g id="a_node21"><a xlink:href="classargo_1_1data__distribution_1_1global__ptr_ac7d651586337d08cda18ef26ffcd34a0.html#ac7d651586337d08cda18ef26ffcd34a0" target="_top" target="_top" xlink:title="return the home node of the value pointed to ">
<polygon fill="#ffffff" stroke="#000000" points="876,-49.5 876,-79.5 1003,-79.5 1003,-49.5 876,-49.5"/>
<text text-anchor="start" x="884" y="-67.5" font-family="Helvetica,sans-Serif" font-size="10.00" fill="#000000">argo::data_distribution</text>
<text text-anchor="middle" x="939.5" y="-56.5" font-family="Helvetica,sans-Serif" font-size="10.00" fill="#000000">::global_ptr::node</text>
</a>
</g>
</g>
<!-- Node19&#45;&gt;Node20 -->
<g id="edge22" class="edge">
<title>Node19&#45;&gt;Node20</title>
<path fill="none" stroke="#191970" d="M824.0689,-64.5C836.9412,-64.5 851.3472,-64.5 865.5013,-64.5"/>
<polygon fill="#191970" stroke="#191970" points="865.7376,-68.0001 875.7375,-64.5 865.7375,-61.0001 865.7376,-68.0001"/>
</g>
<!-- Node22 -->
<g id="node23" class="node">
<title>Node22</title>
<g id="a_node23"><a xlink:href="classargo_1_1data__distribution_1_1global__ptr_ad8c21c408fa2b926cfd9acfd87e8e4e6.html#ad8c21c408fa2b926cfd9acfd87e8e4e6" target="_top" target="_top" xlink:title="return the offset on the home node&#39;s local memory share ">
<polygon fill="#ffffff" stroke="#000000" points="876,-.5 876,-30.5 1003,-30.5 1003,-.5 876,-.5"/>
<text text-anchor="start" x="884" y="-18.5" font-family="Helvetica,sans-Serif" font-size="10.00" fill="#000000">argo::data_distribution</text>
<text text-anchor="middle" x="939.5" y="-7.5" font-family="Helvetica,sans-Serif" font-size="10.00" fill="#000000">::global_ptr::offset</text>
</a>
</g>
</g>
<!-- Node21&#45;&gt;Node22 -->
<g id="edge24" class="edge">
<title>Node21&#45;&gt;Node22</title>
<path fill="none" stroke="#191970" d="M812.2645,-20.2713C827.764,-19.6901 846.9491,-18.9707 865.6797,-18.2683"/>
<polygon fill="#191970" stroke="#191970" points="865.8488,-21.7645 875.7106,-17.8921 865.5864,-14.7694 865.8488,-21.7645"/>
</g>
</g>
</svg>
        <g id="navigator" transform="translate(0 0)" fill="#404254">
                <rect fill="#f2f5e9" fill-opacity="0.5" stroke="#606060" stroke-width=".5" x="0" y="0" width="60" height="60"/>
                <use id="zoomplus" xlink:href="#zoomPlus" target="_top" x="17" y="9" onmousedown="handleZoom(evt,'in')"/>
                <use id="zoomminus" xlink:href="#zoomMin" target="_top" x="42" y="9" onmousedown="handleZoom(evt,'out')"/>
                <use id="reset" xlink:href="#resetDef" target="_top" x="30" y="36" onmousedown="handleReset()"/>
                <g id="arrowUp" xlink:href="#dirArrow" target="_top" transform="translate(30 24)" onmousedown="handlePan(0,-1)">
                  <use xlink:href="#rim" target="_top" fill="#404040">
                        <set attributeName="fill" to="#808080" begin="arrowUp.mouseover" end="arrowUp.mouseout"/>
                  </use>
                  <path fill="none" stroke="white" stroke-width="1.5" d="M0,-3.0v7 M-2.5,-0.5L0,-3.0L2.5,-0.5"/>
                </g>
                <g id="arrowRight" xlink:href="#dirArrow" target="_top" transform="rotate(90) translate(36 -43)" onmousedown="handlePan(1,0)">
                  <use xlink:href="#rim" target="_top" fill="#404040">
                        <set attributeName="fill" to="#808080" begin="arrowRight.mouseover" end="arrowRight.mouseout"/>
                  </use>
                  <path fill="none" stroke="white" stroke-width="1.5" d="M0,-3.0v7 M-2.5,-0.5L0,-3.0L2.5,-0.5"/>
                </g>
                <g id="arrowDown" xlink:href="#dirArrow" target="_top" transform="rotate(180) translate(-30 -48)" onmousedown="handlePan(0,1)">
                  <use xlink:href="#rim" target="_top" fill="#404040">
                        <set attributeName="fill" to="#808080" begin="arrowDown.mouseover" end="arrowDown.mouseout"/>
                  </use>
                  <path fill="none" stroke="white" stroke-width="1.5" d="M0,-3.0v7 M-2.5,-0.5L0,-3.0L2.5,-0.5"/>
                </g>
                <g id="arrowLeft" xlink:href="#dirArrow" target="_top" transform="rotate(270) translate(-36 17)" onmousedown="handlePan(-1,0)">
                  <use xlink:href="#rim" target="_top" fill="#404040">
                        <set attributeName="fill" to="#808080" begin="arrowLeft.mouseover" end="arrowLeft.mouseout"/>
                  </use>
                  <path fill="none" stroke="white" stroke-width="1.5" d="M0,-3.0v7 M-2.5,-0.5L0,-3.0L2.5,-0.5"/>
                </g>
        </g>
        <svg viewBox="0 0 15 15" width="100%" height="30px" preserveAspectRatio="xMaxYMin meet">
         <g id="arrow_out" transform="scale(0.3 0.3)">
          <a xlink:href="backend_8hpp_a1032f833666c3f810ac1c6210197d426_a1032f833666c3f810ac1c6210197d426_cgraph_org.svg" target="_top" target="_base">
           <rect id="button" ry="5" rx="5" y="6" x="6" height="38" width="38"
                fill="#f2f5e9" fill-opacity="0.5" stroke="#606060" stroke-width="1.0"/>
           <path id="arrow"
             d="M 11.500037,31.436501 C 11.940474,20.09759 22.043105,11.32322 32.158766,21.979434 L 37.068811,17.246167 C 37.068811,17.246167 37.088388,32 37.088388,32 L 22.160133,31.978069 C 22.160133,31.978069 26.997745,27.140456 26.997745,27.140456 C 18.528582,18.264221 13.291696,25.230495 11.500037,31.436501 z"
             style="fill:#404040;"/>
          </a>
         </g>
        </svg>
</svg>
