<?xml version="1.0" encoding="UTF-8" standalone="no"?>
<!DOCTYPE svg PUBLIC "-//W3C//DTD SVG 1.1//EN"
 "http://www.w3.org/Graphics/SVG/1.1/DTD/svg11.dtd">
<!-- Generated by graphviz version 2.40.1 (20161225.0304)
 -->
<!-- Title: argo::backend::atomic::_store_public_owners_dir Pages: 1 -->
<svg width="277pt" height="57pt"
 viewBox="0.00 0.00 277.00 57.00" xmlns="http://www.w3.org/2000/svg" xmlns:xlink="http://www.w3.org/1999/xlink">
<g id="graph0" class="graph" transform="scale(1 1) rotate(0) translate(4 53)">
<title>argo::backend::atomic::_store_public_owners_dir</title>
<polygon fill="#ffffff" stroke="transparent" points="-4,4 -4,-53 273,-53 273,4 -4,4"/>
<!-- Node0 -->
<g id="node1" class="node">
<title>Node0</title>
<polygon fill="#bfbfbf" stroke="#000000" points="0,-.5 0,-30.5 146,-30.5 146,-.5 0,-.5"/>
<text text-anchor="start" x="8" y="-18.5" font-family="Helvetica,sans-Serif" font-size="10.00" fill="#000000">argo::backend::atomic</text>
<text text-anchor="middle" x="73" y="-7.5" font-family="Helvetica,sans-Serif" font-size="10.00" fill="#000000">::_store_public_owners_dir</text>
</g>
<!-- Node0&#45;&gt;Node0 -->
<g id="edge1" class="edge">
<title>Node0&#45;&gt;Node0</title>
<path fill="none" stroke="#191970" d="M46.5109,-30.659C40.1234,-40.0566 48.9531,-49 73,-49 87.6536,-49 96.6564,-45.679 100.0086,-40.9579"/>
<polygon fill="#191970" stroke="#191970" points="103.4885,-40.47 99.4891,-30.659 96.4974,-40.8226 103.4885,-40.47"/>
</g>
<!-- Node1 -->
<g id="node2" class="node">
<title>Node1</title>
<g id="a_node2"><a xlink:href="mpi_8cpp_a42bc863264a399b805b95e0fc53a9fed.html#a42bc863264a399b805b95e0fc53a9fed" target="_top" xlink:title="Returns an MPI integer type that exactly matches in size the argument given. ">
<polygon fill="#ffffff" stroke="#000000" points="182,-6 182,-25 269,-25 269,-6 182,-6"/>
<text text-anchor="middle" x="225.5" y="-13" font-family="Helvetica,sans-Serif" font-size="10.00" fill="#000000">fitting_mpi_int</text>
</a>
</g>
</g>
<!-- Node0&#45;&gt;Node1 -->
<g id="edge2" class="edge">
<title>Node0&#45;&gt;Node1</title>
<path fill="none" stroke="#191970" d="M146.1233,-15.5C154.723,-15.5 163.3759,-15.5 171.6433,-15.5"/>
<polygon fill="#191970" stroke="#191970" points="171.8762,-19.0001 181.8762,-15.5 171.8761,-12.0001 171.8762,-19.0001"/>
</g>
</g>
</svg>
