<?xml version="1.0" encoding="UTF-8" standalone="no"?>
<!DOCTYPE svg PUBLIC "-//W3C//DTD SVG 1.1//EN"
 "http://www.w3.org/Graphics/SVG/1.1/DTD/svg11.dtd">
<!-- Generated by graphviz version 2.40.1 (20161225.0304)
 -->
<!-- Title: TEST_F Pages: 1 -->
<svg width="581pt" height="184pt"
 viewBox="0.00 0.00 581.00 183.50" xmlns="http://www.w3.org/2000/svg" xmlns:xlink="http://www.w3.org/1999/xlink">
<g id="graph0" class="graph" transform="scale(1 1) rotate(0) translate(4 179.5)">
<title>TEST_F</title>
<polygon fill="#ffffff" stroke="transparent" points="-4,4 -4,-179.5 577,-179.5 577,4 -4,4"/>
<!-- Node0 -->
<g id="node1" class="node">
<title>Node0</title>
<polygon fill="#bfbfbf" stroke="#000000" points="0,-99 0,-118 51,-118 51,-99 0,-99"/>
<text text-anchor="middle" x="25.5" y="-106" font-family="Helvetica,sans-Serif" font-size="10.00" fill="#000000">TEST_F</text>
</g>
<!-- Node1 -->
<g id="node2" class="node">
<title>Node1</title>
<g id="a_node2"><a xlink:href="namespaceargo_a79c9492f3fd441bfa6261dffbc0f02f4.html#a79c9492f3fd441bfa6261dffbc0f02f4" target="_top" xlink:title="Number of ArgoDSM nodes being run. ">
<polygon fill="#ffffff" stroke="#000000" points="87,-156 87,-175 218,-175 218,-156 87,-156"/>
<text text-anchor="middle" x="152.5" y="-163" font-family="Helvetica,sans-Serif" font-size="10.00" fill="#000000">argo::number_of_nodes</text>
</a>
</g>
</g>
<!-- Node0&#45;&gt;Node1 -->
<g id="edge1" class="edge">
<title>Node0&#45;&gt;Node1</title>
<path fill="none" stroke="#191970" d="M41.8864,-118.1125C54.0969,-125.0721 71.3022,-134.4549 87,-141.5 95.6822,-145.3965 105.2056,-149.1622 114.2358,-152.5102"/>
<polygon fill="#191970" stroke="#191970" points="113.1836,-155.8516 123.7778,-155.9657 115.5671,-149.2698 113.1836,-155.8516"/>
</g>
<!-- Node2 -->
<g id="node3" class="node">
<title>Node2</title>
<g id="a_node3"><a xlink:href="namespaceargo_a2deaaacde085d381cbb01f24318965b4.html#a2deaaacde085d381cbb01f24318965b4" target="_top" xlink:title="A unique ArgoDSM node identifier. Counting starts from 0. ">
<polygon fill="#ffffff" stroke="#000000" points="287,-110 287,-129 370,-129 370,-110 287,-110"/>
<text text-anchor="middle" x="328.5" y="-117" font-family="Helvetica,sans-Serif" font-size="10.00" fill="#000000">argo::node_id</text>
</a>
</g>
</g>
<!-- Node0&#45;&gt;Node2 -->
<g id="edge2" class="edge">
<title>Node0&#45;&gt;Node2</title>
<path fill="none" stroke="#191970" d="M51.0725,-109.4284C100.775,-111.2328 211.2749,-115.2443 276.8303,-117.6242"/>
<polygon fill="#191970" stroke="#191970" points="276.829,-121.1264 286.9494,-117.9916 277.083,-114.131 276.829,-121.1264"/>
</g>
<!-- Node3 -->
<g id="node4" class="node">
<title>Node3</title>
<g id="a_node4"><a xlink:href="namespaceargo_a10bae1e1e60ff583384b937201a87c29.html#a10bae1e1e60ff583384b937201a87c29" target="_top" xlink:title="a barrier for threads ">
<polygon fill="#ffffff" stroke="#000000" points="114,-80 114,-99 191,-99 191,-80 114,-80"/>
<text text-anchor="middle" x="152.5" y="-87" font-family="Helvetica,sans-Serif" font-size="10.00" fill="#000000">argo::barrier</text>
</a>
</g>
</g>
<!-- Node0&#45;&gt;Node3 -->
<g id="edge3" class="edge">
<title>Node0&#45;&gt;Node3</title>
<path fill="none" stroke="#191970" d="M51.2003,-104.6551C66.2966,-102.3966 85.8742,-99.4676 103.7889,-96.7875"/>
<polygon fill="#191970" stroke="#191970" points="104.4417,-100.2289 113.8138,-95.2877 103.4059,-93.3059 104.4417,-100.2289"/>
</g>
<!-- Node4 -->
<g id="node5" class="node">
<title>Node4</title>
<g id="a_node5"><a xlink:href="namespaceargo_aa7e8ddf5784dd37c965cfd43cd65a330.html#aa7e8ddf5784dd37c965cfd43cd65a330" target="_top" xlink:title="Delete a globally collectively allocated array of objects. ">
<polygon fill="#ffffff" stroke="#000000" points="94,-42 94,-61 211,-61 211,-42 94,-42"/>
<text text-anchor="middle" x="152.5" y="-49" font-family="Helvetica,sans-Serif" font-size="10.00" fill="#000000">argo::codelete_array</text>
</a>
</g>
</g>
<!-- Node0&#45;&gt;Node4 -->
<g id="edge4" class="edge">
<title>Node0&#45;&gt;Node4</title>
<path fill="none" stroke="#191970" d="M38.5966,-98.9453C50.6678,-90.5022 69.335,-78.3442 87,-70.5 92.1401,-68.2175 97.6278,-66.1279 103.1571,-64.2382"/>
<polygon fill="#191970" stroke="#191970" points="104.6347,-67.44 113.0887,-61.0541 102.4975,-60.7742 104.6347,-67.44"/>
</g>
<!-- Node4&#45;&gt;Node2 -->
<g id="edge5" class="edge">
<title>Node4&#45;&gt;Node2</title>
<path fill="none" stroke="#191970" d="M188.8184,-61.0888C198.3928,-63.8734 208.6567,-67.0909 218,-70.5 246.3355,-80.8386 277.6854,-95.014 299.7328,-105.4589"/>
<polygon fill="#191970" stroke="#191970" points="298.3379,-108.6714 308.8696,-109.8262 301.3567,-102.3558 298.3379,-108.6714"/>
</g>
<!-- Node5 -->
<g id="node6" class="node">
<title>Node5</title>
<g id="a_node6"><a xlink:href="classargo_1_1allocators_1_1generic__allocator_a6a7fe288a35b74a248c341d6f67c800c.html#a6a7fe288a35b74a248c341d6f67c800c" target="_top" xlink:title="How much space has been allocated for the given chunk. ">
<polygon fill="#ffffff" stroke="#000000" points="254,-44.5 254,-74.5 403,-74.5 403,-44.5 254,-44.5"/>
<text text-anchor="start" x="262" y="-62.5" font-family="Helvetica,sans-Serif" font-size="10.00" fill="#000000">argo::allocators::generic</text>
<text text-anchor="middle" x="328.5" y="-51.5" font-family="Helvetica,sans-Serif" font-size="10.00" fill="#000000">_allocator::allocated_space</text>
</a>
</g>
</g>
<!-- Node4&#45;&gt;Node5 -->
<g id="edge6" class="edge">
<title>Node4&#45;&gt;Node5</title>
<path fill="none" stroke="#191970" d="M211.1055,-54.1639C221.5942,-54.6406 232.7124,-55.146 243.7619,-55.6483"/>
<polygon fill="#191970" stroke="#191970" points="243.7215,-59.15 253.8701,-56.1077 244.0394,-52.1572 243.7215,-59.15"/>
</g>
<!-- Node6 -->
<g id="node7" class="node">
<title>Node6</title>
<g id="a_node7"><a xlink:href="src_2allocators_2allocators_8cpp_a215edf4fe9276398650302b518c52baf.html#a215edf4fe9276398650302b518c52baf" target="_top" xlink:title="basic free function for collective allocations, for C interface ">
<polygon fill="#ffffff" stroke="#000000" points="284,-6 284,-25 373,-25 373,-6 284,-6"/>
<text text-anchor="middle" x="328.5" y="-13" font-family="Helvetica,sans-Serif" font-size="10.00" fill="#000000">collective_free</text>
</a>
</g>
</g>
<!-- Node4&#45;&gt;Node6 -->
<g id="edge7" class="edge">
<title>Node4&#45;&gt;Node6</title>
<path fill="none" stroke="#191970" d="M199.2027,-41.9472C222.1034,-37.2629 249.8298,-31.5916 273.7252,-26.7039"/>
<polygon fill="#191970" stroke="#191970" points="274.6106,-30.0954 283.7063,-24.6623 273.2077,-23.2374 274.6106,-30.0954"/>
</g>
<!-- Node7 -->
<g id="node8" class="node">
<title>Node7</title>
<g id="a_node8"><a xlink:href="classargo_1_1allocators_1_1generic__allocator_ab98a25e383864eecd7d602f95c49c420.html#ab98a25e383864eecd7d602f95c49c420" target="_top" xlink:title="free an allocated pointer ">
<polygon fill="#ffffff" stroke="#000000" points="439,-.5 439,-30.5 573,-30.5 573,-.5 439,-.5"/>
<text text-anchor="start" x="447" y="-18.5" font-family="Helvetica,sans-Serif" font-size="10.00" fill="#000000">argo::allocators::generic</text>
<text text-anchor="middle" x="506" y="-7.5" font-family="Helvetica,sans-Serif" font-size="10.00" fill="#000000">_allocator::free</text>
</a>
</g>
</g>
<!-- Node6&#45;&gt;Node7 -->
<g id="edge8" class="edge">
<title>Node6&#45;&gt;Node7</title>
<path fill="none" stroke="#191970" d="M373.2907,-15.5C390.0924,-15.5 409.7061,-15.5 428.6195,-15.5"/>
<polygon fill="#191970" stroke="#191970" points="428.7288,-19.0001 438.7288,-15.5 428.7288,-12.0001 428.7288,-19.0001"/>
</g>
</g>
</svg>
