<?xml version="1.0" encoding="UTF-8" standalone="no"?>
<!DOCTYPE svg PUBLIC "-//W3C//DTD SVG 1.1//EN"
 "http://www.w3.org/Graphics/SVG/1.1/DTD/svg11.dtd">
<!-- Generated by graphviz version 2.40.1 (20161225.0304)
 -->
<!-- Title: argo::backend::atomic::_store Pages: 1 -->
<svg width="300pt" height="204pt"
 viewBox="0.00 0.00 300.00 204.00" xmlns="http://www.w3.org/2000/svg" xmlns:xlink="http://www.w3.org/1999/xlink">
<g id="graph0" class="graph" transform="scale(1 1) rotate(0) translate(4 200)">
<title>argo::backend::atomic::_store</title>
<polygon fill="#ffffff" stroke="transparent" points="-4,4 -4,-200 296,-200 296,4 -4,4"/>
<!-- Node0 -->
<g id="node1" class="node">
<title>Node0</title>
<polygon fill="#bfbfbf" stroke="#000000" points="0,-83 0,-113 125,-113 125,-83 0,-83"/>
<text text-anchor="start" x="8" y="-101" font-family="Helvetica,sans-Serif" font-size="10.00" fill="#000000">argo::backend::atomic</text>
<text text-anchor="middle" x="62.5" y="-90" font-family="Helvetica,sans-Serif" font-size="10.00" fill="#000000">::_store</text>
</g>
<!-- Node0&#45;&gt;Node0 -->
<g id="edge1" class="edge">
<title>Node0&#45;&gt;Node0</title>
<path fill="none" stroke="#191970" d="M33.9196,-113.159C27.0279,-122.5566 36.5547,-131.5 62.5,-131.5 78.3104,-131.5 88.024,-128.179 91.6408,-123.4579"/>
<polygon fill="#191970" stroke="#191970" points="95.1187,-122.954 91.0804,-113.159 88.129,-123.3344 95.1187,-122.954"/>
</g>
<!-- Node1 -->
<g id="node2" class="node">
<title>Node1</title>
<g id="a_node2"><a xlink:href="mpi_8cpp_a42bc863264a399b805b95e0fc53a9fed.html#a42bc863264a399b805b95e0fc53a9fed" target="_top" target="_top" xlink:title="Returns an MPI integer type that exactly matches in size the argument given. ">
<polygon fill="#ffffff" stroke="#000000" points="183,-176.5 183,-195.5 270,-195.5 270,-176.5 183,-176.5"/>
<text text-anchor="middle" x="226.5" y="-183.5" font-family="Helvetica,sans-Serif" font-size="10.00" fill="#000000">fitting_mpi_int</text>
</a>
</g>
</g>
<!-- Node0&#45;&gt;Node1 -->
<g id="edge2" class="edge">
<title>Node0&#45;&gt;Node1</title>
<path fill="none" stroke="#191970" d="M80.2497,-113.1671C99.1533,-128.6384 130.4948,-152.3884 161,-167 165.8721,-169.3337 171.088,-171.439 176.3705,-173.3233"/>
<polygon fill="#191970" stroke="#191970" points="175.2976,-176.6549 185.8909,-176.4778 177.4993,-170.0101 175.2976,-176.6549"/>
</g>
<!-- Node2 -->
<g id="node3" class="node">
<title>Node2</title>
<g id="a_node3"><a xlink:href="classargo_1_1data__distribution_1_1global__ptr_ac7d651586337d08cda18ef26ffcd34a0.html#ac7d651586337d08cda18ef26ffcd34a0" target="_top" target="_top" xlink:title="return the home node of the value pointed to ">
<polygon fill="#ffffff" stroke="#000000" points="163,-127 163,-157 290,-157 290,-127 163,-127"/>
<text text-anchor="start" x="171" y="-145" font-family="Helvetica,sans-Serif" font-size="10.00" fill="#000000">argo::data_distribution</text>
<text text-anchor="middle" x="226.5" y="-134" font-family="Helvetica,sans-Serif" font-size="10.00" fill="#000000">::global_ptr::node</text>
</a>
</g>
</g>
<!-- Node0&#45;&gt;Node2 -->
<g id="edge3" class="edge">
<title>Node0&#45;&gt;Node2</title>
<path fill="none" stroke="#191970" d="M118.4808,-113.0192C131.9958,-116.6452 146.5629,-120.5534 160.4897,-124.2899"/>
<polygon fill="#191970" stroke="#191970" points="159.9278,-127.7629 170.4932,-126.9738 161.7418,-121.002 159.9278,-127.7629"/>
</g>
<!-- Node3 -->
<g id="node4" class="node">
<title>Node3</title>
<g id="a_node4"><a xlink:href="namespaceargo_a2b6b342c320b2a608d317a328fc46d83.html#a2b6b342c320b2a608d317a328fc46d83" target="_top" target="_top" xlink:title="Size of memory which is the portion of memory owned by this node. ">
<polygon fill="#ffffff" stroke="#000000" points="177.5,-88.5 177.5,-107.5 275.5,-107.5 275.5,-88.5 177.5,-88.5"/>
<text text-anchor="middle" x="226.5" y="-95.5" font-family="Helvetica,sans-Serif" font-size="10.00" fill="#000000">argo::chunk_size</text>
</a>
</g>
</g>
<!-- Node0&#45;&gt;Node3 -->
<g id="edge4" class="edge">
<title>Node0&#45;&gt;Node3</title>
<path fill="none" stroke="#191970" d="M125.4377,-98C139.1861,-98 153.6915,-98 167.2887,-98"/>
<polygon fill="#191970" stroke="#191970" points="167.4821,-101.5001 177.482,-98 167.482,-94.5001 167.4821,-101.5001"/>
</g>
<!-- Node4 -->
<g id="node5" class="node">
<title>Node4</title>
<g id="a_node5"><a xlink:href="classargo_1_1data__distribution_1_1global__ptr_ad8c21c408fa2b926cfd9acfd87e8e4e6.html#ad8c21c408fa2b926cfd9acfd87e8e4e6" target="_top" target="_top" xlink:title="return the offset on the home node&#39;s local memory share ">
<polygon fill="#ffffff" stroke="#000000" points="163,-39 163,-69 290,-69 290,-39 163,-39"/>
<text text-anchor="start" x="171" y="-57" font-family="Helvetica,sans-Serif" font-size="10.00" fill="#000000">argo::data_distribution</text>
<text text-anchor="middle" x="226.5" y="-46" font-family="Helvetica,sans-Serif" font-size="10.00" fill="#000000">::global_ptr::offset</text>
</a>
</g>
</g>
<!-- Node0&#45;&gt;Node4 -->
<g id="edge5" class="edge">
<title>Node0&#45;&gt;Node4</title>
<path fill="none" stroke="#191970" d="M118.4808,-82.9808C131.9958,-79.3548 146.5629,-75.4466 160.4897,-71.7101"/>
<polygon fill="#191970" stroke="#191970" points="161.7418,-74.998 170.4932,-69.0262 159.9278,-68.2371 161.7418,-74.998"/>
</g>
<!-- Node5 -->
<g id="node6" class="node">
<title>Node5</title>
<g id="a_node6"><a xlink:href="namespaceargo_a79c9492f3fd441bfa6261dffbc0f02f4.html#a79c9492f3fd441bfa6261dffbc0f02f4" target="_top" target="_top" xlink:title="Number of ArgoDSM nodes being run. ">
<polygon fill="#ffffff" stroke="#000000" points="161,-.5 161,-19.5 292,-19.5 292,-.5 161,-.5"/>
<text text-anchor="middle" x="226.5" y="-7.5" font-family="Helvetica,sans-Serif" font-size="10.00" fill="#000000">argo::number_of_nodes</text>
</a>
</g>
</g>
<!-- Node0&#45;&gt;Node5 -->
<g id="edge6" class="edge">
<title>Node0&#45;&gt;Node5</title>
<path fill="none" stroke="#191970" d="M80.6822,-82.8726C99.6856,-67.7024 130.8791,-44.5607 161,-30 166.4176,-27.3811 172.253,-25.016 178.1294,-22.9068"/>
<polygon fill="#191970" stroke="#191970" points="179.6232,-26.0974 187.9909,-19.5989 177.397,-19.4608 179.6232,-26.0974"/>
</g>
</g>
</svg>
