<?xml version="1.0" encoding="UTF-8" standalone="no"?>
<!DOCTYPE svg PUBLIC "-//W3C//DTD SVG 1.1//EN"
 "http://www.w3.org/Graphics/SVG/1.1/DTD/svg11.dtd">
<!-- Generated by graphviz version 2.40.1 (20161225.0304)
 -->
<!-- Title: argo::backend::atomic::_fetch_add_int Pages: 1 -->
<svg width="457pt" height="120pt"
 viewBox="0.00 0.00 457.00 119.50" xmlns="http://www.w3.org/2000/svg" xmlns:xlink="http://www.w3.org/1999/xlink">
<g id="graph0" class="graph" transform="scale(1 1) rotate(0) translate(4 115.5)">
<title>argo::backend::atomic::_fetch_add_int</title>
<polygon fill="#ffffff" stroke="transparent" points="-4,4 -4,-115.5 453,-115.5 453,4 -4,4"/>
<!-- Node0 -->
<g id="node1" class="node">
<title>Node0</title>
<polygon fill="#bfbfbf" stroke="#000000" points="0,-55.5 0,-85.5 125,-85.5 125,-55.5 0,-55.5"/>
<text text-anchor="start" x="8" y="-73.5" font-family="Helvetica,sans-Serif" font-size="10.00" fill="#000000">argo::backend::atomic</text>
<text text-anchor="middle" x="62.5" y="-62.5" font-family="Helvetica,sans-Serif" font-size="10.00" fill="#000000">::_fetch_add_int</text>
</g>
<!-- Node0&#45;&gt;Node0 -->
<g id="edge1" class="edge">
<title>Node0&#45;&gt;Node0</title>
<path fill="none" stroke="#191970" d="M34.6167,-85.659C27.8931,-95.0566 37.1875,-104 62.5,-104 77.9248,-104 87.4015,-100.679 90.9301,-95.9579"/>
<polygon fill="#191970" stroke="#191970" points="94.4086,-95.4594 90.3833,-85.659 87.4185,-95.8305 94.4086,-95.4594"/>
</g>
<!-- Node1 -->
<g id="node2" class="node">
<title>Node1</title>
<g id="a_node2"><a xlink:href="mpi_8cpp_a42bc863264a399b805b95e0fc53a9fed.html#a42bc863264a399b805b95e0fc53a9fed" target="_top" xlink:title="Returns an MPI integer type that exactly matches in size the argument given. ">
<polygon fill="#ffffff" stroke="#000000" points="180,-92 180,-111 267,-111 267,-92 180,-92"/>
<text text-anchor="middle" x="223.5" y="-99" font-family="Helvetica,sans-Serif" font-size="10.00" fill="#000000">fitting_mpi_int</text>
</a>
</g>
</g>
<!-- Node0&#45;&gt;Node1 -->
<g id="edge2" class="edge">
<title>Node0&#45;&gt;Node1</title>
<path fill="none" stroke="#191970" d="M125.2078,-82.5742C139.8438,-85.3923 155.3058,-88.3694 169.5247,-91.1072"/>
<polygon fill="#191970" stroke="#191970" points="169.1476,-94.5988 179.629,-93.0528 170.4712,-87.7251 169.1476,-94.5988"/>
</g>
<!-- Node2 -->
<g id="node3" class="node">
<title>Node2</title>
<g id="a_node3"><a xlink:href="mpi_8cpp_a9b1ef8bbaaf93b03603c2ab0ff3b6133.html#a9b1ef8bbaaf93b03603c2ab0ff3b6133" target="_top" xlink:title="Atomic fetch&amp;add for the MPI backend (for internal usage) ">
<polygon fill="#ffffff" stroke="#000000" points="161,-24.5 161,-54.5 286,-54.5 286,-24.5 161,-24.5"/>
<text text-anchor="start" x="169" y="-42.5" font-family="Helvetica,sans-Serif" font-size="10.00" fill="#000000">argo::backend::atomic</text>
<text text-anchor="middle" x="223.5" y="-31.5" font-family="Helvetica,sans-Serif" font-size="10.00" fill="#000000">::_fetch_add</text>
</a>
</g>
</g>
<!-- Node0&#45;&gt;Node2 -->
<g id="edge3" class="edge">
<title>Node0&#45;&gt;Node2</title>
<path fill="none" stroke="#191970" d="M125.2078,-58.4258C133.6481,-56.8007 142.3631,-55.1226 150.9559,-53.4681"/>
<polygon fill="#191970" stroke="#191970" points="151.8055,-56.8689 160.9633,-51.5412 150.4819,-49.9952 151.8055,-56.8689"/>
</g>
<!-- Node2&#45;&gt;Node2 -->
<g id="edge4" class="edge">
<title>Node2&#45;&gt;Node2</title>
<path fill="none" stroke="#191970" d="M195.6167,-54.659C188.8931,-64.0566 198.1875,-73 223.5,-73 238.9248,-73 248.4015,-69.679 251.9301,-64.9579"/>
<polygon fill="#191970" stroke="#191970" points="255.4086,-64.4594 251.3833,-54.659 248.4185,-64.8305 255.4086,-64.4594"/>
</g>
<!-- Node3 -->
<g id="node4" class="node">
<title>Node3</title>
<g id="a_node4"><a xlink:href="classargo_1_1data__distribution_1_1global__ptr_ac7d651586337d08cda18ef26ffcd34a0.html#ac7d651586337d08cda18ef26ffcd34a0" target="_top" xlink:title="return the home node of the value pointed to ">
<polygon fill="#ffffff" stroke="#000000" points="322,-49.5 322,-79.5 449,-79.5 449,-49.5 322,-49.5"/>
<text text-anchor="start" x="330" y="-67.5" font-family="Helvetica,sans-Serif" font-size="10.00" fill="#000000">argo::data_distribution</text>
<text text-anchor="middle" x="385.5" y="-56.5" font-family="Helvetica,sans-Serif" font-size="10.00" fill="#000000">::global_ptr::node</text>
</a>
</g>
</g>
<!-- Node2&#45;&gt;Node3 -->
<g id="edge5" class="edge">
<title>Node2&#45;&gt;Node3</title>
<path fill="none" stroke="#191970" d="M286.1334,-49.1657C294.5808,-50.4693 303.3095,-51.8163 311.9251,-53.1459"/>
<polygon fill="#191970" stroke="#191970" points="311.5468,-56.6288 321.9637,-54.695 312.6145,-49.7107 311.5468,-56.6288"/>
</g>
<!-- Node4 -->
<g id="node5" class="node">
<title>Node4</title>
<g id="a_node5"><a xlink:href="classargo_1_1data__distribution_1_1global__ptr_ad8c21c408fa2b926cfd9acfd87e8e4e6.html#ad8c21c408fa2b926cfd9acfd87e8e4e6" target="_top" xlink:title="return the offset on the home node&#39;s local memory share ">
<polygon fill="#ffffff" stroke="#000000" points="322,-.5 322,-30.5 449,-30.5 449,-.5 322,-.5"/>
<text text-anchor="start" x="330" y="-18.5" font-family="Helvetica,sans-Serif" font-size="10.00" fill="#000000">argo::data_distribution</text>
<text text-anchor="middle" x="385.5" y="-7.5" font-family="Helvetica,sans-Serif" font-size="10.00" fill="#000000">::global_ptr::offset</text>
</a>
</g>
</g>
<!-- Node2&#45;&gt;Node4 -->
<g id="edge6" class="edge">
<title>Node2&#45;&gt;Node4</title>
<path fill="none" stroke="#191970" d="M286.1334,-30.221C294.5808,-28.9695 303.3095,-27.6764 311.9251,-26.4"/>
<polygon fill="#191970" stroke="#191970" points="312.5846,-29.8406 321.9637,-24.9128 311.5587,-22.9161 312.5846,-29.8406"/>
</g>
</g>
</svg>
