<?xml version="1.0" encoding="UTF-8" standalone="no"?>
<!DOCTYPE svg PUBLIC "-//W3C//DTD SVG 1.1//EN"
 "http://www.w3.org/Graphics/SVG/1.1/DTD/svg11.dtd">
<!-- Generated by graphviz version 2.40.1 (20161225.0304)
 -->
<!-- Title: argo::backend::atomic::_compare_exchange_offsets_tbl Pages: 1 -->
<svg width="310pt" height="57pt"
 viewBox="0.00 0.00 310.00 57.00" xmlns="http://www.w3.org/2000/svg" xmlns:xlink="http://www.w3.org/1999/xlink">
<g id="graph0" class="graph" transform="scale(1 1) rotate(0) translate(4 53)">
<title>argo::backend::atomic::_compare_exchange_offsets_tbl</title>
<polygon fill="#ffffff" stroke="transparent" points="-4,4 -4,-53 306,-53 306,4 -4,4"/>
<!-- Node0 -->
<g id="node1" class="node">
<title>Node0</title>
<polygon fill="#bfbfbf" stroke="#000000" points="0,-.5 0,-30.5 179,-30.5 179,-.5 0,-.5"/>
<text text-anchor="start" x="8" y="-18.5" font-family="Helvetica,sans-Serif" font-size="10.00" fill="#000000">argo::backend::atomic</text>
<text text-anchor="middle" x="89.5" y="-7.5" font-family="Helvetica,sans-Serif" font-size="10.00" fill="#000000">::_compare_exchange_offsets_tbl</text>
</g>
<!-- Node0&#45;&gt;Node0 -->
<g id="edge1" class="edge">
<title>Node0&#45;&gt;Node0</title>
<path fill="none" stroke="#191970" d="M60.2225,-30.659C53.1627,-40.0566 62.9219,-49 89.5,-49 105.696,-49 115.6466,-45.679 119.3516,-40.9579"/>
<polygon fill="#191970" stroke="#191970" points="122.8287,-40.4487 118.7775,-30.659 115.8396,-40.8383 122.8287,-40.4487"/>
</g>
<!-- Node1 -->
<g id="node2" class="node">
<title>Node1</title>
<g id="a_node2"><a xlink:href="mpi_8cpp_a42bc863264a399b805b95e0fc53a9fed.html#a42bc863264a399b805b95e0fc53a9fed" target="_top" xlink:title="Returns an MPI integer type that exactly matches in size the argument given. ">
<polygon fill="#ffffff" stroke="#000000" points="215,-6 215,-25 302,-25 302,-6 215,-6"/>
<text text-anchor="middle" x="258.5" y="-13" font-family="Helvetica,sans-Serif" font-size="10.00" fill="#000000">fitting_mpi_int</text>
</a>
</g>
</g>
<!-- Node0&#45;&gt;Node1 -->
<g id="edge2" class="edge">
<title>Node0&#45;&gt;Node1</title>
<path fill="none" stroke="#191970" d="M179.4429,-15.5C188.0894,-15.5 196.6595,-15.5 204.7892,-15.5"/>
<polygon fill="#191970" stroke="#191970" points="204.8238,-19.0001 214.8238,-15.5 204.8238,-12.0001 204.8238,-19.0001"/>
</g>
</g>
</svg>
