<?xml version="1.0" encoding="UTF-8" standalone="no"?>
<!DOCTYPE svg PUBLIC "-//W3C//DTD SVG 1.1//EN"
 "http://www.w3.org/Graphics/SVG/1.1/DTD/svg11.dtd">
<!-- Generated by graphviz version 2.40.1 (20161225.0304)
 -->
<!-- Title: TEST_F Pages: 1 -->
<svg width="581pt" height="152pt"
 viewBox="0.00 0.00 581.00 152.43" xmlns="http://www.w3.org/2000/svg" xmlns:xlink="http://www.w3.org/1999/xlink">
<g id="graph0" class="graph" transform="scale(1 1) rotate(0) translate(4 148.4315)">
<title>TEST_F</title>
<polygon fill="#ffffff" stroke="transparent" points="-4,4 -4,-148.4315 577,-148.4315 577,4 -4,4"/>
<!-- Node0 -->
<g id="node1" class="node">
<title>Node0</title>
<polygon fill="#bfbfbf" stroke="#000000" points="0,-85 0,-104 51,-104 51,-85 0,-85"/>
<text text-anchor="middle" x="25.5" y="-92" font-family="Helvetica,sans-Serif" font-size="10.00" fill="#000000">TEST_F</text>
</g>
<!-- Node1 -->
<g id="node2" class="node">
<title>Node1</title>
<g id="a_node2"><a xlink:href="namespaceargo_a2deaaacde085d381cbb01f24318965b4.html#a2deaaacde085d381cbb01f24318965b4" target="_top" xlink:title="A unique ArgoDSM node identifier. Counting starts from 0. ">
<polygon fill="#ffffff" stroke="#000000" points="287,-118 287,-137 370,-137 370,-118 287,-118"/>
<text text-anchor="middle" x="328.5" y="-125" font-family="Helvetica,sans-Serif" font-size="10.00" fill="#000000">argo::node_id</text>
</a>
</g>
</g>
<!-- Node0&#45;&gt;Node1 -->
<g id="edge1" class="edge">
<title>Node0&#45;&gt;Node1</title>
<path fill="none" stroke="#191970" d="M36.8095,-104.2088C48.4886,-113.5414 67.6827,-127.0135 87,-132.5 150.4599,-150.524 227.1195,-144.5087 276.7938,-137.1922"/>
<polygon fill="#191970" stroke="#191970" points="277.6218,-140.6059 286.9698,-135.6193 276.5525,-133.688 277.6218,-140.6059"/>
</g>
<!-- Node2 -->
<g id="node3" class="node">
<title>Node2</title>
<g id="a_node3"><a xlink:href="namespaceargo_a10bae1e1e60ff583384b937201a87c29.html#a10bae1e1e60ff583384b937201a87c29" target="_top" xlink:title="a barrier for threads ">
<polygon fill="#ffffff" stroke="#000000" points="114,-104 114,-123 191,-123 191,-104 114,-104"/>
<text text-anchor="middle" x="152.5" y="-111" font-family="Helvetica,sans-Serif" font-size="10.00" fill="#000000">argo::barrier</text>
</a>
</g>
</g>
<!-- Node0&#45;&gt;Node2 -->
<g id="edge2" class="edge">
<title>Node0&#45;&gt;Node2</title>
<path fill="none" stroke="#191970" d="M51.2003,-98.3449C66.2966,-100.6034 85.8742,-103.5324 103.7889,-106.2125"/>
<polygon fill="#191970" stroke="#191970" points="103.4059,-109.6941 113.8138,-107.7123 104.4417,-102.7711 103.4059,-109.6941"/>
</g>
<!-- Node3 -->
<g id="node4" class="node">
<title>Node3</title>
<g id="a_node4"><a xlink:href="namespaceargo_a79c9492f3fd441bfa6261dffbc0f02f4.html#a79c9492f3fd441bfa6261dffbc0f02f4" target="_top" xlink:title="Number of ArgoDSM nodes being run. ">
<polygon fill="#ffffff" stroke="#000000" points="87,-66 87,-85 218,-85 218,-66 87,-66"/>
<text text-anchor="middle" x="152.5" y="-73" font-family="Helvetica,sans-Serif" font-size="10.00" fill="#000000">argo::number_of_nodes</text>
</a>
</g>
</g>
<!-- Node0&#45;&gt;Node3 -->
<g id="edge3" class="edge">
<title>Node0&#45;&gt;Node3</title>
<path fill="none" stroke="#191970" d="M51.2003,-90.6551C59.4087,-89.427 68.942,-88.0008 78.8125,-86.5241"/>
<polygon fill="#191970" stroke="#191970" points="79.3867,-89.9773 88.7587,-85.0361 78.3509,-83.0543 79.3867,-89.9773"/>
</g>
<!-- Node4 -->
<g id="node5" class="node">
<title>Node4</title>
<g id="a_node5"><a xlink:href="namespaceargo_aa7e8ddf5784dd37c965cfd43cd65a330.html#aa7e8ddf5784dd37c965cfd43cd65a330" target="_top" xlink:title="Delete a globally collectively allocated array of objects. ">
<polygon fill="#ffffff" stroke="#000000" points="94,-28 94,-47 211,-47 211,-28 94,-28"/>
<text text-anchor="middle" x="152.5" y="-35" font-family="Helvetica,sans-Serif" font-size="10.00" fill="#000000">argo::codelete_array</text>
</a>
</g>
</g>
<!-- Node0&#45;&gt;Node4 -->
<g id="edge4" class="edge">
<title>Node0&#45;&gt;Node4</title>
<path fill="none" stroke="#191970" d="M38.5966,-84.9453C50.6678,-76.5022 69.335,-64.3442 87,-56.5 92.1401,-54.2175 97.6278,-52.1279 103.1571,-50.2382"/>
<polygon fill="#191970" stroke="#191970" points="104.6347,-53.44 113.0887,-47.0541 102.4975,-46.7742 104.6347,-53.44"/>
</g>
<!-- Node4&#45;&gt;Node1 -->
<g id="edge5" class="edge">
<title>Node4&#45;&gt;Node1</title>
<path fill="none" stroke="#191970" d="M193.8955,-47.0448C202.0903,-49.6128 210.4781,-52.746 218,-56.5 235.8951,-65.4312 237.3644,-72.3979 254,-83.5 269.579,-93.897 287.6557,-104.6041 302.1012,-112.8528"/>
<polygon fill="#191970" stroke="#191970" points="300.5796,-116.0132 311.0069,-117.8903 304.0261,-109.9204 300.5796,-116.0132"/>
</g>
<!-- Node5 -->
<g id="node6" class="node">
<title>Node5</title>
<g id="a_node6"><a xlink:href="classargo_1_1allocators_1_1generic__allocator_a6a7fe288a35b74a248c341d6f67c800c.html#a6a7fe288a35b74a248c341d6f67c800c" target="_top" xlink:title="How much space has been allocated for the given chunk. ">
<polygon fill="#ffffff" stroke="#000000" points="254,-44.5 254,-74.5 403,-74.5 403,-44.5 254,-44.5"/>
<text text-anchor="start" x="262" y="-62.5" font-family="Helvetica,sans-Serif" font-size="10.00" fill="#000000">argo::allocators::generic</text>
<text text-anchor="middle" x="328.5" y="-51.5" font-family="Helvetica,sans-Serif" font-size="10.00" fill="#000000">_allocator::allocated_space</text>
</a>
</g>
</g>
<!-- Node4&#45;&gt;Node5 -->
<g id="edge6" class="edge">
<title>Node4&#45;&gt;Node5</title>
<path fill="none" stroke="#191970" d="M211.1055,-44.8257C221.5942,-46.1368 232.7124,-47.5266 243.7619,-48.9077"/>
<polygon fill="#191970" stroke="#191970" points="243.5132,-52.4038 253.8701,-50.1713 244.3815,-45.4579 243.5132,-52.4038"/>
</g>
<!-- Node6 -->
<g id="node7" class="node">
<title>Node6</title>
<g id="a_node7"><a xlink:href="src_2allocators_2allocators_8cpp_a215edf4fe9276398650302b518c52baf.html#a215edf4fe9276398650302b518c52baf" target="_top" xlink:title="basic free function for collective allocations, for C interface ">
<polygon fill="#ffffff" stroke="#000000" points="284,-6 284,-25 373,-25 373,-6 284,-6"/>
<text text-anchor="middle" x="328.5" y="-13" font-family="Helvetica,sans-Serif" font-size="10.00" fill="#000000">collective_free</text>
</a>
</g>
</g>
<!-- Node4&#45;&gt;Node6 -->
<g id="edge7" class="edge">
<title>Node4&#45;&gt;Node6</title>
<path fill="none" stroke="#191970" d="M211.1055,-30.1743C231.2869,-27.6516 253.7986,-24.8377 273.6678,-22.354"/>
<polygon fill="#191970" stroke="#191970" points="274.3022,-25.802 283.7909,-21.0886 273.4339,-18.8561 274.3022,-25.802"/>
</g>
<!-- Node7 -->
<g id="node8" class="node">
<title>Node7</title>
<g id="a_node8"><a xlink:href="classargo_1_1allocators_1_1generic__allocator_ab98a25e383864eecd7d602f95c49c420.html#ab98a25e383864eecd7d602f95c49c420" target="_top" xlink:title="free an allocated pointer ">
<polygon fill="#ffffff" stroke="#000000" points="439,-.5 439,-30.5 573,-30.5 573,-.5 439,-.5"/>
<text text-anchor="start" x="447" y="-18.5" font-family="Helvetica,sans-Serif" font-size="10.00" fill="#000000">argo::allocators::generic</text>
<text text-anchor="middle" x="506" y="-7.5" font-family="Helvetica,sans-Serif" font-size="10.00" fill="#000000">_allocator::free</text>
</a>
</g>
</g>
<!-- Node6&#45;&gt;Node7 -->
<g id="edge8" class="edge">
<title>Node6&#45;&gt;Node7</title>
<path fill="none" stroke="#191970" d="M373.2907,-15.5C390.0924,-15.5 409.7061,-15.5 428.6195,-15.5"/>
<polygon fill="#191970" stroke="#191970" points="428.7288,-19.0001 438.7288,-15.5 428.7288,-12.0001 428.7288,-19.0001"/>
</g>
</g>
</svg>
