<?xml version="1.0" encoding="UTF-8" standalone="no"?>
<!DOCTYPE svg PUBLIC "-//W3C//DTD SVG 1.1//EN"
 "http://www.w3.org/Graphics/SVG/1.1/DTD/svg11.dtd">
<!-- Generated by graphviz version 2.40.1 (20161225.0304)
 -->
<!-- Title: argo::backend::atomic::_load Pages: 1 -->
<svg width="296pt" height="166pt"
 viewBox="0.00 0.00 296.00 165.50" xmlns="http://www.w3.org/2000/svg" xmlns:xlink="http://www.w3.org/1999/xlink">
<g id="graph0" class="graph" transform="scale(1 1) rotate(0) translate(4 161.5)">
<title>argo::backend::atomic::_load</title>
<polygon fill="#ffffff" stroke="transparent" points="-4,4 -4,-161.5 292,-161.5 292,4 -4,4"/>
<!-- Node0 -->
<g id="node1" class="node">
<title>Node0</title>
<polygon fill="#bfbfbf" stroke="#000000" points="0,-66.5 0,-96.5 125,-96.5 125,-66.5 0,-66.5"/>
<text text-anchor="start" x="8" y="-84.5" font-family="Helvetica,sans-Serif" font-size="10.00" fill="#000000">argo::backend::atomic</text>
<text text-anchor="middle" x="62.5" y="-73.5" font-family="Helvetica,sans-Serif" font-size="10.00" fill="#000000">::_load</text>
</g>
<!-- Node0&#45;&gt;Node0 -->
<g id="edge1" class="edge">
<title>Node0&#45;&gt;Node0</title>
<path fill="none" stroke="#191970" d="M34.2682,-96.659C27.4605,-106.0566 36.8711,-115 62.5,-115 78.1176,-115 87.7128,-111.679 91.2854,-106.9579"/>
<polygon fill="#191970" stroke="#191970" points="94.7636,-106.4567 90.7318,-96.659 87.7737,-106.8325 94.7636,-106.4567"/>
</g>
<!-- Node1 -->
<g id="node2" class="node">
<title>Node1</title>
<g id="a_node2"><a xlink:href="mpi_8cpp_a42bc863264a399b805b95e0fc53a9fed.html#a42bc863264a399b805b95e0fc53a9fed" target="_top" target="_top" xlink:title="Returns an MPI integer type that exactly matches in size the argument given. ">
<polygon fill="#ffffff" stroke="#000000" points="181,-138 181,-157 268,-157 268,-138 181,-138"/>
<text text-anchor="middle" x="224.5" y="-145" font-family="Helvetica,sans-Serif" font-size="10.00" fill="#000000">fitting_mpi_int</text>
</a>
</g>
</g>
<!-- Node0&#45;&gt;Node1 -->
<g id="edge2" class="edge">
<title>Node0&#45;&gt;Node1</title>
<path fill="none" stroke="#191970" d="M91.2896,-96.6894C110.6596,-106.5451 136.9561,-119.2304 161,-128.5 166.8483,-130.7547 173.0826,-132.9101 179.2738,-134.9063"/>
<polygon fill="#191970" stroke="#191970" points="178.3176,-138.2742 188.9059,-137.9037 180.3976,-131.5904 178.3176,-138.2742"/>
</g>
<!-- Node2 -->
<g id="node3" class="node">
<title>Node2</title>
<g id="a_node3"><a xlink:href="classargo_1_1data__distribution_1_1global__ptr_ac7d651586337d08cda18ef26ffcd34a0.html#ac7d651586337d08cda18ef26ffcd34a0" target="_top" target="_top" xlink:title="return the home node of the value pointed to ">
<polygon fill="#ffffff" stroke="#000000" points="161,-88.5 161,-118.5 288,-118.5 288,-88.5 161,-88.5"/>
<text text-anchor="start" x="169" y="-106.5" font-family="Helvetica,sans-Serif" font-size="10.00" fill="#000000">argo::data_distribution</text>
<text text-anchor="middle" x="224.5" y="-95.5" font-family="Helvetica,sans-Serif" font-size="10.00" fill="#000000">::global_ptr::node</text>
</a>
</g>
</g>
<!-- Node0&#45;&gt;Node2 -->
<g id="edge3" class="edge">
<title>Node0&#45;&gt;Node2</title>
<path fill="none" stroke="#191970" d="M125.1334,-90.0058C133.5808,-91.1529 142.3095,-92.3383 150.9251,-93.5084"/>
<polygon fill="#191970" stroke="#191970" points="150.5836,-96.994 160.9637,-94.8716 151.5257,-90.0577 150.5836,-96.994"/>
</g>
<!-- Node3 -->
<g id="node4" class="node">
<title>Node3</title>
<g id="a_node4"><a xlink:href="namespaceargo_a2b6b342c320b2a608d317a328fc46d83.html#a2b6b342c320b2a608d317a328fc46d83" target="_top" target="_top" xlink:title="Size of memory which is the portion of memory owned by this node. ">
<polygon fill="#ffffff" stroke="#000000" points="175.5,-50 175.5,-69 273.5,-69 273.5,-50 175.5,-50"/>
<text text-anchor="middle" x="224.5" y="-57" font-family="Helvetica,sans-Serif" font-size="10.00" fill="#000000">argo::chunk_size</text>
</a>
</g>
</g>
<!-- Node0&#45;&gt;Node3 -->
<g id="edge4" class="edge">
<title>Node0&#45;&gt;Node3</title>
<path fill="none" stroke="#191970" d="M125.1334,-72.9942C138.2712,-71.2101 152.0895,-69.3335 165.1048,-67.566"/>
<polygon fill="#191970" stroke="#191970" points="165.9044,-70.9896 175.3424,-66.1757 164.9623,-64.0533 165.9044,-70.9896"/>
</g>
<!-- Node4 -->
<g id="node5" class="node">
<title>Node4</title>
<g id="a_node5"><a xlink:href="classargo_1_1data__distribution_1_1global__ptr_ad8c21c408fa2b926cfd9acfd87e8e4e6.html#ad8c21c408fa2b926cfd9acfd87e8e4e6" target="_top" target="_top" xlink:title="return the offset on the home node&#39;s local memory share ">
<polygon fill="#ffffff" stroke="#000000" points="161,-.5 161,-30.5 288,-30.5 288,-.5 161,-.5"/>
<text text-anchor="start" x="169" y="-18.5" font-family="Helvetica,sans-Serif" font-size="10.00" fill="#000000">argo::data_distribution</text>
<text text-anchor="middle" x="224.5" y="-7.5" font-family="Helvetica,sans-Serif" font-size="10.00" fill="#000000">::global_ptr::offset</text>
</a>
</g>
</g>
<!-- Node0&#45;&gt;Node4 -->
<g id="edge5" class="edge">
<title>Node0&#45;&gt;Node4</title>
<path fill="none" stroke="#191970" d="M98.4546,-66.338C117.0844,-58.5317 140.2257,-48.9121 161,-40.5 166.0104,-38.4711 171.2519,-36.3714 176.4829,-34.2904"/>
<polygon fill="#191970" stroke="#191970" points="177.8279,-37.5223 185.8352,-30.5844 175.2491,-31.0146 177.8279,-37.5223"/>
</g>
</g>
</svg>
