<?xml version="1.0" encoding="UTF-8" standalone="no"?>
<!DOCTYPE svg PUBLIC "-//W3C//DTD SVG 1.1//EN"
 "http://www.w3.org/Graphics/SVG/1.1/DTD/svg11.dtd">
<!-- Generated by graphviz version 2.40.1 (20161225.0304)
 -->
<!-- Title: TEST_F Pages: 1 -->
<svg width="567pt" height="138pt"
 viewBox="0.00 0.00 567.00 137.50" xmlns="http://www.w3.org/2000/svg" xmlns:xlink="http://www.w3.org/1999/xlink">
<g id="graph0" class="graph" transform="scale(1 1) rotate(0) translate(4 133.5)">
<title>TEST_F</title>
<polygon fill="#ffffff" stroke="transparent" points="-4,4 -4,-133.5 563,-133.5 563,4 -4,4"/>
<!-- Node0 -->
<g id="node1" class="node">
<title>Node0</title>
<polygon fill="#bfbfbf" stroke="#000000" points="0,-80 0,-99 51,-99 51,-80 0,-80"/>
<text text-anchor="middle" x="25.5" y="-87" font-family="Helvetica,sans-Serif" font-size="10.00" fill="#000000">TEST_F</text>
</g>
<!-- Node1 -->
<g id="node2" class="node">
<title>Node1</title>
<g id="a_node2"><a xlink:href="namespaceargo_a2deaaacde085d381cbb01f24318965b4.html#a2deaaacde085d381cbb01f24318965b4" target="_top" xlink:title="A unique ArgoDSM node identifier. Counting starts from 0. ">
<polygon fill="#ffffff" stroke="#000000" points="273,-110 273,-129 356,-129 356,-110 273,-110"/>
<text text-anchor="middle" x="314.5" y="-117" font-family="Helvetica,sans-Serif" font-size="10.00" fill="#000000">argo::node_id</text>
</a>
</g>
</g>
<!-- Node0&#45;&gt;Node1 -->
<g id="edge1" class="edge">
<title>Node0&#45;&gt;Node1</title>
<path fill="none" stroke="#191970" d="M51.1793,-99.014C62.073,-102.634 75.0031,-106.3915 87,-108.5 146.5611,-118.9681 216.1499,-120.8547 262.5289,-120.677"/>
<polygon fill="#191970" stroke="#191970" points="262.6648,-124.1762 272.6393,-120.6041 262.6143,-117.1764 262.6648,-124.1762"/>
</g>
<!-- Node2 -->
<g id="node3" class="node">
<title>Node2</title>
<g id="a_node3"><a xlink:href="namespaceargo_a10bae1e1e60ff583384b937201a87c29.html#a10bae1e1e60ff583384b937201a87c29" target="_top" xlink:title="a barrier for threads ">
<polygon fill="#ffffff" stroke="#000000" points="107,-80 107,-99 184,-99 184,-80 107,-80"/>
<text text-anchor="middle" x="145.5" y="-87" font-family="Helvetica,sans-Serif" font-size="10.00" fill="#000000">argo::barrier</text>
</a>
</g>
</g>
<!-- Node0&#45;&gt;Node2 -->
<g id="edge2" class="edge">
<title>Node0&#45;&gt;Node2</title>
<path fill="none" stroke="#191970" d="M51.243,-89.5C64.4623,-89.5 81.0179,-89.5 96.5502,-89.5"/>
<polygon fill="#191970" stroke="#191970" points="96.5641,-93.0001 106.564,-89.5 96.564,-86.0001 96.5641,-93.0001"/>
</g>
<!-- Node3 -->
<g id="node4" class="node">
<title>Node3</title>
<g id="a_node4"><a xlink:href="namespaceargo_aa7e8ddf5784dd37c965cfd43cd65a330.html#aa7e8ddf5784dd37c965cfd43cd65a330" target="_top" xlink:title="Delete a globally collectively allocated array of objects. ">
<polygon fill="#ffffff" stroke="#000000" points="87,-42 87,-61 204,-61 204,-42 87,-42"/>
<text text-anchor="middle" x="145.5" y="-49" font-family="Helvetica,sans-Serif" font-size="10.00" fill="#000000">argo::codelete_array</text>
</a>
</g>
</g>
<!-- Node0&#45;&gt;Node3 -->
<g id="edge3" class="edge">
<title>Node0&#45;&gt;Node3</title>
<path fill="none" stroke="#191970" d="M51.243,-81.348C67.048,-76.3431 87.6223,-69.8279 105.5147,-64.162"/>
<polygon fill="#191970" stroke="#191970" points="106.6549,-67.4723 115.1317,-61.1166 104.5416,-60.7989 106.6549,-67.4723"/>
</g>
<!-- Node3&#45;&gt;Node1 -->
<g id="edge4" class="edge">
<title>Node3&#45;&gt;Node1</title>
<path fill="none" stroke="#191970" d="M176.98,-61.0647C185.7887,-63.9191 195.3241,-67.1777 204,-70.5 231.9973,-81.2212 263.1583,-95.2359 285.2333,-105.5295"/>
<polygon fill="#191970" stroke="#191970" points="283.8574,-108.75 294.3968,-109.8321 286.8326,-102.4137 283.8574,-108.75"/>
</g>
<!-- Node4 -->
<g id="node5" class="node">
<title>Node4</title>
<g id="a_node5"><a xlink:href="classargo_1_1allocators_1_1generic__allocator_a6a7fe288a35b74a248c341d6f67c800c.html#a6a7fe288a35b74a248c341d6f67c800c" target="_top" xlink:title="How much space has been allocated for the given chunk. ">
<polygon fill="#ffffff" stroke="#000000" points="240,-44.5 240,-74.5 389,-74.5 389,-44.5 240,-44.5"/>
<text text-anchor="start" x="248" y="-62.5" font-family="Helvetica,sans-Serif" font-size="10.00" fill="#000000">argo::allocators::generic</text>
<text text-anchor="middle" x="314.5" y="-51.5" font-family="Helvetica,sans-Serif" font-size="10.00" fill="#000000">_allocator::allocated_space</text>
</a>
</g>
</g>
<!-- Node3&#45;&gt;Node4 -->
<g id="edge5" class="edge">
<title>Node3&#45;&gt;Node4</title>
<path fill="none" stroke="#191970" d="M204.1337,-54.2756C212.4248,-54.668 221.0836,-55.0779 229.746,-55.488"/>
<polygon fill="#191970" stroke="#191970" points="229.7403,-58.9915 239.8947,-55.9684 230.0714,-51.9994 229.7403,-58.9915"/>
</g>
<!-- Node5 -->
<g id="node6" class="node">
<title>Node5</title>
<g id="a_node6"><a xlink:href="src_2allocators_2allocators_8cpp_a215edf4fe9276398650302b518c52baf.html#a215edf4fe9276398650302b518c52baf" target="_top" xlink:title="basic free function for collective allocations, for C interface ">
<polygon fill="#ffffff" stroke="#000000" points="270,-6 270,-25 359,-25 359,-6 270,-6"/>
<text text-anchor="middle" x="314.5" y="-13" font-family="Helvetica,sans-Serif" font-size="10.00" fill="#000000">collective_free</text>
</a>
</g>
</g>
<!-- Node3&#45;&gt;Node5 -->
<g id="edge6" class="edge">
<title>Node3&#45;&gt;Node5</title>
<path fill="none" stroke="#191970" d="M190.3452,-41.9472C211.63,-37.4131 237.256,-31.9543 259.6854,-27.1765"/>
<polygon fill="#191970" stroke="#191970" points="260.6874,-30.5417 269.7387,-25.0349 259.2289,-23.6953 260.6874,-30.5417"/>
</g>
<!-- Node6 -->
<g id="node7" class="node">
<title>Node6</title>
<g id="a_node7"><a xlink:href="classargo_1_1allocators_1_1generic__allocator_ab98a25e383864eecd7d602f95c49c420.html#ab98a25e383864eecd7d602f95c49c420" target="_top" xlink:title="free an allocated pointer ">
<polygon fill="#ffffff" stroke="#000000" points="425,-.5 425,-30.5 559,-30.5 559,-.5 425,-.5"/>
<text text-anchor="start" x="433" y="-18.5" font-family="Helvetica,sans-Serif" font-size="10.00" fill="#000000">argo::allocators::generic</text>
<text text-anchor="middle" x="492" y="-7.5" font-family="Helvetica,sans-Serif" font-size="10.00" fill="#000000">_allocator::free</text>
</a>
</g>
</g>
<!-- Node5&#45;&gt;Node6 -->
<g id="edge7" class="edge">
<title>Node5&#45;&gt;Node6</title>
<path fill="none" stroke="#191970" d="M359.2907,-15.5C376.0924,-15.5 395.7061,-15.5 414.6195,-15.5"/>
<polygon fill="#191970" stroke="#191970" points="414.7288,-19.0001 424.7288,-15.5 414.7288,-12.0001 414.7288,-19.0001"/>
</g>
</g>
</svg>
