<?xml version="1.0" encoding="UTF-8" standalone="no"?>
<!DOCTYPE svg PUBLIC "-//W3C//DTD SVG 1.1//EN"
 "http://www.w3.org/Graphics/SVG/1.1/DTD/svg11.dtd">
<!-- Generated by graphviz version 2.40.1 (20161225.0304)
 -->
<!-- Title: argo::backend::release Pages: 1 -->
<svg width="1357pt" height="219pt"
 viewBox="0.00 0.00 1357.00 219.00" xmlns="http://www.w3.org/2000/svg" xmlns:xlink="http://www.w3.org/1999/xlink">
<g id="graph0" class="graph" transform="scale(1 1) rotate(0) translate(4 215)">
<title>argo::backend::release</title>
<polygon fill="#ffffff" stroke="transparent" points="-4,4 -4,-215 1353,-215 1353,4 -4,4"/>
<!-- Node0 -->
<g id="node1" class="node">
<title>Node0</title>
<polygon fill="#bfbfbf" stroke="#000000" points="0,-93 0,-112 128,-112 128,-93 0,-93"/>
<text text-anchor="middle" x="64" y="-100" font-family="Helvetica,sans-Serif" font-size="10.00" fill="#000000">argo::backend::release</text>
</g>
<!-- Node0&#45;&gt;Node0 -->
<g id="edge1" class="edge">
<title>Node0&#45;&gt;Node0</title>
<path fill="none" stroke="#191970" d="M42.4219,-112.2571C31.9245,-121.0653 39.1172,-130.5 64,-130.5 79.9406,-130.5 88.6211,-126.628 90.0416,-121.5292"/>
<polygon fill="#191970" stroke="#191970" points="93.0692,-119.7493 85.5781,-112.2571 86.762,-122.7855 93.0692,-119.7493"/>
</g>
<!-- Node1 -->
<g id="node2" class="node">
<title>Node1</title>
<g id="a_node2"><a xlink:href="swdsm_8cpp_ad390eb58e1be03ed6a0939fae7ebd20a.html#ad390eb58e1be03ed6a0939fae7ebd20a" target="_top" xlink:title="Release function for ArgoDSM (Release according to Release Consistency) ">
<polygon fill="#ffffff" stroke="#000000" points="164,-93 164,-112 244,-112 244,-93 164,-93"/>
<text text-anchor="middle" x="204" y="-100" font-family="Helvetica,sans-Serif" font-size="10.00" fill="#000000">argo_release</text>
</a>
</g>
</g>
<!-- Node0&#45;&gt;Node1 -->
<g id="edge2" class="edge">
<title>Node0&#45;&gt;Node1</title>
<path fill="none" stroke="#191970" d="M128.2635,-102.5C136.7546,-102.5 145.359,-102.5 153.5725,-102.5"/>
<polygon fill="#191970" stroke="#191970" points="153.7293,-106.0001 163.7292,-102.5 153.7292,-99.0001 153.7293,-106.0001"/>
</g>
<!-- Node2 -->
<g id="node3" class="node">
<title>Node2</title>
<g id="a_node3"><a xlink:href="classwrite__buffer_aca2e330e17a38c1cc8d8c60701ce9dd7.html#aca2e330e17a38c1cc8d8c60701ce9dd7" target="_top" xlink:title="Flushes the ArgoDSM write buffer to memory. ">
<polygon fill="#ffffff" stroke="#000000" points="280,-93 280,-112 384,-112 384,-93 280,-93"/>
<text text-anchor="middle" x="332" y="-100" font-family="Helvetica,sans-Serif" font-size="10.00" fill="#000000">write_buffer::flush</text>
</a>
</g>
</g>
<!-- Node1&#45;&gt;Node2 -->
<g id="edge3" class="edge">
<title>Node1&#45;&gt;Node2</title>
<path fill="none" stroke="#191970" d="M244.1488,-102.5C252.2641,-102.5 260.9764,-102.5 269.6483,-102.5"/>
<polygon fill="#191970" stroke="#191970" points="269.7717,-106.0001 279.7716,-102.5 269.7716,-99.0001 269.7717,-106.0001"/>
</g>
<!-- Node3 -->
<g id="node4" class="node">
<title>Node3</title>
<g id="a_node4"><a xlink:href="classwrite__buffer_ab70cc0d6ca3591094aae489dbc3feaa5.html#ab70cc0d6ca3591094aae489dbc3feaa5" target="_top" xlink:title="Check if the write buffer is empty. ">
<polygon fill="#ffffff" stroke="#000000" points="429,-169 429,-188 542,-188 542,-169 429,-169"/>
<text text-anchor="middle" x="485.5" y="-176" font-family="Helvetica,sans-Serif" font-size="10.00" fill="#000000">write_buffer::empty</text>
</a>
</g>
</g>
<!-- Node2&#45;&gt;Node3 -->
<g id="edge4" class="edge">
<title>Node2&#45;&gt;Node3</title>
<path fill="none" stroke="#191970" d="M344.1527,-112.0325C360.5424,-124.4871 391.026,-146.2626 420,-159.5 425.0482,-161.8064 430.4438,-163.9052 435.8903,-165.795"/>
<polygon fill="#191970" stroke="#191970" points="435.0928,-169.2158 445.6848,-168.9709 437.2519,-162.5571 435.0928,-169.2158"/>
</g>
<!-- Node4 -->
<g id="node5" class="node">
<title>Node4</title>
<g id="a_node5"><a xlink:href="classwrite__buffer_aa2325346aceb3e7ffdbdbdc8e8682147.html#aa2325346aceb3e7ffdbdbdc8e8682147" target="_top" xlink:title="Sorts all elements by home node id in ascending order. ">
<polygon fill="#ffffff" stroke="#000000" points="435.5,-131 435.5,-150 535.5,-150 535.5,-131 435.5,-131"/>
<text text-anchor="middle" x="485.5" y="-138" font-family="Helvetica,sans-Serif" font-size="10.00" fill="#000000">write_buffer::sort</text>
</a>
</g>
</g>
<!-- Node2&#45;&gt;Node4 -->
<g id="edge5" class="edge">
<title>Node2&#45;&gt;Node4</title>
<path fill="none" stroke="#191970" d="M370.7345,-112.089C390.8993,-117.0809 415.7479,-123.2324 437.1611,-128.5334"/>
<polygon fill="#191970" stroke="#191970" points="436.4959,-131.9743 447.044,-130.9799 438.1781,-125.1794 436.4959,-131.9743"/>
</g>
<!-- Node14 -->
<g id="node15" class="node">
<title>Node14</title>
<g id="a_node15"><a xlink:href="classwrite__buffer_ae065d3ee59035ad508eb8ce6670d2c89.html#ae065d3ee59035ad508eb8ce6670d2c89" target="_top" xlink:title="Removes the front element from the buffer and returns it. ">
<polygon fill="#ffffff" stroke="#000000" points="436,-93 436,-112 535,-112 535,-93 436,-93"/>
<text text-anchor="middle" x="485.5" y="-100" font-family="Helvetica,sans-Serif" font-size="10.00" fill="#000000">write_buffer::pop</text>
</a>
</g>
</g>
<!-- Node2&#45;&gt;Node14 -->
<g id="edge16" class="edge">
<title>Node2&#45;&gt;Node14</title>
<path fill="none" stroke="#191970" d="M384.3967,-102.5C397.6849,-102.5 412.0597,-102.5 425.685,-102.5"/>
<polygon fill="#191970" stroke="#191970" points="425.9279,-106.0001 435.9279,-102.5 425.9279,-99.0001 425.9279,-106.0001"/>
</g>
<!-- Node15 -->
<g id="node16" class="node">
<title>Node15</title>
<g id="a_node16"><a xlink:href="swdsm_8cpp_ae0f2d0961e80b2903b3f54c9e6c68658.html#ae0f2d0961e80b2903b3f54c9e6c68658" target="_top" xlink:title="stores a page remotely &#45; only writing back what has been written locally since last synchronization p...">
<polygon fill="#ffffff" stroke="#000000" points="442.5,-55 442.5,-74 528.5,-74 528.5,-55 442.5,-55"/>
<text text-anchor="middle" x="485.5" y="-62" font-family="Helvetica,sans-Serif" font-size="10.00" fill="#000000">storepageDIFF</text>
</a>
</g>
</g>
<!-- Node2&#45;&gt;Node15 -->
<g id="edge17" class="edge">
<title>Node2&#45;&gt;Node15</title>
<path fill="none" stroke="#191970" d="M370.7345,-92.911C390.8993,-87.9191 415.7479,-81.7676 437.1611,-76.4666"/>
<polygon fill="#191970" stroke="#191970" points="438.1781,-79.8206 447.044,-74.0201 436.4959,-73.0257 438.1781,-79.8206"/>
</g>
<!-- Node20 -->
<g id="node21" class="node">
<title>Node20</title>
<g id="a_node21"><a xlink:href="namespaceargo_a79c9492f3fd441bfa6261dffbc0f02f4.html#a79c9492f3fd441bfa6261dffbc0f02f4" target="_top" xlink:title="Number of ArgoDSM nodes being run. ">
<polygon fill="#ffffff" stroke="#000000" points="420,-17 420,-36 551,-36 551,-17 420,-17"/>
<text text-anchor="middle" x="485.5" y="-24" font-family="Helvetica,sans-Serif" font-size="10.00" fill="#000000">argo::number_of_nodes</text>
</a>
</g>
</g>
<!-- Node2&#45;&gt;Node20 -->
<g id="edge22" class="edge">
<title>Node2&#45;&gt;Node20</title>
<path fill="none" stroke="#191970" d="M344.1527,-92.9675C360.5424,-80.5129 391.026,-58.7374 420,-45.5 425.0482,-43.1936 430.4438,-41.0948 435.8903,-39.205"/>
<polygon fill="#191970" stroke="#191970" points="437.2519,-42.4429 445.6848,-36.0291 435.0928,-35.7842 437.2519,-42.4429"/>
</g>
<!-- Node5 -->
<g id="node6" class="node">
<title>Node5</title>
<g id="a_node6"><a xlink:href="namespaceargo_a48dc17c94275df10a8e7f3959cbf0191.html#a48dc17c94275df10a8e7f3959cbf0191" target="_top" xlink:title="Get the ArgoDSM node id where addr is physically backed. ">
<polygon fill="#ffffff" stroke="#000000" points="587,-134 587,-153 704,-153 704,-134 587,-134"/>
<text text-anchor="middle" x="645.5" y="-141" font-family="Helvetica,sans-Serif" font-size="10.00" fill="#000000">argo::get_homenode</text>
</a>
</g>
</g>
<!-- Node4&#45;&gt;Node5 -->
<g id="edge6" class="edge">
<title>Node4&#45;&gt;Node5</title>
<path fill="none" stroke="#191970" d="M535.686,-141.441C548.6124,-141.6834 562.7506,-141.9484 576.452,-142.2054"/>
<polygon fill="#191970" stroke="#191970" points="576.7533,-145.7115 586.8171,-142.3997 576.8845,-138.7127 576.7533,-145.7115"/>
</g>
<!-- Node6 -->
<g id="node7" class="node">
<title>Node6</title>
<g id="a_node7"><a xlink:href="classargo_1_1data__distribution_1_1global__ptr_a3e2cdd4d323ef91174615e27ab94e342.html#a3e2cdd4d323ef91174615e27ab94e342" target="_top" xlink:title="return the home node of the value pointed to, or a default value if the page has not yet been first&#45;t...">
<polygon fill="#ffffff" stroke="#000000" points="740,-175.5 740,-205.5 871,-205.5 871,-175.5 740,-175.5"/>
<text text-anchor="start" x="748" y="-193.5" font-family="Helvetica,sans-Serif" font-size="10.00" fill="#000000">argo::data_distribution</text>
<text text-anchor="middle" x="805.5" y="-182.5" font-family="Helvetica,sans-Serif" font-size="10.00" fill="#000000">::global_ptr::peek_node</text>
</a>
</g>
</g>
<!-- Node5&#45;&gt;Node6 -->
<g id="edge7" class="edge">
<title>Node5&#45;&gt;Node6</title>
<path fill="none" stroke="#191970" d="M677.8784,-153.0112C696.9686,-158.6189 721.7471,-165.8976 744.3856,-172.5476"/>
<polygon fill="#191970" stroke="#191970" points="743.6888,-175.9908 754.2699,-175.4512 745.6617,-169.2746 743.6888,-175.9908"/>
</g>
<!-- Node7 -->
<g id="node8" class="node">
<title>Node7</title>
<g id="a_node8"><a xlink:href="namespaceargo_a2f35b6b6e0af76fb8fb47f2031d6f58e.html#a2f35b6b6e0af76fb8fb47f2031d6f58e" target="_top" xlink:title="Get the block size of the current allocation policy. ">
<polygon fill="#ffffff" stroke="#000000" points="747.5,-137 747.5,-156 863.5,-156 863.5,-137 747.5,-137"/>
<text text-anchor="middle" x="805.5" y="-144" font-family="Helvetica,sans-Serif" font-size="10.00" fill="#000000">argo::get_block_size</text>
</a>
</g>
</g>
<!-- Node5&#45;&gt;Node7 -->
<g id="edge8" class="edge">
<title>Node5&#45;&gt;Node7</title>
<path fill="none" stroke="#191970" d="M704.1696,-144.6001C714.9585,-144.8023 726.3057,-145.0151 737.3452,-145.2221"/>
<polygon fill="#191970" stroke="#191970" points="737.3083,-148.7219 747.3722,-145.4101 737.4396,-141.7232 737.3083,-148.7219"/>
</g>
<!-- Node13 -->
<g id="node14" class="node">
<title>Node13</title>
<g id="a_node14"><a xlink:href="namespaceargo_a2b6b342c320b2a608d317a328fc46d83.html#a2b6b342c320b2a608d317a328fc46d83" target="_top" xlink:title="Size of memory which is the portion of memory owned by this node. ">
<polygon fill="#ffffff" stroke="#000000" points="756.5,-99 756.5,-118 854.5,-118 854.5,-99 756.5,-99"/>
<text text-anchor="middle" x="805.5" y="-106" font-family="Helvetica,sans-Serif" font-size="10.00" fill="#000000">argo::chunk_size</text>
</a>
</g>
</g>
<!-- Node5&#45;&gt;Node13 -->
<g id="edge15" class="edge">
<title>Node5&#45;&gt;Node13</title>
<path fill="none" stroke="#191970" d="M689.2207,-133.9361C708.6221,-129.692 731.6353,-124.6579 752.0477,-120.1927"/>
<polygon fill="#191970" stroke="#191970" points="752.8111,-123.6085 761.8322,-118.0523 751.3152,-116.7702 752.8111,-123.6085"/>
</g>
<!-- Node8 -->
<g id="node9" class="node">
<title>Node8</title>
<g id="a_node9"><a xlink:href="namespaceargo_1_1data__distribution_a2a70ed49553953957c3a28aa755d7ac8.html#a2a70ed49553953957c3a28aa755d7ac8" target="_top" xlink:title="based on the chosen policy, gets the policy block size ">
<polygon fill="#ffffff" stroke="#000000" points="907,-131.5 907,-161.5 1034,-161.5 1034,-131.5 907,-131.5"/>
<text text-anchor="start" x="915" y="-149.5" font-family="Helvetica,sans-Serif" font-size="10.00" fill="#000000">argo::data_distribution</text>
<text text-anchor="middle" x="970.5" y="-138.5" font-family="Helvetica,sans-Serif" font-size="10.00" fill="#000000">::policy_block_size</text>
</a>
</g>
</g>
<!-- Node7&#45;&gt;Node8 -->
<g id="edge9" class="edge">
<title>Node7&#45;&gt;Node8</title>
<path fill="none" stroke="#191970" d="M863.6728,-146.5C874.3993,-146.5 885.7284,-146.5 896.841,-146.5"/>
<polygon fill="#191970" stroke="#191970" points="896.9621,-150.0001 906.9621,-146.5 896.962,-143.0001 896.9621,-150.0001"/>
</g>
<!-- Node9 -->
<g id="node10" class="node">
<title>Node9</title>
<g id="a_node10"><a xlink:href="namespaceargo_1_1env_a30775a9aa41b956df7474a2c0cc317aa.html#a30775a9aa41b956df7474a2c0cc317aa" target="_top" xlink:title="get the allocation block size requested by environment variable ">
<polygon fill="#ffffff" stroke="#000000" points="1075.5,-180.5 1075.5,-210.5 1191.5,-210.5 1191.5,-180.5 1075.5,-180.5"/>
<text text-anchor="start" x="1083.5" y="-198.5" font-family="Helvetica,sans-Serif" font-size="10.00" fill="#000000">argo::env::allocation</text>
<text text-anchor="middle" x="1133.5" y="-187.5" font-family="Helvetica,sans-Serif" font-size="10.00" fill="#000000">_block_size</text>
</a>
</g>
</g>
<!-- Node8&#45;&gt;Node9 -->
<g id="edge10" class="edge">
<title>Node8&#45;&gt;Node9</title>
<path fill="none" stroke="#191970" d="M1020.7354,-161.6014C1037.3909,-166.6083 1056.0997,-172.2324 1073.4194,-177.439"/>
<polygon fill="#191970" stroke="#191970" points="1072.8462,-180.9213 1083.4305,-180.4484 1074.8615,-174.2177 1072.8462,-180.9213"/>
</g>
<!-- Node10 -->
<g id="node11" class="node">
<title>Node10</title>
<g id="a_node11"><a xlink:href="namespaceargo_1_1data__distribution_a1bb3f2dcecd237990e6dc67764f06860.html#a1bb3f2dcecd237990e6dc67764f06860" target="_top" xlink:title="identifies if we distribute data using a cyclic memory policy ">
<polygon fill="#ffffff" stroke="#000000" points="1070,-131.5 1070,-161.5 1197,-161.5 1197,-131.5 1070,-131.5"/>
<text text-anchor="start" x="1078" y="-149.5" font-family="Helvetica,sans-Serif" font-size="10.00" fill="#000000">argo::data_distribution</text>
<text text-anchor="middle" x="1133.5" y="-138.5" font-family="Helvetica,sans-Serif" font-size="10.00" fill="#000000">::is_cyclic_policy</text>
</a>
</g>
</g>
<!-- Node8&#45;&gt;Node10 -->
<g id="edge11" class="edge">
<title>Node8&#45;&gt;Node10</title>
<path fill="none" stroke="#191970" d="M1034.4541,-146.5C1042.7606,-146.5 1051.3224,-146.5 1059.7718,-146.5"/>
<polygon fill="#191970" stroke="#191970" points="1059.9977,-150.0001 1069.9977,-146.5 1059.9977,-143.0001 1059.9977,-150.0001"/>
</g>
<!-- Node12 -->
<g id="node13" class="node">
<title>Node12</title>
<g id="a_node13"><a xlink:href="namespaceargo_1_1data__distribution_a58576657391f45caf61bf0748a23b098.html#a58576657391f45caf61bf0748a23b098" target="_top" xlink:title="identifies if we distribute data using the first&#45;touch memory policy ">
<polygon fill="#ffffff" stroke="#000000" points="1070,-82.5 1070,-112.5 1197,-112.5 1197,-82.5 1070,-82.5"/>
<text text-anchor="start" x="1078" y="-100.5" font-family="Helvetica,sans-Serif" font-size="10.00" fill="#000000">argo::data_distribution</text>
<text text-anchor="middle" x="1133.5" y="-89.5" font-family="Helvetica,sans-Serif" font-size="10.00" fill="#000000">::is_first_touch_policy</text>
</a>
</g>
</g>
<!-- Node8&#45;&gt;Node12 -->
<g id="edge13" class="edge">
<title>Node8&#45;&gt;Node12</title>
<path fill="none" stroke="#191970" d="M1020.7354,-131.3986C1037.3909,-126.3917 1056.0997,-120.7676 1073.4194,-115.561"/>
<polygon fill="#191970" stroke="#191970" points="1074.8615,-118.7823 1083.4305,-112.5516 1072.8462,-112.0787 1074.8615,-118.7823"/>
</g>
<!-- Node11 -->
<g id="node12" class="node">
<title>Node11</title>
<g id="a_node12"><a xlink:href="namespaceargo_1_1env_a25a08cb2d0d11432d640ec7173063339.html#a25a08cb2d0d11432d640ec7173063339" target="_top" xlink:title="get the allocation policy requested by environment variable ">
<polygon fill="#ffffff" stroke="#000000" points="1233,-106.5 1233,-136.5 1349,-136.5 1349,-106.5 1233,-106.5"/>
<text text-anchor="start" x="1241" y="-124.5" font-family="Helvetica,sans-Serif" font-size="10.00" fill="#000000">argo::env::allocation</text>
<text text-anchor="middle" x="1291" y="-113.5" font-family="Helvetica,sans-Serif" font-size="10.00" fill="#000000">_policy</text>
</a>
</g>
</g>
<!-- Node10&#45;&gt;Node11 -->
<g id="edge12" class="edge">
<title>Node10&#45;&gt;Node11</title>
<path fill="none" stroke="#191970" d="M1197.1073,-136.4036C1205.5754,-135.0595 1214.2863,-133.6768 1222.8281,-132.3209"/>
<polygon fill="#191970" stroke="#191970" points="1223.4255,-135.77 1232.7531,-130.7455 1222.3281,-128.8566 1223.4255,-135.77"/>
</g>
<!-- Node12&#45;&gt;Node11 -->
<g id="edge14" class="edge">
<title>Node12&#45;&gt;Node11</title>
<path fill="none" stroke="#191970" d="M1197.1073,-107.1925C1205.5754,-108.4829 1214.2863,-109.8103 1222.8281,-111.1119"/>
<polygon fill="#191970" stroke="#191970" points="1222.34,-114.5778 1232.7531,-112.6243 1223.3945,-107.6577 1222.34,-114.5778"/>
</g>
<!-- Node16 -->
<g id="node17" class="node">
<title>Node16</title>
<g id="a_node17"><a xlink:href="swdsm_8cpp_a0edf823a78daed8888e8e18468460617.html#a0edf823a78daed8888e8e18468460617" target="_top" xlink:title="Gives homenode for a given address. ">
<polygon fill="#ffffff" stroke="#000000" points="601,-55 601,-74 690,-74 690,-55 601,-55"/>
<text text-anchor="middle" x="645.5" y="-62" font-family="Helvetica,sans-Serif" font-size="10.00" fill="#000000">get_homenode</text>
</a>
</g>
</g>
<!-- Node15&#45;&gt;Node16 -->
<g id="edge18" class="edge">
<title>Node15&#45;&gt;Node16</title>
<path fill="none" stroke="#191970" d="M528.7983,-64.5C547.8788,-64.5 570.5155,-64.5 590.7506,-64.5"/>
<polygon fill="#191970" stroke="#191970" points="590.7724,-68.0001 600.7724,-64.5 590.7723,-61.0001 590.7724,-68.0001"/>
</g>
<!-- Node18 -->
<g id="node19" class="node">
<title>Node18</title>
<g id="a_node19"><a xlink:href="swdsm_8cpp_ab58b1f9fa1b59d3060f241994979e18f.html#ab58b1f9fa1b59d3060f241994979e18f" target="_top" xlink:title="Gets the offset of an address on the local nodes part of the global memory. ">
<polygon fill="#ffffff" stroke="#000000" points="613,-12 613,-31 678,-31 678,-12 613,-12"/>
<text text-anchor="middle" x="645.5" y="-19" font-family="Helvetica,sans-Serif" font-size="10.00" fill="#000000">get_offset</text>
</a>
</g>
</g>
<!-- Node15&#45;&gt;Node18 -->
<g id="edge20" class="edge">
<title>Node15&#45;&gt;Node18</title>
<path fill="none" stroke="#191970" d="M521.0092,-54.9569C545.2295,-48.4477 577.4273,-39.7945 603.0101,-32.9192"/>
<polygon fill="#191970" stroke="#191970" points="604.0652,-36.2599 612.8141,-30.2843 602.2483,-29.4998 604.0652,-36.2599"/>
</g>
<!-- Node17 -->
<g id="node18" class="node">
<title>Node17</title>
<g id="a_node18"><a xlink:href="classargo_1_1data__distribution_1_1global__ptr_ac7d651586337d08cda18ef26ffcd34a0.html#ac7d651586337d08cda18ef26ffcd34a0" target="_top" xlink:title="return the home node of the value pointed to ">
<polygon fill="#ffffff" stroke="#000000" points="742,-49.5 742,-79.5 869,-79.5 869,-49.5 742,-49.5"/>
<text text-anchor="start" x="750" y="-67.5" font-family="Helvetica,sans-Serif" font-size="10.00" fill="#000000">argo::data_distribution</text>
<text text-anchor="middle" x="805.5" y="-56.5" font-family="Helvetica,sans-Serif" font-size="10.00" fill="#000000">::global_ptr::node</text>
</a>
</g>
</g>
<!-- Node16&#45;&gt;Node17 -->
<g id="edge19" class="edge">
<title>Node16&#45;&gt;Node17</title>
<path fill="none" stroke="#191970" d="M690.0689,-64.5C702.9412,-64.5 717.3472,-64.5 731.5013,-64.5"/>
<polygon fill="#191970" stroke="#191970" points="731.7376,-68.0001 741.7375,-64.5 731.7375,-61.0001 731.7376,-68.0001"/>
</g>
<!-- Node19 -->
<g id="node20" class="node">
<title>Node19</title>
<g id="a_node20"><a xlink:href="classargo_1_1data__distribution_1_1global__ptr_ad8c21c408fa2b926cfd9acfd87e8e4e6.html#ad8c21c408fa2b926cfd9acfd87e8e4e6" target="_top" xlink:title="return the offset on the home node&#39;s local memory share ">
<polygon fill="#ffffff" stroke="#000000" points="742,-.5 742,-30.5 869,-30.5 869,-.5 742,-.5"/>
<text text-anchor="start" x="750" y="-18.5" font-family="Helvetica,sans-Serif" font-size="10.00" fill="#000000">argo::data_distribution</text>
<text text-anchor="middle" x="805.5" y="-7.5" font-family="Helvetica,sans-Serif" font-size="10.00" fill="#000000">::global_ptr::offset</text>
</a>
</g>
</g>
<!-- Node18&#45;&gt;Node19 -->
<g id="edge21" class="edge">
<title>Node18&#45;&gt;Node19</title>
<path fill="none" stroke="#191970" d="M678.2645,-20.2713C693.764,-19.6901 712.9491,-18.9707 731.6797,-18.2683"/>
<polygon fill="#191970" stroke="#191970" points="731.8488,-21.7645 741.7106,-17.8921 731.5864,-14.7694 731.8488,-21.7645"/>
</g>
</g>
</svg>
