<?xml version="1.0" encoding="UTF-8" standalone="no"?>
<!DOCTYPE svg PUBLIC "-//W3C//DTD SVG 1.1//EN"
 "http://www.w3.org/Graphics/SVG/1.1/DTD/svg11.dtd">
<!-- Generated by graphviz version 2.40.1 (20161225.0304)
 -->
<!-- Title: /home/atmerhannah/argodsm/src/synchronization/broadcast.hpp Pages: 1 -->
<!--zoomable 485 -->
<svg id="main" version="1.1" xmlns="http://www.w3.org/2000/svg" xmlns:xlink="http://www.w3.org/1999/xlink" xml:space="preserve" onload="init(evt)">
<style type="text/css"><![CDATA[
.edge:hover path { stroke: red; }
.edge:hover polygon { stroke: red; fill: red; }
]]></style>
<script type="text/javascript"><![CDATA[
var edges = document.getElementsByTagName('g');
if (edges && edges.length) {
  for (var i=0;i<edges.length;i++) {
    if (edges[i].id.substr(0,4)=='edge') {
      edges[i].setAttribute('class','edge');
    }
  }
}
]]></script>
        <defs>
                <circle id="rim" cx="0" cy="0" r="7"/>
                <circle id="rim2" cx="0" cy="0" r="3.5"/>
                <g id="zoomPlus">
                        <use xlink:href="#rim" fill="#404040">
                                <set attributeName="fill" to="#808080" begin="zoomplus.mouseover" end="zoomplus.mouseout"/>
                        </use>
                        <path d="M-4,0h8M0,-4v8" fill="none" stroke="white" stroke-width="1.5" pointer-events="none"/>
                </g>
                <g id="zoomMin">
                        <use xlink:href="#rim" fill="#404040">
                                <set attributeName="fill" to="#808080" begin="zoomminus.mouseover" end="zoomminus.mouseout"/>
                        </use>
                        <path d="M-4,0h8" fill="none" stroke="white" stroke-width="1.5" pointer-events="none"/>
                </g>
                <g id="dirArrow">
                        <path fill="none" stroke="white" stroke-width="1.5" d="M0,-3.0v7 M-2.5,-0.5L0,-3.0L2.5,-0.5"/>
                </g>
               <g id="resetDef">
                       <use xlink:href="#rim2" fill="#404040">
                               <set attributeName="fill" to="#808080" begin="reset.mouseover" end="reset.mouseout"/>
                       </use>
               </g>
        </defs>

<script type="text/javascript">
var viewWidth = 1959;
var viewHeight = 485;
var sectionId = 'dynsection-1';
</script>
<script xlink:href="svgpan.js"/>
<svg id="graph" class="graph">
<g id="viewport">
<title>/home/atmerhannah/argodsm/src/synchronization/broadcast.hpp</title>
<polygon fill="#ffffff" stroke="transparent" points="-4,4 -4,-481 1955,-481 1955,4 -4,4"/>
<!-- Node21 -->
<g id="node1" class="node">
<title>Node21</title>
<polygon fill="#bfbfbf" stroke="#000000" points="660.5,-446.5 660.5,-476.5 846.5,-476.5 846.5,-446.5 660.5,-446.5"/>
<text text-anchor="start" x="668.5" y="-464.5" font-family="Helvetica,sans-Serif" font-size="10.00" fill="#000000">/home/atmerhannah/argodsm</text>
<text text-anchor="middle" x="753.5" y="-453.5" font-family="Helvetica,sans-Serif" font-size="10.00" fill="#000000">/src/synchronization/broadcast.hpp</text>
</g>
<!-- Node22 -->
<g id="node2" class="node">
<title>Node22</title>
<g id="a_node2"><a xlink:href="dynamic__mempool_8hpp.html" target="_top" xlink:title="This file provides a dynamically growing memory pool for ArgoDSM. ">
<polygon fill="#ffffff" stroke="#000000" points="585.5,-379.5 585.5,-409.5 791.5,-409.5 791.5,-379.5 585.5,-379.5"/>
<text text-anchor="start" x="593.5" y="-397.5" font-family="Helvetica,sans-Serif" font-size="10.00" fill="#000000">/home/atmerhannah/argodsm</text>
<text text-anchor="middle" x="688.5" y="-386.5" font-family="Helvetica,sans-Serif" font-size="10.00" fill="#000000">/src/mempools/dynamic_mempool.hpp</text>
</a>
</g>
</g>
<!-- Node21&#45;&gt;Node22 -->
<g id="edge1" class="edge">
<title>Node21&#45;&gt;Node22</title>
<path fill="none" stroke="#191970" d="M731.5992,-438.9253C722.2445,-429.2828 711.5743,-418.2843 703.1911,-409.6432"/>
<polygon fill="#191970" stroke="#191970" points="729.2752,-441.5564 738.7505,-446.2967 734.2994,-436.6821 729.2752,-441.5564"/>
</g>
<!-- Node41 -->
<g id="node21" class="node">
<title>Node41</title>
<g id="a_node21"><a xlink:href="synchronization_8hpp.html" target="_top" xlink:title="This file provides synchronization primitives for ArgoDSM. ">
<polygon fill="#ffffff" stroke="#000000" points="812,-307 812,-337 1027,-337 1027,-307 812,-307"/>
<text text-anchor="start" x="820" y="-325" font-family="Helvetica,sans-Serif" font-size="10.00" fill="#000000">/home/atmerhannah/argodsm</text>
<text text-anchor="middle" x="919.5" y="-314" font-family="Helvetica,sans-Serif" font-size="10.00" fill="#000000">/src/synchronization/synchronization.hpp</text>
</a>
</g>
</g>
<!-- Node21&#45;&gt;Node41 -->
<g id="edge31" class="edge">
<title>Node21&#45;&gt;Node41</title>
<path fill="none" stroke="#191970" d="M779.6564,-439.5192C813.6189,-410.9784 872.0191,-361.9011 901.4414,-337.1758"/>
<polygon fill="#191970" stroke="#191970" points="776.9849,-437.1924 771.5809,-446.3055 781.4884,-442.5514 776.9849,-437.1924"/>
</g>
<!-- Node23 -->
<g id="node3" class="node">
<title>Node23</title>
<g id="a_node3"><a xlink:href="collective__allocator_8hpp.html" target="_top" xlink:title="This file provides the collective allocator for ArgoDSM. ">
<polygon fill="#ffffff" stroke="#000000" points="561,-223.5 561,-264.5 722,-264.5 722,-223.5 561,-223.5"/>
<text text-anchor="start" x="569" y="-252.5" font-family="Helvetica,sans-Serif" font-size="10.00" fill="#000000">/home/atmerhannah/argodsm</text>
<text text-anchor="start" x="569" y="-241.5" font-family="Helvetica,sans-Serif" font-size="10.00" fill="#000000">/src/allocators/collective</text>
<text text-anchor="middle" x="641.5" y="-230.5" font-family="Helvetica,sans-Serif" font-size="10.00" fill="#000000">_allocator.hpp</text>
</a>
</g>
</g>
<!-- Node22&#45;&gt;Node23 -->
<g id="edge2" class="edge">
<title>Node22&#45;&gt;Node23</title>
<path fill="none" stroke="#191970" d="M684.7422,-369.3168C681.5086,-350.2508 676.1472,-323.5798 668.5,-301 664.285,-288.5545 658.089,-275.2523 652.6952,-264.6311"/>
<polygon fill="#191970" stroke="#191970" points="681.3074,-370.0016 686.361,-379.3134 688.2174,-368.8825 681.3074,-370.0016"/>
</g>
<!-- Node40 -->
<g id="node20" class="node">
<title>Node40</title>
<g id="a_node20"><a xlink:href="dynamic__allocator_8hpp.html" target="_top" xlink:title="This file provides the dynamic allocator for ArgoDSM. ">
<polygon fill="#ffffff" stroke="#000000" points="499,-301.5 499,-342.5 660,-342.5 660,-301.5 499,-301.5"/>
<text text-anchor="start" x="507" y="-330.5" font-family="Helvetica,sans-Serif" font-size="10.00" fill="#000000">/home/atmerhannah/argodsm</text>
<text text-anchor="start" x="507" y="-319.5" font-family="Helvetica,sans-Serif" font-size="10.00" fill="#000000">/src/allocators/dynamic</text>
<text text-anchor="middle" x="579.5" y="-308.5" font-family="Helvetica,sans-Serif" font-size="10.00" fill="#000000">_allocator.hpp</text>
</a>
</g>
</g>
<!-- Node22&#45;&gt;Node40 -->
<g id="edge26" class="edge">
<title>Node22&#45;&gt;Node40</title>
<path fill="none" stroke="#191970" d="M657.5777,-373.9324C642.7795,-364.0896 625.1083,-352.3358 610.323,-342.5015"/>
<polygon fill="#191970" stroke="#191970" points="655.6504,-376.854 665.9151,-379.478 659.5271,-371.0255 655.6504,-376.854"/>
</g>
<!-- Node24 -->
<g id="node4" class="node">
<title>Node24</title>
<g id="a_node4"><a xlink:href="src_2allocators_2allocators_8cpp.html" target="_top" xlink:title="This file provides the default allocators. ">
<polygon fill="#ffffff" stroke="#000000" points="338,-151 338,-181 499,-181 499,-151 338,-151"/>
<text text-anchor="start" x="346" y="-169" font-family="Helvetica,sans-Serif" font-size="10.00" fill="#000000">/home/atmerhannah/argodsm</text>
<text text-anchor="middle" x="418.5" y="-158" font-family="Helvetica,sans-Serif" font-size="10.00" fill="#000000">/src/allocators/allocators.cpp</text>
</a>
</g>
</g>
<!-- Node23&#45;&gt;Node24 -->
<g id="edge3" class="edge">
<title>Node23&#45;&gt;Node24</title>
<path fill="none" stroke="#191970" d="M573.0491,-220.0575C536.6597,-207.3294 493.0431,-192.0734 461.4384,-181.0188"/>
<polygon fill="#191970" stroke="#191970" points="572.0228,-223.4064 582.6177,-223.4044 574.334,-216.799 572.0228,-223.4064"/>
</g>
<!-- Node25 -->
<g id="node5" class="node">
<title>Node25</title>
<g id="a_node5"><a xlink:href="allocators_8hpp.html" target="_top" xlink:title="This file provides all C++ allocators for ArgoDSM. ">
<polygon fill="#ffffff" stroke="#000000" points="670,-151 670,-181 831,-181 831,-151 670,-151"/>
<text text-anchor="start" x="678" y="-169" font-family="Helvetica,sans-Serif" font-size="10.00" fill="#000000">/home/atmerhannah/argodsm</text>
<text text-anchor="middle" x="750.5" y="-158" font-family="Helvetica,sans-Serif" font-size="10.00" fill="#000000">/src/allocators/allocators.hpp</text>
</a>
</g>
</g>
<!-- Node23&#45;&gt;Node25 -->
<g id="edge4" class="edge">
<title>Node23&#45;&gt;Node25</title>
<path fill="none" stroke="#191970" d="M678.9795,-217.1798C695.8363,-205.1171 715.1078,-191.3265 729.3959,-181.102"/>
<polygon fill="#191970" stroke="#191970" points="676.5193,-214.6364 670.4238,-223.3022 680.593,-220.329 676.5193,-214.6364"/>
</g>
<!-- Node27 -->
<g id="node7" class="node">
<title>Node27</title>
<g id="a_node7"><a xlink:href="argo_8cpp.html" target="_top" xlink:title="This file implements some of the basic ArgoDSM calls. ">
<polygon fill="#ffffff" stroke="#000000" points="0,-.5 0,-30.5 161,-30.5 161,-.5 0,-.5"/>
<text text-anchor="start" x="8" y="-18.5" font-family="Helvetica,sans-Serif" font-size="10.00" fill="#000000">/home/atmerhannah/argodsm</text>
<text text-anchor="middle" x="80.5" y="-7.5" font-family="Helvetica,sans-Serif" font-size="10.00" fill="#000000">/src/argo.cpp</text>
</a>
</g>
</g>
<!-- Node23&#45;&gt;Node27 -->
<g id="edge17" class="edge">
<title>Node23&#45;&gt;Node27</title>
<path fill="none" stroke="#191970" d="M611.3022,-216.9436C585.3678,-194.9214 546.1513,-164.4094 507.5,-145 391.8896,-86.9442 245.4038,-49.5241 157.5236,-30.5223"/>
<polygon fill="#191970" stroke="#191970" points="609.0445,-219.6183 618.909,-223.4838 613.6082,-214.3104 609.0445,-219.6183"/>
</g>
<!-- Node28 -->
<g id="node8" class="node">
<title>Node28</title>
<g id="a_node8"><a xlink:href="tests_2allocators_8cpp.html" target="_top" xlink:title="This file provides unit tests for the ArgoDSM allocators and memory pools. ">
<polygon fill="#ffffff" stroke="#000000" points="1790,-.5 1790,-30.5 1951,-30.5 1951,-.5 1790,-.5"/>
<text text-anchor="start" x="1798" y="-18.5" font-family="Helvetica,sans-Serif" font-size="10.00" fill="#000000">/home/atmerhannah/argodsm</text>
<text text-anchor="middle" x="1870.5" y="-7.5" font-family="Helvetica,sans-Serif" font-size="10.00" fill="#000000">/tests/allocators.cpp</text>
</a>
</g>
</g>
<!-- Node23&#45;&gt;Node28 -->
<g id="edge21" class="edge">
<title>Node23&#45;&gt;Node28</title>
<path fill="none" stroke="#191970" d="M732.1694,-241.8055C858.6767,-237.445 1094.862,-224.5767 1292.5,-187 1498.9296,-147.7517 1737.0374,-64.597 1830.1993,-30.5322"/>
<polygon fill="#191970" stroke="#191970" points="732.013,-238.3087 722.1357,-242.1413 732.2472,-245.3047 732.013,-238.3087"/>
</g>
<!-- Node29 -->
<g id="node9" class="node">
<title>Node29</title>
<g id="a_node9"><a xlink:href="api_8cpp.html" target="_top" xlink:title="This file provides unit tests for the ArgoDSM API functions. ">
<polygon fill="#ffffff" stroke="#000000" points="358,-.5 358,-30.5 519,-30.5 519,-.5 358,-.5"/>
<text text-anchor="start" x="366" y="-18.5" font-family="Helvetica,sans-Serif" font-size="10.00" fill="#000000">/home/atmerhannah/argodsm</text>
<text text-anchor="middle" x="438.5" y="-7.5" font-family="Helvetica,sans-Serif" font-size="10.00" fill="#000000">/tests/api.cpp</text>
</a>
</g>
</g>
<!-- Node23&#45;&gt;Node29 -->
<g id="edge22" class="edge">
<title>Node23&#45;&gt;Node29</title>
<path fill="none" stroke="#191970" d="M634.226,-213.6892C622.9429,-168.9196 600.346,-88.1244 579.5,-67 562.4762,-49.7488 539.213,-38.2351 516.4904,-30.5668"/>
<polygon fill="#191970" stroke="#191970" points="630.8431,-214.5888 636.6506,-223.4501 637.6366,-212.9013 630.8431,-214.5888"/>
</g>
<!-- Node32 -->
<g id="node12" class="node">
<title>Node32</title>
<g id="a_node12"><a xlink:href="lock_8cpp.html" target="_top" xlink:title="This file provides unit tests for the ArgoDSM locks. ">
<polygon fill="#ffffff" stroke="#000000" points="1611,-.5 1611,-30.5 1772,-30.5 1772,-.5 1611,-.5"/>
<text text-anchor="start" x="1619" y="-18.5" font-family="Helvetica,sans-Serif" font-size="10.00" fill="#000000">/home/atmerhannah/argodsm</text>
<text text-anchor="middle" x="1691.5" y="-7.5" font-family="Helvetica,sans-Serif" font-size="10.00" fill="#000000">/tests/lock.cpp</text>
</a>
</g>
</g>
<!-- Node23&#45;&gt;Node32 -->
<g id="edge23" class="edge">
<title>Node23&#45;&gt;Node32</title>
<path fill="none" stroke="#191970" d="M725.7765,-220.6048C761.0234,-210.5959 802.3499,-198.5677 839.5,-187 999.7241,-137.1097 1033.2377,-101.3319 1197.5,-67 1374.3874,-30.0293 1423.3279,-54.5232 1602.5,-31 1605.1436,-30.6529 1607.8285,-30.2836 1610.5377,-29.8965"/>
<polygon fill="#191970" stroke="#191970" points="724.6727,-217.2797 716.0048,-223.3722 726.5802,-224.0148 724.6727,-217.2797"/>
</g>
<!-- Node33 -->
<g id="node13" class="node">
<title>Node33</title>
<g id="a_node13"><a xlink:href="omp_8cpp.html" target="_top" xlink:title="This file provides tests using OpenMP in ArgoDSM. ">
<polygon fill="#ffffff" stroke="#000000" points="179,-.5 179,-30.5 340,-30.5 340,-.5 179,-.5"/>
<text text-anchor="start" x="187" y="-18.5" font-family="Helvetica,sans-Serif" font-size="10.00" fill="#000000">/home/atmerhannah/argodsm</text>
<text text-anchor="middle" x="259.5" y="-7.5" font-family="Helvetica,sans-Serif" font-size="10.00" fill="#000000">/tests/omp.cpp</text>
</a>
</g>
</g>
<!-- Node23&#45;&gt;Node33 -->
<g id="edge24" class="edge">
<title>Node23&#45;&gt;Node33</title>
<path fill="none" stroke="#191970" d="M625.6637,-214.4693C599.2152,-165.37 548.2702,-71.8188 541.5,-67 539.4093,-65.5119 422.8651,-44.5479 340.2736,-29.8318"/>
<polygon fill="#191970" stroke="#191970" points="622.6337,-216.2247 630.4538,-223.3729 628.7982,-212.9082 622.6337,-216.2247"/>
</g>
<!-- Node34 -->
<g id="node14" class="node">
<title>Node34</title>
<g id="a_node14"><a xlink:href="prefetch_8cpp.html" target="_top" xlink:title="This file provides unit tests for the ArgoDSM prefetch mechanism. ">
<polygon fill="#ffffff" stroke="#000000" points="537,-.5 537,-30.5 698,-30.5 698,-.5 537,-.5"/>
<text text-anchor="start" x="545" y="-18.5" font-family="Helvetica,sans-Serif" font-size="10.00" fill="#000000">/home/atmerhannah/argodsm</text>
<text text-anchor="middle" x="617.5" y="-7.5" font-family="Helvetica,sans-Serif" font-size="10.00" fill="#000000">/tests/prefetch.cpp</text>
</a>
</g>
</g>
<!-- Node23&#45;&gt;Node34 -->
<g id="edge25" class="edge">
<title>Node23&#45;&gt;Node34</title>
<path fill="none" stroke="#191970" d="M638.2636,-213.1863C633.0533,-163.5804 622.9962,-67.8285 619.0982,-30.7159"/>
<polygon fill="#191970" stroke="#191970" points="634.8023,-213.7395 639.3278,-223.3191 641.764,-213.0082 634.8023,-213.7395"/>
</g>
<!-- Node38 -->
<g id="node18" class="node">
<title>Node38</title>
<g id="a_node18"><a xlink:href="cohort__lock_8hpp.html" target="_top" xlink:title="This file provides a cohort lock for the ArgoDSM system. ">
<polygon fill="#ffffff" stroke="#000000" points="1122,-145.5 1122,-186.5 1283,-186.5 1283,-145.5 1122,-145.5"/>
<text text-anchor="start" x="1130" y="-174.5" font-family="Helvetica,sans-Serif" font-size="10.00" fill="#000000">/home/atmerhannah/argodsm</text>
<text text-anchor="start" x="1130" y="-163.5" font-family="Helvetica,sans-Serif" font-size="10.00" fill="#000000">/src/synchronization/cohort</text>
<text text-anchor="middle" x="1202.5" y="-152.5" font-family="Helvetica,sans-Serif" font-size="10.00" fill="#000000">_lock.hpp</text>
</a>
</g>
</g>
<!-- Node23&#45;&gt;Node38 -->
<g id="edge18" class="edge">
<title>Node23&#45;&gt;Node38</title>
<path fill="none" stroke="#191970" d="M732.3973,-231.3619C840.338,-216.3541 1018.707,-191.5541 1121.9105,-177.205"/>
<polygon fill="#191970" stroke="#191970" points="731.5988,-227.9391 722.1761,-232.783 732.5629,-234.8724 731.5988,-227.9391"/>
</g>
<!-- Node26 -->
<g id="node6" class="node">
<title>Node26</title>
<g id="a_node6"><a xlink:href="argo_8hpp.html" target="_top" xlink:title="This file provides the full C++ interface to ArgoDSM. ">
<polygon fill="#ffffff" stroke="#000000" points="716,-73 716,-103 877,-103 877,-73 716,-73"/>
<text text-anchor="start" x="724" y="-91" font-family="Helvetica,sans-Serif" font-size="10.00" fill="#000000">/home/atmerhannah/argodsm</text>
<text text-anchor="middle" x="796.5" y="-80" font-family="Helvetica,sans-Serif" font-size="10.00" fill="#000000">/src/argo.hpp</text>
</a>
</g>
</g>
<!-- Node25&#45;&gt;Node26 -->
<g id="edge5" class="edge">
<title>Node25&#45;&gt;Node26</title>
<path fill="none" stroke="#191970" d="M764.4911,-142.2759C771.969,-129.596 780.9559,-114.3574 787.501,-103.2592"/>
<polygon fill="#191970" stroke="#191970" points="761.4344,-140.5692 759.3693,-150.9608 767.4639,-144.1251 761.4344,-140.5692"/>
</g>
<!-- Node26&#45;&gt;Node27 -->
<g id="edge6" class="edge">
<title>Node26&#45;&gt;Node27</title>
<path fill="none" stroke="#191970" d="M705.797,-80.6747C557.7804,-68.5652 270.6583,-44.384 169.5,-31 166.8568,-30.6503 164.1721,-30.2787 161.4632,-29.8896"/>
<polygon fill="#191970" stroke="#191970" points="705.5238,-84.1639 715.7757,-81.49 706.0939,-77.1872 705.5238,-84.1639"/>
</g>
<!-- Node26&#45;&gt;Node28 -->
<g id="edge7" class="edge">
<title>Node26&#45;&gt;Node28</title>
<path fill="none" stroke="#191970" d="M887.4941,-83.3321C1114.5691,-71.598 1694.2517,-41.0882 1781.5,-31 1784.1486,-30.6937 1786.838,-30.3598 1789.5509,-30.0032"/>
<polygon fill="#191970" stroke="#191970" points="887.0832,-79.8485 877.2771,-83.8596 887.4443,-86.8392 887.0832,-79.8485"/>
</g>
<!-- Node26&#45;&gt;Node29 -->
<g id="edge8" class="edge">
<title>Node26&#45;&gt;Node29</title>
<path fill="none" stroke="#191970" d="M712.3971,-70.968C651.788,-58.6938 570.7595,-42.2844 512.5828,-30.5028"/>
<polygon fill="#191970" stroke="#191970" points="711.8264,-74.4234 722.3222,-72.978 713.2159,-67.5627 711.8264,-74.4234"/>
</g>
<!-- Node30 -->
<g id="node10" class="node">
<title>Node30</title>
<g id="a_node10"><a xlink:href="backend_8cpp.html" target="_top" xlink:title="This file provides tests for the backends. ">
<polygon fill="#ffffff" stroke="#000000" points="1253,-.5 1253,-30.5 1414,-30.5 1414,-.5 1253,-.5"/>
<text text-anchor="start" x="1261" y="-18.5" font-family="Helvetica,sans-Serif" font-size="10.00" fill="#000000">/home/atmerhannah/argodsm</text>
<text text-anchor="middle" x="1333.5" y="-7.5" font-family="Helvetica,sans-Serif" font-size="10.00" fill="#000000">/tests/backend.cpp</text>
</a>
</g>
</g>
<!-- Node26&#45;&gt;Node30 -->
<g id="edge9" class="edge">
<title>Node26&#45;&gt;Node30</title>
<path fill="none" stroke="#191970" d="M869.6609,-70.9373C877.0166,-69.4895 884.3916,-68.1442 891.5,-67 1047.1986,-41.9385 1088.2756,-52.5424 1244.5,-31 1247.1413,-30.6358 1249.8242,-30.2516 1252.5317,-29.8517"/>
<polygon fill="#191970" stroke="#191970" points="868.7729,-67.5462 859.6692,-72.9659 870.1657,-74.4062 868.7729,-67.5462"/>
</g>
<!-- Node31 -->
<g id="node11" class="node">
<title>Node31</title>
<g id="a_node11"><a xlink:href="barrier_8cpp.html" target="_top" xlink:title="This file provides tests for the barrier synchronization. ">
<polygon fill="#ffffff" stroke="#000000" points="1432,-.5 1432,-30.5 1593,-30.5 1593,-.5 1432,-.5"/>
<text text-anchor="start" x="1440" y="-18.5" font-family="Helvetica,sans-Serif" font-size="10.00" fill="#000000">/home/atmerhannah/argodsm</text>
<text text-anchor="middle" x="1512.5" y="-7.5" font-family="Helvetica,sans-Serif" font-size="10.00" fill="#000000">/tests/barrier.cpp</text>
</a>
</g>
</g>
<!-- Node26&#45;&gt;Node31 -->
<g id="edge10" class="edge">
<title>Node26&#45;&gt;Node31</title>
<path fill="none" stroke="#191970" d="M868.0277,-70.9894C875.9176,-69.4713 883.8585,-68.0968 891.5,-67 1126.0811,-33.3297 1188.219,-59.3693 1423.5,-31 1426.1471,-30.6808 1428.8351,-30.3357 1431.5469,-29.9694"/>
<polygon fill="#191970" stroke="#191970" points="867.2061,-67.5844 858.0876,-72.979 868.58,-74.4482 867.2061,-67.5844"/>
</g>
<!-- Node26&#45;&gt;Node32 -->
<g id="edge11" class="edge">
<title>Node26&#45;&gt;Node32</title>
<path fill="none" stroke="#191970" d="M867.194,-71.0129C875.355,-69.4569 883.5859,-68.0675 891.5,-67 1205.0653,-24.706 1288.0603,-66.2088 1602.5,-31 1605.1497,-30.7033 1607.84,-30.3777 1610.5537,-30.0282"/>
<polygon fill="#191970" stroke="#191970" points="866.424,-67.5974 857.3001,-72.9831 867.7912,-74.4626 866.424,-67.5974"/>
</g>
<!-- Node26&#45;&gt;Node33 -->
<g id="edge12" class="edge">
<title>Node26&#45;&gt;Node33</title>
<path fill="none" stroke="#191970" d="M705.8557,-77.7036C615.2392,-67.1196 471.9896,-49.5992 348.5,-31 345.7084,-30.5795 342.8693,-30.1416 340.0033,-29.6907"/>
<polygon fill="#191970" stroke="#191970" points="705.4831,-81.1838 715.821,-78.8644 706.2931,-74.2308 705.4831,-81.1838"/>
</g>
<!-- Node26&#45;&gt;Node34 -->
<g id="edge13" class="edge">
<title>Node26&#45;&gt;Node34</title>
<path fill="none" stroke="#191970" d="M750.0706,-69.1948C720.3271,-57.1478 682.2503,-41.7257 654.5414,-30.5028"/>
<polygon fill="#191970" stroke="#191970" points="748.8285,-72.4679 759.4111,-72.978 751.4564,-65.9798 748.8285,-72.4679"/>
</g>
<!-- Node35 -->
<g id="node15" class="node">
<title>Node35</title>
<g id="a_node15"><a xlink:href="stlallocation_8cpp.html" target="_top" xlink:title="This file provides tests using C++ interfaces in ArgoDSM. ">
<polygon fill="#ffffff" stroke="#000000" points="716,-.5 716,-30.5 877,-30.5 877,-.5 716,-.5"/>
<text text-anchor="start" x="724" y="-18.5" font-family="Helvetica,sans-Serif" font-size="10.00" fill="#000000">/home/atmerhannah/argodsm</text>
<text text-anchor="middle" x="796.5" y="-7.5" font-family="Helvetica,sans-Serif" font-size="10.00" fill="#000000">/tests/stlallocation.cpp</text>
</a>
</g>
</g>
<!-- Node26&#45;&gt;Node35 -->
<g id="edge14" class="edge">
<title>Node26&#45;&gt;Node35</title>
<path fill="none" stroke="#191970" d="M796.5,-62.8409C796.5,-52.0601 796.5,-39.8309 796.5,-30.5028"/>
<polygon fill="#191970" stroke="#191970" points="793.0001,-62.9779 796.5,-72.978 800.0001,-62.978 793.0001,-62.9779"/>
</g>
<!-- Node36 -->
<g id="node16" class="node">
<title>Node36</title>
<g id="a_node16"><a xlink:href="trivial_8cpp.html" target="_top" xlink:title="This file provides unit tests for trivial sanity checks when using ArgoDSM. ">
<polygon fill="#ffffff" stroke="#000000" points="895,-.5 895,-30.5 1056,-30.5 1056,-.5 895,-.5"/>
<text text-anchor="start" x="903" y="-18.5" font-family="Helvetica,sans-Serif" font-size="10.00" fill="#000000">/home/atmerhannah/argodsm</text>
<text text-anchor="middle" x="975.5" y="-7.5" font-family="Helvetica,sans-Serif" font-size="10.00" fill="#000000">/tests/trivial.cpp</text>
</a>
</g>
</g>
<!-- Node26&#45;&gt;Node36 -->
<g id="edge15" class="edge">
<title>Node26&#45;&gt;Node36</title>
<path fill="none" stroke="#191970" d="M842.9294,-69.1948C872.6729,-57.1478 910.7497,-41.7257 938.4586,-30.5028"/>
<polygon fill="#191970" stroke="#191970" points="841.5436,-65.9798 833.5889,-72.978 844.1715,-72.4679 841.5436,-65.9798"/>
</g>
<!-- Node37 -->
<g id="node17" class="node">
<title>Node37</title>
<g id="a_node17"><a xlink:href="uninitialized_8cpp.html" target="_top" xlink:title="This file provides unit tests for accessing ArgoDSM memory in various ways. ">
<polygon fill="#ffffff" stroke="#000000" points="1074,-.5 1074,-30.5 1235,-30.5 1235,-.5 1074,-.5"/>
<text text-anchor="start" x="1082" y="-18.5" font-family="Helvetica,sans-Serif" font-size="10.00" fill="#000000">/home/atmerhannah/argodsm</text>
<text text-anchor="middle" x="1154.5" y="-7.5" font-family="Helvetica,sans-Serif" font-size="10.00" fill="#000000">/tests/uninitialized.cpp</text>
</a>
</g>
</g>
<!-- Node26&#45;&gt;Node37 -->
<g id="edge16" class="edge">
<title>Node26&#45;&gt;Node37</title>
<path fill="none" stroke="#191970" d="M873.5979,-70.7929C879.6515,-69.492 885.6737,-68.2142 891.5,-67 952.9902,-54.1852 1022.7655,-40.5643 1074.9878,-30.5512"/>
<polygon fill="#191970" stroke="#191970" points="872.4432,-67.4616 863.4092,-72.9968 873.9232,-74.3034 872.4432,-67.4616"/>
</g>
<!-- Node38&#45;&gt;Node32 -->
<g id="edge20" class="edge">
<title>Node38&#45;&gt;Node32</title>
<path fill="none" stroke="#191970" d="M1199.8578,-135.1099C1199.7906,-112.8247 1203.8248,-83.8124 1222.5,-67 1285.5401,-10.2478 1518.4315,-42.2853 1602.5,-31 1605.1426,-30.6453 1607.8266,-30.2693 1610.5351,-29.8765"/>
<polygon fill="#191970" stroke="#191970" points="1196.3596,-135.2254 1200.1565,-145.1165 1203.3565,-135.0165 1196.3596,-135.2254"/>
</g>
<!-- Node39 -->
<g id="node19" class="node">
<title>Node39</title>
<g id="a_node19"><a xlink:href="cohort__lock_8cpp_source.html" target="_top" xlink:title="/home/atmerhannah/argodsm\l/src/synchronization/cohort\l_lock.cpp">
<polygon fill="#ffffff" stroke="#000000" points="1231,-67.5 1231,-108.5 1392,-108.5 1392,-67.5 1231,-67.5"/>
<text text-anchor="start" x="1239" y="-96.5" font-family="Helvetica,sans-Serif" font-size="10.00" fill="#000000">/home/atmerhannah/argodsm</text>
<text text-anchor="start" x="1239" y="-85.5" font-family="Helvetica,sans-Serif" font-size="10.00" fill="#000000">/src/synchronization/cohort</text>
<text text-anchor="middle" x="1311.5" y="-74.5" font-family="Helvetica,sans-Serif" font-size="10.00" fill="#000000">_lock.cpp</text>
</a>
</g>
</g>
<!-- Node38&#45;&gt;Node39 -->
<g id="edge19" class="edge">
<title>Node38&#45;&gt;Node39</title>
<path fill="none" stroke="#191970" d="M1239.9133,-139.2272C1253.959,-129.1761 1269.6892,-117.9196 1282.8192,-108.5239"/>
<polygon fill="#191970" stroke="#191970" points="1237.5193,-136.6364 1231.4238,-145.3022 1241.593,-142.329 1237.5193,-136.6364"/>
</g>
<!-- Node40&#45;&gt;Node23 -->
<g id="edge27" class="edge">
<title>Node40&#45;&gt;Node23</title>
<path fill="none" stroke="#191970" d="M602.4793,-293.0905C609.9733,-283.6626 618.1388,-273.3899 625.0543,-264.6898"/>
<polygon fill="#191970" stroke="#191970" points="599.5975,-291.0913 596.1149,-301.0974 605.0772,-295.447 599.5975,-291.0913"/>
</g>
<!-- Node40&#45;&gt;Node24 -->
<g id="edge28" class="edge">
<title>Node40&#45;&gt;Node24</title>
<path fill="none" stroke="#191970" d="M550.7795,-294.1715C516.7031,-261.1533 461.1214,-207.2978 434.157,-181.1708"/>
<polygon fill="#191970" stroke="#191970" points="548.5032,-296.8393 558.1204,-301.2844 553.3743,-291.8121 548.5032,-296.8393"/>
</g>
<!-- Node40&#45;&gt;Node25 -->
<g id="edge29" class="edge">
<title>Node40&#45;&gt;Node25</title>
<path fill="none" stroke="#191970" d="M670.0295,-304.3199C692.6319,-295.8708 714.8571,-283.3996 730.5,-265 750.7166,-241.2205 752.4887,-202.6469 751.6918,-181.3486"/>
<polygon fill="#191970" stroke="#191970" points="668.6273,-301.1021 660.3378,-307.7002 670.9326,-307.7116 668.6273,-301.1021"/>
</g>
<!-- Node40&#45;&gt;Node27 -->
<g id="edge30" class="edge">
<title>Node40&#45;&gt;Node27</title>
<path fill="none" stroke="#191970" d="M528.606,-296.7397C477.2289,-270.7515 396.0397,-228.3387 328.5,-187 240.989,-133.4376 142.1062,-61.3625 100.562,-30.5195"/>
<polygon fill="#191970" stroke="#191970" points="527.3374,-300.0197 537.8423,-301.3971 530.4892,-293.7694 527.3374,-300.0197"/>
</g>
<!-- Node41&#45;&gt;Node26 -->
<g id="edge32" class="edge">
<title>Node41&#45;&gt;Node26</title>
<path fill="none" stroke="#191970" d="M910.3626,-297.3263C896.9555,-262.3189 870.1913,-196.739 839.5,-145 830.6461,-130.0742 818.6161,-114.4264 809.5317,-103.3102"/>
<polygon fill="#191970" stroke="#191970" points="907.119,-298.6442 913.9334,-306.7569 913.6655,-296.1654 907.119,-298.6442"/>
</g>
</g>
</svg>
        <g id="navigator" transform="translate(0 0)" fill="#404254">
                <rect fill="#f2f5e9" fill-opacity="0.5" stroke="#606060" stroke-width=".5" x="0" y="0" width="60" height="60"/>
                <use id="zoomplus" xlink:href="#zoomPlus" x="17" y="9" onmousedown="handleZoom(evt,'in')"/>
                <use id="zoomminus" xlink:href="#zoomMin" x="42" y="9" onmousedown="handleZoom(evt,'out')"/>
                <use id="reset" xlink:href="#resetDef" x="30" y="36" onmousedown="handleReset()"/>
                <g id="arrowUp" xlink:href="#dirArrow" transform="translate(30 24)" onmousedown="handlePan(0,-1)">
                  <use xlink:href="#rim" fill="#404040">
                        <set attributeName="fill" to="#808080" begin="arrowUp.mouseover" end="arrowUp.mouseout"/>
                  </use>
                  <path fill="none" stroke="white" stroke-width="1.5" d="M0,-3.0v7 M-2.5,-0.5L0,-3.0L2.5,-0.5"/>
                </g>
                <g id="arrowRight" xlink:href="#dirArrow" transform="rotate(90) translate(36 -43)" onmousedown="handlePan(1,0)">
                  <use xlink:href="#rim" fill="#404040">
                        <set attributeName="fill" to="#808080" begin="arrowRight.mouseover" end="arrowRight.mouseout"/>
                  </use>
                  <path fill="none" stroke="white" stroke-width="1.5" d="M0,-3.0v7 M-2.5,-0.5L0,-3.0L2.5,-0.5"/>
                </g>
                <g id="arrowDown" xlink:href="#dirArrow" transform="rotate(180) translate(-30 -48)" onmousedown="handlePan(0,1)">
                  <use xlink:href="#rim" fill="#404040">
                        <set attributeName="fill" to="#808080" begin="arrowDown.mouseover" end="arrowDown.mouseout"/>
                  </use>
                  <path fill="none" stroke="white" stroke-width="1.5" d="M0,-3.0v7 M-2.5,-0.5L0,-3.0L2.5,-0.5"/>
                </g>
                <g id="arrowLeft" xlink:href="#dirArrow" transform="rotate(270) translate(-36 17)" onmousedown="handlePan(-1,0)">
                  <use xlink:href="#rim" fill="#404040">
                        <set attributeName="fill" to="#808080" begin="arrowLeft.mouseover" end="arrowLeft.mouseout"/>
                  </use>
                  <path fill="none" stroke="white" stroke-width="1.5" d="M0,-3.0v7 M-2.5,-0.5L0,-3.0L2.5,-0.5"/>
                </g>
        </g>
        <svg viewBox="0 0 15 15" width="100%" height="30px" preserveAspectRatio="xMaxYMin meet">
         <g id="arrow_out" transform="scale(0.3 0.3)">
          <a xlink:href="broadcast_8hpp__dep__incl_org.svg" target="_base">
           <rect id="button" ry="5" rx="5" y="6" x="6" height="38" width="38"
                fill="#f2f5e9" fill-opacity="0.5" stroke="#606060" stroke-width="1.0"/>
           <path id="arrow"
             d="M 11.500037,31.436501 C 11.940474,20.09759 22.043105,11.32322 32.158766,21.979434 L 37.068811,17.246167 C 37.068811,17.246167 37.088388,32 37.088388,32 L 22.160133,31.978069 C 22.160133,31.978069 26.997745,27.140456 26.997745,27.140456 C 18.528582,18.264221 13.291696,25.230495 11.500037,31.436501 z"
             style="fill:#404040;"/>
          </a>
         </g>
        </svg>
</svg>
