<?xml version="1.0" encoding="UTF-8" standalone="no"?>
<!DOCTYPE svg PUBLIC "-//W3C//DTD SVG 1.1//EN"
 "http://www.w3.org/Graphics/SVG/1.1/DTD/svg11.dtd">
<!-- Generated by graphviz version 2.40.1 (20161225.0304)
 -->
<!-- Title: write_buffer::sort Pages: 1 -->
<!--zoomable 292 -->
<svg id="main" version="1.1" xmlns="http://www.w3.org/2000/svg" xmlns:xlink="http://www.w3.org/1999/xlink" xml:space="preserve" onload="init(evt)">
<style type="text/css"><![CDATA[
.edge:hover path { stroke: red; }
.edge:hover polygon { stroke: red; fill: red; }
]]></style>
<script type="text/javascript"><![CDATA[
var edges = document.getElementsByTagName('g');
if (edges && edges.length) {
  for (var i=0;i<edges.length;i++) {
    if (edges[i].id.substr(0,4)=='edge') {
      edges[i].setAttribute('class','edge');
    }
  }
}
]]></script>
        <defs>
                <circle id="rim" cx="0" cy="0" r="7"/>
                <circle id="rim2" cx="0" cy="0" r="3.5"/>
                <g id="zoomPlus">
                        <use xlink:href="#rim" fill="#404040">
                                <set attributeName="fill" to="#808080" begin="zoomplus.mouseover" end="zoomplus.mouseout"/>
                        </use>
                        <path d="M-4,0h8M0,-4v8" fill="none" stroke="white" stroke-width="1.5" pointer-events="none"/>
                </g>
                <g id="zoomMin">
                        <use xlink:href="#rim" fill="#404040">
                                <set attributeName="fill" to="#808080" begin="zoomminus.mouseover" end="zoomminus.mouseout"/>
                        </use>
                        <path d="M-4,0h8" fill="none" stroke="white" stroke-width="1.5" pointer-events="none"/>
                </g>
                <g id="dirArrow">
                        <path fill="none" stroke="white" stroke-width="1.5" d="M0,-3.0v7 M-2.5,-0.5L0,-3.0L2.5,-0.5"/>
                </g>
               <g id="resetDef">
                       <use xlink:href="#rim2" fill="#404040">
                               <set attributeName="fill" to="#808080" begin="reset.mouseover" end="reset.mouseout"/>
                       </use>
               </g>
        </defs>

<script type="text/javascript">
var viewWidth = 984;
var viewHeight = 292;
var sectionId = 'dynsection-1';
</script>
<script xlink:href="svgpan.js"/>
<svg id="graph" class="graph">
<g id="viewport">
<title>write_buffer::sort</title>
<polygon fill="#ffffff" stroke="transparent" points="-4,4 -4,-288 980,-288 980,4 -4,4"/>
<!-- Node10 -->
<g id="node1" class="node">
<title>Node10</title>
<polygon fill="#bfbfbf" stroke="#000000" points="0,-103.5 0,-122.5 100,-122.5 100,-103.5 0,-103.5"/>
<text text-anchor="middle" x="50" y="-110.5" font-family="Helvetica,sans-Serif" font-size="10.00" fill="#000000">write_buffer::sort</text>
</g>
<!-- Node11 -->
<g id="node2" class="node">
<title>Node11</title>
<g id="a_node2"><a xlink:href="classwrite__buffer_aca2e330e17a38c1cc8d8c60701ce9dd7.html#aca2e330e17a38c1cc8d8c60701ce9dd7" target="_top" xlink:title="Flushes the ArgoDSM write buffer to memory. ">
<polygon fill="#ffffff" stroke="#000000" points="136,-103.5 136,-122.5 240,-122.5 240,-103.5 136,-103.5"/>
<text text-anchor="middle" x="188" y="-110.5" font-family="Helvetica,sans-Serif" font-size="10.00" fill="#000000">write_buffer::flush</text>
</a>
</g>
</g>
<!-- Node10&#45;&gt;Node11 -->
<g id="edge1" class="edge">
<title>Node10&#45;&gt;Node11</title>
<path fill="none" stroke="#191970" d="M110.3923,-113C118.8382,-113 127.4588,-113 135.7374,-113"/>
<polygon fill="#191970" stroke="#191970" points="110.2116,-109.5001 100.2115,-113 110.2115,-116.5001 110.2116,-109.5001"/>
</g>
<!-- Node12 -->
<g id="node3" class="node">
<title>Node12</title>
<g id="a_node3"><a xlink:href="swdsm_8h_aa7c3a2de6bbafdaf68fe6ceb6110ab97.html#aa7c3a2de6bbafdaf68fe6ceb6110ab97" target="_top" xlink:title="Self&#45;Invalidates all memory that has potential writers. ">
<polygon fill="#ffffff" stroke="#000000" points="276,-103.5 276,-122.5 374,-122.5 374,-103.5 276,-103.5"/>
<text text-anchor="middle" x="325" y="-110.5" font-family="Helvetica,sans-Serif" font-size="10.00" fill="#000000">self_invalidation</text>
</a>
</g>
</g>
<!-- Node11&#45;&gt;Node12 -->
<g id="edge2" class="edge">
<title>Node11&#45;&gt;Node12</title>
<path fill="none" stroke="#191970" d="M250.4154,-113C258.8824,-113 267.4744,-113 275.6684,-113"/>
<polygon fill="#191970" stroke="#191970" points="250.1847,-109.5001 240.1846,-113 250.1846,-116.5001 250.1847,-109.5001"/>
</g>
<!-- Node13 -->
<g id="node4" class="node">
<title>Node13</title>
<g id="a_node4"><a xlink:href="swdsm_8h_ad3f5bdae81c60ac704dda7372792427d.html#ad3f5bdae81c60ac704dda7372792427d" target="_top" xlink:title="Global barrier for ArgoDSM &#45; needs to be called by every thread in the system that need coherent view...">
<polygon fill="#ffffff" stroke="#000000" points="410,-169.5 410,-188.5 526,-188.5 526,-169.5 410,-169.5"/>
<text text-anchor="middle" x="468" y="-176.5" font-family="Helvetica,sans-Serif" font-size="10.00" fill="#000000">swdsm_argo_barrier</text>
</a>
</g>
</g>
<!-- Node11&#45;&gt;Node13 -->
<g id="edge16" class="edge">
<title>Node11&#45;&gt;Node13</title>
<path fill="none" stroke="#191970" d="M238.1526,-124.8217C292.3202,-137.5898 377.5596,-157.6819 427.5969,-169.4764"/>
<polygon fill="#191970" stroke="#191970" points="238.9517,-121.4142 228.4154,-122.5265 237.3456,-128.2275 238.9517,-121.4142"/>
</g>
<!-- Node25 -->
<g id="node16" class="node">
<title>Node25</title>
<g id="a_node16"><a xlink:href="swdsm_8h_ad390eb58e1be03ed6a0939fae7ebd20a.html#ad390eb58e1be03ed6a0939fae7ebd20a" target="_top" xlink:title="Release function for ArgoDSM (Release according to Release Consistency) ">
<polygon fill="#ffffff" stroke="#000000" points="428,-56.5 428,-75.5 508,-75.5 508,-56.5 428,-56.5"/>
<text text-anchor="middle" x="468" y="-63.5" font-family="Helvetica,sans-Serif" font-size="10.00" fill="#000000">argo_release</text>
</a>
</g>
</g>
<!-- Node11&#45;&gt;Node25 -->
<g id="edge17" class="edge">
<title>Node11&#45;&gt;Node25</title>
<path fill="none" stroke="#191970" d="M239.3747,-101.295C251.3634,-98.7339 264.1039,-96.1491 276,-94 328.2102,-84.5679 388.8519,-76.1433 427.7882,-71.0567"/>
<polygon fill="#191970" stroke="#191970" points="238.5483,-97.8928 229.516,-103.4306 240.0303,-104.7341 238.5483,-97.8928"/>
</g>
<!-- Node12&#45;&gt;Node13 -->
<g id="edge3" class="edge">
<title>Node12&#45;&gt;Node13</title>
<path fill="none" stroke="#191970" d="M354.9935,-126.8432C382.6286,-139.5978 422.9181,-158.1929 447.1815,-169.3915"/>
<polygon fill="#191970" stroke="#191970" points="356.3398,-123.6097 345.7934,-122.597 353.4063,-129.9655 356.3398,-123.6097"/>
</g>
<!-- Node21 -->
<g id="node12" class="node">
<title>Node21</title>
<g id="a_node12"><a xlink:href="swdsm_8h_a44b8bb7a3c8b47b4f9552c8e10b25e4b.html#a44b8bb7a3c8b47b4f9552c8e10b25e4b" target="_top" xlink:title="acquire function for ArgoDSM (Acquire according to Release Consistency) ">
<polygon fill="#ffffff" stroke="#000000" points="428,-94.5 428,-113.5 508,-113.5 508,-94.5 428,-94.5"/>
<text text-anchor="middle" x="468" y="-101.5" font-family="Helvetica,sans-Serif" font-size="10.00" fill="#000000">argo_acquire</text>
</a>
</g>
</g>
<!-- Node12&#45;&gt;Node21 -->
<g id="edge11" class="edge">
<title>Node12&#45;&gt;Node21</title>
<path fill="none" stroke="#191970" d="M384.2047,-109.2738C398.8469,-108.3523 414.1985,-107.3861 427.7026,-106.5362"/>
<polygon fill="#191970" stroke="#191970" points="383.9729,-105.7814 374.2125,-109.9027 384.4126,-112.7676 383.9729,-105.7814"/>
</g>
<!-- Node14 -->
<g id="node5" class="node">
<title>Node14</title>
<g id="a_node5"><a xlink:href="backend_8hpp_af1a647431651556204709451bebb5a42.html#af1a647431651556204709451bebb5a42" target="_top" xlink:title="a simple collective barrier ">
<polygon fill="#ffffff" stroke="#000000" points="564,-264.5 564,-283.5 688,-283.5 688,-264.5 564,-264.5"/>
<text text-anchor="middle" x="626" y="-271.5" font-family="Helvetica,sans-Serif" font-size="10.00" fill="#000000">argo::backend::barrier</text>
</a>
</g>
</g>
<!-- Node13&#45;&gt;Node14 -->
<g id="edge4" class="edge">
<title>Node13&#45;&gt;Node14</title>
<path fill="none" stroke="#191970" d="M484.4898,-195.7616C502.2011,-212.8894 531.8809,-239.1567 562,-255 569.1805,-258.7771 577.2193,-261.9092 585.1101,-264.4666"/>
<polygon fill="#191970" stroke="#191970" points="486.8128,-193.1368 477.2358,-188.6055 481.8968,-198.1201 486.8128,-193.1368"/>
</g>
<!-- Node15 -->
<g id="node6" class="node">
<title>Node15</title>
<g id="a_node6"><a xlink:href="swdsm_8h_acd175d6d8efa5cce6963bae64891a490.html#acd175d6d8efa5cce6963bae64891a490" target="_top" xlink:title="Allocates memory in global address space. ">
<polygon fill="#ffffff" stroke="#000000" points="584.5,-226.5 584.5,-245.5 667.5,-245.5 667.5,-226.5 584.5,-226.5"/>
<text text-anchor="middle" x="626" y="-233.5" font-family="Helvetica,sans-Serif" font-size="10.00" fill="#000000">argo_gmalloc</text>
</a>
</g>
</g>
<!-- Node13&#45;&gt;Node15 -->
<g id="edge5" class="edge">
<title>Node13&#45;&gt;Node15</title>
<path fill="none" stroke="#191970" d="M499.0503,-192.423C517.233,-200.0637 540.7322,-209.5633 562,-217 571.5185,-220.3283 581.959,-223.5888 591.5955,-226.4432"/>
<polygon fill="#191970" stroke="#191970" points="500.3789,-189.1848 489.8058,-188.5063 497.6481,-195.6302 500.3789,-189.1848"/>
</g>
<!-- Node16 -->
<g id="node7" class="node">
<title>Node16</title>
<g id="a_node7"><a xlink:href="swdsm_8cpp_aa954d5e0bcaee69ff6e03e697bcaf68b.html#aa954d5e0bcaee69ff6e03e697bcaf68b" target="_top" xlink:title="shut down ArgoDSM system ">
<polygon fill="#ffffff" stroke="#000000" points="586.5,-188.5 586.5,-207.5 665.5,-207.5 665.5,-188.5 586.5,-188.5"/>
<text text-anchor="middle" x="626" y="-195.5" font-family="Helvetica,sans-Serif" font-size="10.00" fill="#000000">argo_finalize</text>
</a>
</g>
</g>
<!-- Node13&#45;&gt;Node16 -->
<g id="edge6" class="edge">
<title>Node13&#45;&gt;Node16</title>
<path fill="none" stroke="#191970" d="M536.7661,-187.2693C553.6157,-189.2956 571.0971,-191.3977 586.0741,-193.1988"/>
<polygon fill="#191970" stroke="#191970" points="536.7308,-183.74 526.3845,-186.0209 535.895,-190.6899 536.7308,-183.74"/>
</g>
<!-- Node18 -->
<g id="node9" class="node">
<title>Node18</title>
<g id="a_node9"><a xlink:href="swdsm_8h_a0c6b51af2b87ddf7eb04aa7d4e0e836e.html#a0c6b51af2b87ddf7eb04aa7d4e0e836e" target="_top" xlink:title="Resets current coherence. Collective function called by all threads on all nodes. ...">
<polygon fill="#ffffff" stroke="#000000" points="564,-150.5 564,-169.5 688,-169.5 688,-150.5 564,-150.5"/>
<text text-anchor="middle" x="626" y="-157.5" font-family="Helvetica,sans-Serif" font-size="10.00" fill="#000000">argo_reset_coherence</text>
</a>
</g>
</g>
<!-- Node13&#45;&gt;Node18 -->
<g id="edge8" class="edge">
<title>Node13&#45;&gt;Node18</title>
<path fill="none" stroke="#191970" d="M536.5403,-170.7578C545.6296,-169.6648 554.9068,-168.5492 563.8793,-167.4702"/>
<polygon fill="#191970" stroke="#191970" points="535.895,-167.3101 526.3845,-171.9791 536.7308,-174.26 535.895,-167.3101"/>
</g>
<!-- Node17 -->
<g id="node8" class="node">
<title>Node17</title>
<g id="a_node8"><a xlink:href="swdsm_8h_a18cc89a7368e30281ea4b1d214a1b1ff.html#a18cc89a7368e30281ea4b1d214a1b1ff" target="_top" xlink:title="Pins and registers the local thread. ">
<polygon fill="#ffffff" stroke="#000000" points="729,-188.5 729,-207.5 830,-207.5 830,-188.5 729,-188.5"/>
<text text-anchor="middle" x="779.5" y="-195.5" font-family="Helvetica,sans-Serif" font-size="10.00" fill="#000000">argo_pin_threads</text>
</a>
</g>
</g>
<!-- Node16&#45;&gt;Node17 -->
<g id="edge7" class="edge">
<title>Node16&#45;&gt;Node17</title>
<path fill="none" stroke="#191970" d="M675.8002,-198C692.7693,-198 711.7517,-198 728.7913,-198"/>
<polygon fill="#191970" stroke="#191970" points="675.5301,-194.5001 665.5301,-198 675.53,-201.5001 675.5301,-194.5001"/>
</g>
<!-- Node19 -->
<g id="node10" class="node">
<title>Node19</title>
<g id="a_node10"><a xlink:href="swdsm_8h_a10dca85d339ce630cf42dca685b3f6d9.html#a10dca85d339ce630cf42dca685b3f6d9" target="_top" xlink:title="Initializes ArgoDSM runtime. ">
<polygon fill="#ffffff" stroke="#000000" points="736.5,-150.5 736.5,-169.5 822.5,-169.5 822.5,-150.5 736.5,-150.5"/>
<text text-anchor="middle" x="779.5" y="-157.5" font-family="Helvetica,sans-Serif" font-size="10.00" fill="#000000">argo_initialize</text>
</a>
</g>
</g>
<!-- Node18&#45;&gt;Node19 -->
<g id="edge9" class="edge">
<title>Node18&#45;&gt;Node19</title>
<path fill="none" stroke="#191970" d="M698.7126,-160C711.6043,-160 724.6483,-160 736.3843,-160"/>
<polygon fill="#191970" stroke="#191970" points="698.4344,-156.5001 688.4343,-160 698.4343,-163.5001 698.4344,-156.5001"/>
</g>
<!-- Node20 -->
<g id="node11" class="node">
<title>Node20</title>
<g id="a_node11"><a xlink:href="backend_8hpp_af0d80a03a17a374c10d9635ddf81e261.html#af0d80a03a17a374c10d9635ddf81e261" target="_top" xlink:title="initialize backend ">
<polygon fill="#ffffff" stroke="#000000" points="869,-150.5 869,-169.5 976,-169.5 976,-150.5 869,-150.5"/>
<text text-anchor="middle" x="922.5" y="-157.5" font-family="Helvetica,sans-Serif" font-size="10.00" fill="#000000">argo::backend::init</text>
</a>
</g>
</g>
<!-- Node19&#45;&gt;Node20 -->
<g id="edge10" class="edge">
<title>Node19&#45;&gt;Node20</title>
<path fill="none" stroke="#191970" d="M832.933,-160C844.7171,-160 857.2019,-160 868.9891,-160"/>
<polygon fill="#191970" stroke="#191970" points="832.7928,-156.5001 822.7928,-160 832.7927,-163.5001 832.7928,-156.5001"/>
</g>
<!-- Node22 -->
<g id="node13" class="node">
<title>Node22</title>
<g id="a_node13"><a xlink:href="backend_8hpp_a1032f833666c3f810ac1c6210197d426.html#a1032f833666c3f810ac1c6210197d426" target="_top" xlink:title="causes a node to self&#45;invalidate its cache, and thus getting any updated values on subsequent accesse...">
<polygon fill="#ffffff" stroke="#000000" points="562,-94.5 562,-113.5 690,-113.5 690,-94.5 562,-94.5"/>
<text text-anchor="middle" x="626" y="-101.5" font-family="Helvetica,sans-Serif" font-size="10.00" fill="#000000">argo::backend::acquire</text>
</a>
</g>
</g>
<!-- Node21&#45;&gt;Node22 -->
<g id="edge12" class="edge">
<title>Node21&#45;&gt;Node22</title>
<path fill="none" stroke="#191970" d="M518.5231,-104C532.3033,-104 547.4182,-104 561.8475,-104"/>
<polygon fill="#191970" stroke="#191970" points="518.2789,-100.5001 508.2789,-104 518.2789,-107.5001 518.2789,-100.5001"/>
</g>
<!-- Node24 -->
<g id="node15" class="node">
<title>Node24</title>
<g id="a_node15"><a xlink:href="swdsm_8h_ac0b665f72bc2a28dc663ed204c526e1b.html#ac0b665f72bc2a28dc663ed204c526e1b" target="_top" xlink:title="acquire&#45;release function for ArgoDSM (Both acquire and release according to Release Consistency) ...">
<polygon fill="#ffffff" stroke="#000000" points="586.5,-56.5 586.5,-75.5 665.5,-75.5 665.5,-56.5 586.5,-56.5"/>
<text text-anchor="middle" x="626" y="-63.5" font-family="Helvetica,sans-Serif" font-size="10.00" fill="#000000">argo_acq_rel</text>
</a>
</g>
</g>
<!-- Node21&#45;&gt;Node24 -->
<g id="edge15" class="edge">
<title>Node21&#45;&gt;Node24</title>
<path fill="none" stroke="#191970" d="M517.7616,-92.032C539.9029,-86.7069 565.6116,-80.5238 586.4166,-75.5201"/>
<polygon fill="#191970" stroke="#191970" points="516.7744,-88.6696 507.8701,-94.411 518.4113,-95.4755 516.7744,-88.6696"/>
</g>
<!-- Node22&#45;&gt;Node22 -->
<g id="edge13" class="edge">
<title>Node22&#45;&gt;Node22</title>
<path fill="none" stroke="#191970" d="M597.6275,-122.6539C598.8135,-127.9368 608.271,-132 626,-132 653.0156,-132 660.8248,-122.5653 649.4276,-113.7571"/>
<polygon fill="#191970" stroke="#191970" points="600.7735,-124.1981 602.5724,-113.7571 594.6551,-120.7974 600.7735,-124.1981"/>
</g>
<!-- Node23 -->
<g id="node14" class="node">
<title>Node23</title>
<g id="a_node14"><a xlink:href="singlenode_8cpp_aab3cabb3e1c0b9696b339416b684f78c.html#aab3cabb3e1c0b9696b339416b684f78c" target="_top" xlink:title="argo::backend::init">
<polygon fill="#ffffff" stroke="#000000" points="726,-47.5 726,-66.5 833,-66.5 833,-47.5 726,-47.5"/>
<text text-anchor="middle" x="779.5" y="-54.5" font-family="Helvetica,sans-Serif" font-size="10.00" fill="#000000">argo::backend::init</text>
</a>
</g>
</g>
<!-- Node22&#45;&gt;Node23 -->
<g id="edge14" class="edge">
<title>Node22&#45;&gt;Node23</title>
<path fill="none" stroke="#191970" d="M668.2842,-91.5419C675.5336,-89.3789 682.9877,-87.1377 690,-85 709.7781,-78.9708 731.9594,-72.0326 749.2918,-66.5712"/>
<polygon fill="#191970" stroke="#191970" points="667.1735,-88.2207 658.5861,-94.4261 669.1689,-94.9302 667.1735,-88.2207"/>
</g>
<!-- Node25&#45;&gt;Node24 -->
<g id="edge21" class="edge">
<title>Node25&#45;&gt;Node24</title>
<path fill="none" stroke="#191970" d="M518.4252,-66C540.3886,-66 565.7577,-66 586.3418,-66"/>
<polygon fill="#191970" stroke="#191970" points="518.2789,-62.5001 508.2789,-66 518.2788,-69.5001 518.2789,-62.5001"/>
</g>
<!-- Node26 -->
<g id="node17" class="node">
<title>Node26</title>
<g id="a_node17"><a xlink:href="backend_8hpp_a8953c9cd9d3c56306740b6c9b97513a2.html#a8953c9cd9d3c56306740b6c9b97513a2" target="_top" xlink:title="causes a node to self&#45;downgrade its cache, making all previous writes to be propagated to the homenod...">
<polygon fill="#ffffff" stroke="#000000" points="562,-.5 562,-19.5 690,-19.5 690,-.5 562,-.5"/>
<text text-anchor="middle" x="626" y="-7.5" font-family="Helvetica,sans-Serif" font-size="10.00" fill="#000000">argo::backend::release</text>
</a>
</g>
</g>
<!-- Node25&#45;&gt;Node26 -->
<g id="edge18" class="edge">
<title>Node25&#45;&gt;Node26</title>
<path fill="none" stroke="#191970" d="M504.8955,-52.9231C533.7787,-42.686 573.2706,-28.6889 599.1933,-19.5011"/>
<polygon fill="#191970" stroke="#191970" points="503.4174,-49.7336 495.1612,-56.3733 505.7559,-56.3314 503.4174,-49.7336"/>
</g>
<!-- Node26&#45;&gt;Node23 -->
<g id="edge20" class="edge">
<title>Node26&#45;&gt;Node23</title>
<path fill="none" stroke="#191970" d="M666.8303,-22.5018C692.3583,-30.3182 724.7319,-40.2306 748.2201,-47.4224"/>
<polygon fill="#191970" stroke="#191970" points="667.6496,-19.0923 657.063,-19.5112 665.6001,-25.7856 667.6496,-19.0923"/>
</g>
<!-- Node26&#45;&gt;Node26 -->
<g id="edge19" class="edge">
<title>Node26&#45;&gt;Node26</title>
<path fill="none" stroke="#191970" d="M597.6275,-28.6539C598.8135,-33.9368 608.271,-38 626,-38 653.0156,-38 660.8248,-28.5653 649.4276,-19.7571"/>
<polygon fill="#191970" stroke="#191970" points="600.7735,-30.1981 602.5724,-19.7571 594.6551,-26.7974 600.7735,-30.1981"/>
</g>
</g>
</svg>
        <g id="navigator" transform="translate(0 0)" fill="#404254">
                <rect fill="#f2f5e9" fill-opacity="0.5" stroke="#606060" stroke-width=".5" x="0" y="0" width="60" height="60"/>
                <use id="zoomplus" xlink:href="#zoomPlus" x="17" y="9" onmousedown="handleZoom(evt,'in')"/>
                <use id="zoomminus" xlink:href="#zoomMin" x="42" y="9" onmousedown="handleZoom(evt,'out')"/>
                <use id="reset" xlink:href="#resetDef" x="30" y="36" onmousedown="handleReset()"/>
                <g id="arrowUp" xlink:href="#dirArrow" transform="translate(30 24)" onmousedown="handlePan(0,-1)">
                  <use xlink:href="#rim" fill="#404040">
                        <set attributeName="fill" to="#808080" begin="arrowUp.mouseover" end="arrowUp.mouseout"/>
                  </use>
                  <path fill="none" stroke="white" stroke-width="1.5" d="M0,-3.0v7 M-2.5,-0.5L0,-3.0L2.5,-0.5"/>
                </g>
                <g id="arrowRight" xlink:href="#dirArrow" transform="rotate(90) translate(36 -43)" onmousedown="handlePan(1,0)">
                  <use xlink:href="#rim" fill="#404040">
                        <set attributeName="fill" to="#808080" begin="arrowRight.mouseover" end="arrowRight.mouseout"/>
                  </use>
                  <path fill="none" stroke="white" stroke-width="1.5" d="M0,-3.0v7 M-2.5,-0.5L0,-3.0L2.5,-0.5"/>
                </g>
                <g id="arrowDown" xlink:href="#dirArrow" transform="rotate(180) translate(-30 -48)" onmousedown="handlePan(0,1)">
                  <use xlink:href="#rim" fill="#404040">
                        <set attributeName="fill" to="#808080" begin="arrowDown.mouseover" end="arrowDown.mouseout"/>
                  </use>
                  <path fill="none" stroke="white" stroke-width="1.5" d="M0,-3.0v7 M-2.5,-0.5L0,-3.0L2.5,-0.5"/>
                </g>
                <g id="arrowLeft" xlink:href="#dirArrow" transform="rotate(270) translate(-36 17)" onmousedown="handlePan(-1,0)">
                  <use xlink:href="#rim" fill="#404040">
                        <set attributeName="fill" to="#808080" begin="arrowLeft.mouseover" end="arrowLeft.mouseout"/>
                  </use>
                  <path fill="none" stroke="white" stroke-width="1.5" d="M0,-3.0v7 M-2.5,-0.5L0,-3.0L2.5,-0.5"/>
                </g>
        </g>
        <svg viewBox="0 0 15 15" width="100%" height="30px" preserveAspectRatio="xMaxYMin meet">
         <g id="arrow_out" transform="scale(0.3 0.3)">
          <a xlink:href="classwrite__buffer_aa2325346aceb3e7ffdbdbdc8e8682147_aa2325346aceb3e7ffdbdbdc8e8682147_icgraph_org.svg" target="_base">
           <rect id="button" ry="5" rx="5" y="6" x="6" height="38" width="38"
                fill="#f2f5e9" fill-opacity="0.5" stroke="#606060" stroke-width="1.0"/>
           <path id="arrow"
             d="M 11.500037,31.436501 C 11.940474,20.09759 22.043105,11.32322 32.158766,21.979434 L 37.068811,17.246167 C 37.068811,17.246167 37.088388,32 37.088388,32 L 22.160133,31.978069 C 22.160133,31.978069 26.997745,27.140456 26.997745,27.140456 C 18.528582,18.264221 13.291696,25.230495 11.500037,31.436501 z"
             style="fill:#404040;"/>
          </a>
         </g>
        </svg>
</svg>
