<?xml version="1.0" encoding="UTF-8" standalone="no"?>
<!DOCTYPE svg PUBLIC "-//W3C//DTD SVG 1.1//EN"
 "http://www.w3.org/Graphics/SVG/1.1/DTD/svg11.dtd">
<!-- Generated by graphviz version 2.40.1 (20161225.0304)
 -->
<!-- Title: write_buffer::add Pages: 1 -->
<svg width="1260pt" height="219pt"
 viewBox="0.00 0.00 1260.00 219.00" xmlns="http://www.w3.org/2000/svg" xmlns:xlink="http://www.w3.org/1999/xlink">
<g id="graph0" class="graph" transform="scale(1 1) rotate(0) translate(4 215)">
<title>write_buffer::add</title>
<polygon fill="#ffffff" stroke="transparent" points="-4,4 -4,-215 1256,-215 1256,4 -4,4"/>
<!-- Node0 -->
<g id="node1" class="node">
<title>Node0</title>
<polygon fill="#bfbfbf" stroke="#000000" points="0,-96 0,-115 99,-115 99,-96 0,-96"/>
<text text-anchor="middle" x="49.5" y="-103" font-family="Helvetica,sans-Serif" font-size="10.00" fill="#000000">write_buffer::add</text>
</g>
<!-- Node1 -->
<g id="node2" class="node">
<title>Node1</title>
<g id="a_node2"><a xlink:href="classwrite__buffer_a6103a2e16740ac4064c5936dbe5ea06d.html#a6103a2e16740ac4064c5936dbe5ea06d" target="_top" xlink:title="Check if val exists in the buffer. ">
<polygon fill="#ffffff" stroke="#000000" points="162,-156 162,-175 260,-175 260,-156 162,-156"/>
<text text-anchor="middle" x="211" y="-163" font-family="Helvetica,sans-Serif" font-size="10.00" fill="#000000">write_buffer::has</text>
</a>
</g>
</g>
<!-- Node0&#45;&gt;Node1 -->
<g id="edge1" class="edge">
<title>Node0&#45;&gt;Node1</title>
<path fill="none" stroke="#191970" d="M66.7388,-115.0462C83.6978,-124.1275 110.5317,-137.6775 135,-146.5 141.8609,-148.9738 149.1823,-151.245 156.4701,-153.2898"/>
<polygon fill="#191970" stroke="#191970" points="155.7757,-156.7271 166.3409,-155.9356 157.5881,-149.9658 155.7757,-156.7271"/>
</g>
<!-- Node2 -->
<g id="node3" class="node">
<title>Node2</title>
<g id="a_node3"><a xlink:href="classwrite__buffer_aec0c6161708f29935031583759393cfe.html#aec0c6161708f29935031583759393cfe" target="_top" xlink:title="Get the size of the buffer. ">
<polygon fill="#ffffff" stroke="#000000" points="160.5,-118 160.5,-137 261.5,-137 261.5,-118 160.5,-118"/>
<text text-anchor="middle" x="211" y="-125" font-family="Helvetica,sans-Serif" font-size="10.00" fill="#000000">write_buffer::size</text>
</a>
</g>
</g>
<!-- Node0&#45;&gt;Node2 -->
<g id="edge2" class="edge">
<title>Node0&#45;&gt;Node2</title>
<path fill="none" stroke="#191970" d="M99.2731,-112.2802C115.3141,-114.4654 133.2774,-116.9124 150.0303,-119.1945"/>
<polygon fill="#191970" stroke="#191970" points="149.896,-122.7085 160.2769,-120.5904 150.8409,-115.7725 149.896,-122.7085"/>
</g>
<!-- Node3 -->
<g id="node4" class="node">
<title>Node3</title>
<g id="a_node4"><a xlink:href="classwrite__buffer_aa6a1c2c3aa3a7cde744bbca3b14f599a.html#aa6a1c2c3aa3a7cde744bbca3b14f599a" target="_top" xlink:title="Flushes first _write_back_size elements of the ArgoDSM write buffer to memory. ">
<polygon fill="#ffffff" stroke="#000000" points="159,-68.5 159,-98.5 263,-98.5 263,-68.5 159,-68.5"/>
<text text-anchor="start" x="167" y="-86.5" font-family="Helvetica,sans-Serif" font-size="10.00" fill="#000000">write_buffer::flush</text>
<text text-anchor="middle" x="211" y="-75.5" font-family="Helvetica,sans-Serif" font-size="10.00" fill="#000000">_partial</text>
</a>
</g>
</g>
<!-- Node0&#45;&gt;Node3 -->
<g id="edge3" class="edge">
<title>Node0&#45;&gt;Node3</title>
<path fill="none" stroke="#191970" d="M99.2731,-98.7198C114.9304,-96.5869 132.419,-94.2045 148.8259,-91.9695"/>
<polygon fill="#191970" stroke="#191970" points="149.4396,-95.4183 158.8757,-90.6005 148.4947,-88.4824 149.4396,-95.4183"/>
</g>
<!-- Node21 -->
<g id="node22" class="node">
<title>Node21</title>
<g id="a_node22"><a xlink:href="classwrite__buffer_ae51b3a3d02d35cc4f280690b6860d20f.html#ae51b3a3d02d35cc4f280690b6860d20f" target="_top" xlink:title="Constructs a new element and emplaces it at the back of the buffer. ">
<polygon fill="#ffffff" stroke="#000000" points="135,-30 135,-49 287,-49 287,-30 135,-30"/>
<text text-anchor="middle" x="211" y="-37" font-family="Helvetica,sans-Serif" font-size="10.00" fill="#000000">write_buffer::emplace_back</text>
</a>
</g>
</g>
<!-- Node0&#45;&gt;Node21 -->
<g id="edge22" class="edge">
<title>Node0&#45;&gt;Node21</title>
<path fill="none" stroke="#191970" d="M64.726,-95.8748C81.4262,-85.6642 109.2823,-69.6368 135,-59.5 142.2292,-56.6506 150.0034,-54.0791 157.7222,-51.8029"/>
<polygon fill="#191970" stroke="#191970" points="158.7429,-55.1518 167.4246,-49.079 156.8508,-48.4123 158.7429,-55.1518"/>
</g>
<!-- Node4 -->
<g id="node5" class="node">
<title>Node4</title>
<g id="a_node5"><a xlink:href="classwrite__buffer_a9e8cf81e623c4bb67f687379f8709a53.html#a9e8cf81e623c4bb67f687379f8709a53" target="_top" xlink:title="Sorts the first _write_back_size elements by home node id in ascending order. ">
<polygon fill="#ffffff" stroke="#000000" points="338.5,-131.5 338.5,-161.5 438.5,-161.5 438.5,-131.5 338.5,-131.5"/>
<text text-anchor="start" x="346.5" y="-149.5" font-family="Helvetica,sans-Serif" font-size="10.00" fill="#000000">write_buffer::sort</text>
<text text-anchor="middle" x="388.5" y="-138.5" font-family="Helvetica,sans-Serif" font-size="10.00" fill="#000000">_first</text>
</a>
</g>
</g>
<!-- Node3&#45;&gt;Node4 -->
<g id="edge4" class="edge">
<title>Node3&#45;&gt;Node4</title>
<path fill="none" stroke="#191970" d="M257.7242,-98.54C267.4256,-101.7551 277.5651,-105.1836 287,-108.5 304.2132,-114.5505 322.9492,-121.4695 339.5846,-127.7309"/>
<polygon fill="#191970" stroke="#191970" points="338.5176,-131.0692 349.1092,-131.33 340.992,-124.5211 338.5176,-131.0692"/>
</g>
<!-- Node14 -->
<g id="node15" class="node">
<title>Node14</title>
<g id="a_node15"><a xlink:href="classwrite__buffer_ae065d3ee59035ad508eb8ce6670d2c89.html#ae065d3ee59035ad508eb8ce6670d2c89" target="_top" xlink:title="Removes the front element from the buffer and returns it. ">
<polygon fill="#ffffff" stroke="#000000" points="339,-93 339,-112 438,-112 438,-93 339,-93"/>
<text text-anchor="middle" x="388.5" y="-100" font-family="Helvetica,sans-Serif" font-size="10.00" fill="#000000">write_buffer::pop</text>
</a>
</g>
</g>
<!-- Node3&#45;&gt;Node14 -->
<g id="edge15" class="edge">
<title>Node3&#45;&gt;Node14</title>
<path fill="none" stroke="#191970" d="M263.2958,-89.0979C283.7722,-91.2897 307.3821,-93.817 328.5428,-96.082"/>
<polygon fill="#191970" stroke="#191970" points="328.3938,-99.586 338.7096,-97.1703 329.1389,-92.6258 328.3938,-99.586"/>
</g>
<!-- Node15 -->
<g id="node16" class="node">
<title>Node15</title>
<g id="a_node16"><a xlink:href="swdsm_8cpp_ae0f2d0961e80b2903b3f54c9e6c68658.html#ae0f2d0961e80b2903b3f54c9e6c68658" target="_top" xlink:title="stores a page remotely &#45; only writing back what has been written locally since last synchronization p...">
<polygon fill="#ffffff" stroke="#000000" points="345.5,-55 345.5,-74 431.5,-74 431.5,-55 345.5,-55"/>
<text text-anchor="middle" x="388.5" y="-62" font-family="Helvetica,sans-Serif" font-size="10.00" fill="#000000">storepageDIFF</text>
</a>
</g>
</g>
<!-- Node3&#45;&gt;Node15 -->
<g id="edge16" class="edge">
<title>Node3&#45;&gt;Node15</title>
<path fill="none" stroke="#191970" d="M263.2958,-77.9021C285.9093,-75.4815 312.3445,-72.6519 335.082,-70.218"/>
<polygon fill="#191970" stroke="#191970" points="335.6711,-73.675 345.2418,-69.1305 334.926,-66.7148 335.6711,-73.675"/>
</g>
<!-- Node20 -->
<g id="node21" class="node">
<title>Node20</title>
<g id="a_node21"><a xlink:href="namespaceargo_a79c9492f3fd441bfa6261dffbc0f02f4.html#a79c9492f3fd441bfa6261dffbc0f02f4" target="_top" xlink:title="Number of ArgoDSM nodes being run. ">
<polygon fill="#ffffff" stroke="#000000" points="323,-17 323,-36 454,-36 454,-17 323,-17"/>
<text text-anchor="middle" x="388.5" y="-24" font-family="Helvetica,sans-Serif" font-size="10.00" fill="#000000">argo::number_of_nodes</text>
</a>
</g>
</g>
<!-- Node3&#45;&gt;Node20 -->
<g id="edge21" class="edge">
<title>Node3&#45;&gt;Node20</title>
<path fill="none" stroke="#191970" d="M257.6944,-68.3745C267.398,-65.1655 277.5459,-61.7612 287,-58.5 303.0814,-52.9527 306.8228,-50.7612 323,-45.5 329.8896,-43.2594 337.2276,-41.0044 344.4061,-38.8699"/>
<polygon fill="#191970" stroke="#191970" points="345.4271,-42.218 354.039,-36.0467 343.4583,-35.5005 345.4271,-42.218"/>
</g>
<!-- Node5 -->
<g id="node6" class="node">
<title>Node5</title>
<g id="a_node6"><a xlink:href="namespaceargo_a48dc17c94275df10a8e7f3959cbf0191.html#a48dc17c94275df10a8e7f3959cbf0191" target="_top" xlink:title="Get the ArgoDSM node id where addr is physically backed. ">
<polygon fill="#ffffff" stroke="#000000" points="490,-137 490,-156 607,-156 607,-137 490,-137"/>
<text text-anchor="middle" x="548.5" y="-144" font-family="Helvetica,sans-Serif" font-size="10.00" fill="#000000">argo::get_homenode</text>
</a>
</g>
</g>
<!-- Node4&#45;&gt;Node5 -->
<g id="edge5" class="edge">
<title>Node4&#45;&gt;Node5</title>
<path fill="none" stroke="#191970" d="M438.686,-146.5C451.6124,-146.5 465.7506,-146.5 479.452,-146.5"/>
<polygon fill="#191970" stroke="#191970" points="479.8172,-150.0001 489.8171,-146.5 479.8171,-143.0001 479.8172,-150.0001"/>
</g>
<!-- Node6 -->
<g id="node7" class="node">
<title>Node6</title>
<g id="a_node7"><a xlink:href="classargo_1_1data__distribution_1_1global__ptr_a3e2cdd4d323ef91174615e27ab94e342.html#a3e2cdd4d323ef91174615e27ab94e342" target="_top" xlink:title="return the home node of the value pointed to, or a default value if the page has not yet been first&#45;t...">
<polygon fill="#ffffff" stroke="#000000" points="643,-175.5 643,-205.5 774,-205.5 774,-175.5 643,-175.5"/>
<text text-anchor="start" x="651" y="-193.5" font-family="Helvetica,sans-Serif" font-size="10.00" fill="#000000">argo::data_distribution</text>
<text text-anchor="middle" x="708.5" y="-182.5" font-family="Helvetica,sans-Serif" font-size="10.00" fill="#000000">::global_ptr::peek_node</text>
</a>
</g>
</g>
<!-- Node5&#45;&gt;Node6 -->
<g id="edge6" class="edge">
<title>Node5&#45;&gt;Node6</title>
<path fill="none" stroke="#191970" d="M583.2176,-156.0473C600.9905,-160.9349 623.2093,-167.0451 643.9805,-172.7571"/>
<polygon fill="#191970" stroke="#191970" points="643.1467,-176.1577 653.7169,-175.4346 645.0029,-169.4083 643.1467,-176.1577"/>
</g>
<!-- Node7 -->
<g id="node8" class="node">
<title>Node7</title>
<g id="a_node8"><a xlink:href="namespaceargo_a2f35b6b6e0af76fb8fb47f2031d6f58e.html#a2f35b6b6e0af76fb8fb47f2031d6f58e" target="_top" xlink:title="Get the block size of the current allocation policy. ">
<polygon fill="#ffffff" stroke="#000000" points="650.5,-137 650.5,-156 766.5,-156 766.5,-137 650.5,-137"/>
<text text-anchor="middle" x="708.5" y="-144" font-family="Helvetica,sans-Serif" font-size="10.00" fill="#000000">argo::get_block_size</text>
</a>
</g>
</g>
<!-- Node5&#45;&gt;Node7 -->
<g id="edge7" class="edge">
<title>Node5&#45;&gt;Node7</title>
<path fill="none" stroke="#191970" d="M607.1696,-146.5C617.9585,-146.5 629.3057,-146.5 640.3452,-146.5"/>
<polygon fill="#191970" stroke="#191970" points="640.3722,-150.0001 650.3722,-146.5 640.3721,-143.0001 640.3722,-150.0001"/>
</g>
<!-- Node13 -->
<g id="node14" class="node">
<title>Node13</title>
<g id="a_node14"><a xlink:href="namespaceargo_a2b6b342c320b2a608d317a328fc46d83.html#a2b6b342c320b2a608d317a328fc46d83" target="_top" xlink:title="Size of memory which is the portion of memory owned by this node. ">
<polygon fill="#ffffff" stroke="#000000" points="659.5,-99 659.5,-118 757.5,-118 757.5,-99 659.5,-99"/>
<text text-anchor="middle" x="708.5" y="-106" font-family="Helvetica,sans-Serif" font-size="10.00" fill="#000000">argo::chunk_size</text>
</a>
</g>
</g>
<!-- Node5&#45;&gt;Node13 -->
<g id="edge14" class="edge">
<title>Node5&#45;&gt;Node13</title>
<path fill="none" stroke="#191970" d="M588.8748,-136.911C609.9885,-131.8965 636.0287,-125.7119 658.4169,-120.3947"/>
<polygon fill="#191970" stroke="#191970" points="659.495,-123.7361 668.4156,-118.0201 657.8774,-116.9256 659.495,-123.7361"/>
</g>
<!-- Node8 -->
<g id="node9" class="node">
<title>Node8</title>
<g id="a_node9"><a xlink:href="namespaceargo_1_1data__distribution_a2a70ed49553953957c3a28aa755d7ac8.html#a2a70ed49553953957c3a28aa755d7ac8" target="_top" xlink:title="based on the chosen policy, gets the policy block size ">
<polygon fill="#ffffff" stroke="#000000" points="810,-131.5 810,-161.5 937,-161.5 937,-131.5 810,-131.5"/>
<text text-anchor="start" x="818" y="-149.5" font-family="Helvetica,sans-Serif" font-size="10.00" fill="#000000">argo::data_distribution</text>
<text text-anchor="middle" x="873.5" y="-138.5" font-family="Helvetica,sans-Serif" font-size="10.00" fill="#000000">::policy_block_size</text>
</a>
</g>
</g>
<!-- Node7&#45;&gt;Node8 -->
<g id="edge8" class="edge">
<title>Node7&#45;&gt;Node8</title>
<path fill="none" stroke="#191970" d="M766.6728,-146.5C777.3993,-146.5 788.7284,-146.5 799.841,-146.5"/>
<polygon fill="#191970" stroke="#191970" points="799.9621,-150.0001 809.9621,-146.5 799.962,-143.0001 799.9621,-150.0001"/>
</g>
<!-- Node9 -->
<g id="node10" class="node">
<title>Node9</title>
<g id="a_node10"><a xlink:href="namespaceargo_1_1env_a30775a9aa41b956df7474a2c0cc317aa.html#a30775a9aa41b956df7474a2c0cc317aa" target="_top" xlink:title="get the allocation block size requested by environment variable ">
<polygon fill="#ffffff" stroke="#000000" points="978.5,-180.5 978.5,-210.5 1094.5,-210.5 1094.5,-180.5 978.5,-180.5"/>
<text text-anchor="start" x="986.5" y="-198.5" font-family="Helvetica,sans-Serif" font-size="10.00" fill="#000000">argo::env::allocation</text>
<text text-anchor="middle" x="1036.5" y="-187.5" font-family="Helvetica,sans-Serif" font-size="10.00" fill="#000000">_block_size</text>
</a>
</g>
</g>
<!-- Node8&#45;&gt;Node9 -->
<g id="edge9" class="edge">
<title>Node8&#45;&gt;Node9</title>
<path fill="none" stroke="#191970" d="M923.7354,-161.6014C940.3909,-166.6083 959.0997,-172.2324 976.4194,-177.439"/>
<polygon fill="#191970" stroke="#191970" points="975.8462,-180.9213 986.4305,-180.4484 977.8615,-174.2177 975.8462,-180.9213"/>
</g>
<!-- Node10 -->
<g id="node11" class="node">
<title>Node10</title>
<g id="a_node11"><a xlink:href="namespaceargo_1_1data__distribution_a1bb3f2dcecd237990e6dc67764f06860.html#a1bb3f2dcecd237990e6dc67764f06860" target="_top" xlink:title="identifies if we distribute data using a cyclic memory policy ">
<polygon fill="#ffffff" stroke="#000000" points="973,-131.5 973,-161.5 1100,-161.5 1100,-131.5 973,-131.5"/>
<text text-anchor="start" x="981" y="-149.5" font-family="Helvetica,sans-Serif" font-size="10.00" fill="#000000">argo::data_distribution</text>
<text text-anchor="middle" x="1036.5" y="-138.5" font-family="Helvetica,sans-Serif" font-size="10.00" fill="#000000">::is_cyclic_policy</text>
</a>
</g>
</g>
<!-- Node8&#45;&gt;Node10 -->
<g id="edge10" class="edge">
<title>Node8&#45;&gt;Node10</title>
<path fill="none" stroke="#191970" d="M937.4541,-146.5C945.7606,-146.5 954.3224,-146.5 962.7718,-146.5"/>
<polygon fill="#191970" stroke="#191970" points="962.9977,-150.0001 972.9977,-146.5 962.9977,-143.0001 962.9977,-150.0001"/>
</g>
<!-- Node12 -->
<g id="node13" class="node">
<title>Node12</title>
<g id="a_node13"><a xlink:href="namespaceargo_1_1data__distribution_a58576657391f45caf61bf0748a23b098.html#a58576657391f45caf61bf0748a23b098" target="_top" xlink:title="identifies if we distribute data using the first&#45;touch memory policy ">
<polygon fill="#ffffff" stroke="#000000" points="973,-82.5 973,-112.5 1100,-112.5 1100,-82.5 973,-82.5"/>
<text text-anchor="start" x="981" y="-100.5" font-family="Helvetica,sans-Serif" font-size="10.00" fill="#000000">argo::data_distribution</text>
<text text-anchor="middle" x="1036.5" y="-89.5" font-family="Helvetica,sans-Serif" font-size="10.00" fill="#000000">::is_first_touch_policy</text>
</a>
</g>
</g>
<!-- Node8&#45;&gt;Node12 -->
<g id="edge12" class="edge">
<title>Node8&#45;&gt;Node12</title>
<path fill="none" stroke="#191970" d="M923.7354,-131.3986C940.3909,-126.3917 959.0997,-120.7676 976.4194,-115.561"/>
<polygon fill="#191970" stroke="#191970" points="977.8615,-118.7823 986.4305,-112.5516 975.8462,-112.0787 977.8615,-118.7823"/>
</g>
<!-- Node11 -->
<g id="node12" class="node">
<title>Node11</title>
<g id="a_node12"><a xlink:href="namespaceargo_1_1env_a25a08cb2d0d11432d640ec7173063339.html#a25a08cb2d0d11432d640ec7173063339" target="_top" xlink:title="get the allocation policy requested by environment variable ">
<polygon fill="#ffffff" stroke="#000000" points="1136,-106.5 1136,-136.5 1252,-136.5 1252,-106.5 1136,-106.5"/>
<text text-anchor="start" x="1144" y="-124.5" font-family="Helvetica,sans-Serif" font-size="10.00" fill="#000000">argo::env::allocation</text>
<text text-anchor="middle" x="1194" y="-113.5" font-family="Helvetica,sans-Serif" font-size="10.00" fill="#000000">_policy</text>
</a>
</g>
</g>
<!-- Node10&#45;&gt;Node11 -->
<g id="edge11" class="edge">
<title>Node10&#45;&gt;Node11</title>
<path fill="none" stroke="#191970" d="M1100.1073,-136.4036C1108.5754,-135.0595 1117.2863,-133.6768 1125.8281,-132.3209"/>
<polygon fill="#191970" stroke="#191970" points="1126.4255,-135.77 1135.7531,-130.7455 1125.3281,-128.8566 1126.4255,-135.77"/>
</g>
<!-- Node12&#45;&gt;Node11 -->
<g id="edge13" class="edge">
<title>Node12&#45;&gt;Node11</title>
<path fill="none" stroke="#191970" d="M1100.1073,-107.1925C1108.5754,-108.4829 1117.2863,-109.8103 1125.8281,-111.1119"/>
<polygon fill="#191970" stroke="#191970" points="1125.34,-114.5778 1135.7531,-112.6243 1126.3945,-107.6577 1125.34,-114.5778"/>
</g>
<!-- Node16 -->
<g id="node17" class="node">
<title>Node16</title>
<g id="a_node17"><a xlink:href="swdsm_8cpp_a0edf823a78daed8888e8e18468460617.html#a0edf823a78daed8888e8e18468460617" target="_top" xlink:title="Gives homenode for a given address. ">
<polygon fill="#ffffff" stroke="#000000" points="504,-55 504,-74 593,-74 593,-55 504,-55"/>
<text text-anchor="middle" x="548.5" y="-62" font-family="Helvetica,sans-Serif" font-size="10.00" fill="#000000">get_homenode</text>
</a>
</g>
</g>
<!-- Node15&#45;&gt;Node16 -->
<g id="edge17" class="edge">
<title>Node15&#45;&gt;Node16</title>
<path fill="none" stroke="#191970" d="M431.7983,-64.5C450.8788,-64.5 473.5155,-64.5 493.7506,-64.5"/>
<polygon fill="#191970" stroke="#191970" points="493.7724,-68.0001 503.7724,-64.5 493.7723,-61.0001 493.7724,-68.0001"/>
</g>
<!-- Node18 -->
<g id="node19" class="node">
<title>Node18</title>
<g id="a_node19"><a xlink:href="swdsm_8cpp_ab58b1f9fa1b59d3060f241994979e18f.html#ab58b1f9fa1b59d3060f241994979e18f" target="_top" xlink:title="Gets the offset of an address on the local nodes part of the global memory. ">
<polygon fill="#ffffff" stroke="#000000" points="516,-12 516,-31 581,-31 581,-12 516,-12"/>
<text text-anchor="middle" x="548.5" y="-19" font-family="Helvetica,sans-Serif" font-size="10.00" fill="#000000">get_offset</text>
</a>
</g>
</g>
<!-- Node15&#45;&gt;Node18 -->
<g id="edge19" class="edge">
<title>Node15&#45;&gt;Node18</title>
<path fill="none" stroke="#191970" d="M424.0092,-54.9569C448.2295,-48.4477 480.4273,-39.7945 506.0101,-32.9192"/>
<polygon fill="#191970" stroke="#191970" points="507.0652,-36.2599 515.8141,-30.2843 505.2483,-29.4998 507.0652,-36.2599"/>
</g>
<!-- Node17 -->
<g id="node18" class="node">
<title>Node17</title>
<g id="a_node18"><a xlink:href="classargo_1_1data__distribution_1_1global__ptr_ac7d651586337d08cda18ef26ffcd34a0.html#ac7d651586337d08cda18ef26ffcd34a0" target="_top" xlink:title="return the home node of the value pointed to ">
<polygon fill="#ffffff" stroke="#000000" points="645,-49.5 645,-79.5 772,-79.5 772,-49.5 645,-49.5"/>
<text text-anchor="start" x="653" y="-67.5" font-family="Helvetica,sans-Serif" font-size="10.00" fill="#000000">argo::data_distribution</text>
<text text-anchor="middle" x="708.5" y="-56.5" font-family="Helvetica,sans-Serif" font-size="10.00" fill="#000000">::global_ptr::node</text>
</a>
</g>
</g>
<!-- Node16&#45;&gt;Node17 -->
<g id="edge18" class="edge">
<title>Node16&#45;&gt;Node17</title>
<path fill="none" stroke="#191970" d="M593.0689,-64.5C605.9412,-64.5 620.3472,-64.5 634.5013,-64.5"/>
<polygon fill="#191970" stroke="#191970" points="634.7376,-68.0001 644.7375,-64.5 634.7375,-61.0001 634.7376,-68.0001"/>
</g>
<!-- Node19 -->
<g id="node20" class="node">
<title>Node19</title>
<g id="a_node20"><a xlink:href="classargo_1_1data__distribution_1_1global__ptr_ad8c21c408fa2b926cfd9acfd87e8e4e6.html#ad8c21c408fa2b926cfd9acfd87e8e4e6" target="_top" xlink:title="return the offset on the home node&#39;s local memory share ">
<polygon fill="#ffffff" stroke="#000000" points="645,-.5 645,-30.5 772,-30.5 772,-.5 645,-.5"/>
<text text-anchor="start" x="653" y="-18.5" font-family="Helvetica,sans-Serif" font-size="10.00" fill="#000000">argo::data_distribution</text>
<text text-anchor="middle" x="708.5" y="-7.5" font-family="Helvetica,sans-Serif" font-size="10.00" fill="#000000">::global_ptr::offset</text>
</a>
</g>
</g>
<!-- Node18&#45;&gt;Node19 -->
<g id="edge20" class="edge">
<title>Node18&#45;&gt;Node19</title>
<path fill="none" stroke="#191970" d="M581.2645,-20.2713C596.764,-19.6901 615.9491,-18.9707 634.6797,-18.2683"/>
<polygon fill="#191970" stroke="#191970" points="634.8488,-21.7645 644.7106,-17.8921 634.5864,-14.7694 634.8488,-21.7645"/>
</g>
</g>
</svg>
