<?xml version="1.0" encoding="UTF-8" standalone="no"?>
<!DOCTYPE svg PUBLIC "-//W3C//DTD SVG 1.1//EN"
 "http://www.w3.org/Graphics/SVG/1.1/DTD/svg11.dtd">
<!-- Generated by graphviz version 2.40.1 (20161225.0304)
 -->
<!-- Title: argo::globallock::global_tas_lock::try_lock Pages: 1 -->
<!--zoomable 176 -->
<svg id="main" version="1.1" xmlns="http://www.w3.org/2000/svg" xmlns:xlink="http://www.w3.org/1999/xlink" xml:space="preserve" onload="init(evt)">
<style type="text/css"><![CDATA[
.edge:hover path { stroke: red; }
.edge:hover polygon { stroke: red; fill: red; }
]]></style>
<script type="text/javascript"><![CDATA[
var edges = document.getElementsByTagName('g');
if (edges && edges.length) {
  for (var i=0;i<edges.length;i++) {
    if (edges[i].id.substr(0,4)=='edge') {
      edges[i].setAttribute('class','edge');
    }
  }
}
]]></script>
        <defs>
                <circle id="rim" cx="0" cy="0" r="7"/>
                <circle id="rim2" cx="0" cy="0" r="3.5"/>
                <g id="zoomPlus">
                        <use xlink:href="#rim" fill="#404040">
                                <set attributeName="fill" to="#808080" begin="zoomplus.mouseover" end="zoomplus.mouseout"/>
                        </use>
                        <path d="M-4,0h8M0,-4v8" fill="none" stroke="white" stroke-width="1.5" pointer-events="none"/>
                </g>
                <g id="zoomMin">
                        <use xlink:href="#rim" fill="#404040">
                                <set attributeName="fill" to="#808080" begin="zoomminus.mouseover" end="zoomminus.mouseout"/>
                        </use>
                        <path d="M-4,0h8" fill="none" stroke="white" stroke-width="1.5" pointer-events="none"/>
                </g>
                <g id="dirArrow">
                        <path fill="none" stroke="white" stroke-width="1.5" d="M0,-3.0v7 M-2.5,-0.5L0,-3.0L2.5,-0.5"/>
                </g>
               <g id="resetDef">
                       <use xlink:href="#rim2" fill="#404040">
                               <set attributeName="fill" to="#808080" begin="reset.mouseover" end="reset.mouseout"/>
                       </use>
               </g>
        </defs>

<script type="text/javascript">
var viewWidth = 638;
var viewHeight = 176;
var sectionId = 'dynsection-1';
</script>
<script xlink:href="svgpan.js"/>
<svg id="graph" class="graph">
<g id="viewport">
<title>argo::globallock::global_tas_lock::try_lock</title>
<polygon fill="#ffffff" stroke="transparent" points="-4,4 -4,-171.5 634,-171.5 634,4 -4,4"/>
<!-- Node2 -->
<g id="node1" class="node">
<title>Node2</title>
<polygon fill="#bfbfbf" stroke="#000000" points="0,-41 0,-71 131,-71 131,-41 0,-41"/>
<text text-anchor="start" x="8" y="-59" font-family="Helvetica,sans-Serif" font-size="10.00" fill="#000000">argo::globallock::global</text>
<text text-anchor="middle" x="65.5" y="-48" font-family="Helvetica,sans-Serif" font-size="10.00" fill="#000000">_tas_lock::try_lock</text>
</g>
<!-- Node3 -->
<g id="node2" class="node">
<title>Node3</title>
<g id="a_node2"><a xlink:href="classargo_1_1globallock_1_1global__tas__lock_ae1a2cc75c9371ed191ac68f4e72f227e.html#ae1a2cc75c9371ed191ac68f4e72f227e" target="_top" xlink:title="take the lock ">
<polygon fill="#ffffff" stroke="#000000" points="167,-63 167,-93 298,-93 298,-63 167,-63"/>
<text text-anchor="start" x="175" y="-81" font-family="Helvetica,sans-Serif" font-size="10.00" fill="#000000">argo::globallock::global</text>
<text text-anchor="middle" x="232.5" y="-70" font-family="Helvetica,sans-Serif" font-size="10.00" fill="#000000">_tas_lock::lock</text>
</a>
</g>
</g>
<!-- Node2&#45;&gt;Node3 -->
<g id="edge1" class="edge">
<title>Node2&#45;&gt;Node3</title>
<path fill="none" stroke="#191970" d="M141.0663,-65.9548C149.6848,-67.0902 158.4171,-68.2406 166.8913,-69.3569"/>
<polygon fill="#191970" stroke="#191970" points="141.395,-62.468 131.0235,-64.6318 140.4807,-69.408 141.395,-62.468"/>
</g>
<!-- Node10 -->
<g id="node9" class="node">
<title>Node10</title>
<g id="a_node9"><a xlink:href="lock_8cpp_a7f9fec9adf3c86b1db45340c27c6c89f.html#a7f9fec9adf3c86b1db45340c27c6c89f" target="_top" xlink:title="Tests trylock functionality. ">
<polygon fill="#ffffff" stroke="#000000" points="207,-24.5 207,-43.5 258,-43.5 258,-24.5 207,-24.5"/>
<text text-anchor="middle" x="232.5" y="-31.5" font-family="Helvetica,sans-Serif" font-size="10.00" fill="#000000">TEST_F</text>
</a>
</g>
</g>
<!-- Node2&#45;&gt;Node10 -->
<g id="edge8" class="edge">
<title>Node2&#45;&gt;Node10</title>
<path fill="none" stroke="#191970" d="M141.0576,-46.0463C164.6442,-42.9391 189.0838,-39.7195 206.7565,-37.3914"/>
<polygon fill="#191970" stroke="#191970" points="140.4807,-42.592 131.0235,-47.3682 141.395,-49.532 140.4807,-42.592"/>
</g>
<!-- Node4 -->
<g id="node3" class="node">
<title>Node4</title>
<g id="a_node3"><a xlink:href="classargo_1_1mempools_1_1global__memory__pool_af2ce384d7ee177371521c875045c565c.html#af2ce384d7ee177371521c875045c565c" target="_top" xlink:title="Reserve more memory. ">
<polygon fill="#ffffff" stroke="#000000" points="338,-137 338,-167 470,-167 470,-137 338,-137"/>
<text text-anchor="start" x="346" y="-155" font-family="Helvetica,sans-Serif" font-size="10.00" fill="#000000">argo::mempools::global</text>
<text text-anchor="middle" x="404" y="-144" font-family="Helvetica,sans-Serif" font-size="10.00" fill="#000000">_memory_pool::reserve</text>
</a>
</g>
</g>
<!-- Node3&#45;&gt;Node4 -->
<g id="edge2" class="edge">
<title>Node3&#45;&gt;Node4</title>
<path fill="none" stroke="#191970" d="M269.8327,-97.8119C288.7869,-107.5041 312.3331,-118.992 334,-128 341.4736,-131.1071 349.5081,-134.1385 357.3749,-136.9431"/>
<polygon fill="#191970" stroke="#191970" points="271.417,-94.6909 260.9252,-93.2169 268.2078,-100.912 271.417,-94.6909"/>
</g>
<!-- Node5 -->
<g id="node4" class="node">
<title>Node5</title>
<g id="a_node4"><a xlink:href="classargo_1_1mempools_1_1global__memory__pool_ac37f5714010e1f4b482e6c6a8a246c05.html#ac37f5714010e1f4b482e6c6a8a246c05" target="_top" xlink:title="check remaining available memory in pool ">
<polygon fill="#ffffff" stroke="#000000" points="334,-88 334,-118 474,-118 474,-88 334,-88"/>
<text text-anchor="start" x="342" y="-106" font-family="Helvetica,sans-Serif" font-size="10.00" fill="#000000">argo::mempools::global</text>
<text text-anchor="middle" x="404" y="-95" font-family="Helvetica,sans-Serif" font-size="10.00" fill="#000000">_memory_pool::available</text>
</a>
</g>
</g>
<!-- Node3&#45;&gt;Node5 -->
<g id="edge3" class="edge">
<title>Node3&#45;&gt;Node5</title>
<path fill="none" stroke="#191970" d="M308.2214,-89.0381C316.729,-90.2783 325.3702,-91.5379 333.8037,-92.7673"/>
<polygon fill="#191970" stroke="#191970" points="308.7162,-85.5733 298.3159,-87.5942 307.7064,-92.5001 308.7162,-85.5733"/>
</g>
<!-- Node7 -->
<g id="node6" class="node">
<title>Node7</title>
<g id="a_node6"><a xlink:href="classargo_1_1globallock_1_1cohort__lock_ae6e70438d85a8ae5698d198ce11d9a89.html#ae6e70438d85a8ae5698d198ce11d9a89" target="_top" xlink:title="Acquire the lock. ">
<polygon fill="#ffffff" stroke="#000000" points="338.5,-39 338.5,-69 469.5,-69 469.5,-39 338.5,-39"/>
<text text-anchor="start" x="346.5" y="-57" font-family="Helvetica,sans-Serif" font-size="10.00" fill="#000000">argo::globallock::cohort</text>
<text text-anchor="middle" x="404" y="-46" font-family="Helvetica,sans-Serif" font-size="10.00" fill="#000000">_lock::lock</text>
</a>
</g>
</g>
<!-- Node3&#45;&gt;Node7 -->
<g id="edge5" class="edge">
<title>Node3&#45;&gt;Node7</title>
<path fill="none" stroke="#191970" d="M308.2665,-67.3971C318.2994,-65.9931 328.5171,-64.5632 338.3602,-63.1857"/>
<polygon fill="#191970" stroke="#191970" points="307.7343,-63.9374 298.3159,-68.7896 308.7045,-70.8698 307.7343,-63.9374"/>
</g>
<!-- Node9 -->
<g id="node8" class="node">
<title>Node9</title>
<g id="a_node8"><a xlink:href="lock_8cpp_a9442277381b3576227a7eec86626d5de.html#a9442277381b3576227a7eec86626d5de" target="_top" xlink:title="Checks locking is working by implementing a custom barrier. ">
<polygon fill="#ffffff" stroke="#000000" points="378.5,-.5 378.5,-19.5 429.5,-19.5 429.5,-.5 378.5,-.5"/>
<text text-anchor="middle" x="404" y="-7.5" font-family="Helvetica,sans-Serif" font-size="10.00" fill="#000000">TEST_F</text>
</a>
</g>
</g>
<!-- Node3&#45;&gt;Node9 -->
<g id="edge7" class="edge">
<title>Node3&#45;&gt;Node9</title>
<path fill="none" stroke="#191970" d="M285.5039,-58.9491C289.7842,-57.0551 293.9978,-55.0649 298,-53 315.0892,-44.1832 316.4932,-36.9554 334,-29 348.1011,-22.5922 364.8115,-17.9557 378.3685,-14.8677"/>
<polygon fill="#191970" stroke="#191970" points="283.9301,-55.8145 276.0834,-62.9334 286.6569,-62.2616 283.9301,-55.8145"/>
</g>
<!-- Node6 -->
<g id="node5" class="node">
<title>Node6</title>
<g id="a_node5"><a xlink:href="tests_2allocators_8cpp_ab6f86a07c7fdc11016618b4a93bd5045.html#ab6f86a07c7fdc11016618b4a93bd5045" target="_top" xlink:title="Unittest that checks that the global address space is at least as large as requested. ">
<polygon fill="#ffffff" stroke="#000000" points="544.5,-93.5 544.5,-112.5 595.5,-112.5 595.5,-93.5 544.5,-93.5"/>
<text text-anchor="middle" x="570" y="-100.5" font-family="Helvetica,sans-Serif" font-size="10.00" fill="#000000">TEST_F</text>
</a>
</g>
</g>
<!-- Node5&#45;&gt;Node6 -->
<g id="edge4" class="edge">
<title>Node5&#45;&gt;Node6</title>
<path fill="none" stroke="#191970" d="M484.6098,-103C506.1841,-103 527.974,-103 544.1422,-103"/>
<polygon fill="#191970" stroke="#191970" points="484.399,-99.5001 474.3989,-103 484.3989,-106.5001 484.399,-99.5001"/>
</g>
<!-- Node8 -->
<g id="node7" class="node">
<title>Node8</title>
<g id="a_node7"><a xlink:href="cohort__lock_8h_a3518d9666b8fe266f34c7aea2b4a583e.html#a3518d9666b8fe266f34c7aea2b4a583e" target="_top" xlink:title="lock a cohort lock ">
<polygon fill="#ffffff" stroke="#000000" points="510,-44.5 510,-63.5 630,-63.5 630,-44.5 510,-44.5"/>
<text text-anchor="middle" x="570" y="-51.5" font-family="Helvetica,sans-Serif" font-size="10.00" fill="#000000">argo_cohortlock_lock</text>
</a>
</g>
</g>
<!-- Node7&#45;&gt;Node8 -->
<g id="edge6" class="edge">
<title>Node7&#45;&gt;Node8</title>
<path fill="none" stroke="#191970" d="M479.6935,-54C489.8513,-54 500.1562,-54 509.9932,-54"/>
<polygon fill="#191970" stroke="#191970" points="479.6076,-50.5001 469.6076,-54 479.6076,-57.5001 479.6076,-50.5001"/>
</g>
</g>
</svg>
        <g id="navigator" transform="translate(0 0)" fill="#404254">
                <rect fill="#f2f5e9" fill-opacity="0.5" stroke="#606060" stroke-width=".5" x="0" y="0" width="60" height="60"/>
                <use id="zoomplus" xlink:href="#zoomPlus" x="17" y="9" onmousedown="handleZoom(evt,'in')"/>
                <use id="zoomminus" xlink:href="#zoomMin" x="42" y="9" onmousedown="handleZoom(evt,'out')"/>
                <use id="reset" xlink:href="#resetDef" x="30" y="36" onmousedown="handleReset()"/>
                <g id="arrowUp" xlink:href="#dirArrow" transform="translate(30 24)" onmousedown="handlePan(0,-1)">
                  <use xlink:href="#rim" fill="#404040">
                        <set attributeName="fill" to="#808080" begin="arrowUp.mouseover" end="arrowUp.mouseout"/>
                  </use>
                  <path fill="none" stroke="white" stroke-width="1.5" d="M0,-3.0v7 M-2.5,-0.5L0,-3.0L2.5,-0.5"/>
                </g>
                <g id="arrowRight" xlink:href="#dirArrow" transform="rotate(90) translate(36 -43)" onmousedown="handlePan(1,0)">
                  <use xlink:href="#rim" fill="#404040">
                        <set attributeName="fill" to="#808080" begin="arrowRight.mouseover" end="arrowRight.mouseout"/>
                  </use>
                  <path fill="none" stroke="white" stroke-width="1.5" d="M0,-3.0v7 M-2.5,-0.5L0,-3.0L2.5,-0.5"/>
                </g>
                <g id="arrowDown" xlink:href="#dirArrow" transform="rotate(180) translate(-30 -48)" onmousedown="handlePan(0,1)">
                  <use xlink:href="#rim" fill="#404040">
                        <set attributeName="fill" to="#808080" begin="arrowDown.mouseover" end="arrowDown.mouseout"/>
                  </use>
                  <path fill="none" stroke="white" stroke-width="1.5" d="M0,-3.0v7 M-2.5,-0.5L0,-3.0L2.5,-0.5"/>
                </g>
                <g id="arrowLeft" xlink:href="#dirArrow" transform="rotate(270) translate(-36 17)" onmousedown="handlePan(-1,0)">
                  <use xlink:href="#rim" fill="#404040">
                        <set attributeName="fill" to="#808080" begin="arrowLeft.mouseover" end="arrowLeft.mouseout"/>
                  </use>
                  <path fill="none" stroke="white" stroke-width="1.5" d="M0,-3.0v7 M-2.5,-0.5L0,-3.0L2.5,-0.5"/>
                </g>
        </g>
        <svg viewBox="0 0 15 15" width="100%" height="30px" preserveAspectRatio="xMaxYMin meet">
         <g id="arrow_out" transform="scale(0.3 0.3)">
          <a xlink:href="classargo_1_1globallock_1_1global__tas__lock_a89bbe556d8a271dd64d65b421993da00_a89bbe556d8a271dd64d65b421993da00_icgraph_org.svg" target="_base">
           <rect id="button" ry="5" rx="5" y="6" x="6" height="38" width="38"
                fill="#f2f5e9" fill-opacity="0.5" stroke="#606060" stroke-width="1.0"/>
           <path id="arrow"
             d="M 11.500037,31.436501 C 11.940474,20.09759 22.043105,11.32322 32.158766,21.979434 L 37.068811,17.246167 C 37.068811,17.246167 37.088388,32 37.088388,32 L 22.160133,31.978069 C 22.160133,31.978069 26.997745,27.140456 26.997745,27.140456 C 18.528582,18.264221 13.291696,25.230495 11.500037,31.436501 z"
             style="fill:#404040;"/>
          </a>
         </g>
        </svg>
</svg>
