<?xml version="1.0" encoding="UTF-8" standalone="no"?>
<!DOCTYPE svg PUBLIC "-//W3C//DTD SVG 1.1//EN"
 "http://www.w3.org/Graphics/SVG/1.1/DTD/svg11.dtd">
<!-- Generated by graphviz version 2.40.1 (20161225.0304)
 -->
<!-- Title: argo::signal::signal_handler::install_argo_handler Pages: 1 -->
<svg width="416pt" height="66pt"
 viewBox="0.00 0.00 416.00 66.00" xmlns="http://www.w3.org/2000/svg" xmlns:xlink="http://www.w3.org/1999/xlink">
<g id="graph0" class="graph" transform="scale(1 1) rotate(0) translate(4 62)">
<title>argo::signal::signal_handler::install_argo_handler</title>
<polygon fill="#ffffff" stroke="transparent" points="-4,4 -4,-62 412,-62 412,4 -4,4"/>
<!-- Node2 -->
<g id="node1" class="node">
<title>Node2</title>
<polygon fill="#bfbfbf" stroke="#000000" points="0,-8.5 0,-49.5 122,-49.5 122,-8.5 0,-8.5"/>
<text text-anchor="start" x="8" y="-37.5" font-family="Helvetica,sans-Serif" font-size="10.00" fill="#000000">argo::signal::signal</text>
<text text-anchor="start" x="8" y="-26.5" font-family="Helvetica,sans-Serif" font-size="10.00" fill="#000000">_handler::install_argo</text>
<text text-anchor="middle" x="61" y="-15.5" font-family="Helvetica,sans-Serif" font-size="10.00" fill="#000000">_handler</text>
</g>
<!-- Node3 -->
<g id="node2" class="node">
<title>Node3</title>
<g id="a_node2"><a xlink:href="swdsm_8h_a10dca85d339ce630cf42dca685b3f6d9.html#a10dca85d339ce630cf42dca685b3f6d9" target="_top" xlink:title="Initializes ArgoDSM runtime. ">
<polygon fill="#ffffff" stroke="#000000" points="168.5,-38.5 168.5,-57.5 254.5,-57.5 254.5,-38.5 168.5,-38.5"/>
<text text-anchor="middle" x="211.5" y="-45.5" font-family="Helvetica,sans-Serif" font-size="10.00" fill="#000000">argo_initialize</text>
</a>
</g>
</g>
<!-- Node2&#45;&gt;Node3 -->
<g id="edge1" class="edge">
<title>Node2&#45;&gt;Node3</title>
<path fill="none" stroke="#191970" d="M132.4502,-38.0203C144.708,-39.5678 157.1005,-41.1323 168.3223,-42.549"/>
<polygon fill="#191970" stroke="#191970" points="132.5738,-34.5082 122.2141,-36.728 131.697,-41.4531 132.5738,-34.5082"/>
</g>
<!-- Node5 -->
<g id="node4" class="node">
<title>Node5</title>
<g id="a_node4"><a xlink:href="singlenode_8cpp_aab3cabb3e1c0b9696b339416b684f78c.html#aab3cabb3e1c0b9696b339416b684f78c" target="_top" xlink:title="argo::backend::init">
<polygon fill="#ffffff" stroke="#000000" points="158,-.5 158,-19.5 265,-19.5 265,-.5 158,-.5"/>
<text text-anchor="middle" x="211.5" y="-7.5" font-family="Helvetica,sans-Serif" font-size="10.00" fill="#000000">argo::backend::init</text>
</a>
</g>
</g>
<!-- Node2&#45;&gt;Node5 -->
<g id="edge3" class="edge">
<title>Node2&#45;&gt;Node5</title>
<path fill="none" stroke="#191970" d="M132.187,-20.0129C140.7325,-18.9341 149.3481,-17.8464 157.5911,-16.8058"/>
<polygon fill="#191970" stroke="#191970" points="131.697,-16.5469 122.2141,-21.272 132.5738,-23.4918 131.697,-16.5469"/>
</g>
<!-- Node4 -->
<g id="node3" class="node">
<title>Node4</title>
<g id="a_node3"><a xlink:href="backend_8hpp_af0d80a03a17a374c10d9635ddf81e261.html#af0d80a03a17a374c10d9635ddf81e261" target="_top" xlink:title="initialize backend ">
<polygon fill="#ffffff" stroke="#000000" points="301,-38.5 301,-57.5 408,-57.5 408,-38.5 301,-38.5"/>
<text text-anchor="middle" x="354.5" y="-45.5" font-family="Helvetica,sans-Serif" font-size="10.00" fill="#000000">argo::backend::init</text>
</a>
</g>
</g>
<!-- Node3&#45;&gt;Node4 -->
<g id="edge2" class="edge">
<title>Node3&#45;&gt;Node4</title>
<path fill="none" stroke="#191970" d="M264.933,-48C276.7171,-48 289.2019,-48 300.9891,-48"/>
<polygon fill="#191970" stroke="#191970" points="264.7928,-44.5001 254.7928,-48 264.7927,-51.5001 264.7928,-44.5001"/>
</g>
</g>
</svg>
