<?xml version="1.0" encoding="UTF-8" standalone="no"?>
<!DOCTYPE svg PUBLIC "-//W3C//DTD SVG 1.1//EN"
 "http://www.w3.org/Graphics/SVG/1.1/DTD/svg11.dtd">
<!-- Generated by graphviz version 2.40.1 (20161225.0304)
 -->
<!-- Title: argo::data_distribution::naive_distribution::peek_local_offset Pages: 1 -->
<svg width="461pt" height="50pt"
 viewBox="0.00 0.00 461.00 50.00" xmlns="http://www.w3.org/2000/svg" xmlns:xlink="http://www.w3.org/1999/xlink">
<g id="graph0" class="graph" transform="scale(1 1) rotate(0) translate(4 46)">
<title>argo::data_distribution::naive_distribution::peek_local_offset</title>
<polygon fill="#ffffff" stroke="transparent" points="-4,4 -4,-46 457,-46 457,4 -4,4"/>
<!-- Node0 -->
<g id="node1" class="node">
<title>Node0</title>
<polygon fill="#bfbfbf" stroke="#000000" points="0,-.5 0,-41.5 127,-41.5 127,-.5 0,-.5"/>
<text text-anchor="start" x="8" y="-29.5" font-family="Helvetica,sans-Serif" font-size="10.00" fill="#000000">argo::data_distribution</text>
<text text-anchor="start" x="8" y="-18.5" font-family="Helvetica,sans-Serif" font-size="10.00" fill="#000000">::naive_distribution::</text>
<text text-anchor="middle" x="63.5" y="-7.5" font-family="Helvetica,sans-Serif" font-size="10.00" fill="#000000">peek_local_offset</text>
</g>
<!-- Node1 -->
<g id="node2" class="node">
<title>Node1</title>
<g id="a_node2"><a xlink:href="classargo_1_1data__distribution_1_1naive__distribution_a619080ce7c979d6dfcf18872dd8f6f25.html#a619080ce7c979d6dfcf18872dd8f6f25" target="_top" xlink:title="compute the offset of ptr in the backing store on ptr&#39;s homenode ">
<polygon fill="#ffffff" stroke="#000000" points="163,-.5 163,-41.5 290,-41.5 290,-.5 163,-.5"/>
<text text-anchor="start" x="171" y="-29.5" font-family="Helvetica,sans-Serif" font-size="10.00" fill="#000000">argo::data_distribution</text>
<text text-anchor="start" x="171" y="-18.5" font-family="Helvetica,sans-Serif" font-size="10.00" fill="#000000">::naive_distribution::</text>
<text text-anchor="middle" x="226.5" y="-7.5" font-family="Helvetica,sans-Serif" font-size="10.00" fill="#000000">local_offset</text>
</a>
</g>
</g>
<!-- Node0&#45;&gt;Node1 -->
<g id="edge1" class="edge">
<title>Node0&#45;&gt;Node1</title>
<path fill="none" stroke="#191970" d="M127.4541,-21C135.7606,-21 144.3224,-21 152.7718,-21"/>
<polygon fill="#191970" stroke="#191970" points="152.9977,-24.5001 162.9977,-21 152.9977,-17.5001 152.9977,-24.5001"/>
</g>
<!-- Node2 -->
<g id="node3" class="node">
<title>Node2</title>
<g id="a_node3"><a xlink:href="classargo_1_1data__distribution_1_1naive__distribution_aae672c2bddd64b841835afda7fab7ccc.html#aae672c2bddd64b841835afda7fab7ccc" target="_top" xlink:title="compute home node of an address ">
<polygon fill="#ffffff" stroke="#000000" points="326,-.5 326,-41.5 453,-41.5 453,-.5 326,-.5"/>
<text text-anchor="start" x="334" y="-29.5" font-family="Helvetica,sans-Serif" font-size="10.00" fill="#000000">argo::data_distribution</text>
<text text-anchor="start" x="334" y="-18.5" font-family="Helvetica,sans-Serif" font-size="10.00" fill="#000000">::naive_distribution::</text>
<text text-anchor="middle" x="389.5" y="-7.5" font-family="Helvetica,sans-Serif" font-size="10.00" fill="#000000">homenode</text>
</a>
</g>
</g>
<!-- Node1&#45;&gt;Node2 -->
<g id="edge2" class="edge">
<title>Node1&#45;&gt;Node2</title>
<path fill="none" stroke="#191970" d="M290.4541,-21C298.7606,-21 307.3224,-21 315.7718,-21"/>
<polygon fill="#191970" stroke="#191970" points="315.9977,-24.5001 325.9977,-21 315.9977,-17.5001 315.9977,-24.5001"/>
</g>
</g>
</svg>
