<?xml version="1.0" encoding="UTF-8" standalone="no"?>
<!DOCTYPE svg PUBLIC "-//W3C//DTD SVG 1.1//EN"
 "http://www.w3.org/Graphics/SVG/1.1/DTD/svg11.dtd">
<!-- Generated by graphviz version 2.40.1 (20161225.0304)
 -->
<!-- Title: argo::locallock::ticket_lock::lock Pages: 1 -->
<svg width="453pt" height="39pt"
 viewBox="0.00 0.00 453.00 39.00" xmlns="http://www.w3.org/2000/svg" xmlns:xlink="http://www.w3.org/1999/xlink">
<g id="graph0" class="graph" transform="scale(1 1) rotate(0) translate(4 35)">
<title>argo::locallock::ticket_lock::lock</title>
<polygon fill="#ffffff" stroke="transparent" points="-4,4 -4,-35 449,-35 449,4 -4,4"/>
<!-- Node1 -->
<g id="node1" class="node">
<title>Node1</title>
<polygon fill="#bfbfbf" stroke="#000000" points="0,-.5 0,-30.5 122,-30.5 122,-.5 0,-.5"/>
<text text-anchor="start" x="8" y="-18.5" font-family="Helvetica,sans-Serif" font-size="10.00" fill="#000000">argo::locallock::ticket</text>
<text text-anchor="middle" x="61" y="-7.5" font-family="Helvetica,sans-Serif" font-size="10.00" fill="#000000">_lock::lock</text>
</g>
<!-- Node2 -->
<g id="node2" class="node">
<title>Node2</title>
<g id="a_node2"><a xlink:href="classargo_1_1globallock_1_1cohort__lock_ae6e70438d85a8ae5698d198ce11d9a89.html#ae6e70438d85a8ae5698d198ce11d9a89" target="_top" xlink:title="Acquire the lock. ">
<polygon fill="#ffffff" stroke="#000000" points="158,-.5 158,-30.5 289,-30.5 289,-.5 158,-.5"/>
<text text-anchor="start" x="166" y="-18.5" font-family="Helvetica,sans-Serif" font-size="10.00" fill="#000000">argo::globallock::cohort</text>
<text text-anchor="middle" x="223.5" y="-7.5" font-family="Helvetica,sans-Serif" font-size="10.00" fill="#000000">_lock::lock</text>
</a>
</g>
</g>
<!-- Node1&#45;&gt;Node2 -->
<g id="edge1" class="edge">
<title>Node1&#45;&gt;Node2</title>
<path fill="none" stroke="#191970" d="M132.6076,-15.5C141.025,-15.5 149.5826,-15.5 157.9118,-15.5"/>
<polygon fill="#191970" stroke="#191970" points="132.4343,-12.0001 122.4343,-15.5 132.4342,-19.0001 132.4343,-12.0001"/>
</g>
<!-- Node3 -->
<g id="node3" class="node">
<title>Node3</title>
<g id="a_node3"><a xlink:href="cohort__lock_8h_a3518d9666b8fe266f34c7aea2b4a583e.html#a3518d9666b8fe266f34c7aea2b4a583e" target="_top" xlink:title="lock a cohort lock ">
<polygon fill="#ffffff" stroke="#000000" points="325,-6 325,-25 445,-25 445,-6 325,-6"/>
<text text-anchor="middle" x="385" y="-13" font-family="Helvetica,sans-Serif" font-size="10.00" fill="#000000">argo_cohortlock_lock</text>
</a>
</g>
</g>
<!-- Node2&#45;&gt;Node3 -->
<g id="edge2" class="edge">
<title>Node2&#45;&gt;Node3</title>
<path fill="none" stroke="#191970" d="M299.2174,-15.5C307.8106,-15.5 316.4801,-15.5 324.8347,-15.5"/>
<polygon fill="#191970" stroke="#191970" points="299.1883,-12.0001 289.1882,-15.5 299.1882,-19.0001 299.1883,-12.0001"/>
</g>
</g>
</svg>
