<?xml version="1.0" encoding="UTF-8" standalone="no"?>
<!DOCTYPE svg PUBLIC "-//W3C//DTD SVG 1.1//EN"
 "http://www.w3.org/Graphics/SVG/1.1/DTD/svg11.dtd">
<!-- Generated by graphviz version 2.40.1 (20161225.0304)
 -->
<!-- Title: argo::globallock::cohort_lock Pages: 1 -->
<!--zoomable 224 -->
<svg id="main" version="1.1" xmlns="http://www.w3.org/2000/svg" xmlns:xlink="http://www.w3.org/1999/xlink" xml:space="preserve" onload="init(evt)">
<style type="text/css"><![CDATA[
.edge:hover path { stroke: red; }
.edge:hover polygon { stroke: red; fill: red; }
]]></style>
<script type="text/javascript"><![CDATA[
var edges = document.getElementsByTagName('g');
if (edges && edges.length) {
  for (var i=0;i<edges.length;i++) {
    if (edges[i].id.substr(0,4)=='edge') {
      edges[i].setAttribute('class','edge');
    }
  }
}
]]></script>
        <defs>
                <circle id="rim" cx="0" cy="0" r="7"/>
                <circle id="rim2" cx="0" cy="0" r="3.5"/>
                <g id="zoomPlus">
                        <use xlink:href="#rim" fill="#404040">
                                <set attributeName="fill" to="#808080" begin="zoomplus.mouseover" end="zoomplus.mouseout"/>
                        </use>
                        <path d="M-4,0h8M0,-4v8" fill="none" stroke="white" stroke-width="1.5" pointer-events="none"/>
                </g>
                <g id="zoomMin">
                        <use xlink:href="#rim" fill="#404040">
                                <set attributeName="fill" to="#808080" begin="zoomminus.mouseover" end="zoomminus.mouseout"/>
                        </use>
                        <path d="M-4,0h8" fill="none" stroke="white" stroke-width="1.5" pointer-events="none"/>
                </g>
                <g id="dirArrow">
                        <path fill="none" stroke="white" stroke-width="1.5" d="M0,-3.0v7 M-2.5,-0.5L0,-3.0L2.5,-0.5"/>
                </g>
               <g id="resetDef">
                       <use xlink:href="#rim2" fill="#404040">
                               <set attributeName="fill" to="#808080" begin="reset.mouseover" end="reset.mouseout"/>
                       </use>
               </g>
        </defs>

<script type="text/javascript">
var viewWidth = 1259;
var viewHeight = 224;
var sectionId = 'dynsection-0';
</script>
<script xlink:href="svgpan.js"/>
<svg id="graph" class="graph">
<g id="viewport">
<title>argo::globallock::cohort_lock</title>
<polygon fill="#ffffff" stroke="transparent" points="-4,4 -4,-219.5 1255,-219.5 1255,4 -4,4"/>
<!-- Node1 -->
<g id="node1" class="node">
<title>Node1</title>
<polygon fill="#bfbfbf" stroke="#000000" points="1094,-144 1094,-163 1251,-163 1251,-144 1094,-144"/>
<text text-anchor="middle" x="1172.5" y="-151" font-family="Helvetica,sans-Serif" font-size="10.00" fill="#000000">argo::globallock::cohort_lock</text>
</g>
<!-- Node2 -->
<g id="node2" class="node">
<title>Node2</title>
<g id="a_node2"><a xlink:href="classargo_1_1locallock_1_1ticket__lock.html" target="_top" xlink:title="a global test&#45;and&#45;set lock ">
<polygon fill="#ffffff" stroke="#000000" points="852,-196 852,-215 999,-215 999,-196 852,-196"/>
<text text-anchor="middle" x="925.5" y="-203" font-family="Helvetica,sans-Serif" font-size="10.00" fill="#000000">argo::locallock::ticket_lock</text>
</a>
</g>
</g>
<!-- Node2&#45;&gt;Node1 -->
<g id="edge1" class="edge">
<title>Node2&#45;&gt;Node1</title>
<path fill="none" stroke="#9a32cd" stroke-dasharray="5,2" d="M1002.469,-194.3593C1026.1567,-190.4901 1052.2452,-185.7799 1076,-180.5 1098.0772,-175.5929 1122.617,-168.707 1141.4253,-163.1174"/>
<polygon fill="#9a32cd" stroke="#9a32cd" points="1001.7957,-190.9225 992.478,-195.9653 1002.9067,-197.8338 1001.7957,-190.9225"/>
<text text-anchor="middle" x="1046.5" y="-194.5" font-family="Helvetica,sans-Serif" font-size="10.00" fill="#000000"> node_lock</text>
</g>
<!-- Node3 -->
<g id="node3" class="node">
<title>Node3</title>
<polygon fill="#ffffff" stroke="#bfbfbf" points="730,-164 730,-183 834,-183 834,-164 730,-164"/>
<text text-anchor="middle" x="782" y="-171" font-family="Helvetica,sans-Serif" font-size="10.00" fill="#000000">std::vector&lt; int &gt;</text>
</g>
<!-- Node3&#45;&gt;Node1 -->
<g id="edge2" class="edge">
<title>Node3&#45;&gt;Node1</title>
<path fill="none" stroke="#9a32cd" stroke-dasharray="5,2" d="M844.3578,-170.3063C912.0807,-166.8377 1020.3974,-161.2901 1093.8972,-157.5258"/>
<polygon fill="#9a32cd" stroke="#9a32cd" points="844.0672,-166.8165 834.2594,-170.8235 844.4253,-173.8073 844.0672,-166.8165"/>
<text text-anchor="middle" x="925.5" y="-172.5" font-family="Helvetica,sans-Serif" font-size="10.00" fill="#000000"> numa_mapping</text>
</g>
<!-- Node4 -->
<g id="node4" class="node">
<title>Node4</title>
<g id="a_node4"><a xlink:title="STL class. ">
<polygon fill="#ffffff" stroke="#bfbfbf" points="425.5,-186 425.5,-205 522.5,-205 522.5,-186 425.5,-186"/>
<text text-anchor="middle" x="474" y="-193" font-family="Helvetica,sans-Serif" font-size="10.00" fill="#000000">std::vector&lt; T &gt;</text>
</a>
</g>
</g>
<!-- Node4&#45;&gt;Node3 -->
<g id="edge3" class="edge">
<title>Node4&#45;&gt;Node3</title>
<path fill="none" stroke="#ffa500" stroke-dasharray="5,2" d="M533.0907,-191.2792C590.0268,-187.2124 675.3324,-181.1191 729.8215,-177.227"/>
<polygon fill="#ffa500" stroke="#ffa500" points="532.5287,-187.8104 522.8035,-192.014 533.0275,-194.7926 532.5287,-187.8104"/>
<text text-anchor="middle" x="635" y="-191.5" font-family="Helvetica,sans-Serif" font-size="10.00" fill="#000000"> &lt; int &gt;</text>
</g>
<!-- Node5 -->
<g id="node5" class="node">
<title>Node5</title>
<polygon fill="#ffffff" stroke="#bfbfbf" points="70.5,-171 70.5,-190 99.5,-190 99.5,-171 70.5,-171"/>
<text text-anchor="middle" x="85" y="-178" font-family="Helvetica,sans-Serif" font-size="10.00" fill="#000000">T</text>
</g>
<!-- Node5&#45;&gt;Node4 -->
<g id="edge4" class="edge">
<title>Node5&#45;&gt;Node4</title>
<path fill="none" stroke="#9a32cd" stroke-dasharray="5,2" d="M110.0303,-181.4652C173.4737,-183.9116 341.4692,-190.3896 425.1728,-193.6172"/>
<polygon fill="#9a32cd" stroke="#9a32cd" points="109.9017,-177.9577 99.7743,-181.0697 109.6319,-184.9525 109.9017,-177.9577"/>
<text text-anchor="middle" x="212.5" y="-188.5" font-family="Helvetica,sans-Serif" font-size="10.00" fill="#000000"> elements</text>
</g>
<!-- Node14 -->
<g id="node14" class="node">
<title>Node14</title>
<g id="a_node14"><a xlink:title="STL class. ">
<polygon fill="#ffffff" stroke="#bfbfbf" points="272,-148 272,-167 373,-167 373,-148 272,-148"/>
<text text-anchor="middle" x="322.5" y="-155" font-family="Helvetica,sans-Serif" font-size="10.00" fill="#000000">std::map&lt; K, T &gt;</text>
</a>
</g>
</g>
<!-- Node5&#45;&gt;Node14 -->
<g id="edge16" class="edge">
<title>Node5&#45;&gt;Node14</title>
<path fill="none" stroke="#9a32cd" stroke-dasharray="5,2" d="M109.4774,-175.2559C130.264,-171.0355 160.9433,-165.3537 188,-162.5 215.6531,-159.5834 246.6602,-158.2979 271.9278,-157.7573"/>
<polygon fill="#9a32cd" stroke="#9a32cd" points="108.6623,-171.8504 99.5807,-177.307 110.0829,-178.7047 108.6623,-171.8504"/>
<text text-anchor="middle" x="212.5" y="-165.5" font-family="Helvetica,sans-Serif" font-size="10.00" fill="#000000"> elements</text>
</g>
<!-- Node6 -->
<g id="node6" class="node">
<title>Node6</title>
<g id="a_node6"><a xlink:href="classargo_1_1globallock_1_1global__tas__lock.html" target="_top" xlink:title="a global test&#45;and&#45;set lock ">
<polygon fill="#ffffff" stroke="#000000" points="860,-60.5 860,-90.5 991,-90.5 991,-60.5 860,-60.5"/>
<text text-anchor="start" x="868" y="-78.5" font-family="Helvetica,sans-Serif" font-size="10.00" fill="#000000">argo::globallock::global</text>
<text text-anchor="middle" x="925.5" y="-67.5" font-family="Helvetica,sans-Serif" font-size="10.00" fill="#000000">_tas_lock</text>
</a>
</g>
</g>
<!-- Node6&#45;&gt;Node1 -->
<g id="edge5" class="edge">
<title>Node6&#45;&gt;Node1</title>
<path fill="none" stroke="#9a32cd" stroke-dasharray="5,2" d="M993.4837,-93.1561C1019.4501,-100.2434 1049.2383,-108.7914 1076,-117.5 1100.9954,-125.6338 1129.1038,-136.2967 1148.5085,-143.9021"/>
<polygon fill="#9a32cd" stroke="#9a32cd" points="994.3005,-89.7513 983.7332,-90.5141 992.4698,-96.5077 994.3005,-89.7513"/>
<text text-anchor="middle" x="1046.5" y="-120.5" font-family="Helvetica,sans-Serif" font-size="10.00" fill="#000000"> global_lock</text>
</g>
<!-- Node7 -->
<g id="node7" class="node">
<title>Node7</title>
<g id="a_node7"><a xlink:href="classargo_1_1data__distribution_1_1global__ptr.html" target="_top" xlink:title="argo::data_distribution\l::global_ptr\&lt; std::size_t \&gt;">
<polygon fill="#ffffff" stroke="#000000" points="563.5,-49.5 563.5,-79.5 706.5,-79.5 706.5,-49.5 563.5,-49.5"/>
<text text-anchor="start" x="571.5" y="-67.5" font-family="Helvetica,sans-Serif" font-size="10.00" fill="#000000">argo::data_distribution</text>
<text text-anchor="middle" x="635" y="-56.5" font-family="Helvetica,sans-Serif" font-size="10.00" fill="#000000">::global_ptr&lt; std::size_t &gt;</text>
</a>
</g>
</g>
<!-- Node7&#45;&gt;Node6 -->
<g id="edge6" class="edge">
<title>Node7&#45;&gt;Node6</title>
<path fill="none" stroke="#9a32cd" stroke-dasharray="5,2" d="M716.8925,-67.6009C762.1508,-69.3147 817.6162,-71.4149 859.9751,-73.0188"/>
<polygon fill="#9a32cd" stroke="#9a32cd" points="716.9343,-64.1001 706.809,-67.2191 716.6694,-71.0951 716.9343,-64.1001"/>
<text text-anchor="middle" x="782" y="-74.5" font-family="Helvetica,sans-Serif" font-size="10.00" fill="#000000"> lastuser</text>
</g>
<!-- Node8 -->
<g id="node8" class="node">
<title>Node8</title>
<g id="a_node8"><a xlink:href="classargo_1_1data__distribution_1_1base__distribution.html" target="_top" xlink:title="argo::data_distribution\l::base_distribution\&lt; 0 \&gt;">
<polygon fill="#ffffff" stroke="#000000" points="255,-49.5 255,-79.5 390,-79.5 390,-49.5 255,-49.5"/>
<text text-anchor="start" x="263" y="-67.5" font-family="Helvetica,sans-Serif" font-size="10.00" fill="#000000">argo::data_distribution</text>
<text text-anchor="middle" x="322.5" y="-56.5" font-family="Helvetica,sans-Serif" font-size="10.00" fill="#000000">::base_distribution&lt; 0 &gt;</text>
</a>
</g>
</g>
<!-- Node8&#45;&gt;Node7 -->
<g id="edge7" class="edge">
<title>Node8&#45;&gt;Node7</title>
<path fill="none" stroke="#9a32cd" stroke-dasharray="5,2" d="M400.4072,-64.5C450.3102,-64.5 514.5963,-64.5 563.2495,-64.5"/>
<polygon fill="#9a32cd" stroke="#9a32cd" points="400.3079,-61.0001 390.3078,-64.5 400.3078,-68.0001 400.3079,-61.0001"/>
<text text-anchor="middle" x="474" y="-67.5" font-family="Helvetica,sans-Serif" font-size="10.00" fill="#000000"> policies</text>
</g>
<!-- Node9 -->
<g id="node9" class="node">
<title>Node9</title>
<g id="a_node9"><a xlink:href="classargo_1_1data__distribution_1_1base__distribution.html" target="_top" xlink:title="the base data distribution class ">
<polygon fill="#ffffff" stroke="#000000" points="0,-49.5 0,-79.5 170,-79.5 170,-49.5 0,-49.5"/>
<text text-anchor="start" x="8" y="-67.5" font-family="Helvetica,sans-Serif" font-size="10.00" fill="#000000">argo::data_distribution</text>
<text text-anchor="middle" x="85" y="-56.5" font-family="Helvetica,sans-Serif" font-size="10.00" fill="#000000">::base_distribution&lt; instance &gt;</text>
</a>
</g>
</g>
<!-- Node9&#45;&gt;Node8 -->
<g id="edge8" class="edge">
<title>Node9&#45;&gt;Node8</title>
<path fill="none" stroke="#ffa500" stroke-dasharray="5,2" d="M180.2841,-64.5C205.2179,-64.5 231.5892,-64.5 254.7611,-64.5"/>
<polygon fill="#ffa500" stroke="#ffa500" points="180.0722,-61.0001 170.0721,-64.5 180.0721,-68.0001 180.0722,-61.0001"/>
<text text-anchor="middle" x="212.5" y="-67.5" font-family="Helvetica,sans-Serif" font-size="10.00" fill="#000000"> &lt; 0 &gt;</text>
</g>
<!-- Node10 -->
<g id="node10" class="node">
<title>Node10</title>
<g id="a_node10"><a xlink:href="classargo_1_1data__distribution_1_1global__ptr.html" target="_top" xlink:title="smart pointers for global memory addresses ">
<polygon fill="#ffffff" stroke="#000000" points="259,-.5 259,-30.5 386,-30.5 386,-.5 259,-.5"/>
<text text-anchor="start" x="267" y="-18.5" font-family="Helvetica,sans-Serif" font-size="10.00" fill="#000000">argo::data_distribution</text>
<text text-anchor="middle" x="322.5" y="-7.5" font-family="Helvetica,sans-Serif" font-size="10.00" fill="#000000">::global_ptr&lt; T, Dist &gt;</text>
</a>
</g>
</g>
<!-- Node10&#45;&gt;Node7 -->
<g id="edge9" class="edge">
<title>Node10&#45;&gt;Node7</title>
<path fill="none" stroke="#ffa500" stroke-dasharray="5,2" d="M396.1651,-26.9867C438.2893,-33.5624 492.1135,-41.9766 540,-49.5 547.5877,-50.6921 555.5159,-51.9401 563.4173,-53.1854"/>
<polygon fill="#ffa500" stroke="#ffa500" points="396.6888,-23.5261 386.2686,-25.4421 395.6093,-30.4424 396.6888,-23.5261"/>
<text text-anchor="middle" x="474" y="-52.5" font-family="Helvetica,sans-Serif" font-size="10.00" fill="#000000"> &lt; std::size_t &gt;</text>
</g>
<!-- Node11 -->
<g id="node11" class="node">
<title>Node11</title>
<g id="a_node11"><a xlink:href="classargo_1_1locallock_1_1mcs__lock.html" target="_top" xlink:title="MCS mutual exclusion lock (intranode) ">
<polygon fill="#ffffff" stroke="#000000" points="855.5,-111 855.5,-130 995.5,-130 995.5,-111 855.5,-111"/>
<text text-anchor="middle" x="925.5" y="-118" font-family="Helvetica,sans-Serif" font-size="10.00" fill="#000000">argo::locallock::mcs_lock</text>
</a>
</g>
</g>
<!-- Node11&#45;&gt;Node1 -->
<g id="edge10" class="edge">
<title>Node11&#45;&gt;Node1</title>
<path fill="none" stroke="#9a32cd" stroke-dasharray="5,2" d="M1005.8842,-131.2396C1036.6517,-135.3502 1071.502,-140.0063 1101.3473,-143.9938"/>
<polygon fill="#9a32cd" stroke="#9a32cd" points="1005.995,-127.7234 995.6196,-129.8682 1005.068,-134.6617 1005.995,-127.7234"/>
<text text-anchor="middle" x="1046.5" y="-142.5" font-family="Helvetica,sans-Serif" font-size="10.00" fill="#000000"> local_lock</text>
</g>
<!-- Node12 -->
<g id="node12" class="node">
<title>Node12</title>
<polygon fill="#ffffff" stroke="#bfbfbf" points="558,-108 558,-149 712,-149 712,-108 558,-108"/>
<text text-anchor="start" x="566" y="-137" font-family="Helvetica,sans-Serif" font-size="10.00" fill="#000000">std::map&lt; argo::locallock</text>
<text text-anchor="start" x="566" y="-126" font-family="Helvetica,sans-Serif" font-size="10.00" fill="#000000">::mcs_lock *, argo::locallock</text>
<text text-anchor="middle" x="635" y="-115" font-family="Helvetica,sans-Serif" font-size="10.00" fill="#000000">::mcs_lock::mcs_node &gt;</text>
</g>
<!-- Node11&#45;&gt;Node12 -->
<g id="edge13" class="edge">
<title>Node11&#45;&gt;Node12</title>
<path fill="none" stroke="#9a32cd" stroke-dasharray="5,2" d="M845.0092,-111.1519C809.6732,-108.3975 767.7257,-106.9575 730,-110.5 724.1505,-111.0493 718.1247,-111.7848 712.0801,-112.6454"/>
<polygon fill="#9a32cd" stroke="#9a32cd" points="845.0148,-114.6643 855.2698,-112.0025 845.5932,-107.6883 845.0148,-114.6643"/>
<text text-anchor="middle" x="782" y="-113.5" font-family="Helvetica,sans-Serif" font-size="10.00" fill="#000000"> keys</text>
</g>
<!-- Node12&#45;&gt;Node11 -->
<g id="edge11" class="edge">
<title>Node12&#45;&gt;Node11</title>
<path fill="none" stroke="#9a32cd" stroke-dasharray="5,2" d="M722.152,-126.4547C756.9452,-125.6004 797.3708,-124.5606 834,-123.5 840.8315,-123.3022 847.9496,-123.0862 855.0653,-122.8637"/>
<polygon fill="#9a32cd" stroke="#9a32cd" points="721.9336,-122.9589 712.0221,-126.7021 722.1046,-129.9568 721.9336,-122.9589"/>
<text text-anchor="middle" x="782" y="-128.5" font-family="Helvetica,sans-Serif" font-size="10.00" fill="#000000"> selfs</text>
</g>
<!-- Node13 -->
<g id="node13" class="node">
<title>Node13</title>
<g id="a_node13"><a xlink:href="structargo_1_1locallock_1_1mcs__lock_1_1mcs__node.html" target="_top" xlink:title="Thread nodes for the lock. ">
<polygon fill="#ffffff" stroke="#000000" points="265.5,-98.5 265.5,-128.5 379.5,-128.5 379.5,-98.5 265.5,-98.5"/>
<text text-anchor="start" x="273.5" y="-116.5" font-family="Helvetica,sans-Serif" font-size="10.00" fill="#000000">argo::locallock::mcs</text>
<text text-anchor="middle" x="322.5" y="-105.5" font-family="Helvetica,sans-Serif" font-size="10.00" fill="#000000">_lock::mcs_node</text>
</a>
</g>
</g>
<!-- Node13&#45;&gt;Node12 -->
<g id="edge12" class="edge">
<title>Node13&#45;&gt;Node12</title>
<path fill="none" stroke="#9a32cd" stroke-dasharray="5,2" d="M389.8963,-111.3541C432.9045,-110.5915 489.8034,-110.7051 540,-114.5 545.8183,-114.9399 551.8214,-115.5211 557.85,-116.1969"/>
<polygon fill="#9a32cd" stroke="#9a32cd" points="389.7598,-107.856 379.8309,-111.553 389.8982,-114.8546 389.7598,-107.856"/>
<text text-anchor="middle" x="474" y="-117.5" font-family="Helvetica,sans-Serif" font-size="10.00" fill="#000000"> elements</text>
</g>
<!-- Node14&#45;&gt;Node12 -->
<g id="edge14" class="edge">
<title>Node14&#45;&gt;Node12</title>
<path fill="none" stroke="#ffa500" stroke-dasharray="5,2" d="M383.1049,-146.8361C391.4512,-145.5842 399.9258,-144.4256 408,-143.5 457.735,-137.7983 513.8677,-134.0655 557.8708,-131.7497"/>
<polygon fill="#ffa500" stroke="#ffa500" points="382.3685,-143.4084 373.0233,-148.4001 383.4417,-150.3256 382.3685,-143.4084"/>
<text text-anchor="start" x="408" y="-168.5" font-family="Helvetica,sans-Serif" font-size="10.00" fill="#000000"> &lt; argo::locallock::</text>
<text text-anchor="start" x="408" y="-157.5" font-family="Helvetica,sans-Serif" font-size="10.00" fill="#000000">mcs_lock *, argo::locallock</text>
<text text-anchor="middle" x="474" y="-146.5" font-family="Helvetica,sans-Serif" font-size="10.00" fill="#000000">::mcs_lock::mcs_node &gt;</text>
</g>
<!-- Node15 -->
<g id="node15" class="node">
<title>Node15</title>
<polygon fill="#ffffff" stroke="#bfbfbf" points="70.5,-118 70.5,-137 99.5,-137 99.5,-118 70.5,-118"/>
<text text-anchor="middle" x="85" y="-125" font-family="Helvetica,sans-Serif" font-size="10.00" fill="#000000">K</text>
</g>
<!-- Node15&#45;&gt;Node14 -->
<g id="edge15" class="edge">
<title>Node15&#45;&gt;Node14</title>
<path fill="none" stroke="#9a32cd" stroke-dasharray="5,2" d="M109.742,-129.6644C139.8663,-132.401 192.2642,-137.488 237,-143.5 248.3296,-145.0226 260.4678,-146.875 271.9359,-148.7273"/>
<polygon fill="#9a32cd" stroke="#9a32cd" points="109.9793,-126.1717 99.7067,-128.7651 109.3544,-133.1438 109.9793,-126.1717"/>
<text text-anchor="middle" x="212.5" y="-146.5" font-family="Helvetica,sans-Serif" font-size="10.00" fill="#000000"> keys</text>
</g>
</g>
</svg>
        <g id="navigator" transform="translate(0 0)" fill="#404254">
                <rect fill="#f2f5e9" fill-opacity="0.5" stroke="#606060" stroke-width=".5" x="0" y="0" width="60" height="60"/>
                <use id="zoomplus" xlink:href="#zoomPlus" x="17" y="9" onmousedown="handleZoom(evt,'in')"/>
                <use id="zoomminus" xlink:href="#zoomMin" x="42" y="9" onmousedown="handleZoom(evt,'out')"/>
                <use id="reset" xlink:href="#resetDef" x="30" y="36" onmousedown="handleReset()"/>
                <g id="arrowUp" xlink:href="#dirArrow" transform="translate(30 24)" onmousedown="handlePan(0,-1)">
                  <use xlink:href="#rim" fill="#404040">
                        <set attributeName="fill" to="#808080" begin="arrowUp.mouseover" end="arrowUp.mouseout"/>
                  </use>
                  <path fill="none" stroke="white" stroke-width="1.5" d="M0,-3.0v7 M-2.5,-0.5L0,-3.0L2.5,-0.5"/>
                </g>
                <g id="arrowRight" xlink:href="#dirArrow" transform="rotate(90) translate(36 -43)" onmousedown="handlePan(1,0)">
                  <use xlink:href="#rim" fill="#404040">
                        <set attributeName="fill" to="#808080" begin="arrowRight.mouseover" end="arrowRight.mouseout"/>
                  </use>
                  <path fill="none" stroke="white" stroke-width="1.5" d="M0,-3.0v7 M-2.5,-0.5L0,-3.0L2.5,-0.5"/>
                </g>
                <g id="arrowDown" xlink:href="#dirArrow" transform="rotate(180) translate(-30 -48)" onmousedown="handlePan(0,1)">
                  <use xlink:href="#rim" fill="#404040">
                        <set attributeName="fill" to="#808080" begin="arrowDown.mouseover" end="arrowDown.mouseout"/>
                  </use>
                  <path fill="none" stroke="white" stroke-width="1.5" d="M0,-3.0v7 M-2.5,-0.5L0,-3.0L2.5,-0.5"/>
                </g>
                <g id="arrowLeft" xlink:href="#dirArrow" transform="rotate(270) translate(-36 17)" onmousedown="handlePan(-1,0)">
                  <use xlink:href="#rim" fill="#404040">
                        <set attributeName="fill" to="#808080" begin="arrowLeft.mouseover" end="arrowLeft.mouseout"/>
                  </use>
                  <path fill="none" stroke="white" stroke-width="1.5" d="M0,-3.0v7 M-2.5,-0.5L0,-3.0L2.5,-0.5"/>
                </g>
        </g>
        <svg viewBox="0 0 15 15" width="100%" height="30px" preserveAspectRatio="xMaxYMin meet">
         <g id="arrow_out" transform="scale(0.3 0.3)">
          <a xlink:href="classargo_1_1globallock_1_1cohort__lock__coll__graph_org.svg" target="_base">
           <rect id="button" ry="5" rx="5" y="6" x="6" height="38" width="38"
                fill="#f2f5e9" fill-opacity="0.5" stroke="#606060" stroke-width="1.0"/>
           <path id="arrow"
             d="M 11.500037,31.436501 C 11.940474,20.09759 22.043105,11.32322 32.158766,21.979434 L 37.068811,17.246167 C 37.068811,17.246167 37.088388,32 37.088388,32 L 22.160133,31.978069 C 22.160133,31.978069 26.997745,27.140456 26.997745,27.140456 C 18.528582,18.264221 13.291696,25.230495 11.500037,31.436501 z"
             style="fill:#404040;"/>
          </a>
         </g>
        </svg>
</svg>
