<?xml version="1.0" encoding="UTF-8" standalone="no"?>
<!DOCTYPE svg PUBLIC "-//W3C//DTD SVG 1.1//EN"
 "http://www.w3.org/Graphics/SVG/1.1/DTD/svg11.dtd">
<!-- Generated by graphviz version 2.40.1 (20161225.0304)
 -->
<!-- Title: argo::allocators::generic_allocator::allocated_space Pages: 1 -->
<svg width="397pt" height="66pt"
 viewBox="0.00 0.00 397.00 66.00" xmlns="http://www.w3.org/2000/svg" xmlns:xlink="http://www.w3.org/1999/xlink">
<g id="graph0" class="graph" transform="scale(1 1) rotate(0) translate(4 62)">
<title>argo::allocators::generic_allocator::allocated_space</title>
<polygon fill="#ffffff" stroke="transparent" points="-4,4 -4,-62 393,-62 393,4 -4,4"/>
<!-- Node1 -->
<g id="node1" class="node">
<title>Node1</title>
<polygon fill="#bfbfbf" stroke="#000000" points="0,-14 0,-44 149,-44 149,-14 0,-14"/>
<text text-anchor="start" x="8" y="-32" font-family="Helvetica,sans-Serif" font-size="10.00" fill="#000000">argo::allocators::generic</text>
<text text-anchor="middle" x="74.5" y="-21" font-family="Helvetica,sans-Serif" font-size="10.00" fill="#000000">_allocator::allocated_space</text>
</g>
<!-- Node2 -->
<g id="node2" class="node">
<title>Node2</title>
<g id="a_node2"><a xlink:href="namespaceargo_aa7e8ddf5784dd37c965cfd43cd65a330.html#aa7e8ddf5784dd37c965cfd43cd65a330" target="_top" xlink:title="Delete a globally collectively allocated array of objects. ">
<polygon fill="#ffffff" stroke="#000000" points="185,-38.5 185,-57.5 302,-57.5 302,-38.5 185,-38.5"/>
<text text-anchor="middle" x="243.5" y="-45.5" font-family="Helvetica,sans-Serif" font-size="10.00" fill="#000000">argo::codelete_array</text>
</a>
</g>
</g>
<!-- Node1&#45;&gt;Node2 -->
<g id="edge1" class="edge">
<title>Node1&#45;&gt;Node2</title>
<path fill="none" stroke="#191970" d="M159.2315,-38.526C167.864,-39.4965 176.4932,-40.4667 184.7589,-41.396"/>
<polygon fill="#191970" stroke="#191970" points="159.4463,-35.0282 149.1178,-37.389 158.6641,-41.9844 159.4463,-35.0282"/>
</g>
<!-- Node4 -->
<g id="node4" class="node">
<title>Node4</title>
<g id="a_node4"><a xlink:href="namespaceargo_aeb7666a0539b817876610d8eaaf38566.html#aeb7666a0539b817876610d8eaaf38566" target="_top" xlink:title="Delete a globally allocated array of object. ">
<polygon fill="#ffffff" stroke="#000000" points="190.5,-.5 190.5,-19.5 296.5,-19.5 296.5,-.5 190.5,-.5"/>
<text text-anchor="middle" x="243.5" y="-7.5" font-family="Helvetica,sans-Serif" font-size="10.00" fill="#000000">argo::delete_array</text>
</a>
</g>
</g>
<!-- Node1&#45;&gt;Node4 -->
<g id="edge3" class="edge">
<title>Node1&#45;&gt;Node4</title>
<path fill="none" stroke="#191970" d="M159.1814,-19.4796C169.6989,-18.2972 180.2126,-17.1151 190.0709,-16.0068"/>
<polygon fill="#191970" stroke="#191970" points="158.6641,-16.0156 149.1178,-20.611 159.4463,-22.9718 158.6641,-16.0156"/>
</g>
<!-- Node3 -->
<g id="node3" class="node">
<title>Node3</title>
<g id="a_node3"><a xlink:href="tests_2allocators_8cpp_a0571f7229f019db2f46d8f56bebd01d0.html#a0571f7229f019db2f46d8f56bebd01d0" target="_top" xlink:title="mixes dynamic and collective allocation and stores dynamic arrays in a collective arrays to communica...">
<polygon fill="#ffffff" stroke="#000000" points="338,-19.5 338,-38.5 389,-38.5 389,-19.5 338,-19.5"/>
<text text-anchor="middle" x="363.5" y="-26.5" font-family="Helvetica,sans-Serif" font-size="10.00" fill="#000000">TEST_F</text>
</a>
</g>
</g>
<!-- Node2&#45;&gt;Node3 -->
<g id="edge2" class="edge">
<title>Node2&#45;&gt;Node3</title>
<path fill="none" stroke="#191970" d="M312.1205,-37.1351C321.2998,-35.6817 330.2042,-34.2718 337.9501,-33.0454"/>
<polygon fill="#191970" stroke="#191970" points="311.4234,-33.7018 302.0939,-38.7226 312.5182,-40.6156 311.4234,-33.7018"/>
</g>
<!-- Node4&#45;&gt;Node3 -->
<g id="edge4" class="edge">
<title>Node4&#45;&gt;Node3</title>
<path fill="none" stroke="#191970" d="M306.9091,-20.0398C317.8808,-21.777 328.6999,-23.49 337.8927,-24.9455"/>
<polygon fill="#191970" stroke="#191970" points="307.2569,-16.5513 296.8326,-18.4443 306.1622,-23.4652 307.2569,-16.5513"/>
</g>
</g>
</svg>
