<?xml version="1.0" encoding="UTF-8" standalone="no"?>
<!DOCTYPE svg PUBLIC "-//W3C//DTD SVG 1.1//EN"
 "http://www.w3.org/Graphics/SVG/1.1/DTD/svg11.dtd">
<!-- Generated by graphviz version 2.40.1 (20161225.0304)
 -->
<!-- Title: write_buffer::flush Pages: 1 -->
<svg width="854pt" height="254pt"
 viewBox="0.00 0.00 854.00 254.00" xmlns="http://www.w3.org/2000/svg" xmlns:xlink="http://www.w3.org/1999/xlink">
<g id="graph0" class="graph" transform="scale(1 1) rotate(0) translate(4 250)">
<title>write_buffer::flush</title>
<polygon fill="#ffffff" stroke="transparent" points="-4,4 -4,-250 850,-250 850,4 -4,4"/>
<!-- Node18 -->
<g id="node1" class="node">
<title>Node18</title>
<polygon fill="#bfbfbf" stroke="#000000" points="0,-103.5 0,-122.5 104,-122.5 104,-103.5 0,-103.5"/>
<text text-anchor="middle" x="52" y="-110.5" font-family="Helvetica,sans-Serif" font-size="10.00" fill="#000000">write_buffer::flush</text>
</g>
<!-- Node19 -->
<g id="node2" class="node">
<title>Node19</title>
<g id="a_node2"><a xlink:href="swdsm_8h_aa7c3a2de6bbafdaf68fe6ceb6110ab97.html#aa7c3a2de6bbafdaf68fe6ceb6110ab97" target="_top" xlink:title="Self&#45;Invalidates all memory that has potential writers. ">
<polygon fill="#ffffff" stroke="#000000" points="140,-103.5 140,-122.5 238,-122.5 238,-103.5 140,-103.5"/>
<text text-anchor="middle" x="189" y="-110.5" font-family="Helvetica,sans-Serif" font-size="10.00" fill="#000000">self_invalidation</text>
</a>
</g>
</g>
<!-- Node18&#45;&gt;Node19 -->
<g id="edge1" class="edge">
<title>Node18&#45;&gt;Node19</title>
<path fill="none" stroke="#191970" d="M114.4154,-113C122.8824,-113 131.4744,-113 139.6684,-113"/>
<polygon fill="#191970" stroke="#191970" points="114.1847,-109.5001 104.1846,-113 114.1846,-116.5001 114.1847,-109.5001"/>
</g>
<!-- Node20 -->
<g id="node3" class="node">
<title>Node20</title>
<g id="a_node3"><a xlink:href="swdsm_8h_ad3f5bdae81c60ac704dda7372792427d.html#ad3f5bdae81c60ac704dda7372792427d" target="_top" xlink:title="Global barrier for ArgoDSM &#45; needs to be called by every thread in the system that need coherent view...">
<polygon fill="#ffffff" stroke="#000000" points="280,-150.5 280,-169.5 396,-169.5 396,-150.5 280,-150.5"/>
<text text-anchor="middle" x="338" y="-157.5" font-family="Helvetica,sans-Serif" font-size="10.00" fill="#000000">swdsm_argo_barrier</text>
</a>
</g>
</g>
<!-- Node18&#45;&gt;Node20 -->
<g id="edge13" class="edge">
<title>Node18&#45;&gt;Node20</title>
<path fill="none" stroke="#191970" d="M103.0048,-124.6651C115.0995,-127.25 127.979,-129.8552 140,-132 186.8229,-140.3542 240.2363,-147.7858 279.7766,-152.8897"/>
<polygon fill="#191970" stroke="#191970" points="103.5808,-121.2087 93.0661,-122.5091 102.0968,-128.0496 103.5808,-121.2087"/>
</g>
<!-- Node30 -->
<g id="node13" class="node">
<title>Node30</title>
<g id="a_node13"><a xlink:href="swdsm_8h_ad390eb58e1be03ed6a0939fae7ebd20a.html#ad390eb58e1be03ed6a0939fae7ebd20a" target="_top" xlink:title="Release function for ArgoDSM (Release according to Release Consistency) ">
<polygon fill="#ffffff" stroke="#000000" points="149,-56.5 149,-75.5 229,-75.5 229,-56.5 149,-56.5"/>
<text text-anchor="middle" x="189" y="-63.5" font-family="Helvetica,sans-Serif" font-size="10.00" fill="#000000">argo_release</text>
</a>
</g>
</g>
<!-- Node18&#45;&gt;Node30 -->
<g id="edge14" class="edge">
<title>Node18&#45;&gt;Node30</title>
<path fill="none" stroke="#191970" d="M89.3188,-100.1972C111.8775,-92.4581 140.172,-82.7512 160.847,-75.6583"/>
<polygon fill="#191970" stroke="#191970" points="88.0471,-96.9332 79.724,-103.4888 90.3186,-103.5544 88.0471,-96.9332"/>
</g>
<!-- Node19&#45;&gt;Node20 -->
<g id="edge2" class="edge">
<title>Node19&#45;&gt;Node20</title>
<path fill="none" stroke="#191970" d="M228.9627,-125.6057C253.6909,-133.4058 284.9384,-143.2624 307.6371,-150.4224"/>
<polygon fill="#191970" stroke="#191970" points="229.7421,-122.1816 219.1524,-122.5112 227.6363,-128.8573 229.7421,-122.1816"/>
</g>
<!-- Node27 -->
<g id="node10" class="node">
<title>Node27</title>
<g id="a_node10"><a xlink:href="swdsm_8h_a44b8bb7a3c8b47b4f9552c8e10b25e4b.html#a44b8bb7a3c8b47b4f9552c8e10b25e4b" target="_top" xlink:title="acquire function for ArgoDSM (Acquire according to Release Consistency) ">
<polygon fill="#ffffff" stroke="#000000" points="298,-94.5 298,-113.5 378,-113.5 378,-94.5 298,-94.5"/>
<text text-anchor="middle" x="338" y="-101.5" font-family="Helvetica,sans-Serif" font-size="10.00" fill="#000000">argo_acquire</text>
</a>
</g>
</g>
<!-- Node19&#45;&gt;Node27 -->
<g id="edge9" class="edge">
<title>Node19&#45;&gt;Node27</title>
<path fill="none" stroke="#191970" d="M248.3638,-109.4143C264.9526,-108.4123 282.5867,-107.3471 297.7858,-106.429"/>
<polygon fill="#191970" stroke="#191970" points="247.9719,-105.9315 238.2011,-110.0281 248.394,-112.9187 247.9719,-105.9315"/>
</g>
<!-- Node21 -->
<g id="node4" class="node">
<title>Node21</title>
<g id="a_node4"><a xlink:href="backend_8hpp_af1a647431651556204709451bebb5a42.html#af1a647431651556204709451bebb5a42" target="_top" xlink:title="a simple collective barrier ">
<polygon fill="#ffffff" stroke="#000000" points="440,-226.5 440,-245.5 564,-245.5 564,-226.5 440,-226.5"/>
<text text-anchor="middle" x="502" y="-233.5" font-family="Helvetica,sans-Serif" font-size="10.00" fill="#000000">argo::backend::barrier</text>
</a>
</g>
</g>
<!-- Node20&#45;&gt;Node21 -->
<g id="edge3" class="edge">
<title>Node20&#45;&gt;Node21</title>
<path fill="none" stroke="#191970" d="M360.9725,-175.1209C380.7532,-187.6386 410.3914,-205.2188 438,-217 446.4217,-220.5937 455.7404,-223.7788 464.6004,-226.4653"/>
<polygon fill="#191970" stroke="#191970" points="362.6701,-172.0516 352.3634,-169.5976 358.8902,-177.9433 362.6701,-172.0516"/>
</g>
<!-- Node22 -->
<g id="node5" class="node">
<title>Node22</title>
<g id="a_node5"><a xlink:href="swdsm_8cpp_aa954d5e0bcaee69ff6e03e697bcaf68b.html#aa954d5e0bcaee69ff6e03e697bcaf68b" target="_top" xlink:title="shut down ArgoDSM system ">
<polygon fill="#ffffff" stroke="#000000" points="462.5,-188.5 462.5,-207.5 541.5,-207.5 541.5,-188.5 462.5,-188.5"/>
<text text-anchor="middle" x="502" y="-195.5" font-family="Helvetica,sans-Serif" font-size="10.00" fill="#000000">argo_finalize</text>
</a>
</g>
</g>
<!-- Node20&#45;&gt;Node22 -->
<g id="edge4" class="edge">
<title>Node20&#45;&gt;Node22</title>
<path fill="none" stroke="#191970" d="M389.2195,-171.8679C412.8014,-177.332 440.3563,-183.7167 462.3263,-188.8073"/>
<polygon fill="#191970" stroke="#191970" points="389.9161,-168.4367 379.3841,-169.589 388.336,-175.256 389.9161,-168.4367"/>
</g>
<!-- Node24 -->
<g id="node7" class="node">
<title>Node24</title>
<g id="a_node7"><a xlink:href="swdsm_8h_a0c6b51af2b87ddf7eb04aa7d4e0e836e.html#a0c6b51af2b87ddf7eb04aa7d4e0e836e" target="_top" xlink:title="Resets current coherence. Collective function called by all threads on all nodes. ...">
<polygon fill="#ffffff" stroke="#000000" points="440,-150.5 440,-169.5 564,-169.5 564,-150.5 440,-150.5"/>
<text text-anchor="middle" x="502" y="-157.5" font-family="Helvetica,sans-Serif" font-size="10.00" fill="#000000">argo_reset_coherence</text>
</a>
</g>
</g>
<!-- Node20&#45;&gt;Node24 -->
<g id="edge6" class="edge">
<title>Node20&#45;&gt;Node24</title>
<path fill="none" stroke="#191970" d="M406.3307,-160C417.4036,-160 428.8187,-160 439.7374,-160"/>
<polygon fill="#191970" stroke="#191970" points="406.2821,-156.5001 396.282,-160 406.282,-163.5001 406.2821,-156.5001"/>
</g>
<!-- Node23 -->
<g id="node6" class="node">
<title>Node23</title>
<g id="a_node6"><a xlink:href="swdsm_8h_a18cc89a7368e30281ea4b1d214a1b1ff.html#a18cc89a7368e30281ea4b1d214a1b1ff" target="_top" xlink:title="Pins and registers the local thread. ">
<polygon fill="#ffffff" stroke="#000000" points="602,-188.5 602,-207.5 703,-207.5 703,-188.5 602,-188.5"/>
<text text-anchor="middle" x="652.5" y="-195.5" font-family="Helvetica,sans-Serif" font-size="10.00" fill="#000000">argo_pin_threads</text>
</a>
</g>
</g>
<!-- Node22&#45;&gt;Node23 -->
<g id="edge5" class="edge">
<title>Node22&#45;&gt;Node23</title>
<path fill="none" stroke="#191970" d="M551.8203,-198C567.9009,-198 585.7372,-198 601.8753,-198"/>
<polygon fill="#191970" stroke="#191970" points="551.5421,-194.5001 541.5421,-198 551.5421,-201.5001 551.5421,-194.5001"/>
</g>
<!-- Node25 -->
<g id="node8" class="node">
<title>Node25</title>
<g id="a_node8"><a xlink:href="swdsm_8h_a31ba60e8ddccfa922da8d7e6a10f7b1d.html#a31ba60e8ddccfa922da8d7e6a10f7b1d" target="_top" xlink:title="Initializes ArgoDSM runtime. ">
<polygon fill="#ffffff" stroke="#000000" points="609.5,-150.5 609.5,-169.5 695.5,-169.5 695.5,-150.5 609.5,-150.5"/>
<text text-anchor="middle" x="652.5" y="-157.5" font-family="Helvetica,sans-Serif" font-size="10.00" fill="#000000">argo_initialize</text>
</a>
</g>
</g>
<!-- Node24&#45;&gt;Node25 -->
<g id="edge7" class="edge">
<title>Node24&#45;&gt;Node25</title>
<path fill="none" stroke="#191970" d="M574.1521,-160C586.2011,-160 598.3563,-160 609.379,-160"/>
<polygon fill="#191970" stroke="#191970" points="574.083,-156.5001 564.083,-160 574.083,-163.5001 574.083,-156.5001"/>
</g>
<!-- Node26 -->
<g id="node9" class="node">
<title>Node26</title>
<g id="a_node9"><a xlink:href="backend_8hpp_aab3cabb3e1c0b9696b339416b684f78c.html#aab3cabb3e1c0b9696b339416b684f78c" target="_top" xlink:title="initialize backend ">
<polygon fill="#ffffff" stroke="#000000" points="739,-150.5 739,-169.5 846,-169.5 846,-150.5 739,-150.5"/>
<text text-anchor="middle" x="792.5" y="-157.5" font-family="Helvetica,sans-Serif" font-size="10.00" fill="#000000">argo::backend::init</text>
</a>
</g>
</g>
<!-- Node25&#45;&gt;Node26 -->
<g id="edge8" class="edge">
<title>Node25&#45;&gt;Node26</title>
<path fill="none" stroke="#191970" d="M705.8168,-160C716.6429,-160 728.0344,-160 738.8712,-160"/>
<polygon fill="#191970" stroke="#191970" points="705.647,-156.5001 695.647,-160 705.6469,-163.5001 705.647,-156.5001"/>
</g>
<!-- Node28 -->
<g id="node11" class="node">
<title>Node28</title>
<g id="a_node11"><a xlink:href="backend_8hpp_a1032f833666c3f810ac1c6210197d426.html#a1032f833666c3f810ac1c6210197d426" target="_top" xlink:title="causes a node to self&#45;invalidate its cache, and thus getting any updated values on subsequent accesse...">
<polygon fill="#ffffff" stroke="#000000" points="438,-94.5 438,-113.5 566,-113.5 566,-94.5 438,-94.5"/>
<text text-anchor="middle" x="502" y="-101.5" font-family="Helvetica,sans-Serif" font-size="10.00" fill="#000000">argo::backend::acquire</text>
</a>
</g>
</g>
<!-- Node27&#45;&gt;Node28 -->
<g id="edge10" class="edge">
<title>Node27&#45;&gt;Node28</title>
<path fill="none" stroke="#191970" d="M388.5513,-104C404.0784,-104 421.3785,-104 437.6967,-104"/>
<polygon fill="#191970" stroke="#191970" points="388.1189,-100.5001 378.1189,-104 388.1189,-107.5001 388.1189,-100.5001"/>
</g>
<!-- Node29 -->
<g id="node12" class="node">
<title>Node29</title>
<g id="a_node12"><a xlink:href="swdsm_8h_ac0b665f72bc2a28dc663ed204c526e1b.html#ac0b665f72bc2a28dc663ed204c526e1b" target="_top" xlink:title="acquire&#45;release function for ArgoDSM (Both acquire and release according to Release Consistency) ...">
<polygon fill="#ffffff" stroke="#000000" points="462.5,-56.5 462.5,-75.5 541.5,-75.5 541.5,-56.5 462.5,-56.5"/>
<text text-anchor="middle" x="502" y="-63.5" font-family="Helvetica,sans-Serif" font-size="10.00" fill="#000000">argo_acq_rel</text>
</a>
</g>
</g>
<!-- Node27&#45;&gt;Node29 -->
<g id="edge12" class="edge">
<title>Node27&#45;&gt;Node29</title>
<path fill="none" stroke="#191970" d="M388.0401,-92.4054C411.8674,-86.8844 439.9629,-80.3744 462.2953,-75.1999"/>
<polygon fill="#191970" stroke="#191970" points="387.0708,-89.0371 378.1189,-94.7042 388.6509,-95.8565 387.0708,-89.0371"/>
</g>
<!-- Node28&#45;&gt;Node28 -->
<g id="edge11" class="edge">
<title>Node28&#45;&gt;Node28</title>
<path fill="none" stroke="#191970" d="M474.0009,-122.6539C475.1712,-127.9368 484.5043,-132 502,-132 528.6602,-132 536.3666,-122.5653 525.1194,-113.7571"/>
<polygon fill="#191970" stroke="#191970" points="477.1403,-124.208 478.8806,-113.7571 471.0029,-120.8417 477.1403,-124.208"/>
</g>
<!-- Node30&#45;&gt;Node29 -->
<g id="edge17" class="edge">
<title>Node30&#45;&gt;Node29</title>
<path fill="none" stroke="#191970" d="M239.6211,-66C301.7379,-66 405.7595,-66 462.3695,-66"/>
<polygon fill="#191970" stroke="#191970" points="239.2785,-62.5001 229.2785,-66 239.2785,-69.5001 239.2785,-62.5001"/>
</g>
<!-- Node31 -->
<g id="node14" class="node">
<title>Node31</title>
<g id="a_node14"><a xlink:href="backend_8hpp_a8953c9cd9d3c56306740b6c9b97513a2.html#a8953c9cd9d3c56306740b6c9b97513a2" target="_top" xlink:title="causes a node to self&#45;downgrade its cache, making all previous writes to be propagated to the homenod...">
<polygon fill="#ffffff" stroke="#000000" points="274,-.5 274,-19.5 402,-19.5 402,-.5 274,-.5"/>
<text text-anchor="middle" x="338" y="-7.5" font-family="Helvetica,sans-Serif" font-size="10.00" fill="#000000">argo::backend::release</text>
</a>
</g>
</g>
<!-- Node30&#45;&gt;Node31 -->
<g id="edge15" class="edge">
<title>Node30&#45;&gt;Node31</title>
<path fill="none" stroke="#191970" d="M224.1512,-52.7888C251.3568,-42.5639 288.3809,-28.6488 312.7202,-19.5011"/>
<polygon fill="#191970" stroke="#191970" points="222.7434,-49.5788 214.614,-56.3733 225.2061,-56.1313 222.7434,-49.5788"/>
</g>
<!-- Node31&#45;&gt;Node31 -->
<g id="edge16" class="edge">
<title>Node31&#45;&gt;Node31</title>
<path fill="none" stroke="#191970" d="M310.3742,-28.6539C311.5289,-33.9368 320.7375,-38 338,-38 364.3047,-38 371.9084,-28.5653 360.8111,-19.7571"/>
<polygon fill="#191970" stroke="#191970" points="313.5076,-30.2176 315.1889,-19.7571 307.3512,-26.886 313.5076,-30.2176"/>
</g>
</g>
</svg>
