<?xml version="1.0" encoding="UTF-8" standalone="no"?>
<!DOCTYPE svg PUBLIC "-//W3C//DTD SVG 1.1//EN"
 "http://www.w3.org/Graphics/SVG/1.1/DTD/svg11.dtd">
<!-- Generated by graphviz version 2.40.1 (20161225.0304)
 -->
<!-- Title: argo::locallock::mcs_lock::lock Pages: 1 -->
<svg width="445pt" height="88pt"
 viewBox="0.00 0.00 445.00 88.00" xmlns="http://www.w3.org/2000/svg" xmlns:xlink="http://www.w3.org/1999/xlink">
<g id="graph0" class="graph" transform="scale(1 1) rotate(0) translate(4 84)">
<title>argo::locallock::mcs_lock::lock</title>
<polygon fill="#ffffff" stroke="transparent" points="-4,4 -4,-84 441,-84 441,4 -4,4"/>
<!-- Node1 -->
<g id="node1" class="node">
<title>Node1</title>
<polygon fill="#bfbfbf" stroke="#000000" points="0,-24.5 0,-54.5 114,-54.5 114,-24.5 0,-24.5"/>
<text text-anchor="start" x="8" y="-42.5" font-family="Helvetica,sans-Serif" font-size="10.00" fill="#000000">argo::locallock::mcs</text>
<text text-anchor="middle" x="57" y="-31.5" font-family="Helvetica,sans-Serif" font-size="10.00" fill="#000000">_lock::lock</text>
</g>
<!-- Node2 -->
<g id="node2" class="node">
<title>Node2</title>
<g id="a_node2"><a xlink:href="classargo_1_1globallock_1_1cohort__lock_ae6e70438d85a8ae5698d198ce11d9a89.html#ae6e70438d85a8ae5698d198ce11d9a89" target="_top" xlink:title="Acquire the lock. ">
<polygon fill="#ffffff" stroke="#000000" points="150,-49.5 150,-79.5 281,-79.5 281,-49.5 150,-49.5"/>
<text text-anchor="start" x="158" y="-67.5" font-family="Helvetica,sans-Serif" font-size="10.00" fill="#000000">argo::globallock::cohort</text>
<text text-anchor="middle" x="215.5" y="-56.5" font-family="Helvetica,sans-Serif" font-size="10.00" fill="#000000">_lock::lock</text>
</a>
</g>
</g>
<!-- Node1&#45;&gt;Node2 -->
<g id="edge1" class="edge">
<title>Node1&#45;&gt;Node2</title>
<path fill="none" stroke="#191970" d="M124.3617,-50.1249C132.7701,-51.4511 141.3612,-52.8062 149.7446,-54.1285"/>
<polygon fill="#191970" stroke="#191970" points="124.6454,-46.6264 114.2221,-48.5256 123.5547,-53.5409 124.6454,-46.6264"/>
</g>
<!-- Node4 -->
<g id="node4" class="node">
<title>Node4</title>
<g id="a_node4"><a xlink:href="classargo_1_1locallock_1_1mcs__lock_a6747b1e5a3cf8db9bda7049d6fdb5dc1.html#a6747b1e5a3cf8db9bda7049d6fdb5dc1" target="_top" xlink:title="Construct an MCS lock. ">
<polygon fill="#ffffff" stroke="#000000" points="158.5,-.5 158.5,-30.5 272.5,-30.5 272.5,-.5 158.5,-.5"/>
<text text-anchor="start" x="166.5" y="-18.5" font-family="Helvetica,sans-Serif" font-size="10.00" fill="#000000">argo::locallock::mcs</text>
<text text-anchor="middle" x="215.5" y="-7.5" font-family="Helvetica,sans-Serif" font-size="10.00" fill="#000000">_lock::mcs_lock</text>
</a>
</g>
</g>
<!-- Node1&#45;&gt;Node4 -->
<g id="edge3" class="edge">
<title>Node1&#45;&gt;Node4</title>
<path fill="none" stroke="#191970" d="M124.1229,-29.3363C135.5175,-27.6109 147.2546,-25.8337 158.3619,-24.1518"/>
<polygon fill="#191970" stroke="#191970" points="123.5854,-25.8777 114.2221,-30.8354 124.6335,-32.7988 123.5854,-25.8777"/>
</g>
<!-- Node3 -->
<g id="node3" class="node">
<title>Node3</title>
<g id="a_node3"><a xlink:href="cohort__lock_8h_a3518d9666b8fe266f34c7aea2b4a583e.html#a3518d9666b8fe266f34c7aea2b4a583e" target="_top" xlink:title="lock a cohort lock ">
<polygon fill="#ffffff" stroke="#000000" points="317,-55 317,-74 437,-74 437,-55 317,-55"/>
<text text-anchor="middle" x="377" y="-62" font-family="Helvetica,sans-Serif" font-size="10.00" fill="#000000">argo_cohortlock_lock</text>
</a>
</g>
</g>
<!-- Node2&#45;&gt;Node3 -->
<g id="edge2" class="edge">
<title>Node2&#45;&gt;Node3</title>
<path fill="none" stroke="#191970" d="M291.2174,-64.5C299.8106,-64.5 308.4801,-64.5 316.8347,-64.5"/>
<polygon fill="#191970" stroke="#191970" points="291.1883,-61.0001 281.1882,-64.5 291.1882,-68.0001 291.1883,-61.0001"/>
</g>
</g>
</svg>
