<?xml version="1.0" encoding="UTF-8" standalone="no"?>
<!DOCTYPE svg PUBLIC "-//W3C//DTD SVG 1.1//EN"
 "http://www.w3.org/Graphics/SVG/1.1/DTD/svg11.dtd">
<!-- Generated by graphviz version 2.40.1 (20161225.0304)
 -->
<!-- Title: argo::data_distribution::prime_mapp_distribution::local_offset Pages: 1 -->
<svg width="486pt" height="74pt"
 viewBox="0.00 0.00 486.00 74.00" xmlns="http://www.w3.org/2000/svg" xmlns:xlink="http://www.w3.org/1999/xlink">
<g id="graph0" class="graph" transform="scale(1 1) rotate(0) translate(4 70)">
<title>argo::data_distribution::prime_mapp_distribution::local_offset</title>
<polygon fill="#ffffff" stroke="transparent" points="-4,4 -4,-70 482,-70 482,4 -4,4"/>
<!-- Node0 -->
<g id="node1" class="node">
<title>Node0</title>
<polygon fill="#bfbfbf" stroke="#000000" points="0,-24.5 0,-65.5 145,-65.5 145,-24.5 0,-24.5"/>
<text text-anchor="start" x="8" y="-53.5" font-family="Helvetica,sans-Serif" font-size="10.00" fill="#000000">argo::data_distribution</text>
<text text-anchor="start" x="8" y="-42.5" font-family="Helvetica,sans-Serif" font-size="10.00" fill="#000000">::prime_mapp_distribution</text>
<text text-anchor="middle" x="72.5" y="-31.5" font-family="Helvetica,sans-Serif" font-size="10.00" fill="#000000">::local_offset</text>
</g>
<!-- Node1 -->
<g id="node2" class="node">
<title>Node1</title>
<g id="a_node2"><a xlink:href="namespaceargo_1_1env_a30775a9aa41b956df7474a2c0cc317aa.html#a30775a9aa41b956df7474a2c0cc317aa" target="_top" xlink:title="get the allocation block size requested by environment variable ">
<polygon fill="#ffffff" stroke="#000000" points="362,-30 362,-60 478,-60 478,-30 362,-30"/>
<text text-anchor="start" x="370" y="-48" font-family="Helvetica,sans-Serif" font-size="10.00" fill="#000000">argo::env::allocation</text>
<text text-anchor="middle" x="420" y="-37" font-family="Helvetica,sans-Serif" font-size="10.00" fill="#000000">_block_size</text>
</a>
</g>
</g>
<!-- Node0&#45;&gt;Node1 -->
<g id="edge1" class="edge">
<title>Node0&#45;&gt;Node1</title>
<path fill="none" stroke="#191970" d="M145.1387,-49.5726C157.1148,-50.1668 169.4021,-50.6796 181,-51 245.4199,-52.7798 261.5883,-53.0536 326,-51 334.3407,-50.7341 343.0914,-50.3358 351.7572,-49.8684"/>
<polygon fill="#191970" stroke="#191970" points="352.0771,-53.3559 361.8614,-49.2918 351.6782,-46.3673 352.0771,-53.3559"/>
</g>
<!-- Node2 -->
<g id="node3" class="node">
<title>Node2</title>
<g id="a_node3"><a xlink:href="classargo_1_1data__distribution_1_1prime__mapp__distribution_ad1e401583e34588a77b0634758fa1f75.html#ad1e401583e34588a77b0634758fa1f75" target="_top" xlink:title="compute home node of an address ">
<polygon fill="#ffffff" stroke="#000000" points="181,-.5 181,-41.5 326,-41.5 326,-.5 181,-.5"/>
<text text-anchor="start" x="189" y="-29.5" font-family="Helvetica,sans-Serif" font-size="10.00" fill="#000000">argo::data_distribution</text>
<text text-anchor="start" x="189" y="-18.5" font-family="Helvetica,sans-Serif" font-size="10.00" fill="#000000">::prime_mapp_distribution</text>
<text text-anchor="middle" x="253.5" y="-7.5" font-family="Helvetica,sans-Serif" font-size="10.00" fill="#000000">::homenode</text>
</a>
</g>
</g>
<!-- Node0&#45;&gt;Node2 -->
<g id="edge2" class="edge">
<title>Node0&#45;&gt;Node2</title>
<path fill="none" stroke="#191970" d="M145.0767,-35.3766C153.5595,-34.2518 162.2611,-33.098 170.8671,-31.9569"/>
<polygon fill="#191970" stroke="#191970" points="171.4539,-35.4098 180.907,-30.6256 170.5337,-28.4705 171.4539,-35.4098"/>
</g>
<!-- Node2&#45;&gt;Node1 -->
<g id="edge3" class="edge">
<title>Node2&#45;&gt;Node1</title>
<path fill="none" stroke="#191970" d="M326.045,-31.4569C334.6741,-32.7008 343.4593,-33.9671 352.0213,-35.2013"/>
<polygon fill="#191970" stroke="#191970" points="351.5501,-38.6694 361.9472,-36.632 352.5488,-31.741 351.5501,-38.6694"/>
</g>
</g>
</svg>
