<?xml version="1.0" encoding="UTF-8" standalone="no"?>
<!DOCTYPE svg PUBLIC "-//W3C//DTD SVG 1.1//EN"
 "http://www.w3.org/Graphics/SVG/1.1/DTD/svg11.dtd">
<!-- Generated by graphviz version 2.40.1 (20161225.0304)
 -->
<!-- Title: write_buffer::erase Pages: 1 -->
<svg width="293pt" height="181pt"
 viewBox="0.00 0.00 293.00 180.50" xmlns="http://www.w3.org/2000/svg" xmlns:xlink="http://www.w3.org/1999/xlink">
<g id="graph0" class="graph" transform="scale(1 1) rotate(0) translate(4 176.5)">
<title>write_buffer::erase</title>
<polygon fill="#ffffff" stroke="transparent" points="-4,4 -4,-176.5 289,-176.5 289,4 -4,4"/>
<!-- Node1 -->
<g id="node1" class="node">
<title>Node1</title>
<polygon fill="#bfbfbf" stroke="#000000" points="0,-62.5 0,-81.5 108,-81.5 108,-62.5 0,-62.5"/>
<text text-anchor="middle" x="54" y="-69.5" font-family="Helvetica,sans-Serif" font-size="10.00" fill="#000000">write_buffer::erase</text>
</g>
<!-- Node2 -->
<g id="node2" class="node">
<title>Node2</title>
<g id="a_node2"><a xlink:href="backend_8hpp_a0fb29a8253f0d9aefc999d93414b1758.html#a0fb29a8253f0d9aefc999d93414b1758" target="_top" xlink:title="backend internal type erased function for selective acquire ">
<polygon fill="#ffffff" stroke="#000000" points="144,-124 144,-154 285,-154 285,-124 144,-124"/>
<text text-anchor="start" x="152" y="-142" font-family="Helvetica,sans-Serif" font-size="10.00" fill="#000000">argo::backend::_selective</text>
<text text-anchor="middle" x="214.5" y="-131" font-family="Helvetica,sans-Serif" font-size="10.00" fill="#000000">_acquire</text>
</a>
</g>
</g>
<!-- Node1&#45;&gt;Node2 -->
<g id="edge1" class="edge">
<title>Node1&#45;&gt;Node2</title>
<path fill="none" stroke="#191970" d="M81.4693,-86.1601C99.102,-94.9898 122.6211,-106.2891 144,-115 151.5434,-118.0736 159.6436,-121.0879 167.5698,-123.8859"/>
<polygon fill="#191970" stroke="#191970" points="82.8335,-82.9281 72.3299,-81.541 79.676,-89.1755 82.8335,-82.9281"/>
</g>
<!-- Node3 -->
<g id="node3" class="node">
<title>Node3</title>
<g id="a_node3"><a xlink:href="backend_8hpp_ac3350bde3c8baf64753e515336fad3be.html#ac3350bde3c8baf64753e515336fad3be" target="_top" xlink:title="backend internal type erased function for selective release ">
<polygon fill="#ffffff" stroke="#000000" points="144,-57 144,-87 285,-87 285,-57 144,-57"/>
<text text-anchor="start" x="152" y="-75" font-family="Helvetica,sans-Serif" font-size="10.00" fill="#000000">argo::backend::_selective</text>
<text text-anchor="middle" x="214.5" y="-64" font-family="Helvetica,sans-Serif" font-size="10.00" fill="#000000">_release</text>
</a>
</g>
</g>
<!-- Node1&#45;&gt;Node3 -->
<g id="edge3" class="edge">
<title>Node1&#45;&gt;Node3</title>
<path fill="none" stroke="#191970" d="M118.3652,-72C126.7036,-72 135.2803,-72 143.7155,-72"/>
<polygon fill="#191970" stroke="#191970" points="118.338,-68.5001 108.338,-72 118.3379,-75.5001 118.338,-68.5001"/>
</g>
<!-- Node4 -->
<g id="node4" class="node">
<title>Node4</title>
<g id="a_node4"><a xlink:href="swdsm_8h_aa5da42b70088b546b0f16d0a8031cfd1.html#aa5da42b70088b546b0f16d0a8031cfd1" target="_top" xlink:title="Gets the offset of an address on the local nodes part of the global memory. ">
<polygon fill="#ffffff" stroke="#000000" points="177.5,-.5 177.5,-19.5 251.5,-19.5 251.5,-.5 177.5,-.5"/>
<text text-anchor="middle" x="214.5" y="-7.5" font-family="Helvetica,sans-Serif" font-size="10.00" fill="#000000">peek_offset</text>
</a>
</g>
</g>
<!-- Node1&#45;&gt;Node4 -->
<g id="edge5" class="edge">
<title>Node1&#45;&gt;Node4</title>
<path fill="none" stroke="#191970" d="M88.1116,-58.8229C118.591,-47.049 162.5185,-30.0801 189.7455,-19.5625"/>
<polygon fill="#191970" stroke="#191970" points="86.7934,-55.58 78.7264,-62.4484 89.3158,-62.1098 86.7934,-55.58"/>
</g>
<!-- Node2&#45;&gt;Node2 -->
<g id="edge2" class="edge">
<title>Node2&#45;&gt;Node2</title>
<path fill="none" stroke="#191970" d="M186.0699,-164.4579C189.5985,-169.179 199.0752,-172.5 214.5,-172.5 239.8125,-172.5 249.1069,-163.5566 242.3833,-154.159"/>
<polygon fill="#191970" stroke="#191970" points="189.5815,-164.3305 186.6167,-154.159 182.5914,-163.9594 189.5815,-164.3305"/>
</g>
<!-- Node3&#45;&gt;Node3 -->
<g id="edge4" class="edge">
<title>Node3&#45;&gt;Node3</title>
<path fill="none" stroke="#191970" d="M186.0699,-97.4579C189.5985,-102.179 199.0752,-105.5 214.5,-105.5 239.8125,-105.5 249.1069,-96.5566 242.3833,-87.159"/>
<polygon fill="#191970" stroke="#191970" points="189.5815,-97.3305 186.6167,-87.159 182.5914,-96.9594 189.5815,-97.3305"/>
</g>
<!-- Node4&#45;&gt;Node4 -->
<g id="edge6" class="edge">
<title>Node4&#45;&gt;Node4</title>
<path fill="none" stroke="#191970" d="M184.5599,-28.2746C185.4135,-33.741 195.3936,-38 214.5,-38 242.9375,-38 251.1577,-28.5653 239.1606,-19.7571"/>
<polygon fill="#191970" stroke="#191970" points="187.5458,-30.1007 189.8394,-19.7571 181.596,-26.4128 187.5458,-30.1007"/>
</g>
</g>
</svg>
