<?xml version="1.0" encoding="UTF-8" standalone="no"?>
<!DOCTYPE svg PUBLIC "-//W3C//DTD SVG 1.1//EN"
 "http://www.w3.org/Graphics/SVG/1.1/DTD/svg11.dtd">
<!-- Generated by graphviz version 2.40.1 (20161225.0304)
 -->
<!-- Title: argo::data_distribution::prime_mapp_distribution::peek_local_offset Pages: 1 -->
<svg width="667pt" height="74pt"
 viewBox="0.00 0.00 667.00 74.00" xmlns="http://www.w3.org/2000/svg" xmlns:xlink="http://www.w3.org/1999/xlink">
<g id="graph0" class="graph" transform="scale(1 1) rotate(0) translate(4 70)">
<title>argo::data_distribution::prime_mapp_distribution::peek_local_offset</title>
<polygon fill="#ffffff" stroke="transparent" points="-4,4 -4,-70 663,-70 663,4 -4,4"/>
<!-- Node0 -->
<g id="node1" class="node">
<title>Node0</title>
<polygon fill="#bfbfbf" stroke="#000000" points="0,-24.5 0,-65.5 145,-65.5 145,-24.5 0,-24.5"/>
<text text-anchor="start" x="8" y="-53.5" font-family="Helvetica,sans-Serif" font-size="10.00" fill="#000000">argo::data_distribution</text>
<text text-anchor="start" x="8" y="-42.5" font-family="Helvetica,sans-Serif" font-size="10.00" fill="#000000">::prime_mapp_distribution</text>
<text text-anchor="middle" x="72.5" y="-31.5" font-family="Helvetica,sans-Serif" font-size="10.00" fill="#000000">::peek_local_offset</text>
</g>
<!-- Node1 -->
<g id="node2" class="node">
<title>Node1</title>
<g id="a_node2"><a xlink:href="classargo_1_1data__distribution_1_1prime__mapp__distribution_a253fb788715eda52fd5f52c26c02b444.html#a253fb788715eda52fd5f52c26c02b444" target="_top" xlink:title="compute the offset of ptr in the backing store on ptr&#39;s homenode ">
<polygon fill="#ffffff" stroke="#000000" points="181,-24.5 181,-65.5 326,-65.5 326,-24.5 181,-24.5"/>
<text text-anchor="start" x="189" y="-53.5" font-family="Helvetica,sans-Serif" font-size="10.00" fill="#000000">argo::data_distribution</text>
<text text-anchor="start" x="189" y="-42.5" font-family="Helvetica,sans-Serif" font-size="10.00" fill="#000000">::prime_mapp_distribution</text>
<text text-anchor="middle" x="253.5" y="-31.5" font-family="Helvetica,sans-Serif" font-size="10.00" fill="#000000">::local_offset</text>
</a>
</g>
</g>
<!-- Node0&#45;&gt;Node1 -->
<g id="edge1" class="edge">
<title>Node0&#45;&gt;Node1</title>
<path fill="none" stroke="#191970" d="M145.0767,-45C153.5595,-45 162.2611,-45 170.8671,-45"/>
<polygon fill="#191970" stroke="#191970" points="170.907,-48.5001 180.907,-45 170.907,-41.5001 170.907,-48.5001"/>
</g>
<!-- Node2 -->
<g id="node3" class="node">
<title>Node2</title>
<g id="a_node3"><a xlink:href="namespaceargo_1_1env_a30775a9aa41b956df7474a2c0cc317aa.html#a30775a9aa41b956df7474a2c0cc317aa" target="_top" xlink:title="get the allocation block size requested by environment variable ">
<polygon fill="#ffffff" stroke="#000000" points="543,-30 543,-60 659,-60 659,-30 543,-30"/>
<text text-anchor="start" x="551" y="-48" font-family="Helvetica,sans-Serif" font-size="10.00" fill="#000000">argo::env::allocation</text>
<text text-anchor="middle" x="601" y="-37" font-family="Helvetica,sans-Serif" font-size="10.00" fill="#000000">_block_size</text>
</a>
</g>
</g>
<!-- Node1&#45;&gt;Node2 -->
<g id="edge2" class="edge">
<title>Node1&#45;&gt;Node2</title>
<path fill="none" stroke="#191970" d="M326.1387,-49.5726C338.1148,-50.1668 350.4021,-50.6796 362,-51 426.4199,-52.7798 442.5883,-53.0536 507,-51 515.3407,-50.7341 524.0914,-50.3358 532.7572,-49.8684"/>
<polygon fill="#191970" stroke="#191970" points="533.0771,-53.3559 542.8614,-49.2918 532.6782,-46.3673 533.0771,-53.3559"/>
</g>
<!-- Node3 -->
<g id="node4" class="node">
<title>Node3</title>
<g id="a_node4"><a xlink:href="classargo_1_1data__distribution_1_1prime__mapp__distribution_ad1e401583e34588a77b0634758fa1f75.html#ad1e401583e34588a77b0634758fa1f75" target="_top" xlink:title="compute home node of an address ">
<polygon fill="#ffffff" stroke="#000000" points="362,-.5 362,-41.5 507,-41.5 507,-.5 362,-.5"/>
<text text-anchor="start" x="370" y="-29.5" font-family="Helvetica,sans-Serif" font-size="10.00" fill="#000000">argo::data_distribution</text>
<text text-anchor="start" x="370" y="-18.5" font-family="Helvetica,sans-Serif" font-size="10.00" fill="#000000">::prime_mapp_distribution</text>
<text text-anchor="middle" x="434.5" y="-7.5" font-family="Helvetica,sans-Serif" font-size="10.00" fill="#000000">::homenode</text>
</a>
</g>
</g>
<!-- Node1&#45;&gt;Node3 -->
<g id="edge3" class="edge">
<title>Node1&#45;&gt;Node3</title>
<path fill="none" stroke="#191970" d="M326.0767,-35.3766C334.5595,-34.2518 343.2611,-33.098 351.8671,-31.9569"/>
<polygon fill="#191970" stroke="#191970" points="352.4539,-35.4098 361.907,-30.6256 351.5337,-28.4705 352.4539,-35.4098"/>
</g>
<!-- Node3&#45;&gt;Node2 -->
<g id="edge4" class="edge">
<title>Node3&#45;&gt;Node2</title>
<path fill="none" stroke="#191970" d="M507.045,-31.4569C515.6741,-32.7008 524.4593,-33.9671 533.0213,-35.2013"/>
<polygon fill="#191970" stroke="#191970" points="532.5501,-38.6694 542.9472,-36.632 533.5488,-31.741 532.5501,-38.6694"/>
</g>
</g>
</svg>
