<?xml version="1.0" encoding="UTF-8" standalone="no"?>
<!DOCTYPE svg PUBLIC "-//W3C//DTD SVG 1.1//EN"
 "http://www.w3.org/Graphics/SVG/1.1/DTD/svg11.dtd">
<!-- Generated by graphviz version 2.40.1 (20161225.0304)
 -->
<!-- Title: argo::allocators::generic_allocator::deallocate Pages: 1 -->
<svg width="318pt" height="39pt"
 viewBox="0.00 0.00 318.00 39.00" xmlns="http://www.w3.org/2000/svg" xmlns:xlink="http://www.w3.org/1999/xlink">
<g id="graph0" class="graph" transform="scale(1 1) rotate(0) translate(4 35)">
<title>argo::allocators::generic_allocator::deallocate</title>
<polygon fill="#ffffff" stroke="transparent" points="-4,4 -4,-35 314,-35 314,4 -4,4"/>
<!-- Node1 -->
<g id="node1" class="node">
<title>Node1</title>
<polygon fill="#bfbfbf" stroke="#000000" points="0,-.5 0,-30.5 134,-30.5 134,-.5 0,-.5"/>
<text text-anchor="start" x="8" y="-18.5" font-family="Helvetica,sans-Serif" font-size="10.00" fill="#000000">argo::allocators::generic</text>
<text text-anchor="middle" x="67" y="-7.5" font-family="Helvetica,sans-Serif" font-size="10.00" fill="#000000">_allocator::deallocate</text>
</g>
<!-- Node2 -->
<g id="node2" class="node">
<title>Node2</title>
<g id="a_node2"><a xlink:href="classargo_1_1allocators_1_1dynamic__allocator_a56d95163348064bb5279caae40316934.html#a56d95163348064bb5279caae40316934" target="_top" xlink:title="deallocate memory ">
<polygon fill="#ffffff" stroke="#000000" points="170,-.5 170,-30.5 310,-30.5 310,-.5 170,-.5"/>
<text text-anchor="start" x="178" y="-18.5" font-family="Helvetica,sans-Serif" font-size="10.00" fill="#000000">argo::allocators::dynamic</text>
<text text-anchor="middle" x="240" y="-7.5" font-family="Helvetica,sans-Serif" font-size="10.00" fill="#000000">_allocator::deallocate</text>
</a>
</g>
</g>
<!-- Node1&#45;&gt;Node2 -->
<g id="edge1" class="edge">
<title>Node1&#45;&gt;Node2</title>
<path fill="none" stroke="#191970" d="M144.6019,-15.5C153.0451,-15.5 161.6026,-15.5 169.948,-15.5"/>
<polygon fill="#191970" stroke="#191970" points="144.3817,-12.0001 134.3817,-15.5 144.3817,-19.0001 144.3817,-12.0001"/>
</g>
</g>
</svg>
