<?xml version="1.0" encoding="UTF-8" standalone="no"?>
<!DOCTYPE svg PUBLIC "-//W3C//DTD SVG 1.1//EN"
 "http://www.w3.org/Graphics/SVG/1.1/DTD/svg11.dtd">
<!-- Generated by graphviz version 2.40.1 (20161225.0304)
 -->
<!-- Title: argo::data_distribution::naive_distribution::peek_homenode Pages: 1 -->
<svg width="298pt" height="50pt"
 viewBox="0.00 0.00 298.00 50.00" xmlns="http://www.w3.org/2000/svg" xmlns:xlink="http://www.w3.org/1999/xlink">
<g id="graph0" class="graph" transform="scale(1 1) rotate(0) translate(4 46)">
<title>argo::data_distribution::naive_distribution::peek_homenode</title>
<polygon fill="#ffffff" stroke="transparent" points="-4,4 -4,-46 294,-46 294,4 -4,4"/>
<!-- Node0 -->
<g id="node1" class="node">
<title>Node0</title>
<polygon fill="#bfbfbf" stroke="#000000" points="0,-.5 0,-41.5 127,-41.5 127,-.5 0,-.5"/>
<text text-anchor="start" x="8" y="-29.5" font-family="Helvetica,sans-Serif" font-size="10.00" fill="#000000">argo::data_distribution</text>
<text text-anchor="start" x="8" y="-18.5" font-family="Helvetica,sans-Serif" font-size="10.00" fill="#000000">::naive_distribution::</text>
<text text-anchor="middle" x="63.5" y="-7.5" font-family="Helvetica,sans-Serif" font-size="10.00" fill="#000000">peek_homenode</text>
</g>
<!-- Node1 -->
<g id="node2" class="node">
<title>Node1</title>
<g id="a_node2"><a xlink:href="classargo_1_1data__distribution_1_1naive__distribution_aae672c2bddd64b841835afda7fab7ccc.html#aae672c2bddd64b841835afda7fab7ccc" target="_top" xlink:title="compute home node of an address ">
<polygon fill="#ffffff" stroke="#000000" points="163,-.5 163,-41.5 290,-41.5 290,-.5 163,-.5"/>
<text text-anchor="start" x="171" y="-29.5" font-family="Helvetica,sans-Serif" font-size="10.00" fill="#000000">argo::data_distribution</text>
<text text-anchor="start" x="171" y="-18.5" font-family="Helvetica,sans-Serif" font-size="10.00" fill="#000000">::naive_distribution::</text>
<text text-anchor="middle" x="226.5" y="-7.5" font-family="Helvetica,sans-Serif" font-size="10.00" fill="#000000">homenode</text>
</a>
</g>
</g>
<!-- Node0&#45;&gt;Node1 -->
<g id="edge1" class="edge">
<title>Node0&#45;&gt;Node1</title>
<path fill="none" stroke="#191970" d="M127.4541,-21C135.7606,-21 144.3224,-21 152.7718,-21"/>
<polygon fill="#191970" stroke="#191970" points="152.9977,-24.5001 162.9977,-21 152.9977,-17.5001 152.9977,-24.5001"/>
</g>
</g>
</svg>
