<?xml version="1.0" encoding="UTF-8" standalone="no"?>
<!DOCTYPE svg PUBLIC "-//W3C//DTD SVG 1.1//EN"
 "http://www.w3.org/Graphics/SVG/1.1/DTD/svg11.dtd">
<!-- Generated by graphviz version 2.40.1 (20161225.0304)
 -->
<!-- Title: argo::data_distribution::global_ptr::peek_node Pages: 1 -->
<svg width="1388pt" height="494pt"
 viewBox="0.00 0.00 1388.00 494.00" xmlns="http://www.w3.org/2000/svg" xmlns:xlink="http://www.w3.org/1999/xlink">
<g id="graph0" class="graph" transform="scale(1 1) rotate(0) translate(4 490)">
<title>argo::data_distribution::global_ptr::peek_node</title>
<polygon fill="#ffffff" stroke="transparent" points="-4,4 -4,-490 1384,-490 1384,4 -4,4"/>
<!-- Node1 -->
<g id="node1" class="node">
<title>Node1</title>
<polygon fill="#bfbfbf" stroke="#000000" points="0,-181 0,-211 131,-211 131,-181 0,-181"/>
<text text-anchor="start" x="8" y="-199" font-family="Helvetica,sans-Serif" font-size="10.00" fill="#000000">argo::data_distribution</text>
<text text-anchor="middle" x="65.5" y="-188" font-family="Helvetica,sans-Serif" font-size="10.00" fill="#000000">::global_ptr::peek_node</text>
</g>
<!-- Node2 -->
<g id="node2" class="node">
<title>Node2</title>
<g id="a_node2"><a xlink:href="namespaceargo_a48dc17c94275df10a8e7f3959cbf0191.html#a48dc17c94275df10a8e7f3959cbf0191" target="_top" xlink:title="Get the ArgoDSM node id where addr is physically backed. ">
<polygon fill="#ffffff" stroke="#000000" points="167,-273.5 167,-292.5 284,-292.5 284,-273.5 167,-273.5"/>
<text text-anchor="middle" x="225.5" y="-280.5" font-family="Helvetica,sans-Serif" font-size="10.00" fill="#000000">argo::get_homenode</text>
</a>
</g>
</g>
<!-- Node1&#45;&gt;Node2 -->
<g id="edge1" class="edge">
<title>Node1&#45;&gt;Node2</title>
<path fill="none" stroke="#191970" d="M102.2974,-216.0086C135.3793,-233.9969 182.5407,-259.6409 207.8428,-273.3989"/>
<polygon fill="#191970" stroke="#191970" points="103.8271,-212.8564 93.3699,-211.1542 100.4832,-219.0061 103.8271,-212.8564"/>
</g>
<!-- Node24 -->
<g id="node24" class="node">
<title>Node24</title>
<g id="a_node24"><a xlink:href="swdsm_8h_ac2a76a52d43c19cf7d5ed770e14c4409.html#ac2a76a52d43c19cf7d5ed770e14c4409" target="_top" xlink:title="Gives homenode for a given address. ">
<polygon fill="#ffffff" stroke="#000000" points="176.5,-100.5 176.5,-119.5 274.5,-119.5 274.5,-100.5 176.5,-100.5"/>
<text text-anchor="middle" x="225.5" y="-107.5" font-family="Helvetica,sans-Serif" font-size="10.00" fill="#000000">peek_homenode</text>
</a>
</g>
</g>
<!-- Node1&#45;&gt;Node24 -->
<g id="edge28" class="edge">
<title>Node1&#45;&gt;Node24</title>
<path fill="none" stroke="#191970" d="M102.6243,-176.0457C135.5303,-158.3587 182.173,-133.2883 207.4776,-119.6871"/>
<polygon fill="#191970" stroke="#191970" points="100.8877,-173.0055 93.7365,-180.8229 104.2018,-179.1713 100.8877,-173.0055"/>
</g>
<!-- Node3 -->
<g id="node3" class="node">
<title>Node3</title>
<g id="a_node3"><a xlink:href="argo_8h_aa4a06a633ece5fbb94b9d8f0a6479e4c.html#aa4a06a633ece5fbb94b9d8f0a6479e4c" target="_top" xlink:title="Get the ArgoDSM node id where addr is physically backed. ">
<polygon fill="#ffffff" stroke="#000000" points="332.5,-355.5 332.5,-374.5 448.5,-374.5 448.5,-355.5 332.5,-355.5"/>
<text text-anchor="middle" x="390.5" y="-362.5" font-family="Helvetica,sans-Serif" font-size="10.00" fill="#000000">argo_get_homenode</text>
</a>
</g>
</g>
<!-- Node2&#45;&gt;Node3 -->
<g id="edge2" class="edge">
<title>Node2&#45;&gt;Node3</title>
<path fill="none" stroke="#191970" d="M245.4416,-299.1106C263.8278,-313.256 292.3746,-333.4764 320,-346 328.1972,-349.7161 337.2703,-352.8324 346.103,-355.3957"/>
<polygon fill="#191970" stroke="#191970" points="247.3103,-296.1284 237.2804,-292.7148 242.9925,-301.638 247.3103,-296.1284"/>
</g>
<!-- Node4 -->
<g id="node4" class="node">
<title>Node4</title>
<g id="a_node4"><a xlink:href="classwrite__buffer_aa2325346aceb3e7ffdbdbdc8e8682147.html#aa2325346aceb3e7ffdbdbdc8e8682147" target="_top" xlink:title="Sorts all elements by home node id in ascending order. ">
<polygon fill="#ffffff" stroke="#000000" points="340.5,-317.5 340.5,-336.5 440.5,-336.5 440.5,-317.5 340.5,-317.5"/>
<text text-anchor="middle" x="390.5" y="-324.5" font-family="Helvetica,sans-Serif" font-size="10.00" fill="#000000">write_buffer::sort</text>
</a>
</g>
</g>
<!-- Node2&#45;&gt;Node4 -->
<g id="edge3" class="edge">
<title>Node2&#45;&gt;Node4</title>
<path fill="none" stroke="#191970" d="M271.0801,-295.1547C297.4831,-302.1955 330.2421,-310.9312 354.7673,-317.4713"/>
<polygon fill="#191970" stroke="#191970" points="271.8667,-291.7422 261.3025,-292.5473 270.0631,-298.5059 271.8667,-291.7422"/>
</g>
<!-- Node19 -->
<g id="node19" class="node">
<title>Node19</title>
<g id="a_node19"><a xlink:href="classwrite__buffer_a9e8cf81e623c4bb67f687379f8709a53.html#a9e8cf81e623c4bb67f687379f8709a53" target="_top" xlink:title="Sorts the first _write_back_size elements by home node id in ascending order. ">
<polygon fill="#ffffff" stroke="#000000" points="340.5,-268 340.5,-298 440.5,-298 440.5,-268 340.5,-268"/>
<text text-anchor="start" x="348.5" y="-286" font-family="Helvetica,sans-Serif" font-size="10.00" fill="#000000">write_buffer::sort</text>
<text text-anchor="middle" x="390.5" y="-275" font-family="Helvetica,sans-Serif" font-size="10.00" fill="#000000">_first</text>
</a>
</g>
</g>
<!-- Node2&#45;&gt;Node19 -->
<g id="edge22" class="edge">
<title>Node2&#45;&gt;Node19</title>
<path fill="none" stroke="#191970" d="M294.1672,-283C309.6116,-283 325.7219,-283 340.2489,-283"/>
<polygon fill="#191970" stroke="#191970" points="294.1374,-279.5001 284.1374,-283 294.1374,-286.5001 294.1374,-279.5001"/>
</g>
<!-- Node23 -->
<g id="node23" class="node">
<title>Node23</title>
<g id="a_node23"><a xlink:href="api_8cpp_a6255f7c304a854275724ca1df48fab28.html#a6255f7c304a854275724ca1df48fab28" target="_top" xlink:title="Unittest that checks correctness of the argo::get_homenode(T* addr) API function. ...">
<polygon fill="#ffffff" stroke="#000000" points="365,-229.5 365,-248.5 416,-248.5 416,-229.5 365,-229.5"/>
<text text-anchor="middle" x="390.5" y="-236.5" font-family="Helvetica,sans-Serif" font-size="10.00" fill="#000000">TEST_F</text>
</a>
</g>
</g>
<!-- Node2&#45;&gt;Node23 -->
<g id="edge27" class="edge">
<title>Node2&#45;&gt;Node23</title>
<path fill="none" stroke="#191970" d="M271.214,-270.8096C301.4719,-262.7408 340.0314,-252.4583 364.9873,-245.8034"/>
<polygon fill="#191970" stroke="#191970" points="270.0631,-267.4941 261.3025,-273.4527 271.8667,-274.2578 270.0631,-267.4941"/>
</g>
<!-- Node5 -->
<g id="node5" class="node">
<title>Node5</title>
<g id="a_node5"><a xlink:href="classwrite__buffer_aca2e330e17a38c1cc8d8c60701ce9dd7.html#aca2e330e17a38c1cc8d8c60701ce9dd7" target="_top" xlink:title="Flushes the ArgoDSM write buffer to memory. ">
<polygon fill="#ffffff" stroke="#000000" points="515,-325.5 515,-344.5 619,-344.5 619,-325.5 515,-325.5"/>
<text text-anchor="middle" x="567" y="-332.5" font-family="Helvetica,sans-Serif" font-size="10.00" fill="#000000">write_buffer::flush</text>
</a>
</g>
</g>
<!-- Node4&#45;&gt;Node5 -->
<g id="edge4" class="edge">
<title>Node4&#45;&gt;Node5</title>
<path fill="none" stroke="#191970" d="M450.6443,-329.7261C471.5251,-330.6725 494.7498,-331.7252 514.9244,-332.6396"/>
<polygon fill="#191970" stroke="#191970" points="450.754,-326.2276 440.6057,-329.2711 450.4369,-333.2204 450.754,-326.2276"/>
</g>
<!-- Node6 -->
<g id="node6" class="node">
<title>Node6</title>
<g id="a_node6"><a xlink:href="swdsm_8h_aa7c3a2de6bbafdaf68fe6ceb6110ab97.html#aa7c3a2de6bbafdaf68fe6ceb6110ab97" target="_top" xlink:title="Self&#45;Invalidates all memory that has potential writers. ">
<polygon fill="#ffffff" stroke="#000000" points="673.5,-339.5 673.5,-358.5 771.5,-358.5 771.5,-339.5 673.5,-339.5"/>
<text text-anchor="middle" x="722.5" y="-346.5" font-family="Helvetica,sans-Serif" font-size="10.00" fill="#000000">self_invalidation</text>
</a>
</g>
</g>
<!-- Node5&#45;&gt;Node6 -->
<g id="edge5" class="edge">
<title>Node5&#45;&gt;Node6</title>
<path fill="none" stroke="#191970" d="M629.2156,-340.6014C643.882,-341.9219 659.3173,-343.3115 673.3172,-344.572"/>
<polygon fill="#191970" stroke="#191970" points="629.4854,-337.1116 619.2118,-339.7007 628.8577,-344.0834 629.4854,-337.1116"/>
</g>
<!-- Node7 -->
<g id="node7" class="node">
<title>Node7</title>
<g id="a_node7"><a xlink:href="swdsm_8h_ad3f5bdae81c60ac704dda7372792427d.html#ad3f5bdae81c60ac704dda7372792427d" target="_top" xlink:title="Global barrier for ArgoDSM &#45; needs to be called by every thread in the system that need coherent view...">
<polygon fill="#ffffff" stroke="#000000" points="814,-390.5 814,-409.5 930,-409.5 930,-390.5 814,-390.5"/>
<text text-anchor="middle" x="872" y="-397.5" font-family="Helvetica,sans-Serif" font-size="10.00" fill="#000000">swdsm_argo_barrier</text>
</a>
</g>
</g>
<!-- Node5&#45;&gt;Node7 -->
<g id="edge17" class="edge">
<title>Node5&#45;&gt;Node7</title>
<path fill="none" stroke="#191970" d="M603.9047,-347.9088C624.1186,-354.6182 649.725,-362.535 673,-368 719.8407,-378.9983 773.7731,-387.4136 813.6662,-392.8477"/>
<polygon fill="#191970" stroke="#191970" points="604.7523,-344.5012 594.1583,-344.6291 602.5198,-351.1357 604.7523,-344.5012"/>
</g>
<!-- Node17 -->
<g id="node17" class="node">
<title>Node17</title>
<g id="a_node17"><a xlink:href="swdsm_8h_ad390eb58e1be03ed6a0939fae7ebd20a.html#ad390eb58e1be03ed6a0939fae7ebd20a" target="_top" xlink:title="Release function for ArgoDSM (Release according to Release Consistency) ">
<polygon fill="#ffffff" stroke="#000000" points="682.5,-301.5 682.5,-320.5 762.5,-320.5 762.5,-301.5 682.5,-301.5"/>
<text text-anchor="middle" x="722.5" y="-308.5" font-family="Helvetica,sans-Serif" font-size="10.00" fill="#000000">argo_release</text>
</a>
</g>
</g>
<!-- Node5&#45;&gt;Node17 -->
<g id="edge18" class="edge">
<title>Node5&#45;&gt;Node17</title>
<path fill="none" stroke="#191970" d="M629.3118,-325.3828C647.2322,-322.6169 666.2928,-319.6751 682.4754,-317.1774"/>
<polygon fill="#191970" stroke="#191970" points="628.5609,-321.9571 619.2118,-326.9416 629.6287,-328.8752 628.5609,-321.9571"/>
</g>
<!-- Node6&#45;&gt;Node7 -->
<g id="edge6" class="edge">
<title>Node6&#45;&gt;Node7</title>
<path fill="none" stroke="#191970" d="M760.1745,-361.8522C786.2337,-370.7419 820.3429,-382.3778 844.0063,-390.4503"/>
<polygon fill="#191970" stroke="#191970" points="761.2143,-358.5089 750.6198,-358.5927 758.9542,-365.134 761.2143,-358.5089"/>
</g>
<!-- Node14 -->
<g id="node14" class="node">
<title>Node14</title>
<g id="a_node14"><a xlink:href="swdsm_8h_a44b8bb7a3c8b47b4f9552c8e10b25e4b.html#a44b8bb7a3c8b47b4f9552c8e10b25e4b" target="_top" xlink:title="acquire function for ArgoDSM (Acquire according to Release Consistency) ">
<polygon fill="#ffffff" stroke="#000000" points="832,-339.5 832,-358.5 912,-358.5 912,-339.5 832,-339.5"/>
<text text-anchor="middle" x="872" y="-346.5" font-family="Helvetica,sans-Serif" font-size="10.00" fill="#000000">argo_acquire</text>
</a>
</g>
</g>
<!-- Node6&#45;&gt;Node14 -->
<g id="edge13" class="edge">
<title>Node6&#45;&gt;Node14</title>
<path fill="none" stroke="#191970" d="M782.063,-349C798.7074,-349 816.4007,-349 831.6509,-349"/>
<polygon fill="#191970" stroke="#191970" points="781.8663,-345.5001 771.8662,-349 781.8662,-352.5001 781.8663,-345.5001"/>
</g>
<!-- Node8 -->
<g id="node8" class="node">
<title>Node8</title>
<g id="a_node8"><a xlink:href="backend_8hpp_af1a647431651556204709451bebb5a42.html#af1a647431651556204709451bebb5a42" target="_top" xlink:title="a simple collective barrier ">
<polygon fill="#ffffff" stroke="#000000" points="974,-466.5 974,-485.5 1098,-485.5 1098,-466.5 974,-466.5"/>
<text text-anchor="middle" x="1036" y="-473.5" font-family="Helvetica,sans-Serif" font-size="10.00" fill="#000000">argo::backend::barrier</text>
</a>
</g>
</g>
<!-- Node7&#45;&gt;Node8 -->
<g id="edge7" class="edge">
<title>Node7&#45;&gt;Node8</title>
<path fill="none" stroke="#191970" d="M894.9725,-415.1209C914.7532,-427.6386 944.3914,-445.2188 972,-457 980.4217,-460.5937 989.7404,-463.7788 998.6004,-466.4653"/>
<polygon fill="#191970" stroke="#191970" points="896.6701,-412.0516 886.3634,-409.5976 892.8902,-417.9433 896.6701,-412.0516"/>
</g>
<!-- Node9 -->
<g id="node9" class="node">
<title>Node9</title>
<g id="a_node9"><a xlink:href="swdsm_8cpp_aa954d5e0bcaee69ff6e03e697bcaf68b.html#aa954d5e0bcaee69ff6e03e697bcaf68b" target="_top" xlink:title="shut down ArgoDSM system ">
<polygon fill="#ffffff" stroke="#000000" points="996.5,-428.5 996.5,-447.5 1075.5,-447.5 1075.5,-428.5 996.5,-428.5"/>
<text text-anchor="middle" x="1036" y="-435.5" font-family="Helvetica,sans-Serif" font-size="10.00" fill="#000000">argo_finalize</text>
</a>
</g>
</g>
<!-- Node7&#45;&gt;Node9 -->
<g id="edge8" class="edge">
<title>Node7&#45;&gt;Node9</title>
<path fill="none" stroke="#191970" d="M923.2195,-411.8679C946.8014,-417.332 974.3563,-423.7167 996.3263,-428.8073"/>
<polygon fill="#191970" stroke="#191970" points="923.9161,-408.4367 913.3841,-409.589 922.336,-415.256 923.9161,-408.4367"/>
</g>
<!-- Node11 -->
<g id="node11" class="node">
<title>Node11</title>
<g id="a_node11"><a xlink:href="swdsm_8h_a0c6b51af2b87ddf7eb04aa7d4e0e836e.html#a0c6b51af2b87ddf7eb04aa7d4e0e836e" target="_top" xlink:title="Resets current coherence. Collective function called by all threads on all nodes. ...">
<polygon fill="#ffffff" stroke="#000000" points="974,-390.5 974,-409.5 1098,-409.5 1098,-390.5 974,-390.5"/>
<text text-anchor="middle" x="1036" y="-397.5" font-family="Helvetica,sans-Serif" font-size="10.00" fill="#000000">argo_reset_coherence</text>
</a>
</g>
</g>
<!-- Node7&#45;&gt;Node11 -->
<g id="edge10" class="edge">
<title>Node7&#45;&gt;Node11</title>
<path fill="none" stroke="#191970" d="M940.3307,-400C951.4036,-400 962.8187,-400 973.7374,-400"/>
<polygon fill="#191970" stroke="#191970" points="940.2821,-396.5001 930.282,-400 940.282,-403.5001 940.2821,-396.5001"/>
</g>
<!-- Node10 -->
<g id="node10" class="node">
<title>Node10</title>
<g id="a_node10"><a xlink:href="swdsm_8h_a18cc89a7368e30281ea4b1d214a1b1ff.html#a18cc89a7368e30281ea4b1d214a1b1ff" target="_top" xlink:title="Pins and registers the local thread. ">
<polygon fill="#ffffff" stroke="#000000" points="1136,-428.5 1136,-447.5 1237,-447.5 1237,-428.5 1136,-428.5"/>
<text text-anchor="middle" x="1186.5" y="-435.5" font-family="Helvetica,sans-Serif" font-size="10.00" fill="#000000">argo_pin_threads</text>
</a>
</g>
</g>
<!-- Node9&#45;&gt;Node10 -->
<g id="edge9" class="edge">
<title>Node9&#45;&gt;Node10</title>
<path fill="none" stroke="#191970" d="M1085.8203,-438C1101.9009,-438 1119.7372,-438 1135.8753,-438"/>
<polygon fill="#191970" stroke="#191970" points="1085.5421,-434.5001 1075.5421,-438 1085.5421,-441.5001 1085.5421,-434.5001"/>
</g>
<!-- Node12 -->
<g id="node12" class="node">
<title>Node12</title>
<g id="a_node12"><a xlink:href="swdsm_8h_a31ba60e8ddccfa922da8d7e6a10f7b1d.html#a31ba60e8ddccfa922da8d7e6a10f7b1d" target="_top" xlink:title="Initializes ArgoDSM runtime. ">
<polygon fill="#ffffff" stroke="#000000" points="1143.5,-324.5 1143.5,-343.5 1229.5,-343.5 1229.5,-324.5 1143.5,-324.5"/>
<text text-anchor="middle" x="1186.5" y="-331.5" font-family="Helvetica,sans-Serif" font-size="10.00" fill="#000000">argo_initialize</text>
</a>
</g>
</g>
<!-- Node11&#45;&gt;Node12 -->
<g id="edge11" class="edge">
<title>Node11&#45;&gt;Node12</title>
<path fill="none" stroke="#191970" d="M1082.8023,-387.3467C1088.6581,-385.4017 1094.5131,-383.2757 1100,-381 1125.8907,-370.2618 1154.1086,-353.9931 1171.0464,-343.6868"/>
<polygon fill="#191970" stroke="#191970" points="1081.4903,-384.0908 1073.0115,-390.4438 1083.6015,-390.7648 1081.4903,-384.0908"/>
</g>
<!-- Node13 -->
<g id="node13" class="node">
<title>Node13</title>
<g id="a_node13"><a xlink:href="backend_8hpp_aab3cabb3e1c0b9696b339416b684f78c.html#aab3cabb3e1c0b9696b339416b684f78c" target="_top" xlink:title="initialize backend ">
<polygon fill="#ffffff" stroke="#000000" points="1273,-324.5 1273,-343.5 1380,-343.5 1380,-324.5 1273,-324.5"/>
<text text-anchor="middle" x="1326.5" y="-331.5" font-family="Helvetica,sans-Serif" font-size="10.00" fill="#000000">argo::backend::init</text>
</a>
</g>
</g>
<!-- Node12&#45;&gt;Node13 -->
<g id="edge12" class="edge">
<title>Node12&#45;&gt;Node13</title>
<path fill="none" stroke="#191970" d="M1239.8168,-334C1250.6429,-334 1262.0344,-334 1272.8712,-334"/>
<polygon fill="#191970" stroke="#191970" points="1239.647,-330.5001 1229.647,-334 1239.6469,-337.5001 1239.647,-330.5001"/>
</g>
<!-- Node15 -->
<g id="node15" class="node">
<title>Node15</title>
<g id="a_node15"><a xlink:href="backend_8hpp_a1032f833666c3f810ac1c6210197d426.html#a1032f833666c3f810ac1c6210197d426" target="_top" xlink:title="causes a node to self&#45;invalidate its cache, and thus getting any updated values on subsequent accesse...">
<polygon fill="#ffffff" stroke="#000000" points="972,-334.5 972,-353.5 1100,-353.5 1100,-334.5 972,-334.5"/>
<text text-anchor="middle" x="1036" y="-341.5" font-family="Helvetica,sans-Serif" font-size="10.00" fill="#000000">argo::backend::acquire</text>
</a>
</g>
</g>
<!-- Node14&#45;&gt;Node15 -->
<g id="edge14" class="edge">
<title>Node14&#45;&gt;Node15</title>
<path fill="none" stroke="#191970" d="M922.5513,-347.4588C938.0784,-346.9854 955.3785,-346.458 971.6967,-345.9605"/>
<polygon fill="#191970" stroke="#191970" points="922.0076,-343.9737 912.1189,-347.7769 922.221,-350.9704 922.0076,-343.9737"/>
</g>
<!-- Node16 -->
<g id="node16" class="node">
<title>Node16</title>
<g id="a_node16"><a xlink:href="swdsm_8h_ac0b665f72bc2a28dc663ed204c526e1b.html#ac0b665f72bc2a28dc663ed204c526e1b" target="_top" xlink:title="acquire&#45;release function for ArgoDSM (Both acquire and release according to Release Consistency) ...">
<polygon fill="#ffffff" stroke="#000000" points="996.5,-296.5 996.5,-315.5 1075.5,-315.5 1075.5,-296.5 996.5,-296.5"/>
<text text-anchor="middle" x="1036" y="-303.5" font-family="Helvetica,sans-Serif" font-size="10.00" fill="#000000">argo_acq_rel</text>
</a>
</g>
</g>
<!-- Node14&#45;&gt;Node16 -->
<g id="edge16" class="edge">
<title>Node14&#45;&gt;Node16</title>
<path fill="none" stroke="#191970" d="M918.3237,-336.8542C944.1061,-330.0941 975.7337,-321.8015 999.7048,-315.5164"/>
<polygon fill="#191970" stroke="#191970" points="917.1822,-333.535 908.3969,-339.4569 918.9577,-340.3062 917.1822,-333.535"/>
</g>
<!-- Node15&#45;&gt;Node15 -->
<g id="edge15" class="edge">
<title>Node15&#45;&gt;Node15</title>
<path fill="none" stroke="#191970" d="M1008.0009,-362.6539C1009.1712,-367.9368 1018.5043,-372 1036,-372 1062.6602,-372 1070.3666,-362.5653 1059.1194,-353.7571"/>
<polygon fill="#191970" stroke="#191970" points="1011.1403,-364.208 1012.8806,-353.7571 1005.0029,-360.8417 1011.1403,-364.208"/>
</g>
<!-- Node17&#45;&gt;Node16 -->
<g id="edge21" class="edge">
<title>Node17&#45;&gt;Node16</title>
<path fill="none" stroke="#191970" d="M772.8671,-310.1967C835.0103,-309.2056 939.392,-307.5408 996.2149,-306.6345"/>
<polygon fill="#191970" stroke="#191970" points="772.4663,-306.7025 762.5234,-310.3617 772.578,-313.7017 772.4663,-306.7025"/>
</g>
<!-- Node18 -->
<g id="node18" class="node">
<title>Node18</title>
<g id="a_node18"><a xlink:href="backend_8hpp_a8953c9cd9d3c56306740b6c9b97513a2.html#a8953c9cd9d3c56306740b6c9b97513a2" target="_top" xlink:title="causes a node to self&#45;downgrade its cache, making all previous writes to be propagated to the homenod...">
<polygon fill="#ffffff" stroke="#000000" points="808,-245.5 808,-264.5 936,-264.5 936,-245.5 808,-245.5"/>
<text text-anchor="middle" x="872" y="-252.5" font-family="Helvetica,sans-Serif" font-size="10.00" fill="#000000">argo::backend::release</text>
</a>
</g>
</g>
<!-- Node17&#45;&gt;Node18 -->
<g id="edge19" class="edge">
<title>Node17&#45;&gt;Node18</title>
<path fill="none" stroke="#191970" d="M757.7692,-297.7888C785.0661,-287.5639 822.2144,-273.6488 846.6354,-264.5011"/>
<polygon fill="#191970" stroke="#191970" points="756.3368,-294.5878 748.2,-301.3733 758.7923,-301.143 756.3368,-294.5878"/>
</g>
<!-- Node18&#45;&gt;Node18 -->
<g id="edge20" class="edge">
<title>Node18&#45;&gt;Node18</title>
<path fill="none" stroke="#191970" d="M844.3742,-273.6539C845.5289,-278.9368 854.7375,-283 872,-283 898.3047,-283 905.9084,-273.5653 894.8111,-264.7571"/>
<polygon fill="#191970" stroke="#191970" points="847.5076,-275.2176 849.1889,-264.7571 841.3512,-271.886 847.5076,-275.2176"/>
</g>
<!-- Node20 -->
<g id="node20" class="node">
<title>Node20</title>
<g id="a_node20"><a xlink:href="classwrite__buffer_aa6a1c2c3aa3a7cde744bbca3b14f599a.html#aa6a1c2c3aa3a7cde744bbca3b14f599a" target="_top" xlink:title="Flushes first _write_back_size elements of the ArgoDSM write buffer to memory. ">
<polygon fill="#ffffff" stroke="#000000" points="515,-260 515,-290 619,-290 619,-260 515,-260"/>
<text text-anchor="start" x="523" y="-278" font-family="Helvetica,sans-Serif" font-size="10.00" fill="#000000">write_buffer::flush</text>
<text text-anchor="middle" x="567" y="-267" font-family="Helvetica,sans-Serif" font-size="10.00" fill="#000000">_partial</text>
</a>
</g>
</g>
<!-- Node19&#45;&gt;Node20 -->
<g id="edge23" class="edge">
<title>Node19&#45;&gt;Node20</title>
<path fill="none" stroke="#191970" d="M450.6443,-280.2739C471.5251,-279.3275 494.7498,-278.2748 514.9244,-277.3604"/>
<polygon fill="#191970" stroke="#191970" points="450.4369,-276.7796 440.6057,-280.7289 450.754,-283.7724 450.4369,-276.7796"/>
</g>
<!-- Node21 -->
<g id="node21" class="node">
<title>Node21</title>
<g id="a_node21"><a xlink:href="classwrite__buffer_a23b0dbc463111cacbbf83b267e76ac9f.html#a23b0dbc463111cacbbf83b267e76ac9f" target="_top" xlink:title="Adds a new element to the write buffer. ">
<polygon fill="#ffffff" stroke="#000000" points="673,-252.5 673,-271.5 772,-271.5 772,-252.5 673,-252.5"/>
<text text-anchor="middle" x="722.5" y="-259.5" font-family="Helvetica,sans-Serif" font-size="10.00" fill="#000000">write_buffer::add</text>
</a>
</g>
</g>
<!-- Node20&#45;&gt;Node21 -->
<g id="edge24" class="edge">
<title>Node20&#45;&gt;Node21</title>
<path fill="none" stroke="#191970" d="M629.5319,-269.7722C643.9213,-268.5693 659.0345,-267.3058 672.7944,-266.1555"/>
<polygon fill="#191970" stroke="#191970" points="628.8854,-266.314 619.2118,-270.635 629.4687,-273.2897 628.8854,-266.314"/>
</g>
<!-- Node22 -->
<g id="node22" class="node">
<title>Node22</title>
<g id="a_node22"><a xlink:href="swdsm_8h_adb24c11067d42b9bc8515a78a524e2c7.html#adb24c11067d42b9bc8515a78a524e2c7" target="_top" xlink:title="Catches memory accesses to memory not yet cached in ArgoDSM. Launches remote requests for memory not ...">
<polygon fill="#ffffff" stroke="#000000" points="845.5,-207.5 845.5,-226.5 898.5,-226.5 898.5,-207.5 845.5,-207.5"/>
<text text-anchor="middle" x="872" y="-214.5" font-family="Helvetica,sans-Serif" font-size="10.00" fill="#000000">handler</text>
</a>
</g>
</g>
<!-- Node21&#45;&gt;Node22 -->
<g id="edge25" class="edge">
<title>Node21&#45;&gt;Node22</title>
<path fill="none" stroke="#191970" d="M763.6378,-249.43C777.7019,-245.1487 793.5326,-240.3472 808,-236 820.2101,-232.3311 833.7436,-228.3072 845.2088,-224.9107"/>
<polygon fill="#191970" stroke="#191970" points="762.2996,-246.1789 753.754,-252.4417 764.34,-252.8749 762.2996,-246.1789"/>
</g>
<!-- Node22&#45;&gt;Node12 -->
<g id="edge26" class="edge">
<title>Node22&#45;&gt;Node12</title>
<path fill="none" stroke="#191970" d="M908.6028,-227.7779C917.5702,-230.4429 927.137,-233.3064 936,-236 1009.0337,-258.1958 1029.682,-257.3023 1100,-287 1125.8209,-297.905 1154.0584,-314.1268 1171.0193,-324.3778"/>
<polygon fill="#191970" stroke="#191970" points="909.3849,-224.3593 898.8025,-224.8732 907.3957,-231.0707 909.3849,-224.3593"/>
</g>
<!-- Node25 -->
<g id="node25" class="node">
<title>Node25</title>
<g id="a_node25"><a xlink:href="backend_8hpp_a0fb29a8253f0d9aefc999d93414b1758.html#a0fb29a8253f0d9aefc999d93414b1758" target="_top" xlink:title="backend internal type erased function for selective acquire ">
<polygon fill="#ffffff" stroke="#000000" points="320,-162 320,-192 461,-192 461,-162 320,-162"/>
<text text-anchor="start" x="328" y="-180" font-family="Helvetica,sans-Serif" font-size="10.00" fill="#000000">argo::backend::_selective</text>
<text text-anchor="middle" x="390.5" y="-169" font-family="Helvetica,sans-Serif" font-size="10.00" fill="#000000">_acquire</text>
</a>
</g>
</g>
<!-- Node24&#45;&gt;Node25 -->
<g id="edge29" class="edge">
<title>Node24&#45;&gt;Node25</title>
<path fill="none" stroke="#191970" d="M254.2596,-123.9826C272.8216,-132.7831 297.5991,-144.1158 320,-153 327.6919,-156.0506 335.9442,-159.0759 343.9958,-161.8979"/>
<polygon fill="#191970" stroke="#191970" points="255.6969,-120.7904 245.165,-119.6376 252.6793,-127.1066 255.6969,-120.7904"/>
</g>
<!-- Node26 -->
<g id="node26" class="node">
<title>Node26</title>
<g id="a_node26"><a xlink:href="backend_8hpp_ac3350bde3c8baf64753e515336fad3be.html#ac3350bde3c8baf64753e515336fad3be" target="_top" xlink:title="backend internal type erased function for selective release ">
<polygon fill="#ffffff" stroke="#000000" points="320,-95 320,-125 461,-125 461,-95 320,-95"/>
<text text-anchor="start" x="328" y="-113" font-family="Helvetica,sans-Serif" font-size="10.00" fill="#000000">argo::backend::_selective</text>
<text text-anchor="middle" x="390.5" y="-102" font-family="Helvetica,sans-Serif" font-size="10.00" fill="#000000">_release</text>
</a>
</g>
</g>
<!-- Node24&#45;&gt;Node26 -->
<g id="edge31" class="edge">
<title>Node24&#45;&gt;Node26</title>
<path fill="none" stroke="#191970" d="M284.8139,-110C296.2076,-110 308.2434,-110 319.9512,-110"/>
<polygon fill="#191970" stroke="#191970" points="284.5587,-106.5001 274.5587,-110 284.5587,-113.5001 284.5587,-106.5001"/>
</g>
<!-- Node27 -->
<g id="node27" class="node">
<title>Node27</title>
<g id="a_node27"><a xlink:href="swdsm_8h_aa5da42b70088b546b0f16d0a8031cfd1.html#aa5da42b70088b546b0f16d0a8031cfd1" target="_top" xlink:title="Gets the offset of an address on the local nodes part of the global memory. ">
<polygon fill="#ffffff" stroke="#000000" points="353.5,-38.5 353.5,-57.5 427.5,-57.5 427.5,-38.5 353.5,-38.5"/>
<text text-anchor="middle" x="390.5" y="-45.5" font-family="Helvetica,sans-Serif" font-size="10.00" fill="#000000">peek_offset</text>
</a>
</g>
</g>
<!-- Node24&#45;&gt;Node27 -->
<g id="edge33" class="edge">
<title>Node24&#45;&gt;Node27</title>
<path fill="none" stroke="#191970" d="M260.568,-96.8229C291.902,-85.049 337.0611,-68.0801 365.0515,-57.5625"/>
<polygon fill="#191970" stroke="#191970" points="259.0495,-93.6545 250.9196,-100.4484 261.5117,-100.2072 259.0495,-93.6545"/>
</g>
<!-- Node28 -->
<g id="node28" class="node">
<title>Node28</title>
<g id="a_node28"><a xlink:href="swdsm_8h_a93e3c7288ce47ac8b4ec8ff9f8a82435.html#a93e3c7288ce47ac8b4ec8ff9f8a82435" target="_top" xlink:title="Check whether a page is either cached on the node or locally backed. ">
<polygon fill="#ffffff" stroke="#000000" points="355.5,-.5 355.5,-19.5 425.5,-19.5 425.5,-.5 355.5,-.5"/>
<text text-anchor="middle" x="390.5" y="-7.5" font-family="Helvetica,sans-Serif" font-size="10.00" fill="#000000">_is_cached</text>
</a>
</g>
</g>
<!-- Node24&#45;&gt;Node28 -->
<g id="edge35" class="edge">
<title>Node24&#45;&gt;Node28</title>
<path fill="none" stroke="#191970" d="M240.9569,-92.8052C258.4151,-74.4054 288.5184,-45.628 320,-29 330.8726,-23.2573 343.6275,-19.1387 355.2772,-16.2378"/>
<polygon fill="#191970" stroke="#191970" points="238.1017,-90.7367 233.8659,-100.4479 243.2332,-95.4978 238.1017,-90.7367"/>
</g>
<!-- Node25&#45;&gt;Node25 -->
<g id="edge30" class="edge">
<title>Node25&#45;&gt;Node25</title>
<path fill="none" stroke="#191970" d="M361.3592,-202.4579C364.976,-207.179 374.6896,-210.5 390.5,-210.5 416.4453,-210.5 425.9721,-201.5566 419.0804,-192.159"/>
<polygon fill="#191970" stroke="#191970" points="364.871,-202.3344 361.9196,-192.159 357.8813,-201.954 364.871,-202.3344"/>
</g>
<!-- Node26&#45;&gt;Node26 -->
<g id="edge32" class="edge">
<title>Node26&#45;&gt;Node26</title>
<path fill="none" stroke="#191970" d="M361.3592,-135.4579C364.976,-140.179 374.6896,-143.5 390.5,-143.5 416.4453,-143.5 425.9721,-134.5566 419.0804,-125.159"/>
<polygon fill="#191970" stroke="#191970" points="364.871,-135.3344 361.9196,-125.159 357.8813,-134.954 364.871,-135.3344"/>
</g>
<!-- Node27&#45;&gt;Node27 -->
<g id="edge34" class="edge">
<title>Node27&#45;&gt;Node27</title>
<path fill="none" stroke="#191970" d="M359.8114,-66.2746C360.6864,-71.741 370.9159,-76 390.5,-76 419.6484,-76 428.0742,-66.5653 415.7772,-57.7571"/>
<polygon fill="#191970" stroke="#191970" points="362.8144,-68.0745 365.2228,-57.7571 356.906,-64.3207 362.8144,-68.0745"/>
</g>
<!-- Node29 -->
<g id="node29" class="node">
<title>Node29</title>
<g id="a_node29"><a xlink:href="backend_8hpp_a8189df2ded0e8e6b64477a53f80d67e8.html#a8189df2ded0e8e6b64477a53f80d67e8" target="_top" xlink:title="Check if a an address is cached or node local. ">
<polygon fill="#ffffff" stroke="#000000" points="497,-.5 497,-19.5 637,-19.5 637,-.5 497,-.5"/>
<text text-anchor="middle" x="567" y="-7.5" font-family="Helvetica,sans-Serif" font-size="10.00" fill="#000000">argo::backend::is_cached</text>
</a>
</g>
</g>
<!-- Node28&#45;&gt;Node29 -->
<g id="edge36" class="edge">
<title>Node28&#45;&gt;Node29</title>
<path fill="none" stroke="#191970" d="M435.9821,-10C454.4788,-10 476.2813,-10 496.7374,-10"/>
<polygon fill="#191970" stroke="#191970" points="435.7932,-6.5001 425.7932,-10 435.7932,-13.5001 435.7932,-6.5001"/>
</g>
<!-- Node29&#45;&gt;Node29 -->
<g id="edge37" class="edge">
<title>Node29&#45;&gt;Node29</title>
<path fill="none" stroke="#191970" d="M538.2542,-28.6539C539.4558,-33.9368 549.0377,-38 567,-38 594.3711,-38 602.2831,-28.5653 590.7359,-19.7571"/>
<polygon fill="#191970" stroke="#191970" points="541.4072,-30.1879 543.2641,-19.7571 535.3077,-26.7532 541.4072,-30.1879"/>
</g>
</g>
</svg>
