<?xml version="1.0" encoding="UTF-8" standalone="no"?>
<!DOCTYPE svg PUBLIC "-//W3C//DTD SVG 1.1//EN"
 "http://www.w3.org/Graphics/SVG/1.1/DTD/svg11.dtd">
<!-- Generated by graphviz version 2.40.1 (20161225.0304)
 -->
<!-- Title: write_buffer::erase Pages: 1 -->
<svg width="701pt" height="163pt"
 viewBox="0.00 0.00 701.00 162.50" xmlns="http://www.w3.org/2000/svg" xmlns:xlink="http://www.w3.org/1999/xlink">
<g id="graph0" class="graph" transform="scale(1 1) rotate(0) translate(4 158.5)">
<title>write_buffer::erase</title>
<polygon fill="#ffffff" stroke="transparent" points="-4,4 -4,-158.5 697,-158.5 697,4 -4,4"/>
<!-- Node1 -->
<g id="node1" class="node">
<title>Node1</title>
<polygon fill="#bfbfbf" stroke="#000000" points="0,-44.5 0,-63.5 108,-63.5 108,-44.5 0,-44.5"/>
<text text-anchor="middle" x="54" y="-51.5" font-family="Helvetica,sans-Serif" font-size="10.00" fill="#000000">write_buffer::erase</text>
</g>
<!-- Node2 -->
<g id="node2" class="node">
<title>Node2</title>
<g id="a_node2"><a xlink:href="backend_8hpp_a0fb29a8253f0d9aefc999d93414b1758.html#a0fb29a8253f0d9aefc999d93414b1758" target="_top" xlink:title="backend internal type erased function for selective acquire ">
<polygon fill="#ffffff" stroke="#000000" points="144,-106 144,-136 285,-136 285,-106 144,-106"/>
<text text-anchor="start" x="152" y="-124" font-family="Helvetica,sans-Serif" font-size="10.00" fill="#000000">argo::backend::_selective</text>
<text text-anchor="middle" x="214.5" y="-113" font-family="Helvetica,sans-Serif" font-size="10.00" fill="#000000">_acquire</text>
</a>
</g>
</g>
<!-- Node1&#45;&gt;Node2 -->
<g id="edge1" class="edge">
<title>Node1&#45;&gt;Node2</title>
<path fill="none" stroke="#191970" d="M81.4693,-68.1601C99.102,-76.9898 122.6211,-88.2891 144,-97 151.5434,-100.0736 159.6436,-103.0879 167.5698,-105.8859"/>
<polygon fill="#191970" stroke="#191970" points="82.8335,-64.9281 72.3299,-63.541 79.676,-71.1755 82.8335,-64.9281"/>
</g>
<!-- Node4 -->
<g id="node4" class="node">
<title>Node4</title>
<g id="a_node4"><a xlink:href="backend_8hpp_ac3350bde3c8baf64753e515336fad3be.html#ac3350bde3c8baf64753e515336fad3be" target="_top" xlink:title="backend internal type erased function for selective release ">
<polygon fill="#ffffff" stroke="#000000" points="144,-39 144,-69 285,-69 285,-39 144,-39"/>
<text text-anchor="start" x="152" y="-57" font-family="Helvetica,sans-Serif" font-size="10.00" fill="#000000">argo::backend::_selective</text>
<text text-anchor="middle" x="214.5" y="-46" font-family="Helvetica,sans-Serif" font-size="10.00" fill="#000000">_release</text>
</a>
</g>
</g>
<!-- Node1&#45;&gt;Node4 -->
<g id="edge4" class="edge">
<title>Node1&#45;&gt;Node4</title>
<path fill="none" stroke="#191970" d="M118.3652,-54C126.7036,-54 135.2803,-54 143.7155,-54"/>
<polygon fill="#191970" stroke="#191970" points="118.338,-50.5001 108.338,-54 118.3379,-57.5001 118.338,-50.5001"/>
</g>
<!-- Node5 -->
<g id="node5" class="node">
<title>Node5</title>
<g id="a_node5"><a xlink:href="swdsm_8cpp_a97adb774a1a5a7a3505416a171c570e9.html#a97adb774a1a5a7a3505416a171c570e9" target="_top" xlink:title="load into cache helper function ">
<polygon fill="#ffffff" stroke="#000000" points="163.5,-.5 163.5,-19.5 265.5,-19.5 265.5,-.5 163.5,-.5"/>
<text text-anchor="middle" x="214.5" y="-7.5" font-family="Helvetica,sans-Serif" font-size="10.00" fill="#000000">load_cache_entry</text>
</a>
</g>
</g>
<!-- Node1&#45;&gt;Node5 -->
<g id="edge7" class="edge">
<title>Node1&#45;&gt;Node5</title>
<path fill="none" stroke="#191970" d="M97.9839,-41.7094C112.6166,-37.6399 129.0036,-33.1036 144,-29 155.3709,-25.8885 167.7843,-22.5302 178.982,-19.5151"/>
<polygon fill="#191970" stroke="#191970" points="96.8673,-38.387 88.1725,-44.441 98.7448,-45.1306 96.8673,-38.387"/>
</g>
<!-- Node2&#45;&gt;Node2 -->
<g id="edge2" class="edge">
<title>Node2&#45;&gt;Node2</title>
<path fill="none" stroke="#191970" d="M186.0699,-146.4579C189.5985,-151.179 199.0752,-154.5 214.5,-154.5 239.8125,-154.5 249.1069,-145.5566 242.3833,-136.159"/>
<polygon fill="#191970" stroke="#191970" points="189.5815,-146.3305 186.6167,-136.159 182.5914,-145.9594 189.5815,-146.3305"/>
</g>
<!-- Node3 -->
<g id="node3" class="node">
<title>Node3</title>
<g id="a_node3"><a xlink:href="singlenode_8cpp_aab3cabb3e1c0b9696b339416b684f78c.html#aab3cabb3e1c0b9696b339416b684f78c" target="_top" xlink:title="argo::backend::init">
<polygon fill="#ffffff" stroke="#000000" points="321,-77.5 321,-96.5 428,-96.5 428,-77.5 321,-77.5"/>
<text text-anchor="middle" x="374.5" y="-84.5" font-family="Helvetica,sans-Serif" font-size="10.00" fill="#000000">argo::backend::init</text>
</a>
</g>
</g>
<!-- Node2&#45;&gt;Node3 -->
<g id="edge3" class="edge">
<title>Node2&#45;&gt;Node3</title>
<path fill="none" stroke="#191970" d="M295.0745,-103.8779C306.9189,-101.361 318.7464,-98.8476 329.5186,-96.5585"/>
<polygon fill="#191970" stroke="#191970" points="294.1981,-100.4859 285.1441,-105.9881 295.6532,-107.333 294.1981,-100.4859"/>
</g>
<!-- Node4&#45;&gt;Node3 -->
<g id="edge6" class="edge">
<title>Node4&#45;&gt;Node3</title>
<path fill="none" stroke="#191970" d="M295.0863,-70.6209C306.4214,-72.9588 317.7407,-75.2934 328.1341,-77.437"/>
<polygon fill="#191970" stroke="#191970" points="295.645,-67.1626 285.1441,-68.5703 294.2309,-74.0183 295.645,-67.1626"/>
</g>
<!-- Node4&#45;&gt;Node4 -->
<g id="edge5" class="edge">
<title>Node4&#45;&gt;Node4</title>
<path fill="none" stroke="#191970" d="M186.0699,-79.4579C189.5985,-84.179 199.0752,-87.5 214.5,-87.5 239.8125,-87.5 249.1069,-78.5566 242.3833,-69.159"/>
<polygon fill="#191970" stroke="#191970" points="189.5815,-79.3305 186.6167,-69.159 182.5914,-78.9594 189.5815,-79.3305"/>
</g>
<!-- Node6 -->
<g id="node6" class="node">
<title>Node6</title>
<g id="a_node6"><a xlink:href="swdsm_8h_a8b00f264b792522b179fbc9c818187bd.html#a8b00f264b792522b179fbc9c818187bd" target="_top" xlink:title="Catches memory accesses to memory not yet cached in ArgoDSM. Launches remote requests for memory not ...">
<polygon fill="#ffffff" stroke="#000000" points="348,-.5 348,-19.5 401,-19.5 401,-.5 348,-.5"/>
<text text-anchor="middle" x="374.5" y="-7.5" font-family="Helvetica,sans-Serif" font-size="10.00" fill="#000000">handler</text>
</a>
</g>
</g>
<!-- Node5&#45;&gt;Node6 -->
<g id="edge8" class="edge">
<title>Node5&#45;&gt;Node6</title>
<path fill="none" stroke="#191970" d="M275.6663,-10C300.5253,-10 327.9566,-10 347.5998,-10"/>
<polygon fill="#191970" stroke="#191970" points="275.5649,-6.5001 265.5649,-10 275.5649,-13.5001 275.5649,-6.5001"/>
</g>
<!-- Node7 -->
<g id="node7" class="node">
<title>Node7</title>
<g id="a_node7"><a xlink:href="swdsm_8h_a10dca85d339ce630cf42dca685b3f6d9.html#a10dca85d339ce630cf42dca685b3f6d9" target="_top" xlink:title="Initializes ArgoDSM runtime. ">
<polygon fill="#ffffff" stroke="#000000" points="464,-.5 464,-19.5 550,-19.5 550,-.5 464,-.5"/>
<text text-anchor="middle" x="507" y="-7.5" font-family="Helvetica,sans-Serif" font-size="10.00" fill="#000000">argo_initialize</text>
</a>
</g>
</g>
<!-- Node6&#45;&gt;Node7 -->
<g id="edge9" class="edge">
<title>Node6&#45;&gt;Node7</title>
<path fill="none" stroke="#191970" d="M411.5058,-10C427.7417,-10 446.9092,-10 463.795,-10"/>
<polygon fill="#191970" stroke="#191970" points="411.3134,-6.5001 401.3134,-10 411.3133,-13.5001 411.3134,-6.5001"/>
</g>
<!-- Node8 -->
<g id="node8" class="node">
<title>Node8</title>
<g id="a_node8"><a xlink:href="backend_8hpp_af0d80a03a17a374c10d9635ddf81e261.html#af0d80a03a17a374c10d9635ddf81e261" target="_top" xlink:title="initialize backend ">
<polygon fill="#ffffff" stroke="#000000" points="586,-.5 586,-19.5 693,-19.5 693,-.5 586,-.5"/>
<text text-anchor="middle" x="639.5" y="-7.5" font-family="Helvetica,sans-Serif" font-size="10.00" fill="#000000">argo::backend::init</text>
</a>
</g>
</g>
<!-- Node7&#45;&gt;Node8 -->
<g id="edge10" class="edge">
<title>Node7&#45;&gt;Node8</title>
<path fill="none" stroke="#191970" d="M560.0705,-10C568.4617,-10 577.147,-10 585.5579,-10"/>
<polygon fill="#191970" stroke="#191970" points="560.019,-6.5001 550.019,-10 560.0189,-13.5001 560.019,-6.5001"/>
</g>
</g>
</svg>
