<?xml version="1.0" encoding="UTF-8" standalone="no"?>
<!DOCTYPE svg PUBLIC "-//W3C//DTD SVG 1.1//EN"
 "http://www.w3.org/Graphics/SVG/1.1/DTD/svg11.dtd">
<!-- Generated by graphviz version 2.40.1 (20161225.0304)
 -->
<!-- Title: argo::allocators::generic_allocator::set_mempool Pages: 1 -->
<svg width="493pt" height="104pt"
 viewBox="0.00 0.00 493.00 104.00" xmlns="http://www.w3.org/2000/svg" xmlns:xlink="http://www.w3.org/1999/xlink">
<g id="graph0" class="graph" transform="scale(1 1) rotate(0) translate(4 100)">
<title>argo::allocators::generic_allocator::set_mempool</title>
<polygon fill="#ffffff" stroke="transparent" points="-4,4 -4,-100 489,-100 489,4 -4,4"/>
<!-- Node1 -->
<g id="node1" class="node">
<title>Node1</title>
<polygon fill="#bfbfbf" stroke="#000000" points="0,-33 0,-63 137,-63 137,-33 0,-33"/>
<text text-anchor="start" x="8" y="-51" font-family="Helvetica,sans-Serif" font-size="10.00" fill="#000000">argo::allocators::generic</text>
<text text-anchor="middle" x="68.5" y="-40" font-family="Helvetica,sans-Serif" font-size="10.00" fill="#000000">_allocator::set_mempool</text>
</g>
<!-- Node2 -->
<g id="node2" class="node">
<title>Node2</title>
<g id="a_node2"><a xlink:href="argo_8h_a5a8515fc3191ad0f3398d8ac1441b57a.html#a5a8515fc3191ad0f3398d8ac1441b57a" target="_top" xlink:title="reset ArgoDSM system ">
<polygon fill="#ffffff" stroke="#000000" points="173,-38.5 173,-57.5 241,-57.5 241,-38.5 173,-38.5"/>
<text text-anchor="middle" x="207" y="-45.5" font-family="Helvetica,sans-Serif" font-size="10.00" fill="#000000">argo_reset</text>
</a>
</g>
</g>
<!-- Node1&#45;&gt;Node2 -->
<g id="edge1" class="edge">
<title>Node1&#45;&gt;Node2</title>
<path fill="none" stroke="#191970" d="M147.4517,-48C156.3505,-48 165.0312,-48 172.8904,-48"/>
<polygon fill="#191970" stroke="#191970" points="147.3443,-44.5001 137.3442,-48 147.3442,-51.5001 147.3443,-44.5001"/>
</g>
<!-- Node3 -->
<g id="node3" class="node">
<title>Node3</title>
<g id="a_node3"><a xlink:href="namespaceargo_a31330d8b35bd7f9ef9880eec82339c54.html#a31330d8b35bd7f9ef9880eec82339c54" target="_top" xlink:title="initialize ArgoDSM system ">
<polygon fill="#ffffff" stroke="#000000" points="277,-38.5 277,-57.5 337,-57.5 337,-38.5 277,-38.5"/>
<text text-anchor="middle" x="307" y="-45.5" font-family="Helvetica,sans-Serif" font-size="10.00" fill="#000000">argo::init</text>
</a>
</g>
</g>
<!-- Node2&#45;&gt;Node3 -->
<g id="edge2" class="edge">
<title>Node2&#45;&gt;Node3</title>
<path fill="none" stroke="#191970" d="M251.3911,-48C259.9458,-48 268.7224,-48 276.702,-48"/>
<polygon fill="#191970" stroke="#191970" points="251.1347,-44.5001 241.1346,-48 251.1346,-51.5001 251.1347,-44.5001"/>
</g>
<!-- Node4 -->
<g id="node4" class="node">
<title>Node4</title>
<g id="a_node4"><a xlink:href="tests_2allocators_8cpp_a3c04138a5bfe5d72780bb7e82a18e627.html#a3c04138a5bfe5d72780bb7e82a18e627" target="_top" xlink:title="The main function that runs the tests. ">
<polygon fill="#ffffff" stroke="#000000" points="408.5,-76.5 408.5,-95.5 449.5,-95.5 449.5,-76.5 408.5,-76.5"/>
<text text-anchor="middle" x="429" y="-83.5" font-family="Helvetica,sans-Serif" font-size="10.00" fill="#000000">main</text>
</a>
</g>
</g>
<!-- Node3&#45;&gt;Node4 -->
<g id="edge3" class="edge">
<title>Node3&#45;&gt;Node4</title>
<path fill="none" stroke="#191970" d="M346.8933,-60.4258C367.4194,-66.8192 391.5824,-74.3453 408.3583,-79.5706"/>
<polygon fill="#191970" stroke="#191970" points="347.7458,-57.0255 337.1573,-57.3933 345.664,-63.7088 347.7458,-57.0255"/>
</g>
<!-- Node5 -->
<g id="node5" class="node">
<title>Node5</title>
<g id="a_node5"><a xlink:href="argo_8h_aa84680ad78c3598c30a482ff71ec6bbc.html#aa84680ad78c3598c30a482ff71ec6bbc" target="_top" xlink:title="initialize ArgoDSM system ">
<polygon fill="#ffffff" stroke="#000000" points="399.5,-38.5 399.5,-57.5 458.5,-57.5 458.5,-38.5 399.5,-38.5"/>
<text text-anchor="middle" x="429" y="-45.5" font-family="Helvetica,sans-Serif" font-size="10.00" fill="#000000">argo_init</text>
</a>
</g>
</g>
<!-- Node3&#45;&gt;Node5 -->
<g id="edge4" class="edge">
<title>Node3&#45;&gt;Node5</title>
<path fill="none" stroke="#191970" d="M347.3289,-48C364.2527,-48 383.584,-48 399.1896,-48"/>
<polygon fill="#191970" stroke="#191970" points="347.1573,-44.5001 337.1573,-48 347.1573,-51.5001 347.1573,-44.5001"/>
</g>
<!-- Node6 -->
<g id="node6" class="node">
<title>Node6</title>
<g id="a_node6"><a xlink:href="singlenode_8cpp_aa85919231c2adb5cad84c6707cb19f1c.html#aa85919231c2adb5cad84c6707cb19f1c" target="_top" xlink:title="a dummy signal handler function ">
<polygon fill="#ffffff" stroke="#000000" points="373,-.5 373,-19.5 485,-19.5 485,-.5 373,-.5"/>
<text text-anchor="middle" x="429" y="-7.5" font-family="Helvetica,sans-Serif" font-size="10.00" fill="#000000">singlenode_handler</text>
</a>
</g>
</g>
<!-- Node3&#45;&gt;Node6 -->
<g id="edge5" class="edge">
<title>Node3&#45;&gt;Node6</title>
<path fill="none" stroke="#191970" d="M347.1717,-35.4875C363.8282,-30.2994 382.8392,-24.3779 398.3422,-19.5491"/>
<polygon fill="#191970" stroke="#191970" points="345.664,-32.2912 337.1573,-38.6067 347.7458,-38.9745 345.664,-32.2912"/>
</g>
</g>
</svg>
