<?xml version="1.0" encoding="UTF-8" standalone="no"?>
<!DOCTYPE svg PUBLIC "-//W3C//DTD SVG 1.1//EN"
 "http://www.w3.org/Graphics/SVG/1.1/DTD/svg11.dtd">
<!-- Generated by graphviz version 2.40.1 (20161225.0304)
 -->
<!-- Title: argo::data_distribution::global_ptr::peek_offset Pages: 1 -->
<svg width="252pt" height="52pt"
 viewBox="0.00 0.00 252.00 51.50" xmlns="http://www.w3.org/2000/svg" xmlns:xlink="http://www.w3.org/1999/xlink">
<g id="graph0" class="graph" transform="scale(1 1) rotate(0) translate(4 47.5)">
<title>argo::data_distribution::global_ptr::peek_offset</title>
<polygon fill="#ffffff" stroke="transparent" points="-4,4 -4,-47.5 248,-47.5 248,4 -4,4"/>
<!-- Node1 -->
<g id="node1" class="node">
<title>Node1</title>
<polygon fill="#bfbfbf" stroke="#000000" points="0,-.5 0,-30.5 134,-30.5 134,-.5 0,-.5"/>
<text text-anchor="start" x="8" y="-18.5" font-family="Helvetica,sans-Serif" font-size="10.00" fill="#000000">argo::data_distribution</text>
<text text-anchor="middle" x="67" y="-7.5" font-family="Helvetica,sans-Serif" font-size="10.00" fill="#000000">::global_ptr::peek_offset</text>
</g>
<!-- Node2 -->
<g id="node2" class="node">
<title>Node2</title>
<g id="a_node2"><a xlink:href="swdsm_8h_aa5da42b70088b546b0f16d0a8031cfd1.html#aa5da42b70088b546b0f16d0a8031cfd1" target="_top" xlink:title="Gets the offset of an address on the local nodes part of the global memory. ">
<polygon fill="#ffffff" stroke="#000000" points="170,-6 170,-25 244,-25 244,-6 170,-6"/>
<text text-anchor="middle" x="207" y="-13" font-family="Helvetica,sans-Serif" font-size="10.00" fill="#000000">peek_offset</text>
</a>
</g>
</g>
<!-- Node1&#45;&gt;Node2 -->
<g id="edge1" class="edge">
<title>Node1&#45;&gt;Node2</title>
<path fill="none" stroke="#191970" d="M144.2565,-15.5C153.194,-15.5 161.9719,-15.5 169.9992,-15.5"/>
<polygon fill="#191970" stroke="#191970" points="144.1297,-12.0001 134.1296,-15.5 144.1296,-19.0001 144.1297,-12.0001"/>
</g>
<!-- Node2&#45;&gt;Node2 -->
<g id="edge2" class="edge">
<title>Node2&#45;&gt;Node2</title>
<path fill="none" stroke="#191970" d="M180.9584,-34.5292C182.3789,-39.628 191.0594,-43.5 207,-43.5 231.8828,-43.5 239.0755,-34.0653 228.5781,-25.2571"/>
<polygon fill="#191970" stroke="#191970" points="184.238,-35.7855 185.4219,-25.2571 177.9308,-32.7493 184.238,-35.7855"/>
</g>
</g>
</svg>
