<?xml version="1.0" encoding="UTF-8" standalone="no"?>
<!DOCTYPE svg PUBLIC "-//W3C//DTD SVG 1.1//EN"
 "http://www.w3.org/Graphics/SVG/1.1/DTD/svg11.dtd">
<!-- Generated by graphviz version 2.40.1 (20161225.0304)
 -->
<!-- Title: argo::globallock::global_tas_lock::lock Pages: 1 -->
<svg width="425pt" height="39pt"
 viewBox="0.00 0.00 425.00 39.00" xmlns="http://www.w3.org/2000/svg" xmlns:xlink="http://www.w3.org/1999/xlink">
<g id="graph0" class="graph" transform="scale(1 1) rotate(0) translate(4 35)">
<title>argo::globallock::global_tas_lock::lock</title>
<polygon fill="#ffffff" stroke="transparent" points="-4,4 -4,-35 421,-35 421,4 -4,4"/>
<!-- Node0 -->
<g id="node1" class="node">
<title>Node0</title>
<polygon fill="#bfbfbf" stroke="#000000" points="0,-.5 0,-30.5 131,-30.5 131,-.5 0,-.5"/>
<text text-anchor="start" x="8" y="-18.5" font-family="Helvetica,sans-Serif" font-size="10.00" fill="#000000">argo::globallock::global</text>
<text text-anchor="middle" x="65.5" y="-7.5" font-family="Helvetica,sans-Serif" font-size="10.00" fill="#000000">_tas_lock::lock</text>
</g>
<!-- Node1 -->
<g id="node2" class="node">
<title>Node1</title>
<g id="a_node2"><a xlink:href="classargo_1_1globallock_1_1global__tas__lock_a89bbe556d8a271dd64d65b421993da00.html#a89bbe556d8a271dd64d65b421993da00" target="_top" xlink:title="try to lock ">
<polygon fill="#ffffff" stroke="#000000" points="167,-.5 167,-30.5 298,-30.5 298,-.5 167,-.5"/>
<text text-anchor="start" x="175" y="-18.5" font-family="Helvetica,sans-Serif" font-size="10.00" fill="#000000">argo::globallock::global</text>
<text text-anchor="middle" x="232.5" y="-7.5" font-family="Helvetica,sans-Serif" font-size="10.00" fill="#000000">_tas_lock::try_lock</text>
</a>
</g>
</g>
<!-- Node0&#45;&gt;Node1 -->
<g id="edge1" class="edge">
<title>Node0&#45;&gt;Node1</title>
<path fill="none" stroke="#191970" d="M131.0235,-15.5C139.496,-15.5 148.2278,-15.5 156.8471,-15.5"/>
<polygon fill="#191970" stroke="#191970" points="156.8914,-19.0001 166.8913,-15.5 156.8913,-12.0001 156.8914,-19.0001"/>
</g>
<!-- Node2 -->
<g id="node3" class="node">
<title>Node2</title>
<g id="a_node3"><a xlink:href="namespaceargo_a2deaaacde085d381cbb01f24318965b4.html#a2deaaacde085d381cbb01f24318965b4" target="_top" xlink:title="A unique ArgoDSM node identifier. Counting starts from 0. ">
<polygon fill="#ffffff" stroke="#000000" points="334,-6 334,-25 417,-25 417,-6 334,-6"/>
<text text-anchor="middle" x="375.5" y="-13" font-family="Helvetica,sans-Serif" font-size="10.00" fill="#000000">argo::node_id</text>
</a>
</g>
</g>
<!-- Node1&#45;&gt;Node2 -->
<g id="edge2" class="edge">
<title>Node1&#45;&gt;Node2</title>
<path fill="none" stroke="#191970" d="M298.1406,-15.5C306.7104,-15.5 315.3932,-15.5 323.6921,-15.5"/>
<polygon fill="#191970" stroke="#191970" points="323.9614,-19.0001 333.9614,-15.5 323.9614,-12.0001 323.9614,-19.0001"/>
</g>
</g>
</svg>
