<?xml version="1.0" encoding="UTF-8" standalone="no"?>
<!DOCTYPE svg PUBLIC "-//W3C//DTD SVG 1.1//EN"
 "http://www.w3.org/Graphics/SVG/1.1/DTD/svg11.dtd">
<!-- Generated by graphviz version 2.40.1 (20161225.0304)
 -->
<!-- Title: argo::data_distribution::global_ptr::peek_node Pages: 1 -->
<!--zoomable 377 -->
<svg id="main" version="1.1" xmlns="http://www.w3.org/2000/svg" xmlns:xlink="http://www.w3.org/1999/xlink" xml:space="preserve" onload="init(evt)">
<style type="text/css"><![CDATA[
.edge:hover path { stroke: red; }
.edge:hover polygon { stroke: red; fill: red; }
]]></style>
<script type="text/javascript"><![CDATA[
var edges = document.getElementsByTagName('g');
if (edges && edges.length) {
  for (var i=0;i<edges.length;i++) {
    if (edges[i].id.substr(0,4)=='edge') {
      edges[i].setAttribute('class','edge');
    }
  }
}
]]></script>
        <defs>
                <circle id="rim" cx="0" cy="0" r="7"/>
                <circle id="rim2" cx="0" cy="0" r="3.5"/>
                <g id="zoomPlus">
                        <use xlink:href="#rim" fill="#404040">
                                <set attributeName="fill" to="#808080" begin="zoomplus.mouseover" end="zoomplus.mouseout"/>
                        </use>
                        <path d="M-4,0h8M0,-4v8" fill="none" stroke="white" stroke-width="1.5" pointer-events="none"/>
                </g>
                <g id="zoomMin">
                        <use xlink:href="#rim" fill="#404040">
                                <set attributeName="fill" to="#808080" begin="zoomminus.mouseover" end="zoomminus.mouseout"/>
                        </use>
                        <path d="M-4,0h8" fill="none" stroke="white" stroke-width="1.5" pointer-events="none"/>
                </g>
                <g id="dirArrow">
                        <path fill="none" stroke="white" stroke-width="1.5" d="M0,-3.0v7 M-2.5,-0.5L0,-3.0L2.5,-0.5"/>
                </g>
               <g id="resetDef">
                       <use xlink:href="#rim2" fill="#404040">
                               <set attributeName="fill" to="#808080" begin="reset.mouseover" end="reset.mouseout"/>
                       </use>
               </g>
        </defs>

<script type="text/javascript">
var viewWidth = 1348;
var viewHeight = 377;
var sectionId = 'dynsection-0';
</script>
<script xlink:href="svgpan.js"/>
<svg id="graph" class="graph">
<g id="viewport">
<title>argo::data_distribution::global_ptr::peek_node</title>
<polygon fill="#ffffff" stroke="transparent" points="-4,4 -4,-373 1344,-373 1344,4 -4,4"/>
<!-- Node1 -->
<g id="node1" class="node">
<title>Node1</title>
<polygon fill="#bfbfbf" stroke="#000000" points="0,-71 0,-101 131,-101 131,-71 0,-71"/>
<text text-anchor="start" x="8" y="-89" font-family="Helvetica,sans-Serif" font-size="10.00" fill="#000000">argo::data_distribution</text>
<text text-anchor="middle" x="65.5" y="-78" font-family="Helvetica,sans-Serif" font-size="10.00" fill="#000000">::global_ptr::peek_node</text>
</g>
<!-- Node2 -->
<g id="node2" class="node">
<title>Node2</title>
<g id="a_node2"><a xlink:href="namespaceargo_a48dc17c94275df10a8e7f3959cbf0191.html#a48dc17c94275df10a8e7f3959cbf0191" target="_top" xlink:title="Get the ArgoDSM node id where addr is physically backed. ">
<polygon fill="#ffffff" stroke="#000000" points="167,-120.5 167,-139.5 284,-139.5 284,-120.5 167,-120.5"/>
<text text-anchor="middle" x="225.5" y="-127.5" font-family="Helvetica,sans-Serif" font-size="10.00" fill="#000000">argo::get_homenode</text>
</a>
</g>
</g>
<!-- Node1&#45;&gt;Node2 -->
<g id="edge1" class="edge">
<title>Node1&#45;&gt;Node2</title>
<path fill="none" stroke="#191970" d="M129.8524,-103.6969C150.6277,-109.4101 172.8681,-115.5262 190.6699,-120.4217"/>
<polygon fill="#191970" stroke="#191970" points="130.6855,-100.2962 120.1154,-101.0192 128.8294,-107.0456 130.6855,-100.2962"/>
</g>
<!-- Node26 -->
<g id="node26" class="node">
<title>Node26</title>
<g id="a_node26"><a xlink:href="swdsm_8h_a4c0ee0be20a4d5b19eef1a568e6ce084.html#a4c0ee0be20a4d5b19eef1a568e6ce084" target="_top" xlink:title="Gives homenode for a given address. ">
<polygon fill="#ffffff" stroke="#000000" points="475,-32.5 475,-51.5 573,-51.5 573,-32.5 475,-32.5"/>
<text text-anchor="middle" x="524" y="-39.5" font-family="Helvetica,sans-Serif" font-size="10.00" fill="#000000">peek_homenode</text>
</a>
</g>
</g>
<!-- Node1&#45;&gt;Node26 -->
<g id="edge31" class="edge">
<title>Node1&#45;&gt;Node26</title>
<path fill="none" stroke="#191970" d="M141.2691,-78.7288C235.8706,-69.6504 394.9646,-54.3829 474.9545,-46.7067"/>
<polygon fill="#191970" stroke="#191970" points="140.8118,-75.2565 131.1919,-79.6959 141.4805,-82.2245 140.8118,-75.2565"/>
</g>
<!-- Node3 -->
<g id="node3" class="node">
<title>Node3</title>
<g id="a_node3"><a xlink:href="argo_8h_aa4a06a633ece5fbb94b9d8f0a6479e4c.html#aa4a06a633ece5fbb94b9d8f0a6479e4c" target="_top" xlink:title="Get the ArgoDSM node id where addr is physically backed. ">
<polygon fill="#ffffff" stroke="#000000" points="320,-120.5 320,-139.5 436,-139.5 436,-120.5 320,-120.5"/>
<text text-anchor="middle" x="378" y="-127.5" font-family="Helvetica,sans-Serif" font-size="10.00" fill="#000000">argo_get_homenode</text>
</a>
</g>
</g>
<!-- Node2&#45;&gt;Node3 -->
<g id="edge2" class="edge">
<title>Node2&#45;&gt;Node3</title>
<path fill="none" stroke="#191970" d="M294.0608,-130C302.6851,-130 311.442,-130 319.884,-130"/>
<polygon fill="#191970" stroke="#191970" points="294.0244,-126.5001 284.0243,-130 294.0243,-133.5001 294.0244,-126.5001"/>
</g>
<!-- Node4 -->
<g id="node4" class="node">
<title>Node4</title>
<g id="a_node4"><a xlink:href="classwrite__buffer_aa2325346aceb3e7ffdbdbdc8e8682147.html#aa2325346aceb3e7ffdbdbdc8e8682147" target="_top" xlink:title="Sorts all elements by home node id in ascending order. ">
<polygon fill="#ffffff" stroke="#000000" points="328,-196.5 328,-215.5 428,-215.5 428,-196.5 328,-196.5"/>
<text text-anchor="middle" x="378" y="-203.5" font-family="Helvetica,sans-Serif" font-size="10.00" fill="#000000">write_buffer::sort</text>
</a>
</g>
</g>
<!-- Node2&#45;&gt;Node4 -->
<g id="edge3" class="edge">
<title>Node2&#45;&gt;Node4</title>
<path fill="none" stroke="#191970" d="M247.4252,-145.184C266.094,-157.6259 293.9544,-175.0656 320,-187 327.7063,-190.5311 336.2602,-193.7107 344.3794,-196.4137"/>
<polygon fill="#191970" stroke="#191970" points="249.2927,-142.2217 239.0471,-139.5236 245.3739,-148.022 249.2927,-142.2217"/>
</g>
<!-- Node21 -->
<g id="node21" class="node">
<title>Node21</title>
<g id="a_node21"><a xlink:href="classwrite__buffer_a9e8cf81e623c4bb67f687379f8709a53.html#a9e8cf81e623c4bb67f687379f8709a53" target="_top" xlink:title="Sorts the first _write_back_size elements by home node id in ascending order. ">
<polygon fill="#ffffff" stroke="#000000" points="328,-71 328,-101 428,-101 428,-71 328,-71"/>
<text text-anchor="start" x="336" y="-89" font-family="Helvetica,sans-Serif" font-size="10.00" fill="#000000">write_buffer::sort</text>
<text text-anchor="middle" x="378" y="-78" font-family="Helvetica,sans-Serif" font-size="10.00" fill="#000000">_first</text>
</a>
</g>
</g>
<!-- Node2&#45;&gt;Node21 -->
<g id="edge25" class="edge">
<title>Node2&#45;&gt;Node21</title>
<path fill="none" stroke="#191970" d="M268.2258,-117.6726C286.7521,-112.3273 308.5751,-106.0308 327.8628,-100.4658"/>
<polygon fill="#191970" stroke="#191970" points="267.228,-114.3176 258.5902,-120.4527 269.1686,-121.0432 267.228,-114.3176"/>
</g>
<!-- Node25 -->
<g id="node25" class="node">
<title>Node25</title>
<g id="a_node25"><a xlink:href="api_8cpp_a6255f7c304a854275724ca1df48fab28.html#a6255f7c304a854275724ca1df48fab28" target="_top" xlink:title="Unittest that checks correctness of the argo::get_homenode(T* addr) API function. ...">
<polygon fill="#ffffff" stroke="#000000" points="352.5,-158.5 352.5,-177.5 403.5,-177.5 403.5,-158.5 352.5,-158.5"/>
<text text-anchor="middle" x="378" y="-165.5" font-family="Helvetica,sans-Serif" font-size="10.00" fill="#000000">TEST_F</text>
</a>
</g>
</g>
<!-- Node2&#45;&gt;Node25 -->
<g id="edge30" class="edge">
<title>Node2&#45;&gt;Node25</title>
<path fill="none" stroke="#191970" d="M273.7096,-142.0129C299.8224,-148.5197 331.0328,-156.2967 352.4642,-161.637"/>
<polygon fill="#191970" stroke="#191970" points="274.5318,-138.6108 263.9822,-139.589 272.8392,-145.4031 274.5318,-138.6108"/>
</g>
<!-- Node5 -->
<g id="node5" class="node">
<title>Node5</title>
<g id="a_node5"><a xlink:href="classwrite__buffer_aca2e330e17a38c1cc8d8c60701ce9dd7.html#aca2e330e17a38c1cc8d8c60701ce9dd7" target="_top" xlink:title="Flushes the ArgoDSM write buffer to memory. ">
<polygon fill="#ffffff" stroke="#000000" points="472,-196.5 472,-215.5 576,-215.5 576,-196.5 472,-196.5"/>
<text text-anchor="middle" x="524" y="-203.5" font-family="Helvetica,sans-Serif" font-size="10.00" fill="#000000">write_buffer::flush</text>
</a>
</g>
</g>
<!-- Node4&#45;&gt;Node5 -->
<g id="edge4" class="edge">
<title>Node4&#45;&gt;Node5</title>
<path fill="none" stroke="#191970" d="M438.2791,-206C449.362,-206 460.8486,-206 471.6741,-206"/>
<polygon fill="#191970" stroke="#191970" points="438.245,-202.5001 428.2449,-206 438.2449,-209.5001 438.245,-202.5001"/>
</g>
<!-- Node6 -->
<g id="node6" class="node">
<title>Node6</title>
<g id="a_node6"><a xlink:href="swdsm_8h_aa7c3a2de6bbafdaf68fe6ceb6110ab97.html#aa7c3a2de6bbafdaf68fe6ceb6110ab97" target="_top" xlink:title="Self&#45;Invalidates all memory that has potential writers. ">
<polygon fill="#ffffff" stroke="#000000" points="614,-196.5 614,-215.5 712,-215.5 712,-196.5 614,-196.5"/>
<text text-anchor="middle" x="663" y="-203.5" font-family="Helvetica,sans-Serif" font-size="10.00" fill="#000000">self_invalidation</text>
</a>
</g>
</g>
<!-- Node5&#45;&gt;Node6 -->
<g id="edge5" class="edge">
<title>Node5&#45;&gt;Node6</title>
<path fill="none" stroke="#191970" d="M586.4046,-206C595.5771,-206 604.9161,-206 613.7737,-206"/>
<polygon fill="#191970" stroke="#191970" points="586.154,-202.5001 576.1539,-206 586.1539,-209.5001 586.154,-202.5001"/>
</g>
<!-- Node7 -->
<g id="node7" class="node">
<title>Node7</title>
<g id="a_node7"><a xlink:href="swdsm_8h_ad3f5bdae81c60ac704dda7372792427d.html#ad3f5bdae81c60ac704dda7372792427d" target="_top" xlink:title="Global barrier for ArgoDSM &#45; needs to be called by every thread in the system that need coherent view...">
<polygon fill="#ffffff" stroke="#000000" points="762,-240.5 762,-259.5 878,-259.5 878,-240.5 762,-240.5"/>
<text text-anchor="middle" x="820" y="-247.5" font-family="Helvetica,sans-Serif" font-size="10.00" fill="#000000">swdsm_argo_barrier</text>
</a>
</g>
</g>
<!-- Node5&#45;&gt;Node7 -->
<g id="edge19" class="edge">
<title>Node5&#45;&gt;Node7</title>
<path fill="none" stroke="#191970" d="M574.6108,-217.7695C586.8114,-220.3732 599.8369,-222.9605 612,-225 662.3977,-233.4505 720.1282,-240.1556 761.9622,-244.4857"/>
<polygon fill="#191970" stroke="#191970" points="575.1087,-214.2961 564.5932,-215.5903 573.6206,-221.1361 575.1087,-214.2961"/>
</g>
<!-- Node19 -->
<g id="node19" class="node">
<title>Node19</title>
<g id="a_node19"><a xlink:href="swdsm_8h_ad390eb58e1be03ed6a0939fae7ebd20a.html#ad390eb58e1be03ed6a0939fae7ebd20a" target="_top" xlink:title="Release function for ArgoDSM (Release according to Release Consistency) ">
<polygon fill="#ffffff" stroke="#000000" points="780,-141.5 780,-160.5 860,-160.5 860,-141.5 780,-141.5"/>
<text text-anchor="middle" x="820" y="-148.5" font-family="Helvetica,sans-Serif" font-size="10.00" fill="#000000">argo_release</text>
</a>
</g>
</g>
<!-- Node5&#45;&gt;Node19 -->
<g id="edge20" class="edge">
<title>Node5&#45;&gt;Node19</title>
<path fill="none" stroke="#191970" d="M576.4987,-194.294C588.1677,-191.7957 600.4895,-189.2377 612,-187 670.0988,-175.7052 737.6738,-164.3338 779.6464,-157.4777"/>
<polygon fill="#191970" stroke="#191970" points="575.4847,-190.9322 566.449,-196.4646 576.9625,-197.7744 575.4847,-190.9322"/>
</g>
<!-- Node6&#45;&gt;Node7 -->
<g id="edge6" class="edge">
<title>Node6&#45;&gt;Node7</title>
<path fill="none" stroke="#191970" d="M706.7025,-218.2478C731.7675,-225.2724 762.7665,-233.96 785.9998,-240.4713"/>
<polygon fill="#191970" stroke="#191970" points="707.6402,-214.8758 697.0667,-215.5473 705.7511,-221.6161 707.6402,-214.8758"/>
</g>
<!-- Node15 -->
<g id="node15" class="node">
<title>Node15</title>
<g id="a_node15"><a xlink:href="swdsm_8h_a44b8bb7a3c8b47b4f9552c8e10b25e4b.html#a44b8bb7a3c8b47b4f9552c8e10b25e4b" target="_top" xlink:title="acquire function for ArgoDSM (Acquire according to Release Consistency) ">
<polygon fill="#ffffff" stroke="#000000" points="780,-179.5 780,-198.5 860,-198.5 860,-179.5 780,-179.5"/>
<text text-anchor="middle" x="820" y="-186.5" font-family="Helvetica,sans-Serif" font-size="10.00" fill="#000000">argo_acquire</text>
</a>
</g>
</g>
<!-- Node6&#45;&gt;Node15 -->
<g id="edge14" class="edge">
<title>Node6&#45;&gt;Node15</title>
<path fill="none" stroke="#191970" d="M722.406,-199.5675C741.5964,-197.4896 762.4077,-195.2361 779.8632,-193.346"/>
<polygon fill="#191970" stroke="#191970" points="721.8101,-196.1115 712.245,-200.6677 722.5637,-203.0708 721.8101,-196.1115"/>
</g>
<!-- Node8 -->
<g id="node8" class="node">
<title>Node8</title>
<g id="a_node8"><a xlink:href="backend_8hpp_af1a647431651556204709451bebb5a42.html#af1a647431651556204709451bebb5a42" target="_top" xlink:title="a simple collective barrier ">
<polygon fill="#ffffff" stroke="#000000" points="928,-273.5 928,-292.5 1052,-292.5 1052,-273.5 928,-273.5"/>
<text text-anchor="middle" x="990" y="-280.5" font-family="Helvetica,sans-Serif" font-size="10.00" fill="#000000">argo::backend::barrier</text>
</a>
</g>
</g>
<!-- Node7&#45;&gt;Node8 -->
<g id="edge7" class="edge">
<title>Node7&#45;&gt;Node8</title>
<path fill="none" stroke="#191970" d="M879.1836,-261.4886C899.3492,-265.4031 921.6566,-269.7333 940.9395,-273.4765"/>
<polygon fill="#191970" stroke="#191970" points="879.6548,-258.0148 869.171,-259.545 878.3208,-264.8865 879.6548,-258.0148"/>
</g>
<!-- Node9 -->
<g id="node9" class="node">
<title>Node9</title>
<g id="a_node9"><a xlink:href="swdsm_8h_acd175d6d8efa5cce6963bae64891a490.html#acd175d6d8efa5cce6963bae64891a490" target="_top" xlink:title="Allocates memory in global address space. ">
<polygon fill="#ffffff" stroke="#000000" points="948.5,-235.5 948.5,-254.5 1031.5,-254.5 1031.5,-235.5 948.5,-235.5"/>
<text text-anchor="middle" x="990" y="-242.5" font-family="Helvetica,sans-Serif" font-size="10.00" fill="#000000">argo_gmalloc</text>
</a>
</g>
</g>
<!-- Node7&#45;&gt;Node9 -->
<g id="edge8" class="edge">
<title>Node7&#45;&gt;Node9</title>
<path fill="none" stroke="#191970" d="M888.2002,-247.9941C908.5405,-247.3959 930.2176,-246.7583 948.3181,-246.2259"/>
<polygon fill="#191970" stroke="#191970" points="887.9216,-244.5007 878.0289,-248.2933 888.1275,-251.4977 887.9216,-244.5007"/>
</g>
<!-- Node10 -->
<g id="node10" class="node">
<title>Node10</title>
<g id="a_node10"><a xlink:href="swdsm_8cpp_aa954d5e0bcaee69ff6e03e697bcaf68b.html#aa954d5e0bcaee69ff6e03e697bcaf68b" target="_top" xlink:title="shut down ArgoDSM system ">
<polygon fill="#ffffff" stroke="#000000" points="950.5,-349.5 950.5,-368.5 1029.5,-368.5 1029.5,-349.5 950.5,-349.5"/>
<text text-anchor="middle" x="990" y="-356.5" font-family="Helvetica,sans-Serif" font-size="10.00" fill="#000000">argo_finalize</text>
</a>
</g>
</g>
<!-- Node7&#45;&gt;Node10 -->
<g id="edge9" class="edge">
<title>Node7&#45;&gt;Node10</title>
<path fill="none" stroke="#191970" d="M835.7589,-267.1627C855.161,-287.3279 889.9894,-320.5015 926,-340 933.5422,-344.0839 942.0718,-347.3943 950.3876,-350.0373"/>
<polygon fill="#191970" stroke="#191970" points="838.065,-264.507 828.655,-259.6384 832.9751,-269.3125 838.065,-264.507"/>
</g>
<!-- Node12 -->
<g id="node12" class="node">
<title>Node12</title>
<g id="a_node12"><a xlink:href="swdsm_8h_a0c6b51af2b87ddf7eb04aa7d4e0e836e.html#a0c6b51af2b87ddf7eb04aa7d4e0e836e" target="_top" xlink:title="Resets current coherence. Collective function called by all threads on all nodes. ...">
<polygon fill="#ffffff" stroke="#000000" points="928,-311.5 928,-330.5 1052,-330.5 1052,-311.5 928,-311.5"/>
<text text-anchor="middle" x="990" y="-318.5" font-family="Helvetica,sans-Serif" font-size="10.00" fill="#000000">argo_reset_coherence</text>
</a>
</g>
</g>
<!-- Node7&#45;&gt;Node12 -->
<g id="edge11" class="edge">
<title>Node7&#45;&gt;Node12</title>
<path fill="none" stroke="#191970" d="M846.2132,-264.394C867.3343,-275.6137 898.0177,-291.0716 926,-302 934.9609,-305.4996 944.8388,-308.7272 954.097,-311.4913"/>
<polygon fill="#191970" stroke="#191970" points="847.6919,-261.2154 837.2258,-259.5687 844.3807,-267.3827 847.6919,-261.2154"/>
</g>
<!-- Node11 -->
<g id="node11" class="node">
<title>Node11</title>
<g id="a_node11"><a xlink:href="swdsm_8h_a18cc89a7368e30281ea4b1d214a1b1ff.html#a18cc89a7368e30281ea4b1d214a1b1ff" target="_top" xlink:title="Pins and registers the local thread. ">
<polygon fill="#ffffff" stroke="#000000" points="1093,-349.5 1093,-368.5 1194,-368.5 1194,-349.5 1093,-349.5"/>
<text text-anchor="middle" x="1143.5" y="-356.5" font-family="Helvetica,sans-Serif" font-size="10.00" fill="#000000">argo_pin_threads</text>
</a>
</g>
</g>
<!-- Node10&#45;&gt;Node11 -->
<g id="edge10" class="edge">
<title>Node10&#45;&gt;Node11</title>
<path fill="none" stroke="#191970" d="M1039.8002,-359C1056.7693,-359 1075.7517,-359 1092.7913,-359"/>
<polygon fill="#191970" stroke="#191970" points="1039.5301,-355.5001 1029.5301,-359 1039.53,-362.5001 1039.5301,-355.5001"/>
</g>
<!-- Node13 -->
<g id="node13" class="node">
<title>Node13</title>
<g id="a_node13"><a xlink:href="swdsm_8h_a10dca85d339ce630cf42dca685b3f6d9.html#a10dca85d339ce630cf42dca685b3f6d9" target="_top" xlink:title="Initializes ArgoDSM runtime. ">
<polygon fill="#ffffff" stroke="#000000" points="1100.5,-217.5 1100.5,-236.5 1186.5,-236.5 1186.5,-217.5 1100.5,-217.5"/>
<text text-anchor="middle" x="1143.5" y="-224.5" font-family="Helvetica,sans-Serif" font-size="10.00" fill="#000000">argo_initialize</text>
</a>
</g>
</g>
<!-- Node12&#45;&gt;Node13 -->
<g id="edge12" class="edge">
<title>Node12&#45;&gt;Node13</title>
<path fill="none" stroke="#191970" d="M1040.7537,-308.0611C1045.3339,-306.2622 1049.8171,-304.2474 1054,-302 1087.2161,-284.1533 1119.4115,-252.6481 1134.5348,-236.7531"/>
<polygon fill="#191970" stroke="#191970" points="1039.5138,-304.7874 1031.2809,-311.4559 1041.8755,-311.377 1039.5138,-304.7874"/>
</g>
<!-- Node14 -->
<g id="node14" class="node">
<title>Node14</title>
<g id="a_node14"><a xlink:href="backend_8hpp_af0d80a03a17a374c10d9635ddf81e261.html#af0d80a03a17a374c10d9635ddf81e261" target="_top" xlink:title="initialize backend ">
<polygon fill="#ffffff" stroke="#000000" points="1233,-217.5 1233,-236.5 1340,-236.5 1340,-217.5 1233,-217.5"/>
<text text-anchor="middle" x="1286.5" y="-224.5" font-family="Helvetica,sans-Serif" font-size="10.00" fill="#000000">argo::backend::init</text>
</a>
</g>
</g>
<!-- Node13&#45;&gt;Node14 -->
<g id="edge13" class="edge">
<title>Node13&#45;&gt;Node14</title>
<path fill="none" stroke="#191970" d="M1196.933,-227C1208.7171,-227 1221.2019,-227 1232.9891,-227"/>
<polygon fill="#191970" stroke="#191970" points="1196.7928,-223.5001 1186.7928,-227 1196.7927,-230.5001 1196.7928,-223.5001"/>
</g>
<!-- Node16 -->
<g id="node16" class="node">
<title>Node16</title>
<g id="a_node16"><a xlink:href="backend_8hpp_a1032f833666c3f810ac1c6210197d426.html#a1032f833666c3f810ac1c6210197d426" target="_top" xlink:title="causes a node to self&#45;invalidate its cache, and thus getting any updated values on subsequent accesse...">
<polygon fill="#ffffff" stroke="#000000" points="926,-179.5 926,-198.5 1054,-198.5 1054,-179.5 926,-179.5"/>
<text text-anchor="middle" x="990" y="-186.5" font-family="Helvetica,sans-Serif" font-size="10.00" fill="#000000">argo::backend::acquire</text>
</a>
</g>
</g>
<!-- Node15&#45;&gt;Node16 -->
<g id="edge15" class="edge">
<title>Node15&#45;&gt;Node16</title>
<path fill="none" stroke="#191970" d="M870.7206,-189C887.9998,-189 907.5492,-189 925.7473,-189"/>
<polygon fill="#191970" stroke="#191970" points="870.2877,-185.5001 860.2876,-189 870.2876,-192.5001 870.2877,-185.5001"/>
</g>
<!-- Node18 -->
<g id="node18" class="node">
<title>Node18</title>
<g id="a_node18"><a xlink:href="swdsm_8h_ac0b665f72bc2a28dc663ed204c526e1b.html#ac0b665f72bc2a28dc663ed204c526e1b" target="_top" xlink:title="acquire&#45;release function for ArgoDSM (Both acquire and release according to Release Consistency) ...">
<polygon fill="#ffffff" stroke="#000000" points="950.5,-141.5 950.5,-160.5 1029.5,-160.5 1029.5,-141.5 950.5,-141.5"/>
<text text-anchor="middle" x="990" y="-148.5" font-family="Helvetica,sans-Serif" font-size="10.00" fill="#000000">argo_acq_rel</text>
</a>
</g>
</g>
<!-- Node15&#45;&gt;Node18 -->
<g id="edge18" class="edge">
<title>Node15&#45;&gt;Node18</title>
<path fill="none" stroke="#191970" d="M870.1733,-177.7848C895.7418,-172.0695 926.3935,-165.2179 950.2951,-159.8752"/>
<polygon fill="#191970" stroke="#191970" points="869.2833,-174.3973 860.2876,-179.9945 870.8103,-181.2287 869.2833,-174.3973"/>
</g>
<!-- Node16&#45;&gt;Node16 -->
<g id="edge16" class="edge">
<title>Node16&#45;&gt;Node16</title>
<path fill="none" stroke="#191970" d="M961.6275,-207.6539C962.8135,-212.9368 972.271,-217 990,-217 1017.0156,-217 1024.8248,-207.5653 1013.4276,-198.7571"/>
<polygon fill="#191970" stroke="#191970" points="964.7735,-209.1981 966.5724,-198.7571 958.6551,-205.7974 964.7735,-209.1981"/>
</g>
<!-- Node17 -->
<g id="node17" class="node">
<title>Node17</title>
<g id="a_node17"><a xlink:href="singlenode_8cpp_aab3cabb3e1c0b9696b339416b684f78c.html#aab3cabb3e1c0b9696b339416b684f78c" target="_top" xlink:title="argo::backend::init">
<polygon fill="#ffffff" stroke="#000000" points="1090,-85.5 1090,-104.5 1197,-104.5 1197,-85.5 1090,-85.5"/>
<text text-anchor="middle" x="1143.5" y="-92.5" font-family="Helvetica,sans-Serif" font-size="10.00" fill="#000000">argo::backend::init</text>
</a>
</g>
</g>
<!-- Node16&#45;&gt;Node17 -->
<g id="edge17" class="edge">
<title>Node16&#45;&gt;Node17</title>
<path fill="none" stroke="#191970" d="M1040.7537,-176.0611C1045.3339,-174.2622 1049.8171,-172.2474 1054,-170 1087.2161,-152.1533 1119.4115,-120.6481 1134.5348,-104.7531"/>
<polygon fill="#191970" stroke="#191970" points="1039.5138,-172.7874 1031.2809,-179.4559 1041.8755,-179.377 1039.5138,-172.7874"/>
</g>
<!-- Node19&#45;&gt;Node18 -->
<g id="edge24" class="edge">
<title>Node19&#45;&gt;Node18</title>
<path fill="none" stroke="#191970" d="M870.513,-151C896.0129,-151 926.4992,-151 950.2951,-151"/>
<polygon fill="#191970" stroke="#191970" points="870.2877,-147.5001 860.2876,-151 870.2876,-154.5001 870.2877,-147.5001"/>
</g>
<!-- Node20 -->
<g id="node20" class="node">
<title>Node20</title>
<g id="a_node20"><a xlink:href="backend_8hpp_a8953c9cd9d3c56306740b6c9b97513a2.html#a8953c9cd9d3c56306740b6c9b97513a2" target="_top" xlink:title="causes a node to self&#45;downgrade its cache, making all previous writes to be propagated to the homenod...">
<polygon fill="#ffffff" stroke="#000000" points="926,-85.5 926,-104.5 1054,-104.5 1054,-85.5 926,-85.5"/>
<text text-anchor="middle" x="990" y="-92.5" font-family="Helvetica,sans-Serif" font-size="10.00" fill="#000000">argo::backend::release</text>
</a>
</g>
</g>
<!-- Node19&#45;&gt;Node20 -->
<g id="edge21" class="edge">
<title>Node19&#45;&gt;Node20</title>
<path fill="none" stroke="#191970" d="M858.886,-138.1905C890.0312,-127.9309 933.0223,-113.7691 961.1573,-104.5011"/>
<polygon fill="#191970" stroke="#191970" points="857.6269,-134.9202 849.224,-141.3733 859.8171,-141.5687 857.6269,-134.9202"/>
</g>
<!-- Node20&#45;&gt;Node17 -->
<g id="edge23" class="edge">
<title>Node20&#45;&gt;Node17</title>
<path fill="none" stroke="#191970" d="M1064.2612,-95C1072.8631,-95 1081.5067,-95 1089.7592,-95"/>
<polygon fill="#191970" stroke="#191970" points="1064.2084,-91.5001 1054.2084,-95 1064.2084,-98.5001 1064.2084,-91.5001"/>
</g>
<!-- Node20&#45;&gt;Node20 -->
<g id="edge22" class="edge">
<title>Node20&#45;&gt;Node20</title>
<path fill="none" stroke="#191970" d="M961.6275,-113.6539C962.8135,-118.9368 972.271,-123 990,-123 1017.0156,-123 1024.8248,-113.5653 1013.4276,-104.7571"/>
<polygon fill="#191970" stroke="#191970" points="964.7735,-115.1981 966.5724,-104.7571 958.6551,-111.7974 964.7735,-115.1981"/>
</g>
<!-- Node22 -->
<g id="node22" class="node">
<title>Node22</title>
<g id="a_node22"><a xlink:href="classwrite__buffer_aa6a1c2c3aa3a7cde744bbca3b14f599a.html#aa6a1c2c3aa3a7cde744bbca3b14f599a" target="_top" xlink:title="Flushes first _write_back_size elements of the ArgoDSM write buffer to memory. ">
<polygon fill="#ffffff" stroke="#000000" points="472,-71 472,-101 576,-101 576,-71 472,-71"/>
<text text-anchor="start" x="480" y="-89" font-family="Helvetica,sans-Serif" font-size="10.00" fill="#000000">write_buffer::flush</text>
<text text-anchor="middle" x="524" y="-78" font-family="Helvetica,sans-Serif" font-size="10.00" fill="#000000">_partial</text>
</a>
</g>
</g>
<!-- Node21&#45;&gt;Node22 -->
<g id="edge26" class="edge">
<title>Node21&#45;&gt;Node22</title>
<path fill="none" stroke="#191970" d="M438.2791,-86C449.362,-86 460.8486,-86 471.6741,-86"/>
<polygon fill="#191970" stroke="#191970" points="438.245,-82.5001 428.2449,-86 438.2449,-89.5001 438.245,-82.5001"/>
</g>
<!-- Node23 -->
<g id="node23" class="node">
<title>Node23</title>
<g id="a_node23"><a xlink:href="classwrite__buffer_a23b0dbc463111cacbbf83b267e76ac9f.html#a23b0dbc463111cacbbf83b267e76ac9f" target="_top" xlink:title="Adds a new element to the write buffer. ">
<polygon fill="#ffffff" stroke="#000000" points="613.5,-76.5 613.5,-95.5 712.5,-95.5 712.5,-76.5 613.5,-76.5"/>
<text text-anchor="middle" x="663" y="-83.5" font-family="Helvetica,sans-Serif" font-size="10.00" fill="#000000">write_buffer::add</text>
</a>
</g>
</g>
<!-- Node22&#45;&gt;Node23 -->
<g id="edge27" class="edge">
<title>Node22&#45;&gt;Node23</title>
<path fill="none" stroke="#191970" d="M586.2752,-86C595.3314,-86 604.5531,-86 613.3161,-86"/>
<polygon fill="#191970" stroke="#191970" points="586.154,-82.5001 576.1539,-86 586.1539,-89.5001 586.154,-82.5001"/>
</g>
<!-- Node24 -->
<g id="node24" class="node">
<title>Node24</title>
<g id="a_node24"><a xlink:href="swdsm_8h_a8b00f264b792522b179fbc9c818187bd.html#a8b00f264b792522b179fbc9c818187bd" target="_top" xlink:title="Catches memory accesses to memory not yet cached in ArgoDSM. Launches remote requests for memory not ...">
<polygon fill="#ffffff" stroke="#000000" points="793.5,-56.5 793.5,-75.5 846.5,-75.5 846.5,-56.5 793.5,-56.5"/>
<text text-anchor="middle" x="820" y="-63.5" font-family="Helvetica,sans-Serif" font-size="10.00" fill="#000000">handler</text>
</a>
</g>
</g>
<!-- Node23&#45;&gt;Node24 -->
<g id="edge28" class="edge">
<title>Node23&#45;&gt;Node24</title>
<path fill="none" stroke="#191970" d="M722.6029,-78.4073C747.043,-75.2939 774.0814,-71.8495 793.4559,-69.3814"/>
<polygon fill="#191970" stroke="#191970" points="722.1533,-74.9362 712.6758,-79.6719 723.0379,-81.8801 722.1533,-74.9362"/>
</g>
<!-- Node24&#45;&gt;Node13 -->
<g id="edge29" class="edge">
<title>Node24&#45;&gt;Node13</title>
<path fill="none" stroke="#191970" d="M856.6021,-57.4928C905.4006,-48.2671 992.7241,-39.3336 1054,-76 1081.9805,-92.7431 1125.723,-187.0113 1139.3228,-217.4924"/>
<polygon fill="#191970" stroke="#191970" points="855.628,-54.1182 846.5081,-59.5105 857.0001,-60.9824 855.628,-54.1182"/>
</g>
<!-- Node27 -->
<g id="node27" class="node">
<title>Node27</title>
<g id="a_node27"><a xlink:href="swdsm_8cpp_a97adb774a1a5a7a3505416a171c570e9.html#a97adb774a1a5a7a3505416a171c570e9" target="_top" xlink:title="load into cache helper function ">
<polygon fill="#ffffff" stroke="#000000" points="612,-38.5 612,-57.5 714,-57.5 714,-38.5 612,-38.5"/>
<text text-anchor="middle" x="663" y="-45.5" font-family="Helvetica,sans-Serif" font-size="10.00" fill="#000000">load_cache_entry</text>
</a>
</g>
</g>
<!-- Node26&#45;&gt;Node27 -->
<g id="edge32" class="edge">
<title>Node26&#45;&gt;Node27</title>
<path fill="none" stroke="#191970" d="M583.1434,-44.553C592.612,-44.9617 602.3429,-45.3817 611.6118,-45.7818"/>
<polygon fill="#191970" stroke="#191970" points="583.1479,-41.05 573.0062,-44.1154 582.8459,-48.0435 583.1479,-41.05"/>
</g>
<!-- Node28 -->
<g id="node28" class="node">
<title>Node28</title>
<g id="a_node28"><a xlink:href="swdsm_8h_a1696e0fe6cc8d073536dbce9b6fb8b1b.html#a1696e0fe6cc8d073536dbce9b6fb8b1b" target="_top" xlink:title="Check whether a page is either cached on the node or locally backed. ">
<polygon fill="#ffffff" stroke="#000000" points="628,-.5 628,-19.5 698,-19.5 698,-.5 628,-.5"/>
<text text-anchor="middle" x="663" y="-7.5" font-family="Helvetica,sans-Serif" font-size="10.00" fill="#000000">_is_cached</text>
</a>
</g>
</g>
<!-- Node26&#45;&gt;Node28 -->
<g id="edge34" class="edge">
<title>Node26&#45;&gt;Node28</title>
<path fill="none" stroke="#191970" d="M575.358,-30.1766C592.7752,-26.1669 611.8269,-21.7808 627.7054,-18.1254"/>
<polygon fill="#191970" stroke="#191970" points="574.2881,-26.8313 565.3282,-32.4856 575.8586,-33.6528 574.2881,-26.8313"/>
</g>
<!-- Node27&#45;&gt;Node24 -->
<g id="edge33" class="edge">
<title>Node27&#45;&gt;Node24</title>
<path fill="none" stroke="#191970" d="M724.4566,-55.046C748.2822,-57.7776 774.3086,-60.7615 793.1724,-62.9242"/>
<polygon fill="#191970" stroke="#191970" points="724.7413,-51.5558 714.4077,-53.8939 723.9439,-58.5102 724.7413,-51.5558"/>
</g>
<!-- Node29 -->
<g id="node29" class="node">
<title>Node29</title>
<g id="a_node29"><a xlink:href="backend_8hpp_a8189df2ded0e8e6b64477a53f80d67e8.html#a8189df2ded0e8e6b64477a53f80d67e8" target="_top" xlink:title="Check if a an address is cached or node local. ">
<polygon fill="#ffffff" stroke="#000000" points="750,-.5 750,-19.5 890,-19.5 890,-.5 750,-.5"/>
<text text-anchor="middle" x="820" y="-7.5" font-family="Helvetica,sans-Serif" font-size="10.00" fill="#000000">argo::backend::is_cached</text>
</a>
</g>
</g>
<!-- Node28&#45;&gt;Node29 -->
<g id="edge35" class="edge">
<title>Node28&#45;&gt;Node29</title>
<path fill="none" stroke="#191970" d="M708.2917,-10C721.2742,-10 735.7424,-10 749.847,-10"/>
<polygon fill="#191970" stroke="#191970" points="708.2339,-6.5001 698.2339,-10 708.2338,-13.5001 708.2339,-6.5001"/>
</g>
<!-- Node29&#45;&gt;Node17 -->
<g id="edge37" class="edge">
<title>Node29&#45;&gt;Node17</title>
<path fill="none" stroke="#191970" d="M900.4651,-13.6764C946.4523,-17.655 1004.6194,-25.9081 1054,-43 1083.3788,-53.1687 1113.9232,-73.3412 1130.6411,-85.3528"/>
<polygon fill="#191970" stroke="#191970" points="900.5001,-10.1678 890.2491,-12.8451 899.9322,-17.1447 900.5001,-10.1678"/>
</g>
<!-- Node29&#45;&gt;Node29 -->
<g id="edge36" class="edge">
<title>Node29&#45;&gt;Node29</title>
<path fill="none" stroke="#191970" d="M790.8809,-28.6539C792.0981,-33.9368 801.8044,-38 820,-38 847.7266,-38 855.7413,-28.5653 844.0441,-19.7571"/>
<polygon fill="#191970" stroke="#191970" points="794.0412,-30.1775 795.9559,-19.7571 787.9609,-26.7091 794.0412,-30.1775"/>
</g>
</g>
</svg>
        <g id="navigator" transform="translate(0 0)" fill="#404254">
                <rect fill="#f2f5e9" fill-opacity="0.5" stroke="#606060" stroke-width=".5" x="0" y="0" width="60" height="60"/>
                <use id="zoomplus" xlink:href="#zoomPlus" x="17" y="9" onmousedown="handleZoom(evt,'in')"/>
                <use id="zoomminus" xlink:href="#zoomMin" x="42" y="9" onmousedown="handleZoom(evt,'out')"/>
                <use id="reset" xlink:href="#resetDef" x="30" y="36" onmousedown="handleReset()"/>
                <g id="arrowUp" xlink:href="#dirArrow" transform="translate(30 24)" onmousedown="handlePan(0,-1)">
                  <use xlink:href="#rim" fill="#404040">
                        <set attributeName="fill" to="#808080" begin="arrowUp.mouseover" end="arrowUp.mouseout"/>
                  </use>
                  <path fill="none" stroke="white" stroke-width="1.5" d="M0,-3.0v7 M-2.5,-0.5L0,-3.0L2.5,-0.5"/>
                </g>
                <g id="arrowRight" xlink:href="#dirArrow" transform="rotate(90) translate(36 -43)" onmousedown="handlePan(1,0)">
                  <use xlink:href="#rim" fill="#404040">
                        <set attributeName="fill" to="#808080" begin="arrowRight.mouseover" end="arrowRight.mouseout"/>
                  </use>
                  <path fill="none" stroke="white" stroke-width="1.5" d="M0,-3.0v7 M-2.5,-0.5L0,-3.0L2.5,-0.5"/>
                </g>
                <g id="arrowDown" xlink:href="#dirArrow" transform="rotate(180) translate(-30 -48)" onmousedown="handlePan(0,1)">
                  <use xlink:href="#rim" fill="#404040">
                        <set attributeName="fill" to="#808080" begin="arrowDown.mouseover" end="arrowDown.mouseout"/>
                  </use>
                  <path fill="none" stroke="white" stroke-width="1.5" d="M0,-3.0v7 M-2.5,-0.5L0,-3.0L2.5,-0.5"/>
                </g>
                <g id="arrowLeft" xlink:href="#dirArrow" transform="rotate(270) translate(-36 17)" onmousedown="handlePan(-1,0)">
                  <use xlink:href="#rim" fill="#404040">
                        <set attributeName="fill" to="#808080" begin="arrowLeft.mouseover" end="arrowLeft.mouseout"/>
                  </use>
                  <path fill="none" stroke="white" stroke-width="1.5" d="M0,-3.0v7 M-2.5,-0.5L0,-3.0L2.5,-0.5"/>
                </g>
        </g>
        <svg viewBox="0 0 15 15" width="100%" height="30px" preserveAspectRatio="xMaxYMin meet">
         <g id="arrow_out" transform="scale(0.3 0.3)">
          <a xlink:href="classargo_1_1data__distribution_1_1global__ptr_a3e2cdd4d323ef91174615e27ab94e342_a3e2cdd4d323ef91174615e27ab94e342_icgraph_org.svg" target="_base">
           <rect id="button" ry="5" rx="5" y="6" x="6" height="38" width="38"
                fill="#f2f5e9" fill-opacity="0.5" stroke="#606060" stroke-width="1.0"/>
           <path id="arrow"
             d="M 11.500037,31.436501 C 11.940474,20.09759 22.043105,11.32322 32.158766,21.979434 L 37.068811,17.246167 C 37.068811,17.246167 37.088388,32 37.088388,32 L 22.160133,31.978069 C 22.160133,31.978069 26.997745,27.140456 26.997745,27.140456 C 18.528582,18.264221 13.291696,25.230495 11.500037,31.436501 z"
             style="fill:#404040;"/>
          </a>
         </g>
        </svg>
</svg>
