<?xml version="1.0" encoding="UTF-8" standalone="no"?>
<!DOCTYPE svg PUBLIC "-//W3C//DTD SVG 1.1//EN"
 "http://www.w3.org/Graphics/SVG/1.1/DTD/svg11.dtd">
<!-- Generated by graphviz version 2.40.1 (20161225.0304)
 -->
<!-- Title: /home/atmerhannah/argodsm/src/backend/mpi/coherence.cpp Pages: 1 -->
<!--zoomable 453 -->
<svg id="main" version="1.1" xmlns="http://www.w3.org/2000/svg" xmlns:xlink="http://www.w3.org/1999/xlink" xml:space="preserve" onload="init(evt)">
<style type="text/css"><![CDATA[
.edge:hover path { stroke: red; }
.edge:hover polygon { stroke: red; fill: red; }
]]></style>
<script type="text/javascript"><![CDATA[
var edges = document.getElementsByTagName('g');
if (edges && edges.length) {
  for (var i=0;i<edges.length;i++) {
    if (edges[i].id.substr(0,4)=='edge') {
      edges[i].setAttribute('class','edge');
    }
  }
}
]]></script>
        <defs>
                <circle id="rim" cx="0" cy="0" r="7"/>
                <circle id="rim2" cx="0" cy="0" r="3.5"/>
                <g id="zoomPlus">
                        <use xlink:href="#rim" fill="#404040">
                                <set attributeName="fill" to="#808080" begin="zoomplus.mouseover" end="zoomplus.mouseout"/>
                        </use>
                        <path d="M-4,0h8M0,-4v8" fill="none" stroke="white" stroke-width="1.5" pointer-events="none"/>
                </g>
                <g id="zoomMin">
                        <use xlink:href="#rim" fill="#404040">
                                <set attributeName="fill" to="#808080" begin="zoomminus.mouseover" end="zoomminus.mouseout"/>
                        </use>
                        <path d="M-4,0h8" fill="none" stroke="white" stroke-width="1.5" pointer-events="none"/>
                </g>
                <g id="dirArrow">
                        <path fill="none" stroke="white" stroke-width="1.5" d="M0,-3.0v7 M-2.5,-0.5L0,-3.0L2.5,-0.5"/>
                </g>
               <g id="resetDef">
                       <use xlink:href="#rim2" fill="#404040">
                               <set attributeName="fill" to="#808080" begin="reset.mouseover" end="reset.mouseout"/>
                       </use>
               </g>
        </defs>

<script type="text/javascript">
var viewWidth = 2275;
var viewHeight = 453;
var sectionId = 'dynsection-0';
</script>
<script xlink:href="svgpan.js"/>
<svg id="graph" class="graph">
<g id="viewport">
<title>/home/atmerhannah/argodsm/src/backend/mpi/coherence.cpp</title>
<polygon fill="#ffffff" stroke="transparent" points="-4,4 -4,-449 2270.5,-449 2270.5,4 -4,4"/>
<!-- Node0 -->
<g id="node1" class="node">
<title>Node0</title>
<polygon fill="#bfbfbf" stroke="#000000" points="1583.5,-414.5 1583.5,-444.5 1756.5,-444.5 1756.5,-414.5 1583.5,-414.5"/>
<text text-anchor="start" x="1591.5" y="-432.5" font-family="Helvetica,sans-Serif" font-size="10.00" fill="#000000">/home/atmerhannah/argodsm</text>
<text text-anchor="middle" x="1670" y="-421.5" font-family="Helvetica,sans-Serif" font-size="10.00" fill="#000000">/src/backend/mpi/coherence.cpp</text>
</g>
<!-- Node1 -->
<g id="node2" class="node">
<title>Node1</title>
<g id="a_node2"><a xlink:href="backend_8hpp.html" target="_top" xlink:title="This file provides the backend interface. ">
<polygon fill="#ffffff" stroke="#000000" points="202,-297 202,-316 290,-316 290,-297 202,-297"/>
<text text-anchor="middle" x="246" y="-304" font-family="Helvetica,sans-Serif" font-size="10.00" fill="#000000">../backend.hpp</text>
</a>
</g>
</g>
<!-- Node0&#45;&gt;Node1 -->
<g id="edge1" class="edge">
<title>Node0&#45;&gt;Node1</title>
<path fill="none" stroke="#191970" d="M1583.3324,-422.014C1317.149,-399.022 516.4142,-329.8574 300.2692,-311.1876"/>
<polygon fill="#191970" stroke="#191970" points="300.3891,-307.685 290.125,-310.3114 299.7867,-314.659 300.3891,-307.685"/>
</g>
<!-- Node21 -->
<g id="node19" class="node">
<title>Node21</title>
<g id="a_node19"><a xlink:href="swdsm_8h.html" target="_top" xlink:title="this is a legacy file from the ArgoDSM prototype ">
<polygon fill="#ffffff" stroke="#000000" points="1133,-297 1133,-316 1193,-316 1193,-297 1133,-297"/>
<text text-anchor="middle" x="1163" y="-304" font-family="Helvetica,sans-Serif" font-size="10.00" fill="#000000">swdsm.h</text>
</a>
</g>
</g>
<!-- Node0&#45;&gt;Node21 -->
<g id="edge24" class="edge">
<title>Node0&#45;&gt;Node21</title>
<path fill="none" stroke="#191970" d="M1608.0855,-414.4793C1502.634,-388.8964 1291.0532,-337.5662 1202.9396,-316.1895"/>
<polygon fill="#191970" stroke="#191970" points="1203.6115,-312.751 1193.0682,-313.7947 1201.9611,-319.5537 1203.6115,-312.751"/>
</g>
<!-- Node47 -->
<g id="node45" class="node">
<title>Node47</title>
<g id="a_node45"><a xlink:href="write__buffer_8hpp.html" target="_top" xlink:title="This file provides an interface for the ArgoDSM write buffer. ">
<polygon fill="#ffffff" stroke="#000000" points="1823.5,-358.5 1823.5,-377.5 1918.5,-377.5 1918.5,-358.5 1823.5,-358.5"/>
<text text-anchor="middle" x="1871" y="-365.5" font-family="Helvetica,sans-Serif" font-size="10.00" fill="#000000">write_buffer.hpp</text>
</a>
</g>
</g>
<!-- Node0&#45;&gt;Node47 -->
<g id="edge52" class="edge">
<title>Node0&#45;&gt;Node47</title>
<path fill="none" stroke="#191970" d="M1719.1701,-414.4554C1753.1488,-404.059 1797.8281,-390.3884 1829.9086,-380.5727"/>
<polygon fill="#191970" stroke="#191970" points="1831.3138,-383.803 1839.8521,-377.5303 1829.2657,-377.1094 1831.3138,-383.803"/>
</g>
<!-- Node51 -->
<g id="node49" class="node">
<title>Node51</title>
<g id="a_node49"><a xlink:href="virtual__memory_8hpp.html" target="_top" xlink:title="This file provides facilities for handling virtual memory and virtual address space. ">
<polygon fill="#ffffff" stroke="#000000" points="2137.5,-291.5 2137.5,-321.5 2266.5,-321.5 2266.5,-291.5 2137.5,-291.5"/>
<text text-anchor="start" x="2145.5" y="-309.5" font-family="Helvetica,sans-Serif" font-size="10.00" fill="#000000">virtual_memory/virtual</text>
<text text-anchor="middle" x="2202" y="-298.5" font-family="Helvetica,sans-Serif" font-size="10.00" fill="#000000">_memory.hpp</text>
</a>
</g>
</g>
<!-- Node0&#45;&gt;Node51 -->
<g id="edge63" class="edge">
<title>Node0&#45;&gt;Node51</title>
<path fill="none" stroke="#191970" d="M1751.599,-414.4716C1802.4856,-404.7882 1869.2437,-391.5184 1928,-378 2000.5411,-361.3101 2083.1207,-339.3514 2138.4893,-324.1946"/>
<polygon fill="#191970" stroke="#191970" points="2139.443,-327.5623 2148.1602,-321.5406 2137.5904,-320.8119 2139.443,-327.5623"/>
</g>
<!-- Node2 -->
<g id="node3" class="node">
<title>Node2</title>
<polygon fill="#ffffff" stroke="#bfbfbf" points="0,-230 0,-249 52,-249 52,-230 0,-230"/>
<text text-anchor="middle" x="26" y="-237" font-family="Helvetica,sans-Serif" font-size="10.00" fill="#000000">cassert</text>
</g>
<!-- Node1&#45;&gt;Node2 -->
<g id="edge2" class="edge">
<title>Node1&#45;&gt;Node2</title>
<path fill="none" stroke="#191970" d="M208.8104,-296.9205C172.1991,-287.2416 114.8353,-271.4101 66,-255 63.7365,-254.2394 61.4125,-253.4262 59.0787,-252.5855"/>
<polygon fill="#191970" stroke="#191970" points="60.1521,-249.2504 49.5594,-249.0388 57.7082,-255.8099 60.1521,-249.2504"/>
</g>
<!-- Node3 -->
<g id="node4" class="node">
<title>Node3</title>
<polygon fill="#ffffff" stroke="#bfbfbf" points="318,-230 318,-249 368,-249 368,-230 318,-230"/>
<text text-anchor="middle" x="343" y="-237" font-family="Helvetica,sans-Serif" font-size="10.00" fill="#000000">cstdint</text>
</g>
<!-- Node1&#45;&gt;Node3 -->
<g id="edge3" class="edge">
<title>Node1&#45;&gt;Node3</title>
<path fill="none" stroke="#191970" d="M259.8977,-296.9005C275.8164,-285.9052 302.1121,-267.7422 320.8599,-254.7927"/>
<polygon fill="#191970" stroke="#191970" points="322.8892,-257.6448 329.128,-249.0817 318.9108,-251.8852 322.8892,-257.6448"/>
</g>
<!-- Node4 -->
<g id="node5" class="node">
<title>Node4</title>
<polygon fill="#ffffff" stroke="#bfbfbf" points="108.5,-230 108.5,-249 173.5,-249 173.5,-230 108.5,-230"/>
<text text-anchor="middle" x="141" y="-237" font-family="Helvetica,sans-Serif" font-size="10.00" fill="#000000">stdexcept</text>
</g>
<!-- Node1&#45;&gt;Node4 -->
<g id="edge4" class="edge">
<title>Node1&#45;&gt;Node4</title>
<path fill="none" stroke="#191970" d="M230.9561,-296.9005C213.6466,-285.8554 185.0023,-267.5776 164.6911,-254.6172"/>
<polygon fill="#191970" stroke="#191970" points="166.3288,-251.5103 156.016,-249.0817 162.5633,-257.4113 166.3288,-251.5103"/>
</g>
<!-- Node5 -->
<g id="node6" class="node">
<title>Node5</title>
<g id="a_node6"><a xlink:href="global__ptr_8hpp.html" target="_top" xlink:title="This file provides the global pointer for ArgoDSM. ">
<polygon fill="#ffffff" stroke="#000000" points="192,-224.5 192,-254.5 300,-254.5 300,-224.5 192,-224.5"/>
<text text-anchor="start" x="200" y="-242.5" font-family="Helvetica,sans-Serif" font-size="10.00" fill="#000000">../data_distribution</text>
<text text-anchor="middle" x="246" y="-231.5" font-family="Helvetica,sans-Serif" font-size="10.00" fill="#000000">/global_ptr.hpp</text>
</a>
</g>
</g>
<!-- Node1&#45;&gt;Node5 -->
<g id="edge5" class="edge">
<title>Node1&#45;&gt;Node5</title>
<path fill="none" stroke="#191970" d="M246,-296.9005C246,-288.5099 246,-275.9451 246,-264.7085"/>
<polygon fill="#191970" stroke="#191970" points="249.5001,-264.5217 246,-254.5218 242.5001,-264.5218 249.5001,-264.5217"/>
</g>
<!-- Node14 -->
<g id="node12" class="node">
<title>Node14</title>
<g id="a_node12"><a xlink:href="types_8hpp.html" target="_top" xlink:title="This file defines common types used in ArgoDSM. ">
<polygon fill="#ffffff" stroke="#000000" points="181,-.5 181,-19.5 285,-19.5 285,-.5 181,-.5"/>
<text text-anchor="middle" x="233" y="-7.5" font-family="Helvetica,sans-Serif" font-size="10.00" fill="#000000">../types/types.hpp</text>
</a>
</g>
</g>
<!-- Node1&#45;&gt;Node14 -->
<g id="edge23" class="edge">
<title>Node1&#45;&gt;Node14</title>
<path fill="none" stroke="#191970" d="M201.9336,-302.2128C169.0341,-296.6808 125.3774,-284.012 99,-255 75.2878,-228.9194 80,-213.2487 80,-178 80,-178 80,-178 80,-122 80,-68.79 140.9968,-38.1229 185.9631,-22.7445"/>
<polygon fill="#191970" stroke="#191970" points="187.1545,-26.0374 195.572,-19.6035 184.9794,-19.3839 187.1545,-26.0374"/>
</g>
<!-- Node6 -->
<g id="node7" class="node">
<title>Node6</title>
<polygon fill="#ffffff" stroke="#bfbfbf" points="419,-168.5 419,-187.5 463,-187.5 463,-168.5 419,-168.5"/>
<text text-anchor="middle" x="441" y="-175.5" font-family="Helvetica,sans-Serif" font-size="10.00" fill="#000000">string</text>
</g>
<!-- Node5&#45;&gt;Node6 -->
<g id="edge6" class="edge">
<title>Node5&#45;&gt;Node6</title>
<path fill="none" stroke="#191970" d="M294.111,-224.4999C324.5765,-214.9766 365.0479,-202.2808 409.2124,-188.2356"/>
<polygon fill="#191970" stroke="#191970" points="410.5241,-191.4912 418.9913,-185.1229 408.4008,-184.821 410.5241,-191.4912"/>
</g>
<!-- Node7 -->
<g id="node8" class="node">
<title>Node7</title>
<g id="a_node8"><a xlink:href="env_8hpp.html" target="_top" xlink:title="This file provides facilities for handling environment variables. ">
<polygon fill="#ffffff" stroke="#000000" points="1106.5,-168.5 1106.5,-187.5 1191.5,-187.5 1191.5,-168.5 1106.5,-168.5"/>
<text text-anchor="middle" x="1149" y="-175.5" font-family="Helvetica,sans-Serif" font-size="10.00" fill="#000000">../env/env.hpp</text>
</a>
</g>
</g>
<!-- Node5&#45;&gt;Node7 -->
<g id="edge7" class="edge">
<title>Node5&#45;&gt;Node7</title>
<path fill="none" stroke="#191970" d="M300.1683,-225.4927C303.1454,-224.9357 306.1034,-224.4318 309,-224 462.0138,-201.1912 937.0216,-184.6312 1096.3159,-179.5975"/>
<polygon fill="#191970" stroke="#191970" points="1096.4598,-183.0948 1106.345,-179.2827 1096.2401,-176.0982 1096.4598,-183.0948"/>
</g>
<!-- Node9 -->
<g id="node10" class="node">
<title>Node9</title>
<g id="a_node10"><a xlink:href="data__distribution_8hpp.html" target="_top" xlink:title="This file provides an abstraction layer for distributing the shared memory space. ...">
<polygon fill="#ffffff" stroke="#000000" points="281,-168.5 281,-187.5 401,-187.5 401,-168.5 281,-168.5"/>
<text text-anchor="middle" x="341" y="-175.5" font-family="Helvetica,sans-Serif" font-size="10.00" fill="#000000">data_distribution.hpp</text>
</a>
</g>
</g>
<!-- Node5&#45;&gt;Node9 -->
<g id="edge9" class="edge">
<title>Node5&#45;&gt;Node9</title>
<path fill="none" stroke="#191970" d="M269.4832,-224.2977C284.1348,-214.8127 302.9236,-202.6495 317.5659,-193.1705"/>
<polygon fill="#191970" stroke="#191970" points="319.5805,-196.0357 326.073,-187.6633 315.7764,-190.1596 319.5805,-196.0357"/>
</g>
<!-- Node8 -->
<g id="node9" class="node">
<title>Node8</title>
<polygon fill="#ffffff" stroke="#bfbfbf" points="1122.5,-112.5 1122.5,-131.5 1175.5,-131.5 1175.5,-112.5 1122.5,-112.5"/>
<text text-anchor="middle" x="1149" y="-119.5" font-family="Helvetica,sans-Serif" font-size="10.00" fill="#000000">cstddef</text>
</g>
<!-- Node7&#45;&gt;Node8 -->
<g id="edge8" class="edge">
<title>Node7&#45;&gt;Node8</title>
<path fill="none" stroke="#191970" d="M1149,-168.2455C1149,-160.9382 1149,-150.6944 1149,-141.7046"/>
<polygon fill="#191970" stroke="#191970" points="1152.5001,-141.6426 1149,-131.6427 1145.5001,-141.6427 1152.5001,-141.6426"/>
</g>
<!-- Node10 -->
<g id="node11" class="node">
<title>Node10</title>
<g id="a_node11"><a xlink:href="base__distribution_8hpp.html" target="_top" xlink:title="This file implements the base distribution class for all the policies to derive from. ">
<polygon fill="#ffffff" stroke="#ff0000" points="326,-56.5 326,-75.5 448,-75.5 448,-56.5 326,-56.5"/>
<text text-anchor="middle" x="387" y="-63.5" font-family="Helvetica,sans-Serif" font-size="10.00" fill="#000000">base_distribution.hpp</text>
</a>
</g>
</g>
<!-- Node9&#45;&gt;Node10 -->
<g id="edge10" class="edge">
<title>Node9&#45;&gt;Node10</title>
<path fill="none" stroke="#191970" d="M331.919,-168.2617C320.7808,-155.0765 304.5868,-131.0098 315,-112 322.7587,-97.836 336.9409,-87.3995 350.6795,-80.0818"/>
<polygon fill="#191970" stroke="#191970" points="352.5898,-83.0438 360.0356,-75.5066 349.5146,-76.7555 352.5898,-83.0438"/>
</g>
<!-- Node15 -->
<g id="node13" class="node">
<title>Node15</title>
<g id="a_node13"><a xlink:href="naive__distribution_8hpp.html" target="_top" xlink:title="This file implements the naive data distribution. ">
<polygon fill="#ffffff" stroke="#000000" points="324.5,-112.5 324.5,-131.5 449.5,-131.5 449.5,-112.5 324.5,-112.5"/>
<text text-anchor="middle" x="387" y="-119.5" font-family="Helvetica,sans-Serif" font-size="10.00" fill="#000000">naive_distribution.hpp</text>
</a>
</g>
</g>
<!-- Node9&#45;&gt;Node15 -->
<g id="edge12" class="edge">
<title>Node9&#45;&gt;Node15</title>
<path fill="none" stroke="#191970" d="M349.0126,-168.2455C355.4768,-160.3761 364.7385,-149.101 372.4983,-139.6542"/>
<polygon fill="#191970" stroke="#191970" points="375.4364,-141.5916 379.0792,-131.6427 370.0273,-137.1484 375.4364,-141.5916"/>
</g>
<!-- Node16 -->
<g id="node14" class="node">
<title>Node16</title>
<g id="a_node14"><a xlink:href="cyclic__distribution_8hpp.html" target="_top" xlink:title="This file implements the cyclic data distribution. ">
<polygon fill="#ffffff" stroke="#000000" points="468,-112.5 468,-131.5 594,-131.5 594,-112.5 468,-112.5"/>
<text text-anchor="middle" x="531" y="-119.5" font-family="Helvetica,sans-Serif" font-size="10.00" fill="#000000">cyclic_distribution.hpp</text>
</a>
</g>
</g>
<!-- Node9&#45;&gt;Node16 -->
<g id="edge14" class="edge">
<title>Node9&#45;&gt;Node16</title>
<path fill="none" stroke="#191970" d="M373.6622,-168.3733C405.5298,-158.9807 454.1531,-144.6496 488.907,-134.4064"/>
<polygon fill="#191970" stroke="#191970" points="490.1615,-137.6855 498.764,-131.5011 488.1825,-130.9711 490.1615,-137.6855"/>
</g>
<!-- Node17 -->
<g id="node15" class="node">
<title>Node17</title>
<g id="a_node15"><a xlink:href="skew__mapp__distribution_8hpp.html" target="_top" xlink:title="This file implements the skew&#45;mapp data distribution. ">
<polygon fill="#ffffff" stroke="#000000" points="612.5,-112.5 612.5,-131.5 769.5,-131.5 769.5,-112.5 612.5,-112.5"/>
<text text-anchor="middle" x="691" y="-119.5" font-family="Helvetica,sans-Serif" font-size="10.00" fill="#000000">skew_mapp_distribution.hpp</text>
</a>
</g>
</g>
<!-- Node9&#45;&gt;Node17 -->
<g id="edge16" class="edge">
<title>Node9&#45;&gt;Node17</title>
<path fill="none" stroke="#191970" d="M400.7695,-168.4369C461.9277,-158.6516 556.886,-143.4582 621.395,-133.1368"/>
<polygon fill="#191970" stroke="#191970" points="622.1556,-136.5597 631.4771,-131.5237 621.0497,-129.6476 622.1556,-136.5597"/>
</g>
<!-- Node18 -->
<g id="node16" class="node">
<title>Node18</title>
<g id="a_node16"><a xlink:href="prime__mapp__distribution_8hpp.html" target="_top" xlink:title="This file implements the prime&#45;mapp data distribution. ">
<polygon fill="#ffffff" stroke="#000000" points="108,-112.5 108,-131.5 268,-131.5 268,-112.5 108,-112.5"/>
<text text-anchor="middle" x="188" y="-119.5" font-family="Helvetica,sans-Serif" font-size="10.00" fill="#000000">prime_mapp_distribution.hpp</text>
</a>
</g>
</g>
<!-- Node9&#45;&gt;Node18 -->
<g id="edge18" class="edge">
<title>Node9&#45;&gt;Node18</title>
<path fill="none" stroke="#191970" d="M314.6984,-168.3733C289.5872,-159.1822 251.5562,-145.2624 223.7128,-135.0713"/>
<polygon fill="#191970" stroke="#191970" points="224.5522,-131.6516 213.9584,-131.5011 222.1462,-138.2251 224.5522,-131.6516"/>
</g>
<!-- Node19 -->
<g id="node17" class="node">
<title>Node19</title>
<g id="a_node17"><a xlink:href="first__touch__distribution_8hpp.html" target="_top" xlink:title="This file implements the first&#45;touch data distribution. ">
<polygon fill="#ffffff" stroke="#000000" points="787.5,-112.5 787.5,-131.5 936.5,-131.5 936.5,-112.5 787.5,-112.5"/>
<text text-anchor="middle" x="862" y="-119.5" font-family="Helvetica,sans-Serif" font-size="10.00" fill="#000000">first_touch_distribution.hpp</text>
</a>
</g>
</g>
<!-- Node9&#45;&gt;Node19 -->
<g id="edge20" class="edge">
<title>Node9&#45;&gt;Node19</title>
<path fill="none" stroke="#191970" d="M401.1888,-169.1092C404.1665,-168.722 407.1161,-168.3498 410,-168 569.9539,-148.5959 612.9545,-149.6636 777.3815,-132.0442"/>
<polygon fill="#191970" stroke="#191970" points="777.7872,-135.5209 787.3542,-130.9687 777.0366,-128.5612 777.7872,-135.5209"/>
</g>
<!-- Node10&#45;&gt;Node14 -->
<g id="edge11" class="edge">
<title>Node10&#45;&gt;Node14</title>
<path fill="none" stroke="#191970" d="M360.5265,-56.3733C335.1403,-47.1419 296.6355,-33.1402 268.578,-22.9375"/>
<polygon fill="#191970" stroke="#191970" points="269.7222,-19.6293 259.1281,-19.5011 267.3299,-26.2079 269.7222,-19.6293"/>
</g>
<!-- Node15&#45;&gt;Node10 -->
<g id="edge13" class="edge">
<title>Node15&#45;&gt;Node10</title>
<path fill="none" stroke="#191970" d="M387,-112.2455C387,-104.9382 387,-94.6944 387,-85.7046"/>
<polygon fill="#191970" stroke="#191970" points="390.5001,-85.6426 387,-75.6427 383.5001,-85.6427 390.5001,-85.6426"/>
</g>
<!-- Node16&#45;&gt;Node10 -->
<g id="edge15" class="edge">
<title>Node16&#45;&gt;Node10</title>
<path fill="none" stroke="#191970" d="M506.2455,-112.3733C482.7151,-103.2226 447.1313,-89.3844 420.9574,-79.2057"/>
<polygon fill="#191970" stroke="#191970" points="422.0201,-75.8636 411.4315,-75.5011 419.4829,-82.3877 422.0201,-75.8636"/>
</g>
<!-- Node17&#45;&gt;Node10 -->
<g id="edge17" class="edge">
<title>Node17&#45;&gt;Node10</title>
<path fill="none" stroke="#191970" d="M639.086,-112.4369C586.4029,-102.7321 504.8432,-87.708 448.8457,-77.3926"/>
<polygon fill="#191970" stroke="#191970" points="449.1686,-73.8933 438.6999,-75.5237 447.9004,-80.7775 449.1686,-73.8933"/>
</g>
<!-- Node18&#45;&gt;Node10 -->
<g id="edge19" class="edge">
<title>Node18&#45;&gt;Node10</title>
<path fill="none" stroke="#191970" d="M222.2093,-112.3733C255.7297,-102.9404 306.9505,-88.5265 343.381,-78.2747"/>
<polygon fill="#191970" stroke="#191970" points="344.5591,-81.5792 353.2371,-75.5011 342.6628,-74.8409 344.5591,-81.5792"/>
</g>
<!-- Node19&#45;&gt;Node10 -->
<g id="edge22" class="edge">
<title>Node19&#45;&gt;Node10</title>
<path fill="none" stroke="#191970" d="M787.3456,-113.1072C784.1883,-112.7328 781.0628,-112.3625 778,-112 666.4315,-98.7962 536.9411,-83.5842 458.5377,-74.3862"/>
<polygon fill="#191970" stroke="#191970" points="458.6321,-70.8733 448.2924,-73.1843 457.8165,-77.8257 458.6321,-70.8733"/>
</g>
<!-- Node20 -->
<g id="node18" class="node">
<title>Node20</title>
<polygon fill="#ffffff" stroke="#bfbfbf" points="1377,-56.5 1377,-75.5 1425,-75.5 1425,-56.5 1377,-56.5"/>
<text text-anchor="middle" x="1401" y="-63.5" font-family="Helvetica,sans-Serif" font-size="10.00" fill="#000000">mutex</text>
</g>
<!-- Node19&#45;&gt;Node20 -->
<g id="edge21" class="edge">
<title>Node19&#45;&gt;Node20</title>
<path fill="none" stroke="#191970" d="M936.6625,-114.2429C1054.9974,-101.9483 1280.9978,-78.4678 1366.8042,-69.5528"/>
<polygon fill="#191970" stroke="#191970" points="1367.2065,-73.0299 1376.7913,-68.5152 1366.4831,-66.0674 1367.2065,-73.0299"/>
</g>
<!-- Node21&#45;&gt;Node3 -->
<g id="edge25" class="edge">
<title>Node21&#45;&gt;Node3</title>
<path fill="none" stroke="#191970" d="M1132.8792,-305.9767C1007.1837,-303.5705 524.2022,-292.0513 377,-255 374.8021,-254.4468 372.5708,-253.7559 370.3563,-252.9751"/>
<polygon fill="#191970" stroke="#191970" points="371.4909,-249.6581 360.9095,-249.126 368.8495,-256.1407 371.4909,-249.6581"/>
</g>
<!-- Node22 -->
<g id="node20" class="node">
<title>Node22</title>
<polygon fill="#ffffff" stroke="#bfbfbf" points="616.5,-230 616.5,-249 685.5,-249 685.5,-230 616.5,-230"/>
<text text-anchor="middle" x="651" y="-237" font-family="Helvetica,sans-Serif" font-size="10.00" fill="#000000">type_traits</text>
</g>
<!-- Node21&#45;&gt;Node22 -->
<g id="edge26" class="edge">
<title>Node21&#45;&gt;Node22</title>
<path fill="none" stroke="#191970" d="M1132.7641,-305.5661C1057.7406,-302.7344 857.3798,-292.0195 695,-255 691.5799,-254.2203 688.0575,-253.2607 684.5655,-252.2045"/>
<polygon fill="#191970" stroke="#191970" points="685.507,-248.8299 674.9142,-249.0408 683.3265,-255.4816 685.507,-248.8299"/>
</g>
<!-- Node23 -->
<g id="node21" class="node">
<title>Node23</title>
<polygon fill="#ffffff" stroke="#bfbfbf" points="704,-230 704,-249 760,-249 760,-230 704,-230"/>
<text text-anchor="middle" x="732" y="-237" font-family="Helvetica,sans-Serif" font-size="10.00" fill="#000000">assert.h</text>
</g>
<!-- Node21&#45;&gt;Node23 -->
<g id="edge27" class="edge">
<title>Node21&#45;&gt;Node23</title>
<path fill="none" stroke="#191970" d="M1132.813,-305.2923C1066.1045,-302.0328 901.5468,-290.7349 769,-255 766.5288,-254.3338 764.0046,-253.5394 761.4935,-252.6674"/>
<polygon fill="#191970" stroke="#191970" points="762.6039,-249.3446 752.0139,-249.0264 760.0941,-255.8792 762.6039,-249.3446"/>
</g>
<!-- Node24 -->
<g id="node22" class="node">
<title>Node24</title>
<polygon fill="#ffffff" stroke="#bfbfbf" points="778.5,-230 778.5,-249 829.5,-249 829.5,-230 778.5,-230"/>
<text text-anchor="middle" x="804" y="-237" font-family="Helvetica,sans-Serif" font-size="10.00" fill="#000000">errno.h</text>
</g>
<!-- Node21&#45;&gt;Node24 -->
<g id="edge28" class="edge">
<title>Node21&#45;&gt;Node24</title>
<path fill="none" stroke="#191970" d="M1132.821,-304.4534C1074.6845,-299.9161 943.575,-286.7862 838,-255 836.0899,-254.4249 834.1481,-253.7643 832.2098,-253.0471"/>
<polygon fill="#191970" stroke="#191970" points="833.2889,-249.706 822.7101,-249.1224 830.616,-256.1757 833.2889,-249.706"/>
</g>
<!-- Node25 -->
<g id="node23" class="node">
<title>Node25</title>
<polygon fill="#ffffff" stroke="#bfbfbf" points="847.5,-230 847.5,-249 894.5,-249 894.5,-230 847.5,-230"/>
<text text-anchor="middle" x="871" y="-237" font-family="Helvetica,sans-Serif" font-size="10.00" fill="#000000">fcntl.h</text>
</g>
<!-- Node21&#45;&gt;Node25 -->
<g id="edge29" class="edge">
<title>Node21&#45;&gt;Node25</title>
<path fill="none" stroke="#191970" d="M1132.7225,-303.0543C1083.554,-296.897 983.7188,-282.046 903,-255 901.3501,-254.4472 899.6757,-253.8282 898.002,-253.1643"/>
<polygon fill="#191970" stroke="#191970" points="899.1639,-249.8516 888.6018,-249.0191 896.3395,-256.2565 899.1639,-249.8516"/>
</g>
<!-- Node26 -->
<g id="node24" class="node">
<title>Node26</title>
<polygon fill="#ffffff" stroke="#bfbfbf" points="912.5,-230 912.5,-249 971.5,-249 971.5,-230 912.5,-230"/>
<text text-anchor="middle" x="942" y="-237" font-family="Helvetica,sans-Serif" font-size="10.00" fill="#000000">malloc.h</text>
</g>
<!-- Node21&#45;&gt;Node26 -->
<g id="edge30" class="edge">
<title>Node21&#45;&gt;Node26</title>
<path fill="none" stroke="#191970" d="M1132.8851,-299.1391C1096.353,-289.955 1033.0662,-273.2245 980,-255 978.0795,-254.3404 976.1156,-253.6356 974.1419,-252.9038"/>
<polygon fill="#191970" stroke="#191970" points="974.9344,-249.4572 964.3454,-249.1042 972.4031,-255.9835 974.9344,-249.4572"/>
</g>
<!-- Node27 -->
<g id="node25" class="node">
<title>Node27</title>
<polygon fill="#ffffff" stroke="#bfbfbf" points="989.5,-230 989.5,-249 1040.5,-249 1040.5,-230 989.5,-230"/>
<text text-anchor="middle" x="1015" y="-237" font-family="Helvetica,sans-Serif" font-size="10.00" fill="#000000">math.h</text>
</g>
<!-- Node21&#45;&gt;Node27 -->
<g id="edge31" class="edge">
<title>Node21&#45;&gt;Node27</title>
<path fill="none" stroke="#191970" d="M1141.5589,-296.8402C1118.6379,-286.5075 1081.2354,-269.629 1049,-255 1047.8038,-254.4571 1046.584,-253.9031 1045.352,-253.3432"/>
<polygon fill="#191970" stroke="#191970" points="1046.4042,-249.9767 1035.8527,-249.02 1043.5046,-256.3479 1046.4042,-249.9767"/>
</g>
<!-- Node28 -->
<g id="node26" class="node">
<title>Node28</title>
<polygon fill="#ffffff" stroke="#bfbfbf" points="1869,-230 1869,-249 1913,-249 1913,-230 1869,-230"/>
<text text-anchor="middle" x="1891" y="-237" font-family="Helvetica,sans-Serif" font-size="10.00" fill="#000000">mpi.h</text>
</g>
<!-- Node21&#45;&gt;Node28 -->
<g id="edge32" class="edge">
<title>Node21&#45;&gt;Node28</title>
<path fill="none" stroke="#191970" d="M1193.237,-305.8236C1310.0155,-302.9712 1731.4651,-290.3934 1860,-255 1861.715,-254.5278 1863.4473,-253.9579 1865.17,-253.3192"/>
<polygon fill="#191970" stroke="#191970" points="1866.9991,-256.3385 1874.7452,-249.1101 1864.1821,-249.9303 1866.9991,-256.3385"/>
</g>
<!-- Node29 -->
<g id="node27" class="node">
<title>Node29</title>
<polygon fill="#ffffff" stroke="#bfbfbf" points="1058.5,-230 1058.5,-249 1121.5,-249 1121.5,-230 1058.5,-230"/>
<text text-anchor="middle" x="1090" y="-237" font-family="Helvetica,sans-Serif" font-size="10.00" fill="#000000">pthread.h</text>
</g>
<!-- Node21&#45;&gt;Node29 -->
<g id="edge33" class="edge">
<title>Node21&#45;&gt;Node29</title>
<path fill="none" stroke="#191970" d="M1152.5409,-296.9005C1140.9403,-286.2535 1122.0171,-268.8856 1108.0195,-256.0385"/>
<polygon fill="#191970" stroke="#191970" points="1110.1737,-253.2649 1100.4397,-249.0817 1105.4404,-258.4221 1110.1737,-253.2649"/>
</g>
<!-- Node30 -->
<g id="node28" class="node">
<title>Node30</title>
<polygon fill="#ffffff" stroke="#bfbfbf" points="1139.5,-230 1139.5,-249 1186.5,-249 1186.5,-230 1139.5,-230"/>
<text text-anchor="middle" x="1163" y="-237" font-family="Helvetica,sans-Serif" font-size="10.00" fill="#000000">omp.h</text>
</g>
<!-- Node21&#45;&gt;Node30 -->
<g id="edge34" class="edge">
<title>Node21&#45;&gt;Node30</title>
<path fill="none" stroke="#191970" d="M1163,-296.9005C1163,-287.149 1163,-271.7597 1163,-259.3695"/>
<polygon fill="#191970" stroke="#191970" points="1166.5001,-259.0816 1163,-249.0817 1159.5001,-259.0817 1166.5001,-259.0816"/>
</g>
<!-- Node31 -->
<g id="node29" class="node">
<title>Node31</title>
<polygon fill="#ffffff" stroke="#bfbfbf" points="1205,-230 1205,-249 1285,-249 1285,-230 1205,-230"/>
<text text-anchor="middle" x="1245" y="-237" font-family="Helvetica,sans-Serif" font-size="10.00" fill="#000000">semaphore.h</text>
</g>
<!-- Node21&#45;&gt;Node31 -->
<g id="edge35" class="edge">
<title>Node21&#45;&gt;Node31</title>
<path fill="none" stroke="#191970" d="M1174.7486,-296.9005C1187.9011,-286.1539 1209.4336,-268.5603 1225.1983,-255.6794"/>
<polygon fill="#191970" stroke="#191970" points="1227.7439,-258.1193 1233.2732,-249.0817 1223.3148,-252.6986 1227.7439,-258.1193"/>
</g>
<!-- Node32 -->
<g id="node30" class="node">
<title>Node32</title>
<polygon fill="#ffffff" stroke="#bfbfbf" points="1303.5,-230 1303.5,-249 1358.5,-249 1358.5,-230 1303.5,-230"/>
<text text-anchor="middle" x="1331" y="-237" font-family="Helvetica,sans-Serif" font-size="10.00" fill="#000000">signal.h</text>
</g>
<!-- Node21&#45;&gt;Node32 -->
<g id="edge36" class="edge">
<title>Node21&#45;&gt;Node32</title>
<path fill="none" stroke="#191970" d="M1187.6919,-296.9805C1214.0755,-286.7649 1257.0924,-269.9832 1294,-255 1295.5971,-254.3516 1297.2313,-253.6837 1298.8803,-253.0062"/>
<polygon fill="#191970" stroke="#191970" points="1300.4364,-256.15 1308.3346,-249.0882 1297.7565,-249.6833 1300.4364,-256.15"/>
</g>
<!-- Node33 -->
<g id="node31" class="node">
<title>Node33</title>
<polygon fill="#ffffff" stroke="#bfbfbf" points="1377,-230 1377,-249 1427,-249 1427,-230 1377,-230"/>
<text text-anchor="middle" x="1402" y="-237" font-family="Helvetica,sans-Serif" font-size="10.00" fill="#000000">stdio.h</text>
</g>
<!-- Node21&#45;&gt;Node33 -->
<g id="edge37" class="edge">
<title>Node21&#45;&gt;Node33</title>
<path fill="none" stroke="#191970" d="M1193.1954,-300.5544C1233.4292,-292.2541 1306.5689,-275.8404 1367,-255 1368.8376,-254.3663 1370.7122,-253.675 1372.5914,-252.9476"/>
<polygon fill="#191970" stroke="#191970" points="1373.9712,-256.1646 1381.875,-249.109 1371.2964,-249.6958 1373.9712,-256.1646"/>
</g>
<!-- Node34 -->
<g id="node32" class="node">
<title>Node34</title>
<polygon fill="#ffffff" stroke="#bfbfbf" points="1445.5,-230 1445.5,-249 1498.5,-249 1498.5,-230 1445.5,-230"/>
<text text-anchor="middle" x="1472" y="-237" font-family="Helvetica,sans-Serif" font-size="10.00" fill="#000000">stdlib.h</text>
</g>
<!-- Node21&#45;&gt;Node34 -->
<g id="edge38" class="edge">
<title>Node21&#45;&gt;Node34</title>
<path fill="none" stroke="#191970" d="M1193.0078,-303.0363C1243.8332,-296.6856 1349.7424,-281.3531 1436,-255 1438.115,-254.3538 1440.2732,-253.6219 1442.4296,-252.8364"/>
<polygon fill="#191970" stroke="#191970" points="1443.725,-256.088 1451.7318,-249.1496 1441.1458,-249.5804 1443.725,-256.088"/>
</g>
<!-- Node35 -->
<g id="node33" class="node">
<title>Node35</title>
<polygon fill="#ffffff" stroke="#bfbfbf" points="1516.5,-230 1516.5,-249 1569.5,-249 1569.5,-230 1516.5,-230"/>
<text text-anchor="middle" x="1543" y="-237" font-family="Helvetica,sans-Serif" font-size="10.00" fill="#000000">string.h</text>
</g>
<!-- Node21&#45;&gt;Node35 -->
<g id="edge39" class="edge">
<title>Node21&#45;&gt;Node35</title>
<path fill="none" stroke="#191970" d="M1193.4633,-304.5842C1254.1553,-300.1927 1394.0419,-287.1866 1507,-255 1509.18,-254.3788 1511.4023,-253.6568 1513.6189,-252.8708"/>
<polygon fill="#191970" stroke="#191970" points="1515.1222,-256.0407 1523.1518,-249.1287 1512.5644,-249.5248 1515.1222,-256.0407"/>
</g>
<!-- Node36 -->
<g id="node34" class="node">
<title>Node36</title>
<polygon fill="#ffffff" stroke="#bfbfbf" points="1587.5,-230 1587.5,-249 1664.5,-249 1664.5,-230 1587.5,-230"/>
<text text-anchor="middle" x="1626" y="-237" font-family="Helvetica,sans-Serif" font-size="10.00" fill="#000000">sys/mman.h</text>
</g>
<!-- Node21&#45;&gt;Node36 -->
<g id="edge40" class="edge">
<title>Node21&#45;&gt;Node36</title>
<path fill="none" stroke="#191970" d="M1193.0189,-304.7251C1261.8123,-300.2353 1435.8768,-286.4691 1578,-255 1581.8809,-254.1407 1585.8946,-253.0988 1589.8719,-251.9661"/>
<polygon fill="#191970" stroke="#191970" points="1591.0361,-255.2705 1599.5876,-249.0158 1589.0021,-248.5725 1591.0361,-255.2705"/>
</g>
<!-- Node37 -->
<g id="node35" class="node">
<title>Node37</title>
<polygon fill="#ffffff" stroke="#bfbfbf" points="1683,-230 1683,-249 1747,-249 1747,-230 1683,-230"/>
<text text-anchor="middle" x="1715" y="-237" font-family="Helvetica,sans-Serif" font-size="10.00" fill="#000000">sys/stat.h</text>
</g>
<!-- Node21&#45;&gt;Node37 -->
<g id="edge41" class="edge">
<title>Node21&#45;&gt;Node37</title>
<path fill="none" stroke="#191970" d="M1193.2481,-304.4917C1288.5066,-298.0039 1581.4522,-276.7615 1674,-255 1677.014,-254.2913 1680.1056,-253.4163 1683.1741,-252.4459"/>
<polygon fill="#191970" stroke="#191970" points="1684.4776,-255.6982 1692.7728,-249.1072 1682.178,-249.0867 1684.4776,-255.6982"/>
</g>
<!-- Node38 -->
<g id="node36" class="node">
<title>Node38</title>
<polygon fill="#ffffff" stroke="#bfbfbf" points="386,-230 386,-249 458,-249 458,-230 386,-230"/>
<text text-anchor="middle" x="422" y="-237" font-family="Helvetica,sans-Serif" font-size="10.00" fill="#000000">sys/types.h</text>
</g>
<!-- Node21&#45;&gt;Node38 -->
<g id="edge42" class="edge">
<title>Node21&#45;&gt;Node38</title>
<path fill="none" stroke="#191970" d="M1132.9297,-305.3074C1016.776,-300.541 597.4006,-281.8123 467,-255 463.3022,-254.2397 459.491,-253.2571 455.7247,-252.1557"/>
<polygon fill="#191970" stroke="#191970" points="456.5594,-248.7481 445.9684,-249.0342 454.4262,-255.4151 456.5594,-248.7481"/>
</g>
<!-- Node39 -->
<g id="node37" class="node">
<title>Node39</title>
<polygon fill="#ffffff" stroke="#bfbfbf" points="476,-230 476,-249 524,-249 524,-230 476,-230"/>
<text text-anchor="middle" x="500" y="-237" font-family="Helvetica,sans-Serif" font-size="10.00" fill="#000000">time.h</text>
</g>
<!-- Node21&#45;&gt;Node39 -->
<g id="edge43" class="edge">
<title>Node21&#45;&gt;Node39</title>
<path fill="none" stroke="#191970" d="M1132.7418,-305.4542C1023.3034,-301.4505 648.4531,-285.7549 533,-255 531.0275,-254.4745 529.0282,-253.8355 527.0403,-253.1198"/>
<polygon fill="#191970" stroke="#191970" points="527.9469,-249.7052 517.3709,-249.0739 525.2448,-256.1627 527.9469,-249.7052"/>
</g>
<!-- Node40 -->
<g id="node38" class="node">
<title>Node40</title>
<polygon fill="#ffffff" stroke="#bfbfbf" points="542,-230 542,-249 598,-249 598,-230 542,-230"/>
<text text-anchor="middle" x="570" y="-237" font-family="Helvetica,sans-Serif" font-size="10.00" fill="#000000">unistd.h</text>
</g>
<!-- Node21&#45;&gt;Node40 -->
<g id="edge44" class="edge">
<title>Node21&#45;&gt;Node40</title>
<path fill="none" stroke="#191970" d="M1132.9158,-304.9208C1032.3074,-299.451 708.2288,-280.2595 607,-255 604.3668,-254.3429 601.6779,-253.5267 599.0112,-252.6151"/>
<polygon fill="#191970" stroke="#191970" points="600.1812,-249.3153 589.5907,-249.0092 597.6787,-255.8528 600.1812,-249.3153"/>
</g>
<!-- Node41 -->
<g id="node39" class="node">
<title>Node41</title>
<g id="a_node39"><a xlink:href="argo_8h.html" target="_top" xlink:title="This file provides the full C interface to ArgoDSM. ">
<polygon fill="#ffffff" stroke="#000000" points="1803.5,-230 1803.5,-249 1850.5,-249 1850.5,-230 1803.5,-230"/>
<text text-anchor="middle" x="1827" y="-237" font-family="Helvetica,sans-Serif" font-size="10.00" fill="#000000">argo.h</text>
</a>
</g>
</g>
<!-- Node21&#45;&gt;Node41 -->
<g id="edge45" class="edge">
<title>Node21&#45;&gt;Node41</title>
<path fill="none" stroke="#191970" d="M1193.0887,-305.2527C1280.4819,-301.3371 1541.706,-287.5591 1756,-255 1768.3488,-253.1238 1781.7647,-250.3806 1793.5757,-247.7217"/>
<polygon fill="#191970" stroke="#191970" points="1794.5214,-251.0954 1803.4746,-245.4306 1792.9429,-244.2757 1794.5214,-251.0954"/>
</g>
<!-- Node42 -->
<g id="node40" class="node">
<title>Node42</title>
<polygon fill="#ffffff" stroke="#bfbfbf" points="1766,-112.5 1766,-131.5 1822,-131.5 1822,-112.5 1766,-112.5"/>
<text text-anchor="middle" x="1794" y="-119.5" font-family="Helvetica,sans-Serif" font-size="10.00" fill="#000000">stddef.h</text>
</g>
<!-- Node41&#45;&gt;Node42 -->
<g id="edge46" class="edge">
<title>Node41&#45;&gt;Node42</title>
<path fill="none" stroke="#191970" d="M1804.0673,-229.8988C1774.3616,-217.2332 1725.7899,-195.6524 1721,-188 1707.5764,-166.5541 1734.1082,-147.8353 1758.8629,-135.8643"/>
<polygon fill="#191970" stroke="#191970" points="1760.5313,-138.9502 1768.1763,-131.6151 1757.6256,-132.5817 1760.5313,-138.9502"/>
</g>
<!-- Node43 -->
<g id="node41" class="node">
<title>Node43</title>
<g id="a_node41"><a xlink:href="allocators_8h.html" target="_top" xlink:title="This file provides all C allocators for ArgoDSM. ">
<polygon fill="#ffffff" stroke="#000000" points="1547.5,-168.5 1547.5,-187.5 1672.5,-187.5 1672.5,-168.5 1547.5,-168.5"/>
<text text-anchor="middle" x="1610" y="-175.5" font-family="Helvetica,sans-Serif" font-size="10.00" fill="#000000">allocators/allocators.h</text>
</a>
</g>
</g>
<!-- Node41&#45;&gt;Node43 -->
<g id="edge47" class="edge">
<title>Node41&#45;&gt;Node43</title>
<path fill="none" stroke="#191970" d="M1805.0861,-229.971C1799.8651,-227.8657 1794.2763,-225.7451 1789,-224 1747.5106,-210.2777 1699.5032,-198.1365 1663.6562,-189.7781"/>
<polygon fill="#191970" stroke="#191970" points="1664.4145,-186.3611 1653.8835,-187.5227 1662.8404,-193.1819 1664.4145,-186.3611"/>
</g>
<!-- Node46 -->
<g id="node44" class="node">
<title>Node46</title>
<g id="a_node44"><a xlink:href="synchronization_8h.html" target="_top" xlink:title="This file provides C bindings for some ArgoDSM synchronization primitives. ">
<polygon fill="#ffffff" stroke="#000000" points="1729.5,-168.5 1729.5,-187.5 1912.5,-187.5 1912.5,-168.5 1729.5,-168.5"/>
<text text-anchor="middle" x="1821" y="-175.5" font-family="Helvetica,sans-Serif" font-size="10.00" fill="#000000">synchronization/synchronization.h</text>
</a>
</g>
</g>
<!-- Node41&#45;&gt;Node46 -->
<g id="edge50" class="edge">
<title>Node41&#45;&gt;Node46</title>
<path fill="none" stroke="#191970" d="M1826.0625,-229.8906C1825.2308,-221.3657 1823.9892,-208.6392 1822.9438,-197.9235"/>
<polygon fill="#191970" stroke="#191970" points="1826.4053,-197.3577 1821.9507,-187.7449 1819.4383,-198.0375 1826.4053,-197.3577"/>
</g>
<!-- Node44 -->
<g id="node42" class="node">
<title>Node44</title>
<g id="a_node42"><a xlink:href="collective__allocator_8h.html" target="_top" xlink:title="This file provides the collective allocator for ArgoDSM. ">
<polygon fill="#ffffff" stroke="#000000" points="1441,-112.5 1441,-131.5 1561,-131.5 1561,-112.5 1441,-112.5"/>
<text text-anchor="middle" x="1501" y="-119.5" font-family="Helvetica,sans-Serif" font-size="10.00" fill="#000000">collective_allocator.h</text>
</a>
</g>
</g>
<!-- Node43&#45;&gt;Node44 -->
<g id="edge48" class="edge">
<title>Node43&#45;&gt;Node44</title>
<path fill="none" stroke="#191970" d="M1591.0136,-168.2455C1573.8208,-159.4125 1548.2762,-146.2887 1528.7868,-136.2758"/>
<polygon fill="#191970" stroke="#191970" points="1530.263,-133.0993 1519.7688,-131.6427 1527.0641,-139.3257 1530.263,-133.0993"/>
</g>
<!-- Node45 -->
<g id="node43" class="node">
<title>Node45</title>
<g id="a_node43"><a xlink:href="dynamic__allocator_8h.html" target="_top" xlink:title="This file provides the dynamic allocator for ArgoDSM. ">
<polygon fill="#ffffff" stroke="#000000" points="1579.5,-112.5 1579.5,-131.5 1694.5,-131.5 1694.5,-112.5 1579.5,-112.5"/>
<text text-anchor="middle" x="1637" y="-119.5" font-family="Helvetica,sans-Serif" font-size="10.00" fill="#000000">dynamic_allocator.h</text>
</a>
</g>
</g>
<!-- Node43&#45;&gt;Node45 -->
<g id="edge49" class="edge">
<title>Node43&#45;&gt;Node45</title>
<path fill="none" stroke="#191970" d="M1614.703,-168.2455C1618.3424,-160.6973 1623.4924,-150.0158 1627.9262,-140.8197"/>
<polygon fill="#191970" stroke="#191970" points="1631.1605,-142.1704 1632.3509,-131.6427 1624.8551,-139.1303 1631.1605,-142.1704"/>
</g>
<!-- Node46&#45;&gt;Node42 -->
<g id="edge51" class="edge">
<title>Node46&#45;&gt;Node42</title>
<path fill="none" stroke="#191970" d="M1816.297,-168.2455C1812.6576,-160.6973 1807.5076,-150.0158 1803.0738,-140.8197"/>
<polygon fill="#191970" stroke="#191970" points="1806.1449,-139.1303 1798.6491,-131.6427 1799.8395,-142.1704 1806.1449,-139.1303"/>
</g>
<!-- Node47&#45;&gt;Node1 -->
<g id="edge58" class="edge">
<title>Node47&#45;&gt;Node1</title>
<path fill="none" stroke="#191970" d="M1823.2469,-366.1927C1587.7057,-357.2784 550.9753,-318.0421 300.5759,-308.5655"/>
<polygon fill="#191970" stroke="#191970" points="300.4027,-305.0565 290.2774,-308.1757 300.1379,-312.0515 300.4027,-305.0565"/>
</g>
<!-- Node47&#45;&gt;Node7 -->
<g id="edge59" class="edge">
<title>Node47&#45;&gt;Node7</title>
<path fill="none" stroke="#191970" d="M1864.6333,-358.1051C1845.1724,-328.202 1785.9824,-239.8489 1756,-224 1707.6807,-198.4581 1341.1126,-184.159 1202.1675,-179.6107"/>
<polygon fill="#191970" stroke="#191970" points="1201.8891,-176.0999 1191.7812,-179.275 1201.6629,-183.0963 1201.8891,-176.0999"/>
</g>
<!-- Node47&#45;&gt;Node20 -->
<g id="edge56" class="edge">
<title>Node47&#45;&gt;Node20</title>
<path fill="none" stroke="#191970" d="M1876.0617,-358.2215C1888.028,-334.8976 1917.4036,-276.3574 1922,-255 1930.1353,-217.1988 1940.8617,-201.7542 1922,-168 1898.8347,-126.5442 1875.9403,-127.3486 1831,-112 1757.7763,-86.9916 1523.7044,-72.4337 1435.2712,-67.7102"/>
<polygon fill="#191970" stroke="#191970" points="1435.3991,-64.2122 1425.2293,-67.1829 1435.0319,-71.2025 1435.3991,-64.2122"/>
</g>
<!-- Node47&#45;&gt;Node21 -->
<g id="edge62" class="edge">
<title>Node47&#45;&gt;Node21</title>
<path fill="none" stroke="#191970" d="M1823.4468,-363.8693C1691.9454,-352.4465 1325.0904,-320.5799 1203.0545,-309.9793"/>
<polygon fill="#191970" stroke="#191970" points="1203.2853,-306.4863 1193.0199,-309.1077 1202.6794,-313.46 1203.2853,-306.4863"/>
</g>
<!-- Node47&#45;&gt;Node28 -->
<g id="edge57" class="edge">
<title>Node47&#45;&gt;Node28</title>
<path fill="none" stroke="#191970" d="M1870.953,-358.4371C1871.0308,-343.8004 1871.7759,-315.0124 1876,-291 1877.8991,-280.2047 1881.2228,-268.4494 1884.2596,-258.8989"/>
<polygon fill="#191970" stroke="#191970" points="1887.6432,-259.8152 1887.4752,-249.2217 1881.0004,-257.6079 1887.6432,-259.8152"/>
</g>
<!-- Node48 -->
<g id="node46" class="node">
<title>Node48</title>
<polygon fill="#ffffff" stroke="#bfbfbf" points="1918.5,-297 1918.5,-316 1965.5,-316 1965.5,-297 1918.5,-297"/>
<text text-anchor="middle" x="1942" y="-304" font-family="Helvetica,sans-Serif" font-size="10.00" fill="#000000">deque</text>
</g>
<!-- Node47&#45;&gt;Node48 -->
<g id="edge53" class="edge">
<title>Node47&#45;&gt;Node48</title>
<path fill="none" stroke="#191970" d="M1882.0938,-358.3906C1892.9715,-348.9683 1909.7748,-334.4134 1922.82,-323.1137"/>
<polygon fill="#191970" stroke="#191970" points="1925.4827,-325.4377 1930.7498,-316.2449 1920.8996,-320.1466 1925.4827,-325.4377"/>
</g>
<!-- Node49 -->
<g id="node47" class="node">
<title>Node49</title>
<polygon fill="#ffffff" stroke="#bfbfbf" points="1983.5,-297 1983.5,-316 2036.5,-316 2036.5,-297 1983.5,-297"/>
<text text-anchor="middle" x="2010" y="-304" font-family="Helvetica,sans-Serif" font-size="10.00" fill="#000000">iterator</text>
</g>
<!-- Node47&#45;&gt;Node49 -->
<g id="edge54" class="edge">
<title>Node47&#45;&gt;Node49</title>
<path fill="none" stroke="#191970" d="M1892.5129,-358.4881C1913.5449,-349.1881 1946.4751,-334.6246 1975,-322 1976.3673,-321.3948 1977.7647,-320.7763 1979.1762,-320.1515"/>
<polygon fill="#191970" stroke="#191970" points="1980.8026,-323.2592 1988.5294,-316.0103 1977.9686,-316.8585 1980.8026,-323.2592"/>
</g>
<!-- Node50 -->
<g id="node48" class="node">
<title>Node50</title>
<polygon fill="#ffffff" stroke="#bfbfbf" points="2055,-297 2055,-316 2119,-316 2119,-297 2055,-297"/>
<text text-anchor="middle" x="2087" y="-304" font-family="Helvetica,sans-Serif" font-size="10.00" fill="#000000">algorithm</text>
</g>
<!-- Node47&#45;&gt;Node50 -->
<g id="edge55" class="edge">
<title>Node47&#45;&gt;Node50</title>
<path fill="none" stroke="#191970" d="M1912.3656,-358.4182C1948.0489,-349.8464 2000.8149,-336.4362 2046,-322 2048.4102,-321.23 2050.886,-320.3985 2053.3696,-319.5345"/>
<polygon fill="#191970" stroke="#191970" points="2054.6509,-322.7931 2062.8658,-316.1024 2052.2715,-316.2098 2054.6509,-322.7931"/>
</g>
<!-- Node47&#45;&gt;Node51 -->
<g id="edge60" class="edge">
<title>Node47&#45;&gt;Node51</title>
<path fill="none" stroke="#191970" d="M1918.918,-359.8561C1968.4757,-351.3367 2048.3602,-337.3346 2127.3243,-322.0987"/>
<polygon fill="#191970" stroke="#191970" points="2128.2969,-325.4754 2137.4487,-320.1373 2126.9655,-318.6032 2128.2969,-325.4754"/>
</g>
<!-- Node52 -->
<g id="node50" class="node">
<title>Node52</title>
<polygon fill="#ffffff" stroke="#bfbfbf" points="2179.5,-230 2179.5,-249 2224.5,-249 2224.5,-230 2179.5,-230"/>
<text text-anchor="middle" x="2202" y="-237" font-family="Helvetica,sans-Serif" font-size="10.00" fill="#000000">utility</text>
</g>
<!-- Node51&#45;&gt;Node52 -->
<g id="edge61" class="edge">
<title>Node51&#45;&gt;Node52</title>
<path fill="none" stroke="#191970" d="M2202,-291.2967C2202,-281.7699 2202,-269.3954 2202,-259.1306"/>
<polygon fill="#191970" stroke="#191970" points="2205.5001,-259.0549 2202,-249.055 2198.5001,-259.055 2205.5001,-259.0549"/>
</g>
</g>
</svg>
        <g id="navigator" transform="translate(0 0)" fill="#404254">
                <rect fill="#f2f5e9" fill-opacity="0.5" stroke="#606060" stroke-width=".5" x="0" y="0" width="60" height="60"/>
                <use id="zoomplus" xlink:href="#zoomPlus" x="17" y="9" onmousedown="handleZoom(evt,'in')"/>
                <use id="zoomminus" xlink:href="#zoomMin" x="42" y="9" onmousedown="handleZoom(evt,'out')"/>
                <use id="reset" xlink:href="#resetDef" x="30" y="36" onmousedown="handleReset()"/>
                <g id="arrowUp" xlink:href="#dirArrow" transform="translate(30 24)" onmousedown="handlePan(0,-1)">
                  <use xlink:href="#rim" fill="#404040">
                        <set attributeName="fill" to="#808080" begin="arrowUp.mouseover" end="arrowUp.mouseout"/>
                  </use>
                  <path fill="none" stroke="white" stroke-width="1.5" d="M0,-3.0v7 M-2.5,-0.5L0,-3.0L2.5,-0.5"/>
                </g>
                <g id="arrowRight" xlink:href="#dirArrow" transform="rotate(90) translate(36 -43)" onmousedown="handlePan(1,0)">
                  <use xlink:href="#rim" fill="#404040">
                        <set attributeName="fill" to="#808080" begin="arrowRight.mouseover" end="arrowRight.mouseout"/>
                  </use>
                  <path fill="none" stroke="white" stroke-width="1.5" d="M0,-3.0v7 M-2.5,-0.5L0,-3.0L2.5,-0.5"/>
                </g>
                <g id="arrowDown" xlink:href="#dirArrow" transform="rotate(180) translate(-30 -48)" onmousedown="handlePan(0,1)">
                  <use xlink:href="#rim" fill="#404040">
                        <set attributeName="fill" to="#808080" begin="arrowDown.mouseover" end="arrowDown.mouseout"/>
                  </use>
                  <path fill="none" stroke="white" stroke-width="1.5" d="M0,-3.0v7 M-2.5,-0.5L0,-3.0L2.5,-0.5"/>
                </g>
                <g id="arrowLeft" xlink:href="#dirArrow" transform="rotate(270) translate(-36 17)" onmousedown="handlePan(-1,0)">
                  <use xlink:href="#rim" fill="#404040">
                        <set attributeName="fill" to="#808080" begin="arrowLeft.mouseover" end="arrowLeft.mouseout"/>
                  </use>
                  <path fill="none" stroke="white" stroke-width="1.5" d="M0,-3.0v7 M-2.5,-0.5L0,-3.0L2.5,-0.5"/>
                </g>
        </g>
        <svg viewBox="0 0 15 15" width="100%" height="30px" preserveAspectRatio="xMaxYMin meet">
         <g id="arrow_out" transform="scale(0.3 0.3)">
          <a xlink:href="coherence_8cpp__incl_org.svg" target="_base">
           <rect id="button" ry="5" rx="5" y="6" x="6" height="38" width="38"
                fill="#f2f5e9" fill-opacity="0.5" stroke="#606060" stroke-width="1.0"/>
           <path id="arrow"
             d="M 11.500037,31.436501 C 11.940474,20.09759 22.043105,11.32322 32.158766,21.979434 L 37.068811,17.246167 C 37.068811,17.246167 37.088388,32 37.088388,32 L 22.160133,31.978069 C 22.160133,31.978069 26.997745,27.140456 26.997745,27.140456 C 18.528582,18.264221 13.291696,25.230495 11.500037,31.436501 z"
             style="fill:#404040;"/>
          </a>
         </g>
        </svg>
</svg>
