<?xml version="1.0" encoding="UTF-8" standalone="no"?>
<!DOCTYPE svg PUBLIC "-//W3C//DTD SVG 1.1//EN"
 "http://www.w3.org/Graphics/SVG/1.1/DTD/svg11.dtd">
<!-- Generated by graphviz version 2.40.1 (20161225.0304)
 -->
<!-- Title: /home/atmerhannah/argodsm/src/synchronization/cohort_lock.hpp Pages: 1 -->
<svg width="1491pt" height="654pt"
 viewBox="0.00 0.00 1491.22 654.00" xmlns="http://www.w3.org/2000/svg" xmlns:xlink="http://www.w3.org/1999/xlink">
<g id="graph0" class="graph" transform="scale(1 1) rotate(0) translate(4 650)">
<title>/home/atmerhannah/argodsm/src/synchronization/cohort_lock.hpp</title>
<polygon fill="#ffffff" stroke="transparent" points="-4,4 -4,-650 1487.223,-650 1487.223,4 -4,4"/>
<!-- Node0 -->
<g id="node1" class="node">
<title>Node0</title>
<polygon fill="#bfbfbf" stroke="#000000" points="828.223,-604.5 828.223,-645.5 989.223,-645.5 989.223,-604.5 828.223,-604.5"/>
<text text-anchor="start" x="836.223" y="-633.5" font-family="Helvetica,sans-Serif" font-size="10.00" fill="#000000">/home/atmerhannah/argodsm</text>
<text text-anchor="start" x="836.223" y="-622.5" font-family="Helvetica,sans-Serif" font-size="10.00" fill="#000000">/src/synchronization/cohort</text>
<text text-anchor="middle" x="908.723" y="-611.5" font-family="Helvetica,sans-Serif" font-size="10.00" fill="#000000">_lock.hpp</text>
</g>
<!-- Node1 -->
<g id="node2" class="node">
<title>Node1</title>
<g id="a_node2"><a xlink:href="collective__allocator_8hpp.html" target="_top" xlink:title="This file provides the collective allocator for ArgoDSM. ">
<polygon fill="#ffffff" stroke="#000000" points="801.723,-537.5 801.723,-567.5 925.723,-567.5 925.723,-537.5 801.723,-537.5"/>
<text text-anchor="start" x="809.723" y="-555.5" font-family="Helvetica,sans-Serif" font-size="10.00" fill="#000000">../allocators/collective</text>
<text text-anchor="middle" x="863.723" y="-544.5" font-family="Helvetica,sans-Serif" font-size="10.00" fill="#000000">_allocator.hpp</text>
</a>
</g>
</g>
<!-- Node0&#45;&gt;Node1 -->
<g id="edge1" class="edge">
<title>Node0&#45;&gt;Node1</title>
<path fill="none" stroke="#191970" d="M895.9482,-604.4183C890.4915,-595.627 884.0898,-585.3132 878.4363,-576.2047"/>
<polygon fill="#191970" stroke="#191970" points="881.3423,-574.2497 873.0949,-567.5991 875.3948,-577.9413 881.3423,-574.2497"/>
</g>
<!-- Node6 -->
<g id="node7" class="node">
<title>Node6</title>
<g id="a_node7"><a xlink:href="backend_8hpp.html" target="_top" xlink:title="This file provides the backend interface. ">
<polygon fill="#ffffff" stroke="#000000" points="926.723,-291.5 926.723,-310.5 1058.723,-310.5 1058.723,-291.5 926.723,-291.5"/>
<text text-anchor="middle" x="992.723" y="-298.5" font-family="Helvetica,sans-Serif" font-size="10.00" fill="#000000">../backend/backend.hpp</text>
</a>
</g>
</g>
<!-- Node0&#45;&gt;Node6 -->
<g id="edge64" class="edge">
<title>Node0&#45;&gt;Node6</title>
<path fill="none" stroke="#191970" d="M917.6126,-604.4105C927.7393,-583.6628 946.3676,-552.5548 972.723,-537 1131.6876,-443.1802 1279.3307,-601.1757 1377.723,-445 1429.3202,-363.1012 1305.5643,-366.6298 1247.723,-347 1189.3157,-327.1782 1120.3257,-315.3937 1068.843,-308.7232"/>
<polygon fill="#191970" stroke="#191970" points="1069.1473,-305.2339 1058.7882,-307.4564 1068.2722,-312.179 1069.1473,-305.2339"/>
</g>
<!-- Node14 -->
<g id="node15" class="node">
<title>Node14</title>
<g id="a_node15"><a xlink:href="data__distribution_8hpp.html" target="_top" xlink:title="This file provides an abstraction layer for distributing the shared memory space. ...">
<polygon fill="#ffffff" stroke="#000000" points="350.723,-168.5 350.723,-187.5 470.723,-187.5 470.723,-168.5 350.723,-168.5"/>
<text text-anchor="middle" x="410.723" y="-175.5" font-family="Helvetica,sans-Serif" font-size="10.00" fill="#000000">data_distribution.hpp</text>
</a>
</g>
</g>
<!-- Node0&#45;&gt;Node14 -->
<g id="edge65" class="edge">
<title>Node0&#45;&gt;Node14</title>
<path fill="none" stroke="#191970" d="M828.2032,-621.895C683.184,-615.6005 383.9557,-599.2103 284.723,-568 218.8316,-547.2761 149.723,-560.0736 149.723,-491 149.723,-491 149.723,-491 149.723,-301 149.723,-254.4385 287.3599,-210.6382 362.7341,-190.1427"/>
<polygon fill="#191970" stroke="#191970" points="363.7403,-193.4966 372.4919,-187.5249 361.9265,-186.7356 363.7403,-193.4966"/>
</g>
<!-- Node28 -->
<g id="node29" class="node">
<title>Node28</title>
<g id="a_node29"><a xlink:href="global__tas__lock_8hpp.html" target="_top" xlink:title="This file provides a tas lock for the ArgoDSM system based on the TAS lock made by David Klaftenegger...">
<polygon fill="#ffffff" stroke="#000000" points="313.723,-347.5 313.723,-377.5 429.723,-377.5 429.723,-347.5 313.723,-347.5"/>
<text text-anchor="start" x="321.723" y="-365.5" font-family="Helvetica,sans-Serif" font-size="10.00" fill="#000000">../synchronization</text>
<text text-anchor="middle" x="371.723" y="-354.5" font-family="Helvetica,sans-Serif" font-size="10.00" fill="#000000">/global_tas_lock.hpp</text>
</a>
</g>
</g>
<!-- Node0&#45;&gt;Node28 -->
<g id="edge66" class="edge">
<title>Node0&#45;&gt;Node28</title>
<path fill="none" stroke="#191970" d="M827.9451,-612.8431C680.2539,-588.7338 376.4064,-529.7711 317.723,-445 303.5932,-424.5887 322.8007,-400.8282 342.1098,-384.0631"/>
<polygon fill="#191970" stroke="#191970" points="344.5143,-386.6171 350.0098,-377.559 340.065,-381.213 344.5143,-386.6171"/>
</g>
<!-- Node39 -->
<g id="node40" class="node">
<title>Node39</title>
<g id="a_node40"><a xlink:href="mcs__lock_8hpp.html" target="_top" xlink:title="MCS lock for local use. ">
<polygon fill="#ffffff" stroke="#000000" points="327.223,-420 327.223,-439 460.223,-439 460.223,-420 327.223,-420"/>
<text text-anchor="middle" x="393.723" y="-427" font-family="Helvetica,sans-Serif" font-size="10.00" fill="#000000">intranode/mcs_lock.hpp</text>
</a>
</g>
</g>
<!-- Node0&#45;&gt;Node39 -->
<g id="edge67" class="edge">
<title>Node0&#45;&gt;Node39</title>
<path fill="none" stroke="#191970" d="M843.3746,-604.409C771.086,-581.1596 651.4948,-541.2953 550.723,-501 505.3033,-482.8382 453.9349,-458.748 422.6951,-443.6862"/>
<polygon fill="#191970" stroke="#191970" points="423.8182,-440.3413 413.2926,-439.1322 420.7669,-446.6413 423.8182,-440.3413"/>
</g>
<!-- Node40 -->
<g id="node41" class="node">
<title>Node40</title>
<g id="a_node41"><a xlink:href="ticket__lock_8hpp.html" target="_top" xlink:title="This file provides a (local) ticket lock for intranode locking in the ArgoDSM system. ">
<polygon fill="#ffffff" stroke="#000000" points="177.723,-481.5 177.723,-500.5 317.723,-500.5 317.723,-481.5 177.723,-481.5"/>
<text text-anchor="middle" x="247.723" y="-488.5" font-family="Helvetica,sans-Serif" font-size="10.00" fill="#000000">intranode/ticket_lock.hpp</text>
</a>
</g>
</g>
<!-- Node0&#45;&gt;Node40 -->
<g id="edge70" class="edge">
<title>Node0&#45;&gt;Node40</title>
<path fill="none" stroke="#191970" d="M828.1452,-623.2894C690.9602,-619.3477 418.4576,-606.7548 331.723,-568 302.2308,-554.8222 276.1878,-527.13 261.1918,-508.7994"/>
<polygon fill="#191970" stroke="#191970" points="263.7,-506.3286 254.7508,-500.6573 258.2101,-510.6715 263.7,-506.3286"/>
</g>
<!-- Node41 -->
<g id="node42" class="node">
<title>Node41</title>
<polygon fill="#ffffff" stroke="#bfbfbf" points="982.223,-543 982.223,-562 1029.223,-562 1029.223,-543 982.223,-543"/>
<text text-anchor="middle" x="1005.723" y="-550" font-family="Helvetica,sans-Serif" font-size="10.00" fill="#000000">vector</text>
</g>
<!-- Node0&#45;&gt;Node41 -->
<g id="edge72" class="edge">
<title>Node0&#45;&gt;Node41</title>
<path fill="none" stroke="#191970" d="M936.2599,-604.4183C951.6593,-592.9085 970.5502,-578.789 984.7423,-568.1815"/>
<polygon fill="#191970" stroke="#191970" points="986.984,-570.8756 992.8985,-562.0853 982.7932,-565.2687 986.984,-570.8756"/>
</g>
<!-- Node42 -->
<g id="node43" class="node">
<title>Node42</title>
<polygon fill="#ffffff" stroke="#bfbfbf" points="1047.723,-543 1047.723,-562 1101.723,-562 1101.723,-543 1047.723,-543"/>
<text text-anchor="middle" x="1074.723" y="-550" font-family="Helvetica,sans-Serif" font-size="10.00" fill="#000000">sched.h</text>
</g>
<!-- Node0&#45;&gt;Node42 -->
<g id="edge73" class="edge">
<title>Node0&#45;&gt;Node42</title>
<path fill="none" stroke="#191970" d="M955.8479,-604.4183C983.9419,-592.1484 1018.8263,-576.9127 1043.5204,-566.1277"/>
<polygon fill="#191970" stroke="#191970" points="1045.0126,-569.2952 1052.7759,-562.0853 1042.2109,-562.8804 1045.0126,-569.2952"/>
</g>
<!-- Node43 -->
<g id="node44" class="node">
<title>Node43</title>
<polygon fill="#ffffff" stroke="#bfbfbf" points="1119.723,-543 1119.723,-562 1175.723,-562 1175.723,-543 1119.723,-543"/>
<text text-anchor="middle" x="1147.723" y="-550" font-family="Helvetica,sans-Serif" font-size="10.00" fill="#000000">unistd.h</text>
</g>
<!-- Node0&#45;&gt;Node43 -->
<g id="edge74" class="edge">
<title>Node0&#45;&gt;Node43</title>
<path fill="none" stroke="#191970" d="M989.5384,-604.6116C1026.7678,-594.6043 1071.3318,-581.7513 1110.723,-568 1112.597,-567.3458 1114.5123,-566.6452 1116.4365,-565.9165"/>
<polygon fill="#191970" stroke="#191970" points="1117.9797,-569.0696 1125.9815,-562.1255 1115.3957,-562.564 1117.9797,-569.0696"/>
</g>
<!-- Node44 -->
<g id="node45" class="node">
<title>Node44</title>
<g id="a_node45"><a xlink:href="cohort__lock_8h.html" target="_top" xlink:title="This file provides a C interface for ArgoDSM&#45;based cohort locks. ">
<polygon fill="#ffffff" stroke="#000000" points="1193.723,-543 1193.723,-562 1275.723,-562 1275.723,-543 1193.723,-543"/>
<text text-anchor="middle" x="1234.723" y="-550" font-family="Helvetica,sans-Serif" font-size="10.00" fill="#000000">cohort_lock.h</text>
</a>
</g>
</g>
<!-- Node0&#45;&gt;Node44 -->
<g id="edge75" class="edge">
<title>Node0&#45;&gt;Node44</title>
<path fill="none" stroke="#191970" d="M989.5102,-610.4553C1044.7873,-599.9813 1119.5743,-584.7832 1184.723,-568 1188.3231,-567.0726 1192.0493,-566.0458 1195.7694,-564.975"/>
<polygon fill="#191970" stroke="#191970" points="1196.9251,-568.2829 1205.5116,-562.0762 1194.9287,-561.5736 1196.9251,-568.2829"/>
</g>
<!-- Node2 -->
<g id="node3" class="node">
<title>Node2</title>
<polygon fill="#ffffff" stroke="#bfbfbf" points="964.723,-353 964.723,-372 1002.723,-372 1002.723,-353 964.723,-353"/>
<text text-anchor="middle" x="983.723" y="-360" font-family="Helvetica,sans-Serif" font-size="10.00" fill="#000000">map</text>
</g>
<!-- Node1&#45;&gt;Node2 -->
<g id="edge2" class="edge">
<title>Node1&#45;&gt;Node2</title>
<path fill="none" stroke="#191970" d="M924.7014,-537.4964C957.8626,-527.9711 994.0543,-514.8589 1003.723,-501 1029.0895,-464.6404 1008.1295,-409.7417 993.9995,-381.2097"/>
<polygon fill="#191970" stroke="#191970" points="997.0847,-379.5562 989.3734,-372.2907 990.8708,-382.7792 997.0847,-379.5562"/>
</g>
<!-- Node3 -->
<g id="node4" class="node">
<title>Node3</title>
<polygon fill="#ffffff" stroke="#bfbfbf" points="447.723,-353 447.723,-372 505.723,-372 505.723,-353 447.723,-353"/>
<text text-anchor="middle" x="476.723" y="-360" font-family="Helvetica,sans-Serif" font-size="10.00" fill="#000000">memory</text>
</g>
<!-- Node1&#45;&gt;Node3 -->
<g id="edge3" class="edge">
<title>Node1&#45;&gt;Node3</title>
<path fill="none" stroke="#191970" d="M801.4965,-544.9516C749.6322,-537.447 674.3798,-523.713 611.723,-501 562.3685,-483.1091 542.2656,-484.5318 507.723,-445 491.9655,-426.9665 483.8883,-400.1458 479.9901,-382.0235"/>
<polygon fill="#191970" stroke="#191970" points="483.3926,-381.182 478.0717,-372.0202 476.5179,-382.5005 483.3926,-381.182"/>
</g>
<!-- Node4 -->
<g id="node5" class="node">
<title>Node4</title>
<polygon fill="#ffffff" stroke="#bfbfbf" points="1159.223,-353 1159.223,-372 1202.223,-372 1202.223,-353 1159.223,-353"/>
<text text-anchor="middle" x="1180.723" y="-360" font-family="Helvetica,sans-Serif" font-size="10.00" fill="#000000">stack</text>
</g>
<!-- Node1&#45;&gt;Node4 -->
<g id="edge4" class="edge">
<title>Node1&#45;&gt;Node4</title>
<path fill="none" stroke="#191970" d="M926.1082,-539.2422C965.5207,-530.1415 1017.2252,-516.8605 1061.723,-501 1117.9215,-480.969 1151.5159,-495.2216 1183.723,-445 1195.8255,-426.1283 1192.0181,-399.5174 1187.2251,-381.6707"/>
<polygon fill="#191970" stroke="#191970" points="1190.5669,-380.6299 1184.3245,-372.0694 1183.8661,-382.6543 1190.5669,-380.6299"/>
</g>
<!-- Node5 -->
<g id="node6" class="node">
<title>Node5</title>
<g id="a_node6"><a xlink:href="dynamic__mempool_8hpp.html" target="_top" xlink:title="This file provides a dynamically growing memory pool for ArgoDSM. ">
<polygon fill="#ffffff" stroke="#000000" points="1246.723,-414.5 1246.723,-444.5 1368.723,-444.5 1368.723,-414.5 1246.723,-414.5"/>
<text text-anchor="start" x="1254.723" y="-432.5" font-family="Helvetica,sans-Serif" font-size="10.00" fill="#000000">../mempools/dynamic</text>
<text text-anchor="middle" x="1307.723" y="-421.5" font-family="Helvetica,sans-Serif" font-size="10.00" fill="#000000">_mempool.hpp</text>
</a>
</g>
</g>
<!-- Node1&#45;&gt;Node5 -->
<g id="edge5" class="edge">
<title>Node1&#45;&gt;Node5</title>
<path fill="none" stroke="#191970" d="M925.863,-539.4108C930.5453,-538.552 935.2043,-537.7372 939.723,-537 1069.2125,-515.8743 1114.1237,-557.1073 1232.723,-501 1255.849,-490.0595 1276.426,-469.2097 1290.1494,-452.8363"/>
<polygon fill="#191970" stroke="#191970" points="1293.1145,-454.7357 1296.6784,-444.7583 1287.6703,-450.3356 1293.1145,-454.7357"/>
</g>
<!-- Node1&#45;&gt;Node6 -->
<g id="edge48" class="edge">
<title>Node1&#45;&gt;Node6</title>
<path fill="none" stroke="#191970" d="M801.3664,-541.7357C771.3413,-534.1741 736.2031,-521.5977 709.723,-501 676.6928,-475.3073 647.9703,-446.9835 673.723,-414 714.3216,-362.0023 755.3074,-399.361 817.723,-378 871.0306,-359.7562 930.5848,-331.8527 964.665,-315.1205"/>
<polygon fill="#191970" stroke="#191970" points="966.5705,-318.0828 973.9823,-310.512 963.467,-311.8083 966.5705,-318.0828"/>
</g>
<!-- Node27 -->
<g id="node28" class="node">
<title>Node27</title>
<g id="a_node28"><a xlink:href="global__mempool_8hpp.html" target="_top" xlink:title="This file provides a dynamically growing memory pool for ArgoDSM. ">
<polygon fill="#ffffff" stroke="#000000" points="516.723,-414.5 516.723,-444.5 626.723,-444.5 626.723,-414.5 516.723,-414.5"/>
<text text-anchor="start" x="524.723" y="-432.5" font-family="Helvetica,sans-Serif" font-size="10.00" fill="#000000">../mempools/global</text>
<text text-anchor="middle" x="571.723" y="-421.5" font-family="Helvetica,sans-Serif" font-size="10.00" fill="#000000">_mempool.hpp</text>
</a>
</g>
</g>
<!-- Node1&#45;&gt;Node27 -->
<g id="edge35" class="edge">
<title>Node1&#45;&gt;Node27</title>
<path fill="none" stroke="#191970" d="M801.6129,-547.7375C754.8511,-541.9571 690.5168,-529.1853 640.723,-501 619.6961,-489.0979 601.0232,-468.8167 588.4227,-452.888"/>
<polygon fill="#191970" stroke="#191970" points="590.9207,-450.3922 582.0707,-444.5673 585.3567,-454.6398 590.9207,-450.3922"/>
</g>
<!-- Node34 -->
<g id="node35" class="node">
<title>Node34</title>
<g id="a_node35"><a xlink:href="dynamic__allocator_8hpp.html" target="_top" xlink:title="This file provides the dynamic allocator for ArgoDSM. ">
<polygon fill="#ffffff" stroke="#000000" points="729.223,-481.5 729.223,-500.5 856.223,-500.5 856.223,-481.5 729.223,-481.5"/>
<text text-anchor="middle" x="792.723" y="-488.5" font-family="Helvetica,sans-Serif" font-size="10.00" fill="#000000">dynamic_allocator.hpp</text>
</a>
</g>
</g>
<!-- Node1&#45;&gt;Node34 -->
<g id="edge49" class="edge">
<title>Node1&#45;&gt;Node34</title>
<path fill="none" stroke="#191970" d="M846.1725,-537.2977C835.701,-528.2274 822.4019,-516.7077 811.6892,-507.4285"/>
<polygon fill="#191970" stroke="#191970" points="813.9413,-504.7487 804.091,-500.8469 809.3581,-510.0398 813.9413,-504.7487"/>
</g>
<!-- Node35 -->
<g id="node36" class="node">
<title>Node35</title>
<g id="a_node36"><a xlink:href="generic__allocator_8hpp.html" target="_top" xlink:title="This file provides a generic allocator template for ArgoDSM. ">
<polygon fill="#ffffff" stroke="#000000" points="1031.223,-420 1031.223,-439 1152.223,-439 1152.223,-420 1031.223,-420"/>
<text text-anchor="middle" x="1091.723" y="-427" font-family="Helvetica,sans-Serif" font-size="10.00" fill="#000000">generic_allocator.hpp</text>
</a>
</g>
</g>
<!-- Node1&#45;&gt;Node35 -->
<g id="edge61" class="edge">
<title>Node1&#45;&gt;Node35</title>
<path fill="none" stroke="#191970" d="M926.0687,-538.2358C967.8846,-527.8669 1018.5168,-513.5149 1036.723,-501 1056.3883,-487.4821 1072.1289,-464.7253 1081.6498,-448.5169"/>
<polygon fill="#191970" stroke="#191970" points="1084.9168,-449.8467 1086.7537,-439.4123 1078.8107,-446.4237 1084.9168,-449.8467"/>
</g>
<!-- Node36 -->
<g id="node37" class="node">
<title>Node36</title>
<g id="a_node37"><a xlink:href="null__lock_8hpp.html" target="_top" xlink:title="dummy lock, not intended for public use ">
<polygon fill="#ffffff" stroke="#000000" points="683.223,-420 683.223,-439 764.223,-439 764.223,-420 683.223,-420"/>
<text text-anchor="middle" x="723.723" y="-427" font-family="Helvetica,sans-Serif" font-size="10.00" fill="#000000">null_lock.hpp</text>
</a>
</g>
</g>
<!-- Node1&#45;&gt;Node36 -->
<g id="edge62" class="edge">
<title>Node1&#45;&gt;Node36</title>
<path fill="none" stroke="#191970" d="M801.4169,-537.8244C767.2104,-528.37 729.7378,-515.2177 719.723,-501 709.1359,-485.9697 712.1144,-464.4465 716.5191,-448.9466"/>
<polygon fill="#191970" stroke="#191970" points="719.8816,-449.9242 719.6472,-439.332 713.225,-447.7585 719.8816,-449.9242"/>
</g>
<!-- Node38 -->
<g id="node39" class="node">
<title>Node38</title>
<g id="a_node39"><a xlink:href="collective__allocator_8h.html" target="_top" xlink:title="This file provides the collective allocator for ArgoDSM. ">
<polygon fill="#ffffff" stroke="#000000" points="874.723,-481.5 874.723,-500.5 994.723,-500.5 994.723,-481.5 874.723,-481.5"/>
<text text-anchor="middle" x="934.723" y="-488.5" font-family="Helvetica,sans-Serif" font-size="10.00" fill="#000000">collective_allocator.h</text>
</a>
</g>
</g>
<!-- Node1&#45;&gt;Node38 -->
<g id="edge63" class="edge">
<title>Node1&#45;&gt;Node38</title>
<path fill="none" stroke="#191970" d="M881.2736,-537.2977C891.7451,-528.2274 905.0442,-516.7077 915.7568,-507.4285"/>
<polygon fill="#191970" stroke="#191970" points="918.0879,-510.0398 923.355,-500.8469 913.5048,-504.7487 918.0879,-510.0398"/>
</g>
<!-- Node5&#45;&gt;Node6 -->
<g id="edge6" class="edge">
<title>Node5&#45;&gt;Node6</title>
<path fill="none" stroke="#191970" d="M1294.7436,-414.4128C1277.6706,-395.5866 1245.8146,-363.8259 1211.723,-347 1167.1204,-324.9864 1112.3565,-313.4862 1068.7503,-307.4895"/>
<polygon fill="#191970" stroke="#191970" points="1069.1425,-304.0111 1058.7733,-306.186 1068.2356,-310.9521 1069.1425,-304.0111"/>
</g>
<!-- Node26 -->
<g id="node27" class="node">
<title>Node26</title>
<g id="a_node27"><a xlink:href="broadcast_8hpp.html" target="_top" xlink:title="This file provides a broadcasting facility for a single value. ">
<polygon fill="#ffffff" stroke="#000000" points="1380.223,-347.5 1380.223,-377.5 1483.223,-377.5 1483.223,-347.5 1380.223,-347.5"/>
<text text-anchor="start" x="1388.223" y="-365.5" font-family="Helvetica,sans-Serif" font-size="10.00" fill="#000000">../synchronization</text>
<text text-anchor="middle" x="1431.723" y="-354.5" font-family="Helvetica,sans-Serif" font-size="10.00" fill="#000000">/broadcast.hpp</text>
</a>
</g>
</g>
<!-- Node5&#45;&gt;Node26 -->
<g id="edge32" class="edge">
<title>Node5&#45;&gt;Node26</title>
<path fill="none" stroke="#191970" d="M1335.5511,-414.4639C1352.9783,-405.0475 1375.644,-392.8008 1394.5939,-382.5617"/>
<polygon fill="#191970" stroke="#191970" points="1396.4248,-385.5507 1403.5589,-377.7177 1393.0972,-379.3922 1396.4248,-385.5507"/>
</g>
<!-- Node7 -->
<g id="node8" class="node">
<title>Node7</title>
<polygon fill="#ffffff" stroke="#bfbfbf" points="859.723,-230 859.723,-249 911.723,-249 911.723,-230 859.723,-230"/>
<text text-anchor="middle" x="885.723" y="-237" font-family="Helvetica,sans-Serif" font-size="10.00" fill="#000000">cassert</text>
</g>
<!-- Node6&#45;&gt;Node7 -->
<g id="edge7" class="edge">
<title>Node6&#45;&gt;Node7</title>
<path fill="none" stroke="#191970" d="M976.0043,-291.3906C958.6509,-281.4165 931.2907,-265.6908 911.2348,-254.1633"/>
<polygon fill="#191970" stroke="#191970" points="912.7385,-250.9907 902.3244,-249.0419 909.2502,-257.0596 912.7385,-250.9907"/>
</g>
<!-- Node8 -->
<g id="node9" class="node">
<title>Node8</title>
<polygon fill="#ffffff" stroke="#bfbfbf" points="929.723,-230 929.723,-249 979.723,-249 979.723,-230 929.723,-230"/>
<text text-anchor="middle" x="954.723" y="-237" font-family="Helvetica,sans-Serif" font-size="10.00" fill="#000000">cstdint</text>
</g>
<!-- Node6&#45;&gt;Node8 -->
<g id="edge8" class="edge">
<title>Node6&#45;&gt;Node8</title>
<path fill="none" stroke="#191970" d="M986.7855,-291.3906C981.2963,-282.5068 972.9878,-269.0601 966.204,-258.0811"/>
<polygon fill="#191970" stroke="#191970" points="968.9782,-255.9122 960.7442,-249.2449 963.0232,-259.5917 968.9782,-255.9122"/>
</g>
<!-- Node9 -->
<g id="node10" class="node">
<title>Node9</title>
<polygon fill="#ffffff" stroke="#bfbfbf" points="998.223,-230 998.223,-249 1063.223,-249 1063.223,-230 998.223,-230"/>
<text text-anchor="middle" x="1030.723" y="-237" font-family="Helvetica,sans-Serif" font-size="10.00" fill="#000000">stdexcept</text>
</g>
<!-- Node6&#45;&gt;Node9 -->
<g id="edge9" class="edge">
<title>Node6&#45;&gt;Node9</title>
<path fill="none" stroke="#191970" d="M998.6605,-291.3906C1004.1498,-282.5068 1012.4583,-269.0601 1019.242,-258.0811"/>
<polygon fill="#191970" stroke="#191970" points="1022.4229,-259.5917 1024.7018,-249.2449 1016.4679,-255.9122 1022.4229,-259.5917"/>
</g>
<!-- Node10 -->
<g id="node11" class="node">
<title>Node10</title>
<g id="a_node11"><a xlink:href="global__ptr_8hpp.html" target="_top" xlink:title="This file provides the global pointer for ArgoDSM. ">
<polygon fill="#ffffff" stroke="#000000" points="517.723,-224.5 517.723,-254.5 625.723,-254.5 625.723,-224.5 517.723,-224.5"/>
<text text-anchor="start" x="525.723" y="-242.5" font-family="Helvetica,sans-Serif" font-size="10.00" fill="#000000">../data_distribution</text>
<text text-anchor="middle" x="571.723" y="-231.5" font-family="Helvetica,sans-Serif" font-size="10.00" fill="#000000">/global_ptr.hpp</text>
</a>
</g>
</g>
<!-- Node6&#45;&gt;Node10 -->
<g id="edge10" class="edge">
<title>Node6&#45;&gt;Node10</title>
<path fill="none" stroke="#191970" d="M927.4037,-291.4581C848.0521,-279.8664 715.0345,-260.435 636.1073,-248.9053"/>
<polygon fill="#191970" stroke="#191970" points="636.2141,-245.3838 625.8132,-247.4015 635.2022,-252.3103 636.2141,-245.3838"/>
</g>
<!-- Node19 -->
<g id="node20" class="node">
<title>Node19</title>
<g id="a_node20"><a xlink:href="types_8hpp.html" target="_top" xlink:title="This file defines common types used in ArgoDSM. ">
<polygon fill="#ffffff" stroke="#000000" points="1039.723,-.5 1039.723,-19.5 1143.723,-19.5 1143.723,-.5 1039.723,-.5"/>
<text text-anchor="middle" x="1091.723" y="-7.5" font-family="Helvetica,sans-Serif" font-size="10.00" fill="#000000">../types/types.hpp</text>
</a>
</g>
</g>
<!-- Node6&#45;&gt;Node19 -->
<g id="edge31" class="edge">
<title>Node6&#45;&gt;Node19</title>
<path fill="none" stroke="#191970" d="M1020.7251,-291.4646C1038.1765,-284.125 1059.7123,-272.2777 1072.723,-255 1093.9269,-226.8421 1091.723,-213.2487 1091.723,-178 1091.723,-178 1091.723,-178 1091.723,-122 1091.723,-89.7116 1091.723,-52.1872 1091.723,-29.8048"/>
<polygon fill="#191970" stroke="#191970" points="1095.2231,-29.5883 1091.723,-19.5884 1088.2231,-29.5884 1095.2231,-29.5883"/>
</g>
<!-- Node11 -->
<g id="node12" class="node">
<title>Node11</title>
<polygon fill="#ffffff" stroke="#bfbfbf" points="549.723,-168.5 549.723,-187.5 593.723,-187.5 593.723,-168.5 549.723,-168.5"/>
<text text-anchor="middle" x="571.723" y="-175.5" font-family="Helvetica,sans-Serif" font-size="10.00" fill="#000000">string</text>
</g>
<!-- Node10&#45;&gt;Node11 -->
<g id="edge11" class="edge">
<title>Node10&#45;&gt;Node11</title>
<path fill="none" stroke="#191970" d="M571.723,-224.2977C571.723,-216.3834 571.723,-206.6043 571.723,-198.0759"/>
<polygon fill="#191970" stroke="#191970" points="575.2231,-197.8469 571.723,-187.8469 568.2231,-197.847 575.2231,-197.8469"/>
</g>
<!-- Node12 -->
<g id="node13" class="node">
<title>Node12</title>
<g id="a_node13"><a xlink:href="env_8hpp.html" target="_top" xlink:title="This file provides facilities for handling environment variables. ">
<polygon fill="#ffffff" stroke="#000000" points="646.223,-168.5 646.223,-187.5 731.223,-187.5 731.223,-168.5 646.223,-168.5"/>
<text text-anchor="middle" x="688.723" y="-175.5" font-family="Helvetica,sans-Serif" font-size="10.00" fill="#000000">../env/env.hpp</text>
</a>
</g>
</g>
<!-- Node10&#45;&gt;Node12 -->
<g id="edge12" class="edge">
<title>Node10&#45;&gt;Node12</title>
<path fill="none" stroke="#191970" d="M600.3445,-224.4554C619.01,-214.644 643.2229,-201.9167 661.5842,-192.2653"/>
<polygon fill="#191970" stroke="#191970" points="663.369,-195.2812 670.5922,-187.5303 660.112,-189.0851 663.369,-195.2812"/>
</g>
<!-- Node10&#45;&gt;Node14 -->
<g id="edge14" class="edge">
<title>Node10&#45;&gt;Node14</title>
<path fill="none" stroke="#191970" d="M532.338,-224.4554C505.7104,-214.284 470.8786,-200.9787 445.3196,-191.2155"/>
<polygon fill="#191970" stroke="#191970" points="446.2629,-187.8292 435.6723,-187.5303 443.765,-194.3684 446.2629,-187.8292"/>
</g>
<!-- Node13 -->
<g id="node14" class="node">
<title>Node13</title>
<polygon fill="#ffffff" stroke="#bfbfbf" points="864.223,-112.5 864.223,-131.5 917.223,-131.5 917.223,-112.5 864.223,-112.5"/>
<text text-anchor="middle" x="890.723" y="-119.5" font-family="Helvetica,sans-Serif" font-size="10.00" fill="#000000">cstddef</text>
</g>
<!-- Node12&#45;&gt;Node13 -->
<g id="edge13" class="edge">
<title>Node12&#45;&gt;Node13</title>
<path fill="none" stroke="#191970" d="M723.0607,-168.4915C754.5982,-159.7568 802.897,-146.3762 854.0625,-132.1821"/>
<polygon fill="#191970" stroke="#191970" points="855.2869,-135.4747 863.9872,-129.4286 853.4155,-128.7295 855.2869,-135.4747"/>
</g>
<!-- Node15 -->
<g id="node16" class="node">
<title>Node15</title>
<g id="a_node16"><a xlink:href="base__distribution_8hpp.html" target="_top" xlink:title="This file implements the base distribution class for all the policies to derive from. ">
<polygon fill="#ffffff" stroke="#000000" points="365.723,-56.5 365.723,-75.5 487.723,-75.5 487.723,-56.5 365.723,-56.5"/>
<text text-anchor="middle" x="426.723" y="-63.5" font-family="Helvetica,sans-Serif" font-size="10.00" fill="#000000">base_distribution.hpp</text>
</a>
</g>
</g>
<!-- Node14&#45;&gt;Node15 -->
<g id="edge15" class="edge">
<title>Node14&#45;&gt;Node15</title>
<path fill="none" stroke="#191970" d="M406.6008,-168.4724C401.5708,-155.526 394.3607,-131.7291 399.723,-112 402.4406,-102.0015 407.9405,-91.9556 413.2714,-83.8139"/>
<polygon fill="#191970" stroke="#191970" points="416.1986,-85.7354 419.0611,-75.5346 410.462,-81.7239 416.1986,-85.7354"/>
</g>
<!-- Node20 -->
<g id="node21" class="node">
<title>Node20</title>
<g id="a_node21"><a xlink:href="naive__distribution_8hpp.html" target="_top" xlink:title="This file implements the naive data distribution. ">
<polygon fill="#ffffff" stroke="#000000" points="409.223,-112.5 409.223,-131.5 534.223,-131.5 534.223,-112.5 409.223,-112.5"/>
<text text-anchor="middle" x="471.723" y="-119.5" font-family="Helvetica,sans-Serif" font-size="10.00" fill="#000000">naive_distribution.hpp</text>
</a>
</g>
</g>
<!-- Node14&#45;&gt;Node20 -->
<g id="edge20" class="edge">
<title>Node14&#45;&gt;Node20</title>
<path fill="none" stroke="#191970" d="M421.3484,-168.2455C430.2704,-160.0549 443.2111,-148.1749 453.7423,-138.5069"/>
<polygon fill="#191970" stroke="#191970" points="456.2198,-140.9837 461.2194,-131.6427 451.4859,-135.8271 456.2198,-140.9837"/>
</g>
<!-- Node21 -->
<g id="node22" class="node">
<title>Node21</title>
<g id="a_node22"><a xlink:href="cyclic__distribution_8hpp.html" target="_top" xlink:title="This file implements the cyclic data distribution. ">
<polygon fill="#ffffff" stroke="#000000" points="552.723,-112.5 552.723,-131.5 678.723,-131.5 678.723,-112.5 552.723,-112.5"/>
<text text-anchor="middle" x="615.723" y="-119.5" font-family="Helvetica,sans-Serif" font-size="10.00" fill="#000000">cyclic_distribution.hpp</text>
</a>
</g>
</g>
<!-- Node14&#45;&gt;Node21 -->
<g id="edge22" class="edge">
<title>Node14&#45;&gt;Node21</title>
<path fill="none" stroke="#191970" d="M445.9638,-168.3733C480.6425,-158.9001 533.7113,-144.4032 571.2692,-134.1435"/>
<polygon fill="#191970" stroke="#191970" points="572.2179,-137.5126 580.9421,-131.5011 570.3733,-130.7601 572.2179,-137.5126"/>
</g>
<!-- Node22 -->
<g id="node23" class="node">
<title>Node22</title>
<g id="a_node23"><a xlink:href="skew__mapp__distribution_8hpp.html" target="_top" xlink:title="This file implements the skew&#45;mapp data distribution. ">
<polygon fill="#ffffff" stroke="#000000" points="17.223,-112.5 17.223,-131.5 174.223,-131.5 174.223,-112.5 17.223,-112.5"/>
<text text-anchor="middle" x="95.723" y="-119.5" font-family="Helvetica,sans-Serif" font-size="10.00" fill="#000000">skew_mapp_distribution.hpp</text>
</a>
</g>
</g>
<!-- Node14&#45;&gt;Node22 -->
<g id="edge24" class="edge">
<title>Node14&#45;&gt;Node22</title>
<path fill="none" stroke="#191970" d="M356.9305,-168.4369C302.2279,-158.712 217.4796,-143.6456 159.4458,-133.3285"/>
<polygon fill="#191970" stroke="#191970" points="159.752,-129.8281 149.2937,-131.5237 158.5267,-136.7201 159.752,-129.8281"/>
</g>
<!-- Node23 -->
<g id="node24" class="node">
<title>Node23</title>
<g id="a_node24"><a xlink:href="prime__mapp__distribution_8hpp.html" target="_top" xlink:title="This file implements the prime&#45;mapp data distribution. ">
<polygon fill="#ffffff" stroke="#000000" points="192.723,-112.5 192.723,-131.5 352.723,-131.5 352.723,-112.5 192.723,-112.5"/>
<text text-anchor="middle" x="272.723" y="-119.5" font-family="Helvetica,sans-Serif" font-size="10.00" fill="#000000">prime_mapp_distribution.hpp</text>
</a>
</g>
</g>
<!-- Node14&#45;&gt;Node23 -->
<g id="edge26" class="edge">
<title>Node14&#45;&gt;Node23</title>
<path fill="none" stroke="#191970" d="M387,-168.3733C364.5494,-159.2629 330.6491,-145.5062 305.5976,-135.3404"/>
<polygon fill="#191970" stroke="#191970" points="306.7187,-132.0182 296.1365,-131.5011 304.0866,-138.5045 306.7187,-132.0182"/>
</g>
<!-- Node24 -->
<g id="node25" class="node">
<title>Node24</title>
<g id="a_node25"><a xlink:href="first__touch__distribution_8hpp.html" target="_top" xlink:title="This file implements the first&#45;touch data distribution. ">
<polygon fill="#ffffff" stroke="#000000" points="697.223,-112.5 697.223,-131.5 846.223,-131.5 846.223,-112.5 697.223,-112.5"/>
<text text-anchor="middle" x="771.723" y="-119.5" font-family="Helvetica,sans-Serif" font-size="10.00" fill="#000000">first_touch_distribution.hpp</text>
</a>
</g>
</g>
<!-- Node14&#45;&gt;Node24 -->
<g id="edge28" class="edge">
<title>Node14&#45;&gt;Node24</title>
<path fill="none" stroke="#191970" d="M470.7401,-168.6899C533.8625,-158.898 633.1636,-143.494 700.2814,-133.0824"/>
<polygon fill="#191970" stroke="#191970" points="701.0089,-136.5115 710.3541,-131.5198 699.9358,-129.5942 701.0089,-136.5115"/>
</g>
<!-- Node16 -->
<g id="node17" class="node">
<title>Node16</title>
<polygon fill="#ffffff" stroke="#bfbfbf" points="361.223,-.5 361.223,-19.5 410.223,-19.5 410.223,-.5 361.223,-.5"/>
<text text-anchor="middle" x="385.723" y="-7.5" font-family="Helvetica,sans-Serif" font-size="10.00" fill="#000000">cstdlib</text>
</g>
<!-- Node15&#45;&gt;Node16 -->
<g id="edge16" class="edge">
<title>Node15&#45;&gt;Node16</title>
<path fill="none" stroke="#191970" d="M419.5814,-56.2455C413.8786,-48.4564 405.7331,-37.3308 398.8606,-27.9439"/>
<polygon fill="#191970" stroke="#191970" points="401.5143,-25.6437 392.7829,-19.6427 395.8663,-29.7789 401.5143,-25.6437"/>
</g>
<!-- Node17 -->
<g id="node18" class="node">
<title>Node17</title>
<polygon fill="#ffffff" stroke="#bfbfbf" points="77.723,-.5 77.723,-19.5 137.723,-19.5 137.723,-.5 77.723,-.5"/>
<text text-anchor="middle" x="107.723" y="-7.5" font-family="Helvetica,sans-Serif" font-size="10.00" fill="#000000">iostream</text>
</g>
<!-- Node15&#45;&gt;Node17 -->
<g id="edge17" class="edge">
<title>Node15&#45;&gt;Node17</title>
<path fill="none" stroke="#191970" d="M372.2474,-56.4369C308.5887,-45.2617 204.7508,-27.0331 147.957,-17.063"/>
<polygon fill="#191970" stroke="#191970" points="148.3747,-13.5829 137.9201,-15.3011 147.1643,-20.4775 148.3747,-13.5829"/>
</g>
<!-- Node18 -->
<g id="node19" class="node">
<title>Node18</title>
<polygon fill="#ffffff" stroke="#bfbfbf" points="428.223,-.5 428.223,-19.5 509.223,-19.5 509.223,-.5 428.223,-.5"/>
<text text-anchor="middle" x="468.723" y="-7.5" font-family="Helvetica,sans-Serif" font-size="10.00" fill="#000000">system_error</text>
</g>
<!-- Node15&#45;&gt;Node18 -->
<g id="edge18" class="edge">
<title>Node15&#45;&gt;Node18</title>
<path fill="none" stroke="#191970" d="M434.0389,-56.2455C439.9409,-48.3761 448.3973,-37.101 455.4824,-27.6542"/>
<polygon fill="#191970" stroke="#191970" points="458.291,-29.7427 461.491,-19.6427 452.691,-25.5427 458.291,-29.7427"/>
</g>
<!-- Node15&#45;&gt;Node19 -->
<g id="edge19" class="edge">
<title>Node15&#45;&gt;Node19</title>
<path fill="none" stroke="#191970" d="M487.7962,-60.857C613.9376,-50.2346 902.0682,-25.9709 1029.3304,-15.2541"/>
<polygon fill="#191970" stroke="#191970" points="1029.6383,-18.7407 1039.3093,-14.4138 1029.0508,-11.7654 1029.6383,-18.7407"/>
</g>
<!-- Node20&#45;&gt;Node15 -->
<g id="edge21" class="edge">
<title>Node20&#45;&gt;Node15</title>
<path fill="none" stroke="#191970" d="M463.8846,-112.2455C457.561,-104.3761 448.5006,-93.101 440.9094,-83.6542"/>
<polygon fill="#191970" stroke="#191970" points="443.4638,-81.2454 434.4716,-75.6427 438.0073,-85.6302 443.4638,-81.2454"/>
</g>
<!-- Node21&#45;&gt;Node15 -->
<g id="edge23" class="edge">
<title>Node21&#45;&gt;Node15</title>
<path fill="none" stroke="#191970" d="M583.2328,-112.3733C551.5328,-102.9807 503.1654,-88.6496 468.5945,-78.4064"/>
<polygon fill="#191970" stroke="#191970" points="469.3716,-74.9863 458.7893,-75.5011 467.383,-81.6979 469.3716,-74.9863"/>
</g>
<!-- Node22&#45;&gt;Node15 -->
<g id="edge25" class="edge">
<title>Node22&#45;&gt;Node15</title>
<path fill="none" stroke="#191970" d="M152.2479,-112.4369C209.967,-102.6717 299.5201,-87.5207 360.5197,-77.2006"/>
<polygon fill="#191970" stroke="#191970" points="361.1553,-80.6429 370.4313,-75.5237 359.9876,-73.7409 361.1553,-80.6429"/>
</g>
<!-- Node23&#45;&gt;Node15 -->
<g id="edge27" class="edge">
<title>Node23&#45;&gt;Node15</title>
<path fill="none" stroke="#191970" d="M299.1966,-112.3733C324.5827,-103.1419 363.0875,-89.1402 391.145,-78.9375"/>
<polygon fill="#191970" stroke="#191970" points="392.3931,-82.2079 400.5949,-75.5011 390.0009,-75.6293 392.3931,-82.2079"/>
</g>
<!-- Node24&#45;&gt;Node15 -->
<g id="edge30" class="edge">
<title>Node24&#45;&gt;Node15</title>
<path fill="none" stroke="#191970" d="M712.8074,-112.4369C652.5229,-102.6516 558.9211,-87.4582 495.3336,-77.1368"/>
<polygon fill="#191970" stroke="#191970" points="495.8273,-73.6712 485.3956,-75.5237 494.7057,-80.5808 495.8273,-73.6712"/>
</g>
<!-- Node25 -->
<g id="node26" class="node">
<title>Node25</title>
<polygon fill="#ffffff" stroke="#bfbfbf" points="834.723,-56.5 834.723,-75.5 882.723,-75.5 882.723,-56.5 834.723,-56.5"/>
<text text-anchor="middle" x="858.723" y="-63.5" font-family="Helvetica,sans-Serif" font-size="10.00" fill="#000000">mutex</text>
</g>
<!-- Node24&#45;&gt;Node25 -->
<g id="edge29" class="edge">
<title>Node24&#45;&gt;Node25</title>
<path fill="none" stroke="#191970" d="M786.8773,-112.2455C800.2258,-103.6534 819.8816,-91.0014 835.2613,-81.1018"/>
<polygon fill="#191970" stroke="#191970" points="837.2282,-83.9982 843.7425,-75.6427 833.4394,-78.1121 837.2282,-83.9982"/>
</g>
<!-- Node26&#45;&gt;Node6 -->
<g id="edge33" class="edge">
<title>Node26&#45;&gt;Node6</title>
<path fill="none" stroke="#191970" d="M1379.9521,-349.7844C1375.1555,-348.7749 1370.3578,-347.8275 1365.723,-347 1263.7348,-328.7902 1144.7684,-315.4731 1069.1197,-307.9848"/>
<polygon fill="#191970" stroke="#191970" points="1069.033,-304.4596 1058.7391,-306.9669 1068.3498,-311.4262 1069.033,-304.4596"/>
</g>
<!-- Node26&#45;&gt;Node19 -->
<g id="edge34" class="edge">
<title>Node26&#45;&gt;Node19</title>
<path fill="none" stroke="#191970" d="M1380.2216,-354.0194C1320.6681,-340.9286 1230.723,-309.5603 1230.723,-239.5 1230.723,-239.5 1230.723,-239.5 1230.723,-122 1230.723,-71.0738 1173.4502,-39.3787 1132.4314,-23.2092"/>
<polygon fill="#191970" stroke="#191970" points="1133.5091,-19.875 1122.9173,-19.6178 1131.0369,-26.4239 1133.5091,-19.875"/>
</g>
<!-- Node27&#45;&gt;Node3 -->
<g id="edge45" class="edge">
<title>Node27&#45;&gt;Node3</title>
<path fill="none" stroke="#191970" d="M550.1661,-414.2967C534.7898,-403.4524 514.1816,-388.9182 498.7092,-378.006"/>
<polygon fill="#191970" stroke="#191970" points="500.4604,-374.9582 490.2711,-372.055 496.426,-380.6787 500.4604,-374.9582"/>
</g>
<!-- Node27&#45;&gt;Node6 -->
<g id="edge36" class="edge">
<title>Node27&#45;&gt;Node6</title>
<path fill="none" stroke="#191970" d="M626.9519,-414.8061C663.8205,-404.83 713.3197,-391.115 756.723,-378 794.2797,-366.6516 897.7871,-332.4978 954.4396,-313.7173"/>
<polygon fill="#191970" stroke="#191970" points="955.7232,-316.9791 964.113,-310.509 953.5195,-310.335 955.7232,-316.9791"/>
</g>
<!-- Node27&#45;&gt;Node10 -->
<g id="edge43" class="edge">
<title>Node27&#45;&gt;Node10</title>
<path fill="none" stroke="#191970" d="M571.723,-414.2727C571.723,-381.6736 571.723,-304.847 571.723,-264.7914"/>
<polygon fill="#191970" stroke="#191970" points="575.2231,-264.5361 571.723,-254.5361 568.2231,-264.5361 575.2231,-264.5361"/>
</g>
<!-- Node27&#45;&gt;Node17 -->
<g id="edge46" class="edge">
<title>Node27&#45;&gt;Node17</title>
<path fill="none" stroke="#191970" d="M564.1472,-414.3386C548.9998,-385.6319 512.1431,-323.3292 462.723,-291 283.4592,-173.7308 131.7186,-306.6788 7.723,-132 -21.1151,-91.3743 41.5286,-46.8808 80.2008,-24.5311"/>
<polygon fill="#191970" stroke="#191970" points="81.9778,-27.5473 88.98,-19.5962 78.5477,-21.4452 81.9778,-27.5473"/>
</g>
<!-- Node27&#45;&gt;Node28 -->
<g id="edge37" class="edge">
<title>Node27&#45;&gt;Node28</title>
<path fill="none" stroke="#191970" d="M526.8391,-414.4639C497.0931,-404.499 457.8849,-391.3642 426.3307,-380.7936"/>
<polygon fill="#191970" stroke="#191970" points="427.3966,-377.4595 416.8027,-377.6017 425.173,-384.097 427.3966,-377.4595"/>
</g>
<!-- Node32 -->
<g id="node33" class="node">
<title>Node32</title>
<polygon fill="#ffffff" stroke="#bfbfbf" points="671.223,-353 671.223,-372 748.223,-372 748.223,-353 671.223,-353"/>
<text text-anchor="middle" x="709.723" y="-360" font-family="Helvetica,sans-Serif" font-size="10.00" fill="#000000">sys/mman.h</text>
</g>
<!-- Node27&#45;&gt;Node32 -->
<g id="edge44" class="edge">
<title>Node27&#45;&gt;Node32</title>
<path fill="none" stroke="#191970" d="M602.6929,-414.4639C626.0562,-403.1209 657.8789,-387.6707 680.7425,-376.5703"/>
<polygon fill="#191970" stroke="#191970" points="682.4747,-379.62 689.9418,-372.1039 679.4173,-373.323 682.4747,-379.62"/>
</g>
<!-- Node33 -->
<g id="node34" class="node">
<title>Node33</title>
<polygon fill="#ffffff" stroke="#bfbfbf" points="600.223,-353 600.223,-372 653.223,-372 653.223,-353 600.223,-353"/>
<text text-anchor="middle" x="626.723" y="-360" font-family="Helvetica,sans-Serif" font-size="10.00" fill="#000000">stdlib.h</text>
</g>
<!-- Node27&#45;&gt;Node33 -->
<g id="edge47" class="edge">
<title>Node27&#45;&gt;Node33</title>
<path fill="none" stroke="#191970" d="M584.2034,-414.2967C592.6062,-404.0605 603.7079,-390.5366 612.4603,-379.8746"/>
<polygon fill="#191970" stroke="#191970" points="615.2397,-382.005 618.8794,-372.055 609.8292,-377.5635 615.2397,-382.005"/>
</g>
<!-- Node28&#45;&gt;Node6 -->
<g id="edge38" class="edge">
<title>Node28&#45;&gt;Node6</title>
<path fill="none" stroke="#191970" d="M429.7276,-348.5408C432.7621,-347.9799 435.7741,-347.4611 438.723,-347 608.2281,-320.4981 809.4573,-308.6213 916.6191,-303.8372"/>
<polygon fill="#191970" stroke="#191970" points="916.8544,-307.3303 926.6917,-303.3961 916.5481,-300.337 916.8544,-307.3303"/>
</g>
<!-- Node28&#45;&gt;Node10 -->
<g id="edge39" class="edge">
<title>Node28&#45;&gt;Node10</title>
<path fill="none" stroke="#191970" d="M399.4728,-347.414C417.6398,-337.3866 441.802,-323.7629 462.723,-311 489.5526,-294.6327 519.3482,-274.9833 540.9974,-260.4286"/>
<polygon fill="#191970" stroke="#191970" points="543.12,-263.2187 549.4527,-254.7247 539.2053,-257.4156 543.12,-263.2187"/>
</g>
<!-- Node29 -->
<g id="node30" class="node">
<title>Node29</title>
<polygon fill="#ffffff" stroke="#bfbfbf" points="260.723,-291.5 260.723,-310.5 310.723,-310.5 310.723,-291.5 260.723,-291.5"/>
<text text-anchor="middle" x="285.723" y="-298.5" font-family="Helvetica,sans-Serif" font-size="10.00" fill="#000000">atomic</text>
</g>
<!-- Node28&#45;&gt;Node29 -->
<g id="edge40" class="edge">
<title>Node28&#45;&gt;Node29</title>
<path fill="none" stroke="#191970" d="M350.4646,-347.2977C337.4513,-337.9917 320.8327,-326.1075 307.6913,-316.7099"/>
<polygon fill="#191970" stroke="#191970" points="309.406,-313.6332 299.2359,-310.6633 305.3341,-319.3271 309.406,-313.6332"/>
</g>
<!-- Node30 -->
<g id="node31" class="node">
<title>Node30</title>
<polygon fill="#ffffff" stroke="#bfbfbf" points="403.723,-291.5 403.723,-310.5 453.723,-310.5 453.723,-291.5 403.723,-291.5"/>
<text text-anchor="middle" x="428.723" y="-298.5" font-family="Helvetica,sans-Serif" font-size="10.00" fill="#000000">chrono</text>
</g>
<!-- Node28&#45;&gt;Node30 -->
<g id="edge41" class="edge">
<title>Node28&#45;&gt;Node30</title>
<path fill="none" stroke="#191970" d="M385.8129,-347.2977C393.9724,-338.4941 404.2703,-327.3833 412.7325,-318.2529"/>
<polygon fill="#191970" stroke="#191970" points="415.366,-320.5604 419.5966,-310.8469 410.2319,-315.8021 415.366,-320.5604"/>
</g>
<!-- Node31 -->
<g id="node32" class="node">
<title>Node31</title>
<polygon fill="#ffffff" stroke="#bfbfbf" points="337.723,-291.5 337.723,-310.5 385.723,-310.5 385.723,-291.5 337.723,-291.5"/>
<text text-anchor="middle" x="361.723" y="-298.5" font-family="Helvetica,sans-Serif" font-size="10.00" fill="#000000">thread</text>
</g>
<!-- Node28&#45;&gt;Node31 -->
<g id="edge42" class="edge">
<title>Node28&#45;&gt;Node31</title>
<path fill="none" stroke="#191970" d="M369.2511,-347.2977C367.9498,-339.2945 366.3384,-329.3843 364.9407,-320.7889"/>
<polygon fill="#191970" stroke="#191970" points="368.3838,-320.1555 363.3242,-310.8469 361.4746,-321.2791 368.3838,-320.1555"/>
</g>
<!-- Node34&#45;&gt;Node2 -->
<g id="edge50" class="edge">
<title>Node34&#45;&gt;Node2</title>
<path fill="none" stroke="#191970" d="M838.6049,-481.4277C877.2408,-472.6035 928.6968,-458.8179 944.723,-445 963.7802,-428.5689 974.2024,-400.77 979.3687,-382.0337"/>
<polygon fill="#191970" stroke="#191970" points="982.7963,-382.7543 981.8288,-372.2038 976.0057,-381.0549 982.7963,-382.7543"/>
</g>
<!-- Node34&#45;&gt;Node4 -->
<g id="edge52" class="edge">
<title>Node34&#45;&gt;Node4</title>
<path fill="none" stroke="#191970" d="M856.4167,-482.2171C859.5629,-481.8014 862.6783,-481.3937 865.723,-481 931.4385,-472.5032 1112.4669,-489.3233 1161.723,-445 1179.0858,-429.3761 1182.2137,-401.3578 1182.0891,-382.3542"/>
<polygon fill="#191970" stroke="#191970" points="1185.5779,-381.9854 1181.7063,-372.1233 1178.5827,-382.2472 1185.5779,-381.9854"/>
</g>
<!-- Node34&#45;&gt;Node5 -->
<g id="edge53" class="edge">
<title>Node34&#45;&gt;Node5</title>
<path fill="none" stroke="#191970" d="M856.411,-482.172C859.5587,-481.7682 862.676,-481.3753 865.723,-481 1011.7146,-463.0166 1048.7331,-462.9965 1194.723,-445 1208.2444,-443.3332 1222.6598,-441.4428 1236.512,-439.5693"/>
<polygon fill="#191970" stroke="#191970" points="1237.0422,-443.0295 1246.4781,-438.2116 1236.0972,-436.0936 1237.0422,-443.0295"/>
</g>
<!-- Node34&#45;&gt;Node25 -->
<g id="edge51" class="edge">
<title>Node34&#45;&gt;Node25</title>
<path fill="none" stroke="#191970" d="M793.2109,-481.2557C795.3402,-445.2749 805.8436,-317.1623 850.723,-224 873.6184,-176.473 908.0319,-181.6995 925.723,-132 928.7039,-123.6258 929.8637,-119.8656 925.723,-112 918.4069,-98.1024 904.7858,-87.5936 891.7259,-80.1542"/>
<polygon fill="#191970" stroke="#191970" points="893.3383,-77.0477 882.8586,-75.4903 890.0798,-83.243 893.3383,-77.0477"/>
</g>
<!-- Node34&#45;&gt;Node27 -->
<g id="edge54" class="edge">
<title>Node34&#45;&gt;Node27</title>
<path fill="none" stroke="#191970" d="M758.1918,-481.3906C725.4435,-472.2774 675.441,-458.3627 635.4566,-447.2358"/>
<polygon fill="#191970" stroke="#191970" points="636.358,-443.8537 625.7857,-444.5446 634.4813,-450.5975 636.358,-443.8537"/>
</g>
<!-- Node34&#45;&gt;Node35 -->
<g id="edge55" class="edge">
<title>Node34&#45;&gt;Node35</title>
<path fill="none" stroke="#191970" d="M839.1137,-481.4581C892.0347,-470.573 978.5644,-452.7751 1035.3336,-441.0985"/>
<polygon fill="#191970" stroke="#191970" points="1036.1337,-444.5073 1045.2235,-439.0643 1034.7234,-437.6508 1036.1337,-444.5073"/>
</g>
<!-- Node34&#45;&gt;Node36 -->
<g id="edge59" class="edge">
<title>Node34&#45;&gt;Node36</title>
<path fill="none" stroke="#191970" d="M781.9418,-481.3906C771.3704,-471.9683 755.0405,-457.4134 742.3628,-446.1137"/>
<polygon fill="#191970" stroke="#191970" points="744.4503,-443.2858 734.6563,-439.2449 739.7926,-448.5114 744.4503,-443.2858"/>
</g>
<!-- Node37 -->
<g id="node38" class="node">
<title>Node37</title>
<g id="a_node38"><a xlink:href="dynamic__allocator_8h.html" target="_top" xlink:title="This file provides the dynamic allocator for ArgoDSM. ">
<polygon fill="#ffffff" stroke="#000000" points="821.223,-420 821.223,-439 936.223,-439 936.223,-420 821.223,-420"/>
<text text-anchor="middle" x="878.723" y="-427" font-family="Helvetica,sans-Serif" font-size="10.00" fill="#000000">dynamic_allocator.h</text>
</a>
</g>
</g>
<!-- Node34&#45;&gt;Node37 -->
<g id="edge60" class="edge">
<title>Node34&#45;&gt;Node37</title>
<path fill="none" stroke="#191970" d="M806.1605,-481.3906C819.7926,-471.6421 841.1076,-456.3994 857.1153,-444.9521"/>
<polygon fill="#191970" stroke="#191970" points="859.2817,-447.7057 865.3799,-439.0419 855.2098,-442.0118 859.2817,-447.7057"/>
</g>
<!-- Node35&#45;&gt;Node2 -->
<g id="edge56" class="edge">
<title>Node35&#45;&gt;Node2</title>
<path fill="none" stroke="#191970" d="M1076.2493,-419.9005C1058.365,-408.8057 1028.7168,-390.4128 1007.8093,-377.4424"/>
<polygon fill="#191970" stroke="#191970" points="1009.5108,-374.3792 999.1681,-372.0817 1005.8206,-380.3275 1009.5108,-374.3792"/>
</g>
<!-- Node35&#45;&gt;Node4 -->
<g id="edge57" class="edge">
<title>Node35&#45;&gt;Node4</title>
<path fill="none" stroke="#191970" d="M1104.4746,-419.9005C1118.8821,-409.0544 1142.5541,-391.2339 1159.7046,-378.3229"/>
<polygon fill="#191970" stroke="#191970" points="1162.111,-380.8923 1167.9952,-372.0817 1157.9009,-375.2998 1162.111,-380.8923"/>
</g>
<!-- Node35&#45;&gt;Node6 -->
<g id="edge58" class="edge">
<title>Node35&#45;&gt;Node6</title>
<path fill="none" stroke="#191970" d="M1084.2819,-419.8416C1067.7267,-398.3533 1027.6401,-346.3216 1006.4225,-318.7817"/>
<polygon fill="#191970" stroke="#191970" points="1009.1262,-316.5561 1000.2505,-310.7705 1003.581,-320.8282 1009.1262,-316.5561"/>
</g>
<!-- Node39&#45;&gt;Node2 -->
<g id="edge69" class="edge">
<title>Node39&#45;&gt;Node2</title>
<path fill="none" stroke="#191970" d="M460.2939,-420.137C475.8473,-418.0359 492.3574,-415.8755 507.723,-414 676.8017,-393.363 880.1962,-372.7656 954.6293,-365.3678"/>
<polygon fill="#191970" stroke="#191970" points="955.0503,-368.8433 964.6561,-364.3737 954.3595,-361.8775 955.0503,-368.8433"/>
</g>
<!-- Node39&#45;&gt;Node29 -->
<g id="edge68" class="edge">
<title>Node39&#45;&gt;Node29</title>
<path fill="none" stroke="#191970" d="M365.129,-419.8448C345.3011,-411.707 319.8371,-398.1282 304.723,-378 292.2285,-361.3604 287.8645,-337.5327 286.3858,-320.8024"/>
<polygon fill="#191970" stroke="#191970" points="289.8616,-320.2974 285.7586,-310.5293 282.8746,-320.7241 289.8616,-320.2974"/>
</g>
<!-- Node40&#45;&gt;Node29 -->
<g id="edge71" class="edge">
<title>Node40&#45;&gt;Node29</title>
<path fill="none" stroke="#191970" d="M249.6597,-481.3167C255.6043,-451.5938 273.6746,-361.242 281.7504,-320.8634"/>
<polygon fill="#191970" stroke="#191970" points="285.2155,-321.3839 283.7447,-310.8917 278.3514,-320.0111 285.2155,-321.3839"/>
</g>
</g>
</svg>
