<?xml version="1.0" encoding="UTF-8" standalone="no"?>
<!DOCTYPE svg PUBLIC "-//W3C//DTD SVG 1.1//EN"
 "http://www.w3.org/Graphics/SVG/1.1/DTD/svg11.dtd">
<!-- Generated by graphviz version 2.40.1 (20161225.0304)
 -->
<!-- Title: /home/atmerhannah/argodsm/src/allocators/collective_allocator.hpp Pages: 1 -->
<svg width="1959pt" height="273pt"
 viewBox="0.00 0.00 1959.00 273.00" xmlns="http://www.w3.org/2000/svg" xmlns:xlink="http://www.w3.org/1999/xlink">
<g id="graph0" class="graph" transform="scale(1 1) rotate(0) translate(4 269)">
<title>/home/atmerhannah/argodsm/src/allocators/collective_allocator.hpp</title>
<polygon fill="#ffffff" stroke="transparent" points="-4,4 -4,-269 1955,-269 1955,4 -4,4"/>
<!-- Node37 -->
<g id="node1" class="node">
<title>Node37</title>
<polygon fill="#bfbfbf" stroke="#000000" points="908,-223.5 908,-264.5 1069,-264.5 1069,-223.5 908,-223.5"/>
<text text-anchor="start" x="916" y="-252.5" font-family="Helvetica,sans-Serif" font-size="10.00" fill="#000000">/home/atmerhannah/argodsm</text>
<text text-anchor="start" x="916" y="-241.5" font-family="Helvetica,sans-Serif" font-size="10.00" fill="#000000">/src/allocators/collective</text>
<text text-anchor="middle" x="988.5" y="-230.5" font-family="Helvetica,sans-Serif" font-size="10.00" fill="#000000">_allocator.hpp</text>
</g>
<!-- Node38 -->
<g id="node2" class="node">
<title>Node38</title>
<g id="a_node2"><a xlink:href="src_2allocators_2allocators_8cpp.html" target="_top" xlink:title="This file provides the default allocators. ">
<polygon fill="#ffffff" stroke="#000000" points="614,-151 614,-181 775,-181 775,-151 614,-151"/>
<text text-anchor="start" x="622" y="-169" font-family="Helvetica,sans-Serif" font-size="10.00" fill="#000000">/home/atmerhannah/argodsm</text>
<text text-anchor="middle" x="694.5" y="-158" font-family="Helvetica,sans-Serif" font-size="10.00" fill="#000000">/src/allocators/allocators.cpp</text>
</a>
</g>
</g>
<!-- Node37&#45;&gt;Node38 -->
<g id="edge1" class="edge">
<title>Node37&#45;&gt;Node38</title>
<path fill="none" stroke="#191970" d="M901.0007,-220.7859C852.4881,-207.9152 793.5744,-192.2851 751.1093,-181.0188"/>
<polygon fill="#191970" stroke="#191970" points="900.3072,-224.2229 910.8704,-223.4044 902.1023,-217.457 900.3072,-224.2229"/>
</g>
<!-- Node39 -->
<g id="node3" class="node">
<title>Node39</title>
<g id="a_node3"><a xlink:href="allocators_8hpp.html" target="_top" xlink:title="This file provides all C++ allocators for ArgoDSM. ">
<polygon fill="#ffffff" stroke="#000000" points="908,-151 908,-181 1069,-181 1069,-151 908,-151"/>
<text text-anchor="start" x="916" y="-169" font-family="Helvetica,sans-Serif" font-size="10.00" fill="#000000">/home/atmerhannah/argodsm</text>
<text text-anchor="middle" x="988.5" y="-158" font-family="Helvetica,sans-Serif" font-size="10.00" fill="#000000">/src/allocators/allocators.hpp</text>
</a>
</g>
</g>
<!-- Node37&#45;&gt;Node39 -->
<g id="edge2" class="edge">
<title>Node37&#45;&gt;Node39</title>
<path fill="none" stroke="#191970" d="M988.5,-213.0187C988.5,-202.1033 988.5,-190.3119 988.5,-181.2679"/>
<polygon fill="#191970" stroke="#191970" points="985.0001,-213.0974 988.5,-223.0974 992.0001,-213.0975 985.0001,-213.0974"/>
</g>
<!-- Node41 -->
<g id="node5" class="node">
<title>Node41</title>
<g id="a_node5"><a xlink:href="argo_8cpp.html" target="_top" xlink:title="This file implements some of the basic ArgoDSM calls. ">
<polygon fill="#ffffff" stroke="#000000" points="0,-.5 0,-30.5 161,-30.5 161,-.5 0,-.5"/>
<text text-anchor="start" x="8" y="-18.5" font-family="Helvetica,sans-Serif" font-size="10.00" fill="#000000">/home/atmerhannah/argodsm</text>
<text text-anchor="middle" x="80.5" y="-7.5" font-family="Helvetica,sans-Serif" font-size="10.00" fill="#000000">/src/argo.cpp</text>
</a>
</g>
</g>
<!-- Node37&#45;&gt;Node41 -->
<g id="edge15" class="edge">
<title>Node37&#45;&gt;Node41</title>
<path fill="none" stroke="#191970" d="M924.9852,-219.6852C901.824,-210.2194 875.6489,-198.8123 852.5,-187 820.5216,-170.6822 817.0427,-157.7974 783.5,-145 754.4401,-133.9129 339.6746,-60.7565 161.2007,-29.5574"/>
<polygon fill="#191970" stroke="#191970" points="923.7883,-222.9765 934.371,-223.4831 926.4141,-216.4876 923.7883,-222.9765"/>
</g>
<!-- Node42 -->
<g id="node6" class="node">
<title>Node42</title>
<g id="a_node6"><a xlink:href="tests_2allocators_8cpp.html" target="_top" xlink:title="This file provides unit tests for the ArgoDSM allocators and memory pools. ">
<polygon fill="#ffffff" stroke="#000000" points="179,-.5 179,-30.5 340,-30.5 340,-.5 179,-.5"/>
<text text-anchor="start" x="187" y="-18.5" font-family="Helvetica,sans-Serif" font-size="10.00" fill="#000000">/home/atmerhannah/argodsm</text>
<text text-anchor="middle" x="259.5" y="-7.5" font-family="Helvetica,sans-Serif" font-size="10.00" fill="#000000">/tests/allocators.cpp</text>
</a>
</g>
</g>
<!-- Node37&#45;&gt;Node42 -->
<g id="edge19" class="edge">
<title>Node37&#45;&gt;Node42</title>
<path fill="none" stroke="#191970" d="M923.4982,-218.7557C907.448,-210.3739 891.2275,-199.8271 878.5,-187 836.36,-144.5303 867.262,-100.2145 817.5,-67 730.5589,-8.9697 452.2195,-43.9821 348.5,-31 345.8544,-30.6689 343.1676,-30.3133 340.4569,-29.9382"/>
<polygon fill="#191970" stroke="#191970" points="922.3896,-222.1137 932.9009,-223.4414 925.5118,-215.8485 922.3896,-222.1137"/>
</g>
<!-- Node43 -->
<g id="node7" class="node">
<title>Node43</title>
<g id="a_node7"><a xlink:href="api_8cpp.html" target="_top" xlink:title="This file provides unit tests for the ArgoDSM API functions. ">
<polygon fill="#ffffff" stroke="#000000" points="358,-.5 358,-30.5 519,-30.5 519,-.5 358,-.5"/>
<text text-anchor="start" x="366" y="-18.5" font-family="Helvetica,sans-Serif" font-size="10.00" fill="#000000">/home/atmerhannah/argodsm</text>
<text text-anchor="middle" x="438.5" y="-7.5" font-family="Helvetica,sans-Serif" font-size="10.00" fill="#000000">/tests/api.cpp</text>
</a>
</g>
</g>
<!-- Node37&#45;&gt;Node43 -->
<g id="edge20" class="edge">
<title>Node37&#45;&gt;Node43</title>
<path fill="none" stroke="#191970" d="M934.976,-218.1982C921.6459,-209.7549 908.3619,-199.317 898.5,-187 863.0903,-142.7752 899.9763,-102.0933 855.5,-67 797.9349,-21.5792 600.1002,-41.2956 527.5,-31 524.8601,-30.6256 522.1784,-30.2326 519.472,-29.8251"/>
<polygon fill="#191970" stroke="#191970" points="933.3351,-221.2957 943.7069,-223.4584 936.9475,-215.2998 933.3351,-221.2957"/>
</g>
<!-- Node46 -->
<g id="node10" class="node">
<title>Node46</title>
<g id="a_node10"><a xlink:href="lock_8cpp.html" target="_top" xlink:title="This file provides unit tests for the ArgoDSM locks. ">
<polygon fill="#ffffff" stroke="#000000" points="1790,-.5 1790,-30.5 1951,-30.5 1951,-.5 1790,-.5"/>
<text text-anchor="start" x="1798" y="-18.5" font-family="Helvetica,sans-Serif" font-size="10.00" fill="#000000">/home/atmerhannah/argodsm</text>
<text text-anchor="middle" x="1870.5" y="-7.5" font-family="Helvetica,sans-Serif" font-size="10.00" fill="#000000">/tests/lock.cpp</text>
</a>
</g>
</g>
<!-- Node37&#45;&gt;Node46 -->
<g id="edge21" class="edge">
<title>Node37&#45;&gt;Node46</title>
<path fill="none" stroke="#191970" d="M1079.4546,-241.5515C1230.4543,-236.5359 1525.9256,-222.4205 1623.5,-187 1722.3798,-151.1056 1818.6278,-65.4655 1855.127,-30.6284"/>
<polygon fill="#191970" stroke="#191970" points="1079.1598,-238.0591 1069.279,-241.8829 1079.3877,-245.0554 1079.1598,-238.0591"/>
</g>
<!-- Node47 -->
<g id="node11" class="node">
<title>Node47</title>
<g id="a_node11"><a xlink:href="omp_8cpp.html" target="_top" xlink:title="This file provides tests using OpenMP in ArgoDSM. ">
<polygon fill="#ffffff" stroke="#000000" points="1432,-.5 1432,-30.5 1593,-30.5 1593,-.5 1432,-.5"/>
<text text-anchor="start" x="1440" y="-18.5" font-family="Helvetica,sans-Serif" font-size="10.00" fill="#000000">/home/atmerhannah/argodsm</text>
<text text-anchor="middle" x="1512.5" y="-7.5" font-family="Helvetica,sans-Serif" font-size="10.00" fill="#000000">/tests/omp.cpp</text>
</a>
</g>
</g>
<!-- Node37&#45;&gt;Node47 -->
<g id="edge22" class="edge">
<title>Node37&#45;&gt;Node47</title>
<path fill="none" stroke="#191970" d="M1042.4673,-219.1C1118.4214,-184.2337 1261.3543,-119.2726 1384.5,-67 1414.3767,-54.318 1448.486,-40.6331 1473.9772,-30.5599"/>
<polygon fill="#191970" stroke="#191970" points="1040.7219,-216.0501 1033.096,-223.4051 1043.6441,-222.411 1040.7219,-216.0501"/>
</g>
<!-- Node48 -->
<g id="node12" class="node">
<title>Node48</title>
<g id="a_node12"><a xlink:href="prefetch_8cpp.html" target="_top" xlink:title="This file provides unit tests for the ArgoDSM prefetch mechanism. ">
<polygon fill="#ffffff" stroke="#000000" points="1611,-.5 1611,-30.5 1772,-30.5 1772,-.5 1611,-.5"/>
<text text-anchor="start" x="1619" y="-18.5" font-family="Helvetica,sans-Serif" font-size="10.00" fill="#000000">/home/atmerhannah/argodsm</text>
<text text-anchor="middle" x="1691.5" y="-7.5" font-family="Helvetica,sans-Serif" font-size="10.00" fill="#000000">/tests/prefetch.cpp</text>
</a>
</g>
</g>
<!-- Node37&#45;&gt;Node48 -->
<g id="edge23" class="edge">
<title>Node37&#45;&gt;Node48</title>
<path fill="none" stroke="#191970" d="M1066.3468,-220.5107C1099.4433,-210.3959 1138.4203,-198.3143 1173.5,-187 1332.4083,-135.747 1370.8219,-118.9612 1529.5,-67 1567.6433,-54.5095 1610.98,-40.7555 1643.2271,-30.6056"/>
<polygon fill="#191970" stroke="#191970" points="1065.2701,-217.1798 1056.7269,-223.446 1067.3131,-223.8751 1065.2701,-217.1798"/>
</g>
<!-- Node52 -->
<g id="node16" class="node">
<title>Node52</title>
<g id="a_node16"><a xlink:href="cohort__lock_8hpp.html" target="_top" xlink:title="This file provides a cohort lock for the ArgoDSM system. ">
<polygon fill="#ffffff" stroke="#000000" points="1453,-145.5 1453,-186.5 1614,-186.5 1614,-145.5 1453,-145.5"/>
<text text-anchor="start" x="1461" y="-174.5" font-family="Helvetica,sans-Serif" font-size="10.00" fill="#000000">/home/atmerhannah/argodsm</text>
<text text-anchor="start" x="1461" y="-163.5" font-family="Helvetica,sans-Serif" font-size="10.00" fill="#000000">/src/synchronization/cohort</text>
<text text-anchor="middle" x="1533.5" y="-152.5" font-family="Helvetica,sans-Serif" font-size="10.00" fill="#000000">_lock.hpp</text>
</a>
</g>
</g>
<!-- Node37&#45;&gt;Node52 -->
<g id="edge16" class="edge">
<title>Node37&#45;&gt;Node52</title>
<path fill="none" stroke="#191970" d="M1079.1115,-232.8368C1165.0579,-222.0075 1297.7542,-204.6635 1412.5,-187 1425.5651,-184.9888 1439.399,-182.72 1452.8631,-180.4364"/>
<polygon fill="#191970" stroke="#191970" points="1078.6118,-229.3719 1069.1265,-234.0921 1079.485,-236.3173 1078.6118,-229.3719"/>
</g>
<!-- Node40 -->
<g id="node4" class="node">
<title>Node40</title>
<g id="a_node4"><a xlink:href="argo_8hpp.html" target="_top" xlink:title="This file provides the full C++ interface to ArgoDSM. ">
<polygon fill="#ffffff" stroke="#000000" points="908,-73 908,-103 1069,-103 1069,-73 908,-73"/>
<text text-anchor="start" x="916" y="-91" font-family="Helvetica,sans-Serif" font-size="10.00" fill="#000000">/home/atmerhannah/argodsm</text>
<text text-anchor="middle" x="988.5" y="-80" font-family="Helvetica,sans-Serif" font-size="10.00" fill="#000000">/src/argo.hpp</text>
</a>
</g>
</g>
<!-- Node39&#45;&gt;Node40 -->
<g id="edge3" class="edge">
<title>Node39&#45;&gt;Node40</title>
<path fill="none" stroke="#191970" d="M988.5,-140.7875C988.5,-128.4187 988.5,-113.9264 988.5,-103.2592"/>
<polygon fill="#191970" stroke="#191970" points="985.0001,-140.9608 988.5,-150.9608 992.0001,-140.9608 985.0001,-140.9608"/>
</g>
<!-- Node40&#45;&gt;Node41 -->
<g id="edge4" class="edge">
<title>Node40&#45;&gt;Node41</title>
<path fill="none" stroke="#191970" d="M897.5661,-75.69C871.7283,-72.5029 843.5382,-69.3195 817.5,-67 530.1936,-41.4064 456.073,-63.8009 169.5,-31 166.851,-30.6968 164.1614,-30.3655 161.4482,-30.0112"/>
<polygon fill="#191970" stroke="#191970" points="897.364,-79.1918 907.7205,-76.9573 898.231,-72.2457 897.364,-79.1918"/>
</g>
<!-- Node40&#45;&gt;Node42 -->
<g id="edge5" class="edge">
<title>Node40&#45;&gt;Node42</title>
<path fill="none" stroke="#191970" d="M897.5955,-72.5857C883.5278,-70.5075 869.143,-68.5585 855.5,-67 631.0591,-41.3604 572.731,-58.4147 348.5,-31 345.8534,-30.6764 343.1659,-30.3275 340.4545,-29.9579"/>
<polygon fill="#191970" stroke="#191970" points="897.358,-76.0894 907.7678,-74.1181 898.4007,-69.1675 897.358,-76.0894"/>
</g>
<!-- Node40&#45;&gt;Node43 -->
<g id="edge6" class="edge">
<title>Node40&#45;&gt;Node43</title>
<path fill="none" stroke="#191970" d="M915.7741,-70.9954C908.2748,-69.5205 900.7492,-68.1535 893.5,-67 732.0792,-41.3143 689.4593,-53.0373 527.5,-31 524.8581,-30.6405 522.1746,-30.2604 519.4666,-29.8641"/>
<polygon fill="#191970" stroke="#191970" points="915.0957,-74.429 925.592,-72.9874 916.4877,-67.5688 915.0957,-74.429"/>
</g>
<!-- Node44 -->
<g id="node8" class="node">
<title>Node44</title>
<g id="a_node8"><a xlink:href="backend_8cpp.html" target="_top" xlink:title="This file provides tests for the backends. ">
<polygon fill="#ffffff" stroke="#000000" points="895,-.5 895,-30.5 1056,-30.5 1056,-.5 895,-.5"/>
<text text-anchor="start" x="903" y="-18.5" font-family="Helvetica,sans-Serif" font-size="10.00" fill="#000000">/home/atmerhannah/argodsm</text>
<text text-anchor="middle" x="975.5" y="-7.5" font-family="Helvetica,sans-Serif" font-size="10.00" fill="#000000">/tests/backend.cpp</text>
</a>
</g>
</g>
<!-- Node40&#45;&gt;Node44 -->
<g id="edge7" class="edge">
<title>Node40&#45;&gt;Node44</title>
<path fill="none" stroke="#191970" d="M983.9887,-62.8409C982.0556,-52.0601 979.8628,-39.8309 978.1902,-30.5028"/>
<polygon fill="#191970" stroke="#191970" points="980.5963,-63.7527 985.8064,-72.978 987.4864,-62.5172 980.5963,-63.7527"/>
</g>
<!-- Node45 -->
<g id="node9" class="node">
<title>Node45</title>
<g id="a_node9"><a xlink:href="barrier_8cpp.html" target="_top" xlink:title="This file provides tests for the barrier synchronization. ">
<polygon fill="#ffffff" stroke="#000000" points="1074,-.5 1074,-30.5 1235,-30.5 1235,-.5 1074,-.5"/>
<text text-anchor="start" x="1082" y="-18.5" font-family="Helvetica,sans-Serif" font-size="10.00" fill="#000000">/home/atmerhannah/argodsm</text>
<text text-anchor="middle" x="1154.5" y="-7.5" font-family="Helvetica,sans-Serif" font-size="10.00" fill="#000000">/tests/barrier.cpp</text>
</a>
</g>
</g>
<!-- Node40&#45;&gt;Node45 -->
<g id="edge8" class="edge">
<title>Node40&#45;&gt;Node45</title>
<path fill="none" stroke="#191970" d="M1032.2756,-68.8811C1059.7515,-56.8811 1094.6747,-41.6285 1120.1488,-30.5028"/>
<polygon fill="#191970" stroke="#191970" points="1030.6586,-65.7681 1022.8953,-72.978 1033.4603,-72.1829 1030.6586,-65.7681"/>
</g>
<!-- Node40&#45;&gt;Node46 -->
<g id="edge9" class="edge">
<title>Node40&#45;&gt;Node46</title>
<path fill="none" stroke="#191970" d="M1079.6155,-84.4357C1227.3873,-77.9856 1528.3017,-62.0679 1781.5,-31 1784.1464,-30.6753 1786.8338,-30.3253 1789.5451,-29.9549"/>
<polygon fill="#191970" stroke="#191970" points="1079.0829,-80.9554 1069.2433,-84.8839 1079.3851,-87.9489 1079.0829,-80.9554"/>
</g>
<!-- Node40&#45;&gt;Node47 -->
<g id="edge10" class="edge">
<title>Node40&#45;&gt;Node47</title>
<path fill="none" stroke="#191970" d="M1079.18,-77.247C1167.2853,-66.533 1304.7789,-49.1081 1423.5,-31 1426.2908,-30.5743 1429.1292,-30.1319 1431.9947,-29.6771"/>
<polygon fill="#191970" stroke="#191970" points="1078.7231,-73.7767 1069.2174,-78.4555 1079.5661,-80.7258 1078.7231,-73.7767"/>
</g>
<!-- Node40&#45;&gt;Node48 -->
<g id="edge11" class="edge">
<title>Node40&#45;&gt;Node48</title>
<path fill="none" stroke="#191970" d="M1079.4369,-81.8388C1199.5193,-73.1815 1417.414,-55.6681 1602.5,-31 1605.1429,-30.6478 1607.8273,-30.2739 1610.5359,-29.883"/>
<polygon fill="#191970" stroke="#191970" points="1078.9139,-78.3672 1069.1897,-82.5731 1079.4143,-85.3493 1078.9139,-78.3672"/>
</g>
<!-- Node49 -->
<g id="node13" class="node">
<title>Node49</title>
<g id="a_node13"><a xlink:href="stlallocation_8cpp.html" target="_top" xlink:title="This file provides tests using C++ interfaces in ArgoDSM. ">
<polygon fill="#ffffff" stroke="#000000" points="1253,-.5 1253,-30.5 1414,-30.5 1414,-.5 1253,-.5"/>
<text text-anchor="start" x="1261" y="-18.5" font-family="Helvetica,sans-Serif" font-size="10.00" fill="#000000">/home/atmerhannah/argodsm</text>
<text text-anchor="middle" x="1333.5" y="-7.5" font-family="Helvetica,sans-Serif" font-size="10.00" fill="#000000">/tests/stlallocation.cpp</text>
</a>
</g>
</g>
<!-- Node40&#45;&gt;Node49 -->
<g id="edge12" class="edge">
<title>Node40&#45;&gt;Node49</title>
<path fill="none" stroke="#191970" d="M1069.9104,-70.892C1128.279,-58.6261 1206.1588,-42.2601 1262.1074,-30.5028"/>
<polygon fill="#191970" stroke="#191970" points="1069.0507,-67.4962 1059.9842,-72.978 1070.4903,-74.3465 1069.0507,-67.4962"/>
</g>
<!-- Node50 -->
<g id="node14" class="node">
<title>Node50</title>
<g id="a_node14"><a xlink:href="trivial_8cpp.html" target="_top" xlink:title="This file provides unit tests for trivial sanity checks when using ArgoDSM. ">
<polygon fill="#ffffff" stroke="#000000" points="537,-.5 537,-30.5 698,-30.5 698,-.5 537,-.5"/>
<text text-anchor="start" x="545" y="-18.5" font-family="Helvetica,sans-Serif" font-size="10.00" fill="#000000">/home/atmerhannah/argodsm</text>
<text text-anchor="middle" x="617.5" y="-7.5" font-family="Helvetica,sans-Serif" font-size="10.00" fill="#000000">/tests/trivial.cpp</text>
</a>
</g>
</g>
<!-- Node40&#45;&gt;Node50 -->
<g id="edge13" class="edge">
<title>Node40&#45;&gt;Node50</title>
<path fill="none" stroke="#191970" d="M912.0265,-70.8653C905.7641,-69.5322 899.5282,-68.2283 893.5,-67 827.9463,-53.6424 753.3506,-39.8047 698.251,-29.841"/>
<polygon fill="#191970" stroke="#191970" points="911.3513,-74.3 921.8632,-72.9775 912.8209,-67.456 911.3513,-74.3"/>
</g>
<!-- Node51 -->
<g id="node15" class="node">
<title>Node51</title>
<g id="a_node15"><a xlink:href="uninitialized_8cpp.html" target="_top" xlink:title="This file provides unit tests for accessing ArgoDSM memory in various ways. ">
<polygon fill="#ffffff" stroke="#000000" points="716,-.5 716,-30.5 877,-30.5 877,-.5 716,-.5"/>
<text text-anchor="start" x="724" y="-18.5" font-family="Helvetica,sans-Serif" font-size="10.00" fill="#000000">/home/atmerhannah/argodsm</text>
<text text-anchor="middle" x="796.5" y="-7.5" font-family="Helvetica,sans-Serif" font-size="10.00" fill="#000000">/tests/uninitialized.cpp</text>
</a>
</g>
</g>
<!-- Node40&#45;&gt;Node51 -->
<g id="edge14" class="edge">
<title>Node40&#45;&gt;Node51</title>
<path fill="none" stroke="#191970" d="M939.1125,-69.3511C907.1488,-57.2814 866.0815,-41.7743 836.2316,-30.5028"/>
<polygon fill="#191970" stroke="#191970" points="938.1258,-72.7196 948.7175,-72.978 940.5986,-66.171 938.1258,-72.7196"/>
</g>
<!-- Node52&#45;&gt;Node46 -->
<g id="edge18" class="edge">
<title>Node52&#45;&gt;Node46</title>
<path fill="none" stroke="#191970" d="M1531.1682,-135.1419C1531.2958,-113.0667 1535.4383,-84.3059 1553.5,-67 1590.5373,-31.5127 1730.8982,-39.4007 1781.5,-31 1784.285,-30.5376 1787.1184,-30.0637 1789.9795,-29.582"/>
<polygon fill="#191970" stroke="#191970" points="1527.6736,-135.4386 1531.3847,-145.3622 1534.6721,-135.2903 1527.6736,-135.4386"/>
</g>
<!-- Node53 -->
<g id="node17" class="node">
<title>Node53</title>
<g id="a_node17"><a xlink:href="cohort__lock_8cpp_source.html" target="_top" xlink:title="/home/atmerhannah/argodsm\l/src/synchronization/cohort\l_lock.cpp">
<polygon fill="#ffffff" stroke="#000000" points="1562,-67.5 1562,-108.5 1723,-108.5 1723,-67.5 1562,-67.5"/>
<text text-anchor="start" x="1570" y="-96.5" font-family="Helvetica,sans-Serif" font-size="10.00" fill="#000000">/home/atmerhannah/argodsm</text>
<text text-anchor="start" x="1570" y="-85.5" font-family="Helvetica,sans-Serif" font-size="10.00" fill="#000000">/src/synchronization/cohort</text>
<text text-anchor="middle" x="1642.5" y="-74.5" font-family="Helvetica,sans-Serif" font-size="10.00" fill="#000000">_lock.cpp</text>
</a>
</g>
</g>
<!-- Node52&#45;&gt;Node53 -->
<g id="edge17" class="edge">
<title>Node52&#45;&gt;Node53</title>
<path fill="none" stroke="#191970" d="M1570.9133,-139.2272C1584.959,-129.1761 1600.6892,-117.9196 1613.8192,-108.5239"/>
<polygon fill="#191970" stroke="#191970" points="1568.5193,-136.6364 1562.4238,-145.3022 1572.593,-142.329 1568.5193,-136.6364"/>
</g>
</g>
</svg>
