<?xml version="1.0" encoding="UTF-8" standalone="no"?>
<!DOCTYPE svg PUBLIC "-//W3C//DTD SVG 1.1//EN"
 "http://www.w3.org/Graphics/SVG/1.1/DTD/svg11.dtd">
<!-- Generated by graphviz version 2.40.1 (20161225.0304)
 -->
<!-- Title: /home/atmerhannah/argodsm/src/allocators/collective_allocator.hpp Pages: 1 -->
<!--zoomable 587 -->
<svg id="main" version="1.1" xmlns="http://www.w3.org/2000/svg" xmlns:xlink="http://www.w3.org/1999/xlink" xml:space="preserve" onload="init(evt)">
<style type="text/css"><![CDATA[
.edge:hover path { stroke: red; }
.edge:hover polygon { stroke: red; fill: red; }
]]></style>
<script type="text/javascript"><![CDATA[
var edges = document.getElementsByTagName('g');
if (edges && edges.length) {
  for (var i=0;i<edges.length;i++) {
    if (edges[i].id.substr(0,4)=='edge') {
      edges[i].setAttribute('class','edge');
    }
  }
}
]]></script>
        <defs>
                <circle id="rim" cx="0" cy="0" r="7"/>
                <circle id="rim2" cx="0" cy="0" r="3.5"/>
                <g id="zoomPlus">
                        <use xlink:href="#rim" fill="#404040">
                                <set attributeName="fill" to="#808080" begin="zoomplus.mouseover" end="zoomplus.mouseout"/>
                        </use>
                        <path d="M-4,0h8M0,-4v8" fill="none" stroke="white" stroke-width="1.5" pointer-events="none"/>
                </g>
                <g id="zoomMin">
                        <use xlink:href="#rim" fill="#404040">
                                <set attributeName="fill" to="#808080" begin="zoomminus.mouseover" end="zoomminus.mouseout"/>
                        </use>
                        <path d="M-4,0h8" fill="none" stroke="white" stroke-width="1.5" pointer-events="none"/>
                </g>
                <g id="dirArrow">
                        <path fill="none" stroke="white" stroke-width="1.5" d="M0,-3.0v7 M-2.5,-0.5L0,-3.0L2.5,-0.5"/>
                </g>
               <g id="resetDef">
                       <use xlink:href="#rim2" fill="#404040">
                               <set attributeName="fill" to="#808080" begin="reset.mouseover" end="reset.mouseout"/>
                       </use>
               </g>
        </defs>

<script type="text/javascript">
var viewWidth = 1465;
var viewHeight = 587;
var sectionId = 'dynsection-0';
</script>
<script xlink:href="svgpan.js"/>
<svg id="graph" class="graph">
<g id="viewport">
<title>/home/atmerhannah/argodsm/src/allocators/collective_allocator.hpp</title>
<polygon fill="#ffffff" stroke="transparent" points="-4,4 -4,-583 1461,-583 1461,4 -4,4"/>
<!-- Node0 -->
<g id="node1" class="node">
<title>Node0</title>
<polygon fill="#bfbfbf" stroke="#000000" points="745.5,-537.5 745.5,-578.5 906.5,-578.5 906.5,-537.5 745.5,-537.5"/>
<text text-anchor="start" x="753.5" y="-566.5" font-family="Helvetica,sans-Serif" font-size="10.00" fill="#000000">/home/atmerhannah/argodsm</text>
<text text-anchor="start" x="753.5" y="-555.5" font-family="Helvetica,sans-Serif" font-size="10.00" fill="#000000">/src/allocators/collective</text>
<text text-anchor="middle" x="826" y="-544.5" font-family="Helvetica,sans-Serif" font-size="10.00" fill="#000000">_allocator.hpp</text>
</g>
<!-- Node1 -->
<g id="node2" class="node">
<title>Node1</title>
<polygon fill="#ffffff" stroke="#bfbfbf" points="942,-353 942,-372 980,-372 980,-353 942,-353"/>
<text text-anchor="middle" x="961" y="-360" font-family="Helvetica,sans-Serif" font-size="10.00" fill="#000000">map</text>
</g>
<!-- Node0&#45;&gt;Node1 -->
<g id="edge1" class="edge">
<title>Node0&#45;&gt;Node1</title>
<path fill="none" stroke="#191970" d="M813.6463,-537.0912C797.5534,-506.8165 774.5274,-450.4212 802,-414 837.0724,-367.5035 873.466,-398.4462 928,-378 929.5891,-377.4042 931.2074,-376.7632 932.8312,-376.0929"/>
<polygon fill="#191970" stroke="#191970" points="934.2851,-379.2771 942.0287,-372.0462 931.4659,-372.8699 934.2851,-379.2771"/>
</g>
<!-- Node2 -->
<g id="node3" class="node">
<title>Node2</title>
<polygon fill="#ffffff" stroke="#bfbfbf" points="413,-353 413,-372 471,-372 471,-353 413,-353"/>
<text text-anchor="middle" x="442" y="-360" font-family="Helvetica,sans-Serif" font-size="10.00" fill="#000000">memory</text>
</g>
<!-- Node0&#45;&gt;Node2 -->
<g id="edge2" class="edge">
<title>Node0&#45;&gt;Node2</title>
<path fill="none" stroke="#191970" d="M785.6311,-537.4476C707.4458,-497.6423 537.1588,-410.9467 470.0192,-376.765"/>
<polygon fill="#191970" stroke="#191970" points="471.3846,-373.5327 460.8851,-372.1147 468.2087,-379.7708 471.3846,-373.5327"/>
</g>
<!-- Node3 -->
<g id="node4" class="node">
<title>Node3</title>
<polygon fill="#ffffff" stroke="#bfbfbf" points="1149.5,-353 1149.5,-372 1192.5,-372 1192.5,-353 1149.5,-353"/>
<text text-anchor="middle" x="1171" y="-360" font-family="Helvetica,sans-Serif" font-size="10.00" fill="#000000">stack</text>
</g>
<!-- Node0&#45;&gt;Node3 -->
<g id="edge3" class="edge">
<title>Node0&#45;&gt;Node3</title>
<path fill="none" stroke="#191970" d="M906.8555,-550.2689C1027.0496,-536.9033 1243.7051,-504.9684 1290,-445 1317.9336,-408.8161 1246.1469,-382.4118 1202.2088,-370.1498"/>
<polygon fill="#191970" stroke="#191970" points="1203.074,-366.7582 1192.5083,-367.5439 1201.2578,-373.5185 1203.074,-366.7582"/>
</g>
<!-- Node4 -->
<g id="node5" class="node">
<title>Node4</title>
<g id="a_node5"><a xlink:href="dynamic__mempool_8hpp.html" target="_top" xlink:title="This file provides a dynamically growing memory pool for ArgoDSM. ">
<polygon fill="#ffffff" stroke="#000000" points="235,-414.5 235,-444.5 357,-444.5 357,-414.5 235,-414.5"/>
<text text-anchor="start" x="243" y="-432.5" font-family="Helvetica,sans-Serif" font-size="10.00" fill="#000000">../mempools/dynamic</text>
<text text-anchor="middle" x="296" y="-421.5" font-family="Helvetica,sans-Serif" font-size="10.00" fill="#000000">_mempool.hpp</text>
</a>
</g>
</g>
<!-- Node0&#45;&gt;Node4 -->
<g id="edge4" class="edge">
<title>Node0&#45;&gt;Node4</title>
<path fill="none" stroke="#191970" d="M745.2138,-553.9503C632.726,-547.2871 435.4613,-531.5891 371,-501 347.887,-490.0321 327.3086,-469.1854 313.5813,-452.8201"/>
<polygon fill="#191970" stroke="#191970" points="316.0607,-450.3199 307.0502,-444.7466 310.6185,-454.7225 316.0607,-450.3199"/>
</g>
<!-- Node5 -->
<g id="node6" class="node">
<title>Node5</title>
<g id="a_node6"><a xlink:href="backend_8hpp.html" target="_top" xlink:title="This file provides the backend interface. ">
<polygon fill="#ffffff" stroke="#000000" points="392,-291.5 392,-310.5 524,-310.5 524,-291.5 392,-291.5"/>
<text text-anchor="middle" x="458" y="-298.5" font-family="Helvetica,sans-Serif" font-size="10.00" fill="#000000">../backend/backend.hpp</text>
</a>
</g>
</g>
<!-- Node0&#45;&gt;Node5 -->
<g id="edge47" class="edge">
<title>Node0&#45;&gt;Node5</title>
<path fill="none" stroke="#191970" d="M745.2333,-550.3658C644.7261,-535.9858 477.3964,-494.856 404,-378 396.6719,-366.3327 398.2237,-359.5085 404,-347 409.8259,-334.384 421.0069,-323.9528 431.6905,-316.2314"/>
<polygon fill="#191970" stroke="#191970" points="433.6856,-319.1076 440.0401,-310.6299 429.7858,-313.2946 433.6856,-319.1076"/>
</g>
<!-- Node26 -->
<g id="node27" class="node">
<title>Node26</title>
<g id="a_node27"><a xlink:href="global__mempool_8hpp.html" target="_top" xlink:title="This file provides a dynamically growing memory pool for ArgoDSM. ">
<polygon fill="#ffffff" stroke="#000000" points="645,-414.5 645,-444.5 755,-444.5 755,-414.5 645,-414.5"/>
<text text-anchor="start" x="653" y="-432.5" font-family="Helvetica,sans-Serif" font-size="10.00" fill="#000000">../mempools/global</text>
<text text-anchor="middle" x="700" y="-421.5" font-family="Helvetica,sans-Serif" font-size="10.00" fill="#000000">_mempool.hpp</text>
</a>
</g>
</g>
<!-- Node0&#45;&gt;Node26 -->
<g id="edge34" class="edge">
<title>Node0&#45;&gt;Node26</title>
<path fill="none" stroke="#191970" d="M805.0647,-537.2425C794.25,-526.4747 780.867,-513.08 769,-501 752.9857,-484.6982 735.0693,-466.1224 721.5073,-451.991"/>
<polygon fill="#191970" stroke="#191970" points="723.9074,-449.437 714.4606,-444.6402 718.8542,-454.2811 723.9074,-449.437"/>
</g>
<!-- Node33 -->
<g id="node34" class="node">
<title>Node33</title>
<g id="a_node34"><a xlink:href="dynamic__allocator_8hpp.html" target="_top" xlink:title="This file provides the dynamic allocator for ArgoDSM. ">
<polygon fill="#ffffff" stroke="#000000" points="897.5,-481.5 897.5,-500.5 1024.5,-500.5 1024.5,-481.5 897.5,-481.5"/>
<text text-anchor="middle" x="961" y="-488.5" font-family="Helvetica,sans-Serif" font-size="10.00" fill="#000000">dynamic_allocator.hpp</text>
</a>
</g>
</g>
<!-- Node0&#45;&gt;Node33 -->
<g id="edge48" class="edge">
<title>Node0&#45;&gt;Node33</title>
<path fill="none" stroke="#191970" d="M867.606,-537.3511C888.6817,-526.8913 913.7271,-514.4614 932.5739,-505.1077"/>
<polygon fill="#191970" stroke="#191970" points="934.1451,-508.2354 941.5466,-500.6546 931.0331,-501.9651 934.1451,-508.2354"/>
</g>
<!-- Node34 -->
<g id="node35" class="node">
<title>Node34</title>
<g id="a_node35"><a xlink:href="generic__allocator_8hpp.html" target="_top" xlink:title="This file provides a generic allocator template for ArgoDSM. ">
<polygon fill="#ffffff" stroke="#000000" points="811.5,-420 811.5,-439 932.5,-439 932.5,-420 811.5,-420"/>
<text text-anchor="middle" x="872" y="-427" font-family="Helvetica,sans-Serif" font-size="10.00" fill="#000000">generic_allocator.hpp</text>
</a>
</g>
</g>
<!-- Node0&#45;&gt;Node34 -->
<g id="edge60" class="edge">
<title>Node0&#45;&gt;Node34</title>
<path fill="none" stroke="#191970" d="M833.3907,-537.3543C842.1121,-512.9912 856.5031,-472.7903 865.0349,-448.9568"/>
<polygon fill="#191970" stroke="#191970" points="868.4261,-449.8683 868.5012,-439.2738 861.8356,-447.5091 868.4261,-449.8683"/>
</g>
<!-- Node35 -->
<g id="node36" class="node">
<title>Node35</title>
<g id="a_node36"><a xlink:href="null__lock_8hpp.html" target="_top" xlink:title="dummy lock, not intended for public use ">
<polygon fill="#ffffff" stroke="#000000" points="1199.5,-420 1199.5,-439 1280.5,-439 1280.5,-420 1199.5,-420"/>
<text text-anchor="middle" x="1240" y="-427" font-family="Helvetica,sans-Serif" font-size="10.00" fill="#000000">null_lock.hpp</text>
</a>
</g>
</g>
<!-- Node0&#45;&gt;Node35 -->
<g id="edge61" class="edge">
<title>Node0&#45;&gt;Node35</title>
<path fill="none" stroke="#191970" d="M905.8708,-537.4461C944.7145,-527.1111 991.9801,-514.034 1034,-501 1094.4598,-482.2462 1163.8253,-457.4869 1204.6681,-442.5684"/>
<polygon fill="#191970" stroke="#191970" points="1205.9826,-445.8143 1214.1682,-439.0877 1203.5745,-439.2416 1205.9826,-445.8143"/>
</g>
<!-- Node37 -->
<g id="node38" class="node">
<title>Node37</title>
<g id="a_node38"><a xlink:href="collective__allocator_8h.html" target="_top" xlink:title="This file provides the collective allocator for ArgoDSM. ">
<polygon fill="#ffffff" stroke="#000000" points="1337,-481.5 1337,-500.5 1457,-500.5 1457,-481.5 1337,-481.5"/>
<text text-anchor="middle" x="1397" y="-488.5" font-family="Helvetica,sans-Serif" font-size="10.00" fill="#000000">collective_allocator.h</text>
</a>
</g>
</g>
<!-- Node0&#45;&gt;Node37 -->
<g id="edge62" class="edge">
<title>Node0&#45;&gt;Node37</title>
<path fill="none" stroke="#191970" d="M906.5454,-549.2667C1004.8956,-538.4864 1176.2773,-519.3255 1323,-501 1324.2663,-500.8418 1325.5446,-500.6811 1326.8322,-500.5181"/>
<polygon fill="#191970" stroke="#191970" points="1327.3651,-503.9785 1336.8377,-499.2331 1326.4733,-497.0355 1327.3651,-503.9785"/>
</g>
<!-- Node4&#45;&gt;Node5 -->
<g id="edge5" class="edge">
<title>Node4&#45;&gt;Node5</title>
<path fill="none" stroke="#191970" d="M307.1422,-414.338C320.7449,-396.5808 345.1504,-367.0486 371,-347 387.5902,-334.1329 408.2991,-323.0196 425.3502,-314.9412"/>
<polygon fill="#191970" stroke="#191970" points="427.2856,-317.9035 434.9081,-310.5451 424.3605,-311.544 427.2856,-317.9035"/>
</g>
<!-- Node25 -->
<g id="node26" class="node">
<title>Node25</title>
<g id="a_node26"><a xlink:href="broadcast_8hpp.html" target="_top" xlink:title="This file provides a broadcasting facility for a single value. ">
<polygon fill="#ffffff" stroke="#000000" points="215.5,-347.5 215.5,-377.5 318.5,-377.5 318.5,-347.5 215.5,-347.5"/>
<text text-anchor="start" x="223.5" y="-365.5" font-family="Helvetica,sans-Serif" font-size="10.00" fill="#000000">../synchronization</text>
<text text-anchor="middle" x="267" y="-354.5" font-family="Helvetica,sans-Serif" font-size="10.00" fill="#000000">/broadcast.hpp</text>
</a>
</g>
</g>
<!-- Node4&#45;&gt;Node25 -->
<g id="edge31" class="edge">
<title>Node4&#45;&gt;Node25</title>
<path fill="none" stroke="#191970" d="M289.4195,-414.2967C285.9341,-406.2443 281.5681,-396.1574 277.6173,-387.0296"/>
<polygon fill="#191970" stroke="#191970" points="280.7388,-385.4301 273.5545,-377.6432 274.3148,-388.2107 280.7388,-385.4301"/>
</g>
<!-- Node6 -->
<g id="node7" class="node">
<title>Node6</title>
<polygon fill="#ffffff" stroke="#bfbfbf" points="509,-230 509,-249 561,-249 561,-230 509,-230"/>
<text text-anchor="middle" x="535" y="-237" font-family="Helvetica,sans-Serif" font-size="10.00" fill="#000000">cassert</text>
</g>
<!-- Node5&#45;&gt;Node6 -->
<g id="edge6" class="edge">
<title>Node5&#45;&gt;Node6</title>
<path fill="none" stroke="#191970" d="M470.0313,-291.3906C482.0107,-281.8227 500.6166,-266.9621 514.8525,-255.5919"/>
<polygon fill="#191970" stroke="#191970" points="517.4239,-258.0175 523.0532,-249.0419 513.0553,-252.5479 517.4239,-258.0175"/>
</g>
<!-- Node7 -->
<g id="node8" class="node">
<title>Node7</title>
<polygon fill="#ffffff" stroke="#bfbfbf" points="357,-230 357,-249 407,-249 407,-230 357,-230"/>
<text text-anchor="middle" x="382" y="-237" font-family="Helvetica,sans-Serif" font-size="10.00" fill="#000000">cstdint</text>
</g>
<!-- Node5&#45;&gt;Node7 -->
<g id="edge7" class="edge">
<title>Node5&#45;&gt;Node7</title>
<path fill="none" stroke="#191970" d="M446.125,-291.3906C434.3703,-281.8786 416.1514,-267.1357 402.1328,-255.7917"/>
<polygon fill="#191970" stroke="#191970" points="404.0178,-252.8146 394.0424,-249.2449 399.6144,-258.2562 404.0178,-252.8146"/>
</g>
<!-- Node8 -->
<g id="node9" class="node">
<title>Node8</title>
<polygon fill="#ffffff" stroke="#bfbfbf" points="425.5,-230 425.5,-249 490.5,-249 490.5,-230 425.5,-230"/>
<text text-anchor="middle" x="458" y="-237" font-family="Helvetica,sans-Serif" font-size="10.00" fill="#000000">stdexcept</text>
</g>
<!-- Node5&#45;&gt;Node8 -->
<g id="edge8" class="edge">
<title>Node5&#45;&gt;Node8</title>
<path fill="none" stroke="#191970" d="M458,-291.3906C458,-282.8657 458,-270.1392 458,-259.4235"/>
<polygon fill="#191970" stroke="#191970" points="461.5001,-259.2448 458,-249.2449 454.5001,-259.2449 461.5001,-259.2448"/>
</g>
<!-- Node9 -->
<g id="node10" class="node">
<title>Node9</title>
<g id="a_node10"><a xlink:href="global__ptr_8hpp.html" target="_top" xlink:title="This file provides the global pointer for ArgoDSM. ">
<polygon fill="#ffffff" stroke="#000000" points="595,-224.5 595,-254.5 703,-254.5 703,-224.5 595,-224.5"/>
<text text-anchor="start" x="603" y="-242.5" font-family="Helvetica,sans-Serif" font-size="10.00" fill="#000000">../data_distribution</text>
<text text-anchor="middle" x="649" y="-231.5" font-family="Helvetica,sans-Serif" font-size="10.00" fill="#000000">/global_ptr.hpp</text>
</a>
</g>
</g>
<!-- Node5&#45;&gt;Node9 -->
<g id="edge9" class="edge">
<title>Node5&#45;&gt;Node9</title>
<path fill="none" stroke="#191970" d="M487.8438,-291.3906C515.7277,-282.4123 558.0855,-268.7735 592.3782,-257.7316"/>
<polygon fill="#191970" stroke="#191970" points="593.8302,-260.9411 602.2761,-254.5446 591.6847,-254.278 593.8302,-260.9411"/>
</g>
<!-- Node18 -->
<g id="node19" class="node">
<title>Node18</title>
<g id="a_node19"><a xlink:href="types_8hpp.html" target="_top" xlink:title="This file defines common types used in ArgoDSM. ">
<polygon fill="#ffffff" stroke="#000000" points="0,-.5 0,-19.5 104,-19.5 104,-.5 0,-.5"/>
<text text-anchor="middle" x="52" y="-7.5" font-family="Helvetica,sans-Serif" font-size="10.00" fill="#000000">../types/types.hpp</text>
</a>
</g>
</g>
<!-- Node5&#45;&gt;Node18 -->
<g id="edge30" class="edge">
<title>Node5&#45;&gt;Node18</title>
<path fill="none" stroke="#191970" d="M391.8655,-294.7414C276.8206,-282.0085 52,-248.1514 52,-178 52,-178 52,-178 52,-122 52,-89.7116 52,-52.1872 52,-29.8048"/>
<polygon fill="#191970" stroke="#191970" points="55.5001,-29.5883 52,-19.5884 48.5001,-29.5884 55.5001,-29.5883"/>
</g>
<!-- Node10 -->
<g id="node11" class="node">
<title>Node10</title>
<polygon fill="#ffffff" stroke="#bfbfbf" points="635,-168.5 635,-187.5 679,-187.5 679,-168.5 635,-168.5"/>
<text text-anchor="middle" x="657" y="-175.5" font-family="Helvetica,sans-Serif" font-size="10.00" fill="#000000">string</text>
</g>
<!-- Node9&#45;&gt;Node10 -->
<g id="edge10" class="edge">
<title>Node9&#45;&gt;Node10</title>
<path fill="none" stroke="#191970" d="M650.9775,-224.2977C652.0186,-216.2945 653.3077,-206.3843 654.4258,-197.7889"/>
<polygon fill="#191970" stroke="#191970" points="657.8998,-198.2149 655.7191,-187.8469 650.9583,-197.3119 657.8998,-198.2149"/>
</g>
<!-- Node11 -->
<g id="node12" class="node">
<title>Node11</title>
<g id="a_node12"><a xlink:href="env_8hpp.html" target="_top" xlink:title="This file provides facilities for handling environment variables. ">
<polygon fill="#ffffff" stroke="#000000" points="220.5,-168.5 220.5,-187.5 305.5,-187.5 305.5,-168.5 220.5,-168.5"/>
<text text-anchor="middle" x="263" y="-175.5" font-family="Helvetica,sans-Serif" font-size="10.00" fill="#000000">../env/env.hpp</text>
</a>
</g>
</g>
<!-- Node9&#45;&gt;Node11 -->
<g id="edge11" class="edge">
<title>Node9&#45;&gt;Node11</title>
<path fill="none" stroke="#191970" d="M594.6632,-228.5054C586.4115,-226.9324 577.988,-225.3814 570,-224 481.0184,-208.6124 377,-193.6616 315.7477,-185.1678"/>
<polygon fill="#191970" stroke="#191970" points="315.9427,-181.6616 305.5577,-183.7596 314.9844,-188.5957 315.9427,-181.6616"/>
</g>
<!-- Node13 -->
<g id="node14" class="node">
<title>Node13</title>
<g id="a_node14"><a xlink:href="data__distribution_8hpp.html" target="_top" xlink:title="This file provides an abstraction layer for distributing the shared memory space. ...">
<polygon fill="#ffffff" stroke="#000000" points="497,-168.5 497,-187.5 617,-187.5 617,-168.5 497,-168.5"/>
<text text-anchor="middle" x="557" y="-175.5" font-family="Helvetica,sans-Serif" font-size="10.00" fill="#000000">data_distribution.hpp</text>
</a>
</g>
</g>
<!-- Node9&#45;&gt;Node13 -->
<g id="edge13" class="edge">
<title>Node9&#45;&gt;Node13</title>
<path fill="none" stroke="#191970" d="M626.2584,-224.2977C612.2033,-214.9022 594.217,-202.8787 580.0964,-193.4395"/>
<polygon fill="#191970" stroke="#191970" points="581.7143,-190.311 571.4556,-187.6633 577.8241,-196.1305 581.7143,-190.311"/>
</g>
<!-- Node12 -->
<g id="node13" class="node">
<title>Node12</title>
<polygon fill="#ffffff" stroke="#bfbfbf" points="80.5,-112.5 80.5,-131.5 133.5,-131.5 133.5,-112.5 80.5,-112.5"/>
<text text-anchor="middle" x="107" y="-119.5" font-family="Helvetica,sans-Serif" font-size="10.00" fill="#000000">cstddef</text>
</g>
<!-- Node11&#45;&gt;Node12 -->
<g id="edge12" class="edge">
<title>Node11&#45;&gt;Node12</title>
<path fill="none" stroke="#191970" d="M236.1826,-168.3733C210.4668,-159.1419 171.462,-145.1402 143.0401,-134.9375"/>
<polygon fill="#191970" stroke="#191970" points="144.0619,-131.5857 133.4674,-131.5011 141.6968,-138.174 144.0619,-131.5857"/>
</g>
<!-- Node14 -->
<g id="node15" class="node">
<title>Node14</title>
<g id="a_node15"><a xlink:href="base__distribution_8hpp.html" target="_top" xlink:title="This file implements the base distribution class for all the policies to derive from. ">
<polygon fill="#ffffff" stroke="#000000" points="499,-56.5 499,-75.5 621,-75.5 621,-56.5 499,-56.5"/>
<text text-anchor="middle" x="560" y="-63.5" font-family="Helvetica,sans-Serif" font-size="10.00" fill="#000000">base_distribution.hpp</text>
</a>
</g>
</g>
<!-- Node13&#45;&gt;Node14 -->
<g id="edge14" class="edge">
<title>Node13&#45;&gt;Node14</title>
<path fill="none" stroke="#191970" d="M549.7791,-168.3082C541.1845,-155.5711 528.6288,-132.4188 534,-112 536.6112,-102.0734 541.9067,-92.0366 547.0412,-83.8822"/>
<polygon fill="#191970" stroke="#191970" points="549.9463,-85.8342 552.6181,-75.5817 544.136,-81.9303 549.9463,-85.8342"/>
</g>
<!-- Node19 -->
<g id="node20" class="node">
<title>Node19</title>
<g id="a_node20"><a xlink:href="naive__distribution_8hpp.html" target="_top" xlink:title="This file implements the naive data distribution. ">
<polygon fill="#ffffff" stroke="#000000" points="543.5,-112.5 543.5,-131.5 668.5,-131.5 668.5,-112.5 543.5,-112.5"/>
<text text-anchor="middle" x="606" y="-119.5" font-family="Helvetica,sans-Serif" font-size="10.00" fill="#000000">naive_distribution.hpp</text>
</a>
</g>
</g>
<!-- Node13&#45;&gt;Node19 -->
<g id="edge19" class="edge">
<title>Node13&#45;&gt;Node19</title>
<path fill="none" stroke="#191970" d="M565.5351,-168.2455C572.4912,-160.2958 582.4883,-148.8706 590.8051,-139.3656"/>
<polygon fill="#191970" stroke="#191970" points="593.6116,-141.4732 597.5627,-131.6427 588.3436,-136.8637 593.6116,-141.4732"/>
</g>
<!-- Node20 -->
<g id="node21" class="node">
<title>Node20</title>
<g id="a_node21"><a xlink:href="cyclic__distribution_8hpp.html" target="_top" xlink:title="This file implements the cyclic data distribution. ">
<polygon fill="#ffffff" stroke="#000000" points="687,-112.5 687,-131.5 813,-131.5 813,-112.5 687,-112.5"/>
<text text-anchor="middle" x="750" y="-119.5" font-family="Helvetica,sans-Serif" font-size="10.00" fill="#000000">cyclic_distribution.hpp</text>
</a>
</g>
</g>
<!-- Node13&#45;&gt;Node20 -->
<g id="edge21" class="edge">
<title>Node13&#45;&gt;Node20</title>
<path fill="none" stroke="#191970" d="M590.1779,-168.3733C622.5487,-158.9807 671.9398,-144.6496 707.2424,-134.4064"/>
<polygon fill="#191970" stroke="#191970" points="708.6265,-137.6492 717.2551,-131.5011 706.6758,-130.9264 708.6265,-137.6492"/>
</g>
<!-- Node21 -->
<g id="node22" class="node">
<title>Node21</title>
<g id="a_node22"><a xlink:href="skew__mapp__distribution_8hpp.html" target="_top" xlink:title="This file implements the skew&#45;mapp data distribution. ">
<polygon fill="#ffffff" stroke="#000000" points="151.5,-112.5 151.5,-131.5 308.5,-131.5 308.5,-112.5 151.5,-112.5"/>
<text text-anchor="middle" x="230" y="-119.5" font-family="Helvetica,sans-Serif" font-size="10.00" fill="#000000">skew_mapp_distribution.hpp</text>
</a>
</g>
</g>
<!-- Node13&#45;&gt;Node21 -->
<g id="edge23" class="edge">
<title>Node13&#45;&gt;Node21</title>
<path fill="none" stroke="#191970" d="M501.1582,-168.4369C444.2542,-158.6918 356.0304,-143.5832 295.7764,-133.2645"/>
<polygon fill="#191970" stroke="#191970" points="296.0588,-129.7619 285.6114,-131.5237 294.8771,-136.6615 296.0588,-129.7619"/>
</g>
<!-- Node22 -->
<g id="node23" class="node">
<title>Node22</title>
<g id="a_node23"><a xlink:href="prime__mapp__distribution_8hpp.html" target="_top" xlink:title="This file implements the prime&#45;mapp data distribution. ">
<polygon fill="#ffffff" stroke="#000000" points="327,-112.5 327,-131.5 487,-131.5 487,-112.5 327,-112.5"/>
<text text-anchor="middle" x="407" y="-119.5" font-family="Helvetica,sans-Serif" font-size="10.00" fill="#000000">prime_mapp_distribution.hpp</text>
</a>
</g>
</g>
<!-- Node13&#45;&gt;Node22 -->
<g id="edge25" class="edge">
<title>Node13&#45;&gt;Node22</title>
<path fill="none" stroke="#191970" d="M531.2141,-168.3733C506.5953,-159.1822 469.31,-145.2624 442.0125,-135.0713"/>
<polygon fill="#191970" stroke="#191970" points="443.042,-131.7198 432.4494,-131.5011 440.5937,-138.2777 443.042,-131.7198"/>
</g>
<!-- Node23 -->
<g id="node24" class="node">
<title>Node23</title>
<g id="a_node24"><a xlink:href="first__touch__distribution_8hpp.html" target="_top" xlink:title="This file implements the first&#45;touch data distribution. ">
<polygon fill="#ffffff" stroke="#000000" points="831.5,-112.5 831.5,-131.5 980.5,-131.5 980.5,-112.5 831.5,-112.5"/>
<text text-anchor="middle" x="906" y="-119.5" font-family="Helvetica,sans-Serif" font-size="10.00" fill="#000000">first_touch_distribution.hpp</text>
</a>
</g>
</g>
<!-- Node13&#45;&gt;Node23 -->
<g id="edge27" class="edge">
<title>Node13&#45;&gt;Node23</title>
<path fill="none" stroke="#191970" d="M616.5987,-168.4369C677.5821,-158.6516 772.2692,-143.4582 836.5939,-133.1368"/>
<polygon fill="#191970" stroke="#191970" points="837.328,-136.5639 846.6471,-131.5237 836.2189,-129.6523 837.328,-136.5639"/>
</g>
<!-- Node15 -->
<g id="node16" class="node">
<title>Node15</title>
<polygon fill="#ffffff" stroke="#bfbfbf" points="493.5,-.5 493.5,-19.5 542.5,-19.5 542.5,-.5 493.5,-.5"/>
<text text-anchor="middle" x="518" y="-7.5" font-family="Helvetica,sans-Serif" font-size="10.00" fill="#000000">cstdlib</text>
</g>
<!-- Node14&#45;&gt;Node15 -->
<g id="edge15" class="edge">
<title>Node14&#45;&gt;Node15</title>
<path fill="none" stroke="#191970" d="M552.6842,-56.2455C546.7821,-48.3761 538.3258,-37.101 531.2406,-27.6542"/>
<polygon fill="#191970" stroke="#191970" points="534.0321,-25.5427 525.232,-19.6427 528.432,-29.7427 534.0321,-25.5427"/>
</g>
<!-- Node16 -->
<g id="node17" class="node">
<title>Node16</title>
<polygon fill="#ffffff" stroke="#bfbfbf" points="881,-.5 881,-19.5 941,-19.5 941,-.5 881,-.5"/>
<text text-anchor="middle" x="911" y="-7.5" font-family="Helvetica,sans-Serif" font-size="10.00" fill="#000000">iostream</text>
</g>
<!-- Node14&#45;&gt;Node16 -->
<g id="edge16" class="edge">
<title>Node14&#45;&gt;Node16</title>
<path fill="none" stroke="#191970" d="M619.9402,-56.4369C691.571,-45.0086 809.4368,-26.2038 870.8949,-16.3985"/>
<polygon fill="#191970" stroke="#191970" points="871.6513,-19.8222 880.975,-14.7903 870.5484,-12.9096 871.6513,-19.8222"/>
</g>
<!-- Node17 -->
<g id="node18" class="node">
<title>Node17</title>
<polygon fill="#ffffff" stroke="#bfbfbf" points="560.5,-.5 560.5,-19.5 641.5,-19.5 641.5,-.5 560.5,-.5"/>
<text text-anchor="middle" x="601" y="-7.5" font-family="Helvetica,sans-Serif" font-size="10.00" fill="#000000">system_error</text>
</g>
<!-- Node14&#45;&gt;Node17 -->
<g id="edge17" class="edge">
<title>Node14&#45;&gt;Node17</title>
<path fill="none" stroke="#191970" d="M567.1417,-56.2455C572.8444,-48.4564 580.99,-37.3308 587.8625,-27.9439"/>
<polygon fill="#191970" stroke="#191970" points="590.8568,-29.7789 593.9402,-19.6427 585.2087,-25.6437 590.8568,-29.7789"/>
</g>
<!-- Node14&#45;&gt;Node18 -->
<g id="edge18" class="edge">
<title>Node14&#45;&gt;Node18</title>
<path fill="none" stroke="#191970" d="M498.9758,-59.2729C401.7129,-48.551 212.5301,-27.6962 114.405,-16.8793"/>
<polygon fill="#191970" stroke="#191970" points="114.6609,-13.3864 104.3375,-15.7695 113.8938,-20.3442 114.6609,-13.3864"/>
</g>
<!-- Node19&#45;&gt;Node14 -->
<g id="edge20" class="edge">
<title>Node19&#45;&gt;Node14</title>
<path fill="none" stroke="#191970" d="M597.9874,-112.2455C591.5232,-104.3761 582.2615,-93.101 574.5017,-83.6542"/>
<polygon fill="#191970" stroke="#191970" points="576.9727,-81.1484 567.9208,-75.6427 571.5636,-85.5916 576.9727,-81.1484"/>
</g>
<!-- Node20&#45;&gt;Node14 -->
<g id="edge22" class="edge">
<title>Node20&#45;&gt;Node14</title>
<path fill="none" stroke="#191970" d="M717.3378,-112.3733C685.4702,-102.9807 636.8469,-88.6496 602.093,-78.4064"/>
<polygon fill="#191970" stroke="#191970" points="602.8175,-74.9711 592.236,-75.5011 600.8385,-81.6855 602.8175,-74.9711"/>
</g>
<!-- Node21&#45;&gt;Node14 -->
<g id="edge24" class="edge">
<title>Node21&#45;&gt;Node14</title>
<path fill="none" stroke="#191970" d="M286.3541,-112.4369C343.8989,-102.6717 433.1814,-87.5207 493.9967,-77.2006"/>
<polygon fill="#191970" stroke="#191970" points="494.6049,-80.6475 503.8784,-75.5237 493.4337,-73.7461 494.6049,-80.6475"/>
</g>
<!-- Node22&#45;&gt;Node14 -->
<g id="edge26" class="edge">
<title>Node22&#45;&gt;Node14</title>
<path fill="none" stroke="#191970" d="M433.3016,-112.3733C458.4128,-103.1822 496.4438,-89.2624 524.2872,-79.0713"/>
<polygon fill="#191970" stroke="#191970" points="525.8538,-82.2251 534.0416,-75.5011 523.4478,-75.6516 525.8538,-82.2251"/>
</g>
<!-- Node23&#45;&gt;Node14 -->
<g id="edge29" class="edge">
<title>Node23&#45;&gt;Node14</title>
<path fill="none" stroke="#191970" d="M846.9136,-112.4369C786.4544,-102.6516 692.5812,-87.4582 628.8095,-77.1368"/>
<polygon fill="#191970" stroke="#191970" points="629.2734,-73.6664 618.8427,-75.5237 628.155,-80.5765 629.2734,-73.6664"/>
</g>
<!-- Node24 -->
<g id="node25" class="node">
<title>Node24</title>
<polygon fill="#ffffff" stroke="#bfbfbf" points="926,-56.5 926,-75.5 974,-75.5 974,-56.5 926,-56.5"/>
<text text-anchor="middle" x="950" y="-63.5" font-family="Helvetica,sans-Serif" font-size="10.00" fill="#000000">mutex</text>
</g>
<!-- Node23&#45;&gt;Node24 -->
<g id="edge28" class="edge">
<title>Node23&#45;&gt;Node24</title>
<path fill="none" stroke="#191970" d="M913.6642,-112.2455C919.8473,-104.3761 928.7063,-93.101 936.1289,-83.6542"/>
<polygon fill="#191970" stroke="#191970" points="938.9975,-85.6683 942.4236,-75.6427 933.4932,-81.3435 938.9975,-85.6683"/>
</g>
<!-- Node25&#45;&gt;Node5 -->
<g id="edge32" class="edge">
<title>Node25&#45;&gt;Node5</title>
<path fill="none" stroke="#191970" d="M313.7239,-347.4554C345.8723,-337.104 388.1011,-323.5067 418.5564,-313.7004"/>
<polygon fill="#191970" stroke="#191970" points="419.9558,-316.9269 428.4018,-310.5303 417.8103,-310.2638 419.9558,-316.9269"/>
</g>
<!-- Node25&#45;&gt;Node18 -->
<g id="edge33" class="edge">
<title>Node25&#45;&gt;Node18</title>
<path fill="none" stroke="#191970" d="M215.4967,-348.6616C141.5233,-327.243 14,-283.8828 14,-239.5 14,-239.5 14,-239.5 14,-122 14,-87.6118 30.2634,-50.2832 41.511,-28.5791"/>
<polygon fill="#191970" stroke="#191970" points="44.7317,-29.9804 46.393,-19.5166 38.569,-26.6605 44.7317,-29.9804"/>
</g>
<!-- Node26&#45;&gt;Node2 -->
<g id="edge44" class="edge">
<title>Node26&#45;&gt;Node2</title>
<path fill="none" stroke="#191970" d="M644.7647,-418.0375C601.0696,-408.5463 538.6896,-394.053 485,-378 482.3818,-377.2172 479.6898,-376.3644 476.9913,-375.4748"/>
<polygon fill="#191970" stroke="#191970" points="477.9055,-372.0882 467.3108,-372.1505 475.6319,-378.7087 477.9055,-372.0882"/>
</g>
<!-- Node26&#45;&gt;Node5 -->
<g id="edge35" class="edge">
<title>Node26&#45;&gt;Node5</title>
<path fill="none" stroke="#191970" d="M644.8431,-423.0997C606.634,-416.5687 556.0055,-403.574 518,-378 495.6966,-362.992 477.9965,-337.0194 467.7581,-319.4324"/>
<polygon fill="#191970" stroke="#191970" points="470.7852,-317.6743 462.856,-310.6474 464.6725,-321.0853 470.7852,-317.6743"/>
</g>
<!-- Node26&#45;&gt;Node9 -->
<g id="edge42" class="edge">
<title>Node26&#45;&gt;Node9</title>
<path fill="none" stroke="#191970" d="M755.2151,-414.8041C797.8723,-402.8954 850.6893,-386.7116 857,-378 865.0827,-366.8422 859.4583,-360.5567 857,-347 852.2572,-320.8452 855.6226,-308.931 836,-291 817.9359,-274.4931 760.1115,-260.1301 713.4943,-250.797"/>
<polygon fill="#191970" stroke="#191970" points="713.9203,-247.3139 703.4338,-248.8249 712.5738,-254.1832 713.9203,-247.3139"/>
</g>
<!-- Node26&#45;&gt;Node16 -->
<g id="edge45" class="edge">
<title>Node26&#45;&gt;Node16</title>
<path fill="none" stroke="#191970" d="M755.0185,-419.0043C790.3472,-410.8903 836.4716,-397.6735 874,-378 917.4634,-355.2152 1046,-288.5735 1046,-239.5 1046,-239.5 1046,-239.5 1046,-122 1046,-71.6408 989.6697,-39.6082 949.7831,-23.2387"/>
<polygon fill="#191970" stroke="#191970" points="950.8802,-19.9093 940.293,-19.5075 948.3189,-26.4239 950.8802,-19.9093"/>
</g>
<!-- Node27 -->
<g id="node28" class="node">
<title>Node27</title>
<g id="a_node28"><a xlink:href="global__tas__lock_8hpp.html" target="_top" xlink:title="This file provides a tas lock for the ArgoDSM system based on the TAS lock made by David Klaftenegger...">
<polygon fill="#ffffff" stroke="#000000" points="732,-347.5 732,-377.5 848,-377.5 848,-347.5 732,-347.5"/>
<text text-anchor="start" x="740" y="-365.5" font-family="Helvetica,sans-Serif" font-size="10.00" fill="#000000">../synchronization</text>
<text text-anchor="middle" x="790" y="-354.5" font-family="Helvetica,sans-Serif" font-size="10.00" fill="#000000">/global_tas_lock.hpp</text>
</a>
</g>
</g>
<!-- Node26&#45;&gt;Node27 -->
<g id="edge36" class="edge">
<title>Node26&#45;&gt;Node27</title>
<path fill="none" stroke="#191970" d="M720.4224,-414.2967C732.5048,-405.302 747.9972,-393.7687 761.2948,-383.8694"/>
<polygon fill="#191970" stroke="#191970" points="763.7271,-386.4221 769.6584,-377.6432 759.5471,-380.8072 763.7271,-386.4221"/>
</g>
<!-- Node31 -->
<g id="node32" class="node">
<title>Node31</title>
<polygon fill="#ffffff" stroke="#bfbfbf" points="598.5,-353 598.5,-372 675.5,-372 675.5,-353 598.5,-353"/>
<text text-anchor="middle" x="637" y="-360" font-family="Helvetica,sans-Serif" font-size="10.00" fill="#000000">sys/mman.h</text>
</g>
<!-- Node26&#45;&gt;Node31 -->
<g id="edge43" class="edge">
<title>Node26&#45;&gt;Node31</title>
<path fill="none" stroke="#191970" d="M685.7043,-414.2967C675.9839,-403.9591 663.1106,-390.2684 653.0403,-379.5588"/>
<polygon fill="#191970" stroke="#191970" points="655.3846,-376.9426 645.9845,-372.055 650.285,-381.7378 655.3846,-376.9426"/>
</g>
<!-- Node32 -->
<g id="node33" class="node">
<title>Node32</title>
<polygon fill="#ffffff" stroke="#bfbfbf" points="527.5,-353 527.5,-372 580.5,-372 580.5,-353 527.5,-353"/>
<text text-anchor="middle" x="554" y="-360" font-family="Helvetica,sans-Serif" font-size="10.00" fill="#000000">stdlib.h</text>
</g>
<!-- Node26&#45;&gt;Node32 -->
<g id="edge46" class="edge">
<title>Node26&#45;&gt;Node32</title>
<path fill="none" stroke="#191970" d="M667.2348,-414.4639C642.4068,-403.0702 608.5488,-387.5327 584.3372,-376.4219"/>
<polygon fill="#191970" stroke="#191970" points="585.4764,-373.0938 574.9279,-372.1039 582.5568,-379.4559 585.4764,-373.0938"/>
</g>
<!-- Node27&#45;&gt;Node5 -->
<g id="edge37" class="edge">
<title>Node27&#45;&gt;Node5</title>
<path fill="none" stroke="#191970" d="M731.8791,-349.7952C727.1876,-348.8285 722.5171,-347.8855 718,-347 652.7081,-334.2008 577.8743,-321.128 525.3073,-312.2064"/>
<polygon fill="#191970" stroke="#191970" points="525.8735,-308.7525 515.4296,-310.5343 524.7051,-315.6544 525.8735,-308.7525"/>
</g>
<!-- Node27&#45;&gt;Node9 -->
<g id="edge38" class="edge">
<title>Node27&#45;&gt;Node9</title>
<path fill="none" stroke="#191970" d="M804.3257,-347.4243C817.0672,-332.1346 831.8504,-308.32 819,-291 806.0289,-273.5173 755.6605,-259.6544 713.0884,-250.7359"/>
<polygon fill="#191970" stroke="#191970" points="713.5204,-247.2521 703.0232,-248.687 712.124,-254.1114 713.5204,-247.2521"/>
</g>
<!-- Node28 -->
<g id="node29" class="node">
<title>Node28</title>
<polygon fill="#ffffff" stroke="#bfbfbf" points="760,-291.5 760,-310.5 810,-310.5 810,-291.5 760,-291.5"/>
<text text-anchor="middle" x="785" y="-298.5" font-family="Helvetica,sans-Serif" font-size="10.00" fill="#000000">atomic</text>
</g>
<!-- Node27&#45;&gt;Node28 -->
<g id="edge39" class="edge">
<title>Node27&#45;&gt;Node28</title>
<path fill="none" stroke="#191970" d="M788.764,-347.2977C788.1206,-339.3834 787.3256,-329.6043 786.6322,-321.0759"/>
<polygon fill="#191970" stroke="#191970" points="790.0995,-320.5304 785.8006,-310.8469 783.1225,-321.0977 790.0995,-320.5304"/>
</g>
<!-- Node29 -->
<g id="node30" class="node">
<title>Node29</title>
<polygon fill="#ffffff" stroke="#bfbfbf" points="626,-291.5 626,-310.5 676,-310.5 676,-291.5 626,-291.5"/>
<text text-anchor="middle" x="651" y="-298.5" font-family="Helvetica,sans-Serif" font-size="10.00" fill="#000000">chrono</text>
</g>
<!-- Node27&#45;&gt;Node29 -->
<g id="edge40" class="edge">
<title>Node27&#45;&gt;Node29</title>
<path fill="none" stroke="#191970" d="M755.9968,-347.4554C733.3129,-337.419 703.7327,-324.3314 681.7521,-314.6061"/>
<polygon fill="#191970" stroke="#191970" points="683.1011,-311.3758 672.5401,-310.5303 680.2688,-317.7772 683.1011,-311.3758"/>
</g>
<!-- Node30 -->
<g id="node31" class="node">
<title>Node30</title>
<polygon fill="#ffffff" stroke="#bfbfbf" points="694,-291.5 694,-310.5 742,-310.5 742,-291.5 694,-291.5"/>
<text text-anchor="middle" x="718" y="-298.5" font-family="Helvetica,sans-Serif" font-size="10.00" fill="#000000">thread</text>
</g>
<!-- Node27&#45;&gt;Node30 -->
<g id="edge41" class="edge">
<title>Node27&#45;&gt;Node30</title>
<path fill="none" stroke="#191970" d="M772.2022,-347.2977C761.5833,-338.2274 748.0969,-326.7077 737.2333,-317.4285"/>
<polygon fill="#191970" stroke="#191970" points="739.4051,-314.6805 729.5281,-310.8469 734.8587,-320.0031 739.4051,-314.6805"/>
</g>
<!-- Node33&#45;&gt;Node1 -->
<g id="edge49" class="edge">
<title>Node33&#45;&gt;Node1</title>
<path fill="none" stroke="#191970" d="M961,-481.3416C961,-460.4114 961,-410.504 961,-382.4762"/>
<polygon fill="#191970" stroke="#191970" points="964.5001,-382.2704 961,-372.2705 957.5001,-382.2705 964.5001,-382.2704"/>
</g>
<!-- Node33&#45;&gt;Node3 -->
<g id="edge51" class="edge">
<title>Node33&#45;&gt;Node3</title>
<path fill="none" stroke="#191970" d="M1024.8177,-482.9235C1073.1791,-475.5081 1134.242,-462.9361 1152,-445 1168.3476,-428.4884 1171.7505,-400.9093 1171.9621,-382.228"/>
<polygon fill="#191970" stroke="#191970" points="1175.4605,-382.1012 1171.7803,-372.1661 1168.4616,-382.2277 1175.4605,-382.1012"/>
</g>
<!-- Node33&#45;&gt;Node4 -->
<g id="edge52" class="edge">
<title>Node33&#45;&gt;Node4</title>
<path fill="none" stroke="#191970" d="M897.237,-485.1031C772.6885,-473.5847 497.8814,-448.1702 367.4291,-436.1058"/>
<polygon fill="#191970" stroke="#191970" points="367.434,-432.5915 357.1541,-435.1556 366.7893,-439.5617 367.434,-432.5915"/>
</g>
<!-- Node33&#45;&gt;Node24 -->
<g id="edge50" class="edge">
<title>Node33&#45;&gt;Node24</title>
<path fill="none" stroke="#191970" d="M965.1709,-481.3202C976.6736,-453.7159 1008,-372.0189 1008,-301 1008,-301 1008,-301 1008,-178 1008,-147.4754 1003.4132,-138.9075 989,-112 983.3641,-101.4785 975.0138,-91.2058 967.4843,-83.0467"/>
<polygon fill="#191970" stroke="#191970" points="969.8213,-80.428 960.3593,-75.6612 964.7835,-85.2882 969.8213,-80.428"/>
</g>
<!-- Node33&#45;&gt;Node26 -->
<g id="edge53" class="edge">
<title>Node33&#45;&gt;Node26</title>
<path fill="none" stroke="#191970" d="M920.5051,-481.4581C878.9791,-471.6732 813.7463,-456.3023 764.9879,-444.8132"/>
<polygon fill="#191970" stroke="#191970" points="765.6944,-441.3839 755.1582,-442.4971 764.0889,-448.1973 765.6944,-441.3839"/>
</g>
<!-- Node33&#45;&gt;Node34 -->
<g id="edge54" class="edge">
<title>Node33&#45;&gt;Node34</title>
<path fill="none" stroke="#191970" d="M947.0938,-481.3906C932.9862,-471.6421 910.9276,-456.3994 894.3615,-444.9521"/>
<polygon fill="#191970" stroke="#191970" points="896.0253,-441.8474 885.8086,-439.0419 892.0458,-447.6063 896.0253,-441.8474"/>
</g>
<!-- Node33&#45;&gt;Node35 -->
<g id="edge58" class="edge">
<title>Node33&#45;&gt;Node35</title>
<path fill="none" stroke="#191970" d="M1012.838,-481.4548C1058.3905,-472.8055 1126.3652,-459.263 1185,-445 1189.1209,-443.9976 1193.3992,-442.8977 1197.6674,-441.7609"/>
<polygon fill="#191970" stroke="#191970" points="1198.8038,-445.0789 1207.5297,-439.0698 1196.961,-438.3258 1198.8038,-445.0789"/>
</g>
<!-- Node36 -->
<g id="node37" class="node">
<title>Node36</title>
<g id="a_node37"><a xlink:href="dynamic__allocator_8h.html" target="_top" xlink:title="This file provides the dynamic allocator for ArgoDSM. ">
<polygon fill="#ffffff" stroke="#000000" points="1027.5,-420 1027.5,-439 1142.5,-439 1142.5,-420 1027.5,-420"/>
<text text-anchor="middle" x="1085" y="-427" font-family="Helvetica,sans-Serif" font-size="10.00" fill="#000000">dynamic_allocator.h</text>
</a>
</g>
</g>
<!-- Node33&#45;&gt;Node36 -->
<g id="edge59" class="edge">
<title>Node33&#45;&gt;Node36</title>
<path fill="none" stroke="#191970" d="M980.375,-481.3906C1000.8495,-471.2359 1033.3442,-455.1196 1056.6885,-443.5416"/>
<polygon fill="#191970" stroke="#191970" points="1058.3575,-446.6207 1065.7611,-439.0419 1055.2472,-440.3496 1058.3575,-446.6207"/>
</g>
<!-- Node34&#45;&gt;Node1 -->
<g id="edge55" class="edge">
<title>Node34&#45;&gt;Node1</title>
<path fill="none" stroke="#191970" d="M884.7515,-419.9005C899.159,-409.0544 922.831,-391.2339 939.9816,-378.3229"/>
<polygon fill="#191970" stroke="#191970" points="942.3879,-380.8923 948.2721,-372.0817 938.1779,-375.2998 942.3879,-380.8923"/>
</g>
<!-- Node34&#45;&gt;Node3 -->
<g id="edge56" class="edge">
<title>Node34&#45;&gt;Node3</title>
<path fill="none" stroke="#191970" d="M914.5219,-419.9717C975.1334,-406.3898 1085.0109,-381.7685 1139.1297,-369.6415"/>
<polygon fill="#191970" stroke="#191970" points="1140.1862,-372.9916 1149.1789,-367.3897 1138.6555,-366.161 1140.1862,-372.9916"/>
</g>
<!-- Node34&#45;&gt;Node5 -->
<g id="edge57" class="edge">
<title>Node34&#45;&gt;Node5</title>
<path fill="none" stroke="#191970" d="M833.146,-419.974C802.1603,-411.4726 758.2657,-397.3664 723,-378 703.5918,-367.3419 704.0688,-356.355 684,-347 636.8489,-325.0206 579.3465,-313.5027 534.1443,-307.4888"/>
<polygon fill="#191970" stroke="#191970" points="534.4701,-304.0021 524.1093,-306.2166 533.5896,-310.9465 534.4701,-304.0021"/>
</g>
</g>
</svg>
        <g id="navigator" transform="translate(0 0)" fill="#404254">
                <rect fill="#f2f5e9" fill-opacity="0.5" stroke="#606060" stroke-width=".5" x="0" y="0" width="60" height="60"/>
                <use id="zoomplus" xlink:href="#zoomPlus" x="17" y="9" onmousedown="handleZoom(evt,'in')"/>
                <use id="zoomminus" xlink:href="#zoomMin" x="42" y="9" onmousedown="handleZoom(evt,'out')"/>
                <use id="reset" xlink:href="#resetDef" x="30" y="36" onmousedown="handleReset()"/>
                <g id="arrowUp" xlink:href="#dirArrow" transform="translate(30 24)" onmousedown="handlePan(0,-1)">
                  <use xlink:href="#rim" fill="#404040">
                        <set attributeName="fill" to="#808080" begin="arrowUp.mouseover" end="arrowUp.mouseout"/>
                  </use>
                  <path fill="none" stroke="white" stroke-width="1.5" d="M0,-3.0v7 M-2.5,-0.5L0,-3.0L2.5,-0.5"/>
                </g>
                <g id="arrowRight" xlink:href="#dirArrow" transform="rotate(90) translate(36 -43)" onmousedown="handlePan(1,0)">
                  <use xlink:href="#rim" fill="#404040">
                        <set attributeName="fill" to="#808080" begin="arrowRight.mouseover" end="arrowRight.mouseout"/>
                  </use>
                  <path fill="none" stroke="white" stroke-width="1.5" d="M0,-3.0v7 M-2.5,-0.5L0,-3.0L2.5,-0.5"/>
                </g>
                <g id="arrowDown" xlink:href="#dirArrow" transform="rotate(180) translate(-30 -48)" onmousedown="handlePan(0,1)">
                  <use xlink:href="#rim" fill="#404040">
                        <set attributeName="fill" to="#808080" begin="arrowDown.mouseover" end="arrowDown.mouseout"/>
                  </use>
                  <path fill="none" stroke="white" stroke-width="1.5" d="M0,-3.0v7 M-2.5,-0.5L0,-3.0L2.5,-0.5"/>
                </g>
                <g id="arrowLeft" xlink:href="#dirArrow" transform="rotate(270) translate(-36 17)" onmousedown="handlePan(-1,0)">
                  <use xlink:href="#rim" fill="#404040">
                        <set attributeName="fill" to="#808080" begin="arrowLeft.mouseover" end="arrowLeft.mouseout"/>
                  </use>
                  <path fill="none" stroke="white" stroke-width="1.5" d="M0,-3.0v7 M-2.5,-0.5L0,-3.0L2.5,-0.5"/>
                </g>
        </g>
        <svg viewBox="0 0 15 15" width="100%" height="30px" preserveAspectRatio="xMaxYMin meet">
         <g id="arrow_out" transform="scale(0.3 0.3)">
          <a xlink:href="collective__allocator_8hpp__incl_org.svg" target="_base">
           <rect id="button" ry="5" rx="5" y="6" x="6" height="38" width="38"
                fill="#f2f5e9" fill-opacity="0.5" stroke="#606060" stroke-width="1.0"/>
           <path id="arrow"
             d="M 11.500037,31.436501 C 11.940474,20.09759 22.043105,11.32322 32.158766,21.979434 L 37.068811,17.246167 C 37.068811,17.246167 37.088388,32 37.088388,32 L 22.160133,31.978069 C 22.160133,31.978069 26.997745,27.140456 26.997745,27.140456 C 18.528582,18.264221 13.291696,25.230495 11.500037,31.436501 z"
             style="fill:#404040;"/>
          </a>
         </g>
        </svg>
</svg>
