<?xml version="1.0" encoding="UTF-8" standalone="no"?>
<!DOCTYPE svg PUBLIC "-//W3C//DTD SVG 1.1//EN"
 "http://www.w3.org/Graphics/SVG/1.1/DTD/svg11.dtd">
<!-- Generated by graphviz version 2.40.1 (20161225.0304)
 -->
<!-- Title: /home/atmerhannah/argodsm/src/allocators/collective_allocator.h Pages: 1 -->
<!--zoomable 429 -->
<svg id="main" version="1.1" xmlns="http://www.w3.org/2000/svg" xmlns:xlink="http://www.w3.org/1999/xlink" xml:space="preserve" onload="init(evt)">
<style type="text/css"><![CDATA[
.edge:hover path { stroke: red; }
.edge:hover polygon { stroke: red; fill: red; }
]]></style>
<script type="text/javascript"><![CDATA[
var edges = document.getElementsByTagName('g');
if (edges && edges.length) {
  for (var i=0;i<edges.length;i++) {
    if (edges[i].id.substr(0,4)=='edge') {
      edges[i].setAttribute('class','edge');
    }
  }
}
]]></script>
        <defs>
                <circle id="rim" cx="0" cy="0" r="7"/>
                <circle id="rim2" cx="0" cy="0" r="3.5"/>
                <g id="zoomPlus">
                        <use xlink:href="#rim" fill="#404040">
                                <set attributeName="fill" to="#808080" begin="zoomplus.mouseover" end="zoomplus.mouseout"/>
                        </use>
                        <path d="M-4,0h8M0,-4v8" fill="none" stroke="white" stroke-width="1.5" pointer-events="none"/>
                </g>
                <g id="zoomMin">
                        <use xlink:href="#rim" fill="#404040">
                                <set attributeName="fill" to="#808080" begin="zoomminus.mouseover" end="zoomminus.mouseout"/>
                        </use>
                        <path d="M-4,0h8" fill="none" stroke="white" stroke-width="1.5" pointer-events="none"/>
                </g>
                <g id="dirArrow">
                        <path fill="none" stroke="white" stroke-width="1.5" d="M0,-3.0v7 M-2.5,-0.5L0,-3.0L2.5,-0.5"/>
                </g>
               <g id="resetDef">
                       <use xlink:href="#rim2" fill="#404040">
                               <set attributeName="fill" to="#808080" begin="reset.mouseover" end="reset.mouseout"/>
                       </use>
               </g>
        </defs>

<script type="text/javascript">
var viewWidth = 2386;
var viewHeight = 429;
var sectionId = 'dynsection-0';
</script>
<script xlink:href="svgpan.js"/>
<svg id="graph" class="graph">
<g id="viewport">
<title>/home/atmerhannah/argodsm/src/allocators/collective_allocator.h</title>
<polygon fill="#ffffff" stroke="transparent" points="-4,4 -4,-425 2382,-425 2382,4 -4,4"/>
<!-- Node1 -->
<g id="node1" class="node">
<title>Node1</title>
<polygon fill="#bfbfbf" stroke="#000000" points="680,-379.5 680,-420.5 841,-420.5 841,-379.5 680,-379.5"/>
<text text-anchor="start" x="688" y="-408.5" font-family="Helvetica,sans-Serif" font-size="10.00" fill="#000000">/home/atmerhannah/argodsm</text>
<text text-anchor="start" x="688" y="-397.5" font-family="Helvetica,sans-Serif" font-size="10.00" fill="#000000">/src/allocators/collective</text>
<text text-anchor="middle" x="760.5" y="-386.5" font-family="Helvetica,sans-Serif" font-size="10.00" fill="#000000">_allocator.h</text>
</g>
<!-- Node2 -->
<g id="node2" class="node">
<title>Node2</title>
<g id="a_node2"><a xlink:href="collective__allocator_8hpp.html" target="_top" xlink:title="This file provides the collective allocator for ArgoDSM. ">
<polygon fill="#ffffff" stroke="#000000" points="591,-301.5 591,-342.5 752,-342.5 752,-301.5 591,-301.5"/>
<text text-anchor="start" x="599" y="-330.5" font-family="Helvetica,sans-Serif" font-size="10.00" fill="#000000">/home/atmerhannah/argodsm</text>
<text text-anchor="start" x="599" y="-319.5" font-family="Helvetica,sans-Serif" font-size="10.00" fill="#000000">/src/allocators/collective</text>
<text text-anchor="middle" x="671.5" y="-308.5" font-family="Helvetica,sans-Serif" font-size="10.00" fill="#000000">_allocator.hpp</text>
</a>
</g>
</g>
<!-- Node1&#45;&gt;Node2 -->
<g id="edge1" class="edge">
<title>Node1&#45;&gt;Node2</title>
<path fill="none" stroke="#191970" d="M728.8126,-372.229C717.7062,-362.4953 705.4357,-351.7414 695.1076,-342.6898"/>
<polygon fill="#191970" stroke="#191970" points="726.8222,-375.1386 736.6496,-379.0974 731.436,-369.8742 726.8222,-375.1386"/>
</g>
<!-- Node19 -->
<g id="node19" class="node">
<title>Node19</title>
<g id="a_node19"><a xlink:href="allocators_8h.html" target="_top" xlink:title="This file provides all C allocators for ArgoDSM. ">
<polygon fill="#ffffff" stroke="#000000" points="960,-307 960,-337 1121,-337 1121,-307 960,-307"/>
<text text-anchor="start" x="968" y="-325" font-family="Helvetica,sans-Serif" font-size="10.00" fill="#000000">/home/atmerhannah/argodsm</text>
<text text-anchor="middle" x="1040.5" y="-314" font-family="Helvetica,sans-Serif" font-size="10.00" fill="#000000">/src/allocators/allocators.h</text>
</a>
</g>
</g>
<!-- Node1&#45;&gt;Node19 -->
<g id="edge25" class="edge">
<title>Node1&#45;&gt;Node19</title>
<path fill="none" stroke="#191970" d="M844.1222,-376.7052C890.2693,-363.85 946.2278,-348.2615 986.5864,-337.0188"/>
<polygon fill="#191970" stroke="#191970" points="843.1269,-373.3492 834.433,-379.4044 845.0054,-380.0924 843.1269,-373.3492"/>
</g>
<!-- Node3 -->
<g id="node3" class="node">
<title>Node3</title>
<g id="a_node3"><a xlink:href="src_2allocators_2allocators_8cpp.html" target="_top" xlink:title="This file provides the default allocators. ">
<polygon fill="#ffffff" stroke="#000000" points="646,-229 646,-259 807,-259 807,-229 646,-229"/>
<text text-anchor="start" x="654" y="-247" font-family="Helvetica,sans-Serif" font-size="10.00" fill="#000000">/home/atmerhannah/argodsm</text>
<text text-anchor="middle" x="726.5" y="-236" font-family="Helvetica,sans-Serif" font-size="10.00" fill="#000000">/src/allocators/allocators.cpp</text>
</a>
</g>
</g>
<!-- Node2&#45;&gt;Node3 -->
<g id="edge2" class="edge">
<title>Node2&#45;&gt;Node3</title>
<path fill="none" stroke="#191970" d="M692.1608,-292.6992C700.1803,-281.3262 709.0282,-268.7781 715.7342,-259.2679"/>
<polygon fill="#191970" stroke="#191970" points="689.1413,-290.9079 686.239,-301.0974 694.8622,-294.9418 689.1413,-290.9079"/>
</g>
<!-- Node4 -->
<g id="node4" class="node">
<title>Node4</title>
<g id="a_node4"><a xlink:href="allocators_8hpp.html" target="_top" xlink:title="This file provides all C++ allocators for ArgoDSM. ">
<polygon fill="#ffffff" stroke="#000000" points="843,-229 843,-259 1004,-259 1004,-229 843,-229"/>
<text text-anchor="start" x="851" y="-247" font-family="Helvetica,sans-Serif" font-size="10.00" fill="#000000">/home/atmerhannah/argodsm</text>
<text text-anchor="middle" x="923.5" y="-236" font-family="Helvetica,sans-Serif" font-size="10.00" fill="#000000">/src/allocators/allocators.hpp</text>
</a>
</g>
</g>
<!-- Node2&#45;&gt;Node4 -->
<g id="edge3" class="edge">
<title>Node2&#45;&gt;Node4</title>
<path fill="none" stroke="#191970" d="M747.8045,-298.382C789.1343,-285.5894 838.959,-270.1675 874.9777,-259.0188"/>
<polygon fill="#191970" stroke="#191970" points="746.5576,-295.104 738.0397,-301.4044 748.6274,-301.791 746.5576,-295.104"/>
</g>
<!-- Node6 -->
<g id="node6" class="node">
<title>Node6</title>
<g id="a_node6"><a xlink:href="argo_8cpp.html" target="_top" xlink:title="This file implements some of the basic ArgoDSM calls. ">
<polygon fill="#ffffff" stroke="#000000" points="1611,-73 1611,-103 1772,-103 1772,-73 1611,-73"/>
<text text-anchor="start" x="1619" y="-91" font-family="Helvetica,sans-Serif" font-size="10.00" fill="#000000">/home/atmerhannah/argodsm</text>
<text text-anchor="middle" x="1691.5" y="-80" font-family="Helvetica,sans-Serif" font-size="10.00" fill="#000000">/src/argo.cpp</text>
</a>
</g>
</g>
<!-- Node2&#45;&gt;Node6 -->
<g id="edge16" class="edge">
<title>Node2&#45;&gt;Node6</title>
<path fill="none" stroke="#191970" d="M762.4105,-316.0047C849.6451,-308.6475 973.6903,-293.4793 1012.5,-265 1060.7349,-229.6043 1023.5968,-178.0019 1073.5,-145 1171.5954,-80.1278 1485.1913,-126.4183 1601.5,-109 1611.814,-107.4554 1622.6926,-105.3413 1633.1842,-103.0465"/>
<polygon fill="#191970" stroke="#191970" points="761.9086,-312.5341 752.2293,-316.8422 762.4826,-319.5105 761.9086,-312.5341"/>
</g>
<!-- Node7 -->
<g id="node7" class="node">
<title>Node7</title>
<g id="a_node7"><a xlink:href="tests_2allocators_8cpp.html" target="_top" xlink:title="This file provides unit tests for the ArgoDSM allocators and memory pools. ">
<polygon fill="#ffffff" stroke="#000000" points="1790,-73 1790,-103 1951,-103 1951,-73 1790,-73"/>
<text text-anchor="start" x="1798" y="-91" font-family="Helvetica,sans-Serif" font-size="10.00" fill="#000000">/home/atmerhannah/argodsm</text>
<text text-anchor="middle" x="1870.5" y="-80" font-family="Helvetica,sans-Serif" font-size="10.00" fill="#000000">/tests/allocators.cpp</text>
</a>
</g>
</g>
<!-- Node2&#45;&gt;Node7 -->
<g id="edge20" class="edge">
<title>Node2&#45;&gt;Node7</title>
<path fill="none" stroke="#191970" d="M762.4079,-312.2927C854.7548,-301.6598 991.0155,-283.6258 1040.5,-265 1073.0403,-252.7519 1074.048,-235.4803 1106.5,-223 1390.0635,-113.9477 1482.6491,-168.8791 1780.5,-109 1789.4661,-107.1975 1798.9013,-105.1566 1808.1522,-103.0727"/>
<polygon fill="#191970" stroke="#191970" points="761.7526,-308.8447 752.2144,-313.4569 762.547,-315.7995 761.7526,-308.8447"/>
</g>
<!-- Node8 -->
<g id="node8" class="node">
<title>Node8</title>
<g id="a_node8"><a xlink:href="api_8cpp.html" target="_top" xlink:title="This file provides unit tests for the ArgoDSM API functions. ">
<polygon fill="#ffffff" stroke="#000000" points="179,-73 179,-103 340,-103 340,-73 179,-73"/>
<text text-anchor="start" x="187" y="-91" font-family="Helvetica,sans-Serif" font-size="10.00" fill="#000000">/home/atmerhannah/argodsm</text>
<text text-anchor="middle" x="259.5" y="-80" font-family="Helvetica,sans-Serif" font-size="10.00" fill="#000000">/tests/api.cpp</text>
</a>
</g>
</g>
<!-- Node2&#45;&gt;Node8 -->
<g id="edge21" class="edge">
<title>Node2&#45;&gt;Node8</title>
<path fill="none" stroke="#191970" d="M626.5503,-296.4703C540.5381,-247.6187 355.0855,-142.2888 286.0797,-103.0963"/>
<polygon fill="#191970" stroke="#191970" points="624.8749,-299.5438 635.2988,-301.4391 628.332,-293.4571 624.8749,-299.5438"/>
</g>
<!-- Node11 -->
<g id="node11" class="node">
<title>Node11</title>
<g id="a_node11"><a xlink:href="lock_8cpp.html" target="_top" xlink:title="This file provides unit tests for the ArgoDSM locks. ">
<polygon fill="#ffffff" stroke="#000000" points="0,-73 0,-103 161,-103 161,-73 0,-73"/>
<text text-anchor="start" x="8" y="-91" font-family="Helvetica,sans-Serif" font-size="10.00" fill="#000000">/home/atmerhannah/argodsm</text>
<text text-anchor="middle" x="80.5" y="-80" font-family="Helvetica,sans-Serif" font-size="10.00" fill="#000000">/tests/lock.cpp</text>
</a>
</g>
</g>
<!-- Node2&#45;&gt;Node11 -->
<g id="edge22" class="edge">
<title>Node2&#45;&gt;Node11</title>
<path fill="none" stroke="#191970" d="M580.7787,-315.3911C471.7047,-306.5396 295.6755,-289.1093 234.5,-265 179.0782,-243.1583 163.3339,-233.0134 125.5,-187 104.2764,-161.1879 90.8891,-123.7429 84.6478,-103.0904"/>
<polygon fill="#191970" stroke="#191970" points="580.5447,-318.8835 590.7928,-316.1949 581.1049,-311.9059 580.5447,-318.8835"/>
</g>
<!-- Node12 -->
<g id="node12" class="node">
<title>Node12</title>
<g id="a_node12"><a xlink:href="omp_8cpp.html" target="_top" xlink:title="This file provides tests using OpenMP in ArgoDSM. ">
<polygon fill="#ffffff" stroke="#000000" points="358,-73 358,-103 519,-103 519,-73 358,-73"/>
<text text-anchor="start" x="366" y="-91" font-family="Helvetica,sans-Serif" font-size="10.00" fill="#000000">/home/atmerhannah/argodsm</text>
<text text-anchor="middle" x="438.5" y="-80" font-family="Helvetica,sans-Serif" font-size="10.00" fill="#000000">/tests/omp.cpp</text>
</a>
</g>
</g>
<!-- Node2&#45;&gt;Node12 -->
<g id="edge23" class="edge">
<title>Node2&#45;&gt;Node12</title>
<path fill="none" stroke="#191970" d="M646.9285,-293.6731C606.42,-247.0682 528.6729,-158.0548 514.5,-145 497.6378,-129.4681 476.681,-113.9985 461.0472,-103.1025"/>
<polygon fill="#191970" stroke="#191970" points="644.365,-296.0591 653.5655,-301.3128 649.6494,-291.4683 644.365,-296.0591"/>
</g>
<!-- Node13 -->
<g id="node13" class="node">
<title>Node13</title>
<g id="a_node13"><a xlink:href="prefetch_8cpp.html" target="_top" xlink:title="This file provides unit tests for the ArgoDSM prefetch mechanism. ">
<polygon fill="#ffffff" stroke="#000000" points="537,-73 537,-103 698,-103 698,-73 537,-73"/>
<text text-anchor="start" x="545" y="-91" font-family="Helvetica,sans-Serif" font-size="10.00" fill="#000000">/home/atmerhannah/argodsm</text>
<text text-anchor="middle" x="617.5" y="-80" font-family="Helvetica,sans-Serif" font-size="10.00" fill="#000000">/tests/prefetch.cpp</text>
</a>
</g>
</g>
<!-- Node2&#45;&gt;Node13 -->
<g id="edge24" class="edge">
<title>Node2&#45;&gt;Node13</title>
<path fill="none" stroke="#191970" d="M650.2502,-292.9467C644.9173,-284.3357 639.784,-274.6252 636.5,-265 616.9395,-207.6699 616.1936,-134.3724 616.9184,-103.1634"/>
<polygon fill="#191970" stroke="#191970" points="647.4163,-295.0086 655.8108,-301.4726 653.2795,-291.1846 647.4163,-295.0086"/>
</g>
<!-- Node17 -->
<g id="node17" class="node">
<title>Node17</title>
<g id="a_node17"><a xlink:href="cohort__lock_8hpp.html" target="_top" xlink:title="This file provides a cohort lock for the ArgoDSM system. ">
<polygon fill="#ffffff" stroke="#000000" points="244,-223.5 244,-264.5 405,-264.5 405,-223.5 244,-223.5"/>
<text text-anchor="start" x="252" y="-252.5" font-family="Helvetica,sans-Serif" font-size="10.00" fill="#000000">/home/atmerhannah/argodsm</text>
<text text-anchor="start" x="252" y="-241.5" font-family="Helvetica,sans-Serif" font-size="10.00" fill="#000000">/src/synchronization/cohort</text>
<text text-anchor="middle" x="324.5" y="-230.5" font-family="Helvetica,sans-Serif" font-size="10.00" fill="#000000">_lock.hpp</text>
</a>
</g>
</g>
<!-- Node2&#45;&gt;Node17 -->
<g id="edge17" class="edge">
<title>Node2&#45;&gt;Node17</title>
<path fill="none" stroke="#191970" d="M580.5992,-301.567C526.2187,-289.3431 457.7168,-273.945 405.246,-262.1504"/>
<polygon fill="#191970" stroke="#191970" points="580.0577,-305.0325 590.5819,-303.8109 581.5929,-298.2029 580.0577,-305.0325"/>
</g>
<!-- Node5 -->
<g id="node5" class="node">
<title>Node5</title>
<g id="a_node5"><a xlink:href="argo_8hpp.html" target="_top" xlink:title="This file provides the full C++ interface to ArgoDSM. ">
<polygon fill="#ffffff" stroke="#000000" points="860,-151 860,-181 1021,-181 1021,-151 860,-151"/>
<text text-anchor="start" x="868" y="-169" font-family="Helvetica,sans-Serif" font-size="10.00" fill="#000000">/home/atmerhannah/argodsm</text>
<text text-anchor="middle" x="940.5" y="-158" font-family="Helvetica,sans-Serif" font-size="10.00" fill="#000000">/src/argo.hpp</text>
</a>
</g>
</g>
<!-- Node4&#45;&gt;Node5 -->
<g id="edge4" class="edge">
<title>Node4&#45;&gt;Node5</title>
<path fill="none" stroke="#191970" d="M928.9135,-219.1616C931.6269,-206.7119 934.8259,-192.0342 937.1743,-181.2592"/>
<polygon fill="#191970" stroke="#191970" points="925.4876,-218.4448 926.7778,-228.9608 932.3271,-219.9355 925.4876,-218.4448"/>
</g>
<!-- Node5&#45;&gt;Node6 -->
<g id="edge5" class="edge">
<title>Node5&#45;&gt;Node6</title>
<path fill="none" stroke="#191970" d="M1011.8412,-148.993C1019.7918,-147.4669 1027.7975,-146.0897 1035.5,-145 1285.0788,-109.6923 1352.1316,-145.7643 1601.5,-109 1611.8175,-107.4789 1622.6979,-105.3764 1633.19,-103.0858"/>
<polygon fill="#191970" stroke="#191970" points="1010.9466,-145.6025 1001.8269,-150.9952 1012.319,-152.4667 1010.9466,-145.6025"/>
</g>
<!-- Node5&#45;&gt;Node7 -->
<g id="edge6" class="edge">
<title>Node5&#45;&gt;Node7</title>
<path fill="none" stroke="#191970" d="M1031.378,-150.3425C1045.4493,-148.2971 1059.8421,-146.422 1073.5,-145 1386.4379,-112.4193 1468.9514,-152.9211 1780.5,-109 1790.9858,-107.5217 1802.0469,-105.4099 1812.6898,-103.0894"/>
<polygon fill="#191970" stroke="#191970" points="1030.579,-146.9228 1021.2038,-151.8579 1031.6104,-153.8464 1030.579,-146.9228"/>
</g>
<!-- Node5&#45;&gt;Node8 -->
<g id="edge7" class="edge">
<title>Node5&#45;&gt;Node8</title>
<path fill="none" stroke="#191970" d="M849.3044,-161.072C732.6148,-153.8856 524.5165,-138.1016 348.5,-109 338.6323,-107.3685 328.2313,-105.2682 318.1571,-103.0287"/>
<polygon fill="#191970" stroke="#191970" points="849.4226,-164.5856 859.6167,-161.6994 849.8477,-157.5985 849.4226,-164.5856"/>
</g>
<!-- Node9 -->
<g id="node9" class="node">
<title>Node9</title>
<g id="a_node9"><a xlink:href="backend_8cpp.html" target="_top" xlink:title="This file provides tests for the backends. ">
<polygon fill="#ffffff" stroke="#000000" points="1074,-73 1074,-103 1235,-103 1235,-73 1074,-73"/>
<text text-anchor="start" x="1082" y="-91" font-family="Helvetica,sans-Serif" font-size="10.00" fill="#000000">/home/atmerhannah/argodsm</text>
<text text-anchor="middle" x="1154.5" y="-80" font-family="Helvetica,sans-Serif" font-size="10.00" fill="#000000">/tests/backend.cpp</text>
</a>
</g>
</g>
<!-- Node5&#45;&gt;Node9 -->
<g id="edge8" class="edge">
<title>Node5&#45;&gt;Node9</title>
<path fill="none" stroke="#191970" d="M991.3977,-147.4485C1028.5398,-133.9107 1078.2577,-115.7892 1113.0008,-103.1259"/>
<polygon fill="#191970" stroke="#191970" points="989.9581,-144.2479 981.7614,-150.9608 992.3553,-150.8247 989.9581,-144.2479"/>
</g>
<!-- Node10 -->
<g id="node10" class="node">
<title>Node10</title>
<g id="a_node10"><a xlink:href="barrier_8cpp.html" target="_top" xlink:title="This file provides tests for the barrier synchronization. ">
<polygon fill="#ffffff" stroke="#000000" points="1253,-73 1253,-103 1414,-103 1414,-73 1253,-73"/>
<text text-anchor="start" x="1261" y="-91" font-family="Helvetica,sans-Serif" font-size="10.00" fill="#000000">/home/atmerhannah/argodsm</text>
<text text-anchor="middle" x="1333.5" y="-80" font-family="Helvetica,sans-Serif" font-size="10.00" fill="#000000">/tests/barrier.cpp</text>
</a>
</g>
</g>
<!-- Node5&#45;&gt;Node10 -->
<g id="edge9" class="edge">
<title>Node5&#45;&gt;Node10</title>
<path fill="none" stroke="#191970" d="M1016.6173,-148.8492C1022.9974,-147.5105 1029.3551,-146.2103 1035.5,-145 1127.5504,-126.8701 1151.557,-127.667 1243.5,-109 1252.4626,-107.1803 1261.8959,-105.1299 1271.1459,-103.0417"/>
<polygon fill="#191970" stroke="#191970" points="1015.6549,-145.4755 1006.6005,-150.9772 1017.1096,-152.3227 1015.6549,-145.4755"/>
</g>
<!-- Node5&#45;&gt;Node11 -->
<g id="edge10" class="edge">
<title>Node5&#45;&gt;Node11</title>
<path fill="none" stroke="#191970" d="M849.6722,-163.9246C704.9725,-159.5787 413.5349,-146.5706 169.5,-109 159.301,-107.4298 148.5434,-105.3031 138.1686,-103.0038"/>
<polygon fill="#191970" stroke="#191970" points="849.736,-167.4279 859.8344,-164.2228 849.9413,-160.4309 849.736,-167.4279"/>
</g>
<!-- Node5&#45;&gt;Node12 -->
<g id="edge11" class="edge">
<title>Node5&#45;&gt;Node12</title>
<path fill="none" stroke="#191970" d="M849.7901,-155.9821C765.846,-146.1199 637.7532,-129.568 527.5,-109 518.1361,-107.2531 508.2727,-105.1716 498.6581,-103.0081"/>
<polygon fill="#191970" stroke="#191970" points="849.4656,-159.4679 859.8041,-157.1514 850.2776,-152.5151 849.4656,-159.4679"/>
</g>
<!-- Node5&#45;&gt;Node13 -->
<g id="edge12" class="edge">
<title>Node5&#45;&gt;Node13</title>
<path fill="none" stroke="#191970" d="M868.2688,-148.5572C811.6748,-134.8905 733.7561,-116.0742 679.8614,-103.0594"/>
<polygon fill="#191970" stroke="#191970" points="867.6802,-152.0156 878.2224,-150.9608 869.3234,-145.2111 867.6802,-152.0156"/>
</g>
<!-- Node14 -->
<g id="node14" class="node">
<title>Node14</title>
<g id="a_node14"><a xlink:href="stlallocation_8cpp.html" target="_top" xlink:title="This file provides tests using C++ interfaces in ArgoDSM. ">
<polygon fill="#ffffff" stroke="#000000" points="1432,-73 1432,-103 1593,-103 1593,-73 1432,-73"/>
<text text-anchor="start" x="1440" y="-91" font-family="Helvetica,sans-Serif" font-size="10.00" fill="#000000">/home/atmerhannah/argodsm</text>
<text text-anchor="middle" x="1512.5" y="-80" font-family="Helvetica,sans-Serif" font-size="10.00" fill="#000000">/tests/stlallocation.cpp</text>
</a>
</g>
</g>
<!-- Node5&#45;&gt;Node14 -->
<g id="edge13" class="edge">
<title>Node5&#45;&gt;Node14</title>
<path fill="none" stroke="#191970" d="M1013.0396,-148.9909C1020.5997,-147.5104 1028.1897,-146.1434 1035.5,-145 1206.1675,-118.3055 1251.9913,-136.6906 1422.5,-109 1432.4775,-107.3797 1442.9947,-105.285 1453.1819,-103.0477"/>
<polygon fill="#191970" stroke="#191970" points="1012.2515,-145.5794 1003.1445,-150.9935 1013.6401,-152.4403 1012.2515,-145.5794"/>
</g>
<!-- Node15 -->
<g id="node15" class="node">
<title>Node15</title>
<g id="a_node15"><a xlink:href="trivial_8cpp.html" target="_top" xlink:title="This file provides unit tests for trivial sanity checks when using ArgoDSM. ">
<polygon fill="#ffffff" stroke="#000000" points="716,-73 716,-103 877,-103 877,-73 716,-73"/>
<text text-anchor="start" x="724" y="-91" font-family="Helvetica,sans-Serif" font-size="10.00" fill="#000000">/home/atmerhannah/argodsm</text>
<text text-anchor="middle" x="796.5" y="-80" font-family="Helvetica,sans-Serif" font-size="10.00" fill="#000000">/tests/trivial.cpp</text>
</a>
</g>
</g>
<!-- Node5&#45;&gt;Node15 -->
<g id="edge14" class="edge">
<title>Node5&#45;&gt;Node15</title>
<path fill="none" stroke="#191970" d="M903.7004,-146.0669C879.1079,-132.746 847.2485,-115.4888 824.6707,-103.2592"/>
<polygon fill="#191970" stroke="#191970" points="902.2754,-149.2755 912.7354,-150.9608 905.6094,-143.1204 902.2754,-149.2755"/>
</g>
<!-- Node16 -->
<g id="node16" class="node">
<title>Node16</title>
<g id="a_node16"><a xlink:href="uninitialized_8cpp.html" target="_top" xlink:title="This file provides unit tests for accessing ArgoDSM memory in various ways. ">
<polygon fill="#ffffff" stroke="#000000" points="895,-73 895,-103 1056,-103 1056,-73 895,-73"/>
<text text-anchor="start" x="903" y="-91" font-family="Helvetica,sans-Serif" font-size="10.00" fill="#000000">/home/atmerhannah/argodsm</text>
<text text-anchor="middle" x="975.5" y="-80" font-family="Helvetica,sans-Serif" font-size="10.00" fill="#000000">/tests/uninitialized.cpp</text>
</a>
</g>
</g>
<!-- Node5&#45;&gt;Node16 -->
<g id="edge15" class="edge">
<title>Node5&#45;&gt;Node16</title>
<path fill="none" stroke="#191970" d="M951.4781,-141.5344C957.1,-129.0058 963.7697,-114.1419 968.6529,-103.2592"/>
<polygon fill="#191970" stroke="#191970" points="948.1491,-140.4043 947.2484,-150.9608 954.5356,-143.2701 948.1491,-140.4043"/>
</g>
<!-- Node17&#45;&gt;Node11 -->
<g id="edge19" class="edge">
<title>Node17&#45;&gt;Node11</title>
<path fill="none" stroke="#191970" d="M326.3423,-213.2271C325.9265,-191.4453 321.6378,-163.0139 304.5,-145 301.6304,-141.9837 208.2967,-118.9123 143.0262,-103.063"/>
<polygon fill="#191970" stroke="#191970" points="322.842,-213.2878 326.2747,-223.3111 329.8418,-213.3348 322.842,-213.2878"/>
</g>
<!-- Node18 -->
<g id="node18" class="node">
<title>Node18</title>
<g id="a_node18"><a xlink:href="cohort__lock_8cpp_source.html" target="_top" xlink:title="/home/atmerhannah/argodsm\l/src/synchronization/cohort\l_lock.cpp">
<polygon fill="#ffffff" stroke="#000000" points="135,-145.5 135,-186.5 296,-186.5 296,-145.5 135,-145.5"/>
<text text-anchor="start" x="143" y="-174.5" font-family="Helvetica,sans-Serif" font-size="10.00" fill="#000000">/home/atmerhannah/argodsm</text>
<text text-anchor="start" x="143" y="-163.5" font-family="Helvetica,sans-Serif" font-size="10.00" fill="#000000">/src/synchronization/cohort</text>
<text text-anchor="middle" x="215.5" y="-152.5" font-family="Helvetica,sans-Serif" font-size="10.00" fill="#000000">_lock.cpp</text>
</a>
</g>
</g>
<!-- Node17&#45;&gt;Node18 -->
<g id="edge18" class="edge">
<title>Node17&#45;&gt;Node18</title>
<path fill="none" stroke="#191970" d="M287.0867,-217.2272C273.041,-207.1761 257.3108,-195.9196 244.1808,-186.5239"/>
<polygon fill="#191970" stroke="#191970" points="285.407,-220.329 295.5762,-223.3022 289.4807,-214.6364 285.407,-220.329"/>
</g>
<!-- Node20 -->
<g id="node20" class="node">
<title>Node20</title>
<g id="a_node20"><a xlink:href="argo_8h.html" target="_top" xlink:title="This file provides the full C interface to ArgoDSM. ">
<polygon fill="#ffffff" stroke="#000000" points="1116,-229 1116,-259 1277,-259 1277,-229 1116,-229"/>
<text text-anchor="start" x="1124" y="-247" font-family="Helvetica,sans-Serif" font-size="10.00" fill="#000000">/home/atmerhannah/argodsm</text>
<text text-anchor="middle" x="1196.5" y="-236" font-family="Helvetica,sans-Serif" font-size="10.00" fill="#000000">/src/argo.h</text>
</a>
</g>
</g>
<!-- Node19&#45;&gt;Node20 -->
<g id="edge26" class="edge">
<title>Node19&#45;&gt;Node20</title>
<path fill="none" stroke="#191970" d="M1079.6944,-302.4028C1106.5221,-288.9889 1141.5681,-271.4659 1166.2482,-259.1259"/>
<polygon fill="#191970" stroke="#191970" points="1077.9574,-299.3581 1070.5784,-306.9608 1081.0879,-305.6191 1077.9574,-299.3581"/>
</g>
<!-- Node20&#45;&gt;Node5 -->
<g id="edge27" class="edge">
<title>Node20&#45;&gt;Node5</title>
<path fill="none" stroke="#191970" d="M1137.3073,-225.9647C1092.7028,-212.3743 1032.2363,-193.9509 990.1439,-181.1259"/>
<polygon fill="#191970" stroke="#191970" points="1136.5547,-229.3942 1147.1406,-228.9608 1138.5949,-222.6981 1136.5547,-229.3942"/>
</g>
<!-- Node21 -->
<g id="node21" class="node">
<title>Node21</title>
<g id="a_node21"><a xlink:href="swdsm_8h.html" target="_top" xlink:title="this is a legacy file from the ArgoDSM prototype ">
<polygon fill="#ffffff" stroke="#000000" points="2008,-151 2008,-181 2169,-181 2169,-151 2008,-151"/>
<text text-anchor="start" x="2016" y="-169" font-family="Helvetica,sans-Serif" font-size="10.00" fill="#000000">/home/atmerhannah/argodsm</text>
<text text-anchor="middle" x="2088.5" y="-158" font-family="Helvetica,sans-Serif" font-size="10.00" fill="#000000">/src/backend/mpi/swdsm.h</text>
</a>
</g>
</g>
<!-- Node20&#45;&gt;Node21 -->
<g id="edge28" class="edge">
<title>Node20&#45;&gt;Node21</title>
<path fill="none" stroke="#191970" d="M1287.4213,-236.0495C1462.0588,-220.7785 1841.8088,-187.5716 2007.9512,-173.0435"/>
<polygon fill="#191970" stroke="#191970" points="1286.8893,-232.5826 1277.2323,-236.9405 1287.4992,-239.5559 1286.8893,-232.5826"/>
</g>
<!-- Node22 -->
<g id="node22" class="node">
<title>Node22</title>
<g id="a_node22"><a xlink:href="coherence_8cpp.html" target="_top" xlink:title="This file implements selective coherence mechanisms for ArgoDSM. ">
<polygon fill="#ffffff" stroke="#000000" points="1947,-.5 1947,-30.5 2120,-30.5 2120,-.5 1947,-.5"/>
<text text-anchor="start" x="1955" y="-18.5" font-family="Helvetica,sans-Serif" font-size="10.00" fill="#000000">/home/atmerhannah/argodsm</text>
<text text-anchor="middle" x="2033.5" y="-7.5" font-family="Helvetica,sans-Serif" font-size="10.00" fill="#000000">/src/backend/mpi/coherence.cpp</text>
</a>
</g>
</g>
<!-- Node21&#45;&gt;Node22 -->
<g id="edge29" class="edge">
<title>Node21&#45;&gt;Node22</title>
<path fill="none" stroke="#191970" d="M2038.2597,-145.9833C2022.676,-137.1117 2007.2963,-124.983 1998.5,-109 1984.1259,-82.882 2004.8666,-49.6527 2020.0252,-30.6579"/>
<polygon fill="#191970" stroke="#191970" points="2036.936,-149.243 2047.4106,-150.835 2040.215,-143.0584 2036.936,-149.243"/>
</g>
<!-- Node23 -->
<g id="node23" class="node">
<title>Node23</title>
<g id="a_node23"><a xlink:href="write__buffer_8hpp.html" target="_top" xlink:title="This file provides an interface for the ArgoDSM write buffer. ">
<polygon fill="#ffffff" stroke="#000000" points="2008,-67.5 2008,-108.5 2169,-108.5 2169,-67.5 2008,-67.5"/>
<text text-anchor="start" x="2016" y="-96.5" font-family="Helvetica,sans-Serif" font-size="10.00" fill="#000000">/home/atmerhannah/argodsm</text>
<text text-anchor="start" x="2016" y="-85.5" font-family="Helvetica,sans-Serif" font-size="10.00" fill="#000000">/src/backend/mpi/write</text>
<text text-anchor="middle" x="2088.5" y="-74.5" font-family="Helvetica,sans-Serif" font-size="10.00" fill="#000000">_buffer.hpp</text>
</a>
</g>
</g>
<!-- Node21&#45;&gt;Node23 -->
<g id="edge30" class="edge">
<title>Node21&#45;&gt;Node23</title>
<path fill="none" stroke="#191970" d="M2088.5,-140.8044C2088.5,-130.3919 2088.5,-118.4721 2088.5,-108.5956"/>
<polygon fill="#191970" stroke="#191970" points="2085.0001,-140.9608 2088.5,-150.9608 2092.0001,-140.9608 2085.0001,-140.9608"/>
</g>
<!-- Node24 -->
<g id="node24" class="node">
<title>Node24</title>
<g id="a_node24"><a xlink:href="swdsm_8cpp.html" target="_top" xlink:title="This file implements the MPI&#45;backend of ArgoDSM. ">
<polygon fill="#ffffff" stroke="#000000" points="2217,-.5 2217,-30.5 2378,-30.5 2378,-.5 2217,-.5"/>
<text text-anchor="start" x="2225" y="-18.5" font-family="Helvetica,sans-Serif" font-size="10.00" fill="#000000">/home/atmerhannah/argodsm</text>
<text text-anchor="middle" x="2297.5" y="-7.5" font-family="Helvetica,sans-Serif" font-size="10.00" fill="#000000">/src/backend/mpi/swdsm.cpp</text>
</a>
</g>
</g>
<!-- Node21&#45;&gt;Node24 -->
<g id="edge34" class="edge">
<title>Node21&#45;&gt;Node24</title>
<path fill="none" stroke="#191970" d="M2179.2285,-158.7649C2247.9914,-151.176 2334.3176,-136.3964 2356.5,-109 2368.2464,-94.4925 2364.2236,-83.9938 2356.5,-67 2349.6367,-51.8989 2335.9154,-39.4948 2323.4313,-30.6467"/>
<polygon fill="#191970" stroke="#191970" points="2178.7924,-155.2915 2169.2203,-159.833 2179.5353,-162.2519 2178.7924,-155.2915"/>
</g>
<!-- Node25 -->
<g id="node25" class="node">
<title>Node25</title>
<g id="a_node25"><a xlink:href="mpi_8cpp.html" target="_top" xlink:title="MPI backend implementation. ">
<polygon fill="#ffffff" stroke="#000000" points="2187,-73 2187,-103 2348,-103 2348,-73 2187,-73"/>
<text text-anchor="start" x="2195" y="-91" font-family="Helvetica,sans-Serif" font-size="10.00" fill="#000000">/home/atmerhannah/argodsm</text>
<text text-anchor="middle" x="2267.5" y="-80" font-family="Helvetica,sans-Serif" font-size="10.00" fill="#000000">/src/backend/mpi/mpi.cpp</text>
</a>
</g>
</g>
<!-- Node21&#45;&gt;Node25 -->
<g id="edge33" class="edge">
<title>Node21&#45;&gt;Node25</title>
<path fill="none" stroke="#191970" d="M2132.2682,-146.9278C2163.2005,-133.4489 2204.0982,-115.6276 2232.788,-103.1259"/>
<polygon fill="#191970" stroke="#191970" points="2130.7823,-143.7574 2123.013,-150.9608 2133.5786,-150.1746 2130.7823,-143.7574"/>
</g>
<!-- Node23&#45;&gt;Node22 -->
<g id="edge31" class="edge">
<title>Node23&#45;&gt;Node22</title>
<path fill="none" stroke="#191970" d="M2066.8073,-59.405C2059.3416,-49.564 2051.2777,-38.9343 2044.9545,-30.5991"/>
<polygon fill="#191970" stroke="#191970" points="2064.054,-61.5668 2072.8863,-67.4183 2069.6308,-57.336 2064.054,-61.5668"/>
</g>
<!-- Node23&#45;&gt;Node24 -->
<g id="edge32" class="edge">
<title>Node23&#45;&gt;Node24</title>
<path fill="none" stroke="#191970" d="M2157.5261,-64.0555C2189.3267,-53.0242 2226.1002,-40.2679 2253.9729,-30.5991"/>
<polygon fill="#191970" stroke="#191970" points="2156.1326,-60.8343 2147.832,-67.4183 2158.4268,-67.4477 2156.1326,-60.8343"/>
</g>
</g>
</svg>
        <g id="navigator" transform="translate(0 0)" fill="#404254">
                <rect fill="#f2f5e9" fill-opacity="0.5" stroke="#606060" stroke-width=".5" x="0" y="0" width="60" height="60"/>
                <use id="zoomplus" xlink:href="#zoomPlus" x="17" y="9" onmousedown="handleZoom(evt,'in')"/>
                <use id="zoomminus" xlink:href="#zoomMin" x="42" y="9" onmousedown="handleZoom(evt,'out')"/>
                <use id="reset" xlink:href="#resetDef" x="30" y="36" onmousedown="handleReset()"/>
                <g id="arrowUp" xlink:href="#dirArrow" transform="translate(30 24)" onmousedown="handlePan(0,-1)">
                  <use xlink:href="#rim" fill="#404040">
                        <set attributeName="fill" to="#808080" begin="arrowUp.mouseover" end="arrowUp.mouseout"/>
                  </use>
                  <path fill="none" stroke="white" stroke-width="1.5" d="M0,-3.0v7 M-2.5,-0.5L0,-3.0L2.5,-0.5"/>
                </g>
                <g id="arrowRight" xlink:href="#dirArrow" transform="rotate(90) translate(36 -43)" onmousedown="handlePan(1,0)">
                  <use xlink:href="#rim" fill="#404040">
                        <set attributeName="fill" to="#808080" begin="arrowRight.mouseover" end="arrowRight.mouseout"/>
                  </use>
                  <path fill="none" stroke="white" stroke-width="1.5" d="M0,-3.0v7 M-2.5,-0.5L0,-3.0L2.5,-0.5"/>
                </g>
                <g id="arrowDown" xlink:href="#dirArrow" transform="rotate(180) translate(-30 -48)" onmousedown="handlePan(0,1)">
                  <use xlink:href="#rim" fill="#404040">
                        <set attributeName="fill" to="#808080" begin="arrowDown.mouseover" end="arrowDown.mouseout"/>
                  </use>
                  <path fill="none" stroke="white" stroke-width="1.5" d="M0,-3.0v7 M-2.5,-0.5L0,-3.0L2.5,-0.5"/>
                </g>
                <g id="arrowLeft" xlink:href="#dirArrow" transform="rotate(270) translate(-36 17)" onmousedown="handlePan(-1,0)">
                  <use xlink:href="#rim" fill="#404040">
                        <set attributeName="fill" to="#808080" begin="arrowLeft.mouseover" end="arrowLeft.mouseout"/>
                  </use>
                  <path fill="none" stroke="white" stroke-width="1.5" d="M0,-3.0v7 M-2.5,-0.5L0,-3.0L2.5,-0.5"/>
                </g>
        </g>
        <svg viewBox="0 0 15 15" width="100%" height="30px" preserveAspectRatio="xMaxYMin meet">
         <g id="arrow_out" transform="scale(0.3 0.3)">
          <a xlink:href="collective__allocator_8h__dep__incl_org.svg" target="_base">
           <rect id="button" ry="5" rx="5" y="6" x="6" height="38" width="38"
                fill="#f2f5e9" fill-opacity="0.5" stroke="#606060" stroke-width="1.0"/>
           <path id="arrow"
             d="M 11.500037,31.436501 C 11.940474,20.09759 22.043105,11.32322 32.158766,21.979434 L 37.068811,17.246167 C 37.068811,17.246167 37.088388,32 37.088388,32 L 22.160133,31.978069 C 22.160133,31.978069 26.997745,27.140456 26.997745,27.140456 C 18.528582,18.264221 13.291696,25.230495 11.500037,31.436501 z"
             style="fill:#404040;"/>
          </a>
         </g>
        </svg>
</svg>
