<?xml version="1.0" encoding="UTF-8" standalone="no"?>
<!DOCTYPE svg PUBLIC "-//W3C//DTD SVG 1.1//EN"
 "http://www.w3.org/Graphics/SVG/1.1/DTD/svg11.dtd">
<!-- Generated by graphviz version 2.40.1 (20161225.0304)
 -->
<!-- Title: /home/atmerhannah/argodsm/src/allocators Pages: 1 -->
<svg width="122pt" height="223pt"
 viewBox="0.00 0.00 122.00 223.00" xmlns="http://www.w3.org/2000/svg" xmlns:xlink="http://www.w3.org/1999/xlink">
<g id="graph0" class="graph" transform="scale(1 1) rotate(0) translate(4 219)">
<title>/home/atmerhannah/argodsm/src/allocators</title>
<polygon fill="#ffffff" stroke="transparent" points="-4,4 -4,-219 118,-219 118,4 -4,4"/>
<g id="clust1" class="cluster">
<title>clusterdir_68267d1309a1af8e8297ef4c3efbcdba</title>
<g id="a_clust1"><a xlink:href="dir_68267d1309a1af8e8297ef4c3efbcdba.html" target="_top" xlink:title="src">
<polygon fill="#ddddee" stroke="#000000" points="8,-136 8,-207 90,-207 90,-136 8,-136"/>
<text text-anchor="middle" x="49" y="-195" font-family="Helvetica,sans-Serif" font-size="10.00" fill="#000000">src</text>
</a>
</g>
</g>
<!-- dir_6c23b03f1c1f5d39fa4681c6907c68b5 -->
<g id="node1" class="node">
<title>dir_6c23b03f1c1f5d39fa4681c6907c68b5</title>
<g id="a_node1"><a xlink:href="dir_6c23b03f1c1f5d39fa4681c6907c68b5.html" target="_top" xlink:title="allocators">
<polygon fill="#eeeeff" stroke="#000000" points="81.5,-180 16.5,-180 16.5,-144 81.5,-144 81.5,-180"/>
<text text-anchor="middle" x="49" y="-159.5" font-family="Helvetica,sans-Serif" font-size="10.00" fill="#000000">allocators</text>
</a>
</g>
</g>
<!-- dir_3f615ade772d23cefe5e20dcb18424a2 -->
<g id="node2" class="node">
<title>dir_3f615ade772d23cefe5e20dcb18424a2</title>
<g id="a_node2"><a xlink:href="dir_3f615ade772d23cefe5e20dcb18424a2.html" target="_top" xlink:title="backend">
<polygon fill="#ffffff" stroke="#ff0000" points="78,-36 20,-36 20,0 78,0 78,-36"/>
<text text-anchor="middle" x="49" y="-15.5" font-family="Helvetica,sans-Serif" font-size="10.00" fill="#000000">backend</text>
</a>
</g>
</g>
<!-- dir_6c23b03f1c1f5d39fa4681c6907c68b5&#45;&gt;dir_3f615ade772d23cefe5e20dcb18424a2 -->
<g id="edge2" class="edge">
<title>dir_6c23b03f1c1f5d39fa4681c6907c68b5&#45;&gt;dir_3f615ade772d23cefe5e20dcb18424a2</title>
<path fill="none" stroke="#000000" d="M43.8809,-143.6727C41.248,-133.2978 38.3204,-120.0284 37,-108 35.2541,-92.0955 35.2541,-87.9045 37,-72 37.9284,-63.5425 39.6514,-54.4715 41.5078,-46.2246"/>
<polygon fill="#000000" stroke="#000000" points="44.9527,-46.8678 43.8809,-36.3273 38.1456,-45.2356 44.9527,-46.8678"/>
<g id="a_edge2&#45;headlabel"><a xlink:href="dir_000001_000003.html" target="_top" xlink:title="2">
<text text-anchor="middle" x="46.8757" y="-48.5253" font-family="Helvetica,sans-Serif" font-size="10.00" fill="#000000">2</text>
</a>
</g>
</g>
<!-- dir_2146dfdfab3df05eabf1c1d9a0b60864 -->
<g id="node3" class="node">
<title>dir_2146dfdfab3df05eabf1c1d9a0b60864</title>
<g id="a_node3"><a xlink:href="dir_2146dfdfab3df05eabf1c1d9a0b60864.html" target="_top" xlink:title="mempools">
<polygon fill="none" stroke="#000000" points="114,-108 46,-108 46,-72 114,-72 114,-108"/>
<text text-anchor="middle" x="80" y="-87.5" font-family="Helvetica,sans-Serif" font-size="10.00" fill="#000000">mempools</text>
</a>
</g>
</g>
<!-- dir_6c23b03f1c1f5d39fa4681c6907c68b5&#45;&gt;dir_2146dfdfab3df05eabf1c1d9a0b60864 -->
<g id="edge3" class="edge">
<title>dir_6c23b03f1c1f5d39fa4681c6907c68b5&#45;&gt;dir_2146dfdfab3df05eabf1c1d9a0b60864</title>
<path fill="none" stroke="#000000" d="M56.8226,-143.8314C60.2109,-135.9617 64.2541,-126.5712 68.0076,-117.8533"/>
<polygon fill="#000000" stroke="#000000" points="71.3321,-118.9822 72.0721,-108.4133 64.9027,-116.214 71.3321,-118.9822"/>
<g id="a_edge3&#45;headlabel"><a xlink:href="dir_000001_000008.html" target="_top" xlink:title="4">
<text text-anchor="middle" x="72.5185" y="-120.9066" font-family="Helvetica,sans-Serif" font-size="10.00" fill="#000000">4</text>
</a>
</g>
</g>
<!-- dir_2146dfdfab3df05eabf1c1d9a0b60864&#45;&gt;dir_3f615ade772d23cefe5e20dcb18424a2 -->
<g id="edge1" class="edge">
<title>dir_2146dfdfab3df05eabf1c1d9a0b60864&#45;&gt;dir_3f615ade772d23cefe5e20dcb18424a2</title>
<path fill="none" stroke="#000000" d="M72.1774,-71.8314C68.7891,-63.9617 64.7459,-54.5712 60.9924,-45.8533"/>
<polygon fill="#000000" stroke="#000000" points="64.0973,-44.214 56.9279,-36.4133 57.6679,-46.9822 64.0973,-44.214"/>
<g id="a_edge1&#45;headlabel"><a xlink:href="dir_000008_000003.html" target="_top" xlink:title="2">
<text text-anchor="middle" x="68.1266" y="-43.8928" font-family="Helvetica,sans-Serif" font-size="10.00" fill="#000000">2</text>
</a>
</g>
</g>
</g>
</svg>
