<?xml version="1.0" encoding="UTF-8" standalone="no"?>
<!DOCTYPE svg PUBLIC "-//W3C//DTD SVG 1.1//EN"
 "http://www.w3.org/Graphics/SVG/1.1/DTD/svg11.dtd">
<!-- Generated by graphviz version 2.40.1 (20161225.0304)
 -->
<!-- Title: /home/atmerhannah/argodsm/src/data_distribution Pages: 1 -->
<svg width="140pt" height="151pt"
 viewBox="0.00 0.00 140.00 151.00" xmlns="http://www.w3.org/2000/svg" xmlns:xlink="http://www.w3.org/1999/xlink">
<g id="graph0" class="graph" transform="scale(1 1) rotate(0) translate(4 147)">
<title>/home/atmerhannah/argodsm/src/data_distribution</title>
<polygon fill="#ffffff" stroke="transparent" points="-4,4 -4,-147 136,-147 136,4 -4,4"/>
<g id="clust1" class="cluster">
<title>clusterdir_68267d1309a1af8e8297ef4c3efbcdba</title>
<g id="a_clust1"><a xlink:href="dir_68267d1309a1af8e8297ef4c3efbcdba.html" target="_top" xlink:title="src">
<polygon fill="#ddddee" stroke="#000000" points="8,-64 8,-135 124,-135 124,-64 8,-64"/>
<text text-anchor="middle" x="66" y="-123" font-family="Helvetica,sans-Serif" font-size="10.00" fill="#000000">src</text>
</a>
</g>
</g>
<!-- dir_303c75b2167b8ee1fb608a7a61a02a87 -->
<g id="node1" class="node">
<title>dir_303c75b2167b8ee1fb608a7a61a02a87</title>
<g id="a_node1"><a xlink:href="dir_303c75b2167b8ee1fb608a7a61a02a87.html" target="_top" xlink:title="data_distribution">
<polygon fill="#eeeeff" stroke="#000000" points="115.5,-108 16.5,-108 16.5,-72 115.5,-72 115.5,-108"/>
<text text-anchor="middle" x="66" y="-87.5" font-family="Helvetica,sans-Serif" font-size="10.00" fill="#000000">data_distribution</text>
</a>
</g>
</g>
<!-- dir_0c0c9fa8a58db41e576adc3ce68c5ee9 -->
<g id="node2" class="node">
<title>dir_0c0c9fa8a58db41e576adc3ce68c5ee9</title>
<g id="a_node2"><a xlink:href="dir_0c0c9fa8a58db41e576adc3ce68c5ee9.html" target="_top" xlink:title="types">
<polygon fill="none" stroke="#000000" points="57,-36 3,-36 3,0 57,0 57,-36"/>
<text text-anchor="middle" x="30" y="-15.5" font-family="Helvetica,sans-Serif" font-size="10.00" fill="#000000">types</text>
</a>
</g>
</g>
<!-- dir_303c75b2167b8ee1fb608a7a61a02a87&#45;&gt;dir_0c0c9fa8a58db41e576adc3ce68c5ee9 -->
<g id="edge1" class="edge">
<title>dir_303c75b2167b8ee1fb608a7a61a02a87&#45;&gt;dir_0c0c9fa8a58db41e576adc3ce68c5ee9</title>
<path fill="none" stroke="#000000" d="M56.9157,-71.8314C52.9385,-63.8771 48.1845,-54.369 43.7861,-45.5723"/>
<polygon fill="#000000" stroke="#000000" points="46.8093,-43.7923 39.2066,-36.4133 40.5483,-46.9228 46.8093,-43.7923"/>
<g id="a_edge1&#45;headlabel"><a xlink:href="dir_000006_000012.html" target="_top" xlink:title="1">
<text text-anchor="middle" x="50.9563" y="-43.2377" font-family="Helvetica,sans-Serif" font-size="10.00" fill="#000000">1</text>
</a>
</g>
</g>
<!-- dir_51e5b56c5a94789e05e3a3352a90e377 -->
<g id="node3" class="node">
<title>dir_51e5b56c5a94789e05e3a3352a90e377</title>
<g id="a_node3"><a xlink:href="dir_51e5b56c5a94789e05e3a3352a90e377.html" target="_top" xlink:title="env">
<polygon fill="none" stroke="#000000" points="129,-36 75,-36 75,0 129,0 129,-36"/>
<text text-anchor="middle" x="102" y="-15.5" font-family="Helvetica,sans-Serif" font-size="10.00" fill="#000000">env</text>
</a>
</g>
</g>
<!-- dir_303c75b2167b8ee1fb608a7a61a02a87&#45;&gt;dir_51e5b56c5a94789e05e3a3352a90e377 -->
<g id="edge2" class="edge">
<title>dir_303c75b2167b8ee1fb608a7a61a02a87&#45;&gt;dir_51e5b56c5a94789e05e3a3352a90e377</title>
<path fill="none" stroke="#000000" d="M75.0843,-71.8314C79.0615,-63.8771 83.8155,-54.369 88.2139,-45.5723"/>
<polygon fill="#000000" stroke="#000000" points="91.4517,-46.9228 92.7934,-36.4133 85.1907,-43.7923 91.4517,-46.9228"/>
<g id="a_edge2&#45;headlabel"><a xlink:href="dir_000006_000007.html" target="_top" xlink:title="1">
<text text-anchor="middle" x="92.3837" y="-48.9077" font-family="Helvetica,sans-Serif" font-size="10.00" fill="#000000">1</text>
</a>
</g>
</g>
</g>
</svg>
