<?xml version="1.0" encoding="UTF-8" standalone="no"?>
<!DOCTYPE svg PUBLIC "-//W3C//DTD SVG 1.1//EN"
 "http://www.w3.org/Graphics/SVG/1.1/DTD/svg11.dtd">
<!-- Generated by graphviz version 2.40.1 (20161225.0304)
 -->
<!-- Title: /home/atmerhannah/argodsm/src/signal Pages: 1 -->
<svg width="103pt" height="151pt"
 viewBox="0.00 0.00 103.00 151.00" xmlns="http://www.w3.org/2000/svg" xmlns:xlink="http://www.w3.org/1999/xlink">
<g id="graph0" class="graph" transform="scale(1 1) rotate(0) translate(4 147)">
<title>/home/atmerhannah/argodsm/src/signal</title>
<polygon fill="#ffffff" stroke="transparent" points="-4,4 -4,-147 99,-147 99,4 -4,4"/>
<g id="clust1" class="cluster">
<title>clusterdir_68267d1309a1af8e8297ef4c3efbcdba</title>
<g id="a_clust1"><a xlink:href="dir_68267d1309a1af8e8297ef4c3efbcdba.html" target="_top" xlink:title="src">
<polygon fill="#ddddee" stroke="#000000" points="12.5,-64 12.5,-135 82.5,-135 82.5,-64 12.5,-64"/>
<text text-anchor="middle" x="47.5" y="-123" font-family="Helvetica,sans-Serif" font-size="10.00" fill="#000000">src</text>
</a>
</g>
</g>
<!-- dir_e681bd22f1a85a89d9c18b68cc50d922 -->
<g id="node1" class="node">
<title>dir_e681bd22f1a85a89d9c18b68cc50d922</title>
<g id="a_node1"><a xlink:href="dir_e681bd22f1a85a89d9c18b68cc50d922.html" target="_top" xlink:title="signal">
<polygon fill="#eeeeff" stroke="#000000" points="74.5,-108 20.5,-108 20.5,-72 74.5,-72 74.5,-108"/>
<text text-anchor="middle" x="47.5" y="-87.5" font-family="Helvetica,sans-Serif" font-size="10.00" fill="#000000">signal</text>
</a>
</g>
</g>
<!-- dir_eaca60f7b9e9ea2ccc0f3ac48dc19de2 -->
<g id="node2" class="node">
<title>dir_eaca60f7b9e9ea2ccc0f3ac48dc19de2</title>
<g id="a_node2"><a xlink:href="dir_eaca60f7b9e9ea2ccc0f3ac48dc19de2.html" target="_top" xlink:title="virtual_memory">
<polygon fill="none" stroke="#000000" points="95,-36 0,-36 0,0 95,0 95,-36"/>
<text text-anchor="middle" x="47.5" y="-15.5" font-family="Helvetica,sans-Serif" font-size="10.00" fill="#000000">virtual_memory</text>
</a>
</g>
</g>
<!-- dir_e681bd22f1a85a89d9c18b68cc50d922&#45;&gt;dir_eaca60f7b9e9ea2ccc0f3ac48dc19de2 -->
<g id="edge1" class="edge">
<title>dir_e681bd22f1a85a89d9c18b68cc50d922&#45;&gt;dir_eaca60f7b9e9ea2ccc0f3ac48dc19de2</title>
<path fill="none" stroke="#000000" d="M47.5,-71.8314C47.5,-64.131 47.5,-54.9743 47.5,-46.4166"/>
<polygon fill="#000000" stroke="#000000" points="51.0001,-46.4132 47.5,-36.4133 44.0001,-46.4133 51.0001,-46.4132"/>
<g id="a_edge1&#45;headlabel"><a xlink:href="dir_000009_000013.html" target="_top" xlink:title="1">
<text text-anchor="middle" x="53.8393" y="-47.5079" font-family="Helvetica,sans-Serif" font-size="10.00" fill="#000000">1</text>
</a>
</g>
</g>
</g>
</svg>
