<?xml version="1.0" encoding="UTF-8" standalone="no"?>
<!DOCTYPE svg PUBLIC "-//W3C//DTD SVG 1.1//EN"
 "http://www.w3.org/Graphics/SVG/1.1/DTD/svg11.dtd">
<!-- Generated by graphviz version 2.40.1 (20161225.0304)
 -->
<!-- Title: /home/atmerhannah/argodsm/src/allocators/dynamic_allocator.h Pages: 1 -->
<!--zoomable 429 -->
<svg id="main" version="1.1" xmlns="http://www.w3.org/2000/svg" xmlns:xlink="http://www.w3.org/1999/xlink" xml:space="preserve" onload="init(evt)">
<style type="text/css"><![CDATA[
.edge:hover path { stroke: red; }
.edge:hover polygon { stroke: red; fill: red; }
]]></style>
<script type="text/javascript"><![CDATA[
var edges = document.getElementsByTagName('g');
if (edges && edges.length) {
  for (var i=0;i<edges.length;i++) {
    if (edges[i].id.substr(0,4)=='edge') {
      edges[i].setAttribute('class','edge');
    }
  }
}
]]></script>
        <defs>
                <circle id="rim" cx="0" cy="0" r="7"/>
                <circle id="rim2" cx="0" cy="0" r="3.5"/>
                <g id="zoomPlus">
                        <use xlink:href="#rim" fill="#404040">
                                <set attributeName="fill" to="#808080" begin="zoomplus.mouseover" end="zoomplus.mouseout"/>
                        </use>
                        <path d="M-4,0h8M0,-4v8" fill="none" stroke="white" stroke-width="1.5" pointer-events="none"/>
                </g>
                <g id="zoomMin">
                        <use xlink:href="#rim" fill="#404040">
                                <set attributeName="fill" to="#808080" begin="zoomminus.mouseover" end="zoomminus.mouseout"/>
                        </use>
                        <path d="M-4,0h8" fill="none" stroke="white" stroke-width="1.5" pointer-events="none"/>
                </g>
                <g id="dirArrow">
                        <path fill="none" stroke="white" stroke-width="1.5" d="M0,-3.0v7 M-2.5,-0.5L0,-3.0L2.5,-0.5"/>
                </g>
               <g id="resetDef">
                       <use xlink:href="#rim2" fill="#404040">
                               <set attributeName="fill" to="#808080" begin="reset.mouseover" end="reset.mouseout"/>
                       </use>
               </g>
        </defs>

<script type="text/javascript">
var viewWidth = 2329;
var viewHeight = 429;
var sectionId = 'dynsection-0';
</script>
<script xlink:href="svgpan.js"/>
<svg id="graph" class="graph">
<g id="viewport">
<title>/home/atmerhannah/argodsm/src/allocators/dynamic_allocator.h</title>
<polygon fill="#ffffff" stroke="transparent" points="-4,4 -4,-425 2325,-425 2325,4 -4,4"/>
<!-- Node1 -->
<g id="node1" class="node">
<title>Node1</title>
<polygon fill="#bfbfbf" stroke="#000000" points="1007,-379.5 1007,-420.5 1168,-420.5 1168,-379.5 1007,-379.5"/>
<text text-anchor="start" x="1015" y="-408.5" font-family="Helvetica,sans-Serif" font-size="10.00" fill="#000000">/home/atmerhannah/argodsm</text>
<text text-anchor="start" x="1015" y="-397.5" font-family="Helvetica,sans-Serif" font-size="10.00" fill="#000000">/src/allocators/dynamic</text>
<text text-anchor="middle" x="1087.5" y="-386.5" font-family="Helvetica,sans-Serif" font-size="10.00" fill="#000000">_allocator.h</text>
</g>
<!-- Node2 -->
<g id="node2" class="node">
<title>Node2</title>
<g id="a_node2"><a xlink:href="dynamic__allocator_8hpp.html" target="_top" xlink:title="This file provides the dynamic allocator for ArgoDSM. ">
<polygon fill="#ffffff" stroke="#000000" points="918,-301.5 918,-342.5 1079,-342.5 1079,-301.5 918,-301.5"/>
<text text-anchor="start" x="926" y="-330.5" font-family="Helvetica,sans-Serif" font-size="10.00" fill="#000000">/home/atmerhannah/argodsm</text>
<text text-anchor="start" x="926" y="-319.5" font-family="Helvetica,sans-Serif" font-size="10.00" fill="#000000">/src/allocators/dynamic</text>
<text text-anchor="middle" x="998.5" y="-308.5" font-family="Helvetica,sans-Serif" font-size="10.00" fill="#000000">_allocator.hpp</text>
</a>
</g>
</g>
<!-- Node1&#45;&gt;Node2 -->
<g id="edge1" class="edge">
<title>Node1&#45;&gt;Node2</title>
<path fill="none" stroke="#191970" d="M1055.8126,-372.229C1044.7062,-362.4953 1032.4357,-351.7414 1022.1076,-342.6898"/>
<polygon fill="#191970" stroke="#191970" points="1053.8222,-375.1386 1063.6496,-379.0974 1058.436,-369.8742 1053.8222,-375.1386"/>
</g>
<!-- Node20 -->
<g id="node20" class="node">
<title>Node20</title>
<g id="a_node20"><a xlink:href="allocators_8h.html" target="_top" xlink:title="This file provides all C allocators for ArgoDSM. ">
<polygon fill="#ffffff" stroke="#000000" points="1135,-307 1135,-337 1296,-337 1296,-307 1135,-307"/>
<text text-anchor="start" x="1143" y="-325" font-family="Helvetica,sans-Serif" font-size="10.00" fill="#000000">/home/atmerhannah/argodsm</text>
<text text-anchor="middle" x="1215.5" y="-314" font-family="Helvetica,sans-Serif" font-size="10.00" fill="#000000">/src/allocators/allocators.h</text>
</a>
</g>
</g>
<!-- Node1&#45;&gt;Node20 -->
<g id="edge29" class="edge">
<title>Node1&#45;&gt;Node20</title>
<path fill="none" stroke="#191970" d="M1130.1552,-374.007C1150.2666,-361.7516 1173.5537,-347.561 1190.7172,-337.102"/>
<polygon fill="#191970" stroke="#191970" points="1128.1837,-371.1097 1121.4656,-379.3022 1131.8263,-377.0873 1128.1837,-371.1097"/>
</g>
<!-- Node3 -->
<g id="node3" class="node">
<title>Node3</title>
<g id="a_node3"><a xlink:href="collective__allocator_8hpp.html" target="_top" xlink:title="This file provides the collective allocator for ArgoDSM. ">
<polygon fill="#ffffff" stroke="#000000" points="554,-223.5 554,-264.5 715,-264.5 715,-223.5 554,-223.5"/>
<text text-anchor="start" x="562" y="-252.5" font-family="Helvetica,sans-Serif" font-size="10.00" fill="#000000">/home/atmerhannah/argodsm</text>
<text text-anchor="start" x="562" y="-241.5" font-family="Helvetica,sans-Serif" font-size="10.00" fill="#000000">/src/allocators/collective</text>
<text text-anchor="middle" x="634.5" y="-230.5" font-family="Helvetica,sans-Serif" font-size="10.00" fill="#000000">_allocator.hpp</text>
</a>
</g>
</g>
<!-- Node2&#45;&gt;Node3 -->
<g id="edge2" class="edge">
<title>Node2&#45;&gt;Node3</title>
<path fill="none" stroke="#191970" d="M907.6322,-302.5283C848.4842,-289.8538 772.0284,-273.4704 715.0576,-261.2623"/>
<polygon fill="#191970" stroke="#191970" points="907.2052,-306.0162 917.7166,-304.6893 908.672,-299.1716 907.2052,-306.0162"/>
</g>
<!-- Node4 -->
<g id="node4" class="node">
<title>Node4</title>
<g id="a_node4"><a xlink:href="src_2allocators_2allocators_8cpp.html" target="_top" xlink:title="This file provides the default allocators. ">
<polygon fill="#ffffff" stroke="#000000" points="132,-151 132,-181 293,-181 293,-151 132,-151"/>
<text text-anchor="start" x="140" y="-169" font-family="Helvetica,sans-Serif" font-size="10.00" fill="#000000">/home/atmerhannah/argodsm</text>
<text text-anchor="middle" x="212.5" y="-158" font-family="Helvetica,sans-Serif" font-size="10.00" fill="#000000">/src/allocators/allocators.cpp</text>
</a>
</g>
</g>
<!-- Node2&#45;&gt;Node4 -->
<g id="edge26" class="edge">
<title>Node2&#45;&gt;Node4</title>
<path fill="none" stroke="#191970" d="M907.7434,-315.0404C815.5719,-306.9376 669.0675,-291.2054 544.5,-265 438.4074,-242.6812 317.1227,-202.7117 254.6359,-181.012"/>
<polygon fill="#191970" stroke="#191970" points="907.6109,-318.542 917.8761,-315.9196 908.2161,-311.5682 907.6109,-318.542"/>
</g>
<!-- Node5 -->
<g id="node5" class="node">
<title>Node5</title>
<g id="a_node5"><a xlink:href="allocators_8hpp.html" target="_top" xlink:title="This file provides all C++ allocators for ArgoDSM. ">
<polygon fill="#ffffff" stroke="#000000" points="918,-151 918,-181 1079,-181 1079,-151 918,-151"/>
<text text-anchor="start" x="926" y="-169" font-family="Helvetica,sans-Serif" font-size="10.00" fill="#000000">/home/atmerhannah/argodsm</text>
<text text-anchor="middle" x="998.5" y="-158" font-family="Helvetica,sans-Serif" font-size="10.00" fill="#000000">/src/allocators/allocators.hpp</text>
</a>
</g>
</g>
<!-- Node2&#45;&gt;Node5 -->
<g id="edge27" class="edge">
<title>Node2&#45;&gt;Node5</title>
<path fill="none" stroke="#191970" d="M998.5,-291.2053C998.5,-258.0093 998.5,-206.5293 998.5,-181.1708"/>
<polygon fill="#191970" stroke="#191970" points="995.0001,-291.2844 998.5,-301.2844 1002.0001,-291.2844 995.0001,-291.2844"/>
</g>
<!-- Node7 -->
<g id="node7" class="node">
<title>Node7</title>
<g id="a_node7"><a xlink:href="argo_8cpp.html" target="_top" xlink:title="This file implements some of the basic ArgoDSM calls. ">
<polygon fill="#ffffff" stroke="#000000" points="1790,-.5 1790,-30.5 1951,-30.5 1951,-.5 1790,-.5"/>
<text text-anchor="start" x="1798" y="-18.5" font-family="Helvetica,sans-Serif" font-size="10.00" fill="#000000">/home/atmerhannah/argodsm</text>
<text text-anchor="middle" x="1870.5" y="-7.5" font-family="Helvetica,sans-Serif" font-size="10.00" fill="#000000">/src/argo.cpp</text>
</a>
</g>
</g>
<!-- Node2&#45;&gt;Node7 -->
<g id="edge28" class="edge">
<title>Node2&#45;&gt;Node7</title>
<path fill="none" stroke="#191970" d="M1036.4836,-295.7559C1069.4188,-273.9266 1118.9778,-243.2577 1165.5,-223 1387.6123,-126.2831 1668.0766,-58.8865 1798.1457,-30.5221"/>
<polygon fill="#191970" stroke="#191970" points="1034.435,-292.9153 1028.0664,-301.3824 1038.3251,-298.7348 1034.435,-292.9153"/>
</g>
<!-- Node3&#45;&gt;Node4 -->
<g id="edge3" class="edge">
<title>Node3&#45;&gt;Node4</title>
<path fill="none" stroke="#191970" d="M543.7629,-229.3088C478.023,-218.3911 387.0848,-202.7242 307.5,-187 298.1375,-185.1502 288.2802,-183.094 278.6026,-181.0126"/>
<polygon fill="#191970" stroke="#191970" points="543.2454,-232.7707 553.683,-230.9521 544.3894,-225.8648 543.2454,-232.7707"/>
</g>
<!-- Node3&#45;&gt;Node5 -->
<g id="edge4" class="edge">
<title>Node3&#45;&gt;Node5</title>
<path fill="none" stroke="#191970" d="M725.0734,-225.0139C777.2678,-214.0212 844.1067,-199.8569 903.5,-187 912.3322,-185.0881 921.6219,-183.0581 930.7922,-181.043"/>
<polygon fill="#191970" stroke="#191970" points="724.2347,-221.6136 715.1701,-227.0985 725.6767,-228.4635 724.2347,-221.6136"/>
</g>
<!-- Node3&#45;&gt;Node7 -->
<g id="edge17" class="edge">
<title>Node3&#45;&gt;Node7</title>
<path fill="none" stroke="#191970" d="M700.2689,-219.9556C755.7175,-199.7518 837.2015,-170.2194 908.5,-145 954.6134,-128.689 966.3264,-125.1397 1012.5,-109 1065.4451,-90.4934 1076.5019,-77.9948 1131.5,-67 1415.2178,-10.2816 1494.0424,-63.8773 1781.5,-31 1784.149,-30.697 1786.8387,-30.3659 1789.5519,-30.0118"/>
<polygon fill="#191970" stroke="#191970" points="698.7672,-216.7777 690.5707,-223.491 701.1647,-223.3543 698.7672,-216.7777"/>
</g>
<!-- Node8 -->
<g id="node8" class="node">
<title>Node8</title>
<g id="a_node8"><a xlink:href="tests_2allocators_8cpp.html" target="_top" xlink:title="This file provides unit tests for the ArgoDSM allocators and memory pools. ">
<polygon fill="#ffffff" stroke="#000000" points="358,-.5 358,-30.5 519,-30.5 519,-.5 358,-.5"/>
<text text-anchor="start" x="366" y="-18.5" font-family="Helvetica,sans-Serif" font-size="10.00" fill="#000000">/home/atmerhannah/argodsm</text>
<text text-anchor="middle" x="438.5" y="-7.5" font-family="Helvetica,sans-Serif" font-size="10.00" fill="#000000">/tests/allocators.cpp</text>
</a>
</g>
</g>
<!-- Node3&#45;&gt;Node8 -->
<g id="edge21" class="edge">
<title>Node3&#45;&gt;Node8</title>
<path fill="none" stroke="#191970" d="M630.6655,-213.4356C624.4662,-168.648 610.9419,-88.198 591.5,-67 579.0443,-53.4193 539.0145,-40.2019 503.0252,-30.558"/>
<polygon fill="#191970" stroke="#191970" points="627.2133,-214.0263 632.0145,-223.4708 634.1509,-213.0936 627.2133,-214.0263"/>
</g>
<!-- Node9 -->
<g id="node9" class="node">
<title>Node9</title>
<g id="a_node9"><a xlink:href="api_8cpp.html" target="_top" xlink:title="This file provides unit tests for the ArgoDSM API functions. ">
<polygon fill="#ffffff" stroke="#000000" points="537,-.5 537,-30.5 698,-30.5 698,-.5 537,-.5"/>
<text text-anchor="start" x="545" y="-18.5" font-family="Helvetica,sans-Serif" font-size="10.00" fill="#000000">/home/atmerhannah/argodsm</text>
<text text-anchor="middle" x="617.5" y="-7.5" font-family="Helvetica,sans-Serif" font-size="10.00" fill="#000000">/tests/api.cpp</text>
</a>
</g>
</g>
<!-- Node3&#45;&gt;Node9 -->
<g id="edge22" class="edge">
<title>Node3&#45;&gt;Node9</title>
<path fill="none" stroke="#191970" d="M635.4916,-213.2861C636.2053,-177.8697 636.0911,-117.9763 629.5,-67 627.899,-54.6176 624.6123,-40.8568 621.8829,-30.6769"/>
<polygon fill="#191970" stroke="#191970" points="631.9886,-213.3742 635.2498,-223.4546 638.9866,-213.5407 631.9886,-213.3742"/>
</g>
<!-- Node12 -->
<g id="node12" class="node">
<title>Node12</title>
<g id="a_node12"><a xlink:href="lock_8cpp.html" target="_top" xlink:title="This file provides unit tests for the ArgoDSM locks. ">
<polygon fill="#ffffff" stroke="#000000" points="179,-.5 179,-30.5 340,-30.5 340,-.5 179,-.5"/>
<text text-anchor="start" x="187" y="-18.5" font-family="Helvetica,sans-Serif" font-size="10.00" fill="#000000">/home/atmerhannah/argodsm</text>
<text text-anchor="middle" x="259.5" y="-7.5" font-family="Helvetica,sans-Serif" font-size="10.00" fill="#000000">/tests/lock.cpp</text>
</a>
</g>
</g>
<!-- Node3&#45;&gt;Node12 -->
<g id="edge23" class="edge">
<title>Node3&#45;&gt;Node12</title>
<path fill="none" stroke="#191970" d="M623.2005,-213.8885C604.9461,-165.9404 569.7738,-76.6348 557.5,-67 483.3579,-8.7995 441.374,-47.0861 348.5,-31 345.7183,-30.5182 342.8878,-30.0275 340.029,-29.5316"/>
<polygon fill="#191970" stroke="#191970" points="620.0072,-215.3388 626.8247,-223.4488 626.5527,-212.8574 620.0072,-215.3388"/>
</g>
<!-- Node13 -->
<g id="node13" class="node">
<title>Node13</title>
<g id="a_node13"><a xlink:href="omp_8cpp.html" target="_top" xlink:title="This file provides tests using OpenMP in ArgoDSM. ">
<polygon fill="#ffffff" stroke="#000000" points="716,-.5 716,-30.5 877,-30.5 877,-.5 716,-.5"/>
<text text-anchor="start" x="724" y="-18.5" font-family="Helvetica,sans-Serif" font-size="10.00" fill="#000000">/home/atmerhannah/argodsm</text>
<text text-anchor="middle" x="796.5" y="-7.5" font-family="Helvetica,sans-Serif" font-size="10.00" fill="#000000">/tests/omp.cpp</text>
</a>
</g>
</g>
<!-- Node3&#45;&gt;Node13 -->
<g id="edge24" class="edge">
<title>Node3&#45;&gt;Node13</title>
<path fill="none" stroke="#191970" d="M655.0346,-215.0361C689.8008,-165.9985 759.0696,-68.2954 785.7123,-30.7159"/>
<polygon fill="#191970" stroke="#191970" points="652.0906,-213.137 649.1621,-223.3191 657.8011,-217.1856 652.0906,-213.137"/>
</g>
<!-- Node14 -->
<g id="node14" class="node">
<title>Node14</title>
<g id="a_node14"><a xlink:href="prefetch_8cpp.html" target="_top" xlink:title="This file provides unit tests for the ArgoDSM prefetch mechanism. ">
<polygon fill="#ffffff" stroke="#000000" points="0,-.5 0,-30.5 161,-30.5 161,-.5 0,-.5"/>
<text text-anchor="start" x="8" y="-18.5" font-family="Helvetica,sans-Serif" font-size="10.00" fill="#000000">/home/atmerhannah/argodsm</text>
<text text-anchor="middle" x="80.5" y="-7.5" font-family="Helvetica,sans-Serif" font-size="10.00" fill="#000000">/tests/prefetch.cpp</text>
</a>
</g>
</g>
<!-- Node3&#45;&gt;Node14 -->
<g id="edge25" class="edge">
<title>Node3&#45;&gt;Node14</title>
<path fill="none" stroke="#191970" d="M543.8308,-230.7215C493.9585,-221.7182 431.6059,-207.6374 378.5,-187 364.034,-181.3784 176.3487,-71.6751 106.4753,-30.734"/>
<polygon fill="#191970" stroke="#191970" points="543.497,-234.2167 553.9536,-232.5105 544.7153,-227.3235 543.497,-234.2167"/>
</g>
<!-- Node18 -->
<g id="node18" class="node">
<title>Node18</title>
<g id="a_node18"><a xlink:href="cohort__lock_8hpp.html" target="_top" xlink:title="This file provides a cohort lock for the ArgoDSM system. ">
<polygon fill="#ffffff" stroke="#000000" points="388,-145.5 388,-186.5 549,-186.5 549,-145.5 388,-145.5"/>
<text text-anchor="start" x="396" y="-174.5" font-family="Helvetica,sans-Serif" font-size="10.00" fill="#000000">/home/atmerhannah/argodsm</text>
<text text-anchor="start" x="396" y="-163.5" font-family="Helvetica,sans-Serif" font-size="10.00" fill="#000000">/src/synchronization/cohort</text>
<text text-anchor="middle" x="468.5" y="-152.5" font-family="Helvetica,sans-Serif" font-size="10.00" fill="#000000">_lock.hpp</text>
</a>
</g>
</g>
<!-- Node3&#45;&gt;Node18 -->
<g id="edge18" class="edge">
<title>Node3&#45;&gt;Node18</title>
<path fill="none" stroke="#191970" d="M581.1285,-218.9218C558.856,-208.4564 533.307,-196.4515 512.179,-186.5239"/>
<polygon fill="#191970" stroke="#191970" points="579.9117,-222.2172 590.4509,-223.3022 582.8887,-215.8817 579.9117,-222.2172"/>
</g>
<!-- Node6 -->
<g id="node6" class="node">
<title>Node6</title>
<g id="a_node6"><a xlink:href="argo_8hpp.html" target="_top" xlink:title="This file provides the full C++ interface to ArgoDSM. ">
<polygon fill="#ffffff" stroke="#000000" points="842,-73 842,-103 1003,-103 1003,-73 842,-73"/>
<text text-anchor="start" x="850" y="-91" font-family="Helvetica,sans-Serif" font-size="10.00" fill="#000000">/home/atmerhannah/argodsm</text>
<text text-anchor="middle" x="922.5" y="-80" font-family="Helvetica,sans-Serif" font-size="10.00" fill="#000000">/src/argo.hpp</text>
</a>
</g>
</g>
<!-- Node5&#45;&gt;Node6 -->
<g id="edge5" class="edge">
<title>Node5&#45;&gt;Node6</title>
<path fill="none" stroke="#191970" d="M976.8119,-143.7412C964.1888,-130.7859 948.6015,-114.7884 937.3679,-103.2592"/>
<polygon fill="#191970" stroke="#191970" points="974.3609,-146.241 983.8464,-150.9608 979.3746,-141.356 974.3609,-146.241"/>
</g>
<!-- Node6&#45;&gt;Node7 -->
<g id="edge6" class="edge">
<title>Node6&#45;&gt;Node7</title>
<path fill="none" stroke="#191970" d="M993.1903,-70.9852C1001.3519,-69.4342 1009.5841,-68.0536 1017.5,-67 1354.4608,-22.1513 1443.6131,-68.235 1781.5,-31 1784.1502,-30.7079 1786.8409,-30.3863 1789.5551,-30.0404"/>
<polygon fill="#191970" stroke="#191970" points="992.4221,-67.5694 983.2958,-72.9511 993.7862,-74.4352 992.4221,-67.5694"/>
</g>
<!-- Node6&#45;&gt;Node8 -->
<g id="edge7" class="edge">
<title>Node6&#45;&gt;Node8</title>
<path fill="none" stroke="#191970" d="M831.7685,-75.6717C751.6342,-64.601 631.6695,-47.5834 527.5,-31 524.712,-30.5562 521.876,-30.0981 519.0127,-29.63"/>
<polygon fill="#191970" stroke="#191970" points="831.4431,-79.1598 841.8276,-77.059 832.3996,-72.2255 831.4431,-79.1598"/>
</g>
<!-- Node6&#45;&gt;Node9 -->
<g id="edge8" class="edge">
<title>Node6&#45;&gt;Node9</title>
<path fill="none" stroke="#191970" d="M849.567,-70.6635C798.0745,-58.4234 729.7704,-42.1872 680.6152,-30.5028"/>
<polygon fill="#191970" stroke="#191970" points="848.7654,-74.0704 859.3038,-72.978 850.3843,-67.2601 848.7654,-74.0704"/>
</g>
<!-- Node10 -->
<g id="node10" class="node">
<title>Node10</title>
<g id="a_node10"><a xlink:href="backend_8cpp.html" target="_top" xlink:title="This file provides tests for the backends. ">
<polygon fill="#ffffff" stroke="#000000" points="1432,-.5 1432,-30.5 1593,-30.5 1593,-.5 1432,-.5"/>
<text text-anchor="start" x="1440" y="-18.5" font-family="Helvetica,sans-Serif" font-size="10.00" fill="#000000">/home/atmerhannah/argodsm</text>
<text text-anchor="middle" x="1512.5" y="-7.5" font-family="Helvetica,sans-Serif" font-size="10.00" fill="#000000">/tests/backend.cpp</text>
</a>
</g>
</g>
<!-- Node6&#45;&gt;Node10 -->
<g id="edge9" class="edge">
<title>Node6&#45;&gt;Node10</title>
<path fill="none" stroke="#191970" d="M995.0346,-70.9584C1002.5956,-69.4842 1010.1873,-68.1276 1017.5,-67 1196.5363,-39.3923 1243.8864,-54.5614 1423.5,-31 1426.1436,-30.6532 1428.8286,-30.2841 1431.5378,-29.8973"/>
<polygon fill="#191970" stroke="#191970" points="994.2489,-67.5463 985.1385,-72.9548 995.6332,-74.4081 994.2489,-67.5463"/>
</g>
<!-- Node11 -->
<g id="node11" class="node">
<title>Node11</title>
<g id="a_node11"><a xlink:href="barrier_8cpp.html" target="_top" xlink:title="This file provides tests for the barrier synchronization. ">
<polygon fill="#ffffff" stroke="#000000" points="1611,-.5 1611,-30.5 1772,-30.5 1772,-.5 1611,-.5"/>
<text text-anchor="start" x="1619" y="-18.5" font-family="Helvetica,sans-Serif" font-size="10.00" fill="#000000">/home/atmerhannah/argodsm</text>
<text text-anchor="middle" x="1691.5" y="-7.5" font-family="Helvetica,sans-Serif" font-size="10.00" fill="#000000">/tests/barrier.cpp</text>
</a>
</g>
</g>
<!-- Node6&#45;&gt;Node11 -->
<g id="edge10" class="edge">
<title>Node6&#45;&gt;Node11</title>
<path fill="none" stroke="#191970" d="M993.8389,-70.977C1001.7899,-69.4539 1009.7964,-68.0817 1017.5,-67 1275.4611,-30.7772 1343.7874,-61.3937 1602.5,-31 1605.1481,-30.6889 1607.8369,-30.3508 1610.5494,-29.9906"/>
<polygon fill="#191970" stroke="#191970" points="992.9454,-67.5863 983.8243,-72.9765 994.316,-74.4508 992.9454,-67.5863"/>
</g>
<!-- Node6&#45;&gt;Node12 -->
<g id="edge11" class="edge">
<title>Node6&#45;&gt;Node12</title>
<path fill="none" stroke="#191970" d="M831.9323,-81.0749C718.612,-71.9348 518.7374,-54.2446 348.5,-31 345.8582,-30.6393 343.1749,-30.2581 340.4671,-29.8608"/>
<polygon fill="#191970" stroke="#191970" points="831.705,-84.5678 841.9529,-81.8791 832.265,-77.5903 831.705,-84.5678"/>
</g>
<!-- Node6&#45;&gt;Node13 -->
<g id="edge12" class="edge">
<title>Node6&#45;&gt;Node13</title>
<path fill="none" stroke="#191970" d="M887.6221,-67.9313C867.0334,-56.0847 841.4029,-41.337 822.5738,-30.5028"/>
<polygon fill="#191970" stroke="#191970" points="885.9796,-71.0243 896.3927,-72.978 889.4707,-64.957 885.9796,-71.0243"/>
</g>
<!-- Node6&#45;&gt;Node14 -->
<g id="edge13" class="edge">
<title>Node6&#45;&gt;Node14</title>
<path fill="none" stroke="#191970" d="M831.6774,-82.233C660.315,-71.168 295.2221,-46.6687 169.5,-31 166.8542,-30.6703 164.1673,-30.316 161.4565,-29.9418"/>
<polygon fill="#191970" stroke="#191970" points="831.4796,-85.7274 841.6841,-82.8781 831.93,-78.7419 831.4796,-85.7274"/>
</g>
<!-- Node15 -->
<g id="node15" class="node">
<title>Node15</title>
<g id="a_node15"><a xlink:href="stlallocation_8cpp.html" target="_top" xlink:title="This file provides tests using C++ interfaces in ArgoDSM. ">
<polygon fill="#ffffff" stroke="#000000" points="895,-.5 895,-30.5 1056,-30.5 1056,-.5 895,-.5"/>
<text text-anchor="start" x="903" y="-18.5" font-family="Helvetica,sans-Serif" font-size="10.00" fill="#000000">/home/atmerhannah/argodsm</text>
<text text-anchor="middle" x="975.5" y="-7.5" font-family="Helvetica,sans-Serif" font-size="10.00" fill="#000000">/tests/stlallocation.cpp</text>
</a>
</g>
</g>
<!-- Node6&#45;&gt;Node15 -->
<g id="edge14" class="edge">
<title>Node6&#45;&gt;Node15</title>
<path fill="none" stroke="#191970" d="M939.4276,-64.8443C947.6476,-53.6 957.2871,-40.4139 964.5324,-30.5028"/>
<polygon fill="#191970" stroke="#191970" points="936.5577,-62.8395 933.4816,-72.978 942.2088,-66.9706 936.5577,-62.8395"/>
</g>
<!-- Node16 -->
<g id="node16" class="node">
<title>Node16</title>
<g id="a_node16"><a xlink:href="trivial_8cpp.html" target="_top" xlink:title="This file provides unit tests for trivial sanity checks when using ArgoDSM. ">
<polygon fill="#ffffff" stroke="#000000" points="1074,-.5 1074,-30.5 1235,-30.5 1235,-.5 1074,-.5"/>
<text text-anchor="start" x="1082" y="-18.5" font-family="Helvetica,sans-Serif" font-size="10.00" fill="#000000">/home/atmerhannah/argodsm</text>
<text text-anchor="middle" x="1154.5" y="-7.5" font-family="Helvetica,sans-Serif" font-size="10.00" fill="#000000">/tests/trivial.cpp</text>
</a>
</g>
</g>
<!-- Node6&#45;&gt;Node16 -->
<g id="edge15" class="edge">
<title>Node6&#45;&gt;Node16</title>
<path fill="none" stroke="#191970" d="M980.1888,-69.9723C1019.0842,-57.8174 1069.8005,-41.9686 1106.491,-30.5028"/>
<polygon fill="#191970" stroke="#191970" points="979.0714,-66.6545 970.5705,-72.978 981.1593,-73.3358 979.0714,-66.6545"/>
</g>
<!-- Node17 -->
<g id="node17" class="node">
<title>Node17</title>
<g id="a_node17"><a xlink:href="uninitialized_8cpp.html" target="_top" xlink:title="This file provides unit tests for accessing ArgoDSM memory in various ways. ">
<polygon fill="#ffffff" stroke="#000000" points="1253,-.5 1253,-30.5 1414,-30.5 1414,-.5 1253,-.5"/>
<text text-anchor="start" x="1261" y="-18.5" font-family="Helvetica,sans-Serif" font-size="10.00" fill="#000000">/home/atmerhannah/argodsm</text>
<text text-anchor="middle" x="1333.5" y="-7.5" font-family="Helvetica,sans-Serif" font-size="10.00" fill="#000000">/tests/uninitialized.cpp</text>
</a>
</g>
</g>
<!-- Node6&#45;&gt;Node17 -->
<g id="edge16" class="edge">
<title>Node6&#45;&gt;Node17</title>
<path fill="none" stroke="#191970" d="M998.2599,-70.8241C1004.7577,-69.4813 1011.2378,-68.1876 1017.5,-67 1117.861,-47.9673 1143.7352,-47.7636 1244.5,-31 1247.2848,-30.5367 1250.1181,-30.0619 1252.9791,-29.5796"/>
<polygon fill="#191970" stroke="#191970" points="997.1301,-67.485 988.0634,-72.9664 998.5694,-74.3354 997.1301,-67.485"/>
</g>
<!-- Node18&#45;&gt;Node12 -->
<g id="edge20" class="edge">
<title>Node18&#45;&gt;Node12</title>
<path fill="none" stroke="#191970" d="M423.7427,-140.2181C408.8908,-130.9995 392.5674,-120.1244 378.5,-109 357.5455,-92.4293 356.1953,-83.8933 335.5,-67 319.2018,-53.6959 299.5051,-40.4194 284.2477,-30.6792"/>
<polygon fill="#191970" stroke="#191970" points="421.9317,-143.2132 432.2891,-145.4438 425.5834,-137.2411 421.9317,-143.2132"/>
</g>
<!-- Node19 -->
<g id="node19" class="node">
<title>Node19</title>
<g id="a_node19"><a xlink:href="cohort__lock_8cpp_source.html" target="_top" xlink:title="/home/atmerhannah/argodsm\l/src/synchronization/cohort\l_lock.cpp">
<polygon fill="#ffffff" stroke="#000000" points="388,-67.5 388,-108.5 549,-108.5 549,-67.5 388,-67.5"/>
<text text-anchor="start" x="396" y="-96.5" font-family="Helvetica,sans-Serif" font-size="10.00" fill="#000000">/home/atmerhannah/argodsm</text>
<text text-anchor="start" x="396" y="-85.5" font-family="Helvetica,sans-Serif" font-size="10.00" fill="#000000">/src/synchronization/cohort</text>
<text text-anchor="middle" x="468.5" y="-74.5" font-family="Helvetica,sans-Serif" font-size="10.00" fill="#000000">_lock.cpp</text>
</a>
</g>
</g>
<!-- Node18&#45;&gt;Node19 -->
<g id="edge19" class="edge">
<title>Node18&#45;&gt;Node19</title>
<path fill="none" stroke="#191970" d="M468.5,-135.0789C468.5,-126.2178 468.5,-116.7747 468.5,-108.6898"/>
<polygon fill="#191970" stroke="#191970" points="465.0001,-135.0974 468.5,-145.0974 472.0001,-135.0975 465.0001,-135.0974"/>
</g>
<!-- Node21 -->
<g id="node21" class="node">
<title>Node21</title>
<g id="a_node21"><a xlink:href="argo_8h.html" target="_top" xlink:title="This file provides the full C interface to ArgoDSM. ">
<polygon fill="#ffffff" stroke="#000000" points="1174,-229 1174,-259 1335,-259 1335,-229 1174,-229"/>
<text text-anchor="start" x="1182" y="-247" font-family="Helvetica,sans-Serif" font-size="10.00" fill="#000000">/home/atmerhannah/argodsm</text>
<text text-anchor="middle" x="1254.5" y="-236" font-family="Helvetica,sans-Serif" font-size="10.00" fill="#000000">/src/argo.h</text>
</a>
</g>
</g>
<!-- Node20&#45;&gt;Node21 -->
<g id="edge30" class="edge">
<title>Node20&#45;&gt;Node21</title>
<path fill="none" stroke="#191970" d="M1227.5471,-297.9059C1233.8497,-285.3005 1241.3752,-270.2497 1246.8704,-259.2592"/>
<polygon fill="#191970" stroke="#191970" points="1224.3613,-296.4513 1223.0196,-306.9608 1230.6223,-299.5818 1224.3613,-296.4513"/>
</g>
<!-- Node21&#45;&gt;Node6 -->
<g id="edge31" class="edge">
<title>Node21&#45;&gt;Node6</title>
<path fill="none" stroke="#191970" d="M1223.8874,-223.108C1191.3524,-201.5428 1137.8892,-167.906 1088.5,-145 1051.735,-127.9489 1008.3656,-113.23 975.1776,-103.0222"/>
<polygon fill="#191970" stroke="#191970" points="1222.2282,-226.2087 1232.4882,-228.8514 1226.1156,-220.3873 1222.2282,-226.2087"/>
</g>
<!-- Node22 -->
<g id="node22" class="node">
<title>Node22</title>
<g id="a_node22"><a xlink:href="swdsm_8h.html" target="_top" xlink:title="this is a legacy file from the ArgoDSM prototype ">
<polygon fill="#ffffff" stroke="#000000" points="1866,-151 1866,-181 2027,-181 2027,-151 1866,-151"/>
<text text-anchor="start" x="1874" y="-169" font-family="Helvetica,sans-Serif" font-size="10.00" fill="#000000">/home/atmerhannah/argodsm</text>
<text text-anchor="middle" x="1946.5" y="-158" font-family="Helvetica,sans-Serif" font-size="10.00" fill="#000000">/src/backend/mpi/swdsm.h</text>
</a>
</g>
</g>
<!-- Node21&#45;&gt;Node22 -->
<g id="edge32" class="edge">
<title>Node21&#45;&gt;Node22</title>
<path fill="none" stroke="#191970" d="M1345.2191,-233.7744C1481.2193,-218.4449 1735.8199,-189.7472 1865.7446,-175.1025"/>
<polygon fill="#191970" stroke="#191970" points="1344.7805,-230.3016 1335.2355,-234.8998 1345.5646,-237.2576 1344.7805,-230.3016"/>
</g>
<!-- Node23 -->
<g id="node23" class="node">
<title>Node23</title>
<g id="a_node23"><a xlink:href="coherence_8cpp.html" target="_top" xlink:title="This file implements selective coherence mechanisms for ArgoDSM. ">
<polygon fill="#ffffff" stroke="#000000" points="2148,-.5 2148,-30.5 2321,-30.5 2321,-.5 2148,-.5"/>
<text text-anchor="start" x="2156" y="-18.5" font-family="Helvetica,sans-Serif" font-size="10.00" fill="#000000">/home/atmerhannah/argodsm</text>
<text text-anchor="middle" x="2234.5" y="-7.5" font-family="Helvetica,sans-Serif" font-size="10.00" fill="#000000">/src/backend/mpi/coherence.cpp</text>
</a>
</g>
</g>
<!-- Node22&#45;&gt;Node23 -->
<g id="edge33" class="edge">
<title>Node22&#45;&gt;Node23</title>
<path fill="none" stroke="#191970" d="M2037.5666,-157.3819C2105.5393,-149.0499 2190.7602,-133.9467 2215.5,-109 2236.1451,-88.1822 2237.3247,-51.4545 2236.0867,-30.7692"/>
<polygon fill="#191970" stroke="#191970" points="2036.7609,-153.9531 2027.2454,-158.612 2037.5893,-160.9039 2036.7609,-153.9531"/>
</g>
<!-- Node24 -->
<g id="node24" class="node">
<title>Node24</title>
<g id="a_node24"><a xlink:href="write__buffer_8hpp.html" target="_top" xlink:title="This file provides an interface for the ArgoDSM write buffer. ">
<polygon fill="#ffffff" stroke="#000000" points="2045,-67.5 2045,-108.5 2206,-108.5 2206,-67.5 2045,-67.5"/>
<text text-anchor="start" x="2053" y="-96.5" font-family="Helvetica,sans-Serif" font-size="10.00" fill="#000000">/home/atmerhannah/argodsm</text>
<text text-anchor="start" x="2053" y="-85.5" font-family="Helvetica,sans-Serif" font-size="10.00" fill="#000000">/src/backend/mpi/write</text>
<text text-anchor="middle" x="2125.5" y="-74.5" font-family="Helvetica,sans-Serif" font-size="10.00" fill="#000000">_buffer.hpp</text>
</a>
</g>
</g>
<!-- Node22&#45;&gt;Node24 -->
<g id="edge34" class="edge">
<title>Node22&#45;&gt;Node24</title>
<path fill="none" stroke="#191970" d="M1990.4638,-146.8426C2017.0867,-135.2415 2051.0373,-120.4474 2078.2357,-108.5956"/>
<polygon fill="#191970" stroke="#191970" points="1988.7823,-143.7574 1981.013,-150.9608 1991.5786,-150.1746 1988.7823,-143.7574"/>
</g>
<!-- Node25 -->
<g id="node25" class="node">
<title>Node25</title>
<g id="a_node25"><a xlink:href="swdsm_8cpp.html" target="_top" xlink:title="This file implements the MPI&#45;backend of ArgoDSM. ">
<polygon fill="#ffffff" stroke="#000000" points="1969,-.5 1969,-30.5 2130,-30.5 2130,-.5 1969,-.5"/>
<text text-anchor="start" x="1977" y="-18.5" font-family="Helvetica,sans-Serif" font-size="10.00" fill="#000000">/home/atmerhannah/argodsm</text>
<text text-anchor="middle" x="2049.5" y="-7.5" font-family="Helvetica,sans-Serif" font-size="10.00" fill="#000000">/src/backend/mpi/swdsm.cpp</text>
</a>
</g>
</g>
<!-- Node22&#45;&gt;Node25 -->
<g id="edge38" class="edge">
<title>Node22&#45;&gt;Node25</title>
<path fill="none" stroke="#191970" d="M1897.1961,-146.09C1881.6507,-137.1881 1866.2601,-125.0131 1857.5,-109 1848.5412,-92.6237 1846.1384,-81.8107 1857.5,-67 1865.1146,-57.0738 1925.7,-41.8701 1976.8073,-30.5518"/>
<polygon fill="#191970" stroke="#191970" points="1895.8477,-149.3375 1906.318,-150.9573 1899.1431,-143.1617 1895.8477,-149.3375"/>
</g>
<!-- Node26 -->
<g id="node26" class="node">
<title>Node26</title>
<g id="a_node26"><a xlink:href="mpi_8cpp.html" target="_top" xlink:title="MPI backend implementation. ">
<polygon fill="#ffffff" stroke="#000000" points="1866,-73 1866,-103 2027,-103 2027,-73 1866,-73"/>
<text text-anchor="start" x="1874" y="-91" font-family="Helvetica,sans-Serif" font-size="10.00" fill="#000000">/home/atmerhannah/argodsm</text>
<text text-anchor="middle" x="1946.5" y="-80" font-family="Helvetica,sans-Serif" font-size="10.00" fill="#000000">/src/backend/mpi/mpi.cpp</text>
</a>
</g>
</g>
<!-- Node22&#45;&gt;Node26 -->
<g id="edge37" class="edge">
<title>Node22&#45;&gt;Node26</title>
<path fill="none" stroke="#191970" d="M1946.5,-140.7875C1946.5,-128.4187 1946.5,-113.9264 1946.5,-103.2592"/>
<polygon fill="#191970" stroke="#191970" points="1943.0001,-140.9608 1946.5,-150.9608 1950.0001,-140.9608 1943.0001,-140.9608"/>
</g>
<!-- Node24&#45;&gt;Node23 -->
<g id="edge35" class="edge">
<title>Node24&#45;&gt;Node23</title>
<path fill="none" stroke="#191970" d="M2164.9653,-61.7502C2180.7075,-51.2794 2198.2653,-39.6011 2211.7993,-30.5991"/>
<polygon fill="#191970" stroke="#191970" points="2162.8315,-58.9659 2156.4435,-67.4183 2166.7082,-64.7943 2162.8315,-58.9659"/>
</g>
<!-- Node24&#45;&gt;Node25 -->
<g id="edge36" class="edge">
<title>Node24&#45;&gt;Node25</title>
<path fill="none" stroke="#191970" d="M2096.4507,-60.2885C2085.8792,-50.2038 2074.3277,-39.1843 2065.328,-30.5991"/>
<polygon fill="#191970" stroke="#191970" points="2094.2731,-63.0483 2103.9247,-67.4183 2099.1049,-57.9833 2094.2731,-63.0483"/>
</g>
</g>
</svg>
        <g id="navigator" transform="translate(0 0)" fill="#404254">
                <rect fill="#f2f5e9" fill-opacity="0.5" stroke="#606060" stroke-width=".5" x="0" y="0" width="60" height="60"/>
                <use id="zoomplus" xlink:href="#zoomPlus" x="17" y="9" onmousedown="handleZoom(evt,'in')"/>
                <use id="zoomminus" xlink:href="#zoomMin" x="42" y="9" onmousedown="handleZoom(evt,'out')"/>
                <use id="reset" xlink:href="#resetDef" x="30" y="36" onmousedown="handleReset()"/>
                <g id="arrowUp" xlink:href="#dirArrow" transform="translate(30 24)" onmousedown="handlePan(0,-1)">
                  <use xlink:href="#rim" fill="#404040">
                        <set attributeName="fill" to="#808080" begin="arrowUp.mouseover" end="arrowUp.mouseout"/>
                  </use>
                  <path fill="none" stroke="white" stroke-width="1.5" d="M0,-3.0v7 M-2.5,-0.5L0,-3.0L2.5,-0.5"/>
                </g>
                <g id="arrowRight" xlink:href="#dirArrow" transform="rotate(90) translate(36 -43)" onmousedown="handlePan(1,0)">
                  <use xlink:href="#rim" fill="#404040">
                        <set attributeName="fill" to="#808080" begin="arrowRight.mouseover" end="arrowRight.mouseout"/>
                  </use>
                  <path fill="none" stroke="white" stroke-width="1.5" d="M0,-3.0v7 M-2.5,-0.5L0,-3.0L2.5,-0.5"/>
                </g>
                <g id="arrowDown" xlink:href="#dirArrow" transform="rotate(180) translate(-30 -48)" onmousedown="handlePan(0,1)">
                  <use xlink:href="#rim" fill="#404040">
                        <set attributeName="fill" to="#808080" begin="arrowDown.mouseover" end="arrowDown.mouseout"/>
                  </use>
                  <path fill="none" stroke="white" stroke-width="1.5" d="M0,-3.0v7 M-2.5,-0.5L0,-3.0L2.5,-0.5"/>
                </g>
                <g id="arrowLeft" xlink:href="#dirArrow" transform="rotate(270) translate(-36 17)" onmousedown="handlePan(-1,0)">
                  <use xlink:href="#rim" fill="#404040">
                        <set attributeName="fill" to="#808080" begin="arrowLeft.mouseover" end="arrowLeft.mouseout"/>
                  </use>
                  <path fill="none" stroke="white" stroke-width="1.5" d="M0,-3.0v7 M-2.5,-0.5L0,-3.0L2.5,-0.5"/>
                </g>
        </g>
        <svg viewBox="0 0 15 15" width="100%" height="30px" preserveAspectRatio="xMaxYMin meet">
         <g id="arrow_out" transform="scale(0.3 0.3)">
          <a xlink:href="dynamic__allocator_8h__dep__incl_org.svg" target="_base">
           <rect id="button" ry="5" rx="5" y="6" x="6" height="38" width="38"
                fill="#f2f5e9" fill-opacity="0.5" stroke="#606060" stroke-width="1.0"/>
           <path id="arrow"
             d="M 11.500037,31.436501 C 11.940474,20.09759 22.043105,11.32322 32.158766,21.979434 L 37.068811,17.246167 C 37.068811,17.246167 37.088388,32 37.088388,32 L 22.160133,31.978069 C 22.160133,31.978069 26.997745,27.140456 26.997745,27.140456 C 18.528582,18.264221 13.291696,25.230495 11.500037,31.436501 z"
             style="fill:#404040;"/>
          </a>
         </g>
        </svg>
</svg>
