<?xml version="1.0" encoding="UTF-8" standalone="no"?>
<!DOCTYPE svg PUBLIC "-//W3C//DTD SVG 1.1//EN"
 "http://www.w3.org/Graphics/SVG/1.1/DTD/svg11.dtd">
<!-- Generated by graphviz version 2.40.1 (20161225.0304)
 -->
<!-- Title: /home/atmerhannah/argodsm/src/allocators/dynamic_allocator.hpp Pages: 1 -->
<!--zoomable 531 -->
<svg id="main" version="1.1" xmlns="http://www.w3.org/2000/svg" xmlns:xlink="http://www.w3.org/1999/xlink" xml:space="preserve" onload="init(evt)">
<style type="text/css"><![CDATA[
.edge:hover path { stroke: red; }
.edge:hover polygon { stroke: red; fill: red; }
]]></style>
<script type="text/javascript"><![CDATA[
var edges = document.getElementsByTagName('g');
if (edges && edges.length) {
  for (var i=0;i<edges.length;i++) {
    if (edges[i].id.substr(0,4)=='edge') {
      edges[i].setAttribute('class','edge');
    }
  }
}
]]></script>
        <defs>
                <circle id="rim" cx="0" cy="0" r="7"/>
                <circle id="rim2" cx="0" cy="0" r="3.5"/>
                <g id="zoomPlus">
                        <use xlink:href="#rim" fill="#404040">
                                <set attributeName="fill" to="#808080" begin="zoomplus.mouseover" end="zoomplus.mouseout"/>
                        </use>
                        <path d="M-4,0h8M0,-4v8" fill="none" stroke="white" stroke-width="1.5" pointer-events="none"/>
                </g>
                <g id="zoomMin">
                        <use xlink:href="#rim" fill="#404040">
                                <set attributeName="fill" to="#808080" begin="zoomminus.mouseover" end="zoomminus.mouseout"/>
                        </use>
                        <path d="M-4,0h8" fill="none" stroke="white" stroke-width="1.5" pointer-events="none"/>
                </g>
                <g id="dirArrow">
                        <path fill="none" stroke="white" stroke-width="1.5" d="M0,-3.0v7 M-2.5,-0.5L0,-3.0L2.5,-0.5"/>
                </g>
               <g id="resetDef">
                       <use xlink:href="#rim2" fill="#404040">
                               <set attributeName="fill" to="#808080" begin="reset.mouseover" end="reset.mouseout"/>
                       </use>
               </g>
        </defs>

<script type="text/javascript">
var viewWidth = 1296;
var viewHeight = 531;
var sectionId = 'dynsection-0';
</script>
<script xlink:href="svgpan.js"/>
<svg id="graph" class="graph">
<g id="viewport">
<title>/home/atmerhannah/argodsm/src/allocators/dynamic_allocator.hpp</title>
<polygon fill="#ffffff" stroke="transparent" points="-4,4 -4,-527 1291.5,-527 1291.5,4 -4,4"/>
<!-- Node0 -->
<g id="node1" class="node">
<title>Node0</title>
<polygon fill="#bfbfbf" stroke="#000000" points="571.5,-481.5 571.5,-522.5 732.5,-522.5 732.5,-481.5 571.5,-481.5"/>
<text text-anchor="start" x="579.5" y="-510.5" font-family="Helvetica,sans-Serif" font-size="10.00" fill="#000000">/home/atmerhannah/argodsm</text>
<text text-anchor="start" x="579.5" y="-499.5" font-family="Helvetica,sans-Serif" font-size="10.00" fill="#000000">/src/allocators/dynamic</text>
<text text-anchor="middle" x="652" y="-488.5" font-family="Helvetica,sans-Serif" font-size="10.00" fill="#000000">_allocator.hpp</text>
</g>
<!-- Node1 -->
<g id="node2" class="node">
<title>Node1</title>
<polygon fill="#ffffff" stroke="#bfbfbf" points="387,-353 387,-372 425,-372 425,-353 387,-353"/>
<text text-anchor="middle" x="406" y="-360" font-family="Helvetica,sans-Serif" font-size="10.00" fill="#000000">map</text>
</g>
<!-- Node0&#45;&gt;Node1 -->
<g id="edge1" class="edge">
<title>Node0&#45;&gt;Node1</title>
<path fill="none" stroke="#191970" d="M571.3409,-489.3125C517.566,-479.3369 453.1797,-463.9722 433,-445 415.6424,-428.681 409.4262,-401.0566 407.2103,-382.3125"/>
<polygon fill="#191970" stroke="#191970" points="410.6835,-381.8571 406.2986,-372.2122 403.7119,-382.4864 410.6835,-381.8571"/>
</g>
<!-- Node2 -->
<g id="node3" class="node">
<title>Node2</title>
<polygon fill="#ffffff" stroke="#bfbfbf" points="1035,-56.5 1035,-75.5 1083,-75.5 1083,-56.5 1035,-56.5"/>
<text text-anchor="middle" x="1059" y="-63.5" font-family="Helvetica,sans-Serif" font-size="10.00" fill="#000000">mutex</text>
</g>
<!-- Node0&#45;&gt;Node2 -->
<g id="edge2" class="edge">
<title>Node0&#45;&gt;Node2</title>
<path fill="none" stroke="#191970" d="M732.9533,-490.0469C847.9989,-470.7446 1045,-428.1125 1045,-362.5 1045,-362.5 1045,-362.5 1045,-178 1045,-145.311 1050.9446,-107.6669 1055.0866,-85.4058"/>
<polygon fill="#191970" stroke="#191970" points="1058.5324,-86.0207 1056.9941,-75.5381 1051.6597,-84.692 1058.5324,-86.0207"/>
</g>
<!-- Node3 -->
<g id="node4" class="node">
<title>Node3</title>
<polygon fill="#ffffff" stroke="#bfbfbf" points="481.5,-353 481.5,-372 524.5,-372 524.5,-353 481.5,-353"/>
<text text-anchor="middle" x="503" y="-360" font-family="Helvetica,sans-Serif" font-size="10.00" fill="#000000">stack</text>
</g>
<!-- Node0&#45;&gt;Node3 -->
<g id="edge3" class="edge">
<title>Node0&#45;&gt;Node3</title>
<path fill="none" stroke="#191970" d="M635.2326,-481.4002C619.7114,-462.8757 595.5435,-435.3716 572,-414 557.4733,-400.8134 539.705,-387.6111 525.8375,-377.8754"/>
<polygon fill="#191970" stroke="#191970" points="527.5767,-374.8227 517.3611,-372.0132 523.595,-380.58 527.5767,-374.8227"/>
</g>
<!-- Node4 -->
<g id="node5" class="node">
<title>Node4</title>
<g id="a_node5"><a xlink:href="dynamic__mempool_8hpp.html" target="_top" xlink:title="This file provides a dynamically growing memory pool for ArgoDSM. ">
<polygon fill="#ffffff" stroke="#000000" points="264,-414.5 264,-444.5 386,-444.5 386,-414.5 264,-414.5"/>
<text text-anchor="start" x="272" y="-432.5" font-family="Helvetica,sans-Serif" font-size="10.00" fill="#000000">../mempools/dynamic</text>
<text text-anchor="middle" x="325" y="-421.5" font-family="Helvetica,sans-Serif" font-size="10.00" fill="#000000">_mempool.hpp</text>
</a>
</g>
</g>
<!-- Node0&#45;&gt;Node4 -->
<g id="edge4" class="edge">
<title>Node0&#45;&gt;Node4</title>
<path fill="none" stroke="#191970" d="M571.1685,-484.0786C517.5327,-472.1869 447.7899,-456.724 396.2385,-445.2945"/>
<polygon fill="#191970" stroke="#191970" points="396.7015,-441.8122 386.181,-443.0646 395.1863,-448.6463 396.7015,-441.8122"/>
</g>
<!-- Node25 -->
<g id="node26" class="node">
<title>Node25</title>
<g id="a_node26"><a xlink:href="global__mempool_8hpp.html" target="_top" xlink:title="This file provides a dynamically growing memory pool for ArgoDSM. ">
<polygon fill="#ffffff" stroke="#000000" points="657,-414.5 657,-444.5 767,-444.5 767,-414.5 657,-414.5"/>
<text text-anchor="start" x="665" y="-432.5" font-family="Helvetica,sans-Serif" font-size="10.00" fill="#000000">../mempools/global</text>
<text text-anchor="middle" x="712" y="-421.5" font-family="Helvetica,sans-Serif" font-size="10.00" fill="#000000">_mempool.hpp</text>
</a>
</g>
</g>
<!-- Node0&#45;&gt;Node25 -->
<g id="edge34" class="edge">
<title>Node0&#45;&gt;Node25</title>
<path fill="none" stroke="#191970" d="M669.0331,-481.4183C676.5361,-472.3522 685.379,-461.6671 693.086,-452.3544"/>
<polygon fill="#191970" stroke="#191970" points="695.8249,-454.5346 699.5042,-444.5991 690.4321,-450.0716 695.8249,-454.5346"/>
</g>
<!-- Node32 -->
<g id="node33" class="node">
<title>Node32</title>
<g id="a_node33"><a xlink:href="generic__allocator_8hpp.html" target="_top" xlink:title="This file provides a generic allocator template for ArgoDSM. ">
<polygon fill="#ffffff" stroke="#000000" points="442.5,-420 442.5,-439 563.5,-439 563.5,-420 442.5,-420"/>
<text text-anchor="middle" x="503" y="-427" font-family="Helvetica,sans-Serif" font-size="10.00" fill="#000000">generic_allocator.hpp</text>
</a>
</g>
</g>
<!-- Node0&#45;&gt;Node32 -->
<g id="edge46" class="edge">
<title>Node0&#45;&gt;Node32</title>
<path fill="none" stroke="#191970" d="M609.7011,-481.4183C584.819,-469.3112 554.0026,-454.3167 531.8947,-443.5595"/>
<polygon fill="#191970" stroke="#191970" points="533.223,-440.3135 522.6995,-439.0853 530.1602,-446.6079 533.223,-440.3135"/>
</g>
<!-- Node33 -->
<g id="node34" class="node">
<title>Node33</title>
<g id="a_node34"><a xlink:href="null__lock_8hpp.html" target="_top" xlink:title="dummy lock, not intended for public use ">
<polygon fill="#ffffff" stroke="#000000" points="1073.5,-420 1073.5,-439 1154.5,-439 1154.5,-420 1073.5,-420"/>
<text text-anchor="middle" x="1114" y="-427" font-family="Helvetica,sans-Serif" font-size="10.00" fill="#000000">null_lock.hpp</text>
</a>
</g>
</g>
<!-- Node0&#45;&gt;Node33 -->
<g id="edge50" class="edge">
<title>Node0&#45;&gt;Node33</title>
<path fill="none" stroke="#191970" d="M732.8711,-493.9435C815.4036,-484.9582 946.9271,-468.5267 1059,-445 1063.6694,-444.0198 1068.5255,-442.8608 1073.3334,-441.6249"/>
<polygon fill="#191970" stroke="#191970" points="1074.3095,-444.9868 1083.0591,-439.0123 1072.4935,-438.2265 1074.3095,-444.9868"/>
</g>
<!-- Node34 -->
<g id="node35" class="node">
<title>Node34</title>
<g id="a_node35"><a xlink:href="dynamic__allocator_8h.html" target="_top" xlink:title="This file provides the dynamic allocator for ArgoDSM. ">
<polygon fill="#ffffff" stroke="#000000" points="1172.5,-420 1172.5,-439 1287.5,-439 1287.5,-420 1172.5,-420"/>
<text text-anchor="middle" x="1230" y="-427" font-family="Helvetica,sans-Serif" font-size="10.00" fill="#000000">dynamic_allocator.h</text>
</a>
</g>
</g>
<!-- Node0&#45;&gt;Node34 -->
<g id="edge51" class="edge">
<title>Node0&#45;&gt;Node34</title>
<path fill="none" stroke="#191970" d="M732.6757,-496.0248C833.9106,-487.8381 1012.6246,-471.1046 1164,-445 1170.1655,-443.9368 1176.6162,-442.6468 1182.9678,-441.2701"/>
<polygon fill="#191970" stroke="#191970" points="1183.8241,-444.665 1192.8121,-439.0554 1182.2877,-437.8357 1183.8241,-444.665"/>
</g>
<!-- Node5 -->
<g id="node6" class="node">
<title>Node5</title>
<g id="a_node6"><a xlink:href="backend_8hpp.html" target="_top" xlink:title="This file provides the backend interface. ">
<polygon fill="#ffffff" stroke="#000000" points="387,-291.5 387,-310.5 519,-310.5 519,-291.5 387,-291.5"/>
<text text-anchor="middle" x="453" y="-298.5" font-family="Helvetica,sans-Serif" font-size="10.00" fill="#000000">../backend/backend.hpp</text>
</a>
</g>
</g>
<!-- Node4&#45;&gt;Node5 -->
<g id="edge5" class="edge">
<title>Node4&#45;&gt;Node5</title>
<path fill="none" stroke="#191970" d="M332.0812,-414.3663C340.9314,-396.6364 357.4452,-367.1303 378,-347 391.07,-334.1999 408.326,-323.3084 422.9907,-315.3414"/>
<polygon fill="#191970" stroke="#191970" points="424.9415,-318.2711 432.1832,-310.5375 421.6994,-312.0671 424.9415,-318.2711"/>
</g>
<!-- Node24 -->
<g id="node25" class="node">
<title>Node24</title>
<g id="a_node25"><a xlink:href="broadcast_8hpp.html" target="_top" xlink:title="This file provides a broadcasting facility for a single value. ">
<polygon fill="#ffffff" stroke="#000000" points="227.5,-347.5 227.5,-377.5 330.5,-377.5 330.5,-347.5 227.5,-347.5"/>
<text text-anchor="start" x="235.5" y="-365.5" font-family="Helvetica,sans-Serif" font-size="10.00" fill="#000000">../synchronization</text>
<text text-anchor="middle" x="279" y="-354.5" font-family="Helvetica,sans-Serif" font-size="10.00" fill="#000000">/broadcast.hpp</text>
</a>
</g>
</g>
<!-- Node4&#45;&gt;Node24 -->
<g id="edge31" class="edge">
<title>Node4&#45;&gt;Node24</title>
<path fill="none" stroke="#191970" d="M314.5619,-414.2967C308.8569,-405.9873 301.6646,-395.5115 295.2433,-386.1587"/>
<polygon fill="#191970" stroke="#191970" points="297.9423,-383.9062 289.3968,-377.6432 292.1715,-387.8682 297.9423,-383.9062"/>
</g>
<!-- Node6 -->
<g id="node7" class="node">
<title>Node6</title>
<polygon fill="#ffffff" stroke="#bfbfbf" points="504,-230 504,-249 556,-249 556,-230 504,-230"/>
<text text-anchor="middle" x="530" y="-237" font-family="Helvetica,sans-Serif" font-size="10.00" fill="#000000">cassert</text>
</g>
<!-- Node5&#45;&gt;Node6 -->
<g id="edge6" class="edge">
<title>Node5&#45;&gt;Node6</title>
<path fill="none" stroke="#191970" d="M465.0313,-291.3906C477.0107,-281.8227 495.6166,-266.9621 509.8525,-255.5919"/>
<polygon fill="#191970" stroke="#191970" points="512.4239,-258.0175 518.0532,-249.0419 508.0553,-252.5479 512.4239,-258.0175"/>
</g>
<!-- Node7 -->
<g id="node8" class="node">
<title>Node7</title>
<polygon fill="#ffffff" stroke="#bfbfbf" points="352,-230 352,-249 402,-249 402,-230 352,-230"/>
<text text-anchor="middle" x="377" y="-237" font-family="Helvetica,sans-Serif" font-size="10.00" fill="#000000">cstdint</text>
</g>
<!-- Node5&#45;&gt;Node7 -->
<g id="edge7" class="edge">
<title>Node5&#45;&gt;Node7</title>
<path fill="none" stroke="#191970" d="M441.125,-291.3906C429.3703,-281.8786 411.1514,-267.1357 397.1328,-255.7917"/>
<polygon fill="#191970" stroke="#191970" points="399.0178,-252.8146 389.0424,-249.2449 394.6144,-258.2562 399.0178,-252.8146"/>
</g>
<!-- Node8 -->
<g id="node9" class="node">
<title>Node8</title>
<polygon fill="#ffffff" stroke="#bfbfbf" points="420.5,-230 420.5,-249 485.5,-249 485.5,-230 420.5,-230"/>
<text text-anchor="middle" x="453" y="-237" font-family="Helvetica,sans-Serif" font-size="10.00" fill="#000000">stdexcept</text>
</g>
<!-- Node5&#45;&gt;Node8 -->
<g id="edge8" class="edge">
<title>Node5&#45;&gt;Node8</title>
<path fill="none" stroke="#191970" d="M453,-291.3906C453,-282.8657 453,-270.1392 453,-259.4235"/>
<polygon fill="#191970" stroke="#191970" points="456.5001,-259.2448 453,-249.2449 449.5001,-259.2449 456.5001,-259.2448"/>
</g>
<!-- Node9 -->
<g id="node10" class="node">
<title>Node9</title>
<g id="a_node10"><a xlink:href="global__ptr_8hpp.html" target="_top" xlink:title="This file provides the global pointer for ArgoDSM. ">
<polygon fill="#ffffff" stroke="#000000" points="591,-224.5 591,-254.5 699,-254.5 699,-224.5 591,-224.5"/>
<text text-anchor="start" x="599" y="-242.5" font-family="Helvetica,sans-Serif" font-size="10.00" fill="#000000">../data_distribution</text>
<text text-anchor="middle" x="645" y="-231.5" font-family="Helvetica,sans-Serif" font-size="10.00" fill="#000000">/global_ptr.hpp</text>
</a>
</g>
</g>
<!-- Node5&#45;&gt;Node9 -->
<g id="edge9" class="edge">
<title>Node5&#45;&gt;Node9</title>
<path fill="none" stroke="#191970" d="M483,-291.3906C511.03,-282.4123 553.6095,-268.7735 588.0818,-257.7316"/>
<polygon fill="#191970" stroke="#191970" points="589.5758,-260.9283 598.0315,-254.5446 587.4405,-254.2619 589.5758,-260.9283"/>
</g>
<!-- Node18 -->
<g id="node19" class="node">
<title>Node18</title>
<g id="a_node19"><a xlink:href="types_8hpp.html" target="_top" xlink:title="This file defines common types used in ArgoDSM. ">
<polygon fill="#ffffff" stroke="#000000" points="0,-.5 0,-19.5 104,-19.5 104,-.5 0,-.5"/>
<text text-anchor="middle" x="52" y="-7.5" font-family="Helvetica,sans-Serif" font-size="10.00" fill="#000000">../types/types.hpp</text>
</a>
</g>
</g>
<!-- Node5&#45;&gt;Node18 -->
<g id="edge30" class="edge">
<title>Node5&#45;&gt;Node18</title>
<path fill="none" stroke="#191970" d="M386.783,-294.4834C272.8878,-281.4238 52,-247.1785 52,-178 52,-178 52,-178 52,-122 52,-89.7116 52,-52.1872 52,-29.8048"/>
<polygon fill="#191970" stroke="#191970" points="55.5001,-29.5883 52,-19.5884 48.5001,-29.5884 55.5001,-29.5883"/>
</g>
<!-- Node10 -->
<g id="node11" class="node">
<title>Node10</title>
<polygon fill="#ffffff" stroke="#bfbfbf" points="673,-168.5 673,-187.5 717,-187.5 717,-168.5 673,-168.5"/>
<text text-anchor="middle" x="695" y="-175.5" font-family="Helvetica,sans-Serif" font-size="10.00" fill="#000000">string</text>
</g>
<!-- Node9&#45;&gt;Node10 -->
<g id="edge10" class="edge">
<title>Node9&#45;&gt;Node10</title>
<path fill="none" stroke="#191970" d="M657.3596,-224.2977C664.3724,-215.672 673.186,-204.8312 680.5214,-195.8087"/>
<polygon fill="#191970" stroke="#191970" points="683.4018,-197.8141 686.9944,-187.8469 677.9703,-193.3982 683.4018,-197.8141"/>
</g>
<!-- Node11 -->
<g id="node12" class="node">
<title>Node11</title>
<g id="a_node12"><a xlink:href="env_8hpp.html" target="_top" xlink:title="This file provides facilities for handling environment variables. ">
<polygon fill="#ffffff" stroke="#000000" points="289.5,-168.5 289.5,-187.5 374.5,-187.5 374.5,-168.5 289.5,-168.5"/>
<text text-anchor="middle" x="332" y="-175.5" font-family="Helvetica,sans-Serif" font-size="10.00" fill="#000000">../env/env.hpp</text>
</a>
</g>
</g>
<!-- Node9&#45;&gt;Node11 -->
<g id="edge11" class="edge">
<title>Node9&#45;&gt;Node11</title>
<path fill="none" stroke="#191970" d="M590.8369,-228.8577C533.066,-217.5066 442.1643,-199.6457 384.8871,-188.3915"/>
<polygon fill="#191970" stroke="#191970" points="385.4353,-184.9324 374.9481,-186.4387 384.0857,-191.8011 385.4353,-184.9324"/>
</g>
<!-- Node13 -->
<g id="node14" class="node">
<title>Node13</title>
<g id="a_node14"><a xlink:href="data__distribution_8hpp.html" target="_top" xlink:title="This file provides an abstraction layer for distributing the shared memory space. ...">
<polygon fill="#ffffff" stroke="#000000" points="535,-168.5 535,-187.5 655,-187.5 655,-168.5 535,-168.5"/>
<text text-anchor="middle" x="595" y="-175.5" font-family="Helvetica,sans-Serif" font-size="10.00" fill="#000000">data_distribution.hpp</text>
</a>
</g>
</g>
<!-- Node9&#45;&gt;Node13 -->
<g id="edge13" class="edge">
<title>Node9&#45;&gt;Node13</title>
<path fill="none" stroke="#191970" d="M632.6404,-224.2977C625.6276,-215.672 616.814,-204.8312 609.4786,-195.8087"/>
<polygon fill="#191970" stroke="#191970" points="612.0297,-193.3982 603.0056,-187.8469 606.5982,-197.8141 612.0297,-193.3982"/>
</g>
<!-- Node12 -->
<g id="node13" class="node">
<title>Node12</title>
<polygon fill="#ffffff" stroke="#bfbfbf" points="80.5,-112.5 80.5,-131.5 133.5,-131.5 133.5,-112.5 80.5,-112.5"/>
<text text-anchor="middle" x="107" y="-119.5" font-family="Helvetica,sans-Serif" font-size="10.00" fill="#000000">cstddef</text>
</g>
<!-- Node11&#45;&gt;Node12 -->
<g id="edge12" class="edge">
<title>Node11&#45;&gt;Node12</title>
<path fill="none" stroke="#191970" d="M290.3652,-168.4351C253.8983,-159.9422 199.2494,-146.9377 143.4201,-132.3105"/>
<polygon fill="#191970" stroke="#191970" points="144.2838,-128.9187 133.7221,-129.7561 142.5008,-135.6878 144.2838,-128.9187"/>
</g>
<!-- Node14 -->
<g id="node15" class="node">
<title>Node14</title>
<g id="a_node15"><a xlink:href="base__distribution_8hpp.html" target="_top" xlink:title="This file implements the base distribution class for all the policies to derive from. ">
<polygon fill="#ffffff" stroke="#000000" points="546,-56.5 546,-75.5 668,-75.5 668,-56.5 546,-56.5"/>
<text text-anchor="middle" x="607" y="-63.5" font-family="Helvetica,sans-Serif" font-size="10.00" fill="#000000">base_distribution.hpp</text>
</a>
</g>
</g>
<!-- Node13&#45;&gt;Node14 -->
<g id="edge14" class="edge">
<title>Node13&#45;&gt;Node14</title>
<path fill="none" stroke="#191970" d="M648.3398,-168.4825C701.1996,-158.5106 775.4973,-142.8204 784,-132 789.4921,-125.0108 789.4378,-119.0316 784,-112 770.7558,-94.8738 721.3912,-82.9402 678.149,-75.527"/>
<polygon fill="#191970" stroke="#191970" points="678.6127,-72.0562 668.1754,-73.8766 677.4699,-78.9623 678.6127,-72.0562"/>
</g>
<!-- Node19 -->
<g id="node20" class="node">
<title>Node19</title>
<g id="a_node20"><a xlink:href="naive__distribution_8hpp.html" target="_top" xlink:title="This file implements the naive data distribution. ">
<polygon fill="#ffffff" stroke="#000000" points="151.5,-112.5 151.5,-131.5 276.5,-131.5 276.5,-112.5 151.5,-112.5"/>
<text text-anchor="middle" x="214" y="-119.5" font-family="Helvetica,sans-Serif" font-size="10.00" fill="#000000">naive_distribution.hpp</text>
</a>
</g>
</g>
<!-- Node13&#45;&gt;Node19 -->
<g id="edge19" class="edge">
<title>Node13&#45;&gt;Node19</title>
<path fill="none" stroke="#191970" d="M534.6294,-169.1266C467.4322,-159.2499 358.8555,-143.2911 286.954,-132.7229"/>
<polygon fill="#191970" stroke="#191970" points="287.0237,-129.1956 276.621,-131.2041 286.0057,-136.1212 287.0237,-129.1956"/>
</g>
<!-- Node20 -->
<g id="node21" class="node">
<title>Node20</title>
<g id="a_node21"><a xlink:href="cyclic__distribution_8hpp.html" target="_top" xlink:title="This file implements the cyclic data distribution. ">
<polygon fill="#ffffff" stroke="#000000" points="295,-112.5 295,-131.5 421,-131.5 421,-112.5 295,-112.5"/>
<text text-anchor="middle" x="358" y="-119.5" font-family="Helvetica,sans-Serif" font-size="10.00" fill="#000000">cyclic_distribution.hpp</text>
</a>
</g>
</g>
<!-- Node13&#45;&gt;Node20 -->
<g id="edge21" class="edge">
<title>Node13&#45;&gt;Node20</title>
<path fill="none" stroke="#191970" d="M554.5275,-168.4369C514.052,-158.8731 451.7133,-144.1432 408.1297,-133.845"/>
<polygon fill="#191970" stroke="#191970" points="408.8424,-130.4171 398.3055,-131.5237 407.2327,-137.2295 408.8424,-130.4171"/>
</g>
<!-- Node21 -->
<g id="node22" class="node">
<title>Node21</title>
<g id="a_node22"><a xlink:href="skew__mapp__distribution_8hpp.html" target="_top" xlink:title="This file implements the skew&#45;mapp data distribution. ">
<polygon fill="#ffffff" stroke="#000000" points="439.5,-112.5 439.5,-131.5 596.5,-131.5 596.5,-112.5 439.5,-112.5"/>
<text text-anchor="middle" x="518" y="-119.5" font-family="Helvetica,sans-Serif" font-size="10.00" fill="#000000">skew_mapp_distribution.hpp</text>
</a>
</g>
</g>
<!-- Node13&#45;&gt;Node21 -->
<g id="edge23" class="edge">
<title>Node13&#45;&gt;Node21</title>
<path fill="none" stroke="#191970" d="M581.5876,-168.2455C569.9943,-159.814 553.0252,-147.4729 539.5322,-137.6598"/>
<polygon fill="#191970" stroke="#191970" points="541.4047,-134.6938 531.2587,-131.6427 537.2874,-140.355 541.4047,-134.6938"/>
</g>
<!-- Node22 -->
<g id="node23" class="node">
<title>Node22</title>
<g id="a_node23"><a xlink:href="prime__mapp__distribution_8hpp.html" target="_top" xlink:title="This file implements the prime&#45;mapp data distribution. ">
<polygon fill="#ffffff" stroke="#000000" points="615,-112.5 615,-131.5 775,-131.5 775,-112.5 615,-112.5"/>
<text text-anchor="middle" x="695" y="-119.5" font-family="Helvetica,sans-Serif" font-size="10.00" fill="#000000">prime_mapp_distribution.hpp</text>
</a>
</g>
</g>
<!-- Node13&#45;&gt;Node22 -->
<g id="edge25" class="edge">
<title>Node13&#45;&gt;Node22</title>
<path fill="none" stroke="#191970" d="M612.4187,-168.2455C628.0485,-159.4928 651.2019,-146.527 669.0185,-136.5496"/>
<polygon fill="#191970" stroke="#191970" points="670.766,-139.5825 677.7809,-131.6427 667.3457,-133.475 670.766,-139.5825"/>
</g>
<!-- Node23 -->
<g id="node24" class="node">
<title>Node23</title>
<g id="a_node24"><a xlink:href="first__touch__distribution_8hpp.html" target="_top" xlink:title="This file implements the first&#45;touch data distribution. ">
<polygon fill="#ffffff" stroke="#000000" points="830.5,-112.5 830.5,-131.5 979.5,-131.5 979.5,-112.5 830.5,-112.5"/>
<text text-anchor="middle" x="905" y="-119.5" font-family="Helvetica,sans-Serif" font-size="10.00" fill="#000000">first_touch_distribution.hpp</text>
</a>
</g>
</g>
<!-- Node13&#45;&gt;Node23 -->
<g id="edge27" class="edge">
<title>Node13&#45;&gt;Node23</title>
<path fill="none" stroke="#191970" d="M647.9387,-168.4369C701.773,-158.712 785.1761,-143.6456 842.2887,-133.3285"/>
<polygon fill="#191970" stroke="#191970" points="843.0612,-136.7457 852.2797,-131.5237 841.8167,-129.8572 843.0612,-136.7457"/>
</g>
<!-- Node15 -->
<g id="node16" class="node">
<title>Node15</title>
<polygon fill="#ffffff" stroke="#bfbfbf" points="540.5,-.5 540.5,-19.5 589.5,-19.5 589.5,-.5 540.5,-.5"/>
<text text-anchor="middle" x="565" y="-7.5" font-family="Helvetica,sans-Serif" font-size="10.00" fill="#000000">cstdlib</text>
</g>
<!-- Node14&#45;&gt;Node15 -->
<g id="edge15" class="edge">
<title>Node14&#45;&gt;Node15</title>
<path fill="none" stroke="#191970" d="M599.6842,-56.2455C593.7821,-48.3761 585.3258,-37.101 578.2406,-27.6542"/>
<polygon fill="#191970" stroke="#191970" points="581.0321,-25.5427 572.232,-19.6427 575.432,-29.7427 581.0321,-25.5427"/>
</g>
<!-- Node16 -->
<g id="node17" class="node">
<title>Node16</title>
<polygon fill="#ffffff" stroke="#bfbfbf" points="818,-.5 818,-19.5 878,-19.5 878,-.5 818,-.5"/>
<text text-anchor="middle" x="848" y="-7.5" font-family="Helvetica,sans-Serif" font-size="10.00" fill="#000000">iostream</text>
</g>
<!-- Node14&#45;&gt;Node16 -->
<g id="edge16" class="edge">
<title>Node14&#45;&gt;Node16</title>
<path fill="none" stroke="#191970" d="M648.1555,-56.4369C692.8064,-46.0616 763.6223,-29.6064 807.8683,-19.3252"/>
<polygon fill="#191970" stroke="#191970" points="808.751,-22.7134 817.6993,-17.0408 807.1666,-15.8951 808.751,-22.7134"/>
</g>
<!-- Node17 -->
<g id="node18" class="node">
<title>Node17</title>
<polygon fill="#ffffff" stroke="#bfbfbf" points="607.5,-.5 607.5,-19.5 688.5,-19.5 688.5,-.5 607.5,-.5"/>
<text text-anchor="middle" x="648" y="-7.5" font-family="Helvetica,sans-Serif" font-size="10.00" fill="#000000">system_error</text>
</g>
<!-- Node14&#45;&gt;Node17 -->
<g id="edge17" class="edge">
<title>Node14&#45;&gt;Node17</title>
<path fill="none" stroke="#191970" d="M614.1417,-56.2455C619.8444,-48.4564 627.99,-37.3308 634.8625,-27.9439"/>
<polygon fill="#191970" stroke="#191970" points="637.8568,-29.7789 640.9402,-19.6427 632.2087,-25.6437 637.8568,-29.7789"/>
</g>
<!-- Node14&#45;&gt;Node18 -->
<g id="edge18" class="edge">
<title>Node14&#45;&gt;Node18</title>
<path fill="none" stroke="#191970" d="M545.7514,-59.82C439.2424,-49.0731 221.0657,-27.0589 114.0201,-16.2579"/>
<polygon fill="#191970" stroke="#191970" points="114.3161,-12.7701 104.0152,-15.2484 113.6133,-19.7347 114.3161,-12.7701"/>
</g>
<!-- Node19&#45;&gt;Node14 -->
<g id="edge20" class="edge">
<title>Node19&#45;&gt;Node14</title>
<path fill="none" stroke="#191970" d="M276.7066,-113.0647C347.2845,-103.0078 461.7167,-86.7019 535.6549,-76.1662"/>
<polygon fill="#191970" stroke="#191970" points="536.4041,-79.5949 545.8103,-74.7191 535.4166,-72.6649 536.4041,-79.5949"/>
</g>
<!-- Node20&#45;&gt;Node14 -->
<g id="edge22" class="edge">
<title>Node20&#45;&gt;Node14</title>
<path fill="none" stroke="#191970" d="M400.5217,-112.4369C443.1361,-102.8529 508.8176,-88.0812 554.621,-77.78"/>
<polygon fill="#191970" stroke="#191970" points="555.6654,-81.1326 564.6537,-75.5237 554.1294,-74.3032 555.6654,-81.1326"/>
</g>
<!-- Node21&#45;&gt;Node14 -->
<g id="edge24" class="edge">
<title>Node21&#45;&gt;Node14</title>
<path fill="none" stroke="#191970" d="M533.5026,-112.2455C547.158,-103.6534 567.2657,-91.0014 582.9989,-81.1018"/>
<polygon fill="#191970" stroke="#191970" points="585.0751,-83.9307 591.675,-75.6427 581.3471,-78.006 585.0751,-83.9307"/>
</g>
<!-- Node22&#45;&gt;Node14 -->
<g id="edge26" class="edge">
<title>Node22&#45;&gt;Node14</title>
<path fill="none" stroke="#191970" d="M679.6716,-112.2455C666.1697,-103.6534 646.2878,-91.0014 630.7314,-81.1018"/>
<polygon fill="#191970" stroke="#191970" points="632.4685,-78.0587 622.1528,-75.6427 628.7103,-83.9643 632.4685,-78.0587"/>
</g>
<!-- Node23&#45;&gt;Node2 -->
<g id="edge28" class="edge">
<title>Node23&#45;&gt;Node2</title>
<path fill="none" stroke="#191970" d="M931.4735,-112.3733C957.4751,-102.9181 997.2391,-88.4585 1025.4437,-78.2023"/>
<polygon fill="#191970" stroke="#191970" points="1026.6947,-81.4717 1034.8965,-74.7649 1024.3024,-74.8931 1026.6947,-81.4717"/>
</g>
<!-- Node23&#45;&gt;Node14 -->
<g id="edge29" class="edge">
<title>Node23&#45;&gt;Node14</title>
<path fill="none" stroke="#191970" d="M854.1106,-112.4369C802.4673,-102.7321 722.5174,-87.708 667.6251,-77.3926"/>
<polygon fill="#191970" stroke="#191970" points="668.1539,-73.9308 657.6795,-75.5237 666.8611,-80.8104 668.1539,-73.9308"/>
</g>
<!-- Node24&#45;&gt;Node5 -->
<g id="edge32" class="edge">
<title>Node24&#45;&gt;Node5</title>
<path fill="none" stroke="#191970" d="M321.5652,-347.4554C350.5975,-337.194 388.6541,-323.7429 416.3409,-313.9571"/>
<polygon fill="#191970" stroke="#191970" points="417.7741,-317.1628 426.0362,-310.5303 415.4414,-310.5629 417.7741,-317.1628"/>
</g>
<!-- Node24&#45;&gt;Node18 -->
<g id="edge33" class="edge">
<title>Node24&#45;&gt;Node18</title>
<path fill="none" stroke="#191970" d="M227.2762,-349.6897C150.1564,-329.0558 14,-286.0367 14,-239.5 14,-239.5 14,-239.5 14,-122 14,-87.6118 30.2634,-50.2832 41.511,-28.5791"/>
<polygon fill="#191970" stroke="#191970" points="44.7317,-29.9804 46.393,-19.5166 38.569,-26.6605 44.7317,-29.9804"/>
</g>
<!-- Node25&#45;&gt;Node5 -->
<g id="edge35" class="edge">
<title>Node25&#45;&gt;Node5</title>
<path fill="none" stroke="#191970" d="M659.0537,-414.4491C632.0878,-405.6987 599.3173,-393.3538 572,-378 552.6978,-367.1511 551.3156,-359.4424 533,-347 516.2087,-335.5931 496.4418,-324.2094 480.7579,-315.6201"/>
<polygon fill="#191970" stroke="#191970" points="482.0443,-312.3368 471.5833,-310.658 478.7141,-318.4939 482.0443,-312.3368"/>
</g>
<!-- Node25&#45;&gt;Node9 -->
<g id="edge41" class="edge">
<title>Node25&#45;&gt;Node9</title>
<path fill="none" stroke="#191970" d="M701.6828,-414.2815C695.296,-404.3119 687.3261,-390.8017 682,-378 666.1475,-339.8971 655.3079,-293.0477 649.6381,-264.7682"/>
<polygon fill="#191970" stroke="#191970" points="653.063,-264.0441 647.7186,-254.8959 646.1916,-265.3802 653.063,-264.0441"/>
</g>
<!-- Node25&#45;&gt;Node16 -->
<g id="edge44" class="edge">
<title>Node25&#45;&gt;Node16</title>
<path fill="none" stroke="#191970" d="M767.1797,-426.1594C838.3906,-420.7086 956.8548,-407.4055 988,-378 1013.6301,-353.8015 1007,-336.2487 1007,-301 1007,-301 1007,-301 1007,-122 1007,-63.8404 935.0177,-33.241 887.9188,-19.4442"/>
<polygon fill="#191970" stroke="#191970" points="888.8539,-16.0715 878.2809,-16.7513 886.9702,-22.8133 888.8539,-16.0715"/>
</g>
<!-- Node26 -->
<g id="node27" class="node">
<title>Node26</title>
<g id="a_node27"><a xlink:href="global__tas__lock_8hpp.html" target="_top" xlink:title="This file provides a tas lock for the ArgoDSM system based on the TAS lock made by David Klaftenegger...">
<polygon fill="#ffffff" stroke="#000000" points="691,-347.5 691,-377.5 807,-377.5 807,-347.5 691,-347.5"/>
<text text-anchor="start" x="699" y="-365.5" font-family="Helvetica,sans-Serif" font-size="10.00" fill="#000000">../synchronization</text>
<text text-anchor="middle" x="749" y="-354.5" font-family="Helvetica,sans-Serif" font-size="10.00" fill="#000000">/global_tas_lock.hpp</text>
</a>
</g>
</g>
<!-- Node25&#45;&gt;Node26 -->
<g id="edge36" class="edge">
<title>Node25&#45;&gt;Node26</title>
<path fill="none" stroke="#191970" d="M720.3959,-414.2967C724.9373,-406.0729 730.6506,-395.7272 735.7748,-386.4483"/>
<polygon fill="#191970" stroke="#191970" points="738.8669,-388.0891 740.6374,-377.6432 732.7392,-384.7051 738.8669,-388.0891"/>
</g>
<!-- Node29 -->
<g id="node30" class="node">
<title>Node29</title>
<polygon fill="#ffffff" stroke="#bfbfbf" points="825.5,-353 825.5,-372 902.5,-372 902.5,-353 825.5,-353"/>
<text text-anchor="middle" x="864" y="-360" font-family="Helvetica,sans-Serif" font-size="10.00" fill="#000000">sys/mman.h</text>
</g>
<!-- Node25&#45;&gt;Node29 -->
<g id="edge42" class="edge">
<title>Node25&#45;&gt;Node29</title>
<path fill="none" stroke="#191970" d="M746.1118,-414.4639C772.0749,-403.0196 807.523,-387.3945 832.7515,-376.274"/>
<polygon fill="#191970" stroke="#191970" points="834.4732,-379.3401 842.212,-372.1039 831.6498,-372.9347 834.4732,-379.3401"/>
</g>
<!-- Node30 -->
<g id="node31" class="node">
<title>Node30</title>
<polygon fill="#ffffff" stroke="#bfbfbf" points="921,-353 921,-372 979,-372 979,-353 921,-353"/>
<text text-anchor="middle" x="950" y="-360" font-family="Helvetica,sans-Serif" font-size="10.00" fill="#000000">memory</text>
</g>
<!-- Node25&#45;&gt;Node30 -->
<g id="edge43" class="edge">
<title>Node25&#45;&gt;Node30</title>
<path fill="none" stroke="#191970" d="M767.0103,-417.2197C807.2648,-407.7616 862.9998,-393.6815 911,-378 913.279,-377.2555 915.6165,-376.4462 917.9598,-375.6012"/>
<polygon fill="#191970" stroke="#191970" points="919.3729,-378.8089 927.4904,-372.0004 916.8988,-372.2607 919.3729,-378.8089"/>
</g>
<!-- Node31 -->
<g id="node32" class="node">
<title>Node31</title>
<polygon fill="#ffffff" stroke="#bfbfbf" points="581.5,-353 581.5,-372 634.5,-372 634.5,-353 581.5,-353"/>
<text text-anchor="middle" x="608" y="-360" font-family="Helvetica,sans-Serif" font-size="10.00" fill="#000000">stdlib.h</text>
</g>
<!-- Node25&#45;&gt;Node31 -->
<g id="edge45" class="edge">
<title>Node25&#45;&gt;Node31</title>
<path fill="none" stroke="#191970" d="M688.6604,-414.4639C671.6821,-403.526 648.7758,-388.769 631.7118,-377.7759"/>
<polygon fill="#191970" stroke="#191970" points="633.2096,-374.5774 622.9076,-372.1039 629.4186,-380.462 633.2096,-374.5774"/>
</g>
<!-- Node26&#45;&gt;Node5 -->
<g id="edge37" class="edge">
<title>Node26&#45;&gt;Node5</title>
<path fill="none" stroke="#191970" d="M690.8731,-350.423C638.1537,-339.4694 560.9483,-323.4284 508.925,-312.6195"/>
<polygon fill="#191970" stroke="#191970" points="509.3737,-309.1381 498.8708,-310.5306 507.9496,-315.9917 509.3737,-309.1381"/>
</g>
<!-- Node26&#45;&gt;Node9 -->
<g id="edge38" class="edge">
<title>Node26&#45;&gt;Node9</title>
<path fill="none" stroke="#191970" d="M753.0792,-347.2625C756.2824,-331.8438 758.6265,-307.9282 748,-291 738.7591,-276.279 723.9158,-265.6171 708.341,-257.9551"/>
<polygon fill="#191970" stroke="#191970" points="709.6766,-254.7179 699.1231,-253.7825 706.7899,-261.095 709.6766,-254.7179"/>
</g>
<!-- Node27 -->
<g id="node28" class="node">
<title>Node27</title>
<polygon fill="#ffffff" stroke="#bfbfbf" points="795,-291.5 795,-310.5 845,-310.5 845,-291.5 795,-291.5"/>
<text text-anchor="middle" x="820" y="-298.5" font-family="Helvetica,sans-Serif" font-size="10.00" fill="#000000">chrono</text>
</g>
<!-- Node26&#45;&gt;Node27 -->
<g id="edge39" class="edge">
<title>Node26&#45;&gt;Node27</title>
<path fill="none" stroke="#191970" d="M766.5506,-347.2977C777.0221,-338.2274 790.3211,-326.7077 801.0338,-317.4285"/>
<polygon fill="#191970" stroke="#191970" points="803.3649,-320.0398 808.632,-310.8469 798.7818,-314.7487 803.3649,-320.0398"/>
</g>
<!-- Node28 -->
<g id="node29" class="node">
<title>Node28</title>
<polygon fill="#ffffff" stroke="#bfbfbf" points="691,-291.5 691,-310.5 739,-310.5 739,-291.5 691,-291.5"/>
<text text-anchor="middle" x="715" y="-298.5" font-family="Helvetica,sans-Serif" font-size="10.00" fill="#000000">thread</text>
</g>
<!-- Node26&#45;&gt;Node28 -->
<g id="edge40" class="edge">
<title>Node26&#45;&gt;Node28</title>
<path fill="none" stroke="#191970" d="M740.5955,-347.2977C735.9743,-338.9388 730.2031,-328.4997 725.3111,-319.6509"/>
<polygon fill="#191970" stroke="#191970" points="728.3452,-317.9051 720.4438,-310.8469 722.2191,-321.292 728.3452,-317.9051"/>
</g>
<!-- Node32&#45;&gt;Node1 -->
<g id="edge47" class="edge">
<title>Node32&#45;&gt;Node1</title>
<path fill="none" stroke="#191970" d="M489.1023,-419.9005C473.1836,-408.9052 446.8879,-390.7422 428.1401,-377.7927"/>
<polygon fill="#191970" stroke="#191970" points="430.0892,-374.8852 419.872,-372.0817 426.1108,-380.6448 430.0892,-374.8852"/>
</g>
<!-- Node32&#45;&gt;Node3 -->
<g id="edge48" class="edge">
<title>Node32&#45;&gt;Node3</title>
<path fill="none" stroke="#191970" d="M503,-419.9005C503,-410.149 503,-394.7597 503,-382.3695"/>
<polygon fill="#191970" stroke="#191970" points="506.5001,-382.0816 503,-372.0817 499.5001,-382.0817 506.5001,-382.0816"/>
</g>
<!-- Node32&#45;&gt;Node5 -->
<g id="edge49" class="edge">
<title>Node32&#45;&gt;Node5</title>
<path fill="none" stroke="#191970" d="M495.8818,-419.7152C488.8923,-409.6908 478.3772,-393.4315 472,-378 464.2983,-359.3635 459.1904,-336.8498 456.229,-320.9944"/>
<polygon fill="#191970" stroke="#191970" points="459.613,-320.0259 454.4458,-310.7766 452.7172,-321.2295 459.613,-320.0259"/>
</g>
</g>
</svg>
        <g id="navigator" transform="translate(0 0)" fill="#404254">
                <rect fill="#f2f5e9" fill-opacity="0.5" stroke="#606060" stroke-width=".5" x="0" y="0" width="60" height="60"/>
                <use id="zoomplus" xlink:href="#zoomPlus" x="17" y="9" onmousedown="handleZoom(evt,'in')"/>
                <use id="zoomminus" xlink:href="#zoomMin" x="42" y="9" onmousedown="handleZoom(evt,'out')"/>
                <use id="reset" xlink:href="#resetDef" x="30" y="36" onmousedown="handleReset()"/>
                <g id="arrowUp" xlink:href="#dirArrow" transform="translate(30 24)" onmousedown="handlePan(0,-1)">
                  <use xlink:href="#rim" fill="#404040">
                        <set attributeName="fill" to="#808080" begin="arrowUp.mouseover" end="arrowUp.mouseout"/>
                  </use>
                  <path fill="none" stroke="white" stroke-width="1.5" d="M0,-3.0v7 M-2.5,-0.5L0,-3.0L2.5,-0.5"/>
                </g>
                <g id="arrowRight" xlink:href="#dirArrow" transform="rotate(90) translate(36 -43)" onmousedown="handlePan(1,0)">
                  <use xlink:href="#rim" fill="#404040">
                        <set attributeName="fill" to="#808080" begin="arrowRight.mouseover" end="arrowRight.mouseout"/>
                  </use>
                  <path fill="none" stroke="white" stroke-width="1.5" d="M0,-3.0v7 M-2.5,-0.5L0,-3.0L2.5,-0.5"/>
                </g>
                <g id="arrowDown" xlink:href="#dirArrow" transform="rotate(180) translate(-30 -48)" onmousedown="handlePan(0,1)">
                  <use xlink:href="#rim" fill="#404040">
                        <set attributeName="fill" to="#808080" begin="arrowDown.mouseover" end="arrowDown.mouseout"/>
                  </use>
                  <path fill="none" stroke="white" stroke-width="1.5" d="M0,-3.0v7 M-2.5,-0.5L0,-3.0L2.5,-0.5"/>
                </g>
                <g id="arrowLeft" xlink:href="#dirArrow" transform="rotate(270) translate(-36 17)" onmousedown="handlePan(-1,0)">
                  <use xlink:href="#rim" fill="#404040">
                        <set attributeName="fill" to="#808080" begin="arrowLeft.mouseover" end="arrowLeft.mouseout"/>
                  </use>
                  <path fill="none" stroke="white" stroke-width="1.5" d="M0,-3.0v7 M-2.5,-0.5L0,-3.0L2.5,-0.5"/>
                </g>
        </g>
        <svg viewBox="0 0 15 15" width="100%" height="30px" preserveAspectRatio="xMaxYMin meet">
         <g id="arrow_out" transform="scale(0.3 0.3)">
          <a xlink:href="dynamic__allocator_8hpp__incl_org.svg" target="_base">
           <rect id="button" ry="5" rx="5" y="6" x="6" height="38" width="38"
                fill="#f2f5e9" fill-opacity="0.5" stroke="#606060" stroke-width="1.0"/>
           <path id="arrow"
             d="M 11.500037,31.436501 C 11.940474,20.09759 22.043105,11.32322 32.158766,21.979434 L 37.068811,17.246167 C 37.068811,17.246167 37.088388,32 37.088388,32 L 22.160133,31.978069 C 22.160133,31.978069 26.997745,27.140456 26.997745,27.140456 C 18.528582,18.264221 13.291696,25.230495 11.500037,31.436501 z"
             style="fill:#404040;"/>
          </a>
         </g>
        </svg>
</svg>
