<?xml version="1.0" encoding="UTF-8" standalone="no"?>
<!DOCTYPE svg PUBLIC "-//W3C//DTD SVG 1.1//EN"
 "http://www.w3.org/Graphics/SVG/1.1/DTD/svg11.dtd">
<!-- Generated by graphviz version 2.40.1 (20161225.0304)
 -->
<!-- Title: /home/atmerhannah/argodsm/src/allocators/dynamic_allocator.hpp Pages: 1 -->
<svg width="1959pt" height="351pt"
 viewBox="0.00 0.00 1959.00 351.00" xmlns="http://www.w3.org/2000/svg" xmlns:xlink="http://www.w3.org/1999/xlink">
<g id="graph0" class="graph" transform="scale(1 1) rotate(0) translate(4 347)">
<title>/home/atmerhannah/argodsm/src/allocators/dynamic_allocator.hpp</title>
<polygon fill="#ffffff" stroke="transparent" points="-4,4 -4,-347 1955,-347 1955,4 -4,4"/>
<!-- Node35 -->
<g id="node1" class="node">
<title>Node35</title>
<polygon fill="#bfbfbf" stroke="#000000" points="894,-301.5 894,-342.5 1055,-342.5 1055,-301.5 894,-301.5"/>
<text text-anchor="start" x="902" y="-330.5" font-family="Helvetica,sans-Serif" font-size="10.00" fill="#000000">/home/atmerhannah/argodsm</text>
<text text-anchor="start" x="902" y="-319.5" font-family="Helvetica,sans-Serif" font-size="10.00" fill="#000000">/src/allocators/dynamic</text>
<text text-anchor="middle" x="974.5" y="-308.5" font-family="Helvetica,sans-Serif" font-size="10.00" fill="#000000">_allocator.hpp</text>
</g>
<!-- Node36 -->
<g id="node2" class="node">
<title>Node36</title>
<g id="a_node2"><a xlink:href="collective__allocator_8hpp.html" target="_top" xlink:title="This file provides the collective allocator for ArgoDSM. ">
<polygon fill="#ffffff" stroke="#000000" points="1222,-223.5 1222,-264.5 1383,-264.5 1383,-223.5 1222,-223.5"/>
<text text-anchor="start" x="1230" y="-252.5" font-family="Helvetica,sans-Serif" font-size="10.00" fill="#000000">/home/atmerhannah/argodsm</text>
<text text-anchor="start" x="1230" y="-241.5" font-family="Helvetica,sans-Serif" font-size="10.00" fill="#000000">/src/allocators/collective</text>
<text text-anchor="middle" x="1302.5" y="-230.5" font-family="Helvetica,sans-Serif" font-size="10.00" fill="#000000">_allocator.hpp</text>
</a>
</g>
</g>
<!-- Node35&#45;&gt;Node36 -->
<g id="edge1" class="edge">
<title>Node35&#45;&gt;Node36</title>
<path fill="none" stroke="#191970" d="M1065.1419,-300.4449C1114.2473,-288.7674 1174.4046,-274.4617 1221.8696,-263.1743"/>
<polygon fill="#191970" stroke="#191970" points="1064.0769,-297.1005 1055.1579,-302.8192 1065.6964,-303.9106 1064.0769,-297.1005"/>
</g>
<!-- Node37 -->
<g id="node3" class="node">
<title>Node37</title>
<g id="a_node3"><a xlink:href="src_2allocators_2allocators_8cpp.html" target="_top" xlink:title="This file provides the default allocators. ">
<polygon fill="#ffffff" stroke="#000000" points="783,-151 783,-181 944,-181 944,-151 783,-151"/>
<text text-anchor="start" x="791" y="-169" font-family="Helvetica,sans-Serif" font-size="10.00" fill="#000000">/home/atmerhannah/argodsm</text>
<text text-anchor="middle" x="863.5" y="-158" font-family="Helvetica,sans-Serif" font-size="10.00" fill="#000000">/src/allocators/allocators.cpp</text>
</a>
</g>
</g>
<!-- Node35&#45;&gt;Node37 -->
<g id="edge25" class="edge">
<title>Node35&#45;&gt;Node37</title>
<path fill="none" stroke="#191970" d="M953.8035,-292.913C930.2423,-259.8 892.6506,-206.9685 874.2946,-181.1708"/>
<polygon fill="#191970" stroke="#191970" points="951.1107,-295.1656 959.7601,-301.2844 956.8142,-291.1073 951.1107,-295.1656"/>
</g>
<!-- Node38 -->
<g id="node4" class="node">
<title>Node38</title>
<g id="a_node4"><a xlink:href="allocators_8hpp.html" target="_top" xlink:title="This file provides all C++ allocators for ArgoDSM. ">
<polygon fill="#ffffff" stroke="#000000" points="962,-151 962,-181 1123,-181 1123,-151 962,-151"/>
<text text-anchor="start" x="970" y="-169" font-family="Helvetica,sans-Serif" font-size="10.00" fill="#000000">/home/atmerhannah/argodsm</text>
<text text-anchor="middle" x="1042.5" y="-158" font-family="Helvetica,sans-Serif" font-size="10.00" fill="#000000">/src/allocators/allocators.hpp</text>
</a>
</g>
</g>
<!-- Node35&#45;&gt;Node38 -->
<g id="edge26" class="edge">
<title>Node35&#45;&gt;Node38</title>
<path fill="none" stroke="#191970" d="M987.5493,-292.0633C1002.004,-258.9027 1024.7377,-206.7489 1035.8871,-181.1708"/>
<polygon fill="#191970" stroke="#191970" points="984.3174,-290.7189 983.5299,-301.2844 990.7342,-293.516 984.3174,-290.7189"/>
</g>
<!-- Node40 -->
<g id="node6" class="node">
<title>Node40</title>
<g id="a_node6"><a xlink:href="argo_8cpp.html" target="_top" xlink:title="This file implements some of the basic ArgoDSM calls. ">
<polygon fill="#ffffff" stroke="#000000" points="0,-.5 0,-30.5 161,-30.5 161,-.5 0,-.5"/>
<text text-anchor="start" x="8" y="-18.5" font-family="Helvetica,sans-Serif" font-size="10.00" fill="#000000">/home/atmerhannah/argodsm</text>
<text text-anchor="middle" x="80.5" y="-7.5" font-family="Helvetica,sans-Serif" font-size="10.00" fill="#000000">/src/argo.cpp</text>
</a>
</g>
</g>
<!-- Node35&#45;&gt;Node40 -->
<g id="edge27" class="edge">
<title>Node35&#45;&gt;Node40</title>
<path fill="none" stroke="#191970" d="M904.7602,-298.0903C728.4118,-237.6308 268.4854,-79.9491 124.354,-30.535"/>
<polygon fill="#191970" stroke="#191970" points="903.8593,-301.4814 914.454,-301.4137 906.1296,-294.8597 903.8593,-301.4814"/>
</g>
<!-- Node36&#45;&gt;Node37 -->
<g id="edge2" class="edge">
<title>Node36&#45;&gt;Node37</title>
<path fill="none" stroke="#191970" d="M1211.7029,-231.0029C1140.8644,-220.4313 1040.1176,-204.4491 952.5,-187 943.4694,-185.2016 933.9624,-183.1401 924.6584,-181.0271"/>
<polygon fill="#191970" stroke="#191970" points="1211.5265,-234.515 1221.9323,-232.5229 1212.5554,-227.591 1211.5265,-234.515"/>
</g>
<!-- Node36&#45;&gt;Node38 -->
<g id="edge3" class="edge">
<title>Node36&#45;&gt;Node38</title>
<path fill="none" stroke="#191970" d="M1224.0429,-220.4629C1181.3483,-207.6545 1129.8033,-192.191 1092.5627,-181.0188"/>
<polygon fill="#191970" stroke="#191970" points="1223.264,-223.8832 1233.848,-223.4044 1225.2754,-217.1784 1223.264,-223.8832"/>
</g>
<!-- Node36&#45;&gt;Node40 -->
<g id="edge16" class="edge">
<title>Node36&#45;&gt;Node40</title>
<path fill="none" stroke="#191970" d="M1266.7056,-217.4206C1233.47,-194.2154 1181.6945,-161.7105 1131.5,-145 722.9959,-9.0027 595.5171,-93.2919 169.5,-31 166.8618,-30.6142 164.1815,-30.2114 161.4763,-29.7953"/>
<polygon fill="#191970" stroke="#191970" points="1264.9724,-220.4818 1275.1571,-223.4009 1269.0157,-214.7676 1264.9724,-220.4818"/>
</g>
<!-- Node41 -->
<g id="node7" class="node">
<title>Node41</title>
<g id="a_node7"><a xlink:href="tests_2allocators_8cpp.html" target="_top" xlink:title="This file provides unit tests for the ArgoDSM allocators and memory pools. ">
<polygon fill="#ffffff" stroke="#000000" points="1432,-.5 1432,-30.5 1593,-30.5 1593,-.5 1432,-.5"/>
<text text-anchor="start" x="1440" y="-18.5" font-family="Helvetica,sans-Serif" font-size="10.00" fill="#000000">/home/atmerhannah/argodsm</text>
<text text-anchor="middle" x="1512.5" y="-7.5" font-family="Helvetica,sans-Serif" font-size="10.00" fill="#000000">/tests/allocators.cpp</text>
</a>
</g>
</g>
<!-- Node36&#45;&gt;Node41 -->
<g id="edge20" class="edge">
<title>Node36&#45;&gt;Node41</title>
<path fill="none" stroke="#191970" d="M1328.2843,-215.9442C1373.0687,-167.2146 1463.7646,-68.5288 1498.516,-30.7159"/>
<polygon fill="#191970" stroke="#191970" points="1325.6962,-213.5879 1321.5065,-223.3191 1330.8502,-218.3246 1325.6962,-213.5879"/>
</g>
<!-- Node42 -->
<g id="node8" class="node">
<title>Node42</title>
<g id="a_node8"><a xlink:href="api_8cpp.html" target="_top" xlink:title="This file provides unit tests for the ArgoDSM API functions. ">
<polygon fill="#ffffff" stroke="#000000" points="1611,-.5 1611,-30.5 1772,-30.5 1772,-.5 1611,-.5"/>
<text text-anchor="start" x="1619" y="-18.5" font-family="Helvetica,sans-Serif" font-size="10.00" fill="#000000">/home/atmerhannah/argodsm</text>
<text text-anchor="middle" x="1691.5" y="-7.5" font-family="Helvetica,sans-Serif" font-size="10.00" fill="#000000">/tests/api.cpp</text>
</a>
</g>
</g>
<!-- Node36&#45;&gt;Node42 -->
<g id="edge21" class="edge">
<title>Node36&#45;&gt;Node42</title>
<path fill="none" stroke="#191970" d="M1346.7312,-218.0184C1428.359,-170.07 1600.2963,-69.0734 1665.5963,-30.7159"/>
<polygon fill="#191970" stroke="#191970" points="1344.557,-215.2363 1337.7072,-223.3191 1348.1025,-221.2721 1344.557,-215.2363"/>
</g>
<!-- Node45 -->
<g id="node11" class="node">
<title>Node45</title>
<g id="a_node11"><a xlink:href="lock_8cpp.html" target="_top" xlink:title="This file provides unit tests for the ArgoDSM locks. ">
<polygon fill="#ffffff" stroke="#000000" points="1790,-.5 1790,-30.5 1951,-30.5 1951,-.5 1790,-.5"/>
<text text-anchor="start" x="1798" y="-18.5" font-family="Helvetica,sans-Serif" font-size="10.00" fill="#000000">/home/atmerhannah/argodsm</text>
<text text-anchor="middle" x="1870.5" y="-7.5" font-family="Helvetica,sans-Serif" font-size="10.00" fill="#000000">/tests/lock.cpp</text>
</a>
</g>
</g>
<!-- Node36&#45;&gt;Node45 -->
<g id="edge22" class="edge">
<title>Node36&#45;&gt;Node45</title>
<path fill="none" stroke="#191970" d="M1368.8391,-219.7508C1393.2592,-210.2537 1420.9406,-198.8091 1445.5,-187 1447.0192,-186.2695 1654.9325,-67.62 1656.5,-67 1699.2309,-50.0994 1749.0357,-37.713 1789.8406,-29.3289"/>
<polygon fill="#191970" stroke="#191970" points="1367.3741,-216.5644 1359.3016,-223.4262 1369.8913,-223.0962 1367.3741,-216.5644"/>
</g>
<!-- Node46 -->
<g id="node12" class="node">
<title>Node46</title>
<g id="a_node12"><a xlink:href="omp_8cpp.html" target="_top" xlink:title="This file provides tests using OpenMP in ArgoDSM. ">
<polygon fill="#ffffff" stroke="#000000" points="1074,-.5 1074,-30.5 1235,-30.5 1235,-.5 1074,-.5"/>
<text text-anchor="start" x="1082" y="-18.5" font-family="Helvetica,sans-Serif" font-size="10.00" fill="#000000">/home/atmerhannah/argodsm</text>
<text text-anchor="middle" x="1154.5" y="-7.5" font-family="Helvetica,sans-Serif" font-size="10.00" fill="#000000">/tests/omp.cpp</text>
</a>
</g>
</g>
<!-- Node36&#45;&gt;Node46 -->
<g id="edge23" class="edge">
<title>Node36&#45;&gt;Node46</title>
<path fill="none" stroke="#191970" d="M1299.2428,-213.4603C1293.7917,-175.4213 1279.701,-110.1884 1244.5,-67 1231.4204,-50.9525 1211.9302,-38.9301 1194.4284,-30.5549"/>
<polygon fill="#191970" stroke="#191970" points="1295.78,-213.9728 1300.5615,-223.4273 1302.7195,-213.0545 1295.78,-213.9728"/>
</g>
<!-- Node47 -->
<g id="node13" class="node">
<title>Node47</title>
<g id="a_node13"><a xlink:href="prefetch_8cpp.html" target="_top" xlink:title="This file provides unit tests for the ArgoDSM prefetch mechanism. ">
<polygon fill="#ffffff" stroke="#000000" points="1253,-.5 1253,-30.5 1414,-30.5 1414,-.5 1253,-.5"/>
<text text-anchor="start" x="1261" y="-18.5" font-family="Helvetica,sans-Serif" font-size="10.00" fill="#000000">/home/atmerhannah/argodsm</text>
<text text-anchor="middle" x="1333.5" y="-7.5" font-family="Helvetica,sans-Serif" font-size="10.00" fill="#000000">/tests/prefetch.cpp</text>
</a>
</g>
</g>
<!-- Node36&#45;&gt;Node47 -->
<g id="edge24" class="edge">
<title>Node36&#45;&gt;Node47</title>
<path fill="none" stroke="#191970" d="M1306.6804,-213.1863C1313.4103,-163.5804 1326.4007,-67.8285 1331.4357,-30.7159"/>
<polygon fill="#191970" stroke="#191970" points="1303.1819,-212.9394 1305.3057,-223.3191 1310.1184,-213.8805 1303.1819,-212.9394"/>
</g>
<!-- Node51 -->
<g id="node17" class="node">
<title>Node51</title>
<g id="a_node17"><a xlink:href="cohort__lock_8hpp.html" target="_top" xlink:title="This file provides a cohort lock for the ArgoDSM system. ">
<polygon fill="#ffffff" stroke="#000000" points="1665,-145.5 1665,-186.5 1826,-186.5 1826,-145.5 1665,-145.5"/>
<text text-anchor="start" x="1673" y="-174.5" font-family="Helvetica,sans-Serif" font-size="10.00" fill="#000000">/home/atmerhannah/argodsm</text>
<text text-anchor="start" x="1673" y="-163.5" font-family="Helvetica,sans-Serif" font-size="10.00" fill="#000000">/src/synchronization/cohort</text>
<text text-anchor="middle" x="1745.5" y="-152.5" font-family="Helvetica,sans-Serif" font-size="10.00" fill="#000000">_lock.hpp</text>
</a>
</g>
</g>
<!-- Node36&#45;&gt;Node51 -->
<g id="edge17" class="edge">
<title>Node36&#45;&gt;Node51</title>
<path fill="none" stroke="#191970" d="M1393.1441,-228.8637C1459.9258,-217.6084 1552.9333,-201.7166 1634.5,-187 1644.3435,-185.224 1654.6704,-183.3222 1664.8974,-181.4151"/>
<polygon fill="#191970" stroke="#191970" points="1392.3519,-225.4477 1383.0719,-230.5596 1393.5143,-232.3505 1392.3519,-225.4477"/>
</g>
<!-- Node39 -->
<g id="node5" class="node">
<title>Node39</title>
<g id="a_node5"><a xlink:href="argo_8hpp.html" target="_top" xlink:title="This file provides the full C++ interface to ArgoDSM. ">
<polygon fill="#ffffff" stroke="#000000" points="1074,-73 1074,-103 1235,-103 1235,-73 1074,-73"/>
<text text-anchor="start" x="1082" y="-91" font-family="Helvetica,sans-Serif" font-size="10.00" fill="#000000">/home/atmerhannah/argodsm</text>
<text text-anchor="middle" x="1154.5" y="-80" font-family="Helvetica,sans-Serif" font-size="10.00" fill="#000000">/src/argo.hpp</text>
</a>
</g>
</g>
<!-- Node38&#45;&gt;Node39 -->
<g id="edge4" class="edge">
<title>Node38&#45;&gt;Node39</title>
<path fill="none" stroke="#191970" d="M1072.394,-145.181C1091.3375,-131.9882 1115.4157,-115.2194 1132.5894,-103.2592"/>
<polygon fill="#191970" stroke="#191970" points="1070.3006,-142.3737 1064.0947,-150.9608 1074.3011,-148.118 1070.3006,-142.3737"/>
</g>
<!-- Node39&#45;&gt;Node40 -->
<g id="edge5" class="edge">
<title>Node39&#45;&gt;Node40</title>
<path fill="none" stroke="#191970" d="M1084.1848,-71.0023C1075.9014,-69.4324 1067.5385,-68.0427 1059.5,-67 666.9099,-16.0768 563.1391,-73.053 169.5,-31 166.8488,-30.7168 164.1573,-30.4028 161.4424,-30.0634"/>
<polygon fill="#191970" stroke="#191970" points="1083.7319,-74.4807 1094.2221,-72.9955 1085.0954,-67.6147 1083.7319,-74.4807"/>
</g>
<!-- Node39&#45;&gt;Node41 -->
<g id="edge6" class="edge">
<title>Node39&#45;&gt;Node41</title>
<path fill="none" stroke="#191970" d="M1238.6029,-70.968C1299.212,-58.6938 1380.2405,-42.2844 1438.4172,-30.5028"/>
<polygon fill="#191970" stroke="#191970" points="1237.7841,-67.5627 1228.6778,-72.978 1239.1736,-74.4234 1237.7841,-67.5627"/>
</g>
<!-- Node39&#45;&gt;Node42 -->
<g id="edge7" class="edge">
<title>Node39&#45;&gt;Node42</title>
<path fill="none" stroke="#191970" d="M1245.1443,-77.7036C1335.7608,-67.1196 1479.0104,-49.5992 1602.5,-31 1605.2916,-30.5795 1608.1307,-30.1416 1610.9967,-29.6907"/>
<polygon fill="#191970" stroke="#191970" points="1244.7069,-74.2308 1235.179,-78.8644 1245.5169,-81.1838 1244.7069,-74.2308"/>
</g>
<!-- Node43 -->
<g id="node9" class="node">
<title>Node43</title>
<g id="a_node9"><a xlink:href="backend_8cpp.html" target="_top" xlink:title="This file provides tests for the backends. ">
<polygon fill="#ffffff" stroke="#000000" points="895,-.5 895,-30.5 1056,-30.5 1056,-.5 895,-.5"/>
<text text-anchor="start" x="903" y="-18.5" font-family="Helvetica,sans-Serif" font-size="10.00" fill="#000000">/home/atmerhannah/argodsm</text>
<text text-anchor="middle" x="975.5" y="-7.5" font-family="Helvetica,sans-Serif" font-size="10.00" fill="#000000">/tests/backend.cpp</text>
</a>
</g>
</g>
<!-- Node39&#45;&gt;Node43 -->
<g id="edge8" class="edge">
<title>Node39&#45;&gt;Node43</title>
<path fill="none" stroke="#191970" d="M1108.0706,-69.1948C1078.3271,-57.1478 1040.2503,-41.7257 1012.5414,-30.5028"/>
<polygon fill="#191970" stroke="#191970" points="1106.8285,-72.4679 1117.4111,-72.978 1109.4564,-65.9798 1106.8285,-72.4679"/>
</g>
<!-- Node44 -->
<g id="node10" class="node">
<title>Node44</title>
<g id="a_node10"><a xlink:href="barrier_8cpp.html" target="_top" xlink:title="This file provides tests for the barrier synchronization. ">
<polygon fill="#ffffff" stroke="#000000" points="179,-.5 179,-30.5 340,-30.5 340,-.5 179,-.5"/>
<text text-anchor="start" x="187" y="-18.5" font-family="Helvetica,sans-Serif" font-size="10.00" fill="#000000">/home/atmerhannah/argodsm</text>
<text text-anchor="middle" x="259.5" y="-7.5" font-family="Helvetica,sans-Serif" font-size="10.00" fill="#000000">/tests/barrier.cpp</text>
</a>
</g>
</g>
<!-- Node39&#45;&gt;Node44 -->
<g id="edge9" class="edge">
<title>Node39&#45;&gt;Node44</title>
<path fill="none" stroke="#191970" d="M1083.806,-71.0129C1075.645,-69.4569 1067.4141,-68.0675 1059.5,-67 745.9347,-24.706 662.9397,-66.2088 348.5,-31 345.8503,-30.7033 343.16,-30.3777 340.4463,-30.0282"/>
<polygon fill="#191970" stroke="#191970" points="1083.2088,-74.4626 1093.6999,-72.9831 1084.576,-67.5974 1083.2088,-74.4626"/>
</g>
<!-- Node39&#45;&gt;Node45 -->
<g id="edge10" class="edge">
<title>Node39&#45;&gt;Node45</title>
<path fill="none" stroke="#191970" d="M1245.4647,-82.0739C1367.6835,-73.5769 1591.5241,-56.1353 1781.5,-31 1784.1432,-30.6503 1786.8279,-30.2787 1789.5368,-29.8896"/>
<polygon fill="#191970" stroke="#191970" points="1245.136,-78.5882 1235.4011,-82.7693 1245.6186,-85.5715 1245.136,-78.5882"/>
</g>
<!-- Node39&#45;&gt;Node46 -->
<g id="edge11" class="edge">
<title>Node39&#45;&gt;Node46</title>
<path fill="none" stroke="#191970" d="M1154.5,-62.8409C1154.5,-52.0601 1154.5,-39.8309 1154.5,-30.5028"/>
<polygon fill="#191970" stroke="#191970" points="1151.0001,-62.9779 1154.5,-72.978 1158.0001,-62.978 1151.0001,-62.9779"/>
</g>
<!-- Node39&#45;&gt;Node47 -->
<g id="edge12" class="edge">
<title>Node39&#45;&gt;Node47</title>
<path fill="none" stroke="#191970" d="M1200.9294,-69.1948C1230.6729,-57.1478 1268.7497,-41.7257 1296.4586,-30.5028"/>
<polygon fill="#191970" stroke="#191970" points="1199.5436,-65.9798 1191.5889,-72.978 1202.1715,-72.4679 1199.5436,-65.9798"/>
</g>
<!-- Node48 -->
<g id="node14" class="node">
<title>Node48</title>
<g id="a_node14"><a xlink:href="stlallocation_8cpp.html" target="_top" xlink:title="This file provides tests using C++ interfaces in ArgoDSM. ">
<polygon fill="#ffffff" stroke="#000000" points="358,-.5 358,-30.5 519,-30.5 519,-.5 358,-.5"/>
<text text-anchor="start" x="366" y="-18.5" font-family="Helvetica,sans-Serif" font-size="10.00" fill="#000000">/home/atmerhannah/argodsm</text>
<text text-anchor="middle" x="438.5" y="-7.5" font-family="Helvetica,sans-Serif" font-size="10.00" fill="#000000">/tests/stlallocation.cpp</text>
</a>
</g>
</g>
<!-- Node39&#45;&gt;Node48 -->
<g id="edge13" class="edge">
<title>Node39&#45;&gt;Node48</title>
<path fill="none" stroke="#191970" d="M1082.9723,-70.9894C1075.0824,-69.4713 1067.1415,-68.0968 1059.5,-67 824.9189,-33.3297 762.781,-59.3693 527.5,-31 524.8529,-30.6808 522.1649,-30.3357 519.4531,-29.9694"/>
<polygon fill="#191970" stroke="#191970" points="1082.42,-74.4482 1092.9124,-72.979 1083.7939,-67.5844 1082.42,-74.4482"/>
</g>
<!-- Node49 -->
<g id="node15" class="node">
<title>Node49</title>
<g id="a_node15"><a xlink:href="trivial_8cpp.html" target="_top" xlink:title="This file provides unit tests for trivial sanity checks when using ArgoDSM. ">
<polygon fill="#ffffff" stroke="#000000" points="537,-.5 537,-30.5 698,-30.5 698,-.5 537,-.5"/>
<text text-anchor="start" x="545" y="-18.5" font-family="Helvetica,sans-Serif" font-size="10.00" fill="#000000">/home/atmerhannah/argodsm</text>
<text text-anchor="middle" x="617.5" y="-7.5" font-family="Helvetica,sans-Serif" font-size="10.00" fill="#000000">/tests/trivial.cpp</text>
</a>
</g>
</g>
<!-- Node39&#45;&gt;Node49 -->
<g id="edge14" class="edge">
<title>Node39&#45;&gt;Node49</title>
<path fill="none" stroke="#191970" d="M1081.3391,-70.9373C1073.9834,-69.4895 1066.6084,-68.1442 1059.5,-67 903.8014,-41.9385 862.7244,-52.5424 706.5,-31 703.8587,-30.6358 701.1758,-30.2516 698.4683,-29.8517"/>
<polygon fill="#191970" stroke="#191970" points="1080.8343,-74.4062 1091.3308,-72.9659 1082.2271,-67.5462 1080.8343,-74.4062"/>
</g>
<!-- Node50 -->
<g id="node16" class="node">
<title>Node50</title>
<g id="a_node16"><a xlink:href="uninitialized_8cpp.html" target="_top" xlink:title="This file provides unit tests for accessing ArgoDSM memory in various ways. ">
<polygon fill="#ffffff" stroke="#000000" points="716,-.5 716,-30.5 877,-30.5 877,-.5 716,-.5"/>
<text text-anchor="start" x="724" y="-18.5" font-family="Helvetica,sans-Serif" font-size="10.00" fill="#000000">/home/atmerhannah/argodsm</text>
<text text-anchor="middle" x="796.5" y="-7.5" font-family="Helvetica,sans-Serif" font-size="10.00" fill="#000000">/tests/uninitialized.cpp</text>
</a>
</g>
</g>
<!-- Node39&#45;&gt;Node50 -->
<g id="edge15" class="edge">
<title>Node39&#45;&gt;Node50</title>
<path fill="none" stroke="#191970" d="M1077.4021,-70.7929C1071.3485,-69.492 1065.3263,-68.2142 1059.5,-67 998.0098,-54.1852 928.2345,-40.5643 876.0122,-30.5512"/>
<polygon fill="#191970" stroke="#191970" points="1077.0768,-74.3034 1087.5908,-72.9968 1078.5568,-67.4616 1077.0768,-74.3034"/>
</g>
<!-- Node51&#45;&gt;Node45 -->
<g id="edge19" class="edge">
<title>Node51&#45;&gt;Node45</title>
<path fill="none" stroke="#191970" d="M1798.9085,-140.1051C1812.2386,-131.6617 1825.5515,-121.2471 1835.5,-109 1854.6246,-85.4567 1863.9578,-50.4089 1867.9494,-30.5872"/>
<polygon fill="#191970" stroke="#191970" points="1796.9371,-137.2067 1790.1814,-145.3683 1800.5522,-143.201 1796.9371,-137.2067"/>
</g>
<!-- Node52 -->
<g id="node18" class="node">
<title>Node52</title>
<g id="a_node18"><a xlink:href="cohort__lock_8cpp_source.html" target="_top" xlink:title="/home/atmerhannah/argodsm\l/src/synchronization/cohort\l_lock.cpp">
<polygon fill="#ffffff" stroke="#000000" points="1665,-67.5 1665,-108.5 1826,-108.5 1826,-67.5 1665,-67.5"/>
<text text-anchor="start" x="1673" y="-96.5" font-family="Helvetica,sans-Serif" font-size="10.00" fill="#000000">/home/atmerhannah/argodsm</text>
<text text-anchor="start" x="1673" y="-85.5" font-family="Helvetica,sans-Serif" font-size="10.00" fill="#000000">/src/synchronization/cohort</text>
<text text-anchor="middle" x="1745.5" y="-74.5" font-family="Helvetica,sans-Serif" font-size="10.00" fill="#000000">_lock.cpp</text>
</a>
</g>
</g>
<!-- Node51&#45;&gt;Node52 -->
<g id="edge18" class="edge">
<title>Node51&#45;&gt;Node52</title>
<path fill="none" stroke="#191970" d="M1745.5,-135.0789C1745.5,-126.2178 1745.5,-116.7747 1745.5,-108.6898"/>
<polygon fill="#191970" stroke="#191970" points="1742.0001,-135.0974 1745.5,-145.0974 1749.0001,-135.0975 1742.0001,-135.0974"/>
</g>
</g>
</svg>
