<?xml version="1.0" encoding="UTF-8" standalone="no"?>
<!DOCTYPE svg PUBLIC "-//W3C//DTD SVG 1.1//EN"
 "http://www.w3.org/Graphics/SVG/1.1/DTD/svg11.dtd">
<!-- Generated by graphviz version 2.40.1 (20161225.0304)
 -->
<!-- Title: /home/atmerhannah/argodsm/src/backend/explicit_instantiations.inc.cpp Pages: 1 -->
<svg width="348pt" height="117pt"
 viewBox="0.00 0.00 348.00 117.00" xmlns="http://www.w3.org/2000/svg" xmlns:xlink="http://www.w3.org/1999/xlink">
<g id="graph0" class="graph" transform="scale(1 1) rotate(0) translate(4 113)">
<title>/home/atmerhannah/argodsm/src/backend/explicit_instantiations.inc.cpp</title>
<polygon fill="#ffffff" stroke="transparent" points="-4,4 -4,-113 344,-113 344,4 -4,4"/>
<!-- Node2 -->
<g id="node1" class="node">
<title>Node2</title>
<polygon fill="#bfbfbf" stroke="#000000" points="56,-78.5 56,-108.5 283,-108.5 283,-78.5 56,-78.5"/>
<text text-anchor="start" x="64" y="-96.5" font-family="Helvetica,sans-Serif" font-size="10.00" fill="#000000">/home/atmerhannah/argodsm</text>
<text text-anchor="middle" x="169.5" y="-85.5" font-family="Helvetica,sans-Serif" font-size="10.00" fill="#000000">/src/backend/explicit_instantiations.inc.cpp</text>
</g>
<!-- Node3 -->
<g id="node2" class="node">
<title>Node3</title>
<g id="a_node2"><a xlink:href="mpi_8cpp.html" target="_top" xlink:title="MPI backend implementation. ">
<polygon fill="#ffffff" stroke="#000000" points="0,-6 0,-36 161,-36 161,-6 0,-6"/>
<text text-anchor="start" x="8" y="-24" font-family="Helvetica,sans-Serif" font-size="10.00" fill="#000000">/home/atmerhannah/argodsm</text>
<text text-anchor="middle" x="80.5" y="-13" font-family="Helvetica,sans-Serif" font-size="10.00" fill="#000000">/src/backend/mpi/mpi.cpp</text>
</a>
</g>
</g>
<!-- Node2&#45;&gt;Node3 -->
<g id="edge1" class="edge">
<title>Node2&#45;&gt;Node3</title>
<path fill="none" stroke="#191970" d="M143.0864,-71.9833C128.8677,-60.4007 111.6804,-46.3998 98.9172,-36.0028"/>
<polygon fill="#191970" stroke="#191970" points="141.0955,-74.8758 151.0591,-78.478 145.5165,-69.4486 141.0955,-74.8758"/>
</g>
<!-- Node4 -->
<g id="node3" class="node">
<title>Node4</title>
<g id="a_node3"><a xlink:href="singlenode_8cpp.html" target="_top" xlink:title="pseudo&#45;backend implemenation for a single node ArgoDSM system ">
<polygon fill="#ffffff" stroke="#000000" points="179,-.5 179,-41.5 340,-41.5 340,-.5 179,-.5"/>
<text text-anchor="start" x="187" y="-29.5" font-family="Helvetica,sans-Serif" font-size="10.00" fill="#000000">/home/atmerhannah/argodsm</text>
<text text-anchor="start" x="187" y="-18.5" font-family="Helvetica,sans-Serif" font-size="10.00" fill="#000000">/src/backend/singlenode</text>
<text text-anchor="middle" x="259.5" y="-7.5" font-family="Helvetica,sans-Serif" font-size="10.00" fill="#000000">/singlenode.cpp</text>
</a>
</g>
</g>
<!-- Node2&#45;&gt;Node4 -->
<g id="edge2" class="edge">
<title>Node2&#45;&gt;Node4</title>
<path fill="none" stroke="#191970" d="M196.0654,-72.1001C208.0672,-62.432 222.1841,-51.06 234.0499,-41.5015"/>
<polygon fill="#191970" stroke="#191970" points="193.74,-69.479 188.1481,-78.478 198.1313,-74.9303 193.74,-69.479"/>
</g>
</g>
</svg>
