<?xml version="1.0" encoding="UTF-8" standalone="no"?>
<!DOCTYPE svg PUBLIC "-//W3C//DTD SVG 1.1//EN"
 "http://www.w3.org/Graphics/SVG/1.1/DTD/svg11.dtd">
<!-- Generated by graphviz version 2.40.1 (20161225.0304)
 -->
<!-- Title: Graphical Class Hierarchy Pages: 1 -->
<svg width="288pt" height="332pt"
 viewBox="0.00 0.00 288.00 332.00" xmlns="http://www.w3.org/2000/svg" xmlns:xlink="http://www.w3.org/1999/xlink">
<g id="graph0" class="graph" transform="scale(1 1) rotate(0) translate(4 328)">
<title>Graphical Class Hierarchy</title>
<polygon fill="#ffffff" stroke="transparent" points="-4,4 -4,-328 284,-328 284,4 -4,4"/>
<!-- Node5 -->
<g id="node1" class="node">
<title>Node5</title>
<polygon fill="#ffffff" stroke="#bfbfbf" points="38.5,-152.5 38.5,-171.5 74.5,-171.5 74.5,-152.5 38.5,-152.5"/>
<text text-anchor="middle" x="56.5" y="-159.5" font-family="Helvetica,sans-Serif" font-size="10.00" fill="#000000">Test</text>
</g>
<!-- Node6 -->
<g id="node2" class="node">
<title>Node6</title>
<g id="a_node2"><a xlink:href="classAllocatorTest.html" target="_top" xlink:title="Class for the gtests fixture tests. Will reset the allocators to a clean state for every test...">
<polygon fill="#ffffff" stroke="#000000" points="174.5,-.5 174.5,-19.5 254.5,-19.5 254.5,-.5 174.5,-.5"/>
<text text-anchor="middle" x="214.5" y="-7.5" font-family="Helvetica,sans-Serif" font-size="10.00" fill="#000000">AllocatorTest</text>
</a>
</g>
</g>
<!-- Node5&#45;&gt;Node6 -->
<g id="edge1" class="edge">
<title>Node5&#45;&gt;Node6</title>
<path fill="none" stroke="#191970" d="M64.6684,-142.8458C78.0234,-113.83 107.2875,-58.9503 149,-29 156.5019,-23.6135 165.513,-19.7455 174.4172,-16.9708"/>
<polygon fill="#191970" stroke="#191970" points="61.3419,-141.7123 60.4743,-152.2716 67.7374,-144.558 61.3419,-141.7123"/>
</g>
<!-- Node7 -->
<g id="node3" class="node">
<title>Node7</title>
<g id="a_node3"><a xlink:href="classAPITest.html" target="_top" xlink:title="Class for the gtests fixture tests. Will reset the allocators to a clean state for every test...">
<polygon fill="#ffffff" stroke="#000000" points="188.5,-228.5 188.5,-247.5 240.5,-247.5 240.5,-228.5 188.5,-228.5"/>
<text text-anchor="middle" x="214.5" y="-235.5" font-family="Helvetica,sans-Serif" font-size="10.00" fill="#000000">APITest</text>
</a>
</g>
</g>
<!-- Node5&#45;&gt;Node7 -->
<g id="edge2" class="edge">
<title>Node5&#45;&gt;Node7</title>
<path fill="none" stroke="#191970" d="M78.308,-177.7896C96.4872,-190.3621 123.4485,-207.6722 149,-219 161.5562,-224.5665 176.1819,-228.9895 188.4236,-232.1623"/>
<polygon fill="#191970" stroke="#191970" points="79.8489,-174.5943 69.656,-171.7037 75.8215,-180.3198 79.8489,-174.5943"/>
</g>
<!-- Node0 -->
<g id="node4" class="node">
<title>Node0</title>
<g id="a_node4"><a xlink:href="classbackendTest.html" target="_top" xlink:title="Class for the gtests fixture tests. Will reset the allocators to a clean state for every test...">
<polygon fill="#ffffff" stroke="#000000" points="176,-266.5 176,-285.5 253,-285.5 253,-266.5 176,-266.5"/>
<text text-anchor="middle" x="214.5" y="-273.5" font-family="Helvetica,sans-Serif" font-size="10.00" fill="#000000">backendTest</text>
</a>
</g>
</g>
<!-- Node5&#45;&gt;Node0 -->
<g id="edge3" class="edge">
<title>Node5&#45;&gt;Node0</title>
<path fill="none" stroke="#191970" d="M69.2646,-179.9064C85.446,-201.3172 115.3219,-236.7881 149,-257 157.1218,-261.8743 166.564,-265.5577 175.7082,-268.3184"/>
<polygon fill="#191970" stroke="#191970" points="71.9484,-177.6485 63.197,-171.6766 66.3141,-181.8025 71.9484,-177.6485"/>
</g>
<!-- Node4 -->
<g id="node5" class="node">
<title>Node4</title>
<g id="a_node5"><a xlink:href="classbarrierTest.html" target="_top" xlink:title="Class for the gtests fixture tests. Will reset the allocators to a clean state for every test...">
<polygon fill="#ffffff" stroke="#000000" points="180.5,-304.5 180.5,-323.5 248.5,-323.5 248.5,-304.5 180.5,-304.5"/>
<text text-anchor="middle" x="214.5" y="-311.5" font-family="Helvetica,sans-Serif" font-size="10.00" fill="#000000">barrierTest</text>
</a>
</g>
</g>
<!-- Node5&#45;&gt;Node4 -->
<g id="edge4" class="edge">
<title>Node5&#45;&gt;Node4</title>
<path fill="none" stroke="#191970" d="M64.6684,-181.1542C78.0234,-210.17 107.2875,-265.0497 149,-295 158.1369,-301.5605 169.5126,-305.8684 180.2072,-308.692"/>
<polygon fill="#191970" stroke="#191970" points="67.7374,-179.442 60.4743,-171.7284 61.3419,-182.2877 67.7374,-179.442"/>
</g>
<!-- Node8 -->
<g id="node6" class="node">
<title>Node8</title>
<g id="a_node6"><a xlink:href="classcppTest.html" target="_top" xlink:title="Class for the gtests fixture tests. Will reset the allocators to a clean state for every test...">
<polygon fill="#ffffff" stroke="#000000" points="188,-190.5 188,-209.5 241,-209.5 241,-190.5 188,-190.5"/>
<text text-anchor="middle" x="214.5" y="-197.5" font-family="Helvetica,sans-Serif" font-size="10.00" fill="#000000">cppTest</text>
</a>
</g>
</g>
<!-- Node5&#45;&gt;Node8 -->
<g id="edge5" class="edge">
<title>Node5&#45;&gt;Node8</title>
<path fill="none" stroke="#191970" d="M84.6023,-168.7588C113.8396,-175.7905 159.2733,-186.7176 187.9291,-193.6095"/>
<polygon fill="#191970" stroke="#191970" points="85.1658,-165.2946 74.6246,-166.3591 83.5289,-172.1005 85.1658,-165.2946"/>
</g>
<!-- Node9 -->
<g id="node7" class="node">
<title>Node9</title>
<g id="a_node7"><a xlink:href="classLockTest.html" target="_top" xlink:title="Class for the gtests fixture tests. Will reset the allocators to a clean state for every test...">
<polygon fill="#ffffff" stroke="#000000" points="185,-152.5 185,-171.5 244,-171.5 244,-152.5 185,-152.5"/>
<text text-anchor="middle" x="214.5" y="-159.5" font-family="Helvetica,sans-Serif" font-size="10.00" fill="#000000">LockTest</text>
</a>
</g>
</g>
<!-- Node5&#45;&gt;Node9 -->
<g id="edge6" class="edge">
<title>Node5&#45;&gt;Node9</title>
<path fill="none" stroke="#191970" d="M84.6293,-162C112.8143,-162 156.0315,-162 184.7698,-162"/>
<polygon fill="#191970" stroke="#191970" points="84.6246,-158.5001 74.6246,-162 84.6246,-165.5001 84.6246,-158.5001"/>
</g>
<!-- Node10 -->
<g id="node8" class="node">
<title>Node10</title>
<g id="a_node8"><a xlink:href="classompTest.html" target="_top" xlink:title="Class for the gtests fixture tests. Will reset the allocators to a clean state for every test...">
<polygon fill="#ffffff" stroke="#000000" points="185.5,-114.5 185.5,-133.5 243.5,-133.5 243.5,-114.5 185.5,-114.5"/>
<text text-anchor="middle" x="214.5" y="-121.5" font-family="Helvetica,sans-Serif" font-size="10.00" fill="#000000">ompTest</text>
</a>
</g>
</g>
<!-- Node5&#45;&gt;Node10 -->
<g id="edge7" class="edge">
<title>Node5&#45;&gt;Node10</title>
<path fill="none" stroke="#191970" d="M84.6944,-155.2191C113.0725,-148.394 156.6413,-137.9154 185.3535,-131.0099"/>
<polygon fill="#191970" stroke="#191970" points="83.5289,-151.8995 74.6246,-157.6409 85.1658,-158.7054 83.5289,-151.8995"/>
</g>
<!-- Node11 -->
<g id="node9" class="node">
<title>Node11</title>
<g id="a_node9"><a xlink:href="classPrefetchTest.html" target="_top" xlink:title="Class for the gtests fixture tests. Will reset the allocators to a clean state for every test...">
<polygon fill="#ffffff" stroke="#000000" points="176,-76.5 176,-95.5 253,-95.5 253,-76.5 176,-76.5"/>
<text text-anchor="middle" x="214.5" y="-83.5" font-family="Helvetica,sans-Serif" font-size="10.00" fill="#000000">PrefetchTest</text>
</a>
</g>
</g>
<!-- Node5&#45;&gt;Node11 -->
<g id="edge8" class="edge">
<title>Node5&#45;&gt;Node11</title>
<path fill="none" stroke="#191970" d="M78.308,-146.2104C96.4872,-133.6379 123.4485,-116.3278 149,-105 157.4429,-101.257 166.8216,-98.031 175.782,-95.3545"/>
<polygon fill="#191970" stroke="#191970" points="75.8215,-143.6802 69.656,-152.2963 79.8489,-149.4057 75.8215,-143.6802"/>
</g>
<!-- Node12 -->
<g id="node10" class="node">
<title>Node12</title>
<g id="a_node10"><a xlink:href="classUninitializedAccessTest.html" target="_top" xlink:title="Class for the gtests fixture tests. Will reset the allocators to a clean state for every test...">
<polygon fill="#ffffff" stroke="#000000" points="149,-38.5 149,-57.5 280,-57.5 280,-38.5 149,-38.5"/>
<text text-anchor="middle" x="214.5" y="-45.5" font-family="Helvetica,sans-Serif" font-size="10.00" fill="#000000">UninitializedAccessTest</text>
</a>
</g>
</g>
<!-- Node5&#45;&gt;Node12 -->
<g id="edge9" class="edge">
<title>Node5&#45;&gt;Node12</title>
<path fill="none" stroke="#191970" d="M69.2646,-144.0936C85.446,-122.6828 115.3219,-87.2119 149,-67 155.3959,-63.1615 162.6107,-60.0615 169.8539,-57.5692"/>
<polygon fill="#191970" stroke="#191970" points="66.3141,-142.1975 63.197,-152.3234 71.9484,-146.3515 66.3141,-142.1975"/>
</g>
<!-- Node2 -->
<g id="node11" class="node">
<title>Node2</title>
<polygon fill="#ffffff" stroke="#bfbfbf" points="0,-285.5 0,-304.5 113,-304.5 113,-285.5 0,-285.5"/>
<text text-anchor="middle" x="56.5" y="-292.5" font-family="Helvetica,sans-Serif" font-size="10.00" fill="#000000">WithParamInterface</text>
</g>
<!-- Node2&#45;&gt;Node0 -->
<g id="edge10" class="edge">
<title>Node2&#45;&gt;Node0</title>
<path fill="none" stroke="#191970" d="M123.4464,-286.9495C141.2385,-284.8099 159.866,-282.5699 175.6038,-280.6774"/>
<polygon fill="#191970" stroke="#191970" points="122.6059,-283.5253 113.0954,-288.1942 123.4417,-290.4752 122.6059,-283.5253"/>
</g>
<!-- Node2&#45;&gt;Node4 -->
<g id="edge11" class="edge">
<title>Node2&#45;&gt;Node4</title>
<path fill="none" stroke="#191970" d="M123.2588,-303.028C142.9261,-305.393 163.6308,-307.8828 180.3365,-309.8917"/>
<polygon fill="#191970" stroke="#191970" points="123.4417,-299.5248 113.0954,-301.8058 122.6059,-306.4748 123.4417,-299.5248"/>
</g>
</g>
</svg>
