<?xml version="1.0" encoding="UTF-8" standalone="no"?>
<!DOCTYPE svg PUBLIC "-//W3C//DTD SVG 1.1//EN"
 "http://www.w3.org/Graphics/SVG/1.1/DTD/svg11.dtd">
<!-- Generated by graphviz version 2.40.1 (20161225.0304)
 -->
<!-- Title: Graphical Class Hierarchy Pages: 1 -->
<svg width="407pt" height="370pt"
 viewBox="0.00 0.00 407.00 370.00" xmlns="http://www.w3.org/2000/svg" xmlns:xlink="http://www.w3.org/1999/xlink">
<g id="graph0" class="graph" transform="scale(1 1) rotate(0) translate(4 366)">
<title>Graphical Class Hierarchy</title>
<polygon fill="#ffffff" stroke="transparent" points="-4,4 -4,-366 403,-366 403,4 -4,4"/>
<!-- Node0 -->
<g id="node1" class="node">
<title>Node0</title>
<g id="a_node1"><a xlink:title="STL class. ">
<polygon fill="#ffffff" stroke="#bfbfbf" points="0,-228.5 0,-247.5 86,-247.5 86,-228.5 0,-228.5"/>
<text text-anchor="middle" x="43" y="-235.5" font-family="Helvetica,sans-Serif" font-size="10.00" fill="#000000">std::exception</text>
</a>
</g>
</g>
<!-- Node1 -->
<g id="node2" class="node">
<title>Node1</title>
<g id="a_node2"><a xlink:title="STL class. ">
<polygon fill="#ffffff" stroke="#bfbfbf" points="139,-342.5 139,-361.5 223,-361.5 223,-342.5 139,-342.5"/>
<text text-anchor="middle" x="181" y="-349.5" font-family="Helvetica,sans-Serif" font-size="10.00" fill="#000000">std::bad_alloc</text>
</a>
</g>
</g>
<!-- Node0&#45;&gt;Node1 -->
<g id="edge1" class="edge">
<title>Node0&#45;&gt;Node1</title>
<path fill="none" stroke="#191970" d="M53.7397,-256.3865C67.1267,-277.7595 91.9465,-312.6889 122,-333 127.7062,-336.8564 134.2467,-339.9721 140.8479,-342.4764"/>
<polygon fill="#191970" stroke="#191970" points="56.5986,-254.3514 48.4156,-247.6217 50.6159,-257.9855 56.5986,-254.3514"/>
</g>
<!-- Node2 -->
<g id="node3" class="node">
<title>Node2</title>
<g id="a_node3"><a xlink:title="STL class. ">
<polygon fill="#ffffff" stroke="#bfbfbf" points="140.5,-304.5 140.5,-323.5 221.5,-323.5 221.5,-304.5 140.5,-304.5"/>
<text text-anchor="middle" x="181" y="-311.5" font-family="Helvetica,sans-Serif" font-size="10.00" fill="#000000">std::bad_cast</text>
</a>
</g>
</g>
<!-- Node0&#45;&gt;Node2 -->
<g id="edge2" class="edge">
<title>Node0&#45;&gt;Node2</title>
<path fill="none" stroke="#191970" d="M61.7627,-254.146C77.1177,-266.6935 99.8433,-283.7929 122,-295 129.2019,-298.6428 137.248,-301.782 145.0254,-304.3999"/>
<polygon fill="#191970" stroke="#191970" points="63.9634,-251.4239 54.0409,-247.7098 59.4815,-256.801 63.9634,-251.4239"/>
</g>
<!-- Node3 -->
<g id="node4" class="node">
<title>Node3</title>
<g id="a_node4"><a xlink:title="STL class. ">
<polygon fill="#ffffff" stroke="#bfbfbf" points="126.5,-266.5 126.5,-285.5 235.5,-285.5 235.5,-266.5 126.5,-266.5"/>
<text text-anchor="middle" x="181" y="-273.5" font-family="Helvetica,sans-Serif" font-size="10.00" fill="#000000">std::bad_exception</text>
</a>
</g>
</g>
<!-- Node0&#45;&gt;Node3 -->
<g id="edge3" class="edge">
<title>Node0&#45;&gt;Node3</title>
<path fill="none" stroke="#191970" d="M87.473,-250.2462C106.4946,-255.484 128.3751,-261.5091 146.1879,-266.4141"/>
<polygon fill="#191970" stroke="#191970" points="88.3936,-246.8695 77.8232,-247.589 86.5352,-253.6183 88.3936,-246.8695"/>
</g>
<!-- Node4 -->
<g id="node5" class="node">
<title>Node4</title>
<g id="a_node5"><a xlink:title="STL class. ">
<polygon fill="#ffffff" stroke="#bfbfbf" points="135,-228.5 135,-247.5 227,-247.5 227,-228.5 135,-228.5"/>
<text text-anchor="middle" x="181" y="-235.5" font-family="Helvetica,sans-Serif" font-size="10.00" fill="#000000">std::bad_typeid</text>
</a>
</g>
</g>
<!-- Node0&#45;&gt;Node4 -->
<g id="edge4" class="edge">
<title>Node0&#45;&gt;Node4</title>
<path fill="none" stroke="#191970" d="M96.5939,-238C109.1117,-238 122.3423,-238 134.5215,-238"/>
<polygon fill="#191970" stroke="#191970" points="96.2855,-234.5001 86.2854,-238 96.2854,-241.5001 96.2855,-234.5001"/>
</g>
<!-- Node5 -->
<g id="node6" class="node">
<title>Node5</title>
<g id="a_node6"><a xlink:title="STL class. ">
<polygon fill="#ffffff" stroke="#bfbfbf" points="122,-190.5 122,-209.5 240,-209.5 240,-190.5 122,-190.5"/>
<text text-anchor="middle" x="181" y="-197.5" font-family="Helvetica,sans-Serif" font-size="10.00" fill="#000000">std::ios_base::failure</text>
</a>
</g>
</g>
<!-- Node0&#45;&gt;Node5 -->
<g id="edge5" class="edge">
<title>Node0&#45;&gt;Node5</title>
<path fill="none" stroke="#191970" d="M87.473,-225.7538C106.4946,-220.516 128.3751,-214.4909 146.1879,-209.5859"/>
<polygon fill="#191970" stroke="#191970" points="86.5352,-222.3817 77.8232,-228.411 88.3936,-229.1305 86.5352,-222.3817"/>
</g>
<!-- Node6 -->
<g id="node7" class="node">
<title>Node6</title>
<g id="a_node7"><a xlink:title="STL class. ">
<polygon fill="#ffffff" stroke="#bfbfbf" points="136.5,-152.5 136.5,-171.5 225.5,-171.5 225.5,-152.5 136.5,-152.5"/>
<text text-anchor="middle" x="181" y="-159.5" font-family="Helvetica,sans-Serif" font-size="10.00" fill="#000000">std::logic_error</text>
</a>
</g>
</g>
<!-- Node0&#45;&gt;Node6 -->
<g id="edge6" class="edge">
<title>Node0&#45;&gt;Node6</title>
<path fill="none" stroke="#191970" d="M61.7627,-221.854C77.1177,-209.3065 99.8433,-192.2071 122,-181 129.2019,-177.3572 137.248,-174.218 145.0254,-171.6001"/>
<polygon fill="#191970" stroke="#191970" points="59.4815,-219.199 54.0409,-228.2902 63.9634,-224.5761 59.4815,-219.199"/>
</g>
<!-- Node11 -->
<g id="node12" class="node">
<title>Node11</title>
<g id="a_node12"><a xlink:title="STL class. ">
<polygon fill="#ffffff" stroke="#bfbfbf" points="129,-57.5 129,-76.5 233,-76.5 233,-57.5 129,-57.5"/>
<text text-anchor="middle" x="181" y="-64.5" font-family="Helvetica,sans-Serif" font-size="10.00" fill="#000000">std::runtime_error</text>
</a>
</g>
</g>
<!-- Node0&#45;&gt;Node11 -->
<g id="edge11" class="edge">
<title>Node0&#45;&gt;Node11</title>
<path fill="none" stroke="#191970" d="M57.3704,-220.1932C86.3619,-184.2689 150.9871,-104.1899 173.2708,-76.5774"/>
<polygon fill="#191970" stroke="#191970" points="54.3714,-218.3363 50.8149,-228.3163 59.8188,-222.7324 54.3714,-218.3363"/>
</g>
<!-- Node7 -->
<g id="node8" class="node">
<title>Node7</title>
<g id="a_node8"><a xlink:title="STL class. ">
<polygon fill="#ffffff" stroke="#bfbfbf" points="286,-228.5 286,-247.5 389,-247.5 389,-228.5 286,-228.5"/>
<text text-anchor="middle" x="337.5" y="-235.5" font-family="Helvetica,sans-Serif" font-size="10.00" fill="#000000">std::domain_error</text>
</a>
</g>
</g>
<!-- Node6&#45;&gt;Node7 -->
<g id="edge7" class="edge">
<title>Node6&#45;&gt;Node7</title>
<path fill="none" stroke="#191970" d="M229.8485,-175.5358C233.3822,-177.1732 236.8072,-178.9894 240,-181 259.6864,-193.3968 256.2402,-206.7206 276,-219 282.1695,-222.8339 289.1709,-225.9459 296.1839,-228.4552"/>
<polygon fill="#191970" stroke="#191970" points="230.9048,-172.1855 220.3257,-171.6084 228.2359,-178.6568 230.9048,-172.1855"/>
</g>
<!-- Node8 -->
<g id="node9" class="node">
<title>Node8</title>
<g id="a_node9"><a xlink:title="STL class. ">
<polygon fill="#ffffff" stroke="#bfbfbf" points="276,-190.5 276,-209.5 399,-209.5 399,-190.5 276,-190.5"/>
<text text-anchor="middle" x="337.5" y="-197.5" font-family="Helvetica,sans-Serif" font-size="10.00" fill="#000000">std::invalid_argument</text>
</a>
</g>
</g>
<!-- Node6&#45;&gt;Node8 -->
<g id="edge8" class="edge">
<title>Node6&#45;&gt;Node8</title>
<path fill="none" stroke="#191970" d="M230.2892,-173.968C252.2203,-179.2931 277.6849,-185.4762 298.2924,-190.4799"/>
<polygon fill="#191970" stroke="#191970" points="231.0351,-170.5475 220.4916,-171.589 229.3833,-177.3498 231.0351,-170.5475"/>
</g>
<!-- Node9 -->
<g id="node10" class="node">
<title>Node9</title>
<g id="a_node10"><a xlink:title="STL class. ">
<polygon fill="#ffffff" stroke="#bfbfbf" points="289,-152.5 289,-171.5 386,-171.5 386,-152.5 289,-152.5"/>
<text text-anchor="middle" x="337.5" y="-159.5" font-family="Helvetica,sans-Serif" font-size="10.00" fill="#000000">std::length_error</text>
</a>
</g>
</g>
<!-- Node6&#45;&gt;Node9 -->
<g id="edge9" class="edge">
<title>Node6&#45;&gt;Node9</title>
<path fill="none" stroke="#191970" d="M236.2742,-162C253.4096,-162 272.1579,-162 288.8119,-162"/>
<polygon fill="#191970" stroke="#191970" points="235.8467,-158.5001 225.8466,-162 235.8466,-165.5001 235.8467,-158.5001"/>
</g>
<!-- Node10 -->
<g id="node11" class="node">
<title>Node10</title>
<g id="a_node11"><a xlink:title="STL class. ">
<polygon fill="#ffffff" stroke="#bfbfbf" points="287,-114.5 287,-133.5 388,-133.5 388,-114.5 287,-114.5"/>
<text text-anchor="middle" x="337.5" y="-121.5" font-family="Helvetica,sans-Serif" font-size="10.00" fill="#000000">std::out_of_range</text>
</a>
</g>
</g>
<!-- Node6&#45;&gt;Node10 -->
<g id="edge10" class="edge">
<title>Node6&#45;&gt;Node10</title>
<path fill="none" stroke="#191970" d="M230.2892,-150.032C252.2203,-144.7069 277.6849,-138.5238 298.2924,-133.5201"/>
<polygon fill="#191970" stroke="#191970" points="229.3833,-146.6502 220.4916,-152.411 231.0351,-153.4525 229.3833,-146.6502"/>
</g>
<!-- Node12 -->
<g id="node13" class="node">
<title>Node12</title>
<g id="a_node13"><a xlink:title="STL class. ">
<polygon fill="#ffffff" stroke="#bfbfbf" points="283.5,-76.5 283.5,-95.5 391.5,-95.5 391.5,-76.5 283.5,-76.5"/>
<text text-anchor="middle" x="337.5" y="-83.5" font-family="Helvetica,sans-Serif" font-size="10.00" fill="#000000">std::overflow_error</text>
</a>
</g>
</g>
<!-- Node11&#45;&gt;Node12 -->
<g id="edge12" class="edge">
<title>Node11&#45;&gt;Node12</title>
<path fill="none" stroke="#191970" d="M243.1552,-74.546C256.4899,-76.1649 270.4765,-77.863 283.4738,-79.4409"/>
<polygon fill="#191970" stroke="#191970" points="243.4612,-71.0575 233.1122,-73.3267 242.6175,-78.0065 243.4612,-71.0575"/>
</g>
<!-- Node13 -->
<g id="node14" class="node">
<title>Node13</title>
<g id="a_node14"><a xlink:title="STL class. ">
<polygon fill="#ffffff" stroke="#bfbfbf" points="290.5,-38.5 290.5,-57.5 384.5,-57.5 384.5,-38.5 290.5,-38.5"/>
<text text-anchor="middle" x="337.5" y="-45.5" font-family="Helvetica,sans-Serif" font-size="10.00" fill="#000000">std::range_error</text>
</a>
</g>
</g>
<!-- Node11&#45;&gt;Node13 -->
<g id="edge13" class="edge">
<title>Node11&#45;&gt;Node13</title>
<path fill="none" stroke="#191970" d="M243.2673,-59.4404C258.9595,-57.5353 275.5475,-55.5214 290.3592,-53.7232"/>
<polygon fill="#191970" stroke="#191970" points="242.6175,-55.9935 233.1122,-60.6733 243.4612,-62.9425 242.6175,-55.9935"/>
</g>
<!-- Node14 -->
<g id="node15" class="node">
<title>Node14</title>
<g id="a_node15"><a xlink:title="STL class. ">
<polygon fill="#ffffff" stroke="#bfbfbf" points="280.5,-.5 280.5,-19.5 394.5,-19.5 394.5,-.5 280.5,-.5"/>
<text text-anchor="middle" x="337.5" y="-7.5" font-family="Helvetica,sans-Serif" font-size="10.00" fill="#000000">std::underflow_error</text>
</a>
</g>
</g>
<!-- Node11&#45;&gt;Node14 -->
<g id="edge14" class="edge">
<title>Node11&#45;&gt;Node14</title>
<path fill="none" stroke="#191970" d="M212.7914,-53.5361C231.1307,-45.9579 254.7074,-36.5337 276,-29 285.2708,-25.7198 295.435,-22.4496 304.783,-19.5702"/>
<polygon fill="#191970" stroke="#191970" points="211.3423,-50.3481 203.4545,-57.4215 214.0317,-56.8109 211.3423,-50.3481"/>
</g>
</g>
</svg>
