<?xml version="1.0" encoding="UTF-8" standalone="no"?>
<!DOCTYPE svg PUBLIC "-//W3C//DTD SVG 1.1//EN"
 "http://www.w3.org/Graphics/SVG/1.1/DTD/svg11.dtd">
<!-- Generated by graphviz version 2.40.1 (20161225.0304)
 -->
<!-- Title: TEST_F Pages: 1 -->
<svg width="581pt" height="279pt"
 viewBox="0.00 0.00 581.00 279.00" xmlns="http://www.w3.org/2000/svg" xmlns:xlink="http://www.w3.org/1999/xlink">
<g id="graph0" class="graph" transform="scale(1 1) rotate(0) translate(4 275)">
<title>TEST_F</title>
<polygon fill="#ffffff" stroke="transparent" points="-4,4 -4,-275 577,-275 577,4 -4,4"/>
<!-- Node0 -->
<g id="node1" class="node">
<title>Node0</title>
<polygon fill="#bfbfbf" stroke="#000000" points="0,-120.5 0,-139.5 51,-139.5 51,-120.5 0,-120.5"/>
<text text-anchor="middle" x="25.5" y="-127.5" font-family="Helvetica,sans-Serif" font-size="10.00" fill="#000000">TEST_F</text>
</g>
<!-- Node1 -->
<g id="node2" class="node">
<title>Node1</title>
<g id="a_node2"><a xlink:href="namespaceargo_a79c9492f3fd441bfa6261dffbc0f02f4.html#a79c9492f3fd441bfa6261dffbc0f02f4" target="_top" xlink:title="Number of ArgoDSM nodes being run. ">
<polygon fill="#ffffff" stroke="#000000" points="87,-251.5 87,-270.5 218,-270.5 218,-251.5 87,-251.5"/>
<text text-anchor="middle" x="152.5" y="-258.5" font-family="Helvetica,sans-Serif" font-size="10.00" fill="#000000">argo::number_of_nodes</text>
</a>
</g>
</g>
<!-- Node0&#45;&gt;Node1 -->
<g id="edge1" class="edge">
<title>Node0&#45;&gt;Node1</title>
<path fill="none" stroke="#191970" d="M28.5441,-139.7789C35.5098,-160.6054 54.5573,-209.664 87,-237 91.8623,-241.0969 97.485,-244.5229 103.3518,-247.3807"/>
<polygon fill="#191970" stroke="#191970" points="102.1296,-250.6653 112.6977,-251.4187 104.9061,-244.2394 102.1296,-250.6653"/>
</g>
<!-- Node2 -->
<g id="node3" class="node">
<title>Node2</title>
<g id="a_node3"><a xlink:href="namespaceargo_a2deaaacde085d381cbb01f24318965b4.html#a2deaaacde085d381cbb01f24318965b4" target="_top" xlink:title="A unique ArgoDSM node identifier. Counting starts from 0. ">
<polygon fill="#ffffff" stroke="#000000" points="287,-120.5 287,-139.5 370,-139.5 370,-120.5 287,-120.5"/>
<text text-anchor="middle" x="328.5" y="-127.5" font-family="Helvetica,sans-Serif" font-size="10.00" fill="#000000">argo::node_id</text>
</a>
</g>
</g>
<!-- Node0&#45;&gt;Node2 -->
<g id="edge2" class="edge">
<title>Node0&#45;&gt;Node2</title>
<path fill="none" stroke="#191970" d="M29.9259,-139.5314C38.3074,-156.2863 58.2663,-190.5185 87,-204 139.709,-228.7303 162.2936,-220.93 218,-204 254.8899,-192.7886 290.6714,-164.716 311.0934,-146.5503"/>
<polygon fill="#191970" stroke="#191970" points="313.5976,-149.0034 318.6226,-139.676 308.8777,-143.8339 313.5976,-149.0034"/>
</g>
<!-- Node3 -->
<g id="node4" class="node">
<title>Node3</title>
<g id="a_node4"><a xlink:href="namespaceargo_a10bae1e1e60ff583384b937201a87c29.html#a10bae1e1e60ff583384b937201a87c29" target="_top" xlink:title="a barrier for threads ">
<polygon fill="#ffffff" stroke="#000000" points="114,-.5 114,-19.5 191,-19.5 191,-.5 114,-.5"/>
<text text-anchor="middle" x="152.5" y="-7.5" font-family="Helvetica,sans-Serif" font-size="10.00" fill="#000000">argo::barrier</text>
</a>
</g>
</g>
<!-- Node0&#45;&gt;Node3 -->
<g id="edge3" class="edge">
<title>Node0&#45;&gt;Node3</title>
<path fill="none" stroke="#191970" d="M28.6758,-120.2947C35.7755,-100.1376 54.8794,-53.5751 87,-29 92.1221,-25.0812 98.0297,-21.9698 104.1568,-19.4997"/>
<polygon fill="#191970" stroke="#191970" points="105.5856,-22.7086 113.8843,-16.1221 103.2895,-16.0959 105.5856,-22.7086"/>
</g>
<!-- Node4 -->
<g id="node5" class="node">
<title>Node4</title>
<g id="a_node5"><a xlink:href="classargo_1_1globallock_1_1global__tas__lock_a89bbe556d8a271dd64d65b421993da00.html#a89bbe556d8a271dd64d65b421993da00" target="_top" xlink:title="try to lock ">
<polygon fill="#ffffff" stroke="#000000" points="87,-164 87,-194 218,-194 218,-164 87,-164"/>
<text text-anchor="start" x="95" y="-182" font-family="Helvetica,sans-Serif" font-size="10.00" fill="#000000">argo::globallock::global</text>
<text text-anchor="middle" x="152.5" y="-171" font-family="Helvetica,sans-Serif" font-size="10.00" fill="#000000">_tas_lock::try_lock</text>
</a>
</g>
</g>
<!-- Node0&#45;&gt;Node4 -->
<g id="edge4" class="edge">
<title>Node0&#45;&gt;Node4</title>
<path fill="none" stroke="#191970" d="M48.4956,-139.5696C60.0177,-144.3079 74.2061,-150.0574 87,-155 91.6813,-156.8085 96.5632,-158.6603 101.4581,-160.4941"/>
<polygon fill="#191970" stroke="#191970" points="100.2453,-163.7772 110.8382,-163.9821 102.6851,-157.2161 100.2453,-163.7772"/>
</g>
<!-- Node5 -->
<g id="node6" class="node">
<title>Node5</title>
<g id="a_node6"><a xlink:href="classargo_1_1globallock_1_1global__tas__lock_a55bd610c8555b8d986541c3f669789a2.html#a55bd610c8555b8d986541c3f669789a2" target="_top" xlink:title="release the lock ">
<polygon fill="#ffffff" stroke="#000000" points="87,-115 87,-145 218,-145 218,-115 87,-115"/>
<text text-anchor="start" x="95" y="-133" font-family="Helvetica,sans-Serif" font-size="10.00" fill="#000000">argo::globallock::global</text>
<text text-anchor="middle" x="152.5" y="-122" font-family="Helvetica,sans-Serif" font-size="10.00" fill="#000000">_tas_lock::unlock</text>
</a>
</g>
</g>
<!-- Node0&#45;&gt;Node5 -->
<g id="edge6" class="edge">
<title>Node0&#45;&gt;Node5</title>
<path fill="none" stroke="#191970" d="M51.2003,-130C58.8651,-130 67.6851,-130 76.8562,-130"/>
<polygon fill="#191970" stroke="#191970" points="76.9075,-133.5001 86.9074,-130 76.9074,-126.5001 76.9075,-133.5001"/>
</g>
<!-- Node6 -->
<g id="node7" class="node">
<title>Node6</title>
<g id="a_node7"><a xlink:href="namespaceargo_a09ca0ec2df9dbed721fb14b26cfa39a3.html#a09ca0ec2df9dbed721fb14b26cfa39a3" target="_top" xlink:title="template function to delete objects that were allocated using collective_new ">
<polygon fill="#ffffff" stroke="#000000" points="106.5,-76.5 106.5,-95.5 198.5,-95.5 198.5,-76.5 106.5,-76.5"/>
<text text-anchor="middle" x="152.5" y="-83.5" font-family="Helvetica,sans-Serif" font-size="10.00" fill="#000000">argo::codelete_</text>
</a>
</g>
</g>
<!-- Node0&#45;&gt;Node6 -->
<g id="edge8" class="edge">
<title>Node0&#45;&gt;Node6</title>
<path fill="none" stroke="#191970" d="M48.7085,-120.464C60.1594,-115.882 74.224,-110.4363 87,-106 94.263,-103.478 102.036,-100.954 109.5979,-98.59"/>
<polygon fill="#191970" stroke="#191970" points="110.8278,-101.8736 119.3566,-95.5879 108.7695,-95.183 110.8278,-101.8736"/>
</g>
<!-- Node9 -->
<g id="node10" class="node">
<title>Node9</title>
<g id="a_node10"><a xlink:href="namespaceargo_aa7e8ddf5784dd37c965cfd43cd65a330.html#aa7e8ddf5784dd37c965cfd43cd65a330" target="_top" xlink:title="Delete a globally collectively allocated array of objects. ">
<polygon fill="#ffffff" stroke="#000000" points="94,-38.5 94,-57.5 211,-57.5 211,-38.5 94,-38.5"/>
<text text-anchor="middle" x="152.5" y="-45.5" font-family="Helvetica,sans-Serif" font-size="10.00" fill="#000000">argo::codelete_array</text>
</a>
</g>
</g>
<!-- Node0&#45;&gt;Node9 -->
<g id="edge12" class="edge">
<title>Node0&#45;&gt;Node9</title>
<path fill="none" stroke="#191970" d="M32.3027,-120.3787C42.5831,-106.5435 63.4004,-81.1427 87,-67 90.5991,-64.8431 94.4569,-62.9193 98.4328,-61.2054"/>
<polygon fill="#191970" stroke="#191970" points="99.7837,-64.4358 107.8581,-57.5762 97.2683,-57.9033 99.7837,-64.4358"/>
</g>
<!-- Node4&#45;&gt;Node2 -->
<g id="edge5" class="edge">
<title>Node4&#45;&gt;Node2</title>
<path fill="none" stroke="#191970" d="M206.7419,-163.8986C231.7525,-156.9354 261.0512,-148.7784 284.6399,-142.2111"/>
<polygon fill="#191970" stroke="#191970" points="285.6758,-145.5559 294.3706,-139.5019 283.7982,-138.8123 285.6758,-145.5559"/>
</g>
<!-- Node5&#45;&gt;Node2 -->
<g id="edge7" class="edge">
<title>Node5&#45;&gt;Node2</title>
<path fill="none" stroke="#191970" d="M218.0359,-130C237.4069,-130 258.3342,-130 276.71,-130"/>
<polygon fill="#191970" stroke="#191970" points="276.9159,-133.5001 286.9159,-130 276.9158,-126.5001 276.9159,-133.5001"/>
</g>
<!-- Node6&#45;&gt;Node2 -->
<g id="edge9" class="edge">
<title>Node6&#45;&gt;Node2</title>
<path fill="none" stroke="#191970" d="M190.6894,-95.5473C216.9816,-102.1204 252.1192,-110.9048 280.333,-117.9583"/>
<polygon fill="#191970" stroke="#191970" points="279.8348,-121.4414 290.3852,-120.4713 281.5326,-114.6504 279.8348,-121.4414"/>
</g>
<!-- Node7 -->
<g id="node8" class="node">
<title>Node7</title>
<g id="a_node8"><a xlink:href="src_2allocators_2allocators_8cpp_a215edf4fe9276398650302b518c52baf.html#a215edf4fe9276398650302b518c52baf" target="_top" xlink:title="basic free function for collective allocations, for C interface ">
<polygon fill="#ffffff" stroke="#000000" points="284,-76.5 284,-95.5 373,-95.5 373,-76.5 284,-76.5"/>
<text text-anchor="middle" x="328.5" y="-83.5" font-family="Helvetica,sans-Serif" font-size="10.00" fill="#000000">collective_free</text>
</a>
</g>
</g>
<!-- Node6&#45;&gt;Node7 -->
<g id="edge10" class="edge">
<title>Node6&#45;&gt;Node7</title>
<path fill="none" stroke="#191970" d="M198.7419,-86C221.7339,-86 249.6769,-86 273.735,-86"/>
<polygon fill="#191970" stroke="#191970" points="273.782,-89.5001 283.782,-86 273.7819,-82.5001 273.782,-89.5001"/>
</g>
<!-- Node8 -->
<g id="node9" class="node">
<title>Node8</title>
<g id="a_node9"><a xlink:href="classargo_1_1allocators_1_1generic__allocator_ab98a25e383864eecd7d602f95c49c420.html#ab98a25e383864eecd7d602f95c49c420" target="_top" xlink:title="free an allocated pointer ">
<polygon fill="#ffffff" stroke="#000000" points="439,-71 439,-101 573,-101 573,-71 439,-71"/>
<text text-anchor="start" x="447" y="-89" font-family="Helvetica,sans-Serif" font-size="10.00" fill="#000000">argo::allocators::generic</text>
<text text-anchor="middle" x="506" y="-78" font-family="Helvetica,sans-Serif" font-size="10.00" fill="#000000">_allocator::free</text>
</a>
</g>
</g>
<!-- Node7&#45;&gt;Node8 -->
<g id="edge11" class="edge">
<title>Node7&#45;&gt;Node8</title>
<path fill="none" stroke="#191970" d="M373.2907,-86C390.0924,-86 409.7061,-86 428.6195,-86"/>
<polygon fill="#191970" stroke="#191970" points="428.7288,-89.5001 438.7288,-86 428.7288,-82.5001 428.7288,-89.5001"/>
</g>
<!-- Node9&#45;&gt;Node2 -->
<g id="edge13" class="edge">
<title>Node9&#45;&gt;Node2</title>
<path fill="none" stroke="#191970" d="M197.5358,-57.6142C204.6575,-60.095 211.7316,-63.1794 218,-67 237.8654,-79.1079 234.3897,-92.4832 254,-105 261.5199,-109.7998 270.0589,-113.7787 278.6058,-117.0429"/>
<polygon fill="#191970" stroke="#191970" points="277.6102,-120.403 288.205,-120.4302 279.9396,-113.8019 277.6102,-120.403"/>
</g>
<!-- Node9&#45;&gt;Node7 -->
<g id="edge15" class="edge">
<title>Node9&#45;&gt;Node7</title>
<path fill="none" stroke="#191970" d="M196.9122,-57.589C220.4512,-62.6713 249.5567,-68.9554 274.4048,-74.3203"/>
<polygon fill="#191970" stroke="#191970" points="273.8937,-77.7906 284.4071,-76.4799 275.3711,-70.9482 273.8937,-77.7906"/>
</g>
<!-- Node10 -->
<g id="node11" class="node">
<title>Node10</title>
<g id="a_node11"><a xlink:href="classargo_1_1allocators_1_1generic__allocator_a6a7fe288a35b74a248c341d6f67c800c.html#a6a7fe288a35b74a248c341d6f67c800c" target="_top" xlink:title="How much space has been allocated for the given chunk. ">
<polygon fill="#ffffff" stroke="#000000" points="254,-27 254,-57 403,-57 403,-27 254,-27"/>
<text text-anchor="start" x="262" y="-45" font-family="Helvetica,sans-Serif" font-size="10.00" fill="#000000">argo::allocators::generic</text>
<text text-anchor="middle" x="328.5" y="-34" font-family="Helvetica,sans-Serif" font-size="10.00" fill="#000000">_allocator::allocated_space</text>
</a>
</g>
</g>
<!-- Node9&#45;&gt;Node10 -->
<g id="edge14" class="edge">
<title>Node9&#45;&gt;Node10</title>
<path fill="none" stroke="#191970" d="M211.1055,-46.0021C221.5942,-45.6445 232.7124,-45.2655 243.7619,-44.8888"/>
<polygon fill="#191970" stroke="#191970" points="243.9952,-48.383 253.8701,-44.5442 243.7566,-41.387 243.9952,-48.383"/>
</g>
</g>
</svg>
