<?xml version="1.0" encoding="UTF-8" standalone="no"?>
<!DOCTYPE svg PUBLIC "-//W3C//DTD SVG 1.1//EN"
 "http://www.w3.org/Graphics/SVG/1.1/DTD/svg11.dtd">
<!-- Generated by graphviz version 2.40.1 (20161225.0304)
 -->
<!-- Title: TEST_F Pages: 1 -->
<!--zoomable 236 -->
<svg id="main" version="1.1" xmlns="http://www.w3.org/2000/svg" xmlns:xlink="http://www.w3.org/1999/xlink" xml:space="preserve" onload="init(evt)">
<style type="text/css"><![CDATA[
.edge:hover path { stroke: red; }
.edge:hover polygon { stroke: red; fill: red; }
]]></style>
<script type="text/javascript"><![CDATA[
var edges = document.getElementsByTagName('g');
if (edges && edges.length) {
  for (var i=0;i<edges.length;i++) {
    if (edges[i].id.substr(0,4)=='edge') {
      edges[i].setAttribute('class','edge');
    }
  }
}
]]></script>
        <defs>
                <circle id="rim" cx="0" cy="0" r="7"/>
                <circle id="rim2" cx="0" cy="0" r="3.5"/>
                <g id="zoomPlus">
                        <use xlink:href="#rim" fill="#404040">
                                <set attributeName="fill" to="#808080" begin="zoomplus.mouseover" end="zoomplus.mouseout"/>
                        </use>
                        <path d="M-4,0h8M0,-4v8" fill="none" stroke="white" stroke-width="1.5" pointer-events="none"/>
                </g>
                <g id="zoomMin">
                        <use xlink:href="#rim" fill="#404040">
                                <set attributeName="fill" to="#808080" begin="zoomminus.mouseover" end="zoomminus.mouseout"/>
                        </use>
                        <path d="M-4,0h8" fill="none" stroke="white" stroke-width="1.5" pointer-events="none"/>
                </g>
                <g id="dirArrow">
                        <path fill="none" stroke="white" stroke-width="1.5" d="M0,-3.0v7 M-2.5,-0.5L0,-3.0L2.5,-0.5"/>
                </g>
               <g id="resetDef">
                       <use xlink:href="#rim2" fill="#404040">
                               <set attributeName="fill" to="#808080" begin="reset.mouseover" end="reset.mouseout"/>
                       </use>
               </g>
        </defs>

<script type="text/javascript">
var viewWidth = 563;
var viewHeight = 236;
var sectionId = 'dynsection-0';
</script>
<script xlink:href="svgpan.js"/>
<svg id="graph" class="graph">
<g id="viewport">
<title>TEST_F</title>
<polygon fill="#ffffff" stroke="transparent" points="-4,4 -4,-231.7054 559,-231.7054 559,4 -4,4"/>
<!-- Node0 -->
<g id="node1" class="node">
<title>Node0</title>
<polygon fill="#bfbfbf" stroke="#000000" points="0,-110 0,-129 51,-129 51,-110 0,-110"/>
<text text-anchor="middle" x="25.5" y="-117" font-family="Helvetica,sans-Serif" font-size="10.00" fill="#000000">TEST_F</text>
</g>
<!-- Node1 -->
<g id="node2" class="node">
<title>Node1</title>
<g id="a_node2"><a xlink:href="namespaceargo_a2deaaacde085d381cbb01f24318965b4.html#a2deaaacde085d381cbb01f24318965b4" target="_top" xlink:title="A unique ArgoDSM node identifier. Counting starts from 0. ">
<polygon fill="#ffffff" stroke="#000000" points="446.5,-112 446.5,-131 529.5,-131 529.5,-112 446.5,-112"/>
<text text-anchor="middle" x="488" y="-119" font-family="Helvetica,sans-Serif" font-size="10.00" fill="#000000">argo::node_id</text>
</a>
</g>
</g>
<!-- Node0&#45;&gt;Node1 -->
<g id="edge1" class="edge">
<title>Node0&#45;&gt;Node1</title>
<path fill="none" stroke="#191970" d="M29.0371,-129.2137C36.4391,-147.9007 55.5312,-188.4267 87,-204.5 218.5526,-271.6931 400.7232,-175.1345 464.6813,-136.3761"/>
<polygon fill="#191970" stroke="#191970" points="466.5618,-139.3286 473.2399,-131.1034 462.8901,-133.3688 466.5618,-139.3286"/>
</g>
<!-- Node2 -->
<g id="node3" class="node">
<title>Node2</title>
<g id="a_node3"><a xlink:href="namespaceargo_a10bae1e1e60ff583384b937201a87c29.html#a10bae1e1e60ff583384b937201a87c29" target="_top" xlink:title="a barrier for threads ">
<polygon fill="#ffffff" stroke="#000000" points="114,-176 114,-195 191,-195 191,-176 114,-176"/>
<text text-anchor="middle" x="152.5" y="-183" font-family="Helvetica,sans-Serif" font-size="10.00" fill="#000000">argo::barrier</text>
</a>
</g>
</g>
<!-- Node0&#45;&gt;Node2 -->
<g id="edge2" class="edge">
<title>Node0&#45;&gt;Node2</title>
<path fill="none" stroke="#191970" d="M35.575,-129.1156C47.1389,-139.6703 67.0858,-156.4484 87,-166.5 92.3495,-169.2001 98.1438,-171.5752 103.9979,-173.6483"/>
<polygon fill="#191970" stroke="#191970" points="103.2461,-177.0844 113.8385,-176.856 105.4156,-170.4291 103.2461,-177.0844"/>
</g>
<!-- Node3 -->
<g id="node4" class="node">
<title>Node3</title>
<g id="a_node4"><a xlink:href="classargo_1_1globallock_1_1global__tas__lock_ae1a2cc75c9371ed191ac68f4e72f227e.html#ae1a2cc75c9371ed191ac68f4e72f227e" target="_top" xlink:title="take the lock ">
<polygon fill="#ffffff" stroke="#000000" points="87,-126.5 87,-156.5 218,-156.5 218,-126.5 87,-126.5"/>
<text text-anchor="start" x="95" y="-144.5" font-family="Helvetica,sans-Serif" font-size="10.00" fill="#000000">argo::globallock::global</text>
<text text-anchor="middle" x="152.5" y="-133.5" font-family="Helvetica,sans-Serif" font-size="10.00" fill="#000000">_tas_lock::lock</text>
</a>
</g>
</g>
<!-- Node0&#45;&gt;Node3 -->
<g id="edge3" class="edge">
<title>Node0&#45;&gt;Node3</title>
<path fill="none" stroke="#191970" d="M51.2003,-123.952C58.8651,-125.2798 67.6851,-126.8077 76.8562,-128.3963"/>
<polygon fill="#191970" stroke="#191970" points="76.4568,-131.8792 86.9074,-130.1375 77.6516,-124.9819 76.4568,-131.8792"/>
</g>
<!-- Node5 -->
<g id="node6" class="node">
<title>Node5</title>
<g id="a_node6"><a xlink:href="classargo_1_1globallock_1_1global__tas__lock_a55bd610c8555b8d986541c3f669789a2.html#a55bd610c8555b8d986541c3f669789a2" target="_top" xlink:title="release the lock ">
<polygon fill="#ffffff" stroke="#000000" points="254,-82.5 254,-112.5 385,-112.5 385,-82.5 254,-82.5"/>
<text text-anchor="start" x="262" y="-100.5" font-family="Helvetica,sans-Serif" font-size="10.00" fill="#000000">argo::globallock::global</text>
<text text-anchor="middle" x="319.5" y="-89.5" font-family="Helvetica,sans-Serif" font-size="10.00" fill="#000000">_tas_lock::unlock</text>
</a>
</g>
</g>
<!-- Node0&#45;&gt;Node5 -->
<g id="edge6" class="edge">
<title>Node0&#45;&gt;Node5</title>
<path fill="none" stroke="#191970" d="M51.0763,-117.5861C93.4902,-114.4123 179.9842,-107.94 243.3692,-103.1969"/>
<polygon fill="#191970" stroke="#191970" points="244.0178,-106.6582 253.7287,-102.4217 243.4954,-99.6777 244.0178,-106.6582"/>
</g>
<!-- Node6 -->
<g id="node7" class="node">
<title>Node6</title>
<g id="a_node7"><a xlink:href="namespaceargo_a79c9492f3fd441bfa6261dffbc0f02f4.html#a79c9492f3fd441bfa6261dffbc0f02f4" target="_top" xlink:title="Number of ArgoDSM nodes being run. ">
<polygon fill="#ffffff" stroke="#000000" points="87,-50 87,-69 218,-69 218,-50 87,-50"/>
<text text-anchor="middle" x="152.5" y="-57" font-family="Helvetica,sans-Serif" font-size="10.00" fill="#000000">argo::number_of_nodes</text>
</a>
</g>
</g>
<!-- Node0&#45;&gt;Node6 -->
<g id="edge8" class="edge">
<title>Node0&#45;&gt;Node6</title>
<path fill="none" stroke="#191970" d="M40.258,-109.8522C52.4698,-102.1184 70.4369,-91.3058 87,-83.5 95.3576,-79.5613 104.5509,-75.8387 113.3395,-72.5532"/>
<polygon fill="#191970" stroke="#191970" points="114.8163,-75.7408 123.0241,-69.0413 112.4299,-69.1601 114.8163,-75.7408"/>
</g>
<!-- Node7 -->
<g id="node8" class="node">
<title>Node7</title>
<g id="a_node8"><a xlink:href="namespaceargo_a09ca0ec2df9dbed721fb14b26cfa39a3.html#a09ca0ec2df9dbed721fb14b26cfa39a3" target="_top" xlink:title="template function to delete objects that were allocated using collective_new ">
<polygon fill="#ffffff" stroke="#000000" points="106.5,-12 106.5,-31 198.5,-31 198.5,-12 106.5,-12"/>
<text text-anchor="middle" x="152.5" y="-19" font-family="Helvetica,sans-Serif" font-size="10.00" fill="#000000">argo::codelete_</text>
</a>
</g>
</g>
<!-- Node0&#45;&gt;Node7 -->
<g id="edge9" class="edge">
<title>Node0&#45;&gt;Node7</title>
<path fill="none" stroke="#191970" d="M30.3453,-109.887C39.2466,-93.2095 59.8099,-58.9354 87,-40.5 90.1238,-38.382 93.4851,-36.4969 96.9764,-34.8195"/>
<polygon fill="#191970" stroke="#191970" points="98.5797,-37.9425 106.4478,-30.8472 95.8723,-31.4873 98.5797,-37.9425"/>
</g>
<!-- Node4 -->
<g id="node5" class="node">
<title>Node4</title>
<g id="a_node5"><a xlink:href="classargo_1_1globallock_1_1global__tas__lock_a89bbe556d8a271dd64d65b421993da00.html#a89bbe556d8a271dd64d65b421993da00" target="_top" xlink:title="try to lock ">
<polygon fill="#ffffff" stroke="#000000" points="254,-131.5 254,-161.5 385,-161.5 385,-131.5 254,-131.5"/>
<text text-anchor="start" x="262" y="-149.5" font-family="Helvetica,sans-Serif" font-size="10.00" fill="#000000">argo::globallock::global</text>
<text text-anchor="middle" x="319.5" y="-138.5" font-family="Helvetica,sans-Serif" font-size="10.00" fill="#000000">_tas_lock::try_lock</text>
</a>
</g>
</g>
<!-- Node3&#45;&gt;Node4 -->
<g id="edge4" class="edge">
<title>Node3&#45;&gt;Node4</title>
<path fill="none" stroke="#191970" d="M218.0235,-143.4618C226.496,-143.7155 235.2278,-143.9769 243.8471,-144.2349"/>
<polygon fill="#191970" stroke="#191970" points="243.791,-147.7347 253.8913,-144.5357 244.0006,-140.7379 243.791,-147.7347"/>
</g>
<!-- Node4&#45;&gt;Node1 -->
<g id="edge5" class="edge">
<title>Node4&#45;&gt;Node1</title>
<path fill="none" stroke="#191970" d="M385.129,-136.7628C401.957,-134.266 419.8284,-131.6145 435.872,-129.2341"/>
<polygon fill="#191970" stroke="#191970" points="436.7436,-132.6432 446.1217,-127.7134 435.7162,-125.719 436.7436,-132.6432"/>
</g>
<!-- Node5&#45;&gt;Node1 -->
<g id="edge7" class="edge">
<title>Node5&#45;&gt;Node1</title>
<path fill="none" stroke="#191970" d="M385.129,-106.8477C401.957,-109.2446 419.8284,-111.7901 435.872,-114.0752"/>
<polygon fill="#191970" stroke="#191970" points="435.728,-117.59 446.1217,-115.5351 436.7151,-110.6599 435.728,-117.59"/>
</g>
<!-- Node7&#45;&gt;Node1 -->
<g id="edge10" class="edge">
<title>Node7&#45;&gt;Node1</title>
<path fill="none" stroke="#191970" d="M198.7457,-28.8036C246.2527,-37.0077 321.959,-52.0431 385,-73.5 411.9251,-82.6643 441.19,-96.7297 461.6203,-107.2696"/>
<polygon fill="#191970" stroke="#191970" points="460.1349,-110.4426 470.6178,-111.9785 463.3808,-104.2406 460.1349,-110.4426"/>
</g>
<!-- Node8 -->
<g id="node9" class="node">
<title>Node8</title>
<g id="a_node9"><a xlink:href="src_2allocators_2allocators_8cpp_a215edf4fe9276398650302b518c52baf.html#a215edf4fe9276398650302b518c52baf" target="_top" xlink:title="basic free function for collective allocations, for C interface ">
<polygon fill="#ffffff" stroke="#000000" points="275,-6 275,-25 364,-25 364,-6 275,-6"/>
<text text-anchor="middle" x="319.5" y="-13" font-family="Helvetica,sans-Serif" font-size="10.00" fill="#000000">collective_free</text>
</a>
</g>
</g>
<!-- Node7&#45;&gt;Node8 -->
<g id="edge11" class="edge">
<title>Node7&#45;&gt;Node8</title>
<path fill="none" stroke="#191970" d="M198.5756,-19.8446C218.9858,-19.1113 243.1574,-18.2428 264.5045,-17.4759"/>
<polygon fill="#191970" stroke="#191970" points="264.8603,-20.9655 274.7282,-17.1086 264.6089,-13.97 264.8603,-20.9655"/>
</g>
<!-- Node9 -->
<g id="node10" class="node">
<title>Node9</title>
<g id="a_node10"><a xlink:href="classargo_1_1allocators_1_1generic__allocator_ab98a25e383864eecd7d602f95c49c420.html#ab98a25e383864eecd7d602f95c49c420" target="_top" xlink:title="free an allocated pointer ">
<polygon fill="#ffffff" stroke="#000000" points="421,-.5 421,-30.5 555,-30.5 555,-.5 421,-.5"/>
<text text-anchor="start" x="429" y="-18.5" font-family="Helvetica,sans-Serif" font-size="10.00" fill="#000000">argo::allocators::generic</text>
<text text-anchor="middle" x="488" y="-7.5" font-family="Helvetica,sans-Serif" font-size="10.00" fill="#000000">_allocator::free</text>
</a>
</g>
</g>
<!-- Node8&#45;&gt;Node9 -->
<g id="edge12" class="edge">
<title>Node8&#45;&gt;Node9</title>
<path fill="none" stroke="#191970" d="M364.2125,-15.5C378.4488,-15.5 394.6328,-15.5 410.4959,-15.5"/>
<polygon fill="#191970" stroke="#191970" points="410.8502,-19.0001 420.8502,-15.5 410.8501,-12.0001 410.8502,-19.0001"/>
</g>
</g>
</svg>
        <g id="navigator" transform="translate(0 0)" fill="#404254">
                <rect fill="#f2f5e9" fill-opacity="0.5" stroke="#606060" stroke-width=".5" x="0" y="0" width="60" height="60"/>
                <use id="zoomplus" xlink:href="#zoomPlus" x="17" y="9" onmousedown="handleZoom(evt,'in')"/>
                <use id="zoomminus" xlink:href="#zoomMin" x="42" y="9" onmousedown="handleZoom(evt,'out')"/>
                <use id="reset" xlink:href="#resetDef" x="30" y="36" onmousedown="handleReset()"/>
                <g id="arrowUp" xlink:href="#dirArrow" transform="translate(30 24)" onmousedown="handlePan(0,-1)">
                  <use xlink:href="#rim" fill="#404040">
                        <set attributeName="fill" to="#808080" begin="arrowUp.mouseover" end="arrowUp.mouseout"/>
                  </use>
                  <path fill="none" stroke="white" stroke-width="1.5" d="M0,-3.0v7 M-2.5,-0.5L0,-3.0L2.5,-0.5"/>
                </g>
                <g id="arrowRight" xlink:href="#dirArrow" transform="rotate(90) translate(36 -43)" onmousedown="handlePan(1,0)">
                  <use xlink:href="#rim" fill="#404040">
                        <set attributeName="fill" to="#808080" begin="arrowRight.mouseover" end="arrowRight.mouseout"/>
                  </use>
                  <path fill="none" stroke="white" stroke-width="1.5" d="M0,-3.0v7 M-2.5,-0.5L0,-3.0L2.5,-0.5"/>
                </g>
                <g id="arrowDown" xlink:href="#dirArrow" transform="rotate(180) translate(-30 -48)" onmousedown="handlePan(0,1)">
                  <use xlink:href="#rim" fill="#404040">
                        <set attributeName="fill" to="#808080" begin="arrowDown.mouseover" end="arrowDown.mouseout"/>
                  </use>
                  <path fill="none" stroke="white" stroke-width="1.5" d="M0,-3.0v7 M-2.5,-0.5L0,-3.0L2.5,-0.5"/>
                </g>
                <g id="arrowLeft" xlink:href="#dirArrow" transform="rotate(270) translate(-36 17)" onmousedown="handlePan(-1,0)">
                  <use xlink:href="#rim" fill="#404040">
                        <set attributeName="fill" to="#808080" begin="arrowLeft.mouseover" end="arrowLeft.mouseout"/>
                  </use>
                  <path fill="none" stroke="white" stroke-width="1.5" d="M0,-3.0v7 M-2.5,-0.5L0,-3.0L2.5,-0.5"/>
                </g>
        </g>
        <svg viewBox="0 0 15 15" width="100%" height="30px" preserveAspectRatio="xMaxYMin meet">
         <g id="arrow_out" transform="scale(0.3 0.3)">
          <a xlink:href="lock_8cpp_a9442277381b3576227a7eec86626d5de_a9442277381b3576227a7eec86626d5de_cgraph_org.svg" target="_base">
           <rect id="button" ry="5" rx="5" y="6" x="6" height="38" width="38"
                fill="#f2f5e9" fill-opacity="0.5" stroke="#606060" stroke-width="1.0"/>
           <path id="arrow"
             d="M 11.500037,31.436501 C 11.940474,20.09759 22.043105,11.32322 32.158766,21.979434 L 37.068811,17.246167 C 37.068811,17.246167 37.088388,32 37.088388,32 L 22.160133,31.978069 C 22.160133,31.978069 26.997745,27.140456 26.997745,27.140456 C 18.528582,18.264221 13.291696,25.230495 11.500037,31.436501 z"
             style="fill:#404040;"/>
          </a>
         </g>
        </svg>
</svg>
