<?xml version="1.0" encoding="UTF-8" standalone="no"?>
<!DOCTYPE svg PUBLIC "-//W3C//DTD SVG 1.1//EN"
 "http://www.w3.org/Graphics/SVG/1.1/DTD/svg11.dtd">
<!-- Generated by graphviz version 2.40.1 (20161225.0304)
 -->
<!-- Title: fitting_mpi_float Pages: 1 -->
<svg width="265pt" height="57pt"
 viewBox="0.00 0.00 265.00 57.00" xmlns="http://www.w3.org/2000/svg" xmlns:xlink="http://www.w3.org/1999/xlink">
<g id="graph0" class="graph" transform="scale(1 1) rotate(0) translate(4 53)">
<title>fitting_mpi_float</title>
<polygon fill="#ffffff" stroke="transparent" points="-4,4 -4,-53 261,-53 261,4 -4,4"/>
<!-- Node1 -->
<g id="node1" class="node">
<title>Node1</title>
<polygon fill="#bfbfbf" stroke="#000000" points="0,-6 0,-25 96,-25 96,-6 0,-6"/>
<text text-anchor="middle" x="48" y="-13" font-family="Helvetica,sans-Serif" font-size="10.00" fill="#000000">fitting_mpi_float</text>
</g>
<!-- Node2 -->
<g id="node2" class="node">
<title>Node2</title>
<g id="a_node2"><a xlink:href="backend_8hpp_a62d5f2da9f560d2d8a956be88861af7b.html#a62d5f2da9f560d2d8a956be88861af7b" target="_top" xlink:title="Backend internal type erased atomic (post)increment function for floating point numbers. ">
<polygon fill="#ffffff" stroke="#000000" points="132,-.5 132,-30.5 257,-30.5 257,-.5 132,-.5"/>
<text text-anchor="start" x="140" y="-18.5" font-family="Helvetica,sans-Serif" font-size="10.00" fill="#000000">argo::backend::atomic</text>
<text text-anchor="middle" x="194.5" y="-7.5" font-family="Helvetica,sans-Serif" font-size="10.00" fill="#000000">::_fetch_add_float</text>
</a>
</g>
</g>
<!-- Node1&#45;&gt;Node2 -->
<g id="edge1" class="edge">
<title>Node1&#45;&gt;Node2</title>
<path fill="none" stroke="#191970" d="M106.4001,-15.5C114.7531,-15.5 123.375,-15.5 131.8064,-15.5"/>
<polygon fill="#191970" stroke="#191970" points="106.3756,-12.0001 96.3756,-15.5 106.3756,-19.0001 106.3756,-12.0001"/>
</g>
<!-- Node2&#45;&gt;Node2 -->
<g id="edge2" class="edge">
<title>Node2&#45;&gt;Node2</title>
<path fill="none" stroke="#191970" d="M168.5576,-40.9579C171.7774,-45.679 180.4249,-49 194.5,-49 217.5977,-49 226.0788,-40.0566 219.9435,-30.659"/>
<polygon fill="#191970" stroke="#191970" points="172.0684,-40.8167 169.0565,-30.659 165.0766,-40.4779 172.0684,-40.8167"/>
</g>
</g>
</svg>
