<?xml version="1.0" encoding="UTF-8" standalone="no"?>
<!DOCTYPE svg PUBLIC "-//W3C//DTD SVG 1.1//EN"
 "http://www.w3.org/Graphics/SVG/1.1/DTD/svg11.dtd">
<!-- Generated by graphviz version 2.40.1 (20161225.0304)
 -->
<!-- Title: argo::delete_array Pages: 1 -->
<svg width="469pt" height="83pt"
 viewBox="0.00 0.00 469.00 83.00" xmlns="http://www.w3.org/2000/svg" xmlns:xlink="http://www.w3.org/1999/xlink">
<g id="graph0" class="graph" transform="scale(1 1) rotate(0) translate(4 79)">
<title>argo::delete_array</title>
<polygon fill="#ffffff" stroke="transparent" points="-4,4 -4,-79 465,-79 465,4 -4,4"/>
<!-- Node0 -->
<g id="node1" class="node">
<title>Node0</title>
<polygon fill="#bfbfbf" stroke="#000000" points="0,-28 0,-47 106,-47 106,-28 0,-28"/>
<text text-anchor="middle" x="53" y="-35" font-family="Helvetica,sans-Serif" font-size="10.00" fill="#000000">argo::delete_array</text>
</g>
<!-- Node1 -->
<g id="node2" class="node">
<title>Node1</title>
<g id="a_node2"><a xlink:href="classargo_1_1allocators_1_1generic__allocator_a6a7fe288a35b74a248c341d6f67c800c.html#a6a7fe288a35b74a248c341d6f67c800c" target="_top" xlink:title="How much space has been allocated for the given chunk. ">
<polygon fill="#ffffff" stroke="#000000" points="142,-44.5 142,-74.5 291,-74.5 291,-44.5 142,-44.5"/>
<text text-anchor="start" x="150" y="-62.5" font-family="Helvetica,sans-Serif" font-size="10.00" fill="#000000">argo::allocators::generic</text>
<text text-anchor="middle" x="216.5" y="-51.5" font-family="Helvetica,sans-Serif" font-size="10.00" fill="#000000">_allocator::allocated_space</text>
</a>
</g>
</g>
<!-- Node0&#45;&gt;Node1 -->
<g id="edge1" class="edge">
<title>Node0&#45;&gt;Node1</title>
<path fill="none" stroke="#191970" d="M106.0838,-44.6428C114.2601,-45.7429 122.8745,-46.9021 131.537,-48.0677"/>
<polygon fill="#191970" stroke="#191970" points="131.3275,-51.5709 141.7049,-49.4358 132.261,-44.6335 131.3275,-51.5709"/>
</g>
<!-- Node2 -->
<g id="node3" class="node">
<title>Node2</title>
<g id="a_node3"><a xlink:href="src_2allocators_2allocators_8cpp_aedf7f793412ce612ef67c33098b25a8e.html#aedf7f793412ce612ef67c33098b25a8e" target="_top" xlink:title="basic free function for dynamic allocations, for C interface ">
<polygon fill="#ffffff" stroke="#000000" points="175,-6 175,-25 258,-25 258,-6 175,-6"/>
<text text-anchor="middle" x="216.5" y="-13" font-family="Helvetica,sans-Serif" font-size="10.00" fill="#000000">dynamic_free</text>
</a>
</g>
</g>
<!-- Node0&#45;&gt;Node2 -->
<g id="edge2" class="edge">
<title>Node0&#45;&gt;Node2</title>
<path fill="none" stroke="#191970" d="M106.0838,-30.3572C124.887,-27.8271 146.0069,-24.9853 164.7018,-22.4698"/>
<polygon fill="#191970" stroke="#191970" points="165.3643,-25.9123 174.8082,-21.1099 164.4308,-18.9748 165.3643,-25.9123"/>
</g>
<!-- Node3 -->
<g id="node4" class="node">
<title>Node3</title>
<g id="a_node4"><a xlink:href="classargo_1_1allocators_1_1generic__allocator_ab98a25e383864eecd7d602f95c49c420.html#ab98a25e383864eecd7d602f95c49c420" target="_top" xlink:title="free an allocated pointer ">
<polygon fill="#ffffff" stroke="#000000" points="327,-.5 327,-30.5 461,-30.5 461,-.5 327,-.5"/>
<text text-anchor="start" x="335" y="-18.5" font-family="Helvetica,sans-Serif" font-size="10.00" fill="#000000">argo::allocators::generic</text>
<text text-anchor="middle" x="394" y="-7.5" font-family="Helvetica,sans-Serif" font-size="10.00" fill="#000000">_allocator::free</text>
</a>
</g>
</g>
<!-- Node2&#45;&gt;Node3 -->
<g id="edge3" class="edge">
<title>Node2&#45;&gt;Node3</title>
<path fill="none" stroke="#191970" d="M258.1159,-15.5C275.6475,-15.5 296.636,-15.5 316.8134,-15.5"/>
<polygon fill="#191970" stroke="#191970" points="316.9502,-19.0001 326.9502,-15.5 316.9502,-12.0001 316.9502,-19.0001"/>
</g>
</g>
</svg>
