<?xml version="1.0" encoding="UTF-8" standalone="no"?>
<!DOCTYPE svg PUBLIC "-//W3C//DTD SVG 1.1//EN"
 "http://www.w3.org/Graphics/SVG/1.1/DTD/svg11.dtd">
<!-- Generated by graphviz version 2.40.1 (20161225.0304)
 -->
<!-- Title: argo::init Pages: 1 -->
<!--zoomable 271 -->
<svg id="main" version="1.1" xmlns="http://www.w3.org/2000/svg" xmlns:xlink="http://www.w3.org/1999/xlink" xml:space="preserve" onload="init(evt)">
<style type="text/css"><![CDATA[
.edge:hover path { stroke: red; }
.edge:hover polygon { stroke: red; fill: red; }
]]></style>
<script type="text/javascript"><![CDATA[
var edges = document.getElementsByTagName('g');
if (edges && edges.length) {
  for (var i=0;i<edges.length;i++) {
    if (edges[i].id.substr(0,4)=='edge') {
      edges[i].setAttribute('class','edge');
    }
  }
}
]]></script>
        <defs>
                <circle id="rim" cx="0" cy="0" r="7"/>
                <circle id="rim2" cx="0" cy="0" r="3.5"/>
                <g id="zoomPlus">
                        <use xlink:href="#rim" fill="#404040">
                                <set attributeName="fill" to="#808080" begin="zoomplus.mouseover" end="zoomplus.mouseout"/>
                        </use>
                        <path d="M-4,0h8M0,-4v8" fill="none" stroke="white" stroke-width="1.5" pointer-events="none"/>
                </g>
                <g id="zoomMin">
                        <use xlink:href="#rim" fill="#404040">
                                <set attributeName="fill" to="#808080" begin="zoomminus.mouseover" end="zoomminus.mouseout"/>
                        </use>
                        <path d="M-4,0h8" fill="none" stroke="white" stroke-width="1.5" pointer-events="none"/>
                </g>
                <g id="dirArrow">
                        <path fill="none" stroke="white" stroke-width="1.5" d="M0,-3.0v7 M-2.5,-0.5L0,-3.0L2.5,-0.5"/>
                </g>
               <g id="resetDef">
                       <use xlink:href="#rim2" fill="#404040">
                               <set attributeName="fill" to="#808080" begin="reset.mouseover" end="reset.mouseout"/>
                       </use>
               </g>
        </defs>

<script type="text/javascript">
var viewWidth = 530;
var viewHeight = 271;
var sectionId = 'dynsection-0';
</script>
<script xlink:href="svgpan.js"/>
<svg id="graph" class="graph">
<g id="viewport">
<title>argo::init</title>
<polygon fill="#ffffff" stroke="transparent" points="-4,4 -4,-266.5 526,-266.5 526,4 -4,4"/>
<!-- Node0 -->
<g id="node1" class="node">
<title>Node0</title>
<polygon fill="#bfbfbf" stroke="#000000" points="0,-145 0,-164 60,-164 60,-145 0,-145"/>
<text text-anchor="middle" x="30" y="-152" font-family="Helvetica,sans-Serif" font-size="10.00" fill="#000000">argo::init</text>
</g>
<!-- Node1 -->
<g id="node2" class="node">
<title>Node1</title>
<g id="a_node2"><a xlink:href="namespaceargo_1_1env_a3b366d9bdcdee4e6d3ff4f95ecd5d56f.html#a3b366d9bdcdee4e6d3ff4f95ecd5d56f" target="_top" xlink:title="read and store environment variables used by ArgoDSM ">
<polygon fill="#ffffff" stroke="#000000" points="121.5,-243 121.5,-262 204.5,-262 204.5,-243 121.5,-243"/>
<text text-anchor="middle" x="163" y="-250" font-family="Helvetica,sans-Serif" font-size="10.00" fill="#000000">argo::env::init</text>
</a>
</g>
</g>
<!-- Node0&#45;&gt;Node1 -->
<g id="edge1" class="edge">
<title>Node0&#45;&gt;Node1</title>
<path fill="none" stroke="#191970" d="M35.3733,-164.1232C45.1942,-180.8166 67.6645,-215.1143 96,-233.5 100.8732,-236.662 106.2772,-239.3064 111.8412,-241.516"/>
<polygon fill="#191970" stroke="#191970" points="110.6956,-244.8232 121.2904,-244.839 113.0179,-238.2196 110.6956,-244.8232"/>
</g>
<!-- Node2 -->
<g id="node3" class="node">
<title>Node2</title>
<g id="a_node3"><a xlink:href="namespaceargo_1_1env_af1be596a06fd9e786462c96442172689.html#af1be596a06fd9e786462c96442172689" target="_top" xlink:title="get the memory size requested by environment variable ">
<polygon fill="#ffffff" stroke="#000000" points="96,-205 96,-224 230,-224 230,-205 96,-205"/>
<text text-anchor="middle" x="163" y="-212" font-family="Helvetica,sans-Serif" font-size="10.00" fill="#000000">argo::env::memory_size</text>
</a>
</g>
</g>
<!-- Node0&#45;&gt;Node2 -->
<g id="edge2" class="edge">
<title>Node0&#45;&gt;Node2</title>
<path fill="none" stroke="#191970" d="M43.0404,-164.1376C55.9338,-173.2867 76.5056,-186.8854 96,-195.5 101.3135,-197.848 106.9925,-199.984 112.7128,-201.9047"/>
<polygon fill="#191970" stroke="#191970" points="111.7315,-205.2651 122.3211,-204.9335 113.836,-198.5889 111.7315,-205.2651"/>
</g>
<!-- Node3 -->
<g id="node4" class="node">
<title>Node3</title>
<g id="a_node4"><a xlink:href="namespaceargo_1_1env_aa118cb239143d769e04b17d2a98d48a2.html#aa118cb239143d769e04b17d2a98d48a2" target="_top" xlink:title="get the cache size requested by environment variable ">
<polygon fill="#ffffff" stroke="#000000" points="102.5,-167 102.5,-186 223.5,-186 223.5,-167 102.5,-167"/>
<text text-anchor="middle" x="163" y="-174" font-family="Helvetica,sans-Serif" font-size="10.00" fill="#000000">argo::env::cache_size</text>
</a>
</g>
</g>
<!-- Node0&#45;&gt;Node3 -->
<g id="edge3" class="edge">
<title>Node0&#45;&gt;Node3</title>
<path fill="none" stroke="#191970" d="M60.1798,-159.4921C70.7629,-161.2427 83.1164,-163.2862 95.5156,-165.3372"/>
<polygon fill="#191970" stroke="#191970" points="94.9991,-168.7992 105.4363,-166.9782 96.1416,-161.8931 94.9991,-168.7992"/>
</g>
<!-- Node4 -->
<g id="node5" class="node">
<title>Node4</title>
<g id="a_node5"><a xlink:href="namespaceargo_1_1env_a25a08cb2d0d11432d640ec7173063339.html#a25a08cb2d0d11432d640ec7173063339" target="_top" xlink:title="get the allocation policy requested by environment variable ">
<polygon fill="#ffffff" stroke="#000000" points="105,-117.5 105,-147.5 221,-147.5 221,-117.5 105,-117.5"/>
<text text-anchor="start" x="113" y="-135.5" font-family="Helvetica,sans-Serif" font-size="10.00" fill="#000000">argo::env::allocation</text>
<text text-anchor="middle" x="163" y="-124.5" font-family="Helvetica,sans-Serif" font-size="10.00" fill="#000000">_policy</text>
</a>
</g>
</g>
<!-- Node0&#45;&gt;Node4 -->
<g id="edge4" class="edge">
<title>Node0&#45;&gt;Node4</title>
<path fill="none" stroke="#191970" d="M60.1798,-149.5079C70.5384,-147.7944 82.593,-145.8004 94.7265,-143.7934"/>
<polygon fill="#191970" stroke="#191970" points="95.6068,-147.1954 104.9016,-142.1103 94.4644,-140.2892 95.6068,-147.1954"/>
</g>
<!-- Node5 -->
<g id="node6" class="node">
<title>Node5</title>
<g id="a_node6"><a xlink:href="namespaceargo_1_1env_a30775a9aa41b956df7474a2c0cc317aa.html#a30775a9aa41b956df7474a2c0cc317aa" target="_top" xlink:title="get the allocation block size requested by environment variable ">
<polygon fill="#ffffff" stroke="#000000" points="105,-68.5 105,-98.5 221,-98.5 221,-68.5 105,-68.5"/>
<text text-anchor="start" x="113" y="-86.5" font-family="Helvetica,sans-Serif" font-size="10.00" fill="#000000">argo::env::allocation</text>
<text text-anchor="middle" x="163" y="-75.5" font-family="Helvetica,sans-Serif" font-size="10.00" fill="#000000">_block_size</text>
</a>
</g>
</g>
<!-- Node0&#45;&gt;Node5 -->
<g id="edge5" class="edge">
<title>Node0&#45;&gt;Node5</title>
<path fill="none" stroke="#191970" d="M42.0555,-144.6983C54.8542,-134.6366 75.9612,-119.0067 96,-108.5 100.0048,-106.4002 104.2262,-104.3919 108.5216,-102.4915"/>
<polygon fill="#191970" stroke="#191970" points="110.1268,-105.6134 117.9876,-98.5099 107.4128,-99.1609 110.1268,-105.6134"/>
</g>
<!-- Node6 -->
<g id="node7" class="node">
<title>Node6</title>
<g id="a_node7"><a xlink:href="argo_8cpp_a5a8515fc3191ad0f3398d8ac1441b57a.html#a5a8515fc3191ad0f3398d8ac1441b57a" target="_top" xlink:title="reset ArgoDSM system ">
<polygon fill="#ffffff" stroke="#000000" points="129,-30 129,-49 197,-49 197,-30 129,-30"/>
<text text-anchor="middle" x="163" y="-37" font-family="Helvetica,sans-Serif" font-size="10.00" fill="#000000">argo_reset</text>
</a>
</g>
</g>
<!-- Node0&#45;&gt;Node6 -->
<g id="edge6" class="edge">
<title>Node0&#45;&gt;Node6</title>
<path fill="none" stroke="#191970" d="M34.0539,-144.8017C42.5912,-125.568 64.2841,-82.4718 96,-59.5 102.9249,-54.4843 111.1113,-50.7146 119.3408,-47.885"/>
<polygon fill="#191970" stroke="#191970" points="120.3913,-51.2239 128.9484,-44.9767 118.3632,-44.5241 120.3913,-51.2239"/>
</g>
<!-- Node7 -->
<g id="node8" class="node">
<title>Node7</title>
<g id="a_node8"><a xlink:href="classargo_1_1mempools_1_1global__memory__pool_a382544f1b6de66b437e8034097313cc8.html#a382544f1b6de66b437e8034097313cc8" target="_top" xlink:title="Resets the memory pool to the initial state instead of de&#45;allocating and (re)allocating all buffers a...">
<polygon fill="#ffffff" stroke="#000000" points="268.5,-49.5 268.5,-79.5 400.5,-79.5 400.5,-49.5 268.5,-49.5"/>
<text text-anchor="start" x="276.5" y="-67.5" font-family="Helvetica,sans-Serif" font-size="10.00" fill="#000000">argo::mempools::global</text>
<text text-anchor="middle" x="334.5" y="-56.5" font-family="Helvetica,sans-Serif" font-size="10.00" fill="#000000">_memory_pool::reset</text>
</a>
</g>
</g>
<!-- Node6&#45;&gt;Node7 -->
<g id="edge7" class="edge">
<title>Node6&#45;&gt;Node7</title>
<path fill="none" stroke="#191970" d="M197.2934,-44.499C214.8457,-47.0577 236.9624,-50.2817 258.2831,-53.3897"/>
<polygon fill="#191970" stroke="#191970" points="257.9313,-56.8753 268.3316,-54.8545 258.9411,-49.9485 257.9313,-56.8753"/>
</g>
<!-- Node9 -->
<g id="node10" class="node">
<title>Node9</title>
<g id="a_node10"><a xlink:href="classargo_1_1allocators_1_1generic__allocator_af7bba2f941e23af3efd7b06a7feeb296.html#af7bba2f941e23af3efd7b06a7feeb296" target="_top" xlink:title="set memory pool ">
<polygon fill="#ffffff" stroke="#000000" points="266,-.5 266,-30.5 403,-30.5 403,-.5 266,-.5"/>
<text text-anchor="start" x="274" y="-18.5" font-family="Helvetica,sans-Serif" font-size="10.00" fill="#000000">argo::allocators::generic</text>
<text text-anchor="middle" x="334.5" y="-7.5" font-family="Helvetica,sans-Serif" font-size="10.00" fill="#000000">_allocator::set_mempool</text>
</a>
</g>
</g>
<!-- Node6&#45;&gt;Node9 -->
<g id="edge9" class="edge">
<title>Node6&#45;&gt;Node9</title>
<path fill="none" stroke="#191970" d="M197.2934,-34.7009C214.1782,-32.338 235.2869,-29.384 255.8477,-26.5067"/>
<polygon fill="#191970" stroke="#191970" points="256.4578,-29.9556 265.8762,-25.1033 255.4876,-23.0231 256.4578,-29.9556"/>
</g>
<!-- Node8 -->
<g id="node9" class="node">
<title>Node8</title>
<g id="a_node9"><a xlink:href="namespaceargo_a2deaaacde085d381cbb01f24318965b4.html#a2deaaacde085d381cbb01f24318965b4" target="_top" xlink:title="A unique ArgoDSM node identifier. Counting starts from 0. ">
<polygon fill="#ffffff" stroke="#000000" points="439,-55 439,-74 522,-74 522,-55 439,-55"/>
<text text-anchor="middle" x="480.5" y="-62" font-family="Helvetica,sans-Serif" font-size="10.00" fill="#000000">argo::node_id</text>
</a>
</g>
</g>
<!-- Node7&#45;&gt;Node8 -->
<g id="edge8" class="edge">
<title>Node7&#45;&gt;Node8</title>
<path fill="none" stroke="#191970" d="M400.6652,-64.5C410.0939,-64.5 419.6761,-64.5 428.775,-64.5"/>
<polygon fill="#191970" stroke="#191970" points="428.8089,-68.0001 438.8088,-64.5 428.8088,-61.0001 428.8089,-68.0001"/>
</g>
</g>
</svg>
        <g id="navigator" transform="translate(0 0)" fill="#404254">
                <rect fill="#f2f5e9" fill-opacity="0.5" stroke="#606060" stroke-width=".5" x="0" y="0" width="60" height="60"/>
                <use id="zoomplus" xlink:href="#zoomPlus" x="17" y="9" onmousedown="handleZoom(evt,'in')"/>
                <use id="zoomminus" xlink:href="#zoomMin" x="42" y="9" onmousedown="handleZoom(evt,'out')"/>
                <use id="reset" xlink:href="#resetDef" x="30" y="36" onmousedown="handleReset()"/>
                <g id="arrowUp" xlink:href="#dirArrow" transform="translate(30 24)" onmousedown="handlePan(0,-1)">
                  <use xlink:href="#rim" fill="#404040">
                        <set attributeName="fill" to="#808080" begin="arrowUp.mouseover" end="arrowUp.mouseout"/>
                  </use>
                  <path fill="none" stroke="white" stroke-width="1.5" d="M0,-3.0v7 M-2.5,-0.5L0,-3.0L2.5,-0.5"/>
                </g>
                <g id="arrowRight" xlink:href="#dirArrow" transform="rotate(90) translate(36 -43)" onmousedown="handlePan(1,0)">
                  <use xlink:href="#rim" fill="#404040">
                        <set attributeName="fill" to="#808080" begin="arrowRight.mouseover" end="arrowRight.mouseout"/>
                  </use>
                  <path fill="none" stroke="white" stroke-width="1.5" d="M0,-3.0v7 M-2.5,-0.5L0,-3.0L2.5,-0.5"/>
                </g>
                <g id="arrowDown" xlink:href="#dirArrow" transform="rotate(180) translate(-30 -48)" onmousedown="handlePan(0,1)">
                  <use xlink:href="#rim" fill="#404040">
                        <set attributeName="fill" to="#808080" begin="arrowDown.mouseover" end="arrowDown.mouseout"/>
                  </use>
                  <path fill="none" stroke="white" stroke-width="1.5" d="M0,-3.0v7 M-2.5,-0.5L0,-3.0L2.5,-0.5"/>
                </g>
                <g id="arrowLeft" xlink:href="#dirArrow" transform="rotate(270) translate(-36 17)" onmousedown="handlePan(-1,0)">
                  <use xlink:href="#rim" fill="#404040">
                        <set attributeName="fill" to="#808080" begin="arrowLeft.mouseover" end="arrowLeft.mouseout"/>
                  </use>
                  <path fill="none" stroke="white" stroke-width="1.5" d="M0,-3.0v7 M-2.5,-0.5L0,-3.0L2.5,-0.5"/>
                </g>
        </g>
        <svg viewBox="0 0 15 15" width="100%" height="30px" preserveAspectRatio="xMaxYMin meet">
         <g id="arrow_out" transform="scale(0.3 0.3)">
          <a xlink:href="namespaceargo_a31330d8b35bd7f9ef9880eec82339c54_a31330d8b35bd7f9ef9880eec82339c54_cgraph_org.svg" target="_base">
           <rect id="button" ry="5" rx="5" y="6" x="6" height="38" width="38"
                fill="#f2f5e9" fill-opacity="0.5" stroke="#606060" stroke-width="1.0"/>
           <path id="arrow"
             d="M 11.500037,31.436501 C 11.940474,20.09759 22.043105,11.32322 32.158766,21.979434 L 37.068811,17.246167 C 37.068811,17.246167 37.088388,32 37.088388,32 L 22.160133,31.978069 C 22.160133,31.978069 26.997745,27.140456 26.997745,27.140456 C 18.528582,18.264221 13.291696,25.230495 11.500037,31.436501 z"
             style="fill:#404040;"/>
          </a>
         </g>
        </svg>
</svg>
