<?xml version="1.0" encoding="UTF-8" standalone="no"?>
<!DOCTYPE svg PUBLIC "-//W3C//DTD SVG 1.1//EN"
 "http://www.w3.org/Graphics/SVG/1.1/DTD/svg11.dtd">
<!-- Generated by graphviz version 2.40.1 (20161225.0304)
 -->
<!-- Title: argo::env::memory_size Pages: 1 -->
<svg width="333pt" height="66pt"
 viewBox="0.00 0.00 333.00 66.00" xmlns="http://www.w3.org/2000/svg" xmlns:xlink="http://www.w3.org/1999/xlink">
<g id="graph0" class="graph" transform="scale(1 1) rotate(0) translate(4 62)">
<title>argo::env::memory_size</title>
<polygon fill="#ffffff" stroke="transparent" points="-4,4 -4,-62 329,-62 329,4 -4,4"/>
<!-- Node1 -->
<g id="node1" class="node">
<title>Node1</title>
<polygon fill="#bfbfbf" stroke="#000000" points="0,-19.5 0,-38.5 134,-38.5 134,-19.5 0,-19.5"/>
<text text-anchor="middle" x="67" y="-26.5" font-family="Helvetica,sans-Serif" font-size="10.00" fill="#000000">argo::env::memory_size</text>
</g>
<!-- Node2 -->
<g id="node2" class="node">
<title>Node2</title>
<g id="a_node2"><a xlink:href="namespaceargo_a31330d8b35bd7f9ef9880eec82339c54.html#a31330d8b35bd7f9ef9880eec82339c54" target="_top" target="_top" xlink:title="initialize ArgoDSM system ">
<polygon fill="#ffffff" stroke="#000000" points="170,-19.5 170,-38.5 230,-38.5 230,-19.5 170,-19.5"/>
<text text-anchor="middle" x="200" y="-26.5" font-family="Helvetica,sans-Serif" font-size="10.00" fill="#000000">argo::init</text>
</a>
</g>
</g>
<!-- Node1&#45;&gt;Node2 -->
<g id="edge1" class="edge">
<title>Node1&#45;&gt;Node2</title>
<path fill="none" stroke="#191970" d="M144.4884,-29C153.4594,-29 162.1561,-29 169.9007,-29"/>
<polygon fill="#191970" stroke="#191970" points="144.2793,-25.5001 134.2793,-29 144.2792,-32.5001 144.2793,-25.5001"/>
</g>
<!-- Node3 -->
<g id="node3" class="node">
<title>Node3</title>
<g id="a_node3"><a xlink:href="tests_2allocators_8cpp_a3c04138a5bfe5d72780bb7e82a18e627.html#a3c04138a5bfe5d72780bb7e82a18e627" target="_top" target="_top" xlink:title="The main function that runs the tests. ">
<polygon fill="#ffffff" stroke="#000000" points="275,-38.5 275,-57.5 316,-57.5 316,-38.5 275,-38.5"/>
<text text-anchor="middle" x="295.5" y="-45.5" font-family="Helvetica,sans-Serif" font-size="10.00" fill="#000000">main</text>
</a>
</g>
</g>
<!-- Node2&#45;&gt;Node3 -->
<g id="edge2" class="edge">
<title>Node2&#45;&gt;Node3</title>
<path fill="none" stroke="#191970" d="M240.0488,-36.9678C252.0207,-39.3497 264.6561,-41.8635 274.8367,-43.889"/>
<polygon fill="#191970" stroke="#191970" points="240.7076,-33.5304 230.2168,-35.0117 239.3416,-40.3958 240.7076,-33.5304"/>
</g>
<!-- Node4 -->
<g id="node4" class="node">
<title>Node4</title>
<g id="a_node4"><a xlink:href="argo_8h_aa84680ad78c3598c30a482ff71ec6bbc.html#aa84680ad78c3598c30a482ff71ec6bbc" target="_top" target="_top" xlink:title="initialize ArgoDSM system ">
<polygon fill="#ffffff" stroke="#000000" points="266,-.5 266,-19.5 325,-19.5 325,-.5 266,-.5"/>
<text text-anchor="middle" x="295.5" y="-7.5" font-family="Helvetica,sans-Serif" font-size="10.00" fill="#000000">argo_init</text>
</a>
</g>
</g>
<!-- Node2&#45;&gt;Node4 -->
<g id="edge3" class="edge">
<title>Node2&#45;&gt;Node4</title>
<path fill="none" stroke="#191970" d="M240.1028,-21.0214C248.7168,-19.3076 257.6718,-17.526 265.8067,-15.9076"/>
<polygon fill="#191970" stroke="#191970" points="239.3416,-17.6042 230.2168,-22.9883 240.7076,-24.4696 239.3416,-17.6042"/>
</g>
</g>
</svg>
