<?xml version="1.0" encoding="UTF-8" standalone="no"?>
<!DOCTYPE svg PUBLIC "-//W3C//DTD SVG 1.1//EN"
 "http://www.w3.org/Graphics/SVG/1.1/DTD/svg11.dtd">
<!-- Generated by graphviz version 2.40.1 (20161225.0304)
 -->
<!-- Title: argo::data_distribution::is_first_touch_policy Pages: 1 -->
<!--zoomable 401 -->
<svg id="main" version="1.1" xmlns="http://www.w3.org/2000/svg" xmlns:xlink="http://www.w3.org/1999/xlink" xml:space="preserve" onload="init(evt)">
<style type="text/css"><![CDATA[
.edge:hover path { stroke: red; }
.edge:hover polygon { stroke: red; fill: red; }
]]></style>
<script type="text/javascript"><![CDATA[
var edges = document.getElementsByTagName('g');
if (edges && edges.length) {
  for (var i=0;i<edges.length;i++) {
    if (edges[i].id.substr(0,4)=='edge') {
      edges[i].setAttribute('class','edge');
    }
  }
}
]]></script>
        <defs>
                <circle id="rim" cx="0" cy="0" r="7"/>
                <circle id="rim2" cx="0" cy="0" r="3.5"/>
                <g id="zoomPlus">
                        <use xlink:href="#rim" target="_top" fill="#404040">
                                <set attributeName="fill" to="#808080" begin="zoomplus.mouseover" end="zoomplus.mouseout"/>
                        </use>
                        <path d="M-4,0h8M0,-4v8" fill="none" stroke="white" stroke-width="1.5" pointer-events="none"/>
                </g>
                <g id="zoomMin">
                        <use xlink:href="#rim" target="_top" fill="#404040">
                                <set attributeName="fill" to="#808080" begin="zoomminus.mouseover" end="zoomminus.mouseout"/>
                        </use>
                        <path d="M-4,0h8" fill="none" stroke="white" stroke-width="1.5" pointer-events="none"/>
                </g>
                <g id="dirArrow">
                        <path fill="none" stroke="white" stroke-width="1.5" d="M0,-3.0v7 M-2.5,-0.5L0,-3.0L2.5,-0.5"/>
                </g>
               <g id="resetDef">
                       <use xlink:href="#rim2" target="_top" fill="#404040">
                               <set attributeName="fill" to="#808080" begin="reset.mouseover" end="reset.mouseout"/>
                       </use>
               </g>
        </defs>

<script type="text/javascript">
var viewWidth = 1632;
var viewHeight = 401;
var sectionId = 'dynsection-1';
</script>
<script xlink:href="svgpan.js" target="_top"/>
<svg id="graph" class="graph">
<g id="viewport">
<title>argo::data_distribution::is_first_touch_policy</title>
<polygon fill="#ffffff" stroke="transparent" points="-4,4 -4,-397.0857 1628,-397.0857 1628,4 -4,4"/>
<!-- Node2 -->
<g id="node1" class="node">
<title>Node2</title>
<polygon fill="#bfbfbf" stroke="#000000" points="0,-211 0,-241 127,-241 127,-211 0,-211"/>
<text text-anchor="start" x="8" y="-229" font-family="Helvetica,sans-Serif" font-size="10.00" fill="#000000">argo::data_distribution</text>
<text text-anchor="middle" x="63.5" y="-218" font-family="Helvetica,sans-Serif" font-size="10.00" fill="#000000">::is_first_touch_policy</text>
</g>
<!-- Node3 -->
<g id="node2" class="node">
<title>Node3</title>
<g id="a_node2"><a xlink:href="swdsm_8h_a8b00f264b792522b179fbc9c818187bd.html#a8b00f264b792522b179fbc9c818187bd" target="_top" target="_top" xlink:title="Catches memory accesses to memory not yet cached in ArgoDSM. Launches remote requests for memory not ...">
<polygon fill="#ffffff" stroke="#000000" points="1089.5,-342.5 1089.5,-361.5 1142.5,-361.5 1142.5,-342.5 1089.5,-342.5"/>
<text text-anchor="middle" x="1116" y="-349.5" font-family="Helvetica,sans-Serif" font-size="10.00" fill="#000000">handler</text>
</a>
</g>
</g>
<!-- Node2&#45;&gt;Node3 -->
<g id="edge1" class="edge">
<title>Node2&#45;&gt;Node3</title>
<path fill="none" stroke="#191970" d="M79.0035,-249.6232C96.3248,-273.8329 126.7469,-310.3539 163,-328 251.8351,-371.2402 285.2003,-352 384,-352 384,-352 384,-352 835,-352 928.4227,-352 1039.3166,-352 1089.2662,-352"/>
<polygon fill="#191970" stroke="#191970" points="81.8112,-247.5302 73.2283,-241.3186 76.0643,-251.5269 81.8112,-247.5302"/>
</g>
<!-- Node4 -->
<g id="node3" class="node">
<title>Node4</title>
<g id="a_node3"><a xlink:href="swdsm_8h_a10dca85d339ce630cf42dca685b3f6d9.html#a10dca85d339ce630cf42dca685b3f6d9" target="_top" target="_top" xlink:title="Initializes ArgoDSM runtime. ">
<polygon fill="#ffffff" stroke="#000000" points="1384.5,-342.5 1384.5,-361.5 1470.5,-361.5 1470.5,-342.5 1384.5,-342.5"/>
<text text-anchor="middle" x="1427.5" y="-349.5" font-family="Helvetica,sans-Serif" font-size="10.00" fill="#000000">argo_initialize</text>
</a>
</g>
</g>
<!-- Node2&#45;&gt;Node4 -->
<g id="edge4" class="edge">
<title>Node2&#45;&gt;Node4</title>
<path fill="none" stroke="#191970" d="M74.6906,-250.0977C90.0453,-280.2277 120.6423,-330.8917 163,-356 248.4873,-406.6742 284.6222,-390 384,-390 384,-390 384,-390 1116,-390 1212.431,-390 1324.4263,-371.8344 1384.3652,-360.6228"/>
<polygon fill="#191970" stroke="#191970" points="77.8111,-248.512 70.2453,-241.0952 71.5346,-251.6113 77.8111,-248.512"/>
</g>
<!-- Node6 -->
<g id="node5" class="node">
<title>Node6</title>
<g id="a_node5"><a xlink:href="swdsm_8cpp_aa954d5e0bcaee69ff6e03e697bcaf68b.html#aa954d5e0bcaee69ff6e03e697bcaf68b" target="_top" target="_top" xlink:title="shut down ArgoDSM system ">
<polygon fill="#ffffff" stroke="#000000" points="1234.5,-254.5 1234.5,-273.5 1313.5,-273.5 1313.5,-254.5 1234.5,-254.5"/>
<text text-anchor="middle" x="1274" y="-261.5" font-family="Helvetica,sans-Serif" font-size="10.00" fill="#000000">argo_finalize</text>
</a>
</g>
</g>
<!-- Node2&#45;&gt;Node6 -->
<g id="edge5" class="edge">
<title>Node2&#45;&gt;Node6</title>
<path fill="none" stroke="#191970" d="M137.1887,-226C202.1494,-226 299.3611,-226 384,-226 384,-226 384,-226 972.5,-226 1066.9366,-226 1176.7149,-244.5785 1234.2098,-255.7546"/>
<polygon fill="#191970" stroke="#191970" points="137.0467,-222.5001 127.0467,-226 137.0466,-229.5001 137.0467,-222.5001"/>
</g>
<!-- Node8 -->
<g id="node7" class="node">
<title>Node8</title>
<g id="a_node7"><a xlink:href="swdsm_8h_a0c6b51af2b87ddf7eb04aa7d4e0e836e.html#a0c6b51af2b87ddf7eb04aa7d4e0e836e" target="_top" target="_top" xlink:title="Resets current coherence. Collective function called by all threads on all nodes. ...">
<polygon fill="#ffffff" stroke="#000000" points="1212,-304.5 1212,-323.5 1336,-323.5 1336,-304.5 1212,-304.5"/>
<text text-anchor="middle" x="1274" y="-311.5" font-family="Helvetica,sans-Serif" font-size="10.00" fill="#000000">argo_reset_coherence</text>
</a>
</g>
</g>
<!-- Node2&#45;&gt;Node8 -->
<g id="edge7" class="edge">
<title>Node2&#45;&gt;Node8</title>
<path fill="none" stroke="#191970" d="M105.084,-245.126C165.2657,-271.0109 280.7557,-314 384,-314 384,-314 384,-314 972.5,-314 1055.334,-314 1150.9692,-314 1211.9261,-314"/>
<polygon fill="#191970" stroke="#191970" points="106.476,-241.9148 95.9104,-241.1277 103.6791,-248.3318 106.476,-241.9148"/>
</g>
<!-- Node9 -->
<g id="node8" class="node">
<title>Node9</title>
<g id="a_node8"><a xlink:href="singlenode_8cpp_aab3cabb3e1c0b9696b339416b684f78c.html#aab3cabb3e1c0b9696b339416b684f78c" target="_top" target="_top" xlink:title="argo::backend::init">
<polygon fill="#ffffff" stroke="#000000" points="1374,-28.5 1374,-47.5 1481,-47.5 1481,-28.5 1374,-28.5"/>
<text text-anchor="middle" x="1427.5" y="-35.5" font-family="Helvetica,sans-Serif" font-size="10.00" fill="#000000">argo::backend::init</text>
</a>
</g>
</g>
<!-- Node2&#45;&gt;Node9 -->
<g id="edge9" class="edge">
<title>Node2&#45;&gt;Node9</title>
<path fill="none" stroke="#191970" d="M79.9878,-202.6463C122.8943,-144.8909 244.4414,0 384,0 384,0 384,0 1116,0 1215.0274,0 1240.0447,-4.4678 1338,-19 1354.341,-21.4243 1372.1759,-25.0146 1387.5941,-28.4234"/>
<polygon fill="#191970" stroke="#191970" points="77.0878,-200.6826 74.0099,-210.8206 82.7381,-204.8147 77.0878,-200.6826"/>
</g>
<!-- Node10 -->
<g id="node9" class="node">
<title>Node10</title>
<g id="a_node9"><a xlink:href="namespaceargo_1_1data__distribution_a2a70ed49553953957c3a28aa755d7ac8.html#a2a70ed49553953957c3a28aa755d7ac8" target="_top" target="_top" xlink:title="based on the chosen policy, gets the policy block size ">
<polygon fill="#ffffff" stroke="#000000" points="163,-161 163,-191 290,-191 290,-161 163,-161"/>
<text text-anchor="start" x="171" y="-179" font-family="Helvetica,sans-Serif" font-size="10.00" fill="#000000">argo::data_distribution</text>
<text text-anchor="middle" x="226.5" y="-168" font-family="Helvetica,sans-Serif" font-size="10.00" fill="#000000">::policy_block_size</text>
</a>
</g>
</g>
<!-- Node2&#45;&gt;Node10 -->
<g id="edge10" class="edge">
<title>Node2&#45;&gt;Node10</title>
<path fill="none" stroke="#191970" d="M121.9982,-208.0558C140.1305,-202.4937 159.9173,-196.4242 177.3477,-191.0774"/>
<polygon fill="#191970" stroke="#191970" points="120.9393,-204.7196 112.4054,-210.9984 122.9921,-211.4118 120.9393,-204.7196"/>
</g>
<!-- Node30 -->
<g id="node29" class="node">
<title>Node30</title>
<g id="a_node29"><a xlink:href="api_8cpp_a42290e9787e669eb9618124225ff8010.html#a42290e9787e669eb9618124225ff8010" target="_top" target="_top" xlink:title="Unittest that checks that argo::get_block_size() is consistent with argo::env::block_size() for all c...">
<polygon fill="#ffffff" stroke="#000000" points="511,-102.5 511,-121.5 562,-121.5 562,-102.5 511,-102.5"/>
<text text-anchor="middle" x="536.5" y="-109.5" font-family="Helvetica,sans-Serif" font-size="10.00" fill="#000000">TEST_F</text>
</a>
</g>
</g>
<!-- Node2&#45;&gt;Node30 -->
<g id="edge40" class="edge">
<title>Node2&#45;&gt;Node30</title>
<path fill="none" stroke="#191970" d="M85.8909,-203.7581C104.7589,-186.4926 133.3554,-163.6032 163,-152 286.2787,-103.7476 448.9017,-106.8685 510.9538,-110.229"/>
<polygon fill="#191970" stroke="#191970" points="83.3224,-201.3686 78.4256,-210.764 88.1126,-206.473 83.3224,-201.3686"/>
</g>
<!-- Node3&#45;&gt;Node4 -->
<g id="edge2" class="edge">
<title>Node3&#45;&gt;Node4</title>
<path fill="none" stroke="#191970" d="M1152.7054,-352C1210.563,-352 1322.7105,-352 1384.3407,-352"/>
<polygon fill="#191970" stroke="#191970" points="1152.5583,-348.5001 1142.5583,-352 1152.5583,-355.5001 1152.5583,-348.5001"/>
</g>
<!-- Node5 -->
<g id="node4" class="node">
<title>Node5</title>
<g id="a_node4"><a xlink:href="backend_8hpp_af0d80a03a17a374c10d9635ddf81e261.html#af0d80a03a17a374c10d9635ddf81e261" target="_top" target="_top" xlink:title="initialize backend ">
<polygon fill="#ffffff" stroke="#000000" points="1517,-342.5 1517,-361.5 1624,-361.5 1624,-342.5 1517,-342.5"/>
<text text-anchor="middle" x="1570.5" y="-349.5" font-family="Helvetica,sans-Serif" font-size="10.00" fill="#000000">argo::backend::init</text>
</a>
</g>
</g>
<!-- Node4&#45;&gt;Node5 -->
<g id="edge3" class="edge">
<title>Node4&#45;&gt;Node5</title>
<path fill="none" stroke="#191970" d="M1480.933,-352C1492.7171,-352 1505.2019,-352 1516.9891,-352"/>
<polygon fill="#191970" stroke="#191970" points="1480.7928,-348.5001 1470.7928,-352 1480.7927,-355.5001 1480.7928,-348.5001"/>
</g>
<!-- Node7 -->
<g id="node6" class="node">
<title>Node7</title>
<g id="a_node6"><a xlink:href="swdsm_8h_a18cc89a7368e30281ea4b1d214a1b1ff.html#a18cc89a7368e30281ea4b1d214a1b1ff" target="_top" target="_top" xlink:title="Pins and registers the local thread. ">
<polygon fill="#ffffff" stroke="#000000" points="1377,-254.5 1377,-273.5 1478,-273.5 1478,-254.5 1377,-254.5"/>
<text text-anchor="middle" x="1427.5" y="-261.5" font-family="Helvetica,sans-Serif" font-size="10.00" fill="#000000">argo_pin_threads</text>
</a>
</g>
</g>
<!-- Node6&#45;&gt;Node7 -->
<g id="edge6" class="edge">
<title>Node6&#45;&gt;Node7</title>
<path fill="none" stroke="#191970" d="M1323.8002,-264C1340.7693,-264 1359.7517,-264 1376.7913,-264"/>
<polygon fill="#191970" stroke="#191970" points="1323.5301,-260.5001 1313.5301,-264 1323.53,-267.5001 1323.5301,-260.5001"/>
</g>
<!-- Node8&#45;&gt;Node4 -->
<g id="edge8" class="edge">
<title>Node8&#45;&gt;Node4</title>
<path fill="none" stroke="#191970" d="M1322.6352,-326.04C1344.0799,-331.3488 1368.9226,-337.4988 1389.044,-342.4799"/>
<polygon fill="#191970" stroke="#191970" points="1323.2826,-322.5947 1312.7345,-323.589 1321.6004,-329.3896 1323.2826,-322.5947"/>
</g>
<!-- Node11 -->
<g id="node10" class="node">
<title>Node11</title>
<g id="a_node10"><a xlink:href="namespaceargo_a2f35b6b6e0af76fb8fb47f2031d6f58e.html#a2f35b6b6e0af76fb8fb47f2031d6f58e" target="_top" target="_top" xlink:title="Get the block size of the current allocation policy. ">
<polygon fill="#ffffff" stroke="#000000" points="326,-157.5 326,-176.5 442,-176.5 442,-157.5 326,-157.5"/>
<text text-anchor="middle" x="384" y="-164.5" font-family="Helvetica,sans-Serif" font-size="10.00" fill="#000000">argo::get_block_size</text>
</a>
</g>
</g>
<!-- Node10&#45;&gt;Node11 -->
<g id="edge11" class="edge">
<title>Node10&#45;&gt;Node11</title>
<path fill="none" stroke="#191970" d="M300.135,-171.7923C308.7301,-171.3011 317.4067,-170.8053 325.7531,-170.3284"/>
<polygon fill="#191970" stroke="#191970" points="299.8913,-168.3004 290.1073,-172.3653 300.2907,-175.289 299.8913,-168.3004"/>
</g>
<!-- Node12 -->
<g id="node11" class="node">
<title>Node12</title>
<g id="a_node11"><a xlink:href="argo_8h_ad0931c5341a3b07302a3a019834280f6.html#ad0931c5341a3b07302a3a019834280f6" target="_top" target="_top" xlink:title="Get the block size of the current allocation policy. ">
<polygon fill="#ffffff" stroke="#000000" points="478.5,-140.5 478.5,-159.5 594.5,-159.5 594.5,-140.5 478.5,-140.5"/>
<text text-anchor="middle" x="536.5" y="-147.5" font-family="Helvetica,sans-Serif" font-size="10.00" fill="#000000">argo_get_block_size</text>
</a>
</g>
</g>
<!-- Node11&#45;&gt;Node12 -->
<g id="edge12" class="edge">
<title>Node11&#45;&gt;Node12</title>
<path fill="none" stroke="#191970" d="M452.2229,-159.3948C460.9346,-158.4237 469.7876,-157.4368 478.3203,-156.4856"/>
<polygon fill="#191970" stroke="#191970" points="451.6394,-155.9381 442.0887,-160.5245 452.415,-162.895 451.6394,-155.9381"/>
</g>
<!-- Node13 -->
<g id="node12" class="node">
<title>Node13</title>
<g id="a_node12"><a xlink:href="namespaceargo_a48dc17c94275df10a8e7f3959cbf0191.html#a48dc17c94275df10a8e7f3959cbf0191" target="_top" target="_top" xlink:title="Get the ArgoDSM node id where addr is physically backed. ">
<polygon fill="#ffffff" stroke="#000000" points="478,-178.5 478,-197.5 595,-197.5 595,-178.5 478,-178.5"/>
<text text-anchor="middle" x="536.5" y="-185.5" font-family="Helvetica,sans-Serif" font-size="10.00" fill="#000000">argo::get_homenode</text>
</a>
</g>
</g>
<!-- Node11&#45;&gt;Node13 -->
<g id="edge13" class="edge">
<title>Node11&#45;&gt;Node13</title>
<path fill="none" stroke="#191970" d="M452.0779,-176.3747C460.6644,-177.5571 469.3908,-178.7587 477.8147,-179.9187"/>
<polygon fill="#191970" stroke="#191970" points="452.4728,-172.8961 442.0887,-174.9991 451.5178,-179.8306 452.4728,-172.8961"/>
</g>
<!-- Node11&#45;&gt;Node30 -->
<g id="edge39" class="edge">
<title>Node11&#45;&gt;Node30</title>
<path fill="none" stroke="#191970" d="M417.2614,-153.7804C435.175,-146.7827 457.7042,-138.1769 478,-131 488.6716,-127.2263 500.5355,-123.3202 510.7747,-120.0383"/>
<polygon fill="#191970" stroke="#191970" points="415.8575,-150.5714 407.8277,-157.4833 418.4152,-157.0874 415.8575,-150.5714"/>
</g>
<!-- Node14 -->
<g id="node13" class="node">
<title>Node14</title>
<g id="a_node13"><a xlink:href="argo_8h_aa4a06a633ece5fbb94b9d8f0a6479e4c.html#aa4a06a633ece5fbb94b9d8f0a6479e4c" target="_top" target="_top" xlink:title="Get the ArgoDSM node id where addr is physically backed. ">
<polygon fill="#ffffff" stroke="#000000" points="631,-102.5 631,-121.5 747,-121.5 747,-102.5 631,-102.5"/>
<text text-anchor="middle" x="689" y="-109.5" font-family="Helvetica,sans-Serif" font-size="10.00" fill="#000000">argo_get_homenode</text>
</a>
</g>
</g>
<!-- Node13&#45;&gt;Node14 -->
<g id="edge14" class="edge">
<title>Node13&#45;&gt;Node14</title>
<path fill="none" stroke="#191970" d="M584.4607,-174.6578C588.132,-172.9693 591.6917,-171.089 595,-169 614.6709,-156.5787 611.3448,-143.4462 631,-131 636.9979,-127.202 643.8291,-124.0905 650.6466,-121.5664"/>
<polygon fill="#191970" stroke="#191970" points="583.1037,-171.4314 575.1843,-178.4694 585.7642,-177.9061 583.1037,-171.4314"/>
</g>
<!-- Node15 -->
<g id="node14" class="node">
<title>Node15</title>
<g id="a_node14"><a xlink:href="classwrite__buffer_aa2325346aceb3e7ffdbdbdc8e8682147.html#aa2325346aceb3e7ffdbdbdc8e8682147" target="_top" target="_top" xlink:title="Sorts all elements by home node id in ascending order. ">
<polygon fill="#ffffff" stroke="#000000" points="639,-140.5 639,-159.5 739,-159.5 739,-140.5 639,-140.5"/>
<text text-anchor="middle" x="689" y="-147.5" font-family="Helvetica,sans-Serif" font-size="10.00" fill="#000000">write_buffer::sort</text>
</a>
</g>
</g>
<!-- Node13&#45;&gt;Node15 -->
<g id="edge15" class="edge">
<title>Node13&#45;&gt;Node15</title>
<path fill="none" stroke="#191970" d="M584.8184,-175.96C606.1234,-170.6512 630.8042,-164.5012 650.7945,-159.5201"/>
<polygon fill="#191970" stroke="#191970" points="583.8392,-172.5969 574.9822,-178.411 585.5318,-179.3892 583.8392,-172.5969"/>
</g>
<!-- Node26 -->
<g id="node25" class="node">
<title>Node26</title>
<g id="a_node25"><a xlink:href="classwrite__buffer_a9e8cf81e623c4bb67f687379f8709a53.html#a9e8cf81e623c4bb67f687379f8709a53" target="_top" target="_top" xlink:title="Sorts the first _write_back_size elements by home node id in ascending order. ">
<polygon fill="#ffffff" stroke="#000000" points="639,-255 639,-285 739,-285 739,-255 639,-255"/>
<text text-anchor="start" x="647" y="-273" font-family="Helvetica,sans-Serif" font-size="10.00" fill="#000000">write_buffer::sort</text>
<text text-anchor="middle" x="689" y="-262" font-family="Helvetica,sans-Serif" font-size="10.00" fill="#000000">_first</text>
</a>
</g>
</g>
<!-- Node13&#45;&gt;Node26 -->
<g id="edge34" class="edge">
<title>Node13&#45;&gt;Node26</title>
<path fill="none" stroke="#191970" d="M563.3174,-202.4198C590.7375,-217.1638 633.147,-239.9676 660.9917,-254.9398"/>
<polygon fill="#191970" stroke="#191970" points="564.7572,-199.2202 554.2921,-197.5669 561.4421,-205.3854 564.7572,-199.2202"/>
</g>
<!-- Node29 -->
<g id="node28" class="node">
<title>Node29</title>
<g id="a_node28"><a xlink:href="api_8cpp_a6255f7c304a854275724ca1df48fab28.html#a6255f7c304a854275724ca1df48fab28" target="_top" target="_top" xlink:title="Unittest that checks correctness of the argo::get_homenode(T* addr) API function. ...">
<polygon fill="#ffffff" stroke="#000000" points="663.5,-178.5 663.5,-197.5 714.5,-197.5 714.5,-178.5 663.5,-178.5"/>
<text text-anchor="middle" x="689" y="-185.5" font-family="Helvetica,sans-Serif" font-size="10.00" fill="#000000">TEST_F</text>
</a>
</g>
</g>
<!-- Node13&#45;&gt;Node29 -->
<g id="edge38" class="edge">
<title>Node13&#45;&gt;Node29</title>
<path fill="none" stroke="#191970" d="M605.1332,-188C625.9056,-188 647.4396,-188 663.4857,-188"/>
<polygon fill="#191970" stroke="#191970" points="605.0244,-184.5001 595.0243,-188 605.0243,-191.5001 605.0244,-184.5001"/>
</g>
<!-- Node16 -->
<g id="node15" class="node">
<title>Node16</title>
<g id="a_node15"><a xlink:href="classwrite__buffer_aca2e330e17a38c1cc8d8c60701ce9dd7.html#aca2e330e17a38c1cc8d8c60701ce9dd7" target="_top" target="_top" xlink:title="Flushes the ArgoDSM write buffer to memory. ">
<polygon fill="#ffffff" stroke="#000000" points="783,-140.5 783,-159.5 887,-159.5 887,-140.5 783,-140.5"/>
<text text-anchor="middle" x="835" y="-147.5" font-family="Helvetica,sans-Serif" font-size="10.00" fill="#000000">write_buffer::flush</text>
</a>
</g>
</g>
<!-- Node15&#45;&gt;Node16 -->
<g id="edge16" class="edge">
<title>Node15&#45;&gt;Node16</title>
<path fill="none" stroke="#191970" d="M749.2791,-150C760.362,-150 771.8486,-150 782.6741,-150"/>
<polygon fill="#191970" stroke="#191970" points="749.245,-146.5001 739.2449,-150 749.2449,-153.5001 749.245,-146.5001"/>
</g>
<!-- Node17 -->
<g id="node16" class="node">
<title>Node17</title>
<g id="a_node16"><a xlink:href="swdsm_8h_aa7c3a2de6bbafdaf68fe6ceb6110ab97.html#aa7c3a2de6bbafdaf68fe6ceb6110ab97" target="_top" target="_top" xlink:title="Self&#45;Invalidates all memory that has potential writers. ">
<polygon fill="#ffffff" stroke="#000000" points="923.5,-140.5 923.5,-159.5 1021.5,-159.5 1021.5,-140.5 923.5,-140.5"/>
<text text-anchor="middle" x="972.5" y="-147.5" font-family="Helvetica,sans-Serif" font-size="10.00" fill="#000000">self_invalidation</text>
</a>
</g>
</g>
<!-- Node16&#45;&gt;Node17 -->
<g id="edge17" class="edge">
<title>Node16&#45;&gt;Node17</title>
<path fill="none" stroke="#191970" d="M897.494,-150C906.1954,-150 915.0315,-150 923.4386,-150"/>
<polygon fill="#191970" stroke="#191970" points="897.3751,-146.5001 887.3751,-150 897.3751,-153.5001 897.3751,-146.5001"/>
</g>
<!-- Node18 -->
<g id="node17" class="node">
<title>Node18</title>
<g id="a_node17"><a xlink:href="swdsm_8h_ad3f5bdae81c60ac704dda7372792427d.html#ad3f5bdae81c60ac704dda7372792427d" target="_top" target="_top" xlink:title="Global barrier for ArgoDSM &#45; needs to be called by every thread in the system that need coherent view...">
<polygon fill="#ffffff" stroke="#000000" points="1058,-178.5 1058,-197.5 1174,-197.5 1174,-178.5 1058,-178.5"/>
<text text-anchor="middle" x="1116" y="-185.5" font-family="Helvetica,sans-Serif" font-size="10.00" fill="#000000">swdsm_argo_barrier</text>
</a>
</g>
</g>
<!-- Node16&#45;&gt;Node18 -->
<g id="edge28" class="edge">
<title>Node16&#45;&gt;Node18</title>
<path fill="none" stroke="#191970" d="M884.4844,-161.7235C896.9993,-164.4014 910.4502,-167.0341 923,-169 968.0717,-176.0605 1019.5008,-180.9697 1057.9302,-184.027"/>
<polygon fill="#191970" stroke="#191970" points="885.2007,-158.2974 874.6835,-159.578 883.7037,-165.1355 885.2007,-158.2974"/>
</g>
<!-- Node24 -->
<g id="node23" class="node">
<title>Node24</title>
<g id="a_node23"><a xlink:href="swdsm_8h_ad390eb58e1be03ed6a0939fae7ebd20a.html#ad390eb58e1be03ed6a0939fae7ebd20a" target="_top" target="_top" xlink:title="Release function for ArgoDSM (Release according to Release Consistency) ">
<polygon fill="#ffffff" stroke="#000000" points="1076,-84.5 1076,-103.5 1156,-103.5 1156,-84.5 1076,-84.5"/>
<text text-anchor="middle" x="1116" y="-91.5" font-family="Helvetica,sans-Serif" font-size="10.00" fill="#000000">argo_release</text>
</a>
</g>
</g>
<!-- Node16&#45;&gt;Node24 -->
<g id="edge29" class="edge">
<title>Node16&#45;&gt;Node24</title>
<path fill="none" stroke="#191970" d="M888.2521,-138.2942C899.7043,-135.8351 911.747,-133.2931 923,-131 975.6524,-120.2705 1036.5707,-108.7383 1075.6544,-101.4524"/>
<polygon fill="#191970" stroke="#191970" points="887.4116,-134.895 878.3749,-140.4256 888.8882,-141.7375 887.4116,-134.895"/>
</g>
<!-- Node17&#45;&gt;Node18 -->
<g id="edge18" class="edge">
<title>Node17&#45;&gt;Node18</title>
<path fill="none" stroke="#191970" d="M1018.4735,-162.1742C1038.3164,-167.4287 1061.1928,-173.4866 1079.8005,-178.4141"/>
<polygon fill="#191970" stroke="#191970" points="1019.2739,-158.7655 1008.7111,-159.589 1017.4819,-165.5323 1019.2739,-158.7655"/>
</g>
<!-- Node21 -->
<g id="node20" class="node">
<title>Node21</title>
<g id="a_node20"><a xlink:href="swdsm_8h_a44b8bb7a3c8b47b4f9552c8e10b25e4b.html#a44b8bb7a3c8b47b4f9552c8e10b25e4b" target="_top" target="_top" xlink:title="acquire function for ArgoDSM (Acquire according to Release Consistency) ">
<polygon fill="#ffffff" stroke="#000000" points="1076,-122.5 1076,-141.5 1156,-141.5 1156,-122.5 1076,-122.5"/>
<text text-anchor="middle" x="1116" y="-129.5" font-family="Helvetica,sans-Serif" font-size="10.00" fill="#000000">argo_acquire</text>
</a>
</g>
</g>
<!-- Node17&#45;&gt;Node21 -->
<g id="edge23" class="edge">
<title>Node17&#45;&gt;Node21</title>
<path fill="none" stroke="#191970" d="M1031.9117,-142.5477C1046.6052,-140.7046 1062.0103,-138.7722 1075.5617,-137.0724"/>
<polygon fill="#191970" stroke="#191970" points="1031.3712,-139.0879 1021.8846,-143.8054 1032.2424,-146.0335 1031.3712,-139.0879"/>
</g>
<!-- Node18&#45;&gt;Node6 -->
<g id="edge21" class="edge">
<title>Node18&#45;&gt;Node6</title>
<path fill="none" stroke="#191970" d="M1153.9764,-201.4637C1160.8569,-204.525 1167.8073,-208.0556 1174,-212 1192.3069,-223.6605 1191.1131,-234.3044 1210,-245 1217.4633,-249.2264 1225.9595,-252.597 1234.2679,-255.2534"/>
<polygon fill="#191970" stroke="#191970" points="1155.291,-198.2197 1144.7152,-197.5851 1152.587,-204.6764 1155.291,-198.2197"/>
</g>
<!-- Node18&#45;&gt;Node8 -->
<g id="edge22" class="edge">
<title>Node18&#45;&gt;Node8</title>
<path fill="none" stroke="#191970" d="M1130.178,-205.6001C1147.402,-226.1441 1178.13,-260.2054 1210,-283 1222.1506,-291.6905 1237.1129,-299.0913 1249.5145,-304.4801"/>
<polygon fill="#191970" stroke="#191970" points="1132.7217,-203.1834 1123.659,-197.6953 1127.3212,-207.6371 1132.7217,-203.1834"/>
</g>
<!-- Node19 -->
<g id="node18" class="node">
<title>Node19</title>
<g id="a_node18"><a xlink:href="backend_8hpp_af1a647431651556204709451bebb5a42.html#af1a647431651556204709451bebb5a42" target="_top" target="_top" xlink:title="a simple collective barrier ">
<polygon fill="#ffffff" stroke="#000000" points="1212,-216.5 1212,-235.5 1336,-235.5 1336,-216.5 1212,-216.5"/>
<text text-anchor="middle" x="1274" y="-223.5" font-family="Helvetica,sans-Serif" font-size="10.00" fill="#000000">argo::backend::barrier</text>
</a>
</g>
</g>
<!-- Node18&#45;&gt;Node19 -->
<g id="edge19" class="edge">
<title>Node18&#45;&gt;Node19</title>
<path fill="none" stroke="#191970" d="M1165.7616,-199.968C1187.9029,-205.2931 1213.6116,-211.4762 1234.4166,-216.4799"/>
<polygon fill="#191970" stroke="#191970" points="1166.4113,-196.5245 1155.8701,-197.589 1164.7744,-203.3304 1166.4113,-196.5245"/>
</g>
<!-- Node20 -->
<g id="node19" class="node">
<title>Node20</title>
<g id="a_node19"><a xlink:href="swdsm_8h_acd175d6d8efa5cce6963bae64891a490.html#acd175d6d8efa5cce6963bae64891a490" target="_top" target="_top" xlink:title="Allocates memory in global address space. ">
<polygon fill="#ffffff" stroke="#000000" points="1232.5,-178.5 1232.5,-197.5 1315.5,-197.5 1315.5,-178.5 1232.5,-178.5"/>
<text text-anchor="middle" x="1274" y="-185.5" font-family="Helvetica,sans-Serif" font-size="10.00" fill="#000000">argo_gmalloc</text>
</a>
</g>
</g>
<!-- Node18&#45;&gt;Node20 -->
<g id="edge20" class="edge">
<title>Node18&#45;&gt;Node20</title>
<path fill="none" stroke="#191970" d="M1184.3948,-188C1200.6389,-188 1217.4922,-188 1232.14,-188"/>
<polygon fill="#191970" stroke="#191970" points="1184.3845,-184.5001 1174.3845,-188 1184.3844,-191.5001 1184.3845,-184.5001"/>
</g>
<!-- Node22 -->
<g id="node21" class="node">
<title>Node22</title>
<g id="a_node21"><a xlink:href="backend_8hpp_a1032f833666c3f810ac1c6210197d426.html#a1032f833666c3f810ac1c6210197d426" target="_top" target="_top" xlink:title="causes a node to self&#45;invalidate its cache, and thus getting any updated values on subsequent accesse...">
<polygon fill="#ffffff" stroke="#000000" points="1210,-122.5 1210,-141.5 1338,-141.5 1338,-122.5 1210,-122.5"/>
<text text-anchor="middle" x="1274" y="-129.5" font-family="Helvetica,sans-Serif" font-size="10.00" fill="#000000">argo::backend::acquire</text>
</a>
</g>
</g>
<!-- Node21&#45;&gt;Node22 -->
<g id="edge24" class="edge">
<title>Node21&#45;&gt;Node22</title>
<path fill="none" stroke="#191970" d="M1166.5231,-132C1180.3033,-132 1195.4182,-132 1209.8475,-132"/>
<polygon fill="#191970" stroke="#191970" points="1166.2789,-128.5001 1156.2789,-132 1166.2789,-135.5001 1166.2789,-128.5001"/>
</g>
<!-- Node23 -->
<g id="node22" class="node">
<title>Node23</title>
<g id="a_node22"><a xlink:href="swdsm_8h_ac0b665f72bc2a28dc663ed204c526e1b.html#ac0b665f72bc2a28dc663ed204c526e1b" target="_top" target="_top" xlink:title="acquire&#45;release function for ArgoDSM (Both acquire and release according to Release Consistency) ...">
<polygon fill="#ffffff" stroke="#000000" points="1234.5,-84.5 1234.5,-103.5 1313.5,-103.5 1313.5,-84.5 1234.5,-84.5"/>
<text text-anchor="middle" x="1274" y="-91.5" font-family="Helvetica,sans-Serif" font-size="10.00" fill="#000000">argo_acq_rel</text>
</a>
</g>
</g>
<!-- Node21&#45;&gt;Node23 -->
<g id="edge27" class="edge">
<title>Node21&#45;&gt;Node23</title>
<path fill="none" stroke="#191970" d="M1165.7616,-120.032C1187.9029,-114.7069 1213.6116,-108.5238 1234.4166,-103.5201"/>
<polygon fill="#191970" stroke="#191970" points="1164.7744,-116.6696 1155.8701,-122.411 1166.4113,-123.4755 1164.7744,-116.6696"/>
</g>
<!-- Node22&#45;&gt;Node9 -->
<g id="edge26" class="edge">
<title>Node22&#45;&gt;Node9</title>
<path fill="none" stroke="#191970" d="M1324.7537,-119.0611C1329.3339,-117.2622 1333.8171,-115.2474 1338,-113 1371.2161,-95.1533 1403.4115,-63.6481 1418.5348,-47.7531"/>
<polygon fill="#191970" stroke="#191970" points="1323.5138,-115.7874 1315.2809,-122.4559 1325.8755,-122.377 1323.5138,-115.7874"/>
</g>
<!-- Node22&#45;&gt;Node22 -->
<g id="edge25" class="edge">
<title>Node22&#45;&gt;Node22</title>
<path fill="none" stroke="#191970" d="M1245.6275,-150.6539C1246.8135,-155.9368 1256.271,-160 1274,-160 1301.0156,-160 1308.8248,-150.5653 1297.4276,-141.7571"/>
<polygon fill="#191970" stroke="#191970" points="1248.7735,-152.1981 1250.5724,-141.7571 1242.6551,-148.7974 1248.7735,-152.1981"/>
</g>
<!-- Node24&#45;&gt;Node23 -->
<g id="edge33" class="edge">
<title>Node24&#45;&gt;Node23</title>
<path fill="none" stroke="#191970" d="M1166.4252,-94C1188.3886,-94 1213.7577,-94 1234.3418,-94"/>
<polygon fill="#191970" stroke="#191970" points="1166.2789,-90.5001 1156.2789,-94 1166.2788,-97.5001 1166.2789,-90.5001"/>
</g>
<!-- Node25 -->
<g id="node24" class="node">
<title>Node25</title>
<g id="a_node24"><a xlink:href="backend_8hpp_a8953c9cd9d3c56306740b6c9b97513a2.html#a8953c9cd9d3c56306740b6c9b97513a2" target="_top" target="_top" xlink:title="causes a node to self&#45;downgrade its cache, making all previous writes to be propagated to the homenod...">
<polygon fill="#ffffff" stroke="#000000" points="1210,-28.5 1210,-47.5 1338,-47.5 1338,-28.5 1210,-28.5"/>
<text text-anchor="middle" x="1274" y="-35.5" font-family="Helvetica,sans-Serif" font-size="10.00" fill="#000000">argo::backend::release</text>
</a>
</g>
</g>
<!-- Node24&#45;&gt;Node25 -->
<g id="edge30" class="edge">
<title>Node24&#45;&gt;Node25</title>
<path fill="none" stroke="#191970" d="M1152.8955,-80.9231C1181.7787,-70.686 1221.2706,-56.6889 1247.1933,-47.5011"/>
<polygon fill="#191970" stroke="#191970" points="1151.4174,-77.7336 1143.1612,-84.3733 1153.7559,-84.3314 1151.4174,-77.7336"/>
</g>
<!-- Node25&#45;&gt;Node9 -->
<g id="edge32" class="edge">
<title>Node25&#45;&gt;Node9</title>
<path fill="none" stroke="#191970" d="M1348.2612,-38C1356.8631,-38 1365.5067,-38 1373.7592,-38"/>
<polygon fill="#191970" stroke="#191970" points="1348.2084,-34.5001 1338.2084,-38 1348.2084,-41.5001 1348.2084,-34.5001"/>
</g>
<!-- Node25&#45;&gt;Node25 -->
<g id="edge31" class="edge">
<title>Node25&#45;&gt;Node25</title>
<path fill="none" stroke="#191970" d="M1245.6275,-56.6539C1246.8135,-61.9368 1256.271,-66 1274,-66 1301.0156,-66 1308.8248,-56.5653 1297.4276,-47.7571"/>
<polygon fill="#191970" stroke="#191970" points="1248.7735,-58.1981 1250.5724,-47.7571 1242.6551,-54.7974 1248.7735,-58.1981"/>
</g>
<!-- Node27 -->
<g id="node26" class="node">
<title>Node27</title>
<g id="a_node26"><a xlink:href="classwrite__buffer_aa6a1c2c3aa3a7cde744bbca3b14f599a.html#aa6a1c2c3aa3a7cde744bbca3b14f599a" target="_top" target="_top" xlink:title="Flushes first _write_back_size elements of the ArgoDSM write buffer to memory. ">
<polygon fill="#ffffff" stroke="#000000" points="783,-255 783,-285 887,-285 887,-255 783,-255"/>
<text text-anchor="start" x="791" y="-273" font-family="Helvetica,sans-Serif" font-size="10.00" fill="#000000">write_buffer::flush</text>
<text text-anchor="middle" x="835" y="-262" font-family="Helvetica,sans-Serif" font-size="10.00" fill="#000000">_partial</text>
</a>
</g>
</g>
<!-- Node26&#45;&gt;Node27 -->
<g id="edge35" class="edge">
<title>Node26&#45;&gt;Node27</title>
<path fill="none" stroke="#191970" d="M749.2791,-270C760.362,-270 771.8486,-270 782.6741,-270"/>
<polygon fill="#191970" stroke="#191970" points="749.245,-266.5001 739.2449,-270 749.2449,-273.5001 749.245,-266.5001"/>
</g>
<!-- Node28 -->
<g id="node27" class="node">
<title>Node28</title>
<g id="a_node27"><a xlink:href="classwrite__buffer_a23b0dbc463111cacbbf83b267e76ac9f.html#a23b0dbc463111cacbbf83b267e76ac9f" target="_top" target="_top" xlink:title="Adds a new element to the write buffer. ">
<polygon fill="#ffffff" stroke="#000000" points="923,-263.5 923,-282.5 1022,-282.5 1022,-263.5 923,-263.5"/>
<text text-anchor="middle" x="972.5" y="-270.5" font-family="Helvetica,sans-Serif" font-size="10.00" fill="#000000">write_buffer::add</text>
</a>
</g>
</g>
<!-- Node27&#45;&gt;Node28 -->
<g id="edge36" class="edge">
<title>Node27&#45;&gt;Node28</title>
<path fill="none" stroke="#191970" d="M897.6432,-271.3668C906.1411,-271.5522 914.7644,-271.7403 922.9884,-271.9197"/>
<polygon fill="#191970" stroke="#191970" points="897.4491,-267.8618 887.3751,-271.1427 897.2963,-274.8601 897.4491,-267.8618"/>
</g>
<!-- Node28&#45;&gt;Node3 -->
<g id="edge37" class="edge">
<title>Node28&#45;&gt;Node3</title>
<path fill="none" stroke="#191970" d="M998.5864,-287.3611C1027.6152,-303.3422 1073.7065,-328.7165 1098.6292,-342.437"/>
<polygon fill="#191970" stroke="#191970" points="1000.2577,-284.2859 989.8095,-282.5292 996.8817,-290.4181 1000.2577,-284.2859"/>
</g>
</g>
</svg>
        <g id="navigator" transform="translate(0 0)" fill="#404254">
                <rect fill="#f2f5e9" fill-opacity="0.5" stroke="#606060" stroke-width=".5" x="0" y="0" width="60" height="60"/>
                <use id="zoomplus" xlink:href="#zoomPlus" target="_top" x="17" y="9" onmousedown="handleZoom(evt,'in')"/>
                <use id="zoomminus" xlink:href="#zoomMin" target="_top" x="42" y="9" onmousedown="handleZoom(evt,'out')"/>
                <use id="reset" xlink:href="#resetDef" target="_top" x="30" y="36" onmousedown="handleReset()"/>
                <g id="arrowUp" xlink:href="#dirArrow" target="_top" transform="translate(30 24)" onmousedown="handlePan(0,-1)">
                  <use xlink:href="#rim" target="_top" fill="#404040">
                        <set attributeName="fill" to="#808080" begin="arrowUp.mouseover" end="arrowUp.mouseout"/>
                  </use>
                  <path fill="none" stroke="white" stroke-width="1.5" d="M0,-3.0v7 M-2.5,-0.5L0,-3.0L2.5,-0.5"/>
                </g>
                <g id="arrowRight" xlink:href="#dirArrow" target="_top" transform="rotate(90) translate(36 -43)" onmousedown="handlePan(1,0)">
                  <use xlink:href="#rim" target="_top" fill="#404040">
                        <set attributeName="fill" to="#808080" begin="arrowRight.mouseover" end="arrowRight.mouseout"/>
                  </use>
                  <path fill="none" stroke="white" stroke-width="1.5" d="M0,-3.0v7 M-2.5,-0.5L0,-3.0L2.5,-0.5"/>
                </g>
                <g id="arrowDown" xlink:href="#dirArrow" target="_top" transform="rotate(180) translate(-30 -48)" onmousedown="handlePan(0,1)">
                  <use xlink:href="#rim" target="_top" fill="#404040">
                        <set attributeName="fill" to="#808080" begin="arrowDown.mouseover" end="arrowDown.mouseout"/>
                  </use>
                  <path fill="none" stroke="white" stroke-width="1.5" d="M0,-3.0v7 M-2.5,-0.5L0,-3.0L2.5,-0.5"/>
                </g>
                <g id="arrowLeft" xlink:href="#dirArrow" target="_top" transform="rotate(270) translate(-36 17)" onmousedown="handlePan(-1,0)">
                  <use xlink:href="#rim" target="_top" fill="#404040">
                        <set attributeName="fill" to="#808080" begin="arrowLeft.mouseover" end="arrowLeft.mouseout"/>
                  </use>
                  <path fill="none" stroke="white" stroke-width="1.5" d="M0,-3.0v7 M-2.5,-0.5L0,-3.0L2.5,-0.5"/>
                </g>
        </g>
        <svg viewBox="0 0 15 15" width="100%" height="30px" preserveAspectRatio="xMaxYMin meet">
         <g id="arrow_out" transform="scale(0.3 0.3)">
          <a xlink:href="namespaceargo_1_1data__distribution_a58576657391f45caf61bf0748a23b098_a58576657391f45caf61bf0748a23b098_icgraph_org.svg" target="_top" target="_base">
           <rect id="button" ry="5" rx="5" y="6" x="6" height="38" width="38"
                fill="#f2f5e9" fill-opacity="0.5" stroke="#606060" stroke-width="1.0"/>
           <path id="arrow"
             d="M 11.500037,31.436501 C 11.940474,20.09759 22.043105,11.32322 32.158766,21.979434 L 37.068811,17.246167 C 37.068811,17.246167 37.088388,32 37.088388,32 L 22.160133,31.978069 C 22.160133,31.978069 26.997745,27.140456 26.997745,27.140456 C 18.528582,18.264221 13.291696,25.230495 11.500037,31.436501 z"
             style="fill:#404040;"/>
          </a>
         </g>
        </svg>
</svg>
