<?xml version="1.0" encoding="UTF-8" standalone="no"?>
<!DOCTYPE svg PUBLIC "-//W3C//DTD SVG 1.1//EN"
 "http://www.w3.org/Graphics/SVG/1.1/DTD/svg11.dtd">
<!-- Generated by graphviz version 2.40.1 (20161225.0304)
 -->
<!-- Title: argo::data_distribution::is_cyclic_policy Pages: 1 -->
<!--zoomable 367 -->
<svg id="main" version="1.1" xmlns="http://www.w3.org/2000/svg" xmlns:xlink="http://www.w3.org/1999/xlink" xml:space="preserve" onload="init(evt)">
<style type="text/css"><![CDATA[
.edge:hover path { stroke: red; }
.edge:hover polygon { stroke: red; fill: red; }
]]></style>
<script type="text/javascript"><![CDATA[
var edges = document.getElementsByTagName('g');
if (edges && edges.length) {
  for (var i=0;i<edges.length;i++) {
    if (edges[i].id.substr(0,4)=='edge') {
      edges[i].setAttribute('class','edge');
    }
  }
}
]]></script>
        <defs>
                <circle id="rim" cx="0" cy="0" r="7"/>
                <circle id="rim2" cx="0" cy="0" r="3.5"/>
                <g id="zoomPlus">
                        <use xlink:href="#rim" target="_top" fill="#404040">
                                <set attributeName="fill" to="#808080" begin="zoomplus.mouseover" end="zoomplus.mouseout"/>
                        </use>
                        <path d="M-4,0h8M0,-4v8" fill="none" stroke="white" stroke-width="1.5" pointer-events="none"/>
                </g>
                <g id="zoomMin">
                        <use xlink:href="#rim" target="_top" fill="#404040">
                                <set attributeName="fill" to="#808080" begin="zoomminus.mouseover" end="zoomminus.mouseout"/>
                        </use>
                        <path d="M-4,0h8" fill="none" stroke="white" stroke-width="1.5" pointer-events="none"/>
                </g>
                <g id="dirArrow">
                        <path fill="none" stroke="white" stroke-width="1.5" d="M0,-3.0v7 M-2.5,-0.5L0,-3.0L2.5,-0.5"/>
                </g>
               <g id="resetDef">
                       <use xlink:href="#rim2" target="_top" fill="#404040">
                               <set attributeName="fill" to="#808080" begin="reset.mouseover" end="reset.mouseout"/>
                       </use>
               </g>
        </defs>

<script type="text/javascript">
var viewWidth = 1643;
var viewHeight = 367;
var sectionId = 'dynsection-1';
</script>
<script xlink:href="svgpan.js" target="_top"/>
<svg id="graph" class="graph">
<g id="viewport">
<title>argo::data_distribution::is_cyclic_policy</title>
<polygon fill="#ffffff" stroke="transparent" points="-4,4 -4,-362.5 1639,-362.5 1639,4 -4,4"/>
<!-- Node2 -->
<g id="node1" class="node">
<title>Node2</title>
<polygon fill="#bfbfbf" stroke="#000000" points="0,-265 0,-295 127,-295 127,-265 0,-265"/>
<text text-anchor="start" x="8" y="-283" font-family="Helvetica,sans-Serif" font-size="10.00" fill="#000000">argo::data_distribution</text>
<text text-anchor="middle" x="63.5" y="-272" font-family="Helvetica,sans-Serif" font-size="10.00" fill="#000000">::is_cyclic_policy</text>
</g>
<!-- Node3 -->
<g id="node2" class="node">
<title>Node3</title>
<g id="a_node2"><a xlink:href="namespaceargo_1_1data__distribution_acc3c36c6299a0636d31774e216102de1.html#acc3c36c6299a0636d31774e216102de1" target="_top" target="_top" xlink:title="based on the chosen policy, gets the required size we need to add to the standardisation of the ArgoD...">
<polygon fill="#ffffff" stroke="#000000" points="326,-328 326,-358 453,-358 453,-328 326,-328"/>
<text text-anchor="start" x="334" y="-346" font-family="Helvetica,sans-Serif" font-size="10.00" fill="#000000">argo::data_distribution</text>
<text text-anchor="middle" x="389.5" y="-335" font-family="Helvetica,sans-Serif" font-size="10.00" fill="#000000">::policy_padding</text>
</a>
</g>
</g>
<!-- Node2&#45;&gt;Node3 -->
<g id="edge1" class="edge">
<title>Node2&#45;&gt;Node3</title>
<path fill="none" stroke="#191970" d="M130.0986,-297.5137C141.0573,-300.1706 152.3217,-302.7665 163,-305 217.6391,-316.4285 280.2565,-326.7219 325.785,-333.7036"/>
<polygon fill="#191970" stroke="#191970" points="130.6926,-294.0555 120.146,-295.0651 129.0202,-300.8528 130.6926,-294.0555"/>
</g>
<!-- Node6 -->
<g id="node5" class="node">
<title>Node6</title>
<g id="a_node5"><a xlink:href="namespaceargo_1_1data__distribution_a2a70ed49553953957c3a28aa755d7ac8.html#a2a70ed49553953957c3a28aa755d7ac8" target="_top" target="_top" xlink:title="based on the chosen policy, gets the policy block size ">
<polygon fill="#ffffff" stroke="#000000" points="163,-265 163,-295 290,-295 290,-265 163,-265"/>
<text text-anchor="start" x="171" y="-283" font-family="Helvetica,sans-Serif" font-size="10.00" fill="#000000">argo::data_distribution</text>
<text text-anchor="middle" x="226.5" y="-272" font-family="Helvetica,sans-Serif" font-size="10.00" fill="#000000">::policy_block_size</text>
</a>
</g>
</g>
<!-- Node2&#45;&gt;Node6 -->
<g id="edge4" class="edge">
<title>Node2&#45;&gt;Node6</title>
<path fill="none" stroke="#191970" d="M137.6881,-280C146.1415,-280 154.7005,-280 162.9977,-280"/>
<polygon fill="#191970" stroke="#191970" points="137.4541,-276.5001 127.4541,-280 137.4541,-283.5001 137.4541,-276.5001"/>
</g>
<!-- Node31 -->
<g id="node30" class="node">
<title>Node31</title>
<g id="a_node30"><a xlink:href="api_8cpp_a42290e9787e669eb9618124225ff8010.html#a42290e9787e669eb9618124225ff8010" target="_top" target="_top" xlink:title="Unittest that checks that argo::get_block_size() is consistent with argo::env::block_size() for all c...">
<polygon fill="#ffffff" stroke="#000000" points="522,-226.5 522,-245.5 573,-245.5 573,-226.5 522,-226.5"/>
<text text-anchor="middle" x="547.5" y="-233.5" font-family="Helvetica,sans-Serif" font-size="10.00" fill="#000000">TEST_F</text>
</a>
</g>
</g>
<!-- Node2&#45;&gt;Node31 -->
<g id="edge37" class="edge">
<title>Node2&#45;&gt;Node31</title>
<path fill="none" stroke="#191970" d="M127.9422,-262.6265C139.5409,-260.0238 151.5753,-257.6604 163,-256 296.9512,-236.5319 459.5713,-235.3488 521.6911,-235.7046"/>
<polygon fill="#191970" stroke="#191970" points="126.8357,-259.2903 117.8879,-264.9636 128.4206,-266.1085 126.8357,-259.2903"/>
</g>
<!-- Node4 -->
<g id="node3" class="node">
<title>Node4</title>
<g id="a_node3"><a xlink:href="swdsm_8h_a10dca85d339ce630cf42dca685b3f6d9.html#a10dca85d339ce630cf42dca685b3f6d9" target="_top" target="_top" xlink:title="Initializes ArgoDSM runtime. ">
<polygon fill="#ffffff" stroke="#000000" points="1395.5,-302.5 1395.5,-321.5 1481.5,-321.5 1481.5,-302.5 1395.5,-302.5"/>
<text text-anchor="middle" x="1438.5" y="-309.5" font-family="Helvetica,sans-Serif" font-size="10.00" fill="#000000">argo_initialize</text>
</a>
</g>
</g>
<!-- Node3&#45;&gt;Node4 -->
<g id="edge2" class="edge">
<title>Node3&#45;&gt;Node4</title>
<path fill="none" stroke="#191970" d="M463.3406,-345.6009C526.2446,-347.5922 619.0437,-350 700,-350 700,-350 700,-350 1127,-350 1223.431,-350 1335.4263,-331.8344 1395.3652,-320.6228"/>
<polygon fill="#191970" stroke="#191970" points="463.2274,-342.0956 453.1202,-345.2727 463.0027,-349.092 463.2274,-342.0956"/>
</g>
<!-- Node5 -->
<g id="node4" class="node">
<title>Node5</title>
<g id="a_node4"><a xlink:href="backend_8hpp_af0d80a03a17a374c10d9635ddf81e261.html#af0d80a03a17a374c10d9635ddf81e261" target="_top" target="_top" xlink:title="initialize backend ">
<polygon fill="#ffffff" stroke="#000000" points="1528,-302.5 1528,-321.5 1635,-321.5 1635,-302.5 1528,-302.5"/>
<text text-anchor="middle" x="1581.5" y="-309.5" font-family="Helvetica,sans-Serif" font-size="10.00" fill="#000000">argo::backend::init</text>
</a>
</g>
</g>
<!-- Node4&#45;&gt;Node5 -->
<g id="edge3" class="edge">
<title>Node4&#45;&gt;Node5</title>
<path fill="none" stroke="#191970" d="M1491.933,-312C1503.7171,-312 1516.2019,-312 1527.9891,-312"/>
<polygon fill="#191970" stroke="#191970" points="1491.7928,-308.5001 1481.7928,-312 1491.7927,-315.5001 1491.7928,-308.5001"/>
</g>
<!-- Node7 -->
<g id="node6" class="node">
<title>Node7</title>
<g id="a_node6"><a xlink:href="namespaceargo_a2f35b6b6e0af76fb8fb47f2031d6f58e.html#a2f35b6b6e0af76fb8fb47f2031d6f58e" target="_top" target="_top" xlink:title="Get the block size of the current allocation policy. ">
<polygon fill="#ffffff" stroke="#000000" points="331.5,-267.5 331.5,-286.5 447.5,-286.5 447.5,-267.5 331.5,-267.5"/>
<text text-anchor="middle" x="389.5" y="-274.5" font-family="Helvetica,sans-Serif" font-size="10.00" fill="#000000">argo::get_block_size</text>
</a>
</g>
</g>
<!-- Node6&#45;&gt;Node7 -->
<g id="edge5" class="edge">
<title>Node6&#45;&gt;Node7</title>
<path fill="none" stroke="#191970" d="M300.6562,-278.6352C310.9352,-278.446 321.3712,-278.2539 331.3032,-278.0711"/>
<polygon fill="#191970" stroke="#191970" points="300.388,-275.1394 290.4541,-278.8229 300.5168,-282.1382 300.388,-275.1394"/>
</g>
<!-- Node8 -->
<g id="node7" class="node">
<title>Node8</title>
<g id="a_node7"><a xlink:href="argo_8h_ad0931c5341a3b07302a3a019834280f6.html#ad0931c5341a3b07302a3a019834280f6" target="_top" target="_top" xlink:title="Get the block size of the current allocation policy. ">
<polygon fill="#ffffff" stroke="#000000" points="489.5,-302.5 489.5,-321.5 605.5,-321.5 605.5,-302.5 489.5,-302.5"/>
<text text-anchor="middle" x="547.5" y="-309.5" font-family="Helvetica,sans-Serif" font-size="10.00" fill="#000000">argo_get_block_size</text>
</a>
</g>
</g>
<!-- Node7&#45;&gt;Node8 -->
<g id="edge6" class="edge">
<title>Node7&#45;&gt;Node8</title>
<path fill="none" stroke="#191970" d="M442.6142,-288.7658C462.7075,-293.2169 485.3126,-298.2243 504.378,-302.4477"/>
<polygon fill="#191970" stroke="#191970" points="443.1945,-285.3096 432.6742,-286.5639 441.6805,-292.1439 443.1945,-285.3096"/>
</g>
<!-- Node9 -->
<g id="node8" class="node">
<title>Node9</title>
<g id="a_node8"><a xlink:href="namespaceargo_a48dc17c94275df10a8e7f3959cbf0191.html#a48dc17c94275df10a8e7f3959cbf0191" target="_top" target="_top" xlink:title="Get the ArgoDSM node id where addr is physically backed. ">
<polygon fill="#ffffff" stroke="#000000" points="489,-264.5 489,-283.5 606,-283.5 606,-264.5 489,-264.5"/>
<text text-anchor="middle" x="547.5" y="-271.5" font-family="Helvetica,sans-Serif" font-size="10.00" fill="#000000">argo::get_homenode</text>
</a>
</g>
</g>
<!-- Node7&#45;&gt;Node9 -->
<g id="edge7" class="edge">
<title>Node7&#45;&gt;Node9</title>
<path fill="none" stroke="#191970" d="M458.0382,-275.6986C468.2981,-275.5038 478.7976,-275.3045 488.828,-275.114"/>
<polygon fill="#191970" stroke="#191970" points="457.8162,-272.2021 447.8845,-275.8914 457.9491,-279.2009 457.8162,-272.2021"/>
</g>
<!-- Node7&#45;&gt;Node31 -->
<g id="edge36" class="edge">
<title>Node7&#45;&gt;Node31</title>
<path fill="none" stroke="#191970" d="M436.1414,-264.8968C464.1707,-257.6234 498.7701,-248.6451 521.895,-242.6443"/>
<polygon fill="#191970" stroke="#191970" points="434.9458,-261.5911 426.1455,-267.4907 436.7041,-268.3667 434.9458,-261.5911"/>
</g>
<!-- Node10 -->
<g id="node9" class="node">
<title>Node10</title>
<g id="a_node9"><a xlink:href="argo_8h_aa4a06a633ece5fbb94b9d8f0a6479e4c.html#aa4a06a633ece5fbb94b9d8f0a6479e4c" target="_top" target="_top" xlink:title="Get the ArgoDSM node id where addr is physically backed. ">
<polygon fill="#ffffff" stroke="#000000" points="642,-264.5 642,-283.5 758,-283.5 758,-264.5 642,-264.5"/>
<text text-anchor="middle" x="700" y="-271.5" font-family="Helvetica,sans-Serif" font-size="10.00" fill="#000000">argo_get_homenode</text>
</a>
</g>
</g>
<!-- Node9&#45;&gt;Node10 -->
<g id="edge8" class="edge">
<title>Node9&#45;&gt;Node10</title>
<path fill="none" stroke="#191970" d="M616.0608,-274C624.6851,-274 633.442,-274 641.884,-274"/>
<polygon fill="#191970" stroke="#191970" points="616.0244,-270.5001 606.0243,-274 616.0243,-277.5001 616.0244,-270.5001"/>
</g>
<!-- Node11 -->
<g id="node10" class="node">
<title>Node11</title>
<g id="a_node10"><a xlink:href="classwrite__buffer_aa2325346aceb3e7ffdbdbdc8e8682147.html#aa2325346aceb3e7ffdbdbdc8e8682147" target="_top" target="_top" xlink:title="Sorts all elements by home node id in ascending order. ">
<polygon fill="#ffffff" stroke="#000000" points="650,-170.5 650,-189.5 750,-189.5 750,-170.5 650,-170.5"/>
<text text-anchor="middle" x="700" y="-177.5" font-family="Helvetica,sans-Serif" font-size="10.00" fill="#000000">write_buffer::sort</text>
</a>
</g>
</g>
<!-- Node9&#45;&gt;Node11 -->
<g id="edge9" class="edge">
<title>Node9&#45;&gt;Node11</title>
<path fill="none" stroke="#191970" d="M597.5826,-260.2138C600.5347,-258.652 603.3691,-256.9199 606,-255 628.1196,-238.8585 620.654,-222.1515 642,-205 650.0348,-198.5441 659.989,-193.4585 669.3697,-189.6075"/>
<polygon fill="#191970" stroke="#191970" points="596.0847,-257.0502 588.4594,-264.4059 599.0074,-263.4109 596.0847,-257.0502"/>
</g>
<!-- Node26 -->
<g id="node25" class="node">
<title>Node26</title>
<g id="a_node25"><a xlink:href="classwrite__buffer_a9e8cf81e623c4bb67f687379f8709a53.html#a9e8cf81e623c4bb67f687379f8709a53" target="_top" target="_top" xlink:title="Sorts the first _write_back_size elements by home node id in ascending order. ">
<polygon fill="#ffffff" stroke="#000000" points="650,-215 650,-245 750,-245 750,-215 650,-215"/>
<text text-anchor="start" x="658" y="-233" font-family="Helvetica,sans-Serif" font-size="10.00" fill="#000000">write_buffer::sort</text>
<text text-anchor="middle" x="700" y="-222" font-family="Helvetica,sans-Serif" font-size="10.00" fill="#000000">_first</text>
</a>
</g>
</g>
<!-- Node9&#45;&gt;Node26 -->
<g id="edge30" class="edge">
<title>Node9&#45;&gt;Node26</title>
<path fill="none" stroke="#191970" d="M590.2258,-261.6726C608.7521,-256.3273 630.5751,-250.0308 649.8628,-244.4658"/>
<polygon fill="#191970" stroke="#191970" points="589.228,-258.3176 580.5902,-264.4527 591.1686,-265.0432 589.228,-258.3176"/>
</g>
<!-- Node30 -->
<g id="node29" class="node">
<title>Node30</title>
<g id="a_node29"><a xlink:href="api_8cpp_a6255f7c304a854275724ca1df48fab28.html#a6255f7c304a854275724ca1df48fab28" target="_top" target="_top" xlink:title="Unittest that checks correctness of the argo::get_homenode(T* addr) API function. ...">
<polygon fill="#ffffff" stroke="#000000" points="674.5,-302.5 674.5,-321.5 725.5,-321.5 725.5,-302.5 674.5,-302.5"/>
<text text-anchor="middle" x="700" y="-309.5" font-family="Helvetica,sans-Serif" font-size="10.00" fill="#000000">TEST_F</text>
</a>
</g>
</g>
<!-- Node9&#45;&gt;Node30 -->
<g id="edge35" class="edge">
<title>Node9&#45;&gt;Node30</title>
<path fill="none" stroke="#191970" d="M595.7096,-286.0129C621.8224,-292.5197 653.0328,-300.2967 674.4642,-305.637"/>
<polygon fill="#191970" stroke="#191970" points="596.5318,-282.6108 585.9822,-283.589 594.8392,-289.4031 596.5318,-282.6108"/>
</g>
<!-- Node12 -->
<g id="node11" class="node">
<title>Node12</title>
<g id="a_node11"><a xlink:href="classwrite__buffer_aca2e330e17a38c1cc8d8c60701ce9dd7.html#aca2e330e17a38c1cc8d8c60701ce9dd7" target="_top" target="_top" xlink:title="Flushes the ArgoDSM write buffer to memory. ">
<polygon fill="#ffffff" stroke="#000000" points="794,-163.5 794,-182.5 898,-182.5 898,-163.5 794,-163.5"/>
<text text-anchor="middle" x="846" y="-170.5" font-family="Helvetica,sans-Serif" font-size="10.00" fill="#000000">write_buffer::flush</text>
</a>
</g>
</g>
<!-- Node11&#45;&gt;Node12 -->
<g id="edge10" class="edge">
<title>Node11&#45;&gt;Node12</title>
<path fill="none" stroke="#191970" d="M760.2791,-177.1099C771.362,-176.5785 782.8486,-176.0278 793.6741,-175.5088"/>
<polygon fill="#191970" stroke="#191970" points="760.0658,-173.616 750.2449,-177.591 760.4011,-180.608 760.0658,-173.616"/>
</g>
<!-- Node13 -->
<g id="node12" class="node">
<title>Node13</title>
<g id="a_node12"><a xlink:href="swdsm_8h_aa7c3a2de6bbafdaf68fe6ceb6110ab97.html#aa7c3a2de6bbafdaf68fe6ceb6110ab97" target="_top" target="_top" xlink:title="Self&#45;Invalidates all memory that has potential writers. ">
<polygon fill="#ffffff" stroke="#000000" points="934.5,-150.5 934.5,-169.5 1032.5,-169.5 1032.5,-150.5 934.5,-150.5"/>
<text text-anchor="middle" x="983.5" y="-157.5" font-family="Helvetica,sans-Serif" font-size="10.00" fill="#000000">self_invalidation</text>
</a>
</g>
</g>
<!-- Node12&#45;&gt;Node13 -->
<g id="edge11" class="edge">
<title>Node12&#45;&gt;Node13</title>
<path fill="none" stroke="#191970" d="M908.494,-167.0915C917.1954,-166.2688 926.0315,-165.4334 934.4386,-164.6385"/>
<polygon fill="#191970" stroke="#191970" points="908.0012,-163.6224 898.3751,-168.0482 908.6602,-170.5913 908.0012,-163.6224"/>
</g>
<!-- Node14 -->
<g id="node13" class="node">
<title>Node14</title>
<g id="a_node13"><a xlink:href="swdsm_8h_ad3f5bdae81c60ac704dda7372792427d.html#ad3f5bdae81c60ac704dda7372792427d" target="_top" target="_top" xlink:title="Global barrier for ArgoDSM &#45; needs to be called by every thread in the system that need coherent view...">
<polygon fill="#ffffff" stroke="#000000" points="1069,-188.5 1069,-207.5 1185,-207.5 1185,-188.5 1069,-188.5"/>
<text text-anchor="middle" x="1127" y="-195.5" font-family="Helvetica,sans-Serif" font-size="10.00" fill="#000000">swdsm_argo_barrier</text>
</a>
</g>
</g>
<!-- Node12&#45;&gt;Node14 -->
<g id="edge24" class="edge">
<title>Node12&#45;&gt;Node14</title>
<path fill="none" stroke="#191970" d="M908.4382,-178.555C956.3367,-182.8164 1021.9674,-188.6555 1068.7806,-192.8203"/>
<polygon fill="#191970" stroke="#191970" points="908.4662,-175.0438 898.1954,-177.6437 907.8459,-182.0162 908.4662,-175.0438"/>
</g>
<!-- Node24 -->
<g id="node23" class="node">
<title>Node24</title>
<g id="a_node23"><a xlink:href="swdsm_8h_ad390eb58e1be03ed6a0939fae7ebd20a.html#ad390eb58e1be03ed6a0939fae7ebd20a" target="_top" target="_top" xlink:title="Release function for ArgoDSM (Release according to Release Consistency) ">
<polygon fill="#ffffff" stroke="#000000" points="1087,-56.5 1087,-75.5 1167,-75.5 1167,-56.5 1087,-56.5"/>
<text text-anchor="middle" x="1127" y="-63.5" font-family="Helvetica,sans-Serif" font-size="10.00" fill="#000000">argo_release</text>
</a>
</g>
</g>
<!-- Node12&#45;&gt;Node24 -->
<g id="edge25" class="edge">
<title>Node12&#45;&gt;Node24</title>
<path fill="none" stroke="#191970" d="M878.3607,-159.5312C921.5455,-141.7184 1000.5334,-109.6989 1069,-85 1077.9705,-81.7639 1087.8022,-78.4549 1096.7809,-75.5242"/>
<polygon fill="#191970" stroke="#191970" points="876.8468,-156.3697 868.9427,-163.425 879.5213,-162.8386 876.8468,-156.3697"/>
</g>
<!-- Node13&#45;&gt;Node14 -->
<g id="edge12" class="edge">
<title>Node13&#45;&gt;Node14</title>
<path fill="none" stroke="#191970" d="M1029.4735,-172.1742C1049.3164,-177.4287 1072.1928,-183.4866 1090.8005,-188.4141"/>
<polygon fill="#191970" stroke="#191970" points="1030.2739,-168.7655 1019.7111,-169.589 1028.4819,-175.5323 1030.2739,-168.7655"/>
</g>
<!-- Node20 -->
<g id="node19" class="node">
<title>Node20</title>
<g id="a_node19"><a xlink:href="swdsm_8h_a44b8bb7a3c8b47b4f9552c8e10b25e4b.html#a44b8bb7a3c8b47b4f9552c8e10b25e4b" target="_top" target="_top" xlink:title="acquire function for ArgoDSM (Acquire according to Release Consistency) ">
<polygon fill="#ffffff" stroke="#000000" points="1087,-94.5 1087,-113.5 1167,-113.5 1167,-94.5 1087,-94.5"/>
<text text-anchor="middle" x="1127" y="-101.5" font-family="Helvetica,sans-Serif" font-size="10.00" fill="#000000">argo_acquire</text>
</a>
</g>
</g>
<!-- Node13&#45;&gt;Node20 -->
<g id="edge19" class="edge">
<title>Node13&#45;&gt;Node20</title>
<path fill="none" stroke="#191970" d="M1017.699,-146.6541C1043.8676,-136.4419 1079.3153,-122.6086 1102.6534,-113.5011"/>
<polygon fill="#191970" stroke="#191970" points="1016.2119,-143.4772 1008.1685,-150.3733 1018.7567,-149.9983 1016.2119,-143.4772"/>
</g>
<!-- Node15 -->
<g id="node14" class="node">
<title>Node15</title>
<g id="a_node14"><a xlink:href="backend_8hpp_af1a647431651556204709451bebb5a42.html#af1a647431651556204709451bebb5a42" target="_top" target="_top" xlink:title="a simple collective barrier ">
<polygon fill="#ffffff" stroke="#000000" points="1223,-188.5 1223,-207.5 1347,-207.5 1347,-188.5 1223,-188.5"/>
<text text-anchor="middle" x="1285" y="-195.5" font-family="Helvetica,sans-Serif" font-size="10.00" fill="#000000">argo::backend::barrier</text>
</a>
</g>
</g>
<!-- Node14&#45;&gt;Node15 -->
<g id="edge13" class="edge">
<title>Node14&#45;&gt;Node15</title>
<path fill="none" stroke="#191970" d="M1195.5403,-198C1204.6296,-198 1213.9068,-198 1222.8793,-198"/>
<polygon fill="#191970" stroke="#191970" points="1195.3845,-194.5001 1185.3845,-198 1195.3844,-201.5001 1195.3845,-194.5001"/>
</g>
<!-- Node16 -->
<g id="node15" class="node">
<title>Node16</title>
<g id="a_node15"><a xlink:href="swdsm_8h_acd175d6d8efa5cce6963bae64891a490.html#acd175d6d8efa5cce6963bae64891a490" target="_top" target="_top" xlink:title="Allocates memory in global address space. ">
<polygon fill="#ffffff" stroke="#000000" points="1243.5,-150.5 1243.5,-169.5 1326.5,-169.5 1326.5,-150.5 1243.5,-150.5"/>
<text text-anchor="middle" x="1285" y="-157.5" font-family="Helvetica,sans-Serif" font-size="10.00" fill="#000000">argo_gmalloc</text>
</a>
</g>
</g>
<!-- Node14&#45;&gt;Node16 -->
<g id="edge14" class="edge">
<title>Node14&#45;&gt;Node16</title>
<path fill="none" stroke="#191970" d="M1176.7616,-186.032C1198.9029,-180.7069 1224.6116,-174.5238 1245.4166,-169.5201"/>
<polygon fill="#191970" stroke="#191970" points="1175.7744,-182.6696 1166.8701,-188.411 1177.4113,-189.4755 1175.7744,-182.6696"/>
</g>
<!-- Node17 -->
<g id="node16" class="node">
<title>Node17</title>
<g id="a_node16"><a xlink:href="swdsm_8cpp_aa954d5e0bcaee69ff6e03e697bcaf68b.html#aa954d5e0bcaee69ff6e03e697bcaf68b" target="_top" target="_top" xlink:title="shut down ArgoDSM system ">
<polygon fill="#ffffff" stroke="#000000" points="1245.5,-226.5 1245.5,-245.5 1324.5,-245.5 1324.5,-226.5 1245.5,-226.5"/>
<text text-anchor="middle" x="1285" y="-233.5" font-family="Helvetica,sans-Serif" font-size="10.00" fill="#000000">argo_finalize</text>
</a>
</g>
</g>
<!-- Node14&#45;&gt;Node17 -->
<g id="edge15" class="edge">
<title>Node14&#45;&gt;Node17</title>
<path fill="none" stroke="#191970" d="M1176.7616,-209.968C1198.9029,-215.2931 1224.6116,-221.4762 1245.4166,-226.4799"/>
<polygon fill="#191970" stroke="#191970" points="1177.4113,-206.5245 1166.8701,-207.589 1175.7744,-213.3304 1177.4113,-206.5245"/>
</g>
<!-- Node19 -->
<g id="node18" class="node">
<title>Node19</title>
<g id="a_node18"><a xlink:href="swdsm_8h_a0c6b51af2b87ddf7eb04aa7d4e0e836e.html#a0c6b51af2b87ddf7eb04aa7d4e0e836e" target="_top" target="_top" xlink:title="Resets current coherence. Collective function called by all threads on all nodes. ...">
<polygon fill="#ffffff" stroke="#000000" points="1223,-264.5 1223,-283.5 1347,-283.5 1347,-264.5 1223,-264.5"/>
<text text-anchor="middle" x="1285" y="-271.5" font-family="Helvetica,sans-Serif" font-size="10.00" fill="#000000">argo_reset_coherence</text>
</a>
</g>
</g>
<!-- Node14&#45;&gt;Node19 -->
<g id="edge17" class="edge">
<title>Node14&#45;&gt;Node19</title>
<path fill="none" stroke="#191970" d="M1148.7121,-213.381C1167.2237,-225.9417 1194.9051,-243.4454 1221,-255 1229.1604,-258.6134 1238.2019,-261.772 1246.8561,-264.4225"/>
<polygon fill="#191970" stroke="#191970" points="1150.6289,-210.4513 1140.4084,-207.6596 1146.6572,-216.2155 1150.6289,-210.4513"/>
</g>
<!-- Node18 -->
<g id="node17" class="node">
<title>Node18</title>
<g id="a_node17"><a xlink:href="swdsm_8h_a18cc89a7368e30281ea4b1d214a1b1ff.html#a18cc89a7368e30281ea4b1d214a1b1ff" target="_top" target="_top" xlink:title="Pins and registers the local thread. ">
<polygon fill="#ffffff" stroke="#000000" points="1388,-226.5 1388,-245.5 1489,-245.5 1489,-226.5 1388,-226.5"/>
<text text-anchor="middle" x="1438.5" y="-233.5" font-family="Helvetica,sans-Serif" font-size="10.00" fill="#000000">argo_pin_threads</text>
</a>
</g>
</g>
<!-- Node17&#45;&gt;Node18 -->
<g id="edge16" class="edge">
<title>Node17&#45;&gt;Node18</title>
<path fill="none" stroke="#191970" d="M1334.8002,-236C1351.7693,-236 1370.7517,-236 1387.7913,-236"/>
<polygon fill="#191970" stroke="#191970" points="1334.5301,-232.5001 1324.5301,-236 1334.53,-239.5001 1334.5301,-232.5001"/>
</g>
<!-- Node19&#45;&gt;Node4 -->
<g id="edge18" class="edge">
<title>Node19&#45;&gt;Node4</title>
<path fill="none" stroke="#191970" d="M1333.6352,-286.04C1355.0799,-291.3488 1379.9226,-297.4988 1400.044,-302.4799"/>
<polygon fill="#191970" stroke="#191970" points="1334.2826,-282.5947 1323.7345,-283.589 1332.6004,-289.3896 1334.2826,-282.5947"/>
</g>
<!-- Node21 -->
<g id="node20" class="node">
<title>Node21</title>
<g id="a_node20"><a xlink:href="backend_8hpp_a1032f833666c3f810ac1c6210197d426.html#a1032f833666c3f810ac1c6210197d426" target="_top" target="_top" xlink:title="causes a node to self&#45;invalidate its cache, and thus getting any updated values on subsequent accesse...">
<polygon fill="#ffffff" stroke="#000000" points="1221,-94.5 1221,-113.5 1349,-113.5 1349,-94.5 1221,-94.5"/>
<text text-anchor="middle" x="1285" y="-101.5" font-family="Helvetica,sans-Serif" font-size="10.00" fill="#000000">argo::backend::acquire</text>
</a>
</g>
</g>
<!-- Node20&#45;&gt;Node21 -->
<g id="edge20" class="edge">
<title>Node20&#45;&gt;Node21</title>
<path fill="none" stroke="#191970" d="M1177.5231,-104C1191.3033,-104 1206.4182,-104 1220.8475,-104"/>
<polygon fill="#191970" stroke="#191970" points="1177.2789,-100.5001 1167.2789,-104 1177.2789,-107.5001 1177.2789,-100.5001"/>
</g>
<!-- Node23 -->
<g id="node22" class="node">
<title>Node23</title>
<g id="a_node22"><a xlink:href="swdsm_8h_ac0b665f72bc2a28dc663ed204c526e1b.html#ac0b665f72bc2a28dc663ed204c526e1b" target="_top" target="_top" xlink:title="acquire&#45;release function for ArgoDSM (Both acquire and release according to Release Consistency) ...">
<polygon fill="#ffffff" stroke="#000000" points="1245.5,-56.5 1245.5,-75.5 1324.5,-75.5 1324.5,-56.5 1245.5,-56.5"/>
<text text-anchor="middle" x="1285" y="-63.5" font-family="Helvetica,sans-Serif" font-size="10.00" fill="#000000">argo_acq_rel</text>
</a>
</g>
</g>
<!-- Node20&#45;&gt;Node23 -->
<g id="edge23" class="edge">
<title>Node20&#45;&gt;Node23</title>
<path fill="none" stroke="#191970" d="M1176.7616,-92.032C1198.9029,-86.7069 1224.6116,-80.5238 1245.4166,-75.5201"/>
<polygon fill="#191970" stroke="#191970" points="1175.7744,-88.6696 1166.8701,-94.411 1177.4113,-95.4755 1175.7744,-88.6696"/>
</g>
<!-- Node21&#45;&gt;Node21 -->
<g id="edge21" class="edge">
<title>Node21&#45;&gt;Node21</title>
<path fill="none" stroke="#191970" d="M1256.6275,-122.6539C1257.8135,-127.9368 1267.271,-132 1285,-132 1312.0156,-132 1319.8248,-122.5653 1308.4276,-113.7571"/>
<polygon fill="#191970" stroke="#191970" points="1259.7735,-124.1981 1261.5724,-113.7571 1253.6551,-120.7974 1259.7735,-124.1981"/>
</g>
<!-- Node22 -->
<g id="node21" class="node">
<title>Node22</title>
<g id="a_node21"><a xlink:href="singlenode_8cpp_aab3cabb3e1c0b9696b339416b684f78c.html#aab3cabb3e1c0b9696b339416b684f78c" target="_top" target="_top" xlink:title="argo::backend::init">
<polygon fill="#ffffff" stroke="#000000" points="1385,-47.5 1385,-66.5 1492,-66.5 1492,-47.5 1385,-47.5"/>
<text text-anchor="middle" x="1438.5" y="-54.5" font-family="Helvetica,sans-Serif" font-size="10.00" fill="#000000">argo::backend::init</text>
</a>
</g>
</g>
<!-- Node21&#45;&gt;Node22 -->
<g id="edge22" class="edge">
<title>Node21&#45;&gt;Node22</title>
<path fill="none" stroke="#191970" d="M1327.2842,-91.5419C1334.5336,-89.3789 1341.9877,-87.1377 1349,-85 1368.7781,-78.9708 1390.9594,-72.0326 1408.2918,-66.5712"/>
<polygon fill="#191970" stroke="#191970" points="1326.1735,-88.2207 1317.5861,-94.4261 1328.1689,-94.9302 1326.1735,-88.2207"/>
</g>
<!-- Node24&#45;&gt;Node23 -->
<g id="edge29" class="edge">
<title>Node24&#45;&gt;Node23</title>
<path fill="none" stroke="#191970" d="M1177.4252,-66C1199.3886,-66 1224.7577,-66 1245.3418,-66"/>
<polygon fill="#191970" stroke="#191970" points="1177.2789,-62.5001 1167.2789,-66 1177.2788,-69.5001 1177.2789,-62.5001"/>
</g>
<!-- Node25 -->
<g id="node24" class="node">
<title>Node25</title>
<g id="a_node24"><a xlink:href="backend_8hpp_a8953c9cd9d3c56306740b6c9b97513a2.html#a8953c9cd9d3c56306740b6c9b97513a2" target="_top" target="_top" xlink:title="causes a node to self&#45;downgrade its cache, making all previous writes to be propagated to the homenod...">
<polygon fill="#ffffff" stroke="#000000" points="1221,-.5 1221,-19.5 1349,-19.5 1349,-.5 1221,-.5"/>
<text text-anchor="middle" x="1285" y="-7.5" font-family="Helvetica,sans-Serif" font-size="10.00" fill="#000000">argo::backend::release</text>
</a>
</g>
</g>
<!-- Node24&#45;&gt;Node25 -->
<g id="edge26" class="edge">
<title>Node24&#45;&gt;Node25</title>
<path fill="none" stroke="#191970" d="M1163.8955,-52.9231C1192.7787,-42.686 1232.2706,-28.6889 1258.1933,-19.5011"/>
<polygon fill="#191970" stroke="#191970" points="1162.4174,-49.7336 1154.1612,-56.3733 1164.7559,-56.3314 1162.4174,-49.7336"/>
</g>
<!-- Node25&#45;&gt;Node22 -->
<g id="edge28" class="edge">
<title>Node25&#45;&gt;Node22</title>
<path fill="none" stroke="#191970" d="M1325.8303,-22.5018C1351.3583,-30.3182 1383.7319,-40.2306 1407.2201,-47.4224"/>
<polygon fill="#191970" stroke="#191970" points="1326.6496,-19.0923 1316.063,-19.5112 1324.6001,-25.7856 1326.6496,-19.0923"/>
</g>
<!-- Node25&#45;&gt;Node25 -->
<g id="edge27" class="edge">
<title>Node25&#45;&gt;Node25</title>
<path fill="none" stroke="#191970" d="M1256.6275,-28.6539C1257.8135,-33.9368 1267.271,-38 1285,-38 1312.0156,-38 1319.8248,-28.5653 1308.4276,-19.7571"/>
<polygon fill="#191970" stroke="#191970" points="1259.7735,-30.1981 1261.5724,-19.7571 1253.6551,-26.7974 1259.7735,-30.1981"/>
</g>
<!-- Node27 -->
<g id="node26" class="node">
<title>Node27</title>
<g id="a_node26"><a xlink:href="classwrite__buffer_aa6a1c2c3aa3a7cde744bbca3b14f599a.html#aa6a1c2c3aa3a7cde744bbca3b14f599a" target="_top" target="_top" xlink:title="Flushes first _write_back_size elements of the ArgoDSM write buffer to memory. ">
<polygon fill="#ffffff" stroke="#000000" points="794,-253 794,-283 898,-283 898,-253 794,-253"/>
<text text-anchor="start" x="802" y="-271" font-family="Helvetica,sans-Serif" font-size="10.00" fill="#000000">write_buffer::flush</text>
<text text-anchor="middle" x="846" y="-260" font-family="Helvetica,sans-Serif" font-size="10.00" fill="#000000">_partial</text>
</a>
</g>
</g>
<!-- Node26&#45;&gt;Node27 -->
<g id="edge31" class="edge">
<title>Node26&#45;&gt;Node27</title>
<path fill="none" stroke="#191970" d="M759.9399,-245.6008C771.1275,-248.5126 782.7381,-251.5346 793.6741,-254.3809"/>
<polygon fill="#191970" stroke="#191970" points="760.8041,-242.2092 750.2449,-243.0774 759.0409,-248.9835 760.8041,-242.2092"/>
</g>
<!-- Node28 -->
<g id="node27" class="node">
<title>Node28</title>
<g id="a_node27"><a xlink:href="classwrite__buffer_a23b0dbc463111cacbbf83b267e76ac9f.html#a23b0dbc463111cacbbf83b267e76ac9f" target="_top" target="_top" xlink:title="Adds a new element to the write buffer. ">
<polygon fill="#ffffff" stroke="#000000" points="934,-298.5 934,-317.5 1033,-317.5 1033,-298.5 934,-298.5"/>
<text text-anchor="middle" x="983.5" y="-305.5" font-family="Helvetica,sans-Serif" font-size="10.00" fill="#000000">write_buffer::add</text>
</a>
</g>
</g>
<!-- Node27&#45;&gt;Node28 -->
<g id="edge32" class="edge">
<title>Node27&#45;&gt;Node28</title>
<path fill="none" stroke="#191970" d="M907.3325,-285.8422C922.3065,-290.1983 937.7555,-294.6925 950.7932,-298.4853"/>
<polygon fill="#191970" stroke="#191970" points="908.1708,-282.441 897.5911,-283.0083 906.2154,-289.1624 908.1708,-282.441"/>
</g>
<!-- Node29 -->
<g id="node28" class="node">
<title>Node29</title>
<g id="a_node28"><a xlink:href="swdsm_8h_a8b00f264b792522b179fbc9c818187bd.html#a8b00f264b792522b179fbc9c818187bd" target="_top" target="_top" xlink:title="Catches memory accesses to memory not yet cached in ArgoDSM. Launches remote requests for memory not ...">
<polygon fill="#ffffff" stroke="#000000" points="1100.5,-299.5 1100.5,-318.5 1153.5,-318.5 1153.5,-299.5 1100.5,-299.5"/>
<text text-anchor="middle" x="1127" y="-306.5" font-family="Helvetica,sans-Serif" font-size="10.00" fill="#000000">handler</text>
</a>
</g>
</g>
<!-- Node28&#45;&gt;Node29 -->
<g id="edge33" class="edge">
<title>Node28&#45;&gt;Node29</title>
<path fill="none" stroke="#191970" d="M1043.4858,-308.418C1063.2664,-308.5559 1084.2733,-308.7023 1100.2703,-308.8137"/>
<polygon fill="#191970" stroke="#191970" points="1043.3108,-304.9168 1033.2866,-308.3469 1043.2619,-311.9166 1043.3108,-304.9168"/>
</g>
<!-- Node29&#45;&gt;Node4 -->
<g id="edge34" class="edge">
<title>Node29&#45;&gt;Node4</title>
<path fill="none" stroke="#191970" d="M1163.7054,-309.3535C1221.563,-309.9107 1333.7105,-310.9908 1395.3407,-311.5843"/>
<polygon fill="#191970" stroke="#191970" points="1163.5916,-305.8523 1153.5583,-309.2558 1163.5241,-312.852 1163.5916,-305.8523"/>
</g>
</g>
</svg>
        <g id="navigator" transform="translate(0 0)" fill="#404254">
                <rect fill="#f2f5e9" fill-opacity="0.5" stroke="#606060" stroke-width=".5" x="0" y="0" width="60" height="60"/>
                <use id="zoomplus" xlink:href="#zoomPlus" target="_top" x="17" y="9" onmousedown="handleZoom(evt,'in')"/>
                <use id="zoomminus" xlink:href="#zoomMin" target="_top" x="42" y="9" onmousedown="handleZoom(evt,'out')"/>
                <use id="reset" xlink:href="#resetDef" target="_top" x="30" y="36" onmousedown="handleReset()"/>
                <g id="arrowUp" xlink:href="#dirArrow" target="_top" transform="translate(30 24)" onmousedown="handlePan(0,-1)">
                  <use xlink:href="#rim" target="_top" fill="#404040">
                        <set attributeName="fill" to="#808080" begin="arrowUp.mouseover" end="arrowUp.mouseout"/>
                  </use>
                  <path fill="none" stroke="white" stroke-width="1.5" d="M0,-3.0v7 M-2.5,-0.5L0,-3.0L2.5,-0.5"/>
                </g>
                <g id="arrowRight" xlink:href="#dirArrow" target="_top" transform="rotate(90) translate(36 -43)" onmousedown="handlePan(1,0)">
                  <use xlink:href="#rim" target="_top" fill="#404040">
                        <set attributeName="fill" to="#808080" begin="arrowRight.mouseover" end="arrowRight.mouseout"/>
                  </use>
                  <path fill="none" stroke="white" stroke-width="1.5" d="M0,-3.0v7 M-2.5,-0.5L0,-3.0L2.5,-0.5"/>
                </g>
                <g id="arrowDown" xlink:href="#dirArrow" target="_top" transform="rotate(180) translate(-30 -48)" onmousedown="handlePan(0,1)">
                  <use xlink:href="#rim" target="_top" fill="#404040">
                        <set attributeName="fill" to="#808080" begin="arrowDown.mouseover" end="arrowDown.mouseout"/>
                  </use>
                  <path fill="none" stroke="white" stroke-width="1.5" d="M0,-3.0v7 M-2.5,-0.5L0,-3.0L2.5,-0.5"/>
                </g>
                <g id="arrowLeft" xlink:href="#dirArrow" target="_top" transform="rotate(270) translate(-36 17)" onmousedown="handlePan(-1,0)">
                  <use xlink:href="#rim" target="_top" fill="#404040">
                        <set attributeName="fill" to="#808080" begin="arrowLeft.mouseover" end="arrowLeft.mouseout"/>
                  </use>
                  <path fill="none" stroke="white" stroke-width="1.5" d="M0,-3.0v7 M-2.5,-0.5L0,-3.0L2.5,-0.5"/>
                </g>
        </g>
        <svg viewBox="0 0 15 15" width="100%" height="30px" preserveAspectRatio="xMaxYMin meet">
         <g id="arrow_out" transform="scale(0.3 0.3)">
          <a xlink:href="namespaceargo_1_1data__distribution_a1bb3f2dcecd237990e6dc67764f06860_a1bb3f2dcecd237990e6dc67764f06860_icgraph_org.svg" target="_top" target="_base">
           <rect id="button" ry="5" rx="5" y="6" x="6" height="38" width="38"
                fill="#f2f5e9" fill-opacity="0.5" stroke="#606060" stroke-width="1.0"/>
           <path id="arrow"
             d="M 11.500037,31.436501 C 11.940474,20.09759 22.043105,11.32322 32.158766,21.979434 L 37.068811,17.246167 C 37.068811,17.246167 37.088388,32 37.088388,32 L 22.160133,31.978069 C 22.160133,31.978069 26.997745,27.140456 26.997745,27.140456 C 18.528582,18.264221 13.291696,25.230495 11.500037,31.436501 z"
             style="fill:#404040;"/>
          </a>
         </g>
        </svg>
</svg>
