<?xml version="1.0" encoding="UTF-8" standalone="no"?>
<!DOCTYPE svg PUBLIC "-//W3C//DTD SVG 1.1//EN"
 "http://www.w3.org/Graphics/SVG/1.1/DTD/svg11.dtd">
<!-- Generated by graphviz version 2.40.1 (20161225.0304)
 -->
<!-- Title: argo::barrier Pages: 1 -->
<svg width="228pt" height="142pt"
 viewBox="0.00 0.00 228.00 142.00" xmlns="http://www.w3.org/2000/svg" xmlns:xlink="http://www.w3.org/1999/xlink">
<g id="graph0" class="graph" transform="scale(1 1) rotate(0) translate(4 138)">
<title>argo::barrier</title>
<polygon fill="#ffffff" stroke="transparent" points="-4,4 -4,-138 224,-138 224,4 -4,4"/>
<!-- Node1 -->
<g id="node1" class="node">
<title>Node1</title>
<polygon fill="#bfbfbf" stroke="#000000" points="0,-57.5 0,-76.5 77,-76.5 77,-57.5 0,-57.5"/>
<text text-anchor="middle" x="38.5" y="-64.5" font-family="Helvetica,sans-Serif" font-size="10.00" fill="#000000">argo::barrier</text>
</g>
<!-- Node2 -->
<g id="node2" class="node">
<title>Node2</title>
<g id="a_node2"><a xlink:href="tests_2allocators_8cpp_ae126220d4ebd940b8dcc827b3c74ceda.html#ae126220d4ebd940b8dcc827b3c74ceda" target="_top" xlink:title="Unittest that checks that node 0 allocating the whole requested memory space dynamically &#45; also check...">
<polygon fill="#ffffff" stroke="#000000" points="141,-114.5 141,-133.5 192,-133.5 192,-114.5 141,-114.5"/>
<text text-anchor="middle" x="166.5" y="-121.5" font-family="Helvetica,sans-Serif" font-size="10.00" fill="#000000">TEST_F</text>
</a>
</g>
</g>
<!-- Node1&#45;&gt;Node2 -->
<g id="edge1" class="edge">
<title>Node1&#45;&gt;Node2</title>
<path fill="none" stroke="#191970" d="M64.7563,-81.4526C78.8477,-88.9372 96.6379,-97.9573 113,-105 121.963,-108.8579 131.9946,-112.5734 140.928,-115.6797"/>
<polygon fill="#191970" stroke="#191970" points="66.1198,-78.212 55.6547,-76.5594 62.8052,-84.3774 66.1198,-78.212"/>
</g>
<!-- Node3 -->
<g id="node3" class="node">
<title>Node3</title>
<g id="a_node3"><a xlink:href="singlenode_8cpp_aab3cabb3e1c0b9696b339416b684f78c.html#aab3cabb3e1c0b9696b339416b684f78c" target="_top" xlink:title="argo::backend::init">
<polygon fill="#ffffff" stroke="#000000" points="113,-76.5 113,-95.5 220,-95.5 220,-76.5 113,-76.5"/>
<text text-anchor="middle" x="166.5" y="-83.5" font-family="Helvetica,sans-Serif" font-size="10.00" fill="#000000">argo::backend::init</text>
</a>
</g>
</g>
<!-- Node1&#45;&gt;Node3 -->
<g id="edge2" class="edge">
<title>Node1&#45;&gt;Node3</title>
<path fill="none" stroke="#191970" d="M87.2163,-74.2313C95.5695,-75.4712 104.2916,-76.7659 112.767,-78.024"/>
<polygon fill="#191970" stroke="#191970" points="87.6571,-70.7585 77.2516,-72.7522 86.6293,-77.6826 87.6571,-70.7585"/>
</g>
<!-- Node4 -->
<g id="node4" class="node">
<title>Node4</title>
<g id="a_node4"><a xlink:href="synchronization_8h_a8807b352403d7158771b83cbbe48ad0f.html#a8807b352403d7158771b83cbbe48ad0f" target="_top" xlink:title="a barrier for threads ">
<polygon fill="#ffffff" stroke="#000000" points="128.5,-38.5 128.5,-57.5 204.5,-57.5 204.5,-38.5 128.5,-38.5"/>
<text text-anchor="middle" x="166.5" y="-45.5" font-family="Helvetica,sans-Serif" font-size="10.00" fill="#000000">argo_barrier</text>
</a>
</g>
</g>
<!-- Node1&#45;&gt;Node4 -->
<g id="edge3" class="edge">
<title>Node1&#45;&gt;Node4</title>
<path fill="none" stroke="#191970" d="M87.3902,-59.7429C100.9501,-57.7301 115.4697,-55.5748 128.3206,-53.6673"/>
<polygon fill="#191970" stroke="#191970" points="86.6293,-56.3174 77.2516,-61.2478 87.6571,-63.2415 86.6293,-56.3174"/>
</g>
<!-- Node5 -->
<g id="node5" class="node">
<title>Node5</title>
<g id="a_node5"><a xlink:href="barrier_8cpp_a03ef2b2b4275df192876f1fc8943aadf.html#a03ef2b2b4275df192876f1fc8943aadf" target="_top" xlink:title="Unittest that checks that the barrier call works with multiple threads. ">
<polygon fill="#ffffff" stroke="#000000" points="140.5,-.5 140.5,-19.5 192.5,-19.5 192.5,-.5 140.5,-.5"/>
<text text-anchor="middle" x="166.5" y="-7.5" font-family="Helvetica,sans-Serif" font-size="10.00" fill="#000000">TEST_P</text>
</a>
</g>
</g>
<!-- Node1&#45;&gt;Node5 -->
<g id="edge4" class="edge">
<title>Node1&#45;&gt;Node5</title>
<path fill="none" stroke="#191970" d="M64.7563,-52.5474C78.8477,-45.0628 96.6379,-36.0427 113,-29 121.7819,-25.22 131.5898,-21.5768 140.3853,-18.5093"/>
<polygon fill="#191970" stroke="#191970" points="62.8052,-49.6226 55.6547,-57.4406 66.1198,-55.788 62.8052,-49.6226"/>
</g>
</g>
</svg>
