<?xml version="1.0" encoding="UTF-8" standalone="no"?>
<!DOCTYPE svg PUBLIC "-//W3C//DTD SVG 1.1//EN"
 "http://www.w3.org/Graphics/SVG/1.1/DTD/svg11.dtd">
<!-- Generated by graphviz version 2.40.1 (20161225.0304)
 -->
<!-- Title: argo::conew_array Pages: 1 -->
<svg width="413pt" height="72pt"
 viewBox="0.00 0.00 413.00 71.50" xmlns="http://www.w3.org/2000/svg" xmlns:xlink="http://www.w3.org/1999/xlink">
<g id="graph0" class="graph" transform="scale(1 1) rotate(0) translate(4 67.5)">
<title>argo::conew_array</title>
<polygon fill="#ffffff" stroke="transparent" points="-4,4 -4,-67.5 409,-67.5 409,4 -4,4"/>
<!-- Node0 -->
<g id="node1" class="node">
<title>Node0</title>
<polygon fill="#bfbfbf" stroke="#000000" points="0,-19.5 0,-38.5 107,-38.5 107,-19.5 0,-19.5"/>
<text text-anchor="middle" x="53.5" y="-26.5" font-family="Helvetica,sans-Serif" font-size="10.00" fill="#000000">argo::conew_array</text>
</g>
<!-- Node1 -->
<g id="node2" class="node">
<title>Node1</title>
<g id="a_node2"><a xlink:href="src_2allocators_2allocators_8cpp_a4e8d23563c42daa5dfce669293d7e389.html#a4e8d23563c42daa5dfce669293d7e389" target="_top" xlink:title="basic collective allocation function, for C interface ">
<polygon fill="#ffffff" stroke="#000000" points="143,-38.5 143,-57.5 235,-57.5 235,-38.5 143,-38.5"/>
<text text-anchor="middle" x="189" y="-45.5" font-family="Helvetica,sans-Serif" font-size="10.00" fill="#000000">collective_alloc</text>
</a>
</g>
</g>
<!-- Node0&#45;&gt;Node1 -->
<g id="edge1" class="edge">
<title>Node0&#45;&gt;Node1</title>
<path fill="none" stroke="#191970" d="M107.0532,-36.5093C115.4677,-37.6892 124.1881,-38.912 132.6632,-40.1004"/>
<polygon fill="#191970" stroke="#191970" points="132.453,-43.6051 142.8422,-41.5277 133.4251,-36.6729 132.453,-43.6051"/>
</g>
<!-- Node3 -->
<g id="node4" class="node">
<title>Node3</title>
<g id="a_node4"><a xlink:href="namespaceargo_a2deaaacde085d381cbb01f24318965b4.html#a2deaaacde085d381cbb01f24318965b4" target="_top" xlink:title="A unique ArgoDSM node identifier. Counting starts from 0. ">
<polygon fill="#ffffff" stroke="#000000" points="147.5,-.5 147.5,-19.5 230.5,-19.5 230.5,-.5 147.5,-.5"/>
<text text-anchor="middle" x="189" y="-7.5" font-family="Helvetica,sans-Serif" font-size="10.00" fill="#000000">argo::node_id</text>
</a>
</g>
</g>
<!-- Node0&#45;&gt;Node3 -->
<g id="edge3" class="edge">
<title>Node0&#45;&gt;Node3</title>
<path fill="none" stroke="#191970" d="M107.0532,-21.4907C116.9356,-20.105 127.24,-18.6601 137.0733,-17.2812"/>
<polygon fill="#191970" stroke="#191970" points="137.6957,-20.7283 147.1127,-15.8735 136.7236,-13.7961 137.6957,-20.7283"/>
</g>
<!-- Node2 -->
<g id="node3" class="node">
<title>Node2</title>
<g id="a_node3"><a xlink:href="classargo_1_1allocators_1_1generic__allocator_ae0df0734076478aeaeb689cdb902497a.html#ae0df0734076478aeaeb689cdb902497a" target="_top" xlink:title="Allocate memory. ">
<polygon fill="#ffffff" stroke="#000000" points="271,-33 271,-63 405,-63 405,-33 271,-33"/>
<text text-anchor="start" x="279" y="-51" font-family="Helvetica,sans-Serif" font-size="10.00" fill="#000000">argo::allocators::generic</text>
<text text-anchor="middle" x="338" y="-40" font-family="Helvetica,sans-Serif" font-size="10.00" fill="#000000">_allocator::allocate</text>
</a>
</g>
</g>
<!-- Node1&#45;&gt;Node2 -->
<g id="edge2" class="edge">
<title>Node1&#45;&gt;Node2</title>
<path fill="none" stroke="#191970" d="M235.3278,-48C243.4328,-48 252.0595,-48 260.7363,-48"/>
<polygon fill="#191970" stroke="#191970" points="260.9168,-51.5001 270.9168,-48 260.9167,-44.5001 260.9168,-51.5001"/>
</g>
</g>
</svg>
