<?xml version="1.0" encoding="UTF-8" standalone="no"?>
<!DOCTYPE svg PUBLIC "-//W3C//DTD SVG 1.1//EN"
 "http://www.w3.org/Graphics/SVG/1.1/DTD/svg11.dtd">
<!-- Generated by graphviz version 2.40.1 (20161225.0304)
 -->
<!-- Title: TEST_F Pages: 1 -->
<svg width="691pt" height="203pt"
 viewBox="0.00 0.00 691.00 202.50" xmlns="http://www.w3.org/2000/svg" xmlns:xlink="http://www.w3.org/1999/xlink">
<g id="graph0" class="graph" transform="scale(1 1) rotate(0) translate(4 198.5)">
<title>TEST_F</title>
<polygon fill="#ffffff" stroke="transparent" points="-4,4 -4,-198.5 687,-198.5 687,4 -4,4"/>
<!-- Node0 -->
<g id="node1" class="node">
<title>Node0</title>
<polygon fill="#bfbfbf" stroke="#000000" points="0,-57.5 0,-76.5 51,-76.5 51,-57.5 0,-57.5"/>
<text text-anchor="middle" x="25.5" y="-64.5" font-family="Helvetica,sans-Serif" font-size="10.00" fill="#000000">TEST_F</text>
</g>
<!-- Node1 -->
<g id="node2" class="node">
<title>Node1</title>
<g id="a_node2"><a xlink:href="classargo_1_1mempools_1_1global__memory__pool_ac37f5714010e1f4b482e6c6a8a246c05.html#ac37f5714010e1f4b482e6c6a8a246c05" target="_top" xlink:title="check remaining available memory in pool ">
<polygon fill="#ffffff" stroke="#000000" points="87,-115 87,-145 227,-145 227,-115 87,-115"/>
<text text-anchor="start" x="95" y="-133" font-family="Helvetica,sans-Serif" font-size="10.00" fill="#000000">argo::mempools::global</text>
<text text-anchor="middle" x="157" y="-122" font-family="Helvetica,sans-Serif" font-size="10.00" fill="#000000">_memory_pool::available</text>
</a>
</g>
</g>
<!-- Node0&#45;&gt;Node1 -->
<g id="edge1" class="edge">
<title>Node0&#45;&gt;Node1</title>
<path fill="none" stroke="#191970" d="M42.2622,-76.5083C54.5129,-83.3306 71.6061,-92.5888 87,-100 94.6207,-103.6689 102.8036,-107.3774 110.7919,-110.8766"/>
<polygon fill="#191970" stroke="#191970" points="109.467,-114.1169 120.0348,-114.8734 112.2454,-107.6918 109.467,-114.1169"/>
</g>
<!-- Node4 -->
<g id="node5" class="node">
<title>Node4</title>
<g id="a_node5"><a xlink:href="namespaceargo_a2deaaacde085d381cbb01f24318965b4.html#a2deaaacde085d381cbb01f24318965b4" target="_top" xlink:title="A unique ArgoDSM node identifier. Counting starts from 0. ">
<polygon fill="#ffffff" stroke="#000000" points="600,-120.5 600,-139.5 683,-139.5 683,-120.5 600,-120.5"/>
<text text-anchor="middle" x="641.5" y="-127.5" font-family="Helvetica,sans-Serif" font-size="10.00" fill="#000000">argo::node_id</text>
</a>
</g>
</g>
<!-- Node0&#45;&gt;Node4 -->
<g id="edge9" class="edge">
<title>Node0&#45;&gt;Node4</title>
<path fill="none" stroke="#191970" d="M51.2563,-68.0858C144.4285,-72.1348 463.7126,-87.0968 564,-106 578.008,-108.6404 593.0525,-112.9439 606.1246,-117.183"/>
<polygon fill="#191970" stroke="#191970" points="605.0929,-120.5284 615.6868,-120.3834 607.3147,-113.8904 605.0929,-120.5284"/>
</g>
<!-- Node6 -->
<g id="node7" class="node">
<title>Node6</title>
<g id="a_node7"><a xlink:href="src_2allocators_2allocators_8cpp_a4e8d23563c42daa5dfce669293d7e389.html#a4e8d23563c42daa5dfce669293d7e389" target="_top" xlink:title="basic collective allocation function, for C interface ">
<polygon fill="#ffffff" stroke="#000000" points="111,-38.5 111,-57.5 203,-57.5 203,-38.5 111,-38.5"/>
<text text-anchor="middle" x="157" y="-45.5" font-family="Helvetica,sans-Serif" font-size="10.00" fill="#000000">collective_alloc</text>
</a>
</g>
</g>
<!-- Node0&#45;&gt;Node6 -->
<g id="edge7" class="edge">
<title>Node0&#45;&gt;Node6</title>
<path fill="none" stroke="#191970" d="M51.1667,-63.2915C65.3499,-61.2422 83.5572,-58.6115 100.8575,-56.1118"/>
<polygon fill="#191970" stroke="#191970" points="101.5049,-59.5547 110.9016,-54.6606 100.5038,-52.6267 101.5049,-59.5547"/>
</g>
<!-- Node8 -->
<g id="node9" class="node">
<title>Node8</title>
<g id="a_node9"><a xlink:href="namespaceargo_a10bae1e1e60ff583384b937201a87c29.html#a10bae1e1e60ff583384b937201a87c29" target="_top" xlink:title="a barrier for threads ">
<polygon fill="#ffffff" stroke="#000000" points="118.5,-.5 118.5,-19.5 195.5,-19.5 195.5,-.5 118.5,-.5"/>
<text text-anchor="middle" x="157" y="-7.5" font-family="Helvetica,sans-Serif" font-size="10.00" fill="#000000">argo::barrier</text>
</a>
</g>
</g>
<!-- Node0&#45;&gt;Node8 -->
<g id="edge10" class="edge">
<title>Node0&#45;&gt;Node8</title>
<path fill="none" stroke="#191970" d="M38.5647,-57.3724C50.6143,-48.8803 69.2679,-36.6912 87,-29 93.751,-26.0718 101.0675,-23.4903 108.3394,-21.25"/>
<polygon fill="#191970" stroke="#191970" points="109.5374,-24.547 118.1708,-18.4058 107.5921,-17.8227 109.5374,-24.547"/>
</g>
<!-- Node2 -->
<g id="node3" class="node">
<title>Node2</title>
<g id="a_node3"><a xlink:href="classargo_1_1globallock_1_1global__tas__lock_ae1a2cc75c9371ed191ac68f4e72f227e.html#ae1a2cc75c9371ed191ac68f4e72f227e" target="_top" xlink:title="take the lock ">
<polygon fill="#ffffff" stroke="#000000" points="264.5,-162 264.5,-192 395.5,-192 395.5,-162 264.5,-162"/>
<text text-anchor="start" x="272.5" y="-180" font-family="Helvetica,sans-Serif" font-size="10.00" fill="#000000">argo::globallock::global</text>
<text text-anchor="middle" x="330" y="-169" font-family="Helvetica,sans-Serif" font-size="10.00" fill="#000000">_tas_lock::lock</text>
</a>
</g>
</g>
<!-- Node1&#45;&gt;Node2 -->
<g id="edge2" class="edge">
<title>Node1&#45;&gt;Node2</title>
<path fill="none" stroke="#191970" d="M212.2139,-145.0003C228.9118,-149.5367 247.4072,-154.5615 264.6983,-159.2591"/>
<polygon fill="#191970" stroke="#191970" points="264.1494,-162.7368 274.7172,-161.981 265.9847,-155.9816 264.1494,-162.7368"/>
</g>
<!-- Node5 -->
<g id="node6" class="node">
<title>Node5</title>
<g id="a_node6"><a xlink:href="classargo_1_1globallock_1_1global__tas__lock_a55bd610c8555b8d986541c3f669789a2.html#a55bd610c8555b8d986541c3f669789a2" target="_top" xlink:title="release the lock ">
<polygon fill="#ffffff" stroke="#000000" points="433,-115 433,-145 564,-145 564,-115 433,-115"/>
<text text-anchor="start" x="441" y="-133" font-family="Helvetica,sans-Serif" font-size="10.00" fill="#000000">argo::globallock::global</text>
<text text-anchor="middle" x="498.5" y="-122" font-family="Helvetica,sans-Serif" font-size="10.00" fill="#000000">_tas_lock::unlock</text>
</a>
</g>
</g>
<!-- Node1&#45;&gt;Node5 -->
<g id="edge5" class="edge">
<title>Node1&#45;&gt;Node5</title>
<path fill="none" stroke="#191970" d="M227.3449,-130C284.2609,-130 364.2606,-130 422.6108,-130"/>
<polygon fill="#191970" stroke="#191970" points="422.8773,-133.5001 432.8772,-130 422.8772,-126.5001 422.8773,-133.5001"/>
</g>
<!-- Node3 -->
<g id="node4" class="node">
<title>Node3</title>
<g id="a_node4"><a xlink:href="classargo_1_1globallock_1_1global__tas__lock_a89bbe556d8a271dd64d65b421993da00.html#a89bbe556d8a271dd64d65b421993da00" target="_top" xlink:title="try to lock ">
<polygon fill="#ffffff" stroke="#000000" points="433,-164 433,-194 564,-194 564,-164 433,-164"/>
<text text-anchor="start" x="441" y="-182" font-family="Helvetica,sans-Serif" font-size="10.00" fill="#000000">argo::globallock::global</text>
<text text-anchor="middle" x="498.5" y="-171" font-family="Helvetica,sans-Serif" font-size="10.00" fill="#000000">_tas_lock::try_lock</text>
</a>
</g>
</g>
<!-- Node2&#45;&gt;Node3 -->
<g id="edge3" class="edge">
<title>Node2&#45;&gt;Node3</title>
<path fill="none" stroke="#191970" d="M395.629,-177.779C404.4913,-177.8842 413.643,-177.9928 422.6647,-178.0999"/>
<polygon fill="#191970" stroke="#191970" points="422.7321,-181.6008 432.7729,-178.2199 422.8152,-174.6013 422.7321,-181.6008"/>
</g>
<!-- Node3&#45;&gt;Node4 -->
<g id="edge4" class="edge">
<title>Node3&#45;&gt;Node4</title>
<path fill="none" stroke="#191970" d="M542.5715,-163.8986C562.1881,-157.1768 585.0512,-149.3426 603.8537,-142.8998"/>
<polygon fill="#191970" stroke="#191970" points="605.23,-146.128 613.5555,-139.5754 602.9609,-139.506 605.23,-146.128"/>
</g>
<!-- Node5&#45;&gt;Node4 -->
<g id="edge6" class="edge">
<title>Node5&#45;&gt;Node4</title>
<path fill="none" stroke="#191970" d="M564.1406,-130C572.7104,-130 581.3932,-130 589.6921,-130"/>
<polygon fill="#191970" stroke="#191970" points="589.9614,-133.5001 599.9614,-130 589.9614,-126.5001 589.9614,-133.5001"/>
</g>
<!-- Node7 -->
<g id="node8" class="node">
<title>Node7</title>
<g id="a_node8"><a xlink:href="classargo_1_1allocators_1_1generic__allocator_ae0df0734076478aeaeb689cdb902497a.html#ae0df0734076478aeaeb689cdb902497a" target="_top" xlink:title="Allocate memory. ">
<polygon fill="#ffffff" stroke="#000000" points="263,-27 263,-57 397,-57 397,-27 263,-27"/>
<text text-anchor="start" x="271" y="-45" font-family="Helvetica,sans-Serif" font-size="10.00" fill="#000000">argo::allocators::generic</text>
<text text-anchor="middle" x="330" y="-34" font-family="Helvetica,sans-Serif" font-size="10.00" fill="#000000">_allocator::allocate</text>
</a>
</g>
</g>
<!-- Node6&#45;&gt;Node7 -->
<g id="edge8" class="edge">
<title>Node6&#45;&gt;Node7</title>
<path fill="none" stroke="#191970" d="M203.3608,-46.3921C218.4459,-45.8689 235.6236,-45.2732 252.3548,-44.6929"/>
<polygon fill="#191970" stroke="#191970" points="252.8192,-48.179 262.6919,-44.3344 252.5765,-41.1832 252.8192,-48.179"/>
</g>
</g>
</svg>
