<?xml version="1.0" encoding="UTF-8" standalone="no"?>
<!DOCTYPE svg PUBLIC "-//W3C//DTD SVG 1.1//EN"
 "http://www.w3.org/Graphics/SVG/1.1/DTD/svg11.dtd">
<!-- Generated by graphviz version 2.40.1 (20161225.0304)
 -->
<!-- Title: TEST_F Pages: 1 -->
<svg width="691pt" height="340pt"
 viewBox="0.00 0.00 691.00 339.50" xmlns="http://www.w3.org/2000/svg" xmlns:xlink="http://www.w3.org/1999/xlink">
<g id="graph0" class="graph" transform="scale(1 1) rotate(0) translate(4 335.5)">
<title>TEST_F</title>
<polygon fill="#ffffff" stroke="transparent" points="-4,4 -4,-335.5 687,-335.5 687,4 -4,4"/>
<!-- Node0 -->
<g id="node1" class="node">
<title>Node0</title>
<polygon fill="#bfbfbf" stroke="#000000" points="0,-137.5 0,-156.5 51,-156.5 51,-137.5 0,-137.5"/>
<text text-anchor="middle" x="25.5" y="-144.5" font-family="Helvetica,sans-Serif" font-size="10.00" fill="#000000">TEST_F</text>
</g>
<!-- Node1 -->
<g id="node2" class="node">
<title>Node1</title>
<g id="a_node2"><a xlink:href="classargo_1_1mempools_1_1global__memory__pool_ac37f5714010e1f4b482e6c6a8a246c05.html#ac37f5714010e1f4b482e6c6a8a246c05" target="_top" xlink:title="check remaining available memory in pool ">
<polygon fill="#ffffff" stroke="#000000" points="87,-252 87,-282 227,-282 227,-252 87,-252"/>
<text text-anchor="start" x="95" y="-270" font-family="Helvetica,sans-Serif" font-size="10.00" fill="#000000">argo::mempools::global</text>
<text text-anchor="middle" x="157" y="-259" font-family="Helvetica,sans-Serif" font-size="10.00" fill="#000000">_memory_pool::available</text>
</a>
</g>
</g>
<!-- Node0&#45;&gt;Node1 -->
<g id="edge1" class="edge">
<title>Node0&#45;&gt;Node1</title>
<path fill="none" stroke="#191970" d="M29.8468,-156.7358C38.3728,-174.837 58.9331,-213.9241 87,-237 91.6454,-240.8193 96.8498,-244.2285 102.2679,-247.2527"/>
<polygon fill="#191970" stroke="#191970" points="101.0296,-250.5503 111.5271,-251.9832 104.2143,-244.3167 101.0296,-250.5503"/>
</g>
<!-- Node4 -->
<g id="node5" class="node">
<title>Node4</title>
<g id="a_node5"><a xlink:href="namespaceargo_a2deaaacde085d381cbb01f24318965b4.html#a2deaaacde085d381cbb01f24318965b4" target="_top" xlink:title="A unique ArgoDSM node identifier. Counting starts from 0. ">
<polygon fill="#ffffff" stroke="#000000" points="600,-257.5 600,-276.5 683,-276.5 683,-257.5 600,-257.5"/>
<text text-anchor="middle" x="641.5" y="-264.5" font-family="Helvetica,sans-Serif" font-size="10.00" fill="#000000">argo::node_id</text>
</a>
</g>
</g>
<!-- Node0&#45;&gt;Node4 -->
<g id="edge13" class="edge">
<title>Node0&#45;&gt;Node4</title>
<path fill="none" stroke="#191970" d="M32.5432,-156.7436C42.8139,-170.0833 63.2817,-193.5638 87,-204 281.694,-289.6662 355.1585,-202.6308 564,-243 577.9956,-245.7054 593.0375,-250.0225 606.111,-254.2542"/>
<polygon fill="#191970" stroke="#191970" points="605.0812,-257.6003 615.6749,-257.4455 607.2969,-250.9602 605.0812,-257.6003"/>
</g>
<!-- Node6 -->
<g id="node7" class="node">
<title>Node6</title>
<g id="a_node7"><a xlink:href="src_2allocators_2allocators_8cpp_a4e8d23563c42daa5dfce669293d7e389.html#a4e8d23563c42daa5dfce669293d7e389" target="_top" xlink:title="basic collective allocation function, for C interface ">
<polygon fill="#ffffff" stroke="#000000" points="111,-175.5 111,-194.5 203,-194.5 203,-175.5 111,-175.5"/>
<text text-anchor="middle" x="157" y="-182.5" font-family="Helvetica,sans-Serif" font-size="10.00" fill="#000000">collective_alloc</text>
</a>
</g>
</g>
<!-- Node0&#45;&gt;Node6 -->
<g id="edge7" class="edge">
<title>Node0&#45;&gt;Node6</title>
<path fill="none" stroke="#191970" d="M51.1738,-155.1489C62.1792,-158.5856 75.1942,-162.5752 87,-166 94.8242,-168.2697 103.1644,-170.6057 111.26,-172.8295"/>
<polygon fill="#191970" stroke="#191970" points="110.3941,-176.2211 120.9626,-175.4744 112.2351,-169.4675 110.3941,-176.2211"/>
</g>
<!-- Node8 -->
<g id="node9" class="node">
<title>Node8</title>
<g id="a_node9"><a xlink:href="namespaceargo_a79c9492f3fd441bfa6261dffbc0f02f4.html#a79c9492f3fd441bfa6261dffbc0f02f4" target="_top" xlink:title="Number of ArgoDSM nodes being run. ">
<polygon fill="#ffffff" stroke="#000000" points="91.5,-137.5 91.5,-156.5 222.5,-156.5 222.5,-137.5 91.5,-137.5"/>
<text text-anchor="middle" x="157" y="-144.5" font-family="Helvetica,sans-Serif" font-size="10.00" fill="#000000">argo::number_of_nodes</text>
</a>
</g>
</g>
<!-- Node0&#45;&gt;Node8 -->
<g id="edge9" class="edge">
<title>Node0&#45;&gt;Node8</title>
<path fill="none" stroke="#191970" d="M51.1667,-147C59.9462,-147 70.2676,-147 80.9612,-147"/>
<polygon fill="#191970" stroke="#191970" points="81.2899,-150.5001 91.2899,-147 81.2898,-143.5001 81.2899,-150.5001"/>
</g>
<!-- Node9 -->
<g id="node10" class="node">
<title>Node9</title>
<g id="a_node10"><a xlink:href="namespaceargo_1_1env_a30775a9aa41b956df7474a2c0cc317aa.html#a30775a9aa41b956df7474a2c0cc317aa" target="_top" xlink:title="get the allocation block size requested by environment variable ">
<polygon fill="#ffffff" stroke="#000000" points="99,-88 99,-118 215,-118 215,-88 99,-88"/>
<text text-anchor="start" x="107" y="-106" font-family="Helvetica,sans-Serif" font-size="10.00" fill="#000000">argo::env::allocation</text>
<text text-anchor="middle" x="157" y="-95" font-family="Helvetica,sans-Serif" font-size="10.00" fill="#000000">_block_size</text>
</a>
</g>
</g>
<!-- Node0&#45;&gt;Node9 -->
<g id="edge10" class="edge">
<title>Node0&#45;&gt;Node9</title>
<path fill="none" stroke="#191970" d="M51.1667,-138.4119C65.7348,-133.5374 84.5482,-127.2424 102.2636,-121.3148"/>
<polygon fill="#191970" stroke="#191970" points="103.586,-124.5632 111.9586,-118.0709 101.3648,-117.9249 103.586,-124.5632"/>
</g>
<!-- Node10 -->
<g id="node11" class="node">
<title>Node10</title>
<g id="a_node11"><a xlink:href="namespaceargo_1_1data__distribution_a1bb3f2dcecd237990e6dc67764f06860.html#a1bb3f2dcecd237990e6dc67764f06860" target="_top" xlink:title="identifies if we distribute data using a cyclic memory policy ">
<polygon fill="#ffffff" stroke="#000000" points="93.5,-39 93.5,-69 220.5,-69 220.5,-39 93.5,-39"/>
<text text-anchor="start" x="101.5" y="-57" font-family="Helvetica,sans-Serif" font-size="10.00" fill="#000000">argo::data_distribution</text>
<text text-anchor="middle" x="157" y="-46" font-family="Helvetica,sans-Serif" font-size="10.00" fill="#000000">::is_cyclic_policy</text>
</a>
</g>
</g>
<!-- Node0&#45;&gt;Node10 -->
<g id="edge11" class="edge">
<title>Node0&#45;&gt;Node10</title>
<path fill="none" stroke="#191970" d="M31.8482,-137.0889C41.8538,-122.2201 62.6763,-94.1649 87,-78 89.4075,-76.4001 91.9325,-74.896 94.5358,-73.4832"/>
<polygon fill="#191970" stroke="#191970" points="96.1923,-76.5692 103.6315,-69.0254 93.1116,-70.2835 96.1923,-76.5692"/>
</g>
<!-- Node12 -->
<g id="node13" class="node">
<title>Node12</title>
<g id="a_node13"><a xlink:href="namespaceargo_a10bae1e1e60ff583384b937201a87c29.html#a10bae1e1e60ff583384b937201a87c29" target="_top" xlink:title="a barrier for threads ">
<polygon fill="#ffffff" stroke="#000000" points="118.5,-.5 118.5,-19.5 195.5,-19.5 195.5,-.5 118.5,-.5"/>
<text text-anchor="middle" x="157" y="-7.5" font-family="Helvetica,sans-Serif" font-size="10.00" fill="#000000">argo::barrier</text>
</a>
</g>
</g>
<!-- Node0&#45;&gt;Node12 -->
<g id="edge14" class="edge">
<title>Node0&#45;&gt;Node12</title>
<path fill="none" stroke="#191970" d="M27.7023,-137.3695C33.3724,-114.8127 50.6469,-58.2589 87,-29 93.3465,-23.892 100.9558,-20.1523 108.7844,-17.4156"/>
<polygon fill="#191970" stroke="#191970" points="109.7932,-20.7671 118.3722,-14.5502 107.7887,-14.0602 109.7932,-20.7671"/>
</g>
<!-- Node2 -->
<g id="node3" class="node">
<title>Node2</title>
<g id="a_node3"><a xlink:href="classargo_1_1globallock_1_1global__tas__lock_ae1a2cc75c9371ed191ac68f4e72f227e.html#ae1a2cc75c9371ed191ac68f4e72f227e" target="_top" xlink:title="take the lock ">
<polygon fill="#ffffff" stroke="#000000" points="264.5,-299 264.5,-329 395.5,-329 395.5,-299 264.5,-299"/>
<text text-anchor="start" x="272.5" y="-317" font-family="Helvetica,sans-Serif" font-size="10.00" fill="#000000">argo::globallock::global</text>
<text text-anchor="middle" x="330" y="-306" font-family="Helvetica,sans-Serif" font-size="10.00" fill="#000000">_tas_lock::lock</text>
</a>
</g>
</g>
<!-- Node1&#45;&gt;Node2 -->
<g id="edge2" class="edge">
<title>Node1&#45;&gt;Node2</title>
<path fill="none" stroke="#191970" d="M212.2139,-282.0003C228.9118,-286.5367 247.4072,-291.5615 264.6983,-296.2591"/>
<polygon fill="#191970" stroke="#191970" points="264.1494,-299.7368 274.7172,-298.981 265.9847,-292.9816 264.1494,-299.7368"/>
</g>
<!-- Node5 -->
<g id="node6" class="node">
<title>Node5</title>
<g id="a_node6"><a xlink:href="classargo_1_1globallock_1_1global__tas__lock_a55bd610c8555b8d986541c3f669789a2.html#a55bd610c8555b8d986541c3f669789a2" target="_top" xlink:title="release the lock ">
<polygon fill="#ffffff" stroke="#000000" points="433,-252 433,-282 564,-282 564,-252 433,-252"/>
<text text-anchor="start" x="441" y="-270" font-family="Helvetica,sans-Serif" font-size="10.00" fill="#000000">argo::globallock::global</text>
<text text-anchor="middle" x="498.5" y="-259" font-family="Helvetica,sans-Serif" font-size="10.00" fill="#000000">_tas_lock::unlock</text>
</a>
</g>
</g>
<!-- Node1&#45;&gt;Node5 -->
<g id="edge5" class="edge">
<title>Node1&#45;&gt;Node5</title>
<path fill="none" stroke="#191970" d="M227.3449,-267C284.2609,-267 364.2606,-267 422.6108,-267"/>
<polygon fill="#191970" stroke="#191970" points="422.8773,-270.5001 432.8772,-267 422.8772,-263.5001 422.8773,-270.5001"/>
</g>
<!-- Node3 -->
<g id="node4" class="node">
<title>Node3</title>
<g id="a_node4"><a xlink:href="classargo_1_1globallock_1_1global__tas__lock_a89bbe556d8a271dd64d65b421993da00.html#a89bbe556d8a271dd64d65b421993da00" target="_top" xlink:title="try to lock ">
<polygon fill="#ffffff" stroke="#000000" points="433,-301 433,-331 564,-331 564,-301 433,-301"/>
<text text-anchor="start" x="441" y="-319" font-family="Helvetica,sans-Serif" font-size="10.00" fill="#000000">argo::globallock::global</text>
<text text-anchor="middle" x="498.5" y="-308" font-family="Helvetica,sans-Serif" font-size="10.00" fill="#000000">_tas_lock::try_lock</text>
</a>
</g>
</g>
<!-- Node2&#45;&gt;Node3 -->
<g id="edge3" class="edge">
<title>Node2&#45;&gt;Node3</title>
<path fill="none" stroke="#191970" d="M395.629,-314.779C404.4913,-314.8842 413.643,-314.9928 422.6647,-315.0999"/>
<polygon fill="#191970" stroke="#191970" points="422.7321,-318.6008 432.7729,-315.2199 422.8152,-311.6013 422.7321,-318.6008"/>
</g>
<!-- Node3&#45;&gt;Node4 -->
<g id="edge4" class="edge">
<title>Node3&#45;&gt;Node4</title>
<path fill="none" stroke="#191970" d="M542.5715,-300.8986C562.1881,-294.1768 585.0512,-286.3426 603.8537,-279.8998"/>
<polygon fill="#191970" stroke="#191970" points="605.23,-283.128 613.5555,-276.5754 602.9609,-276.506 605.23,-283.128"/>
</g>
<!-- Node5&#45;&gt;Node4 -->
<g id="edge6" class="edge">
<title>Node5&#45;&gt;Node4</title>
<path fill="none" stroke="#191970" d="M564.1406,-267C572.7104,-267 581.3932,-267 589.6921,-267"/>
<polygon fill="#191970" stroke="#191970" points="589.9614,-270.5001 599.9614,-267 589.9614,-263.5001 589.9614,-270.5001"/>
</g>
<!-- Node7 -->
<g id="node8" class="node">
<title>Node7</title>
<g id="a_node8"><a xlink:href="classargo_1_1allocators_1_1generic__allocator_ae0df0734076478aeaeb689cdb902497a.html#ae0df0734076478aeaeb689cdb902497a" target="_top" xlink:title="Allocate memory. ">
<polygon fill="#ffffff" stroke="#000000" points="263,-164 263,-194 397,-194 397,-164 263,-164"/>
<text text-anchor="start" x="271" y="-182" font-family="Helvetica,sans-Serif" font-size="10.00" fill="#000000">argo::allocators::generic</text>
<text text-anchor="middle" x="330" y="-171" font-family="Helvetica,sans-Serif" font-size="10.00" fill="#000000">_allocator::allocate</text>
</a>
</g>
</g>
<!-- Node6&#45;&gt;Node7 -->
<g id="edge8" class="edge">
<title>Node6&#45;&gt;Node7</title>
<path fill="none" stroke="#191970" d="M203.3608,-183.3921C218.4459,-182.8689 235.6236,-182.2732 252.3548,-181.6929"/>
<polygon fill="#191970" stroke="#191970" points="252.8192,-185.179 262.6919,-181.3344 252.5765,-178.1832 252.8192,-185.179"/>
</g>
<!-- Node11 -->
<g id="node12" class="node">
<title>Node11</title>
<g id="a_node12"><a xlink:href="namespaceargo_1_1env_a25a08cb2d0d11432d640ec7173063339.html#a25a08cb2d0d11432d640ec7173063339" target="_top" xlink:title="get the allocation policy requested by environment variable ">
<polygon fill="#ffffff" stroke="#000000" points="272,-39 272,-69 388,-69 388,-39 272,-39"/>
<text text-anchor="start" x="280" y="-57" font-family="Helvetica,sans-Serif" font-size="10.00" fill="#000000">argo::env::allocation</text>
<text text-anchor="middle" x="330" y="-46" font-family="Helvetica,sans-Serif" font-size="10.00" fill="#000000">_policy</text>
</a>
</g>
</g>
<!-- Node10&#45;&gt;Node11 -->
<g id="edge12" class="edge">
<title>Node10&#45;&gt;Node11</title>
<path fill="none" stroke="#191970" d="M220.9273,-54C234.1966,-54 248.2279,-54 261.6488,-54"/>
<polygon fill="#191970" stroke="#191970" points="261.7702,-57.5001 271.7701,-54 261.7701,-50.5001 261.7702,-57.5001"/>
</g>
</g>
</svg>
