<?xml version="1.0" encoding="UTF-8" standalone="no"?>
<!DOCTYPE svg PUBLIC "-//W3C//DTD SVG 1.1//EN"
 "http://www.w3.org/Graphics/SVG/1.1/DTD/svg11.dtd">
<!-- Generated by graphviz version 2.40.1 (20161225.0304)
 -->
<!-- Title: /home/atmerhannah/argodsm/src/signal/signal.hpp Pages: 1 -->
<svg width="394pt" height="162pt"
 viewBox="0.00 0.00 394.00 162.00" xmlns="http://www.w3.org/2000/svg" xmlns:xlink="http://www.w3.org/1999/xlink">
<g id="graph0" class="graph" transform="scale(1 1) rotate(0) translate(4 158)">
<title>/home/atmerhannah/argodsm/src/signal/signal.hpp</title>
<polygon fill="#ffffff" stroke="transparent" points="-4,4 -4,-158 390,-158 390,4 -4,4"/>
<!-- Node0 -->
<g id="node1" class="node">
<title>Node0</title>
<polygon fill="#bfbfbf" stroke="#000000" points="75,-123.5 75,-153.5 236,-153.5 236,-123.5 75,-123.5"/>
<text text-anchor="start" x="83" y="-141.5" font-family="Helvetica,sans-Serif" font-size="10.00" fill="#000000">/home/atmerhannah/argodsm</text>
<text text-anchor="middle" x="155.5" y="-130.5" font-family="Helvetica,sans-Serif" font-size="10.00" fill="#000000">/src/signal/signal.hpp</text>
</g>
<!-- Node1 -->
<g id="node2" class="node">
<title>Node1</title>
<polygon fill="#ffffff" stroke="#bfbfbf" points="0,-62 0,-81 65,-81 65,-62 0,-62"/>
<text text-anchor="middle" x="32.5" y="-69" font-family="Helvetica,sans-Serif" font-size="10.00" fill="#000000">stdexcept</text>
</g>
<!-- Node0&#45;&gt;Node1 -->
<g id="edge1" class="edge">
<title>Node0&#45;&gt;Node1</title>
<path fill="none" stroke="#191970" d="M127.8964,-123.4639C107.3515,-112.2728 79.4673,-97.0838 59.1535,-86.0186"/>
<polygon fill="#191970" stroke="#191970" points="60.587,-82.8139 50.1311,-81.1039 57.2385,-88.9611 60.587,-82.8139"/>
</g>
<!-- Node2 -->
<g id="node3" class="node">
<title>Node2</title>
<polygon fill="#ffffff" stroke="#bfbfbf" points="83.5,-62 83.5,-81 127.5,-81 127.5,-62 83.5,-62"/>
<text text-anchor="middle" x="105.5" y="-69" font-family="Helvetica,sans-Serif" font-size="10.00" fill="#000000">string</text>
</g>
<!-- Node0&#45;&gt;Node2 -->
<g id="edge2" class="edge">
<title>Node0&#45;&gt;Node2</title>
<path fill="none" stroke="#191970" d="M144.1542,-123.2967C136.5909,-113.1618 126.6224,-99.804 118.7031,-89.1921"/>
<polygon fill="#191970" stroke="#191970" points="121.4165,-86.976 112.6306,-81.055 115.8064,-91.1626 121.4165,-86.976"/>
</g>
<!-- Node3 -->
<g id="node4" class="node">
<title>Node3</title>
<polygon fill="#ffffff" stroke="#bfbfbf" points="216,-.5 216,-19.5 261,-19.5 261,-.5 216,-.5"/>
<text text-anchor="middle" x="238.5" y="-7.5" font-family="Helvetica,sans-Serif" font-size="10.00" fill="#000000">utility</text>
</g>
<!-- Node0&#45;&gt;Node3 -->
<g id="edge3" class="edge">
<title>Node0&#45;&gt;Node3</title>
<path fill="none" stroke="#191970" d="M156.0894,-123.2547C157.4308,-105.6839 161.7459,-76.5878 175.5,-56 184.1569,-43.042 197.7602,-32.439 210.114,-24.692"/>
<polygon fill="#191970" stroke="#191970" points="211.9689,-27.6614 218.8001,-19.5629 208.4096,-21.6338 211.9689,-27.6614"/>
</g>
<!-- Node4 -->
<g id="node5" class="node">
<title>Node4</title>
<polygon fill="#ffffff" stroke="#bfbfbf" points="184,-62 184,-81 239,-81 239,-62 184,-62"/>
<text text-anchor="middle" x="211.5" y="-69" font-family="Helvetica,sans-Serif" font-size="10.00" fill="#000000">signal.h</text>
</g>
<!-- Node0&#45;&gt;Node4 -->
<g id="edge4" class="edge">
<title>Node0&#45;&gt;Node4</title>
<path fill="none" stroke="#191970" d="M168.2073,-123.2967C176.7629,-113.0605 188.0665,-99.5366 196.9779,-88.8746"/>
<polygon fill="#191970" stroke="#191970" points="199.7861,-90.9724 203.5138,-81.055 194.4151,-86.4832 199.7861,-90.9724"/>
</g>
<!-- Node5 -->
<g id="node6" class="node">
<title>Node5</title>
<g id="a_node6"><a xlink:href="virtual__memory_8hpp.html" target="_top" xlink:title="This file provides facilities for handling virtual memory and virtual address space. ">
<polygon fill="#ffffff" stroke="#000000" points="257,-56.5 257,-86.5 386,-86.5 386,-56.5 257,-56.5"/>
<text text-anchor="start" x="265" y="-74.5" font-family="Helvetica,sans-Serif" font-size="10.00" fill="#000000">virtual_memory/virtual</text>
<text text-anchor="middle" x="321.5" y="-63.5" font-family="Helvetica,sans-Serif" font-size="10.00" fill="#000000">_memory.hpp</text>
</a>
</g>
</g>
<!-- Node0&#45;&gt;Node5 -->
<g id="edge5" class="edge">
<title>Node0&#45;&gt;Node5</title>
<path fill="none" stroke="#191970" d="M192.7536,-123.4639C216.9108,-113.7137 248.5866,-100.9289 274.4736,-90.4805"/>
<polygon fill="#191970" stroke="#191970" points="276.1207,-93.5901 284.0839,-86.6017 273.5007,-87.0989 276.1207,-93.5901"/>
</g>
<!-- Node5&#45;&gt;Node3 -->
<g id="edge6" class="edge">
<title>Node5&#45;&gt;Node3</title>
<path fill="none" stroke="#191970" d="M300.9831,-56.2977C288.5018,-47.0495 272.5841,-35.2551 259.9386,-25.8853"/>
<polygon fill="#191970" stroke="#191970" points="261.9078,-22.9882 251.7894,-19.8469 257.7404,-28.6126 261.9078,-22.9882"/>
</g>
</g>
</svg>
