<?xml version="1.0" encoding="UTF-8" standalone="no"?>
<!DOCTYPE svg PUBLIC "-//W3C//DTD SVG 1.1//EN"
 "http://www.w3.org/Graphics/SVG/1.1/DTD/svg11.dtd">
<!-- Generated by graphviz version 2.40.1 (20161225.0304)
 -->
<!-- Title: /home/atmerhannah/argodsm/src/backend/singlenode/singlenode.cpp Pages: 1 -->
<!--zoomable 475 -->
<svg id="main" version="1.1" xmlns="http://www.w3.org/2000/svg" xmlns:xlink="http://www.w3.org/1999/xlink" xml:space="preserve" onload="init(evt)">
<style type="text/css"><![CDATA[
.edge:hover path { stroke: red; }
.edge:hover polygon { stroke: red; fill: red; }
]]></style>
<script type="text/javascript"><![CDATA[
var edges = document.getElementsByTagName('g');
if (edges && edges.length) {
  for (var i=0;i<edges.length;i++) {
    if (edges[i].id.substr(0,4)=='edge') {
      edges[i].setAttribute('class','edge');
    }
  }
}
]]></script>
        <defs>
                <circle id="rim" cx="0" cy="0" r="7"/>
                <circle id="rim2" cx="0" cy="0" r="3.5"/>
                <g id="zoomPlus">
                        <use xlink:href="#rim" fill="#404040">
                                <set attributeName="fill" to="#808080" begin="zoomplus.mouseover" end="zoomplus.mouseout"/>
                        </use>
                        <path d="M-4,0h8M0,-4v8" fill="none" stroke="white" stroke-width="1.5" pointer-events="none"/>
                </g>
                <g id="zoomMin">
                        <use xlink:href="#rim" fill="#404040">
                                <set attributeName="fill" to="#808080" begin="zoomminus.mouseover" end="zoomminus.mouseout"/>
                        </use>
                        <path d="M-4,0h8" fill="none" stroke="white" stroke-width="1.5" pointer-events="none"/>
                </g>
                <g id="dirArrow">
                        <path fill="none" stroke="white" stroke-width="1.5" d="M0,-3.0v7 M-2.5,-0.5L0,-3.0L2.5,-0.5"/>
                </g>
               <g id="resetDef">
                       <use xlink:href="#rim2" fill="#404040">
                               <set attributeName="fill" to="#808080" begin="reset.mouseover" end="reset.mouseout"/>
                       </use>
               </g>
        </defs>

<script type="text/javascript">
var viewWidth = 1278;
var viewHeight = 475;
var sectionId = 'dynsection-0';
</script>
<script xlink:href="svgpan.js"/>
<svg id="graph" class="graph">
<g id="viewport">
<title>/home/atmerhannah/argodsm/src/backend/singlenode/singlenode.cpp</title>
<polygon fill="#ffffff" stroke="transparent" points="-4,4 -4,-471 1273.6093,-471 1273.6093,4 -4,4"/>
<!-- Node0 -->
<g id="node1" class="node">
<title>Node0</title>
<polygon fill="#bfbfbf" stroke="#000000" points="594.1093,-425.5 594.1093,-466.5 755.1093,-466.5 755.1093,-425.5 594.1093,-425.5"/>
<text text-anchor="start" x="602.1093" y="-454.5" font-family="Helvetica,sans-Serif" font-size="10.00" fill="#000000">/home/atmerhannah/argodsm</text>
<text text-anchor="start" x="602.1093" y="-443.5" font-family="Helvetica,sans-Serif" font-size="10.00" fill="#000000">/src/backend/singlenode</text>
<text text-anchor="middle" x="674.6093" y="-432.5" font-family="Helvetica,sans-Serif" font-size="10.00" fill="#000000">/singlenode.cpp</text>
</g>
<!-- Node1 -->
<g id="node2" class="node">
<title>Node1</title>
<g id="a_node2"><a xlink:href="global__ptr_8hpp.html" target="_top" xlink:title="This file provides the global pointer for ArgoDSM. ">
<polygon fill="#ffffff" stroke="#000000" points="506.6093,-224.5 506.6093,-254.5 638.6093,-254.5 638.6093,-224.5 506.6093,-224.5"/>
<text text-anchor="start" x="514.6093" y="-242.5" font-family="Helvetica,sans-Serif" font-size="10.00" fill="#000000">data_distribution/global</text>
<text text-anchor="middle" x="572.6093" y="-231.5" font-family="Helvetica,sans-Serif" font-size="10.00" fill="#000000">_ptr.hpp</text>
</a>
</g>
</g>
<!-- Node0&#45;&gt;Node1 -->
<g id="edge1" class="edge">
<title>Node0&#45;&gt;Node1</title>
<path fill="none" stroke="#191970" d="M677.3995,-425.3157C680.5661,-393.7121 682.2555,-332.6898 655.6093,-291 647.1436,-277.7549 633.9265,-267.3494 620.5088,-259.4639"/>
<polygon fill="#191970" stroke="#191970" points="622.1618,-256.3787 611.7104,-254.6412 618.7972,-262.517 622.1618,-256.3787"/>
</g>
<!-- Node4 -->
<g id="node5" class="node">
<title>Node4</title>
<polygon fill="#ffffff" stroke="#bfbfbf" points="1103.1093,-112.5 1103.1093,-131.5 1156.1093,-131.5 1156.1093,-112.5 1103.1093,-112.5"/>
<text text-anchor="middle" x="1129.6093" y="-119.5" font-family="Helvetica,sans-Serif" font-size="10.00" fill="#000000">cstddef</text>
</g>
<!-- Node0&#45;&gt;Node4 -->
<g id="edge46" class="edge">
<title>Node0&#45;&gt;Node4</title>
<path fill="none" stroke="#191970" d="M755.1383,-436.9999C834.0804,-424.1986 953.233,-393.6965 1028.6093,-322 1083.6236,-269.6714 1113.4617,-180.8694 1124.5327,-141.635"/>
<polygon fill="#191970" stroke="#191970" points="1127.9738,-142.3185 1127.2161,-131.7508 1121.2183,-140.4845 1127.9738,-142.3185"/>
</g>
<!-- Node10 -->
<g id="node11" class="node">
<title>Node10</title>
<g id="a_node11"><a xlink:href="types_8hpp.html" target="_top" xlink:title="This file defines common types used in ArgoDSM. ">
<polygon fill="#ffffff" stroke="#000000" points="119.6093,-.5 119.6093,-19.5 223.6093,-19.5 223.6093,-.5 119.6093,-.5"/>
<text text-anchor="middle" x="171.6093" y="-7.5" font-family="Helvetica,sans-Serif" font-size="10.00" fill="#000000">../types/types.hpp</text>
</a>
</g>
</g>
<!-- Node0&#45;&gt;Node10 -->
<g id="edge40" class="edge">
<title>Node0&#45;&gt;Node10</title>
<path fill="none" stroke="#191970" d="M593.869,-440.8273C469.2813,-432.2198 236.2296,-413.4575 156.6093,-389 81.6349,-365.9696 .6093,-384.9319 .6093,-306.5 .6093,-306.5 .6093,-306.5 .6093,-122 .6093,-91.4754 -1.8279,-77.7301 19.6093,-56 32.8834,-42.5445 75.5399,-30.307 112.2976,-21.8425"/>
<polygon fill="#191970" stroke="#191970" points="113.4887,-25.1624 122.4795,-19.5573 111.9557,-18.3323 113.4887,-25.1624"/>
</g>
<!-- Node16 -->
<g id="node17" class="node">
<title>Node16</title>
<polygon fill="#ffffff" stroke="#bfbfbf" points="281.6093,-56.5 281.6093,-75.5 329.6093,-75.5 329.6093,-56.5 281.6093,-56.5"/>
<text text-anchor="middle" x="305.6093" y="-63.5" font-family="Helvetica,sans-Serif" font-size="10.00" fill="#000000">mutex</text>
</g>
<!-- Node0&#45;&gt;Node16 -->
<g id="edge48" class="edge">
<title>Node0&#45;&gt;Node16</title>
<path fill="none" stroke="#191970" d="M593.8711,-439.4506C456.1656,-426.0339 190.6093,-389.412 190.6093,-306.5 190.6093,-306.5 190.6093,-306.5 190.6093,-178 190.6093,-131.2547 239.9769,-97.6844 274.0211,-80.0917"/>
<polygon fill="#191970" stroke="#191970" points="275.7608,-83.1357 283.1632,-75.5557 272.6495,-76.8651 275.7608,-83.1357"/>
</g>
<!-- Node17 -->
<g id="node18" class="node">
<title>Node17</title>
<g id="a_node18"><a xlink:href="signal_8hpp.html" target="_top" xlink:title="This file provides facilities for handling POSIX signals, especially SIGSEGV, within ArgoDSM...">
<polygon fill="#ffffff" stroke="#000000" points="730.1093,-364 730.1093,-383 829.1093,-383 829.1093,-364 730.1093,-364"/>
<text text-anchor="middle" x="779.6093" y="-371" font-family="Helvetica,sans-Serif" font-size="10.00" fill="#000000">signal/signal.hpp</text>
</a>
</g>
</g>
<!-- Node0&#45;&gt;Node17 -->
<g id="edge22" class="edge">
<title>Node0&#45;&gt;Node17</title>
<path fill="none" stroke="#191970" d="M704.4172,-425.4183C721.244,-413.7999 741.9218,-399.5223 757.3317,-388.8822"/>
<polygon fill="#191970" stroke="#191970" points="759.4868,-391.6474 765.7271,-383.0853 755.5094,-385.8872 759.4868,-391.6474"/>
</g>
<!-- Node21 -->
<g id="node22" class="node">
<title>Node21</title>
<g id="a_node22"><a xlink:href="virtual__memory_8hpp.html" target="_top" xlink:title="This file provides facilities for handling virtual memory and virtual address space. ">
<polygon fill="#ffffff" stroke="#000000" points="891.1093,-291.5 891.1093,-321.5 1020.1093,-321.5 1020.1093,-291.5 891.1093,-291.5"/>
<text text-anchor="start" x="899.1093" y="-309.5" font-family="Helvetica,sans-Serif" font-size="10.00" fill="#000000">virtual_memory/virtual</text>
<text text-anchor="middle" x="955.6093" y="-298.5" font-family="Helvetica,sans-Serif" font-size="10.00" fill="#000000">_memory.hpp</text>
</a>
</g>
</g>
<!-- Node0&#45;&gt;Node21 -->
<g id="edge41" class="edge">
<title>Node0&#45;&gt;Node21</title>
<path fill="none" stroke="#191970" d="M746.9697,-425.4085C775.8978,-415.9777 809.0578,-403.6212 837.6093,-389 871.2955,-371.7494 906.4108,-346.0461 929.4817,-327.9227"/>
<polygon fill="#191970" stroke="#191970" points="931.7621,-330.5811 937.4117,-321.6183 927.4059,-325.1017 931.7621,-330.5811"/>
</g>
<!-- Node22 -->
<g id="node23" class="node">
<title>Node22</title>
<g id="a_node23"><a xlink:href="global__tas__lock_8hpp.html" target="_top" xlink:title="This file provides a tas lock for the ArgoDSM system based on the TAS lock made by David Klaftenegger...">
<polygon fill="#ffffff" stroke="#000000" points="460.1093,-358.5 460.1093,-388.5 587.1093,-388.5 587.1093,-358.5 460.1093,-358.5"/>
<text text-anchor="start" x="468.1093" y="-376.5" font-family="Helvetica,sans-Serif" font-size="10.00" fill="#000000">synchronization/global</text>
<text text-anchor="middle" x="523.6093" y="-365.5" font-family="Helvetica,sans-Serif" font-size="10.00" fill="#000000">_tas_lock.hpp</text>
</a>
</g>
</g>
<!-- Node0&#45;&gt;Node22 -->
<g id="edge29" class="edge">
<title>Node0&#45;&gt;Node22</title>
<path fill="none" stroke="#191970" d="M631.7427,-425.4183C610.5714,-415.2533 585.1609,-403.0529 564.2936,-393.0338"/>
<polygon fill="#191970" stroke="#191970" points="565.5868,-389.7723 555.0571,-388.5991 562.557,-396.0826 565.5868,-389.7723"/>
</g>
<!-- Node23 -->
<g id="node24" class="node">
<title>Node23</title>
<g id="a_node24"><a xlink:href="backend_8hpp.html" target="_top" xlink:title="This file provides the backend interface. ">
<polygon fill="#ffffff" stroke="#000000" points="274.6093,-297 274.6093,-316 406.6093,-316 406.6093,-297 274.6093,-297"/>
<text text-anchor="middle" x="340.6093" y="-304" font-family="Helvetica,sans-Serif" font-size="10.00" fill="#000000">../backend/backend.hpp</text>
</a>
</g>
</g>
<!-- Node0&#45;&gt;Node23 -->
<g id="edge42" class="edge">
<title>Node0&#45;&gt;Node23</title>
<path fill="none" stroke="#191970" d="M593.953,-433.4551C550.1039,-424.6934 495.7651,-410.6092 450.6093,-389 414.651,-371.7923 378.7985,-341.9294 358.2144,-323.2437"/>
<polygon fill="#191970" stroke="#191970" points="360.3345,-320.4372 350.6155,-316.2192 355.5828,-325.5774 360.3345,-320.4372"/>
</g>
<!-- Node26 -->
<g id="node27" class="node">
<title>Node26</title>
<polygon fill="#ffffff" stroke="#bfbfbf" points="596.6093,-297 596.6093,-316 646.6093,-316 646.6093,-297 596.6093,-297"/>
<text text-anchor="middle" x="621.6093" y="-304" font-family="Helvetica,sans-Serif" font-size="10.00" fill="#000000">atomic</text>
</g>
<!-- Node0&#45;&gt;Node26 -->
<g id="edge43" class="edge">
<title>Node0&#45;&gt;Node26</title>
<path fill="none" stroke="#191970" d="M666.789,-425.4163C656.5646,-398.5051 638.7921,-351.7265 628.8584,-325.5803"/>
<polygon fill="#191970" stroke="#191970" points="632.0626,-324.1591 625.2392,-316.0541 625.519,-326.6452 632.0626,-324.1591"/>
</g>
<!-- Node29 -->
<g id="node30" class="node">
<title>Node29</title>
<polygon fill="#ffffff" stroke="#bfbfbf" points="1025.1093,-364 1025.1093,-383 1132.1093,-383 1132.1093,-364 1025.1093,-364"/>
<text text-anchor="middle" x="1078.6093" y="-371" font-family="Helvetica,sans-Serif" font-size="10.00" fill="#000000">condition_variable</text>
</g>
<!-- Node0&#45;&gt;Node29 -->
<g id="edge44" class="edge">
<title>Node0&#45;&gt;Node29</title>
<path fill="none" stroke="#191970" d="M755.2913,-433.6147C823.4996,-422.8329 923.7049,-406.2618 1010.6093,-389 1016.3916,-387.8515 1022.4341,-386.5792 1028.4286,-385.2717"/>
<polygon fill="#191970" stroke="#191970" points="1029.4138,-388.6383 1038.4173,-383.0538 1027.8964,-381.8047 1029.4138,-388.6383"/>
</g>
<!-- Node30 -->
<g id="node31" class="node">
<title>Node30</title>
<polygon fill="#ffffff" stroke="#bfbfbf" points="1150.1093,-364 1150.1093,-383 1201.1093,-383 1201.1093,-364 1150.1093,-364"/>
<text text-anchor="middle" x="1175.6093" y="-371" font-family="Helvetica,sans-Serif" font-size="10.00" fill="#000000">csignal</text>
</g>
<!-- Node0&#45;&gt;Node30 -->
<g id="edge45" class="edge">
<title>Node0&#45;&gt;Node30</title>
<path fill="none" stroke="#191970" d="M755.155,-443.3393C849.1739,-438.5947 1008.6152,-425.4318 1140.6093,-389 1142.7954,-388.3966 1145.0205,-387.6787 1147.2356,-386.8875"/>
<polygon fill="#191970" stroke="#191970" points="1148.7519,-390.0503 1156.7286,-383.0773 1146.1445,-383.554 1148.7519,-390.0503"/>
</g>
<!-- Node31 -->
<g id="node32" class="node">
<title>Node31</title>
<polygon fill="#ffffff" stroke="#bfbfbf" points="1219.6093,-364 1219.6093,-383 1269.6093,-383 1269.6093,-364 1219.6093,-364"/>
<text text-anchor="middle" x="1244.6093" y="-371" font-family="Helvetica,sans-Serif" font-size="10.00" fill="#000000">cstring</text>
</g>
<!-- Node0&#45;&gt;Node31 -->
<g id="edge47" class="edge">
<title>Node0&#45;&gt;Node31</title>
<path fill="none" stroke="#191970" d="M755.1218,-440.6195C883.0643,-431.5339 1126.8854,-411.8867 1210.6093,-389 1212.5805,-388.4612 1214.5813,-387.8203 1216.5747,-387.1106"/>
<polygon fill="#191970" stroke="#191970" points="1218.3687,-390.1589 1226.3074,-383.1428 1215.7261,-383.6769 1218.3687,-390.1589"/>
</g>
<!-- Node32 -->
<g id="node33" class="node">
<title>Node32</title>
<g id="a_node33"><a xlink:href="explicit__instantiations_8inc_8cpp.html" target="_top" xlink:title="file listing all template instances in the backend ">
<polygon fill="#ffffff" stroke="#000000" points="29.1093,-56.5 29.1093,-75.5 200.1093,-75.5 200.1093,-56.5 29.1093,-56.5"/>
<text text-anchor="middle" x="114.6093" y="-63.5" font-family="Helvetica,sans-Serif" font-size="10.00" fill="#000000">../explicit_instantiations.inc.cpp</text>
</a>
</g>
</g>
<!-- Node0&#45;&gt;Node32 -->
<g id="edge49" class="edge">
<title>Node0&#45;&gt;Node32</title>
<path fill="none" stroke="#191970" d="M593.7506,-441.2901C483.4057,-433.9088 292.1028,-417.4384 228.6093,-389 177.5736,-366.1413 133.6093,-362.421 133.6093,-306.5 133.6093,-306.5 133.6093,-306.5 133.6093,-178 133.6093,-145.2688 125.6241,-107.9052 120.0071,-85.6716"/>
<polygon fill="#191970" stroke="#191970" points="123.3382,-84.5763 117.4128,-75.7934 116.5678,-86.3545 123.3382,-84.5763"/>
</g>
<!-- Node2 -->
<g id="node3" class="node">
<title>Node2</title>
<polygon fill="#ffffff" stroke="#bfbfbf" points="754.6093,-168.5 754.6093,-187.5 798.6093,-187.5 798.6093,-168.5 754.6093,-168.5"/>
<text text-anchor="middle" x="776.6093" y="-175.5" font-family="Helvetica,sans-Serif" font-size="10.00" fill="#000000">string</text>
</g>
<!-- Node1&#45;&gt;Node2 -->
<g id="edge2" class="edge">
<title>Node1&#45;&gt;Node2</title>
<path fill="none" stroke="#191970" d="M623.4587,-224.4484C657.7239,-214.2631 703.9226,-200.448 744.6093,-188 744.7102,-187.9691 744.8112,-187.9382 744.9125,-187.9072"/>
<polygon fill="#191970" stroke="#191970" points="746.0639,-191.2148 754.5861,-184.9202 743.9986,-184.5264 746.0639,-191.2148"/>
</g>
<!-- Node3 -->
<g id="node4" class="node">
<title>Node3</title>
<g id="a_node4"><a xlink:href="env_8hpp.html" target="_top" xlink:title="This file provides facilities for handling environment variables. ">
<polygon fill="#ffffff" stroke="#000000" points="651.1093,-168.5 651.1093,-187.5 736.1093,-187.5 736.1093,-168.5 651.1093,-168.5"/>
<text text-anchor="middle" x="693.6093" y="-175.5" font-family="Helvetica,sans-Serif" font-size="10.00" fill="#000000">../env/env.hpp</text>
</a>
</g>
</g>
<!-- Node1&#45;&gt;Node3 -->
<g id="edge3" class="edge">
<title>Node1&#45;&gt;Node3</title>
<path fill="none" stroke="#191970" d="M602.2092,-224.4554C621.6015,-214.599 646.7835,-201.7999 665.8036,-192.1327"/>
<polygon fill="#191970" stroke="#191970" points="667.5298,-195.1815 674.8586,-187.5303 664.3581,-188.9412 667.5298,-195.1815"/>
</g>
<!-- Node5 -->
<g id="node6" class="node">
<title>Node5</title>
<g id="a_node6"><a xlink:href="data__distribution_8hpp.html" target="_top" xlink:title="This file provides an abstraction layer for distributing the shared memory space. ...">
<polygon fill="#ffffff" stroke="#000000" points="512.6093,-168.5 512.6093,-187.5 632.6093,-187.5 632.6093,-168.5 512.6093,-168.5"/>
<text text-anchor="middle" x="572.6093" y="-175.5" font-family="Helvetica,sans-Serif" font-size="10.00" fill="#000000">data_distribution.hpp</text>
</a>
</g>
</g>
<!-- Node1&#45;&gt;Node5 -->
<g id="edge5" class="edge">
<title>Node1&#45;&gt;Node5</title>
<path fill="none" stroke="#191970" d="M572.6093,-224.2977C572.6093,-216.3834 572.6093,-206.6043 572.6093,-198.0759"/>
<polygon fill="#191970" stroke="#191970" points="576.1094,-197.8469 572.6093,-187.8469 569.1094,-197.847 576.1094,-197.8469"/>
</g>
<!-- Node3&#45;&gt;Node4 -->
<g id="edge4" class="edge">
<title>Node3&#45;&gt;Node4</title>
<path fill="none" stroke="#191970" d="M736.1259,-169.5171C739.3296,-168.9719 742.5175,-168.4587 745.6093,-168 897.2316,-145.5061 937.5867,-158.2199 1088.6093,-132 1090.0531,-131.7493 1091.5215,-131.4768 1093.0019,-131.1874"/>
<polygon fill="#191970" stroke="#191970" points="1093.7678,-134.6028 1102.8118,-129.0839 1092.3002,-127.7583 1093.7678,-134.6028"/>
</g>
<!-- Node6 -->
<g id="node7" class="node">
<title>Node6</title>
<g id="a_node7"><a xlink:href="base__distribution_8hpp.html" target="_top" xlink:title="This file implements the base distribution class for all the policies to derive from. ">
<polygon fill="#ffffff" stroke="#000000" points="568.6093,-56.5 568.6093,-75.5 690.6093,-75.5 690.6093,-56.5 568.6093,-56.5"/>
<text text-anchor="middle" x="629.6093" y="-63.5" font-family="Helvetica,sans-Serif" font-size="10.00" fill="#000000">base_distribution.hpp</text>
</a>
</g>
</g>
<!-- Node5&#45;&gt;Node6 -->
<g id="edge6" class="edge">
<title>Node5&#45;&gt;Node6</title>
<path fill="none" stroke="#191970" d="M632.7936,-169.0709C635.7725,-168.6938 638.7236,-168.3343 641.6093,-168 687.4761,-162.6865 1024.4059,-166.0345 1055.6093,-132 1061.6163,-125.448 1061.5477,-118.6142 1055.6093,-112 1032.3934,-86.1423 816.1015,-73.5246 700.9641,-68.5952"/>
<polygon fill="#191970" stroke="#191970" points="700.9616,-65.0921 690.8237,-68.1698 700.6681,-72.086 700.9616,-65.0921"/>
</g>
<!-- Node11 -->
<g id="node12" class="node">
<title>Node11</title>
<g id="a_node12"><a xlink:href="naive__distribution_8hpp.html" target="_top" xlink:title="This file implements the naive data distribution. ">
<polygon fill="#ffffff" stroke="#000000" points="423.1093,-112.5 423.1093,-131.5 548.1093,-131.5 548.1093,-112.5 423.1093,-112.5"/>
<text text-anchor="middle" x="485.6093" y="-119.5" font-family="Helvetica,sans-Serif" font-size="10.00" fill="#000000">naive_distribution.hpp</text>
</a>
</g>
</g>
<!-- Node5&#45;&gt;Node11 -->
<g id="edge11" class="edge">
<title>Node5&#45;&gt;Node11</title>
<path fill="none" stroke="#191970" d="M557.4551,-168.2455C544.1066,-159.6534 524.4507,-147.0014 509.071,-137.1018"/>
<polygon fill="#191970" stroke="#191970" points="510.8929,-134.1121 500.5899,-131.6427 507.1042,-139.9982 510.8929,-134.1121"/>
</g>
<!-- Node12 -->
<g id="node13" class="node">
<title>Node12</title>
<g id="a_node13"><a xlink:href="cyclic__distribution_8hpp.html" target="_top" xlink:title="This file implements the cyclic data distribution. ">
<polygon fill="#ffffff" stroke="#000000" points="566.6093,-112.5 566.6093,-131.5 692.6093,-131.5 692.6093,-112.5 566.6093,-112.5"/>
<text text-anchor="middle" x="629.6093" y="-119.5" font-family="Helvetica,sans-Serif" font-size="10.00" fill="#000000">cyclic_distribution.hpp</text>
</a>
</g>
</g>
<!-- Node5&#45;&gt;Node12 -->
<g id="edge13" class="edge">
<title>Node5&#45;&gt;Node12</title>
<path fill="none" stroke="#191970" d="M582.538,-168.2455C590.7931,-160.1352 602.7302,-148.4075 612.5175,-138.7919"/>
<polygon fill="#191970" stroke="#191970" points="615.1139,-141.1476 619.7944,-131.6427 610.2082,-136.1542 615.1139,-141.1476"/>
</g>
<!-- Node13 -->
<g id="node14" class="node">
<title>Node13</title>
<g id="a_node14"><a xlink:href="skew__mapp__distribution_8hpp.html" target="_top" xlink:title="This file implements the skew&#45;mapp data distribution. ">
<polygon fill="#ffffff" stroke="#000000" points="711.1093,-112.5 711.1093,-131.5 868.1093,-131.5 868.1093,-112.5 711.1093,-112.5"/>
<text text-anchor="middle" x="789.6093" y="-119.5" font-family="Helvetica,sans-Serif" font-size="10.00" fill="#000000">skew_mapp_distribution.hpp</text>
</a>
</g>
</g>
<!-- Node5&#45;&gt;Node13 -->
<g id="edge15" class="edge">
<title>Node5&#45;&gt;Node13</title>
<path fill="none" stroke="#191970" d="M609.9129,-168.3733C646.7778,-158.8598 703.2753,-144.2797 743.0599,-134.0127"/>
<polygon fill="#191970" stroke="#191970" points="743.9843,-137.3889 752.7925,-131.5011 742.2351,-130.611 743.9843,-137.3889"/>
</g>
<!-- Node14 -->
<g id="node15" class="node">
<title>Node14</title>
<g id="a_node15"><a xlink:href="prime__mapp__distribution_8hpp.html" target="_top" xlink:title="This file implements the prime&#45;mapp data distribution. ">
<polygon fill="#ffffff" stroke="#000000" points="886.6093,-112.5 886.6093,-131.5 1046.6093,-131.5 1046.6093,-112.5 886.6093,-112.5"/>
<text text-anchor="middle" x="966.6093" y="-119.5" font-family="Helvetica,sans-Serif" font-size="10.00" fill="#000000">prime_mapp_distribution.hpp</text>
</a>
</g>
</g>
<!-- Node5&#45;&gt;Node14 -->
<g id="edge17" class="edge">
<title>Node5&#45;&gt;Node14</title>
<path fill="none" stroke="#191970" d="M632.8184,-169.262C635.7907,-168.8344 638.7336,-168.4119 641.6093,-168 725.9438,-155.9206 822.6171,-142.2616 888.4557,-132.9876"/>
<polygon fill="#191970" stroke="#191970" points="889.3368,-136.3981 898.751,-131.5377 888.3606,-129.4665 889.3368,-136.3981"/>
</g>
<!-- Node15 -->
<g id="node16" class="node">
<title>Node15</title>
<g id="a_node16"><a xlink:href="first__touch__distribution_8hpp.html" target="_top" xlink:title="This file implements the first&#45;touch data distribution. ">
<polygon fill="#ffffff" stroke="#000000" points="256.1093,-112.5 256.1093,-131.5 405.1093,-131.5 405.1093,-112.5 256.1093,-112.5"/>
<text text-anchor="middle" x="330.6093" y="-119.5" font-family="Helvetica,sans-Serif" font-size="10.00" fill="#000000">first_touch_distribution.hpp</text>
</a>
</g>
</g>
<!-- Node5&#45;&gt;Node15 -->
<g id="edge19" class="edge">
<title>Node5&#45;&gt;Node15</title>
<path fill="none" stroke="#191970" d="M531.283,-168.4369C489.8666,-158.8529 426.0316,-144.0812 381.5158,-133.78"/>
<polygon fill="#191970" stroke="#191970" points="382.2968,-130.3683 371.7652,-131.5237 380.7186,-137.1881 382.2968,-130.3683"/>
</g>
<!-- Node7 -->
<g id="node8" class="node">
<title>Node7</title>
<polygon fill="#ffffff" stroke="#bfbfbf" points="532.1093,-.5 532.1093,-19.5 581.1093,-19.5 581.1093,-.5 532.1093,-.5"/>
<text text-anchor="middle" x="556.6093" y="-7.5" font-family="Helvetica,sans-Serif" font-size="10.00" fill="#000000">cstdlib</text>
</g>
<!-- Node6&#45;&gt;Node7 -->
<g id="edge7" class="edge">
<title>Node6&#45;&gt;Node7</title>
<path fill="none" stroke="#191970" d="M616.8937,-56.2455C606.0073,-47.8943 590.121,-35.7076 577.3893,-25.9408"/>
<polygon fill="#191970" stroke="#191970" points="579.2439,-22.9523 569.1792,-19.6427 574.9832,-28.5063 579.2439,-22.9523"/>
</g>
<!-- Node8 -->
<g id="node9" class="node">
<title>Node8</title>
<polygon fill="#ffffff" stroke="#bfbfbf" points="599.6093,-.5 599.6093,-19.5 659.6093,-19.5 659.6093,-.5 599.6093,-.5"/>
<text text-anchor="middle" x="629.6093" y="-7.5" font-family="Helvetica,sans-Serif" font-size="10.00" fill="#000000">iostream</text>
</g>
<!-- Node6&#45;&gt;Node8 -->
<g id="edge8" class="edge">
<title>Node6&#45;&gt;Node8</title>
<path fill="none" stroke="#191970" d="M629.6093,-56.2455C629.6093,-48.9382 629.6093,-38.6944 629.6093,-29.7046"/>
<polygon fill="#191970" stroke="#191970" points="633.1094,-29.6426 629.6093,-19.6427 626.1094,-29.6427 633.1094,-29.6426"/>
</g>
<!-- Node9 -->
<g id="node10" class="node">
<title>Node9</title>
<polygon fill="#ffffff" stroke="#bfbfbf" points="678.1093,-.5 678.1093,-19.5 759.1093,-19.5 759.1093,-.5 678.1093,-.5"/>
<text text-anchor="middle" x="718.6093" y="-7.5" font-family="Helvetica,sans-Serif" font-size="10.00" fill="#000000">system_error</text>
</g>
<!-- Node6&#45;&gt;Node9 -->
<g id="edge9" class="edge">
<title>Node6&#45;&gt;Node9</title>
<path fill="none" stroke="#191970" d="M645.1119,-56.2455C658.7673,-47.6534 678.875,-35.0014 694.6082,-25.1018"/>
<polygon fill="#191970" stroke="#191970" points="696.6844,-27.9307 703.2843,-19.6427 692.9564,-22.006 696.6844,-27.9307"/>
</g>
<!-- Node6&#45;&gt;Node10 -->
<g id="edge10" class="edge">
<title>Node6&#45;&gt;Node10</title>
<path fill="none" stroke="#191970" d="M568.3166,-58.5057C480.9773,-47.8266 321.5911,-28.3384 233.7747,-17.601"/>
<polygon fill="#191970" stroke="#191970" points="234.0401,-14.1075 223.6892,-16.3678 233.1905,-21.0557 234.0401,-14.1075"/>
</g>
<!-- Node11&#45;&gt;Node6 -->
<g id="edge12" class="edge">
<title>Node11&#45;&gt;Node6</title>
<path fill="none" stroke="#191970" d="M510.3638,-112.3733C533.8942,-103.2226 569.478,-89.3844 595.6519,-79.2057"/>
<polygon fill="#191970" stroke="#191970" points="597.1264,-82.3877 605.1778,-75.5011 594.5892,-75.8636 597.1264,-82.3877"/>
</g>
<!-- Node12&#45;&gt;Node6 -->
<g id="edge14" class="edge">
<title>Node12&#45;&gt;Node6</title>
<path fill="none" stroke="#191970" d="M629.6093,-112.2455C629.6093,-104.9382 629.6093,-94.6944 629.6093,-85.7046"/>
<polygon fill="#191970" stroke="#191970" points="633.1094,-85.6426 629.6093,-75.6427 626.1094,-85.6427 633.1094,-85.6426"/>
</g>
<!-- Node13&#45;&gt;Node6 -->
<g id="edge16" class="edge">
<title>Node13&#45;&gt;Node6</title>
<path fill="none" stroke="#191970" d="M762.1043,-112.3733C735.7291,-103.1419 695.7242,-89.1402 666.5735,-78.9375"/>
<polygon fill="#191970" stroke="#191970" points="667.3502,-75.5012 656.7554,-75.5011 665.0377,-82.1082 667.3502,-75.5012"/>
</g>
<!-- Node14&#45;&gt;Node6 -->
<g id="edge18" class="edge">
<title>Node14&#45;&gt;Node6</title>
<path fill="none" stroke="#191970" d="M909.0599,-112.4369C850.2944,-102.6717 759.118,-87.5207 697.0127,-77.2006"/>
<polygon fill="#191970" stroke="#191970" points="697.3599,-73.7103 686.9214,-75.5237 696.2124,-80.6157 697.3599,-73.7103"/>
</g>
<!-- Node15&#45;&gt;Node6 -->
<g id="edge21" class="edge">
<title>Node15&#45;&gt;Node6</title>
<path fill="none" stroke="#191970" d="M381.6695,-112.4369C433.4861,-102.7321 513.7043,-87.708 568.7808,-77.3926"/>
<polygon fill="#191970" stroke="#191970" points="569.575,-80.8048 578.7597,-75.5237 568.2863,-73.9245 569.575,-80.8048"/>
</g>
<!-- Node15&#45;&gt;Node16 -->
<g id="edge20" class="edge">
<title>Node15&#45;&gt;Node16</title>
<path fill="none" stroke="#191970" d="M326.2546,-112.2455C322.8849,-104.6973 318.1163,-94.0158 314.011,-84.8197"/>
<polygon fill="#191970" stroke="#191970" points="317.1866,-83.3473 309.9141,-75.6427 310.7947,-86.2009 317.1866,-83.3473"/>
</g>
<!-- Node17&#45;&gt;Node2 -->
<g id="edge24" class="edge">
<title>Node17&#45;&gt;Node2</title>
<path fill="none" stroke="#191970" d="M777.1261,-363.7091C774.6513,-353.4091 771.022,-336.6871 769.6093,-322 765.3546,-277.767 770.368,-225.6281 773.8407,-197.8233"/>
<polygon fill="#191970" stroke="#191970" points="777.3249,-198.172 775.1601,-187.8007 770.3848,-197.2584 777.3249,-198.172"/>
</g>
<!-- Node18 -->
<g id="node19" class="node">
<title>Node18</title>
<polygon fill="#ffffff" stroke="#bfbfbf" points="657.1093,-230 657.1093,-249 722.1093,-249 722.1093,-230 657.1093,-230"/>
<text text-anchor="middle" x="689.6093" y="-237" font-family="Helvetica,sans-Serif" font-size="10.00" fill="#000000">stdexcept</text>
</g>
<!-- Node17&#45;&gt;Node18 -->
<g id="edge23" class="edge">
<title>Node17&#45;&gt;Node18</title>
<path fill="none" stroke="#191970" d="M770.487,-363.6639C761.3763,-353.5995 747.2361,-337.3098 736.6093,-322 722.0731,-301.058 707.9477,-275.3111 699.0414,-258.2069"/>
<polygon fill="#191970" stroke="#191970" points="702.1173,-256.5348 694.437,-249.2366 695.8898,-259.7314 702.1173,-256.5348"/>
</g>
<!-- Node19 -->
<g id="node20" class="node">
<title>Node19</title>
<polygon fill="#ffffff" stroke="#bfbfbf" points="886.1093,-230 886.1093,-249 931.1093,-249 931.1093,-230 886.1093,-230"/>
<text text-anchor="middle" x="908.6093" y="-237" font-family="Helvetica,sans-Serif" font-size="10.00" fill="#000000">utility</text>
</g>
<!-- Node17&#45;&gt;Node19 -->
<g id="edge25" class="edge">
<title>Node17&#45;&gt;Node19</title>
<path fill="none" stroke="#191970" d="M792.8358,-363.9833C806.0763,-354.1674 826.7111,-338.0669 842.6093,-322 863.0438,-301.3487 883.4573,-274.6703 896.0534,-257.3284"/>
<polygon fill="#191970" stroke="#191970" points="898.9043,-259.3587 901.8864,-249.1921 893.2153,-255.2801 898.9043,-259.3587"/>
</g>
<!-- Node20 -->
<g id="node21" class="node">
<title>Node20</title>
<polygon fill="#ffffff" stroke="#bfbfbf" points="779.1093,-297 779.1093,-316 834.1093,-316 834.1093,-297 779.1093,-297"/>
<text text-anchor="middle" x="806.6093" y="-304" font-family="Helvetica,sans-Serif" font-size="10.00" fill="#000000">signal.h</text>
</g>
<!-- Node17&#45;&gt;Node20 -->
<g id="edge26" class="edge">
<title>Node17&#45;&gt;Node20</title>
<path fill="none" stroke="#191970" d="M783.4777,-363.9005C787.4877,-353.95 793.8632,-338.1292 798.9064,-325.6147"/>
<polygon fill="#191970" stroke="#191970" points="802.2565,-326.6651 802.748,-316.0817 795.7639,-324.0486 802.2565,-326.6651"/>
</g>
<!-- Node17&#45;&gt;Node21 -->
<g id="edge27" class="edge">
<title>Node17&#45;&gt;Node21</title>
<path fill="none" stroke="#191970" d="M804.8258,-363.9005C831.298,-353.8231 873.5863,-337.7247 906.6511,-325.1375"/>
<polygon fill="#191970" stroke="#191970" points="908.0487,-328.3506 916.1492,-321.5218 905.5582,-321.8086 908.0487,-328.3506"/>
</g>
<!-- Node21&#45;&gt;Node19 -->
<g id="edge28" class="edge">
<title>Node21&#45;&gt;Node19</title>
<path fill="none" stroke="#191970" d="M944.9443,-291.2967C937.9058,-281.2631 928.6516,-268.0709 921.2441,-257.5113"/>
<polygon fill="#191970" stroke="#191970" points="923.9202,-255.2316 915.312,-249.055 918.1896,-259.2516 923.9202,-255.2316"/>
</g>
<!-- Node22&#45;&gt;Node1 -->
<g id="edge36" class="edge">
<title>Node22&#45;&gt;Node1</title>
<path fill="none" stroke="#191970" d="M532.3917,-358.0857C537.8634,-348.0381 544.7597,-334.5144 549.6093,-322 556.8815,-303.2342 562.8933,-281.2498 566.9446,-264.6961"/>
<polygon fill="#191970" stroke="#191970" points="570.4153,-265.2284 569.3173,-254.6906 563.6042,-263.6131 570.4153,-265.2284"/>
</g>
<!-- Node22&#45;&gt;Node23 -->
<g id="edge30" class="edge">
<title>Node22&#45;&gt;Node23</title>
<path fill="none" stroke="#191970" d="M482.5405,-358.4639C450.6343,-346.7824 406.8305,-330.7449 376.3581,-319.5884"/>
<polygon fill="#191970" stroke="#191970" points="377.1653,-316.1567 366.5715,-316.0053 374.7586,-322.73 377.1653,-316.1567"/>
</g>
<!-- Node22&#45;&gt;Node26 -->
<g id="edge37" class="edge">
<title>Node22&#45;&gt;Node26</title>
<path fill="none" stroke="#191970" d="M545.847,-358.2967C561.8571,-347.351 583.3657,-332.6462 599.3749,-321.701"/>
<polygon fill="#191970" stroke="#191970" points="601.3536,-324.5881 607.6334,-316.055 597.4029,-318.8095 601.3536,-324.5881"/>
</g>
<!-- Node27 -->
<g id="node28" class="node">
<title>Node27</title>
<polygon fill="#ffffff" stroke="#bfbfbf" points="424.6093,-297 424.6093,-316 474.6093,-316 474.6093,-297 424.6093,-297"/>
<text text-anchor="middle" x="449.6093" y="-304" font-family="Helvetica,sans-Serif" font-size="10.00" fill="#000000">chrono</text>
</g>
<!-- Node22&#45;&gt;Node27 -->
<g id="edge38" class="edge">
<title>Node22&#45;&gt;Node27</title>
<path fill="none" stroke="#191970" d="M506.8176,-358.2967C495.1761,-347.7564 479.6845,-333.7303 467.7584,-322.9323"/>
<polygon fill="#191970" stroke="#191970" points="469.9247,-320.1722 460.1626,-316.055 465.2264,-325.3613 469.9247,-320.1722"/>
</g>
<!-- Node28 -->
<g id="node29" class="node">
<title>Node28</title>
<polygon fill="#ffffff" stroke="#bfbfbf" points="492.6093,-297 492.6093,-316 540.6093,-316 540.6093,-297 492.6093,-297"/>
<text text-anchor="middle" x="516.6093" y="-304" font-family="Helvetica,sans-Serif" font-size="10.00" fill="#000000">thread</text>
</g>
<!-- Node22&#45;&gt;Node28 -->
<g id="edge39" class="edge">
<title>Node22&#45;&gt;Node28</title>
<path fill="none" stroke="#191970" d="M522.0209,-358.2967C521.0256,-348.7699 519.7327,-336.3954 518.6603,-326.1306"/>
<polygon fill="#191970" stroke="#191970" points="522.1279,-325.6371 517.6076,-316.055 515.1657,-326.3646 522.1279,-325.6371"/>
</g>
<!-- Node23&#45;&gt;Node1 -->
<g id="edge34" class="edge">
<title>Node23&#45;&gt;Node1</title>
<path fill="none" stroke="#191970" d="M373.8493,-296.9005C409.4932,-286.6068 466.8901,-270.031 510.8623,-257.3321"/>
<polygon fill="#191970" stroke="#191970" points="511.9574,-260.659 520.5936,-254.5218 510.0151,-253.9338 511.9574,-260.659"/>
</g>
<!-- Node23&#45;&gt;Node10 -->
<g id="edge35" class="edge">
<title>Node23&#45;&gt;Node10</title>
<path fill="none" stroke="#191970" d="M322.6146,-296.7862C290.9548,-278.2337 228.6093,-234.5237 228.6093,-178 228.6093,-178 228.6093,-178 228.6093,-122 228.6093,-91.3494 222.9208,-83.1042 208.6093,-56 203.1539,-45.6681 195.2199,-35.4161 188.0968,-27.2217"/>
<polygon fill="#191970" stroke="#191970" points="190.6717,-24.8508 181.3657,-19.7864 185.4823,-29.5488 190.6717,-24.8508"/>
</g>
<!-- Node23&#45;&gt;Node18 -->
<g id="edge33" class="edge">
<title>Node23&#45;&gt;Node18</title>
<path fill="none" stroke="#191970" d="M384.9556,-296.9537C395.0158,-294.8943 405.6656,-292.7979 415.6093,-291 518.2896,-272.435 546.6054,-281.1937 647.6093,-255 650.5975,-254.2251 653.6695,-253.3175 656.7274,-252.337"/>
<polygon fill="#191970" stroke="#191970" points="658.0116,-255.5966 666.3265,-249.0305 655.7318,-248.9782 658.0116,-255.5966"/>
</g>
<!-- Node24 -->
<g id="node25" class="node">
<title>Node24</title>
<polygon fill="#ffffff" stroke="#bfbfbf" points="354.6093,-230 354.6093,-249 406.6093,-249 406.6093,-230 354.6093,-230"/>
<text text-anchor="middle" x="380.6093" y="-237" font-family="Helvetica,sans-Serif" font-size="10.00" fill="#000000">cassert</text>
</g>
<!-- Node23&#45;&gt;Node24 -->
<g id="edge31" class="edge">
<title>Node23&#45;&gt;Node24</title>
<path fill="none" stroke="#191970" d="M346.3403,-296.9005C352.3998,-286.751 362.1054,-270.4941 369.6434,-257.8679"/>
<polygon fill="#191970" stroke="#191970" points="372.7679,-259.462 374.8889,-249.0817 366.7576,-255.8737 372.7679,-259.462"/>
</g>
<!-- Node25 -->
<g id="node26" class="node">
<title>Node25</title>
<polygon fill="#ffffff" stroke="#bfbfbf" points="286.6093,-230 286.6093,-249 336.6093,-249 336.6093,-230 286.6093,-230"/>
<text text-anchor="middle" x="311.6093" y="-237" font-family="Helvetica,sans-Serif" font-size="10.00" fill="#000000">cstdint</text>
</g>
<!-- Node23&#45;&gt;Node25 -->
<g id="edge32" class="edge">
<title>Node23&#45;&gt;Node25</title>
<path fill="none" stroke="#191970" d="M336.4543,-296.9005C332.1474,-286.95 325.2996,-271.1292 319.8829,-258.6147"/>
<polygon fill="#191970" stroke="#191970" points="322.9409,-256.8686 315.7566,-249.0817 316.5169,-259.6492 322.9409,-256.8686"/>
</g>
<!-- Node32&#45;&gt;Node10 -->
<g id="edge50" class="edge">
<title>Node32&#45;&gt;Node10</title>
<path fill="none" stroke="#191970" d="M124.538,-56.2455C132.7931,-48.1352 144.7302,-36.4075 154.5175,-26.7919"/>
<polygon fill="#191970" stroke="#191970" points="157.1139,-29.1476 161.7944,-19.6427 152.2082,-24.1542 157.1139,-29.1476"/>
</g>
</g>
</svg>
        <g id="navigator" transform="translate(0 0)" fill="#404254">
                <rect fill="#f2f5e9" fill-opacity="0.5" stroke="#606060" stroke-width=".5" x="0" y="0" width="60" height="60"/>
                <use id="zoomplus" xlink:href="#zoomPlus" x="17" y="9" onmousedown="handleZoom(evt,'in')"/>
                <use id="zoomminus" xlink:href="#zoomMin" x="42" y="9" onmousedown="handleZoom(evt,'out')"/>
                <use id="reset" xlink:href="#resetDef" x="30" y="36" onmousedown="handleReset()"/>
                <g id="arrowUp" xlink:href="#dirArrow" transform="translate(30 24)" onmousedown="handlePan(0,-1)">
                  <use xlink:href="#rim" fill="#404040">
                        <set attributeName="fill" to="#808080" begin="arrowUp.mouseover" end="arrowUp.mouseout"/>
                  </use>
                  <path fill="none" stroke="white" stroke-width="1.5" d="M0,-3.0v7 M-2.5,-0.5L0,-3.0L2.5,-0.5"/>
                </g>
                <g id="arrowRight" xlink:href="#dirArrow" transform="rotate(90) translate(36 -43)" onmousedown="handlePan(1,0)">
                  <use xlink:href="#rim" fill="#404040">
                        <set attributeName="fill" to="#808080" begin="arrowRight.mouseover" end="arrowRight.mouseout"/>
                  </use>
                  <path fill="none" stroke="white" stroke-width="1.5" d="M0,-3.0v7 M-2.5,-0.5L0,-3.0L2.5,-0.5"/>
                </g>
                <g id="arrowDown" xlink:href="#dirArrow" transform="rotate(180) translate(-30 -48)" onmousedown="handlePan(0,1)">
                  <use xlink:href="#rim" fill="#404040">
                        <set attributeName="fill" to="#808080" begin="arrowDown.mouseover" end="arrowDown.mouseout"/>
                  </use>
                  <path fill="none" stroke="white" stroke-width="1.5" d="M0,-3.0v7 M-2.5,-0.5L0,-3.0L2.5,-0.5"/>
                </g>
                <g id="arrowLeft" xlink:href="#dirArrow" transform="rotate(270) translate(-36 17)" onmousedown="handlePan(-1,0)">
                  <use xlink:href="#rim" fill="#404040">
                        <set attributeName="fill" to="#808080" begin="arrowLeft.mouseover" end="arrowLeft.mouseout"/>
                  </use>
                  <path fill="none" stroke="white" stroke-width="1.5" d="M0,-3.0v7 M-2.5,-0.5L0,-3.0L2.5,-0.5"/>
                </g>
        </g>
        <svg viewBox="0 0 15 15" width="100%" height="30px" preserveAspectRatio="xMaxYMin meet">
         <g id="arrow_out" transform="scale(0.3 0.3)">
          <a xlink:href="singlenode_8cpp__incl_org.svg" target="_base">
           <rect id="button" ry="5" rx="5" y="6" x="6" height="38" width="38"
                fill="#f2f5e9" fill-opacity="0.5" stroke="#606060" stroke-width="1.0"/>
           <path id="arrow"
             d="M 11.500037,31.436501 C 11.940474,20.09759 22.043105,11.32322 32.158766,21.979434 L 37.068811,17.246167 C 37.068811,17.246167 37.088388,32 37.088388,32 L 22.160133,31.978069 C 22.160133,31.978069 26.997745,27.140456 26.997745,27.140456 C 18.528582,18.264221 13.291696,25.230495 11.500037,31.436501 z"
             style="fill:#404040;"/>
          </a>
         </g>
        </svg>
</svg>
