<?xml version="1.0" encoding="UTF-8" standalone="no"?>
<!DOCTYPE svg PUBLIC "-//W3C//DTD SVG 1.1//EN"
 "http://www.w3.org/Graphics/SVG/1.1/DTD/svg11.dtd">
<!-- Generated by graphviz version 2.40.1 (20161225.0304)
 -->
<!-- Title: self_invalidation Pages: 1 -->
<svg width="1211pt" height="219pt"
 viewBox="0.00 0.00 1211.00 219.00" xmlns="http://www.w3.org/2000/svg" xmlns:xlink="http://www.w3.org/1999/xlink">
<g id="graph0" class="graph" transform="scale(1 1) rotate(0) translate(4 215)">
<title>self_invalidation</title>
<polygon fill="#ffffff" stroke="transparent" points="-4,4 -4,-215 1207,-215 1207,4 -4,4"/>
<!-- Node0 -->
<g id="node1" class="node">
<title>Node0</title>
<polygon fill="#bfbfbf" stroke="#000000" points="0,-137 0,-156 98,-156 98,-137 0,-137"/>
<text text-anchor="middle" x="49" y="-144" font-family="Helvetica,sans-Serif" font-size="10.00" fill="#000000">self_invalidation</text>
</g>
<!-- Node1 -->
<g id="node2" class="node">
<title>Node1</title>
<g id="a_node2"><a xlink:href="swdsm_8cpp_af770e3f703653ddb0967b85d88881ab7.html#af770e3f703653ddb0967b85d88881ab7" target="_top" xlink:title="Gives the ArgoDSM node id for the local process. ">
<polygon fill="#ffffff" stroke="#000000" points="164.5,-181 164.5,-200 207.5,-200 207.5,-181 164.5,-181"/>
<text text-anchor="middle" x="186" y="-188" font-family="Helvetica,sans-Serif" font-size="10.00" fill="#000000">getID</text>
</a>
</g>
</g>
<!-- Node0&#45;&gt;Node1 -->
<g id="edge1" class="edge">
<title>Node0&#45;&gt;Node1</title>
<path fill="none" stroke="#191970" d="M78.727,-156.0473C101.2121,-163.2689 132.0081,-173.1595 154.8372,-180.4915"/>
<polygon fill="#191970" stroke="#191970" points="153.8046,-183.8359 164.3959,-183.5614 155.9451,-177.1712 153.8046,-183.8359"/>
</g>
<!-- Node2 -->
<g id="node3" class="node">
<title>Node2</title>
<g id="a_node3"><a xlink:href="swdsm_8cpp_adfcbbdedcad0833d49e3111447061689.html#adfcbbdedcad0833d49e3111447061689" target="_top" xlink:title="Gives an index to the sharer/writer vector depending on the address. ">
<polygon fill="#ffffff" stroke="#000000" points="135.5,-131.5 135.5,-161.5 236.5,-161.5 236.5,-131.5 135.5,-131.5"/>
<text text-anchor="start" x="143.5" y="-149.5" font-family="Helvetica,sans-Serif" font-size="10.00" fill="#000000">get_classification</text>
<text text-anchor="middle" x="186" y="-138.5" font-family="Helvetica,sans-Serif" font-size="10.00" fill="#000000">_index</text>
</a>
</g>
</g>
<!-- Node0&#45;&gt;Node2 -->
<g id="edge2" class="edge">
<title>Node0&#45;&gt;Node2</title>
<path fill="none" stroke="#191970" d="M98.0732,-146.5C106.8871,-146.5 116.1689,-146.5 125.2656,-146.5"/>
<polygon fill="#191970" stroke="#191970" points="125.4226,-150.0001 135.4226,-146.5 125.4226,-143.0001 125.4226,-150.0001"/>
</g>
<!-- Node3 -->
<g id="node4" class="node">
<title>Node3</title>
<g id="a_node4"><a xlink:href="classwrite__buffer_aca2e330e17a38c1cc8d8c60701ce9dd7.html#aca2e330e17a38c1cc8d8c60701ce9dd7" target="_top" xlink:title="Flushes the ArgoDSM write buffer to memory. ">
<polygon fill="#ffffff" stroke="#000000" points="134,-93 134,-112 238,-112 238,-93 134,-93"/>
<text text-anchor="middle" x="186" y="-100" font-family="Helvetica,sans-Serif" font-size="10.00" fill="#000000">write_buffer::flush</text>
</a>
</g>
</g>
<!-- Node0&#45;&gt;Node3 -->
<g id="edge3" class="edge">
<title>Node0&#45;&gt;Node3</title>
<path fill="none" stroke="#191970" d="M78.727,-136.9527C98.6545,-130.5526 125.1097,-122.056 146.7616,-115.1021"/>
<polygon fill="#191970" stroke="#191970" points="147.8803,-118.419 156.3311,-112.0287 145.7398,-111.7543 147.8803,-118.419"/>
</g>
<!-- Node4 -->
<g id="node5" class="node">
<title>Node4</title>
<g id="a_node5"><a xlink:href="classwrite__buffer_ab70cc0d6ca3591094aae489dbc3feaa5.html#ab70cc0d6ca3591094aae489dbc3feaa5" target="_top" xlink:title="Check if the write buffer is empty. ">
<polygon fill="#ffffff" stroke="#000000" points="283,-169 283,-188 396,-188 396,-169 283,-169"/>
<text text-anchor="middle" x="339.5" y="-176" font-family="Helvetica,sans-Serif" font-size="10.00" fill="#000000">write_buffer::empty</text>
</a>
</g>
</g>
<!-- Node3&#45;&gt;Node4 -->
<g id="edge4" class="edge">
<title>Node3&#45;&gt;Node4</title>
<path fill="none" stroke="#191970" d="M217.3254,-112.036C224.4148,-114.8662 231.7023,-118.3456 238,-122.5 257.1522,-135.1339 254.3293,-147.6897 274,-159.5 277.5973,-161.6598 281.4538,-163.5858 285.4288,-165.3012"/>
<polygon fill="#191970" stroke="#191970" points="284.263,-168.6028 294.8527,-168.9328 286.7802,-162.071 284.263,-168.6028"/>
</g>
<!-- Node5 -->
<g id="node6" class="node">
<title>Node5</title>
<g id="a_node6"><a xlink:href="classwrite__buffer_aa2325346aceb3e7ffdbdbdc8e8682147.html#aa2325346aceb3e7ffdbdbdc8e8682147" target="_top" xlink:title="Sorts all elements by home node id in ascending order. ">
<polygon fill="#ffffff" stroke="#000000" points="289.5,-131 289.5,-150 389.5,-150 389.5,-131 289.5,-131"/>
<text text-anchor="middle" x="339.5" y="-138" font-family="Helvetica,sans-Serif" font-size="10.00" fill="#000000">write_buffer::sort</text>
</a>
</g>
</g>
<!-- Node3&#45;&gt;Node5 -->
<g id="edge5" class="edge">
<title>Node3&#45;&gt;Node5</title>
<path fill="none" stroke="#191970" d="M224.7345,-112.089C244.8993,-117.0809 269.7479,-123.2324 291.1611,-128.5334"/>
<polygon fill="#191970" stroke="#191970" points="290.4959,-131.9743 301.044,-130.9799 292.1781,-125.1794 290.4959,-131.9743"/>
</g>
<!-- Node15 -->
<g id="node16" class="node">
<title>Node15</title>
<g id="a_node16"><a xlink:href="classwrite__buffer_ae065d3ee59035ad508eb8ce6670d2c89.html#ae065d3ee59035ad508eb8ce6670d2c89" target="_top" xlink:title="Removes the front element from the buffer and returns it. ">
<polygon fill="#ffffff" stroke="#000000" points="290,-93 290,-112 389,-112 389,-93 290,-93"/>
<text text-anchor="middle" x="339.5" y="-100" font-family="Helvetica,sans-Serif" font-size="10.00" fill="#000000">write_buffer::pop</text>
</a>
</g>
</g>
<!-- Node3&#45;&gt;Node15 -->
<g id="edge16" class="edge">
<title>Node3&#45;&gt;Node15</title>
<path fill="none" stroke="#191970" d="M238.3967,-102.5C251.6849,-102.5 266.0597,-102.5 279.685,-102.5"/>
<polygon fill="#191970" stroke="#191970" points="279.9279,-106.0001 289.9279,-102.5 279.9279,-99.0001 279.9279,-106.0001"/>
</g>
<!-- Node16 -->
<g id="node17" class="node">
<title>Node16</title>
<g id="a_node17"><a xlink:href="swdsm_8cpp_ae0f2d0961e80b2903b3f54c9e6c68658.html#ae0f2d0961e80b2903b3f54c9e6c68658" target="_top" xlink:title="stores a page remotely &#45; only writing back what has been written locally since last synchronization p...">
<polygon fill="#ffffff" stroke="#000000" points="296.5,-55 296.5,-74 382.5,-74 382.5,-55 296.5,-55"/>
<text text-anchor="middle" x="339.5" y="-62" font-family="Helvetica,sans-Serif" font-size="10.00" fill="#000000">storepageDIFF</text>
</a>
</g>
</g>
<!-- Node3&#45;&gt;Node16 -->
<g id="edge17" class="edge">
<title>Node3&#45;&gt;Node16</title>
<path fill="none" stroke="#191970" d="M224.7345,-92.911C244.8993,-87.9191 269.7479,-81.7676 291.1611,-76.4666"/>
<polygon fill="#191970" stroke="#191970" points="292.1781,-79.8206 301.044,-74.0201 290.4959,-73.0257 292.1781,-79.8206"/>
</g>
<!-- Node21 -->
<g id="node22" class="node">
<title>Node21</title>
<g id="a_node22"><a xlink:href="namespaceargo_a79c9492f3fd441bfa6261dffbc0f02f4.html#a79c9492f3fd441bfa6261dffbc0f02f4" target="_top" xlink:title="Number of ArgoDSM nodes being run. ">
<polygon fill="#ffffff" stroke="#000000" points="274,-17 274,-36 405,-36 405,-17 274,-17"/>
<text text-anchor="middle" x="339.5" y="-24" font-family="Helvetica,sans-Serif" font-size="10.00" fill="#000000">argo::number_of_nodes</text>
</a>
</g>
</g>
<!-- Node3&#45;&gt;Node21 -->
<g id="edge22" class="edge">
<title>Node3&#45;&gt;Node21</title>
<path fill="none" stroke="#191970" d="M198.1527,-92.9675C214.5424,-80.5129 245.026,-58.7374 274,-45.5 279.0482,-43.1936 284.4438,-41.0948 289.8903,-39.205"/>
<polygon fill="#191970" stroke="#191970" points="291.2519,-42.4429 299.6848,-36.0291 289.0928,-35.7842 291.2519,-42.4429"/>
</g>
<!-- Node6 -->
<g id="node7" class="node">
<title>Node6</title>
<g id="a_node7"><a xlink:href="namespaceargo_a48dc17c94275df10a8e7f3959cbf0191.html#a48dc17c94275df10a8e7f3959cbf0191" target="_top" xlink:title="Get the ArgoDSM node id where addr is physically backed. ">
<polygon fill="#ffffff" stroke="#000000" points="441,-134 441,-153 558,-153 558,-134 441,-134"/>
<text text-anchor="middle" x="499.5" y="-141" font-family="Helvetica,sans-Serif" font-size="10.00" fill="#000000">argo::get_homenode</text>
</a>
</g>
</g>
<!-- Node5&#45;&gt;Node6 -->
<g id="edge6" class="edge">
<title>Node5&#45;&gt;Node6</title>
<path fill="none" stroke="#191970" d="M389.686,-141.441C402.6124,-141.6834 416.7506,-141.9484 430.452,-142.2054"/>
<polygon fill="#191970" stroke="#191970" points="430.7533,-145.7115 440.8171,-142.3997 430.8845,-138.7127 430.7533,-145.7115"/>
</g>
<!-- Node7 -->
<g id="node8" class="node">
<title>Node7</title>
<g id="a_node8"><a xlink:href="classargo_1_1data__distribution_1_1global__ptr_a3e2cdd4d323ef91174615e27ab94e342.html#a3e2cdd4d323ef91174615e27ab94e342" target="_top" xlink:title="return the home node of the value pointed to, or a default value if the page has not yet been first&#45;t...">
<polygon fill="#ffffff" stroke="#000000" points="594,-175.5 594,-205.5 725,-205.5 725,-175.5 594,-175.5"/>
<text text-anchor="start" x="602" y="-193.5" font-family="Helvetica,sans-Serif" font-size="10.00" fill="#000000">argo::data_distribution</text>
<text text-anchor="middle" x="659.5" y="-182.5" font-family="Helvetica,sans-Serif" font-size="10.00" fill="#000000">::global_ptr::peek_node</text>
</a>
</g>
</g>
<!-- Node6&#45;&gt;Node7 -->
<g id="edge7" class="edge">
<title>Node6&#45;&gt;Node7</title>
<path fill="none" stroke="#191970" d="M531.8784,-153.0112C550.9686,-158.6189 575.7471,-165.8976 598.3856,-172.5476"/>
<polygon fill="#191970" stroke="#191970" points="597.6888,-175.9908 608.2699,-175.4512 599.6617,-169.2746 597.6888,-175.9908"/>
</g>
<!-- Node8 -->
<g id="node9" class="node">
<title>Node8</title>
<g id="a_node9"><a xlink:href="namespaceargo_a2f35b6b6e0af76fb8fb47f2031d6f58e.html#a2f35b6b6e0af76fb8fb47f2031d6f58e" target="_top" xlink:title="Get the block size of the current allocation policy. ">
<polygon fill="#ffffff" stroke="#000000" points="601.5,-137 601.5,-156 717.5,-156 717.5,-137 601.5,-137"/>
<text text-anchor="middle" x="659.5" y="-144" font-family="Helvetica,sans-Serif" font-size="10.00" fill="#000000">argo::get_block_size</text>
</a>
</g>
</g>
<!-- Node6&#45;&gt;Node8 -->
<g id="edge8" class="edge">
<title>Node6&#45;&gt;Node8</title>
<path fill="none" stroke="#191970" d="M558.1696,-144.6001C568.9585,-144.8023 580.3057,-145.0151 591.3452,-145.2221"/>
<polygon fill="#191970" stroke="#191970" points="591.3083,-148.7219 601.3722,-145.4101 591.4396,-141.7232 591.3083,-148.7219"/>
</g>
<!-- Node14 -->
<g id="node15" class="node">
<title>Node14</title>
<g id="a_node15"><a xlink:href="namespaceargo_a2b6b342c320b2a608d317a328fc46d83.html#a2b6b342c320b2a608d317a328fc46d83" target="_top" xlink:title="Size of memory which is the portion of memory owned by this node. ">
<polygon fill="#ffffff" stroke="#000000" points="610.5,-99 610.5,-118 708.5,-118 708.5,-99 610.5,-99"/>
<text text-anchor="middle" x="659.5" y="-106" font-family="Helvetica,sans-Serif" font-size="10.00" fill="#000000">argo::chunk_size</text>
</a>
</g>
</g>
<!-- Node6&#45;&gt;Node14 -->
<g id="edge15" class="edge">
<title>Node6&#45;&gt;Node14</title>
<path fill="none" stroke="#191970" d="M543.2207,-133.9361C562.6221,-129.692 585.6353,-124.6579 606.0477,-120.1927"/>
<polygon fill="#191970" stroke="#191970" points="606.8111,-123.6085 615.8322,-118.0523 605.3152,-116.7702 606.8111,-123.6085"/>
</g>
<!-- Node9 -->
<g id="node10" class="node">
<title>Node9</title>
<g id="a_node10"><a xlink:href="namespaceargo_1_1data__distribution_a2a70ed49553953957c3a28aa755d7ac8.html#a2a70ed49553953957c3a28aa755d7ac8" target="_top" xlink:title="based on the chosen policy, gets the policy block size ">
<polygon fill="#ffffff" stroke="#000000" points="761,-131.5 761,-161.5 888,-161.5 888,-131.5 761,-131.5"/>
<text text-anchor="start" x="769" y="-149.5" font-family="Helvetica,sans-Serif" font-size="10.00" fill="#000000">argo::data_distribution</text>
<text text-anchor="middle" x="824.5" y="-138.5" font-family="Helvetica,sans-Serif" font-size="10.00" fill="#000000">::policy_block_size</text>
</a>
</g>
</g>
<!-- Node8&#45;&gt;Node9 -->
<g id="edge9" class="edge">
<title>Node8&#45;&gt;Node9</title>
<path fill="none" stroke="#191970" d="M717.6728,-146.5C728.3993,-146.5 739.7284,-146.5 750.841,-146.5"/>
<polygon fill="#191970" stroke="#191970" points="750.9621,-150.0001 760.9621,-146.5 750.962,-143.0001 750.9621,-150.0001"/>
</g>
<!-- Node10 -->
<g id="node11" class="node">
<title>Node10</title>
<g id="a_node11"><a xlink:href="namespaceargo_1_1env_a30775a9aa41b956df7474a2c0cc317aa.html#a30775a9aa41b956df7474a2c0cc317aa" target="_top" xlink:title="get the allocation block size requested by environment variable ">
<polygon fill="#ffffff" stroke="#000000" points="929.5,-180.5 929.5,-210.5 1045.5,-210.5 1045.5,-180.5 929.5,-180.5"/>
<text text-anchor="start" x="937.5" y="-198.5" font-family="Helvetica,sans-Serif" font-size="10.00" fill="#000000">argo::env::allocation</text>
<text text-anchor="middle" x="987.5" y="-187.5" font-family="Helvetica,sans-Serif" font-size="10.00" fill="#000000">_block_size</text>
</a>
</g>
</g>
<!-- Node9&#45;&gt;Node10 -->
<g id="edge10" class="edge">
<title>Node9&#45;&gt;Node10</title>
<path fill="none" stroke="#191970" d="M874.7354,-161.6014C891.3909,-166.6083 910.0997,-172.2324 927.4194,-177.439"/>
<polygon fill="#191970" stroke="#191970" points="926.8462,-180.9213 937.4305,-180.4484 928.8615,-174.2177 926.8462,-180.9213"/>
</g>
<!-- Node11 -->
<g id="node12" class="node">
<title>Node11</title>
<g id="a_node12"><a xlink:href="namespaceargo_1_1data__distribution_a1bb3f2dcecd237990e6dc67764f06860.html#a1bb3f2dcecd237990e6dc67764f06860" target="_top" xlink:title="identifies if we distribute data using a cyclic memory policy ">
<polygon fill="#ffffff" stroke="#000000" points="924,-131.5 924,-161.5 1051,-161.5 1051,-131.5 924,-131.5"/>
<text text-anchor="start" x="932" y="-149.5" font-family="Helvetica,sans-Serif" font-size="10.00" fill="#000000">argo::data_distribution</text>
<text text-anchor="middle" x="987.5" y="-138.5" font-family="Helvetica,sans-Serif" font-size="10.00" fill="#000000">::is_cyclic_policy</text>
</a>
</g>
</g>
<!-- Node9&#45;&gt;Node11 -->
<g id="edge11" class="edge">
<title>Node9&#45;&gt;Node11</title>
<path fill="none" stroke="#191970" d="M888.4541,-146.5C896.7606,-146.5 905.3224,-146.5 913.7718,-146.5"/>
<polygon fill="#191970" stroke="#191970" points="913.9977,-150.0001 923.9977,-146.5 913.9977,-143.0001 913.9977,-150.0001"/>
</g>
<!-- Node13 -->
<g id="node14" class="node">
<title>Node13</title>
<g id="a_node14"><a xlink:href="namespaceargo_1_1data__distribution_a58576657391f45caf61bf0748a23b098.html#a58576657391f45caf61bf0748a23b098" target="_top" xlink:title="identifies if we distribute data using the first&#45;touch memory policy ">
<polygon fill="#ffffff" stroke="#000000" points="924,-82.5 924,-112.5 1051,-112.5 1051,-82.5 924,-82.5"/>
<text text-anchor="start" x="932" y="-100.5" font-family="Helvetica,sans-Serif" font-size="10.00" fill="#000000">argo::data_distribution</text>
<text text-anchor="middle" x="987.5" y="-89.5" font-family="Helvetica,sans-Serif" font-size="10.00" fill="#000000">::is_first_touch_policy</text>
</a>
</g>
</g>
<!-- Node9&#45;&gt;Node13 -->
<g id="edge13" class="edge">
<title>Node9&#45;&gt;Node13</title>
<path fill="none" stroke="#191970" d="M874.7354,-131.3986C891.3909,-126.3917 910.0997,-120.7676 927.4194,-115.561"/>
<polygon fill="#191970" stroke="#191970" points="928.8615,-118.7823 937.4305,-112.5516 926.8462,-112.0787 928.8615,-118.7823"/>
</g>
<!-- Node12 -->
<g id="node13" class="node">
<title>Node12</title>
<g id="a_node13"><a xlink:href="namespaceargo_1_1env_a25a08cb2d0d11432d640ec7173063339.html#a25a08cb2d0d11432d640ec7173063339" target="_top" xlink:title="get the allocation policy requested by environment variable ">
<polygon fill="#ffffff" stroke="#000000" points="1087,-106.5 1087,-136.5 1203,-136.5 1203,-106.5 1087,-106.5"/>
<text text-anchor="start" x="1095" y="-124.5" font-family="Helvetica,sans-Serif" font-size="10.00" fill="#000000">argo::env::allocation</text>
<text text-anchor="middle" x="1145" y="-113.5" font-family="Helvetica,sans-Serif" font-size="10.00" fill="#000000">_policy</text>
</a>
</g>
</g>
<!-- Node11&#45;&gt;Node12 -->
<g id="edge12" class="edge">
<title>Node11&#45;&gt;Node12</title>
<path fill="none" stroke="#191970" d="M1051.1073,-136.4036C1059.5754,-135.0595 1068.2863,-133.6768 1076.8281,-132.3209"/>
<polygon fill="#191970" stroke="#191970" points="1077.4255,-135.77 1086.7531,-130.7455 1076.3281,-128.8566 1077.4255,-135.77"/>
</g>
<!-- Node13&#45;&gt;Node12 -->
<g id="edge14" class="edge">
<title>Node13&#45;&gt;Node12</title>
<path fill="none" stroke="#191970" d="M1051.1073,-107.1925C1059.5754,-108.4829 1068.2863,-109.8103 1076.8281,-111.1119"/>
<polygon fill="#191970" stroke="#191970" points="1076.34,-114.5778 1086.7531,-112.6243 1077.3945,-107.6577 1076.34,-114.5778"/>
</g>
<!-- Node17 -->
<g id="node18" class="node">
<title>Node17</title>
<g id="a_node18"><a xlink:href="swdsm_8cpp_a0edf823a78daed8888e8e18468460617.html#a0edf823a78daed8888e8e18468460617" target="_top" xlink:title="Gives homenode for a given address. ">
<polygon fill="#ffffff" stroke="#000000" points="455,-55 455,-74 544,-74 544,-55 455,-55"/>
<text text-anchor="middle" x="499.5" y="-62" font-family="Helvetica,sans-Serif" font-size="10.00" fill="#000000">get_homenode</text>
</a>
</g>
</g>
<!-- Node16&#45;&gt;Node17 -->
<g id="edge18" class="edge">
<title>Node16&#45;&gt;Node17</title>
<path fill="none" stroke="#191970" d="M382.7983,-64.5C401.8788,-64.5 424.5155,-64.5 444.7506,-64.5"/>
<polygon fill="#191970" stroke="#191970" points="444.7724,-68.0001 454.7724,-64.5 444.7723,-61.0001 444.7724,-68.0001"/>
</g>
<!-- Node19 -->
<g id="node20" class="node">
<title>Node19</title>
<g id="a_node20"><a xlink:href="swdsm_8cpp_ab58b1f9fa1b59d3060f241994979e18f.html#ab58b1f9fa1b59d3060f241994979e18f" target="_top" xlink:title="Gets the offset of an address on the local nodes part of the global memory. ">
<polygon fill="#ffffff" stroke="#000000" points="467,-12 467,-31 532,-31 532,-12 467,-12"/>
<text text-anchor="middle" x="499.5" y="-19" font-family="Helvetica,sans-Serif" font-size="10.00" fill="#000000">get_offset</text>
</a>
</g>
</g>
<!-- Node16&#45;&gt;Node19 -->
<g id="edge20" class="edge">
<title>Node16&#45;&gt;Node19</title>
<path fill="none" stroke="#191970" d="M375.0092,-54.9569C399.2295,-48.4477 431.4273,-39.7945 457.0101,-32.9192"/>
<polygon fill="#191970" stroke="#191970" points="458.0652,-36.2599 466.8141,-30.2843 456.2483,-29.4998 458.0652,-36.2599"/>
</g>
<!-- Node18 -->
<g id="node19" class="node">
<title>Node18</title>
<g id="a_node19"><a xlink:href="classargo_1_1data__distribution_1_1global__ptr_ac7d651586337d08cda18ef26ffcd34a0.html#ac7d651586337d08cda18ef26ffcd34a0" target="_top" xlink:title="return the home node of the value pointed to ">
<polygon fill="#ffffff" stroke="#000000" points="596,-49.5 596,-79.5 723,-79.5 723,-49.5 596,-49.5"/>
<text text-anchor="start" x="604" y="-67.5" font-family="Helvetica,sans-Serif" font-size="10.00" fill="#000000">argo::data_distribution</text>
<text text-anchor="middle" x="659.5" y="-56.5" font-family="Helvetica,sans-Serif" font-size="10.00" fill="#000000">::global_ptr::node</text>
</a>
</g>
</g>
<!-- Node17&#45;&gt;Node18 -->
<g id="edge19" class="edge">
<title>Node17&#45;&gt;Node18</title>
<path fill="none" stroke="#191970" d="M544.0689,-64.5C556.9412,-64.5 571.3472,-64.5 585.5013,-64.5"/>
<polygon fill="#191970" stroke="#191970" points="585.7376,-68.0001 595.7375,-64.5 585.7375,-61.0001 585.7376,-68.0001"/>
</g>
<!-- Node20 -->
<g id="node21" class="node">
<title>Node20</title>
<g id="a_node21"><a xlink:href="classargo_1_1data__distribution_1_1global__ptr_ad8c21c408fa2b926cfd9acfd87e8e4e6.html#ad8c21c408fa2b926cfd9acfd87e8e4e6" target="_top" xlink:title="return the offset on the home node&#39;s local memory share ">
<polygon fill="#ffffff" stroke="#000000" points="596,-.5 596,-30.5 723,-30.5 723,-.5 596,-.5"/>
<text text-anchor="start" x="604" y="-18.5" font-family="Helvetica,sans-Serif" font-size="10.00" fill="#000000">argo::data_distribution</text>
<text text-anchor="middle" x="659.5" y="-7.5" font-family="Helvetica,sans-Serif" font-size="10.00" fill="#000000">::global_ptr::offset</text>
</a>
</g>
</g>
<!-- Node19&#45;&gt;Node20 -->
<g id="edge21" class="edge">
<title>Node19&#45;&gt;Node20</title>
<path fill="none" stroke="#191970" d="M532.2645,-20.2713C547.764,-19.6901 566.9491,-18.9707 585.6797,-18.2683"/>
<polygon fill="#191970" stroke="#191970" points="585.8488,-21.7645 595.7106,-17.8921 585.5864,-14.7694 585.8488,-21.7645"/>
</g>
</g>
</svg>
