<?xml version="1.0" encoding="UTF-8" standalone="no"?>
<!DOCTYPE svg PUBLIC "-//W3C//DTD SVG 1.1//EN"
 "http://www.w3.org/Graphics/SVG/1.1/DTD/svg11.dtd">
<!-- Generated by graphviz version 2.40.1 (20161225.0304)
 -->
<!-- Title: get_classification_index Pages: 1 -->
<svg width="888pt" height="267pt"
 viewBox="0.00 0.00 888.00 267.11" xmlns="http://www.w3.org/2000/svg" xmlns:xlink="http://www.w3.org/1999/xlink">
<g id="graph0" class="graph" transform="scale(1 1) rotate(0) translate(4 263.1074)">
<title>get_classification_index</title>
<polygon fill="#ffffff" stroke="transparent" points="-4,4 -4,-263.1074 884,-263.1074 884,4 -4,4"/>
<!-- Node1 -->
<g id="node1" class="node">
<title>Node1</title>
<polygon fill="#bfbfbf" stroke="#000000" points="0,-90 0,-120 101,-120 101,-90 0,-90"/>
<text text-anchor="start" x="8" y="-108" font-family="Helvetica,sans-Serif" font-size="10.00" fill="#000000">get_classification</text>
<text text-anchor="middle" x="50.5" y="-97" font-family="Helvetica,sans-Serif" font-size="10.00" fill="#000000">_index</text>
</g>
<!-- Node2 -->
<g id="node2" class="node">
<title>Node2</title>
<g id="a_node2"><a xlink:href="backend_8hpp_a0fb29a8253f0d9aefc999d93414b1758.html#a0fb29a8253f0d9aefc999d93414b1758" target="_top" xlink:title="backend internal type erased function for selective acquire ">
<polygon fill="#ffffff" stroke="#000000" points="137,-197 137,-227 278,-227 278,-197 137,-197"/>
<text text-anchor="start" x="145" y="-215" font-family="Helvetica,sans-Serif" font-size="10.00" fill="#000000">argo::backend::_selective</text>
<text text-anchor="middle" x="207.5" y="-204" font-family="Helvetica,sans-Serif" font-size="10.00" fill="#000000">_acquire</text>
</a>
</g>
</g>
<!-- Node1&#45;&gt;Node2 -->
<g id="edge1" class="edge">
<title>Node1&#45;&gt;Node2</title>
<path fill="none" stroke="#191970" d="M81.2516,-125.9581C111.9208,-146.86 158.2706,-178.4487 185.4515,-196.9733"/>
<polygon fill="#191970" stroke="#191970" points="82.8958,-122.8431 72.6613,-120.1035 78.9536,-128.6275 82.8958,-122.8431"/>
</g>
<!-- Node4 -->
<g id="node4" class="node">
<title>Node4</title>
<g id="a_node4"><a xlink:href="swdsm_8h_a8b00f264b792522b179fbc9c818187bd.html#a8b00f264b792522b179fbc9c818187bd" target="_top" xlink:title="Catches memory accesses to memory not yet cached in ArgoDSM. Launches remote requests for memory not ...">
<polygon fill="#ffffff" stroke="#000000" points="345.5,-38.5 345.5,-57.5 398.5,-57.5 398.5,-38.5 345.5,-38.5"/>
<text text-anchor="middle" x="372" y="-45.5" font-family="Helvetica,sans-Serif" font-size="10.00" fill="#000000">handler</text>
</a>
</g>
</g>
<!-- Node1&#45;&gt;Node4 -->
<g id="edge4" class="edge">
<title>Node1&#45;&gt;Node4</title>
<path fill="none" stroke="#191970" d="M111.2658,-95.4248C157.1463,-88.0559 221.6205,-77.4035 278,-67 300.7586,-62.8005 326.5154,-57.5599 345.3049,-53.6468"/>
<polygon fill="#191970" stroke="#191970" points="110.5073,-92.0016 101.1865,-97.0389 111.6142,-98.9135 110.5073,-92.0016"/>
</g>
<!-- Node7 -->
<g id="node7" class="node">
<title>Node7</title>
<g id="a_node7"><a xlink:href="swdsm_8cpp_a97adb774a1a5a7a3505416a171c570e9.html#a97adb774a1a5a7a3505416a171c570e9" target="_top" xlink:title="load into cache helper function ">
<polygon fill="#ffffff" stroke="#000000" points="156.5,-38.5 156.5,-57.5 258.5,-57.5 258.5,-38.5 156.5,-38.5"/>
<text text-anchor="middle" x="207.5" y="-45.5" font-family="Helvetica,sans-Serif" font-size="10.00" fill="#000000">load_cache_entry</text>
</a>
</g>
</g>
<!-- Node1&#45;&gt;Node7 -->
<g id="edge7" class="edge">
<title>Node1&#45;&gt;Node7</title>
<path fill="none" stroke="#191970" d="M98.4823,-86.3392C110.9876,-81.5735 124.4701,-76.5211 137,-72 150.6213,-67.085 165.8181,-61.8769 178.6046,-57.5729"/>
<polygon fill="#191970" stroke="#191970" points="97.23,-83.0708 89.1418,-89.9142 99.7322,-89.6084 97.23,-83.0708"/>
</g>
<!-- Node8 -->
<g id="node8" class="node">
<title>Node8</title>
<g id="a_node8"><a xlink:href="swdsm_8h_aa7c3a2de6bbafdaf68fe6ceb6110ab97.html#aa7c3a2de6bbafdaf68fe6ceb6110ab97" target="_top" xlink:title="Self&#45;Invalidates all memory that has potential writers. ">
<polygon fill="#ffffff" stroke="#000000" points="158.5,-114.5 158.5,-133.5 256.5,-133.5 256.5,-114.5 158.5,-114.5"/>
<text text-anchor="middle" x="207.5" y="-121.5" font-family="Helvetica,sans-Serif" font-size="10.00" fill="#000000">self_invalidation</text>
</a>
</g>
</g>
<!-- Node1&#45;&gt;Node8 -->
<g id="edge9" class="edge">
<title>Node1&#45;&gt;Node8</title>
<path fill="none" stroke="#191970" d="M111.1457,-112.3393C126.7854,-114.232 143.4235,-116.2455 158.3944,-118.0573"/>
<polygon fill="#191970" stroke="#191970" points="111.3881,-108.8432 101.04,-111.1163 110.547,-115.7925 111.3881,-108.8432"/>
</g>
<!-- Node2&#45;&gt;Node2 -->
<g id="edge2" class="edge">
<title>Node2&#45;&gt;Node2</title>
<path fill="none" stroke="#191970" d="M179.7807,-237.4579C183.221,-242.179 192.4608,-245.5 207.5,-245.5 232.1797,-245.5 241.2418,-236.5566 234.6862,-227.159"/>
<polygon fill="#191970" stroke="#191970" points="183.2921,-237.3266 180.3138,-227.159 176.3014,-236.9647 183.2921,-237.3266"/>
</g>
<!-- Node3 -->
<g id="node3" class="node">
<title>Node3</title>
<g id="a_node3"><a xlink:href="singlenode_8cpp_aab3cabb3e1c0b9696b339416b684f78c.html#aab3cabb3e1c0b9696b339416b684f78c" target="_top" xlink:title="argo::backend::init">
<polygon fill="#ffffff" stroke="#000000" points="630,-237.5 630,-256.5 737,-256.5 737,-237.5 630,-237.5"/>
<text text-anchor="middle" x="683.5" y="-244.5" font-family="Helvetica,sans-Serif" font-size="10.00" fill="#000000">argo::backend::init</text>
</a>
</g>
</g>
<!-- Node2&#45;&gt;Node3 -->
<g id="edge3" class="edge">
<title>Node2&#45;&gt;Node3</title>
<path fill="none" stroke="#191970" d="M286.4497,-228.9936C337.4126,-239.0793 405.2925,-250.8703 466,-256 522.6869,-260.79 537.1825,-258.8496 594,-256 605.5417,-255.4211 617.8893,-254.4249 629.6124,-253.301"/>
<polygon fill="#191970" stroke="#191970" points="286.9821,-225.5308 276.4899,-227.0016 285.6093,-232.3949 286.9821,-225.5308"/>
</g>
<!-- Node5 -->
<g id="node5" class="node">
<title>Node5</title>
<g id="a_node5"><a xlink:href="swdsm_8h_a10dca85d339ce630cf42dca685b3f6d9.html#a10dca85d339ce630cf42dca685b3f6d9" target="_top" xlink:title="Initializes ArgoDSM runtime. ">
<polygon fill="#ffffff" stroke="#000000" points="640.5,-.5 640.5,-19.5 726.5,-19.5 726.5,-.5 640.5,-.5"/>
<text text-anchor="middle" x="683.5" y="-7.5" font-family="Helvetica,sans-Serif" font-size="10.00" fill="#000000">argo_initialize</text>
</a>
</g>
</g>
<!-- Node4&#45;&gt;Node5 -->
<g id="edge5" class="edge">
<title>Node4&#45;&gt;Node5</title>
<path fill="none" stroke="#191970" d="M398.9185,-33.883C417.2661,-25.0818 442.4192,-14.586 466,-10 525.4908,1.5699 595.8785,-1.3678 640.1153,-5.1696"/>
<polygon fill="#191970" stroke="#191970" points="397.1496,-30.853 389.7341,-38.42 400.25,-37.129 397.1496,-30.853"/>
</g>
<!-- Node6 -->
<g id="node6" class="node">
<title>Node6</title>
<g id="a_node6"><a xlink:href="backend_8hpp_af0d80a03a17a374c10d9635ddf81e261.html#af0d80a03a17a374c10d9635ddf81e261" target="_top" xlink:title="initialize backend ">
<polygon fill="#ffffff" stroke="#000000" points="773,-.5 773,-19.5 880,-19.5 880,-.5 773,-.5"/>
<text text-anchor="middle" x="826.5" y="-7.5" font-family="Helvetica,sans-Serif" font-size="10.00" fill="#000000">argo::backend::init</text>
</a>
</g>
</g>
<!-- Node5&#45;&gt;Node6 -->
<g id="edge6" class="edge">
<title>Node5&#45;&gt;Node6</title>
<path fill="none" stroke="#191970" d="M736.933,-10C748.7171,-10 761.2019,-10 772.9891,-10"/>
<polygon fill="#191970" stroke="#191970" points="736.7928,-6.5001 726.7928,-10 736.7927,-13.5001 736.7928,-6.5001"/>
</g>
<!-- Node7&#45;&gt;Node4 -->
<g id="edge8" class="edge">
<title>Node7&#45;&gt;Node4</title>
<path fill="none" stroke="#191970" d="M268.9431,-48C295.2708,-48 324.6428,-48 345.2729,-48"/>
<polygon fill="#191970" stroke="#191970" points="268.6471,-44.5001 258.6471,-48 268.6471,-51.5001 268.6471,-44.5001"/>
</g>
<!-- Node9 -->
<g id="node9" class="node">
<title>Node9</title>
<g id="a_node9"><a xlink:href="swdsm_8h_ad3f5bdae81c60ac704dda7372792427d.html#ad3f5bdae81c60ac704dda7372792427d" target="_top" xlink:title="Global barrier for ArgoDSM &#45; needs to be called by every thread in the system that need coherent view...">
<polygon fill="#ffffff" stroke="#000000" points="314,-95.5 314,-114.5 430,-114.5 430,-95.5 314,-95.5"/>
<text text-anchor="middle" x="372" y="-102.5" font-family="Helvetica,sans-Serif" font-size="10.00" fill="#000000">swdsm_argo_barrier</text>
</a>
</g>
</g>
<!-- Node8&#45;&gt;Node9 -->
<g id="edge10" class="edge">
<title>Node8&#45;&gt;Node9</title>
<path fill="none" stroke="#191970" d="M267.2061,-117.1039C282.4569,-115.3424 298.8284,-113.4514 313.9926,-111.6999"/>
<polygon fill="#191970" stroke="#191970" points="266.3878,-113.675 256.8554,-118.2994 267.191,-120.6288 266.3878,-113.675"/>
</g>
<!-- Node15 -->
<g id="node15" class="node">
<title>Node15</title>
<g id="a_node15"><a xlink:href="swdsm_8h_a44b8bb7a3c8b47b4f9552c8e10b25e4b.html#a44b8bb7a3c8b47b4f9552c8e10b25e4b" target="_top" xlink:title="acquire function for ArgoDSM (Acquire according to Release Consistency) ">
<polygon fill="#ffffff" stroke="#000000" points="332,-171.5 332,-190.5 412,-190.5 412,-171.5 332,-171.5"/>
<text text-anchor="middle" x="372" y="-178.5" font-family="Helvetica,sans-Serif" font-size="10.00" fill="#000000">argo_acquire</text>
</a>
</g>
</g>
<!-- Node8&#45;&gt;Node15 -->
<g id="edge17" class="edge">
<title>Node8&#45;&gt;Node15</title>
<path fill="none" stroke="#191970" d="M244.8111,-136.9285C275.0788,-147.4164 317.0626,-161.9639 344.3766,-171.4284"/>
<polygon fill="#191970" stroke="#191970" points="245.6284,-133.5076 235.0336,-133.5405 243.3365,-140.1217 245.6284,-133.5076"/>
</g>
<!-- Node10 -->
<g id="node10" class="node">
<title>Node10</title>
<g id="a_node10"><a xlink:href="backend_8hpp_af1a647431651556204709451bebb5a42.html#af1a647431651556204709451bebb5a42" target="_top" xlink:title="a simple collective barrier ">
<polygon fill="#ffffff" stroke="#000000" points="468,-133.5 468,-152.5 592,-152.5 592,-133.5 468,-133.5"/>
<text text-anchor="middle" x="530" y="-140.5" font-family="Helvetica,sans-Serif" font-size="10.00" fill="#000000">argo::backend::barrier</text>
</a>
</g>
</g>
<!-- Node9&#45;&gt;Node10 -->
<g id="edge11" class="edge">
<title>Node9&#45;&gt;Node10</title>
<path fill="none" stroke="#191970" d="M421.7616,-116.968C443.9029,-122.2931 469.6116,-128.4762 490.4166,-133.4799"/>
<polygon fill="#191970" stroke="#191970" points="422.4113,-113.5245 411.8701,-114.589 420.7744,-120.3304 422.4113,-113.5245"/>
</g>
<!-- Node11 -->
<g id="node11" class="node">
<title>Node11</title>
<g id="a_node11"><a xlink:href="swdsm_8h_acd175d6d8efa5cce6963bae64891a490.html#acd175d6d8efa5cce6963bae64891a490" target="_top" xlink:title="Allocates memory in global address space. ">
<polygon fill="#ffffff" stroke="#000000" points="488.5,-95.5 488.5,-114.5 571.5,-114.5 571.5,-95.5 488.5,-95.5"/>
<text text-anchor="middle" x="530" y="-102.5" font-family="Helvetica,sans-Serif" font-size="10.00" fill="#000000">argo_gmalloc</text>
</a>
</g>
</g>
<!-- Node9&#45;&gt;Node11 -->
<g id="edge12" class="edge">
<title>Node9&#45;&gt;Node11</title>
<path fill="none" stroke="#191970" d="M440.3948,-105C456.6389,-105 473.4922,-105 488.14,-105"/>
<polygon fill="#191970" stroke="#191970" points="440.3845,-101.5001 430.3845,-105 440.3844,-108.5001 440.3845,-101.5001"/>
</g>
<!-- Node12 -->
<g id="node12" class="node">
<title>Node12</title>
<g id="a_node12"><a xlink:href="swdsm_8cpp_aa954d5e0bcaee69ff6e03e697bcaf68b.html#aa954d5e0bcaee69ff6e03e697bcaf68b" target="_top" xlink:title="shut down ArgoDSM system ">
<polygon fill="#ffffff" stroke="#000000" points="490.5,-57.5 490.5,-76.5 569.5,-76.5 569.5,-57.5 490.5,-57.5"/>
<text text-anchor="middle" x="530" y="-64.5" font-family="Helvetica,sans-Serif" font-size="10.00" fill="#000000">argo_finalize</text>
</a>
</g>
</g>
<!-- Node9&#45;&gt;Node12 -->
<g id="edge13" class="edge">
<title>Node9&#45;&gt;Node12</title>
<path fill="none" stroke="#191970" d="M421.7616,-93.032C443.9029,-87.7069 469.6116,-81.5238 490.4166,-76.5201"/>
<polygon fill="#191970" stroke="#191970" points="420.7744,-89.6696 411.8701,-95.411 422.4113,-96.4755 420.7744,-89.6696"/>
</g>
<!-- Node14 -->
<g id="node14" class="node">
<title>Node14</title>
<g id="a_node14"><a xlink:href="swdsm_8h_a0c6b51af2b87ddf7eb04aa7d4e0e836e.html#a0c6b51af2b87ddf7eb04aa7d4e0e836e" target="_top" xlink:title="Resets current coherence. Collective function called by all threads on all nodes. ...">
<polygon fill="#ffffff" stroke="#000000" points="468,-19.5 468,-38.5 592,-38.5 592,-19.5 468,-19.5"/>
<text text-anchor="middle" x="530" y="-26.5" font-family="Helvetica,sans-Serif" font-size="10.00" fill="#000000">argo_reset_coherence</text>
</a>
</g>
</g>
<!-- Node9&#45;&gt;Node14 -->
<g id="edge15" class="edge">
<title>Node9&#45;&gt;Node14</title>
<path fill="none" stroke="#191970" d="M395.1861,-89.9987C418.163,-75.306 451.9034,-54.2418 466,-48 474.1604,-44.3866 483.2019,-41.228 491.8561,-38.5775"/>
<polygon fill="#191970" stroke="#191970" points="393.1995,-87.1149 386.6762,-95.4634 396.9819,-93.0051 393.1995,-87.1149"/>
</g>
<!-- Node13 -->
<g id="node13" class="node">
<title>Node13</title>
<g id="a_node13"><a xlink:href="swdsm_8h_a18cc89a7368e30281ea4b1d214a1b1ff.html#a18cc89a7368e30281ea4b1d214a1b1ff" target="_top" xlink:title="Pins and registers the local thread. ">
<polygon fill="#ffffff" stroke="#000000" points="633,-57.5 633,-76.5 734,-76.5 734,-57.5 633,-57.5"/>
<text text-anchor="middle" x="683.5" y="-64.5" font-family="Helvetica,sans-Serif" font-size="10.00" fill="#000000">argo_pin_threads</text>
</a>
</g>
</g>
<!-- Node12&#45;&gt;Node13 -->
<g id="edge14" class="edge">
<title>Node12&#45;&gt;Node13</title>
<path fill="none" stroke="#191970" d="M579.8002,-67C596.7693,-67 615.7517,-67 632.7913,-67"/>
<polygon fill="#191970" stroke="#191970" points="579.5301,-63.5001 569.5301,-67 579.53,-70.5001 579.5301,-63.5001"/>
</g>
<!-- Node14&#45;&gt;Node5 -->
<g id="edge16" class="edge">
<title>Node14&#45;&gt;Node5</title>
<path fill="none" stroke="#191970" d="M602.7126,-19.9997C615.6043,-18.404 628.6483,-16.7895 640.3843,-15.3368"/>
<polygon fill="#191970" stroke="#191970" points="601.9286,-16.57 592.4343,-21.272 602.7886,-23.517 601.9286,-16.57"/>
</g>
<!-- Node16 -->
<g id="node16" class="node">
<title>Node16</title>
<g id="a_node16"><a xlink:href="backend_8hpp_a1032f833666c3f810ac1c6210197d426.html#a1032f833666c3f810ac1c6210197d426" target="_top" xlink:title="causes a node to self&#45;invalidate its cache, and thus getting any updated values on subsequent accesse...">
<polygon fill="#ffffff" stroke="#000000" points="466,-209.5 466,-228.5 594,-228.5 594,-209.5 466,-209.5"/>
<text text-anchor="middle" x="530" y="-216.5" font-family="Helvetica,sans-Serif" font-size="10.00" fill="#000000">argo::backend::acquire</text>
</a>
</g>
</g>
<!-- Node15&#45;&gt;Node16 -->
<g id="edge18" class="edge">
<title>Node15&#45;&gt;Node16</title>
<path fill="none" stroke="#191970" d="M421.7616,-192.968C443.9029,-198.2931 469.6116,-204.4762 490.4166,-209.4799"/>
<polygon fill="#191970" stroke="#191970" points="422.4113,-189.5245 411.8701,-190.589 420.7744,-196.3304 422.4113,-189.5245"/>
</g>
<!-- Node17 -->
<g id="node17" class="node">
<title>Node17</title>
<g id="a_node17"><a xlink:href="swdsm_8h_ac0b665f72bc2a28dc663ed204c526e1b.html#ac0b665f72bc2a28dc663ed204c526e1b" target="_top" xlink:title="acquire&#45;release function for ArgoDSM (Both acquire and release according to Release Consistency) ...">
<polygon fill="#ffffff" stroke="#000000" points="490.5,-171.5 490.5,-190.5 569.5,-190.5 569.5,-171.5 490.5,-171.5"/>
<text text-anchor="middle" x="530" y="-178.5" font-family="Helvetica,sans-Serif" font-size="10.00" fill="#000000">argo_acq_rel</text>
</a>
</g>
</g>
<!-- Node15&#45;&gt;Node17 -->
<g id="edge21" class="edge">
<title>Node15&#45;&gt;Node17</title>
<path fill="none" stroke="#191970" d="M422.4252,-181C444.3886,-181 469.7577,-181 490.3418,-181"/>
<polygon fill="#191970" stroke="#191970" points="422.2789,-177.5001 412.2789,-181 422.2788,-184.5001 422.2789,-177.5001"/>
</g>
<!-- Node16&#45;&gt;Node3 -->
<g id="edge20" class="edge">
<title>Node16&#45;&gt;Node3</title>
<path fill="none" stroke="#191970" d="M592.5757,-230.4145C605.4516,-232.7632 618.879,-235.2125 631.3395,-237.4854"/>
<polygon fill="#191970" stroke="#191970" points="592.8624,-226.9091 582.3967,-228.5577 591.6062,-233.7955 592.8624,-226.9091"/>
</g>
<!-- Node16&#45;&gt;Node16 -->
<g id="edge19" class="edge">
<title>Node16&#45;&gt;Node16</title>
<path fill="none" stroke="#191970" d="M501.6275,-237.6539C502.8135,-242.9368 512.271,-247 530,-247 557.0156,-247 564.8248,-237.5653 553.4276,-228.7571"/>
<polygon fill="#191970" stroke="#191970" points="504.7735,-239.1981 506.5724,-228.7571 498.6551,-235.7974 504.7735,-239.1981"/>
</g>
</g>
</svg>
