<?xml version="1.0" encoding="UTF-8" standalone="no"?>
<!DOCTYPE svg PUBLIC "-//W3C//DTD SVG 1.1//EN"
 "http://www.w3.org/Graphics/SVG/1.1/DTD/svg11.dtd">
<!-- Generated by graphviz version 2.40.1 (20161225.0304)
 -->
<!-- Title: argo_reset_coherence Pages: 1 -->
<svg width="1523pt" height="248pt"
 viewBox="0.00 0.00 1523.00 248.00" xmlns="http://www.w3.org/2000/svg" xmlns:xlink="http://www.w3.org/1999/xlink">
<g id="graph0" class="graph" transform="scale(1 1) rotate(0) translate(4 244)">
<title>argo_reset_coherence</title>
<polygon fill="#ffffff" stroke="transparent" points="-4,4 -4,-244 1519,-244 1519,4 -4,4"/>
<!-- Node0 -->
<g id="node1" class="node">
<title>Node0</title>
<polygon fill="#bfbfbf" stroke="#000000" points="0,-133 0,-152 124,-152 124,-133 0,-133"/>
<text text-anchor="middle" x="62" y="-140" font-family="Helvetica,sans-Serif" font-size="10.00" fill="#000000">argo_reset_coherence</text>
</g>
<!-- Node1 -->
<g id="node2" class="node">
<title>Node1</title>
<g id="a_node2"><a xlink:href="namespaceargo_1_1data__distribution_a58576657391f45caf61bf0748a23b098.html#a58576657391f45caf61bf0748a23b098" target="_top" xlink:title="identifies if we distribute data using the first&#45;touch memory policy ">
<polygon fill="#ffffff" stroke="#000000" points="1236,-209.5 1236,-239.5 1363,-239.5 1363,-209.5 1236,-209.5"/>
<text text-anchor="start" x="1244" y="-227.5" font-family="Helvetica,sans-Serif" font-size="10.00" fill="#000000">argo::data_distribution</text>
<text text-anchor="middle" x="1299.5" y="-216.5" font-family="Helvetica,sans-Serif" font-size="10.00" fill="#000000">::is_first_touch_policy</text>
</a>
</g>
</g>
<!-- Node0&#45;&gt;Node1 -->
<g id="edge1" class="edge">
<title>Node0&#45;&gt;Node1</title>
<path fill="none" stroke="#191970" d="M79.9484,-152.1717C125.5132,-175.7924 249.9331,-234.5 361,-234.5 361,-234.5 361,-234.5 971.5,-234.5 1058.7005,-234.5 1158.8808,-230.9252 1225.3473,-228.0503"/>
<polygon fill="#191970" stroke="#191970" points="1225.8811,-231.5304 1235.7181,-227.5956 1225.5744,-224.5371 1225.8811,-231.5304"/>
</g>
<!-- Node3 -->
<g id="node4" class="node">
<title>Node3</title>
<g id="a_node4"><a xlink:href="swdsm_8cpp_ad3f5bdae81c60ac704dda7372792427d.html#ad3f5bdae81c60ac704dda7372792427d" target="_top" xlink:title="Global barrier for ArgoDSM &#45; needs to be called by every thread in the system that need coherent view...">
<polygon fill="#ffffff" stroke="#000000" points="160,-133 160,-152 276,-152 276,-133 160,-133"/>
<text text-anchor="middle" x="218" y="-140" font-family="Helvetica,sans-Serif" font-size="10.00" fill="#000000">swdsm_argo_barrier</text>
</a>
</g>
</g>
<!-- Node0&#45;&gt;Node3 -->
<g id="edge3" class="edge">
<title>Node0&#45;&gt;Node3</title>
<path fill="none" stroke="#191970" d="M124.1036,-142.5C132.5001,-142.5 141.1533,-142.5 149.6512,-142.5"/>
<polygon fill="#191970" stroke="#191970" points="149.9123,-146.0001 159.9122,-142.5 149.9122,-139.0001 149.9123,-146.0001"/>
</g>
<!-- Node25 -->
<g id="node26" class="node">
<title>Node25</title>
<g id="a_node26"><a xlink:href="swdsm_8cpp_a3ec1931e5ea88671ed6be9885968b327.html#a3ec1931e5ea88671ed6be9885968b327" target="_top" xlink:title="Clears out all statistics. ">
<polygon fill="#ffffff" stroke="#000000" points="175,-95 175,-114 261,-114 261,-95 175,-95"/>
<text text-anchor="middle" x="218" y="-102" font-family="Helvetica,sans-Serif" font-size="10.00" fill="#000000">clearStatistics</text>
</a>
</g>
</g>
<!-- Node0&#45;&gt;Node25 -->
<g id="edge28" class="edge">
<title>Node0&#45;&gt;Node25</title>
<path fill="none" stroke="#191970" d="M101.3654,-132.911C121.9513,-127.8965 147.3405,-121.7119 169.169,-116.3947"/>
<polygon fill="#191970" stroke="#191970" points="170.0302,-119.7874 178.9177,-114.0201 168.3734,-112.9863 170.0302,-119.7874"/>
</g>
<!-- Node2 -->
<g id="node3" class="node">
<title>Node2</title>
<g id="a_node3"><a xlink:href="namespaceargo_1_1env_a25a08cb2d0d11432d640ec7173063339.html#a25a08cb2d0d11432d640ec7173063339" target="_top" xlink:title="get the allocation policy requested by environment variable ">
<polygon fill="#ffffff" stroke="#000000" points="1399,-160.5 1399,-190.5 1515,-190.5 1515,-160.5 1399,-160.5"/>
<text text-anchor="start" x="1407" y="-178.5" font-family="Helvetica,sans-Serif" font-size="10.00" fill="#000000">argo::env::allocation</text>
<text text-anchor="middle" x="1457" y="-167.5" font-family="Helvetica,sans-Serif" font-size="10.00" fill="#000000">_policy</text>
</a>
</g>
</g>
<!-- Node1&#45;&gt;Node2 -->
<g id="edge2" class="edge">
<title>Node1&#45;&gt;Node2</title>
<path fill="none" stroke="#191970" d="M1348.0403,-209.3986C1364.1339,-204.3917 1382.2114,-198.7676 1398.9467,-193.561"/>
<polygon fill="#191970" stroke="#191970" points="1400.1111,-196.8643 1408.6199,-190.5516 1398.0316,-190.1803 1400.1111,-196.8643"/>
</g>
<!-- Node4 -->
<g id="node5" class="node">
<title>Node4</title>
<g id="a_node5"><a xlink:href="swdsm_8cpp_ac99d42ffcf7c78281cb3a6b286ce3a5e.html#ac99d42ffcf7c78281cb3a6b286ce3a5e" target="_top" xlink:title="Gives number of ArgoDSM nodes. ">
<polygon fill="#ffffff" stroke="#000000" points="314,-152 314,-171 408,-171 408,-152 314,-152"/>
<text text-anchor="middle" x="361" y="-159" font-family="Helvetica,sans-Serif" font-size="10.00" fill="#000000">argo_get_nodes</text>
</a>
</g>
</g>
<!-- Node3&#45;&gt;Node4 -->
<g id="edge4" class="edge">
<title>Node3&#45;&gt;Node4</title>
<path fill="none" stroke="#191970" d="M276.1636,-150.228C285.265,-151.4373 294.6652,-152.6863 303.746,-153.8928"/>
<polygon fill="#191970" stroke="#191970" points="303.4558,-157.3849 313.8297,-155.2326 304.3778,-150.4459 303.4558,-157.3849"/>
</g>
<!-- Node5 -->
<g id="node6" class="node">
<title>Node5</title>
<g id="a_node6"><a xlink:href="classwrite__buffer_aca2e330e17a38c1cc8d8c60701ce9dd7.html#aca2e330e17a38c1cc8d8c60701ce9dd7" target="_top" xlink:title="Flushes the ArgoDSM write buffer to memory. ">
<polygon fill="#ffffff" stroke="#000000" points="446,-114 446,-133 550,-133 550,-114 446,-114"/>
<text text-anchor="middle" x="498" y="-121" font-family="Helvetica,sans-Serif" font-size="10.00" fill="#000000">write_buffer::flush</text>
</a>
</g>
</g>
<!-- Node3&#45;&gt;Node5 -->
<g id="edge5" class="edge">
<title>Node3&#45;&gt;Node5</title>
<path fill="none" stroke="#191970" d="M276.0162,-138.5632C322.5769,-135.4037 387.8172,-130.9767 435.5209,-127.7397"/>
<polygon fill="#191970" stroke="#191970" points="435.984,-131.2164 445.7241,-127.0473 435.5101,-124.2324 435.984,-131.2164"/>
</g>
<!-- Node22 -->
<g id="node23" class="node">
<title>Node22</title>
<g id="a_node23"><a xlink:href="swdsm_8cpp_aa7c3a2de6bbafdaf68fe6ceb6110ab97.html#aa7c3a2de6bbafdaf68fe6ceb6110ab97" target="_top" xlink:title="Self&#45;Invalidates all memory that has potential writers. ">
<polygon fill="#ffffff" stroke="#000000" points="312,-76 312,-95 410,-95 410,-76 312,-76"/>
<text text-anchor="middle" x="361" y="-83" font-family="Helvetica,sans-Serif" font-size="10.00" fill="#000000">self_invalidation</text>
</a>
</g>
</g>
<!-- Node3&#45;&gt;Node22 -->
<g id="edge24" class="edge">
<title>Node3&#45;&gt;Node22</title>
<path fill="none" stroke="#191970" d="M249.2137,-132.933C257.9471,-130.0785 267.4003,-126.8205 276,-123.5 294.7315,-116.2673 315.2979,-107.1067 331.5082,-99.5919"/>
<polygon fill="#191970" stroke="#191970" points="333.4095,-102.5665 340.9831,-95.1576 330.4423,-96.2265 333.4095,-102.5665"/>
</g>
<!-- Node6 -->
<g id="node7" class="node">
<title>Node6</title>
<g id="a_node7"><a xlink:href="classwrite__buffer_ab70cc0d6ca3591094aae489dbc3feaa5.html#ab70cc0d6ca3591094aae489dbc3feaa5" target="_top" xlink:title="Check if the write buffer is empty. ">
<polygon fill="#ffffff" stroke="#000000" points="595,-171 595,-190 708,-190 708,-171 595,-171"/>
<text text-anchor="middle" x="651.5" y="-178" font-family="Helvetica,sans-Serif" font-size="10.00" fill="#000000">write_buffer::empty</text>
</a>
</g>
</g>
<!-- Node5&#45;&gt;Node6 -->
<g id="edge6" class="edge">
<title>Node5&#45;&gt;Node6</title>
<path fill="none" stroke="#191970" d="M518.3335,-133.1453C535.9848,-141.3083 562.3521,-153.0021 586,-161.5 592.3635,-163.7867 599.1475,-165.9988 605.8477,-168.0556"/>
<polygon fill="#191970" stroke="#191970" points="604.9624,-171.4438 615.5456,-170.9487 606.9635,-164.736 604.9624,-171.4438"/>
</g>
<!-- Node7 -->
<g id="node8" class="node">
<title>Node7</title>
<g id="a_node8"><a xlink:href="classwrite__buffer_aa2325346aceb3e7ffdbdbdc8e8682147.html#aa2325346aceb3e7ffdbdbdc8e8682147" target="_top" xlink:title="Sorts all elements by home node id in ascending order. ">
<polygon fill="#ffffff" stroke="#000000" points="601.5,-133 601.5,-152 701.5,-152 701.5,-133 601.5,-133"/>
<text text-anchor="middle" x="651.5" y="-140" font-family="Helvetica,sans-Serif" font-size="10.00" fill="#000000">write_buffer::sort</text>
</a>
</g>
</g>
<!-- Node5&#45;&gt;Node7 -->
<g id="edge7" class="edge">
<title>Node5&#45;&gt;Node7</title>
<path fill="none" stroke="#191970" d="M550.3967,-129.9856C563.5465,-131.6132 577.7603,-133.3726 591.259,-135.0435"/>
<polygon fill="#191970" stroke="#191970" points="591.0584,-138.5453 601.4126,-136.3003 591.9183,-131.5983 591.0584,-138.5453"/>
</g>
<!-- Node15 -->
<g id="node16" class="node">
<title>Node15</title>
<g id="a_node16"><a xlink:href="classwrite__buffer_ae065d3ee59035ad508eb8ce6670d2c89.html#ae065d3ee59035ad508eb8ce6670d2c89" target="_top" xlink:title="Removes the front element from the buffer and returns it. ">
<polygon fill="#ffffff" stroke="#000000" points="602,-95 602,-114 701,-114 701,-95 602,-95"/>
<text text-anchor="middle" x="651.5" y="-102" font-family="Helvetica,sans-Serif" font-size="10.00" fill="#000000">write_buffer::pop</text>
</a>
</g>
</g>
<!-- Node5&#45;&gt;Node15 -->
<g id="edge17" class="edge">
<title>Node5&#45;&gt;Node15</title>
<path fill="none" stroke="#191970" d="M550.3967,-117.0144C563.6849,-115.3696 578.0597,-113.5903 591.685,-111.9038"/>
<polygon fill="#191970" stroke="#191970" points="592.4336,-115.3379 601.9279,-110.636 591.5737,-108.391 592.4336,-115.3379"/>
</g>
<!-- Node16 -->
<g id="node17" class="node">
<title>Node16</title>
<g id="a_node17"><a xlink:href="swdsm_8cpp_ae0f2d0961e80b2903b3f54c9e6c68658.html#ae0f2d0961e80b2903b3f54c9e6c68658" target="_top" xlink:title="stores a page remotely &#45; only writing back what has been written locally since last synchronization p...">
<polygon fill="#ffffff" stroke="#000000" points="608.5,-56 608.5,-75 694.5,-75 694.5,-56 608.5,-56"/>
<text text-anchor="middle" x="651.5" y="-63" font-family="Helvetica,sans-Serif" font-size="10.00" fill="#000000">storepageDIFF</text>
</a>
</g>
</g>
<!-- Node5&#45;&gt;Node16 -->
<g id="edge18" class="edge">
<title>Node5&#45;&gt;Node16</title>
<path fill="none" stroke="#191970" d="M526.3437,-113.9307C534.0985,-111.1003 542.4456,-107.8552 550,-104.5 566.5343,-97.1565 569.2736,-92.3948 586,-85.5 592.3516,-82.8818 599.1729,-80.4266 605.9282,-78.1942"/>
<polygon fill="#191970" stroke="#191970" points="607.2419,-81.4495 615.7159,-75.0899 605.1256,-74.777 607.2419,-81.4495"/>
</g>
<!-- Node21 -->
<g id="node22" class="node">
<title>Node21</title>
<g id="a_node22"><a xlink:href="namespaceargo_a79c9492f3fd441bfa6261dffbc0f02f4.html#a79c9492f3fd441bfa6261dffbc0f02f4" target="_top" xlink:title="Number of ArgoDSM nodes being run. ">
<polygon fill="#ffffff" stroke="#000000" points="586,-18 586,-37 717,-37 717,-18 586,-18"/>
<text text-anchor="middle" x="651.5" y="-25" font-family="Helvetica,sans-Serif" font-size="10.00" fill="#000000">argo::number_of_nodes</text>
</a>
</g>
</g>
<!-- Node5&#45;&gt;Node21 -->
<g id="edge23" class="edge">
<title>Node5&#45;&gt;Node21</title>
<path fill="none" stroke="#191970" d="M534.0922,-113.9005C539.7675,-111.4116 545.3023,-108.3207 550,-104.5 573.5376,-85.3565 561.8254,-64.8325 586,-46.5 588.4677,-44.6287 591.1149,-42.9414 593.8791,-41.4201"/>
<polygon fill="#191970" stroke="#191970" points="595.4782,-44.5357 603.0296,-37.1042 592.492,-38.2046 595.4782,-44.5357"/>
</g>
<!-- Node8 -->
<g id="node9" class="node">
<title>Node8</title>
<g id="a_node9"><a xlink:href="namespaceargo_a48dc17c94275df10a8e7f3959cbf0191.html#a48dc17c94275df10a8e7f3959cbf0191" target="_top" xlink:title="Get the ArgoDSM node id where addr is physically backed. ">
<polygon fill="#ffffff" stroke="#000000" points="753,-134 753,-153 870,-153 870,-134 753,-134"/>
<text text-anchor="middle" x="811.5" y="-141" font-family="Helvetica,sans-Serif" font-size="10.00" fill="#000000">argo::get_homenode</text>
</a>
</g>
</g>
<!-- Node7&#45;&gt;Node8 -->
<g id="edge8" class="edge">
<title>Node7&#45;&gt;Node8</title>
<path fill="none" stroke="#191970" d="M701.686,-142.8137C714.6124,-142.8945 728.7506,-142.9828 742.452,-143.0685"/>
<polygon fill="#191970" stroke="#191970" points="742.7954,-146.5706 752.8171,-143.1332 742.8392,-139.5707 742.7954,-146.5706"/>
</g>
<!-- Node9 -->
<g id="node10" class="node">
<title>Node9</title>
<g id="a_node10"><a xlink:href="classargo_1_1data__distribution_1_1global__ptr_a3e2cdd4d323ef91174615e27ab94e342.html#a3e2cdd4d323ef91174615e27ab94e342" target="_top" xlink:title="return the home node of the value pointed to, or a default value if the page has not yet been first&#45;t...">
<polygon fill="#ffffff" stroke="#000000" points="906,-175.5 906,-205.5 1037,-205.5 1037,-175.5 906,-175.5"/>
<text text-anchor="start" x="914" y="-193.5" font-family="Helvetica,sans-Serif" font-size="10.00" fill="#000000">argo::data_distribution</text>
<text text-anchor="middle" x="971.5" y="-182.5" font-family="Helvetica,sans-Serif" font-size="10.00" fill="#000000">::global_ptr::peek_node</text>
</a>
</g>
</g>
<!-- Node8&#45;&gt;Node9 -->
<g id="edge9" class="edge">
<title>Node8&#45;&gt;Node9</title>
<path fill="none" stroke="#191970" d="M843.8784,-153.0112C862.9686,-158.6189 887.7471,-165.8976 910.3856,-172.5476"/>
<polygon fill="#191970" stroke="#191970" points="909.6888,-175.9908 920.2699,-175.4512 911.6617,-169.2746 909.6888,-175.9908"/>
</g>
<!-- Node10 -->
<g id="node11" class="node">
<title>Node10</title>
<g id="a_node11"><a xlink:href="namespaceargo_a2f35b6b6e0af76fb8fb47f2031d6f58e.html#a2f35b6b6e0af76fb8fb47f2031d6f58e" target="_top" xlink:title="Get the block size of the current allocation policy. ">
<polygon fill="#ffffff" stroke="#000000" points="913.5,-137 913.5,-156 1029.5,-156 1029.5,-137 913.5,-137"/>
<text text-anchor="middle" x="971.5" y="-144" font-family="Helvetica,sans-Serif" font-size="10.00" fill="#000000">argo::get_block_size</text>
</a>
</g>
</g>
<!-- Node8&#45;&gt;Node10 -->
<g id="edge10" class="edge">
<title>Node8&#45;&gt;Node10</title>
<path fill="none" stroke="#191970" d="M870.1696,-144.6001C880.9585,-144.8023 892.3057,-145.0151 903.3452,-145.2221"/>
<polygon fill="#191970" stroke="#191970" points="903.3083,-148.7219 913.3722,-145.4101 903.4396,-141.7232 903.3083,-148.7219"/>
</g>
<!-- Node14 -->
<g id="node15" class="node">
<title>Node14</title>
<g id="a_node15"><a xlink:href="namespaceargo_a2b6b342c320b2a608d317a328fc46d83.html#a2b6b342c320b2a608d317a328fc46d83" target="_top" xlink:title="Size of memory which is the portion of memory owned by this node. ">
<polygon fill="#ffffff" stroke="#000000" points="922.5,-99 922.5,-118 1020.5,-118 1020.5,-99 922.5,-99"/>
<text text-anchor="middle" x="971.5" y="-106" font-family="Helvetica,sans-Serif" font-size="10.00" fill="#000000">argo::chunk_size</text>
</a>
</g>
</g>
<!-- Node8&#45;&gt;Node14 -->
<g id="edge16" class="edge">
<title>Node8&#45;&gt;Node14</title>
<path fill="none" stroke="#191970" d="M855.2207,-133.9361C874.6221,-129.692 897.6353,-124.6579 918.0477,-120.1927"/>
<polygon fill="#191970" stroke="#191970" points="918.8111,-123.6085 927.8322,-118.0523 917.3152,-116.7702 918.8111,-123.6085"/>
</g>
<!-- Node11 -->
<g id="node12" class="node">
<title>Node11</title>
<g id="a_node12"><a xlink:href="namespaceargo_1_1data__distribution_a2a70ed49553953957c3a28aa755d7ac8.html#a2a70ed49553953957c3a28aa755d7ac8" target="_top" xlink:title="based on the chosen policy, gets the policy block size ">
<polygon fill="#ffffff" stroke="#000000" points="1073,-150.5 1073,-180.5 1200,-180.5 1200,-150.5 1073,-150.5"/>
<text text-anchor="start" x="1081" y="-168.5" font-family="Helvetica,sans-Serif" font-size="10.00" fill="#000000">argo::data_distribution</text>
<text text-anchor="middle" x="1136.5" y="-157.5" font-family="Helvetica,sans-Serif" font-size="10.00" fill="#000000">::policy_block_size</text>
</a>
</g>
</g>
<!-- Node10&#45;&gt;Node11 -->
<g id="edge11" class="edge">
<title>Node10&#45;&gt;Node11</title>
<path fill="none" stroke="#191970" d="M1029.6728,-153.1987C1040.3993,-154.4339 1051.7284,-155.7384 1062.841,-157.0181"/>
<polygon fill="#191970" stroke="#191970" points="1062.6273,-160.5165 1072.9621,-158.1835 1063.4281,-153.5624 1062.6273,-160.5165"/>
</g>
<!-- Node11&#45;&gt;Node1 -->
<g id="edge15" class="edge">
<title>Node11&#45;&gt;Node1</title>
<path fill="none" stroke="#191970" d="M1178.0535,-180.5408C1199.5118,-188.3079 1225.8784,-197.8517 1248.5549,-206.0597"/>
<polygon fill="#191970" stroke="#191970" points="1247.4281,-209.3741 1258.0223,-209.4866 1249.8106,-202.792 1247.4281,-209.3741"/>
</g>
<!-- Node12 -->
<g id="node13" class="node">
<title>Node12</title>
<g id="a_node13"><a xlink:href="namespaceargo_1_1env_a30775a9aa41b956df7474a2c0cc317aa.html#a30775a9aa41b956df7474a2c0cc317aa" target="_top" xlink:title="get the allocation block size requested by environment variable ">
<polygon fill="#ffffff" stroke="#000000" points="1241.5,-160.5 1241.5,-190.5 1357.5,-190.5 1357.5,-160.5 1241.5,-160.5"/>
<text text-anchor="start" x="1249.5" y="-178.5" font-family="Helvetica,sans-Serif" font-size="10.00" fill="#000000">argo::env::allocation</text>
<text text-anchor="middle" x="1299.5" y="-167.5" font-family="Helvetica,sans-Serif" font-size="10.00" fill="#000000">_block_size</text>
</a>
</g>
</g>
<!-- Node11&#45;&gt;Node12 -->
<g id="edge12" class="edge">
<title>Node11&#45;&gt;Node12</title>
<path fill="none" stroke="#191970" d="M1200.4541,-169.4236C1210.5549,-170.0432 1221.0331,-170.6861 1231.2277,-171.3115"/>
<polygon fill="#191970" stroke="#191970" points="1231.1076,-174.8106 1241.3032,-171.9296 1231.5363,-167.8238 1231.1076,-174.8106"/>
</g>
<!-- Node13 -->
<g id="node14" class="node">
<title>Node13</title>
<g id="a_node14"><a xlink:href="namespaceargo_1_1data__distribution_a1bb3f2dcecd237990e6dc67764f06860.html#a1bb3f2dcecd237990e6dc67764f06860" target="_top" xlink:title="identifies if we distribute data using a cyclic memory policy ">
<polygon fill="#ffffff" stroke="#000000" points="1236,-111.5 1236,-141.5 1363,-141.5 1363,-111.5 1236,-111.5"/>
<text text-anchor="start" x="1244" y="-129.5" font-family="Helvetica,sans-Serif" font-size="10.00" fill="#000000">argo::data_distribution</text>
<text text-anchor="middle" x="1299.5" y="-118.5" font-family="Helvetica,sans-Serif" font-size="10.00" fill="#000000">::is_cyclic_policy</text>
</a>
</g>
</g>
<!-- Node11&#45;&gt;Node13 -->
<g id="edge13" class="edge">
<title>Node11&#45;&gt;Node13</title>
<path fill="none" stroke="#191970" d="M1199.5201,-150.4216C1208.4675,-148.2808 1217.7286,-146.0649 1226.8405,-143.8848"/>
<polygon fill="#191970" stroke="#191970" points="1227.7365,-147.2693 1236.6475,-141.5383 1226.1076,-140.4614 1227.7365,-147.2693"/>
</g>
<!-- Node13&#45;&gt;Node2 -->
<g id="edge14" class="edge">
<title>Node13&#45;&gt;Node2</title>
<path fill="none" stroke="#191970" d="M1348.0403,-141.6014C1364.1339,-146.6083 1382.2114,-152.2324 1398.9467,-157.439"/>
<polygon fill="#191970" stroke="#191970" points="1398.0316,-160.8197 1408.6199,-160.4484 1400.1111,-154.1357 1398.0316,-160.8197"/>
</g>
<!-- Node17 -->
<g id="node18" class="node">
<title>Node17</title>
<g id="a_node18"><a xlink:href="swdsm_8cpp_a0edf823a78daed8888e8e18468460617.html#a0edf823a78daed8888e8e18468460617" target="_top" xlink:title="Gives homenode for a given address. ">
<polygon fill="#ffffff" stroke="#000000" points="767,-55 767,-74 856,-74 856,-55 767,-55"/>
<text text-anchor="middle" x="811.5" y="-62" font-family="Helvetica,sans-Serif" font-size="10.00" fill="#000000">get_homenode</text>
</a>
</g>
</g>
<!-- Node16&#45;&gt;Node17 -->
<g id="edge19" class="edge">
<title>Node16&#45;&gt;Node17</title>
<path fill="none" stroke="#191970" d="M694.7983,-65.2294C713.8788,-65.1101 736.5155,-64.9687 756.7506,-64.8422"/>
<polygon fill="#191970" stroke="#191970" points="756.7945,-68.3421 766.7724,-64.7795 756.7507,-61.3422 756.7945,-68.3421"/>
</g>
<!-- Node19 -->
<g id="node20" class="node">
<title>Node19</title>
<g id="a_node20"><a xlink:href="swdsm_8cpp_ab58b1f9fa1b59d3060f241994979e18f.html#ab58b1f9fa1b59d3060f241994979e18f" target="_top" xlink:title="Gets the offset of an address on the local nodes part of the global memory. ">
<polygon fill="#ffffff" stroke="#000000" points="779,-12 779,-31 844,-31 844,-12 779,-12"/>
<text text-anchor="middle" x="811.5" y="-19" font-family="Helvetica,sans-Serif" font-size="10.00" fill="#000000">get_offset</text>
</a>
</g>
</g>
<!-- Node16&#45;&gt;Node19 -->
<g id="edge21" class="edge">
<title>Node16&#45;&gt;Node19</title>
<path fill="none" stroke="#191970" d="M686.2176,-55.9527C710.4779,-49.2811 743.0224,-40.3313 768.861,-33.2257"/>
<polygon fill="#191970" stroke="#191970" points="770.0472,-36.5295 778.7612,-30.5032 768.1911,-29.7801 770.0472,-36.5295"/>
</g>
<!-- Node18 -->
<g id="node19" class="node">
<title>Node18</title>
<g id="a_node19"><a xlink:href="classargo_1_1data__distribution_1_1global__ptr_ac7d651586337d08cda18ef26ffcd34a0.html#ac7d651586337d08cda18ef26ffcd34a0" target="_top" xlink:title="return the home node of the value pointed to ">
<polygon fill="#ffffff" stroke="#000000" points="908,-49.5 908,-79.5 1035,-79.5 1035,-49.5 908,-49.5"/>
<text text-anchor="start" x="916" y="-67.5" font-family="Helvetica,sans-Serif" font-size="10.00" fill="#000000">argo::data_distribution</text>
<text text-anchor="middle" x="971.5" y="-56.5" font-family="Helvetica,sans-Serif" font-size="10.00" fill="#000000">::global_ptr::node</text>
</a>
</g>
</g>
<!-- Node17&#45;&gt;Node18 -->
<g id="edge20" class="edge">
<title>Node17&#45;&gt;Node18</title>
<path fill="none" stroke="#191970" d="M856.0689,-64.5C868.9412,-64.5 883.3472,-64.5 897.5013,-64.5"/>
<polygon fill="#191970" stroke="#191970" points="897.7376,-68.0001 907.7375,-64.5 897.7375,-61.0001 897.7376,-68.0001"/>
</g>
<!-- Node20 -->
<g id="node21" class="node">
<title>Node20</title>
<g id="a_node21"><a xlink:href="classargo_1_1data__distribution_1_1global__ptr_ad8c21c408fa2b926cfd9acfd87e8e4e6.html#ad8c21c408fa2b926cfd9acfd87e8e4e6" target="_top" xlink:title="return the offset on the home node&#39;s local memory share ">
<polygon fill="#ffffff" stroke="#000000" points="908,-.5 908,-30.5 1035,-30.5 1035,-.5 908,-.5"/>
<text text-anchor="start" x="916" y="-18.5" font-family="Helvetica,sans-Serif" font-size="10.00" fill="#000000">argo::data_distribution</text>
<text text-anchor="middle" x="971.5" y="-7.5" font-family="Helvetica,sans-Serif" font-size="10.00" fill="#000000">::global_ptr::offset</text>
</a>
</g>
</g>
<!-- Node19&#45;&gt;Node20 -->
<g id="edge22" class="edge">
<title>Node19&#45;&gt;Node20</title>
<path fill="none" stroke="#191970" d="M844.2645,-20.2713C859.764,-19.6901 878.9491,-18.9707 897.6797,-18.2683"/>
<polygon fill="#191970" stroke="#191970" points="897.8488,-21.7645 907.7106,-17.8921 897.5864,-14.7694 897.8488,-21.7645"/>
</g>
<!-- Node22&#45;&gt;Node5 -->
<g id="edge27" class="edge">
<title>Node22&#45;&gt;Node5</title>
<path fill="none" stroke="#191970" d="M395.5709,-95.089C413.1752,-99.9719 434.7793,-105.9643 453.601,-111.185"/>
<polygon fill="#191970" stroke="#191970" points="452.8685,-114.6138 463.4402,-113.9141 454.7395,-107.8685 452.8685,-114.6138"/>
</g>
<!-- Node23 -->
<g id="node24" class="node">
<title>Node23</title>
<g id="a_node24"><a xlink:href="swdsm_8cpp_af770e3f703653ddb0967b85d88881ab7.html#af770e3f703653ddb0967b85d88881ab7" target="_top" xlink:title="Gives the ArgoDSM node id for the local process. ">
<polygon fill="#ffffff" stroke="#000000" points="476.5,-76 476.5,-95 519.5,-95 519.5,-76 476.5,-76"/>
<text text-anchor="middle" x="498" y="-83" font-family="Helvetica,sans-Serif" font-size="10.00" fill="#000000">getID</text>
</a>
</g>
</g>
<!-- Node22&#45;&gt;Node23 -->
<g id="edge25" class="edge">
<title>Node22&#45;&gt;Node23</title>
<path fill="none" stroke="#191970" d="M410.0732,-85.5C428.716,-85.5 449.4517,-85.5 466.1023,-85.5"/>
<polygon fill="#191970" stroke="#191970" points="466.3912,-89.0001 476.3911,-85.5 466.3911,-82.0001 466.3912,-89.0001"/>
</g>
<!-- Node24 -->
<g id="node25" class="node">
<title>Node24</title>
<g id="a_node25"><a xlink:href="swdsm_8cpp_adfcbbdedcad0833d49e3111447061689.html#adfcbbdedcad0833d49e3111447061689" target="_top" xlink:title="Gives an index to the sharer/writer vector depending on the address. ">
<polygon fill="#ffffff" stroke="#000000" points="447.5,-26.5 447.5,-56.5 548.5,-56.5 548.5,-26.5 447.5,-26.5"/>
<text text-anchor="start" x="455.5" y="-44.5" font-family="Helvetica,sans-Serif" font-size="10.00" fill="#000000">get_classification</text>
<text text-anchor="middle" x="498" y="-33.5" font-family="Helvetica,sans-Serif" font-size="10.00" fill="#000000">_index</text>
</a>
</g>
</g>
<!-- Node22&#45;&gt;Node24 -->
<g id="edge26" class="edge">
<title>Node22&#45;&gt;Node24</title>
<path fill="none" stroke="#191970" d="M390.727,-75.9527C405.6007,-71.1757 424.1109,-65.2308 441.5462,-59.6311"/>
<polygon fill="#191970" stroke="#191970" points="442.6412,-62.9556 451.0919,-56.5654 440.5007,-56.2909 442.6412,-62.9556"/>
</g>
</g>
</svg>
