<?xml version="1.0" encoding="UTF-8" standalone="no"?>
<!DOCTYPE svg PUBLIC "-//W3C//DTD SVG 1.1//EN"
 "http://www.w3.org/Graphics/SVG/1.1/DTD/svg11.dtd">
<!-- Generated by graphviz version 2.40.1 (20161225.0304)
 -->
<!-- Title: /home/atmerhannah/argodsm/src/backend/mpi/swdsm.h Pages: 1 -->
<svg width="486pt" height="184pt"
 viewBox="0.00 0.00 486.00 184.00" xmlns="http://www.w3.org/2000/svg" xmlns:xlink="http://www.w3.org/1999/xlink">
<g id="graph0" class="graph" transform="scale(1 1) rotate(0) translate(4 180)">
<title>/home/atmerhannah/argodsm/src/backend/mpi/swdsm.h</title>
<polygon fill="#ffffff" stroke="transparent" points="-4,4 -4,-180 482,-180 482,4 -4,4"/>
<!-- Node27 -->
<g id="node1" class="node">
<title>Node27</title>
<polygon fill="#bfbfbf" stroke="#000000" points="153,-145.5 153,-175.5 314,-175.5 314,-145.5 153,-145.5"/>
<text text-anchor="start" x="161" y="-163.5" font-family="Helvetica,sans-Serif" font-size="10.00" fill="#000000">/home/atmerhannah/argodsm</text>
<text text-anchor="middle" x="233.5" y="-152.5" font-family="Helvetica,sans-Serif" font-size="10.00" fill="#000000">/src/backend/mpi/swdsm.h</text>
</g>
<!-- Node28 -->
<g id="node2" class="node">
<title>Node28</title>
<g id="a_node2"><a xlink:href="coherence_8cpp.html" target="_top" xlink:title="This file implements selective coherence mechanisms for ArgoDSM. ">
<polygon fill="#ffffff" stroke="#000000" points="0,-.5 0,-30.5 173,-30.5 173,-.5 0,-.5"/>
<text text-anchor="start" x="8" y="-18.5" font-family="Helvetica,sans-Serif" font-size="10.00" fill="#000000">/home/atmerhannah/argodsm</text>
<text text-anchor="middle" x="86.5" y="-7.5" font-family="Helvetica,sans-Serif" font-size="10.00" fill="#000000">/src/backend/mpi/coherence.cpp</text>
</a>
</g>
</g>
<!-- Node27&#45;&gt;Node28 -->
<g id="edge1" class="edge">
<title>Node27&#45;&gt;Node28</title>
<path fill="none" stroke="#191970" d="M160.5724,-142.6128C129.6723,-133.4508 98.6708,-121.5858 89.5,-109 72.7623,-86.0295 77.5063,-50.7714 82.184,-30.7593"/>
<polygon fill="#191970" stroke="#191970" points="159.9956,-146.0888 170.5735,-145.4901 161.931,-139.3617 159.9956,-146.0888"/>
</g>
<!-- Node29 -->
<g id="node3" class="node">
<title>Node29</title>
<g id="a_node3"><a xlink:href="write__buffer_8hpp.html" target="_top" xlink:title="This file provides an interface for the ArgoDSM write buffer. ">
<polygon fill="#ffffff" stroke="#000000" points="99,-67.5 99,-108.5 260,-108.5 260,-67.5 99,-67.5"/>
<text text-anchor="start" x="107" y="-96.5" font-family="Helvetica,sans-Serif" font-size="10.00" fill="#000000">/home/atmerhannah/argodsm</text>
<text text-anchor="start" x="107" y="-85.5" font-family="Helvetica,sans-Serif" font-size="10.00" fill="#000000">/src/backend/mpi/write</text>
<text text-anchor="middle" x="179.5" y="-74.5" font-family="Helvetica,sans-Serif" font-size="10.00" fill="#000000">_buffer.hpp</text>
</a>
</g>
</g>
<!-- Node27&#45;&gt;Node29 -->
<g id="edge2" class="edge">
<title>Node27&#45;&gt;Node29</title>
<path fill="none" stroke="#191970" d="M216.3022,-137.4104C209.3869,-128.1259 201.4788,-117.5086 194.7701,-108.5015"/>
<polygon fill="#191970" stroke="#191970" points="213.5307,-139.5488 222.3112,-145.478 219.1447,-135.3674 213.5307,-139.5488"/>
</g>
<!-- Node30 -->
<g id="node4" class="node">
<title>Node30</title>
<g id="a_node4"><a xlink:href="swdsm_8cpp.html" target="_top" xlink:title="This file implements the MPI&#45;backend of ArgoDSM. ">
<polygon fill="#ffffff" stroke="#000000" points="199,-.5 199,-30.5 360,-30.5 360,-.5 199,-.5"/>
<text text-anchor="start" x="207" y="-18.5" font-family="Helvetica,sans-Serif" font-size="10.00" fill="#000000">/home/atmerhannah/argodsm</text>
<text text-anchor="middle" x="279.5" y="-7.5" font-family="Helvetica,sans-Serif" font-size="10.00" fill="#000000">/src/backend/mpi/swdsm.cpp</text>
</a>
</g>
</g>
<!-- Node27&#45;&gt;Node30 -->
<g id="edge6" class="edge">
<title>Node27&#45;&gt;Node30</title>
<path fill="none" stroke="#191970" d="M253.4338,-137.296C259.6004,-128.899 265.752,-119.0085 269.5,-109 279.3472,-82.7039 280.4764,-49.5358 280.1572,-30.6004"/>
<polygon fill="#191970" stroke="#191970" points="250.4719,-135.4036 247.1021,-145.4483 256.0004,-139.6974 250.4719,-135.4036"/>
</g>
<!-- Node31 -->
<g id="node5" class="node">
<title>Node31</title>
<g id="a_node5"><a xlink:href="mpi_8cpp.html" target="_top" xlink:title="MPI backend implementation. ">
<polygon fill="#ffffff" stroke="#000000" points="317,-73 317,-103 478,-103 478,-73 317,-73"/>
<text text-anchor="start" x="325" y="-91" font-family="Helvetica,sans-Serif" font-size="10.00" fill="#000000">/home/atmerhannah/argodsm</text>
<text text-anchor="middle" x="397.5" y="-80" font-family="Helvetica,sans-Serif" font-size="10.00" fill="#000000">/src/backend/mpi/mpi.cpp</text>
</a>
</g>
</g>
<!-- Node27&#45;&gt;Node31 -->
<g id="edge5" class="edge">
<title>Node27&#45;&gt;Node31</title>
<path fill="none" stroke="#191970" d="M276.7482,-141.3811C303.8931,-129.3811 338.3955,-114.1285 363.5626,-103.0028"/>
<polygon fill="#191970" stroke="#191970" points="275.2119,-138.2335 267.4809,-145.478 278.0422,-144.6358 275.2119,-138.2335"/>
</g>
<!-- Node29&#45;&gt;Node28 -->
<g id="edge3" class="edge">
<title>Node29&#45;&gt;Node28</title>
<path fill="none" stroke="#191970" d="M145.08,-61.1672C131.8427,-50.8478 117.202,-39.4344 105.8685,-30.5991"/>
<polygon fill="#191970" stroke="#191970" points="143.0601,-64.0304 153.0987,-67.4183 147.3639,-58.5097 143.0601,-64.0304"/>
</g>
<!-- Node29&#45;&gt;Node30 -->
<g id="edge4" class="edge">
<title>Node29&#45;&gt;Node30</title>
<path fill="none" stroke="#191970" d="M216.1083,-61.459C230.447,-51.0634 246.3721,-39.5177 258.6736,-30.5991"/>
<polygon fill="#191970" stroke="#191970" points="213.9302,-58.715 207.8885,-67.4183 218.039,-64.3823 213.9302,-58.715"/>
</g>
</g>
</svg>
