<?xml version="1.0" encoding="UTF-8" standalone="no"?>
<!DOCTYPE svg PUBLIC "-//W3C//DTD SVG 1.1//EN"
 "http://www.w3.org/Graphics/SVG/1.1/DTD/svg11.dtd">
<!-- Generated by graphviz version 2.40.1 (20161225.0304)
 -->
<!-- Title: argo_get_nodes Pages: 1 -->
<svg width="707pt" height="116pt"
 viewBox="0.00 0.00 707.00 115.50" xmlns="http://www.w3.org/2000/svg" xmlns:xlink="http://www.w3.org/1999/xlink">
<g id="graph0" class="graph" transform="scale(1 1) rotate(0) translate(4 111.5)">
<title>argo_get_nodes</title>
<polygon fill="#ffffff" stroke="transparent" points="-4,4 -4,-111.5 703,-111.5 703,4 -4,4"/>
<!-- Node1 -->
<g id="node1" class="node">
<title>Node1</title>
<polygon fill="#bfbfbf" stroke="#000000" points="0,-60.5 0,-79.5 94,-79.5 94,-60.5 0,-60.5"/>
<text text-anchor="middle" x="47" y="-67.5" font-family="Helvetica,sans-Serif" font-size="10.00" fill="#000000">argo_get_nodes</text>
</g>
<!-- Node2 -->
<g id="node2" class="node">
<title>Node2</title>
<g id="a_node2"><a xlink:href="backend_8hpp_adbe24e2ba20048f66e97670be5273631.html#adbe24e2ba20048f66e97670be5273631" target="_top" xlink:title="get total number of ArgoDSM nodes ">
<polygon fill="#ffffff" stroke="#000000" points="130,-77 130,-107 259,-107 259,-77 130,-77"/>
<text text-anchor="start" x="138" y="-95" font-family="Helvetica,sans-Serif" font-size="10.00" fill="#000000">argo::backend::number</text>
<text text-anchor="middle" x="194.5" y="-84" font-family="Helvetica,sans-Serif" font-size="10.00" fill="#000000">_of_nodes</text>
</a>
</g>
</g>
<!-- Node1&#45;&gt;Node2 -->
<g id="edge1" class="edge">
<title>Node1&#45;&gt;Node2</title>
<path fill="none" stroke="#191970" d="M104.1597,-78.5255C112.5764,-79.7809 121.2972,-81.0816 129.8521,-82.3576"/>
<polygon fill="#191970" stroke="#191970" points="104.4824,-75.035 94.0755,-77.0214 103.4497,-81.9584 104.4824,-75.035"/>
</g>
<!-- Node3 -->
<g id="node3" class="node">
<title>Node3</title>
<g id="a_node3"><a xlink:href="swdsm_8h_ad3f5bdae81c60ac704dda7372792427d.html#ad3f5bdae81c60ac704dda7372792427d" target="_top" xlink:title="Global barrier for ArgoDSM &#45; needs to be called by every thread in the system that need coherent view...">
<polygon fill="#ffffff" stroke="#000000" points="136.5,-38.5 136.5,-57.5 252.5,-57.5 252.5,-38.5 136.5,-38.5"/>
<text text-anchor="middle" x="194.5" y="-45.5" font-family="Helvetica,sans-Serif" font-size="10.00" fill="#000000">swdsm_argo_barrier</text>
</a>
</g>
</g>
<!-- Node1&#45;&gt;Node3 -->
<g id="edge2" class="edge">
<title>Node1&#45;&gt;Node3</title>
<path fill="none" stroke="#191970" d="M104.0877,-61.4852C114.7187,-59.8996 125.837,-58.2413 136.4952,-56.6516"/>
<polygon fill="#191970" stroke="#191970" points="103.4497,-58.0416 94.0755,-62.9786 104.4824,-64.965 103.4497,-58.0416"/>
</g>
<!-- Node4 -->
<g id="node4" class="node">
<title>Node4</title>
<g id="a_node4"><a xlink:href="backend_8hpp_af1a647431651556204709451bebb5a42.html#af1a647431651556204709451bebb5a42" target="_top" xlink:title="a simple collective barrier ">
<polygon fill="#ffffff" stroke="#000000" points="295,-76.5 295,-95.5 419,-95.5 419,-76.5 295,-76.5"/>
<text text-anchor="middle" x="357" y="-83.5" font-family="Helvetica,sans-Serif" font-size="10.00" fill="#000000">argo::backend::barrier</text>
</a>
</g>
</g>
<!-- Node3&#45;&gt;Node4 -->
<g id="edge3" class="edge">
<title>Node3&#45;&gt;Node4</title>
<path fill="none" stroke="#191970" d="M245.3714,-59.8961C268.2124,-65.2374 294.7953,-71.4537 316.2893,-76.4799"/>
<polygon fill="#191970" stroke="#191970" points="246.0399,-56.4581 235.5056,-57.589 244.4459,-63.2742 246.0399,-56.4581"/>
</g>
<!-- Node5 -->
<g id="node5" class="node">
<title>Node5</title>
<g id="a_node5"><a xlink:href="swdsm_8cpp_aa954d5e0bcaee69ff6e03e697bcaf68b.html#aa954d5e0bcaee69ff6e03e697bcaf68b" target="_top" xlink:title="shut down ArgoDSM system ">
<polygon fill="#ffffff" stroke="#000000" points="317.5,-38.5 317.5,-57.5 396.5,-57.5 396.5,-38.5 317.5,-38.5"/>
<text text-anchor="middle" x="357" y="-45.5" font-family="Helvetica,sans-Serif" font-size="10.00" fill="#000000">argo_finalize</text>
</a>
</g>
</g>
<!-- Node3&#45;&gt;Node5 -->
<g id="edge4" class="edge">
<title>Node3&#45;&gt;Node5</title>
<path fill="none" stroke="#191970" d="M262.9279,-48C281.5419,-48 301.0769,-48 317.4915,-48"/>
<polygon fill="#191970" stroke="#191970" points="262.7073,-44.5001 252.7072,-48 262.7072,-51.5001 262.7073,-44.5001"/>
</g>
<!-- Node7 -->
<g id="node7" class="node">
<title>Node7</title>
<g id="a_node7"><a xlink:href="swdsm_8h_a0c6b51af2b87ddf7eb04aa7d4e0e836e.html#a0c6b51af2b87ddf7eb04aa7d4e0e836e" target="_top" xlink:title="Resets current coherence. Collective function called by all threads on all nodes. ...">
<polygon fill="#ffffff" stroke="#000000" points="295,-.5 295,-19.5 419,-19.5 419,-.5 295,-.5"/>
<text text-anchor="middle" x="357" y="-7.5" font-family="Helvetica,sans-Serif" font-size="10.00" fill="#000000">argo_reset_coherence</text>
</a>
</g>
</g>
<!-- Node3&#45;&gt;Node7 -->
<g id="edge6" class="edge">
<title>Node3&#45;&gt;Node7</title>
<path fill="none" stroke="#191970" d="M245.3714,-36.1039C268.2124,-30.7626 294.7953,-24.5463 316.2893,-19.5201"/>
<polygon fill="#191970" stroke="#191970" points="244.4459,-32.7258 235.5056,-38.411 246.0399,-39.5419 244.4459,-32.7258"/>
</g>
<!-- Node6 -->
<g id="node6" class="node">
<title>Node6</title>
<g id="a_node6"><a xlink:href="swdsm_8h_a18cc89a7368e30281ea4b1d214a1b1ff.html#a18cc89a7368e30281ea4b1d214a1b1ff" target="_top" xlink:title="Pins and registers the local thread. ">
<polygon fill="#ffffff" stroke="#000000" points="455,-38.5 455,-57.5 556,-57.5 556,-38.5 455,-38.5"/>
<text text-anchor="middle" x="505.5" y="-45.5" font-family="Helvetica,sans-Serif" font-size="10.00" fill="#000000">argo_pin_threads</text>
</a>
</g>
</g>
<!-- Node5&#45;&gt;Node6 -->
<g id="edge5" class="edge">
<title>Node5&#45;&gt;Node6</title>
<path fill="none" stroke="#191970" d="M407.1702,-48C422.5682,-48 439.5157,-48 454.9397,-48"/>
<polygon fill="#191970" stroke="#191970" points="406.7953,-44.5001 396.7953,-48 406.7952,-51.5001 406.7953,-44.5001"/>
</g>
<!-- Node8 -->
<g id="node8" class="node">
<title>Node8</title>
<g id="a_node8"><a xlink:href="swdsm_8h_a31ba60e8ddccfa922da8d7e6a10f7b1d.html#a31ba60e8ddccfa922da8d7e6a10f7b1d" target="_top" xlink:title="Initializes ArgoDSM runtime. ">
<polygon fill="#ffffff" stroke="#000000" points="462.5,-.5 462.5,-19.5 548.5,-19.5 548.5,-.5 462.5,-.5"/>
<text text-anchor="middle" x="505.5" y="-7.5" font-family="Helvetica,sans-Serif" font-size="10.00" fill="#000000">argo_initialize</text>
</a>
</g>
</g>
<!-- Node7&#45;&gt;Node8 -->
<g id="edge7" class="edge">
<title>Node7&#45;&gt;Node8</title>
<path fill="none" stroke="#191970" d="M429.3624,-10C440.5681,-10 451.8311,-10 462.1297,-10"/>
<polygon fill="#191970" stroke="#191970" points="429.117,-6.5001 419.1169,-10 429.1169,-13.5001 429.117,-6.5001"/>
</g>
<!-- Node9 -->
<g id="node9" class="node">
<title>Node9</title>
<g id="a_node9"><a xlink:href="backend_8hpp_aab3cabb3e1c0b9696b339416b684f78c.html#aab3cabb3e1c0b9696b339416b684f78c" target="_top" xlink:title="initialize backend ">
<polygon fill="#ffffff" stroke="#000000" points="592,-.5 592,-19.5 699,-19.5 699,-.5 592,-.5"/>
<text text-anchor="middle" x="645.5" y="-7.5" font-family="Helvetica,sans-Serif" font-size="10.00" fill="#000000">argo::backend::init</text>
</a>
</g>
</g>
<!-- Node8&#45;&gt;Node9 -->
<g id="edge8" class="edge">
<title>Node8&#45;&gt;Node9</title>
<path fill="none" stroke="#191970" d="M558.8168,-10C569.6429,-10 581.0344,-10 591.8712,-10"/>
<polygon fill="#191970" stroke="#191970" points="558.647,-6.5001 548.647,-10 558.6469,-13.5001 558.647,-6.5001"/>
</g>
</g>
</svg>
