<?xml version="1.0" encoding="UTF-8" standalone="no"?>
<!DOCTYPE svg PUBLIC "-//W3C//DTD SVG 1.1//EN"
 "http://www.w3.org/Graphics/SVG/1.1/DTD/svg11.dtd">
<!-- Generated by graphviz version 2.40.1 (20161225.0304)
 -->
<!-- Title: initmpi Pages: 1 -->
<svg width="211pt" height="66pt"
 viewBox="0.00 0.00 211.00 66.00" xmlns="http://www.w3.org/2000/svg" xmlns:xlink="http://www.w3.org/1999/xlink">
<g id="graph0" class="graph" transform="scale(1 1) rotate(0) translate(4 62)">
<title>initmpi</title>
<polygon fill="#ffffff" stroke="transparent" points="-4,4 -4,-62 207,-62 207,4 -4,4"/>
<!-- Node0 -->
<g id="node1" class="node">
<title>Node0</title>
<polygon fill="#bfbfbf" stroke="#000000" points="0,-19.5 0,-38.5 51,-38.5 51,-19.5 0,-19.5"/>
<text text-anchor="middle" x="25.5" y="-26.5" font-family="Helvetica,sans-Serif" font-size="10.00" fill="#000000">initmpi</text>
</g>
<!-- Node1 -->
<g id="node2" class="node">
<title>Node1</title>
<g id="a_node2"><a xlink:href="swdsm_8cpp_ab959fc516b83d1ea190682ae0bc7b90c.html#ab959fc516b83d1ea190682ae0bc7b90c" target="_top" xlink:title="Initializes a mpi data structure for writing cacheb control data over the network *...">
<polygon fill="#ffffff" stroke="#000000" points="100.5,-38.5 100.5,-57.5 189.5,-57.5 189.5,-38.5 100.5,-38.5"/>
<text text-anchor="middle" x="145" y="-45.5" font-family="Helvetica,sans-Serif" font-size="10.00" fill="#000000">init_mpi_struct</text>
</a>
</g>
</g>
<!-- Node0&#45;&gt;Node1 -->
<g id="edge1" class="edge">
<title>Node0&#45;&gt;Node1</title>
<path fill="none" stroke="#191970" d="M51.1357,-33.076C62.5029,-34.8833 76.3474,-37.0845 89.8739,-39.2352"/>
<polygon fill="#191970" stroke="#191970" points="89.6839,-42.7489 100.1095,-40.8626 90.7831,-35.8357 89.6839,-42.7489"/>
</g>
<!-- Node2 -->
<g id="node3" class="node">
<title>Node2</title>
<g id="a_node3"><a xlink:href="swdsm_8cpp_a4e99ecaa01cd081228c39c9a9ae3f7c1.html#a4e99ecaa01cd081228c39c9a9ae3f7c1" target="_top" xlink:title="Initializes a mpi data structure for writing cacheblocks over the network. ">
<polygon fill="#ffffff" stroke="#000000" points="87,-.5 87,-19.5 203,-19.5 203,-.5 87,-.5"/>
<text text-anchor="middle" x="145" y="-7.5" font-family="Helvetica,sans-Serif" font-size="10.00" fill="#000000">init_mpi_cacheblock</text>
</a>
</g>
</g>
<!-- Node0&#45;&gt;Node2 -->
<g id="edge2" class="edge">
<title>Node0&#45;&gt;Node2</title>
<path fill="none" stroke="#191970" d="M51.1357,-24.924C58.8917,-23.6909 67.801,-22.2743 76.9758,-20.8156"/>
<polygon fill="#191970" stroke="#191970" points="77.6671,-24.2497 86.9934,-19.2228 76.5679,-17.3365 77.6671,-24.2497"/>
</g>
</g>
</svg>
