<?xml version="1.0" encoding="UTF-8" standalone="no"?>
<!DOCTYPE svg PUBLIC "-//W3C//DTD SVG 1.1//EN"
 "http://www.w3.org/Graphics/SVG/1.1/DTD/svg11.dtd">
<!-- Generated by graphviz version 2.40.1 (20161225.0304)
 -->
<!-- Title: argo_finalize Pages: 1 -->
<!--zoomable 306 -->
<svg id="main" version="1.1" xmlns="http://www.w3.org/2000/svg" xmlns:xlink="http://www.w3.org/1999/xlink" xml:space="preserve" onload="init(evt)">
<style type="text/css"><![CDATA[
.edge:hover path { stroke: red; }
.edge:hover polygon { stroke: red; fill: red; }
]]></style>
<script type="text/javascript"><![CDATA[
var edges = document.getElementsByTagName('g');
if (edges && edges.length) {
  for (var i=0;i<edges.length;i++) {
    if (edges[i].id.substr(0,4)=='edge') {
      edges[i].setAttribute('class','edge');
    }
  }
}
]]></script>
        <defs>
                <circle id="rim" cx="0" cy="0" r="7"/>
                <circle id="rim2" cx="0" cy="0" r="3.5"/>
                <g id="zoomPlus">
                        <use xlink:href="#rim" fill="#404040">
                                <set attributeName="fill" to="#808080" begin="zoomplus.mouseover" end="zoomplus.mouseout"/>
                        </use>
                        <path d="M-4,0h8M0,-4v8" fill="none" stroke="white" stroke-width="1.5" pointer-events="none"/>
                </g>
                <g id="zoomMin">
                        <use xlink:href="#rim" fill="#404040">
                                <set attributeName="fill" to="#808080" begin="zoomminus.mouseover" end="zoomminus.mouseout"/>
                        </use>
                        <path d="M-4,0h8" fill="none" stroke="white" stroke-width="1.5" pointer-events="none"/>
                </g>
                <g id="dirArrow">
                        <path fill="none" stroke="white" stroke-width="1.5" d="M0,-3.0v7 M-2.5,-0.5L0,-3.0L2.5,-0.5"/>
                </g>
               <g id="resetDef">
                       <use xlink:href="#rim2" fill="#404040">
                               <set attributeName="fill" to="#808080" begin="reset.mouseover" end="reset.mouseout"/>
                       </use>
               </g>
        </defs>

<script type="text/javascript">
var viewWidth = 1531;
var viewHeight = 306;
var sectionId = 'dynsection-0';
</script>
<script xlink:href="svgpan.js"/>
<svg id="graph" class="graph">
<g id="viewport">
<title>argo_finalize</title>
<polygon fill="#ffffff" stroke="transparent" points="-4,4 -4,-302 1527,-302 1527,4 -4,4"/>
<!-- Node0 -->
<g id="node1" class="node">
<title>Node0</title>
<polygon fill="#bfbfbf" stroke="#000000" points="0,-202.5 0,-221.5 79,-221.5 79,-202.5 0,-202.5"/>
<text text-anchor="middle" x="39.5" y="-209.5" font-family="Helvetica,sans-Serif" font-size="10.00" fill="#000000">argo_finalize</text>
</g>
<!-- Node1 -->
<g id="node2" class="node">
<title>Node1</title>
<g id="a_node2"><a xlink:href="namespaceargo_aa6f830b22d3f1b054609c5ffa40af4b6.html#aa6f830b22d3f1b054609c5ffa40af4b6" target="_top" xlink:title="shut down ArgoDSM system ">
<polygon fill="#ffffff" stroke="#000000" points="133,-278.5 133,-297.5 213,-297.5 213,-278.5 133,-278.5"/>
<text text-anchor="middle" x="173" y="-285.5" font-family="Helvetica,sans-Serif" font-size="10.00" fill="#000000">argo::finalize</text>
</a>
</g>
</g>
<!-- Node0&#45;&gt;Node1 -->
<g id="edge1" class="edge">
<title>Node0&#45;&gt;Node1</title>
<path fill="none" stroke="#191970" d="M51.8022,-221.6838C66.3326,-232.8289 91.5058,-251.2341 115,-264 122.0019,-267.8046 129.7361,-271.3939 137.2129,-274.5804"/>
<polygon fill="#191970" stroke="#191970" points="135.8916,-277.8215 146.4713,-278.3873 138.5536,-271.3474 135.8916,-277.8215"/>
</g>
<!-- Node2 -->
<g id="node3" class="node">
<title>Node2</title>
<g id="a_node3"><a xlink:href="swdsm_8cpp_ad3f5bdae81c60ac704dda7372792427d.html#ad3f5bdae81c60ac704dda7372792427d" target="_top" xlink:title="Global barrier for ArgoDSM &#45; needs to be called by every thread in the system that need coherent view...">
<polygon fill="#ffffff" stroke="#000000" points="115,-145.5 115,-164.5 231,-164.5 231,-145.5 115,-145.5"/>
<text text-anchor="middle" x="173" y="-152.5" font-family="Helvetica,sans-Serif" font-size="10.00" fill="#000000">swdsm_argo_barrier</text>
</a>
</g>
</g>
<!-- Node0&#45;&gt;Node2 -->
<g id="edge2" class="edge">
<title>Node0&#45;&gt;Node2</title>
<path fill="none" stroke="#191970" d="M61.8449,-202.4595C83.6003,-193.1706 116.8733,-178.9642 141.3482,-168.5143"/>
<polygon fill="#191970" stroke="#191970" points="142.7598,-171.7173 150.5822,-164.5716 140.011,-165.2795 142.7598,-171.7173"/>
</g>
<!-- Node14 -->
<g id="node15" class="node">
<title>Node14</title>
<g id="a_node15"><a xlink:href="namespaceargo_1_1data__distribution_a58576657391f45caf61bf0748a23b098.html#a58576657391f45caf61bf0748a23b098" target="_top" xlink:title="identifies if we distribute data using the first&#45;touch memory policy ">
<polygon fill="#ffffff" stroke="#000000" points="1244,-152 1244,-182 1371,-182 1371,-152 1244,-152"/>
<text text-anchor="start" x="1252" y="-170" font-family="Helvetica,sans-Serif" font-size="10.00" fill="#000000">argo::data_distribution</text>
<text text-anchor="middle" x="1307.5" y="-159" font-family="Helvetica,sans-Serif" font-size="10.00" fill="#000000">::is_first_touch_policy</text>
</a>
</g>
</g>
<!-- Node0&#45;&gt;Node14 -->
<g id="edge30" class="edge">
<title>Node0&#45;&gt;Node14</title>
<path fill="none" stroke="#191970" d="M79.0071,-220.152C136.657,-231.3176 247.3358,-250 342.5,-250 342.5,-250 342.5,-250 979.5,-250 1083.4858,-250 1200.5048,-210.3093 1262.8055,-185.8218"/>
<polygon fill="#191970" stroke="#191970" points="1264.329,-188.9825 1272.3242,-182.0307 1261.7388,-182.4793 1264.329,-188.9825"/>
</g>
<!-- Node23 -->
<g id="node24" class="node">
<title>Node23</title>
<g id="a_node24"><a xlink:href="swdsm_8cpp_af770e3f703653ddb0967b85d88881ab7.html#af770e3f703653ddb0967b85d88881ab7" target="_top" xlink:title="Gives the ArgoDSM node id for the local process. ">
<polygon fill="#ffffff" stroke="#000000" points="484.5,-189.5 484.5,-208.5 527.5,-208.5 527.5,-189.5 484.5,-189.5"/>
<text text-anchor="middle" x="506" y="-196.5" font-family="Helvetica,sans-Serif" font-size="10.00" fill="#000000">getID</text>
</a>
</g>
</g>
<!-- Node0&#45;&gt;Node23 -->
<g id="edge27" class="edge">
<title>Node0&#45;&gt;Node23</title>
<path fill="none" stroke="#191970" d="M79.2735,-210.8916C170.2511,-208.3563 392.0165,-202.1764 474.4545,-199.8791"/>
<polygon fill="#191970" stroke="#191970" points="474.5705,-203.3773 484.4691,-199.6 474.3755,-196.38 474.5705,-203.3773"/>
</g>
<!-- Node25 -->
<g id="node26" class="node">
<title>Node25</title>
<g id="a_node26"><a xlink:href="swdsm_8cpp_a08cfbea6d24819e4e6b063144a5e6b5e.html#a08cfbea6d24819e4e6b063144a5e6b5e" target="_top" xlink:title="Prints collected statistics. ">
<polygon fill="#ffffff" stroke="#000000" points="131,-69.5 131,-88.5 215,-88.5 215,-69.5 131,-69.5"/>
<text text-anchor="middle" x="173" y="-76.5" font-family="Helvetica,sans-Serif" font-size="10.00" fill="#000000">printStatistics</text>
</a>
</g>
</g>
<!-- Node0&#45;&gt;Node25 -->
<g id="edge28" class="edge">
<title>Node0&#45;&gt;Node25</title>
<path fill="none" stroke="#191970" d="M49.2358,-202.1244C63.5808,-187.5905 91.2642,-159.6081 115,-136 128.6635,-122.41 144.2459,-107.107 155.8162,-95.7815"/>
<polygon fill="#191970" stroke="#191970" points="158.4102,-98.1403 163.1126,-88.6462 153.5159,-93.1356 158.4102,-98.1403"/>
</g>
<!-- Node3 -->
<g id="node4" class="node">
<title>Node3</title>
<g id="a_node4"><a xlink:href="swdsm_8cpp_ac99d42ffcf7c78281cb3a6b286ce3a5e.html#ac99d42ffcf7c78281cb3a6b286ce3a5e" target="_top" xlink:title="Gives number of ArgoDSM nodes. ">
<polygon fill="#ffffff" stroke="#000000" points="295.5,-164.5 295.5,-183.5 389.5,-183.5 389.5,-164.5 295.5,-164.5"/>
<text text-anchor="middle" x="342.5" y="-171.5" font-family="Helvetica,sans-Serif" font-size="10.00" fill="#000000">argo_get_nodes</text>
</a>
</g>
</g>
<!-- Node2&#45;&gt;Node3 -->
<g id="edge3" class="edge">
<title>Node2&#45;&gt;Node3</title>
<path fill="none" stroke="#191970" d="M231.3323,-161.5387C248.7835,-163.4949 267.8951,-165.6372 285.2744,-167.5853"/>
<polygon fill="#191970" stroke="#191970" points="284.9536,-171.0712 295.2813,-168.707 285.7334,-164.1148 284.9536,-171.0712"/>
</g>
<!-- Node4 -->
<g id="node5" class="node">
<title>Node4</title>
<g id="a_node5"><a xlink:href="classwrite__buffer_aca2e330e17a38c1cc8d8c60701ce9dd7.html#aca2e330e17a38c1cc8d8c60701ce9dd7" target="_top" xlink:title="Flushes the ArgoDSM write buffer to memory. ">
<polygon fill="#ffffff" stroke="#000000" points="454,-94.5 454,-113.5 558,-113.5 558,-94.5 454,-94.5"/>
<text text-anchor="middle" x="506" y="-101.5" font-family="Helvetica,sans-Serif" font-size="10.00" fill="#000000">write_buffer::flush</text>
</a>
</g>
</g>
<!-- Node2&#45;&gt;Node4 -->
<g id="edge4" class="edge">
<title>Node2&#45;&gt;Node4</title>
<path fill="none" stroke="#191970" d="M191.4935,-145.3893C210.0369,-136.2719 239.6821,-123.0874 267,-117 325.8819,-103.8789 394.8407,-101.4588 443.5118,-101.8224"/>
<polygon fill="#191970" stroke="#191970" points="443.5388,-105.3229 453.5789,-101.9394 443.6203,-98.3234 443.5388,-105.3229"/>
</g>
<!-- Node22 -->
<g id="node23" class="node">
<title>Node22</title>
<g id="a_node23"><a xlink:href="swdsm_8cpp_aa7c3a2de6bbafdaf68fe6ceb6110ab97.html#aa7c3a2de6bbafdaf68fe6ceb6110ab97" target="_top" xlink:title="Self&#45;Invalidates all memory that has potential writers. ">
<polygon fill="#ffffff" stroke="#000000" points="293.5,-126.5 293.5,-145.5 391.5,-145.5 391.5,-126.5 293.5,-126.5"/>
<text text-anchor="middle" x="342.5" y="-133.5" font-family="Helvetica,sans-Serif" font-size="10.00" fill="#000000">self_invalidation</text>
</a>
</g>
</g>
<!-- Node2&#45;&gt;Node22 -->
<g id="edge23" class="edge">
<title>Node2&#45;&gt;Node22</title>
<path fill="none" stroke="#191970" d="M231.3323,-148.4613C248.0653,-146.5856 266.3248,-144.5388 283.1201,-142.6562"/>
<polygon fill="#191970" stroke="#191970" points="283.8137,-146.1004 293.3615,-141.5081 283.0339,-139.144 283.8137,-146.1004"/>
</g>
<!-- Node5 -->
<g id="node6" class="node">
<title>Node5</title>
<g id="a_node6"><a xlink:href="classwrite__buffer_ab70cc0d6ca3591094aae489dbc3feaa5.html#ab70cc0d6ca3591094aae489dbc3feaa5" target="_top" xlink:title="Check if the write buffer is empty. ">
<polygon fill="#ffffff" stroke="#000000" points="603,-164.5 603,-183.5 716,-183.5 716,-164.5 603,-164.5"/>
<text text-anchor="middle" x="659.5" y="-171.5" font-family="Helvetica,sans-Serif" font-size="10.00" fill="#000000">write_buffer::empty</text>
</a>
</g>
</g>
<!-- Node4&#45;&gt;Node5 -->
<g id="edge5" class="edge">
<title>Node4&#45;&gt;Node5</title>
<path fill="none" stroke="#191970" d="M535.9786,-113.516C543.4118,-116.4135 551.1932,-119.9287 558,-124 576.1206,-134.8384 575.4361,-144.9398 594,-155 598.0322,-157.1851 602.3438,-159.144 606.7578,-160.8951"/>
<polygon fill="#191970" stroke="#191970" points="605.9216,-164.3137 616.516,-164.4036 608.29,-157.7265 605.9216,-164.3137"/>
</g>
<!-- Node6 -->
<g id="node7" class="node">
<title>Node6</title>
<g id="a_node7"><a xlink:href="classwrite__buffer_aa2325346aceb3e7ffdbdbdc8e8682147.html#aa2325346aceb3e7ffdbdbdc8e8682147" target="_top" xlink:title="Sorts all elements by home node id in ascending order. ">
<polygon fill="#ffffff" stroke="#000000" points="609.5,-49.5 609.5,-68.5 709.5,-68.5 709.5,-49.5 609.5,-49.5"/>
<text text-anchor="middle" x="659.5" y="-56.5" font-family="Helvetica,sans-Serif" font-size="10.00" fill="#000000">write_buffer::sort</text>
</a>
</g>
</g>
<!-- Node4&#45;&gt;Node6 -->
<g id="edge6" class="edge">
<title>Node4&#45;&gt;Node6</title>
<path fill="none" stroke="#191970" d="M538.5534,-94.4567C561.4484,-87.7448 592.3032,-78.6994 617.1175,-71.4248"/>
<polygon fill="#191970" stroke="#191970" points="618.382,-74.7015 626.9935,-68.5296 616.4127,-67.9842 618.382,-74.7015"/>
</g>
<!-- Node15 -->
<g id="node16" class="node">
<title>Node15</title>
<g id="a_node16"><a xlink:href="classwrite__buffer_ae065d3ee59035ad508eb8ce6670d2c89.html#ae065d3ee59035ad508eb8ce6670d2c89" target="_top" xlink:title="Removes the front element from the buffer and returns it. ">
<polygon fill="#ffffff" stroke="#000000" points="610,-126.5 610,-145.5 709,-145.5 709,-126.5 610,-126.5"/>
<text text-anchor="middle" x="659.5" y="-133.5" font-family="Helvetica,sans-Serif" font-size="10.00" fill="#000000">write_buffer::pop</text>
</a>
</g>
</g>
<!-- Node4&#45;&gt;Node15 -->
<g id="edge16" class="edge">
<title>Node4&#45;&gt;Node15</title>
<path fill="none" stroke="#191970" d="M551.6395,-113.5144C568.0398,-116.9334 586.7215,-120.8279 603.8762,-124.4042"/>
<polygon fill="#191970" stroke="#191970" points="603.2675,-127.8524 613.7713,-126.467 604.6961,-120.9998 603.2675,-127.8524"/>
</g>
<!-- Node16 -->
<g id="node17" class="node">
<title>Node16</title>
<g id="a_node17"><a xlink:href="swdsm_8cpp_a3b6a6b2b244edb9faa79814ce8e5e9f5.html#a3b6a6b2b244edb9faa79814ce8e5e9f5" target="_top" xlink:title="stores a page remotely &#45; only writing back what has been written locally since last synchronization p...">
<polygon fill="#ffffff" stroke="#000000" points="616.5,-88.5 616.5,-107.5 702.5,-107.5 702.5,-88.5 616.5,-88.5"/>
<text text-anchor="middle" x="659.5" y="-95.5" font-family="Helvetica,sans-Serif" font-size="10.00" fill="#000000">storepageDIFF</text>
</a>
</g>
</g>
<!-- Node4&#45;&gt;Node16 -->
<g id="edge17" class="edge">
<title>Node4&#45;&gt;Node16</title>
<path fill="none" stroke="#191970" d="M558.3967,-101.9519C573.639,-101.3561 590.311,-100.7045 605.6417,-100.1052"/>
<polygon fill="#191970" stroke="#191970" points="606.1513,-103.5881 616.0069,-99.7001 605.8778,-96.5934 606.1513,-103.5881"/>
</g>
<!-- Node21 -->
<g id="node22" class="node">
<title>Node21</title>
<g id="a_node22"><a xlink:href="namespaceargo_a79c9492f3fd441bfa6261dffbc0f02f4.html#a79c9492f3fd441bfa6261dffbc0f02f4" target="_top" xlink:title="Number of ArgoDSM nodes being run. ">
<polygon fill="#ffffff" stroke="#000000" points="594,-202.5 594,-221.5 725,-221.5 725,-202.5 594,-202.5"/>
<text text-anchor="middle" x="659.5" y="-209.5" font-family="Helvetica,sans-Serif" font-size="10.00" fill="#000000">argo::number_of_nodes</text>
</a>
</g>
</g>
<!-- Node4&#45;&gt;Node21 -->
<g id="edge22" class="edge">
<title>Node4&#45;&gt;Node21</title>
<path fill="none" stroke="#191970" d="M541.2721,-113.5521C547.2983,-116.2592 553.1645,-119.6854 558,-124 583.8089,-147.0292 567.2376,-171.0861 594,-193 596.1586,-194.7675 598.4746,-196.3706 600.901,-197.8245"/>
<polygon fill="#191970" stroke="#191970" points="599.5808,-201.0788 610.0846,-202.4642 602.7373,-194.8309 599.5808,-201.0788"/>
</g>
<!-- Node7 -->
<g id="node8" class="node">
<title>Node7</title>
<g id="a_node8"><a xlink:href="namespaceargo_a48dc17c94275df10a8e7f3959cbf0191.html#a48dc17c94275df10a8e7f3959cbf0191" target="_top" xlink:title="Get the ArgoDSM node id where addr is physically backed. ">
<polygon fill="#ffffff" stroke="#000000" points="761,-44.5 761,-63.5 878,-63.5 878,-44.5 761,-44.5"/>
<text text-anchor="middle" x="819.5" y="-51.5" font-family="Helvetica,sans-Serif" font-size="10.00" fill="#000000">argo::get_homenode</text>
</a>
</g>
</g>
<!-- Node6&#45;&gt;Node7 -->
<g id="edge7" class="edge">
<title>Node6&#45;&gt;Node7</title>
<path fill="none" stroke="#191970" d="M709.686,-57.4317C722.6124,-57.0277 736.7506,-56.5859 750.452,-56.1577"/>
<polygon fill="#191970" stroke="#191970" points="750.9314,-59.6446 760.8171,-55.8338 750.7127,-52.648 750.9314,-59.6446"/>
</g>
<!-- Node8 -->
<g id="node9" class="node">
<title>Node8</title>
<g id="a_node9"><a xlink:href="classargo_1_1data__distribution_1_1global__ptr_a3e2cdd4d323ef91174615e27ab94e342.html#a3e2cdd4d323ef91174615e27ab94e342" target="_top" xlink:title="return the home node of the value pointed to, or a default value if the page has not yet been first&#45;t...">
<polygon fill="#ffffff" stroke="#000000" points="914,-39 914,-69 1045,-69 1045,-39 914,-39"/>
<text text-anchor="start" x="922" y="-57" font-family="Helvetica,sans-Serif" font-size="10.00" fill="#000000">argo::data_distribution</text>
<text text-anchor="middle" x="979.5" y="-46" font-family="Helvetica,sans-Serif" font-size="10.00" fill="#000000">::global_ptr::peek_node</text>
</a>
</g>
</g>
<!-- Node7&#45;&gt;Node8 -->
<g id="edge8" class="edge">
<title>Node7&#45;&gt;Node8</title>
<path fill="none" stroke="#191970" d="M878.1696,-54C886.503,-54 895.1696,-54 903.7702,-54"/>
<polygon fill="#191970" stroke="#191970" points="903.8123,-57.5001 913.8123,-54 903.8122,-50.5001 903.8123,-57.5001"/>
</g>
<!-- Node9 -->
<g id="node10" class="node">
<title>Node9</title>
<g id="a_node10"><a xlink:href="namespaceargo_a2f35b6b6e0af76fb8fb47f2031d6f58e.html#a2f35b6b6e0af76fb8fb47f2031d6f58e" target="_top" xlink:title="Get the block size of the current allocation policy. ">
<polygon fill="#ffffff" stroke="#000000" points="921.5,-.5 921.5,-19.5 1037.5,-19.5 1037.5,-.5 921.5,-.5"/>
<text text-anchor="middle" x="979.5" y="-7.5" font-family="Helvetica,sans-Serif" font-size="10.00" fill="#000000">argo::get_block_size</text>
</a>
</g>
</g>
<!-- Node7&#45;&gt;Node9 -->
<g id="edge9" class="edge">
<title>Node7&#45;&gt;Node9</title>
<path fill="none" stroke="#191970" d="M854.2176,-44.4527C877.91,-37.9373 909.5031,-29.2492 935.0354,-22.2278"/>
<polygon fill="#191970" stroke="#191970" points="936.1362,-25.5551 944.8501,-19.5287 934.28,-18.8056 936.1362,-25.5551"/>
</g>
<!-- Node10 -->
<g id="node11" class="node">
<title>Node10</title>
<g id="a_node11"><a xlink:href="namespaceargo_1_1data__distribution_a2a70ed49553953957c3a28aa755d7ac8.html#a2a70ed49553953957c3a28aa755d7ac8" target="_top" xlink:title="based on the chosen policy, gets the policy block size ">
<polygon fill="#ffffff" stroke="#000000" points="1081,-78 1081,-108 1208,-108 1208,-78 1081,-78"/>
<text text-anchor="start" x="1089" y="-96" font-family="Helvetica,sans-Serif" font-size="10.00" fill="#000000">argo::data_distribution</text>
<text text-anchor="middle" x="1144.5" y="-85" font-family="Helvetica,sans-Serif" font-size="10.00" fill="#000000">::policy_block_size</text>
</a>
</g>
</g>
<!-- Node9&#45;&gt;Node10 -->
<g id="edge10" class="edge">
<title>Node9&#45;&gt;Node10</title>
<path fill="none" stroke="#191970" d="M1019.3064,-19.5483C1027.9482,-22.1692 1036.917,-25.3227 1045,-29 1070.6156,-40.6537 1097.3139,-58.1662 1116.5981,-71.9277"/>
<polygon fill="#191970" stroke="#191970" points="1114.756,-74.9152 1124.9063,-77.9521 1118.8652,-69.2482 1114.756,-74.9152"/>
</g>
<!-- Node11 -->
<g id="node12" class="node">
<title>Node11</title>
<g id="a_node12"><a xlink:href="namespaceargo_1_1env_a30775a9aa41b956df7474a2c0cc317aa.html#a30775a9aa41b956df7474a2c0cc317aa" target="_top" xlink:title="get the allocation block size requested by environment variable ">
<polygon fill="#ffffff" stroke="#000000" points="1249.5,-103 1249.5,-133 1365.5,-133 1365.5,-103 1249.5,-103"/>
<text text-anchor="start" x="1257.5" y="-121" font-family="Helvetica,sans-Serif" font-size="10.00" fill="#000000">argo::env::allocation</text>
<text text-anchor="middle" x="1307.5" y="-110" font-family="Helvetica,sans-Serif" font-size="10.00" fill="#000000">_block_size</text>
</a>
</g>
</g>
<!-- Node10&#45;&gt;Node11 -->
<g id="edge11" class="edge">
<title>Node10&#45;&gt;Node11</title>
<path fill="none" stroke="#191970" d="M1208.4541,-102.8089C1218.5549,-104.3581 1229.0331,-105.9652 1239.2277,-107.5288"/>
<polygon fill="#191970" stroke="#191970" points="1238.8881,-111.0176 1249.3032,-109.0741 1239.9494,-104.0985 1238.8881,-111.0176"/>
</g>
<!-- Node12 -->
<g id="node13" class="node">
<title>Node12</title>
<g id="a_node13"><a xlink:href="namespaceargo_1_1data__distribution_a1bb3f2dcecd237990e6dc67764f06860.html#a1bb3f2dcecd237990e6dc67764f06860" target="_top" xlink:title="identifies if we distribute data using a cyclic memory policy ">
<polygon fill="#ffffff" stroke="#000000" points="1244,-54 1244,-84 1371,-84 1371,-54 1244,-54"/>
<text text-anchor="start" x="1252" y="-72" font-family="Helvetica,sans-Serif" font-size="10.00" fill="#000000">argo::data_distribution</text>
<text text-anchor="middle" x="1307.5" y="-61" font-family="Helvetica,sans-Serif" font-size="10.00" fill="#000000">::is_cyclic_policy</text>
</a>
</g>
</g>
<!-- Node10&#45;&gt;Node12 -->
<g id="edge12" class="edge">
<title>Node10&#45;&gt;Node12</title>
<path fill="none" stroke="#191970" d="M1208.4541,-83.5834C1216.8519,-82.347 1225.5106,-81.0721 1234.0503,-79.8147"/>
<polygon fill="#191970" stroke="#191970" points="1234.6142,-83.2695 1243.9977,-78.35 1233.5945,-76.3441 1234.6142,-83.2695"/>
</g>
<!-- Node10&#45;&gt;Node14 -->
<g id="edge14" class="edge">
<title>Node10&#45;&gt;Node14</title>
<path fill="none" stroke="#191970" d="M1173.3719,-108.0047C1193.0739,-118.0487 1219.8735,-131.3318 1244,-142 1248.6222,-144.0438 1253.467,-146.1007 1258.332,-148.1094"/>
<polygon fill="#191970" stroke="#191970" points="1257.0772,-151.3774 1267.6592,-151.897 1259.7109,-144.8917 1257.0772,-151.3774"/>
</g>
<!-- Node13 -->
<g id="node14" class="node">
<title>Node13</title>
<g id="a_node14"><a xlink:href="namespaceargo_1_1env_a25a08cb2d0d11432d640ec7173063339.html#a25a08cb2d0d11432d640ec7173063339" target="_top" xlink:title="get the allocation policy requested by environment variable ">
<polygon fill="#ffffff" stroke="#000000" points="1407,-103 1407,-133 1523,-133 1523,-103 1407,-103"/>
<text text-anchor="start" x="1415" y="-121" font-family="Helvetica,sans-Serif" font-size="10.00" fill="#000000">argo::env::allocation</text>
<text text-anchor="middle" x="1465" y="-110" font-family="Helvetica,sans-Serif" font-size="10.00" fill="#000000">_policy</text>
</a>
</g>
</g>
<!-- Node12&#45;&gt;Node13 -->
<g id="edge13" class="edge">
<title>Node12&#45;&gt;Node13</title>
<path fill="none" stroke="#191970" d="M1356.0403,-84.1014C1372.1339,-89.1083 1390.2114,-94.7324 1406.9467,-99.939"/>
<polygon fill="#191970" stroke="#191970" points="1406.0316,-103.3197 1416.6199,-102.9484 1408.1111,-96.6357 1406.0316,-103.3197"/>
</g>
<!-- Node14&#45;&gt;Node13 -->
<g id="edge15" class="edge">
<title>Node14&#45;&gt;Node13</title>
<path fill="none" stroke="#191970" d="M1356.0403,-151.8986C1372.1339,-146.8917 1390.2114,-141.2676 1406.9467,-136.061"/>
<polygon fill="#191970" stroke="#191970" points="1408.1111,-139.3643 1416.6199,-133.0516 1406.0316,-132.6803 1408.1111,-139.3643"/>
</g>
<!-- Node17 -->
<g id="node18" class="node">
<title>Node17</title>
<g id="a_node18"><a xlink:href="swdsm_8cpp_ab2e5fbbe4d1f44d25619f290dc37dd3e.html#ab2e5fbbe4d1f44d25619f290dc37dd3e" target="_top" xlink:title="Gives homenode for a given address. ">
<polygon fill="#ffffff" stroke="#000000" points="775,-135.5 775,-154.5 864,-154.5 864,-135.5 775,-135.5"/>
<text text-anchor="middle" x="819.5" y="-142.5" font-family="Helvetica,sans-Serif" font-size="10.00" fill="#000000">get_homenode</text>
</a>
</g>
</g>
<!-- Node16&#45;&gt;Node17 -->
<g id="edge18" class="edge">
<title>Node16&#45;&gt;Node17</title>
<path fill="none" stroke="#191970" d="M692.4963,-107.5315C702.8997,-110.5474 714.4333,-113.902 725,-117 742.2693,-122.0631 761.2989,-127.6919 777.7276,-132.567"/>
<polygon fill="#191970" stroke="#191970" points="776.9992,-136.0017 787.5818,-135.4933 778.9919,-129.2913 776.9992,-136.0017"/>
</g>
<!-- Node19 -->
<g id="node20" class="node">
<title>Node19</title>
<g id="a_node20"><a xlink:href="swdsm_8cpp_a974f1a03f5461bb989248cceb41cd95b.html#a974f1a03f5461bb989248cceb41cd95b" target="_top" xlink:title="Gets the offset of an address on the local nodes part of the global memory. ">
<polygon fill="#ffffff" stroke="#000000" points="787,-90.5 787,-109.5 852,-109.5 852,-90.5 787,-90.5"/>
<text text-anchor="middle" x="819.5" y="-97.5" font-family="Helvetica,sans-Serif" font-size="10.00" fill="#000000">get_offset</text>
</a>
</g>
</g>
<!-- Node16&#45;&gt;Node19 -->
<g id="edge20" class="edge">
<title>Node16&#45;&gt;Node19</title>
<path fill="none" stroke="#191970" d="M702.7983,-98.5412C725.7517,-98.8281 753.8515,-99.1794 776.7258,-99.4653"/>
<polygon fill="#191970" stroke="#191970" points="776.7877,-102.9663 786.8307,-99.5916 776.8752,-95.9668 776.7877,-102.9663"/>
</g>
<!-- Node18 -->
<g id="node19" class="node">
<title>Node18</title>
<g id="a_node19"><a xlink:href="classargo_1_1data__distribution_1_1global__ptr_ac7d651586337d08cda18ef26ffcd34a0.html#ac7d651586337d08cda18ef26ffcd34a0" target="_top" xlink:title="return the home node of the value pointed to ">
<polygon fill="#ffffff" stroke="#000000" points="916,-137 916,-167 1043,-167 1043,-137 916,-137"/>
<text text-anchor="start" x="924" y="-155" font-family="Helvetica,sans-Serif" font-size="10.00" fill="#000000">argo::data_distribution</text>
<text text-anchor="middle" x="979.5" y="-144" font-family="Helvetica,sans-Serif" font-size="10.00" fill="#000000">::global_ptr::node</text>
</a>
</g>
</g>
<!-- Node17&#45;&gt;Node18 -->
<g id="edge19" class="edge">
<title>Node17&#45;&gt;Node18</title>
<path fill="none" stroke="#191970" d="M864.0689,-146.9499C876.9412,-147.5131 891.3472,-148.1433 905.5013,-148.7626"/>
<polygon fill="#191970" stroke="#191970" points="905.5941,-152.2699 915.7375,-149.2104 905.9001,-145.2766 905.5941,-152.2699"/>
</g>
<!-- Node20 -->
<g id="node21" class="node">
<title>Node20</title>
<g id="a_node21"><a xlink:href="classargo_1_1data__distribution_1_1global__ptr_ad8c21c408fa2b926cfd9acfd87e8e4e6.html#ad8c21c408fa2b926cfd9acfd87e8e4e6" target="_top" xlink:title="return the offset on the home node&#39;s local memory share ">
<polygon fill="#ffffff" stroke="#000000" points="916,-88 916,-118 1043,-118 1043,-88 916,-88"/>
<text text-anchor="start" x="924" y="-106" font-family="Helvetica,sans-Serif" font-size="10.00" fill="#000000">argo::data_distribution</text>
<text text-anchor="middle" x="979.5" y="-95" font-family="Helvetica,sans-Serif" font-size="10.00" fill="#000000">::global_ptr::offset</text>
</a>
</g>
</g>
<!-- Node19&#45;&gt;Node20 -->
<g id="edge21" class="edge">
<title>Node19&#45;&gt;Node20</title>
<path fill="none" stroke="#191970" d="M852.2645,-100.6143C867.764,-100.905 886.9491,-101.2647 905.6797,-101.6159"/>
<polygon fill="#191970" stroke="#191970" points="905.6467,-105.1158 915.7106,-101.8039 905.778,-98.117 905.6467,-105.1158"/>
</g>
<!-- Node22&#45;&gt;Node4 -->
<g id="edge26" class="edge">
<title>Node22&#45;&gt;Node4</title>
<path fill="none" stroke="#191970" d="M391.1127,-126.4856C408.7447,-123.0347 428.8524,-119.0992 447.2643,-115.4957"/>
<polygon fill="#191970" stroke="#191970" points="448.1507,-118.8887 457.2923,-113.533 446.8062,-112.019 448.1507,-118.8887"/>
</g>
<!-- Node22&#45;&gt;Node23 -->
<g id="edge24" class="edge">
<title>Node22&#45;&gt;Node23</title>
<path fill="none" stroke="#191970" d="M387.3049,-145.57C397.5232,-148.2209 408.2417,-151.3815 418,-155 418.0997,-155.037 452.2023,-172.0914 477.919,-184.954"/>
<polygon fill="#191970" stroke="#191970" points="476.4263,-188.1208 486.9357,-189.4639 479.5578,-181.8602 476.4263,-188.1208"/>
</g>
<!-- Node24 -->
<g id="node25" class="node">
<title>Node24</title>
<g id="a_node25"><a xlink:href="swdsm_8cpp_aff9ea7ba7f37206d933c8dc8004dbc7b.html#aff9ea7ba7f37206d933c8dc8004dbc7b" target="_top" xlink:title="Gives an index to the sharer/writer vector depending on the address. ">
<polygon fill="#ffffff" stroke="#000000" points="455.5,-133 455.5,-163 556.5,-163 556.5,-133 455.5,-133"/>
<text text-anchor="start" x="463.5" y="-151" font-family="Helvetica,sans-Serif" font-size="10.00" fill="#000000">get_classification</text>
<text text-anchor="middle" x="506" y="-140" font-family="Helvetica,sans-Serif" font-size="10.00" fill="#000000">_index</text>
</a>
</g>
</g>
<!-- Node22&#45;&gt;Node24 -->
<g id="edge25" class="edge">
<title>Node22&#45;&gt;Node24</title>
<path fill="none" stroke="#191970" d="M391.5554,-139.6004C408.3823,-140.8354 427.4218,-142.2328 445.0735,-143.5283"/>
<polygon fill="#191970" stroke="#191970" points="445.0497,-147.0359 455.2791,-144.2774 445.5621,-140.0547 445.0497,-147.0359"/>
</g>
<!-- Node26 -->
<g id="node27" class="node">
<title>Node26</title>
<g id="a_node27"><a xlink:href="namespaceargo_1_1env_a5b409fb87255b7e434bf833ab8598113.html#a5b409fb87255b7e434bf833ab8598113" target="_top" xlink:title="get the write buffer size requested by environment variable ">
<polygon fill="#ffffff" stroke="#000000" points="267,-50.5 267,-69.5 418,-69.5 418,-50.5 267,-50.5"/>
<text text-anchor="middle" x="342.5" y="-57.5" font-family="Helvetica,sans-Serif" font-size="10.00" fill="#000000">argo::env::write_buffer_size</text>
</a>
</g>
</g>
<!-- Node25&#45;&gt;Node26 -->
<g id="edge29" class="edge">
<title>Node25&#45;&gt;Node26</title>
<path fill="none" stroke="#191970" d="M215.3348,-74.2545C228.0024,-72.8345 242.3734,-71.2236 256.7818,-69.6085"/>
<polygon fill="#191970" stroke="#191970" points="257.1944,-73.0843 266.7423,-68.492 256.4146,-66.1279 257.1944,-73.0843"/>
</g>
</g>
</svg>
        <g id="navigator" transform="translate(0 0)" fill="#404254">
                <rect fill="#f2f5e9" fill-opacity="0.5" stroke="#606060" stroke-width=".5" x="0" y="0" width="60" height="60"/>
                <use id="zoomplus" xlink:href="#zoomPlus" x="17" y="9" onmousedown="handleZoom(evt,'in')"/>
                <use id="zoomminus" xlink:href="#zoomMin" x="42" y="9" onmousedown="handleZoom(evt,'out')"/>
                <use id="reset" xlink:href="#resetDef" x="30" y="36" onmousedown="handleReset()"/>
                <g id="arrowUp" xlink:href="#dirArrow" transform="translate(30 24)" onmousedown="handlePan(0,-1)">
                  <use xlink:href="#rim" fill="#404040">
                        <set attributeName="fill" to="#808080" begin="arrowUp.mouseover" end="arrowUp.mouseout"/>
                  </use>
                  <path fill="none" stroke="white" stroke-width="1.5" d="M0,-3.0v7 M-2.5,-0.5L0,-3.0L2.5,-0.5"/>
                </g>
                <g id="arrowRight" xlink:href="#dirArrow" transform="rotate(90) translate(36 -43)" onmousedown="handlePan(1,0)">
                  <use xlink:href="#rim" fill="#404040">
                        <set attributeName="fill" to="#808080" begin="arrowRight.mouseover" end="arrowRight.mouseout"/>
                  </use>
                  <path fill="none" stroke="white" stroke-width="1.5" d="M0,-3.0v7 M-2.5,-0.5L0,-3.0L2.5,-0.5"/>
                </g>
                <g id="arrowDown" xlink:href="#dirArrow" transform="rotate(180) translate(-30 -48)" onmousedown="handlePan(0,1)">
                  <use xlink:href="#rim" fill="#404040">
                        <set attributeName="fill" to="#808080" begin="arrowDown.mouseover" end="arrowDown.mouseout"/>
                  </use>
                  <path fill="none" stroke="white" stroke-width="1.5" d="M0,-3.0v7 M-2.5,-0.5L0,-3.0L2.5,-0.5"/>
                </g>
                <g id="arrowLeft" xlink:href="#dirArrow" transform="rotate(270) translate(-36 17)" onmousedown="handlePan(-1,0)">
                  <use xlink:href="#rim" fill="#404040">
                        <set attributeName="fill" to="#808080" begin="arrowLeft.mouseover" end="arrowLeft.mouseout"/>
                  </use>
                  <path fill="none" stroke="white" stroke-width="1.5" d="M0,-3.0v7 M-2.5,-0.5L0,-3.0L2.5,-0.5"/>
                </g>
        </g>
        <svg viewBox="0 0 15 15" width="100%" height="30px" preserveAspectRatio="xMaxYMin meet">
         <g id="arrow_out" transform="scale(0.3 0.3)">
          <a xlink:href="swdsm_8h_aa954d5e0bcaee69ff6e03e697bcaf68b_aa954d5e0bcaee69ff6e03e697bcaf68b_cgraph_org.svg" target="_base">
           <rect id="button" ry="5" rx="5" y="6" x="6" height="38" width="38"
                fill="#f2f5e9" fill-opacity="0.5" stroke="#606060" stroke-width="1.0"/>
           <path id="arrow"
             d="M 11.500037,31.436501 C 11.940474,20.09759 22.043105,11.32322 32.158766,21.979434 L 37.068811,17.246167 C 37.068811,17.246167 37.088388,32 37.088388,32 L 22.160133,31.978069 C 22.160133,31.978069 26.997745,27.140456 26.997745,27.140456 C 18.528582,18.264221 13.291696,25.230495 11.500037,31.436501 z"
             style="fill:#404040;"/>
          </a>
         </g>
        </svg>
</svg>
