<?xml version="1.0" encoding="UTF-8" standalone="no"?>
<!DOCTYPE svg PUBLIC "-//W3C//DTD SVG 1.1//EN"
 "http://www.w3.org/Graphics/SVG/1.1/DTD/svg11.dtd">
<!-- Generated by graphviz version 2.40.1 (20161225.0304)
 -->
<!-- Title: self_invalidation Pages: 1 -->
<svg width="708pt" height="236pt"
 viewBox="0.00 0.00 708.00 236.00" xmlns="http://www.w3.org/2000/svg" xmlns:xlink="http://www.w3.org/1999/xlink">
<g id="graph0" class="graph" transform="scale(1 1) rotate(0) translate(4 232)">
<title>self_invalidation</title>
<polygon fill="#ffffff" stroke="transparent" points="-4,4 -4,-232 704,-232 704,4 -4,4"/>
<!-- Node22 -->
<g id="node1" class="node">
<title>Node22</title>
<polygon fill="#bfbfbf" stroke="#000000" points="0,-85.5 0,-104.5 98,-104.5 98,-85.5 0,-85.5"/>
<text text-anchor="middle" x="49" y="-92.5" font-family="Helvetica,sans-Serif" font-size="10.00" fill="#000000">self_invalidation</text>
</g>
<!-- Node23 -->
<g id="node2" class="node">
<title>Node23</title>
<g id="a_node2"><a xlink:href="swdsm_8h_ad3f5bdae81c60ac704dda7372792427d.html#ad3f5bdae81c60ac704dda7372792427d" target="_top" xlink:title="Global barrier for ArgoDSM &#45; needs to be called by every thread in the system that need coherent view...">
<polygon fill="#ffffff" stroke="#000000" points="134,-132.5 134,-151.5 250,-151.5 250,-132.5 134,-132.5"/>
<text text-anchor="middle" x="192" y="-139.5" font-family="Helvetica,sans-Serif" font-size="10.00" fill="#000000">swdsm_argo_barrier</text>
</a>
</g>
</g>
<!-- Node22&#45;&gt;Node23 -->
<g id="edge1" class="edge">
<title>Node22&#45;&gt;Node23</title>
<path fill="none" stroke="#191970" d="M87.6368,-107.6988C111.2348,-115.4548 140.9368,-125.217 162.614,-132.3417"/>
<polygon fill="#191970" stroke="#191970" points="88.5311,-104.3086 77.9382,-104.5112 86.3454,-110.9586 88.5311,-104.3086"/>
</g>
<!-- Node31 -->
<g id="node10" class="node">
<title>Node31</title>
<g id="a_node10"><a xlink:href="swdsm_8h_a44b8bb7a3c8b47b4f9552c8e10b25e4b.html#a44b8bb7a3c8b47b4f9552c8e10b25e4b" target="_top" xlink:title="acquire function for ArgoDSM (Acquire according to Release Consistency) ">
<polygon fill="#ffffff" stroke="#000000" points="152,-38.5 152,-57.5 232,-57.5 232,-38.5 152,-38.5"/>
<text text-anchor="middle" x="192" y="-45.5" font-family="Helvetica,sans-Serif" font-size="10.00" fill="#000000">argo_acquire</text>
</a>
</g>
</g>
<!-- Node22&#45;&gt;Node31 -->
<g id="edge9" class="edge">
<title>Node22&#45;&gt;Node31</title>
<path fill="none" stroke="#191970" d="M87.6368,-82.3012C111.2348,-74.5452 140.9368,-64.783 162.614,-57.6583"/>
<polygon fill="#191970" stroke="#191970" points="86.3454,-79.0414 77.9382,-85.4888 88.5311,-85.6914 86.3454,-79.0414"/>
</g>
<!-- Node24 -->
<g id="node3" class="node">
<title>Node24</title>
<g id="a_node3"><a xlink:href="backend_8hpp_af1a647431651556204709451bebb5a42.html#af1a647431651556204709451bebb5a42" target="_top" xlink:title="a simple collective barrier ">
<polygon fill="#ffffff" stroke="#000000" points="288,-208.5 288,-227.5 412,-227.5 412,-208.5 288,-208.5"/>
<text text-anchor="middle" x="350" y="-215.5" font-family="Helvetica,sans-Serif" font-size="10.00" fill="#000000">argo::backend::barrier</text>
</a>
</g>
</g>
<!-- Node23&#45;&gt;Node24 -->
<g id="edge2" class="edge">
<title>Node23&#45;&gt;Node24</title>
<path fill="none" stroke="#191970" d="M213.7121,-157.381C232.2237,-169.9417 259.9051,-187.4454 286,-199 294.1604,-202.6134 303.2019,-205.772 311.8561,-208.4225"/>
<polygon fill="#191970" stroke="#191970" points="215.6289,-154.4513 205.4084,-151.6596 211.6572,-160.2155 215.6289,-154.4513"/>
</g>
<!-- Node25 -->
<g id="node4" class="node">
<title>Node25</title>
<g id="a_node4"><a xlink:href="swdsm_8h_acd175d6d8efa5cce6963bae64891a490.html#acd175d6d8efa5cce6963bae64891a490" target="_top" xlink:title="Allocates memory in global address space. ">
<polygon fill="#ffffff" stroke="#000000" points="308.5,-170.5 308.5,-189.5 391.5,-189.5 391.5,-170.5 308.5,-170.5"/>
<text text-anchor="middle" x="350" y="-177.5" font-family="Helvetica,sans-Serif" font-size="10.00" fill="#000000">argo_gmalloc</text>
</a>
</g>
</g>
<!-- Node23&#45;&gt;Node25 -->
<g id="edge3" class="edge">
<title>Node23&#45;&gt;Node25</title>
<path fill="none" stroke="#191970" d="M241.7616,-153.968C263.9029,-159.2931 289.6116,-165.4762 310.4166,-170.4799"/>
<polygon fill="#191970" stroke="#191970" points="242.4113,-150.5245 231.8701,-151.589 240.7744,-157.3304 242.4113,-150.5245"/>
</g>
<!-- Node26 -->
<g id="node5" class="node">
<title>Node26</title>
<g id="a_node5"><a xlink:href="swdsm_8cpp_aa954d5e0bcaee69ff6e03e697bcaf68b.html#aa954d5e0bcaee69ff6e03e697bcaf68b" target="_top" xlink:title="shut down ArgoDSM system ">
<polygon fill="#ffffff" stroke="#000000" points="310.5,-132.5 310.5,-151.5 389.5,-151.5 389.5,-132.5 310.5,-132.5"/>
<text text-anchor="middle" x="350" y="-139.5" font-family="Helvetica,sans-Serif" font-size="10.00" fill="#000000">argo_finalize</text>
</a>
</g>
</g>
<!-- Node23&#45;&gt;Node26 -->
<g id="edge4" class="edge">
<title>Node23&#45;&gt;Node26</title>
<path fill="none" stroke="#191970" d="M260.7661,-142C277.6157,-142 295.0971,-142 310.0741,-142"/>
<polygon fill="#191970" stroke="#191970" points="260.3845,-138.5001 250.3845,-142 260.3844,-145.5001 260.3845,-138.5001"/>
</g>
<!-- Node28 -->
<g id="node7" class="node">
<title>Node28</title>
<g id="a_node7"><a xlink:href="swdsm_8h_a0c6b51af2b87ddf7eb04aa7d4e0e836e.html#a0c6b51af2b87ddf7eb04aa7d4e0e836e" target="_top" xlink:title="Resets current coherence. Collective function called by all threads on all nodes. ...">
<polygon fill="#ffffff" stroke="#000000" points="288,-94.5 288,-113.5 412,-113.5 412,-94.5 288,-94.5"/>
<text text-anchor="middle" x="350" y="-101.5" font-family="Helvetica,sans-Serif" font-size="10.00" fill="#000000">argo_reset_coherence</text>
</a>
</g>
</g>
<!-- Node23&#45;&gt;Node28 -->
<g id="edge6" class="edge">
<title>Node23&#45;&gt;Node28</title>
<path fill="none" stroke="#191970" d="M241.7616,-130.032C263.9029,-124.7069 289.6116,-118.5238 310.4166,-113.5201"/>
<polygon fill="#191970" stroke="#191970" points="240.7744,-126.6696 231.8701,-132.411 242.4113,-133.4755 240.7744,-126.6696"/>
</g>
<!-- Node27 -->
<g id="node6" class="node">
<title>Node27</title>
<g id="a_node6"><a xlink:href="swdsm_8h_a18cc89a7368e30281ea4b1d214a1b1ff.html#a18cc89a7368e30281ea4b1d214a1b1ff" target="_top" xlink:title="Pins and registers the local thread. ">
<polygon fill="#ffffff" stroke="#000000" points="453,-132.5 453,-151.5 554,-151.5 554,-132.5 453,-132.5"/>
<text text-anchor="middle" x="503.5" y="-139.5" font-family="Helvetica,sans-Serif" font-size="10.00" fill="#000000">argo_pin_threads</text>
</a>
</g>
</g>
<!-- Node26&#45;&gt;Node27 -->
<g id="edge5" class="edge">
<title>Node26&#45;&gt;Node27</title>
<path fill="none" stroke="#191970" d="M399.8002,-142C416.7693,-142 435.7517,-142 452.7913,-142"/>
<polygon fill="#191970" stroke="#191970" points="399.5301,-138.5001 389.5301,-142 399.53,-145.5001 399.5301,-138.5001"/>
</g>
<!-- Node29 -->
<g id="node8" class="node">
<title>Node29</title>
<g id="a_node8"><a xlink:href="swdsm_8h_a10dca85d339ce630cf42dca685b3f6d9.html#a10dca85d339ce630cf42dca685b3f6d9" target="_top" xlink:title="Initializes ArgoDSM runtime. ">
<polygon fill="#ffffff" stroke="#000000" points="460.5,-94.5 460.5,-113.5 546.5,-113.5 546.5,-94.5 460.5,-94.5"/>
<text text-anchor="middle" x="503.5" y="-101.5" font-family="Helvetica,sans-Serif" font-size="10.00" fill="#000000">argo_initialize</text>
</a>
</g>
</g>
<!-- Node28&#45;&gt;Node29 -->
<g id="edge7" class="edge">
<title>Node28&#45;&gt;Node29</title>
<path fill="none" stroke="#191970" d="M422.7126,-104C435.6043,-104 448.6483,-104 460.3843,-104"/>
<polygon fill="#191970" stroke="#191970" points="422.4344,-100.5001 412.4343,-104 422.4343,-107.5001 422.4344,-100.5001"/>
</g>
<!-- Node30 -->
<g id="node9" class="node">
<title>Node30</title>
<g id="a_node9"><a xlink:href="backend_8hpp_af0d80a03a17a374c10d9635ddf81e261.html#af0d80a03a17a374c10d9635ddf81e261" target="_top" xlink:title="initialize backend ">
<polygon fill="#ffffff" stroke="#000000" points="593,-94.5 593,-113.5 700,-113.5 700,-94.5 593,-94.5"/>
<text text-anchor="middle" x="646.5" y="-101.5" font-family="Helvetica,sans-Serif" font-size="10.00" fill="#000000">argo::backend::init</text>
</a>
</g>
</g>
<!-- Node29&#45;&gt;Node30 -->
<g id="edge8" class="edge">
<title>Node29&#45;&gt;Node30</title>
<path fill="none" stroke="#191970" d="M556.933,-104C568.7171,-104 581.2019,-104 592.9891,-104"/>
<polygon fill="#191970" stroke="#191970" points="556.7928,-100.5001 546.7928,-104 556.7927,-107.5001 556.7928,-100.5001"/>
</g>
<!-- Node32 -->
<g id="node11" class="node">
<title>Node32</title>
<g id="a_node11"><a xlink:href="backend_8hpp_a1032f833666c3f810ac1c6210197d426.html#a1032f833666c3f810ac1c6210197d426" target="_top" xlink:title="causes a node to self&#45;invalidate its cache, and thus getting any updated values on subsequent accesse...">
<polygon fill="#ffffff" stroke="#000000" points="286,-38.5 286,-57.5 414,-57.5 414,-38.5 286,-38.5"/>
<text text-anchor="middle" x="350" y="-45.5" font-family="Helvetica,sans-Serif" font-size="10.00" fill="#000000">argo::backend::acquire</text>
</a>
</g>
</g>
<!-- Node31&#45;&gt;Node32 -->
<g id="edge10" class="edge">
<title>Node31&#45;&gt;Node32</title>
<path fill="none" stroke="#191970" d="M242.5231,-48C256.3033,-48 271.4182,-48 285.8475,-48"/>
<polygon fill="#191970" stroke="#191970" points="242.2789,-44.5001 232.2789,-48 242.2789,-51.5001 242.2789,-44.5001"/>
</g>
<!-- Node34 -->
<g id="node13" class="node">
<title>Node34</title>
<g id="a_node13"><a xlink:href="swdsm_8h_ac0b665f72bc2a28dc663ed204c526e1b.html#ac0b665f72bc2a28dc663ed204c526e1b" target="_top" xlink:title="acquire&#45;release function for ArgoDSM (Both acquire and release according to Release Consistency) ...">
<polygon fill="#ffffff" stroke="#000000" points="310.5,-.5 310.5,-19.5 389.5,-19.5 389.5,-.5 310.5,-.5"/>
<text text-anchor="middle" x="350" y="-7.5" font-family="Helvetica,sans-Serif" font-size="10.00" fill="#000000">argo_acq_rel</text>
</a>
</g>
</g>
<!-- Node31&#45;&gt;Node34 -->
<g id="edge13" class="edge">
<title>Node31&#45;&gt;Node34</title>
<path fill="none" stroke="#191970" d="M241.7616,-36.032C263.9029,-30.7069 289.6116,-24.5238 310.4166,-19.5201"/>
<polygon fill="#191970" stroke="#191970" points="240.7744,-32.6696 231.8701,-38.411 242.4113,-39.4755 240.7744,-32.6696"/>
</g>
<!-- Node32&#45;&gt;Node32 -->
<g id="edge11" class="edge">
<title>Node32&#45;&gt;Node32</title>
<path fill="none" stroke="#191970" d="M321.6275,-66.6539C322.8135,-71.9368 332.271,-76 350,-76 377.0156,-76 384.8248,-66.5653 373.4276,-57.7571"/>
<polygon fill="#191970" stroke="#191970" points="324.7735,-68.1981 326.5724,-57.7571 318.6551,-64.7974 324.7735,-68.1981"/>
</g>
<!-- Node33 -->
<g id="node12" class="node">
<title>Node33</title>
<g id="a_node12"><a xlink:href="singlenode_8cpp_aab3cabb3e1c0b9696b339416b684f78c.html#aab3cabb3e1c0b9696b339416b684f78c" target="_top" xlink:title="argo::backend::init">
<polygon fill="#ffffff" stroke="#000000" points="450,-38.5 450,-57.5 557,-57.5 557,-38.5 450,-38.5"/>
<text text-anchor="middle" x="503.5" y="-45.5" font-family="Helvetica,sans-Serif" font-size="10.00" fill="#000000">argo::backend::init</text>
</a>
</g>
</g>
<!-- Node32&#45;&gt;Node33 -->
<g id="edge12" class="edge">
<title>Node32&#45;&gt;Node33</title>
<path fill="none" stroke="#191970" d="M424.2612,-48C432.8631,-48 441.5067,-48 449.7592,-48"/>
<polygon fill="#191970" stroke="#191970" points="424.2084,-44.5001 414.2084,-48 424.2084,-51.5001 424.2084,-44.5001"/>
</g>
</g>
</svg>
