<?xml version="1.0" encoding="UTF-8" standalone="no"?>
<!DOCTYPE svg PUBLIC "-//W3C//DTD SVG 1.1//EN"
 "http://www.w3.org/Graphics/SVG/1.1/DTD/svg11.dtd">
<!-- Generated by graphviz version 2.40.1 (20161225.0304)
 -->
<!-- Title: peek_homenode Pages: 1 -->
<svg width="706pt" height="84pt"
 viewBox="0.00 0.00 706.00 84.00" xmlns="http://www.w3.org/2000/svg" xmlns:xlink="http://www.w3.org/1999/xlink">
<g id="graph0" class="graph" transform="scale(1 1) rotate(0) translate(4 80)">
<title>peek_homenode</title>
<polygon fill="#ffffff" stroke="transparent" points="-4,4 -4,-80 702,-80 702,4 -4,4"/>
<!-- Node2 -->
<g id="node1" class="node">
<title>Node2</title>
<polygon fill="#bfbfbf" stroke="#000000" points="0,-28.5 0,-47.5 98,-47.5 98,-28.5 0,-28.5"/>
<text text-anchor="middle" x="49" y="-35.5" font-family="Helvetica,sans-Serif" font-size="10.00" fill="#000000">peek_homenode</text>
</g>
<!-- Node3 -->
<g id="node2" class="node">
<title>Node3</title>
<g id="a_node2"><a xlink:href="swdsm_8cpp_a97adb774a1a5a7a3505416a171c570e9.html#a97adb774a1a5a7a3505416a171c570e9" target="_top" xlink:title="load into cache helper function ">
<polygon fill="#ffffff" stroke="#000000" points="134,-51.5 134,-70.5 236,-70.5 236,-51.5 134,-51.5"/>
<text text-anchor="middle" x="185" y="-58.5" font-family="Helvetica,sans-Serif" font-size="10.00" fill="#000000">load_cache_entry</text>
</a>
</g>
</g>
<!-- Node2&#45;&gt;Node3 -->
<g id="edge1" class="edge">
<title>Node2&#45;&gt;Node3</title>
<path fill="none" stroke="#191970" d="M108.0119,-47.98C116.5598,-49.4256 125.3006,-50.9038 133.6811,-52.3211"/>
<polygon fill="#191970" stroke="#191970" points="108.5428,-44.5201 98.0991,-46.3035 107.3755,-51.4221 108.5428,-44.5201"/>
</g>
<!-- Node7 -->
<g id="node6" class="node">
<title>Node7</title>
<g id="a_node6"><a xlink:href="swdsm_8h_a1696e0fe6cc8d073536dbce9b6fb8b1b.html#a1696e0fe6cc8d073536dbce9b6fb8b1b" target="_top" xlink:title="Check whether a page is either cached on the node or locally backed. ">
<polygon fill="#ffffff" stroke="#000000" points="150,-9.5 150,-28.5 220,-28.5 220,-9.5 150,-9.5"/>
<text text-anchor="middle" x="185" y="-16.5" font-family="Helvetica,sans-Serif" font-size="10.00" fill="#000000">_is_cached</text>
</a>
</g>
</g>
<!-- Node2&#45;&gt;Node7 -->
<g id="edge5" class="edge">
<title>Node2&#45;&gt;Node7</title>
<path fill="none" stroke="#191970" d="M108.2467,-29.7229C122.3555,-27.7518 136.9756,-25.7093 149.6226,-23.9424"/>
<polygon fill="#191970" stroke="#191970" points="107.5186,-26.2905 98.0991,-31.1406 108.4872,-33.2232 107.5186,-26.2905"/>
</g>
<!-- Node4 -->
<g id="node3" class="node">
<title>Node4</title>
<g id="a_node3"><a xlink:href="swdsm_8h_a8b00f264b792522b179fbc9c818187bd.html#a8b00f264b792522b179fbc9c818187bd" target="_top" xlink:title="Catches memory accesses to memory not yet cached in ArgoDSM. Launches remote requests for memory not ...">
<polygon fill="#ffffff" stroke="#000000" points="315.5,-56.5 315.5,-75.5 368.5,-75.5 368.5,-56.5 315.5,-56.5"/>
<text text-anchor="middle" x="342" y="-63.5" font-family="Helvetica,sans-Serif" font-size="10.00" fill="#000000">handler</text>
</a>
</g>
</g>
<!-- Node3&#45;&gt;Node4 -->
<g id="edge2" class="edge">
<title>Node3&#45;&gt;Node4</title>
<path fill="none" stroke="#191970" d="M246.4566,-62.9572C270.2822,-63.716 296.3086,-64.5449 315.1724,-65.1456"/>
<polygon fill="#191970" stroke="#191970" points="246.514,-59.4574 236.4077,-62.6372 246.2912,-66.4538 246.514,-59.4574"/>
</g>
<!-- Node5 -->
<g id="node4" class="node">
<title>Node5</title>
<g id="a_node4"><a xlink:href="swdsm_8h_a10dca85d339ce630cf42dca685b3f6d9.html#a10dca85d339ce630cf42dca685b3f6d9" target="_top" xlink:title="Initializes ArgoDSM runtime. ">
<polygon fill="#ffffff" stroke="#000000" points="458.5,-56.5 458.5,-75.5 544.5,-75.5 544.5,-56.5 458.5,-56.5"/>
<text text-anchor="middle" x="501.5" y="-63.5" font-family="Helvetica,sans-Serif" font-size="10.00" fill="#000000">argo_initialize</text>
</a>
</g>
</g>
<!-- Node4&#45;&gt;Node5 -->
<g id="edge3" class="edge">
<title>Node4&#45;&gt;Node5</title>
<path fill="none" stroke="#191970" d="M378.7271,-66C402.4955,-66 433.5405,-66 458.4651,-66"/>
<polygon fill="#191970" stroke="#191970" points="378.6967,-62.5001 368.6967,-66 378.6967,-69.5001 378.6967,-62.5001"/>
</g>
<!-- Node6 -->
<g id="node5" class="node">
<title>Node6</title>
<g id="a_node5"><a xlink:href="backend_8hpp_af0d80a03a17a374c10d9635ddf81e261.html#af0d80a03a17a374c10d9635ddf81e261" target="_top" xlink:title="initialize backend ">
<polygon fill="#ffffff" stroke="#000000" points="591,-56.5 591,-75.5 698,-75.5 698,-56.5 591,-56.5"/>
<text text-anchor="middle" x="644.5" y="-63.5" font-family="Helvetica,sans-Serif" font-size="10.00" fill="#000000">argo::backend::init</text>
</a>
</g>
</g>
<!-- Node5&#45;&gt;Node6 -->
<g id="edge4" class="edge">
<title>Node5&#45;&gt;Node6</title>
<path fill="none" stroke="#191970" d="M554.933,-66C566.7171,-66 579.2019,-66 590.9891,-66"/>
<polygon fill="#191970" stroke="#191970" points="554.7928,-62.5001 544.7928,-66 554.7927,-69.5001 554.7928,-62.5001"/>
</g>
<!-- Node8 -->
<g id="node7" class="node">
<title>Node8</title>
<g id="a_node7"><a xlink:href="backend_8hpp_a8189df2ded0e8e6b64477a53f80d67e8.html#a8189df2ded0e8e6b64477a53f80d67e8" target="_top" xlink:title="Check if a an address is cached or node local. ">
<polygon fill="#ffffff" stroke="#000000" points="272,-.5 272,-19.5 412,-19.5 412,-.5 272,-.5"/>
<text text-anchor="middle" x="342" y="-7.5" font-family="Helvetica,sans-Serif" font-size="10.00" fill="#000000">argo::backend::is_cached</text>
</a>
</g>
</g>
<!-- Node7&#45;&gt;Node8 -->
<g id="edge6" class="edge">
<title>Node7&#45;&gt;Node8</title>
<path fill="none" stroke="#191970" d="M230.2917,-16.4037C243.2742,-15.6594 257.7424,-14.8301 271.847,-14.0215"/>
<polygon fill="#191970" stroke="#191970" points="230.0171,-12.9136 220.2339,-16.9802 230.4178,-19.9021 230.0171,-12.9136"/>
</g>
<!-- Node8&#45;&gt;Node8 -->
<g id="edge7" class="edge">
<title>Node8&#45;&gt;Node8</title>
<path fill="none" stroke="#191970" d="M312.8809,-28.6539C314.0981,-33.9368 323.8044,-38 342,-38 369.7266,-38 377.7413,-28.5653 366.0441,-19.7571"/>
<polygon fill="#191970" stroke="#191970" points="316.0412,-30.1775 317.9559,-19.7571 309.9609,-26.7091 316.0412,-30.1775"/>
</g>
<!-- Node9 -->
<g id="node8" class="node">
<title>Node9</title>
<g id="a_node8"><a xlink:href="singlenode_8cpp_aab3cabb3e1c0b9696b339416b684f78c.html#aab3cabb3e1c0b9696b339416b684f78c" target="_top" xlink:title="argo::backend::init">
<polygon fill="#ffffff" stroke="#000000" points="448,-.5 448,-19.5 555,-19.5 555,-.5 448,-.5"/>
<text text-anchor="middle" x="501.5" y="-7.5" font-family="Helvetica,sans-Serif" font-size="10.00" fill="#000000">argo::backend::init</text>
</a>
</g>
</g>
<!-- Node8&#45;&gt;Node9 -->
<g id="edge8" class="edge">
<title>Node8&#45;&gt;Node9</title>
<path fill="none" stroke="#191970" d="M422.4644,-10C431.0338,-10 439.5922,-10 447.7438,-10"/>
<polygon fill="#191970" stroke="#191970" points="422.4233,-6.5001 412.4233,-10 422.4233,-13.5001 422.4233,-6.5001"/>
</g>
</g>
</svg>
