<?xml version="1.0" encoding="UTF-8" standalone="no"?>
<!DOCTYPE svg PUBLIC "-//W3C//DTD SVG 1.1//EN"
 "http://www.w3.org/Graphics/SVG/1.1/DTD/svg11.dtd">
<!-- Generated by graphviz version 2.40.1 (20161225.0304)
 -->
<!-- Title: getCacheIndex Pages: 1 -->
<svg width="737pt" height="234pt"
 viewBox="0.00 0.00 737.00 234.00" xmlns="http://www.w3.org/2000/svg" xmlns:xlink="http://www.w3.org/1999/xlink">
<g id="graph0" class="graph" transform="scale(1 1) rotate(0) translate(4 230)">
<title>getCacheIndex</title>
<polygon fill="#ffffff" stroke="transparent" points="-4,4 -4,-230 733,-230 733,4 -4,4"/>
<!-- Node1 -->
<g id="node1" class="node">
<title>Node1</title>
<polygon fill="#bfbfbf" stroke="#000000" points="0,-82.5 0,-101.5 89,-101.5 89,-82.5 0,-82.5"/>
<text text-anchor="middle" x="44.5" y="-89.5" font-family="Helvetica,sans-Serif" font-size="10.00" fill="#000000">getCacheIndex</text>
</g>
<!-- Node2 -->
<g id="node2" class="node">
<title>Node2</title>
<g id="a_node2"><a xlink:href="backend_8hpp_a0fb29a8253f0d9aefc999d93414b1758.html#a0fb29a8253f0d9aefc999d93414b1758" target="_top" xlink:title="backend internal type erased function for selective acquire ">
<polygon fill="#ffffff" stroke="#000000" points="302,-121 302,-151 443,-151 443,-121 302,-121"/>
<text text-anchor="start" x="310" y="-139" font-family="Helvetica,sans-Serif" font-size="10.00" fill="#000000">argo::backend::_selective</text>
<text text-anchor="middle" x="372.5" y="-128" font-family="Helvetica,sans-Serif" font-size="10.00" fill="#000000">_acquire</text>
</a>
</g>
</g>
<!-- Node1&#45;&gt;Node2 -->
<g id="edge1" class="edge">
<title>Node1&#45;&gt;Node2</title>
<path fill="none" stroke="#191970" d="M66.3312,-107.0257C81.9086,-116.81 103.7761,-128.7052 125,-134 183.265,-148.5356 251.6727,-147.7973 301.7861,-144.1294"/>
<polygon fill="#191970" stroke="#191970" points="68.2315,-104.0865 57.9387,-101.5746 64.4185,-109.9569 68.2315,-104.0865"/>
</g>
<!-- Node4 -->
<g id="node4" class="node">
<title>Node4</title>
<g id="a_node4"><a xlink:href="backend_8hpp_ac3350bde3c8baf64753e515336fad3be.html#ac3350bde3c8baf64753e515336fad3be" target="_top" xlink:title="backend internal type erased function for selective release ">
<polygon fill="#ffffff" stroke="#000000" points="125,-77 125,-107 266,-107 266,-77 125,-77"/>
<text text-anchor="start" x="133" y="-95" font-family="Helvetica,sans-Serif" font-size="10.00" fill="#000000">argo::backend::_selective</text>
<text text-anchor="middle" x="195.5" y="-84" font-family="Helvetica,sans-Serif" font-size="10.00" fill="#000000">_release</text>
</a>
</g>
</g>
<!-- Node1&#45;&gt;Node4 -->
<g id="edge4" class="edge">
<title>Node1&#45;&gt;Node4</title>
<path fill="none" stroke="#191970" d="M99.5569,-92C107.7505,-92 116.2916,-92 124.7528,-92"/>
<polygon fill="#191970" stroke="#191970" points="99.3962,-88.5001 89.3961,-92 99.3961,-95.5001 99.3962,-88.5001"/>
</g>
<!-- Node5 -->
<g id="node5" class="node">
<title>Node5</title>
<g id="a_node5"><a xlink:href="swdsm_8h_a8b00f264b792522b179fbc9c818187bd.html#a8b00f264b792522b179fbc9c818187bd" target="_top" xlink:title="Catches memory accesses to memory not yet cached in ArgoDSM. Launches remote requests for memory not ...">
<polygon fill="#ffffff" stroke="#000000" points="346,-19.5 346,-38.5 399,-38.5 399,-19.5 346,-19.5"/>
<text text-anchor="middle" x="372.5" y="-26.5" font-family="Helvetica,sans-Serif" font-size="10.00" fill="#000000">handler</text>
</a>
</g>
</g>
<!-- Node1&#45;&gt;Node5 -->
<g id="edge7" class="edge">
<title>Node1&#45;&gt;Node5</title>
<path fill="none" stroke="#191970" d="M81.2999,-79.308C94.9092,-74.9503 110.5421,-70.3354 125,-67 204.4243,-48.677 300.2738,-36.8095 345.8816,-31.7705"/>
<polygon fill="#191970" stroke="#191970" points="80.2122,-75.9812 71.7936,-82.4137 82.3861,-82.6351 80.2122,-75.9812"/>
</g>
<!-- Node8 -->
<g id="node8" class="node">
<title>Node8</title>
<g id="a_node8"><a xlink:href="swdsm_8cpp_a97adb774a1a5a7a3505416a171c570e9.html#a97adb774a1a5a7a3505416a171c570e9" target="_top" xlink:title="load into cache helper function ">
<polygon fill="#ffffff" stroke="#000000" points="144.5,-.5 144.5,-19.5 246.5,-19.5 246.5,-.5 144.5,-.5"/>
<text text-anchor="middle" x="195.5" y="-7.5" font-family="Helvetica,sans-Serif" font-size="10.00" fill="#000000">load_cache_entry</text>
</a>
</g>
</g>
<!-- Node1&#45;&gt;Node8 -->
<g id="edge10" class="edge">
<title>Node1&#45;&gt;Node8</title>
<path fill="none" stroke="#191970" d="M63.4053,-75.8929C79.0864,-63.1648 102.3958,-45.66 125,-34 136.2609,-28.1913 149.2316,-23.3127 160.9528,-19.5035"/>
<polygon fill="#191970" stroke="#191970" points="61.0065,-73.3349 55.5313,-82.4053 65.4679,-78.729 61.0065,-73.3349"/>
</g>
<!-- Node9 -->
<g id="node9" class="node">
<title>Node9</title>
<g id="a_node9"><a xlink:href="swdsm_8h_a1696e0fe6cc8d073536dbce9b6fb8b1b.html#a1696e0fe6cc8d073536dbce9b6fb8b1b" target="_top" xlink:title="Check whether a page is either cached on the node or locally backed. ">
<polygon fill="#ffffff" stroke="#000000" points="160.5,-185.5 160.5,-204.5 230.5,-204.5 230.5,-185.5 160.5,-185.5"/>
<text text-anchor="middle" x="195.5" y="-192.5" font-family="Helvetica,sans-Serif" font-size="10.00" fill="#000000">_is_cached</text>
</a>
</g>
</g>
<!-- Node1&#45;&gt;Node9 -->
<g id="edge12" class="edge">
<title>Node1&#45;&gt;Node9</title>
<path fill="none" stroke="#191970" d="M59.4439,-109.6548C74.5299,-126.5517 99.2265,-151.7982 125,-168 136.54,-175.2543 150.339,-181.0706 162.657,-185.4199"/>
<polygon fill="#191970" stroke="#191970" points="61.6889,-106.9042 52.4761,-101.672 56.4152,-111.5073 61.6889,-106.9042"/>
</g>
<!-- Node2&#45;&gt;Node2 -->
<g id="edge2" class="edge">
<title>Node2&#45;&gt;Node2</title>
<path fill="none" stroke="#191970" d="M344.0699,-161.4579C347.5985,-166.179 357.0752,-169.5 372.5,-169.5 397.8125,-169.5 407.1069,-160.5566 400.3833,-151.159"/>
<polygon fill="#191970" stroke="#191970" points="347.5815,-161.3305 344.6167,-151.159 340.5914,-160.9594 347.5815,-161.3305"/>
</g>
<!-- Node3 -->
<g id="node3" class="node">
<title>Node3</title>
<g id="a_node3"><a xlink:href="singlenode_8cpp_aab3cabb3e1c0b9696b339416b684f78c.html#aab3cabb3e1c0b9696b339416b684f78c" target="_top" xlink:title="argo::backend::init">
<polygon fill="#ffffff" stroke="#000000" points="479,-126.5 479,-145.5 586,-145.5 586,-126.5 479,-126.5"/>
<text text-anchor="middle" x="532.5" y="-133.5" font-family="Helvetica,sans-Serif" font-size="10.00" fill="#000000">argo::backend::init</text>
</a>
</g>
</g>
<!-- Node2&#45;&gt;Node3 -->
<g id="edge3" class="edge">
<title>Node2&#45;&gt;Node3</title>
<path fill="none" stroke="#191970" d="M453.2166,-136C461.8129,-136 470.3981,-136 478.5753,-136"/>
<polygon fill="#191970" stroke="#191970" points="453.1441,-132.5001 443.1441,-136 453.144,-139.5001 453.1441,-132.5001"/>
</g>
<!-- Node4&#45;&gt;Node3 -->
<g id="edge6" class="edge">
<title>Node4&#45;&gt;Node3</title>
<path fill="none" stroke="#191970" d="M276.2499,-94.2084C324.8626,-96.5254 387.8259,-101.2731 443,-111 463.6544,-114.6413 486.4113,-121.0312 503.8092,-126.4392"/>
<polygon fill="#191970" stroke="#191970" points="276.2501,-90.7049 266.1022,-93.7499 275.9341,-97.6977 276.2501,-90.7049"/>
</g>
<!-- Node4&#45;&gt;Node4 -->
<g id="edge5" class="edge">
<title>Node4&#45;&gt;Node4</title>
<path fill="none" stroke="#191970" d="M168.8468,-117.4579C172.1548,-122.179 181.0392,-125.5 195.5,-125.5 219.2305,-125.5 227.944,-116.5566 221.6406,-107.159"/>
<polygon fill="#191970" stroke="#191970" points="172.3579,-117.3207 169.3594,-107.159 165.3665,-116.9726 172.3579,-117.3207"/>
</g>
<!-- Node6 -->
<g id="node6" class="node">
<title>Node6</title>
<g id="a_node6"><a xlink:href="swdsm_8h_a10dca85d339ce630cf42dca685b3f6d9.html#a10dca85d339ce630cf42dca685b3f6d9" target="_top" xlink:title="Initializes ArgoDSM runtime. ">
<polygon fill="#ffffff" stroke="#000000" points="489.5,-19.5 489.5,-38.5 575.5,-38.5 575.5,-19.5 489.5,-19.5"/>
<text text-anchor="middle" x="532.5" y="-26.5" font-family="Helvetica,sans-Serif" font-size="10.00" fill="#000000">argo_initialize</text>
</a>
</g>
</g>
<!-- Node5&#45;&gt;Node6 -->
<g id="edge8" class="edge">
<title>Node5&#45;&gt;Node6</title>
<path fill="none" stroke="#191970" d="M409.3423,-29C433.1851,-29 464.3275,-29 489.3302,-29"/>
<polygon fill="#191970" stroke="#191970" points="409.2804,-25.5001 399.2804,-29 409.2804,-32.5001 409.2804,-25.5001"/>
</g>
<!-- Node7 -->
<g id="node7" class="node">
<title>Node7</title>
<g id="a_node7"><a xlink:href="backend_8hpp_af0d80a03a17a374c10d9635ddf81e261.html#af0d80a03a17a374c10d9635ddf81e261" target="_top" xlink:title="initialize backend ">
<polygon fill="#ffffff" stroke="#000000" points="622,-19.5 622,-38.5 729,-38.5 729,-19.5 622,-19.5"/>
<text text-anchor="middle" x="675.5" y="-26.5" font-family="Helvetica,sans-Serif" font-size="10.00" fill="#000000">argo::backend::init</text>
</a>
</g>
</g>
<!-- Node6&#45;&gt;Node7 -->
<g id="edge9" class="edge">
<title>Node6&#45;&gt;Node7</title>
<path fill="none" stroke="#191970" d="M585.933,-29C597.7171,-29 610.2019,-29 621.9891,-29"/>
<polygon fill="#191970" stroke="#191970" points="585.7928,-25.5001 575.7928,-29 585.7927,-32.5001 585.7928,-25.5001"/>
</g>
<!-- Node8&#45;&gt;Node5 -->
<g id="edge11" class="edge">
<title>Node8&#45;&gt;Node5</title>
<path fill="none" stroke="#191970" d="M256.8181,-16.5822C287.2741,-19.8515 322.4865,-23.6313 345.9864,-26.1539"/>
<polygon fill="#191970" stroke="#191970" points="257.0122,-13.083 246.6957,-15.4956 256.265,-20.043 257.0122,-13.083"/>
</g>
<!-- Node10 -->
<g id="node10" class="node">
<title>Node10</title>
<g id="a_node10"><a xlink:href="backend_8hpp_a8189df2ded0e8e6b64477a53f80d67e8.html#a8189df2ded0e8e6b64477a53f80d67e8" target="_top" xlink:title="Check if a an address is cached or node local. ">
<polygon fill="#ffffff" stroke="#000000" points="302.5,-188.5 302.5,-207.5 442.5,-207.5 442.5,-188.5 302.5,-188.5"/>
<text text-anchor="middle" x="372.5" y="-195.5" font-family="Helvetica,sans-Serif" font-size="10.00" fill="#000000">argo::backend::is_cached</text>
</a>
</g>
</g>
<!-- Node9&#45;&gt;Node10 -->
<g id="edge13" class="edge">
<title>Node9&#45;&gt;Node10</title>
<path fill="none" stroke="#191970" d="M240.9035,-195.7696C259.6061,-196.0865 281.7058,-196.4611 302.4009,-196.8119"/>
<polygon fill="#191970" stroke="#191970" points="240.9511,-192.27 230.8932,-195.5999 240.8324,-199.2689 240.9511,-192.27"/>
</g>
<!-- Node10&#45;&gt;Node3 -->
<g id="edge15" class="edge">
<title>Node10&#45;&gt;Node3</title>
<path fill="none" stroke="#191970" d="M423.0212,-185.6024C429.7996,-183.5854 436.6127,-181.3719 443,-179 468.8564,-169.3983 497.3532,-155.0018 515.0898,-145.5547"/>
<polygon fill="#191970" stroke="#191970" points="421.825,-182.304 413.1685,-188.4126 423.745,-189.0355 421.825,-182.304"/>
</g>
<!-- Node10&#45;&gt;Node10 -->
<g id="edge14" class="edge">
<title>Node10&#45;&gt;Node10</title>
<path fill="none" stroke="#191970" d="M342.5599,-216.2746C343.4135,-221.741 353.3936,-226 372.5,-226 400.9375,-226 409.1577,-216.5653 397.1606,-207.7571"/>
<polygon fill="#191970" stroke="#191970" points="345.5458,-218.1007 347.8394,-207.7571 339.596,-214.4128 345.5458,-218.1007"/>
</g>
</g>
</svg>
