<?xml version="1.0" encoding="UTF-8" standalone="no"?>
<!DOCTYPE svg PUBLIC "-//W3C//DTD SVG 1.1//EN"
 "http://www.w3.org/Graphics/SVG/1.1/DTD/svg11.dtd">
<!-- Generated by graphviz version 2.40.1 (20161225.0304)
 -->
<!-- Title: argo_get_global_base Pages: 1 -->
<svg width="317pt" height="46pt"
 viewBox="0.00 0.00 317.00 46.00" xmlns="http://www.w3.org/2000/svg" xmlns:xlink="http://www.w3.org/1999/xlink">
<g id="graph0" class="graph" transform="scale(1 1) rotate(0) translate(4 42)">
<title>argo_get_global_base</title>
<polygon fill="#ffffff" stroke="transparent" points="-4,4 -4,-42 313,-42 313,4 -4,4"/>
<!-- Node1 -->
<g id="node1" class="node">
<title>Node1</title>
<polygon fill="#bfbfbf" stroke="#000000" points="0,-.5 0,-19.5 123,-19.5 123,-.5 0,-.5"/>
<text text-anchor="middle" x="61.5" y="-7.5" font-family="Helvetica,sans-Serif" font-size="10.00" fill="#000000">argo_get_global_base</text>
</g>
<!-- Node2 -->
<g id="node2" class="node">
<title>Node2</title>
<g id="a_node2"><a xlink:href="backend_8hpp_accdb028da8b647703b9fbf91d1784066.html#accdb028da8b647703b9fbf91d1784066" target="_top" xlink:title="get base address of global memory ">
<polygon fill="#ffffff" stroke="#000000" points="159,-.5 159,-19.5 309,-19.5 309,-.5 159,-.5"/>
<text text-anchor="middle" x="234" y="-7.5" font-family="Helvetica,sans-Serif" font-size="10.00" fill="#000000">argo::backend::global_base</text>
</a>
</g>
</g>
<!-- Node1&#45;&gt;Node2 -->
<g id="edge1" class="edge">
<title>Node1&#45;&gt;Node2</title>
<path fill="none" stroke="#191970" d="M133.4021,-10C141.7866,-10 150.3572,-10 158.7849,-10"/>
<polygon fill="#191970" stroke="#191970" points="133.2893,-6.5001 123.2892,-10 133.2892,-13.5001 133.2893,-6.5001"/>
</g>
<!-- Node2&#45;&gt;Node2 -->
<g id="edge2" class="edge">
<title>Node2&#45;&gt;Node2</title>
<path fill="none" stroke="#191970" d="M201.8144,-28.2746C202.732,-33.741 213.4606,-38 234,-38 264.5703,-38 273.407,-28.5653 260.5102,-19.7571"/>
<polygon fill="#191970" stroke="#191970" points="204.8574,-30.0197 207.4898,-19.7571 199.0321,-26.1381 204.8574,-30.0197"/>
</g>
</g>
</svg>
