<?xml version="1.0" encoding="UTF-8" standalone="no"?>
<!DOCTYPE svg PUBLIC "-//W3C//DTD SVG 1.1//EN"
 "http://www.w3.org/Graphics/SVG/1.1/DTD/svg11.dtd">
<!-- Generated by graphviz version 2.40.1 (20161225.0304)
 -->
<!-- Title: argo_get_global_size Pages: 1 -->
<svg width="309pt" height="46pt"
 viewBox="0.00 0.00 309.00 46.00" xmlns="http://www.w3.org/2000/svg" xmlns:xlink="http://www.w3.org/1999/xlink">
<g id="graph0" class="graph" transform="scale(1 1) rotate(0) translate(4 42)">
<title>argo_get_global_size</title>
<polygon fill="#ffffff" stroke="transparent" points="-4,4 -4,-42 305,-42 305,4 -4,4"/>
<!-- Node1 -->
<g id="node1" class="node">
<title>Node1</title>
<polygon fill="#bfbfbf" stroke="#000000" points="0,-.5 0,-19.5 119,-19.5 119,-.5 0,-.5"/>
<text text-anchor="middle" x="59.5" y="-7.5" font-family="Helvetica,sans-Serif" font-size="10.00" fill="#000000">argo_get_global_size</text>
</g>
<!-- Node2 -->
<g id="node2" class="node">
<title>Node2</title>
<g id="a_node2"><a xlink:href="backend_8hpp_a0d87d94211c0eee4eea358b90f375ca6.html#a0d87d94211c0eee4eea358b90f375ca6" target="_top" xlink:title="get the total amount of global memory ">
<polygon fill="#ffffff" stroke="#000000" points="155,-.5 155,-19.5 301,-19.5 301,-.5 155,-.5"/>
<text text-anchor="middle" x="228" y="-7.5" font-family="Helvetica,sans-Serif" font-size="10.00" fill="#000000">argo::backend::global_size</text>
</a>
</g>
</g>
<!-- Node1&#45;&gt;Node2 -->
<g id="edge1" class="edge">
<title>Node1&#45;&gt;Node2</title>
<path fill="none" stroke="#191970" d="M129.4485,-10C137.7992,-10 146.343,-10 154.7386,-10"/>
<polygon fill="#191970" stroke="#191970" points="129.3813,-6.5001 119.3812,-10 129.3812,-13.5001 129.3813,-6.5001"/>
</g>
<!-- Node2&#45;&gt;Node2 -->
<g id="edge2" class="edge">
<title>Node2&#45;&gt;Node2</title>
<path fill="none" stroke="#191970" d="M196.5629,-28.2746C197.4592,-33.741 207.9382,-38 228,-38 257.8594,-38 266.4906,-28.5653 253.8937,-19.7571"/>
<polygon fill="#191970" stroke="#191970" points="199.585,-30.0475 202.1063,-19.7571 193.7181,-26.2291 199.585,-30.0475"/>
</g>
</g>
</svg>
