<?xml version="1.0" encoding="UTF-8" standalone="no"?>
<!DOCTYPE svg PUBLIC "-//W3C//DTD SVG 1.1//EN"
 "http://www.w3.org/Graphics/SVG/1.1/DTD/svg11.dtd">
<!-- Generated by graphviz version 2.40.1 (20161225.0304)
 -->
<!-- Title: argo_finalize Pages: 1 -->
<!--zoomable 309 -->
<svg id="main" version="1.1" xmlns="http://www.w3.org/2000/svg" xmlns:xlink="http://www.w3.org/1999/xlink" xml:space="preserve" onload="init(evt)">
<style type="text/css"><![CDATA[
.edge:hover path { stroke: red; }
.edge:hover polygon { stroke: red; fill: red; }
]]></style>
<script type="text/javascript"><![CDATA[
var edges = document.getElementsByTagName('g');
if (edges && edges.length) {
  for (var i=0;i<edges.length;i++) {
    if (edges[i].id.substr(0,4)=='edge') {
      edges[i].setAttribute('class','edge');
    }
  }
}
]]></script>
        <defs>
                <circle id="rim" cx="0" cy="0" r="7"/>
                <circle id="rim2" cx="0" cy="0" r="3.5"/>
                <g id="zoomPlus">
                        <use xlink:href="#rim" fill="#404040">
                                <set attributeName="fill" to="#808080" begin="zoomplus.mouseover" end="zoomplus.mouseout"/>
                        </use>
                        <path d="M-4,0h8M0,-4v8" fill="none" stroke="white" stroke-width="1.5" pointer-events="none"/>
                </g>
                <g id="zoomMin">
                        <use xlink:href="#rim" fill="#404040">
                                <set attributeName="fill" to="#808080" begin="zoomminus.mouseover" end="zoomminus.mouseout"/>
                        </use>
                        <path d="M-4,0h8" fill="none" stroke="white" stroke-width="1.5" pointer-events="none"/>
                </g>
                <g id="dirArrow">
                        <path fill="none" stroke="white" stroke-width="1.5" d="M0,-3.0v7 M-2.5,-0.5L0,-3.0L2.5,-0.5"/>
                </g>
               <g id="resetDef">
                       <use xlink:href="#rim2" fill="#404040">
                               <set attributeName="fill" to="#808080" begin="reset.mouseover" end="reset.mouseout"/>
                       </use>
               </g>
        </defs>

<script type="text/javascript">
var viewWidth = 1531;
var viewHeight = 309;
var sectionId = 'dynsection-0';
</script>
<script xlink:href="svgpan.js"/>
<svg id="graph" class="graph">
<g id="viewport">
<title>argo_finalize</title>
<polygon fill="#ffffff" stroke="transparent" points="-4,4 -4,-304.5 1527,-304.5 1527,4 -4,4"/>
<!-- Node0 -->
<g id="node1" class="node">
<title>Node0</title>
<polygon fill="#bfbfbf" stroke="#000000" points="0,-205 0,-224 79,-224 79,-205 0,-205"/>
<text text-anchor="middle" x="39.5" y="-212" font-family="Helvetica,sans-Serif" font-size="10.00" fill="#000000">argo_finalize</text>
</g>
<!-- Node1 -->
<g id="node2" class="node">
<title>Node1</title>
<g id="a_node2"><a xlink:href="namespaceargo_aa6f830b22d3f1b054609c5ffa40af4b6.html#aa6f830b22d3f1b054609c5ffa40af4b6" target="_top" xlink:title="shut down ArgoDSM system ">
<polygon fill="#ffffff" stroke="#000000" points="133,-281 133,-300 213,-300 213,-281 133,-281"/>
<text text-anchor="middle" x="173" y="-288" font-family="Helvetica,sans-Serif" font-size="10.00" fill="#000000">argo::finalize</text>
</a>
</g>
</g>
<!-- Node0&#45;&gt;Node1 -->
<g id="edge1" class="edge">
<title>Node0&#45;&gt;Node1</title>
<path fill="none" stroke="#191970" d="M51.8022,-224.1838C66.3326,-235.3289 91.5058,-253.7341 115,-266.5 122.0019,-270.3046 129.7361,-273.8939 137.2129,-277.0804"/>
<polygon fill="#191970" stroke="#191970" points="135.8916,-280.3215 146.4713,-280.8873 138.5536,-273.8474 135.8916,-280.3215"/>
</g>
<!-- Node2 -->
<g id="node3" class="node">
<title>Node2</title>
<g id="a_node3"><a xlink:href="swdsm_8cpp_ad3f5bdae81c60ac704dda7372792427d.html#ad3f5bdae81c60ac704dda7372792427d" target="_top" xlink:title="Global barrier for ArgoDSM &#45; needs to be called by every thread in the system that need coherent view...">
<polygon fill="#ffffff" stroke="#000000" points="115,-148 115,-167 231,-167 231,-148 115,-148"/>
<text text-anchor="middle" x="173" y="-155" font-family="Helvetica,sans-Serif" font-size="10.00" fill="#000000">swdsm_argo_barrier</text>
</a>
</g>
</g>
<!-- Node0&#45;&gt;Node2 -->
<g id="edge2" class="edge">
<title>Node0&#45;&gt;Node2</title>
<path fill="none" stroke="#191970" d="M61.8449,-204.9595C83.6003,-195.6706 116.8733,-181.4642 141.3482,-171.0143"/>
<polygon fill="#191970" stroke="#191970" points="142.7598,-174.2173 150.5822,-167.0716 140.011,-167.7795 142.7598,-174.2173"/>
</g>
<!-- Node14 -->
<g id="node15" class="node">
<title>Node14</title>
<g id="a_node15"><a xlink:href="namespaceargo_1_1data__distribution_a58576657391f45caf61bf0748a23b098.html#a58576657391f45caf61bf0748a23b098" target="_top" xlink:title="identifies if we distribute data using the first&#45;touch memory policy ">
<polygon fill="#ffffff" stroke="#000000" points="1244,-208.5 1244,-238.5 1371,-238.5 1371,-208.5 1244,-208.5"/>
<text text-anchor="start" x="1252" y="-226.5" font-family="Helvetica,sans-Serif" font-size="10.00" fill="#000000">argo::data_distribution</text>
<text text-anchor="middle" x="1307.5" y="-215.5" font-family="Helvetica,sans-Serif" font-size="10.00" fill="#000000">::is_first_touch_policy</text>
</a>
</g>
</g>
<!-- Node0&#45;&gt;Node14 -->
<g id="edge31" class="edge">
<title>Node0&#45;&gt;Node14</title>
<path fill="none" stroke="#191970" d="M79.0071,-222.652C136.657,-233.8176 247.3358,-252.5 342.5,-252.5 342.5,-252.5 342.5,-252.5 979.5,-252.5 1067.1801,-252.5 1167.5338,-242.0904 1233.9018,-233.7445"/>
<polygon fill="#191970" stroke="#191970" points="1234.3704,-237.2132 1243.8478,-232.4772 1233.4856,-230.2693 1234.3704,-237.2132"/>
</g>
<!-- Node24 -->
<g id="node25" class="node">
<title>Node24</title>
<g id="a_node25"><a xlink:href="swdsm_8cpp_af770e3f703653ddb0967b85d88881ab7.html#af770e3f703653ddb0967b85d88881ab7" target="_top" xlink:title="Gives the ArgoDSM node id for the local process. ">
<polygon fill="#ffffff" stroke="#000000" points="484.5,-192 484.5,-211 527.5,-211 527.5,-192 484.5,-192"/>
<text text-anchor="middle" x="506" y="-199" font-family="Helvetica,sans-Serif" font-size="10.00" fill="#000000">getID</text>
</a>
</g>
</g>
<!-- Node0&#45;&gt;Node24 -->
<g id="edge28" class="edge">
<title>Node0&#45;&gt;Node24</title>
<path fill="none" stroke="#191970" d="M79.2735,-213.3916C170.2511,-210.8563 392.0165,-204.6764 474.4545,-202.3791"/>
<polygon fill="#191970" stroke="#191970" points="474.5705,-205.8773 484.4691,-202.1 474.3755,-198.88 474.5705,-205.8773"/>
</g>
<!-- Node26 -->
<g id="node27" class="node">
<title>Node26</title>
<g id="a_node27"><a xlink:href="swdsm_8cpp_a08cfbea6d24819e4e6b063144a5e6b5e.html#a08cfbea6d24819e4e6b063144a5e6b5e" target="_top" xlink:title="Prints collected statistics. ">
<polygon fill="#ffffff" stroke="#000000" points="131,-72 131,-91 215,-91 215,-72 131,-72"/>
<text text-anchor="middle" x="173" y="-79" font-family="Helvetica,sans-Serif" font-size="10.00" fill="#000000">printStatistics</text>
</a>
</g>
</g>
<!-- Node0&#45;&gt;Node26 -->
<g id="edge29" class="edge">
<title>Node0&#45;&gt;Node26</title>
<path fill="none" stroke="#191970" d="M49.2358,-204.6244C63.5808,-190.0905 91.2642,-162.1081 115,-138.5 128.6635,-124.91 144.2459,-109.607 155.8162,-98.2815"/>
<polygon fill="#191970" stroke="#191970" points="158.4102,-100.6403 163.1126,-91.1462 153.5159,-95.6356 158.4102,-100.6403"/>
</g>
<!-- Node3 -->
<g id="node4" class="node">
<title>Node3</title>
<g id="a_node4"><a xlink:href="swdsm_8cpp_ac99d42ffcf7c78281cb3a6b286ce3a5e.html#ac99d42ffcf7c78281cb3a6b286ce3a5e" target="_top" xlink:title="Gives number of ArgoDSM nodes. ">
<polygon fill="#ffffff" stroke="#000000" points="295.5,-167 295.5,-186 389.5,-186 389.5,-167 295.5,-167"/>
<text text-anchor="middle" x="342.5" y="-174" font-family="Helvetica,sans-Serif" font-size="10.00" fill="#000000">argo_get_nodes</text>
</a>
</g>
</g>
<!-- Node2&#45;&gt;Node3 -->
<g id="edge3" class="edge">
<title>Node2&#45;&gt;Node3</title>
<path fill="none" stroke="#191970" d="M231.3323,-164.0387C248.7835,-165.9949 267.8951,-168.1372 285.2744,-170.0853"/>
<polygon fill="#191970" stroke="#191970" points="284.9536,-173.5712 295.2813,-171.207 285.7334,-166.6148 284.9536,-173.5712"/>
</g>
<!-- Node4 -->
<g id="node5" class="node">
<title>Node4</title>
<g id="a_node5"><a xlink:href="classwrite__buffer_aca2e330e17a38c1cc8d8c60701ce9dd7.html#aca2e330e17a38c1cc8d8c60701ce9dd7" target="_top" xlink:title="Flushes the ArgoDSM write buffer to memory. ">
<polygon fill="#ffffff" stroke="#000000" points="454,-95 454,-114 558,-114 558,-95 454,-95"/>
<text text-anchor="middle" x="506" y="-102" font-family="Helvetica,sans-Serif" font-size="10.00" fill="#000000">write_buffer::flush</text>
</a>
</g>
</g>
<!-- Node2&#45;&gt;Node4 -->
<g id="edge4" class="edge">
<title>Node2&#45;&gt;Node4</title>
<path fill="none" stroke="#191970" d="M191.5045,-147.9384C210.0564,-138.8582 239.7077,-125.7013 267,-119.5 325.8554,-106.127 394.8177,-103.0975 443.4969,-102.9807"/>
<polygon fill="#191970" stroke="#191970" points="443.56,-106.4807 453.5658,-102.9974 443.5716,-99.4808 443.56,-106.4807"/>
</g>
<!-- Node23 -->
<g id="node24" class="node">
<title>Node23</title>
<g id="a_node24"><a xlink:href="swdsm_8cpp_aa7c3a2de6bbafdaf68fe6ceb6110ab97.html#aa7c3a2de6bbafdaf68fe6ceb6110ab97" target="_top" xlink:title="Self&#45;Invalidates all memory that has potential writers. ">
<polygon fill="#ffffff" stroke="#000000" points="293.5,-129 293.5,-148 391.5,-148 391.5,-129 293.5,-129"/>
<text text-anchor="middle" x="342.5" y="-136" font-family="Helvetica,sans-Serif" font-size="10.00" fill="#000000">self_invalidation</text>
</a>
</g>
</g>
<!-- Node2&#45;&gt;Node23 -->
<g id="edge24" class="edge">
<title>Node2&#45;&gt;Node23</title>
<path fill="none" stroke="#191970" d="M231.3323,-150.9613C248.0653,-149.0856 266.3248,-147.0388 283.1201,-145.1562"/>
<polygon fill="#191970" stroke="#191970" points="283.8137,-148.6004 293.3615,-144.0081 283.0339,-141.644 283.8137,-148.6004"/>
</g>
<!-- Node5 -->
<g id="node6" class="node">
<title>Node5</title>
<g id="a_node6"><a xlink:href="classwrite__buffer_ab70cc0d6ca3591094aae489dbc3feaa5.html#ab70cc0d6ca3591094aae489dbc3feaa5" target="_top" xlink:title="Check if the write buffer is empty. ">
<polygon fill="#ffffff" stroke="#000000" points="603,-139 603,-158 716,-158 716,-139 603,-139"/>
<text text-anchor="middle" x="659.5" y="-146" font-family="Helvetica,sans-Serif" font-size="10.00" fill="#000000">write_buffer::empty</text>
</a>
</g>
</g>
<!-- Node4&#45;&gt;Node5 -->
<g id="edge5" class="edge">
<title>Node4&#45;&gt;Node5</title>
<path fill="none" stroke="#191970" d="M539.3072,-114.0473C561.9365,-120.5339 592.0786,-129.174 616.5163,-136.1789"/>
<polygon fill="#191970" stroke="#191970" points="615.6805,-139.5802 626.2578,-138.9713 617.6094,-132.8512 615.6805,-139.5802"/>
</g>
<!-- Node6 -->
<g id="node7" class="node">
<title>Node6</title>
<g id="a_node7"><a xlink:href="classwrite__buffer_aa2325346aceb3e7ffdbdbdc8e8682147.html#aa2325346aceb3e7ffdbdbdc8e8682147" target="_top" xlink:title="Sorts all elements by home node id in ascending order. ">
<polygon fill="#ffffff" stroke="#000000" points="609.5,-63 609.5,-82 709.5,-82 709.5,-63 609.5,-63"/>
<text text-anchor="middle" x="659.5" y="-70" font-family="Helvetica,sans-Serif" font-size="10.00" fill="#000000">write_buffer::sort</text>
</a>
</g>
</g>
<!-- Node4&#45;&gt;Node6 -->
<g id="edge6" class="edge">
<title>Node4&#45;&gt;Node6</title>
<path fill="none" stroke="#191970" d="M551.6395,-94.9856C568.0398,-91.5666 586.7215,-87.6721 603.8762,-84.0958"/>
<polygon fill="#191970" stroke="#191970" points="604.6961,-87.5002 613.7713,-82.033 603.2675,-80.6476 604.6961,-87.5002"/>
</g>
<!-- Node16 -->
<g id="node17" class="node">
<title>Node16</title>
<g id="a_node17"><a xlink:href="classwrite__buffer_ae065d3ee59035ad508eb8ce6670d2c89.html#ae065d3ee59035ad508eb8ce6670d2c89" target="_top" xlink:title="Removes the front element from the buffer and returns it. ">
<polygon fill="#ffffff" stroke="#000000" points="610,-101 610,-120 709,-120 709,-101 610,-101"/>
<text text-anchor="middle" x="659.5" y="-108" font-family="Helvetica,sans-Serif" font-size="10.00" fill="#000000">write_buffer::pop</text>
</a>
</g>
</g>
<!-- Node4&#45;&gt;Node16 -->
<g id="edge17" class="edge">
<title>Node4&#45;&gt;Node16</title>
<path fill="none" stroke="#191970" d="M558.3967,-106.5481C571.6849,-107.0675 586.0597,-107.6294 599.685,-108.162"/>
<polygon fill="#191970" stroke="#191970" points="599.7988,-111.669 609.9279,-108.5623 600.0723,-104.6743 599.7988,-111.669"/>
</g>
<!-- Node17 -->
<g id="node18" class="node">
<title>Node17</title>
<g id="a_node18"><a xlink:href="swdsm_8cpp_ae0f2d0961e80b2903b3f54c9e6c68658.html#ae0f2d0961e80b2903b3f54c9e6c68658" target="_top" xlink:title="stores a page remotely &#45; only writing back what has been written locally since last synchronization p...">
<polygon fill="#ffffff" stroke="#000000" points="616.5,-25 616.5,-44 702.5,-44 702.5,-25 616.5,-25"/>
<text text-anchor="middle" x="659.5" y="-32" font-family="Helvetica,sans-Serif" font-size="10.00" fill="#000000">storepageDIFF</text>
</a>
</g>
</g>
<!-- Node4&#45;&gt;Node17 -->
<g id="edge18" class="edge">
<title>Node4&#45;&gt;Node17</title>
<path fill="none" stroke="#191970" d="M520.0742,-94.8954C536.9969,-83.6955 566.5578,-65.225 594,-53.5 599.4406,-51.1754 605.2529,-49.0344 611.0843,-47.0939"/>
<polygon fill="#191970" stroke="#191970" points="612.3654,-50.3601 620.8542,-44.0204 610.2648,-43.6827 612.3654,-50.3601"/>
</g>
<!-- Node22 -->
<g id="node23" class="node">
<title>Node22</title>
<g id="a_node23"><a xlink:href="namespaceargo_a79c9492f3fd441bfa6261dffbc0f02f4.html#a79c9492f3fd441bfa6261dffbc0f02f4" target="_top" xlink:title="Number of ArgoDSM nodes being run. ">
<polygon fill="#ffffff" stroke="#000000" points="594,-177 594,-196 725,-196 725,-177 594,-177"/>
<text text-anchor="middle" x="659.5" y="-184" font-family="Helvetica,sans-Serif" font-size="10.00" fill="#000000">argo::number_of_nodes</text>
</a>
</g>
</g>
<!-- Node4&#45;&gt;Node22 -->
<g id="edge23" class="edge">
<title>Node4&#45;&gt;Node22</title>
<path fill="none" stroke="#191970" d="M538.3742,-114.0306C545.1908,-116.8191 552.0978,-120.2822 558,-124.5 578.2787,-138.9917 573.1249,-153.8814 594,-167.5 597.1609,-169.5621 600.5501,-171.4053 604.0618,-173.0521"/>
<polygon fill="#191970" stroke="#191970" points="602.9913,-176.3964 613.5708,-176.968 605.6569,-169.9237 602.9913,-176.3964"/>
</g>
<!-- Node7 -->
<g id="node8" class="node">
<title>Node7</title>
<g id="a_node8"><a xlink:href="namespaceargo_a48dc17c94275df10a8e7f3959cbf0191.html#a48dc17c94275df10a8e7f3959cbf0191" target="_top" xlink:title="Get the ArgoDSM node id where addr is physically backed. ">
<polygon fill="#ffffff" stroke="#000000" points="761,-130 761,-149 878,-149 878,-130 761,-130"/>
<text text-anchor="middle" x="819.5" y="-137" font-family="Helvetica,sans-Serif" font-size="10.00" fill="#000000">argo::get_homenode</text>
</a>
</g>
</g>
<!-- Node6&#45;&gt;Node7 -->
<g id="edge7" class="edge">
<title>Node6&#45;&gt;Node7</title>
<path fill="none" stroke="#191970" d="M696.9723,-82.0583C706.2471,-84.7812 716.0799,-87.9769 725,-91.5 749.158,-101.0414 775.4052,-114.6537 794.0933,-124.9471"/>
<polygon fill="#191970" stroke="#191970" points="792.4334,-128.0288 802.8715,-129.8444 795.8438,-121.9158 792.4334,-128.0288"/>
</g>
<!-- Node8 -->
<g id="node9" class="node">
<title>Node8</title>
<g id="a_node9"><a xlink:href="classargo_1_1data__distribution_1_1global__ptr_a3e2cdd4d323ef91174615e27ab94e342.html#a3e2cdd4d323ef91174615e27ab94e342" target="_top" xlink:title="return the home node of the value pointed to, or a default value if the page has not yet been first&#45;t...">
<polygon fill="#ffffff" stroke="#000000" points="914,-187.5 914,-217.5 1045,-217.5 1045,-187.5 914,-187.5"/>
<text text-anchor="start" x="922" y="-205.5" font-family="Helvetica,sans-Serif" font-size="10.00" fill="#000000">argo::data_distribution</text>
<text text-anchor="middle" x="979.5" y="-194.5" font-family="Helvetica,sans-Serif" font-size="10.00" fill="#000000">::global_ptr::peek_node</text>
</a>
</g>
</g>
<!-- Node7&#45;&gt;Node8 -->
<g id="edge8" class="edge">
<title>Node7&#45;&gt;Node8</title>
<path fill="none" stroke="#191970" d="M843.144,-149.1426C862.2311,-156.8942 889.7979,-168.0161 914,-177.5 919.1705,-179.5261 924.5785,-181.6241 929.9751,-183.704"/>
<polygon fill="#191970" stroke="#191970" points="929.0329,-187.0914 939.623,-187.4089 931.5423,-180.5566 929.0329,-187.0914"/>
</g>
<!-- Node9 -->
<g id="node10" class="node">
<title>Node9</title>
<g id="a_node10"><a xlink:href="namespaceargo_a2f35b6b6e0af76fb8fb47f2031d6f58e.html#a2f35b6b6e0af76fb8fb47f2031d6f58e" target="_top" xlink:title="Get the block size of the current allocation policy. ">
<polygon fill="#ffffff" stroke="#000000" points="921.5,-111 921.5,-130 1037.5,-130 1037.5,-111 921.5,-111"/>
<text text-anchor="middle" x="979.5" y="-118" font-family="Helvetica,sans-Serif" font-size="10.00" fill="#000000">argo::get_block_size</text>
</a>
</g>
</g>
<!-- Node7&#45;&gt;Node9 -->
<g id="edge9" class="edge">
<title>Node7&#45;&gt;Node9</title>
<path fill="none" stroke="#191970" d="M878.1696,-132.533C888.9585,-131.2518 900.3057,-129.9043 911.3452,-128.5934"/>
<polygon fill="#191970" stroke="#191970" points="911.8547,-132.0576 921.3722,-127.4027 911.0292,-125.1064 911.8547,-132.0576"/>
</g>
<!-- Node15 -->
<g id="node16" class="node">
<title>Node15</title>
<g id="a_node16"><a xlink:href="namespaceargo_a2b6b342c320b2a608d317a328fc46d83.html#a2b6b342c320b2a608d317a328fc46d83" target="_top" xlink:title="Size of memory which is the portion of memory owned by this node. ">
<polygon fill="#ffffff" stroke="#000000" points="930.5,-149 930.5,-168 1028.5,-168 1028.5,-149 930.5,-149"/>
<text text-anchor="middle" x="979.5" y="-156" font-family="Helvetica,sans-Serif" font-size="10.00" fill="#000000">argo::chunk_size</text>
</a>
</g>
</g>
<!-- Node7&#45;&gt;Node15 -->
<g id="edge16" class="edge">
<title>Node7&#45;&gt;Node15</title>
<path fill="none" stroke="#191970" d="M878.1696,-146.467C891.8152,-148.0874 906.3541,-149.8139 920.0338,-151.4384"/>
<polygon fill="#191970" stroke="#191970" points="919.9553,-154.9536 930.2983,-152.6573 920.7808,-148.0024 919.9553,-154.9536"/>
</g>
<!-- Node10 -->
<g id="node11" class="node">
<title>Node10</title>
<g id="a_node11"><a xlink:href="namespaceargo_1_1data__distribution_a2a70ed49553953957c3a28aa755d7ac8.html#a2a70ed49553953957c3a28aa755d7ac8" target="_top" xlink:title="based on the chosen policy, gets the policy block size ">
<polygon fill="#ffffff" stroke="#000000" points="1081,-134.5 1081,-164.5 1208,-164.5 1208,-134.5 1081,-134.5"/>
<text text-anchor="start" x="1089" y="-152.5" font-family="Helvetica,sans-Serif" font-size="10.00" fill="#000000">argo::data_distribution</text>
<text text-anchor="middle" x="1144.5" y="-141.5" font-family="Helvetica,sans-Serif" font-size="10.00" fill="#000000">::policy_block_size</text>
</a>
</g>
</g>
<!-- Node9&#45;&gt;Node10 -->
<g id="edge10" class="edge">
<title>Node9&#45;&gt;Node10</title>
<path fill="none" stroke="#191970" d="M1033.9845,-130.0761C1045.8354,-132.1589 1058.5615,-134.3957 1071.0107,-136.5837"/>
<polygon fill="#191970" stroke="#191970" points="1070.4583,-140.0402 1080.9132,-138.3241 1071.6701,-133.1459 1070.4583,-140.0402"/>
</g>
<!-- Node11 -->
<g id="node12" class="node">
<title>Node11</title>
<g id="a_node12"><a xlink:href="namespaceargo_1_1env_a30775a9aa41b956df7474a2c0cc317aa.html#a30775a9aa41b956df7474a2c0cc317aa" target="_top" xlink:title="get the allocation block size requested by environment variable ">
<polygon fill="#ffffff" stroke="#000000" points="1249.5,-159.5 1249.5,-189.5 1365.5,-189.5 1365.5,-159.5 1249.5,-159.5"/>
<text text-anchor="start" x="1257.5" y="-177.5" font-family="Helvetica,sans-Serif" font-size="10.00" fill="#000000">argo::env::allocation</text>
<text text-anchor="middle" x="1307.5" y="-166.5" font-family="Helvetica,sans-Serif" font-size="10.00" fill="#000000">_block_size</text>
</a>
</g>
</g>
<!-- Node10&#45;&gt;Node11 -->
<g id="edge11" class="edge">
<title>Node10&#45;&gt;Node11</title>
<path fill="none" stroke="#191970" d="M1208.4541,-159.3089C1218.5549,-160.8581 1229.0331,-162.4652 1239.2277,-164.0288"/>
<polygon fill="#191970" stroke="#191970" points="1238.8881,-167.5176 1249.3032,-165.5741 1239.9494,-160.5985 1238.8881,-167.5176"/>
</g>
<!-- Node12 -->
<g id="node13" class="node">
<title>Node12</title>
<g id="a_node13"><a xlink:href="namespaceargo_1_1data__distribution_a1bb3f2dcecd237990e6dc67764f06860.html#a1bb3f2dcecd237990e6dc67764f06860" target="_top" xlink:title="identifies if we distribute data using a cyclic memory policy ">
<polygon fill="#ffffff" stroke="#000000" points="1244,-110.5 1244,-140.5 1371,-140.5 1371,-110.5 1244,-110.5"/>
<text text-anchor="start" x="1252" y="-128.5" font-family="Helvetica,sans-Serif" font-size="10.00" fill="#000000">argo::data_distribution</text>
<text text-anchor="middle" x="1307.5" y="-117.5" font-family="Helvetica,sans-Serif" font-size="10.00" fill="#000000">::is_cyclic_policy</text>
</a>
</g>
</g>
<!-- Node10&#45;&gt;Node12 -->
<g id="edge12" class="edge">
<title>Node10&#45;&gt;Node12</title>
<path fill="none" stroke="#191970" d="M1208.4541,-140.0834C1216.8519,-138.847 1225.5106,-137.5721 1234.0503,-136.3147"/>
<polygon fill="#191970" stroke="#191970" points="1234.6142,-139.7695 1243.9977,-134.85 1233.5945,-132.8441 1234.6142,-139.7695"/>
</g>
<!-- Node10&#45;&gt;Node14 -->
<g id="edge14" class="edge">
<title>Node10&#45;&gt;Node14</title>
<path fill="none" stroke="#191970" d="M1172.4328,-164.5189C1192.173,-174.8892 1219.3924,-188.702 1244,-199.5 1248.0555,-201.2796 1252.2886,-203.0538 1256.5598,-204.786"/>
<polygon fill="#191970" stroke="#191970" points="1255.331,-208.0638 1265.917,-208.4965 1257.9113,-201.5567 1255.331,-208.0638"/>
</g>
<!-- Node13 -->
<g id="node14" class="node">
<title>Node13</title>
<g id="a_node14"><a xlink:href="namespaceargo_1_1env_a25a08cb2d0d11432d640ec7173063339.html#a25a08cb2d0d11432d640ec7173063339" target="_top" xlink:title="get the allocation policy requested by environment variable ">
<polygon fill="#ffffff" stroke="#000000" points="1407,-159.5 1407,-189.5 1523,-189.5 1523,-159.5 1407,-159.5"/>
<text text-anchor="start" x="1415" y="-177.5" font-family="Helvetica,sans-Serif" font-size="10.00" fill="#000000">argo::env::allocation</text>
<text text-anchor="middle" x="1465" y="-166.5" font-family="Helvetica,sans-Serif" font-size="10.00" fill="#000000">_policy</text>
</a>
</g>
</g>
<!-- Node12&#45;&gt;Node13 -->
<g id="edge13" class="edge">
<title>Node12&#45;&gt;Node13</title>
<path fill="none" stroke="#191970" d="M1356.0403,-140.6014C1372.1339,-145.6083 1390.2114,-151.2324 1406.9467,-156.439"/>
<polygon fill="#191970" stroke="#191970" points="1406.0316,-159.8197 1416.6199,-159.4484 1408.1111,-153.1357 1406.0316,-159.8197"/>
</g>
<!-- Node14&#45;&gt;Node13 -->
<g id="edge15" class="edge">
<title>Node14&#45;&gt;Node13</title>
<path fill="none" stroke="#191970" d="M1356.0403,-208.3986C1372.1339,-203.3917 1390.2114,-197.7676 1406.9467,-192.561"/>
<polygon fill="#191970" stroke="#191970" points="1408.1111,-195.8643 1416.6199,-189.5516 1406.0316,-189.1803 1408.1111,-195.8643"/>
</g>
<!-- Node18 -->
<g id="node19" class="node">
<title>Node18</title>
<g id="a_node19"><a xlink:href="swdsm_8cpp_a0edf823a78daed8888e8e18468460617.html#a0edf823a78daed8888e8e18468460617" target="_top" xlink:title="Gives homenode for a given address. ">
<polygon fill="#ffffff" stroke="#000000" points="775,-52 775,-71 864,-71 864,-52 775,-52"/>
<text text-anchor="middle" x="819.5" y="-59" font-family="Helvetica,sans-Serif" font-size="10.00" fill="#000000">get_homenode</text>
</a>
</g>
</g>
<!-- Node17&#45;&gt;Node18 -->
<g id="edge19" class="edge">
<title>Node17&#45;&gt;Node18</title>
<path fill="none" stroke="#191970" d="M702.7983,-41.8066C721.8788,-45.0264 744.5155,-48.8464 764.7506,-52.261"/>
<polygon fill="#191970" stroke="#191970" points="764.3294,-55.7394 774.7724,-53.9522 765.4942,-48.837 764.3294,-55.7394"/>
</g>
<!-- Node20 -->
<g id="node21" class="node">
<title>Node20</title>
<g id="a_node21"><a xlink:href="swdsm_8cpp_ab58b1f9fa1b59d3060f241994979e18f.html#ab58b1f9fa1b59d3060f241994979e18f" target="_top" xlink:title="Gets the offset of an address on the local nodes part of the global memory. ">
<polygon fill="#ffffff" stroke="#000000" points="787,-11 787,-30 852,-30 852,-11 787,-11"/>
<text text-anchor="middle" x="819.5" y="-18" font-family="Helvetica,sans-Serif" font-size="10.00" fill="#000000">get_offset</text>
</a>
</g>
</g>
<!-- Node17&#45;&gt;Node20 -->
<g id="edge21" class="edge">
<title>Node17&#45;&gt;Node20</title>
<path fill="none" stroke="#191970" d="M702.7983,-30.7114C725.7517,-28.703 753.8515,-26.2442 776.7258,-24.2427"/>
<polygon fill="#191970" stroke="#191970" points="777.1739,-27.717 786.8307,-23.3586 776.5636,-20.7436 777.1739,-27.717"/>
</g>
<!-- Node19 -->
<g id="node20" class="node">
<title>Node19</title>
<g id="a_node20"><a xlink:href="classargo_1_1data__distribution_1_1global__ptr_ac7d651586337d08cda18ef26ffcd34a0.html#ac7d651586337d08cda18ef26ffcd34a0" target="_top" xlink:title="return the home node of the value pointed to ">
<polygon fill="#ffffff" stroke="#000000" points="916,-49.5 916,-79.5 1043,-79.5 1043,-49.5 916,-49.5"/>
<text text-anchor="start" x="924" y="-67.5" font-family="Helvetica,sans-Serif" font-size="10.00" fill="#000000">argo::data_distribution</text>
<text text-anchor="middle" x="979.5" y="-56.5" font-family="Helvetica,sans-Serif" font-size="10.00" fill="#000000">::global_ptr::node</text>
</a>
</g>
</g>
<!-- Node18&#45;&gt;Node19 -->
<g id="edge20" class="edge">
<title>Node18&#45;&gt;Node19</title>
<path fill="none" stroke="#191970" d="M864.0689,-62.3357C876.9412,-62.577 891.3472,-62.8471 905.5013,-63.1125"/>
<polygon fill="#191970" stroke="#191970" points="905.6737,-66.6163 915.7375,-63.3045 905.8049,-59.6175 905.6737,-66.6163"/>
</g>
<!-- Node21 -->
<g id="node22" class="node">
<title>Node21</title>
<g id="a_node22"><a xlink:href="classargo_1_1data__distribution_1_1global__ptr_ad8c21c408fa2b926cfd9acfd87e8e4e6.html#ad8c21c408fa2b926cfd9acfd87e8e4e6" target="_top" xlink:title="return the offset on the home node&#39;s local memory share ">
<polygon fill="#ffffff" stroke="#000000" points="916,-.5 916,-30.5 1043,-30.5 1043,-.5 916,-.5"/>
<text text-anchor="start" x="924" y="-18.5" font-family="Helvetica,sans-Serif" font-size="10.00" fill="#000000">argo::data_distribution</text>
<text text-anchor="middle" x="979.5" y="-7.5" font-family="Helvetica,sans-Serif" font-size="10.00" fill="#000000">::global_ptr::offset</text>
</a>
</g>
</g>
<!-- Node20&#45;&gt;Node21 -->
<g id="edge22" class="edge">
<title>Node20&#45;&gt;Node21</title>
<path fill="none" stroke="#191970" d="M852.2645,-19.4761C867.764,-18.9917 886.9491,-18.3922 905.6797,-17.8069"/>
<polygon fill="#191970" stroke="#191970" points="905.8248,-21.3042 915.7106,-17.4934 905.6061,-14.3076 905.8248,-21.3042"/>
</g>
<!-- Node23&#45;&gt;Node4 -->
<g id="edge27" class="edge">
<title>Node23&#45;&gt;Node4</title>
<path fill="none" stroke="#191970" d="M388.479,-128.9386C407.6287,-124.9564 430.0403,-120.2959 450.1278,-116.1187"/>
<polygon fill="#191970" stroke="#191970" points="451.0052,-119.5112 460.0831,-114.0485 449.58,-112.6578 451.0052,-119.5112"/>
</g>
<!-- Node23&#45;&gt;Node24 -->
<g id="edge25" class="edge">
<title>Node23&#45;&gt;Node24</title>
<path fill="none" stroke="#191970" d="M387.3049,-148.07C397.5232,-150.7209 408.2417,-153.8815 418,-157.5 429.9281,-161.923 457.7689,-176.0957 478.9659,-187.1747"/>
<polygon fill="#191970" stroke="#191970" points="477.3858,-190.2981 487.8666,-191.8482 480.64,-184.1005 477.3858,-190.2981"/>
</g>
<!-- Node25 -->
<g id="node26" class="node">
<title>Node25</title>
<g id="a_node26"><a xlink:href="swdsm_8cpp_adfcbbdedcad0833d49e3111447061689.html#adfcbbdedcad0833d49e3111447061689" target="_top" xlink:title="Gives an index to the sharer/writer vector depending on the address. ">
<polygon fill="#ffffff" stroke="#000000" points="455.5,-133.5 455.5,-163.5 556.5,-163.5 556.5,-133.5 455.5,-133.5"/>
<text text-anchor="start" x="463.5" y="-151.5" font-family="Helvetica,sans-Serif" font-size="10.00" fill="#000000">get_classification</text>
<text text-anchor="middle" x="506" y="-140.5" font-family="Helvetica,sans-Serif" font-size="10.00" fill="#000000">_index</text>
</a>
</g>
</g>
<!-- Node23&#45;&gt;Node25 -->
<g id="edge26" class="edge">
<title>Node23&#45;&gt;Node25</title>
<path fill="none" stroke="#191970" d="M391.5554,-141.5003C408.3823,-142.5295 427.4218,-143.694 445.0735,-144.7736"/>
<polygon fill="#191970" stroke="#191970" points="445.084,-148.2807 455.2791,-145.3978 445.5114,-141.2938 445.084,-148.2807"/>
</g>
<!-- Node27 -->
<g id="node28" class="node">
<title>Node27</title>
<g id="a_node28"><a xlink:href="namespaceargo_1_1env_a5b409fb87255b7e434bf833ab8598113.html#a5b409fb87255b7e434bf833ab8598113" target="_top" xlink:title="get the write buffer size requested by environment variable ">
<polygon fill="#ffffff" stroke="#000000" points="267,-53 267,-72 418,-72 418,-53 267,-53"/>
<text text-anchor="middle" x="342.5" y="-60" font-family="Helvetica,sans-Serif" font-size="10.00" fill="#000000">argo::env::write_buffer_size</text>
</a>
</g>
</g>
<!-- Node26&#45;&gt;Node27 -->
<g id="edge30" class="edge">
<title>Node26&#45;&gt;Node27</title>
<path fill="none" stroke="#191970" d="M215.3348,-76.7545C228.0024,-75.3345 242.3734,-73.7236 256.7818,-72.1085"/>
<polygon fill="#191970" stroke="#191970" points="257.1944,-75.5843 266.7423,-70.992 256.4146,-68.6279 257.1944,-75.5843"/>
</g>
</g>
</svg>
        <g id="navigator" transform="translate(0 0)" fill="#404254">
                <rect fill="#f2f5e9" fill-opacity="0.5" stroke="#606060" stroke-width=".5" x="0" y="0" width="60" height="60"/>
                <use id="zoomplus" xlink:href="#zoomPlus" x="17" y="9" onmousedown="handleZoom(evt,'in')"/>
                <use id="zoomminus" xlink:href="#zoomMin" x="42" y="9" onmousedown="handleZoom(evt,'out')"/>
                <use id="reset" xlink:href="#resetDef" x="30" y="36" onmousedown="handleReset()"/>
                <g id="arrowUp" xlink:href="#dirArrow" transform="translate(30 24)" onmousedown="handlePan(0,-1)">
                  <use xlink:href="#rim" fill="#404040">
                        <set attributeName="fill" to="#808080" begin="arrowUp.mouseover" end="arrowUp.mouseout"/>
                  </use>
                  <path fill="none" stroke="white" stroke-width="1.5" d="M0,-3.0v7 M-2.5,-0.5L0,-3.0L2.5,-0.5"/>
                </g>
                <g id="arrowRight" xlink:href="#dirArrow" transform="rotate(90) translate(36 -43)" onmousedown="handlePan(1,0)">
                  <use xlink:href="#rim" fill="#404040">
                        <set attributeName="fill" to="#808080" begin="arrowRight.mouseover" end="arrowRight.mouseout"/>
                  </use>
                  <path fill="none" stroke="white" stroke-width="1.5" d="M0,-3.0v7 M-2.5,-0.5L0,-3.0L2.5,-0.5"/>
                </g>
                <g id="arrowDown" xlink:href="#dirArrow" transform="rotate(180) translate(-30 -48)" onmousedown="handlePan(0,1)">
                  <use xlink:href="#rim" fill="#404040">
                        <set attributeName="fill" to="#808080" begin="arrowDown.mouseover" end="arrowDown.mouseout"/>
                  </use>
                  <path fill="none" stroke="white" stroke-width="1.5" d="M0,-3.0v7 M-2.5,-0.5L0,-3.0L2.5,-0.5"/>
                </g>
                <g id="arrowLeft" xlink:href="#dirArrow" transform="rotate(270) translate(-36 17)" onmousedown="handlePan(-1,0)">
                  <use xlink:href="#rim" fill="#404040">
                        <set attributeName="fill" to="#808080" begin="arrowLeft.mouseover" end="arrowLeft.mouseout"/>
                  </use>
                  <path fill="none" stroke="white" stroke-width="1.5" d="M0,-3.0v7 M-2.5,-0.5L0,-3.0L2.5,-0.5"/>
                </g>
        </g>
        <svg viewBox="0 0 15 15" width="100%" height="30px" preserveAspectRatio="xMaxYMin meet">
         <g id="arrow_out" transform="scale(0.3 0.3)">
          <a xlink:href="swdsm_8h_aa954d5e0bcaee69ff6e03e697bcaf68b_aa954d5e0bcaee69ff6e03e697bcaf68b_cgraph_org.svg" target="_base">
           <rect id="button" ry="5" rx="5" y="6" x="6" height="38" width="38"
                fill="#f2f5e9" fill-opacity="0.5" stroke="#606060" stroke-width="1.0"/>
           <path id="arrow"
             d="M 11.500037,31.436501 C 11.940474,20.09759 22.043105,11.32322 32.158766,21.979434 L 37.068811,17.246167 C 37.068811,17.246167 37.088388,32 37.088388,32 L 22.160133,31.978069 C 22.160133,31.978069 26.997745,27.140456 26.997745,27.140456 C 18.528582,18.264221 13.291696,25.230495 11.500037,31.436501 z"
             style="fill:#404040;"/>
          </a>
         </g>
        </svg>
</svg>
