<?xml version="1.0" encoding="UTF-8" standalone="no"?>
<!DOCTYPE svg PUBLIC "-//W3C//DTD SVG 1.1//EN"
 "http://www.w3.org/Graphics/SVG/1.1/DTD/svg11.dtd">
<!-- Generated by graphviz version 2.40.1 (20161225.0304)
 -->
<!-- Title: getID Pages: 1 -->
<!--zoomable 302 -->
<svg id="main" version="1.1" xmlns="http://www.w3.org/2000/svg" xmlns:xlink="http://www.w3.org/1999/xlink" xml:space="preserve" onload="init(evt)">
<style type="text/css"><![CDATA[
.edge:hover path { stroke: red; }
.edge:hover polygon { stroke: red; fill: red; }
]]></style>
<script type="text/javascript"><![CDATA[
var edges = document.getElementsByTagName('g');
if (edges && edges.length) {
  for (var i=0;i<edges.length;i++) {
    if (edges[i].id.substr(0,4)=='edge') {
      edges[i].setAttribute('class','edge');
    }
  }
}
]]></script>
        <defs>
                <circle id="rim" cx="0" cy="0" r="7"/>
                <circle id="rim2" cx="0" cy="0" r="3.5"/>
                <g id="zoomPlus">
                        <use xlink:href="#rim" fill="#404040">
                                <set attributeName="fill" to="#808080" begin="zoomplus.mouseover" end="zoomplus.mouseout"/>
                        </use>
                        <path d="M-4,0h8M0,-4v8" fill="none" stroke="white" stroke-width="1.5" pointer-events="none"/>
                </g>
                <g id="zoomMin">
                        <use xlink:href="#rim" fill="#404040">
                                <set attributeName="fill" to="#808080" begin="zoomminus.mouseover" end="zoomminus.mouseout"/>
                        </use>
                        <path d="M-4,0h8" fill="none" stroke="white" stroke-width="1.5" pointer-events="none"/>
                </g>
                <g id="dirArrow">
                        <path fill="none" stroke="white" stroke-width="1.5" d="M0,-3.0v7 M-2.5,-0.5L0,-3.0L2.5,-0.5"/>
                </g>
               <g id="resetDef">
                       <use xlink:href="#rim2" fill="#404040">
                               <set attributeName="fill" to="#808080" begin="reset.mouseover" end="reset.mouseout"/>
                       </use>
               </g>
        </defs>

<script type="text/javascript">
var viewWidth = 826;
var viewHeight = 302;
var sectionId = 'dynsection-0';
</script>
<script xlink:href="svgpan.js"/>
<svg id="graph" class="graph">
<g id="viewport">
<title>getID</title>
<polygon fill="#ffffff" stroke="transparent" points="-4,4 -4,-298 822,-298 822,4 -4,4"/>
<!-- Node1 -->
<g id="node1" class="node">
<title>Node1</title>
<polygon fill="#bfbfbf" stroke="#000000" points="0,-179.5 0,-198.5 43,-198.5 43,-179.5 0,-179.5"/>
<text text-anchor="middle" x="21.5" y="-186.5" font-family="Helvetica,sans-Serif" font-size="10.00" fill="#000000">getID</text>
</g>
<!-- Node2 -->
<g id="node2" class="node">
<title>Node2</title>
<g id="a_node2"><a xlink:href="swdsm_8h_af5e5261e94a9a41be200cec36e369927.html#af5e5261e94a9a41be200cec36e369927" target="_top" xlink:title="Gives out a global thread ID for a local thread assuming NUM_THREADS per node. ">
<polygon fill="#ffffff" stroke="#000000" points="79,-274.5 79,-293.5 192,-293.5 192,-274.5 79,-274.5"/>
<text text-anchor="middle" x="135.5" y="-281.5" font-family="Helvetica,sans-Serif" font-size="10.00" fill="#000000">argo_get_global_tid</text>
</a>
</g>
</g>
<!-- Node1&#45;&gt;Node2 -->
<g id="edge1" class="edge">
<title>Node1&#45;&gt;Node2</title>
<path fill="none" stroke="#191970" d="M32.6496,-207.3313C43.0034,-223.0689 59.6991,-245.4525 79,-260 86.9149,-265.9656 96.5356,-270.7642 105.5782,-274.4564"/>
<polygon fill="#191970" stroke="#191970" points="35.3706,-205.0871 27.0558,-198.5208 29.461,-208.8391 35.3706,-205.0871"/>
</g>
<!-- Node3 -->
<g id="node3" class="node">
<title>Node3</title>
<g id="a_node3"><a xlink:href="swdsm_8h_a8b00f264b792522b179fbc9c818187bd.html#a8b00f264b792522b179fbc9c818187bd" target="_top" xlink:title="Catches memory accesses to memory not yet cached in ArgoDSM. Launches remote requests for memory not ...">
<polygon fill="#ffffff" stroke="#000000" points="271.5,-236.5 271.5,-255.5 324.5,-255.5 324.5,-236.5 271.5,-236.5"/>
<text text-anchor="middle" x="298" y="-243.5" font-family="Helvetica,sans-Serif" font-size="10.00" fill="#000000">handler</text>
</a>
</g>
</g>
<!-- Node1&#45;&gt;Node3 -->
<g id="edge2" class="edge">
<title>Node1&#45;&gt;Node3</title>
<path fill="none" stroke="#191970" d="M40.5667,-205.1063C51.1866,-213.1324 65.0522,-222.1404 79,-227 145.1314,-250.041 228.9789,-249.8127 271.1667,-247.8354"/>
<polygon fill="#191970" stroke="#191970" points="42.4929,-202.1674 32.4788,-198.708 38.1499,-207.6572 42.4929,-202.1674"/>
</g>
<!-- Node6 -->
<g id="node6" class="node">
<title>Node6</title>
<g id="a_node6"><a xlink:href="swdsm_8cpp_a97adb774a1a5a7a3505416a171c570e9.html#a97adb774a1a5a7a3505416a171c570e9" target="_top" xlink:title="load into cache helper function ">
<polygon fill="#ffffff" stroke="#000000" points="84.5,-198.5 84.5,-217.5 186.5,-217.5 186.5,-198.5 84.5,-198.5"/>
<text text-anchor="middle" x="135.5" y="-205.5" font-family="Helvetica,sans-Serif" font-size="10.00" fill="#000000">load_cache_entry</text>
</a>
</g>
</g>
<!-- Node1&#45;&gt;Node6 -->
<g id="edge5" class="edge">
<title>Node1&#45;&gt;Node6</title>
<path fill="none" stroke="#191970" d="M53.0914,-194.2652C62.6991,-195.8665 73.5177,-197.6696 84.0785,-199.4297"/>
<polygon fill="#191970" stroke="#191970" points="53.6502,-190.8102 43.2109,-192.6185 52.4994,-197.7149 53.6502,-190.8102"/>
</g>
<!-- Node7 -->
<g id="node7" class="node">
<title>Node7</title>
<g id="a_node7"><a xlink:href="swdsm_8cpp_aa954d5e0bcaee69ff6e03e697bcaf68b.html#aa954d5e0bcaee69ff6e03e697bcaf68b" target="_top" xlink:title="shut down ArgoDSM system ">
<polygon fill="#ffffff" stroke="#000000" points="428.5,-122.5 428.5,-141.5 507.5,-141.5 507.5,-122.5 428.5,-122.5"/>
<text text-anchor="middle" x="468" y="-129.5" font-family="Helvetica,sans-Serif" font-size="10.00" fill="#000000">argo_finalize</text>
</a>
</g>
</g>
<!-- Node1&#45;&gt;Node7 -->
<g id="edge7" class="edge">
<title>Node1&#45;&gt;Node7</title>
<path fill="none" stroke="#191970" d="M40.094,-172.988C50.7431,-164.8227 64.7854,-155.6537 79,-151 201.253,-110.9757 356.6398,-119.9471 428.3933,-127.1956"/>
<polygon fill="#191970" stroke="#191970" points="37.6124,-170.4925 32.0175,-179.4896 42.0019,-175.9453 37.6124,-170.4925"/>
</g>
<!-- Node9 -->
<g id="node9" class="node">
<title>Node9</title>
<g id="a_node9"><a xlink:href="swdsm_8h_aa7c3a2de6bbafdaf68fe6ceb6110ab97.html#aa7c3a2de6bbafdaf68fe6ceb6110ab97" target="_top" xlink:title="Self&#45;Invalidates all memory that has potential writers. ">
<polygon fill="#ffffff" stroke="#000000" points="86.5,-160.5 86.5,-179.5 184.5,-179.5 184.5,-160.5 86.5,-160.5"/>
<text text-anchor="middle" x="135.5" y="-167.5" font-family="Helvetica,sans-Serif" font-size="10.00" fill="#000000">self_invalidation</text>
</a>
</g>
</g>
<!-- Node1&#45;&gt;Node9 -->
<g id="edge9" class="edge">
<title>Node1&#45;&gt;Node9</title>
<path fill="none" stroke="#191970" d="M53.3473,-183.6921C63.6194,-181.9801 75.2547,-180.0409 86.4702,-178.1716"/>
<polygon fill="#191970" stroke="#191970" points="52.4994,-180.2851 43.2109,-185.3815 53.6502,-187.1898 52.4994,-180.2851"/>
</g>
<!-- Node18 -->
<g id="node18" class="node">
<title>Node18</title>
<g id="a_node18"><a xlink:href="swdsm_8h_a1696e0fe6cc8d073536dbce9b6fb8b1b.html#a1696e0fe6cc8d073536dbce9b6fb8b1b" target="_top" xlink:title="Check whether a page is either cached on the node or locally backed. ">
<polygon fill="#ffffff" stroke="#000000" points="100.5,-37.5 100.5,-56.5 170.5,-56.5 170.5,-37.5 100.5,-37.5"/>
<text text-anchor="middle" x="135.5" y="-44.5" font-family="Helvetica,sans-Serif" font-size="10.00" fill="#000000">_is_cached</text>
</a>
</g>
</g>
<!-- Node1&#45;&gt;Node18 -->
<g id="edge21" class="edge">
<title>Node1&#45;&gt;Node18</title>
<path fill="none" stroke="#191970" d="M35.7625,-171.2345C60.0367,-140.9981 108.5976,-80.51 127.6095,-56.8285"/>
<polygon fill="#191970" stroke="#191970" points="32.8668,-169.2507 29.3357,-179.2398 38.3253,-173.6329 32.8668,-169.2507"/>
</g>
<!-- Node4 -->
<g id="node4" class="node">
<title>Node4</title>
<g id="a_node4"><a xlink:href="swdsm_8h_a10dca85d339ce630cf42dca685b3f6d9.html#a10dca85d339ce630cf42dca685b3f6d9" target="_top" xlink:title="Initializes ArgoDSM runtime. ">
<polygon fill="#ffffff" stroke="#000000" points="578.5,-255.5 578.5,-274.5 664.5,-274.5 664.5,-255.5 578.5,-255.5"/>
<text text-anchor="middle" x="621.5" y="-262.5" font-family="Helvetica,sans-Serif" font-size="10.00" fill="#000000">argo_initialize</text>
</a>
</g>
</g>
<!-- Node3&#45;&gt;Node4 -->
<g id="edge3" class="edge">
<title>Node3&#45;&gt;Node4</title>
<path fill="none" stroke="#191970" d="M334.6258,-254.2181C354.9457,-258.3592 380.7407,-262.9319 404,-265 464.3673,-270.3675 534.5324,-269.0047 578.4813,-267.2409"/>
<polygon fill="#191970" stroke="#191970" points="335.3389,-250.7916 324.8342,-252.1703 333.9059,-257.6433 335.3389,-250.7916"/>
</g>
<!-- Node5 -->
<g id="node5" class="node">
<title>Node5</title>
<g id="a_node5"><a xlink:href="backend_8hpp_af0d80a03a17a374c10d9635ddf81e261.html#af0d80a03a17a374c10d9635ddf81e261" target="_top" xlink:title="initialize backend ">
<polygon fill="#ffffff" stroke="#000000" points="711,-255.5 711,-274.5 818,-274.5 818,-255.5 711,-255.5"/>
<text text-anchor="middle" x="764.5" y="-262.5" font-family="Helvetica,sans-Serif" font-size="10.00" fill="#000000">argo::backend::init</text>
</a>
</g>
</g>
<!-- Node4&#45;&gt;Node5 -->
<g id="edge4" class="edge">
<title>Node4&#45;&gt;Node5</title>
<path fill="none" stroke="#191970" d="M674.933,-265C686.7171,-265 699.2019,-265 710.9891,-265"/>
<polygon fill="#191970" stroke="#191970" points="674.7928,-261.5001 664.7928,-265 674.7927,-268.5001 674.7928,-261.5001"/>
</g>
<!-- Node6&#45;&gt;Node3 -->
<g id="edge6" class="edge">
<title>Node6&#45;&gt;Node3</title>
<path fill="none" stroke="#191970" d="M186.5689,-219.9423C214.6547,-226.51 248.3489,-234.3893 271.2802,-239.7517"/>
<polygon fill="#191970" stroke="#191970" points="187.0399,-216.4581 176.5056,-217.589 185.4459,-223.2742 187.0399,-216.4581"/>
</g>
<!-- Node8 -->
<g id="node8" class="node">
<title>Node8</title>
<g id="a_node8"><a xlink:href="swdsm_8h_a18cc89a7368e30281ea4b1d214a1b1ff.html#a18cc89a7368e30281ea4b1d214a1b1ff" target="_top" xlink:title="Pins and registers the local thread. ">
<polygon fill="#ffffff" stroke="#000000" points="571,-122.5 571,-141.5 672,-141.5 672,-122.5 571,-122.5"/>
<text text-anchor="middle" x="621.5" y="-129.5" font-family="Helvetica,sans-Serif" font-size="10.00" fill="#000000">argo_pin_threads</text>
</a>
</g>
</g>
<!-- Node7&#45;&gt;Node8 -->
<g id="edge8" class="edge">
<title>Node7&#45;&gt;Node8</title>
<path fill="none" stroke="#191970" d="M517.8002,-132C534.7693,-132 553.7517,-132 570.7913,-132"/>
<polygon fill="#191970" stroke="#191970" points="517.5301,-128.5001 507.5301,-132 517.53,-135.5001 517.5301,-128.5001"/>
</g>
<!-- Node10 -->
<g id="node10" class="node">
<title>Node10</title>
<g id="a_node10"><a xlink:href="swdsm_8h_ad3f5bdae81c60ac704dda7372792427d.html#ad3f5bdae81c60ac704dda7372792427d" target="_top" xlink:title="Global barrier for ArgoDSM &#45; needs to be called by every thread in the system that need coherent view...">
<polygon fill="#ffffff" stroke="#000000" points="240,-160.5 240,-179.5 356,-179.5 356,-160.5 240,-160.5"/>
<text text-anchor="middle" x="298" y="-167.5" font-family="Helvetica,sans-Serif" font-size="10.00" fill="#000000">swdsm_argo_barrier</text>
</a>
</g>
</g>
<!-- Node9&#45;&gt;Node10 -->
<g id="edge10" class="edge">
<title>Node9&#45;&gt;Node10</title>
<path fill="none" stroke="#191970" d="M195.1139,-170C209.7051,-170 225.3003,-170 239.8232,-170"/>
<polygon fill="#191970" stroke="#191970" points="194.6964,-166.5001 184.6963,-170 194.6963,-173.5001 194.6964,-166.5001"/>
</g>
<!-- Node14 -->
<g id="node14" class="node">
<title>Node14</title>
<g id="a_node14"><a xlink:href="swdsm_8h_a44b8bb7a3c8b47b4f9552c8e10b25e4b.html#a44b8bb7a3c8b47b4f9552c8e10b25e4b" target="_top" xlink:title="acquire function for ArgoDSM (Acquire according to Release Consistency) ">
<polygon fill="#ffffff" stroke="#000000" points="258,-66.5 258,-85.5 338,-85.5 338,-66.5 258,-66.5"/>
<text text-anchor="middle" x="298" y="-73.5" font-family="Helvetica,sans-Serif" font-size="10.00" fill="#000000">argo_acquire</text>
</a>
</g>
</g>
<!-- Node9&#45;&gt;Node14 -->
<g id="edge16" class="edge">
<title>Node9&#45;&gt;Node14</title>
<path fill="none" stroke="#191970" d="M160.758,-155.3892C194.4019,-135.9275 252.9811,-102.0417 281.4808,-85.5557"/>
<polygon fill="#191970" stroke="#191970" points="158.8792,-152.4326 151.9756,-160.4695 162.3843,-158.4919 158.8792,-152.4326"/>
</g>
<!-- Node10&#45;&gt;Node7 -->
<g id="edge13" class="edge">
<title>Node10&#45;&gt;Node7</title>
<path fill="none" stroke="#191970" d="M350.9554,-158.1629C375.9514,-152.5756 405.2785,-146.0201 428.3236,-140.8688"/>
<polygon fill="#191970" stroke="#191970" points="349.8938,-154.8138 340.8982,-160.411 351.4209,-161.6452 349.8938,-154.8138"/>
</g>
<!-- Node11 -->
<g id="node11" class="node">
<title>Node11</title>
<g id="a_node11"><a xlink:href="backend_8hpp_af1a647431651556204709451bebb5a42.html#af1a647431651556204709451bebb5a42" target="_top" xlink:title="a simple collective barrier ">
<polygon fill="#ffffff" stroke="#000000" points="406,-198.5 406,-217.5 530,-217.5 530,-198.5 406,-198.5"/>
<text text-anchor="middle" x="468" y="-205.5" font-family="Helvetica,sans-Serif" font-size="10.00" fill="#000000">argo::backend::barrier</text>
</a>
</g>
</g>
<!-- Node10&#45;&gt;Node11 -->
<g id="edge11" class="edge">
<title>Node10&#45;&gt;Node11</title>
<path fill="none" stroke="#191970" d="M350.8981,-181.8243C374.865,-187.1816 402.8235,-193.4311 425.4103,-198.4799"/>
<polygon fill="#191970" stroke="#191970" points="351.4209,-178.3548 340.8982,-179.589 349.8938,-185.1862 351.4209,-178.3548"/>
</g>
<!-- Node12 -->
<g id="node12" class="node">
<title>Node12</title>
<g id="a_node12"><a xlink:href="swdsm_8h_acd175d6d8efa5cce6963bae64891a490.html#acd175d6d8efa5cce6963bae64891a490" target="_top" xlink:title="Allocates memory in global address space. ">
<polygon fill="#ffffff" stroke="#000000" points="426.5,-160.5 426.5,-179.5 509.5,-179.5 509.5,-160.5 426.5,-160.5"/>
<text text-anchor="middle" x="468" y="-167.5" font-family="Helvetica,sans-Serif" font-size="10.00" fill="#000000">argo_gmalloc</text>
</a>
</g>
</g>
<!-- Node10&#45;&gt;Node12 -->
<g id="edge12" class="edge">
<title>Node10&#45;&gt;Node12</title>
<path fill="none" stroke="#191970" d="M366.2002,-170C386.5405,-170 408.2176,-170 426.3181,-170"/>
<polygon fill="#191970" stroke="#191970" points="366.0289,-166.5001 356.0289,-170 366.0288,-173.5001 366.0289,-166.5001"/>
</g>
<!-- Node13 -->
<g id="node13" class="node">
<title>Node13</title>
<g id="a_node13"><a xlink:href="swdsm_8h_a0c6b51af2b87ddf7eb04aa7d4e0e836e.html#a0c6b51af2b87ddf7eb04aa7d4e0e836e" target="_top" xlink:title="Resets current coherence. Collective function called by all threads on all nodes. ...">
<polygon fill="#ffffff" stroke="#000000" points="406,-236.5 406,-255.5 530,-255.5 530,-236.5 406,-236.5"/>
<text text-anchor="middle" x="468" y="-243.5" font-family="Helvetica,sans-Serif" font-size="10.00" fill="#000000">argo_reset_coherence</text>
</a>
</g>
</g>
<!-- Node10&#45;&gt;Node13 -->
<g id="edge14" class="edge">
<title>Node10&#45;&gt;Node13</title>
<path fill="none" stroke="#191970" d="M321.9089,-184.6916C342.9534,-197.1718 374.7198,-214.9306 404,-227 412.5726,-230.5337 422.0373,-233.7143 430.9994,-236.4174"/>
<polygon fill="#191970" stroke="#191970" points="323.689,-181.678 313.3135,-179.5334 320.087,-187.6802 323.689,-181.678"/>
</g>
<!-- Node13&#45;&gt;Node4 -->
<g id="edge15" class="edge">
<title>Node13&#45;&gt;Node4</title>
<path fill="none" stroke="#191970" d="M540.7126,-255.0003C553.6043,-256.596 566.6483,-258.2105 578.3843,-259.6632"/>
<polygon fill="#191970" stroke="#191970" points="540.7886,-251.483 530.4343,-253.728 539.9286,-258.43 540.7886,-251.483"/>
</g>
<!-- Node15 -->
<g id="node15" class="node">
<title>Node15</title>
<g id="a_node15"><a xlink:href="backend_8hpp_a1032f833666c3f810ac1c6210197d426.html#a1032f833666c3f810ac1c6210197d426" target="_top" xlink:title="causes a node to self&#45;invalidate its cache, and thus getting any updated values on subsequent accesse...">
<polygon fill="#ffffff" stroke="#000000" points="404,-66.5 404,-85.5 532,-85.5 532,-66.5 404,-66.5"/>
<text text-anchor="middle" x="468" y="-73.5" font-family="Helvetica,sans-Serif" font-size="10.00" fill="#000000">argo::backend::acquire</text>
</a>
</g>
</g>
<!-- Node14&#45;&gt;Node15 -->
<g id="edge17" class="edge">
<title>Node14&#45;&gt;Node15</title>
<path fill="none" stroke="#191970" d="M348.7206,-76C365.9998,-76 385.5492,-76 403.7473,-76"/>
<polygon fill="#191970" stroke="#191970" points="348.2877,-72.5001 338.2876,-76 348.2876,-79.5001 348.2877,-72.5001"/>
</g>
<!-- Node17 -->
<g id="node17" class="node">
<title>Node17</title>
<g id="a_node17"><a xlink:href="swdsm_8h_ac0b665f72bc2a28dc663ed204c526e1b.html#ac0b665f72bc2a28dc663ed204c526e1b" target="_top" xlink:title="acquire&#45;release function for ArgoDSM (Both acquire and release according to Release Consistency) ...">
<polygon fill="#ffffff" stroke="#000000" points="428.5,-28.5 428.5,-47.5 507.5,-47.5 507.5,-28.5 428.5,-28.5"/>
<text text-anchor="middle" x="468" y="-35.5" font-family="Helvetica,sans-Serif" font-size="10.00" fill="#000000">argo_acq_rel</text>
</a>
</g>
</g>
<!-- Node14&#45;&gt;Node17 -->
<g id="edge20" class="edge">
<title>Node14&#45;&gt;Node17</title>
<path fill="none" stroke="#191970" d="M348.1733,-64.7848C373.7418,-59.0695 404.3935,-52.2179 428.2951,-46.8752"/>
<polygon fill="#191970" stroke="#191970" points="347.2833,-61.3973 338.2876,-66.9945 348.8103,-68.2287 347.2833,-61.3973"/>
</g>
<!-- Node15&#45;&gt;Node15 -->
<g id="edge18" class="edge">
<title>Node15&#45;&gt;Node15</title>
<path fill="none" stroke="#191970" d="M439.6275,-94.6539C440.8135,-99.9368 450.271,-104 468,-104 495.0156,-104 502.8248,-94.5653 491.4276,-85.7571"/>
<polygon fill="#191970" stroke="#191970" points="442.7735,-96.1981 444.5724,-85.7571 436.6551,-92.7974 442.7735,-96.1981"/>
</g>
<!-- Node16 -->
<g id="node16" class="node">
<title>Node16</title>
<g id="a_node16"><a xlink:href="singlenode_8cpp_aab3cabb3e1c0b9696b339416b684f78c.html#aab3cabb3e1c0b9696b339416b684f78c" target="_top" xlink:title="argo::backend::init">
<polygon fill="#ffffff" stroke="#000000" points="568,-28.5 568,-47.5 675,-47.5 675,-28.5 568,-28.5"/>
<text text-anchor="middle" x="621.5" y="-35.5" font-family="Helvetica,sans-Serif" font-size="10.00" fill="#000000">argo::backend::init</text>
</a>
</g>
</g>
<!-- Node15&#45;&gt;Node16 -->
<g id="edge19" class="edge">
<title>Node15&#45;&gt;Node16</title>
<path fill="none" stroke="#191970" d="M516.6352,-63.96C538.0799,-58.6512 562.9226,-52.5012 583.044,-47.5201"/>
<polygon fill="#191970" stroke="#191970" points="515.6004,-60.6104 506.7345,-66.411 517.2826,-67.4053 515.6004,-60.6104"/>
</g>
<!-- Node19 -->
<g id="node19" class="node">
<title>Node19</title>
<g id="a_node19"><a xlink:href="backend_8hpp_a8189df2ded0e8e6b64477a53f80d67e8.html#a8189df2ded0e8e6b64477a53f80d67e8" target="_top" xlink:title="Check if a an address is cached or node local. ">
<polygon fill="#ffffff" stroke="#000000" points="228,-.5 228,-19.5 368,-19.5 368,-.5 228,-.5"/>
<text text-anchor="middle" x="298" y="-7.5" font-family="Helvetica,sans-Serif" font-size="10.00" fill="#000000">argo::backend::is_cached</text>
</a>
</g>
</g>
<!-- Node18&#45;&gt;Node19 -->
<g id="edge22" class="edge">
<title>Node18&#45;&gt;Node19</title>
<path fill="none" stroke="#191970" d="M180.5544,-36.7415C204.2165,-31.3538 233.0265,-24.794 256.1902,-19.5198"/>
<polygon fill="#191970" stroke="#191970" points="179.7335,-33.3387 170.7601,-38.9716 181.2876,-40.164 179.7335,-33.3387"/>
</g>
<!-- Node19&#45;&gt;Node16 -->
<g id="edge24" class="edge">
<title>Node19&#45;&gt;Node16</title>
<path fill="none" stroke="#191970" d="M378.1954,-9.708C423.4992,-10.3873 481.0841,-12.6635 532,-19 549.0239,-21.1186 567.613,-24.8313 583.4167,-28.4159"/>
<polygon fill="#191970" stroke="#191970" points="378.179,-6.2077 368.1353,-9.5803 378.09,-13.2071 378.179,-6.2077"/>
</g>
<!-- Node19&#45;&gt;Node19 -->
<g id="edge23" class="edge">
<title>Node19&#45;&gt;Node19</title>
<path fill="none" stroke="#191970" d="M267.6856,-28.2746C268.5499,-33.741 278.6547,-38 298,-38 326.793,-38 335.1159,-28.5653 322.9689,-19.7571"/>
<polygon fill="#191970" stroke="#191970" points="270.6799,-30.0877 273.0311,-19.7571 264.7508,-26.3667 270.6799,-30.0877"/>
</g>
</g>
</svg>
        <g id="navigator" transform="translate(0 0)" fill="#404254">
                <rect fill="#f2f5e9" fill-opacity="0.5" stroke="#606060" stroke-width=".5" x="0" y="0" width="60" height="60"/>
                <use id="zoomplus" xlink:href="#zoomPlus" x="17" y="9" onmousedown="handleZoom(evt,'in')"/>
                <use id="zoomminus" xlink:href="#zoomMin" x="42" y="9" onmousedown="handleZoom(evt,'out')"/>
                <use id="reset" xlink:href="#resetDef" x="30" y="36" onmousedown="handleReset()"/>
                <g id="arrowUp" xlink:href="#dirArrow" transform="translate(30 24)" onmousedown="handlePan(0,-1)">
                  <use xlink:href="#rim" fill="#404040">
                        <set attributeName="fill" to="#808080" begin="arrowUp.mouseover" end="arrowUp.mouseout"/>
                  </use>
                  <path fill="none" stroke="white" stroke-width="1.5" d="M0,-3.0v7 M-2.5,-0.5L0,-3.0L2.5,-0.5"/>
                </g>
                <g id="arrowRight" xlink:href="#dirArrow" transform="rotate(90) translate(36 -43)" onmousedown="handlePan(1,0)">
                  <use xlink:href="#rim" fill="#404040">
                        <set attributeName="fill" to="#808080" begin="arrowRight.mouseover" end="arrowRight.mouseout"/>
                  </use>
                  <path fill="none" stroke="white" stroke-width="1.5" d="M0,-3.0v7 M-2.5,-0.5L0,-3.0L2.5,-0.5"/>
                </g>
                <g id="arrowDown" xlink:href="#dirArrow" transform="rotate(180) translate(-30 -48)" onmousedown="handlePan(0,1)">
                  <use xlink:href="#rim" fill="#404040">
                        <set attributeName="fill" to="#808080" begin="arrowDown.mouseover" end="arrowDown.mouseout"/>
                  </use>
                  <path fill="none" stroke="white" stroke-width="1.5" d="M0,-3.0v7 M-2.5,-0.5L0,-3.0L2.5,-0.5"/>
                </g>
                <g id="arrowLeft" xlink:href="#dirArrow" transform="rotate(270) translate(-36 17)" onmousedown="handlePan(-1,0)">
                  <use xlink:href="#rim" fill="#404040">
                        <set attributeName="fill" to="#808080" begin="arrowLeft.mouseover" end="arrowLeft.mouseout"/>
                  </use>
                  <path fill="none" stroke="white" stroke-width="1.5" d="M0,-3.0v7 M-2.5,-0.5L0,-3.0L2.5,-0.5"/>
                </g>
        </g>
        <svg viewBox="0 0 15 15" width="100%" height="30px" preserveAspectRatio="xMaxYMin meet">
         <g id="arrow_out" transform="scale(0.3 0.3)">
          <a xlink:href="swdsm_8h_af770e3f703653ddb0967b85d88881ab7_af770e3f703653ddb0967b85d88881ab7_icgraph_org.svg" target="_base">
           <rect id="button" ry="5" rx="5" y="6" x="6" height="38" width="38"
                fill="#f2f5e9" fill-opacity="0.5" stroke="#606060" stroke-width="1.0"/>
           <path id="arrow"
             d="M 11.500037,31.436501 C 11.940474,20.09759 22.043105,11.32322 32.158766,21.979434 L 37.068811,17.246167 C 37.068811,17.246167 37.088388,32 37.088388,32 L 22.160133,31.978069 C 22.160133,31.978069 26.997745,27.140456 26.997745,27.140456 C 18.528582,18.264221 13.291696,25.230495 11.500037,31.436501 z"
             style="fill:#404040;"/>
          </a>
         </g>
        </svg>
</svg>
