<?xml version="1.0" encoding="UTF-8" standalone="no"?>
<!DOCTYPE svg PUBLIC "-//W3C//DTD SVG 1.1//EN"
 "http://www.w3.org/Graphics/SVG/1.1/DTD/svg11.dtd">
<!-- Generated by graphviz version 2.40.1 (20161225.0304)
 -->
<!-- Title: argo_pin_threads Pages: 1 -->
<!--zoomable 309 -->
<svg id="main" version="1.1" xmlns="http://www.w3.org/2000/svg" xmlns:xlink="http://www.w3.org/1999/xlink" xml:space="preserve" onload="init(evt)">
<style type="text/css"><![CDATA[
.edge:hover path { stroke: red; }
.edge:hover polygon { stroke: red; fill: red; }
]]></style>
<script type="text/javascript"><![CDATA[
var edges = document.getElementsByTagName('g');
if (edges && edges.length) {
  for (var i=0;i<edges.length;i++) {
    if (edges[i].id.substr(0,4)=='edge') {
      edges[i].setAttribute('class','edge');
    }
  }
}
]]></script>
        <defs>
                <circle id="rim" cx="0" cy="0" r="7"/>
                <circle id="rim2" cx="0" cy="0" r="3.5"/>
                <g id="zoomPlus">
                        <use xlink:href="#rim" fill="#404040">
                                <set attributeName="fill" to="#808080" begin="zoomplus.mouseover" end="zoomplus.mouseout"/>
                        </use>
                        <path d="M-4,0h8M0,-4v8" fill="none" stroke="white" stroke-width="1.5" pointer-events="none"/>
                </g>
                <g id="zoomMin">
                        <use xlink:href="#rim" fill="#404040">
                                <set attributeName="fill" to="#808080" begin="zoomminus.mouseover" end="zoomminus.mouseout"/>
                        </use>
                        <path d="M-4,0h8" fill="none" stroke="white" stroke-width="1.5" pointer-events="none"/>
                </g>
                <g id="dirArrow">
                        <path fill="none" stroke="white" stroke-width="1.5" d="M0,-3.0v7 M-2.5,-0.5L0,-3.0L2.5,-0.5"/>
                </g>
               <g id="resetDef">
                       <use xlink:href="#rim2" fill="#404040">
                               <set attributeName="fill" to="#808080" begin="reset.mouseover" end="reset.mouseout"/>
                       </use>
               </g>
        </defs>

<script type="text/javascript">
var viewWidth = 1707;
var viewHeight = 309;
var sectionId = 'dynsection-0';
</script>
<script xlink:href="svgpan.js"/>
<svg id="graph" class="graph">
<g id="viewport">
<title>argo_pin_threads</title>
<polygon fill="#ffffff" stroke="transparent" points="-4,4 -4,-304.5 1703,-304.5 1703,4 -4,4"/>
<!-- Node0 -->
<g id="node1" class="node">
<title>Node0</title>
<polygon fill="#bfbfbf" stroke="#000000" points="0,-243 0,-262 101,-262 101,-243 0,-243"/>
<text text-anchor="middle" x="50.5" y="-250" font-family="Helvetica,sans-Serif" font-size="10.00" fill="#000000">argo_pin_threads</text>
</g>
<!-- Node1 -->
<g id="node2" class="node">
<title>Node1</title>
<g id="a_node2"><a xlink:href="swdsm_8cpp_a377c1387b86686470eddb261e718ef2a.html#a377c1387b86686470eddb261e718ef2a" target="_top" xlink:title="Registers the local thread to ArgoDSM and gets a local thread ID. ">
<polygon fill="#ffffff" stroke="#000000" points="137,-281 137,-300 255,-300 255,-281 137,-281"/>
<text text-anchor="middle" x="196" y="-288" font-family="Helvetica,sans-Serif" font-size="10.00" fill="#000000">argo_register_thread</text>
</a>
</g>
</g>
<!-- Node0&#45;&gt;Node1 -->
<g id="edge1" class="edge">
<title>Node0&#45;&gt;Node1</title>
<path fill="none" stroke="#191970" d="M87.2158,-262.089C106.1566,-267.0358 129.4572,-273.1211 149.6285,-278.3892"/>
<polygon fill="#191970" stroke="#191970" points="148.9883,-281.8394 159.5482,-280.9799 150.7572,-275.0665 148.9883,-281.8394"/>
</g>
<!-- Node2 -->
<g id="node3" class="node">
<title>Node2</title>
<g id="a_node3"><a xlink:href="swdsm_8cpp_af093b91a183f713e272716649b931962.html#af093b91a183f713e272716649b931962" target="_top" xlink:title="Gives out a local thread ID for a local thread assuming NUM_THREADS per node. ">
<polygon fill="#ffffff" stroke="#000000" points="143,-243 143,-262 249,-262 249,-243 143,-243"/>
<text text-anchor="middle" x="196" y="-250" font-family="Helvetica,sans-Serif" font-size="10.00" fill="#000000">argo_get_local_tid</text>
</a>
</g>
</g>
<!-- Node0&#45;&gt;Node2 -->
<g id="edge2" class="edge">
<title>Node0&#45;&gt;Node2</title>
<path fill="none" stroke="#191970" d="M101.3888,-252.5C111.4686,-252.5 122.1656,-252.5 132.6015,-252.5"/>
<polygon fill="#191970" stroke="#191970" points="132.918,-256.0001 142.9179,-252.5 132.9179,-249.0001 132.918,-256.0001"/>
</g>
<!-- Node3 -->
<g id="node4" class="node">
<title>Node3</title>
<g id="a_node4"><a xlink:href="swdsm_8cpp_aa954d5e0bcaee69ff6e03e697bcaf68b.html#aa954d5e0bcaee69ff6e03e697bcaf68b" target="_top" xlink:title="shut down ArgoDSM system ">
<polygon fill="#ffffff" stroke="#000000" points="156.5,-205 156.5,-224 235.5,-224 235.5,-205 156.5,-205"/>
<text text-anchor="middle" x="196" y="-212" font-family="Helvetica,sans-Serif" font-size="10.00" fill="#000000">argo_finalize</text>
</a>
</g>
</g>
<!-- Node0&#45;&gt;Node3 -->
<g id="edge3" class="edge">
<title>Node0&#45;&gt;Node3</title>
<path fill="none" stroke="#191970" d="M87.2158,-242.911C106.1566,-237.9642 129.4572,-231.8789 149.6285,-226.6108"/>
<polygon fill="#191970" stroke="#191970" points="150.7572,-229.9335 159.5482,-224.0201 148.9883,-223.1606 150.7572,-229.9335"/>
</g>
<!-- Node4 -->
<g id="node5" class="node">
<title>Node4</title>
<g id="a_node5"><a xlink:href="namespaceargo_aa6f830b22d3f1b054609c5ffa40af4b6.html#aa6f830b22d3f1b054609c5ffa40af4b6" target="_top" xlink:title="shut down ArgoDSM system ">
<polygon fill="#ffffff" stroke="#000000" points="309,-281 309,-300 389,-300 389,-281 309,-281"/>
<text text-anchor="middle" x="349" y="-288" font-family="Helvetica,sans-Serif" font-size="10.00" fill="#000000">argo::finalize</text>
</a>
</g>
</g>
<!-- Node3&#45;&gt;Node4 -->
<g id="edge4" class="edge">
<title>Node3&#45;&gt;Node4</title>
<path fill="none" stroke="#191970" d="M233.8661,-224.0179C241.1264,-226.5766 248.4883,-229.7131 255,-233.5 273.7629,-244.4117 272.6931,-254.8395 291,-266.5 297.1927,-270.4444 304.1431,-273.975 311.0236,-277.0363"/>
<polygon fill="#191970" stroke="#191970" points="309.709,-280.2803 320.2848,-280.9149 312.413,-273.8236 309.709,-280.2803"/>
</g>
<!-- Node5 -->
<g id="node6" class="node">
<title>Node5</title>
<g id="a_node6"><a xlink:href="swdsm_8cpp_ad3f5bdae81c60ac704dda7372792427d.html#ad3f5bdae81c60ac704dda7372792427d" target="_top" xlink:title="Global barrier for ArgoDSM &#45; needs to be called by every thread in the system that need coherent view...">
<polygon fill="#ffffff" stroke="#000000" points="291,-148 291,-167 407,-167 407,-148 291,-148"/>
<text text-anchor="middle" x="349" y="-155" font-family="Helvetica,sans-Serif" font-size="10.00" fill="#000000">swdsm_argo_barrier</text>
</a>
</g>
</g>
<!-- Node3&#45;&gt;Node5 -->
<g id="edge5" class="edge">
<title>Node3&#45;&gt;Node5</title>
<path fill="none" stroke="#191970" d="M221.6088,-204.9595C246.8729,-195.5473 285.6897,-181.0862 313.8365,-170.6001"/>
<polygon fill="#191970" stroke="#191970" points="315.1588,-173.8426 323.3077,-167.0716 312.715,-167.283 315.1588,-173.8426"/>
</g>
<!-- Node17 -->
<g id="node18" class="node">
<title>Node17</title>
<g id="a_node18"><a xlink:href="namespaceargo_1_1data__distribution_a58576657391f45caf61bf0748a23b098.html#a58576657391f45caf61bf0748a23b098" target="_top" xlink:title="identifies if we distribute data using the first&#45;touch memory policy ">
<polygon fill="#ffffff" stroke="#000000" points="1420,-208.5 1420,-238.5 1547,-238.5 1547,-208.5 1420,-208.5"/>
<text text-anchor="start" x="1428" y="-226.5" font-family="Helvetica,sans-Serif" font-size="10.00" fill="#000000">argo::data_distribution</text>
<text text-anchor="middle" x="1483.5" y="-215.5" font-family="Helvetica,sans-Serif" font-size="10.00" fill="#000000">::is_first_touch_policy</text>
</a>
</g>
</g>
<!-- Node3&#45;&gt;Node17 -->
<g id="edge34" class="edge">
<title>Node3&#45;&gt;Node17</title>
<path fill="none" stroke="#191970" d="M235.5423,-222.1899C296.1791,-233.2936 415.894,-252.5 518.5,-252.5 518.5,-252.5 518.5,-252.5 1155.5,-252.5 1243.1801,-252.5 1343.5338,-242.0904 1409.9018,-233.7445"/>
<polygon fill="#191970" stroke="#191970" points="1410.3704,-237.2132 1419.8478,-232.4772 1409.4856,-230.2693 1410.3704,-237.2132"/>
</g>
<!-- Node27 -->
<g id="node28" class="node">
<title>Node27</title>
<g id="a_node28"><a xlink:href="swdsm_8cpp_af770e3f703653ddb0967b85d88881ab7.html#af770e3f703653ddb0967b85d88881ab7" target="_top" xlink:title="Gives the ArgoDSM node id for the local process. ">
<polygon fill="#ffffff" stroke="#000000" points="660.5,-192 660.5,-211 703.5,-211 703.5,-192 660.5,-192"/>
<text text-anchor="middle" x="682" y="-199" font-family="Helvetica,sans-Serif" font-size="10.00" fill="#000000">getID</text>
</a>
</g>
</g>
<!-- Node3&#45;&gt;Node27 -->
<g id="edge31" class="edge">
<title>Node3&#45;&gt;Node27</title>
<path fill="none" stroke="#191970" d="M235.7714,-213.4362C329.9069,-210.9181 564.8571,-204.6335 650.2987,-202.348"/>
<polygon fill="#191970" stroke="#191970" points="650.5157,-205.8435 660.4185,-202.0773 650.3285,-198.846 650.5157,-205.8435"/>
</g>
<!-- Node29 -->
<g id="node30" class="node">
<title>Node29</title>
<g id="a_node30"><a xlink:href="swdsm_8cpp_a08cfbea6d24819e4e6b063144a5e6b5e.html#a08cfbea6d24819e4e6b063144a5e6b5e" target="_top" xlink:title="Prints collected statistics. ">
<polygon fill="#ffffff" stroke="#000000" points="307,-72 307,-91 391,-91 391,-72 307,-72"/>
<text text-anchor="middle" x="349" y="-79" font-family="Helvetica,sans-Serif" font-size="10.00" fill="#000000">printStatistics</text>
</a>
</g>
</g>
<!-- Node3&#45;&gt;Node29 -->
<g id="edge32" class="edge">
<title>Node3&#45;&gt;Node29</title>
<path fill="none" stroke="#191970" d="M207.0034,-204.935C232.7915,-182.5178 297.3957,-126.3586 329.8143,-98.1778"/>
<polygon fill="#191970" stroke="#191970" points="332.4326,-100.5393 337.6835,-91.3372 327.8402,-95.2563 332.4326,-100.5393"/>
</g>
<!-- Node6 -->
<g id="node7" class="node">
<title>Node6</title>
<g id="a_node7"><a xlink:href="swdsm_8cpp_ac99d42ffcf7c78281cb3a6b286ce3a5e.html#ac99d42ffcf7c78281cb3a6b286ce3a5e" target="_top" xlink:title="Gives number of ArgoDSM nodes. ">
<polygon fill="#ffffff" stroke="#000000" points="471.5,-167 471.5,-186 565.5,-186 565.5,-167 471.5,-167"/>
<text text-anchor="middle" x="518.5" y="-174" font-family="Helvetica,sans-Serif" font-size="10.00" fill="#000000">argo_get_nodes</text>
</a>
</g>
</g>
<!-- Node5&#45;&gt;Node6 -->
<g id="edge6" class="edge">
<title>Node5&#45;&gt;Node6</title>
<path fill="none" stroke="#191970" d="M407.3323,-164.0387C424.7835,-165.9949 443.8951,-168.1372 461.2744,-170.0853"/>
<polygon fill="#191970" stroke="#191970" points="460.9536,-173.5712 471.2813,-171.207 461.7334,-166.6148 460.9536,-173.5712"/>
</g>
<!-- Node7 -->
<g id="node8" class="node">
<title>Node7</title>
<g id="a_node8"><a xlink:href="classwrite__buffer_aca2e330e17a38c1cc8d8c60701ce9dd7.html#aca2e330e17a38c1cc8d8c60701ce9dd7" target="_top" xlink:title="Flushes the ArgoDSM write buffer to memory. ">
<polygon fill="#ffffff" stroke="#000000" points="630,-95 630,-114 734,-114 734,-95 630,-95"/>
<text text-anchor="middle" x="682" y="-102" font-family="Helvetica,sans-Serif" font-size="10.00" fill="#000000">write_buffer::flush</text>
</a>
</g>
</g>
<!-- Node5&#45;&gt;Node7 -->
<g id="edge7" class="edge">
<title>Node5&#45;&gt;Node7</title>
<path fill="none" stroke="#191970" d="M367.5045,-147.9384C386.0564,-138.8582 415.7077,-125.7013 443,-119.5 501.8554,-106.127 570.8177,-103.0975 619.4969,-102.9807"/>
<polygon fill="#191970" stroke="#191970" points="619.56,-106.4807 629.5658,-102.9974 619.5716,-99.4808 619.56,-106.4807"/>
</g>
<!-- Node26 -->
<g id="node27" class="node">
<title>Node26</title>
<g id="a_node27"><a xlink:href="swdsm_8cpp_aa7c3a2de6bbafdaf68fe6ceb6110ab97.html#aa7c3a2de6bbafdaf68fe6ceb6110ab97" target="_top" xlink:title="Self&#45;Invalidates all memory that has potential writers. ">
<polygon fill="#ffffff" stroke="#000000" points="469.5,-129 469.5,-148 567.5,-148 567.5,-129 469.5,-129"/>
<text text-anchor="middle" x="518.5" y="-136" font-family="Helvetica,sans-Serif" font-size="10.00" fill="#000000">self_invalidation</text>
</a>
</g>
</g>
<!-- Node5&#45;&gt;Node26 -->
<g id="edge27" class="edge">
<title>Node5&#45;&gt;Node26</title>
<path fill="none" stroke="#191970" d="M407.3323,-150.9613C424.0653,-149.0856 442.3248,-147.0388 459.1201,-145.1562"/>
<polygon fill="#191970" stroke="#191970" points="459.8137,-148.6004 469.3615,-144.0081 459.0339,-141.644 459.8137,-148.6004"/>
</g>
<!-- Node8 -->
<g id="node9" class="node">
<title>Node8</title>
<g id="a_node9"><a xlink:href="classwrite__buffer_ab70cc0d6ca3591094aae489dbc3feaa5.html#ab70cc0d6ca3591094aae489dbc3feaa5" target="_top" xlink:title="Check if the write buffer is empty. ">
<polygon fill="#ffffff" stroke="#000000" points="779,-139 779,-158 892,-158 892,-139 779,-139"/>
<text text-anchor="middle" x="835.5" y="-146" font-family="Helvetica,sans-Serif" font-size="10.00" fill="#000000">write_buffer::empty</text>
</a>
</g>
</g>
<!-- Node7&#45;&gt;Node8 -->
<g id="edge8" class="edge">
<title>Node7&#45;&gt;Node8</title>
<path fill="none" stroke="#191970" d="M715.3072,-114.0473C737.9365,-120.5339 768.0786,-129.174 792.5163,-136.1789"/>
<polygon fill="#191970" stroke="#191970" points="791.6805,-139.5802 802.2578,-138.9713 793.6094,-132.8512 791.6805,-139.5802"/>
</g>
<!-- Node9 -->
<g id="node10" class="node">
<title>Node9</title>
<g id="a_node10"><a xlink:href="classwrite__buffer_aa2325346aceb3e7ffdbdbdc8e8682147.html#aa2325346aceb3e7ffdbdbdc8e8682147" target="_top" xlink:title="Sorts all elements by home node id in ascending order. ">
<polygon fill="#ffffff" stroke="#000000" points="785.5,-63 785.5,-82 885.5,-82 885.5,-63 785.5,-63"/>
<text text-anchor="middle" x="835.5" y="-70" font-family="Helvetica,sans-Serif" font-size="10.00" fill="#000000">write_buffer::sort</text>
</a>
</g>
</g>
<!-- Node7&#45;&gt;Node9 -->
<g id="edge9" class="edge">
<title>Node7&#45;&gt;Node9</title>
<path fill="none" stroke="#191970" d="M727.6395,-94.9856C744.0398,-91.5666 762.7215,-87.6721 779.8762,-84.0958"/>
<polygon fill="#191970" stroke="#191970" points="780.6961,-87.5002 789.7713,-82.033 779.2675,-80.6476 780.6961,-87.5002"/>
</g>
<!-- Node19 -->
<g id="node20" class="node">
<title>Node19</title>
<g id="a_node20"><a xlink:href="classwrite__buffer_ae065d3ee59035ad508eb8ce6670d2c89.html#ae065d3ee59035ad508eb8ce6670d2c89" target="_top" xlink:title="Removes the front element from the buffer and returns it. ">
<polygon fill="#ffffff" stroke="#000000" points="786,-101 786,-120 885,-120 885,-101 786,-101"/>
<text text-anchor="middle" x="835.5" y="-108" font-family="Helvetica,sans-Serif" font-size="10.00" fill="#000000">write_buffer::pop</text>
</a>
</g>
</g>
<!-- Node7&#45;&gt;Node19 -->
<g id="edge20" class="edge">
<title>Node7&#45;&gt;Node19</title>
<path fill="none" stroke="#191970" d="M734.3967,-106.5481C747.6849,-107.0675 762.0597,-107.6294 775.685,-108.162"/>
<polygon fill="#191970" stroke="#191970" points="775.7988,-111.669 785.9279,-108.5623 776.0723,-104.6743 775.7988,-111.669"/>
</g>
<!-- Node20 -->
<g id="node21" class="node">
<title>Node20</title>
<g id="a_node21"><a xlink:href="swdsm_8cpp_ae0f2d0961e80b2903b3f54c9e6c68658.html#ae0f2d0961e80b2903b3f54c9e6c68658" target="_top" xlink:title="stores a page remotely &#45; only writing back what has been written locally since last synchronization p...">
<polygon fill="#ffffff" stroke="#000000" points="792.5,-25 792.5,-44 878.5,-44 878.5,-25 792.5,-25"/>
<text text-anchor="middle" x="835.5" y="-32" font-family="Helvetica,sans-Serif" font-size="10.00" fill="#000000">storepageDIFF</text>
</a>
</g>
</g>
<!-- Node7&#45;&gt;Node20 -->
<g id="edge21" class="edge">
<title>Node7&#45;&gt;Node20</title>
<path fill="none" stroke="#191970" d="M696.0742,-94.8954C712.9969,-83.6955 742.5578,-65.225 770,-53.5 775.4406,-51.1754 781.2529,-49.0344 787.0843,-47.0939"/>
<polygon fill="#191970" stroke="#191970" points="788.3654,-50.3601 796.8542,-44.0204 786.2648,-43.6827 788.3654,-50.3601"/>
</g>
<!-- Node25 -->
<g id="node26" class="node">
<title>Node25</title>
<g id="a_node26"><a xlink:href="namespaceargo_a79c9492f3fd441bfa6261dffbc0f02f4.html#a79c9492f3fd441bfa6261dffbc0f02f4" target="_top" xlink:title="Number of ArgoDSM nodes being run. ">
<polygon fill="#ffffff" stroke="#000000" points="770,-177 770,-196 901,-196 901,-177 770,-177"/>
<text text-anchor="middle" x="835.5" y="-184" font-family="Helvetica,sans-Serif" font-size="10.00" fill="#000000">argo::number_of_nodes</text>
</a>
</g>
</g>
<!-- Node7&#45;&gt;Node25 -->
<g id="edge26" class="edge">
<title>Node7&#45;&gt;Node25</title>
<path fill="none" stroke="#191970" d="M714.3742,-114.0306C721.1908,-116.8191 728.0978,-120.2822 734,-124.5 754.2787,-138.9917 749.1249,-153.8814 770,-167.5 773.1609,-169.5621 776.5501,-171.4053 780.0618,-173.0521"/>
<polygon fill="#191970" stroke="#191970" points="778.9913,-176.3964 789.5708,-176.968 781.6569,-169.9237 778.9913,-176.3964"/>
</g>
<!-- Node10 -->
<g id="node11" class="node">
<title>Node10</title>
<g id="a_node11"><a xlink:href="namespaceargo_a48dc17c94275df10a8e7f3959cbf0191.html#a48dc17c94275df10a8e7f3959cbf0191" target="_top" xlink:title="Get the ArgoDSM node id where addr is physically backed. ">
<polygon fill="#ffffff" stroke="#000000" points="937,-130 937,-149 1054,-149 1054,-130 937,-130"/>
<text text-anchor="middle" x="995.5" y="-137" font-family="Helvetica,sans-Serif" font-size="10.00" fill="#000000">argo::get_homenode</text>
</a>
</g>
</g>
<!-- Node9&#45;&gt;Node10 -->
<g id="edge10" class="edge">
<title>Node9&#45;&gt;Node10</title>
<path fill="none" stroke="#191970" d="M872.9723,-82.0583C882.2471,-84.7812 892.0799,-87.9769 901,-91.5 925.158,-101.0414 951.4052,-114.6537 970.0933,-124.9471"/>
<polygon fill="#191970" stroke="#191970" points="968.4334,-128.0288 978.8715,-129.8444 971.8438,-121.9158 968.4334,-128.0288"/>
</g>
<!-- Node11 -->
<g id="node12" class="node">
<title>Node11</title>
<g id="a_node12"><a xlink:href="classargo_1_1data__distribution_1_1global__ptr_a3e2cdd4d323ef91174615e27ab94e342.html#a3e2cdd4d323ef91174615e27ab94e342" target="_top" xlink:title="return the home node of the value pointed to, or a default value if the page has not yet been first&#45;t...">
<polygon fill="#ffffff" stroke="#000000" points="1090,-187.5 1090,-217.5 1221,-217.5 1221,-187.5 1090,-187.5"/>
<text text-anchor="start" x="1098" y="-205.5" font-family="Helvetica,sans-Serif" font-size="10.00" fill="#000000">argo::data_distribution</text>
<text text-anchor="middle" x="1155.5" y="-194.5" font-family="Helvetica,sans-Serif" font-size="10.00" fill="#000000">::global_ptr::peek_node</text>
</a>
</g>
</g>
<!-- Node10&#45;&gt;Node11 -->
<g id="edge11" class="edge">
<title>Node10&#45;&gt;Node11</title>
<path fill="none" stroke="#191970" d="M1019.144,-149.1426C1038.2311,-156.8942 1065.7979,-168.0161 1090,-177.5 1095.1705,-179.5261 1100.5785,-181.6241 1105.9751,-183.704"/>
<polygon fill="#191970" stroke="#191970" points="1105.0329,-187.0914 1115.623,-187.4089 1107.5423,-180.5566 1105.0329,-187.0914"/>
</g>
<!-- Node12 -->
<g id="node13" class="node">
<title>Node12</title>
<g id="a_node13"><a xlink:href="namespaceargo_a2f35b6b6e0af76fb8fb47f2031d6f58e.html#a2f35b6b6e0af76fb8fb47f2031d6f58e" target="_top" xlink:title="Get the block size of the current allocation policy. ">
<polygon fill="#ffffff" stroke="#000000" points="1097.5,-111 1097.5,-130 1213.5,-130 1213.5,-111 1097.5,-111"/>
<text text-anchor="middle" x="1155.5" y="-118" font-family="Helvetica,sans-Serif" font-size="10.00" fill="#000000">argo::get_block_size</text>
</a>
</g>
</g>
<!-- Node10&#45;&gt;Node12 -->
<g id="edge12" class="edge">
<title>Node10&#45;&gt;Node12</title>
<path fill="none" stroke="#191970" d="M1054.1696,-132.533C1064.9585,-131.2518 1076.3057,-129.9043 1087.3452,-128.5934"/>
<polygon fill="#191970" stroke="#191970" points="1087.8547,-132.0576 1097.3722,-127.4027 1087.0292,-125.1064 1087.8547,-132.0576"/>
</g>
<!-- Node18 -->
<g id="node19" class="node">
<title>Node18</title>
<g id="a_node19"><a xlink:href="namespaceargo_a2b6b342c320b2a608d317a328fc46d83.html#a2b6b342c320b2a608d317a328fc46d83" target="_top" xlink:title="Size of memory which is the portion of memory owned by this node. ">
<polygon fill="#ffffff" stroke="#000000" points="1106.5,-149 1106.5,-168 1204.5,-168 1204.5,-149 1106.5,-149"/>
<text text-anchor="middle" x="1155.5" y="-156" font-family="Helvetica,sans-Serif" font-size="10.00" fill="#000000">argo::chunk_size</text>
</a>
</g>
</g>
<!-- Node10&#45;&gt;Node18 -->
<g id="edge19" class="edge">
<title>Node10&#45;&gt;Node18</title>
<path fill="none" stroke="#191970" d="M1054.1696,-146.467C1067.8152,-148.0874 1082.3541,-149.8139 1096.0338,-151.4384"/>
<polygon fill="#191970" stroke="#191970" points="1095.9553,-154.9536 1106.2983,-152.6573 1096.7808,-148.0024 1095.9553,-154.9536"/>
</g>
<!-- Node13 -->
<g id="node14" class="node">
<title>Node13</title>
<g id="a_node14"><a xlink:href="namespaceargo_1_1data__distribution_a2a70ed49553953957c3a28aa755d7ac8.html#a2a70ed49553953957c3a28aa755d7ac8" target="_top" xlink:title="based on the chosen policy, gets the policy block size ">
<polygon fill="#ffffff" stroke="#000000" points="1257,-134.5 1257,-164.5 1384,-164.5 1384,-134.5 1257,-134.5"/>
<text text-anchor="start" x="1265" y="-152.5" font-family="Helvetica,sans-Serif" font-size="10.00" fill="#000000">argo::data_distribution</text>
<text text-anchor="middle" x="1320.5" y="-141.5" font-family="Helvetica,sans-Serif" font-size="10.00" fill="#000000">::policy_block_size</text>
</a>
</g>
</g>
<!-- Node12&#45;&gt;Node13 -->
<g id="edge13" class="edge">
<title>Node12&#45;&gt;Node13</title>
<path fill="none" stroke="#191970" d="M1209.9845,-130.0761C1221.8354,-132.1589 1234.5615,-134.3957 1247.0107,-136.5837"/>
<polygon fill="#191970" stroke="#191970" points="1246.4583,-140.0402 1256.9132,-138.3241 1247.6701,-133.1459 1246.4583,-140.0402"/>
</g>
<!-- Node14 -->
<g id="node15" class="node">
<title>Node14</title>
<g id="a_node15"><a xlink:href="namespaceargo_1_1env_a30775a9aa41b956df7474a2c0cc317aa.html#a30775a9aa41b956df7474a2c0cc317aa" target="_top" xlink:title="get the allocation block size requested by environment variable ">
<polygon fill="#ffffff" stroke="#000000" points="1425.5,-159.5 1425.5,-189.5 1541.5,-189.5 1541.5,-159.5 1425.5,-159.5"/>
<text text-anchor="start" x="1433.5" y="-177.5" font-family="Helvetica,sans-Serif" font-size="10.00" fill="#000000">argo::env::allocation</text>
<text text-anchor="middle" x="1483.5" y="-166.5" font-family="Helvetica,sans-Serif" font-size="10.00" fill="#000000">_block_size</text>
</a>
</g>
</g>
<!-- Node13&#45;&gt;Node14 -->
<g id="edge14" class="edge">
<title>Node13&#45;&gt;Node14</title>
<path fill="none" stroke="#191970" d="M1384.4541,-159.3089C1394.5549,-160.8581 1405.0331,-162.4652 1415.2277,-164.0288"/>
<polygon fill="#191970" stroke="#191970" points="1414.8881,-167.5176 1425.3032,-165.5741 1415.9494,-160.5985 1414.8881,-167.5176"/>
</g>
<!-- Node15 -->
<g id="node16" class="node">
<title>Node15</title>
<g id="a_node16"><a xlink:href="namespaceargo_1_1data__distribution_a1bb3f2dcecd237990e6dc67764f06860.html#a1bb3f2dcecd237990e6dc67764f06860" target="_top" xlink:title="identifies if we distribute data using a cyclic memory policy ">
<polygon fill="#ffffff" stroke="#000000" points="1420,-110.5 1420,-140.5 1547,-140.5 1547,-110.5 1420,-110.5"/>
<text text-anchor="start" x="1428" y="-128.5" font-family="Helvetica,sans-Serif" font-size="10.00" fill="#000000">argo::data_distribution</text>
<text text-anchor="middle" x="1483.5" y="-117.5" font-family="Helvetica,sans-Serif" font-size="10.00" fill="#000000">::is_cyclic_policy</text>
</a>
</g>
</g>
<!-- Node13&#45;&gt;Node15 -->
<g id="edge15" class="edge">
<title>Node13&#45;&gt;Node15</title>
<path fill="none" stroke="#191970" d="M1384.4541,-140.0834C1392.8519,-138.847 1401.5106,-137.5721 1410.0503,-136.3147"/>
<polygon fill="#191970" stroke="#191970" points="1410.6142,-139.7695 1419.9977,-134.85 1409.5945,-132.8441 1410.6142,-139.7695"/>
</g>
<!-- Node13&#45;&gt;Node17 -->
<g id="edge17" class="edge">
<title>Node13&#45;&gt;Node17</title>
<path fill="none" stroke="#191970" d="M1348.4328,-164.5189C1368.173,-174.8892 1395.3924,-188.702 1420,-199.5 1424.0555,-201.2796 1428.2886,-203.0538 1432.5598,-204.786"/>
<polygon fill="#191970" stroke="#191970" points="1431.331,-208.0638 1441.917,-208.4965 1433.9113,-201.5567 1431.331,-208.0638"/>
</g>
<!-- Node16 -->
<g id="node17" class="node">
<title>Node16</title>
<g id="a_node17"><a xlink:href="namespaceargo_1_1env_a25a08cb2d0d11432d640ec7173063339.html#a25a08cb2d0d11432d640ec7173063339" target="_top" xlink:title="get the allocation policy requested by environment variable ">
<polygon fill="#ffffff" stroke="#000000" points="1583,-159.5 1583,-189.5 1699,-189.5 1699,-159.5 1583,-159.5"/>
<text text-anchor="start" x="1591" y="-177.5" font-family="Helvetica,sans-Serif" font-size="10.00" fill="#000000">argo::env::allocation</text>
<text text-anchor="middle" x="1641" y="-166.5" font-family="Helvetica,sans-Serif" font-size="10.00" fill="#000000">_policy</text>
</a>
</g>
</g>
<!-- Node15&#45;&gt;Node16 -->
<g id="edge16" class="edge">
<title>Node15&#45;&gt;Node16</title>
<path fill="none" stroke="#191970" d="M1532.0403,-140.6014C1548.1339,-145.6083 1566.2114,-151.2324 1582.9467,-156.439"/>
<polygon fill="#191970" stroke="#191970" points="1582.0316,-159.8197 1592.6199,-159.4484 1584.1111,-153.1357 1582.0316,-159.8197"/>
</g>
<!-- Node17&#45;&gt;Node16 -->
<g id="edge18" class="edge">
<title>Node17&#45;&gt;Node16</title>
<path fill="none" stroke="#191970" d="M1532.0403,-208.3986C1548.1339,-203.3917 1566.2114,-197.7676 1582.9467,-192.561"/>
<polygon fill="#191970" stroke="#191970" points="1584.1111,-195.8643 1592.6199,-189.5516 1582.0316,-189.1803 1584.1111,-195.8643"/>
</g>
<!-- Node21 -->
<g id="node22" class="node">
<title>Node21</title>
<g id="a_node22"><a xlink:href="swdsm_8cpp_a0edf823a78daed8888e8e18468460617.html#a0edf823a78daed8888e8e18468460617" target="_top" xlink:title="Gives homenode for a given address. ">
<polygon fill="#ffffff" stroke="#000000" points="951,-52 951,-71 1040,-71 1040,-52 951,-52"/>
<text text-anchor="middle" x="995.5" y="-59" font-family="Helvetica,sans-Serif" font-size="10.00" fill="#000000">get_homenode</text>
</a>
</g>
</g>
<!-- Node20&#45;&gt;Node21 -->
<g id="edge22" class="edge">
<title>Node20&#45;&gt;Node21</title>
<path fill="none" stroke="#191970" d="M878.7983,-41.8066C897.8788,-45.0264 920.5155,-48.8464 940.7506,-52.261"/>
<polygon fill="#191970" stroke="#191970" points="940.3294,-55.7394 950.7724,-53.9522 941.4942,-48.837 940.3294,-55.7394"/>
</g>
<!-- Node23 -->
<g id="node24" class="node">
<title>Node23</title>
<g id="a_node24"><a xlink:href="swdsm_8cpp_ab58b1f9fa1b59d3060f241994979e18f.html#ab58b1f9fa1b59d3060f241994979e18f" target="_top" xlink:title="Gets the offset of an address on the local nodes part of the global memory. ">
<polygon fill="#ffffff" stroke="#000000" points="963,-11 963,-30 1028,-30 1028,-11 963,-11"/>
<text text-anchor="middle" x="995.5" y="-18" font-family="Helvetica,sans-Serif" font-size="10.00" fill="#000000">get_offset</text>
</a>
</g>
</g>
<!-- Node20&#45;&gt;Node23 -->
<g id="edge24" class="edge">
<title>Node20&#45;&gt;Node23</title>
<path fill="none" stroke="#191970" d="M878.7983,-30.7114C901.7517,-28.703 929.8515,-26.2442 952.7258,-24.2427"/>
<polygon fill="#191970" stroke="#191970" points="953.1739,-27.717 962.8307,-23.3586 952.5636,-20.7436 953.1739,-27.717"/>
</g>
<!-- Node22 -->
<g id="node23" class="node">
<title>Node22</title>
<g id="a_node23"><a xlink:href="classargo_1_1data__distribution_1_1global__ptr_ac7d651586337d08cda18ef26ffcd34a0.html#ac7d651586337d08cda18ef26ffcd34a0" target="_top" xlink:title="return the home node of the value pointed to ">
<polygon fill="#ffffff" stroke="#000000" points="1092,-49.5 1092,-79.5 1219,-79.5 1219,-49.5 1092,-49.5"/>
<text text-anchor="start" x="1100" y="-67.5" font-family="Helvetica,sans-Serif" font-size="10.00" fill="#000000">argo::data_distribution</text>
<text text-anchor="middle" x="1155.5" y="-56.5" font-family="Helvetica,sans-Serif" font-size="10.00" fill="#000000">::global_ptr::node</text>
</a>
</g>
</g>
<!-- Node21&#45;&gt;Node22 -->
<g id="edge23" class="edge">
<title>Node21&#45;&gt;Node22</title>
<path fill="none" stroke="#191970" d="M1040.0689,-62.3357C1052.9412,-62.577 1067.3472,-62.8471 1081.5013,-63.1125"/>
<polygon fill="#191970" stroke="#191970" points="1081.6737,-66.6163 1091.7375,-63.3045 1081.8049,-59.6175 1081.6737,-66.6163"/>
</g>
<!-- Node24 -->
<g id="node25" class="node">
<title>Node24</title>
<g id="a_node25"><a xlink:href="classargo_1_1data__distribution_1_1global__ptr_ad8c21c408fa2b926cfd9acfd87e8e4e6.html#ad8c21c408fa2b926cfd9acfd87e8e4e6" target="_top" xlink:title="return the offset on the home node&#39;s local memory share ">
<polygon fill="#ffffff" stroke="#000000" points="1092,-.5 1092,-30.5 1219,-30.5 1219,-.5 1092,-.5"/>
<text text-anchor="start" x="1100" y="-18.5" font-family="Helvetica,sans-Serif" font-size="10.00" fill="#000000">argo::data_distribution</text>
<text text-anchor="middle" x="1155.5" y="-7.5" font-family="Helvetica,sans-Serif" font-size="10.00" fill="#000000">::global_ptr::offset</text>
</a>
</g>
</g>
<!-- Node23&#45;&gt;Node24 -->
<g id="edge25" class="edge">
<title>Node23&#45;&gt;Node24</title>
<path fill="none" stroke="#191970" d="M1028.2645,-19.4761C1043.764,-18.9917 1062.9491,-18.3922 1081.6797,-17.8069"/>
<polygon fill="#191970" stroke="#191970" points="1081.8248,-21.3042 1091.7106,-17.4934 1081.6061,-14.3076 1081.8248,-21.3042"/>
</g>
<!-- Node26&#45;&gt;Node7 -->
<g id="edge30" class="edge">
<title>Node26&#45;&gt;Node7</title>
<path fill="none" stroke="#191970" d="M564.479,-128.9386C583.6287,-124.9564 606.0403,-120.2959 626.1278,-116.1187"/>
<polygon fill="#191970" stroke="#191970" points="627.0052,-119.5112 636.0831,-114.0485 625.58,-112.6578 627.0052,-119.5112"/>
</g>
<!-- Node26&#45;&gt;Node27 -->
<g id="edge28" class="edge">
<title>Node26&#45;&gt;Node27</title>
<path fill="none" stroke="#191970" d="M563.3049,-148.07C573.5232,-150.7209 584.2417,-153.8815 594,-157.5 605.9281,-161.923 633.7689,-176.0957 654.9659,-187.1747"/>
<polygon fill="#191970" stroke="#191970" points="653.3858,-190.2981 663.8666,-191.8482 656.64,-184.1005 653.3858,-190.2981"/>
</g>
<!-- Node28 -->
<g id="node29" class="node">
<title>Node28</title>
<g id="a_node29"><a xlink:href="swdsm_8cpp_adfcbbdedcad0833d49e3111447061689.html#adfcbbdedcad0833d49e3111447061689" target="_top" xlink:title="Gives an index to the sharer/writer vector depending on the address. ">
<polygon fill="#ffffff" stroke="#000000" points="631.5,-133.5 631.5,-163.5 732.5,-163.5 732.5,-133.5 631.5,-133.5"/>
<text text-anchor="start" x="639.5" y="-151.5" font-family="Helvetica,sans-Serif" font-size="10.00" fill="#000000">get_classification</text>
<text text-anchor="middle" x="682" y="-140.5" font-family="Helvetica,sans-Serif" font-size="10.00" fill="#000000">_index</text>
</a>
</g>
</g>
<!-- Node26&#45;&gt;Node28 -->
<g id="edge29" class="edge">
<title>Node26&#45;&gt;Node28</title>
<path fill="none" stroke="#191970" d="M567.5554,-141.5003C584.3823,-142.5295 603.4218,-143.694 621.0735,-144.7736"/>
<polygon fill="#191970" stroke="#191970" points="621.084,-148.2807 631.2791,-145.3978 621.5114,-141.2938 621.084,-148.2807"/>
</g>
<!-- Node30 -->
<g id="node31" class="node">
<title>Node30</title>
<g id="a_node31"><a xlink:href="namespaceargo_1_1env_a5b409fb87255b7e434bf833ab8598113.html#a5b409fb87255b7e434bf833ab8598113" target="_top" xlink:title="get the write buffer size requested by environment variable ">
<polygon fill="#ffffff" stroke="#000000" points="443,-53 443,-72 594,-72 594,-53 443,-53"/>
<text text-anchor="middle" x="518.5" y="-60" font-family="Helvetica,sans-Serif" font-size="10.00" fill="#000000">argo::env::write_buffer_size</text>
</a>
</g>
</g>
<!-- Node29&#45;&gt;Node30 -->
<g id="edge33" class="edge">
<title>Node29&#45;&gt;Node30</title>
<path fill="none" stroke="#191970" d="M391.3348,-76.7545C404.0024,-75.3345 418.3734,-73.7236 432.7818,-72.1085"/>
<polygon fill="#191970" stroke="#191970" points="433.1944,-75.5843 442.7423,-70.992 432.4146,-68.6279 433.1944,-75.5843"/>
</g>
</g>
</svg>
        <g id="navigator" transform="translate(0 0)" fill="#404254">
                <rect fill="#f2f5e9" fill-opacity="0.5" stroke="#606060" stroke-width=".5" x="0" y="0" width="60" height="60"/>
                <use id="zoomplus" xlink:href="#zoomPlus" x="17" y="9" onmousedown="handleZoom(evt,'in')"/>
                <use id="zoomminus" xlink:href="#zoomMin" x="42" y="9" onmousedown="handleZoom(evt,'out')"/>
                <use id="reset" xlink:href="#resetDef" x="30" y="36" onmousedown="handleReset()"/>
                <g id="arrowUp" xlink:href="#dirArrow" transform="translate(30 24)" onmousedown="handlePan(0,-1)">
                  <use xlink:href="#rim" fill="#404040">
                        <set attributeName="fill" to="#808080" begin="arrowUp.mouseover" end="arrowUp.mouseout"/>
                  </use>
                  <path fill="none" stroke="white" stroke-width="1.5" d="M0,-3.0v7 M-2.5,-0.5L0,-3.0L2.5,-0.5"/>
                </g>
                <g id="arrowRight" xlink:href="#dirArrow" transform="rotate(90) translate(36 -43)" onmousedown="handlePan(1,0)">
                  <use xlink:href="#rim" fill="#404040">
                        <set attributeName="fill" to="#808080" begin="arrowRight.mouseover" end="arrowRight.mouseout"/>
                  </use>
                  <path fill="none" stroke="white" stroke-width="1.5" d="M0,-3.0v7 M-2.5,-0.5L0,-3.0L2.5,-0.5"/>
                </g>
                <g id="arrowDown" xlink:href="#dirArrow" transform="rotate(180) translate(-30 -48)" onmousedown="handlePan(0,1)">
                  <use xlink:href="#rim" fill="#404040">
                        <set attributeName="fill" to="#808080" begin="arrowDown.mouseover" end="arrowDown.mouseout"/>
                  </use>
                  <path fill="none" stroke="white" stroke-width="1.5" d="M0,-3.0v7 M-2.5,-0.5L0,-3.0L2.5,-0.5"/>
                </g>
                <g id="arrowLeft" xlink:href="#dirArrow" transform="rotate(270) translate(-36 17)" onmousedown="handlePan(-1,0)">
                  <use xlink:href="#rim" fill="#404040">
                        <set attributeName="fill" to="#808080" begin="arrowLeft.mouseover" end="arrowLeft.mouseout"/>
                  </use>
                  <path fill="none" stroke="white" stroke-width="1.5" d="M0,-3.0v7 M-2.5,-0.5L0,-3.0L2.5,-0.5"/>
                </g>
        </g>
        <svg viewBox="0 0 15 15" width="100%" height="30px" preserveAspectRatio="xMaxYMin meet">
         <g id="arrow_out" transform="scale(0.3 0.3)">
          <a xlink:href="swdsm_8h_a18cc89a7368e30281ea4b1d214a1b1ff_a18cc89a7368e30281ea4b1d214a1b1ff_cgraph_org.svg" target="_base">
           <rect id="button" ry="5" rx="5" y="6" x="6" height="38" width="38"
                fill="#f2f5e9" fill-opacity="0.5" stroke="#606060" stroke-width="1.0"/>
           <path id="arrow"
             d="M 11.500037,31.436501 C 11.940474,20.09759 22.043105,11.32322 32.158766,21.979434 L 37.068811,17.246167 C 37.068811,17.246167 37.088388,32 37.088388,32 L 22.160133,31.978069 C 22.160133,31.978069 26.997745,27.140456 26.997745,27.140456 C 18.528582,18.264221 13.291696,25.230495 11.500037,31.436501 z"
             style="fill:#404040;"/>
          </a>
         </g>
        </svg>
</svg>
