<?xml version="1.0" encoding="UTF-8" standalone="no"?>
<!DOCTYPE svg PUBLIC "-//W3C//DTD SVG 1.1//EN"
 "http://www.w3.org/Graphics/SVG/1.1/DTD/svg11.dtd">
<!-- Generated by graphviz version 2.40.1 (20161225.0304)
 -->
<!-- Title: argo_acq_rel Pages: 1 -->
<!--zoomable 219 -->
<svg id="main" version="1.1" xmlns="http://www.w3.org/2000/svg" xmlns:xlink="http://www.w3.org/1999/xlink" xml:space="preserve" onload="init(evt)">
<style type="text/css"><![CDATA[
.edge:hover path { stroke: red; }
.edge:hover polygon { stroke: red; fill: red; }
]]></style>
<script type="text/javascript"><![CDATA[
var edges = document.getElementsByTagName('g');
if (edges && edges.length) {
  for (var i=0;i<edges.length;i++) {
    if (edges[i].id.substr(0,4)=='edge') {
      edges[i].setAttribute('class','edge');
    }
  }
}
]]></script>
        <defs>
                <circle id="rim" cx="0" cy="0" r="7"/>
                <circle id="rim2" cx="0" cy="0" r="3.5"/>
                <g id="zoomPlus">
                        <use xlink:href="#rim" fill="#404040">
                                <set attributeName="fill" to="#808080" begin="zoomplus.mouseover" end="zoomplus.mouseout"/>
                        </use>
                        <path d="M-4,0h8M0,-4v8" fill="none" stroke="white" stroke-width="1.5" pointer-events="none"/>
                </g>
                <g id="zoomMin">
                        <use xlink:href="#rim" fill="#404040">
                                <set attributeName="fill" to="#808080" begin="zoomminus.mouseover" end="zoomminus.mouseout"/>
                        </use>
                        <path d="M-4,0h8" fill="none" stroke="white" stroke-width="1.5" pointer-events="none"/>
                </g>
                <g id="dirArrow">
                        <path fill="none" stroke="white" stroke-width="1.5" d="M0,-3.0v7 M-2.5,-0.5L0,-3.0L2.5,-0.5"/>
                </g>
               <g id="resetDef">
                       <use xlink:href="#rim2" fill="#404040">
                               <set attributeName="fill" to="#808080" begin="reset.mouseover" end="reset.mouseout"/>
                       </use>
               </g>
        </defs>

<script type="text/javascript">
var viewWidth = 1442;
var viewHeight = 219;
var sectionId = 'dynsection-0';
</script>
<script xlink:href="svgpan.js"/>
<svg id="graph" class="graph">
<g id="viewport">
<title>argo_acq_rel</title>
<polygon fill="#ffffff" stroke="transparent" points="-4,4 -4,-215 1438,-215 1438,4 -4,4"/>
<!-- Node0 -->
<g id="node1" class="node">
<title>Node0</title>
<polygon fill="#bfbfbf" stroke="#000000" points="0,-115 0,-134 79,-134 79,-115 0,-115"/>
<text text-anchor="middle" x="39.5" y="-122" font-family="Helvetica,sans-Serif" font-size="10.00" fill="#000000">argo_acq_rel</text>
</g>
<!-- Node1 -->
<g id="node2" class="node">
<title>Node1</title>
<g id="a_node2"><a xlink:href="swdsm_8cpp_a44b8bb7a3c8b47b4f9552c8e10b25e4b.html#a44b8bb7a3c8b47b4f9552c8e10b25e4b" target="_top" xlink:title="acquire function for ArgoDSM (Acquire according to Release Consistency) ">
<polygon fill="#ffffff" stroke="#000000" points="115,-134 115,-153 195,-153 195,-134 115,-134"/>
<text text-anchor="middle" x="155" y="-141" font-family="Helvetica,sans-Serif" font-size="10.00" fill="#000000">argo_acquire</text>
</a>
</g>
</g>
<!-- Node0&#45;&gt;Node1 -->
<g id="edge1" class="edge">
<title>Node0&#45;&gt;Node1</title>
<path fill="none" stroke="#191970" d="M79.2485,-131.0387C87.5032,-132.3966 96.303,-133.8442 104.8747,-135.2543"/>
<polygon fill="#191970" stroke="#191970" points="104.3506,-138.715 114.7861,-136.8847 105.4869,-131.8079 104.3506,-138.715"/>
</g>
<!-- Node24 -->
<g id="node25" class="node">
<title>Node24</title>
<g id="a_node25"><a xlink:href="swdsm_8cpp_ad390eb58e1be03ed6a0939fae7ebd20a.html#ad390eb58e1be03ed6a0939fae7ebd20a" target="_top" xlink:title="Release function for ArgoDSM (Release according to Release Consistency) ">
<polygon fill="#ffffff" stroke="#000000" points="240,-96 240,-115 320,-115 320,-96 240,-96"/>
<text text-anchor="middle" x="280" y="-103" font-family="Helvetica,sans-Serif" font-size="10.00" fill="#000000">argo_release</text>
</a>
</g>
</g>
<!-- Node0&#45;&gt;Node24 -->
<g id="edge25" class="edge">
<title>Node0&#45;&gt;Node24</title>
<path fill="none" stroke="#191970" d="M79.2137,-121.3625C120.4305,-118.1063 185.0098,-113.0044 229.7521,-109.4697"/>
<polygon fill="#191970" stroke="#191970" points="230.1329,-112.9506 239.8261,-108.6738 229.5815,-105.9723 230.1329,-112.9506"/>
</g>
<!-- Node2 -->
<g id="node3" class="node">
<title>Node2</title>
<g id="a_node3"><a xlink:href="swdsm_8cpp_aa7c3a2de6bbafdaf68fe6ceb6110ab97.html#aa7c3a2de6bbafdaf68fe6ceb6110ab97" target="_top" xlink:title="Self&#45;Invalidates all memory that has potential writers. ">
<polygon fill="#ffffff" stroke="#000000" points="231,-135 231,-154 329,-154 329,-135 231,-135"/>
<text text-anchor="middle" x="280" y="-142" font-family="Helvetica,sans-Serif" font-size="10.00" fill="#000000">self_invalidation</text>
</a>
</g>
</g>
<!-- Node1&#45;&gt;Node2 -->
<g id="edge2" class="edge">
<title>Node1&#45;&gt;Node2</title>
<path fill="none" stroke="#191970" d="M195.2388,-143.8219C203.3438,-143.8868 212.0233,-143.9562 220.6237,-144.025"/>
<polygon fill="#191970" stroke="#191970" points="220.6166,-147.5249 230.6444,-144.1052 220.6727,-140.5252 220.6166,-147.5249"/>
</g>
<!-- Node3 -->
<g id="node4" class="node">
<title>Node3</title>
<g id="a_node4"><a xlink:href="swdsm_8cpp_af770e3f703653ddb0967b85d88881ab7.html#af770e3f703653ddb0967b85d88881ab7" target="_top" xlink:title="Gives the ArgoDSM node id for the local process. ">
<polygon fill="#ffffff" stroke="#000000" points="395.5,-181 395.5,-200 438.5,-200 438.5,-181 395.5,-181"/>
<text text-anchor="middle" x="417" y="-188" font-family="Helvetica,sans-Serif" font-size="10.00" fill="#000000">getID</text>
</a>
</g>
</g>
<!-- Node2&#45;&gt;Node3 -->
<g id="edge3" class="edge">
<title>Node2&#45;&gt;Node3</title>
<path fill="none" stroke="#191970" d="M308.3865,-154.0312C330.9163,-161.596 362.385,-172.1621 385.6532,-179.9748"/>
<polygon fill="#191970" stroke="#191970" points="384.7948,-183.3785 395.3888,-183.2437 387.023,-176.7426 384.7948,-183.3785"/>
</g>
<!-- Node4 -->
<g id="node5" class="node">
<title>Node4</title>
<g id="a_node5"><a xlink:href="swdsm_8cpp_adfcbbdedcad0833d49e3111447061689.html#adfcbbdedcad0833d49e3111447061689" target="_top" xlink:title="Gives an index to the sharer/writer vector depending on the address. ">
<polygon fill="#ffffff" stroke="#000000" points="366.5,-131.5 366.5,-161.5 467.5,-161.5 467.5,-131.5 366.5,-131.5"/>
<text text-anchor="start" x="374.5" y="-149.5" font-family="Helvetica,sans-Serif" font-size="10.00" fill="#000000">get_classification</text>
<text text-anchor="middle" x="417" y="-138.5" font-family="Helvetica,sans-Serif" font-size="10.00" fill="#000000">_index</text>
</a>
</g>
</g>
<!-- Node2&#45;&gt;Node4 -->
<g id="edge4" class="edge">
<title>Node2&#45;&gt;Node4</title>
<path fill="none" stroke="#191970" d="M329.0732,-145.2164C337.8871,-145.3451 347.1689,-145.4806 356.2656,-145.6134"/>
<polygon fill="#191970" stroke="#191970" points="356.3725,-149.1152 366.4226,-145.7616 356.4748,-142.1159 356.3725,-149.1152"/>
</g>
<!-- Node5 -->
<g id="node6" class="node">
<title>Node5</title>
<g id="a_node6"><a xlink:href="classwrite__buffer_aca2e330e17a38c1cc8d8c60701ce9dd7.html#aca2e330e17a38c1cc8d8c60701ce9dd7" target="_top" xlink:title="Flushes the ArgoDSM write buffer to memory. ">
<polygon fill="#ffffff" stroke="#000000" points="365,-93 365,-112 469,-112 469,-93 365,-93"/>
<text text-anchor="middle" x="417" y="-100" font-family="Helvetica,sans-Serif" font-size="10.00" fill="#000000">write_buffer::flush</text>
</a>
</g>
</g>
<!-- Node2&#45;&gt;Node5 -->
<g id="edge5" class="edge">
<title>Node2&#45;&gt;Node5</title>
<path fill="none" stroke="#191970" d="M311.0874,-134.9695C330.2197,-129.1042 354.9688,-121.5169 375.7313,-115.1517"/>
<polygon fill="#191970" stroke="#191970" points="377.0265,-118.4155 385.5614,-112.1381 374.9747,-111.723 377.0265,-118.4155"/>
</g>
<!-- Node6 -->
<g id="node7" class="node">
<title>Node6</title>
<g id="a_node7"><a xlink:href="classwrite__buffer_ab70cc0d6ca3591094aae489dbc3feaa5.html#ab70cc0d6ca3591094aae489dbc3feaa5" target="_top" xlink:title="Check if the write buffer is empty. ">
<polygon fill="#ffffff" stroke="#000000" points="514,-169 514,-188 627,-188 627,-169 514,-169"/>
<text text-anchor="middle" x="570.5" y="-176" font-family="Helvetica,sans-Serif" font-size="10.00" fill="#000000">write_buffer::empty</text>
</a>
</g>
</g>
<!-- Node5&#45;&gt;Node6 -->
<g id="edge6" class="edge">
<title>Node5&#45;&gt;Node6</title>
<path fill="none" stroke="#191970" d="M448.3254,-112.036C455.4148,-114.8662 462.7023,-118.3456 469,-122.5 488.1522,-135.1339 485.3293,-147.6897 505,-159.5 508.5973,-161.6598 512.4538,-163.5858 516.4288,-165.3012"/>
<polygon fill="#191970" stroke="#191970" points="515.263,-168.6028 525.8527,-168.9328 517.7802,-162.071 515.263,-168.6028"/>
</g>
<!-- Node7 -->
<g id="node8" class="node">
<title>Node7</title>
<g id="a_node8"><a xlink:href="classwrite__buffer_aa2325346aceb3e7ffdbdbdc8e8682147.html#aa2325346aceb3e7ffdbdbdc8e8682147" target="_top" xlink:title="Sorts all elements by home node id in ascending order. ">
<polygon fill="#ffffff" stroke="#000000" points="520.5,-131 520.5,-150 620.5,-150 620.5,-131 520.5,-131"/>
<text text-anchor="middle" x="570.5" y="-138" font-family="Helvetica,sans-Serif" font-size="10.00" fill="#000000">write_buffer::sort</text>
</a>
</g>
</g>
<!-- Node5&#45;&gt;Node7 -->
<g id="edge7" class="edge">
<title>Node5&#45;&gt;Node7</title>
<path fill="none" stroke="#191970" d="M455.7345,-112.089C475.8993,-117.0809 500.7479,-123.2324 522.1611,-128.5334"/>
<polygon fill="#191970" stroke="#191970" points="521.4959,-131.9743 532.044,-130.9799 523.1781,-125.1794 521.4959,-131.9743"/>
</g>
<!-- Node17 -->
<g id="node18" class="node">
<title>Node17</title>
<g id="a_node18"><a xlink:href="classwrite__buffer_ae065d3ee59035ad508eb8ce6670d2c89.html#ae065d3ee59035ad508eb8ce6670d2c89" target="_top" xlink:title="Removes the front element from the buffer and returns it. ">
<polygon fill="#ffffff" stroke="#000000" points="521,-93 521,-112 620,-112 620,-93 521,-93"/>
<text text-anchor="middle" x="570.5" y="-100" font-family="Helvetica,sans-Serif" font-size="10.00" fill="#000000">write_buffer::pop</text>
</a>
</g>
</g>
<!-- Node5&#45;&gt;Node17 -->
<g id="edge18" class="edge">
<title>Node5&#45;&gt;Node17</title>
<path fill="none" stroke="#191970" d="M469.3967,-102.5C482.6849,-102.5 497.0597,-102.5 510.685,-102.5"/>
<polygon fill="#191970" stroke="#191970" points="510.9279,-106.0001 520.9279,-102.5 510.9279,-99.0001 510.9279,-106.0001"/>
</g>
<!-- Node18 -->
<g id="node19" class="node">
<title>Node18</title>
<g id="a_node19"><a xlink:href="swdsm_8cpp_ae0f2d0961e80b2903b3f54c9e6c68658.html#ae0f2d0961e80b2903b3f54c9e6c68658" target="_top" xlink:title="stores a page remotely &#45; only writing back what has been written locally since last synchronization p...">
<polygon fill="#ffffff" stroke="#000000" points="527.5,-55 527.5,-74 613.5,-74 613.5,-55 527.5,-55"/>
<text text-anchor="middle" x="570.5" y="-62" font-family="Helvetica,sans-Serif" font-size="10.00" fill="#000000">storepageDIFF</text>
</a>
</g>
</g>
<!-- Node5&#45;&gt;Node18 -->
<g id="edge19" class="edge">
<title>Node5&#45;&gt;Node18</title>
<path fill="none" stroke="#191970" d="M455.7345,-92.911C475.8993,-87.9191 500.7479,-81.7676 522.1611,-76.4666"/>
<polygon fill="#191970" stroke="#191970" points="523.1781,-79.8206 532.044,-74.0201 521.4959,-73.0257 523.1781,-79.8206"/>
</g>
<!-- Node23 -->
<g id="node24" class="node">
<title>Node23</title>
<g id="a_node24"><a xlink:href="namespaceargo_a79c9492f3fd441bfa6261dffbc0f02f4.html#a79c9492f3fd441bfa6261dffbc0f02f4" target="_top" xlink:title="Number of ArgoDSM nodes being run. ">
<polygon fill="#ffffff" stroke="#000000" points="505,-17 505,-36 636,-36 636,-17 505,-17"/>
<text text-anchor="middle" x="570.5" y="-24" font-family="Helvetica,sans-Serif" font-size="10.00" fill="#000000">argo::number_of_nodes</text>
</a>
</g>
</g>
<!-- Node5&#45;&gt;Node23 -->
<g id="edge24" class="edge">
<title>Node5&#45;&gt;Node23</title>
<path fill="none" stroke="#191970" d="M429.1527,-92.9675C445.5424,-80.5129 476.026,-58.7374 505,-45.5 510.0482,-43.1936 515.4438,-41.0948 520.8903,-39.205"/>
<polygon fill="#191970" stroke="#191970" points="522.2519,-42.4429 530.6848,-36.0291 520.0928,-35.7842 522.2519,-42.4429"/>
</g>
<!-- Node8 -->
<g id="node9" class="node">
<title>Node8</title>
<g id="a_node9"><a xlink:href="namespaceargo_a48dc17c94275df10a8e7f3959cbf0191.html#a48dc17c94275df10a8e7f3959cbf0191" target="_top" xlink:title="Get the ArgoDSM node id where addr is physically backed. ">
<polygon fill="#ffffff" stroke="#000000" points="672,-134 672,-153 789,-153 789,-134 672,-134"/>
<text text-anchor="middle" x="730.5" y="-141" font-family="Helvetica,sans-Serif" font-size="10.00" fill="#000000">argo::get_homenode</text>
</a>
</g>
</g>
<!-- Node7&#45;&gt;Node8 -->
<g id="edge8" class="edge">
<title>Node7&#45;&gt;Node8</title>
<path fill="none" stroke="#191970" d="M620.686,-141.441C633.6124,-141.6834 647.7506,-141.9484 661.452,-142.2054"/>
<polygon fill="#191970" stroke="#191970" points="661.7533,-145.7115 671.8171,-142.3997 661.8845,-138.7127 661.7533,-145.7115"/>
</g>
<!-- Node9 -->
<g id="node10" class="node">
<title>Node9</title>
<g id="a_node10"><a xlink:href="classargo_1_1data__distribution_1_1global__ptr_a3e2cdd4d323ef91174615e27ab94e342.html#a3e2cdd4d323ef91174615e27ab94e342" target="_top" xlink:title="return the home node of the value pointed to, or a default value if the page has not yet been first&#45;t...">
<polygon fill="#ffffff" stroke="#000000" points="825,-175.5 825,-205.5 956,-205.5 956,-175.5 825,-175.5"/>
<text text-anchor="start" x="833" y="-193.5" font-family="Helvetica,sans-Serif" font-size="10.00" fill="#000000">argo::data_distribution</text>
<text text-anchor="middle" x="890.5" y="-182.5" font-family="Helvetica,sans-Serif" font-size="10.00" fill="#000000">::global_ptr::peek_node</text>
</a>
</g>
</g>
<!-- Node8&#45;&gt;Node9 -->
<g id="edge9" class="edge">
<title>Node8&#45;&gt;Node9</title>
<path fill="none" stroke="#191970" d="M762.8784,-153.0112C781.9686,-158.6189 806.7471,-165.8976 829.3856,-172.5476"/>
<polygon fill="#191970" stroke="#191970" points="828.6888,-175.9908 839.2699,-175.4512 830.6617,-169.2746 828.6888,-175.9908"/>
</g>
<!-- Node10 -->
<g id="node11" class="node">
<title>Node10</title>
<g id="a_node11"><a xlink:href="namespaceargo_a2f35b6b6e0af76fb8fb47f2031d6f58e.html#a2f35b6b6e0af76fb8fb47f2031d6f58e" target="_top" xlink:title="Get the block size of the current allocation policy. ">
<polygon fill="#ffffff" stroke="#000000" points="832.5,-137 832.5,-156 948.5,-156 948.5,-137 832.5,-137"/>
<text text-anchor="middle" x="890.5" y="-144" font-family="Helvetica,sans-Serif" font-size="10.00" fill="#000000">argo::get_block_size</text>
</a>
</g>
</g>
<!-- Node8&#45;&gt;Node10 -->
<g id="edge10" class="edge">
<title>Node8&#45;&gt;Node10</title>
<path fill="none" stroke="#191970" d="M789.1696,-144.6001C799.9585,-144.8023 811.3057,-145.0151 822.3452,-145.2221"/>
<polygon fill="#191970" stroke="#191970" points="822.3083,-148.7219 832.3722,-145.4101 822.4396,-141.7232 822.3083,-148.7219"/>
</g>
<!-- Node16 -->
<g id="node17" class="node">
<title>Node16</title>
<g id="a_node17"><a xlink:href="namespaceargo_a2b6b342c320b2a608d317a328fc46d83.html#a2b6b342c320b2a608d317a328fc46d83" target="_top" xlink:title="Size of memory which is the portion of memory owned by this node. ">
<polygon fill="#ffffff" stroke="#000000" points="841.5,-99 841.5,-118 939.5,-118 939.5,-99 841.5,-99"/>
<text text-anchor="middle" x="890.5" y="-106" font-family="Helvetica,sans-Serif" font-size="10.00" fill="#000000">argo::chunk_size</text>
</a>
</g>
</g>
<!-- Node8&#45;&gt;Node16 -->
<g id="edge17" class="edge">
<title>Node8&#45;&gt;Node16</title>
<path fill="none" stroke="#191970" d="M774.2207,-133.9361C793.6221,-129.692 816.6353,-124.6579 837.0477,-120.1927"/>
<polygon fill="#191970" stroke="#191970" points="837.8111,-123.6085 846.8322,-118.0523 836.3152,-116.7702 837.8111,-123.6085"/>
</g>
<!-- Node11 -->
<g id="node12" class="node">
<title>Node11</title>
<g id="a_node12"><a xlink:href="namespaceargo_1_1data__distribution_a2a70ed49553953957c3a28aa755d7ac8.html#a2a70ed49553953957c3a28aa755d7ac8" target="_top" xlink:title="based on the chosen policy, gets the policy block size ">
<polygon fill="#ffffff" stroke="#000000" points="992,-131.5 992,-161.5 1119,-161.5 1119,-131.5 992,-131.5"/>
<text text-anchor="start" x="1000" y="-149.5" font-family="Helvetica,sans-Serif" font-size="10.00" fill="#000000">argo::data_distribution</text>
<text text-anchor="middle" x="1055.5" y="-138.5" font-family="Helvetica,sans-Serif" font-size="10.00" fill="#000000">::policy_block_size</text>
</a>
</g>
</g>
<!-- Node10&#45;&gt;Node11 -->
<g id="edge11" class="edge">
<title>Node10&#45;&gt;Node11</title>
<path fill="none" stroke="#191970" d="M948.6728,-146.5C959.3993,-146.5 970.7284,-146.5 981.841,-146.5"/>
<polygon fill="#191970" stroke="#191970" points="981.9621,-150.0001 991.9621,-146.5 981.962,-143.0001 981.9621,-150.0001"/>
</g>
<!-- Node12 -->
<g id="node13" class="node">
<title>Node12</title>
<g id="a_node13"><a xlink:href="namespaceargo_1_1env_a30775a9aa41b956df7474a2c0cc317aa.html#a30775a9aa41b956df7474a2c0cc317aa" target="_top" xlink:title="get the allocation block size requested by environment variable ">
<polygon fill="#ffffff" stroke="#000000" points="1160.5,-180.5 1160.5,-210.5 1276.5,-210.5 1276.5,-180.5 1160.5,-180.5"/>
<text text-anchor="start" x="1168.5" y="-198.5" font-family="Helvetica,sans-Serif" font-size="10.00" fill="#000000">argo::env::allocation</text>
<text text-anchor="middle" x="1218.5" y="-187.5" font-family="Helvetica,sans-Serif" font-size="10.00" fill="#000000">_block_size</text>
</a>
</g>
</g>
<!-- Node11&#45;&gt;Node12 -->
<g id="edge12" class="edge">
<title>Node11&#45;&gt;Node12</title>
<path fill="none" stroke="#191970" d="M1105.7354,-161.6014C1122.3909,-166.6083 1141.0997,-172.2324 1158.4194,-177.439"/>
<polygon fill="#191970" stroke="#191970" points="1157.8462,-180.9213 1168.4305,-180.4484 1159.8615,-174.2177 1157.8462,-180.9213"/>
</g>
<!-- Node13 -->
<g id="node14" class="node">
<title>Node13</title>
<g id="a_node14"><a xlink:href="namespaceargo_1_1data__distribution_a1bb3f2dcecd237990e6dc67764f06860.html#a1bb3f2dcecd237990e6dc67764f06860" target="_top" xlink:title="identifies if we distribute data using a cyclic memory policy ">
<polygon fill="#ffffff" stroke="#000000" points="1155,-131.5 1155,-161.5 1282,-161.5 1282,-131.5 1155,-131.5"/>
<text text-anchor="start" x="1163" y="-149.5" font-family="Helvetica,sans-Serif" font-size="10.00" fill="#000000">argo::data_distribution</text>
<text text-anchor="middle" x="1218.5" y="-138.5" font-family="Helvetica,sans-Serif" font-size="10.00" fill="#000000">::is_cyclic_policy</text>
</a>
</g>
</g>
<!-- Node11&#45;&gt;Node13 -->
<g id="edge13" class="edge">
<title>Node11&#45;&gt;Node13</title>
<path fill="none" stroke="#191970" d="M1119.4541,-146.5C1127.7606,-146.5 1136.3224,-146.5 1144.7718,-146.5"/>
<polygon fill="#191970" stroke="#191970" points="1144.9977,-150.0001 1154.9977,-146.5 1144.9977,-143.0001 1144.9977,-150.0001"/>
</g>
<!-- Node15 -->
<g id="node16" class="node">
<title>Node15</title>
<g id="a_node16"><a xlink:href="namespaceargo_1_1data__distribution_a58576657391f45caf61bf0748a23b098.html#a58576657391f45caf61bf0748a23b098" target="_top" xlink:title="identifies if we distribute data using the first&#45;touch memory policy ">
<polygon fill="#ffffff" stroke="#000000" points="1155,-82.5 1155,-112.5 1282,-112.5 1282,-82.5 1155,-82.5"/>
<text text-anchor="start" x="1163" y="-100.5" font-family="Helvetica,sans-Serif" font-size="10.00" fill="#000000">argo::data_distribution</text>
<text text-anchor="middle" x="1218.5" y="-89.5" font-family="Helvetica,sans-Serif" font-size="10.00" fill="#000000">::is_first_touch_policy</text>
</a>
</g>
</g>
<!-- Node11&#45;&gt;Node15 -->
<g id="edge15" class="edge">
<title>Node11&#45;&gt;Node15</title>
<path fill="none" stroke="#191970" d="M1105.7354,-131.3986C1122.3909,-126.3917 1141.0997,-120.7676 1158.4194,-115.561"/>
<polygon fill="#191970" stroke="#191970" points="1159.8615,-118.7823 1168.4305,-112.5516 1157.8462,-112.0787 1159.8615,-118.7823"/>
</g>
<!-- Node14 -->
<g id="node15" class="node">
<title>Node14</title>
<g id="a_node15"><a xlink:href="namespaceargo_1_1env_a25a08cb2d0d11432d640ec7173063339.html#a25a08cb2d0d11432d640ec7173063339" target="_top" xlink:title="get the allocation policy requested by environment variable ">
<polygon fill="#ffffff" stroke="#000000" points="1318,-106.5 1318,-136.5 1434,-136.5 1434,-106.5 1318,-106.5"/>
<text text-anchor="start" x="1326" y="-124.5" font-family="Helvetica,sans-Serif" font-size="10.00" fill="#000000">argo::env::allocation</text>
<text text-anchor="middle" x="1376" y="-113.5" font-family="Helvetica,sans-Serif" font-size="10.00" fill="#000000">_policy</text>
</a>
</g>
</g>
<!-- Node13&#45;&gt;Node14 -->
<g id="edge14" class="edge">
<title>Node13&#45;&gt;Node14</title>
<path fill="none" stroke="#191970" d="M1282.1073,-136.4036C1290.5754,-135.0595 1299.2863,-133.6768 1307.8281,-132.3209"/>
<polygon fill="#191970" stroke="#191970" points="1308.4255,-135.77 1317.7531,-130.7455 1307.3281,-128.8566 1308.4255,-135.77"/>
</g>
<!-- Node15&#45;&gt;Node14 -->
<g id="edge16" class="edge">
<title>Node15&#45;&gt;Node14</title>
<path fill="none" stroke="#191970" d="M1282.1073,-107.1925C1290.5754,-108.4829 1299.2863,-109.8103 1307.8281,-111.1119"/>
<polygon fill="#191970" stroke="#191970" points="1307.34,-114.5778 1317.7531,-112.6243 1308.3945,-107.6577 1307.34,-114.5778"/>
</g>
<!-- Node19 -->
<g id="node20" class="node">
<title>Node19</title>
<g id="a_node20"><a xlink:href="swdsm_8cpp_a0edf823a78daed8888e8e18468460617.html#a0edf823a78daed8888e8e18468460617" target="_top" xlink:title="Gives homenode for a given address. ">
<polygon fill="#ffffff" stroke="#000000" points="686,-55 686,-74 775,-74 775,-55 686,-55"/>
<text text-anchor="middle" x="730.5" y="-62" font-family="Helvetica,sans-Serif" font-size="10.00" fill="#000000">get_homenode</text>
</a>
</g>
</g>
<!-- Node18&#45;&gt;Node19 -->
<g id="edge20" class="edge">
<title>Node18&#45;&gt;Node19</title>
<path fill="none" stroke="#191970" d="M613.7983,-64.5C632.8788,-64.5 655.5155,-64.5 675.7506,-64.5"/>
<polygon fill="#191970" stroke="#191970" points="675.7724,-68.0001 685.7724,-64.5 675.7723,-61.0001 675.7724,-68.0001"/>
</g>
<!-- Node21 -->
<g id="node22" class="node">
<title>Node21</title>
<g id="a_node22"><a xlink:href="swdsm_8cpp_ab58b1f9fa1b59d3060f241994979e18f.html#ab58b1f9fa1b59d3060f241994979e18f" target="_top" xlink:title="Gets the offset of an address on the local nodes part of the global memory. ">
<polygon fill="#ffffff" stroke="#000000" points="698,-12 698,-31 763,-31 763,-12 698,-12"/>
<text text-anchor="middle" x="730.5" y="-19" font-family="Helvetica,sans-Serif" font-size="10.00" fill="#000000">get_offset</text>
</a>
</g>
</g>
<!-- Node18&#45;&gt;Node21 -->
<g id="edge22" class="edge">
<title>Node18&#45;&gt;Node21</title>
<path fill="none" stroke="#191970" d="M606.0092,-54.9569C630.2295,-48.4477 662.4273,-39.7945 688.0101,-32.9192"/>
<polygon fill="#191970" stroke="#191970" points="689.0652,-36.2599 697.8141,-30.2843 687.2483,-29.4998 689.0652,-36.2599"/>
</g>
<!-- Node20 -->
<g id="node21" class="node">
<title>Node20</title>
<g id="a_node21"><a xlink:href="classargo_1_1data__distribution_1_1global__ptr_ac7d651586337d08cda18ef26ffcd34a0.html#ac7d651586337d08cda18ef26ffcd34a0" target="_top" xlink:title="return the home node of the value pointed to ">
<polygon fill="#ffffff" stroke="#000000" points="827,-49.5 827,-79.5 954,-79.5 954,-49.5 827,-49.5"/>
<text text-anchor="start" x="835" y="-67.5" font-family="Helvetica,sans-Serif" font-size="10.00" fill="#000000">argo::data_distribution</text>
<text text-anchor="middle" x="890.5" y="-56.5" font-family="Helvetica,sans-Serif" font-size="10.00" fill="#000000">::global_ptr::node</text>
</a>
</g>
</g>
<!-- Node19&#45;&gt;Node20 -->
<g id="edge21" class="edge">
<title>Node19&#45;&gt;Node20</title>
<path fill="none" stroke="#191970" d="M775.0689,-64.5C787.9412,-64.5 802.3472,-64.5 816.5013,-64.5"/>
<polygon fill="#191970" stroke="#191970" points="816.7376,-68.0001 826.7375,-64.5 816.7375,-61.0001 816.7376,-68.0001"/>
</g>
<!-- Node22 -->
<g id="node23" class="node">
<title>Node22</title>
<g id="a_node23"><a xlink:href="classargo_1_1data__distribution_1_1global__ptr_ad8c21c408fa2b926cfd9acfd87e8e4e6.html#ad8c21c408fa2b926cfd9acfd87e8e4e6" target="_top" xlink:title="return the offset on the home node&#39;s local memory share ">
<polygon fill="#ffffff" stroke="#000000" points="827,-.5 827,-30.5 954,-30.5 954,-.5 827,-.5"/>
<text text-anchor="start" x="835" y="-18.5" font-family="Helvetica,sans-Serif" font-size="10.00" fill="#000000">argo::data_distribution</text>
<text text-anchor="middle" x="890.5" y="-7.5" font-family="Helvetica,sans-Serif" font-size="10.00" fill="#000000">::global_ptr::offset</text>
</a>
</g>
</g>
<!-- Node21&#45;&gt;Node22 -->
<g id="edge23" class="edge">
<title>Node21&#45;&gt;Node22</title>
<path fill="none" stroke="#191970" d="M763.2645,-20.2713C778.764,-19.6901 797.9491,-18.9707 816.6797,-18.2683"/>
<polygon fill="#191970" stroke="#191970" points="816.8488,-21.7645 826.7106,-17.8921 816.5864,-14.7694 816.8488,-21.7645"/>
</g>
<!-- Node24&#45;&gt;Node5 -->
<g id="edge26" class="edge">
<title>Node24&#45;&gt;Node5</title>
<path fill="none" stroke="#191970" d="M320.3635,-104.6161C331.1077,-104.3809 342.9697,-104.1211 354.5956,-103.8665"/>
<polygon fill="#191970" stroke="#191970" points="354.7966,-107.3631 364.7176,-103.6449 354.6433,-100.3647 354.7966,-107.3631"/>
</g>
</g>
</svg>
        <g id="navigator" transform="translate(0 0)" fill="#404254">
                <rect fill="#f2f5e9" fill-opacity="0.5" stroke="#606060" stroke-width=".5" x="0" y="0" width="60" height="60"/>
                <use id="zoomplus" xlink:href="#zoomPlus" x="17" y="9" onmousedown="handleZoom(evt,'in')"/>
                <use id="zoomminus" xlink:href="#zoomMin" x="42" y="9" onmousedown="handleZoom(evt,'out')"/>
                <use id="reset" xlink:href="#resetDef" x="30" y="36" onmousedown="handleReset()"/>
                <g id="arrowUp" xlink:href="#dirArrow" transform="translate(30 24)" onmousedown="handlePan(0,-1)">
                  <use xlink:href="#rim" fill="#404040">
                        <set attributeName="fill" to="#808080" begin="arrowUp.mouseover" end="arrowUp.mouseout"/>
                  </use>
                  <path fill="none" stroke="white" stroke-width="1.5" d="M0,-3.0v7 M-2.5,-0.5L0,-3.0L2.5,-0.5"/>
                </g>
                <g id="arrowRight" xlink:href="#dirArrow" transform="rotate(90) translate(36 -43)" onmousedown="handlePan(1,0)">
                  <use xlink:href="#rim" fill="#404040">
                        <set attributeName="fill" to="#808080" begin="arrowRight.mouseover" end="arrowRight.mouseout"/>
                  </use>
                  <path fill="none" stroke="white" stroke-width="1.5" d="M0,-3.0v7 M-2.5,-0.5L0,-3.0L2.5,-0.5"/>
                </g>
                <g id="arrowDown" xlink:href="#dirArrow" transform="rotate(180) translate(-30 -48)" onmousedown="handlePan(0,1)">
                  <use xlink:href="#rim" fill="#404040">
                        <set attributeName="fill" to="#808080" begin="arrowDown.mouseover" end="arrowDown.mouseout"/>
                  </use>
                  <path fill="none" stroke="white" stroke-width="1.5" d="M0,-3.0v7 M-2.5,-0.5L0,-3.0L2.5,-0.5"/>
                </g>
                <g id="arrowLeft" xlink:href="#dirArrow" transform="rotate(270) translate(-36 17)" onmousedown="handlePan(-1,0)">
                  <use xlink:href="#rim" fill="#404040">
                        <set attributeName="fill" to="#808080" begin="arrowLeft.mouseover" end="arrowLeft.mouseout"/>
                  </use>
                  <path fill="none" stroke="white" stroke-width="1.5" d="M0,-3.0v7 M-2.5,-0.5L0,-3.0L2.5,-0.5"/>
                </g>
        </g>
        <svg viewBox="0 0 15 15" width="100%" height="30px" preserveAspectRatio="xMaxYMin meet">
         <g id="arrow_out" transform="scale(0.3 0.3)">
          <a xlink:href="swdsm_8h_ac0b665f72bc2a28dc663ed204c526e1b_ac0b665f72bc2a28dc663ed204c526e1b_cgraph_org.svg" target="_base">
           <rect id="button" ry="5" rx="5" y="6" x="6" height="38" width="38"
                fill="#f2f5e9" fill-opacity="0.5" stroke="#606060" stroke-width="1.0"/>
           <path id="arrow"
             d="M 11.500037,31.436501 C 11.940474,20.09759 22.043105,11.32322 32.158766,21.979434 L 37.068811,17.246167 C 37.068811,17.246167 37.088388,32 37.088388,32 L 22.160133,31.978069 C 22.160133,31.978069 26.997745,27.140456 26.997745,27.140456 C 18.528582,18.264221 13.291696,25.230495 11.500037,31.436501 z"
             style="fill:#404040;"/>
          </a>
         </g>
        </svg>
</svg>
