<?xml version="1.0" encoding="UTF-8" standalone="no"?>
<!DOCTYPE svg PUBLIC "-//W3C//DTD SVG 1.1//EN"
 "http://www.w3.org/Graphics/SVG/1.1/DTD/svg11.dtd">
<!-- Generated by graphviz version 2.40.1 (20161225.0304)
 -->
<!-- Title: load_cache_entry Pages: 1 -->
<!--zoomable 420 -->
<svg id="main" version="1.1" xmlns="http://www.w3.org/2000/svg" xmlns:xlink="http://www.w3.org/1999/xlink" xml:space="preserve" onload="init(evt)">
<style type="text/css"><![CDATA[
.edge:hover path { stroke: red; }
.edge:hover polygon { stroke: red; fill: red; }
]]></style>
<script type="text/javascript"><![CDATA[
var edges = document.getElementsByTagName('g');
if (edges && edges.length) {
  for (var i=0;i<edges.length;i++) {
    if (edges[i].id.substr(0,4)=='edge') {
      edges[i].setAttribute('class','edge');
    }
  }
}
]]></script>
        <defs>
                <circle id="rim" cx="0" cy="0" r="7"/>
                <circle id="rim2" cx="0" cy="0" r="3.5"/>
                <g id="zoomPlus">
                        <use xlink:href="#rim" fill="#404040">
                                <set attributeName="fill" to="#808080" begin="zoomplus.mouseover" end="zoomplus.mouseout"/>
                        </use>
                        <path d="M-4,0h8M0,-4v8" fill="none" stroke="white" stroke-width="1.5" pointer-events="none"/>
                </g>
                <g id="zoomMin">
                        <use xlink:href="#rim" fill="#404040">
                                <set attributeName="fill" to="#808080" begin="zoomminus.mouseover" end="zoomminus.mouseout"/>
                        </use>
                        <path d="M-4,0h8" fill="none" stroke="white" stroke-width="1.5" pointer-events="none"/>
                </g>
                <g id="dirArrow">
                        <path fill="none" stroke="white" stroke-width="1.5" d="M0,-3.0v7 M-2.5,-0.5L0,-3.0L2.5,-0.5"/>
                </g>
               <g id="resetDef">
                       <use xlink:href="#rim2" fill="#404040">
                               <set attributeName="fill" to="#808080" begin="reset.mouseover" end="reset.mouseout"/>
                       </use>
               </g>
        </defs>

<script type="text/javascript">
var viewWidth = 587;
var viewHeight = 420;
var sectionId = 'dynsection-0';
</script>
<script xlink:href="svgpan.js"/>
<svg id="graph" class="graph">
<g id="viewport">
<title>load_cache_entry</title>
<polygon fill="#ffffff" stroke="transparent" points="-4,4 -4,-416 583,-416 583,4 -4,4"/>
<!-- Node0 -->
<g id="node1" class="node">
<title>Node0</title>
<polygon fill="#bfbfbf" stroke="#000000" points="0,-202.5 0,-221.5 102,-221.5 102,-202.5 0,-202.5"/>
<text text-anchor="middle" x="51" y="-209.5" font-family="Helvetica,sans-Serif" font-size="10.00" fill="#000000">load_cache_entry</text>
</g>
<!-- Node1 -->
<g id="node2" class="node">
<title>Node1</title>
<g id="a_node2"><a xlink:href="swdsm_8cpp_af770e3f703653ddb0967b85d88881ab7.html#af770e3f703653ddb0967b85d88881ab7" target="_top" xlink:title="Gives the ArgoDSM node id for the local process. ">
<polygon fill="#ffffff" stroke="#000000" points="170.5,-392.5 170.5,-411.5 213.5,-411.5 213.5,-392.5 170.5,-392.5"/>
<text text-anchor="middle" x="192" y="-399.5" font-family="Helvetica,sans-Serif" font-size="10.00" fill="#000000">getID</text>
</a>
</g>
</g>
<!-- Node0&#45;&gt;Node1 -->
<g id="edge1" class="edge">
<title>Node0&#45;&gt;Node1</title>
<path fill="none" stroke="#191970" d="M53.2184,-221.7015C60.3094,-250.5552 85.1265,-336.6974 138,-383 144.4317,-388.6324 152.6384,-392.6249 160.7009,-395.4436"/>
<polygon fill="#191970" stroke="#191970" points="159.751,-398.8127 170.3349,-398.331 161.7607,-392.1074 159.751,-398.8127"/>
</g>
<!-- Node2 -->
<g id="node3" class="node">
<title>Node2</title>
<g id="a_node3"><a xlink:href="swdsm_8cpp_acf216cf340937a920846c9a5c1bf3b0b.html#acf216cf340937a920846c9a5c1bf3b0b" target="_top" xlink:title="Gets cacheindex for a given address. ">
<polygon fill="#ffffff" stroke="#000000" points="147.5,-354.5 147.5,-373.5 236.5,-373.5 236.5,-354.5 147.5,-354.5"/>
<text text-anchor="middle" x="192" y="-361.5" font-family="Helvetica,sans-Serif" font-size="10.00" fill="#000000">getCacheIndex</text>
</a>
</g>
</g>
<!-- Node0&#45;&gt;Node2 -->
<g id="edge2" class="edge">
<title>Node0&#45;&gt;Node2</title>
<path fill="none" stroke="#191970" d="M54.6829,-221.5772C64.4756,-245.8086 93.4871,-310.1009 138,-345 140.3097,-346.8108 142.8051,-348.4567 145.4126,-349.9516"/>
<polygon fill="#191970" stroke="#191970" points="144.0851,-353.1992 154.6031,-354.4728 147.1751,-346.918 144.0851,-353.1992"/>
</g>
<!-- Node3 -->
<g id="node4" class="node">
<title>Node3</title>
<g id="a_node4"><a xlink:href="swdsm_8cpp_ad56e0108259917bf97090212b3927f55.html#ad56e0108259917bf97090212b3927f55" target="_top" xlink:title="align an offset into a memory region to the beginning of its size block ">
<polygon fill="#ffffff" stroke="#000000" points="143,-316.5 143,-335.5 241,-335.5 241,-316.5 143,-316.5"/>
<text text-anchor="middle" x="192" y="-323.5" font-family="Helvetica,sans-Serif" font-size="10.00" fill="#000000">align_backwards</text>
</a>
</g>
</g>
<!-- Node0&#45;&gt;Node3 -->
<g id="edge3" class="edge">
<title>Node0&#45;&gt;Node3</title>
<path fill="none" stroke="#191970" d="M58.1825,-221.5788C71.9659,-239.4186 103.8068,-278.0872 138,-302 143.4069,-305.7813 149.5052,-309.1774 155.6063,-312.1432"/>
<polygon fill="#191970" stroke="#191970" points="154.5438,-315.5043 165.097,-316.4431 157.4326,-309.1281 154.5438,-315.5043"/>
</g>
<!-- Node4 -->
<g id="node5" class="node">
<title>Node4</title>
<g id="a_node5"><a xlink:href="swdsm_8cpp_a0edf823a78daed8888e8e18468460617.html#a0edf823a78daed8888e8e18468460617" target="_top" xlink:title="Gives homenode for a given address. ">
<polygon fill="#ffffff" stroke="#000000" points="304.5,-275.5 304.5,-294.5 393.5,-294.5 393.5,-275.5 304.5,-275.5"/>
<text text-anchor="middle" x="349" y="-282.5" font-family="Helvetica,sans-Serif" font-size="10.00" fill="#000000">get_homenode</text>
</a>
</g>
</g>
<!-- Node0&#45;&gt;Node4 -->
<g id="edge4" class="edge">
<title>Node0&#45;&gt;Node4</title>
<path fill="none" stroke="#191970" d="M61.5724,-221.5434C77.0567,-234.8713 107.3991,-258.5921 138,-269 189.0356,-286.3581 250.8882,-289.074 294.3899,-288.2302"/>
<polygon fill="#191970" stroke="#191970" points="294.5792,-291.7266 304.4835,-287.9644 294.3948,-284.729 294.5792,-291.7266"/>
</g>
<!-- Node6 -->
<g id="node7" class="node">
<title>Node6</title>
<g id="a_node7"><a xlink:href="swdsm_8cpp_ab58b1f9fa1b59d3060f241994979e18f.html#ab58b1f9fa1b59d3060f241994979e18f" target="_top" xlink:title="Gets the offset of an address on the local nodes part of the global memory. ">
<polygon fill="#ffffff" stroke="#000000" points="316.5,-221.5 316.5,-240.5 381.5,-240.5 381.5,-221.5 316.5,-221.5"/>
<text text-anchor="middle" x="349" y="-228.5" font-family="Helvetica,sans-Serif" font-size="10.00" fill="#000000">get_offset</text>
</a>
</g>
</g>
<!-- Node0&#45;&gt;Node6 -->
<g id="edge6" class="edge">
<title>Node0&#45;&gt;Node6</title>
<path fill="none" stroke="#191970" d="M102.228,-215.2662C159.7959,-218.9367 252.2265,-224.8299 306.1285,-228.2666"/>
<polygon fill="#191970" stroke="#191970" points="306.171,-231.7763 316.3734,-228.9198 306.6164,-224.7905 306.171,-231.7763"/>
</g>
<!-- Node8 -->
<g id="node9" class="node">
<title>Node8</title>
<g id="a_node9"><a xlink:href="swdsm_8cpp_a4c0ee0be20a4d5b19eef1a568e6ce084.html#a4c0ee0be20a4d5b19eef1a568e6ce084" target="_top" xlink:title="Gives homenode for a given address. ">
<polygon fill="#ffffff" stroke="#000000" points="143,-164.5 143,-183.5 241,-183.5 241,-164.5 143,-164.5"/>
<text text-anchor="middle" x="192" y="-171.5" font-family="Helvetica,sans-Serif" font-size="10.00" fill="#000000">peek_homenode</text>
</a>
</g>
</g>
<!-- Node0&#45;&gt;Node8 -->
<g id="edge8" class="edge">
<title>Node0&#45;&gt;Node8</title>
<path fill="none" stroke="#191970" d="M86.5803,-202.411C104.782,-197.5056 127.1384,-191.4804 146.5723,-186.2429"/>
<polygon fill="#191970" stroke="#191970" points="147.6864,-189.5676 156.4311,-183.5859 145.8648,-182.8088 147.6864,-189.5676"/>
</g>
<!-- Node10 -->
<g id="node11" class="node">
<title>Node10</title>
<g id="a_node11"><a xlink:href="swdsm_8cpp_a6383bfb5455d7790849abf059e2db37f.html#a6383bfb5455d7790849abf059e2db37f" target="_top" xlink:title="Gets the offset of an address on the local nodes part of the global memory. ">
<polygon fill="#ffffff" stroke="#000000" points="155,-126.5 155,-145.5 229,-145.5 229,-126.5 155,-126.5"/>
<text text-anchor="middle" x="192" y="-133.5" font-family="Helvetica,sans-Serif" font-size="10.00" fill="#000000">peek_offset</text>
</a>
</g>
</g>
<!-- Node0&#45;&gt;Node10 -->
<g id="edge10" class="edge">
<title>Node0&#45;&gt;Node10</title>
<path fill="none" stroke="#191970" d="M63.391,-202.488C79.7648,-190.2533 109.8348,-168.9251 138,-155 142.1204,-152.9628 146.5145,-151.0416 150.949,-149.2609"/>
<polygon fill="#191970" stroke="#191970" points="152.5169,-152.4099 160.6306,-145.5967 150.0391,-145.8631 152.5169,-152.4099"/>
</g>
<!-- Node12 -->
<g id="node13" class="node">
<title>Node12</title>
<g id="a_node13"><a xlink:href="swdsm_8cpp_ae0f2d0961e80b2903b3f54c9e6c68658.html#ae0f2d0961e80b2903b3f54c9e6c68658" target="_top" xlink:title="stores a page remotely &#45; only writing back what has been written locally since last synchronization p...">
<polygon fill="#ffffff" stroke="#000000" points="149,-240.5 149,-259.5 235,-259.5 235,-240.5 149,-240.5"/>
<text text-anchor="middle" x="192" y="-247.5" font-family="Helvetica,sans-Serif" font-size="10.00" fill="#000000">storepageDIFF</text>
</a>
</g>
</g>
<!-- Node0&#45;&gt;Node12 -->
<g id="edge12" class="edge">
<title>Node0&#45;&gt;Node12</title>
<path fill="none" stroke="#191970" d="M86.5803,-221.589C104.782,-226.4944 127.1384,-232.5196 146.5723,-237.7571"/>
<polygon fill="#191970" stroke="#191970" points="145.8648,-241.1912 156.4311,-240.4141 147.6864,-234.4324 145.8648,-241.1912"/>
</g>
<!-- Node13 -->
<g id="node14" class="node">
<title>Node13</title>
<g id="a_node14"><a xlink:href="classwrite__buffer_a1fe5684a5d07bd1418b0d66663f9bfdf.html#a1fe5684a5d07bd1418b0d66663f9bfdf" target="_top" xlink:title="If val exists in buffer, delete it. Else, do nothing. ">
<polygon fill="#ffffff" stroke="#000000" points="138,-88.5 138,-107.5 246,-107.5 246,-88.5 138,-88.5"/>
<text text-anchor="middle" x="192" y="-95.5" font-family="Helvetica,sans-Serif" font-size="10.00" fill="#000000">write_buffer::erase</text>
</a>
</g>
</g>
<!-- Node0&#45;&gt;Node13 -->
<g id="edge15" class="edge">
<title>Node0&#45;&gt;Node13</title>
<path fill="none" stroke="#191970" d="M57.2671,-202.4834C70.1808,-183.5764 101.6134,-141.0388 138,-117 140.9502,-115.0509 144.1234,-113.2767 147.4006,-111.6662"/>
<polygon fill="#191970" stroke="#191970" points="149.0517,-114.7643 156.813,-107.5524 146.2483,-108.3502 149.0517,-114.7643"/>
</g>
<!-- Node14 -->
<g id="node15" class="node">
<title>Node14</title>
<g id="a_node15"><a xlink:href="swdsm_8cpp_adfcbbdedcad0833d49e3111447061689.html#adfcbbdedcad0833d49e3111447061689" target="_top" xlink:title="Gives an index to the sharer/writer vector depending on the address. ">
<polygon fill="#ffffff" stroke="#000000" points="141.5,-39 141.5,-69 242.5,-69 242.5,-39 141.5,-39"/>
<text text-anchor="start" x="149.5" y="-57" font-family="Helvetica,sans-Serif" font-size="10.00" fill="#000000">get_classification</text>
<text text-anchor="middle" x="192" y="-46" font-family="Helvetica,sans-Serif" font-size="10.00" fill="#000000">_index</text>
</a>
</g>
</g>
<!-- Node0&#45;&gt;Node14 -->
<g id="edge16" class="edge">
<title>Node0&#45;&gt;Node14</title>
<path fill="none" stroke="#191970" d="M55.0385,-202.3216C65.4511,-178.4057 95.4079,-115.7984 138,-79 139.9153,-77.3453 141.9585,-75.7783 144.0877,-74.2974"/>
<polygon fill="#191970" stroke="#191970" points="145.974,-77.2461 152.6374,-69.009 142.2916,-71.293 145.974,-77.2461"/>
</g>
<!-- Node15 -->
<g id="node16" class="node">
<title>Node15</title>
<g id="a_node16"><a xlink:href="swdsm_8cpp_ae78e4f64152ef166f2a0f01a33b44050.html#ae78e4f64152ef166f2a0f01a33b44050" target="_top" xlink:title="Checks if something is power of 2. ">
<polygon fill="#ffffff" stroke="#000000" points="156,-.5 156,-19.5 228,-19.5 228,-.5 156,-.5"/>
<text text-anchor="middle" x="192" y="-7.5" font-family="Helvetica,sans-Serif" font-size="10.00" fill="#000000">isPowerOf2</text>
</a>
</g>
</g>
<!-- Node0&#45;&gt;Node15 -->
<g id="edge17" class="edge">
<title>Node0&#45;&gt;Node15</title>
<path fill="none" stroke="#191970" d="M52.8245,-202.4872C59.0595,-172.5228 82.2976,-79.1174 138,-29 140.6286,-26.635 143.5695,-24.5604 146.6852,-22.7411"/>
<polygon fill="#191970" stroke="#191970" points="148.3791,-25.8086 155.8144,-18.2611 145.2952,-19.5245 148.3791,-25.8086"/>
</g>
<!-- Node5 -->
<g id="node6" class="node">
<title>Node5</title>
<g id="a_node6"><a xlink:href="classargo_1_1data__distribution_1_1global__ptr_ac7d651586337d08cda18ef26ffcd34a0.html#ac7d651586337d08cda18ef26ffcd34a0" target="_top" xlink:title="return the home node of the value pointed to ">
<polygon fill="#ffffff" stroke="#000000" points="452,-270 452,-300 579,-300 579,-270 452,-270"/>
<text text-anchor="start" x="460" y="-288" font-family="Helvetica,sans-Serif" font-size="10.00" fill="#000000">argo::data_distribution</text>
<text text-anchor="middle" x="515.5" y="-277" font-family="Helvetica,sans-Serif" font-size="10.00" fill="#000000">::global_ptr::node</text>
</a>
</g>
</g>
<!-- Node4&#45;&gt;Node5 -->
<g id="edge5" class="edge">
<title>Node4&#45;&gt;Node5</title>
<path fill="none" stroke="#191970" d="M393.6189,-285C408.4563,-285 425.3972,-285 441.8331,-285"/>
<polygon fill="#191970" stroke="#191970" points="441.9783,-288.5001 451.9782,-285 441.9782,-281.5001 441.9783,-288.5001"/>
</g>
<!-- Node7 -->
<g id="node8" class="node">
<title>Node7</title>
<g id="a_node8"><a xlink:href="classargo_1_1data__distribution_1_1global__ptr_ad8c21c408fa2b926cfd9acfd87e8e4e6.html#ad8c21c408fa2b926cfd9acfd87e8e4e6" target="_top" xlink:title="return the offset on the home node&#39;s local memory share ">
<polygon fill="#ffffff" stroke="#000000" points="452,-216 452,-246 579,-246 579,-216 452,-216"/>
<text text-anchor="start" x="460" y="-234" font-family="Helvetica,sans-Serif" font-size="10.00" fill="#000000">argo::data_distribution</text>
<text text-anchor="middle" x="515.5" y="-223" font-family="Helvetica,sans-Serif" font-size="10.00" fill="#000000">::global_ptr::offset</text>
</a>
</g>
</g>
<!-- Node6&#45;&gt;Node7 -->
<g id="edge7" class="edge">
<title>Node6&#45;&gt;Node7</title>
<path fill="none" stroke="#191970" d="M381.895,-231C399.0798,-231 420.8501,-231 441.8024,-231"/>
<polygon fill="#191970" stroke="#191970" points="441.9987,-234.5001 451.9987,-231 441.9986,-227.5001 441.9987,-234.5001"/>
</g>
<!-- Node9 -->
<g id="node10" class="node">
<title>Node9</title>
<g id="a_node10"><a xlink:href="classargo_1_1data__distribution_1_1global__ptr_a3e2cdd4d323ef91174615e27ab94e342.html#a3e2cdd4d323ef91174615e27ab94e342" target="_top" xlink:title="return the home node of the value pointed to, or a default value if the page has not yet been first&#45;t...">
<polygon fill="#ffffff" stroke="#000000" points="283.5,-162 283.5,-192 414.5,-192 414.5,-162 283.5,-162"/>
<text text-anchor="start" x="291.5" y="-180" font-family="Helvetica,sans-Serif" font-size="10.00" fill="#000000">argo::data_distribution</text>
<text text-anchor="middle" x="349" y="-169" font-family="Helvetica,sans-Serif" font-size="10.00" fill="#000000">::global_ptr::peek_node</text>
</a>
</g>
</g>
<!-- Node8&#45;&gt;Node9 -->
<g id="edge9" class="edge">
<title>Node8&#45;&gt;Node9</title>
<path fill="none" stroke="#191970" d="M241.245,-174.941C251.331,-175.1337 262.1688,-175.3408 272.9451,-175.5467"/>
<polygon fill="#191970" stroke="#191970" points="273.1666,-179.0515 283.2317,-175.7433 273.3004,-172.0528 273.1666,-179.0515"/>
</g>
<!-- Node11 -->
<g id="node12" class="node">
<title>Node11</title>
<g id="a_node12"><a xlink:href="classargo_1_1data__distribution_1_1global__ptr_aac6a3f5ce7b21b72cb7179c82aa1ffbc.html#aac6a3f5ce7b21b72cb7179c82aa1ffbc" target="_top" xlink:title="return the offset on the home node&#39;s local memory share or a default value if the page has not yet be...">
<polygon fill="#ffffff" stroke="#000000" points="282,-113 282,-143 416,-143 416,-113 282,-113"/>
<text text-anchor="start" x="290" y="-131" font-family="Helvetica,sans-Serif" font-size="10.00" fill="#000000">argo::data_distribution</text>
<text text-anchor="middle" x="349" y="-120" font-family="Helvetica,sans-Serif" font-size="10.00" fill="#000000">::global_ptr::peek_offset</text>
</a>
</g>
</g>
<!-- Node10&#45;&gt;Node11 -->
<g id="edge11" class="edge">
<title>Node10&#45;&gt;Node11</title>
<path fill="none" stroke="#191970" d="M229.2068,-134.1041C242.0264,-133.4509 256.8999,-132.693 271.7157,-131.9381"/>
<polygon fill="#191970" stroke="#191970" points="272.1287,-135.4216 281.9376,-131.4172 271.7724,-128.4307 272.1287,-135.4216"/>
</g>
<!-- Node12&#45;&gt;Node4 -->
<g id="edge13" class="edge">
<title>Node12&#45;&gt;Node4</title>
<path fill="none" stroke="#191970" d="M234.9009,-259.5639C253.8521,-263.7887 276.315,-268.7963 296.2766,-273.2464"/>
<polygon fill="#191970" stroke="#191970" points="295.6289,-276.6878 306.1509,-275.4477 297.1521,-269.8556 295.6289,-276.6878"/>
</g>
<!-- Node12&#45;&gt;Node6 -->
<g id="edge14" class="edge">
<title>Node12&#45;&gt;Node6</title>
<path fill="none" stroke="#191970" d="M235.3165,-244.7579C257.4126,-242.0838 284.1978,-238.8423 306.2175,-236.1775"/>
<polygon fill="#191970" stroke="#191970" points="306.7762,-239.6355 316.2832,-234.9594 305.9351,-232.6862 306.7762,-239.6355"/>
</g>
</g>
</svg>
        <g id="navigator" transform="translate(0 0)" fill="#404254">
                <rect fill="#f2f5e9" fill-opacity="0.5" stroke="#606060" stroke-width=".5" x="0" y="0" width="60" height="60"/>
                <use id="zoomplus" xlink:href="#zoomPlus" x="17" y="9" onmousedown="handleZoom(evt,'in')"/>
                <use id="zoomminus" xlink:href="#zoomMin" x="42" y="9" onmousedown="handleZoom(evt,'out')"/>
                <use id="reset" xlink:href="#resetDef" x="30" y="36" onmousedown="handleReset()"/>
                <g id="arrowUp" xlink:href="#dirArrow" transform="translate(30 24)" onmousedown="handlePan(0,-1)">
                  <use xlink:href="#rim" fill="#404040">
                        <set attributeName="fill" to="#808080" begin="arrowUp.mouseover" end="arrowUp.mouseout"/>
                  </use>
                  <path fill="none" stroke="white" stroke-width="1.5" d="M0,-3.0v7 M-2.5,-0.5L0,-3.0L2.5,-0.5"/>
                </g>
                <g id="arrowRight" xlink:href="#dirArrow" transform="rotate(90) translate(36 -43)" onmousedown="handlePan(1,0)">
                  <use xlink:href="#rim" fill="#404040">
                        <set attributeName="fill" to="#808080" begin="arrowRight.mouseover" end="arrowRight.mouseout"/>
                  </use>
                  <path fill="none" stroke="white" stroke-width="1.5" d="M0,-3.0v7 M-2.5,-0.5L0,-3.0L2.5,-0.5"/>
                </g>
                <g id="arrowDown" xlink:href="#dirArrow" transform="rotate(180) translate(-30 -48)" onmousedown="handlePan(0,1)">
                  <use xlink:href="#rim" fill="#404040">
                        <set attributeName="fill" to="#808080" begin="arrowDown.mouseover" end="arrowDown.mouseout"/>
                  </use>
                  <path fill="none" stroke="white" stroke-width="1.5" d="M0,-3.0v7 M-2.5,-0.5L0,-3.0L2.5,-0.5"/>
                </g>
                <g id="arrowLeft" xlink:href="#dirArrow" transform="rotate(270) translate(-36 17)" onmousedown="handlePan(-1,0)">
                  <use xlink:href="#rim" fill="#404040">
                        <set attributeName="fill" to="#808080" begin="arrowLeft.mouseover" end="arrowLeft.mouseout"/>
                  </use>
                  <path fill="none" stroke="white" stroke-width="1.5" d="M0,-3.0v7 M-2.5,-0.5L0,-3.0L2.5,-0.5"/>
                </g>
        </g>
        <svg viewBox="0 0 15 15" width="100%" height="30px" preserveAspectRatio="xMaxYMin meet">
         <g id="arrow_out" transform="scale(0.3 0.3)">
          <a xlink:href="swdsm_8cpp_a97adb774a1a5a7a3505416a171c570e9_a97adb774a1a5a7a3505416a171c570e9_cgraph_org.svg" target="_base">
           <rect id="button" ry="5" rx="5" y="6" x="6" height="38" width="38"
                fill="#f2f5e9" fill-opacity="0.5" stroke="#606060" stroke-width="1.0"/>
           <path id="arrow"
             d="M 11.500037,31.436501 C 11.940474,20.09759 22.043105,11.32322 32.158766,21.979434 L 37.068811,17.246167 C 37.068811,17.246167 37.088388,32 37.088388,32 L 22.160133,31.978069 C 22.160133,31.978069 26.997745,27.140456 26.997745,27.140456 C 18.528582,18.264221 13.291696,25.230495 11.500037,31.436501 z"
             style="fill:#404040;"/>
          </a>
         </g>
        </svg>
</svg>
