<?xml version="1.0" encoding="UTF-8" standalone="no"?>
<!DOCTYPE svg PUBLIC "-//W3C//DTD SVG 1.1//EN"
 "http://www.w3.org/Graphics/SVG/1.1/DTD/svg11.dtd">
<!-- Generated by graphviz version 2.40.1 (20161225.0304)
 -->
<!-- Title: load_cache_entry Pages: 1 -->
<svg width="485pt" height="84pt"
 viewBox="0.00 0.00 485.00 84.00" xmlns="http://www.w3.org/2000/svg" xmlns:xlink="http://www.w3.org/1999/xlink">
<g id="graph0" class="graph" transform="scale(1 1) rotate(0) translate(4 80)">
<title>load_cache_entry</title>
<polygon fill="#ffffff" stroke="transparent" points="-4,4 -4,-80 481,-80 481,4 -4,4"/>
<!-- Node1 -->
<g id="node1" class="node">
<title>Node1</title>
<polygon fill="#bfbfbf" stroke="#000000" points="0,-28.5 0,-47.5 102,-47.5 102,-28.5 0,-28.5"/>
<text text-anchor="middle" x="51" y="-35.5" font-family="Helvetica,sans-Serif" font-size="10.00" fill="#000000">load_cache_entry</text>
</g>
<!-- Node2 -->
<g id="node2" class="node">
<title>Node2</title>
<g id="a_node2"><a xlink:href="swdsm_8h_adb24c11067d42b9bc8515a78a524e2c7.html#adb24c11067d42b9bc8515a78a524e2c7" target="_top" xlink:title="Catches memory accesses to memory not yet cached in ArgoDSM. Launches remote requests for memory not ...">
<polygon fill="#ffffff" stroke="#000000" points="148.5,-56.5 148.5,-75.5 201.5,-75.5 201.5,-56.5 148.5,-56.5"/>
<text text-anchor="middle" x="175" y="-63.5" font-family="Helvetica,sans-Serif" font-size="10.00" fill="#000000">handler</text>
</a>
</g>
</g>
<!-- Node1&#45;&gt;Node2 -->
<g id="edge1" class="edge">
<title>Node1&#45;&gt;Node2</title>
<path fill="none" stroke="#191970" d="M103.3636,-49.824C118.8818,-53.3282 135.2257,-57.0187 148.3775,-59.9885"/>
<polygon fill="#191970" stroke="#191970" points="103.8523,-46.3463 93.3269,-47.5577 102.3104,-53.1744 103.8523,-46.3463"/>
</g>
<!-- Node5 -->
<g id="node5" class="node">
<title>Node5</title>
<g id="a_node5"><a xlink:href="swdsm_8h_aa5da42b70088b546b0f16d0a8031cfd1.html#aa5da42b70088b546b0f16d0a8031cfd1" target="_top" xlink:title="Gets the offset of an address on the local nodes part of the global memory. ">
<polygon fill="#ffffff" stroke="#000000" points="138,-.5 138,-19.5 212,-19.5 212,-.5 138,-.5"/>
<text text-anchor="middle" x="175" y="-7.5" font-family="Helvetica,sans-Serif" font-size="10.00" fill="#000000">peek_offset</text>
</a>
</g>
</g>
<!-- Node1&#45;&gt;Node5 -->
<g id="edge4" class="edge">
<title>Node1&#45;&gt;Node5</title>
<path fill="none" stroke="#191970" d="M103.3534,-26.1783C114.9457,-23.5606 126.9993,-20.8389 137.8392,-18.3911"/>
<polygon fill="#191970" stroke="#191970" points="102.3104,-22.8256 93.3269,-28.4423 103.8523,-29.6537 102.3104,-22.8256"/>
</g>
<!-- Node3 -->
<g id="node3" class="node">
<title>Node3</title>
<g id="a_node3"><a xlink:href="swdsm_8h_a31ba60e8ddccfa922da8d7e6a10f7b1d.html#a31ba60e8ddccfa922da8d7e6a10f7b1d" target="_top" xlink:title="Initializes ArgoDSM runtime. ">
<polygon fill="#ffffff" stroke="#000000" points="248,-56.5 248,-75.5 334,-75.5 334,-56.5 248,-56.5"/>
<text text-anchor="middle" x="291" y="-63.5" font-family="Helvetica,sans-Serif" font-size="10.00" fill="#000000">argo_initialize</text>
</a>
</g>
</g>
<!-- Node2&#45;&gt;Node3 -->
<g id="edge2" class="edge">
<title>Node2&#45;&gt;Node3</title>
<path fill="none" stroke="#191970" d="M211.6918,-66C223.1271,-66 235.846,-66 247.6899,-66"/>
<polygon fill="#191970" stroke="#191970" points="211.6128,-62.5001 201.6127,-66 211.6127,-69.5001 211.6128,-62.5001"/>
</g>
<!-- Node4 -->
<g id="node4" class="node">
<title>Node4</title>
<g id="a_node4"><a xlink:href="backend_8hpp_aab3cabb3e1c0b9696b339416b684f78c.html#aab3cabb3e1c0b9696b339416b684f78c" target="_top" xlink:title="initialize backend ">
<polygon fill="#ffffff" stroke="#000000" points="370,-56.5 370,-75.5 477,-75.5 477,-56.5 370,-56.5"/>
<text text-anchor="middle" x="423.5" y="-63.5" font-family="Helvetica,sans-Serif" font-size="10.00" fill="#000000">argo::backend::init</text>
</a>
</g>
</g>
<!-- Node3&#45;&gt;Node4 -->
<g id="edge3" class="edge">
<title>Node3&#45;&gt;Node4</title>
<path fill="none" stroke="#191970" d="M344.0705,-66C352.4617,-66 361.147,-66 369.5579,-66"/>
<polygon fill="#191970" stroke="#191970" points="344.019,-62.5001 334.019,-66 344.0189,-69.5001 344.019,-62.5001"/>
</g>
<!-- Node5&#45;&gt;Node5 -->
<g id="edge5" class="edge">
<title>Node5&#45;&gt;Node5</title>
<path fill="none" stroke="#191970" d="M153.5196,-29.4C154.9541,-34.3146 162.1143,-38 175,-38 195.6172,-38 201.5768,-28.5653 192.879,-19.7571"/>
<polygon fill="#191970" stroke="#191970" points="156.901,-30.3496 157.121,-19.7571 150.3434,-27.9004 156.901,-30.3496"/>
</g>
</g>
</svg>
