<?xml version="1.0" encoding="UTF-8" standalone="no"?>
<!DOCTYPE svg PUBLIC "-//W3C//DTD SVG 1.1//EN"
 "http://www.w3.org/Graphics/SVG/1.1/DTD/svg11.dtd">
<!-- Generated by graphviz version 2.40.1 (20161225.0304)
 -->
<!-- Title: isPowerOf2 Pages: 1 -->
<svg width="572pt" height="47pt"
 viewBox="0.00 0.00 572.00 47.00" xmlns="http://www.w3.org/2000/svg" xmlns:xlink="http://www.w3.org/1999/xlink">
<g id="graph0" class="graph" transform="scale(1 1) rotate(0) translate(4 43)">
<title>isPowerOf2</title>
<polygon fill="#ffffff" stroke="transparent" points="-4,4 -4,-43 568,-43 568,4 -4,4"/>
<!-- Node1 -->
<g id="node1" class="node">
<title>Node1</title>
<polygon fill="#bfbfbf" stroke="#000000" points="0,-19.5 0,-38.5 72,-38.5 72,-19.5 0,-19.5"/>
<text text-anchor="middle" x="36" y="-26.5" font-family="Helvetica,sans-Serif" font-size="10.00" fill="#000000">isPowerOf2</text>
</g>
<!-- Node2 -->
<g id="node2" class="node">
<title>Node2</title>
<g id="a_node2"><a xlink:href="swdsm_8h_a8b00f264b792522b179fbc9c818187bd.html#a8b00f264b792522b179fbc9c818187bd" target="_top" xlink:title="Catches memory accesses to memory not yet cached in ArgoDSM. Launches remote requests for memory not ...">
<polygon fill="#ffffff" stroke="#000000" points="246,-19.5 246,-38.5 299,-38.5 299,-19.5 246,-19.5"/>
<text text-anchor="middle" x="272.5" y="-26.5" font-family="Helvetica,sans-Serif" font-size="10.00" fill="#000000">handler</text>
</a>
</g>
</g>
<!-- Node1&#45;&gt;Node2 -->
<g id="edge1" class="edge">
<title>Node1&#45;&gt;Node2</title>
<path fill="none" stroke="#191970" d="M82.4673,-29C131.2507,-29 206.2551,-29 245.8686,-29"/>
<polygon fill="#191970" stroke="#191970" points="82.1767,-25.5001 72.1767,-29 82.1767,-32.5001 82.1767,-25.5001"/>
</g>
<!-- Node5 -->
<g id="node5" class="node">
<title>Node5</title>
<g id="a_node5"><a xlink:href="swdsm_8cpp_a97adb774a1a5a7a3505416a171c570e9.html#a97adb774a1a5a7a3505416a171c570e9" target="_top" xlink:title="load into cache helper function ">
<polygon fill="#ffffff" stroke="#000000" points="108,-.5 108,-19.5 210,-19.5 210,-.5 108,-.5"/>
<text text-anchor="middle" x="159" y="-7.5" font-family="Helvetica,sans-Serif" font-size="10.00" fill="#000000">load_cache_entry</text>
</a>
</g>
</g>
<!-- Node1&#45;&gt;Node5 -->
<g id="edge4" class="edge">
<title>Node1&#45;&gt;Node5</title>
<path fill="none" stroke="#191970" d="M82.2412,-21.8571C90.6439,-20.5591 99.4522,-19.1984 107.9833,-17.8806"/>
<polygon fill="#191970" stroke="#191970" points="81.5872,-18.4165 72.2388,-23.4021 82.6559,-25.3344 81.5872,-18.4165"/>
</g>
<!-- Node3 -->
<g id="node3" class="node">
<title>Node3</title>
<g id="a_node3"><a xlink:href="swdsm_8h_a10dca85d339ce630cf42dca685b3f6d9.html#a10dca85d339ce630cf42dca685b3f6d9" target="_top" xlink:title="Initializes ArgoDSM runtime. ">
<polygon fill="#ffffff" stroke="#000000" points="335,-19.5 335,-38.5 421,-38.5 421,-19.5 335,-19.5"/>
<text text-anchor="middle" x="378" y="-26.5" font-family="Helvetica,sans-Serif" font-size="10.00" fill="#000000">argo_initialize</text>
</a>
</g>
</g>
<!-- Node2&#45;&gt;Node3 -->
<g id="edge2" class="edge">
<title>Node2&#45;&gt;Node3</title>
<path fill="none" stroke="#191970" d="M309.252,-29C317.5512,-29 326.4339,-29 334.9655,-29"/>
<polygon fill="#191970" stroke="#191970" points="309.1221,-25.5001 299.1221,-29 309.1221,-32.5001 309.1221,-25.5001"/>
</g>
<!-- Node4 -->
<g id="node4" class="node">
<title>Node4</title>
<g id="a_node4"><a xlink:href="backend_8hpp_af0d80a03a17a374c10d9635ddf81e261.html#af0d80a03a17a374c10d9635ddf81e261" target="_top" xlink:title="initialize backend ">
<polygon fill="#ffffff" stroke="#000000" points="457,-19.5 457,-38.5 564,-38.5 564,-19.5 457,-19.5"/>
<text text-anchor="middle" x="510.5" y="-26.5" font-family="Helvetica,sans-Serif" font-size="10.00" fill="#000000">argo::backend::init</text>
</a>
</g>
</g>
<!-- Node3&#45;&gt;Node4 -->
<g id="edge3" class="edge">
<title>Node3&#45;&gt;Node4</title>
<path fill="none" stroke="#191970" d="M431.0705,-29C439.4617,-29 448.147,-29 456.5579,-29"/>
<polygon fill="#191970" stroke="#191970" points="431.019,-25.5001 421.019,-29 431.0189,-32.5001 431.019,-25.5001"/>
</g>
<!-- Node5&#45;&gt;Node2 -->
<g id="edge5" class="edge">
<title>Node5&#45;&gt;Node2</title>
<path fill="none" stroke="#191970" d="M219.9837,-20.2087C229.0755,-21.7307 238.0215,-23.2283 245.8815,-24.544"/>
<polygon fill="#191970" stroke="#191970" points="220.5461,-16.7543 210.1055,-18.5551 219.3903,-23.6582 220.5461,-16.7543"/>
</g>
</g>
</svg>
