<?xml version="1.0" encoding="UTF-8" standalone="no"?>
<!DOCTYPE svg PUBLIC "-//W3C//DTD SVG 1.1//EN"
 "http://www.w3.org/Graphics/SVG/1.1/DTD/svg11.dtd">
<!-- Generated by graphviz version 2.40.1 (20161225.0304)
 -->
<!-- Title: getID Pages: 1 -->
<!--zoomable 254 -->
<svg id="main" version="1.1" xmlns="http://www.w3.org/2000/svg" xmlns:xlink="http://www.w3.org/1999/xlink" xml:space="preserve" onload="init(evt)">
<style type="text/css"><![CDATA[
.edge:hover path { stroke: red; }
.edge:hover polygon { stroke: red; fill: red; }
]]></style>
<script type="text/javascript"><![CDATA[
var edges = document.getElementsByTagName('g');
if (edges && edges.length) {
  for (var i=0;i<edges.length;i++) {
    if (edges[i].id.substr(0,4)=='edge') {
      edges[i].setAttribute('class','edge');
    }
  }
}
]]></script>
        <defs>
                <circle id="rim" cx="0" cy="0" r="7"/>
                <circle id="rim2" cx="0" cy="0" r="3.5"/>
                <g id="zoomPlus">
                        <use xlink:href="#rim" fill="#404040">
                                <set attributeName="fill" to="#808080" begin="zoomplus.mouseover" end="zoomplus.mouseout"/>
                        </use>
                        <path d="M-4,0h8M0,-4v8" fill="none" stroke="white" stroke-width="1.5" pointer-events="none"/>
                </g>
                <g id="zoomMin">
                        <use xlink:href="#rim" fill="#404040">
                                <set attributeName="fill" to="#808080" begin="zoomminus.mouseover" end="zoomminus.mouseout"/>
                        </use>
                        <path d="M-4,0h8" fill="none" stroke="white" stroke-width="1.5" pointer-events="none"/>
                </g>
                <g id="dirArrow">
                        <path fill="none" stroke="white" stroke-width="1.5" d="M0,-3.0v7 M-2.5,-0.5L0,-3.0L2.5,-0.5"/>
                </g>
               <g id="resetDef">
                       <use xlink:href="#rim2" fill="#404040">
                               <set attributeName="fill" to="#808080" begin="reset.mouseover" end="reset.mouseout"/>
                       </use>
               </g>
        </defs>

<script type="text/javascript">
var viewWidth = 820;
var viewHeight = 254;
var sectionId = 'dynsection-0';
</script>
<script xlink:href="svgpan.js"/>
<svg id="graph" class="graph">
<g id="viewport">
<title>getID</title>
<polygon fill="#ffffff" stroke="transparent" points="-4,4 -4,-250 816,-250 816,4 -4,4"/>
<!-- Node1 -->
<g id="node1" class="node">
<title>Node1</title>
<polygon fill="#bfbfbf" stroke="#000000" points="0,-113.5 0,-132.5 43,-132.5 43,-113.5 0,-113.5"/>
<text text-anchor="middle" x="21.5" y="-120.5" font-family="Helvetica,sans-Serif" font-size="10.00" fill="#000000">getID</text>
</g>
<!-- Node2 -->
<g id="node2" class="node">
<title>Node2</title>
<g id="a_node2"><a xlink:href="swdsm_8h_af5e5261e94a9a41be200cec36e369927.html#af5e5261e94a9a41be200cec36e369927" target="_top" xlink:title="Gives out a global thread ID for a local thread assuming NUM_THREADS per node. ">
<polygon fill="#ffffff" stroke="#000000" points="79,-226.5 79,-245.5 192,-245.5 192,-226.5 79,-226.5"/>
<text text-anchor="middle" x="135.5" y="-233.5" font-family="Helvetica,sans-Serif" font-size="10.00" fill="#000000">argo_get_global_tid</text>
</a>
</g>
</g>
<!-- Node1&#45;&gt;Node2 -->
<g id="edge1" class="edge">
<title>Node1&#45;&gt;Node2</title>
<path fill="none" stroke="#191970" d="M29.5819,-141.878C38.9138,-161.7039 55.9851,-192.6369 79,-212 86.258,-218.1063 95.2982,-222.8676 104.0043,-226.481"/>
<polygon fill="#191970" stroke="#191970" points="32.7187,-140.3197 25.4169,-132.6428 26.3376,-143.1976 32.7187,-140.3197"/>
</g>
<!-- Node3 -->
<g id="node3" class="node">
<title>Node3</title>
<g id="a_node3"><a xlink:href="swdsm_8h_adb24c11067d42b9bc8515a78a524e2c7.html#adb24c11067d42b9bc8515a78a524e2c7" target="_top" xlink:title="Catches memory accesses to memory not yet cached in ArgoDSM. Launches remote requests for memory not ...">
<polygon fill="#ffffff" stroke="#000000" points="271.5,-56.5 271.5,-75.5 324.5,-75.5 324.5,-56.5 271.5,-56.5"/>
<text text-anchor="middle" x="298" y="-63.5" font-family="Helvetica,sans-Serif" font-size="10.00" fill="#000000">handler</text>
</a>
</g>
</g>
<!-- Node1&#45;&gt;Node3 -->
<g id="edge2" class="edge">
<title>Node1&#45;&gt;Node3</title>
<path fill="none" stroke="#191970" d="M40.5667,-106.8937C51.1866,-98.8676 65.0522,-89.8596 79,-85 145.1314,-61.959 228.9789,-62.1873 271.1667,-64.1646"/>
<polygon fill="#191970" stroke="#191970" points="38.1499,-104.3428 32.4788,-113.292 42.4929,-109.8326 38.1499,-104.3428"/>
</g>
<!-- Node6 -->
<g id="node6" class="node">
<title>Node6</title>
<g id="a_node6"><a xlink:href="swdsm_8h_aa5da42b70088b546b0f16d0a8031cfd1.html#aa5da42b70088b546b0f16d0a8031cfd1" target="_top" xlink:title="Gets the offset of an address on the local nodes part of the global memory. ">
<polygon fill="#ffffff" stroke="#000000" points="98.5,-132.5 98.5,-151.5 172.5,-151.5 172.5,-132.5 98.5,-132.5"/>
<text text-anchor="middle" x="135.5" y="-139.5" font-family="Helvetica,sans-Serif" font-size="10.00" fill="#000000">peek_offset</text>
</a>
</g>
</g>
<!-- Node1&#45;&gt;Node6 -->
<g id="edge5" class="edge">
<title>Node1&#45;&gt;Node6</title>
<path fill="none" stroke="#191970" d="M53.296,-128.2993C67.2213,-130.6202 83.6595,-133.3599 98.1623,-135.777"/>
<polygon fill="#191970" stroke="#191970" points="53.6502,-124.8102 43.2109,-126.6185 52.4994,-131.7149 53.6502,-124.8102"/>
</g>
<!-- Node7 -->
<g id="node7" class="node">
<title>Node7</title>
<g id="a_node7"><a xlink:href="swdsm_8cpp_aa954d5e0bcaee69ff6e03e697bcaf68b.html#aa954d5e0bcaee69ff6e03e697bcaf68b" target="_top" xlink:title="shut down ArgoDSM system ">
<polygon fill="#ffffff" stroke="#000000" points="428.5,-226.5 428.5,-245.5 507.5,-245.5 507.5,-226.5 428.5,-226.5"/>
<text text-anchor="middle" x="468" y="-233.5" font-family="Helvetica,sans-Serif" font-size="10.00" fill="#000000">argo_finalize</text>
</a>
</g>
</g>
<!-- Node1&#45;&gt;Node7 -->
<g id="edge7" class="edge">
<title>Node1&#45;&gt;Node7</title>
<path fill="none" stroke="#191970" d="M34.7767,-140.9419C45.2866,-153.7351 61.1345,-170.1744 79,-179 140.043,-209.1554 342.1859,-226.9271 428.4396,-233.3028"/>
<polygon fill="#191970" stroke="#191970" points="37.3203,-138.5137 28.3943,-132.806 31.8127,-142.8342 37.3203,-138.5137"/>
</g>
<!-- Node9 -->
<g id="node9" class="node">
<title>Node9</title>
<g id="a_node9"><a xlink:href="swdsm_8h_aa7c3a2de6bbafdaf68fe6ceb6110ab97.html#aa7c3a2de6bbafdaf68fe6ceb6110ab97" target="_top" xlink:title="Self&#45;Invalidates all memory that has potential writers. ">
<polygon fill="#ffffff" stroke="#000000" points="86.5,-94.5 86.5,-113.5 184.5,-113.5 184.5,-94.5 86.5,-94.5"/>
<text text-anchor="middle" x="135.5" y="-101.5" font-family="Helvetica,sans-Serif" font-size="10.00" fill="#000000">self_invalidation</text>
</a>
</g>
</g>
<!-- Node1&#45;&gt;Node9 -->
<g id="edge9" class="edge">
<title>Node1&#45;&gt;Node9</title>
<path fill="none" stroke="#191970" d="M53.3473,-117.6921C63.6194,-115.9801 75.2547,-114.0409 86.4702,-112.1716"/>
<polygon fill="#191970" stroke="#191970" points="52.4994,-114.2851 43.2109,-119.3815 53.6502,-121.1898 52.4994,-114.2851"/>
</g>
<!-- Node16 -->
<g id="node16" class="node">
<title>Node16</title>
<g id="a_node16"><a xlink:href="swdsm_8h_a93e3c7288ce47ac8b4ec8ff9f8a82435.html#a93e3c7288ce47ac8b4ec8ff9f8a82435" target="_top" xlink:title="Check whether a page is either cached on the node or locally backed. ">
<polygon fill="#ffffff" stroke="#000000" points="100.5,-9.5 100.5,-28.5 170.5,-28.5 170.5,-9.5 100.5,-9.5"/>
<text text-anchor="middle" x="135.5" y="-16.5" font-family="Helvetica,sans-Serif" font-size="10.00" fill="#000000">_is_cached</text>
</a>
</g>
</g>
<!-- Node1&#45;&gt;Node16 -->
<g id="edge19" class="edge">
<title>Node1&#45;&gt;Node16</title>
<path fill="none" stroke="#191970" d="M33.4721,-104.7528C44.149,-89.4176 60.8601,-67.5713 79,-52 89.9468,-42.6033 103.9375,-34.4083 115.2578,-28.5353"/>
<polygon fill="#191970" stroke="#191970" points="30.3609,-103.1046 27.6451,-113.3455 36.1544,-107.0334 30.3609,-103.1046"/>
</g>
<!-- Node4 -->
<g id="node4" class="node">
<title>Node4</title>
<g id="a_node4"><a xlink:href="swdsm_8h_a31ba60e8ddccfa922da8d7e6a10f7b1d.html#a31ba60e8ddccfa922da8d7e6a10f7b1d" target="_top" xlink:title="Initializes ArgoDSM runtime. ">
<polygon fill="#ffffff" stroke="#000000" points="575.5,-103.5 575.5,-122.5 661.5,-122.5 661.5,-103.5 575.5,-103.5"/>
<text text-anchor="middle" x="618.5" y="-110.5" font-family="Helvetica,sans-Serif" font-size="10.00" fill="#000000">argo_initialize</text>
</a>
</g>
</g>
<!-- Node3&#45;&gt;Node4 -->
<g id="edge3" class="edge">
<title>Node3&#45;&gt;Node4</title>
<path fill="none" stroke="#191970" d="M334.6258,-57.7819C354.9457,-53.6408 380.7407,-49.0681 404,-47 460.6653,-41.9617 478.1053,-28.7871 532,-47 565.2853,-58.2483 595.8657,-87.9923 610.1006,-103.4176"/>
<polygon fill="#191970" stroke="#191970" points="333.9059,-54.3567 324.8342,-59.8297 335.3389,-61.2084 333.9059,-54.3567"/>
</g>
<!-- Node5 -->
<g id="node5" class="node">
<title>Node5</title>
<g id="a_node5"><a xlink:href="backend_8hpp_aab3cabb3e1c0b9696b339416b684f78c.html#aab3cabb3e1c0b9696b339416b684f78c" target="_top" xlink:title="initialize backend ">
<polygon fill="#ffffff" stroke="#000000" points="705,-103.5 705,-122.5 812,-122.5 812,-103.5 705,-103.5"/>
<text text-anchor="middle" x="758.5" y="-110.5" font-family="Helvetica,sans-Serif" font-size="10.00" fill="#000000">argo::backend::init</text>
</a>
</g>
</g>
<!-- Node4&#45;&gt;Node5 -->
<g id="edge4" class="edge">
<title>Node4&#45;&gt;Node5</title>
<path fill="none" stroke="#191970" d="M671.8168,-113C682.6429,-113 694.0344,-113 704.8712,-113"/>
<polygon fill="#191970" stroke="#191970" points="671.647,-109.5001 661.647,-113 671.6469,-116.5001 671.647,-109.5001"/>
</g>
<!-- Node6&#45;&gt;Node6 -->
<g id="edge6" class="edge">
<title>Node6&#45;&gt;Node6</title>
<path fill="none" stroke="#191970" d="M114.3899,-161.4C115.7997,-166.3146 122.8364,-170 135.5,-170 155.7617,-170 161.6186,-160.5653 153.0707,-151.7571"/>
<polygon fill="#191970" stroke="#191970" points="117.7693,-162.3507 117.9293,-151.7571 111.1979,-159.9387 117.7693,-162.3507"/>
</g>
<!-- Node8 -->
<g id="node8" class="node">
<title>Node8</title>
<g id="a_node8"><a xlink:href="swdsm_8h_a18cc89a7368e30281ea4b1d214a1b1ff.html#a18cc89a7368e30281ea4b1d214a1b1ff" target="_top" xlink:title="Pins and registers the local thread. ">
<polygon fill="#ffffff" stroke="#000000" points="568,-226.5 568,-245.5 669,-245.5 669,-226.5 568,-226.5"/>
<text text-anchor="middle" x="618.5" y="-233.5" font-family="Helvetica,sans-Serif" font-size="10.00" fill="#000000">argo_pin_threads</text>
</a>
</g>
</g>
<!-- Node7&#45;&gt;Node8 -->
<g id="edge8" class="edge">
<title>Node7&#45;&gt;Node8</title>
<path fill="none" stroke="#191970" d="M517.8203,-236C533.9009,-236 551.7372,-236 567.8753,-236"/>
<polygon fill="#191970" stroke="#191970" points="517.5421,-232.5001 507.5421,-236 517.5421,-239.5001 517.5421,-232.5001"/>
</g>
<!-- Node10 -->
<g id="node10" class="node">
<title>Node10</title>
<g id="a_node10"><a xlink:href="swdsm_8h_ad3f5bdae81c60ac704dda7372792427d.html#ad3f5bdae81c60ac704dda7372792427d" target="_top" xlink:title="Global barrier for ArgoDSM &#45; needs to be called by every thread in the system that need coherent view...">
<polygon fill="#ffffff" stroke="#000000" points="240,-150.5 240,-169.5 356,-169.5 356,-150.5 240,-150.5"/>
<text text-anchor="middle" x="298" y="-157.5" font-family="Helvetica,sans-Serif" font-size="10.00" fill="#000000">swdsm_argo_barrier</text>
</a>
</g>
</g>
<!-- Node9&#45;&gt;Node10 -->
<g id="edge10" class="edge">
<title>Node9&#45;&gt;Node10</title>
<path fill="none" stroke="#191970" d="M173.5004,-116.7126C179.6877,-118.8016 186.025,-120.9526 192,-123 218.9212,-132.2248 249.6126,-142.962 271.0175,-150.4862"/>
<polygon fill="#191970" stroke="#191970" points="174.5688,-113.3793 163.9747,-113.505 172.3348,-120.0133 174.5688,-113.3793"/>
</g>
<!-- Node13 -->
<g id="node13" class="node">
<title>Node13</title>
<g id="a_node13"><a xlink:href="swdsm_8h_a44b8bb7a3c8b47b4f9552c8e10b25e4b.html#a44b8bb7a3c8b47b4f9552c8e10b25e4b" target="_top" xlink:title="acquire function for ArgoDSM (Acquire according to Release Consistency) ">
<polygon fill="#ffffff" stroke="#000000" points="258,-94.5 258,-113.5 338,-113.5 338,-94.5 258,-94.5"/>
<text text-anchor="middle" x="298" y="-101.5" font-family="Helvetica,sans-Serif" font-size="10.00" fill="#000000">argo_acquire</text>
</a>
</g>
</g>
<!-- Node9&#45;&gt;Node13 -->
<g id="edge15" class="edge">
<title>Node9&#45;&gt;Node13</title>
<path fill="none" stroke="#191970" d="M194.8124,-104C215.8208,-104 238.9443,-104 257.9675,-104"/>
<polygon fill="#191970" stroke="#191970" points="194.6964,-100.5001 184.6963,-104 194.6963,-107.5001 194.6964,-100.5001"/>
</g>
<!-- Node10&#45;&gt;Node7 -->
<g id="edge12" class="edge">
<title>Node10&#45;&gt;Node7</title>
<path fill="none" stroke="#191970" d="M344.8771,-173.0638C352.8501,-176.1219 360.8546,-179.7544 368,-184 386.6598,-195.0871 385.1131,-206.3044 404,-217 411.4633,-221.2264 419.9595,-224.597 428.2679,-227.2534"/>
<polygon fill="#191970" stroke="#191970" points="345.8219,-169.6847 335.2273,-169.6158 343.4665,-176.2765 345.8219,-169.6847"/>
</g>
<!-- Node11 -->
<g id="node11" class="node">
<title>Node11</title>
<g id="a_node11"><a xlink:href="backend_8hpp_af1a647431651556204709451bebb5a42.html#af1a647431651556204709451bebb5a42" target="_top" xlink:title="a simple collective barrier ">
<polygon fill="#ffffff" stroke="#000000" points="406,-150.5 406,-169.5 530,-169.5 530,-150.5 406,-150.5"/>
<text text-anchor="middle" x="468" y="-157.5" font-family="Helvetica,sans-Serif" font-size="10.00" fill="#000000">argo::backend::barrier</text>
</a>
</g>
</g>
<!-- Node10&#45;&gt;Node11 -->
<g id="edge11" class="edge">
<title>Node10&#45;&gt;Node11</title>
<path fill="none" stroke="#191970" d="M366.3604,-160C379.4197,-160 393.0244,-160 405.8753,-160"/>
<polygon fill="#191970" stroke="#191970" points="366.0289,-156.5001 356.0289,-160 366.0288,-163.5001 366.0289,-156.5001"/>
</g>
<!-- Node12 -->
<g id="node12" class="node">
<title>Node12</title>
<g id="a_node12"><a xlink:href="swdsm_8h_a0c6b51af2b87ddf7eb04aa7d4e0e836e.html#a0c6b51af2b87ddf7eb04aa7d4e0e836e" target="_top" xlink:title="Resets current coherence. Collective function called by all threads on all nodes. ...">
<polygon fill="#ffffff" stroke="#000000" points="406,-188.5 406,-207.5 530,-207.5 530,-188.5 406,-188.5"/>
<text text-anchor="middle" x="468" y="-195.5" font-family="Helvetica,sans-Serif" font-size="10.00" fill="#000000">argo_reset_coherence</text>
</a>
</g>
</g>
<!-- Node10&#45;&gt;Node12 -->
<g id="edge13" class="edge">
<title>Node10&#45;&gt;Node12</title>
<path fill="none" stroke="#191970" d="M350.8981,-171.8243C374.865,-177.1816 402.8235,-183.4311 425.4103,-188.4799"/>
<polygon fill="#191970" stroke="#191970" points="351.4209,-168.3548 340.8982,-169.589 349.8938,-175.1862 351.4209,-168.3548"/>
</g>
<!-- Node12&#45;&gt;Node4 -->
<g id="edge14" class="edge">
<title>Node12&#45;&gt;Node4</title>
<path fill="none" stroke="#191970" d="M518.2469,-185.0098C522.9873,-183.2134 527.6441,-181.2136 532,-179 562.48,-163.5103 593.1001,-136.9311 608.4255,-122.6868"/>
<polygon fill="#191970" stroke="#191970" points="516.7613,-181.8209 508.4685,-188.4147 519.0633,-188.4316 516.7613,-181.8209"/>
</g>
<!-- Node14 -->
<g id="node14" class="node">
<title>Node14</title>
<g id="a_node14"><a xlink:href="backend_8hpp_a1032f833666c3f810ac1c6210197d426.html#a1032f833666c3f810ac1c6210197d426" target="_top" xlink:title="causes a node to self&#45;invalidate its cache, and thus getting any updated values on subsequent accesse...">
<polygon fill="#ffffff" stroke="#000000" points="404,-94.5 404,-113.5 532,-113.5 532,-94.5 404,-94.5"/>
<text text-anchor="middle" x="468" y="-101.5" font-family="Helvetica,sans-Serif" font-size="10.00" fill="#000000">argo::backend::acquire</text>
</a>
</g>
</g>
<!-- Node13&#45;&gt;Node14 -->
<g id="edge16" class="edge">
<title>Node13&#45;&gt;Node14</title>
<path fill="none" stroke="#191970" d="M348.7206,-104C365.9998,-104 385.5492,-104 403.7473,-104"/>
<polygon fill="#191970" stroke="#191970" points="348.2877,-100.5001 338.2876,-104 348.2876,-107.5001 348.2877,-100.5001"/>
</g>
<!-- Node15 -->
<g id="node15" class="node">
<title>Node15</title>
<g id="a_node15"><a xlink:href="swdsm_8h_ac0b665f72bc2a28dc663ed204c526e1b.html#ac0b665f72bc2a28dc663ed204c526e1b" target="_top" xlink:title="acquire&#45;release function for ArgoDSM (Both acquire and release according to Release Consistency) ...">
<polygon fill="#ffffff" stroke="#000000" points="428.5,-56.5 428.5,-75.5 507.5,-75.5 507.5,-56.5 428.5,-56.5"/>
<text text-anchor="middle" x="468" y="-63.5" font-family="Helvetica,sans-Serif" font-size="10.00" fill="#000000">argo_acq_rel</text>
</a>
</g>
</g>
<!-- Node13&#45;&gt;Node15 -->
<g id="edge18" class="edge">
<title>Node13&#45;&gt;Node15</title>
<path fill="none" stroke="#191970" d="M348.1733,-92.7848C373.7418,-87.0695 404.3935,-80.2179 428.2951,-74.8752"/>
<polygon fill="#191970" stroke="#191970" points="347.2833,-89.3973 338.2876,-94.9945 348.8103,-96.2287 347.2833,-89.3973"/>
</g>
<!-- Node14&#45;&gt;Node14 -->
<g id="edge17" class="edge">
<title>Node14&#45;&gt;Node14</title>
<path fill="none" stroke="#191970" d="M440.0009,-122.6539C441.1712,-127.9368 450.5043,-132 468,-132 494.6602,-132 502.3666,-122.5653 491.1194,-113.7571"/>
<polygon fill="#191970" stroke="#191970" points="443.1403,-124.208 444.8806,-113.7571 437.0029,-120.8417 443.1403,-124.208"/>
</g>
<!-- Node17 -->
<g id="node17" class="node">
<title>Node17</title>
<g id="a_node17"><a xlink:href="backend_8hpp_a8189df2ded0e8e6b64477a53f80d67e8.html#a8189df2ded0e8e6b64477a53f80d67e8" target="_top" xlink:title="Check if a an address is cached or node local. ">
<polygon fill="#ffffff" stroke="#000000" points="228,-.5 228,-19.5 368,-19.5 368,-.5 228,-.5"/>
<text text-anchor="middle" x="298" y="-7.5" font-family="Helvetica,sans-Serif" font-size="10.00" fill="#000000">argo::backend::is_cached</text>
</a>
</g>
</g>
<!-- Node16&#45;&gt;Node17 -->
<g id="edge20" class="edge">
<title>Node16&#45;&gt;Node17</title>
<path fill="none" stroke="#191970" d="M180.9578,-16.4823C195.4735,-15.6784 211.8941,-14.7689 227.7459,-13.891"/>
<polygon fill="#191970" stroke="#191970" points="180.5512,-12.9994 170.7601,-17.0471 180.9384,-19.9887 180.5512,-12.9994"/>
</g>
<!-- Node17&#45;&gt;Node17 -->
<g id="edge21" class="edge">
<title>Node17&#45;&gt;Node17</title>
<path fill="none" stroke="#191970" d="M267.6856,-28.2746C268.5499,-33.741 278.6547,-38 298,-38 326.793,-38 335.1159,-28.5653 322.9689,-19.7571"/>
<polygon fill="#191970" stroke="#191970" points="270.6799,-30.0877 273.0311,-19.7571 264.7508,-26.3667 270.6799,-30.0877"/>
</g>
</g>
</svg>
        <g id="navigator" transform="translate(0 0)" fill="#404254">
                <rect fill="#f2f5e9" fill-opacity="0.5" stroke="#606060" stroke-width=".5" x="0" y="0" width="60" height="60"/>
                <use id="zoomplus" xlink:href="#zoomPlus" x="17" y="9" onmousedown="handleZoom(evt,'in')"/>
                <use id="zoomminus" xlink:href="#zoomMin" x="42" y="9" onmousedown="handleZoom(evt,'out')"/>
                <use id="reset" xlink:href="#resetDef" x="30" y="36" onmousedown="handleReset()"/>
                <g id="arrowUp" xlink:href="#dirArrow" transform="translate(30 24)" onmousedown="handlePan(0,-1)">
                  <use xlink:href="#rim" fill="#404040">
                        <set attributeName="fill" to="#808080" begin="arrowUp.mouseover" end="arrowUp.mouseout"/>
                  </use>
                  <path fill="none" stroke="white" stroke-width="1.5" d="M0,-3.0v7 M-2.5,-0.5L0,-3.0L2.5,-0.5"/>
                </g>
                <g id="arrowRight" xlink:href="#dirArrow" transform="rotate(90) translate(36 -43)" onmousedown="handlePan(1,0)">
                  <use xlink:href="#rim" fill="#404040">
                        <set attributeName="fill" to="#808080" begin="arrowRight.mouseover" end="arrowRight.mouseout"/>
                  </use>
                  <path fill="none" stroke="white" stroke-width="1.5" d="M0,-3.0v7 M-2.5,-0.5L0,-3.0L2.5,-0.5"/>
                </g>
                <g id="arrowDown" xlink:href="#dirArrow" transform="rotate(180) translate(-30 -48)" onmousedown="handlePan(0,1)">
                  <use xlink:href="#rim" fill="#404040">
                        <set attributeName="fill" to="#808080" begin="arrowDown.mouseover" end="arrowDown.mouseout"/>
                  </use>
                  <path fill="none" stroke="white" stroke-width="1.5" d="M0,-3.0v7 M-2.5,-0.5L0,-3.0L2.5,-0.5"/>
                </g>
                <g id="arrowLeft" xlink:href="#dirArrow" transform="rotate(270) translate(-36 17)" onmousedown="handlePan(-1,0)">
                  <use xlink:href="#rim" fill="#404040">
                        <set attributeName="fill" to="#808080" begin="arrowLeft.mouseover" end="arrowLeft.mouseout"/>
                  </use>
                  <path fill="none" stroke="white" stroke-width="1.5" d="M0,-3.0v7 M-2.5,-0.5L0,-3.0L2.5,-0.5"/>
                </g>
        </g>
        <svg viewBox="0 0 15 15" width="100%" height="30px" preserveAspectRatio="xMaxYMin meet">
         <g id="arrow_out" transform="scale(0.3 0.3)">
          <a xlink:href="swdsm_8h_af770e3f703653ddb0967b85d88881ab7_af770e3f703653ddb0967b85d88881ab7_icgraph_org.svg" target="_base">
           <rect id="button" ry="5" rx="5" y="6" x="6" height="38" width="38"
                fill="#f2f5e9" fill-opacity="0.5" stroke="#606060" stroke-width="1.0"/>
           <path id="arrow"
             d="M 11.500037,31.436501 C 11.940474,20.09759 22.043105,11.32322 32.158766,21.979434 L 37.068811,17.246167 C 37.068811,17.246167 37.088388,32 37.088388,32 L 22.160133,31.978069 C 22.160133,31.978069 26.997745,27.140456 26.997745,27.140456 C 18.528582,18.264221 13.291696,25.230495 11.500037,31.436501 z"
             style="fill:#404040;"/>
          </a>
         </g>
        </svg>
</svg>
