<?xml version="1.0" encoding="UTF-8" standalone="no"?>
<!DOCTYPE svg PUBLIC "-//W3C//DTD SVG 1.1//EN"
 "http://www.w3.org/Graphics/SVG/1.1/DTD/svg11.dtd">
<!-- Generated by graphviz version 2.40.1 (20161225.0304)
 -->
<!-- Title: argo_get_global_size Pages: 1 -->
<svg width="452pt" height="46pt"
 viewBox="0.00 0.00 452.00 46.00" xmlns="http://www.w3.org/2000/svg" xmlns:xlink="http://www.w3.org/1999/xlink">
<g id="graph0" class="graph" transform="scale(1 1) rotate(0) translate(4 42)">
<title>argo_get_global_size</title>
<polygon fill="#ffffff" stroke="transparent" points="-4,4 -4,-42 448,-42 448,4 -4,4"/>
<!-- Node1 -->
<g id="node1" class="node">
<title>Node1</title>
<polygon fill="#bfbfbf" stroke="#000000" points="0,-.5 0,-19.5 119,-19.5 119,-.5 0,-.5"/>
<text text-anchor="middle" x="59.5" y="-7.5" font-family="Helvetica,sans-Serif" font-size="10.00" fill="#000000">argo_get_global_size</text>
</g>
<!-- Node2 -->
<g id="node2" class="node">
<title>Node2</title>
<g id="a_node2"><a xlink:href="backend_8hpp_a0d87d94211c0eee4eea358b90f375ca6.html#a0d87d94211c0eee4eea358b90f375ca6" target="_top" xlink:title="get the total amount of global memory ">
<polygon fill="#ffffff" stroke="#000000" points="155,-.5 155,-19.5 301,-19.5 301,-.5 155,-.5"/>
<text text-anchor="middle" x="228" y="-7.5" font-family="Helvetica,sans-Serif" font-size="10.00" fill="#000000">argo::backend::global_size</text>
</a>
</g>
</g>
<!-- Node1&#45;&gt;Node2 -->
<g id="edge1" class="edge">
<title>Node1&#45;&gt;Node2</title>
<path fill="none" stroke="#191970" d="M129.4485,-10C137.7992,-10 146.343,-10 154.7386,-10"/>
<polygon fill="#191970" stroke="#191970" points="129.3813,-6.5001 119.3812,-10 129.3812,-13.5001 129.3813,-6.5001"/>
</g>
<!-- Node2&#45;&gt;Node2 -->
<g id="edge2" class="edge">
<title>Node2&#45;&gt;Node2</title>
<path fill="none" stroke="#191970" d="M197.6856,-28.2746C198.5499,-33.741 208.6547,-38 228,-38 256.793,-38 265.1159,-28.5653 252.9689,-19.7571"/>
<polygon fill="#191970" stroke="#191970" points="200.6799,-30.0877 203.0311,-19.7571 194.7508,-26.3667 200.6799,-30.0877"/>
</g>
<!-- Node3 -->
<g id="node3" class="node">
<title>Node3</title>
<g id="a_node3"><a xlink:href="singlenode_8cpp_aab3cabb3e1c0b9696b339416b684f78c.html#aab3cabb3e1c0b9696b339416b684f78c" target="_top" xlink:title="argo::backend::init">
<polygon fill="#ffffff" stroke="#000000" points="337,-.5 337,-19.5 444,-19.5 444,-.5 337,-.5"/>
<text text-anchor="middle" x="390.5" y="-7.5" font-family="Helvetica,sans-Serif" font-size="10.00" fill="#000000">argo::backend::init</text>
</a>
</g>
</g>
<!-- Node2&#45;&gt;Node3 -->
<g id="edge3" class="edge">
<title>Node2&#45;&gt;Node3</title>
<path fill="none" stroke="#191970" d="M311.2945,-10C319.928,-10 328.5308,-10 336.7125,-10"/>
<polygon fill="#191970" stroke="#191970" points="311.1687,-6.5001 301.1686,-10 311.1686,-13.5001 311.1687,-6.5001"/>
</g>
</g>
</svg>
