<?xml version="1.0" encoding="UTF-8" standalone="no"?>
<!DOCTYPE svg PUBLIC "-//W3C//DTD SVG 1.1//EN"
 "http://www.w3.org/Graphics/SVG/1.1/DTD/svg11.dtd">
<!-- Generated by graphviz version 2.40.1 (20161225.0304)
 -->
<!-- Title: argo_reset_coherence Pages: 1 -->
<svg width="1523pt" height="217pt"
 viewBox="0.00 0.00 1523.00 217.00" xmlns="http://www.w3.org/2000/svg" xmlns:xlink="http://www.w3.org/1999/xlink">
<g id="graph0" class="graph" transform="scale(1 1) rotate(0) translate(4 213)">
<title>argo_reset_coherence</title>
<polygon fill="#ffffff" stroke="transparent" points="-4,4 -4,-213 1519,-213 1519,4 -4,4"/>
<!-- Node0 -->
<g id="node1" class="node">
<title>Node0</title>
<polygon fill="#bfbfbf" stroke="#000000" points="0,-118 0,-137 124,-137 124,-118 0,-118"/>
<text text-anchor="middle" x="62" y="-125" font-family="Helvetica,sans-Serif" font-size="10.00" fill="#000000">argo_reset_coherence</text>
</g>
<!-- Node1 -->
<g id="node2" class="node">
<title>Node1</title>
<g id="a_node2"><a xlink:href="namespaceargo_1_1data__distribution_a58576657391f45caf61bf0748a23b098.html#a58576657391f45caf61bf0748a23b098" target="_top" xlink:title="identifies if we distribute data using the first&#45;touch memory policy ">
<polygon fill="#ffffff" stroke="#000000" points="1236,-178.5 1236,-208.5 1363,-208.5 1363,-178.5 1236,-178.5"/>
<text text-anchor="start" x="1244" y="-196.5" font-family="Helvetica,sans-Serif" font-size="10.00" fill="#000000">argo::data_distribution</text>
<text text-anchor="middle" x="1299.5" y="-185.5" font-family="Helvetica,sans-Serif" font-size="10.00" fill="#000000">::is_first_touch_policy</text>
</a>
</g>
</g>
<!-- Node0&#45;&gt;Node1 -->
<g id="edge1" class="edge">
<title>Node0&#45;&gt;Node1</title>
<path fill="none" stroke="#191970" d="M84.0164,-137.1255C132.8616,-157.576 254.4149,-203.5 361,-203.5 361,-203.5 361,-203.5 971.5,-203.5 1058.7005,-203.5 1158.8808,-199.9252 1225.3473,-197.0503"/>
<polygon fill="#191970" stroke="#191970" points="1225.8811,-200.5304 1235.7181,-196.5956 1225.5744,-193.5371 1225.8811,-200.5304"/>
</g>
<!-- Node3 -->
<g id="node4" class="node">
<title>Node3</title>
<g id="a_node4"><a xlink:href="swdsm_8cpp_ad3f5bdae81c60ac704dda7372792427d.html#ad3f5bdae81c60ac704dda7372792427d" target="_top" xlink:title="Global barrier for ArgoDSM &#45; needs to be called by every thread in the system that need coherent view...">
<polygon fill="#ffffff" stroke="#000000" points="160,-118 160,-137 276,-137 276,-118 160,-118"/>
<text text-anchor="middle" x="218" y="-125" font-family="Helvetica,sans-Serif" font-size="10.00" fill="#000000">swdsm_argo_barrier</text>
</a>
</g>
</g>
<!-- Node0&#45;&gt;Node3 -->
<g id="edge3" class="edge">
<title>Node0&#45;&gt;Node3</title>
<path fill="none" stroke="#191970" d="M124.1036,-127.5C132.5001,-127.5 141.1533,-127.5 149.6512,-127.5"/>
<polygon fill="#191970" stroke="#191970" points="149.9123,-131.0001 159.9122,-127.5 149.9122,-124.0001 149.9123,-131.0001"/>
</g>
<!-- Node24 -->
<g id="node25" class="node">
<title>Node24</title>
<g id="a_node25"><a xlink:href="swdsm_8cpp_a3ec1931e5ea88671ed6be9885968b327.html#a3ec1931e5ea88671ed6be9885968b327" target="_top" xlink:title="Clears out all statistics. ">
<polygon fill="#ffffff" stroke="#000000" points="175,-80 175,-99 261,-99 261,-80 175,-80"/>
<text text-anchor="middle" x="218" y="-87" font-family="Helvetica,sans-Serif" font-size="10.00" fill="#000000">clearStatistics</text>
</a>
</g>
</g>
<!-- Node0&#45;&gt;Node24 -->
<g id="edge27" class="edge">
<title>Node0&#45;&gt;Node24</title>
<path fill="none" stroke="#191970" d="M101.3654,-117.911C121.9513,-112.8965 147.3405,-106.7119 169.169,-101.3947"/>
<polygon fill="#191970" stroke="#191970" points="170.0302,-104.7874 178.9177,-99.0201 168.3734,-97.9863 170.0302,-104.7874"/>
</g>
<!-- Node2 -->
<g id="node3" class="node">
<title>Node2</title>
<g id="a_node3"><a xlink:href="namespaceargo_1_1env_a25a08cb2d0d11432d640ec7173063339.html#a25a08cb2d0d11432d640ec7173063339" target="_top" xlink:title="get the allocation policy requested by environment variable ">
<polygon fill="#ffffff" stroke="#000000" points="1399,-129.5 1399,-159.5 1515,-159.5 1515,-129.5 1399,-129.5"/>
<text text-anchor="start" x="1407" y="-147.5" font-family="Helvetica,sans-Serif" font-size="10.00" fill="#000000">argo::env::allocation</text>
<text text-anchor="middle" x="1457" y="-136.5" font-family="Helvetica,sans-Serif" font-size="10.00" fill="#000000">_policy</text>
</a>
</g>
</g>
<!-- Node1&#45;&gt;Node2 -->
<g id="edge2" class="edge">
<title>Node1&#45;&gt;Node2</title>
<path fill="none" stroke="#191970" d="M1348.0403,-178.3986C1364.1339,-173.3917 1382.2114,-167.7676 1398.9467,-162.561"/>
<polygon fill="#191970" stroke="#191970" points="1400.1111,-165.8643 1408.6199,-159.5516 1398.0316,-159.1803 1400.1111,-165.8643"/>
</g>
<!-- Node4 -->
<g id="node5" class="node">
<title>Node4</title>
<g id="a_node5"><a xlink:href="swdsm_8cpp_ac99d42ffcf7c78281cb3a6b286ce3a5e.html#ac99d42ffcf7c78281cb3a6b286ce3a5e" target="_top" xlink:title="Gives number of ArgoDSM nodes. ">
<polygon fill="#ffffff" stroke="#000000" points="314,-137 314,-156 408,-156 408,-137 314,-137"/>
<text text-anchor="middle" x="361" y="-144" font-family="Helvetica,sans-Serif" font-size="10.00" fill="#000000">argo_get_nodes</text>
</a>
</g>
</g>
<!-- Node3&#45;&gt;Node4 -->
<g id="edge4" class="edge">
<title>Node3&#45;&gt;Node4</title>
<path fill="none" stroke="#191970" d="M276.1636,-135.228C285.265,-136.4373 294.6652,-137.6863 303.746,-138.8928"/>
<polygon fill="#191970" stroke="#191970" points="303.4558,-142.3849 313.8297,-140.2326 304.3778,-135.4459 303.4558,-142.3849"/>
</g>
<!-- Node5 -->
<g id="node6" class="node">
<title>Node5</title>
<g id="a_node6"><a xlink:href="classwrite__buffer_aca2e330e17a38c1cc8d8c60701ce9dd7.html#aca2e330e17a38c1cc8d8c60701ce9dd7" target="_top" xlink:title="Flushes the ArgoDSM write buffer to memory. ">
<polygon fill="#ffffff" stroke="#000000" points="446,-99 446,-118 550,-118 550,-99 446,-99"/>
<text text-anchor="middle" x="498" y="-106" font-family="Helvetica,sans-Serif" font-size="10.00" fill="#000000">write_buffer::flush</text>
</a>
</g>
</g>
<!-- Node3&#45;&gt;Node5 -->
<g id="edge5" class="edge">
<title>Node3&#45;&gt;Node5</title>
<path fill="none" stroke="#191970" d="M276.0162,-123.5632C322.5769,-120.4037 387.8172,-115.9767 435.5209,-112.7397"/>
<polygon fill="#191970" stroke="#191970" points="435.984,-116.2164 445.7241,-112.0473 435.5101,-109.2324 435.984,-116.2164"/>
</g>
<!-- Node21 -->
<g id="node22" class="node">
<title>Node21</title>
<g id="a_node22"><a xlink:href="swdsm_8cpp_aa7c3a2de6bbafdaf68fe6ceb6110ab97.html#aa7c3a2de6bbafdaf68fe6ceb6110ab97" target="_top" xlink:title="Self&#45;Invalidates all memory that has potential writers. ">
<polygon fill="#ffffff" stroke="#000000" points="312,-61 312,-80 410,-80 410,-61 312,-61"/>
<text text-anchor="middle" x="361" y="-68" font-family="Helvetica,sans-Serif" font-size="10.00" fill="#000000">self_invalidation</text>
</a>
</g>
</g>
<!-- Node3&#45;&gt;Node21 -->
<g id="edge23" class="edge">
<title>Node3&#45;&gt;Node21</title>
<path fill="none" stroke="#191970" d="M249.2137,-117.933C257.9471,-115.0785 267.4003,-111.8205 276,-108.5 294.7315,-101.2673 315.2979,-92.1067 331.5082,-84.5919"/>
<polygon fill="#191970" stroke="#191970" points="333.4095,-87.5665 340.9831,-80.1576 330.4423,-81.2265 333.4095,-87.5665"/>
</g>
<!-- Node6 -->
<g id="node7" class="node">
<title>Node6</title>
<g id="a_node7"><a xlink:href="classwrite__buffer_ab70cc0d6ca3591094aae489dbc3feaa5.html#ab70cc0d6ca3591094aae489dbc3feaa5" target="_top" xlink:title="Check if the write buffer is empty. ">
<polygon fill="#ffffff" stroke="#000000" points="595,-156 595,-175 708,-175 708,-156 595,-156"/>
<text text-anchor="middle" x="651.5" y="-163" font-family="Helvetica,sans-Serif" font-size="10.00" fill="#000000">write_buffer::empty</text>
</a>
</g>
</g>
<!-- Node5&#45;&gt;Node6 -->
<g id="edge6" class="edge">
<title>Node5&#45;&gt;Node6</title>
<path fill="none" stroke="#191970" d="M518.3335,-118.1453C535.9848,-126.3083 562.3521,-138.0021 586,-146.5 592.3635,-148.7867 599.1475,-150.9988 605.8477,-153.0556"/>
<polygon fill="#191970" stroke="#191970" points="604.9624,-156.4438 615.5456,-155.9487 606.9635,-149.736 604.9624,-156.4438"/>
</g>
<!-- Node7 -->
<g id="node8" class="node">
<title>Node7</title>
<g id="a_node8"><a xlink:href="classwrite__buffer_aa2325346aceb3e7ffdbdbdc8e8682147.html#aa2325346aceb3e7ffdbdbdc8e8682147" target="_top" xlink:title="Sorts all elements by home node id in ascending order. ">
<polygon fill="#ffffff" stroke="#000000" points="601.5,-118 601.5,-137 701.5,-137 701.5,-118 601.5,-118"/>
<text text-anchor="middle" x="651.5" y="-125" font-family="Helvetica,sans-Serif" font-size="10.00" fill="#000000">write_buffer::sort</text>
</a>
</g>
</g>
<!-- Node5&#45;&gt;Node7 -->
<g id="edge7" class="edge">
<title>Node5&#45;&gt;Node7</title>
<path fill="none" stroke="#191970" d="M550.3967,-114.9856C563.5465,-116.6132 577.7603,-118.3726 591.259,-120.0435"/>
<polygon fill="#191970" stroke="#191970" points="591.0584,-123.5453 601.4126,-121.3003 591.9183,-116.5983 591.0584,-123.5453"/>
</g>
<!-- Node14 -->
<g id="node15" class="node">
<title>Node14</title>
<g id="a_node15"><a xlink:href="classwrite__buffer_ae065d3ee59035ad508eb8ce6670d2c89.html#ae065d3ee59035ad508eb8ce6670d2c89" target="_top" xlink:title="Removes the front element from the buffer and returns it. ">
<polygon fill="#ffffff" stroke="#000000" points="602,-80 602,-99 701,-99 701,-80 602,-80"/>
<text text-anchor="middle" x="651.5" y="-87" font-family="Helvetica,sans-Serif" font-size="10.00" fill="#000000">write_buffer::pop</text>
</a>
</g>
</g>
<!-- Node5&#45;&gt;Node14 -->
<g id="edge16" class="edge">
<title>Node5&#45;&gt;Node14</title>
<path fill="none" stroke="#191970" d="M550.3967,-102.0144C563.6849,-100.3696 578.0597,-98.5903 591.685,-96.9038"/>
<polygon fill="#191970" stroke="#191970" points="592.4336,-100.3379 601.9279,-95.636 591.5737,-93.391 592.4336,-100.3379"/>
</g>
<!-- Node15 -->
<g id="node16" class="node">
<title>Node15</title>
<g id="a_node16"><a xlink:href="swdsm_8cpp_a3b6a6b2b244edb9faa79814ce8e5e9f5.html#a3b6a6b2b244edb9faa79814ce8e5e9f5" target="_top" xlink:title="stores a page remotely &#45; only writing back what has been written locally since last synchronization p...">
<polygon fill="#ffffff" stroke="#000000" points="608.5,-42 608.5,-61 694.5,-61 694.5,-42 608.5,-42"/>
<text text-anchor="middle" x="651.5" y="-49" font-family="Helvetica,sans-Serif" font-size="10.00" fill="#000000">storepageDIFF</text>
</a>
</g>
</g>
<!-- Node5&#45;&gt;Node15 -->
<g id="edge17" class="edge">
<title>Node5&#45;&gt;Node15</title>
<path fill="none" stroke="#191970" d="M526.3437,-98.9307C534.0985,-96.1003 542.4456,-92.8552 550,-89.5 566.5343,-82.1565 569.2257,-77.2773 586,-70.5 591.7635,-68.1714 597.9178,-65.9988 604.0602,-64.0161"/>
<polygon fill="#191970" stroke="#191970" points="605.1196,-67.3522 613.6449,-61.0618 603.0576,-60.6627 605.1196,-67.3522"/>
</g>
<!-- Node20 -->
<g id="node21" class="node">
<title>Node20</title>
<g id="a_node21"><a xlink:href="namespaceargo_a79c9492f3fd441bfa6261dffbc0f02f4.html#a79c9492f3fd441bfa6261dffbc0f02f4" target="_top" xlink:title="Number of ArgoDSM nodes being run. ">
<polygon fill="#ffffff" stroke="#000000" points="586,-4 586,-23 717,-23 717,-4 586,-4"/>
<text text-anchor="middle" x="651.5" y="-11" font-family="Helvetica,sans-Serif" font-size="10.00" fill="#000000">argo::number_of_nodes</text>
</a>
</g>
</g>
<!-- Node5&#45;&gt;Node20 -->
<g id="edge22" class="edge">
<title>Node5&#45;&gt;Node20</title>
<path fill="none" stroke="#191970" d="M533.7962,-98.987C539.5689,-96.4815 545.2126,-93.3627 550,-89.5 573.3191,-70.6852 562.0549,-50.5114 586,-32.5 588.5208,-30.6039 591.2263,-28.8966 594.0507,-27.3595"/>
<polygon fill="#191970" stroke="#191970" points="595.809,-30.4016 603.3957,-23.0061 592.853,-24.0563 595.809,-30.4016"/>
</g>
<!-- Node8 -->
<g id="node9" class="node">
<title>Node8</title>
<g id="a_node9"><a xlink:href="namespaceargo_a48dc17c94275df10a8e7f3959cbf0191.html#a48dc17c94275df10a8e7f3959cbf0191" target="_top" xlink:title="Get the ArgoDSM node id where addr is physically backed. ">
<polygon fill="#ffffff" stroke="#000000" points="753,-118 753,-137 870,-137 870,-118 753,-118"/>
<text text-anchor="middle" x="811.5" y="-125" font-family="Helvetica,sans-Serif" font-size="10.00" fill="#000000">argo::get_homenode</text>
</a>
</g>
</g>
<!-- Node7&#45;&gt;Node8 -->
<g id="edge8" class="edge">
<title>Node7&#45;&gt;Node8</title>
<path fill="none" stroke="#191970" d="M701.686,-127.5C714.6124,-127.5 728.7506,-127.5 742.452,-127.5"/>
<polygon fill="#191970" stroke="#191970" points="742.8172,-131.0001 752.8171,-127.5 742.8171,-124.0001 742.8172,-131.0001"/>
</g>
<!-- Node9 -->
<g id="node10" class="node">
<title>Node9</title>
<g id="a_node10"><a xlink:href="classargo_1_1data__distribution_1_1global__ptr_a3e2cdd4d323ef91174615e27ab94e342.html#a3e2cdd4d323ef91174615e27ab94e342" target="_top" xlink:title="return the home node of the value pointed to, or a default value if the page has not yet been first&#45;t...">
<polygon fill="#ffffff" stroke="#000000" points="906,-144.5 906,-174.5 1037,-174.5 1037,-144.5 906,-144.5"/>
<text text-anchor="start" x="914" y="-162.5" font-family="Helvetica,sans-Serif" font-size="10.00" fill="#000000">argo::data_distribution</text>
<text text-anchor="middle" x="971.5" y="-151.5" font-family="Helvetica,sans-Serif" font-size="10.00" fill="#000000">::global_ptr::peek_node</text>
</a>
</g>
</g>
<!-- Node8&#45;&gt;Node9 -->
<g id="edge9" class="edge">
<title>Node8&#45;&gt;Node9</title>
<path fill="none" stroke="#191970" d="M859.0721,-137.0144C870.6291,-139.3258 883.273,-141.8546 895.7771,-144.3554"/>
<polygon fill="#191970" stroke="#191970" points="895.2595,-147.8212 905.7518,-146.3504 896.6324,-140.9571 895.2595,-147.8212"/>
</g>
<!-- Node10 -->
<g id="node11" class="node">
<title>Node10</title>
<g id="a_node11"><a xlink:href="namespaceargo_a2f35b6b6e0af76fb8fb47f2031d6f58e.html#a2f35b6b6e0af76fb8fb47f2031d6f58e" target="_top" xlink:title="Get the block size of the current allocation policy. ">
<polygon fill="#ffffff" stroke="#000000" points="913.5,-106 913.5,-125 1029.5,-125 1029.5,-106 913.5,-106"/>
<text text-anchor="middle" x="971.5" y="-113" font-family="Helvetica,sans-Serif" font-size="10.00" fill="#000000">argo::get_block_size</text>
</a>
</g>
</g>
<!-- Node8&#45;&gt;Node10 -->
<g id="edge10" class="edge">
<title>Node8&#45;&gt;Node10</title>
<path fill="none" stroke="#191970" d="M870.1696,-123.0998C880.9585,-122.2906 892.3057,-121.4396 903.3452,-120.6116"/>
<polygon fill="#191970" stroke="#191970" points="903.662,-124.0978 913.3722,-119.8596 903.1384,-117.1174 903.662,-124.0978"/>
</g>
<!-- Node11 -->
<g id="node12" class="node">
<title>Node11</title>
<g id="a_node12"><a xlink:href="namespaceargo_1_1data__distribution_a2a70ed49553953957c3a28aa755d7ac8.html#a2a70ed49553953957c3a28aa755d7ac8" target="_top" xlink:title="based on the chosen policy, gets the policy block size ">
<polygon fill="#ffffff" stroke="#000000" points="1073,-119.5 1073,-149.5 1200,-149.5 1200,-119.5 1073,-119.5"/>
<text text-anchor="start" x="1081" y="-137.5" font-family="Helvetica,sans-Serif" font-size="10.00" fill="#000000">argo::data_distribution</text>
<text text-anchor="middle" x="1136.5" y="-126.5" font-family="Helvetica,sans-Serif" font-size="10.00" fill="#000000">::policy_block_size</text>
</a>
</g>
</g>
<!-- Node10&#45;&gt;Node11 -->
<g id="edge11" class="edge">
<title>Node10&#45;&gt;Node11</title>
<path fill="none" stroke="#191970" d="M1029.6728,-122.1987C1040.3993,-123.4339 1051.7284,-124.7384 1062.841,-126.0181"/>
<polygon fill="#191970" stroke="#191970" points="1062.6273,-129.5165 1072.9621,-127.1835 1063.4281,-122.5624 1062.6273,-129.5165"/>
</g>
<!-- Node11&#45;&gt;Node1 -->
<g id="edge15" class="edge">
<title>Node11&#45;&gt;Node1</title>
<path fill="none" stroke="#191970" d="M1178.0535,-149.5408C1199.5118,-157.3079 1225.8784,-166.8517 1248.5549,-175.0597"/>
<polygon fill="#191970" stroke="#191970" points="1247.4281,-178.3741 1258.0223,-178.4866 1249.8106,-171.792 1247.4281,-178.3741"/>
</g>
<!-- Node12 -->
<g id="node13" class="node">
<title>Node12</title>
<g id="a_node13"><a xlink:href="namespaceargo_1_1env_a30775a9aa41b956df7474a2c0cc317aa.html#a30775a9aa41b956df7474a2c0cc317aa" target="_top" xlink:title="get the allocation block size requested by environment variable ">
<polygon fill="#ffffff" stroke="#000000" points="1241.5,-129.5 1241.5,-159.5 1357.5,-159.5 1357.5,-129.5 1241.5,-129.5"/>
<text text-anchor="start" x="1249.5" y="-147.5" font-family="Helvetica,sans-Serif" font-size="10.00" fill="#000000">argo::env::allocation</text>
<text text-anchor="middle" x="1299.5" y="-136.5" font-family="Helvetica,sans-Serif" font-size="10.00" fill="#000000">_block_size</text>
</a>
</g>
</g>
<!-- Node11&#45;&gt;Node12 -->
<g id="edge12" class="edge">
<title>Node11&#45;&gt;Node12</title>
<path fill="none" stroke="#191970" d="M1200.4541,-138.4236C1210.5549,-139.0432 1221.0331,-139.6861 1231.2277,-140.3115"/>
<polygon fill="#191970" stroke="#191970" points="1231.1076,-143.8106 1241.3032,-140.9296 1231.5363,-136.8238 1231.1076,-143.8106"/>
</g>
<!-- Node13 -->
<g id="node14" class="node">
<title>Node13</title>
<g id="a_node14"><a xlink:href="namespaceargo_1_1data__distribution_a1bb3f2dcecd237990e6dc67764f06860.html#a1bb3f2dcecd237990e6dc67764f06860" target="_top" xlink:title="identifies if we distribute data using a cyclic memory policy ">
<polygon fill="#ffffff" stroke="#000000" points="1236,-80.5 1236,-110.5 1363,-110.5 1363,-80.5 1236,-80.5"/>
<text text-anchor="start" x="1244" y="-98.5" font-family="Helvetica,sans-Serif" font-size="10.00" fill="#000000">argo::data_distribution</text>
<text text-anchor="middle" x="1299.5" y="-87.5" font-family="Helvetica,sans-Serif" font-size="10.00" fill="#000000">::is_cyclic_policy</text>
</a>
</g>
</g>
<!-- Node11&#45;&gt;Node13 -->
<g id="edge13" class="edge">
<title>Node11&#45;&gt;Node13</title>
<path fill="none" stroke="#191970" d="M1199.5201,-119.4216C1208.4675,-117.2808 1217.7286,-115.0649 1226.8405,-112.8848"/>
<polygon fill="#191970" stroke="#191970" points="1227.7365,-116.2693 1236.6475,-110.5383 1226.1076,-109.4614 1227.7365,-116.2693"/>
</g>
<!-- Node13&#45;&gt;Node2 -->
<g id="edge14" class="edge">
<title>Node13&#45;&gt;Node2</title>
<path fill="none" stroke="#191970" d="M1348.0403,-110.6014C1364.1339,-115.6083 1382.2114,-121.2324 1398.9467,-126.439"/>
<polygon fill="#191970" stroke="#191970" points="1398.0316,-129.8197 1408.6199,-129.4484 1400.1111,-123.1357 1398.0316,-129.8197"/>
</g>
<!-- Node16 -->
<g id="node17" class="node">
<title>Node16</title>
<g id="a_node17"><a xlink:href="swdsm_8cpp_ab2e5fbbe4d1f44d25619f290dc37dd3e.html#ab2e5fbbe4d1f44d25619f290dc37dd3e" target="_top" xlink:title="Gives homenode for a given address. ">
<polygon fill="#ffffff" stroke="#000000" points="767,-50 767,-69 856,-69 856,-50 767,-50"/>
<text text-anchor="middle" x="811.5" y="-57" font-family="Helvetica,sans-Serif" font-size="10.00" fill="#000000">get_homenode</text>
</a>
</g>
</g>
<!-- Node15&#45;&gt;Node16 -->
<g id="edge18" class="edge">
<title>Node15&#45;&gt;Node16</title>
<path fill="none" stroke="#191970" d="M694.7983,-53.6649C713.8788,-54.6189 736.5155,-55.7508 756.7506,-56.7625"/>
<polygon fill="#191970" stroke="#191970" points="756.61,-60.2598 766.7724,-57.2636 756.9597,-53.2685 756.61,-60.2598"/>
</g>
<!-- Node18 -->
<g id="node19" class="node">
<title>Node18</title>
<g id="a_node19"><a xlink:href="swdsm_8cpp_a974f1a03f5461bb989248cceb41cd95b.html#a974f1a03f5461bb989248cceb41cd95b" target="_top" xlink:title="Gets the offset of an address on the local nodes part of the global memory. ">
<polygon fill="#ffffff" stroke="#000000" points="779,-9 779,-28 844,-28 844,-9 779,-9"/>
<text text-anchor="middle" x="811.5" y="-16" font-family="Helvetica,sans-Serif" font-size="10.00" fill="#000000">get_offset</text>
</a>
</g>
</g>
<!-- Node15&#45;&gt;Node18 -->
<g id="edge20" class="edge">
<title>Node15&#45;&gt;Node18</title>
<path fill="none" stroke="#191970" d="M694.7983,-42.5697C717.8551,-37.8143 746.1048,-31.9878 769.0346,-27.2585"/>
<polygon fill="#191970" stroke="#191970" points="769.7438,-30.686 778.8307,-25.238 768.3298,-23.8303 769.7438,-30.686"/>
</g>
<!-- Node17 -->
<g id="node18" class="node">
<title>Node17</title>
<g id="a_node18"><a xlink:href="classargo_1_1data__distribution_1_1global__ptr_ac7d651586337d08cda18ef26ffcd34a0.html#ac7d651586337d08cda18ef26ffcd34a0" target="_top" xlink:title="return the home node of the value pointed to ">
<polygon fill="#ffffff" stroke="#000000" points="908,-49.5 908,-79.5 1035,-79.5 1035,-49.5 908,-49.5"/>
<text text-anchor="start" x="916" y="-67.5" font-family="Helvetica,sans-Serif" font-size="10.00" fill="#000000">argo::data_distribution</text>
<text text-anchor="middle" x="971.5" y="-56.5" font-family="Helvetica,sans-Serif" font-size="10.00" fill="#000000">::global_ptr::node</text>
</a>
</g>
</g>
<!-- Node16&#45;&gt;Node17 -->
<g id="edge19" class="edge">
<title>Node16&#45;&gt;Node17</title>
<path fill="none" stroke="#191970" d="M856.0689,-60.8928C868.9412,-61.295 883.3472,-61.7452 897.5013,-62.1875"/>
<polygon fill="#191970" stroke="#191970" points="897.6331,-65.6933 907.7375,-62.5074 897.8518,-58.6967 897.6331,-65.6933"/>
</g>
<!-- Node19 -->
<g id="node20" class="node">
<title>Node19</title>
<g id="a_node20"><a xlink:href="classargo_1_1data__distribution_1_1global__ptr_ad8c21c408fa2b926cfd9acfd87e8e4e6.html#ad8c21c408fa2b926cfd9acfd87e8e4e6" target="_top" xlink:title="return the offset on the home node&#39;s local memory share ">
<polygon fill="#ffffff" stroke="#000000" points="908,-.5 908,-30.5 1035,-30.5 1035,-.5 908,-.5"/>
<text text-anchor="start" x="916" y="-18.5" font-family="Helvetica,sans-Serif" font-size="10.00" fill="#000000">argo::data_distribution</text>
<text text-anchor="middle" x="971.5" y="-7.5" font-family="Helvetica,sans-Serif" font-size="10.00" fill="#000000">::global_ptr::offset</text>
</a>
</g>
</g>
<!-- Node18&#45;&gt;Node19 -->
<g id="edge21" class="edge">
<title>Node18&#45;&gt;Node19</title>
<path fill="none" stroke="#191970" d="M844.2645,-17.8857C859.764,-17.595 878.9491,-17.2353 897.6797,-16.8841"/>
<polygon fill="#191970" stroke="#191970" points="897.778,-20.383 907.7106,-16.6961 897.6467,-13.3842 897.778,-20.383"/>
</g>
<!-- Node21&#45;&gt;Node5 -->
<g id="edge26" class="edge">
<title>Node21&#45;&gt;Node5</title>
<path fill="none" stroke="#191970" d="M395.5709,-80.089C413.1752,-84.9719 434.7793,-90.9643 453.601,-96.185"/>
<polygon fill="#191970" stroke="#191970" points="452.8685,-99.6138 463.4402,-98.9141 454.7395,-92.8685 452.8685,-99.6138"/>
</g>
<!-- Node22 -->
<g id="node23" class="node">
<title>Node22</title>
<g id="a_node23"><a xlink:href="swdsm_8cpp_af770e3f703653ddb0967b85d88881ab7.html#af770e3f703653ddb0967b85d88881ab7" target="_top" xlink:title="Gives the ArgoDSM node id for the local process. ">
<polygon fill="#ffffff" stroke="#000000" points="476.5,-61 476.5,-80 519.5,-80 519.5,-61 476.5,-61"/>
<text text-anchor="middle" x="498" y="-68" font-family="Helvetica,sans-Serif" font-size="10.00" fill="#000000">getID</text>
</a>
</g>
</g>
<!-- Node21&#45;&gt;Node22 -->
<g id="edge24" class="edge">
<title>Node21&#45;&gt;Node22</title>
<path fill="none" stroke="#191970" d="M410.0732,-70.5C428.716,-70.5 449.4517,-70.5 466.1023,-70.5"/>
<polygon fill="#191970" stroke="#191970" points="466.3912,-74.0001 476.3911,-70.5 466.3911,-67.0001 466.3912,-74.0001"/>
</g>
<!-- Node23 -->
<g id="node24" class="node">
<title>Node23</title>
<g id="a_node24"><a xlink:href="swdsm_8cpp_aff9ea7ba7f37206d933c8dc8004dbc7b.html#aff9ea7ba7f37206d933c8dc8004dbc7b" target="_top" xlink:title="Gives an index to the sharer/writer vector depending on the address. ">
<polygon fill="#ffffff" stroke="#000000" points="447.5,-11.5 447.5,-41.5 548.5,-41.5 548.5,-11.5 447.5,-11.5"/>
<text text-anchor="start" x="455.5" y="-29.5" font-family="Helvetica,sans-Serif" font-size="10.00" fill="#000000">get_classification</text>
<text text-anchor="middle" x="498" y="-18.5" font-family="Helvetica,sans-Serif" font-size="10.00" fill="#000000">_index</text>
</a>
</g>
</g>
<!-- Node21&#45;&gt;Node23 -->
<g id="edge25" class="edge">
<title>Node21&#45;&gt;Node23</title>
<path fill="none" stroke="#191970" d="M390.727,-60.9527C405.6007,-56.1757 424.1109,-50.2308 441.5462,-44.6311"/>
<polygon fill="#191970" stroke="#191970" points="442.6412,-47.9556 451.0919,-41.5654 440.5007,-41.2909 442.6412,-47.9556"/>
</g>
</g>
</svg>
