<?xml version="1.0" encoding="UTF-8" standalone="no"?>
<!DOCTYPE svg PUBLIC "-//W3C//DTD SVG 1.1//EN"
 "http://www.w3.org/Graphics/SVG/1.1/DTD/svg11.dtd">
<!-- Generated by graphviz version 2.40.1 (20161225.0304)
 -->
<!-- Title: /home/atmerhannah/argodsm/src/backend/mpi/write_buffer.hpp Pages: 1 -->
<svg width="360pt" height="117pt"
 viewBox="0.00 0.00 360.00 117.00" xmlns="http://www.w3.org/2000/svg" xmlns:xlink="http://www.w3.org/1999/xlink">
<g id="graph0" class="graph" transform="scale(1 1) rotate(0) translate(4 113)">
<title>/home/atmerhannah/argodsm/src/backend/mpi/write_buffer.hpp</title>
<polygon fill="#ffffff" stroke="transparent" points="-4,4 -4,-113 356,-113 356,4 -4,4"/>
<!-- Node52 -->
<g id="node1" class="node">
<title>Node52</title>
<polygon fill="#bfbfbf" stroke="#000000" points="98,-67.5 98,-108.5 259,-108.5 259,-67.5 98,-67.5"/>
<text text-anchor="start" x="106" y="-96.5" font-family="Helvetica,sans-Serif" font-size="10.00" fill="#000000">/home/atmerhannah/argodsm</text>
<text text-anchor="start" x="106" y="-85.5" font-family="Helvetica,sans-Serif" font-size="10.00" fill="#000000">/src/backend/mpi/write</text>
<text text-anchor="middle" x="178.5" y="-74.5" font-family="Helvetica,sans-Serif" font-size="10.00" fill="#000000">_buffer.hpp</text>
</g>
<!-- Node53 -->
<g id="node2" class="node">
<title>Node53</title>
<g id="a_node2"><a xlink:href="coherence_8cpp.html" target="_top" xlink:title="This file implements selective coherence mechanisms for ArgoDSM. ">
<polygon fill="#ffffff" stroke="#000000" points="0,-.5 0,-30.5 173,-30.5 173,-.5 0,-.5"/>
<text text-anchor="start" x="8" y="-18.5" font-family="Helvetica,sans-Serif" font-size="10.00" fill="#000000">/home/atmerhannah/argodsm</text>
<text text-anchor="middle" x="86.5" y="-7.5" font-family="Helvetica,sans-Serif" font-size="10.00" fill="#000000">/src/backend/mpi/coherence.cpp</text>
</a>
</g>
</g>
<!-- Node52&#45;&gt;Node53 -->
<g id="edge1" class="edge">
<title>Node52&#45;&gt;Node53</title>
<path fill="none" stroke="#191970" d="M144.4502,-61.1672C131.3552,-50.8478 116.8719,-39.4344 105.6602,-30.5991"/>
<polygon fill="#191970" stroke="#191970" points="142.3619,-63.9778 152.3826,-67.4183 146.6946,-58.4798 142.3619,-63.9778"/>
</g>
<!-- Node54 -->
<g id="node3" class="node">
<title>Node54</title>
<g id="a_node3"><a xlink:href="swdsm_8cpp.html" target="_top" xlink:title="This file implements the MPI&#45;backend of ArgoDSM. ">
<polygon fill="#ffffff" stroke="#000000" points="191,-.5 191,-30.5 352,-30.5 352,-.5 191,-.5"/>
<text text-anchor="start" x="199" y="-18.5" font-family="Helvetica,sans-Serif" font-size="10.00" fill="#000000">/home/atmerhannah/argodsm</text>
<text text-anchor="middle" x="271.5" y="-7.5" font-family="Helvetica,sans-Serif" font-size="10.00" fill="#000000">/src/backend/mpi/swdsm.cpp</text>
</a>
</g>
</g>
<!-- Node52&#45;&gt;Node54 -->
<g id="edge2" class="edge">
<title>Node52&#45;&gt;Node54</title>
<path fill="none" stroke="#191970" d="M212.92,-61.1672C226.1573,-50.8478 240.798,-39.4344 252.1315,-30.5991"/>
<polygon fill="#191970" stroke="#191970" points="210.6361,-58.5097 204.9013,-67.4183 214.9399,-64.0304 210.6361,-58.5097"/>
</g>
</g>
</svg>
