<?xml version="1.0" encoding="UTF-8" standalone="no"?>
<!DOCTYPE svg PUBLIC "-//W3C//DTD SVG 1.1//EN"
 "http://www.w3.org/Graphics/SVG/1.1/DTD/svg11.dtd">
<!-- Generated by graphviz version 2.40.1 (20161225.0304)
 -->
<!-- Title: /home/atmerhannah/argodsm/src/backend/mpi/write_buffer.hpp Pages: 1 -->
<!--zoomable 408 -->
<svg id="main" version="1.1" xmlns="http://www.w3.org/2000/svg" xmlns:xlink="http://www.w3.org/1999/xlink" xml:space="preserve" onload="init(evt)">
<style type="text/css"><![CDATA[
.edge:hover path { stroke: red; }
.edge:hover polygon { stroke: red; fill: red; }
]]></style>
<script type="text/javascript"><![CDATA[
var edges = document.getElementsByTagName('g');
if (edges && edges.length) {
  for (var i=0;i<edges.length;i++) {
    if (edges[i].id.substr(0,4)=='edge') {
      edges[i].setAttribute('class','edge');
    }
  }
}
]]></script>
        <defs>
                <circle id="rim" cx="0" cy="0" r="7"/>
                <circle id="rim2" cx="0" cy="0" r="3.5"/>
                <g id="zoomPlus">
                        <use xlink:href="#rim" fill="#404040">
                                <set attributeName="fill" to="#808080" begin="zoomplus.mouseover" end="zoomplus.mouseout"/>
                        </use>
                        <path d="M-4,0h8M0,-4v8" fill="none" stroke="white" stroke-width="1.5" pointer-events="none"/>
                </g>
                <g id="zoomMin">
                        <use xlink:href="#rim" fill="#404040">
                                <set attributeName="fill" to="#808080" begin="zoomminus.mouseover" end="zoomminus.mouseout"/>
                        </use>
                        <path d="M-4,0h8" fill="none" stroke="white" stroke-width="1.5" pointer-events="none"/>
                </g>
                <g id="dirArrow">
                        <path fill="none" stroke="white" stroke-width="1.5" d="M0,-3.0v7 M-2.5,-0.5L0,-3.0L2.5,-0.5"/>
                </g>
               <g id="resetDef">
                       <use xlink:href="#rim2" fill="#404040">
                               <set attributeName="fill" to="#808080" begin="reset.mouseover" end="reset.mouseout"/>
                       </use>
               </g>
        </defs>

<script type="text/javascript">
var viewWidth = 2301;
var viewHeight = 408;
var sectionId = 'dynsection-0';
</script>
<script xlink:href="svgpan.js"/>
<svg id="graph" class="graph">
<g id="viewport">
<title>/home/atmerhannah/argodsm/src/backend/mpi/write_buffer.hpp</title>
<polygon fill="#ffffff" stroke="transparent" points="-4,4 -4,-404 2297,-404 2297,4 -4,4"/>
<!-- Node0 -->
<g id="node1" class="node">
<title>Node0</title>
<polygon fill="#bfbfbf" stroke="#000000" points="302,-358.5 302,-399.5 463,-399.5 463,-358.5 302,-358.5"/>
<text text-anchor="start" x="310" y="-387.5" font-family="Helvetica,sans-Serif" font-size="10.00" fill="#000000">/home/atmerhannah/argodsm</text>
<text text-anchor="start" x="310" y="-376.5" font-family="Helvetica,sans-Serif" font-size="10.00" fill="#000000">/src/backend/mpi/write</text>
<text text-anchor="middle" x="382.5" y="-365.5" font-family="Helvetica,sans-Serif" font-size="10.00" fill="#000000">_buffer.hpp</text>
</g>
<!-- Node1 -->
<g id="node2" class="node">
<title>Node1</title>
<polygon fill="#ffffff" stroke="#bfbfbf" points="0,-297 0,-316 47,-316 47,-297 0,-297"/>
<text text-anchor="middle" x="23.5" y="-304" font-family="Helvetica,sans-Serif" font-size="10.00" fill="#000000">deque</text>
</g>
<!-- Node0&#45;&gt;Node1 -->
<g id="edge1" class="edge">
<title>Node0&#45;&gt;Node1</title>
<path fill="none" stroke="#191970" d="M301.706,-371.2568C234.5902,-363.3302 137.2233,-348.3427 55.5,-322 53.8439,-321.4662 52.1646,-320.862 50.4871,-320.2094"/>
<polygon fill="#191970" stroke="#191970" points="51.6414,-316.8942 41.0767,-316.0956 48.8375,-323.3081 51.6414,-316.8942"/>
</g>
<!-- Node2 -->
<g id="node3" class="node">
<title>Node2</title>
<polygon fill="#ffffff" stroke="#bfbfbf" points="65,-297 65,-316 118,-316 118,-297 65,-297"/>
<text text-anchor="middle" x="91.5" y="-304" font-family="Helvetica,sans-Serif" font-size="10.00" fill="#000000">iterator</text>
</g>
<!-- Node0&#45;&gt;Node2 -->
<g id="edge2" class="edge">
<title>Node0&#45;&gt;Node2</title>
<path fill="none" stroke="#191970" d="M301.9313,-364.9892C251.2328,-355.195 184.7896,-340.5563 127.5,-322 125.3961,-321.3185 123.2462,-320.5603 121.0958,-319.7557"/>
<polygon fill="#191970" stroke="#191970" points="122.391,-316.5042 111.8069,-316.0265 119.7829,-323.0002 122.391,-316.5042"/>
</g>
<!-- Node3 -->
<g id="node4" class="node">
<title>Node3</title>
<polygon fill="#ffffff" stroke="#bfbfbf" points="136.5,-297 136.5,-316 200.5,-316 200.5,-297 136.5,-297"/>
<text text-anchor="middle" x="168.5" y="-304" font-family="Helvetica,sans-Serif" font-size="10.00" fill="#000000">algorithm</text>
</g>
<!-- Node0&#45;&gt;Node3 -->
<g id="edge3" class="edge">
<title>Node0&#45;&gt;Node3</title>
<path fill="none" stroke="#191970" d="M321.7486,-358.4183C284.7298,-345.8769 238.5655,-330.2372 206.6318,-319.4185"/>
<polygon fill="#191970" stroke="#191970" points="207.3876,-315.9792 196.7933,-316.0853 205.1415,-322.6091 207.3876,-315.9792"/>
</g>
<!-- Node4 -->
<g id="node5" class="node">
<title>Node4</title>
<polygon fill="#ffffff" stroke="#bfbfbf" points="126.5,-56.5 126.5,-75.5 174.5,-75.5 174.5,-56.5 126.5,-56.5"/>
<text text-anchor="middle" x="150.5" y="-63.5" font-family="Helvetica,sans-Serif" font-size="10.00" fill="#000000">mutex</text>
</g>
<!-- Node0&#45;&gt;Node4 -->
<g id="edge4" class="edge">
<title>Node0&#45;&gt;Node4</title>
<path fill="none" stroke="#191970" d="M334.6342,-358.3254C293.0759,-337.9496 234.3933,-302.9129 200.5,-255 163.0032,-201.9932 153.6263,-122.6701 151.2816,-85.959"/>
<polygon fill="#191970" stroke="#191970" points="154.7587,-85.4279 150.7407,-75.6245 147.7682,-85.7938 154.7587,-85.4279"/>
</g>
<!-- Node5 -->
<g id="node6" class="node">
<title>Node5</title>
<polygon fill="#ffffff" stroke="#bfbfbf" points="578.5,-230 578.5,-249 622.5,-249 622.5,-230 578.5,-230"/>
<text text-anchor="middle" x="600.5" y="-237" font-family="Helvetica,sans-Serif" font-size="10.00" fill="#000000">mpi.h</text>
</g>
<!-- Node0&#45;&gt;Node5 -->
<g id="edge5" class="edge">
<title>Node0&#45;&gt;Node5</title>
<path fill="none" stroke="#191970" d="M414.6667,-358.4163C458.9644,-330.0698 537.7093,-279.6803 576.9355,-254.5791"/>
<polygon fill="#191970" stroke="#191970" points="579.0331,-257.3922 585.5696,-249.0541 575.26,-251.496 579.0331,-257.3922"/>
</g>
<!-- Node6 -->
<g id="node7" class="node">
<title>Node6</title>
<g id="a_node7"><a xlink:href="backend_8hpp.html" target="_top" xlink:title="This file provides the backend interface. ">
<polygon fill="#ffffff" stroke="#000000" points="321,-297 321,-316 444,-316 444,-297 321,-297"/>
<text text-anchor="middle" x="382.5" y="-304" font-family="Helvetica,sans-Serif" font-size="10.00" fill="#000000">backend/backend.hpp</text>
</a>
</g>
</g>
<!-- Node0&#45;&gt;Node6 -->
<g id="edge6" class="edge">
<title>Node0&#45;&gt;Node6</title>
<path fill="none" stroke="#191970" d="M382.5,-358.4183C382.5,-348.32 382.5,-336.213 382.5,-326.2314"/>
<polygon fill="#191970" stroke="#191970" points="386.0001,-326.0853 382.5,-316.0853 379.0001,-326.0854 386.0001,-326.0853"/>
</g>
<!-- Node12 -->
<g id="node13" class="node">
<title>Node12</title>
<g id="a_node13"><a xlink:href="env_8hpp.html" target="_top" xlink:title="This file provides facilities for handling environment variables. ">
<polygon fill="#ffffff" stroke="#000000" points="1360,-168.5 1360,-187.5 1445,-187.5 1445,-168.5 1360,-168.5"/>
<text text-anchor="middle" x="1402.5" y="-175.5" font-family="Helvetica,sans-Serif" font-size="10.00" fill="#000000">../env/env.hpp</text>
</a>
</g>
</g>
<!-- Node0&#45;&gt;Node12 -->
<g id="edge30" class="edge">
<title>Node0&#45;&gt;Node12</title>
<path fill="none" stroke="#191970" d="M463.0576,-375.9044C784.1326,-363.1807 1957.7872,-312.8457 2010.5,-255 2019.7801,-244.8163 2019.8677,-234.1032 2010.5,-224 1991.7391,-203.766 1600.1137,-185.9737 1455.5254,-180.0711"/>
<polygon fill="#191970" stroke="#191970" points="1455.2778,-176.5583 1445.1442,-179.6505 1454.9943,-183.5526 1455.2778,-176.5583"/>
</g>
<!-- Node25 -->
<g id="node24" class="node">
<title>Node25</title>
<g id="a_node24"><a xlink:href="virtual__memory_8hpp.html" target="_top" xlink:title="This file provides facilities for handling virtual memory and virtual address space. ">
<polygon fill="#ffffff" stroke="#000000" points="2069,-291.5 2069,-321.5 2198,-321.5 2198,-291.5 2069,-291.5"/>
<text text-anchor="start" x="2077" y="-309.5" font-family="Helvetica,sans-Serif" font-size="10.00" fill="#000000">virtual_memory/virtual</text>
<text text-anchor="middle" x="2133.5" y="-298.5" font-family="Helvetica,sans-Serif" font-size="10.00" fill="#000000">_memory.hpp</text>
</a>
</g>
</g>
<!-- Node0&#45;&gt;Node25 -->
<g id="edge31" class="edge">
<title>Node0&#45;&gt;Node25</title>
<path fill="none" stroke="#191970" d="M463.2204,-377.6887C751.7713,-372.7733 1731.5391,-354.0652 2043.5,-322 2048.4977,-321.4863 2053.6371,-320.8623 2058.8066,-320.1632"/>
<polygon fill="#191970" stroke="#191970" points="2059.3542,-323.6205 2068.7555,-318.7353 2058.3597,-316.6915 2059.3542,-323.6205"/>
</g>
<!-- Node27 -->
<g id="node26" class="node">
<title>Node27</title>
<g id="a_node26"><a xlink:href="swdsm_8h.html" target="_top" xlink:title="this is a legacy file from the ArgoDSM prototype ">
<polygon fill="#ffffff" stroke="#000000" points="1221.5,-297 1221.5,-316 1281.5,-316 1281.5,-297 1221.5,-297"/>
<text text-anchor="middle" x="1251.5" y="-304" font-family="Helvetica,sans-Serif" font-size="10.00" fill="#000000">swdsm.h</text>
</a>
</g>
</g>
<!-- Node0&#45;&gt;Node27 -->
<g id="edge33" class="edge">
<title>Node0&#45;&gt;Node27</title>
<path fill="none" stroke="#191970" d="M463.084,-372.2769C643.9518,-357.1873 1076.8524,-321.0707 1211.0992,-309.8706"/>
<polygon fill="#191970" stroke="#191970" points="1211.6635,-313.3358 1221.3379,-309.0164 1211.0815,-306.36 1211.6635,-313.3358"/>
</g>
<!-- Node7 -->
<g id="node8" class="node">
<title>Node7</title>
<polygon fill="#ffffff" stroke="#bfbfbf" points="356.5,-230 356.5,-249 408.5,-249 408.5,-230 356.5,-230"/>
<text text-anchor="middle" x="382.5" y="-237" font-family="Helvetica,sans-Serif" font-size="10.00" fill="#000000">cassert</text>
</g>
<!-- Node6&#45;&gt;Node7 -->
<g id="edge7" class="edge">
<title>Node6&#45;&gt;Node7</title>
<path fill="none" stroke="#191970" d="M382.5,-296.9005C382.5,-287.149 382.5,-271.7597 382.5,-259.3695"/>
<polygon fill="#191970" stroke="#191970" points="386.0001,-259.0816 382.5,-249.0817 379.0001,-259.0817 386.0001,-259.0816"/>
</g>
<!-- Node8 -->
<g id="node9" class="node">
<title>Node8</title>
<polygon fill="#ffffff" stroke="#bfbfbf" points="510.5,-230 510.5,-249 560.5,-249 560.5,-230 510.5,-230"/>
<text text-anchor="middle" x="535.5" y="-237" font-family="Helvetica,sans-Serif" font-size="10.00" fill="#000000">cstdint</text>
</g>
<!-- Node6&#45;&gt;Node8 -->
<g id="edge8" class="edge">
<title>Node6&#45;&gt;Node8</title>
<path fill="none" stroke="#191970" d="M404.6988,-296.8539C428.4284,-286.5326 467.1469,-269.6635 500.5,-255 501.8688,-254.3982 503.2674,-253.7825 504.6799,-253.1599"/>
<polygon fill="#191970" stroke="#191970" points="506.3035,-256.269 514.0368,-249.0269 503.4752,-249.8658 506.3035,-256.269"/>
</g>
<!-- Node9 -->
<g id="node10" class="node">
<title>Node9</title>
<polygon fill="#ffffff" stroke="#bfbfbf" points="427,-230 427,-249 492,-249 492,-230 427,-230"/>
<text text-anchor="middle" x="459.5" y="-237" font-family="Helvetica,sans-Serif" font-size="10.00" fill="#000000">stdexcept</text>
</g>
<!-- Node6&#45;&gt;Node9 -->
<g id="edge9" class="edge">
<title>Node6&#45;&gt;Node9</title>
<path fill="none" stroke="#191970" d="M393.5322,-296.9005C405.8828,-286.1539 426.1023,-268.5603 440.9057,-255.6794"/>
<polygon fill="#191970" stroke="#191970" points="443.2418,-258.2863 448.4882,-249.0817 438.6468,-253.0055 443.2418,-258.2863"/>
</g>
<!-- Node10 -->
<g id="node11" class="node">
<title>Node10</title>
<g id="a_node11"><a xlink:href="global__ptr_8hpp.html" target="_top" xlink:title="This file provides the global pointer for ArgoDSM. ">
<polygon fill="#ffffff" stroke="#000000" points="230.5,-224.5 230.5,-254.5 338.5,-254.5 338.5,-224.5 230.5,-224.5"/>
<text text-anchor="start" x="238.5" y="-242.5" font-family="Helvetica,sans-Serif" font-size="10.00" fill="#000000">../data_distribution</text>
<text text-anchor="middle" x="284.5" y="-231.5" font-family="Helvetica,sans-Serif" font-size="10.00" fill="#000000">/global_ptr.hpp</text>
</a>
</g>
</g>
<!-- Node6&#45;&gt;Node10 -->
<g id="edge10" class="edge">
<title>Node6&#45;&gt;Node10</title>
<path fill="none" stroke="#191970" d="M368.459,-296.9005C354.5412,-287.3853 332.772,-272.5023 314.888,-260.2755"/>
<polygon fill="#191970" stroke="#191970" points="316.7026,-257.2763 306.4721,-254.5218 312.7519,-263.0549 316.7026,-257.2763"/>
</g>
<!-- Node19 -->
<g id="node18" class="node">
<title>Node19</title>
<g id="a_node18"><a xlink:href="types_8hpp.html" target="_top" xlink:title="This file defines common types used in ArgoDSM. ">
<polygon fill="#ffffff" stroke="#000000" points="303.5,-.5 303.5,-19.5 407.5,-19.5 407.5,-.5 303.5,-.5"/>
<text text-anchor="middle" x="355.5" y="-7.5" font-family="Helvetica,sans-Serif" font-size="10.00" fill="#000000">../types/types.hpp</text>
</a>
</g>
</g>
<!-- Node6&#45;&gt;Node19 -->
<g id="edge29" class="edge">
<title>Node6&#45;&gt;Node19</title>
<path fill="none" stroke="#191970" d="M336.3445,-296.9934C294.5834,-287.487 237.2794,-271.885 221.5,-255 197.4328,-229.2465 202.5,-213.2487 202.5,-178 202.5,-178 202.5,-178 202.5,-122 202.5,-68.79 263.4968,-38.1229 308.4631,-22.7445"/>
<polygon fill="#191970" stroke="#191970" points="309.6545,-26.0374 318.072,-19.6035 307.4794,-19.3839 309.6545,-26.0374"/>
</g>
<!-- Node11 -->
<g id="node12" class="node">
<title>Node11</title>
<polygon fill="#ffffff" stroke="#bfbfbf" points="609.5,-168.5 609.5,-187.5 653.5,-187.5 653.5,-168.5 609.5,-168.5"/>
<text text-anchor="middle" x="631.5" y="-175.5" font-family="Helvetica,sans-Serif" font-size="10.00" fill="#000000">string</text>
</g>
<!-- Node10&#45;&gt;Node11 -->
<g id="edge11" class="edge">
<title>Node10&#45;&gt;Node11</title>
<path fill="none" stroke="#191970" d="M338.7201,-225.7955C341.6839,-225.1604 344.6249,-224.5568 347.5,-224 455.8475,-203.0174 488.0182,-212.9235 599.3372,-187.9453"/>
<polygon fill="#191970" stroke="#191970" points="600.309,-191.3135 609.2762,-185.6707 598.7474,-184.4899 600.309,-191.3135"/>
</g>
<!-- Node10&#45;&gt;Node12 -->
<g id="edge12" class="edge">
<title>Node10&#45;&gt;Node12</title>
<path fill="none" stroke="#191970" d="M338.6626,-225.4537C341.6412,-224.9067 344.6011,-224.4156 347.5,-224 544.3122,-195.7815 1164.9581,-182.3587 1349.9575,-178.9166"/>
<polygon fill="#191970" stroke="#191970" points="1350.0433,-182.4158 1359.9771,-178.7321 1349.9143,-175.4169 1350.0433,-182.4158"/>
</g>
<!-- Node14 -->
<g id="node15" class="node">
<title>Node14</title>
<g id="a_node15"><a xlink:href="data__distribution_8hpp.html" target="_top" xlink:title="This file provides an abstraction layer for distributing the shared memory space. ...">
<polygon fill="#ffffff" stroke="#000000" points="471.5,-168.5 471.5,-187.5 591.5,-187.5 591.5,-168.5 471.5,-168.5"/>
<text text-anchor="middle" x="531.5" y="-175.5" font-family="Helvetica,sans-Serif" font-size="10.00" fill="#000000">data_distribution.hpp</text>
</a>
</g>
</g>
<!-- Node10&#45;&gt;Node14 -->
<g id="edge14" class="edge">
<title>Node10&#45;&gt;Node14</title>
<path fill="none" stroke="#191970" d="M338.7052,-226.0036C381.8673,-215.2567 441.7252,-200.3528 483.2464,-190.0146"/>
<polygon fill="#191970" stroke="#191970" points="484.2653,-193.3678 493.1233,-187.5553 482.5739,-186.5752 484.2653,-193.3678"/>
</g>
<!-- Node13 -->
<g id="node14" class="node">
<title>Node13</title>
<polygon fill="#ffffff" stroke="#bfbfbf" points="1376,-112.5 1376,-131.5 1429,-131.5 1429,-112.5 1376,-112.5"/>
<text text-anchor="middle" x="1402.5" y="-119.5" font-family="Helvetica,sans-Serif" font-size="10.00" fill="#000000">cstddef</text>
</g>
<!-- Node12&#45;&gt;Node13 -->
<g id="edge13" class="edge">
<title>Node12&#45;&gt;Node13</title>
<path fill="none" stroke="#191970" d="M1402.5,-168.2455C1402.5,-160.9382 1402.5,-150.6944 1402.5,-141.7046"/>
<polygon fill="#191970" stroke="#191970" points="1406.0001,-141.6426 1402.5,-131.6427 1399.0001,-141.6427 1406.0001,-141.6426"/>
</g>
<!-- Node15 -->
<g id="node16" class="node">
<title>Node15</title>
<g id="a_node16"><a xlink:href="base__distribution_8hpp.html" target="_top" xlink:title="This file implements the base distribution class for all the policies to derive from. ">
<polygon fill="#ffffff" stroke="#ff0000" points="542.5,-56.5 542.5,-75.5 664.5,-75.5 664.5,-56.5 542.5,-56.5"/>
<text text-anchor="middle" x="603.5" y="-63.5" font-family="Helvetica,sans-Serif" font-size="10.00" fill="#000000">base_distribution.hpp</text>
</a>
</g>
</g>
<!-- Node14&#45;&gt;Node15 -->
<g id="edge15" class="edge">
<title>Node14&#45;&gt;Node15</title>
<path fill="none" stroke="#191970" d="M591.6831,-169.0601C594.6622,-168.6859 597.6138,-168.3299 600.5,-168 648.0247,-162.5671 997.1212,-167.2097 1029.5,-132 1035.5169,-125.4571 1035.4384,-118.6142 1029.5,-112 1006.2841,-86.1423 789.9922,-73.5246 674.8548,-68.5952"/>
<polygon fill="#191970" stroke="#191970" points="674.8523,-65.0921 664.7143,-68.1698 674.5588,-72.086 674.8523,-65.0921"/>
</g>
<!-- Node20 -->
<g id="node19" class="node">
<title>Node20</title>
<g id="a_node19"><a xlink:href="naive__distribution_8hpp.html" target="_top" xlink:title="This file implements the naive data distribution. ">
<polygon fill="#ffffff" stroke="#000000" points="397,-112.5 397,-131.5 522,-131.5 522,-112.5 397,-112.5"/>
<text text-anchor="middle" x="459.5" y="-119.5" font-family="Helvetica,sans-Serif" font-size="10.00" fill="#000000">naive_distribution.hpp</text>
</a>
</g>
</g>
<!-- Node14&#45;&gt;Node20 -->
<g id="edge18" class="edge">
<title>Node14&#45;&gt;Node20</title>
<path fill="none" stroke="#191970" d="M518.9586,-168.2455C508.2213,-159.8943 492.5527,-147.7076 479.9953,-137.9408"/>
<polygon fill="#191970" stroke="#191970" points="481.9401,-135.0194 471.8977,-131.6427 477.6425,-140.5449 481.9401,-135.0194"/>
</g>
<!-- Node21 -->
<g id="node20" class="node">
<title>Node21</title>
<g id="a_node20"><a xlink:href="cyclic__distribution_8hpp.html" target="_top" xlink:title="This file implements the cyclic data distribution. ">
<polygon fill="#ffffff" stroke="#000000" points="540.5,-112.5 540.5,-131.5 666.5,-131.5 666.5,-112.5 540.5,-112.5"/>
<text text-anchor="middle" x="603.5" y="-119.5" font-family="Helvetica,sans-Serif" font-size="10.00" fill="#000000">cyclic_distribution.hpp</text>
</a>
</g>
</g>
<!-- Node14&#45;&gt;Node21 -->
<g id="edge20" class="edge">
<title>Node14&#45;&gt;Node21</title>
<path fill="none" stroke="#191970" d="M544.0414,-168.2455C554.7787,-159.8943 570.4473,-147.7076 583.0047,-137.9408"/>
<polygon fill="#191970" stroke="#191970" points="585.3575,-140.5449 591.1023,-131.6427 581.0599,-135.0194 585.3575,-140.5449"/>
</g>
<!-- Node22 -->
<g id="node21" class="node">
<title>Node22</title>
<g id="a_node21"><a xlink:href="skew__mapp__distribution_8hpp.html" target="_top" xlink:title="This file implements the skew&#45;mapp data distribution. ">
<polygon fill="#ffffff" stroke="#000000" points="685,-112.5 685,-131.5 842,-131.5 842,-112.5 685,-112.5"/>
<text text-anchor="middle" x="763.5" y="-119.5" font-family="Helvetica,sans-Serif" font-size="10.00" fill="#000000">skew_mapp_distribution.hpp</text>
</a>
</g>
</g>
<!-- Node14&#45;&gt;Node22 -->
<g id="edge22" class="edge">
<title>Node14&#45;&gt;Node22</title>
<path fill="none" stroke="#191970" d="M571.1186,-168.4369C610.6568,-158.8932 671.5069,-144.2052 714.1582,-133.9101"/>
<polygon fill="#191970" stroke="#191970" points="715.1452,-137.2724 724.0448,-131.5237 713.5027,-130.4679 715.1452,-137.2724"/>
</g>
<!-- Node23 -->
<g id="node22" class="node">
<title>Node23</title>
<g id="a_node22"><a xlink:href="prime__mapp__distribution_8hpp.html" target="_top" xlink:title="This file implements the prime&#45;mapp data distribution. ">
<polygon fill="#ffffff" stroke="#000000" points="860.5,-112.5 860.5,-131.5 1020.5,-131.5 1020.5,-112.5 860.5,-112.5"/>
<text text-anchor="middle" x="940.5" y="-119.5" font-family="Helvetica,sans-Serif" font-size="10.00" fill="#000000">prime_mapp_distribution.hpp</text>
</a>
</g>
</g>
<!-- Node14&#45;&gt;Node23 -->
<g id="edge24" class="edge">
<title>Node14&#45;&gt;Node23</title>
<path fill="none" stroke="#191970" d="M591.706,-169.2403C594.6791,-168.8185 597.6231,-168.4031 600.5,-168 688.6315,-155.6521 789.6968,-142.0495 858.5826,-132.8623"/>
<polygon fill="#191970" stroke="#191970" points="859.0573,-136.3301 868.5072,-131.5395 858.1324,-129.3914 859.0573,-136.3301"/>
</g>
<!-- Node24 -->
<g id="node23" class="node">
<title>Node24</title>
<g id="a_node23"><a xlink:href="first__touch__distribution_8hpp.html" target="_top" xlink:title="This file implements the first&#45;touch data distribution. ">
<polygon fill="#ffffff" stroke="#000000" points="230,-112.5 230,-131.5 379,-131.5 379,-112.5 230,-112.5"/>
<text text-anchor="middle" x="304.5" y="-119.5" font-family="Helvetica,sans-Serif" font-size="10.00" fill="#000000">first_touch_distribution.hpp</text>
</a>
</g>
</g>
<!-- Node14&#45;&gt;Node24 -->
<g id="edge26" class="edge">
<title>Node14&#45;&gt;Node24</title>
<path fill="none" stroke="#191970" d="M492.7352,-168.4369C454.1308,-158.9133 394.7616,-144.2672 353.0428,-133.9753"/>
<polygon fill="#191970" stroke="#191970" points="353.6521,-130.5208 343.1049,-131.5237 351.9755,-137.317 353.6521,-130.5208"/>
</g>
<!-- Node16 -->
<g id="node17" class="node">
<title>Node16</title>
<polygon fill="#ffffff" stroke="#bfbfbf" points="579,-.5 579,-19.5 628,-19.5 628,-.5 579,-.5"/>
<text text-anchor="middle" x="603.5" y="-7.5" font-family="Helvetica,sans-Serif" font-size="10.00" fill="#000000">cstdlib</text>
</g>
<!-- Node15&#45;&gt;Node16 -->
<g id="edge16" class="edge">
<title>Node15&#45;&gt;Node16</title>
<path fill="none" stroke="#191970" d="M603.5,-56.2455C603.5,-48.9382 603.5,-38.6944 603.5,-29.7046"/>
<polygon fill="#191970" stroke="#191970" points="607.0001,-29.6426 603.5,-19.6427 600.0001,-29.6427 607.0001,-29.6426"/>
</g>
<!-- Node15&#45;&gt;Node19 -->
<g id="edge17" class="edge">
<title>Node15&#45;&gt;Node19</title>
<path fill="none" stroke="#191970" d="M561.1491,-56.4369C518.7058,-46.8529 453.2881,-32.0812 407.6687,-21.78"/>
<polygon fill="#191970" stroke="#191970" points="408.2016,-18.3123 397.6763,-19.5237 406.6597,-25.1404 408.2016,-18.3123"/>
</g>
<!-- Node20&#45;&gt;Node15 -->
<g id="edge19" class="edge">
<title>Node20&#45;&gt;Node15</title>
<path fill="none" stroke="#191970" d="M484.2545,-112.3733C507.7849,-103.2226 543.3687,-89.3844 569.5426,-79.2057"/>
<polygon fill="#191970" stroke="#191970" points="571.0171,-82.3877 579.0685,-75.5011 568.4799,-75.8636 571.0171,-82.3877"/>
</g>
<!-- Node21&#45;&gt;Node15 -->
<g id="edge21" class="edge">
<title>Node21&#45;&gt;Node15</title>
<path fill="none" stroke="#191970" d="M603.5,-112.2455C603.5,-104.9382 603.5,-94.6944 603.5,-85.7046"/>
<polygon fill="#191970" stroke="#191970" points="607.0001,-85.6426 603.5,-75.6427 600.0001,-85.6427 607.0001,-85.6426"/>
</g>
<!-- Node22&#45;&gt;Node15 -->
<g id="edge23" class="edge">
<title>Node22&#45;&gt;Node15</title>
<path fill="none" stroke="#191970" d="M735.995,-112.3733C709.6198,-103.1419 669.6149,-89.1402 640.4642,-78.9375"/>
<polygon fill="#191970" stroke="#191970" points="641.2409,-75.5012 630.6461,-75.5011 638.9284,-82.1082 641.2409,-75.5012"/>
</g>
<!-- Node23&#45;&gt;Node15 -->
<g id="edge25" class="edge">
<title>Node23&#45;&gt;Node15</title>
<path fill="none" stroke="#191970" d="M882.9505,-112.4369C824.1851,-102.6717 733.0087,-87.5207 670.9034,-77.2006"/>
<polygon fill="#191970" stroke="#191970" points="671.2506,-73.7103 660.8121,-75.5237 670.1031,-80.6157 671.2506,-73.7103"/>
</g>
<!-- Node24&#45;&gt;Node4 -->
<g id="edge27" class="edge">
<title>Node24&#45;&gt;Node4</title>
<path fill="none" stroke="#191970" d="M278.0265,-112.3733C252.0249,-102.9181 212.2609,-88.4585 184.0563,-78.2023"/>
<polygon fill="#191970" stroke="#191970" points="185.1976,-74.8931 174.6035,-74.7649 182.8053,-81.4717 185.1976,-74.8931"/>
</g>
<!-- Node24&#45;&gt;Node15 -->
<g id="edge28" class="edge">
<title>Node24&#45;&gt;Node15</title>
<path fill="none" stroke="#191970" d="M355.5602,-112.4369C407.3768,-102.7321 487.595,-87.708 542.6715,-77.3926"/>
<polygon fill="#191970" stroke="#191970" points="543.4656,-80.8048 552.6504,-75.5237 542.177,-73.9245 543.4656,-80.8048"/>
</g>
<!-- Node26 -->
<g id="node25" class="node">
<title>Node26</title>
<polygon fill="#ffffff" stroke="#bfbfbf" points="2123,-230 2123,-249 2168,-249 2168,-230 2123,-230"/>
<text text-anchor="middle" x="2145.5" y="-237" font-family="Helvetica,sans-Serif" font-size="10.00" fill="#000000">utility</text>
</g>
<!-- Node25&#45;&gt;Node26 -->
<g id="edge32" class="edge">
<title>Node25&#45;&gt;Node26</title>
<path fill="none" stroke="#191970" d="M2136.223,-291.2967C2137.9293,-281.7699 2140.1456,-269.3954 2141.9841,-259.1306"/>
<polygon fill="#191970" stroke="#191970" points="2145.4708,-259.5154 2143.7887,-249.055 2138.5804,-258.2813 2145.4708,-259.5154"/>
</g>
<!-- Node27&#45;&gt;Node5 -->
<g id="edge41" class="edge">
<title>Node27&#45;&gt;Node5</title>
<path fill="none" stroke="#191970" d="M1221.3237,-305.5068C1113.0574,-301.7091 744.6022,-286.6994 631.5,-255 629.7872,-254.5199 628.0565,-253.9441 626.335,-253.3009"/>
<polygon fill="#191970" stroke="#191970" points="627.3253,-249.9124 616.7632,-249.08 624.5009,-256.3173 627.3253,-249.9124"/>
</g>
<!-- Node27&#45;&gt;Node8 -->
<g id="edge34" class="edge">
<title>Node27&#45;&gt;Node8</title>
<path fill="none" stroke="#191970" d="M1221.1656,-305.6239C1105.9424,-302.0775 695.5718,-287.4 569.5,-255 567.3049,-254.4359 565.0756,-253.737 562.8625,-252.9507"/>
<polygon fill="#191970" stroke="#191970" points="563.9994,-249.6344 553.4185,-249.0904 561.3508,-256.114 563.9994,-249.6344"/>
</g>
<!-- Node28 -->
<g id="node27" class="node">
<title>Node28</title>
<polygon fill="#ffffff" stroke="#bfbfbf" points="1333,-230 1333,-249 1402,-249 1402,-230 1333,-230"/>
<text text-anchor="middle" x="1367.5" y="-237" font-family="Helvetica,sans-Serif" font-size="10.00" fill="#000000">type_traits</text>
</g>
<!-- Node27&#45;&gt;Node28 -->
<g id="edge35" class="edge">
<title>Node27&#45;&gt;Node28</title>
<path fill="none" stroke="#191970" d="M1268.12,-296.9005C1287.5012,-285.7062 1319.7455,-267.0823 1342.2315,-254.0947"/>
<polygon fill="#191970" stroke="#191970" points="1344.002,-257.114 1350.9109,-249.0817 1340.5009,-251.0525 1344.002,-257.114"/>
</g>
<!-- Node29 -->
<g id="node28" class="node">
<title>Node29</title>
<polygon fill="#ffffff" stroke="#bfbfbf" points="1420.5,-230 1420.5,-249 1476.5,-249 1476.5,-230 1420.5,-230"/>
<text text-anchor="middle" x="1448.5" y="-237" font-family="Helvetica,sans-Serif" font-size="10.00" fill="#000000">assert.h</text>
</g>
<!-- Node27&#45;&gt;Node29 -->
<g id="edge36" class="edge">
<title>Node27&#45;&gt;Node29</title>
<path fill="none" stroke="#191970" d="M1281.6167,-297.4739C1313.7626,-287.6704 1366.0756,-271.2295 1410.5,-255 1412.3571,-254.3215 1414.2581,-253.608 1416.1717,-252.8751"/>
<polygon fill="#191970" stroke="#191970" points="1417.679,-256.0431 1425.699,-249.12 1415.1122,-249.5307 1417.679,-256.0431"/>
</g>
<!-- Node30 -->
<g id="node29" class="node">
<title>Node30</title>
<polygon fill="#ffffff" stroke="#bfbfbf" points="1495,-230 1495,-249 1546,-249 1546,-230 1495,-230"/>
<text text-anchor="middle" x="1520.5" y="-237" font-family="Helvetica,sans-Serif" font-size="10.00" fill="#000000">errno.h</text>
</g>
<!-- Node27&#45;&gt;Node30 -->
<g id="edge37" class="edge">
<title>Node27&#45;&gt;Node30</title>
<path fill="none" stroke="#191970" d="M1281.5626,-301.8681C1326.604,-294.4863 1413.9548,-278.4527 1485.5,-255 1487.3945,-254.379 1489.3256,-253.6907 1491.2588,-252.9593"/>
<polygon fill="#191970" stroke="#191970" points="1492.8554,-256.0876 1500.7812,-249.0568 1490.2008,-249.6104 1492.8554,-256.0876"/>
</g>
<!-- Node31 -->
<g id="node30" class="node">
<title>Node31</title>
<polygon fill="#ffffff" stroke="#bfbfbf" points="1564,-230 1564,-249 1611,-249 1611,-230 1564,-230"/>
<text text-anchor="middle" x="1587.5" y="-237" font-family="Helvetica,sans-Serif" font-size="10.00" fill="#000000">fcntl.h</text>
</g>
<!-- Node27&#45;&gt;Node31 -->
<g id="edge38" class="edge">
<title>Node27&#45;&gt;Node31</title>
<path fill="none" stroke="#191970" d="M1281.8074,-304.0816C1337.0809,-299.0749 1457.5047,-285.4016 1554.5,-255 1556.3573,-254.4179 1558.2445,-253.7519 1560.1277,-253.0308"/>
<polygon fill="#191970" stroke="#191970" points="1561.5272,-256.239 1569.3525,-249.0964 1558.7811,-249.8001 1561.5272,-256.239"/>
</g>
<!-- Node32 -->
<g id="node31" class="node">
<title>Node32</title>
<polygon fill="#ffffff" stroke="#bfbfbf" points="1629,-230 1629,-249 1688,-249 1688,-230 1629,-230"/>
<text text-anchor="middle" x="1658.5" y="-237" font-family="Helvetica,sans-Serif" font-size="10.00" fill="#000000">malloc.h</text>
</g>
<!-- Node27&#45;&gt;Node32 -->
<g id="edge39" class="edge">
<title>Node27&#45;&gt;Node32</title>
<path fill="none" stroke="#191970" d="M1281.5527,-304.7346C1344.9478,-300.4814 1496.6404,-287.5082 1619.5,-255 1622.1171,-254.3075 1624.7961,-253.4895 1627.4639,-252.597"/>
<polygon fill="#191970" stroke="#191970" points="1628.7558,-255.8514 1636.9456,-249.1299 1626.3517,-249.2771 1628.7558,-255.8514"/>
</g>
<!-- Node33 -->
<g id="node32" class="node">
<title>Node33</title>
<polygon fill="#ffffff" stroke="#bfbfbf" points="1706,-230 1706,-249 1757,-249 1757,-230 1706,-230"/>
<text text-anchor="middle" x="1731.5" y="-237" font-family="Helvetica,sans-Serif" font-size="10.00" fill="#000000">math.h</text>
</g>
<!-- Node27&#45;&gt;Node33 -->
<g id="edge40" class="edge">
<title>Node27&#45;&gt;Node33</title>
<path fill="none" stroke="#191970" d="M1281.8088,-304.1889C1368.7395,-297.3712 1617.712,-276.4712 1696.5,-255 1698.688,-254.4037 1700.9146,-253.691 1703.1306,-252.9035"/>
<polygon fill="#191970" stroke="#191970" points="1704.6437,-256.0678 1712.6258,-249.101 1702.0413,-249.5695 1704.6437,-256.0678"/>
</g>
<!-- Node34 -->
<g id="node33" class="node">
<title>Node34</title>
<polygon fill="#ffffff" stroke="#bfbfbf" points="1775,-230 1775,-249 1838,-249 1838,-230 1775,-230"/>
<text text-anchor="middle" x="1806.5" y="-237" font-family="Helvetica,sans-Serif" font-size="10.00" fill="#000000">pthread.h</text>
</g>
<!-- Node27&#45;&gt;Node34 -->
<g id="edge42" class="edge">
<title>Node27&#45;&gt;Node34</title>
<path fill="none" stroke="#191970" d="M1281.5894,-304.5227C1377.0519,-298.0868 1672.2988,-276.8865 1765.5,-255 1768.5142,-254.2922 1771.606,-253.4178 1774.6745,-252.4477"/>
<polygon fill="#191970" stroke="#191970" points="1775.9778,-255.7002 1784.2734,-249.1097 1773.6786,-249.0885 1775.9778,-255.7002"/>
</g>
<!-- Node35 -->
<g id="node34" class="node">
<title>Node35</title>
<polygon fill="#ffffff" stroke="#bfbfbf" points="1856,-230 1856,-249 1903,-249 1903,-230 1856,-230"/>
<text text-anchor="middle" x="1879.5" y="-237" font-family="Helvetica,sans-Serif" font-size="10.00" fill="#000000">omp.h</text>
</g>
<!-- Node27&#45;&gt;Node35 -->
<g id="edge43" class="edge">
<title>Node27&#45;&gt;Node35</title>
<path fill="none" stroke="#191970" d="M1281.5189,-305.2974C1386.6901,-300.8675 1737.9874,-284.1837 1846.5,-255 1848.4713,-254.4698 1850.4696,-253.8273 1852.4569,-253.109"/>
<polygon fill="#191970" stroke="#191970" points="1854.2547,-256.1505 1862.1247,-249.0572 1851.549,-249.6946 1854.2547,-256.1505"/>
</g>
<!-- Node36 -->
<g id="node35" class="node">
<title>Node36</title>
<polygon fill="#ffffff" stroke="#bfbfbf" points="1921.5,-230 1921.5,-249 2001.5,-249 2001.5,-230 1921.5,-230"/>
<text text-anchor="middle" x="1961.5" y="-237" font-family="Helvetica,sans-Serif" font-size="10.00" fill="#000000">semaphore.h</text>
</g>
<!-- Node27&#45;&gt;Node36 -->
<g id="edge44" class="edge">
<title>Node27&#45;&gt;Node36</title>
<path fill="none" stroke="#191970" d="M1281.5628,-305.0726C1393.9023,-299.5966 1788.9191,-279.0313 1912.5,-255 1916.6876,-254.1857 1921.0202,-253.1349 1925.2976,-251.9643"/>
<polygon fill="#191970" stroke="#191970" points="1926.4866,-255.2626 1935.0837,-249.0706 1924.5016,-248.5499 1926.4866,-255.2626"/>
</g>
<!-- Node37 -->
<g id="node36" class="node">
<title>Node37</title>
<polygon fill="#ffffff" stroke="#bfbfbf" points="641,-230 641,-249 696,-249 696,-230 641,-230"/>
<text text-anchor="middle" x="668.5" y="-237" font-family="Helvetica,sans-Serif" font-size="10.00" fill="#000000">signal.h</text>
</g>
<!-- Node27&#45;&gt;Node37 -->
<g id="edge45" class="edge">
<title>Node27&#45;&gt;Node37</title>
<path fill="none" stroke="#191970" d="M1221.2645,-304.8539C1121.6789,-299.2439 804.672,-279.8349 705.5,-255 702.8673,-254.3407 700.1788,-253.523 697.5124,-252.6103"/>
<polygon fill="#191970" stroke="#191970" points="698.6827,-249.3107 688.0924,-249.0027 696.1792,-255.8477 698.6827,-249.3107"/>
</g>
<!-- Node38 -->
<g id="node37" class="node">
<title>Node38</title>
<polygon fill="#ffffff" stroke="#bfbfbf" points="714.5,-230 714.5,-249 764.5,-249 764.5,-230 714.5,-230"/>
<text text-anchor="middle" x="739.5" y="-237" font-family="Helvetica,sans-Serif" font-size="10.00" fill="#000000">stdio.h</text>
</g>
<!-- Node27&#45;&gt;Node38 -->
<g id="edge46" class="edge">
<title>Node27&#45;&gt;Node38</title>
<path fill="none" stroke="#191970" d="M1221.2317,-304.5097C1129.9985,-298.3109 858.7264,-278.3607 773.5,-255 771.5292,-254.4598 769.5287,-253.8179 767.5355,-253.1074"/>
<polygon fill="#191970" stroke="#191970" points="768.3845,-249.6738 757.8032,-249.1379 765.7408,-256.1554 768.3845,-249.6738"/>
</g>
<!-- Node39 -->
<g id="node38" class="node">
<title>Node39</title>
<polygon fill="#ffffff" stroke="#bfbfbf" points="783,-230 783,-249 836,-249 836,-230 783,-230"/>
<text text-anchor="middle" x="809.5" y="-237" font-family="Helvetica,sans-Serif" font-size="10.00" fill="#000000">stdlib.h</text>
</g>
<!-- Node27&#45;&gt;Node39 -->
<g id="edge47" class="edge">
<title>Node27&#45;&gt;Node39</title>
<path fill="none" stroke="#191970" d="M1221.2942,-305.6667C1152.9525,-303.1389 981.7329,-293.1847 844.5,-255 842.3152,-254.3921 840.0909,-253.6708 837.8766,-252.8772"/>
<polygon fill="#191970" stroke="#191970" points="838.9688,-249.5441 828.3849,-249.0622 836.3582,-256.0391 838.9688,-249.5441"/>
</g>
<!-- Node40 -->
<g id="node39" class="node">
<title>Node40</title>
<polygon fill="#ffffff" stroke="#bfbfbf" points="854,-230 854,-249 907,-249 907,-230 854,-230"/>
<text text-anchor="middle" x="880.5" y="-237" font-family="Helvetica,sans-Serif" font-size="10.00" fill="#000000">string.h</text>
</g>
<!-- Node27&#45;&gt;Node40 -->
<g id="edge48" class="edge">
<title>Node27&#45;&gt;Node40</title>
<path fill="none" stroke="#191970" d="M1221.2581,-304.5554C1161.6842,-300.1401 1025.3863,-287.1336 915.5,-255 913.3752,-254.3786 911.2107,-253.6565 909.0528,-252.8704"/>
<polygon fill="#191970" stroke="#191970" points="910.3618,-249.6245 899.7786,-249.1281 907.7424,-256.1159 910.3618,-249.6245"/>
</g>
<!-- Node41 -->
<g id="node40" class="node">
<title>Node41</title>
<polygon fill="#ffffff" stroke="#bfbfbf" points="925,-230 925,-249 1002,-249 1002,-230 925,-230"/>
<text text-anchor="middle" x="963.5" y="-237" font-family="Helvetica,sans-Serif" font-size="10.00" fill="#000000">sys/mman.h</text>
</g>
<!-- Node27&#45;&gt;Node41 -->
<g id="edge49" class="edge">
<title>Node27&#45;&gt;Node41</title>
<path fill="none" stroke="#191970" d="M1221.3348,-301.0413C1175.6215,-292.5412 1086.2097,-275.0234 1011.5,-255 1008.1417,-254.0999 1004.6705,-253.1062 1001.2023,-252.0696"/>
<polygon fill="#191970" stroke="#191970" points="1002.1197,-248.6897 991.5319,-249.0764 1000.0499,-255.3768 1002.1197,-248.6897"/>
</g>
<!-- Node42 -->
<g id="node41" class="node">
<title>Node42</title>
<polygon fill="#ffffff" stroke="#bfbfbf" points="1020.5,-230 1020.5,-249 1084.5,-249 1084.5,-230 1020.5,-230"/>
<text text-anchor="middle" x="1052.5" y="-237" font-family="Helvetica,sans-Serif" font-size="10.00" fill="#000000">sys/stat.h</text>
</g>
<!-- Node27&#45;&gt;Node42 -->
<g id="edge50" class="edge">
<title>Node27&#45;&gt;Node42</title>
<path fill="none" stroke="#191970" d="M1221.3648,-297.1347C1189.4682,-287.1155 1137.726,-270.5581 1093.5,-255 1091.259,-254.2116 1088.9548,-253.385 1086.6362,-252.5413"/>
<polygon fill="#191970" stroke="#191970" points="1087.7415,-249.2184 1077.1483,-249.0298 1085.3118,-255.7832 1087.7415,-249.2184"/>
</g>
<!-- Node43 -->
<g id="node42" class="node">
<title>Node43</title>
<polygon fill="#ffffff" stroke="#bfbfbf" points="1102.5,-230 1102.5,-249 1174.5,-249 1174.5,-230 1102.5,-230"/>
<text text-anchor="middle" x="1138.5" y="-237" font-family="Helvetica,sans-Serif" font-size="10.00" fill="#000000">sys/types.h</text>
</g>
<!-- Node27&#45;&gt;Node43 -->
<g id="edge51" class="edge">
<title>Node27&#45;&gt;Node43</title>
<path fill="none" stroke="#191970" d="M1235.3099,-296.9005C1216.5137,-285.7559 1185.2984,-267.2477 1163.4076,-254.2682"/>
<polygon fill="#191970" stroke="#191970" points="1165.0469,-251.1712 1154.6601,-249.0817 1161.4767,-257.1924 1165.0469,-251.1712"/>
</g>
<!-- Node44 -->
<g id="node43" class="node">
<title>Node44</title>
<polygon fill="#ffffff" stroke="#bfbfbf" points="1192.5,-230 1192.5,-249 1240.5,-249 1240.5,-230 1192.5,-230"/>
<text text-anchor="middle" x="1216.5" y="-237" font-family="Helvetica,sans-Serif" font-size="10.00" fill="#000000">time.h</text>
</g>
<!-- Node27&#45;&gt;Node44 -->
<g id="edge52" class="edge">
<title>Node27&#45;&gt;Node44</title>
<path fill="none" stroke="#191970" d="M1246.4854,-296.9005C1241.2353,-286.8505 1232.8571,-270.8122 1226.2897,-258.2403"/>
<polygon fill="#191970" stroke="#191970" points="1229.2378,-256.3246 1221.5053,-249.0817 1223.0334,-259.5657 1229.2378,-256.3246"/>
</g>
<!-- Node45 -->
<g id="node44" class="node">
<title>Node45</title>
<polygon fill="#ffffff" stroke="#bfbfbf" points="1258.5,-230 1258.5,-249 1314.5,-249 1314.5,-230 1258.5,-230"/>
<text text-anchor="middle" x="1286.5" y="-237" font-family="Helvetica,sans-Serif" font-size="10.00" fill="#000000">unistd.h</text>
</g>
<!-- Node27&#45;&gt;Node45 -->
<g id="edge53" class="edge">
<title>Node27&#45;&gt;Node45</title>
<path fill="none" stroke="#191970" d="M1256.5146,-296.9005C1261.7647,-286.8505 1270.1429,-270.8122 1276.7103,-258.2403"/>
<polygon fill="#191970" stroke="#191970" points="1279.9666,-259.5657 1281.4947,-249.0817 1273.7622,-256.3246 1279.9666,-259.5657"/>
</g>
<!-- Node46 -->
<g id="node45" class="node">
<title>Node46</title>
<g id="a_node45"><a xlink:href="argo_8h.html" target="_top" xlink:title="This file provides the full C interface to ArgoDSM. ">
<polygon fill="#ffffff" stroke="#000000" points="2058,-230 2058,-249 2105,-249 2105,-230 2058,-230"/>
<text text-anchor="middle" x="2081.5" y="-237" font-family="Helvetica,sans-Serif" font-size="10.00" fill="#000000">argo.h</text>
</a>
</g>
</g>
<!-- Node27&#45;&gt;Node46 -->
<g id="edge54" class="edge">
<title>Node27&#45;&gt;Node46</title>
<path fill="none" stroke="#191970" d="M1281.6779,-306.045C1384.2996,-304.1593 1729.0461,-295.0486 2010.5,-255 2022.866,-253.2404 2036.2858,-250.5237 2048.095,-247.8533"/>
<polygon fill="#191970" stroke="#191970" points="2049.0484,-251.2249 2057.9912,-245.5437 2047.4575,-244.4081 2049.0484,-251.2249"/>
</g>
<!-- Node47 -->
<g id="node46" class="node">
<title>Node47</title>
<polygon fill="#ffffff" stroke="#bfbfbf" points="2147.5,-112.5 2147.5,-131.5 2203.5,-131.5 2203.5,-112.5 2147.5,-112.5"/>
<text text-anchor="middle" x="2175.5" y="-119.5" font-family="Helvetica,sans-Serif" font-size="10.00" fill="#000000">stddef.h</text>
</g>
<!-- Node46&#45;&gt;Node47 -->
<g id="edge55" class="edge">
<title>Node46&#45;&gt;Node47</title>
<path fill="none" stroke="#191970" d="M2082.0181,-229.7347C2083.2519,-214.9867 2087.4209,-186.7647 2101.5,-168 2111.8517,-154.2032 2127.6625,-143.571 2142.0157,-136.0214"/>
<polygon fill="#191970" stroke="#191970" points="2143.7488,-139.0692 2151.1654,-131.5031 2140.6493,-132.7927 2143.7488,-139.0692"/>
</g>
<!-- Node48 -->
<g id="node47" class="node">
<title>Node48</title>
<g id="a_node47"><a xlink:href="allocators_8h.html" target="_top" xlink:title="This file provides all C allocators for ArgoDSM. ">
<polygon fill="#ffffff" stroke="#000000" points="1928,-168.5 1928,-187.5 2053,-187.5 2053,-168.5 1928,-168.5"/>
<text text-anchor="middle" x="1990.5" y="-175.5" font-family="Helvetica,sans-Serif" font-size="10.00" fill="#000000">allocators/allocators.h</text>
</a>
</g>
</g>
<!-- Node46&#45;&gt;Node48 -->
<g id="edge56" class="edge">
<title>Node46&#45;&gt;Node48</title>
<path fill="none" stroke="#191970" d="M2067.2813,-229.8906C2052.8566,-220.1421 2030.3024,-204.8994 2013.364,-193.4521"/>
<polygon fill="#191970" stroke="#191970" points="2014.8641,-190.2415 2004.6189,-187.5419 2010.9444,-196.0412 2014.8641,-190.2415"/>
</g>
<!-- Node51 -->
<g id="node50" class="node">
<title>Node51</title>
<g id="a_node50"><a xlink:href="synchronization_8h.html" target="_top" xlink:title="This file provides C bindings for some ArgoDSM synchronization primitives. ">
<polygon fill="#ffffff" stroke="#000000" points="2110,-168.5 2110,-187.5 2293,-187.5 2293,-168.5 2110,-168.5"/>
<text text-anchor="middle" x="2201.5" y="-175.5" font-family="Helvetica,sans-Serif" font-size="10.00" fill="#000000">synchronization/synchronization.h</text>
</a>
</g>
</g>
<!-- Node46&#45;&gt;Node51 -->
<g id="edge59" class="edge">
<title>Node46&#45;&gt;Node51</title>
<path fill="none" stroke="#191970" d="M2100.25,-229.8906C2119.976,-219.7811 2151.2312,-203.7628 2173.8,-192.1962"/>
<polygon fill="#191970" stroke="#191970" points="2175.5787,-195.2176 2182.8817,-187.5419 2172.386,-188.9881 2175.5787,-195.2176"/>
</g>
<!-- Node49 -->
<g id="node48" class="node">
<title>Node49</title>
<g id="a_node48"><a xlink:href="collective__allocator_8h.html" target="_top" xlink:title="This file provides the collective allocator for ArgoDSM. ">
<polygon fill="#ffffff" stroke="#000000" points="1957.5,-112.5 1957.5,-131.5 2077.5,-131.5 2077.5,-112.5 1957.5,-112.5"/>
<text text-anchor="middle" x="2017.5" y="-119.5" font-family="Helvetica,sans-Serif" font-size="10.00" fill="#000000">collective_allocator.h</text>
</a>
</g>
</g>
<!-- Node48&#45;&gt;Node49 -->
<g id="edge57" class="edge">
<title>Node48&#45;&gt;Node49</title>
<path fill="none" stroke="#191970" d="M1995.203,-168.2455C1998.8424,-160.6973 2003.9924,-150.0158 2008.4262,-140.8197"/>
<polygon fill="#191970" stroke="#191970" points="2011.6605,-142.1704 2012.8509,-131.6427 2005.3551,-139.1303 2011.6605,-142.1704"/>
</g>
<!-- Node50 -->
<g id="node49" class="node">
<title>Node50</title>
<g id="a_node49"><a xlink:href="dynamic__allocator_8h.html" target="_top" xlink:title="This file provides the dynamic allocator for ArgoDSM. ">
<polygon fill="#ffffff" stroke="#000000" points="1824,-112.5 1824,-131.5 1939,-131.5 1939,-112.5 1824,-112.5"/>
<text text-anchor="middle" x="1881.5" y="-119.5" font-family="Helvetica,sans-Serif" font-size="10.00" fill="#000000">dynamic_allocator.h</text>
</a>
</g>
</g>
<!-- Node48&#45;&gt;Node50 -->
<g id="edge58" class="edge">
<title>Node48&#45;&gt;Node50</title>
<path fill="none" stroke="#191970" d="M1971.5136,-168.2455C1954.3208,-159.4125 1928.7762,-146.2887 1909.2868,-136.2758"/>
<polygon fill="#191970" stroke="#191970" points="1910.763,-133.0993 1900.2688,-131.6427 1907.5641,-139.3257 1910.763,-133.0993"/>
</g>
<!-- Node51&#45;&gt;Node47 -->
<g id="edge60" class="edge">
<title>Node51&#45;&gt;Node47</title>
<path fill="none" stroke="#191970" d="M2196.9711,-168.2455C2193.4666,-160.6973 2188.5073,-150.0158 2184.2377,-140.8197"/>
<polygon fill="#191970" stroke="#191970" points="2187.3627,-139.2389 2179.977,-131.6427 2181.0136,-142.1867 2187.3627,-139.2389"/>
</g>
</g>
</svg>
        <g id="navigator" transform="translate(0 0)" fill="#404254">
                <rect fill="#f2f5e9" fill-opacity="0.5" stroke="#606060" stroke-width=".5" x="0" y="0" width="60" height="60"/>
                <use id="zoomplus" xlink:href="#zoomPlus" x="17" y="9" onmousedown="handleZoom(evt,'in')"/>
                <use id="zoomminus" xlink:href="#zoomMin" x="42" y="9" onmousedown="handleZoom(evt,'out')"/>
                <use id="reset" xlink:href="#resetDef" x="30" y="36" onmousedown="handleReset()"/>
                <g id="arrowUp" xlink:href="#dirArrow" transform="translate(30 24)" onmousedown="handlePan(0,-1)">
                  <use xlink:href="#rim" fill="#404040">
                        <set attributeName="fill" to="#808080" begin="arrowUp.mouseover" end="arrowUp.mouseout"/>
                  </use>
                  <path fill="none" stroke="white" stroke-width="1.5" d="M0,-3.0v7 M-2.5,-0.5L0,-3.0L2.5,-0.5"/>
                </g>
                <g id="arrowRight" xlink:href="#dirArrow" transform="rotate(90) translate(36 -43)" onmousedown="handlePan(1,0)">
                  <use xlink:href="#rim" fill="#404040">
                        <set attributeName="fill" to="#808080" begin="arrowRight.mouseover" end="arrowRight.mouseout"/>
                  </use>
                  <path fill="none" stroke="white" stroke-width="1.5" d="M0,-3.0v7 M-2.5,-0.5L0,-3.0L2.5,-0.5"/>
                </g>
                <g id="arrowDown" xlink:href="#dirArrow" transform="rotate(180) translate(-30 -48)" onmousedown="handlePan(0,1)">
                  <use xlink:href="#rim" fill="#404040">
                        <set attributeName="fill" to="#808080" begin="arrowDown.mouseover" end="arrowDown.mouseout"/>
                  </use>
                  <path fill="none" stroke="white" stroke-width="1.5" d="M0,-3.0v7 M-2.5,-0.5L0,-3.0L2.5,-0.5"/>
                </g>
                <g id="arrowLeft" xlink:href="#dirArrow" transform="rotate(270) translate(-36 17)" onmousedown="handlePan(-1,0)">
                  <use xlink:href="#rim" fill="#404040">
                        <set attributeName="fill" to="#808080" begin="arrowLeft.mouseover" end="arrowLeft.mouseout"/>
                  </use>
                  <path fill="none" stroke="white" stroke-width="1.5" d="M0,-3.0v7 M-2.5,-0.5L0,-3.0L2.5,-0.5"/>
                </g>
        </g>
        <svg viewBox="0 0 15 15" width="100%" height="30px" preserveAspectRatio="xMaxYMin meet">
         <g id="arrow_out" transform="scale(0.3 0.3)">
          <a xlink:href="write__buffer_8hpp__incl_org.svg" target="_base">
           <rect id="button" ry="5" rx="5" y="6" x="6" height="38" width="38"
                fill="#f2f5e9" fill-opacity="0.5" stroke="#606060" stroke-width="1.0"/>
           <path id="arrow"
             d="M 11.500037,31.436501 C 11.940474,20.09759 22.043105,11.32322 32.158766,21.979434 L 37.068811,17.246167 C 37.068811,17.246167 37.088388,32 37.088388,32 L 22.160133,31.978069 C 22.160133,31.978069 26.997745,27.140456 26.997745,27.140456 C 18.528582,18.264221 13.291696,25.230495 11.500037,31.436501 z"
             style="fill:#404040;"/>
          </a>
         </g>
        </svg>
</svg>
